<svg width="400" height="522" viewBox="0 0 400 522" fill="none" xmlns="http://www.w3.org/2000/svg">
<g clip-path="url(#clip0)">
<path d="M200.291 521.568C278.105 465.113 331.439 393.812 363.352 303.623C392.291 221.852 403.902 122.753 398.856 0.672112L398.835 0.190491H1.16126L1.14031 0.672112C-3.89578 122.753 7.71551 221.841 36.6443 303.623C68.557 393.812 121.891 465.113 199.705 521.568L199.998 521.777L200.291 521.568Z" fill="#32AC60"/>
<path fill-rule="evenodd" clip-rule="evenodd" d="M205.642 481.802V463.417L212.573 458.904L210.636 438.582C210.05 432.426 213.495 426.887 218.217 422.134C235.388 404.837 251.04 385.405 265.143 365.689C269.007 360.287 265.824 356.821 262.568 356.821H252.726C247.166 356.821 244.79 352.759 248.046 349.89C270.891 329.767 291.664 307.989 303.684 282.809C306.636 276.61 305.914 265.732 293.685 268.622L279.33 272.003C274.483 273.145 271.928 268.161 274.169 263.942C291.214 231.872 317.933 206.335 325.126 167.512C327.671 153.765 321.786 141.683 308.029 146.876C299.946 149.923 293.255 155.168 286.419 159.45C278.158 164.633 271.918 162.078 274.807 148.645C278.116 133.254 286.879 120.167 290.292 103.174C293.329 88.0447 278.063 74.3812 259.49 78.9881C253.26 80.5272 248.213 83.6472 242.717 87.2175C242.622 76.8731 242.224 65.6597 237.073 58.5087C233.922 54.1322 227.619 52.5931 220.625 51.7345C218.96 51.5356 218.646 49.7871 218.363 47.7036C216.646 34.5427 209.464 31.0771 200.24 29.7893C191.015 31.0771 183.833 34.5427 182.095 47.6931C181.823 49.7766 181.498 51.5251 179.833 51.7241C172.839 52.5721 166.536 54.1217 163.385 58.4982C158.234 65.6388 157.836 76.8522 157.742 87.2071C152.245 83.6472 147.198 80.5272 140.969 78.9776C122.395 74.3708 107.129 88.0342 110.166 103.163C113.579 120.156 122.342 133.244 125.651 148.635C128.541 162.068 122.3 164.623 114.04 159.44C107.203 155.147 100.512 149.912 92.4294 146.865C78.6718 141.683 72.7876 153.765 75.3318 167.502C82.5248 206.335 109.244 231.872 126.29 263.931C128.53 268.15 125.986 273.134 121.128 271.993L106.773 268.611C94.5444 265.721 93.8219 276.61 96.7745 282.798C108.794 307.989 129.567 329.756 152.412 349.88C155.679 352.759 153.302 356.811 147.732 356.811H137.89C134.634 356.811 131.441 360.276 135.315 365.679C149.418 385.394 165.071 404.827 182.242 422.123C186.964 426.876 190.408 432.426 189.822 438.571L187.885 458.894L194.816 463.406V481.792C198.418 481.792 202.019 481.792 205.632 481.792L205.642 481.802Z" fill="#FFE000"/>
<path d="M200.238 63.3249V442.613" stroke="#32AC60" stroke-width="3" stroke-linecap="round"/>
<path d="M125.504 294.095L200.239 366.496" stroke="#32AC60" stroke-width="3" stroke-linecap="round"/>
<path d="M105.339 183.95L200.239 297.959L295.14 183.95" stroke="#32AC60" stroke-width="3" stroke-linecap="round"/>
<path d="M224.509 71.7114L200.239 105.582L175.97 71.7114" stroke="#32AC60" stroke-width="3" stroke-linecap="round"/>
<path d="M261.436 113.969L200.238 207.34L139.041 113.969" stroke="#32AC60" stroke-width="3" stroke-linecap="round"/>
<path d="M274.974 294.095L200.238 366.496" stroke="#32AC60" stroke-width="3"/>
<path d="M233.376 378.107L200.238 415.035L167.101 378.107" stroke="#32AC60" stroke-width="3"/>
</g>
<defs>
<clipPath id="clip0">
<rect y="0.190491" width="400" height="521.59" fill="white"/>
</clipPath>
</defs>
</svg>
