<svg width="400" height="611" viewBox="0 0 400 611" fill="none" xmlns="http://www.w3.org/2000/svg">
<g clip-path="url(#clip0)">
<path d="M334.65 145.612C335.368 144.535 335.727 143.817 335.727 142.74C335.727 140.945 335.368 139.867 335.009 138.431C334.65 137.354 334.291 136.636 334.291 135.559C334.291 132.686 335.368 130.532 337.522 128.736C338.241 128.018 338.959 127.659 339.677 127.3C340.395 126.941 341.113 126.582 342.19 125.505C345.063 123.35 345.422 121.196 345.422 118.682C345.422 118.323 345.422 117.964 345.422 117.605C345.781 115.81 345.781 112.937 341.472 111.501L373.788 32.5065L356.553 25.6842L349.731 41.8422L343.627 39.6878L349.013 22.8117L332.136 17.7847L326.391 34.6609L319.569 32.5065L323.878 15.2713L307.002 10.6034L287.612 96.4203L291.921 97.4975L295.153 82.4167C315.26 87.4436 327.11 91.7524 342.19 97.8566L337.163 110.065C307.361 100.37 263.914 88.1618 213.285 87.4436L213.645 72.3628C231.239 72.3628 253.86 74.5172 274.686 77.7488L271.813 93.1887L276.122 93.9068L291.921 7.73089L269.659 3.78115L266.786 21.3754L259.605 20.2982L261.041 2.70396L240.934 0.908623L239.497 18.5029L232.675 18.1438V0.549557L210.413 0.190491L208.977 87.0846C206.463 87.0846 204.309 87.0846 201.795 87.0846C199.641 87.0846 197.487 87.0846 195.332 87.0846L194.973 0.549557L172.352 0.908623L172.711 18.8619L165.53 19.221L163.734 1.62676L143.627 3.42209L145.422 21.0163L138.241 22.0935L135.009 4.85835L113.106 8.80809L127.469 93.9068C122.801 94.625 118.133 95.3431 113.465 96.4203L94.7935 12.3987L77.5583 17.0666L81.8671 34.3018L74.6858 36.4562L69.2998 19.5801L52.4237 24.607L58.1688 41.4831L52.0646 43.6375L45.2424 27.4795L28.0072 34.3018L59.9641 111.86C57.8097 113.655 56.3734 115.81 56.3734 118.682C56.3734 121.914 57.4506 123.709 59.605 125.505C60.6822 126.223 61.4004 126.582 62.1185 127.3C62.8366 128.018 63.5548 128.018 64.2729 128.736C66.4273 130.891 67.5045 132.686 67.5045 135.918C67.5045 136.995 67.1454 137.713 66.7864 138.79C66.4273 139.867 66.0682 141.304 66.0682 143.099C66.0682 144.176 66.4273 145.253 67.1454 145.971H0V410.963C0 521.196 89.7666 610.962 200 610.962C310.233 610.962 400 521.196 400 410.963V145.612H334.65ZM310.233 16.3485L318.492 18.5029L314.183 35.7381L329.623 40.0469L335.368 23.1707L343.627 25.6842L338.241 42.2013L352.244 47.5873L359.066 31.4293L368.043 35.0199L359.066 57.2821C343.267 50.4598 329.623 45.0738 305.206 39.3287L310.233 16.3485ZM304.488 43.2785C328.187 49.0235 341.831 54.4095 357.63 61.2318L352.244 74.1582C335.368 66.9768 322.442 63.0271 301.257 58.0002L304.488 43.2785ZM296.589 77.7488L300.18 62.309C321.005 67.3359 333.932 71.2856 350.449 78.467L344.345 93.5478C329.264 87.4436 317.056 82.7758 296.589 77.7488ZM214.722 5.21742H228.007V22.8117L243.806 23.1707L245.242 5.93555L256.373 7.01275L254.937 24.607L270.736 26.4023L273.609 8.80809L286.894 10.9625L282.585 33.9427C254.219 29.2749 228.007 28.5567 214.363 28.5567L214.722 5.21742ZM214.363 32.8655C228.007 32.8655 253.86 33.5837 281.867 38.2515L278.995 52.9733C254.578 49.0235 231.598 46.8691 214.004 47.2282L214.363 32.8655ZM214.004 51.537C231.598 51.537 254.219 53.3323 278.276 57.2821L275.404 73.44C254.219 69.8494 231.957 68.054 213.645 68.054L214.004 51.537ZM315.619 145.612C307.002 142.74 259.605 127.3 200.718 127.3C139.318 127.3 89.7666 143.817 84.7397 145.612H73.9677L71.4542 143.458C71.0951 143.099 71.0951 143.099 71.0951 142.74C76.1221 140.945 89.0485 136.636 106.284 132.686C128.905 127.3 161.58 122.273 200.718 122.273C239.856 122.273 272.172 127.659 295.153 132.686C312.029 136.636 325.314 140.585 330.7 142.381V142.74C330.7 143.099 330.7 143.099 330.341 143.817L328.546 145.612H315.619ZM190.664 87.8027C170.916 88.5208 150.808 90.3162 132.136 93.1887L129.623 78.826C147.217 75.5944 169.479 73.44 190.305 73.081L190.664 87.8027ZM118.492 12.3987L131.777 9.88529L134.65 27.1205L150.09 24.607L148.294 7.37182L159.785 6.29462L161.58 23.8889L177.379 23.1707L177.02 5.21742H190.664V28.1977C161.939 28.9158 136.086 32.8655 122.442 35.379L118.492 12.3987ZM123.16 39.6878C136.445 37.1743 161.939 33.2246 190.664 32.5065V47.5873C165.889 48.3054 142.908 50.4598 125.673 53.6914L123.16 39.6878ZM126.391 58.3592C143.627 55.1277 166.248 52.9733 190.664 52.2551V68.4131C169.12 68.7722 147.217 70.9266 129.264 74.1582L126.391 58.3592ZM33.7522 37.1743L42.7289 33.5837L49.5512 49.7417L63.5548 44.3557L58.1688 27.8386L66.4273 25.3251L72.1724 42.2013L87.6122 37.5334L83.3034 20.2982L91.5619 17.7847L96.9479 40.4059C72.8905 46.5101 58.8869 51.8961 43.447 58.7183L33.7522 37.1743ZM44.5242 63.3862C59.9641 56.5639 73.6086 51.1779 97.6661 45.4329L100.898 60.1546C79.7127 65.5406 66.7864 69.1312 49.9102 76.6716L44.5242 63.3862ZM51.7056 80.6214C68.2226 73.44 81.149 69.4903 101.975 64.4634L105.566 79.9032C85.0987 84.9302 72.8905 89.239 58.1688 95.7022L51.7056 80.6214ZM59.605 99.6519C74.3267 93.5478 86.1759 88.8799 106.284 83.853L109.156 96.7794C91.2029 100.37 75.4039 104.679 63.5548 109.706L59.605 99.6519ZM64.2729 122.991C63.9138 122.632 63.5548 122.632 62.8366 122.273C61.7594 121.196 61.4004 120.837 61.4004 119.041C61.4004 117.964 61.7594 116.528 64.632 115.092C94.0754 102.524 149.372 93.1887 202.154 92.4706C259.605 91.3934 308.438 105.756 340.036 116.169C340.754 116.169 340.754 116.528 340.754 116.528C340.754 116.528 340.754 117.246 340.754 117.605C340.754 117.964 340.754 118.682 340.754 119.401C340.754 121.196 340.395 121.914 339.318 122.632C333.573 120.837 318.851 116.528 301.257 112.219C277.199 106.115 239.138 100.011 197.127 100.011C155.117 99.2928 105.566 106.833 64.2729 122.991ZM200.718 131.968C243.447 131.968 280.072 140.226 299.82 145.612H100.539C119.928 140.585 157.271 131.968 200.718 131.968ZM391.023 410.603C391.023 515.81 305.566 601.268 200.359 601.268C95.1526 601.268 9.69479 515.81 9.69479 410.603V155.307H391.023V410.603Z" fill="black"/>
<path d="M356.193 421.375C354.398 419.58 352.962 417.785 349.73 415.989C347.935 413.835 345.421 412.04 342.19 410.963C340.753 410.603 339.317 410.244 337.881 410.244C336.085 408.449 333.931 407.013 331.418 406.295C330.34 405.936 328.904 405.577 327.827 405.577C326.032 404.14 323.877 402.704 321.723 401.986C319.928 401.268 318.132 400.909 315.978 400.909C313.464 398.754 310.592 397.318 308.078 396.6C307.36 396.241 306.283 396.241 305.565 396.241C301.974 394.445 297.306 393.368 292.279 393.727C282.585 394.086 270.376 402.704 262.836 414.194C254.218 427.48 244.524 449.383 240.933 472.722H236.624C236.624 472.722 237.701 462.668 238.779 458C245.242 432.507 251.346 421.375 262.477 406.654C266.786 400.55 273.967 396.959 282.226 389.059C294.075 377.569 302.692 367.515 309.156 355.666C310.233 353.871 310.233 352.435 311.669 352.435C313.105 352.435 313.464 354.589 313.823 356.025C314.901 362.129 316.696 364.643 321.364 367.875C323.877 369.67 327.468 372.183 329.622 375.415C329.622 375.415 332.136 372.901 331.418 369.67C332.854 370.029 333.931 370.388 335.367 370.388C340.035 370.388 340.753 367.875 346.139 367.875C345.062 366.079 344.344 365.002 343.985 363.207C351.525 363.207 352.243 356.744 356.193 356.744C353.321 354.589 351.525 353.871 349.371 352.435C350.807 350.998 351.884 350.998 353.68 348.485C346.857 347.049 346.857 343.458 336.445 343.458C334.29 343.458 333.931 343.458 332.136 343.458C330.34 343.458 329.263 342.381 329.263 340.586C329.263 336.995 331.777 335.918 332.854 335.918C344.344 336.277 346.857 340.226 355.116 342.381C358.348 343.099 363.734 344.894 366.965 342.74C365.17 342.74 363.375 339.508 363.375 339.508C363.375 339.508 366.965 340.586 368.042 340.226C374.506 339.149 375.583 333.763 380.251 325.864C375.583 326.582 373.428 326.223 369.12 324.428C374.506 320.837 373.069 312.578 378.814 306.833C377.378 307.551 376.301 307.551 374.506 307.551C372.71 307.551 371.992 307.551 370.197 307.551C369.479 307.551 369.12 307.91 368.401 307.91C371.633 302.884 370.197 299.293 370.197 299.293C364.811 305.038 357.629 306.115 353.68 306.115C345.062 306.115 344.344 308.988 341.112 308.629C340.753 308.629 338.599 307.551 338.599 305.397C338.958 302.884 343.267 298.575 350.089 298.575C356.193 298.575 357.989 297.498 361.579 295.343C365.888 292.112 367.324 289.957 370.556 283.494L375.583 272.363C373.787 272.363 371.274 273.799 366.965 273.44C368.401 270.568 369.479 269.131 369.479 265.182C369.479 259.077 366.606 256.564 366.606 250.46C365.529 253.332 362.656 256.923 359.066 256.923C360.502 252.973 360.861 250.46 360.861 246.151C360.861 236.456 355.116 233.584 354.039 226.761C352.962 233.225 340.035 241.124 340.035 247.228C340.035 247.228 340.394 241.842 336.085 239.329C335.367 240.765 335.008 241.842 333.931 243.279C330.7 247.587 327.468 249.383 324.595 254.051C323.159 256.564 322.8 258.718 322.441 261.591C319.568 259.796 320.646 253.332 320.646 252.614C320.646 250.46 320.287 248.664 317.773 248.305C316.696 256.564 312.746 259.077 312.746 268.413C312.746 280.621 319.928 285.289 319.928 294.984C319.928 297.857 318.491 302.524 315.978 302.884C313.105 303.243 309.515 300.011 310.233 296.42C310.951 292.112 311.669 289.239 310.592 283.853C309.515 278.467 307.36 275.594 305.924 270.568C305.565 268.772 305.206 268.054 304.847 266.259C303.41 268.054 302.333 269.131 300.538 270.568C296.229 264.463 290.843 264.823 288.689 258C288.689 263.745 285.457 265.541 285.457 269.849C285.457 270.927 285.457 271.286 285.816 272.363C285.816 272.363 283.662 271.286 281.148 271.286C283.662 275.235 284.38 278.826 284.38 282.776C284.38 285.289 283.662 286.007 283.662 289.239C283.662 291.393 284.021 293.189 284.021 293.189C284.021 293.189 281.507 291.034 277.558 291.393C280.789 293.907 282.226 295.702 282.226 301.806C282.226 309.347 290.484 312.578 293.357 314.015C296.588 315.81 298.024 320.478 298.024 322.273C298.024 324.068 295.87 324.787 295.511 324.787C294.075 324.787 292.638 324.428 291.561 322.632C290.484 320.837 289.048 317.964 286.893 317.246C282.944 315.81 282.944 315.81 280.43 311.501C280.43 311.501 278.994 315.092 280.071 317.964C280.071 318.323 280.071 318.682 280.071 318.682C280.071 318.682 279.712 318.682 279.712 318.323C277.558 316.887 273.967 314.374 269.658 315.451C266.786 316.169 264.631 316.887 264.631 316.887C264.631 317.605 266.427 317.964 266.427 317.964C269.299 317.964 271.454 321.914 271.454 325.864C271.454 332.327 274.326 335.2 274.326 335.2C274.326 335.2 268.581 335.2 266.786 339.508C278.635 339.508 272.172 350.639 290.843 350.998C292.998 350.998 299.102 350.998 299.102 350.998C292.638 361.052 289.048 367.156 276.48 378.647C267.863 386.546 264.272 389.419 257.809 395.523C251.346 401.627 245.601 410.244 239.497 423.53C232.674 438.611 227.647 453.332 225.134 472.004C218.671 472.004 213.285 471.645 205.385 471.645C216.157 452.614 223.339 438.97 223.339 414.912C223.339 408.449 222.98 402.345 221.184 395.882C215.08 374.697 204.308 359.975 203.949 336.636C203.949 332.327 204.667 327.659 205.385 323.709C207.899 327.659 213.644 342.381 229.084 342.381C236.624 342.381 243.805 336.277 247.755 336.277H250.269C249.191 334.84 247.755 333.404 247.755 333.404C252.782 332.327 253.5 327.3 256.014 322.632C257.45 320.119 258.527 318.682 259.245 316.169L255.655 317.246H254.218C259.963 312.578 259.245 308.27 263.554 302.884C259.245 304.32 251.346 303.602 251.346 303.602C252.423 301.806 252.064 300.011 252.064 300.011C250.628 301.088 244.883 304.679 242.728 304.679C226.211 304.679 229.084 312.937 222.261 311.501C219.748 311.142 220.825 308.27 220.825 307.551C220.825 305.756 225.852 300.011 229.443 298.934C235.188 297.138 236.265 297.498 243.805 297.138C249.191 296.779 252.423 296.42 256.014 293.907C257.45 293.189 259.245 293.548 259.245 292.112C259.245 291.752 256.373 291.752 255.655 290.675C266.068 286.007 265.708 273.44 271.094 269.849C268.94 270.568 267.504 270.927 265.708 270.927C263.195 270.927 261.759 270.209 259.963 268.772C262.836 265.9 266.068 263.386 266.068 258C266.068 256.205 265.708 255.128 265.708 253.332C265.708 251.896 266.068 251.178 266.068 249.383C264.631 252.255 255.655 256.205 249.91 256.923C249.55 255.846 249.551 254.051 249.551 252.973C249.551 251.178 247.396 250.46 248.114 249.024C241.292 262.309 237.701 257.641 228.725 264.104C225.493 266.618 225.134 268.054 222.261 270.927C219.748 273.44 216.875 274.876 214.362 274.876C213.285 274.876 212.208 272.722 212.208 272.004C212.208 270.209 214.362 266.618 216.875 264.463C220.107 261.95 224.057 260.873 226.929 259.077C235.547 254.05 242.369 252.973 242.369 239.329C241.651 240.047 240.933 240.406 239.856 240.765C240.215 239.329 240.215 238.611 240.215 236.815C240.215 234.302 239.856 233.584 239.856 231.429C239.856 228.916 240.933 225.325 240.574 221.375C240.574 221.375 236.983 225.684 231.238 229.634C231.597 224.248 229.084 221.375 229.084 217.785C229.084 214.194 229.802 213.476 231.238 210.963C230.161 210.963 229.802 210.963 228.725 210.963C226.929 210.963 227.288 210.244 224.775 210.244C223.698 210.244 222.98 210.244 222.261 210.963C222.621 209.885 222.621 209.167 222.621 207.731C222.621 203.781 221.543 202.704 221.543 199.472C221.543 195.523 222.261 193.727 223.339 191.214C221.184 194.445 216.157 191.932 214.003 197.318C212.926 195.523 212.567 194.805 212.567 192.65C212.567 186.187 216.157 183.673 216.157 178.287C216.157 176.492 215.798 175.056 214.362 173.62C213.644 175.056 212.567 177.928 208.617 180.083C200.717 185.11 194.254 188.341 190.664 199.831C190.305 198.036 190.305 196.6 189.945 194.805C189.945 194.805 177.378 201.627 177.378 216.349C175.583 215.271 176.301 211.681 175.224 210.963C174.506 212.399 174.147 213.476 173.069 214.553C170.197 218.503 168.042 222.094 168.042 226.761C168.042 228.198 168.042 229.275 168.402 230.352C166.965 228.916 165.529 225.684 165.529 225.684C164.452 229.634 164.811 231.429 164.811 235.738C164.811 250.101 174.506 249.383 182.046 258.359C184.2 261.232 184.919 265.182 184.919 267.336C184.919 268.772 184.919 273.44 183.123 273.44C182.405 273.44 180.251 275.235 178.814 270.209C177.378 265.9 175.942 264.463 170.915 259.077C166.965 255.128 164.093 253.691 160.861 250.46C157.629 247.587 158.348 242.201 156.911 238.97C152.603 241.124 152.603 246.869 152.603 246.869C143.626 241.842 142.549 236.097 141.472 232.147C138.599 237.533 137.522 244.356 137.522 249.024C137.522 253.332 138.958 258 141.112 262.668C138.958 261.591 137.881 260.873 136.086 259.437C134.29 258 133.213 256.564 131.418 254.769C132.136 261.232 132.136 263.027 132.136 268.413C132.136 274.876 136.445 282.417 140.394 285.648C137.163 286.366 133.931 288.162 133.931 288.162C141.472 288.88 147.935 294.984 159.066 294.984C161.938 294.984 172.71 299.652 172.71 303.602C172.71 303.961 172.71 305.756 170.556 305.756C166.965 305.756 165.17 303.961 157.989 302.884C155.116 302.524 152.244 302.884 148.294 301.447C145.421 300.37 145.421 298.934 141.472 297.498C141.112 297.498 140.394 301.447 143.267 304.32C136.804 303.961 137.163 299.652 132.495 300.011C133.572 303.243 136.086 305.756 136.445 308.629C138.599 321.914 144.344 323.709 148.294 325.146C146.139 325.864 145.421 327.3 143.985 329.095C142.908 330.532 141.831 333.404 142.549 335.2C142.549 335.2 146.139 332.327 151.166 332.327C158.707 332.327 157.629 337.354 169.12 337.354C183.482 337.354 187.791 324.068 192.459 321.196C191.382 326.941 191.023 332.686 191.023 338.431C191.023 353.512 196.409 365.72 201.077 377.569C206.463 390.855 210.771 400.55 210.771 415.271C210.771 432.507 202.154 451.896 189.227 470.568C184.559 470.209 180.251 470.209 180.251 470.209C185.996 458 188.15 454.051 193.177 450.101C195.691 447.228 195.691 442.56 189.586 442.201C185.996 442.201 182.046 441.124 179.533 443.638C179.533 443.638 170.556 454.051 164.093 468.772C163.734 469.49 156.911 468.772 156.193 468.772C165.529 454.41 171.633 442.201 171.633 426.043C171.633 404.858 157.989 387.982 134.649 373.979C117.414 363.566 108.796 361.052 98.7426 350.639L98.0245 349.921H98.7426C100.538 350.28 103.051 350.639 106.283 349.562C120.646 344.535 119.568 334.84 124.236 334.481C124.954 334.481 126.032 334.481 126.75 334.481C126.391 333.404 124.595 331.25 123.518 330.891C124.954 328.736 125.673 327.3 126.75 325.146C127.827 323.35 129.263 322.632 129.981 320.478C128.904 320.837 128.186 321.196 127.109 321.196L124.595 320.837C123.877 320.837 121.005 321.914 120.287 322.632C119.928 321.914 119.928 320.478 119.568 319.76C118.491 320.837 115.978 323.35 113.105 324.428C112.028 324.787 107.36 325.864 104.129 328.377C100.897 330.891 102.333 331.609 98.7426 332.686C97.6654 333.045 95.511 331.609 95.511 330.173C95.511 329.095 95.1519 326.223 97.6654 324.787C102.333 322.273 110.233 321.196 113.464 317.964C118.132 313.296 120.646 311.501 124.236 310.065C121.723 310.065 120.287 308.988 117.773 308.27C119.928 303.961 114.542 295.702 117.414 289.598C118.132 288.162 118.85 288.521 119.209 287.444C118.491 286.366 117.414 286.366 116.337 286.366C115.619 286.366 115.26 286.726 114.182 287.085C114.542 285.289 114.182 282.776 114.182 281.699C113.823 278.826 111.31 275.954 112.028 271.286C109.874 275.235 105.924 274.876 103.77 278.826C103.051 278.108 102.692 277.39 101.615 277.031C100.897 280.98 99.1017 283.853 95.8701 286.366C95.511 285.289 91.9204 284.212 92.2794 283.494C91.2022 288.88 89.4069 288.162 87.6115 293.189C86.8934 295.343 86.5344 299.293 86.8934 302.165C87.2525 303.961 85.0981 305.038 83.3028 305.397C82.2256 305.397 79.353 304.679 78.6349 301.806C75.7624 292.112 80.7893 287.803 83.3028 285.289C86.1753 282.776 91.9203 277.749 91.5613 274.876C91.2022 273.081 90.8431 265.182 90.8431 262.668C89.4069 265.541 88.3297 266.259 84.38 267.695C82.9437 261.95 78.994 260.514 73.967 256.205C71.8126 254.41 71.0945 251.896 70.3764 248.665C69.2992 250.101 65.3494 255.846 65.7085 260.514C66.4266 265.541 67.5038 265.541 68.581 269.131C68.9401 270.568 68.222 271.645 67.1448 271.645C65.7085 271.286 64.9904 269.49 64.9904 268.054C64.6313 266.259 64.6313 264.463 64.2722 261.591C63.195 251.896 50.2686 244.715 42.3692 242.919C43.0873 244.715 43.8054 245.792 44.1645 247.587C44.8826 252.973 39.4966 257.641 40.2148 265.182C40.2148 265.541 40.2148 265.9 40.5738 266.259C38.4194 264.463 36.6241 263.745 33.7516 263.386C34.8288 264.823 35.1879 265.9 35.1879 267.695C35.906 273.799 32.6744 276.313 33.7516 283.135C34.1107 286.007 36.2651 286.726 37.7013 289.239C37.3422 289.239 36.9832 289.598 36.6241 289.598C33.7516 289.957 31.9563 287.444 29.0837 287.803C30.52 290.675 31.5972 290.675 32.6744 293.907C33.7516 297.138 33.7516 296.779 36.2651 299.293C37.7013 300.729 40.2148 302.165 42.0101 302.884C45.6008 304.32 48.8324 303.243 54.2184 304.32C57.809 305.038 59.9634 306.833 62.4769 309.706C63.5541 310.783 64.2722 313.296 64.9904 315.092C64.9904 315.451 64.6313 317.605 63.195 317.964C61.7588 317.964 60.6816 317.964 59.2453 316.887C56.3728 314.733 54.2184 312.219 51.3458 310.783C47.037 308.988 45.2417 309.347 40.5738 307.91C39.1376 307.192 37.7013 306.115 36.9832 304.679C36.2651 303.961 35.5469 302.524 35.1879 302.884C34.4697 303.602 34.4697 304.32 34.1107 305.397C33.7516 306.833 33.3925 307.551 33.7516 308.988C31.2381 308.27 29.4428 308.27 26.9293 307.192C25.4931 306.474 24.7749 305.038 22.9796 305.038C22.9796 305.397 22.9796 305.397 22.9796 305.756C23.3387 307.192 23.6977 307.91 24.4159 309.347C25.4931 312.219 25.134 314.374 25.4931 317.605C25.8521 320.119 30.8791 324.068 31.9563 325.146C31.9563 325.146 21.9024 321.914 20.8252 323.35C25.8521 326.223 25.8521 330.532 28.7247 335.2C30.8791 338.072 33.3925 339.508 36.9832 339.867C35.1879 342.022 35.1878 343.817 35.5469 346.331C35.5469 347.049 35.906 347.408 36.2651 347.408C37.7013 345.253 40.5738 342.381 43.4464 342.022C45.6008 341.663 47.037 342.022 49.9096 341.663C61.3997 340.226 58.5272 337.354 64.6313 336.277C66.4266 335.918 68.222 338.79 68.581 340.586C68.9401 342.74 66.0676 345.612 63.5541 345.253C58.1681 344.894 52.423 345.972 50.2686 346.69C47.037 348.126 47.037 348.126 42.7282 349.562C43.4464 350.28 44.5236 350.639 44.8826 351.717C41.651 352.435 40.2148 354.948 39.4966 358.18C40.5738 358.18 41.292 357.821 42.3692 357.821C45.9598 357.821 48.1142 358.18 50.9868 359.616C54.5774 361.77 55.6546 364.643 61.0406 363.207C61.0406 363.925 61.0406 364.284 61.0406 364.643C61.0406 365.72 61.7588 366.797 62.836 367.156C63.9132 365.361 62.836 364.643 75.0442 363.207C85.0981 362.129 86.5343 352.435 86.5343 352.435C86.5343 352.794 88.6887 354.948 90.125 357.103C105.565 374.697 161.22 391.573 161.22 423.171C161.22 441.124 154.398 451.178 145.78 464.463C145.421 464.463 145.062 464.463 144.703 464.104L138.958 461.95C144.344 453.332 152.603 437.533 151.884 421.016C151.525 411.681 148.294 403.422 141.831 396.6C133.572 387.623 122.441 383.673 110.233 385.469C100.897 386.905 93.3566 390.855 90.125 395.882C87.9706 399.113 86.5344 404.14 86.8934 409.526C86.1753 410.244 85.8162 410.963 85.4571 411.681C83.6618 414.912 82.9437 419.221 84.0209 423.53C82.2255 424.966 79.7121 428.198 79.7121 432.147C79.7121 432.866 79.7121 433.584 80.0712 434.661C77.5577 437.174 75.7624 441.124 77.1986 445.074C75.7624 447.228 75.0442 449.383 75.4033 451.537C75.7624 452.973 76.4805 454.41 77.5577 455.846C75.7624 458 74.6852 461.232 74.3261 463.745C73.608 467.695 74.3261 471.645 74.3261 474.517C74.3261 478.826 71.0945 487.803 71.0945 487.803C75.7624 483.494 80.0712 475.235 79.7121 469.849C79.7121 468.413 80.4302 464.463 80.4302 464.463C81.5074 461.95 82.5846 460.514 84.0209 459.437C84.739 459.437 85.8162 459.796 86.5343 459.796C87.9706 459.796 89.7659 459.436 91.2022 458.359C92.2794 457.641 94.0747 455.846 94.0747 452.614C95.8701 452.255 97.3063 451.178 97.6654 450.819C99.8198 449.024 100.897 446.51 100.897 443.997C101.615 443.638 101.974 443.279 102.692 442.919C104.847 441.483 105.924 438.611 105.565 435.738C105.924 435.379 106.642 435.379 107.001 435.02C109.515 433.225 110.592 430.352 110.592 426.402C112.746 425.325 114.182 423.53 115.26 421.735C117.055 418.144 117.414 412.04 114.901 407.731C113.105 404.499 110.233 402.345 106.642 401.986C102.692 401.268 97.6654 402.704 92.9975 405.217C93.3566 403.063 94.0747 400.909 95.1519 399.472C97.6654 395.523 103.41 392.65 111.31 391.573C121.364 390.137 130.7 393.368 137.522 400.909C142.908 406.654 145.78 413.476 145.78 421.375C146.498 436.815 138.24 451.896 133.213 459.796C129.981 458.359 127.468 457.641 127.468 457.641C127.468 457.641 114.542 458.359 104.488 471.286C90.125 489.598 92.2794 506.474 74.6852 522.632C113.464 517.964 173.069 519.042 177.019 519.042C191.382 519.042 194.254 531.25 203.949 550.998C205.026 552.794 207.899 553.512 212.567 553.512C216.516 553.512 232.674 550.998 229.084 545.972C224.416 538.79 220.825 532.327 215.439 521.196C215.439 521.196 247.755 521.555 282.944 528.018C304.129 531.968 328.545 479.903 336.085 469.131C336.085 469.131 338.599 464.463 342.908 459.796C343.267 459.077 343.985 459.077 343.985 458.359C343.985 458 343.626 457.641 343.267 457.641C337.522 457.641 316.337 468.772 285.457 468.772C291.92 452.614 300.897 439.688 300.897 437.533C300.897 434.661 294.075 432.866 285.457 432.866C277.558 432.866 271.813 433.584 270.017 437.174C267.145 442.56 261.4 455.128 253.5 469.131H247.755C250.269 450.819 260.682 426.043 268.581 413.835C275.044 403.781 285.457 396.6 293.357 396.241C293.357 396.241 293.357 396.241 293.716 396.241C289.048 399.113 286.175 404.14 285.457 409.526C284.739 413.476 285.098 417.785 286.534 421.375C288.33 426.402 292.279 429.275 296.947 430.352C299.102 430.711 301.615 430.711 303.41 429.993C305.206 431.07 307.001 431.429 308.796 431.429C311.31 431.429 313.464 431.07 315.26 429.993C315.978 430.352 316.696 430.352 317.414 430.352C317.773 430.352 318.132 430.352 318.132 430.352C319.928 430.352 321.723 429.993 323.159 429.275C324.595 430.711 326.391 431.429 328.545 431.788C329.263 431.788 329.981 432.147 330.699 432.147C332.854 432.147 334.649 431.429 336.445 430.352C337.522 431.07 338.599 431.429 340.035 431.788C340.753 432.147 341.472 432.147 342.19 432.147C346.139 432.147 350.807 429.634 352.603 424.966C352.962 424.248 353.321 423.171 353.321 421.735C353.68 422.094 354.039 422.453 354.398 422.812C356.193 424.607 358.348 426.043 360.861 427.121C363.375 427.839 364.811 428.557 367.683 428.557C370.197 428.557 373.428 426.043 373.787 426.043C373.787 426.043 370.556 425.684 366.965 425.325C361.579 427.839 357.989 422.812 356.193 421.375ZM86.8934 457.641C85.8162 458.359 83.3027 457.641 82.2255 457.282C81.1483 456.564 80.4302 455.846 80.0712 455.128C80.0712 454.769 80.0712 454.769 80.0712 454.41C80.7893 454.769 81.5074 455.487 82.5846 455.846C84.38 456.564 85.8162 457.282 86.8934 457.282C87.2525 457.282 86.8934 457.641 86.8934 457.641ZM92.9975 450.819C91.5613 452.255 88.6888 451.896 85.0981 450.46C82.9437 449.383 81.8665 448.305 81.5074 447.946C80.7893 446.51 81.5074 445.074 81.8665 444.356C82.5846 445.074 83.6618 445.792 85.0981 446.51C88.3297 448.305 91.2022 449.024 93.7157 449.383C94.0747 449.742 93.7157 450.101 92.9975 450.819ZM98.3835 442.56C96.9473 443.638 93.3566 443.279 88.6888 440.765C86.8934 439.688 84.739 438.252 84.739 436.456C84.739 435.379 85.0981 434.661 85.8162 433.943C87.2525 436.456 89.4069 438.252 91.5613 439.329C92.2794 439.688 95.511 441.124 99.4607 441.483C98.7426 441.842 98.7426 442.201 98.3835 442.56ZM102.692 434.661C100.897 436.097 96.2291 435.02 93.7157 433.584C91.9203 432.507 89.7659 430.352 89.0478 427.121C88.6887 426.043 88.6887 424.966 88.3297 423.889C89.0478 425.325 90.125 426.761 91.5613 427.839C95.1519 431.07 99.4607 432.507 103.77 432.507C103.41 433.584 103.051 434.302 102.692 434.661ZM104.488 412.04C106.283 412.399 107.719 413.117 108.437 414.912C109.874 417.426 109.515 421.375 108.437 423.53C108.078 424.607 106.283 426.043 103.77 426.402C100.897 427.121 97.6654 426.043 94.7929 423.53C92.6385 421.735 91.5613 418.862 91.2022 415.989C95.511 413.476 101.256 411.322 104.488 412.04ZM308.078 418.144C306.642 424.607 301.615 428.557 296.588 427.839C293.716 427.48 291.92 425.684 290.484 422.812C289.407 419.939 289.407 416.349 289.766 414.194C290.484 410.244 292.638 407.013 295.87 404.858C298.024 403.422 300.538 402.704 303.051 402.704C303.41 403.063 303.77 403.422 304.129 403.781C306.642 405.936 309.156 413.117 308.078 418.144ZM317.414 417.785C316.696 424.248 313.823 427.839 309.156 428.557C311.31 426.043 313.105 423.171 313.823 419.58C314.542 415.989 314.182 411.322 312.746 407.372C313.105 407.372 313.105 407.372 313.464 407.372C315.978 409.885 317.773 413.476 317.414 417.785ZM325.313 420.298C324.236 423.53 322.8 425.684 320.646 426.761C321.723 424.607 322.8 421.735 323.159 418.503C323.518 414.912 323.159 412.04 321.723 409.167C325.673 411.322 326.75 415.271 325.313 420.298ZM335.008 422.812C334.29 426.043 332.495 429.993 328.545 429.275C328.186 429.275 327.827 428.916 327.468 428.916C329.263 427.121 330.7 424.607 331.418 421.735C332.495 418.862 332.495 415.63 331.777 413.117C335.008 415.271 336.086 418.503 335.008 422.812ZM345.421 426.402C344.344 428.916 341.471 429.634 340.035 429.275C339.676 429.275 339.317 428.916 338.958 428.916C339.676 427.48 340.394 426.043 340.753 424.248C341.471 421.735 341.471 419.221 341.112 417.067C343.267 418.144 344.703 419.221 345.421 420.657C346.498 422.812 345.78 424.966 345.421 426.402Z" fill="black"/>
</g>
<defs>
<clipPath id="clip0">
<rect y="0.190491" width="400" height="610.77" fill="white"/>
</clipPath>
</defs>
</svg>
