<svg width="400" height="611" xmlns="http://www.w3.org/2000/svg" fill-rule="evenodd" stroke-linejoin="round" stroke-miterlimit="2" clip-rule="evenodd" viewBox="0 0 400 611">
  <clipPath id="a">
    <path d="M0 .19h400v610.77H0z"/>
  </clipPath>
  <g fill-rule="nonzero" clip-path="url(#a)">
    <path fill="#fff" d="M334.65 145.612c.718-1.077 1.077-1.795 1.077-2.872 0-1.795-.359-2.873-.718-4.309-.359-1.077-.718-1.795-.718-2.872 0-2.873 1.077-5.027 3.231-6.823.719-.718 1.437-1.077 2.155-1.436.718-.359 1.436-.718 2.513-1.795 2.873-2.155 3.232-4.309 3.232-6.823v-1.077c.359-1.795.359-4.668-3.95-6.104l32.316-78.994-17.235-6.823-6.822 16.158-6.104-2.154 5.386-16.876-16.877-5.027-5.745 16.876-6.822-2.154 4.309-17.236-16.876-4.668-19.39 85.817-11.49-2.513 15.799-86.176-22.262-3.95-2.873 17.594-7.181-1.077 1.436-17.594L240.934.909l-1.437 17.594-6.822-.359V.55L210.413.19l-1.436 86.895h-13.645L194.973.55l-22.621.359.359 17.953-7.181.359-1.796-17.594-20.107 1.795 1.795 17.594-7.181 1.078-3.232-17.236-21.903 3.95 14.363 85.099c-4.668.718-9.336 1.436-14.004 2.513L94.793 12.399l-17.235 4.668 4.309 17.235-7.181 2.154L69.3 19.58l-16.876 5.027 5.745 16.876-6.104 2.155-6.823-16.158-17.235 6.822 31.957 77.558c-2.154 1.795-3.591 3.95-3.591 6.822 0 3.232 1.078 5.027 3.232 6.823 1.077.718 1.795 1.077 2.513 1.795.719.718 1.437.718 2.155 1.436 2.154 2.155 3.231 3.95 3.231 7.182 0 1.077-.359 1.795-.718 2.872a13.396 13.396 0 0 0-.718 4.309c0 1.077.359 2.154 1.077 2.872H0v264.992c0 110.233 89.767 199.999 200 199.999s200-89.766 200-199.999V145.612h-65.35Z"/>
    <path d="M334.65 145.612c.718-1.077 1.077-1.795 1.077-2.872 0-1.795-.359-2.873-.718-4.309-.359-1.077-.718-1.795-.718-2.872 0-2.873 1.077-5.027 3.231-6.823.719-.718 1.437-1.077 2.155-1.436.718-.359 1.436-.718 2.513-1.795 2.873-2.155 3.232-4.309 3.232-6.823v-1.077c.359-1.795.359-4.668-3.95-6.104l32.316-78.994-17.235-6.823-6.822 16.158-6.104-2.154 5.386-16.876-16.877-5.027-5.745 16.876-6.822-2.154 4.309-17.236-16.876-4.668-19.39 85.817 4.309 1.078 3.232-15.081c20.107 5.027 31.957 9.335 47.037 15.44l-5.027 12.208c-29.802-9.695-73.249-21.903-123.878-22.621l.36-15.081c17.594 0 40.215 2.154 61.041 5.386l-2.873 15.44 4.309.718 15.799-86.176-22.262-3.95-2.873 17.594-7.181-1.077 1.436-17.594L240.934.909l-1.437 17.594-6.822-.359V.55L210.413.19l-1.436 86.895h-13.645L194.973.55l-22.621.359.359 17.953-7.181.359-1.796-17.594-20.107 1.795 1.795 17.594-7.181 1.078-3.232-17.236-21.903 3.95 14.363 85.099c-4.668.718-9.336 1.436-14.004 2.513L94.793 12.399l-17.235 4.668 4.309 17.235-7.181 2.154L69.3 19.58l-16.876 5.027 5.745 16.876-6.104 2.155-6.823-16.158-17.235 6.822 31.957 77.558c-2.154 1.795-3.591 3.95-3.591 6.822 0 3.232 1.078 5.027 3.232 6.823 1.077.718 1.795 1.077 2.513 1.795.719.718 1.437.718 2.155 1.436 2.154 2.155 3.231 3.95 3.231 7.182 0 1.077-.359 1.795-.718 2.872a13.396 13.396 0 0 0-.718 4.309c0 1.077.359 2.154 1.077 2.872H0v264.992c0 110.233 89.767 199.999 200 199.999s200-89.766 200-199.999V145.612h-65.35ZM310.233 16.349l8.259 2.154-4.309 17.235 15.44 4.309 5.745-16.876 8.259 2.513-5.386 16.517 14.003 5.386 6.822-16.158 8.977 3.591-8.977 22.262c-15.799-6.822-29.443-12.208-53.86-17.953l5.027-22.98Zm-5.745 26.93c23.699 5.745 37.343 11.131 53.142 17.953l-5.386 12.926C335.368 66.977 322.442 63.027 301.257 58l3.231-14.721Zm-7.899 34.47 3.591-15.44c20.825 5.027 33.752 8.977 50.269 16.158l-6.104 15.081c-15.081-6.104-27.289-10.772-47.756-15.799ZM214.722 5.217h13.285v17.595l15.799.359 1.436-17.235 11.131 1.077-1.436 17.594 15.799 1.795 2.873-17.594 13.285 2.155-4.309 22.98c-28.366-4.668-54.578-5.386-68.222-5.386l.359-23.34Zm-.359 27.649c13.644 0 39.497.718 67.504 5.386l-2.872 14.721c-24.417-3.949-47.397-6.104-64.991-5.745l.359-14.362Zm-.359 18.671c17.594 0 40.215 1.795 64.272 5.745l-2.872 16.158c-21.185-3.591-43.447-5.386-61.759-5.386l.359-16.517Zm101.615 94.075c-8.617-2.872-56.014-18.312-114.901-18.312-61.4 0-110.951 16.517-115.978 18.312H73.968l-2.514-2.154c-.359-.359-.359-.359-.359-.718 5.027-1.795 17.954-6.104 35.189-10.054 22.621-5.386 55.296-10.413 94.434-10.413s71.454 5.386 94.435 10.413c16.876 3.95 30.161 7.899 35.547 9.695v.359c0 .359 0 .359-.359 1.077l-1.795 1.795h-12.927ZM190.664 87.803c-19.748.718-39.856 2.513-58.528 5.386l-2.513-14.363c17.594-3.232 39.856-5.386 60.682-5.745l.359 14.722Zm-72.172-75.404 13.285-2.514 2.873 17.236 15.44-2.514-1.796-17.235 11.491-1.077 1.795 17.594 15.799-.718-.359-17.954h13.644v22.981c-28.725.718-54.578 4.668-68.222 7.181l-3.95-22.98Zm4.668 27.289c13.285-2.514 38.779-6.463 67.504-7.181v15.08c-24.775.718-47.756 2.873-64.991 6.104l-2.513-14.003Zm3.231 18.671c17.236-3.231 39.857-5.386 64.273-6.104v16.158c-21.544.359-43.447 2.514-61.4 5.745l-2.873-15.799ZM33.752 37.174l8.977-3.59 6.822 16.158 14.004-5.386-5.386-16.517 8.258-2.514 5.745 16.876 15.44-4.668-4.309-17.235 8.259-2.513 5.386 22.621c-24.057 6.104-38.061 11.49-53.501 18.312l-9.695-21.544Zm10.772 26.212c15.44-6.822 29.085-12.208 53.142-17.953l3.232 14.722c-21.185 5.386-34.112 8.976-50.988 16.517l-5.386-13.286Zm7.182 17.235c16.517-7.181 29.443-11.131 50.269-16.158l3.591 15.44c-20.467 5.027-32.675 9.336-47.397 15.799l-6.463-15.081Zm7.899 19.031c14.722-6.104 26.571-10.772 46.679-15.799l2.872 12.926c-17.953 3.591-33.752 7.9-45.601 12.927l-3.95-10.054Zm4.668 23.339c-.359-.359-.718-.359-1.436-.718-1.078-1.077-1.437-1.436-1.437-3.232 0-1.077.359-2.513 3.232-3.949 29.443-12.568 84.74-21.903 137.522-22.621 57.451-1.078 106.284 13.285 137.882 23.698.718 0 .718.359.718.359v2.873c0 1.795-.359 2.513-1.436 3.231-5.745-1.795-20.467-6.104-38.061-10.413-24.058-6.104-62.119-12.208-104.13-12.208-42.01-.718-91.561 6.822-132.854 22.98Zm136.445 8.977c42.729 0 79.354 8.258 99.102 13.644H100.539c19.389-5.027 56.732-13.644 100.179-13.644Zm190.305 278.635c0 105.207-85.457 190.665-190.664 190.665-105.206 0-190.664-85.458-190.664-190.665V155.307h381.328v255.296Z"/>
    <path d="M356.193 421.375c-1.795-1.795-3.231-3.59-6.463-5.386-1.795-2.154-4.309-3.949-7.54-5.026-1.437-.36-2.873-.719-4.309-.719-1.796-1.795-3.95-3.231-6.463-3.949-1.078-.359-2.514-.718-3.591-.718-1.795-1.437-3.95-2.873-6.104-3.591-1.795-.718-3.591-1.077-5.745-1.077-2.514-2.155-5.386-3.591-7.9-4.309-.718-.359-1.795-.359-2.513-.359-3.591-1.796-8.259-2.873-13.286-2.514-9.694.359-21.903 8.977-29.443 20.467-8.618 13.286-18.312 35.189-21.903 58.528h-4.309s1.077-10.054 2.155-14.722c6.463-25.493 12.567-36.625 23.698-51.346 4.309-6.104 11.49-9.695 19.749-17.595 11.849-11.49 20.466-21.544 26.93-33.393 1.077-1.795 1.077-3.231 2.513-3.231s1.795 2.154 2.154 3.59c1.078 6.104 2.873 8.618 7.541 11.85 2.513 1.795 6.104 4.308 8.258 7.54 0 0 2.514-2.514 1.796-5.745 1.436.359 2.513.718 3.949.718 4.668 0 5.386-2.513 10.772-2.513-1.077-1.796-1.795-2.873-2.154-4.668 7.54 0 8.258-6.463 12.208-6.463-2.872-2.155-4.668-2.873-6.822-4.309 1.436-1.437 2.513-1.437 4.309-3.95-6.823-1.436-6.823-5.027-17.235-5.027h-4.309c-1.796 0-2.873-1.077-2.873-2.872 0-3.591 2.514-4.668 3.591-4.668 11.49.359 14.003 4.308 22.262 6.463 3.232.718 8.618 2.513 11.849.359-1.795 0-3.59-3.232-3.59-3.232s3.59 1.078 4.667.718c6.464-1.077 7.541-6.463 12.209-14.362-4.668.718-6.823.359-11.131-1.436 5.386-3.591 3.949-11.85 9.694-17.595-1.436.718-2.513.718-4.308.718h-4.309c-.718 0-1.077.359-1.796.359 3.232-5.026 1.796-8.617 1.796-8.617-5.386 5.745-12.568 6.822-16.517 6.822-8.618 0-9.336 2.873-12.568 2.514-.359 0-2.513-1.078-2.513-3.232.359-2.513 4.668-6.822 11.49-6.822 6.104 0 7.9-1.077 11.49-3.232 4.309-3.231 5.745-5.386 8.977-11.849l5.027-11.131c-1.796 0-4.309 1.436-8.618 1.077 1.436-2.872 2.514-4.309 2.514-8.258 0-6.105-2.873-8.618-2.873-14.722-1.077 2.872-3.95 6.463-7.54 6.463 1.436-3.95 1.795-6.463 1.795-10.772 0-9.695-5.745-12.567-6.822-19.39-1.077 6.464-14.004 14.363-14.004 20.467 0 0 .359-5.386-3.95-7.899-.718 1.436-1.077 2.513-2.154 3.95-3.231 4.308-6.463 6.104-9.336 10.772-1.436 2.513-1.795 4.667-2.154 7.54-2.873-1.795-1.795-8.259-1.795-8.977 0-2.154-.359-3.95-2.873-4.309-1.077 8.259-5.027 10.772-5.027 20.108 0 12.208 7.182 16.876 7.182 26.571 0 2.873-1.437 7.54-3.95 7.9-2.873.359-6.463-2.873-5.745-6.464.718-4.308 1.436-7.181.359-12.567s-3.232-8.259-4.668-13.285c-.359-1.796-.718-2.514-1.077-4.309-1.437 1.795-2.514 2.872-4.309 4.309-4.309-6.105-9.695-5.745-11.849-12.568 0 5.745-3.232 7.541-3.232 11.849 0 1.078 0 1.437.359 2.514 0 0-2.154-1.077-4.668-1.077 2.514 3.949 3.232 7.54 3.232 11.49 0 2.513-.718 3.231-.718 6.463 0 2.154.359 3.95.359 3.95s-2.514-2.155-6.463-1.796c3.231 2.514 4.668 4.309 4.668 10.413 0 7.541 8.258 10.772 11.131 12.209 3.231 1.795 4.667 6.463 4.667 8.258 0 1.795-2.154 2.514-2.513 2.514-1.436 0-2.873-.359-3.95-2.155-1.077-1.795-2.513-4.668-4.668-5.386-3.949-1.436-3.949-1.436-6.463-5.745 0 0-1.436 3.591-.359 6.463v.718s-.359 0-.359-.359c-2.154-1.436-5.745-3.949-10.054-2.872-2.872.718-5.027 1.436-5.027 1.436 0 .718 1.796 1.077 1.796 1.077 2.872 0 5.027 3.95 5.027 7.9 0 6.463 2.872 9.336 2.872 9.336s-5.745 0-7.54 4.308c11.849 0 5.386 11.131 24.057 11.49h8.259c-6.464 10.054-10.054 16.158-22.622 27.649-8.617 7.899-12.208 10.772-18.671 16.876-6.463 6.104-12.208 14.721-18.312 28.007-6.823 15.081-11.85 29.802-14.363 48.474-6.463 0-11.849-.359-19.749-.359 10.772-19.031 17.954-32.675 17.954-56.733 0-6.463-.359-12.567-2.155-19.03-6.104-21.185-16.876-35.907-17.235-59.246 0-4.309.718-8.977 1.436-12.927 2.514 3.95 8.259 18.672 23.699 18.672 7.54 0 14.721-6.104 18.671-6.104h2.514c-1.078-1.437-2.514-2.873-2.514-2.873 5.027-1.077 5.745-6.104 8.259-10.772 1.436-2.513 2.513-3.95 3.231-6.463l-3.59 1.077h-1.437c5.745-4.668 5.027-8.976 9.336-14.362-4.309 1.436-12.208.718-12.208.718 1.077-1.796.718-3.591.718-3.591-1.436 1.077-7.181 4.668-9.336 4.668-16.517 0-13.644 8.258-20.467 6.822-2.513-.359-1.436-3.231-1.436-3.95 0-1.795 5.027-7.54 8.618-8.617 5.745-1.796 6.822-1.436 14.362-1.796 5.386-.359 8.618-.718 12.209-3.231 1.436-.718 3.231-.359 3.231-1.795 0-.36-2.872-.36-3.59-1.437 10.413-4.668 10.053-17.235 15.439-20.826-2.154.719-3.59 1.078-5.386 1.078-2.513 0-3.949-.718-5.745-2.155 2.873-2.872 6.105-5.386 6.105-10.772 0-1.795-.36-2.872-.36-4.668 0-1.436.36-2.154.36-3.949-1.437 2.872-10.413 6.822-16.158 7.54-.36-1.077-.359-2.872-.359-3.95 0-1.795-2.155-2.513-1.437-3.949-6.822 13.285-10.413 8.617-19.389 15.08-3.232 2.514-3.591 3.95-6.464 6.823-2.513 2.513-5.386 3.949-7.899 3.949-1.077 0-2.154-2.154-2.154-2.872 0-1.795 2.154-5.386 4.667-7.541 3.232-2.513 7.182-3.59 10.054-5.386 8.618-5.027 15.44-6.104 15.44-19.748-.718.718-1.436 1.077-2.513 1.436.359-1.436.359-2.154.359-3.95 0-2.513-.359-3.231-.359-5.386 0-2.513 1.077-6.104.718-10.054 0 0-3.591 4.309-9.336 8.259.359-5.386-2.154-8.259-2.154-11.849 0-3.591.718-4.309 2.154-6.822h-2.513c-1.796 0-1.437-.719-3.95-.719-1.077 0-1.795 0-2.514.719.36-1.078.36-1.796.36-3.232 0-3.95-1.078-5.027-1.078-8.259 0-3.949.718-5.745 1.796-8.258-2.155 3.231-7.182.718-9.336 6.104-1.077-1.795-1.436-2.513-1.436-4.668 0-6.463 3.59-8.977 3.59-14.363 0-1.795-.359-3.231-1.795-4.667-.718 1.436-1.795 4.308-5.745 6.463-7.9 5.027-14.363 8.258-17.953 19.748-.359-1.795-.359-3.231-.719-5.026 0 0-12.567 6.822-12.567 21.544-1.795-1.078-1.077-4.668-2.154-5.386-.718 1.436-1.077 2.513-2.155 3.59-2.872 3.95-5.027 7.541-5.027 12.208 0 1.437 0 2.514.36 3.591-1.437-1.436-2.873-4.668-2.873-4.668-1.077 3.95-.718 5.745-.718 10.054 0 14.363 9.695 13.645 17.235 22.621 2.154 2.873 2.873 6.823 2.873 8.977 0 1.436 0 6.104-1.796 6.104-.718 0-2.872 1.795-4.309-3.231-1.436-4.309-2.872-5.746-7.899-11.132-3.95-3.949-6.822-5.386-10.054-8.617-3.232-2.873-2.513-8.259-3.95-11.49-4.308 2.154-4.308 7.899-4.308 7.899-8.977-5.027-10.054-10.772-11.131-14.722-2.873 5.386-3.95 12.209-3.95 16.877 0 4.308 1.436 8.976 3.59 13.644-2.154-1.077-3.231-1.795-5.026-3.231-1.796-1.437-2.873-2.873-4.668-4.668.718 6.463.718 8.258.718 13.644 0 6.463 4.309 14.004 8.258 17.235-3.231.718-6.463 2.514-6.463 2.514 7.541.718 14.004 6.822 25.135 6.822 2.872 0 13.644 4.668 13.644 8.618 0 .359 0 2.154-2.154 2.154-3.591 0-5.386-1.795-12.567-2.872-2.873-.36-5.745 0-9.695-1.437-2.873-1.077-2.873-2.513-6.822-3.949-.36 0-1.078 3.949 1.795 6.822-6.463-.359-6.104-4.668-10.772-4.309 1.077 3.232 3.591 5.745 3.95 8.618 2.154 13.285 7.899 15.08 11.849 16.517-2.155.718-2.873 2.154-4.309 3.949-1.077 1.437-2.154 4.309-1.436 6.105 0 0 3.59-2.873 8.617-2.873 7.541 0 6.463 5.027 17.954 5.027 14.362 0 18.671-13.286 23.339-16.158-1.077 5.745-1.436 11.49-1.436 17.235 0 15.081 5.386 27.289 10.054 39.138 5.386 13.286 9.694 22.981 9.694 37.702 0 17.236-8.617 36.625-21.544 55.297-4.668-.359-8.976-.359-8.976-.359 5.745-12.209 7.899-16.158 12.926-20.108 2.514-2.873 2.514-7.541-3.591-7.9-3.59 0-7.54-1.077-10.053 1.437 0 0-8.977 10.413-15.44 25.134-.359.718-7.182 0-7.9 0 9.336-14.362 15.44-26.571 15.44-42.729 0-21.185-13.644-38.061-36.984-52.064-17.235-10.413-25.853-12.927-35.906-23.34l-.718-.718h.718c1.795.359 4.308.718 7.54-.359 14.363-5.027 13.285-14.722 17.953-15.081h2.514c-.359-1.077-2.155-3.231-3.232-3.59 1.436-2.155 2.155-3.591 3.232-5.745 1.077-1.796 2.513-2.514 3.231-4.668-1.077.359-1.795.718-2.872.718l-2.514-.359c-.718 0-3.59 1.077-4.308 1.795-.359-.718-.359-2.154-.719-2.872-1.077 1.077-3.59 3.59-6.463 4.668-1.077.359-5.745 1.436-8.976 3.949-3.232 2.514-1.796 3.232-5.386 4.309-1.078.359-3.232-1.077-3.232-2.513 0-1.078-.359-3.95 2.154-5.386 4.668-2.514 12.568-3.591 15.799-6.823 4.668-4.668 7.182-6.463 10.772-7.899-2.513 0-3.949-1.077-6.463-1.795 2.155-4.309-3.231-12.568-.359-18.672.718-1.436 1.436-1.077 1.795-2.154-.718-1.078-1.795-1.078-2.872-1.078-.718 0-1.077.36-2.155.719.36-1.796 0-4.309 0-5.386-.359-2.873-2.872-5.745-2.154-10.413-2.154 3.949-6.104 3.59-8.258 7.54-.719-.718-1.078-1.436-2.155-1.795-.718 3.949-2.513 6.822-5.745 9.335-.359-1.077-3.95-2.154-3.591-2.872-1.077 5.386-2.872 4.668-4.667 9.695-.719 2.154-1.078 6.104-.719 8.976.36 1.796-1.795 2.873-3.59 3.232-1.077 0-3.95-.718-4.668-3.591-2.873-9.694 2.154-14.003 4.668-16.517 2.872-2.513 8.617-7.54 8.258-10.413-.359-1.795-.718-9.694-.718-12.208-1.436 2.873-2.513 3.591-6.463 5.027-1.436-5.745-5.386-7.181-10.413-11.49-2.154-1.795-2.872-4.309-3.591-7.54-1.077 1.436-5.027 7.181-4.667 11.849.718 5.027 1.795 5.027 2.872 8.617.359 1.437-.359 2.514-1.436 2.514-1.436-.359-2.155-2.155-2.155-3.591-.359-1.795-.359-3.591-.718-6.463-1.077-9.695-14.003-16.876-21.903-18.672.718 1.796 1.436 2.873 1.795 4.668.719 5.386-4.667 10.054-3.949 17.595 0 .359 0 .718.359 1.077-2.155-1.796-3.95-2.514-6.822-2.873 1.077 1.437 1.436 2.514 1.436 4.309.718 6.104-2.514 8.618-1.436 15.44.359 2.872 2.513 3.591 3.949 6.104-.359 0-.718.359-1.077.359-2.872.359-4.668-2.154-7.54-1.795 1.436 2.872 2.513 2.872 3.59 6.104 1.078 3.231 1.078 2.872 3.591 5.386 1.436 1.436 3.95 2.872 5.745 3.591 3.591 1.436 6.822.359 12.208 1.436 3.591.718 5.745 2.513 8.259 5.386 1.077 1.077 1.795 3.59 2.513 5.386 0 .359-.359 2.513-1.795 2.872-1.436 0-2.513 0-3.95-1.077-2.872-2.154-5.027-4.668-7.899-6.104-4.309-1.795-6.104-1.436-10.772-2.873-1.436-.718-2.873-1.795-3.591-3.231-.718-.718-1.436-2.155-1.795-1.795-.718.718-.718 1.436-1.077 2.513-.359 1.436-.718 2.154-.359 3.591-2.514-.718-4.309-.718-6.823-1.796-1.436-.718-2.154-2.154-3.949-2.154v.718c.359 1.436.718 2.154 1.436 3.591 1.077 2.872.718 5.027 1.077 8.258.359 2.514 5.386 6.463 6.463 7.541 0 0-10.054-3.232-11.131-1.796 5.027 2.873 5.027 7.182 7.9 11.85 2.154 2.872 4.668 4.308 8.258 4.667-1.795 2.155-1.795 3.95-1.436 6.464 0 .718.359 1.077.718 1.077 1.436-2.155 4.309-5.027 7.181-5.386 2.155-.359 3.591 0 6.464-.359 11.49-1.437 8.617-4.309 14.721-5.386 1.796-.359 3.591 2.513 3.95 4.309.359 2.154-2.513 5.026-5.027 4.667-5.386-.359-11.131.719-13.285 1.437-3.232 1.436-3.232 1.436-7.541 2.872.718.718 1.796 1.077 2.155 2.155-3.232.718-4.668 3.231-5.386 6.463 1.077 0 1.795-.359 2.872-.359 3.591 0 5.745.359 8.618 1.795 3.59 2.154 4.668 5.027 10.054 3.591v1.436c0 1.077.718 2.154 1.795 2.513 1.077-1.795 0-2.513 12.208-3.949 10.054-1.078 11.49-10.772 11.49-10.772 0 .359 2.155 2.513 3.591 4.668 15.44 17.594 71.095 34.47 71.095 66.068 0 17.953-6.822 28.007-15.44 41.292-.359 0-.718 0-1.077-.359l-5.745-2.154c5.386-8.618 13.645-24.417 12.926-40.934-.359-9.335-3.59-17.594-10.053-24.416-8.259-8.977-19.39-12.927-31.598-11.131-9.336 1.436-16.876 5.386-20.108 10.413-2.154 3.231-3.591 8.258-3.232 13.644-.718.718-1.077 1.437-1.436 2.155-1.795 3.231-2.513 7.54-1.436 11.849-1.795 1.436-4.309 4.668-4.309 8.617 0 .719 0 1.437.359 2.514-2.513 2.513-4.309 6.463-2.872 10.413-1.437 2.154-2.155 4.309-1.796 6.463.359 1.436 1.078 2.873 2.155 4.309-1.796 2.154-2.873 5.386-3.232 7.899-.718 3.95 0 7.9 0 10.772 0 4.309-3.231 13.286-3.231 13.286 4.667-4.309 8.976-12.568 8.617-17.954 0-1.436.718-5.386.718-5.386 1.077-2.513 2.155-3.949 3.591-5.026.718 0 1.795.359 2.513.359 1.437 0 3.232-.36 4.668-1.437 1.077-.718 2.873-2.513 2.873-5.745 1.795-.359 3.231-1.436 3.59-1.795 2.155-1.795 3.232-4.309 3.232-6.822.718-.359 1.077-.718 1.795-1.078 2.155-1.436 3.232-4.308 2.873-7.181.359-.359 1.077-.359 1.436-.718 2.514-1.795 3.591-4.668 3.591-8.618 2.154-1.077 3.59-2.872 4.668-4.667 1.795-3.591 2.154-9.695-.359-14.004-1.796-3.232-4.668-5.386-8.259-5.745-3.95-.718-8.977.718-13.644 3.231.359-2.154 1.077-4.308 2.154-5.745 2.513-3.949 8.258-6.822 16.158-7.899 10.054-1.436 19.39 1.795 26.212 9.336 5.386 5.745 8.258 12.567 8.258 20.466.718 15.44-7.54 30.521-12.567 38.421-3.232-1.437-5.745-2.155-5.745-2.155s-12.926.718-22.98 13.645c-14.363 18.312-12.209 35.188-29.803 51.346 38.779-4.668 98.384-3.59 102.334-3.59 14.363 0 17.235 12.208 26.93 31.956 1.077 1.796 3.95 2.514 8.618 2.514 3.949 0 20.107-2.514 16.517-7.54-4.668-7.182-8.259-13.645-13.645-24.776 0 0 32.316.359 67.505 6.822 21.185 3.95 45.601-48.115 53.141-58.887 0 0 2.514-4.668 6.823-9.335.359-.719 1.077-.719 1.077-1.437 0-.359-.359-.718-.718-.718-5.745 0-26.93 11.131-57.81 11.131 6.463-16.158 15.44-29.084 15.44-31.239 0-2.872-6.822-4.667-15.44-4.667-7.899 0-13.644.718-15.44 4.308-2.872 5.386-8.617 17.954-16.517 31.957h-5.745c2.514-18.312 12.927-43.088 20.826-55.296 6.463-10.054 16.876-17.235 24.776-17.594h.359c-4.668 2.872-7.541 7.899-8.259 13.285-.718 3.95-.359 8.259 1.077 11.849 1.796 5.027 5.745 7.9 10.413 8.977 2.155.359 4.668.359 6.463-.359 1.796 1.077 3.591 1.436 5.386 1.436 2.514 0 4.668-.359 6.464-1.436.718.359 1.436.359 2.154.359h.718c1.796 0 3.591-.359 5.027-1.077 1.436 1.436 3.232 2.154 5.386 2.513.718 0 1.436.359 2.154.359 2.155 0 3.95-.718 5.746-1.795 1.077.718 2.154 1.077 3.59 1.436.718.359 1.437.359 2.155.359 3.949 0 8.617-2.513 10.413-7.181.359-.718.718-1.795.718-3.231l1.077 1.077c1.795 1.795 3.95 3.231 6.463 4.309 2.514.718 3.95 1.436 6.822 1.436 2.514 0 5.745-2.514 6.104-2.514 0 0-3.231-.359-6.822-.718-5.386 2.514-8.976-2.513-10.772-3.95Zm-269.3 36.266c-1.077.718-3.59 0-4.667-.359-1.078-.718-1.796-1.436-2.155-2.154v-.718c.718.359 1.436 1.077 2.514 1.436 1.795.718 3.231 1.436 4.308 1.436.36 0 0 .359 0 .359Zm6.105-6.822c-1.437 1.436-4.309 1.077-7.9-.359-2.154-1.077-3.231-2.155-3.591-2.514-.718-1.436 0-2.872.36-3.59.718.718 1.795 1.436 3.231 2.154 3.232 1.795 6.104 2.514 8.618 2.873.359.359 0 .718-.718 1.436Zm5.386-8.259c-1.437 1.078-5.027.719-9.695-1.795-1.796-1.077-3.95-2.513-3.95-4.309 0-1.077.359-1.795 1.077-2.513 1.437 2.513 3.591 4.309 5.745 5.386.718.359 3.95 1.795 7.9 2.154-.718.359-.718.718-1.077 1.077Zm4.308-7.899c-1.795 1.436-6.463.359-8.976-1.077-1.796-1.077-3.95-3.232-4.668-6.463-.359-1.078-.359-2.155-.718-3.232.718 1.436 1.795 2.872 3.231 3.95 3.591 3.231 7.9 4.668 12.209 4.668-.36 1.077-.719 1.795-1.078 2.154Zm1.796-22.621c1.795.359 3.231 1.077 3.949 2.872 1.437 2.514 1.078 6.463 0 8.618-.359 1.077-2.154 2.513-4.667 2.872-2.873.719-6.105-.359-8.977-2.872-2.155-1.795-3.232-4.668-3.591-7.541 4.309-2.513 10.054-4.667 13.286-3.949Zm203.59 6.104c-1.436 6.463-6.463 10.413-11.49 9.695-2.872-.359-4.668-2.155-6.104-5.027-1.077-2.873-1.077-6.463-.718-8.618.718-3.95 2.872-7.181 6.104-9.336a12.948 12.948 0 0 1 7.181-2.154l1.078 1.077c2.513 2.155 5.027 9.336 3.949 14.363Zm9.336-.359c-.718 6.463-3.591 10.054-8.258 10.772 2.154-2.514 3.949-5.386 4.667-8.977.719-3.591.359-8.258-1.077-12.208h.718c2.514 2.513 4.309 6.104 3.95 10.413Zm7.899 2.513c-1.077 3.232-2.513 5.386-4.667 6.463 1.077-2.154 2.154-5.026 2.513-8.258.359-3.591 0-6.463-1.436-9.336 3.95 2.155 5.027 6.104 3.59 11.131Zm9.695 2.514c-.718 3.231-2.513 7.181-6.463 6.463-.359 0-.718-.359-1.077-.359 1.795-1.795 3.232-4.309 3.95-7.181 1.077-2.873 1.077-6.105.359-8.618 3.231 2.154 4.309 5.386 3.231 9.695Zm10.413 3.59c-1.077 2.514-3.95 3.232-5.386 2.873-.359 0-.718-.359-1.077-.359.718-1.436 1.436-2.873 1.795-4.668.718-2.513.718-5.027.359-7.181 2.155 1.077 3.591 2.154 4.309 3.59 1.077 2.155.359 4.309 0 5.745Z"/>
  </g>
</svg>
