<svg width="400" height="507" viewBox="0 0 400 507" fill="none" xmlns="http://www.w3.org/2000/svg">
<g clip-path="url(#clip0)">
<path d="M400 0.190491H0V306.035V306.126C0 416.587 89.5436 506.121 199.995 506.121C310.446 506.121 400 416.577 400 306.126V306.035V0.190491Z" fill="#0085CA"/>
<path fill-rule="evenodd" clip-rule="evenodd" d="M129.467 269.704C126.014 272.314 123.571 279.053 121.493 281.402C118.814 284.431 114.955 287.882 112.467 290.156C110.967 291.527 111.653 296.068 113.074 295.274L128.038 286.913C131.717 284.858 146.112 287.535 153.79 286.839C162.209 286.076 182.687 287.753 194.134 287.593C206.369 287.423 220.123 286.727 228.967 283.953C230.818 283.372 238.721 287.755 241.153 288.797C249.966 292.576 257.242 290.956 265.232 290.477C266.988 290.513 266.084 288.814 263.353 287.868C260.87 287.007 262.573 284.713 260.707 284.44C258.665 284.142 254.102 283.578 254.719 281.297C255.322 279.067 247.984 285.415 244.902 284.519C243.331 284.062 236.196 279.901 237.297 279.372C242.135 277.045 247.461 275.386 247.461 275.386C247.657 275.648 281.262 286.311 293.706 291.645C294.865 288.807 293.849 281.928 291.252 280.467C292.841 278.141 287.356 270.124 284.526 269.187C285.102 266.92 279.584 259.47 276.137 258.889C276.596 256.679 271.583 251.939 268.727 252.409C268.391 249.897 265.737 247.599 264.082 248.212C262.126 248.938 250.182 255.485 245.139 256.449C241.089 257.224 232.144 254.192 227.244 252.372C243.799 234.008 261.82 215.324 278.087 205.693C310.194 225.59 342.674 259.189 383.11 287.652C384.914 288.922 385.729 287.748 384.765 286.359C369.095 253.311 334.097 214.801 302.039 189.433L256.465 187.747C239.09 196.395 221.381 209.381 197.788 224.952C181.259 211.416 168.379 201.425 152.371 191.67C144.535 186.073 117.542 187.349 112.997 190.144C86.0759 206.702 22.8992 263.067 13.4349 280.962C12.0775 283.529 12.4859 284.318 14.968 282.846C51.2806 261.314 135.778 208.422 135.778 208.422C150.447 218.2 158.766 232.292 173.499 248.248L170.039 252.232C150.109 258.082 136.832 264.134 129.467 269.704V269.704Z" fill="white" stroke="#0085CA" stroke-linecap="round" stroke-linejoin="round"/>
<path d="M113.074 295.274L128.477 282.102L132.27 282.429" stroke="#0085CA" stroke-linecap="round" stroke-linejoin="round"/>
<path d="M135.777 277.111C137.131 275.737 139.7 275.309 142.084 275.52" stroke="#0085CA" stroke-linecap="round"/>
<path d="M138.803 278.209C139.411 278.209 139.903 277.716 139.903 277.109C139.903 276.501 139.411 276.009 138.803 276.009C138.196 276.009 137.703 276.501 137.703 277.109C137.703 277.716 138.196 278.209 138.803 278.209Z" fill="black" stroke="#0085CA" stroke-linecap="round" stroke-linejoin="round"/>
<path d="M170.039 252.232L161.677 263.036" stroke="#0085CA" stroke-linecap="round"/>
<path d="M173.5 248.248C181.596 240.482 192.035 228.033 197.789 224.952" stroke="#0085CA"/>
<path d="M176.547 266.071C195.108 242.683 221.513 219.967 254.232 197.793H265.156L278.088 205.693" stroke="#0085CA" stroke-linecap="round" stroke-linejoin="round"/>
<path d="M227.245 252.372L215.39 266.678L200.824 271.988L186.258 266.678" stroke="#0085CA" stroke-linecap="round" stroke-linejoin="round"/>
<path d="M256.507 252.415C268.172 258.774 270.324 273.58 267.431 282.154" stroke="#0085CA"/>
<path d="M291.252 280.467L268.646 275.933" stroke="#0085CA"/>
<path d="M284.526 269.187L268.342 269.56" stroke="#0085CA"/>
<path d="M276.137 258.889L265.763 262.581" stroke="#0085CA"/>
<path d="M268.727 252.409L261.059 256.36" stroke="#0085CA"/>
<path d="M17.6865 278.361C46.7966 248.489 78.9065 221.242 114.489 197.034C116.272 195.821 120.638 196.143 121.924 197.186L135.779 208.422" stroke="#0085CA" stroke-linecap="round"/>
<path fill-rule="evenodd" clip-rule="evenodd" d="M114.74 150.985C112.032 154.045 108.132 157.533 105.618 159.831C104.102 161.216 104.795 165.805 106.232 165.002L121.354 156.554C125.071 154.477 139.618 157.182 147.377 156.479C155.884 155.708 182.517 154.433 194.084 154.272C206.448 154.1 220.347 153.397 229.284 150.593C231.155 150.006 239.141 154.435 241.599 155.489C250.504 159.307 257.857 157.67 265.932 157.186C267.705 157.223 266.792 155.506 264.032 154.549C261.523 153.679 263.244 151.361 261.358 151.085C259.296 150.784 254.684 150.214 255.307 147.909C255.917 145.655 248.501 152.07 245.388 151.165C243.8 150.703 236.59 146.498 237.702 145.964C242.591 143.612 247.973 141.936 247.973 141.936C248.171 142.201 282.131 152.977 294.705 158.366C295.876 155.498 294.85 148.547 292.226 147.07C293.832 144.72 288.289 136.619 285.429 135.671C286.011 133.38 280.435 125.852 276.951 125.265C277.415 123.032 272.349 118.241 269.463 118.717C269.124 116.179 266.441 113.856 264.769 114.476C262.793 115.209 250.722 121.825 245.627 122.799C241.534 123.582 232.495 120.519 227.543 118.68C244.273 100.122 262.484 85.1761 278.922 75.4441C311.367 95.5511 342.93 122.349 383.792 151.112C385.615 152.395 386.438 151.209 385.464 149.805C369.629 116.409 335.522 84.6483 303.126 59.0127L257.072 57.3094C239.514 66.0483 214.727 80.2986 190.886 96.0341C174.183 82.3552 158.571 68.7127 142.643 58.4575C134.461 53.1897 114.725 53.5314 110.133 56.3558C82.928 73.0879 23.9845 130.887 14.4205 148.971C13.0488 151.564 13.4615 152.361 15.9698 150.874C52.665 129.115 127.416 81.5445 127.416 81.5445C135.94 87.9266 148.546 99.9274 163.434 116.051L159.937 120.078C139.797 125.989 132.22 131.159 126.754 135.292C121.288 139.426 116.839 148.611 114.74 150.985V150.985Z" fill="white" stroke="#0085CA" stroke-linecap="round" stroke-linejoin="round"/>
<path d="M106.231 165.002L122.984 151.098L127.609 151.23" stroke="#0085CA" stroke-linecap="round" stroke-linejoin="round"/>
<path d="M130.955 144.273C132.323 142.885 134.919 142.452 137.328 142.665" stroke="#0085CA" stroke-linecap="round"/>
<path d="M134.013 145.382C134.627 145.382 135.125 144.885 135.125 144.271C135.125 143.657 134.627 143.159 134.013 143.159C133.399 143.159 132.901 143.657 132.901 144.271C132.901 144.885 133.399 145.382 134.013 145.382Z" fill="black" stroke="#0085CA" stroke-linecap="round" stroke-linejoin="round"/>
<path d="M159.937 120.078L154.706 125.117" stroke="#0085CA" stroke-linecap="round"/>
<path d="M163.434 116.051C171.615 108.204 187.59 98.8671 190.885 96.0342" stroke="#0085CA"/>
<path d="M176.311 132.522C195.068 108.888 221.75 89.8686 254.814 67.4606H265.854L278.922 75.4441" stroke="#0085CA" stroke-linecap="round" stroke-linejoin="round"/>
<path d="M227.542 118.68L215.562 133.136L200.842 138.502L186.123 133.136" stroke="#0085CA" stroke-linecap="round" stroke-linejoin="round"/>
<path d="M257.114 118.723C268.902 125.149 271.077 140.111 268.154 148.775" stroke="#0085CA"/>
<path d="M292.226 147.07L269.381 142.489" stroke="#0085CA"/>
<path d="M285.429 135.671L269.074 136.049" stroke="#0085CA"/>
<path d="M276.951 125.265L266.467 128.996" stroke="#0085CA"/>
<path d="M269.463 118.717L261.714 122.709" stroke="#0085CA"/>
<path d="M18.7158 146.342C48.1326 116.155 68.2635 94.2199 104.221 69.7569C106.023 68.5311 110.391 68.9135 111.734 69.9102L127.415 81.5445" stroke="#0085CA" stroke-linecap="round"/>
<path fill-rule="evenodd" clip-rule="evenodd" d="M136.419 388.886C133.313 391.235 131.114 397.3 129.244 399.414C126.833 402.139 123.36 405.245 121.121 407.292C119.771 408.525 120.388 412.611 121.667 411.897L135.134 404.373C138.444 402.524 151.398 404.932 158.308 404.306C165.884 403.62 184.312 405.128 194.614 404.985C205.624 404.832 218 404.206 225.96 401.709C227.625 401.186 234.737 405.13 236.926 406.069C244.856 409.469 251.404 408.011 258.595 407.58C260.174 407.613 259.361 406.084 256.903 405.232C254.669 404.458 256.201 402.393 254.522 402.147C252.685 401.879 248.579 401.371 249.134 399.319C249.677 397.312 243.073 403.024 240.3 402.218C238.886 401.807 232.465 398.063 233.455 397.586C237.809 395.492 242.602 394 242.602 394C242.779 394.236 273.02 403.832 284.218 408.631C285.261 406.077 284.347 399.887 282.01 398.572C283.44 396.479 278.504 389.265 275.957 388.421C276.476 386.381 271.51 379.677 268.408 379.154C268.821 377.165 264.309 372.899 261.74 373.323C261.437 371.062 259.048 368.994 257.56 369.546C255.799 370.199 245.051 376.09 240.513 376.958C236.868 377.655 223.5 376.467 219.09 374.829C233.988 358.304 243.43 349.22 256.389 339.154C285.282 357.06 308.607 377.456 344.995 403.07C346.619 404.213 347.352 403.156 346.485 401.907C332.383 372.166 313.371 351.41 284.521 328.581L247.429 323.285C231.792 331.067 208.071 342.868 193.966 356.485C179.092 344.304 170.597 337.289 156.191 328.51C149.14 323.474 125.688 326.582 121.598 329.097C97.3718 343.997 63.424 385.293 54.907 401.397C53.6855 403.707 54.053 404.417 56.2867 403.092C88.9644 383.716 142.099 345.545 142.099 345.545C152.64 352.945 167.405 363.337 174.784 370.978L172.93 373.164C154.995 378.428 143.047 383.874 136.419 388.886V388.886Z" fill="white" stroke="#0085CA" stroke-linecap="round" stroke-linejoin="round"/>
<path d="M121.667 411.896L135.528 400.043L138.942 400.337" stroke="#0085CA" stroke-linecap="round" stroke-linejoin="round"/>
<path d="M142.098 395.552C143.316 394.316 145.628 393.93 147.773 394.12" stroke="#0085CA" stroke-linecap="round"/>
<path d="M144.822 396.54C145.369 396.54 145.812 396.097 145.812 395.55C145.812 395.003 145.369 394.56 144.822 394.56C144.275 394.56 143.832 395.003 143.832 395.55C143.832 396.097 144.275 396.54 144.822 396.54Z" fill="black" stroke="#0085CA" stroke-linecap="round" stroke-linejoin="round"/>
<path d="M172.93 373.164L165.404 382.886" stroke="#0085CA" stroke-linecap="round"/>
<path d="M174.785 370.977C182.071 363.99 188.789 359.257 193.967 356.485" stroke="#0085CA"/>
<path d="M178.786 385.617C195.49 364.57 210.656 355.078 240.1 335.124H249.931L256.389 339.154" stroke="#0085CA" stroke-linecap="round" stroke-linejoin="round"/>
<path d="M219.09 374.829L211.361 387.283L201.193 392.062L187.385 389.662" stroke="#0085CA" stroke-linecap="round" stroke-linejoin="round"/>
<path d="M250.042 373.048C260.54 378.77 263.176 392.374 260.573 400.09" stroke="#0085CA"/>
<path d="M282.01 398.572L261.666 394.492" stroke="#0085CA"/>
<path d="M275.958 388.421L261.394 388.757" stroke="#0085CA"/>
<path d="M268.407 379.154L259.071 382.476" stroke="#0085CA"/>
<path d="M261.739 373.323L254.839 376.878" stroke="#0085CA"/>
<path d="M58.7324 399.056C84.9286 372.174 90.9194 357.082 122.941 335.297C124.545 334.205 128.474 334.495 129.631 335.434L142.099 345.545" stroke="#0085CA" stroke-linecap="round"/>
</g>
<defs>
<clipPath id="clip0">
<rect y="0.190491" width="400" height="505.93" fill="white"/>
</clipPath>
</defs>
</svg>
