<svg width="400" height="507" viewBox="0 0 400 507" fill="none" xmlns="http://www.w3.org/2000/svg">
<g clip-path="url(#clip0)">
<path d="M400 0.190491H0V306.035C0 306.065 0 306.096 0 306.126C0 416.588 89.5436 506.121 199.995 506.121C310.446 506.121 400 416.577 400 306.126C400 306.096 400 306.065 400 306.035V0.190491V0.190491Z" fill="#32AC60"/>
<path d="M199.515 352.688H130.315C126.78 352.688 125.668 349.152 127.386 346.424C137.791 329.958 150.217 318.139 152.338 293.692C154.864 265.406 98.1908 255.607 65.8641 228.836C28.5873 198.126 21.5159 174.487 20.7077 154.081C19.1924 118.521 54.2467 95.4885 74.7539 95.4885C104.454 95.3874 114.758 120.845 114.657 139.837C138.801 133.169 164.764 128.017 199.515 128.32C275.786 128.825 272.745 149.957 313.86 152.179L319.831 140.544C323.164 135.493 382.969 146.807 378.322 158.121L374.988 166.203C377.413 167.213 379.13 168.931 378.726 171.557C376.099 190.751 322.356 220.148 292.656 240.15C263.865 259.546 246.692 279.751 246.489 290.055C246.186 312.077 262.855 328.241 272.149 346.829C273.058 348.647 272.452 352.587 268.411 352.587L199.515 352.688Z" fill="white" stroke="#32AC60" stroke-width="3"/>
<path d="M174.008 168.319C174.006 170.078 172.964 171.765 171.113 173.008C169.261 174.252 166.751 174.95 164.135 174.95C161.518 174.95 159.008 174.252 157.157 173.008C155.305 171.765 154.264 170.078 154.261 168.319C154.259 167.446 154.514 166.582 155.009 165.776C155.505 164.97 156.232 164.237 157.149 163.62C158.066 163.003 159.155 162.513 160.354 162.179C161.552 161.845 162.837 161.673 164.135 161.673C165.432 161.673 166.717 161.845 167.916 162.179C169.114 162.513 170.203 163.003 171.12 163.62C172.037 164.237 172.764 164.97 173.26 165.776C173.756 166.582 174.01 167.446 174.008 168.319V168.319Z" fill="#32AC60" stroke="#32AC60" stroke-width="3"/>
<path d="M87.4825 149.434C88.9978 143.271 90.2101 135.291 84.2499 130.139C73.0365 120.34 63.6416 128.421 60.611 134.18C55.3579 143.878 58.8936 155.899 69.1977 155.798C75.6631 155.798 83.2396 151.353 87.4825 149.434Z" fill="#32AC60" stroke="#32AC60" stroke-width="3"/>
<path d="M87.4824 149.434C92.8388 146.778 109.733 141.163 114.657 139.837" stroke="#32AC60" stroke-width="3"/>
<path d="M310.686 157.761L313.861 152.179" stroke="#32AC60" stroke-width="3" stroke-linecap="round"/>
<path d="M373.275 170.301L373.935 168.744L374.594 167.188" stroke="#32AC60" stroke-width="3" stroke-linecap="round"/>
</g>
<defs>
<clipPath id="clip0">
<rect y="0.190491" width="400" height="505.93" fill="white"/>
</clipPath>
</defs>
</svg>
