<svg width="400" height="522" viewBox="0 0 400 522" fill="none" xmlns="http://www.w3.org/2000/svg">
<g clip-path="url(#clip0)">
<path d="M200.291 521.568C278.105 465.113 331.439 393.812 363.352 303.623C392.291 221.852 403.902 122.753 398.856 0.672112L398.835 0.190491H1.16126L1.14031 0.672112C-3.89578 122.753 7.71551 221.841 36.6443 303.623C68.557 393.812 121.891 465.113 199.705 521.568L199.998 521.777L200.291 521.568Z" fill="#FFE000"/>
<path d="M285.255 391.069C283.025 398.984 275.864 406.47 268.817 408.92C225.681 351.22 184.219 323.359 154.181 294.891C135.952 310.219 119.902 332.604 103.401 353.356C102.406 354.602 99.9879 352.497 100.438 351.471C110.416 328.741 119.902 301.382 139.638 281.96C139.952 279.448 139.02 276.129 140.58 274.422L148.935 265.261C150.056 264.025 154.589 264.36 157.427 263.91C177.78 241.944 207.086 227.799 232.057 220.533C234.099 219.936 234.465 223.674 233.408 224.438C207.945 242.886 184.041 257.858 170.368 278.725C205.987 307.392 214.698 337.452 285.276 391.069H285.255Z" fill="black"/>
<path d="M373.633 190.986C371.403 198.902 364.242 206.388 357.195 208.838C314.059 151.137 272.597 123.276 242.559 94.8083C224.33 110.137 208.28 132.521 191.779 153.273C190.784 154.519 188.366 152.415 188.816 151.389C198.794 128.658 208.28 101.3 228.016 81.8778C228.33 79.365 227.398 76.046 228.958 74.3394L237.313 65.1781C238.434 63.9426 242.967 64.2777 245.804 63.8275C266.158 41.8613 295.464 27.7163 320.435 20.45C322.477 19.8533 322.843 23.5911 321.786 24.3554C296.322 42.8036 272.419 57.7758 258.745 78.6426C294.365 107.31 303.076 137.369 373.654 190.986H373.633Z" fill="black"/>
<path d="M208.584 189.112C206.353 197.027 199.192 204.514 192.146 206.964C149.009 149.263 107.548 121.402 77.509 92.9342C59.2806 108.262 43.23 130.647 26.7292 151.399C25.7346 152.645 23.316 150.54 23.7662 149.514C33.7442 126.784 43.23 99.4256 62.9661 80.0037C63.2802 77.4909 62.3483 74.1719 63.9084 72.4653L72.2635 63.304C73.3838 62.0685 77.9173 62.4035 80.7547 61.9533C101.108 39.9872 130.414 25.8421 155.385 18.5759C157.427 17.9791 157.793 21.7169 156.736 22.4812C131.273 40.9295 107.37 55.9016 93.6957 76.7684C129.315 105.435 138.026 135.495 208.604 189.112H208.584Z" fill="black"/>
</g>
<defs>
<clipPath id="clip0">
<rect y="0.190491" width="400" height="521.59" fill="white"/>
</clipPath>
</defs>
</svg>
