<svg width="400" height="522" viewBox="0 0 400 522" fill="none" xmlns="http://www.w3.org/2000/svg">
<g clip-path="url(#clip0)">
<path d="M200.291 521.568C278.105 465.113 331.439 393.812 363.352 303.623C392.291 221.852 403.902 122.753 398.856 0.672051L398.835 0.19043H1.16126L1.14031 0.672051C-3.89578 122.753 7.71551 221.841 36.6443 303.623C68.557 393.812 121.891 465.113 199.705 521.568L199.998 521.777L200.291 521.568Z" fill="#32AC60"/>
<path fill-rule="evenodd" clip-rule="evenodd" d="M209.411 229.359C211.254 246.687 232.1 257.785 239.973 259.691C255.301 263.397 261.112 277.971 260.495 286.829C260.086 292.724 258.631 292.724 256.16 296.639C251.092 304.649 258.118 316.438 253.647 349.325C250.737 370.799 236.11 384.368 228.791 389.006C221.567 393.582 217.379 394.555 209.181 398.356C204.27 400.628 204.595 403.654 200.239 403.654C195.894 403.654 196.208 400.628 191.298 398.356C183.1 394.555 178.912 393.582 171.688 389.006C164.369 384.368 149.742 370.799 146.832 349.325C142.371 316.449 149.386 304.649 144.319 296.639C141.848 292.734 140.393 292.724 139.984 286.829C139.367 277.971 145.177 263.397 160.506 259.691C168.379 257.785 189.214 246.687 191.068 229.359C191.706 223.38 191.748 211.34 191.748 211.34C191.853 201.948 189.591 198.21 184.524 191.887C184.524 191.887 176.389 183.427 171.541 179.888C157.469 169.606 135.241 177.584 128.541 182.128C115.495 190.986 100.795 185.489 94.649 179.092C90.5657 174.831 91.5289 173.752 90.3039 169.292C87.7806 160.162 74.3266 157.43 52.9782 132.029C39.0321 115.434 38.8122 95.4888 40.2989 86.9557C41.7648 78.5273 43.8588 74.779 46.56 66.1517C48.1724 60.99 45.7224 59.1891 48.6436 55.9748C51.5647 52.75 53.5959 55.022 58.5692 52.9175C66.8929 49.3996 70.4318 46.9496 78.6717 44.6776C87.0268 42.3742 106.899 40.6676 124.761 52.9385C152.109 71.7322 156.129 84.8512 165.458 86.4845C170.012 87.2802 170.997 86.2123 175.635 89.8663C182.608 95.3631 189.487 109.456 181.938 123.308C178.053 130.417 174.933 151.357 183.864 166.319C186.848 171.313 191.853 178.349 200.229 178.349C208.605 178.349 213.62 171.313 216.594 166.319C225.525 151.357 222.394 130.417 218.52 123.308C210.961 109.466 217.85 95.3631 224.823 89.8663C229.461 86.2123 230.435 87.2802 235 86.4845C244.329 84.8512 248.349 71.7322 275.697 52.9385C293.559 40.6676 313.431 42.3742 321.786 44.6776C330.037 46.9496 333.565 49.3996 341.889 52.9175C346.873 55.022 348.893 52.7605 351.814 55.9748C354.735 59.1996 352.286 60.99 353.898 66.1517C356.599 74.779 358.693 78.5273 360.159 86.9557C361.646 95.4992 361.426 115.434 347.48 132.029C326.131 157.43 312.677 160.162 310.154 169.292C308.919 173.752 309.892 174.831 305.809 179.092C299.663 185.5 284.963 190.986 271.917 182.128C265.217 177.574 242.989 169.606 228.917 179.888C224.059 183.437 215.934 191.887 215.934 191.887C210.877 198.21 208.605 201.948 208.71 211.34C208.71 211.34 208.762 223.38 209.39 229.359H209.411Z" fill="#D09B4A"/>
</g>
<defs>
<clipPath id="clip0">
<rect y="0.19043" width="400" height="521.59" fill="white"/>
</clipPath>
</defs>
</svg>
