<svg width="400" height="499" viewBox="0 0 400 499" fill="none" xmlns="http://www.w3.org/2000/svg">
<g clip-path="url(#clip0)">
<path fill-rule="evenodd" clip-rule="evenodd" d="M399.621 0.19043C401.712 102.712 396.238 187.794 355.664 296.96C327.597 372.485 281.409 441.817 200 498.671C118.591 441.817 72.403 372.485 44.336 296.96C3.76154 187.794 -1.71177 102.712 0.379493 0.19043C133.46 0.480605 266.54 0.19043 399.621 0.19043Z" fill="#32AC60"/>
<path d="M196.972 21.2659C194.149 21.6457 195.995 27.1836 190.8 27.1307C190.753 29.2523 188.881 32.6198 186.615 31.9963C186.109 39.333 184.975 41.221 181.905 39.8066C181.851 42.385 180.156 51.8883 175.298 50.2132C173.69 58.7429 170.429 62.5149 167.216 60.1725C166.737 63.3969 165.403 71.9259 159.574 70.2995C159.735 73.2818 159.344 78.2525 155.587 77.1688C156.188 82.7638 156.087 87.0779 152.362 86.6051C153.009 90.8755 153.533 97.236 148.733 95.9901C147.929 100.603 147.645 107.204 149.361 112.321C151.275 118.03 156.774 122.481 162.689 123.678C174.654 126.1 194.249 123.985 194.407 136.283C194.579 149.608 194.625 160.413 194.284 173.921C194.158 178.906 191.026 177.834 187.983 175.587C179.361 169.221 172.829 163.591 165.322 157.23C155.67 149.053 146.564 141.148 138.348 133.422C133.06 128.45 125.125 119.417 130.542 111.743C135.217 105.119 135.924 95.7273 136.347 89.8088C137.019 80.4093 130.414 75.0833 125.778 69.8837C122.057 71.8905 120.153 70.0855 116.892 66.2153C113.381 68.8424 109.572 67.2844 106.324 62.7415C104.992 65.1724 100.577 62.5159 98.8597 59.983C98.2653 64.1805 93.3672 61.4968 90.4428 59.8174C89.5994 60.6243 88.2279 62.5518 81.7343 58.1053C80.9743 61.0102 78.0451 59.9609 75.169 58.5247C74.2939 60.7746 71.4144 60.1671 68.004 58.1989C68.0473 61.3337 62.3017 59.4193 60.7073 58.6146C60.4959 61.3484 55.9914 61.3934 52.0233 58.9241C50.7156 61.3239 46.7196 60.4038 43.8455 58.1118C42.2145 60.3082 37.6122 56.6897 35.6807 56.3112C36.8232 59.8844 40.2487 63.9749 37.9383 66.1893C40.3769 69.037 42.5011 72.2637 39.8481 74.4951C43.4439 77.0212 45.1936 80.3673 42.9701 83.3808C45.4897 84.7791 46.1931 89.9062 44.0775 91.3437C46.252 93.7741 48.8132 98.0282 46.6997 100.759C47.9956 101.565 51.6447 105.742 48.8664 108.256C51.5473 110.889 53.1538 114.802 50.788 117.03C53.5659 118.658 57.3051 121.943 55.5474 125.392C57.9596 126.294 62.3742 127.051 59.1952 131.26C62.5638 132.184 65.3014 133.639 64.3158 137.024C66.5651 137.185 72.5697 137.137 71.0746 142.089C73.059 143.149 75.0221 143.806 77.235 144.403C84.7113 146.421 95.9421 145.032 103.068 141.155C106.979 139.028 111.847 131.166 118.77 129.936C124.103 128.988 127.717 130.464 134.514 136.316C149.741 149.426 151.577 152.573 165.113 165.327C166.948 167.055 162.71 168.836 161.359 175.41C160.45 179.834 161.212 184.216 160.762 187.315C158.218 188.753 157.635 197.87 160.803 196.637C158.258 199.429 159.222 206.319 161.453 204.494C158.785 205.542 159.061 215.073 161.926 212.103C160.505 213.231 159.044 220.78 162.857 219.35C160.629 220.093 159.808 228.03 162.631 227.258C160.155 230.208 162.702 234.612 164.554 234.865C167.709 235.296 171.82 229.593 167.802 226.237C172.077 228.68 170.085 218.905 167.916 219.112C170.524 221.999 172.096 214.191 168.251 211.374C172.677 216.335 169.461 204.294 167.875 204.128C172.487 206.137 168.577 195.293 166.94 195.903C171.581 196.918 167.02 187.017 164.891 186.632C162.357 177.079 165.843 167.973 171.498 170.301L183.805 180.13C185.191 181.237 182.66 183.453 181.841 182.649C180.105 180.942 178.306 183.627 180.166 186.052C183.308 190.149 193.564 195.811 193.685 202.318C193.797 208.315 193.874 245.585 192.662 267.883C192.27 275.099 187.587 277.079 184.445 274.231C173.463 264.279 159.869 248.932 151.897 238.991C149.6 236.126 146.776 233.045 145.957 231.254C143.745 226.418 141.634 222.37 144.244 218.671C150.546 209.74 154.708 198.77 152.604 190.03C152.175 188.249 150.466 184.886 146.879 182.053C144.398 182.277 140.975 181.278 136.913 175.425C135.269 177.057 131.037 175.964 125.302 173.252C126.286 175.764 122.663 176.756 116.127 170.99C113.029 175.301 105.5 169.837 104.821 169.07C102.366 172.251 96.8493 172.158 93.7194 168.634C91.8811 172.03 85.15 170.323 82.218 167.105C80.0549 169.11 75.0042 168.495 72.4774 164.84C70.7479 167.494 66.8079 166.487 64.293 163.414C61.9417 167.485 52.0399 159.638 44.6384 161.546C44.9533 163.374 50.4833 166.515 49.2304 170.232C50.7365 171.294 55.3895 174.064 53.1519 176.498C51.7933 174.749 61.9435 181.207 58.2457 184.84C65.3452 189.965 63.4712 192.475 61.1238 194.342C64.724 195.501 66.5614 203.473 63.3558 204.483C67.6202 206.263 70.2645 214.536 66.4117 217.037C70.8126 218.17 72.537 227.926 68.9203 228.611C72.9486 230.76 76.5043 233.696 74.5783 238.709C77.4538 239.986 81.8035 242.563 79.3749 245.851C83.6392 245.395 89.5884 249.752 86.0784 251.924C88.8797 253.454 90.0171 253.951 92.6016 255.031C96.8685 256.813 102.019 259.092 106.056 258.758C109.946 258.436 113.118 256.459 114.397 255.535C124.371 248.337 137.328 231.373 145.169 240.316L187.472 288.564C193.496 295.434 191.651 298.844 191.651 304.43C191.651 304.43 191.518 357.308 192.218 367.167C192.919 377.027 184.821 374.478 183.344 372.395L174.709 360.216C172.149 356.605 173.805 350.151 176.865 344.339C181.102 336.292 186.426 328.693 185.717 323.057C185.483 321.19 184.586 320.219 182.769 318.158C178.605 317.132 175.625 313.048 174.305 307.514C168.151 308.592 166.925 304.792 165.451 300.981C161.068 302.043 158.283 299.377 156.696 296.519C153.826 297.935 150.254 297.732 147.995 295.442C145.996 296.597 141.807 296.44 140.299 294.208C137.458 295.574 132.779 293.508 131.236 291.637C130.199 293.966 125.841 293.977 123.283 291.281C120.819 294.197 116.292 293.631 113.404 290.508C111.084 292.491 106.547 292.502 104.714 288.23C101.664 289.069 97.4133 286.039 89.6899 286.613C88.5088 295.869 97.0763 291.576 95.1745 300.105C99.8643 301.146 102.231 305.735 100.305 310.707C104.387 312.588 105.797 318.597 102.948 320.452C107.83 323.605 107.636 329.107 104.888 331.149C108.926 332.721 110.59 340.782 106.892 342.838C110.688 345.13 110.082 352.502 108.172 353.955C110.685 354.825 113.515 360.088 110.958 361.561C114.875 361.982 117.133 367.104 115.058 368.572C121.844 376.076 137.161 389.064 150.602 375.747C156.378 370.024 166.376 355.425 170.755 362.16L180.265 376.789C174.557 379.04 171.56 383.811 170.56 389.415C163.759 394.383 166.045 400.072 168.703 398.213C167.76 398.302 163.337 404.873 168.113 406.1C168.293 404.949 165.111 411.877 168.773 412.624C166.291 413.012 167.449 420.119 169.279 418.147C168.463 417.989 167.686 426.042 170.723 425.404C168.463 430.343 170.284 433.868 172.982 433.758C175.413 433.659 176.636 430.266 174.679 425.333C175.883 425.704 178.212 420.254 174.39 418.241C176.715 418.875 177.644 414.213 175.122 413.274C176.926 414.491 179.453 409.175 174.968 406.017C177.967 408.303 179.519 399.615 175.216 398.171C177.332 399.76 179.829 394.181 174.555 389.499C174.394 385.805 178.007 381.273 181.281 380.389C182.93 379.944 184.808 380.848 186.364 382.396C194.556 390.541 196.835 401.893 194.419 418.523C193.626 423.986 193.799 428.778 193.644 434.201C193.586 436.234 199.664 434.831 202.398 436.812C204.953 438.663 206.597 440.388 208.987 443.215C211.161 445.786 212.96 441.721 212.735 436.794C212.336 428.035 208.741 412.777 210.2 400.161C210.491 397.631 216.524 395.164 218.937 391.239C220.736 388.312 216.243 388.525 214.281 387.517C212.319 386.653 215.809 382.503 220.426 380.742C224.483 379.196 228.801 380.523 229.263 388.407C225.984 388.782 224.665 402.282 229.506 397.904C225.664 399.375 225.127 409.314 229.912 406.477C225.631 407.804 225.166 418.436 228.993 415.441C226.114 416.67 225.326 425.444 228.487 425.138C227.004 429.771 228.555 434.445 230.724 434.48C233.339 434.521 235.231 431.403 233.539 425.884C236.257 427.76 237.464 418.82 233.596 415.817C237.311 418.081 236.937 408.574 233.608 406.664C237.599 410.869 237.391 398.522 234.103 397.51C237.843 402.137 236.842 388.095 232.242 387.774C231.518 383.879 233.231 376.46 223.877 375.973C225.497 371.842 227.687 368.667 231.815 364.005C234.71 360.735 236.065 357.852 240.06 355.774C244.362 353.536 249.701 362.235 258.143 366.265C262.769 368.473 268.771 369.059 274.894 366.94C281.158 364.773 282.428 361.696 286.252 359.016C285.119 357.329 287.406 352.614 290.379 351.854C288.474 349.733 288.636 343.993 292.61 341.672C290.496 339.685 291.829 334.488 295.024 331.301C291.816 329.351 292.734 321.955 296.801 321.163C294.137 320.342 295.415 314.009 298.543 312.304C295.321 310.712 296.159 301.936 298.692 299.939C295.789 297.944 295.83 291.799 300.415 287.723C297.468 285.401 300.423 281.992 301.757 279.157C298.411 281.07 295.87 283.951 292.608 280.53C291.941 283.788 284.981 289.663 281.775 283.907C279.62 286.293 277.054 288.489 273.977 286.799C272.952 287.786 268.835 291.753 266.664 288.055C264.05 290.813 260.887 292.497 258.591 290.094C256.847 292.416 252.581 294.517 249.939 291.07C247.941 293.781 244.086 297.047 238.842 294.156C238.71 296.867 235.063 300.968 231.49 298.515C230.643 299.757 230.898 307.317 222.507 306.353C221.018 309.314 218.762 314.16 217.642 319.005C216.839 322.479 217.138 326.465 219.205 329.444C224.414 336.95 239.11 344.019 232.121 352.663L213.29 375.954C204.399 386.951 209.254 322.996 207.509 296.501C206.777 285.395 211.853 281.322 216.91 275.334C224.353 266.52 231.368 259.783 238.484 251.971C244.049 245.862 249.029 238.302 255.899 233.819C261.606 230.095 263.763 228.853 266.5 231.376C275.1 239.301 288.588 254.446 305.958 245.129C306.42 239.405 314.652 234.142 317.355 235.218C317.642 228.368 321.727 224.46 325.654 223.128C323.176 219.635 326.612 211.905 329.076 210.802C327.32 207.174 330.108 201.335 332.714 199.776C329.923 193.763 332.003 189.242 335.474 186.183C334.2 183.52 337.441 179.107 339.317 178.514C339.4 175.482 341.148 170.219 343.583 169.894C341.213 162.153 349.806 157.123 351.214 157.044C348.347 155.553 353.838 151.445 353.789 148.001C350.383 149.383 347.178 152.128 343.922 150.578C341.88 154.117 336.788 154.782 332.851 153.362C332.517 154.108 326.816 158.745 321.474 154.989C322.597 155.107 314.614 160.167 310.748 154.939C309.23 156.936 302.652 159.345 298.384 155.775C296.142 157.066 291.59 160.476 286.61 158.127C284.893 160.07 281.488 162.942 277.385 160.406C276.023 162.17 272.861 165.346 268.598 163.26C266.743 166.761 262.963 167.95 260.743 167.267C259.776 168.836 257.16 172.807 254.227 170.97C250.554 174.903 248.131 179.682 247.485 186.07C246.767 193.169 247.241 199.565 251.943 206.641C255.432 211.891 261.175 219.309 252.439 227.95L218.833 263.206C219.412 261.38 219.966 257.807 218.436 257.93C214.639 258.233 212.501 265.903 209.913 269.978C206.033 276.087 202.963 266.993 203.049 261.647C203.358 242.399 200.762 223.994 202.855 203.897C203.664 196.131 205.016 193.83 212.725 188.72C213.307 188.334 215.745 188.295 216.349 187.299C217.48 185.434 218.185 182.554 216.404 180.677C215.271 179.484 215.75 175.909 217.274 173.599C219.52 170.194 223.034 167.76 224.564 168.455C227.689 169.874 226.776 178.634 226.795 182.301C225.647 184.158 222.125 185.617 222.216 189.766C222.269 192.191 221.959 191.383 224.172 191.397C225.14 191.403 221.323 190.765 221.687 197.152C221.845 199.927 221.396 200.296 223.984 200.276C225.376 200.265 220.835 199.488 222.423 207.084C222.6 207.927 225.633 208.132 223.542 208.395C220.956 211.124 223.065 216.748 224.382 214.602C220.294 218.003 223.623 222.616 225.133 221.801C221.768 224.792 224.364 231.485 227.781 231.057C233.427 230.35 229.618 221.671 230.328 222.072C234.432 222.519 232.396 216.253 231.81 215.428C232.495 215.679 233.468 214.341 233.472 213.94C233.537 208.001 230.921 209.194 231.312 208.147C231.899 206.573 233.874 211.76 233.537 204.946C233.326 200.672 229.687 200.461 231.174 200.367C232.849 200.261 233.483 200.696 233.527 196.563C233.574 192.052 230.132 190.421 231.929 191.235C233.375 191.891 233.134 192.273 233.946 189.226C235.049 185.087 230.882 182.865 230.129 183.008C230.193 177.636 231.637 168.998 225.811 163.519C236.15 148.848 250.157 136.058 265.507 122.371C277.48 111.696 286.354 139.229 303.574 140.312C309.07 140.657 315.346 137.173 323.151 129.359C320.41 126.508 322.564 122.23 323.254 120.998C326.196 117.703 328.302 117.497 331.18 117.352C328.278 112.801 333.471 107.255 336.77 106.278C333.774 101.102 337.973 96.7929 339.857 96.0816C337.87 92.8405 339.732 88.5507 343.102 86.9623C341.108 83.1016 342.106 78.8669 345.38 76.6461C343.184 72.2209 345.493 66.6942 349.318 65.1287C347.126 61.6496 350.667 56.773 352.842 56.6668C351.924 52.9717 354.285 48.1187 357.748 46.1724C354.228 44.446 348.251 47.7937 345.271 44.9271C343.445 46.3746 339.733 48.5421 335.812 46.2485C332.323 48.9309 328.54 49.0302 324.52 46.4987C321.534 48.5249 314.735 48.5433 313.212 45.7411C310.111 48.4914 305.147 49.2747 301.26 46.3073C298.58 48.0171 294.47 48.6764 291.346 46.3349C288.906 49.8325 284.909 49.6078 282.064 48.3119C281.249 50.4506 277.738 52.3155 274.332 51.633C273.623 53.8657 269.73 57.4894 265.875 55.3999C259.965 57.7735 254.675 64.4557 253.438 72.1302C252.189 79.8814 255.164 89.7401 261.524 99.933C264.342 104.45 267.227 108.208 264.413 114.037C262.902 117.169 259.965 120.734 255.062 124.903C240.25 137.498 227.945 148.818 215.433 168.015C214.129 170.016 211.147 174.752 210.359 173.511C208.492 170.571 207.741 170.589 206.868 171.613C205.138 173.64 206.308 175.341 205.381 180.873C204.307 187.286 200.876 184.585 200.109 181.419C199.14 177.415 199.878 169.953 199.939 165.379C200.095 153.729 200.144 145.322 200.681 135.727C201.087 128.478 209.454 129.623 219.42 128.413C228.667 127.291 233.115 126.999 236.695 118.578C237.492 116.703 238.704 109.038 238.797 104.78C233.016 108.658 238.365 100.037 237.948 95.3656C233.295 97.0313 236.285 91.3982 236.385 88.5285C233.821 88.7256 232.926 85.0554 234.148 81.6218C231.105 81.3664 231.438 77.176 232.149 75.2347C228.005 74.8584 226.916 71.0801 226.784 68.3486C222.749 68.8396 221.267 64.0192 221.743 61.4017C219.471 60.8391 218.455 57.5553 218.621 56.3075C215.724 55.3394 215.108 53.2464 215.345 50.4366C211.243 50.172 210.541 46.6029 211.057 42.6523C209.722 42.952 207.855 40.9659 208.298 38.7201C206.133 39.098 204.798 37.7198 204.234 34.0428C201.862 34.0302 200.754 31.3446 200.76 28.3124C197.327 29.117 199.567 20.9167 196.972 21.266L196.972 21.2659Z" fill="white"/>
<path d="M49.5518 67.5084C71.369 86.2267 93.632 103.905 116.45 120.289" stroke="#32AC60" stroke-width="3" stroke-linecap="round" stroke-linejoin="round"/>
<path d="M75.2197 133.925C89.8537 132.299 100.976 125.001 111.316 116.438" stroke="#32AC60" stroke-width="3" stroke-linecap="round"/>
<path d="M123.348 81.9467C124.349 103.135 114.541 102.955 111.316 116.438" stroke="#32AC60" stroke-width="3" stroke-linecap="round" stroke-linejoin="round"/>
<path d="M83.8833 72.1606C89.2515 78.681 91.4658 89.5435 88.677 99.5065C81.5294 102.685 68.4637 104.001 56.9316 104.888" stroke="#32AC60" stroke-width="3" stroke-linecap="round" stroke-linejoin="round"/>
<path d="M175.006 70.2356C180.48 78.7574 188.037 83.9496 197.838 86.8139C205.556 83.737 210.185 74.8464 213.989 66.225" stroke="#32AC60" stroke-width="3" stroke-linecap="round" stroke-linejoin="round"/>
<path d="M195.861 44.2466C197.587 73.1554 199.336 102.099 197.305 125.583" stroke="#32AC60" stroke-width="3" stroke-linecap="round" stroke-linejoin="round"/>
<path d="M161.369 106.171C170.937 115.14 186.416 110.962 198.395 112.999C212.797 111.597 221.445 113.613 229.069 106.332" stroke="#32AC60" stroke-width="3" stroke-linecap="round" stroke-linejoin="round"/>
<path d="M341.527 56.4388C316.288 73.6917 295.166 94.1962 274.79 112.909" stroke="#32AC60" stroke-width="3" stroke-linecap="round" stroke-linejoin="round"/>
<path d="M276.234 66.0645C278.713 79.9748 274.908 94.7918 284.577 104.727C296.295 120.686 305.325 114.328 314.576 119.326" stroke="#32AC60" stroke-width="3" stroke-linecap="round" stroke-linejoin="round"/>
<path d="M308.48 56.118C306.968 65.8554 303.521 74.9016 308.173 82.6401C316.695 82.0448 325.098 87.6337 333.025 85.7969" stroke="#32AC60" stroke-width="3" stroke-linecap="round" stroke-linejoin="round"/>
<path d="M337.43 162.804C322.27 176.039 288.1 191.039 266.769 220.234" stroke="#32AC60" stroke-width="3" stroke-linecap="round" stroke-linejoin="round"/>
<path d="M260.512 178.844C258.427 196.4 262.36 206.177 271.258 214.081C281.856 218.602 291.6 236.876 300.138 236.437" stroke="#32AC60" stroke-width="3" stroke-linecap="round" stroke-linejoin="round"/>
<path d="M290.672 166.491C288.088 176.182 291.819 182.985 294.553 192.385C302.679 198.681 314.275 195.711 322.437 195.368" stroke="#32AC60" stroke-width="3" stroke-linecap="round" stroke-linejoin="round"/>
<path d="M288.909 293.709C274.355 312.206 253.987 328.11 241.102 347.773" stroke="#32AC60" stroke-width="3" stroke-linecap="round" stroke-linejoin="round"/>
<path d="M231.956 314.405C234.334 324.496 237.081 334.513 243.667 343.763C253.514 347.725 261.128 350.198 269.817 353.388" stroke="#32AC60" stroke-width="3" stroke-linecap="round" stroke-linejoin="round"/>
<path d="M270.62 295.474C270.527 300.822 270.54 306.169 272.545 311.517C276.701 314.818 282.613 315.485 287.304 314.725" stroke="#32AC60" stroke-width="3" stroke-linecap="round" stroke-linejoin="round"/>
<path d="M107.306 301.25C125.568 318.697 144.098 336.092 165.54 352.907" stroke="#32AC60" stroke-width="3" stroke-linecap="round" stroke-linejoin="round"/>
<path d="M112.439 331.57C119.605 332.172 126.771 330.699 133.937 326.597C137.851 319.453 137.506 310.888 136.343 302.052" stroke="#32AC60" stroke-width="3" stroke-linecap="round" stroke-linejoin="round"/>
<path d="M171.957 320.34C173.6 327.21 167.373 338.709 162.011 349.698C153.237 358.263 143.934 370.353 136.343 371.035" stroke="#32AC60" stroke-width="3" stroke-linecap="round" stroke-linejoin="round"/>
<path d="M65.2734 175.154C80.6226 185.324 86.8873 196.274 104.566 206.392C115.831 212.84 125.559 219.609 133.294 226.491" stroke="#32AC60" stroke-width="3" stroke-linecap="round" stroke-linejoin="round"/>
<path d="M73.2949 208.684C85.0693 209.844 94.8442 208.35 102.011 203.229C104.055 194.566 102.553 186.866 98.8027 178.203" stroke="#32AC60" stroke-width="3" stroke-linecap="round" stroke-linejoin="round"/>
<path d="M139.872 189.593C140.329 201.152 137.285 217.372 129.925 223.603C120.492 234.704 110.914 245.344 98.9629 248.469" stroke="#32AC60" stroke-width="3" stroke-linecap="round" stroke-linejoin="round"/>
</g>
<defs>
<clipPath id="clip0">
<rect y="0.19043" width="400" height="498.48" fill="white"/>
</clipPath>
</defs>
</svg>
