<svg width="400" height="493" viewBox="0 0 400 493" fill="none" xmlns="http://www.w3.org/2000/svg">
<g clip-path="url(#clip0)">
<path d="M0 0.19043H399.998C399.998 277.167 399.998 281.124 399.998 281.124C401.077 562.777 0 562.777 0 281.124V0.19043V0.19043Z" fill="#010101"/>
<path d="M187.41 25.7298H183.453L91.0073 288.678C88.849 293.354 83.0937 291.196 82.3742 289.397C79.1368 280.405 75.5397 272.131 73.0218 264.577C70.5038 257.024 66.9067 255.585 62.2305 254.506C50.0003 252.347 38.4896 252.347 26.6191 252.347V260.621C43.1658 260.98 53.2377 261.7 58.9931 263.498C64.3887 265.297 64.7484 268.894 65.8276 270.693L74.1009 295.513C75.8994 300.548 84.1728 301.628 87.0505 300.908L55.396 392.994H80.9354L91.7267 362.059H188.129V394.073H212.949V362.059H309.351L320.862 392.634H345.322L314.387 300.189C319.783 300.189 325.538 299.829 328.416 309.541C332.013 321.771 338.488 333.282 346.402 334.361C356.833 335.8 365.466 335.081 375.178 335.081L375.538 326.807C365.826 327.167 357.553 327.886 349.999 325.728C342.085 323.21 338.848 306.304 332.733 296.951C330.574 293.354 328.056 290.117 320.862 290.117L310.79 289.757L217.985 25.3701H213.309V18.1759L188.489 18.5356L187.41 25.7298V25.7298Z" fill="white"/>
<path d="M212.229 352.707V309.541H273.739C279.494 299.829 286.329 296.232 291.005 310.261L305.393 352.707H212.229Z" fill="#010101"/>
<path d="M187.769 352.347V309.182H126.259C120.504 299.47 113.669 295.872 108.993 309.901L94.6045 352.347H187.769V352.347Z" fill="#010101"/>
<path d="M187.769 85.082V282.923H126.259C121.942 295.513 116.187 291.196 119.065 282.923L187.769 85.082V85.082Z" fill="#010101"/>
<path d="M212.589 85.082V282.923H274.099C278.416 295.513 284.171 291.196 281.294 282.923L212.589 85.082Z" fill="#010101"/>
</g>
<defs>
<clipPath id="clip0">
<rect y="0.19043" width="400" height="492.17" fill="white"/>
</clipPath>
</defs>
</svg>
