<svg width="400" height="507" viewBox="0 0 400 507" fill="none" xmlns="http://www.w3.org/2000/svg">
<g clip-path="url(#clip0)">
<path d="M400 0.19043H0V306.035C0 306.065 0 306.095 0 306.126C0 416.587 89.5436 506.121 199.995 506.121C310.446 506.121 400 416.577 400 306.126C400 306.095 400 306.065 400 306.035V0.19043V0.19043Z" fill="#052F5C"/>
<path d="M279.313 38.7854L258.101 153.697L375.775 135.451L377.645 290.318L261.941 270.487L279.405 445.176C226.536 445.176 173.566 445.176 120.697 445.176L138.059 270.487L22.3555 290.318L24.2248 135.451L141.909 153.697L120.697 38.7854C173.566 38.7854 226.343 38.7854 279.212 38.7854H279.313Z" fill="#9E8140"/>
</g>
<defs>
<clipPath id="clip0">
<rect y="0.19043" width="400" height="505.93" fill="white"/>
</clipPath>
</defs>
</svg>
