<svg width="400" height="444" viewBox="0 0 400 444" fill="none" xmlns="http://www.w3.org/2000/svg">
<g clip-path="url(#clip0)">
<path d="M399.699 0.754087C401.7 61.3541 393.41 115.829 384.508 174.428C373.482 223.839 359.067 271.943 329.298 313.595C304.797 353.206 270.046 381.26 237.173 413.438C224.269 420.993 212.427 434.305 199.523 443.575H197.032C122.303 387.059 51.167 313.84 24.8689 221.389C25.5222 213.875 19.3561 210.853 20.7853 203.013C5.3903 136.369 0.653369 68.6228 0 1.89748C0.764877 1.45092 1.45404 0.885808 2.04178 0.223224C126.999 2.34667 275.395 -1.08351 399.699 0.754087Z" fill="#ED1C24"/>
<path fill-rule="evenodd" clip-rule="evenodd" d="M295.143 256.743C273.868 241.603 262.965 227.524 246.255 211.452C242.085 207.442 246.501 198.571 253.83 201.899L315.34 229.828C326.525 234.906 335.547 228.144 337.393 219.936C339.051 212.566 333.077 204.545 322.273 199.599C334.824 201.254 345.035 197.657 347.556 187.635C349.711 179.067 345.019 170.658 337.393 167.402C353.373 165.819 359.373 155.874 359.472 147.184C359.595 136.389 349.248 128.911 341.738 128.351C352.519 125.353 359.538 115.039 359.265 106.017C359.047 98.8052 352.407 90.7406 347.63 89.4625C356.743 84.2647 363.043 72.8309 360.816 64.4133C359.007 57.5746 352.182 52.8998 342.621 53.958C348.655 48.1995 355.214 39.6951 351.897 31.2411C349.545 25.2468 340.065 21.2211 330.137 26.0663C300.043 40.7516 275.025 61.6103 245.909 84.6704C235.213 93.1416 225.527 101.941 225.87 110.591C226.158 117.863 225.653 124.192 229.791 131.066C231.459 133.837 234.25 134.545 236.979 134.551C246.929 134.572 244.497 141.895 243.731 150.234C243.023 157.945 243.585 172.803 236.107 174.629C227.327 176.038 222.091 166.881 214.277 154.68C208.546 145.731 195.213 134.325 197.978 127.735L216.339 83.9796C220.897 73.117 221.355 65.4516 219.662 60.057C218.999 57.943 220.979 57.5411 223.538 56.4256C231.181 53.0931 235.066 52.201 242.12 48.142C248.49 44.4762 255.106 39.1709 256.923 29.0411C258.049 22.762 252.829 11.1674 248.497 13.4064C244.383 15.5325 250.394 18.5985 250.483 24.5042C250.68 37.4934 239.475 46.7274 217.909 50.7997C210.194 52.2564 209.107 45.564 193.197 45.8988C187.179 46.0254 180.436 48.0633 173.173 56.684C167.196 63.7794 158.971 60.633 149.787 63.2714C147.213 64.0111 141.489 65.2189 141.574 69.3594C150.452 70.8255 153.659 70.7887 157.702 71.3945C166.62 72.7309 170.258 74.3687 172.223 79.7354C176.028 90.1287 174.77 104.684 161.895 113.423C150.921 120.871 142.561 129.707 132.787 141.404C124.14 151.753 120.676 163.487 120.047 175.05C115.171 172.745 109.478 167.802 111.85 156.141C113.896 146.081 123.211 138.106 129.662 131.092C136.293 123.883 138.812 115.223 139.614 106.452C140.412 97.7185 135.663 91.482 126.56 82.5451L69.0406 26.0773C61.8639 19.0318 48.6865 15.3902 41.3776 24.3347C32.8144 34.8143 42.6324 50.6584 51.6151 59.6213C42.9283 61.8342 38.9978 66.5784 37.924 72.3708C34.979 88.2573 55.3225 106.391 65.8635 112.063C55.5965 107.815 42.0919 110.725 39.4172 120.828C36.4913 131.881 46.5608 143.784 62.2882 147.62C49.988 147.766 37.7085 157.152 38.9816 169.732C40.0042 179.836 53.0348 186.735 64.2376 185.34C51.3124 190.953 47.2741 201.677 50.7515 211.831C53.5527 220.011 63.2504 224.11 72.3078 223.421C68.637 226.314 67.6229 235.674 73.9415 242.698C78.0442 247.258 89.3057 248.713 96.0501 243.678L129.451 218.741C140.645 233.695 158.432 249.854 182.524 254.569C182.683 259.579 184.295 267.139 183.002 269.598C175.934 283.041 165.523 296.935 155.514 310.113C152.668 313.861 148.137 312.437 145.713 310.113C136.246 301.034 136.94 300.699 128.93 299.726C125.578 299.318 123.325 301.012 121.693 303.578C124.888 303.095 127.313 302.021 129.429 303.679C131.988 311.823 139.361 309.499 141.845 315.07C142.546 319.43 141.134 321.424 138.688 322.259C134.037 323.847 125.337 319.859 119.842 324.445C116.573 325.928 114.903 328.534 115.005 331.756C117.698 329.798 118.198 327.898 121.216 328.165C127.064 331.475 131.951 325.863 141.187 327.437C144.109 327.935 142.766 330.253 141.622 332.229C140.06 334.93 138.113 337.877 137.636 340.156C136.584 345.185 134.234 349.208 139.103 353.533C139.324 350.296 139.497 347.04 141.717 344.603C144.931 343.713 147.409 337.18 147.427 332.756C147.437 330.331 149.287 328.31 150.106 327.877C153.066 326.315 158.573 327.303 159.435 323.182C161.909 311.353 167.423 303.356 175.989 293.123C182.189 285.717 188.766 278.385 196.682 270.252C199.15 267.717 199.98 264.151 198.903 261.321L196.222 254.276C204.448 257.974 209.478 260.078 218.9 260.232C222.446 260.29 232.119 273.159 232.6 278.529C234.256 297.008 239.159 314.281 243.768 331.492C244.502 334.232 240.863 340.946 237.196 340.825C220.507 340.274 222.102 334.669 212.896 338.737C209.691 339.278 207.645 340.699 206.297 343.439C209.948 342.245 212.676 342.591 215.919 343.439C221.778 348.129 224.031 345.501 229.137 345.181C233.568 344.904 235.983 348.62 234.365 350.191C224.384 359.878 219.899 357.059 218.028 365.656C215.192 369.359 215.715 373.062 216.068 376.765C218.68 372.829 221.329 369.19 224.345 368.488C228.189 367.877 231.324 365.779 232.187 361.736C232.908 358.354 236.742 355.489 240.028 353.458C243.059 351.586 244.332 356.885 243.243 359.212C240.809 364.41 239.327 369.007 240.899 372.844C240.717 377.211 242.86 379.832 244.167 383.082C244.82 379.506 245.474 376.301 246.127 371.973C249.558 370.936 250.563 369.162 250.536 366.926C250.489 362.943 248.583 359.162 248.959 352.805C250.688 350.889 251.848 349.53 252.327 346.86C252.757 344.462 252.114 343.329 251.482 340.814C251.126 339.396 257.587 338.023 255.058 334.073C251.18 328.015 248.366 314.932 245.102 305.118C241.267 293.591 240.754 280.033 239.81 268.074C239.454 263.557 238.105 259.333 235.454 256.747C231.988 253.367 228.774 251.492 225.434 245.421C221.991 239.161 227.894 229.749 231.533 234.53C246.058 253.609 260.44 272.963 272.34 293.367C274.979 297.892 275.205 302.772 282.093 307.589C288.405 312.002 297.4 307.276 306.463 297.479C312.679 290.759 323.038 282.931 320.839 275.915C317.471 265.17 307.506 265.541 295.143 256.743Z" fill="white" stroke="#ED1C24" stroke-linejoin="round"/>
<path fill-rule="evenodd" clip-rule="evenodd" d="M295.143 256.743C273.868 241.603 262.965 227.524 246.255 211.452C242.085 207.442 246.501 198.571 253.83 201.899L315.34 229.828C326.525 234.906 335.547 228.144 337.393 219.936C339.051 212.566 333.077 204.545 322.273 199.599C334.824 201.254 345.035 197.657 347.556 187.635C349.711 179.067 345.019 170.658 337.393 167.402C353.373 165.819 359.373 155.874 359.472 147.184C359.595 136.389 349.248 128.911 341.738 128.351C352.519 125.353 359.538 115.039 359.265 106.017C359.047 98.8052 352.407 90.7406 347.63 89.4625C356.743 84.2647 363.043 72.8309 360.816 64.4133C359.007 57.5746 352.182 52.8998 342.621 53.958C348.655 48.1995 355.214 39.6951 351.897 31.2411C349.545 25.2468 340.065 21.2211 330.137 26.0663C300.043 40.7516 275.025 61.6103 245.909 84.6704C235.213 93.1416 225.527 101.941 225.87 110.591C226.158 117.863 225.653 124.192 229.791 131.066C231.459 133.837 234.25 134.545 236.979 134.551C246.929 134.572 244.497 141.895 243.731 150.234C243.023 157.945 243.585 172.803 236.107 174.629C227.327 176.038 222.091 166.881 214.277 154.68C208.546 145.731 195.213 134.325 197.978 127.735L216.339 83.9796C220.897 73.117 221.355 65.4516 219.662 60.057C218.999 57.943 220.979 57.5411 223.538 56.4256C231.181 53.0931 235.066 52.201 242.12 48.142C248.49 44.4762 255.106 39.1709 256.923 29.0411C258.049 22.762 252.829 11.1674 248.497 13.4064C244.383 15.5325 250.394 18.5985 250.483 24.5042C250.68 37.4934 239.475 46.7274 217.909 50.7997C210.194 52.2564 209.107 45.564 193.197 45.8988C187.179 46.0254 180.436 48.0633 173.173 56.684C167.196 63.7794 158.971 60.633 149.787 63.2714C147.213 64.0111 141.489 65.2189 141.574 69.3594C150.452 70.8255 153.659 70.7887 157.702 71.3945C166.62 72.7309 170.258 74.3687 172.223 79.7354C176.028 90.1287 174.77 104.684 161.895 113.423C150.921 120.871 142.561 129.707 132.787 141.404C124.14 151.753 120.676 163.487 120.047 175.05C115.171 172.745 109.478 167.802 111.85 156.141C113.896 146.081 123.211 138.106 129.662 131.092C136.293 123.883 138.812 115.223 139.614 106.452C140.412 97.7185 135.663 91.482 126.56 82.5451L69.0406 26.0773C61.8639 19.0318 48.6865 15.3902 41.3776 24.3347C32.8144 34.8143 42.6324 50.6584 51.6151 59.6213C42.9283 61.8342 38.9978 66.5784 37.924 72.3708C34.979 88.2573 55.3225 106.391 65.8635 112.063C55.5965 107.815 42.0919 110.725 39.4172 120.828C36.4913 131.881 46.5608 143.784 62.2882 147.62C49.988 147.766 37.7085 157.152 38.9816 169.732C40.0042 179.836 53.0348 186.735 64.2376 185.34C51.3124 190.953 47.2741 201.677 50.7515 211.831C53.5527 220.011 63.2504 224.11 72.3078 223.421C68.637 226.314 67.6229 235.674 73.9415 242.698C78.0442 247.258 89.3057 248.713 96.0501 243.678L129.451 218.741C140.645 233.695 158.432 249.854 182.524 254.569C182.683 259.579 184.295 267.139 183.002 269.598C175.934 283.041 165.523 296.935 155.514 310.113C152.668 313.861 148.137 312.437 145.713 310.113C136.246 301.034 136.94 300.699 128.93 299.726C125.578 299.318 123.325 301.012 121.693 303.578C124.888 303.095 127.313 302.021 129.429 303.679C131.988 311.823 139.361 309.499 141.845 315.07C142.546 319.43 141.134 321.424 138.688 322.259C134.037 323.847 125.337 319.859 119.842 324.445C116.573 325.928 114.903 328.534 115.005 331.756C117.698 329.798 118.198 327.898 121.216 328.165C127.064 331.475 131.951 325.863 141.187 327.437C144.109 327.935 142.766 330.253 141.622 332.229C140.06 334.93 138.113 337.877 137.636 340.156C136.584 345.185 134.234 349.208 139.103 353.533C139.324 350.296 139.497 347.04 141.717 344.603C144.931 343.713 147.409 337.18 147.427 332.756C147.437 330.331 149.287 328.31 150.106 327.877C153.066 326.315 158.573 327.303 159.435 323.182C161.909 311.353 167.423 303.356 175.989 293.123C182.189 285.717 188.766 278.385 196.682 270.252C199.15 267.717 199.98 264.151 198.903 261.321L196.222 254.276C204.448 257.974 209.478 260.078 218.9 260.232C222.446 260.29 232.119 273.159 232.6 278.529C234.256 297.008 239.159 314.281 243.768 331.492C244.502 334.232 240.863 340.946 237.196 340.825C220.507 340.274 222.102 334.669 212.896 338.737C209.691 339.278 207.645 340.699 206.297 343.439C209.948 342.245 212.676 342.591 215.919 343.439C221.778 348.129 224.031 345.501 229.137 345.181C233.568 344.904 235.983 348.62 234.365 350.191C224.384 359.878 219.899 357.059 218.028 365.656C215.192 369.359 215.715 373.062 216.068 376.765C218.68 372.829 221.329 369.19 224.345 368.488C228.189 367.877 231.324 365.779 232.187 361.736C232.908 358.354 236.742 355.489 240.028 353.458C243.059 351.586 244.332 356.885 243.243 359.212C240.809 364.41 239.327 369.007 240.899 372.844C240.717 377.211 242.86 379.832 244.167 383.082C244.82 379.506 245.474 376.301 246.127 371.973C249.558 370.936 250.563 369.162 250.536 366.926C250.489 362.943 248.583 359.162 248.959 352.805C250.688 350.889 251.848 349.53 252.327 346.86C252.757 344.462 252.114 343.329 251.482 340.814C251.126 339.396 257.587 338.023 255.058 334.073C251.18 328.015 248.366 314.932 245.102 305.118C241.267 293.591 240.754 280.033 239.81 268.074C239.454 263.557 238.105 259.333 235.454 256.747C231.988 253.367 228.774 251.492 225.434 245.421C221.991 239.161 227.894 229.749 231.533 234.53C246.058 253.609 260.44 272.963 272.34 293.367C274.979 297.892 275.205 302.772 282.093 307.589C288.405 312.002 297.4 307.276 306.463 297.479C312.679 290.759 323.038 282.931 320.839 275.915C317.471 265.17 307.506 265.541 295.143 256.743Z" fill="white" stroke="#ED1C24" stroke-linejoin="round"/>
<path d="M341.739 128.351L295.137 136.947" stroke="#ED1C24" stroke-linecap="round"/>
<path d="M347.631 89.4625L290.127 114.076" stroke="#ED1C24" stroke-linecap="round"/>
<path d="M342.621 53.9581L280.761 89.0269" stroke="#ED1C24" stroke-linecap="round"/>
<path d="M337.393 167.402L293.176 161.343" stroke="#ED1C24" stroke-linecap="round"/>
<path d="M322.273 199.599L282.721 187.699" stroke="#ED1C24" stroke-linecap="round"/>
<path d="M72.3086 223.421L98.4468 209.263" stroke="#ED1C24" stroke-linecap="round"/>
<path d="M64.2383 185.34L91.2587 177.679" stroke="#ED1C24" stroke-linecap="round"/>
<path d="M62.2881 147.62L87.3372 151.105" stroke="#ED1C24" stroke-linecap="round"/>
<path d="M65.8643 112.063L92.7835 125.62" stroke="#ED1C24" stroke-linecap="round"/>
<path d="M51.6152 59.6213L103.892 100.571" stroke="#ED1C24" stroke-linecap="round"/>
<path opacity="0.98" d="M192.403 69.5608C194.19 69.5608 195.638 68.1127 195.638 66.3264C195.638 64.54 194.19 63.0919 192.403 63.0919C190.617 63.0919 189.169 64.54 189.169 66.3264C189.169 68.1127 190.617 69.5608 192.403 69.5608Z" fill="#ED1C24"/>
<path d="M186.903 66.3263H183.2" stroke="#ED1C24" stroke-linecap="round"/>
<path d="M201.606 66.3263H197.903" stroke="#ED1C24" stroke-linecap="round"/>
<path d="M120.047 175.05C120.016 184.547 120.109 190.563 121.707 199.252C123.251 207.652 126.865 215.468 129.451 218.741" stroke="#ED1C24"/>
<path d="M182.524 254.569C189.433 255.166 192.982 253.033 196.223 254.276" stroke="#ED1C24"/>
</g>
<defs>
<clipPath id="clip0">
<rect y="0.19043" width="400" height="443.38" fill="white"/>
</clipPath>
</defs>
</svg>
