<svg width="400" height="492" viewBox="0 0 400 492" fill="none" xmlns="http://www.w3.org/2000/svg">
<g clip-path="url(#clip0)">
<path d="M0 0.19043C0 393.739 200 491.23 200 491.23C200 491.23 400 393.739 400 0.19043H0Z" fill="black"/>
<path d="M5.7334 5.20801C5.7334 388.721 199.999 484.061 199.999 484.061C199.999 484.061 394.264 388.721 394.264 5.20801H5.7334Z" fill="#009FE3"/>
<path d="M108.246 60.4051C112.548 57.5377 116.849 59.6883 121.867 58.9714C122.127 59.4644 122.489 59.8969 122.928 60.2409C123.367 60.5848 123.873 60.8325 124.414 60.9677C124.955 61.103 125.518 61.1228 126.068 61.0259C126.617 60.9289 127.139 60.7174 127.601 60.4051C129.752 58.2546 132.619 61.122 135.487 61.122C139.788 69.0073 147.673 59.6883 152.691 66.8567C154.125 69.0073 156.992 71.8747 159.143 69.7241C163.433 71.5764 167.146 74.5473 169.895 78.3263C175.63 75.4589 175.63 81.9105 179.214 84.061C181.365 86.2116 179.931 90.5127 183.515 91.2295C189.25 89.7958 194.268 85.4947 200.003 87.6453C202.676 86.891 205.487 86.7573 208.22 87.2542C210.953 87.7511 213.536 88.8656 215.773 90.5127C223.659 91.2295 222.942 81.9105 227.96 79.0431C236.562 79.76 236.562 69.0073 243.73 69.7241C248.031 70.441 250.899 66.1399 254.483 64.7062C255.145 64.3529 255.883 64.1681 256.634 64.1681C257.384 64.1681 258.122 64.3529 258.784 64.7062C262.682 62.8451 266.767 61.4033 270.97 60.4051C275.272 56.8209 276.705 63.2725 281.006 61.122C282.541 60.0143 284.326 59.3037 286.202 59.0536C288.079 58.8034 289.988 59.0215 291.759 59.6883C293.91 62.5557 297.494 58.9714 300.361 59.6883C302.512 59.6883 306.096 56.8209 307.53 60.4051C312.548 63.9894 320.433 57.5377 324.017 63.9894C326.168 63.9894 329.035 68.2904 331.186 65.4231C337.637 66.8567 339.071 75.4589 346.239 74.742C349.823 76.8926 349.107 83.3442 354.841 84.061C359.142 86.9284 358.426 91.2295 359.859 94.8137C365.594 97.6811 365.594 104.133 365.594 110.584C369.178 114.169 367.028 119.903 369.895 124.204C372.046 129.222 367.745 133.523 370.612 137.824C372.763 142.126 366.311 144.993 368.461 149.294C369.292 153.251 368.519 157.376 366.311 160.764C370.612 167.215 362.01 172.233 363.444 178.685C362.01 180.835 362.727 183.703 361.293 185.853C360.576 190.154 360.576 194.455 356.992 197.323C359.142 204.491 351.974 209.509 349.823 215.244C346.956 216.678 347.673 219.545 347.673 220.979C344.526 223.421 342.058 226.629 340.504 230.298C335.487 233.882 334.77 240.333 328.318 243.201C326.168 247.502 320.433 250.369 316.132 253.237C312.008 255.875 307.361 257.588 302.512 258.255C300.361 260.405 297.494 258.971 295.343 258.971C291.042 257.538 283.874 259.688 281.006 254.67C278.139 252.52 273.121 251.803 270.97 248.219C270.321 247.428 269.909 246.47 269.782 245.455C269.656 244.44 269.819 243.41 270.254 242.484C270.97 238.9 275.272 240.333 278.139 240.333C280.145 241.595 282.387 242.436 284.728 242.806C287.07 243.175 289.461 243.066 291.759 242.484C296.06 241.767 298.927 236.749 303.229 236.032C311.114 228.864 313.981 220.262 320.433 213.81C321.15 208.792 326.168 205.208 326.168 199.473C331.897 186.908 334.362 173.101 333.336 159.33C331.902 150.011 330.469 139.258 319.716 134.957C304.662 130.656 292.476 141.409 281.723 151.445C281.006 152.878 281.006 154.312 282.44 155.029C285.307 154.312 285.307 150.728 288.892 150.011C295.042 144.131 302.758 140.149 311.114 138.541C313.264 140.692 316.849 139.258 319.716 141.409C321.866 140.692 322.583 142.126 323.3 143.559C325.384 145.024 327.307 146.706 329.035 148.577C328.318 150.728 328.318 152.878 326.168 153.595C315.415 155.746 316.849 167.932 309.68 174.384C301.913 180.402 292.254 183.452 282.44 182.986C280.289 182.269 279.573 183.703 278.856 185.136C278.855 204.824 274.187 224.232 265.236 241.767C263.135 254.522 259.022 266.862 253.049 278.326C247.953 289.012 241.704 299.108 234.411 308.434C233.562 313.813 231.592 318.954 228.628 323.524C225.664 328.093 221.773 331.988 217.207 334.957C217.094 336.604 216.656 338.212 215.917 339.689C215.179 341.165 214.156 342.481 212.906 343.559C208.672 345.968 204.071 347.663 199.286 348.577C196.28 348.111 193.399 347.046 190.813 345.445C188.228 343.844 185.989 341.74 184.232 339.258C183.515 337.108 183.515 334.957 181.365 333.523C174.913 331.373 173.479 324.921 169.895 319.903C168.928 312.677 165.36 306.051 159.859 301.265C155.82 295.452 152.453 289.2 149.824 282.627C146.239 274.025 144.089 265.423 141.221 257.538C140.505 251.086 138.354 244.635 137.637 238.183C135.487 235.316 135.487 231.014 132.619 228.864C131.807 227.052 131.322 225.11 131.186 223.129C128.318 219.545 129.035 214.527 127.601 209.509C126.884 200.907 124.734 192.305 123.3 183.703C120.543 184.681 117.579 184.928 114.698 184.419C111.114 185.136 107.53 182.269 103.945 182.269C103.229 180.835 101.795 181.552 101.078 181.552C89.6085 175.1 87.4579 162.197 79.5726 153.595C78.1066 153.565 76.6739 153.152 75.4166 152.398C74.1592 151.643 73.1208 150.573 72.4042 149.294C71.6873 144.993 76.7052 142.126 79.5726 139.975C85.4839 138.419 91.7256 138.669 97.4938 140.692H99.6443C107.53 144.276 113.981 150.728 121.867 154.312C121.867 153.595 124.017 152.878 123.3 151.445H121.15C120.433 145.71 113.981 144.276 110.397 140.692C105.814 137.51 101.024 134.637 96.0601 132.09C94.6264 129.222 91.759 132.09 89.6085 129.939C87.0586 129.195 84.3477 129.204 81.8034 129.968C79.2591 130.731 76.9904 132.215 75.2715 134.24C72.1819 139.833 70.0041 145.883 68.8199 152.161C69.0874 152.759 69.1621 153.426 69.0336 154.068C68.9052 154.71 68.5799 155.297 68.1031 155.746C67.6255 161.488 67.8663 167.267 68.8199 172.95C67.3862 175.817 69.5368 176.534 70.9705 178.685C70.9705 184.419 69.5368 192.305 74.5547 195.889C75.2715 198.756 77.4221 201.624 78.1389 205.208C81.0063 214.527 90.3253 222.412 95.3432 230.298C96.0601 231.014 96.7769 232.448 97.4938 231.014C99.6443 236.032 104.662 236.749 108.246 239.617C111.114 241.05 113.981 240.333 116.132 241.05C118.999 238.9 123.3 240.333 126.168 238.9C126.884 241.767 131.186 239.617 130.469 243.201C129.339 245.554 127.626 247.58 125.493 249.085C123.36 250.591 120.878 251.526 118.282 251.803C114.698 256.104 108.246 250.369 104.662 255.387C100.361 255.387 98.2106 251.803 93.9095 253.954C89.6085 254.67 88.8916 246.785 83.1568 249.652C79.5726 247.502 78.1389 243.201 73.8379 243.201C70.8991 240.157 67.7877 237.285 64.5189 234.599C63.0852 229.581 58.0672 227.43 56.6335 222.412C52.3325 218.828 52.3325 213.093 48.0314 208.792C48.7482 202.341 41.5798 199.473 43.0135 193.022C38.7124 189.437 42.2966 182.269 37.9956 177.968C35.845 175.1 38.7124 169.366 35.845 166.498C35.845 168.649 34.4113 167.215 33.6945 165.065C34.018 156.645 33.2957 148.217 31.5439 139.975C34.4113 133.523 31.5439 126.355 34.4113 119.903C33.5336 117.646 33.2702 115.196 33.648 112.803C34.0258 110.41 35.0312 108.161 36.5619 106.283C36.0333 103.802 36.3035 101.218 37.3336 98.9003C38.3638 96.5824 40.1011 94.6501 42.2966 93.38C42.0506 91.8214 42.1826 90.2264 42.6816 88.7294C43.1806 87.2324 44.0319 85.8772 45.164 84.7779C50.1819 84.061 48.0314 77.6094 52.3325 76.1757C55.1999 74.0252 57.3504 69.7241 60.9346 71.1578C63.0852 69.0073 64.5189 66.1399 68.1031 66.8567C70.2536 62.5557 75.2715 66.1399 78.8558 61.8388C81.7232 61.122 85.3074 54.6704 88.1748 59.6883C91.759 61.122 93.9095 58.2546 97.4938 57.5377C99.6443 56.8209 103.229 58.2546 103.945 55.3872C105.166 57.231 106.611 58.9165 108.246 60.4051V60.4051Z" fill="black"/>
<path d="M104.663 63.2731C106.097 63.2731 107.531 65.4236 109.681 64.7068C111.115 63.9899 112.549 60.4057 115.416 61.8394C116.133 64.7068 119 60.4057 119.717 63.2731C121.868 61.8394 121.868 65.4236 123.301 65.4236C124.735 65.4236 126.169 62.5562 127.602 63.9899C127.885 63.7177 128.224 63.512 128.596 63.388C128.968 63.264 129.364 63.2247 129.753 63.2731C131.187 65.4236 132.62 62.5562 134.054 63.9899C136.204 66.1405 137.638 69.7247 141.939 68.291C142.362 67.5725 143.03 67.0314 143.821 66.7679C144.612 66.5043 145.471 66.5361 146.24 66.8573C148.686 69.6621 151.321 72.2967 154.126 74.7426C154.842 74.0258 155.559 72.5921 156.993 73.3089C159.144 73.3089 159.144 75.4595 161.294 74.7426C163.445 77.61 164.878 81.9111 168.463 81.9111L169.179 83.3448C169.896 81.9111 172.047 82.6279 172.764 83.3448C174.039 86.0955 175.001 88.9811 175.631 91.9469C177.782 93.3806 181.366 93.3806 182.083 96.248C183.516 98.3985 182.083 100.549 181.366 102.7C182.083 107.001 186.384 109.868 184.233 114.886C182.083 117.037 182.083 122.054 178.498 121.338C177.782 122.771 175.631 122.054 174.914 121.338C171.33 124.205 172.047 129.223 168.463 132.09C167.746 132.807 166.312 134.958 164.878 135.675L162.728 134.241C162.011 137.108 160.577 134.241 159.86 134.241C156.276 137.108 154.126 142.126 150.541 143.56C149.825 142.126 147.674 145.71 146.24 142.843C144.09 144.994 144.09 140.692 142.656 142.126C140.506 144.277 139.789 146.427 137.638 146.427C137.638 145.71 137.638 145.71 136.921 145.71C134.771 149.295 130.47 148.578 126.885 148.578L126.169 147.144C122.584 149.295 120.434 142.843 117.566 142.843C116.133 142.126 116.133 139.259 113.982 140.692C113.265 139.259 113.265 139.259 111.832 139.259L107.531 136.391C101.796 134.241 98.2116 129.223 91.76 128.506V127.789C90.3263 129.94 88.8926 125.639 86.7421 127.789C86.0252 125.639 83.8747 129.223 82.441 127.072C81.7242 127.789 80.2905 128.506 79.5736 127.072C77.3496 128.765 74.9456 130.208 72.4052 131.373C70.9715 132.09 69.5378 135.675 68.1041 134.958C66.1469 139.564 64.7044 144.372 63.803 149.295C62.2491 160.971 62.4909 172.817 64.5199 184.42C66.6704 187.287 65.2367 191.589 67.3872 194.456C68.1041 197.323 69.5378 200.191 70.2546 203.058C72.6363 210.69 76.5378 217.762 81.7242 223.847C83.7583 227.207 86.4384 230.131 89.6095 232.449C91.76 236.75 96.7779 239.617 100.362 243.201C101.079 243.201 101.796 245.352 102.513 243.918C105.38 243.918 106.814 248.219 109.681 246.069C111.115 248.219 112.549 246.786 114.699 247.502C114.699 247.312 114.775 247.13 114.909 246.996C115.043 246.861 115.226 246.786 115.416 246.786C116.85 247.502 115.416 248.936 115.416 248.936C113.265 248.936 113.265 251.087 111.832 251.087H108.247V251.804C106.814 253.237 103.946 256.105 102.513 253.954C99.6453 251.087 95.3442 256.105 93.1937 253.237C91.0432 246.069 82.441 252.52 81.7242 245.352C78.8568 243.201 73.8389 243.918 74.5557 239.617C73.8389 235.316 68.8209 238.9 67.3872 235.316C67.4442 234.194 67.2101 233.076 66.7077 232.072C66.2053 231.067 65.4516 230.209 64.5199 229.581C62.3693 228.864 61.6525 225.997 60.9356 223.847C59.5019 220.979 55.9177 219.545 56.6346 215.961C53.7672 213.094 50.1829 210.226 52.3335 205.209C50.8998 204.492 50.8998 202.341 49.4661 203.058C48.7493 198.757 49.4661 194.456 45.8819 191.589C43.7313 189.438 45.165 187.287 44.4482 184.42C45.8819 181.553 41.5808 180.119 42.2976 175.818C41.9392 173.923 41.9392 171.978 42.2976 170.083C40.9233 168.411 39.9432 166.451 39.4303 164.348C40.1471 161.481 41.5808 157.18 38.7134 155.029C35.846 152.162 40.8639 147.144 37.2797 143.56C35.1292 142.843 36.5629 139.976 36.5629 137.825C37.2797 135.675 37.2797 133.524 38.7134 132.09C37.2797 129.94 37.9966 127.072 37.2797 124.922C39.4303 122.771 37.9966 120.621 38.7134 119.187C36.5629 114.886 42.2976 112.019 41.5808 107.001C40.1471 104.85 40.8639 103.416 40.8639 101.266C41.5808 99.8322 43.7313 98.3985 43.0145 96.9648C43.7313 99.1154 45.8819 96.9648 46.5987 95.5312C45.165 91.2301 50.1829 89.0795 52.3335 86.2122C54.484 86.929 53.7672 84.0616 55.2009 82.6279C54.484 79.7605 57.3514 79.7605 58.7851 78.3268C60.9356 79.0437 61.6525 76.1763 63.803 76.1763L64.5199 76.8932C66.354 75.4645 67.6236 73.4331 68.1041 71.1584C69.5378 71.8752 70.2546 69.7247 71.6883 69.0079C73.7022 69.6292 75.8683 69.5412 77.8251 68.7584C79.7819 67.9757 81.4112 66.5456 82.441 64.7068C84.5915 65.4236 86.7421 63.2731 89.6095 64.7068L90.3263 66.1405C91.76 64.7068 93.1937 63.9899 93.9105 65.4236C96.0611 63.9899 98.2116 58.972 101.079 62.5562C101.357 62.3556 101.674 62.2145 102.009 62.1417C102.344 62.069 102.691 62.0662 103.027 62.1334C103.364 62.2007 103.683 62.3367 103.964 62.5327C104.246 62.7288 104.484 62.9809 104.663 63.2731Z" fill="#E6E6E6"/>
<path d="M311.109 66.8568C313.26 66.1399 316.127 64.7062 318.278 63.9894L318.995 66.1399C320.428 63.9894 321.862 66.1399 323.296 66.1399C324.013 68.2904 324.013 69.7241 326.163 70.441C328.314 69.7241 330.464 71.1578 331.181 68.2904C331.898 70.441 334.048 70.441 334.765 71.8747C336.916 71.8747 336.916 76.8926 339.783 76.8926L341.217 77.6094C341.934 76.8926 342.651 75.4589 343.367 75.4589C344.514 76.5768 345.423 77.9152 346.039 79.3936C346.655 80.8719 346.965 82.4596 346.952 84.0611C349.819 88.3621 355.554 86.2116 355.554 92.6632C355.014 93.8088 354.936 95.1184 355.337 96.3198C355.737 97.5212 356.585 98.5222 357.704 99.1148C358.421 98.398 358.421 98.398 359.138 98.398C364.873 102.699 359.138 109.151 363.439 114.169C365.59 117.036 362.722 121.337 364.156 124.204C364.71 124.215 365.256 124.349 365.752 124.597C366.248 124.845 366.682 125.201 367.023 125.638C366.306 127.789 367.74 131.373 365.59 132.09C364.873 134.957 367.023 138.541 365.59 140.692C366.306 143.559 363.439 143.559 364.156 146.427C364.156 149.294 366.307 152.161 364.873 155.029C357.704 159.33 367.023 166.498 359.855 170.799C360.439 175.992 359.439 181.239 356.987 185.853C357.211 187.968 356.939 190.105 356.192 192.096C355.445 194.087 354.245 195.876 352.686 197.323C351.97 199.473 354.12 201.624 351.97 203.057C349.102 205.925 349.102 210.226 346.235 213.093C342.651 213.81 345.518 220.979 341.217 221.695C336.916 222.412 341.217 230.298 336.199 229.581C330.464 230.298 334.765 238.183 329.031 238.183C325.446 238.9 327.597 245.351 322.579 244.635C321.145 244.635 319.712 247.502 318.995 248.936C316.844 248.219 316.127 251.086 314.694 251.803C314.694 251.086 313.977 251.086 313.977 250.369C311.109 251.086 309.676 256.104 306.808 253.237C303.224 251.803 302.507 257.538 299.64 255.387C298.206 258.255 296.772 254.67 295.339 255.387C295.339 254.67 294.622 254.67 294.622 253.954L292.471 255.387L291.755 253.954C291.038 254.67 291.038 256.104 289.604 255.387C287.453 253.954 286.737 251.803 284.586 251.086C283.869 250.369 285.303 250.369 285.303 249.652C286.02 251.086 288.17 248.936 289.604 250.369C292.471 249.652 295.339 250.369 297.489 247.502C297.879 247.454 298.274 247.493 298.646 247.617C299.018 247.741 299.357 247.947 299.64 248.219C301.074 245.351 305.375 245.351 306.808 241.767C308.539 240.982 310.025 239.744 311.109 238.183C311.109 238.373 311.185 238.555 311.319 238.69C311.454 238.824 311.636 238.9 311.826 238.9C314.694 233.165 319.712 228.147 322.579 223.129C326.101 218.464 328.549 213.079 329.747 207.359C331.898 204.491 331.898 200.907 334.048 198.756C334.765 196.606 333.332 193.738 336.199 191.588C334.048 189.437 337.633 187.287 336.916 185.136C338.101 180.455 338.584 175.623 338.35 170.799C338.35 167.215 340.5 162.197 337.633 158.613C339.783 156.462 336.916 155.029 336.916 152.878C339.066 147.143 332.615 144.276 332.615 140.692C329.747 137.824 326.163 133.523 321.862 133.523C320.725 132.726 319.398 132.24 318.015 132.115C316.632 131.989 315.239 132.227 313.977 132.807L312.543 129.222C311.109 129.939 311.109 131.373 309.676 130.656C308.242 128.506 306.808 132.09 304.658 131.373C303.941 133.523 302.507 133.523 300.357 133.523C298.34 133.921 296.403 134.647 294.622 135.674C290.321 137.824 286.737 144.276 281.002 145.71C281.002 147.86 278.851 147.86 278.851 148.577C278.851 147.86 278.134 148.577 278.134 148.577C277.418 150.728 275.267 150.011 274.55 151.445C274.55 150.728 273.833 150.728 273.833 150.011C272.4 150.011 273.117 152.161 270.966 152.161L270.249 150.728C268.815 152.878 267.382 150.011 265.948 150.011C260.93 149.294 263.798 137.824 257.346 145.71H256.629V144.993C255.912 145.71 255.912 145.71 255.912 146.427C253.762 145.71 254.479 148.577 253.045 147.143C253.045 146.953 252.969 146.771 252.835 146.637C252.7 146.502 252.518 146.427 252.328 146.427C251.611 148.577 249.461 146.427 248.744 145.71C248.027 144.993 248.027 144.276 246.593 144.993C245.16 143.559 243.009 141.409 244.443 139.258C243.009 137.108 243.726 135.674 242.292 134.957C240.858 135.674 239.425 138.541 237.991 135.674C237.274 136.391 237.274 137.108 237.274 136.391C236.557 137.108 235.841 135.674 235.124 135.674C232.973 137.824 230.106 132.807 228.672 131.373C227.689 129.63 227.432 127.57 227.955 125.638C227.238 122.054 223.654 124.204 221.504 122.771C219.578 121.467 218.121 119.579 217.347 117.386C216.572 115.192 216.522 112.809 217.203 110.584C217.919 109.867 217.203 109.868 217.919 109.151C222.22 106.283 215.052 101.982 220.07 98.398C219.353 96.2474 221.504 94.8137 222.22 92.6632C223.654 93.38 225.088 93.38 225.805 91.9464C225.994 89.0993 226.988 86.3646 228.672 84.0611C230.106 84.7779 231.539 81.9105 232.973 81.9105C235.124 82.6274 235.841 84.0611 237.274 82.6274C239.425 81.9105 237.991 79.0431 239.425 76.8926C240.858 76.1757 243.009 71.1578 245.16 74.0252C245.222 73.8109 245.335 73.615 245.489 73.4541C245.644 73.2932 245.835 73.1723 246.046 73.1018C246.258 73.0313 246.484 73.0132 246.704 73.0492C246.924 73.0852 247.132 73.1741 247.31 73.3084C248.027 75.4589 250.177 74.0252 251.611 74.0252C253.762 72.5915 252.328 68.2904 255.195 68.2904C255.195 69.0073 255.912 69.0073 255.912 69.7241C256.629 68.2904 258.063 67.5736 258.78 66.8568C260.213 69.0073 261.647 66.1399 263.081 69.0073H264.514C263.798 69.7241 264.514 69.7241 265.231 69.7241C268.099 67.5736 270.249 63.2725 273.833 63.9894L275.267 63.2725C275.984 65.4231 279.568 63.9894 281.002 65.4231V66.1399C283.152 66.1399 283.869 61.8388 286.737 63.2725C288.887 61.8388 291.038 63.9894 292.471 63.9894C292.471 65.4231 293.905 62.5557 294.622 64.7062C296.056 63.9894 297.489 65.4231 298.923 63.2725C301.061 62.4065 303.428 62.2893 305.641 62.9401C307.854 63.5909 309.781 64.9713 311.109 66.8568Z" fill="#E6E6E6"/>
<path d="M204.304 91.2298C206.57 92.1733 209.065 92.4228 211.472 91.9467C212.189 92.6635 213.623 93.3804 215.057 94.8141C214.109 97.5779 213.863 100.534 214.34 103.416C215.774 105.567 213.623 107.717 212.906 109.868C212.336 112.315 212.435 114.871 213.191 117.267C213.948 119.663 215.335 121.812 217.207 123.488C220.075 124.205 221.508 125.638 224.376 126.355C223.659 133.524 230.827 137.108 235.128 139.975C237.279 142.126 239.429 137.108 240.863 141.409C240.863 146.427 246.598 148.578 248.748 151.445C249.465 147.144 251.616 153.595 253.049 150.728C255.2 152.162 258.784 146.427 260.935 151.445C262.368 151.445 263.085 153.595 263.802 154.312C266.589 156.032 269.863 156.788 273.121 156.463C273.838 157.18 273.121 157.18 273.838 157.897C274.885 156.77 276.093 155.803 277.422 155.029C278.891 157.491 279.782 160.253 280.031 163.108C280.279 165.964 279.877 168.838 278.856 171.517C279.086 174.693 278.397 177.87 276.872 180.666C275.347 183.462 273.049 185.761 270.254 187.287C268.103 186.57 267.386 189.438 265.953 190.155C263.085 190.871 261.652 193.022 258.784 194.456C257.351 192.305 255.2 196.606 253.049 195.172C251.616 197.323 248.032 195.889 246.598 198.04C244.447 195.889 242.297 198.757 240.863 199.474C243.211 195.692 246.4 192.503 250.182 190.155C250.182 190.871 250.182 190.871 250.899 191.588C251.616 190.871 251.616 190.871 250.899 190.155C253.049 189.438 255.917 185.853 258.067 186.57C263.085 182.269 269.537 177.968 268.82 170.083C270.254 168.649 269.537 167.216 268.82 165.782C267.993 166.074 267.242 166.548 266.622 167.168C266.002 167.788 265.529 168.539 265.236 169.366C263.085 177.251 258.067 180.119 251.616 184.42C248.748 185.137 245.881 190.155 242.297 189.438C228.677 203.775 233.695 225.997 227.96 243.201C228.156 244.262 228.059 245.357 227.68 246.367C227.301 247.377 226.655 248.265 225.809 248.936C227.243 253.954 223.659 258.255 222.942 262.556C220.075 270.441 219.358 279.043 217.207 286.929C217.51 290.818 218.231 294.663 219.358 298.398C220.223 298.068 220.964 297.476 221.478 296.706C221.992 295.935 222.253 295.023 222.225 294.097C220.296 287.747 220.548 280.933 222.942 274.742C224.376 274.026 222.942 272.592 223.659 271.875C225.809 267.574 226.526 263.273 228.677 259.689C227.243 257.538 229.394 256.821 229.394 254.671C230.11 251.803 231.544 248.219 232.261 245.352C230.11 243.201 234.411 242.484 231.544 241.051C234.411 238.9 230.827 235.316 234.412 233.882L235.845 234.599C236.562 232.448 238.713 232.448 240.863 232.448C244.096 231.508 247.04 229.767 249.421 227.386C251.802 225.005 253.543 222.062 254.483 218.828C257.266 214.604 258.294 209.461 257.351 204.491C259.501 203.775 256.634 202.341 258.067 201.624C258.258 201.624 258.44 201.549 258.574 201.414C258.709 201.28 258.784 201.097 258.784 200.907C258.067 200.907 256.634 200.19 258.067 199.474C258.784 198.757 259.501 199.474 260.218 199.474C262.368 196.606 267.386 196.606 268.82 193.739C270.254 194.456 270.971 191.588 271.687 191.588C273.121 195.889 269.537 200.19 270.971 205.208C269.905 209.686 269.186 214.24 268.82 218.828C266.67 220.262 268.82 223.129 266.67 224.563C268.103 228.147 263.802 229.581 264.519 232.448C258.067 244.635 257.351 258.972 252.333 271.158C250.853 276.783 248.429 282.115 245.164 286.929C242.965 291.704 240.325 296.264 237.279 300.549C232.978 304.133 231.544 309.868 227.96 314.169C227.96 317.036 225.809 319.187 225.092 322.054C222.595 325.269 219.705 328.159 216.49 330.656L215.774 329.94C214.166 331.188 212.721 332.633 211.472 334.241C209.322 332.09 207.888 333.524 205.738 332.807C205.738 332.617 205.662 332.434 205.528 332.3C205.393 332.166 205.211 332.09 205.021 332.09L204.304 332.807C203.587 330.656 201.437 327.789 202.153 325.638C202.87 323.488 200.72 319.187 205.021 318.47C206.75 318.846 208.54 318.849 210.271 318.478C212.002 318.107 213.633 317.371 215.057 316.319C216.49 314.886 218.641 313.452 217.924 310.585L217.207 309.868C214.34 312.018 212.906 316.319 209.322 314.886C207.888 314.886 208.605 316.319 206.455 315.603L207.888 312.018C207.171 314.169 205.021 312.735 204.304 312.735C202.153 313.452 201.437 316.319 200.003 317.036L196.419 312.735C193.551 314.886 192.118 309.868 189.25 312.018C186.383 311.302 186.383 308.434 184.232 309.151C183.515 307 182.082 306.284 180.648 304.85C177.781 307 181.365 309.151 180.648 312.018C181.243 312.815 181.996 313.48 182.859 313.973C183.722 314.467 184.678 314.777 185.666 314.886C187.1 315.603 190.684 314.169 191.401 316.319C192.118 315.603 192.834 315.603 194.268 315.603C197.136 317.753 196.419 320.621 198.569 322.771C197.852 324.922 197.852 327.072 195.702 328.506L194.985 327.789C193.551 330.656 189.25 330.656 186.383 331.373C185.052 331.443 183.721 331.223 182.483 330.727C181.246 330.232 180.13 329.474 179.214 328.506C177.576 327.921 176.152 326.856 175.129 325.449C174.106 324.042 173.531 322.359 173.48 320.621C171.727 318.553 170.497 316.095 169.895 313.452C170.612 310.585 167.745 307.717 165.594 305.567L164.877 303.416C164.877 304.133 164.161 303.416 164.161 303.416C159.86 298.398 157.709 292.664 154.125 287.646C154.842 285.495 151.974 284.778 151.974 283.345C151.974 280.477 149.107 277.61 149.107 274.742C146.956 273.309 148.39 270.441 146.239 269.008C146.956 266.857 144.806 264.707 145.523 262.556C142.655 259.689 144.806 255.388 141.938 251.803C143.372 250.37 141.222 248.936 140.505 247.502C140.968 243.086 140.224 238.627 138.354 234.599C136.204 233.882 136.92 232.448 136.204 231.732C136.92 229.581 133.336 227.431 133.336 223.846C131.186 222.413 131.903 219.545 131.186 218.112C130.899 215.384 130.173 212.721 129.035 210.226C131.186 208.076 128.318 207.359 128.318 204.491C128.459 200.416 128.219 196.336 127.601 192.305C128.318 191.588 128.318 190.155 129.752 190.871C131.754 193.236 134.566 194.769 137.637 195.172C137.92 195.445 138.259 195.65 138.631 195.774C139.003 195.898 139.399 195.938 139.788 195.889C139.795 202.163 140.516 208.416 141.938 214.527C142.705 215.26 143.296 216.156 143.669 217.149C144.041 218.142 144.185 219.206 144.089 220.262C147.14 223.935 150.773 227.083 154.842 229.581C156.992 228.864 159.143 231.732 160.576 230.298C166.311 231.015 164.877 238.9 166.311 243.201C167.028 248.219 168.462 251.803 169.179 256.104C171.405 261.241 173.32 266.508 174.913 271.875C176.347 277.61 175.63 283.345 177.064 289.079C176.47 291.663 176.229 294.316 176.347 296.965C177.064 297.681 177.781 299.115 178.498 297.681C182.799 290.513 178.498 282.628 179.214 274.742C177.064 273.309 179.931 269.724 177.064 269.008C177.781 266.857 174.913 265.423 176.347 262.556C174.649 259.728 173.665 256.53 173.48 253.237C172.046 251.086 172.763 249.653 171.329 247.502C172.046 245.352 169.895 244.635 169.895 242.484C169.336 240.138 169.095 237.727 169.179 235.316C167.745 233.882 169.179 232.448 168.462 231.015C169.895 228.864 167.745 228.147 167.745 225.997C168.269 221.926 168.026 217.792 167.028 213.81C167.745 210.943 165.594 208.793 166.311 206.642C165.249 202.892 164.53 199.053 164.161 195.172C162.01 192.305 161.293 188.004 156.992 185.853L154.842 184.42C152.691 186.57 151.257 182.269 149.107 181.552C148.39 180.119 148.39 182.269 146.956 182.269C144.674 180.774 142.516 179.095 140.505 177.251C138.354 177.968 139.071 175.101 137.637 175.101C132.619 172.95 135.487 166.499 130.469 165.065C128.318 169.366 131.186 174.384 134.053 177.968C136.551 180.769 139.45 183.185 142.655 185.137C144.806 185.137 146.239 187.287 148.39 188.721C149.824 187.287 150.541 189.438 151.257 188.721C154.125 191.588 158.426 194.456 157.709 198.757C155.558 195.889 151.974 198.04 149.824 195.172C148.39 195.889 148.39 193.022 146.956 194.456C144.806 194.456 144.089 191.588 142.655 193.022C140.505 188.721 134.053 192.305 133.336 188.004C131.186 190.155 129.035 185.853 127.601 185.853C126.168 182.986 121.15 181.552 121.867 177.251C120.858 175.14 120.276 172.85 120.153 170.513C120.03 168.176 120.368 165.837 121.15 163.631C121.689 160.398 123.187 157.401 125.451 155.029H129.035C129.035 155.746 129.752 155.746 129.752 156.463C130.469 155.746 130.469 154.312 131.903 155.029C134.053 156.463 135.487 152.879 137.637 154.312C141.222 152.879 141.938 147.144 146.956 149.294C147.673 150.011 150.541 148.578 152.691 148.578C153.408 147.144 155.558 147.861 156.992 147.144C160.576 144.993 161.293 138.542 166.311 140.692C168.462 139.975 169.179 137.825 171.329 138.542C174.196 135.674 178.498 132.09 178.498 127.789C179.931 125.638 182.799 128.506 184.232 125.638C184.761 125.997 185.386 126.188 186.024 126.188C186.663 126.188 187.287 125.997 187.817 125.638C189.967 120.621 194.268 116.319 192.118 111.302C193.551 109.151 189.967 107.717 190.684 105.567C187.817 102.699 191.401 96.9646 187.817 94.0972C189.967 94.8141 192.118 89.7961 193.551 92.6635C195.702 89.7961 197.852 91.9467 200.003 89.7961C200.72 92.6635 202.87 89.0793 204.304 91.2298Z" fill="#E6E6E6"/>
<path d="M89.6068 144.277C90.3237 143.56 90.3237 144.993 90.3237 144.993V145.71C92.4742 144.993 94.6248 146.427 96.7753 147.144C97.4921 147.861 96.7753 147.861 97.4921 148.578C98.9258 145.71 100.36 149.295 101.793 149.295C103.944 150.728 104.661 155.029 108.962 154.312C111.112 157.897 116.13 157.897 118.998 160.764C121.148 163.631 118.281 166.499 117.564 170.083C113.98 169.366 113.263 164.348 108.962 164.348C105.377 162.198 102.51 158.614 98.209 156.463C98.9258 152.879 93.9079 155.029 94.6248 152.162L92.4742 150.728L93.1911 150.011C91.0405 150.728 88.1731 147.861 86.7395 146.427C85.3058 146.427 86.0226 148.578 84.5889 147.861C83.8721 147.144 83.8721 147.144 83.8721 145.71C86.7395 141.409 86.7395 148.578 89.6068 144.277Z" fill="#E6E6E6"/>
<path d="M312.545 145.711C314.696 143.56 314.696 146.428 316.13 147.144C314.696 147.144 313.262 146.428 312.545 148.578C308.469 151.354 304.843 154.739 301.793 158.614C301.076 159.331 299.642 158.614 300.359 160.048C296.775 160.764 296.058 165.066 291.757 165.782L291.04 165.066C289.603 167.042 287.605 168.54 285.305 169.367C282.438 168.65 284.588 166.499 283.871 165.066L284.588 162.198C289.461 158.262 294.015 153.948 298.208 149.295C300.359 149.295 301.076 147.144 303.943 146.428C305.377 147.144 306.811 145.711 307.527 144.994C308.961 147.144 311.828 142.126 312.545 145.711Z" fill="#E6E6E6"/>
<path d="M235.84 148.577C236.901 150.562 237.456 152.778 237.456 155.029C237.456 157.279 236.901 159.495 235.84 161.48C233.69 165.065 230.106 165.065 227.238 167.215L221.504 172.95C220.787 171.516 219.353 172.233 218.636 172.95L217.202 174.384C216.92 174.111 216.58 173.906 216.208 173.782C215.836 173.658 215.441 173.618 215.052 173.667L214.335 174.384H213.618C213.618 174.289 213.6 174.196 213.564 174.109C213.528 174.022 213.475 173.943 213.408 173.877C213.342 173.81 213.263 173.757 213.176 173.721C213.089 173.685 212.996 173.667 212.901 173.667C208.6 174.384 208.6 180.118 203.582 177.968L202.866 179.401C202.149 177.251 200.715 179.401 199.281 179.401C199.091 179.401 198.909 179.326 198.774 179.192C198.64 179.057 198.565 178.875 198.565 178.685C196.414 181.552 194.263 176.534 192.113 178.685C189.245 176.534 186.378 171.516 182.077 174.384C179.21 172.233 177.776 172.95 174.909 170.799C172.758 168.649 172.041 167.215 169.174 167.932C167.023 168.649 166.306 165.065 163.439 165.781C161.854 163.791 160.82 161.418 160.443 158.901C160.065 156.384 160.357 153.813 161.289 151.444L162.722 150.011C164.156 150.728 164.156 152.878 163.439 154.312C163.439 157.179 162.722 161.48 166.306 162.914C167.023 165.065 169.174 160.763 170.608 164.348C173.475 162.197 171.324 155.746 175.625 155.746C175.625 160.047 172.758 164.348 176.342 167.932L177.059 167.215C177.059 169.366 179.927 168.649 181.36 170.082C183.511 170.799 184.228 168.649 184.944 167.215C184.228 165.065 184.944 165.065 185.661 163.631C186.378 162.914 186.378 163.631 187.095 163.631C187.556 166.556 188.276 169.435 189.246 172.233C191.396 174.384 193.547 173.667 196.414 175.817C198.564 172.95 198.565 176.534 200.715 174.384C203.582 175.817 205.733 171.516 207.883 171.516C210.034 169.366 207.883 167.215 210.034 164.348C212.901 164.348 210.751 167.215 212.901 167.215C212.901 167.932 212.185 169.366 213.618 169.366C214.335 167.215 215.769 170.082 216.486 169.366C218.636 167.215 223.654 164.348 222.22 160.047C222.937 157.179 218.636 155.746 220.787 152.878C222.937 152.161 223.654 153.595 225.088 153.595C226.069 155.851 226.319 158.358 225.805 160.763C226.521 162.197 228.672 161.48 230.106 161.48C234.407 160.047 232.256 155.746 232.973 152.878C232.256 151.444 231.539 148.577 229.389 148.577C228.672 147.86 228.672 147.143 228.672 145.71C230.014 145.498 231.389 145.653 232.651 146.158C233.912 146.662 235.014 147.498 235.84 148.577Z" fill="black"/>
<path d="M313.976 157.179C312.563 162.034 310.385 166.631 307.524 170.8C307.232 170.758 306.934 170.784 306.654 170.877C306.374 170.971 306.12 171.128 305.911 171.337C305.702 171.545 305.545 171.8 305.452 172.08C305.358 172.36 305.332 172.658 305.374 172.95L299.639 177.251L298.922 176.534C297.488 177.251 296.055 180.119 294.621 178.685C292.471 182.269 291.037 176.534 288.886 180.835C286.736 182.986 286.736 179.402 284.585 181.552C283.868 180.835 283.152 179.402 282.435 180.119C281.718 178.685 281.718 176.534 283.152 175.817L283.868 176.534C286.736 172.233 291.754 174.384 294.621 169.366C296.772 171.516 296.055 167.932 297.488 167.932C303.223 163.631 306.807 155.029 314.693 153.595L316.843 151.445C318.277 152.878 315.41 155.029 313.976 157.179Z" fill="#E6E6E6"/>
<path d="M86.0187 153.595C87.4524 152.162 88.1693 154.312 89.603 153.595C93.9041 158.613 98.922 162.914 103.223 167.215C105.374 166.499 105.374 168.649 106.09 169.366L106.807 170.8C108.958 170.083 111.108 172.95 113.976 173.667C115.409 172.95 116.126 175.818 117.56 174.384C118.405 175.055 119.052 175.943 119.431 176.953C119.81 177.963 119.906 179.058 119.711 180.119C118.277 180.119 116.843 182.986 115.409 180.836L113.976 181.552C113.259 178.685 111.108 182.269 109.675 180.119C107.524 182.269 105.374 180.119 103.94 178.685L103.223 177.251C98.922 178.685 96.0546 172.95 93.1872 170.083C93.9041 167.932 91.0367 167.215 90.3198 165.782C88.1693 163.631 89.603 161.481 87.4524 159.33C86.0187 156.463 84.5851 155.029 83.1514 152.162V150.728C84.5851 152.162 85.3019 152.162 86.0187 153.595Z" fill="#E6E6E6"/>
<path d="M151.971 199.473C151.255 200.19 152.688 200.19 152.688 200.19C153.405 200.19 153.405 199.473 154.839 200.19C154.122 201.624 150.538 203.058 153.405 204.491C154.839 204.491 154.839 205.208 155.556 205.208C158.423 206.642 153.405 210.226 152.688 207.359C152.688 207.359 152.688 204.491 151.971 204.491C149.821 205.208 149.821 207.359 148.387 207.359C148.387 204.491 146.237 200.19 150.538 198.04C149.104 198.757 150.538 199.473 151.971 199.473Z" fill="#E6E6E6"/>
<path d="M253.045 200.908C253.045 200.191 254.479 200.908 255.196 200.191C255.632 200.993 255.798 201.914 255.669 202.818C255.539 203.722 255.122 204.561 254.479 205.209C253.045 205.925 253.762 204.492 253.045 203.775L251.611 204.492C250.894 203.775 251.611 202.341 250.894 202.341L249.461 203.058C248.744 200.908 247.31 202.341 246.593 202.341V203.058C245.16 203.058 247.31 201.624 247.31 200.908C250.178 205.209 250.894 198.04 253.045 200.908Z" fill="#E6E6E6"/>
<path d="M239.43 207.359C240.147 206.642 240.863 204.491 242.297 204.491L239.43 207.359Z" fill="#E6E6E6"/>
<path d="M247.314 207.359L246.598 208.075L247.314 208.792L248.748 209.509C253.766 213.093 248.031 201.624 247.314 207.359Z" fill="white"/>
<path d="M241.579 225.996C241.921 225.559 242.355 225.204 242.851 224.956C243.347 224.708 243.892 224.573 244.447 224.563C245.164 226.713 242.296 227.43 241.579 228.147C239.429 227.43 237.278 230.298 235.845 227.43C236.474 225.096 236.716 222.674 236.562 220.262C237.278 222.412 240.146 223.846 241.579 225.996Z" fill="#E6E6E6"/>
<path d="M165.59 227.43C164.873 227.43 163.439 227.43 163.439 226.713C163.439 225.996 162.722 225.996 162.722 226.713C161.289 227.43 159.138 225.996 158.421 225.996C156.088 225.233 154.072 223.721 152.687 221.695C153.403 223.129 156.988 222.412 155.554 224.563C156.271 223.846 158.421 222.412 159.138 224.563L159.855 223.129C161.289 222.412 162.006 224.563 162.722 223.846C160.572 222.412 162.722 221.695 163.439 220.262C164.585 221.011 165.43 222.142 165.823 223.453C166.217 224.765 166.134 226.174 165.59 227.43V227.43Z" fill="#E6E6E6"/>
<path d="M121.15 248.936C119.716 248.936 118.999 250.37 117.565 249.653C118.282 249.653 121.15 243.918 121.15 248.936Z" fill="#E6E6E6"/>
<path d="M282.437 250.369C282.437 251.086 281.72 250.369 281.003 250.369C280.287 249.652 280.287 248.936 281.003 248.936L282.437 250.369Z" fill="white"/>
<path d="M206.452 336.391C206.735 336.119 207.074 335.913 207.446 335.789C207.818 335.665 208.214 335.626 208.603 335.674C209.32 337.825 212.187 336.391 211.47 339.258C208.603 338.541 209.32 343.559 207.169 342.842C205.019 344.993 202.868 343.559 201.434 344.993C201.256 345.127 201.048 345.216 200.828 345.252C200.608 345.288 200.382 345.27 200.171 345.2C199.959 345.129 199.768 345.008 199.613 344.847C199.459 344.686 199.346 344.49 199.284 344.276C197.85 346.427 196.416 343.559 194.983 343.559L194.266 342.842C193.549 342.842 193.549 344.993 192.115 344.276C190.682 341.409 185.664 339.975 188.531 336.391C190.682 333.523 193.549 335.674 195.7 332.807C197.85 332.09 199.284 333.523 200.001 331.373C202.012 333.217 204.17 334.895 206.452 336.391V336.391Z" fill="#E6E6E6"/>
</g>
<defs>
<clipPath id="clip0">
<rect y="0.19043" width="400" height="491.04" fill="white"/>
</clipPath>
</defs>
</svg>
