<svg width="400" height="496" viewBox="0 0 400 496" fill="none" xmlns="http://www.w3.org/2000/svg">
<g clip-path="url(#clip0)">
<path d="M399.829 0.19043H0.16739C0.16739 0.19043 -4.4463 142.772 34.7701 258.222C68.7961 358.664 124.16 437.17 200.286 495.473C276.412 437.747 331.2 358.664 365.803 258.222C404.442 142.772 399.829 0.19043 399.829 0.19043Z" fill="#1E4E93"/>
<path d="M199.712 88.51C115.512 167.594 26.6981 109.291 5.93652 87.9327C8.55784 122.614 13.1792 157.114 19.7776 191.261C125.893 258.222 199.135 177.984 199.712 177.984C200.288 178.561 273.531 258.222 379.646 191.261C386.454 157.148 391.077 122.635 393.487 87.9327C372.725 109.291 284.488 167.594 199.712 88.51ZM199.712 223.01C125.893 290.548 58.994 255.913 33.042 244.368C34.1954 248.409 35.9255 253.027 37.079 257.068C48.1091 289.415 62.0054 320.711 78.6022 350.582C160.495 363.282 199.712 310.752 199.712 310.752C199.712 310.752 238.928 363.282 320.821 350.582C337.418 320.711 351.314 289.415 362.344 257.068C363.498 253.027 365.228 248.409 366.381 244.368C341.006 255.913 274.107 290.548 199.712 223.01Z" fill="#B4B7B9"/>
</g>
<defs>
<clipPath id="clip0">
<rect y="0.19043" width="400" height="495.28" fill="white"/>
</clipPath>
</defs>
</svg>
