<svg width="400" height="499" viewBox="0 0 400 499" fill="none" xmlns="http://www.w3.org/2000/svg">
<g clip-path="url(#clip0)">
<path fill-rule="evenodd" clip-rule="evenodd" d="M399.621 0.19043C401.712 102.746 396.238 187.856 355.664 297.058C327.597 372.609 281.409 441.964 200 498.837C118.591 441.964 72.403 372.609 44.336 297.058C3.76154 187.856 -1.71177 102.746 0.379493 0.19043C133.46 0.480701 266.54 0.19043 399.621 0.19043Z" fill="#0085CA"/>
<path d="M199.999 82.1098C215.496 82.1098 228.059 69.5428 228.059 54.0406C228.059 38.5383 215.496 25.9713 199.999 25.9713C184.502 25.9713 171.939 38.5383 171.939 54.0406C171.939 69.5428 184.502 82.1098 199.999 82.1098Z" fill="white"/>
<path d="M122.453 82.1098C137.95 82.1098 150.512 69.5428 150.512 54.0406C150.512 38.5383 137.95 25.9713 122.453 25.9713C106.955 25.9713 94.3926 38.5383 94.3926 54.0406C94.3926 69.5428 106.955 82.1098 122.453 82.1098Z" fill="white"/>
<path d="M44.9056 82.1098C60.4027 82.1098 72.9656 69.5428 72.9656 54.0406C72.9656 38.5383 60.4027 25.9713 44.9056 25.9713C29.4086 25.9713 16.8457 38.5383 16.8457 54.0406C16.8457 69.5428 29.4086 82.1098 44.9056 82.1098Z" fill="white"/>
<path d="M277.546 82.1098C293.043 82.1098 305.606 69.5428 305.606 54.0406C305.606 38.5383 293.043 25.9713 277.546 25.9713C262.049 25.9713 249.486 38.5383 249.486 54.0406C249.486 69.5428 262.049 82.1098 277.546 82.1098Z" fill="white"/>
<path d="M355.094 82.1098C370.591 82.1098 383.154 69.5428 383.154 54.0406C383.154 38.5383 370.591 25.9713 355.094 25.9713C339.597 25.9713 327.034 38.5383 327.034 54.0406C327.034 69.5428 339.597 82.1098 355.094 82.1098Z" fill="white"/>
<path d="M49.9086 167.19C65.4056 167.19 77.9685 154.623 77.9685 139.12C77.9685 123.618 65.4056 111.051 49.9086 111.051C34.4115 111.051 21.8486 123.618 21.8486 139.12C21.8486 154.623 34.4115 167.19 49.9086 167.19Z" fill="white"/>
<path d="M65.9193 252.269C81.4164 252.269 93.9792 239.702 93.9792 224.2C93.9792 208.698 81.4164 196.131 65.9193 196.131C50.4222 196.131 37.8594 208.698 37.8594 224.2C37.8594 239.702 50.4222 252.269 65.9193 252.269Z" fill="white"/>
<path d="M95.9379 332.344C111.435 332.344 123.998 319.777 123.998 304.275C123.998 288.772 111.435 276.205 95.9379 276.205C80.4408 276.205 67.8779 288.772 67.8779 304.275C67.8779 319.777 80.4408 332.344 95.9379 332.344Z" fill="white"/>
<path d="M140.964 407.414C156.461 407.414 169.024 394.847 169.024 379.345C169.024 363.843 156.461 351.276 140.964 351.276C125.467 351.276 112.904 363.843 112.904 379.345C112.904 394.847 125.467 407.414 140.964 407.414Z" fill="white"/>
<path d="M199.999 472.475C215.496 472.475 228.059 459.908 228.059 444.406C228.059 428.903 215.496 416.336 199.999 416.336C184.502 416.336 171.939 428.903 171.939 444.406C171.939 459.908 184.502 472.475 199.999 472.475Z" fill="white"/>
<path d="M259.037 407.414C274.534 407.414 287.096 394.847 287.096 379.345C287.096 363.843 274.534 351.276 259.037 351.276C243.539 351.276 230.977 363.843 230.977 379.345C230.977 394.847 243.539 407.414 259.037 407.414Z" fill="white"/>
<path d="M304.063 332.344C319.56 332.344 332.123 319.777 332.123 304.275C332.123 288.772 319.56 276.205 304.063 276.205C288.566 276.205 276.003 288.772 276.003 304.275C276.003 319.777 288.566 332.344 304.063 332.344Z" fill="white"/>
<path d="M334.08 252.269C349.578 252.269 362.14 239.702 362.14 224.2C362.14 208.698 349.578 196.131 334.08 196.131C318.583 196.131 306.021 208.698 306.021 224.2C306.021 239.702 318.583 252.269 334.08 252.269Z" fill="white"/>
<path d="M350.09 167.19C365.587 167.19 378.15 154.623 378.15 139.12C378.15 123.618 365.587 111.051 350.09 111.051C334.593 111.051 322.03 123.618 322.03 139.12C322.03 154.623 334.593 167.19 350.09 167.19Z" fill="white"/>
</g>
<defs>
<clipPath id="clip0">
<rect y="0.19043" width="400" height="498.65" fill="white"/>
</clipPath>
</defs>
</svg>
