<svg width="400" height="458" viewBox="0 0 400 458" fill="none" xmlns="http://www.w3.org/2000/svg">
<g clip-path="url(#clip0)">
<path d="M0 0.19043C133.333 0.19043 266.667 0.19043 400 0.19043C399.99 109.684 380.293 333.577 199.886 457.212C21.3244 333.521 0.0834728 109.707 0 0.19043Z" fill="#B4B7B9"/>
<path d="M148.079 201.353C158.327 194.8 169.929 190.203 182.383 186.837L183.49 175.641L212.066 175.707L213.107 186.968C224.916 190.357 236.61 194.55 247.932 201.353L256.719 193.998L276.833 214.567L270.389 223.29C276.248 234.119 282.018 245.012 284.514 258.244L294.929 259.611L294.991 288.252L284.511 289.359C281.374 302.041 276.794 313.821 269.735 324.053L276.569 332.45L256.001 352.824L248.059 345.99C238.475 352.815 226.781 357.883 212.779 361.026L211.412 371.245L183.487 371.05L182.511 360.505C168.997 357.693 157.193 352.829 147.36 345.599L138.508 352.629L118.589 332.515L125.685 323.142C117.572 311.621 113.564 300.099 111.82 288.578L100.494 287.341L100.625 258.765L111.561 257.268C114.486 243.563 119.176 232.038 126.272 223.485L118.331 214.307L138.9 193.998L148.078 201.353H148.078L148.079 201.353Z" fill="#F9423A"/>
<path d="M246.95 40.4563C256.007 34.6098 266.26 30.5079 277.268 27.5053L278.246 17.516L303.501 17.5738L304.421 27.6211C314.858 30.645 325.194 34.3863 335.199 40.456L342.966 33.8934L360.742 52.2457L355.047 60.0281C360.225 69.6905 365.325 79.4093 367.531 91.2151L376.735 92.4349L376.79 117.988L367.528 118.976C364.756 130.291 360.708 140.802 354.47 149.931L360.51 157.423L342.331 175.601L335.312 169.503C326.842 175.593 316.506 180.114 304.132 182.919L302.923 192.036L278.243 191.862L277.381 182.454C265.437 179.945 255.005 175.605 246.315 169.154L238.491 175.427L220.887 157.481L227.158 149.118C219.988 138.838 216.446 128.558 214.904 118.279L204.895 117.175L205.01 91.6797L214.675 90.3439C217.26 78.1159 221.405 67.8333 227.677 60.2022L220.658 52.0132L238.837 33.8932L246.949 40.4559H246.949L246.95 40.4563Z" fill="#F9423A"/>
<path d="M63.3493 40.4563C72.4926 34.6098 82.8436 30.5079 93.9558 27.5053L94.9431 17.516L120.439 17.5738L121.368 27.6211C131.904 30.645 142.338 34.3863 152.439 40.456L160.28 33.8934L178.225 52.2457L172.476 60.0281C177.703 69.6905 182.851 79.4093 185.078 91.2151L194.37 92.4349L194.426 117.988L185.076 118.976C182.277 130.291 178.19 140.802 171.893 149.931L177.99 157.423L159.639 175.601L152.553 169.503C144.002 175.593 133.568 180.114 121.076 182.919L119.856 192.036L94.9409 191.862L94.0698 182.454C82.0124 179.945 71.4808 175.605 62.7081 169.154L54.8101 175.427L37.0384 157.481L43.369 149.118C36.1303 138.838 32.5546 128.558 30.9988 118.279L20.8936 117.175L21.0104 91.6797L30.7673 90.3439C33.3771 78.1159 37.5617 67.8333 43.8927 60.2022L36.8075 52.0132L55.1595 33.8932L63.3485 40.4559H63.3485L63.3493 40.4563Z" fill="#F9423A"/>
<path d="M95.5244 47.9482C75.3669 51.7998 55.2842 68.7139 51.0957 92.319L83.7928 92.0866L83.8487 82.1558L95.6964 82.1L95.522 47.9509H95.522L95.5244 47.9482Z" fill="#B4B7B9"/>
<path d="M120.714 47.9482C140.871 51.7998 160.954 68.7139 165.142 92.319L132.445 92.0866L132.39 82.1558L120.542 82.1L120.716 47.9509H120.716L120.714 47.9482Z" fill="#B4B7B9"/>
<path d="M120.714 161.763C140.871 157.912 160.954 140.998 165.142 117.393L132.445 117.625L132.39 127.556L120.542 127.612L120.716 161.761H120.716L120.714 161.763Z" fill="#B4B7B9"/>
<path d="M51.3857 115.769C55.237 135.926 72.1511 156.009 95.7564 160.197L95.524 127.5L85.5929 127.445L85.537 115.597L51.3878 115.771V115.771L51.3857 115.769Z" fill="#B4B7B9"/>
<path d="M117.388 96.3235H100.898V111.545H117.388V96.3235Z" fill="#B4B7B9"/>
<path d="M277.607 47.9482C257.45 51.7998 237.367 68.7139 233.179 92.319L265.876 92.0866L265.932 82.1558L277.779 82.1L277.605 47.9509H277.605L277.607 47.9482Z" fill="#B4B7B9"/>
<path d="M302.798 47.9482C322.955 51.7998 343.038 68.7139 347.226 92.319L314.529 92.0866L314.474 82.1558L302.626 82.1L302.8 47.9509H302.8L302.798 47.9482Z" fill="#B4B7B9"/>
<path d="M302.798 161.763C322.955 157.912 343.038 140.998 347.226 117.393L314.529 117.625L314.474 127.556L302.626 127.612L302.8 161.761H302.8L302.798 161.763Z" fill="#B4B7B9"/>
<path d="M233.469 115.769C237.32 135.926 254.234 156.009 277.839 160.197L277.607 127.5L267.676 127.445L267.62 115.597L233.471 115.771V115.771L233.469 115.769Z" fill="#B4B7B9"/>
<path d="M299.471 96.3235H282.981V111.545H299.471V96.3235Z" fill="#B4B7B9"/>
<path d="M184.142 209.75C161.549 214.067 139.04 233.024 134.346 259.481L170.993 259.22L171.055 248.09L184.334 248.028L184.139 209.753H184.139L184.142 209.75Z" fill="#B4B7B9"/>
<path d="M212.375 209.75C234.967 214.067 257.476 233.024 262.171 259.481L225.523 259.22L225.462 248.09L212.183 248.028L212.378 209.753H212.378L212.375 209.75Z" fill="#B4B7B9"/>
<path d="M212.375 337.315C234.967 332.998 257.476 314.041 262.171 287.584L225.523 287.844L225.462 298.975L212.183 299.037L212.378 337.312H212.378L212.375 337.315Z" fill="#B4B7B9"/>
<path d="M134.671 285.763C138.987 308.356 157.945 330.865 184.402 335.56L184.141 298.912L173.011 298.851L172.948 285.572L134.674 285.767V285.767L134.671 285.763Z" fill="#B4B7B9"/>
<path d="M208.647 263.969H190.165V281.03H208.647V263.969Z" fill="#B4B7B9"/>
</g>
<defs>
<clipPath id="clip0">
<rect y="0.19043" width="400" height="457.02" fill="white"/>
</clipPath>
</defs>
</svg>
