<svg width="400" height="493" viewBox="0 0 400 493" fill="none" xmlns="http://www.w3.org/2000/svg">
<g clip-path="url(#clip0)">
<path d="M0 0.19043H400C400 117.933 380.173 359.247 200.003 492.721C21.5754 359.247 0 117.933 0 0.19043Z" fill="#DB2A1C"/>
<path d="M233.82 207.7L251.313 225.187L396.504 77.7214C397.667 66.6484 398.252 53.2424 398.838 43.3325L233.82 207.7Z" fill="#FFCD04"/>
<path d="M214.568 156.403L165.008 207.115L182.501 224.602L232.061 173.305L214.568 156.403Z" fill="#FFCD04"/>
<path d="M248.978 190.792L198.833 138.916L216.326 120.844L266.472 172.72L248.978 190.792Z" fill="#FFCD04"/>
<path d="M180.177 260.739L130.031 209.448L147.524 191.377L197.67 243.253L180.177 260.739V260.739Z" fill="#FFCD04"/>
<path d="M145.773 226.929L162.681 244.416L71.1336 334.761C66.4662 325.436 61.8053 315.526 60.0566 312.03L145.773 226.929Z" fill="#FFCD04"/>
<path d="M162.683 173.889L49.5596 287.551C46.6474 279.974 42.5651 268.901 40.8164 263.072L145.775 156.987L162.683 173.889V173.889Z" fill="#FFCD04"/>
<path d="M215.742 226.929L233.235 243.831L96.209 379.645C91.7871 373.064 87.6995 366.265 83.9619 359.273L215.742 226.929Z" fill="#FFCD04"/>
<path d="M197.082 172.726L180.174 190.213L0.583008 8.93725V0.775391H25.0707L197.082 172.726Z" fill="#FFCD04"/>
<path d="M180.179 120.266L198.257 102.194L94.462 0.775391H61.8096L180.179 120.266Z" fill="#FFCD04"/>
<path d="M128.274 173.305L111.366 190.207L4.08079 82.3741C2.91064 71.8859 2.33214 58.4997 1.74707 47.9852L128.274 173.305Z" fill="#FFCD04"/>
<path d="M180.754 155.207L335.857 0.775391H303.212L163.846 138.338L180.754 155.207Z" fill="#FFCD04"/>
<path d="M251.305 155.207L399.401 5.44119V0.775391H371.423L234.397 137.753L251.305 155.207Z" fill="#FFCD04"/>
<path d="M285.712 191.961L268.219 209.448L349.853 289.877C353.935 279.363 355.684 274.723 358.596 265.398L285.712 191.961Z" fill="#FFCD04"/>
<path d="M216.326 191.377L199.418 208.864L328.864 337.094C331.776 331.837 335.859 323.103 339.941 314.363L216.326 191.377Z" fill="#FFCD04"/>
<path d="M216.326 261.324L199.418 278.226L303.206 381.4C307.289 374.986 311.949 367.994 315.453 361.58L216.326 261.324Z" fill="#FFCD04"/>
</g>
<defs>
<clipPath id="clip0">
<rect y="0.19043" width="400" height="492.53" fill="white"/>
</clipPath>
</defs>
</svg>
