<svg width="400" height="499" viewBox="0 0 400 499" fill="none" xmlns="http://www.w3.org/2000/svg">
<g clip-path="url(#clip0)">
<path fill-rule="evenodd" clip-rule="evenodd" d="M399.62 0.208984C401.71 102.615 396.241 187.606 355.669 296.652C326.386 378.544 271.916 449.079 200.06 498.157C128.185 449.087 73.6965 378.551 44.3993 296.652C3.83389 187.606 -1.64113 102.615 0.448186 0.208984C133.504 0.498197 266.565 0.208984 399.62 0.208984Z" fill="#E00E00"/>
<path fill-rule="evenodd" clip-rule="evenodd" d="M0 21.2654C2.93888 24.3398 6.37493 27.4206 9.95571 30.495C29.0553 48.9229 53.8061 43.9874 79.9855 69.2558C99.834 88.4067 90.7216 108.425 114 130.871C133.099 149.298 157.85 144.369 184.03 169.625C203.878 188.776 194.766 208.794 218.044 231.24C237.143 249.668 261.894 244.739 288.074 269.994C307.922 289.145 298.81 309.164 322.088 331.609C326.287 335.63 331.108 338.947 336.367 341.43L329.08 355.526C322.03 352.83 315.573 348.79 310.068 343.63C286.784 321.172 295.902 301.154 276.054 282.015C249.874 256.76 225.124 261.689 206.024 243.261C182.739 220.803 191.858 200.785 172.01 181.646C145.83 156.39 121.08 161.32 101.98 142.892C78.6954 120.434 87.8141 100.415 67.9656 81.277C42.7932 56.9705 18.8794 60.6234 0.113286 44.503" fill="#FFE000"/>
<path fill-rule="evenodd" clip-rule="evenodd" d="M28.3252 0.19043C30.3201 2.4664 32.529 4.69208 34.9644 7.00578C54.2151 25.2765 78.8149 20.5045 104.994 45.7602C124.843 64.9111 115.73 84.9296 139.008 107.375C158.108 125.803 182.859 120.874 209.038 146.129C228.887 165.28 219.774 185.299 243.053 207.744C262.152 226.172 286.903 221.243 313.082 246.499C332.931 265.65 323.818 285.668 347.097 308.114C348.095 309.078 349.108 309.979 350.136 310.817L343.39 326.623C340.408 324.755 337.629 322.582 335.096 320.141C311.811 297.683 320.93 277.664 301.081 258.526C274.902 233.27 250.151 238.2 231.052 219.772C207.767 197.314 216.886 177.295 197.037 158.157C170.858 132.901 146.107 137.83 127.008 119.402C103.723 96.9445 112.842 76.926 92.9932 57.7877C66.8139 32.5319 42.4532 37.0398 22.9635 19.0332C17.3233 13.5161 12.5572 7.17293 8.8291 0.221873" fill="#FFE000"/>
<path fill-rule="evenodd" clip-rule="evenodd" d="M0.371094 64.3147C16.5947 71.8594 35.386 73.8398 54.9765 92.7455C74.825 111.896 65.7125 131.915 88.9907 154.36C108.09 172.788 132.841 167.859 159.021 193.115C178.869 212.266 169.757 232.284 193.035 254.73C212.134 273.157 236.885 268.228 263.065 293.484C282.913 312.635 273.801 332.653 297.079 355.099C304.084 361.463 312.393 366.226 321.427 369.056L313.139 382.385C302.754 379.459 293.163 374.233 285.078 367.095C261.793 344.637 270.912 324.618 251.064 305.48C224.884 280.224 200.133 285.153 181.034 266.726C157.749 244.268 166.868 224.249 147.02 205.111C120.84 179.855 96.0894 184.784 76.9898 166.356C53.7052 143.898 62.824 123.88 42.9755 104.742C31.0211 93.703 16.6161 85.655 0.943765 81.2588L0.371094 64.3147Z" fill="#FFE000"/>
</g>
<defs>
<clipPath id="clip0">
<rect y="0.19043" width="400" height="497.97" fill="white"/>
</clipPath>
</defs>
</svg>
