<svg width="400" height="501" viewBox="0 0 400 501" fill="none" xmlns="http://www.w3.org/2000/svg">
<g clip-path="url(#clip0)">
<path d="M400 300.19C400 410.647 310.457 500.19 200 500.19C89.5431 500.19 0 410.647 0 300.19C0 189.733 0 0.19043 0 0.19043H400C400 0.19043 400 262.936 400 300.19Z" fill="#0070BA"/>
<mask id="mask0" mask-type="alpha" maskUnits="userSpaceOnUse" x="120" y="0" width="163" height="501">
<path d="M186.338 376.913C187.802 373.958 187.802 370.511 186.338 367.556L142.436 287.287L185.363 212.928C187.314 209.973 187.314 206.034 185.363 203.079L140.973 126.257L184.875 47.4654C186.338 44.5107 186.338 41.0636 184.875 38.1089L164.387 0.19043H142.436L165.363 43.0334L121.461 121.825C119.997 124.78 119.997 128.719 121.461 131.674L165.363 208.003L122.436 282.363C120.485 285.318 120.485 288.765 122.436 291.72L166.339 372.481L123.9 451.273C122.436 454.227 122.436 457.674 123.9 460.629L140.973 489.684L147.454 500.19H168.579L143.412 455.212L186.338 376.913Z" fill="white"/>
<path d="M280.976 376.913C282.44 373.958 282.44 370.511 280.976 367.556L237.074 287.287L280.001 212.928C281.952 209.973 281.952 206.034 280.001 203.079L235.611 126.257L279.513 47.4654C280.976 44.5107 280.976 41.0636 279.513 38.1089L259.025 0.19043H237.074L260.001 43.0334L216.099 121.825C214.635 124.78 214.635 128.719 216.099 131.674L260.001 208.003L217.074 282.363C215.123 285.318 215.123 288.765 217.074 291.72L260.976 372.481L218.538 451.273C217.074 454.227 217.074 457.674 218.538 460.629L242 500.19H265.25L238.05 455.212L280.976 376.913Z" fill="white"/>
<path d="M233.653 367.556C235.116 370.511 235.116 373.958 233.653 376.913L190.239 455.705L216 500.19H193.25L171.214 460.629C169.751 457.674 169.751 454.227 171.214 451.273L213.653 372.481L169.751 291.72C167.8 288.765 167.8 285.318 169.751 282.363L212.677 208.003L168.775 131.674C167.312 128.719 167.312 124.78 168.775 121.825L212.677 43.0334L189.751 0.19043H211.702L232.189 38.1089C233.653 41.0636 233.653 44.5107 232.189 47.4654L188.287 126.257L232.677 203.079C234.628 206.034 234.628 209.973 232.677 212.928L189.751 287.287L233.653 367.556Z" fill="white"/>
</mask>
<g mask="url(#mask0)">
<path d="M400 300.19C400 410.647 310.457 500.19 200 500.19C89.5431 500.19 0 410.647 0 300.19C0 189.733 0 0.19043 0 0.19043H400C400 0.19043 400 262.936 400 300.19Z" fill="white"/>
</g>
</g>
<defs>
<clipPath id="clip0">
<rect y="0.19043" width="400" height="500" fill="white"/>
</clipPath>
</defs>
</svg>
