<svg width="400" height="521" viewBox="0 0 400 521" fill="none" xmlns="http://www.w3.org/2000/svg">
<g clip-path="url(#clip0)">
<path d="M200.291 520.165C278.105 463.862 331.439 392.753 363.352 302.807C392.291 221.255 403.902 122.423 398.856 0.670759L398.835 0.19043H1.16126L1.14031 0.670759C-3.89578 122.423 7.71551 221.245 36.6443 302.807C68.557 392.753 121.891 463.862 199.705 520.165L199.998 520.374L200.291 520.165Z" fill="#0085CA"/>
<path fill-rule="evenodd" clip-rule="evenodd" d="M209.17 219.177H204.26V229.525L273.519 297.084L252.579 330.498V396.282H200.229H147.879V330.498L126.938 297.084L196.198 229.525V219.177H191.287L200.229 208.621L209.17 219.177Z" fill="white"/>
<path fill-rule="evenodd" clip-rule="evenodd" d="M219.336 330.498L229.806 297.084H267.76L246.82 330.498H219.336Z" fill="#0085CA"/>
<path fill-rule="evenodd" clip-rule="evenodd" d="M186.879 330.498L176.409 297.084H200.229H224.048L213.578 330.498H200.229H186.879Z" fill="#0085CA"/>
<path fill-rule="evenodd" clip-rule="evenodd" d="M181.12 330.498L170.65 297.084H132.696L153.636 330.498H181.12Z" fill="#0085CA"/>
<path fill-rule="evenodd" clip-rule="evenodd" d="M123.316 48.6825H118.405V59.0304L187.665 126.589L166.725 160.003V225.787H114.374H62.0241V160.003L41.084 126.589L110.343 59.0304V48.6825H105.433L114.374 38.1257L123.316 48.6825Z" fill="white"/>
<path fill-rule="evenodd" clip-rule="evenodd" d="M133.481 160.003L143.951 126.589H181.905L160.965 160.003H133.481Z" fill="#0085CA"/>
<path fill-rule="evenodd" clip-rule="evenodd" d="M101.025 160.003L90.5547 126.589H114.374H138.193L127.723 160.003H114.374H101.025Z" fill="#0085CA"/>
<path fill-rule="evenodd" clip-rule="evenodd" d="M95.2658 160.003L84.7957 126.589H46.8418L67.7819 160.003H95.2658Z" fill="#0085CA"/>
<path fill-rule="evenodd" clip-rule="evenodd" d="M295.025 48.6825H290.114V59.0304L359.374 126.589L338.434 160.003V225.787H286.083H233.733V160.003L212.793 126.589L282.052 59.0304V48.6825H277.142L286.083 38.1257L295.025 48.6825Z" fill="white"/>
<path fill-rule="evenodd" clip-rule="evenodd" d="M305.19 160.003L315.66 126.589H353.614L332.674 160.003H305.19Z" fill="#0085CA"/>
<path fill-rule="evenodd" clip-rule="evenodd" d="M272.734 160.003L262.264 126.589H286.083H309.902L299.432 160.003H286.083H272.734Z" fill="#0085CA"/>
<path fill-rule="evenodd" clip-rule="evenodd" d="M266.975 160.003L256.505 126.589H218.551L239.491 160.003H266.975Z" fill="#0085CA"/>
</g>
<defs>
<clipPath id="clip0">
<rect y="0.19043" width="400" height="520.18" fill="white"/>
</clipPath>
</defs>
</svg>
