<svg width="400" height="490" viewBox="0 0 400 490" fill="none" xmlns="http://www.w3.org/2000/svg">
<g clip-path="url(#clip0)">
<path d="M0 2.41043C0 1.73038 2.58421e-06 0.370277 0.680094 0.370277C2.04028 0.370277 2.72037 0.370277 4.08055 0.370277C134.658 0.370277 265.235 0.370277 395.813 0.370277C397.853 0.370277 400.574 -0.989817 399.893 3.77051C399.213 6.4907 398.533 8.53085 398.533 11.251C397.173 37.0928 397.173 63.6147 394.453 89.4565C391.732 118.018 387.652 145.9 382.211 173.782C371.33 232.946 352.967 289.39 325.083 342.434C295.159 399.558 255.034 448.521 204.027 487.964C200.627 490.684 198.587 490.684 195.186 487.964C145.539 449.881 107.454 402.278 77.5304 346.514C50.3267 295.511 31.9643 241.107 19.7226 185.343C10.8815 144.54 5.44073 103.057 2.72037 61.5745C1.36019 44.5733 2.04027 27.5722 1.36018 10.571C1.36018 7.8508 0.680091 5.13061 0 2.41043Z" fill="#207DBE"/>
<path d="M200.628 58.1741C223.751 58.1741 242.114 76.5354 242.114 98.9769C242.114 121.418 223.071 139.78 200.628 139.78C178.185 139.78 159.143 120.738 159.143 98.2969C159.143 76.5353 177.505 58.1741 200.628 58.1741Z" fill="white"/>
<path d="M248.235 217.305C225.792 217.305 207.43 199.624 207.43 177.183C207.43 154.061 225.792 136.38 248.915 136.38C271.358 136.38 290.401 154.741 289.721 177.183C289.721 202.344 267.278 218.666 248.235 217.305Z" fill="white"/>
<path d="M193.827 177.182C193.827 199.624 174.784 217.985 152.341 217.985C129.898 217.985 110.855 198.944 110.855 177.182C111.536 150.661 133.979 135.7 153.021 136.38C175.464 137.06 193.827 154.741 193.827 177.182Z" fill="white"/>
<path d="M104.737 297.55C82.2945 297.55 63.252 279.189 63.252 256.747C63.252 234.306 82.2945 215.945 104.737 215.945C127.18 215.945 146.223 234.986 146.223 256.747C146.223 279.189 127.861 297.55 104.737 297.55Z" fill="white"/>
<path d="M200.628 298.23C178.185 298.23 159.143 279.869 159.143 257.428C159.143 234.986 178.185 216.625 200.628 216.625C223.071 216.625 242.114 234.986 242.114 257.428C241.434 279.869 223.071 298.23 200.628 298.23Z" fill="white"/>
<path d="M255.036 257.428C255.036 234.306 272.718 216.625 295.842 216.625C318.965 216.625 336.647 234.306 337.327 257.428C337.327 276.469 323.045 298.23 295.842 298.23C269.318 297.55 253.676 275.789 255.036 257.428Z" fill="white"/>
</g>
<defs>
<clipPath id="clip0">
<rect y="0.19043" width="400" height="489.81" fill="white"/>
</clipPath>
</defs>
</svg>
