<svg width="400" height="522" viewBox="0 0 400 522" fill="none" xmlns="http://www.w3.org/2000/svg">
<g clip-path="url(#clip0)">
<path d="M38.0624 303.123L36.8869 303.539L38.0623 303.123C9.28278 221.803 -2.33777 123.213 2.60385 1.69043H397.4C402.331 123.213 390.711 221.792 361.942 303.123C330.211 392.797 277.251 463.717 200.002 519.926C122.753 463.717 69.7928 392.797 38.0624 303.123Z" fill="#0085CA" stroke="#0085CA" stroke-width="3"/>
<path d="M40.7246 70.211C40.7246 70.211 177.944 42.7158 253.757 30.7149C276.286 27.1486 299.463 43.2984 300.476 64.3273C301.93 94.4864 317.219 129.484 354.194 97.7644C341.674 135.046 296.187 128.764 290.819 96.6393C288.383 108.151 287.57 114.604 287.043 122.596C286.025 138.053 285.805 151.583 273.483 166.344C254.014 189.666 208.166 202.77 209.479 235.831C209.9 246.455 210.293 272.543 213.004 286.372C228.957 276.186 246.107 269.976 268.616 289.035C293.946 310.483 313.822 347.993 328.304 379.503C297.396 433.644 255.613 481.063 199.657 521.32C170.215 499.898 135.059 469.002 108.943 435.382C117.472 363.682 129.332 292.161 142.743 220.717C149.697 183.67 181.107 172.154 209.806 148.562C233.861 128.788 233.07 117.38 233.229 98.481L40.7246 70.211Z" fill="white"/>
<path d="M214.2 60.4951C217.806 60.4951 220.729 57.5719 220.729 53.966C220.729 50.3602 217.806 47.437 214.2 47.437C210.594 47.437 207.671 50.3602 207.671 53.966C207.671 57.5719 210.594 60.4951 214.2 60.4951Z" fill="#0085CA" stroke="#0085CA" stroke-width="3" stroke-linecap="round" stroke-linejoin="round"/>
<path d="M219.625 504.5L208.679 348.787C208.252 342.678 211.407 336.386 216.265 333.471L236.8 321.15" stroke="#0085CA" stroke-width="3" stroke-linecap="round" stroke-linejoin="round"/>
<path d="M260.375 466.875L232.465 382.529" stroke="#0085CA" stroke-width="3" stroke-linecap="round"/>
<path d="M285 440L257.634 369.763" stroke="#0085CA" stroke-width="3" stroke-linecap="round"/>
<path d="M38.0624 303.123L36.8869 303.539L38.0623 303.123C9.28278 221.803 -2.33777 123.213 2.60385 1.69043H397.4C402.331 123.213 390.711 221.792 361.942 303.123C330.211 392.797 277.251 463.717 200.002 519.926C122.753 463.717 69.7928 392.797 38.0624 303.123Z" stroke="#0085CA" stroke-width="3"/>
</g>
<defs>
<clipPath id="clip0">
<rect y="0.19043" width="400" height="521.59" fill="white"/>
</clipPath>
</defs>
</svg>
