<svg width="400" height="502" viewBox="0 0 400 502" fill="none" xmlns="http://www.w3.org/2000/svg">
<g clip-path="url(#clip0)">
<path d="M400 305.678C398.755 357.945 377.137 407.652 339.766 444.177C302.394 480.703 252.233 501.15 200 501.15C147.767 501.15 97.6061 480.703 60.2345 444.177C22.8629 407.652 1.24496 357.945 0 305.678V0.19043H400V305.678Z" fill="#EC1C24"/>
<path d="M262.451 198.842L291.323 231.951L199.933 336.51L171.062 303.516L142.985 335.486L199.933 400.566L347.248 231.951L290.414 166.871L262.451 198.842Z" fill="white"/>
<path d="M108.433 231.95L199.936 127.049L228.922 160.385L256.77 128.528L199.936 63.562L52.5078 231.95L109.456 297.029L137.418 265.059L108.433 231.95Z" fill="white"/>
<path d="M230.746 228.764L395.793 40.0107V4.39893H370.899L202.783 196.793L230.746 228.764Z" fill="white"/>
<path d="M169.139 234.908L27.0527 397.835C33.883 410.656 42.1179 422.677 51.6052 433.674L197.101 267.22L169.139 234.908Z" fill="white"/>
<path d="M142.985 198.842L228.805 297.03L256.768 265.059L170.721 166.643L142.985 198.842Z" fill="white"/>
<path d="M137.42 128.528L28.9803 4.39893H4.08691V40.0107L109.458 160.499L137.42 128.528Z" fill="white"/>
<path d="M262.459 335.486L348.279 433.674C357.767 422.677 366.002 410.657 372.831 397.835L290.421 303.174L262.459 335.486Z" fill="white"/>
<path d="M398.5 305.66C397.26 357.529 375.804 406.857 338.717 443.104C301.626 479.356 251.841 499.65 200 499.65C148.159 499.65 98.3744 479.356 61.2829 443.104C24.1956 406.857 2.74013 357.529 1.5 305.66V1.69043H398.5V305.66Z" stroke="#EC1C24" stroke-width="3"/>
</g>
<defs>
<clipPath id="clip0">
<rect y="0.19043" width="400" height="500.96" fill="white"/>
</clipPath>
</defs>
</svg>
