<svg width="400" height="522" viewBox="0 0 400 522" fill="none" xmlns="http://www.w3.org/2000/svg">
<g clip-path="url(#clip0)">
<path d="M200.291 521.568C278.105 465.113 331.439 393.812 363.352 303.623C392.291 221.852 403.902 122.753 398.856 0.672055L398.835 0.19043H1.16126L1.14031 0.672055C-3.89578 122.753 7.7155 221.841 36.6443 303.623C68.557 393.812 121.891 465.113 199.705 521.568L199.998 521.777L200.291 521.568Z" fill="#009FE3"/>
<path fill-rule="evenodd" clip-rule="evenodd" d="M264.903 0.191895L200.229 161.773L135.554 0.191895" fill="#B4B7B9"/>
<path fill-rule="evenodd" clip-rule="evenodd" d="M200.229 161.775L399.375 98.3982C397.229 141.316 393.012 182.896 385.279 222.806L200.229 161.775Z" fill="#B4B7B9"/>
<path fill-rule="evenodd" clip-rule="evenodd" d="M200.228 161.773L0.836914 98.3127C2.98282 141.231 7.18772 182.809 14.9204 222.719C76.6895 202.403 138.459 182.088 200.228 161.773Z" fill="#B4B7B9"/>
<path fill-rule="evenodd" clip-rule="evenodd" d="M300.333 423.487C273.328 458.655 241.05 491.87 200.234 521.347C159.419 491.872 127.14 458.657 100.136 423.488L200.234 161.774L300.333 423.487Z" fill="#B4B7B9"/>
<path d="M361.938 303.123L363.352 303.623L361.938 303.123C330.207 392.797 277.247 463.717 199.998 519.926C122.749 463.717 69.7888 392.797 38.0584 303.123C9.28918 221.792 -2.33132 123.213 2.5999 1.69043H397.396C402.338 123.213 390.717 221.803 361.938 303.123Z" stroke="#009FE3" stroke-width="3"/>
</g>
<defs>
<clipPath id="clip0">
<rect y="0.19043" width="400" height="521.59" fill="white"/>
</clipPath>
</defs>
</svg>
