<svg width="400" height="523" viewBox="0 0 400 523" fill="none" xmlns="http://www.w3.org/2000/svg">
<g clip-path="url(#clip0)">
<path d="M199.709 521.808C121.895 465.354 68.561 394.053 36.6483 303.864C7.70906 222.093 -3.90222 122.994 1.14434 0.912778L1.16528 0.431152H398.839L398.86 0.912778C403.896 122.994 392.284 222.082 363.356 303.864C331.443 394.053 278.109 465.354 200.295 521.808L200.002 522.018L199.709 521.808Z" fill="#E00E00"/>
<path fill-rule="evenodd" clip-rule="evenodd" d="M199.771 521.39C259.953 442.644 254.038 288.148 199.771 210.429C268.434 210.429 335.202 264.004 359.377 313.172C320.753 416.773 256.058 480.536 199.771 521.39Z" fill="white"/>
<path fill-rule="evenodd" clip-rule="evenodd" d="M199.772 210.429C199.772 257.262 137.936 357.366 77.5342 390.43C52.9296 347.681 35.2457 308.544 20.7656 250.781C82.7274 258.026 166.959 236.112 199.772 210.429Z" fill="white"/>
<path fill-rule="evenodd" clip-rule="evenodd" d="M199.771 210.429C129.329 196.022 18.2417 127.956 1.42676 0.473122L166.121 0.19043C148.636 80.0664 175.167 170.727 199.771 210.429Z" fill="white"/>
<path fill-rule="evenodd" clip-rule="evenodd" d="M199.771 210.429C240.961 176.412 317.413 147.839 394.169 162.895C399.017 111.215 400.87 57.2731 398.839 0.431152C314.439 20.3242 226.638 95.6667 199.771 210.429Z" fill="white"/>
<path d="M38.0624 303.363L36.8869 303.779L38.0623 303.363C9.28278 222.043 -2.33777 123.454 2.60385 1.93115H397.4C402.331 123.454 390.711 222.033 361.942 303.363C330.211 393.037 277.251 463.958 200.002 520.167C122.753 463.958 69.7928 393.037 38.0624 303.363Z" stroke="#E00E00" stroke-width="3"/>
</g>
<defs>
<clipPath id="clip0">
<rect y="0.19043" width="400" height="521.83" fill="white"/>
</clipPath>
</defs>
</svg>
