<svg width="400" height="583" viewBox="0 0 400 583" fill="none" xmlns="http://www.w3.org/2000/svg">
<g clip-path="url(#clip0)">
<path d="M353.185 413.507C353.185 413.507 378.074 421.211 397.037 420.618C397.037 420.618 397.037 412.914 397.037 120.766C397.037 120.766 355.555 120.766 2.96289 120.766V434.84C30.2221 432.47 48.5925 424.174 48.5925 424.174C120.296 415.285 127.407 364.322 127.407 364.322C154.074 279.581 162.963 239.285 162.963 239.285C181.926 175.285 189.63 163.433 189.63 163.433C216.889 163.433 219.259 163.433 219.259 163.433C227.555 322.248 229.333 325.211 229.333 325.211C251.259 380.914 266.074 396.915 266.074 396.915C324.148 422.989 353.185 413.507 353.185 413.507Z" fill="#0096DA"/>
<path d="M392.889 438.396C392.889 438.396 376.889 438.989 301.63 439.581C301.63 439.581 274.963 438.396 257.778 420.026C257.778 420.026 242.37 404.026 222.815 338.248C222.815 338.248 225.778 315.137 215.704 232.767C215.704 232.767 216.889 222.693 215.704 164.026C215.704 164.026 210.963 164.026 192 164.026C192 164.026 190.815 165.211 187.259 171.73C177.778 220.915 165.926 250.544 165.926 250.544C161.185 297.952 157.037 344.174 157.037 344.174C142.222 444.322 97.1851 433.063 97.1851 433.063C14.2221 440.174 2.96289 446.693 2.96289 446.693C4.14808 475.73 4.74067 473.952 4.74067 474.544C13.6296 513.656 29.037 517.804 29.037 517.804C49.1851 533.211 58.074 536.174 58.074 536.174C93.037 546.841 98.9629 545.063 98.9629 545.063C129.185 546.248 140.444 545.656 140.444 545.656C187.852 546.841 199.111 573.507 199.111 573.507C212.741 556.322 225.185 551.581 225.185 551.581C259.555 541.507 267.852 544.47 267.852 544.47C306.37 542.1 313.481 541.507 313.481 541.507C356.148 536.767 370.963 517.804 370.963 517.804C393.481 495.878 394.667 476.915 394.667 476.915C395.852 447.878 396.444 440.174 396.444 440.174L392.889 438.396Z" fill="#0096DA"/>
<path d="M336.593 116.026C298.667 97.6554 144 82.8406 66.9631 116.026L66.3705 116.618C66.3705 116.618 62.2223 107.73 59.8519 92.3221C59.8519 92.3221 60.4445 83.4332 56.2964 68.6184C138.074 38.3962 278.519 34.8406 341.333 67.4332C338.963 82.8406 340.148 92.9147 340.148 92.9147C340.741 104.767 336.593 116.026 336.593 116.026Z" fill="#FFD400"/>
<path d="M337.185 114.247C317.037 104.766 267.852 96.4696 216.296 94.6918C180.148 93.5066 112.592 94.0992 66.3702 114.247L65.185 115.433L67.5553 116.025C67.5553 116.025 63.4072 107.136 61.0368 92.3215V92.9141C61.0368 92.3215 61.6294 83.4326 57.4813 68.6178L56.2961 70.3955C142.222 38.3955 280.296 37.8029 340.741 68.6178L340.148 66.84C337.778 82.2474 338.963 92.3215 338.963 92.3215C339.555 103.581 335.407 114.84 335.407 114.84L337.185 114.247ZM337.778 116.618C337.778 116.025 341.926 105.358 341.333 92.9141C341.333 92.9141 340.741 82.84 342.518 68.0252V66.84L341.926 65.6548C281.481 34.84 142.222 35.4326 55.7035 67.4326L54.5183 68.0252L55.1109 69.2103C59.2591 83.4326 58.6665 92.3215 58.6665 92.3215C61.0368 107.729 65.185 116.618 65.185 116.618L66.3702 118.396L68.1479 116.618L68.7405 116.025L68.1479 116.618C147.555 82.2474 301.037 99.4326 336.592 116.618L338.37 117.21L337.778 116.618Z" fill="black"/>
<path d="M340.148 69.2109C256.593 43.7294 146.963 41.3591 60.4444 70.3961L53.3333 48.4702C136.889 18.2479 259.555 19.4331 340.741 46.6924L340.148 69.2109Z" fill="#FFD400"/>
<path d="M340.741 68.0259C252.445 41.3592 142.223 41.9518 59.8521 69.211L61.6299 69.8036L54.5188 47.8777L53.9262 49.6555C93.6299 35.4333 144.593 27.7296 197.926 27.137C250.074 27.137 300.445 34.2481 340.148 47.8777L339.556 46.6925L338.963 69.211L340.741 68.0259ZM340.741 45.5073C301.037 31.8777 250.074 24.7666 197.334 24.7666C144 24.7666 92.4447 33.0629 52.741 47.2851L52.1484 47.8777L52.741 49.0629L59.8521 70.9888L60.4447 72.174L61.6299 71.5814C143.408 44.3222 253.037 43.7296 340.741 70.3962L342.519 70.9888V69.211L343.111 46.6925V45.5073H340.741Z" fill="black"/>
<path d="M337.186 52.0257C253.631 26.5442 144.594 24.1739 57.4824 53.2109L52.7417 48.4702C136.297 18.2479 258.964 19.4331 340.149 46.6924L337.186 52.0257Z" fill="#FFD400"/>
<path d="M337.778 50.8407C249.482 24.174 139.26 24.7666 56.8895 52.0259L58.0747 52.6185L53.9266 47.2851L53.334 49.6555C93.0377 35.4333 144.001 27.7296 197.334 27.137C249.482 27.137 299.852 34.2481 339.556 47.8777L338.964 46.0999L336.001 51.4333L337.778 50.8407ZM340.741 45.5073C301.038 31.8777 250.075 24.7666 197.334 24.7666C144.001 24.7666 92.4451 33.0629 52.7414 47.2851L50.9636 47.8777L52.1488 49.0629L56.8895 54.3962L57.4821 54.9888H58.0747C139.853 27.7296 249.482 27.137 337.186 53.8036H337.778L338.371 52.6185L341.334 47.2851L341.927 46.0999L340.741 45.5073Z" fill="black"/>
<path d="M97.1846 43.1368C99.5549 56.1738 100.148 59.7294 100.148 59.7294L102.518 59.1368C102.518 59.1368 101.925 55.5812 99.5549 42.5442L97.1846 43.1368Z" fill="black"/>
<path d="M301.037 42.5442C298.667 55.5812 298.074 59.1368 298.074 59.1368L300.445 59.7294C300.445 59.7294 301.037 56.1738 303.408 43.1368L301.037 42.5442Z" fill="black"/>
<path d="M166.877 33.6238L164.508 33.6887L164.962 50.2747L167.332 50.2098L166.877 33.6238Z" fill="black"/>
<path d="M233.482 33.6555L232.889 50.2481H235.26L235.852 33.6555H233.482Z" fill="black"/>
<path d="M58.0729 90.5448C58.0729 90.5448 46.2211 46.1003 40.2952 24.767C55.11 18.8411 72.8878 16.4707 72.8878 16.4707C94.2211 72.767 96.5915 79.8781 96.5915 79.8781C80.5915 84.0263 58.0729 90.5448 58.0729 90.5448Z" fill="#FFD400"/>
<path d="M59.2586 89.9523L41.4808 24.1745L40.8883 25.9523C55.1105 20.0263 72.8883 17.656 72.8883 17.656L71.1105 16.4708C91.8512 72.1745 94.8142 79.8782 94.8142 79.8782L95.9994 78.1004C81.1846 82.8412 58.666 89.3597 58.0734 89.3597L59.2586 89.9523ZM58.666 91.73C58.666 91.73 81.1846 85.2115 96.592 80.4708L98.3697 79.8782L97.7771 78.1004C97.7771 78.1004 95.4068 70.3967 74.0734 14.693L73.4808 13.5078H72.2957C71.7031 13.5078 54.5179 15.8782 39.7031 21.8041L37.9253 23.5819L38.5179 24.7671L56.2957 90.5449L56.8883 92.3226L58.666 91.73Z" fill="black"/>
<path d="M66.9628 86.9883C61.0368 53.8031 71.7035 50.2476 84.7405 82.2476L66.9628 86.9883Z" fill="black"/>
<path d="M55.1108 52.0258C52.7404 39.5813 58.6664 37.211 62.8145 49.6554L55.1108 52.0258Z" fill="black"/>
<path d="M113.777 75.7282C113.777 75.7282 111.407 30.0986 110.221 7.58008C126.221 4.61711 143.407 6.39489 143.407 6.39489C152.296 66.2467 152.888 73.3579 152.888 73.3579C136.888 73.9505 113.777 75.7282 113.777 75.7282Z" fill="#FFD400"/>
<path d="M114.962 75.729L111.999 6.98823L110.814 8.766C126.222 6.39563 143.407 7.58082 143.999 7.58082L142.222 6.39563C150.518 65.0623 151.703 73.3586 151.703 73.3586L152.888 71.5808C137.481 72.766 113.777 74.5438 113.777 74.5438L114.962 75.729ZM113.777 76.9141C113.777 76.9141 137.481 75.1364 152.888 73.9512H154.666V72.1734C154.666 72.1734 154.073 64.4697 145.185 5.21045V4.02526H143.999C143.407 4.02526 126.222 2.24749 110.222 5.21045H109.036V6.39563L112.592 74.5438V76.3216L113.777 76.9141Z" fill="black"/>
<path d="M123.26 73.9517C124.445 40.1739 135.704 38.9887 141.63 73.3591L123.26 73.9517Z" fill="black"/>
<path d="M180.147 70.9883C180.147 70.9883 181.925 25.3587 182.518 2.84014C198.518 1.65495 215.703 4.61792 215.703 4.61792C219.259 63.8772 219.851 71.5809 219.851 71.5809C203.851 70.9883 180.147 70.9883 180.147 70.9883Z" fill="#FFD400"/>
<path d="M181.926 70.9888L183.703 2.24804L182.518 4.02582C197.926 2.84064 215.111 5.8036 215.703 5.8036L214.518 4.61841C218.074 63.8777 218.074 71.5814 218.074 72.174L219.852 70.3962C203.852 70.3962 180.74 69.8036 180.148 69.8036L181.926 70.9888ZM180.148 72.174C180.148 72.174 203.852 72.7666 219.852 72.7666H221.629V70.9888C221.629 70.9888 221.629 62.6925 217.481 3.43323V2.24804H216.296C215.703 2.24804 198.518 -0.71492 182.518 0.470265H181.333V1.65545L178.963 69.8036V71.5814L180.148 72.174Z" fill="black"/>
<path d="M190.223 69.8034C194.371 36.0257 205.63 36.0257 208.593 70.396L190.223 69.8034Z" fill="black"/>
<path d="M245.926 72.7662C245.926 72.7662 253.037 27.1366 256 5.21069C272 5.80329 289.185 10.544 289.185 10.544C286.222 70.3959 285.037 78.0996 285.037 78.0996C269.037 76.3218 245.926 72.7662 245.926 72.7662Z" fill="#FFD400"/>
<path d="M247.703 73.3585L257.777 5.80299L255.999 6.98817C271.407 7.58077 288.592 12.3215 288.592 12.3215L287.407 10.5437C284.444 69.803 283.259 77.5067 283.259 78.0993L285.036 76.9141C269.629 75.1363 245.925 71.5808 245.925 71.5808L247.703 73.3585ZM245.925 74.5437C245.925 74.5437 269.629 77.5067 285.036 79.8771H286.814V78.0993C286.814 77.5067 287.407 70.3956 290.962 10.5437V9.35854L289.777 8.76595C289.185 8.76595 272.592 4.02521 256.592 3.43262H255.407V4.6178L245.333 72.1734V73.9511L245.925 74.5437Z" fill="black"/>
<path d="M256 73.3596C263.703 40.767 274.963 41.3596 273.778 76.3226L256 73.3596Z" fill="black"/>
<path d="M305.185 81.0629C305.185 81.0629 319.407 37.211 326.519 15.8777C341.926 18.8406 357.926 26.5444 357.926 26.5444C344.889 85.211 342.519 92.3221 342.519 92.3221C327.704 88.174 305.185 81.0629 305.185 81.0629Z" fill="#FFD400"/>
<path d="M306.37 81.6552L327.703 16.47L325.926 17.6552C341.333 20.6181 356.74 28.3218 357.333 28.3218L356.74 26.5441C343.703 84.6181 341.333 92.3218 341.333 92.3218L343.111 91.1367C328.296 86.3959 305.777 79.8774 305.185 79.2848L306.37 81.6552ZM304.592 82.2478C304.592 82.2478 327.111 89.3589 342.518 94.0996L344.296 94.6922L344.889 92.9144C344.889 92.9144 346.666 85.2107 360.296 27.1366V25.9515L359.111 25.3589C358.518 24.7663 343.111 17.6552 327.111 14.0996H325.926L325.333 15.2848L304 80.47L303.407 81.6552L304.592 82.2478Z" fill="black"/>
<path d="M324.148 46.1003C328.889 34.2484 335.407 35.4336 331.852 48.4706L324.148 46.1003Z" fill="black"/>
<path d="M338.37 50.2482C343.11 38.3963 349.629 39.5815 346.073 52.6186L338.37 50.2482Z" fill="black"/>
<path d="M31.9999 422.989C19.5555 433.063 2.96289 440.174 2.96289 440.174H3.55548L4.74067 444.322C5.33326 444.322 21.9259 437.211 34.9629 426.544L31.9999 422.989Z" fill="black"/>
<path d="M222.816 169.952C217.482 181.211 221.038 188.322 221.038 188.322C222.816 197.804 219.853 207.285 219.853 207.285C229.927 197.804 226.964 175.878 226.964 175.878C225.778 176.47 222.816 169.952 222.816 169.952Z" fill="black"/>
<path d="M315.259 81.6553C328.889 50.8405 339.555 53.8035 332.444 87.5812L315.259 81.6553Z" fill="black"/>
<path d="M315.259 81.6553C328.889 50.8405 339.555 53.8035 332.444 87.5812L315.259 81.6553Z" fill="black"/>
<path d="M298.667 232.173C286.223 232.173 277.927 232.173 277.927 232.173C292.149 206.099 292.742 204.914 292.742 204.914C299.853 204.914 301.63 204.914 301.63 204.914C292.742 222.692 291.556 223.877 291.556 223.877C298.075 223.877 299.853 223.877 299.853 223.877C299.853 218.544 299.853 216.766 299.853 216.766C306.371 209.655 307.556 207.877 307.556 207.877V223.877C312.89 223.877 314.667 223.877 314.667 223.877C314.667 229.21 314.667 232.173 314.667 232.173C308.742 232.173 307.556 232.173 307.556 232.173C307.556 237.507 307.556 240.47 307.556 240.47C301.038 240.47 299.26 240.47 299.26 240.47C299.26 235.136 299.26 232.173 298.667 232.173Z" fill="white"/>
<path d="M298.667 230.396H277.926L279.112 232.767C292.741 207.878 293.926 206.1 293.926 205.507L292.741 206.1H301.63L300.445 203.73C292.149 220.322 290.371 222.1 290.371 222.1L287.408 225.656H290.963H299.26H301.038V223.878V216.767L300.445 217.952C306.371 210.841 308.149 209.063 308.149 209.063L306.963 209.656L305.778 207.878V223.878V225.656H307.556H314.667L312.889 223.878V232.174L314.667 230.396H307.556H305.778V232.174V240.47L307.556 238.693H299.26L301.038 240.47V231.581V229.804H298.667V230.396ZM297.482 232.174V241.063V242.841H299.26H307.556H309.334V241.063V232.767L307.556 234.544H314.667H316.445V232.767V224.47V222.693H314.667H307.556L309.334 224.47V207.878V206.1H307.556H306.963L306.371 206.693C306.371 206.693 304.593 209.063 298.667 215.581L298.075 216.174V216.767V223.878L299.852 222.1H291.556L292.741 224.47C293.334 223.878 297.482 216.174 303.408 204.915L304.593 202.544H302.223H293.334H292.741L292.149 203.137C292.149 203.137 291.556 204.322 277.334 230.396L276.149 232.767H278.519H299.26H299.852L297.482 232.174Z" fill="black"/>
<path d="M344.297 232.174V241.655C324.148 241.655 320.593 241.655 320.593 241.655C320.593 238.1 320.593 236.322 320.593 236.322C320 228.026 333.037 222.1 333.037 222.1C339.556 217.359 334.222 213.803 334.222 213.803C329.482 211.433 324.741 219.729 324.741 219.729C318.815 214.989 318.815 214.989 318.815 214.989C329.482 196.026 341.334 209.063 341.334 209.063C346.667 214.989 343.111 220.322 343.111 220.322C340.741 225.063 338.963 223.877 334.222 228.618C331.26 230.989 333.037 233.359 333.037 233.359C339.556 232.174 344.297 232.174 344.297 232.174Z" fill="white"/>
<path d="M342.519 232.174V241.655L344.297 239.877H320.593L322.371 241.655V236.322C321.779 230.396 330.668 225.063 333.63 223.877C336.001 222.1 337.186 220.322 337.779 217.951C337.779 214.988 334.816 212.618 334.816 212.618C330.075 210.248 325.334 215.581 323.556 219.137L325.927 218.544L320.001 213.803L320.593 215.581C324.149 209.655 327.705 206.692 331.853 206.1C337.186 205.507 340.742 209.655 340.742 209.655C344.89 214.396 342.519 219.137 342.519 219.137C341.334 221.507 340.149 222.1 338.371 223.285C337.186 223.877 336.001 225.063 334.223 226.84C330.668 230.396 332.445 233.359 332.445 233.359L333.038 233.951H333.63H344.89L342.519 232.174ZM344.297 230.396H333.038L334.223 230.988C334.223 230.988 333.63 229.803 335.408 228.618C337.186 226.84 338.371 226.248 339.556 225.655C341.334 224.47 343.112 223.285 344.297 220.322C344.297 220.322 347.853 213.803 342.519 207.285C342.519 207.285 337.186 201.951 330.668 202.544C325.927 203.137 321.186 206.692 317.038 213.803L316.445 214.988L317.63 215.581L323.556 220.322L324.742 221.507L325.927 219.729C325.927 219.729 330.075 213.211 333.038 214.396C333.63 214.988 334.816 215.581 334.816 217.359C334.816 218.544 333.63 219.729 332.445 220.914C331.853 220.914 318.816 227.433 319.408 236.322V241.655V243.433H320.001H343.705H345.482V241.655V232.174V230.396H344.297V230.396Z" fill="black"/>
<path d="M66.371 204.321V240.469C60.4451 240.469 56.8895 240.469 56.8895 240.469C56.8895 216.766 56.8895 213.803 56.8895 213.803C53.334 213.803 50.9636 213.803 50.9636 213.803C56.297 206.099 58.0747 204.321 58.0747 204.321C62.8155 203.729 66.371 203.729 66.371 204.321Z" fill="white"/>
<path d="M64.5931 204.322V240.47L66.3709 238.692H56.8894L58.6672 240.47V213.803V212.025H56.8894H50.9635L52.1486 214.396C57.482 206.692 58.6672 204.914 59.2597 204.914L58.0746 205.507H66.3709L64.5931 204.322ZM66.3709 202.544H58.0746H57.482L56.8894 203.136C56.8894 203.136 55.1116 204.914 49.7783 212.618L48.0005 214.988H50.9635H56.8894L55.1116 213.21V239.877V241.655H56.8894H66.3709H68.1486V239.877V203.729V201.951H66.3709V202.544Z" fill="black"/>
<path d="M74.6672 204.914H100.741C100.741 210.247 100.741 213.21 100.741 213.21C90.0746 220.914 91.8524 240.47 91.8524 240.47C83.5561 240.47 81.1858 240.47 81.1858 240.47C81.1858 217.951 91.2598 213.803 91.2598 213.803C77.6302 213.803 74.6672 213.803 74.6672 213.803C74.6672 208.47 74.6672 204.914 74.6672 204.914Z" fill="white"/>
<path d="M74.6669 206.099H100.741L98.9632 204.321V212.617L99.5558 211.432C88.8892 219.729 90.0743 239.284 90.0743 239.877L91.8521 238.099H81.1855L82.9632 239.877C82.9632 218.543 91.8521 214.988 91.8521 214.988L91.2595 212.025H74.6669L76.4447 213.803V204.321L74.6669 206.099ZM72.8892 204.914V213.803V215.58H74.6669H91.2595L90.6669 212.617C90.0743 212.617 80.0003 217.358 80.0003 240.469V242.247H81.778H92.4447H94.2225V240.469C94.2225 240.469 93.0373 222.099 102.519 214.395L103.111 213.803V213.21V204.914V203.136H100.741H74.6669H72.8892V204.914V204.914Z" fill="black"/>
<path d="M395.853 463.286C395.853 463.286 360.89 450.249 327.112 461.508C327.112 461.508 311.705 466.841 302.224 464.471C302.224 464.471 230.52 462.693 216.298 377.952C216.298 377.952 209.186 326.397 202.668 305.064C202.668 305.064 192.594 274.841 197.927 241.063C197.927 241.063 205.038 221.508 204.446 188.323C199.705 217.952 193.186 235.73 193.186 235.73C181.927 272.471 194.372 297.952 194.372 297.952C199.112 310.989 202.668 326.397 205.038 340.026C206.224 369.656 212.742 390.989 212.742 390.989C229.927 444.323 247.112 452.026 247.112 452.026C282.075 486.397 327.112 470.989 327.112 470.989C369.186 459.73 395.261 474.545 395.261 474.545L395.853 463.286Z" fill="white"/>
<path d="M396.446 462.101C395.853 462.101 360.297 449.064 326.52 460.323C326.52 460.323 311.112 465.064 302.223 463.286C301.631 463.286 231.705 460.323 218.075 377.953C218.075 377.36 210.371 325.805 204.445 305.064C204.445 304.471 194.371 274.842 199.705 241.657V242.249C200.297 241.657 207.408 222.101 206.223 188.916H203.26C198.52 217.953 192.001 235.731 192.001 236.323C180.149 273.657 192.594 298.545 193.186 299.731C197.334 310.99 200.89 325.212 203.853 341.212C205.038 370.842 211.557 392.175 211.557 392.768C228.742 446.101 246.52 454.397 247.112 454.99L246.52 454.397C282.075 488.768 327.705 473.953 327.705 473.953C368.594 463.286 394.668 477.508 394.668 477.508L396.446 478.694V476.323L397.631 465.064V463.879L396.446 462.101ZM395.26 473.953C394.075 473.36 368.001 459.138 325.927 470.397C325.334 470.397 281.483 485.212 247.705 452.027C247.705 452.027 230.52 443.731 213.927 392.175C213.927 392.175 208.001 370.842 206.816 341.805C204.445 325.212 200.297 310.99 196.149 299.138C196.149 298.545 184.297 273.657 194.964 238.101C194.964 238.101 202.075 219.731 206.816 190.101H203.853C205.038 222.694 197.334 241.657 197.334 242.249C192.001 276.619 202.075 306.842 202.075 307.434C208.594 328.175 215.705 379.731 215.705 380.323C223.408 424.768 246.52 446.694 264.89 456.768C284.445 468.027 302.223 468.619 303.408 468.619C312.89 470.397 328.297 465.657 328.89 465.064C361.483 454.397 396.446 466.842 396.446 466.842L395.26 465.064L392.89 474.545L395.26 473.953Z" fill="black"/>
<path d="M174.224 402.249C174.224 402.249 175.409 395.73 173.038 378.545C173.038 378.545 170.668 376.767 173.038 348.323C173.038 348.323 179.557 328.175 177.187 288.471C177.187 288.471 173.038 254.693 186.075 241.656C183.112 254.1 183.112 255.286 183.705 269.508C185.483 279.582 184.89 283.137 184.89 283.137C186.075 309.212 184.298 325.804 184.298 325.804C179.557 346.545 180.742 357.804 180.742 357.804C181.335 396.323 176.001 400.471 176.001 400.471L174.224 402.249Z" fill="white"/>
<path d="M176.001 402.841C176.001 402.841 177.186 395.73 174.816 379.137V378.545L174.223 377.952V378.545C174.223 378.545 172.446 374.989 174.223 348.915V349.508C174.223 348.915 180.742 328.174 178.371 289.063C178.371 288.471 174.223 255.878 186.668 243.434L184.297 242.248L183.705 243.434C181.334 254.693 180.742 256.471 181.334 270.1C183.112 279.582 182.52 283.73 182.52 283.73C183.705 309.211 181.927 325.804 181.927 325.804C177.186 346.545 178.371 357.804 178.371 358.397C178.964 394.545 174.223 399.285 174.223 399.878L173.038 402.248L176.001 402.841ZM176.594 401.656C177.779 401.063 182.52 395.73 181.927 357.804C181.927 357.804 181.334 346.545 185.483 326.397C185.483 326.397 187.26 309.211 186.075 283.73C186.075 283.73 186.668 279.582 184.89 269.508C184.297 256.471 184.89 254.693 187.26 243.434L187.853 242.248L189.038 236.915L185.483 240.471C172.446 253.508 176.001 286.693 176.001 288.471C178.371 326.989 171.853 347.73 171.853 347.73C170.668 361.359 170.075 377.359 172.446 379.73L171.853 378.545C174.223 395.137 173.038 401.656 173.038 401.656L176.001 402.841L176.594 401.656Z" fill="black"/>
<path d="M190.816 318.693C187.853 340.619 189.63 365.508 189.63 365.508C193.186 396.323 207.408 409.952 207.408 409.952C196.149 388.026 196.149 348.915 196.149 348.915C195.556 334.101 194.964 332.323 194.964 332.323C193.779 322.249 190.816 318.693 190.816 318.693Z" fill="white"/>
<path d="M189.631 318.101C186.668 340.027 188.446 365.508 188.446 365.508C192.001 396.916 205.631 409.953 206.223 410.545L208.594 408.767C197.927 387.434 197.335 348.916 197.335 348.323C196.742 334.101 196.742 331.73 196.149 331.138C194.964 320.471 192.001 316.916 191.409 316.323L190.223 314.545L189.631 318.101ZM189.631 319.286C189.631 319.286 192.001 322.841 193.779 332.323C193.779 332.323 194.372 334.693 194.372 348.916C194.372 350.693 194.964 388.027 206.223 410.545L208.594 408.767C208.594 408.767 194.964 395.138 191.409 365.508C191.409 365.508 189.038 340.619 192.594 318.693L189.631 319.286Z" fill="black"/>
<path d="M168.89 412.916C159.409 418.25 150.52 438.398 150.52 438.398C146.372 450.25 143.409 450.25 143.409 450.25C136.298 450.842 136.298 452.62 136.298 452.62C136.298 454.99 143.409 454.99 143.409 454.99C145.187 468.027 147.557 463.287 147.557 463.287C148.15 456.768 151.113 455.583 151.113 455.583C170.668 437.805 172.446 426.546 172.446 426.546C176.002 408.175 170.668 412.324 170.668 412.324L168.89 412.916Z" fill="white"/>
<path d="M168.298 411.731C158.223 417.064 149.927 437.212 149.335 437.805C145.779 447.879 143.409 449.064 143.409 449.064C136.298 449.657 134.52 451.435 134.52 452.62C134.52 453.212 134.52 453.805 135.112 454.398C136.89 456.175 141.631 456.175 143.409 456.175L141.631 454.99C142.816 463.286 144.001 465.064 145.779 465.064C146.964 465.064 148.149 464.472 148.742 463.286C149.335 457.953 151.705 456.768 151.705 456.768C171.261 438.99 173.631 427.138 173.631 426.546C176.001 414.101 174.816 411.731 173.038 410.546C171.853 409.953 170.075 410.546 169.483 411.138C169.483 410.546 167.705 411.731 168.298 411.731ZM171.261 412.916C171.261 412.916 172.446 414.101 170.668 425.361C170.668 425.361 168.298 436.62 149.927 453.805C149.335 453.805 146.372 456.175 145.779 462.694V462.101C145.779 462.101 146.372 462.101 146.964 462.101C146.964 462.101 145.779 460.916 145.186 454.398V453.212H144.001C141.631 453.212 138.668 453.212 138.075 452.62V453.212C138.075 453.212 139.261 452.027 144.001 452.027C145.186 452.027 148.742 450.842 152.89 438.99C152.89 438.99 161.779 419.435 170.668 414.694C169.483 414.101 171.261 413.509 171.261 412.916Z" fill="black"/>
<path d="M183.705 412.916C175.409 433.657 182.52 444.324 182.52 444.324C189.038 456.176 184.89 461.509 184.89 461.509C180.742 469.805 184.89 467.435 184.89 467.435C189.631 463.287 190.223 462.102 190.223 462.102C203.853 468.62 198.52 462.102 198.52 462.102C191.409 454.398 193.186 450.25 193.186 450.25C196.742 418.842 187.853 412.324 187.853 412.324C184.89 406.99 183.705 412.916 183.705 412.916Z" fill="white"/>
<path d="M182.52 412.323C173.631 433.657 181.335 444.323 181.928 444.916C187.853 455.582 184.89 460.323 184.298 460.916C181.928 465.064 181.928 467.434 183.113 468.62C184.298 469.805 185.483 469.212 186.668 468.62C191.409 464.471 192.594 463.286 192.594 463.286L190.816 463.879C198.52 467.434 200.298 467.434 201.483 465.657C202.668 463.879 201.483 462.101 200.891 460.916C194.372 453.805 195.557 450.842 195.557 450.842V450.249C197.335 437.212 196.742 426.545 194.372 418.842C192.594 413.508 190.224 410.545 189.039 410.545L190.224 411.138C188.446 409.36 187.261 408.175 185.483 408.768C183.113 408.768 182.52 411.731 182.52 412.323ZM185.483 412.916C185.483 412.323 186.076 411.138 186.076 411.138C186.076 411.138 186.668 411.138 187.261 412.323C187.261 412.323 195.557 418.842 192.002 448.471V447.879C192.002 448.471 190.224 453.212 197.335 461.508C197.335 462.101 197.928 462.694 197.928 462.694C197.928 462.694 197.928 462.101 198.52 462.101C198.52 462.101 196.742 462.101 190.816 459.731L189.631 459.138L189.039 460.323C189.039 460.323 187.853 461.508 183.705 465.064H183.113C183.113 465.064 183.705 465.064 183.705 465.657C183.705 465.657 183.705 464.471 185.483 461.508C185.483 461.508 189.631 455.582 183.113 442.545C184.298 442.545 177.187 433.064 185.483 412.916Z" fill="black"/>
<path d="M202.667 419.435C204.445 438.99 215.704 446.694 215.704 446.694C226.371 454.398 228.149 457.361 228.149 457.361C232.889 473.953 233.482 466.842 233.482 466.842C235.26 462.694 235.26 460.916 235.26 460.916C247.111 459.138 243.556 456.768 243.556 456.768C232.297 454.99 229.926 445.509 229.926 445.509C215.704 412.324 205.037 414.694 205.037 414.694C202.074 414.101 202.667 419.435 202.667 419.435Z" fill="white"/>
<path d="M200.89 419.434C202.075 431.286 206.816 440.768 214.519 447.879C224.593 454.99 226.371 458.545 226.371 458.545V457.953C229.334 469.805 231.112 470.397 232.297 470.397C233.482 470.397 234.075 469.212 234.075 467.434V468.027C235.853 463.879 235.853 462.101 235.853 461.508L234.667 463.286C241.186 462.694 244.149 460.916 244.741 459.138C245.334 457.953 244.149 456.768 243.556 456.175H242.964H242.371C232.297 454.99 229.927 446.101 229.927 446.101C215.704 412.323 204.445 414.101 203.26 414.101H204.445C203.26 413.508 202.075 414.101 202.075 414.101C200.89 414.694 200.89 417.657 200.89 419.434ZM203.853 419.434C203.853 418.249 203.853 417.064 203.853 416.471C203.853 416.471 203.26 417.064 202.667 417.064H203.26H203.853C203.853 417.064 213.927 415.879 227.556 447.286C227.556 447.879 230.519 457.953 242.371 459.731H241.779V459.138C241.779 459.138 241.186 460.323 234.667 461.508H233.482V462.694C233.482 462.694 233.482 464.471 231.704 468.027V468.62L232.297 468.027C232.89 468.027 232.89 468.027 233.482 468.027C233.482 468.027 232.297 466.249 229.927 457.953C229.927 457.36 227.556 454.397 217.482 446.694C216.297 445.508 205.63 437.805 203.853 419.434Z" fill="black"/>
<path d="M252.445 543.878C222.223 524.322 173.63 522.544 138.667 545.063L157.63 546.248C174.816 534.989 216.89 536.766 235.26 546.841L252.445 543.878Z" fill="white"/>
<path d="M253.63 542.1C221.038 521.359 171.26 521.359 138.075 543.285L133.927 545.655L138.667 546.248L157.63 547.433H158.223H158.815C175.408 536.766 216.889 538.544 234.667 548.026H235.26H235.852L253.038 545.063L257.186 544.47L253.63 542.1ZM235.852 545.063C216.889 534.989 174.223 533.211 156.445 544.47H157.63L138.667 543.285L139.26 546.248C171.26 525.507 219.26 524.915 251.26 545.063L251.852 542.1L234.667 545.063H235.852Z" fill="black"/>
<path d="M3.55615 465.064C37.9265 448.471 86.5191 460.323 86.5191 460.323C110.815 465.656 129.186 464.471 129.186 464.471C103.704 475.73 81.1858 469.804 81.1858 469.804C20.7413 463.878 5.33393 476.323 5.33393 476.323L3.55615 465.064Z" fill="white"/>
<path d="M4.14845 466.249C37.3336 450.249 85.9262 461.508 85.9262 461.508C109.63 466.841 129.185 465.656 129.185 465.656V462.693C104.889 473.36 82.3707 468.026 82.3707 467.434C20.741 462.693 5.33363 474.545 4.14845 475.137L6.51882 476.323L4.74104 465.063L4.14845 466.249ZM6.51882 477.508C6.51882 477.508 22.5188 465.656 81.7781 470.989C82.9633 470.989 105.482 476.915 130.963 465.656L129.778 462.693C129.778 462.693 110.815 463.286 87.1114 458.545C85.3336 457.952 37.3336 446.693 2.96326 463.286L1.77808 463.878V465.063L3.55585 476.323L4.14845 478.693L6.51882 477.508Z" fill="black"/>
<path d="M8.88892 488.175C39.7037 474.545 82.3704 482.841 82.3704 482.841C125.037 492.916 160.593 477.508 160.593 477.508C193.778 464.471 238.222 476.916 238.222 476.916C284.444 495.878 316.444 482.249 316.444 482.249C350.815 471.582 391.111 487.582 391.111 487.582L385.778 498.249C385.778 498.249 351.407 483.434 317.63 494.101C317.63 494.101 285.037 507.73 239.407 488.767C239.407 488.767 195.556 476.916 162.37 489.36C162.37 489.36 126.222 504.767 83.5556 494.693C83.5556 494.693 44.4445 485.212 13.6297 498.841L8.88892 488.175Z" fill="white"/>
<path d="M9.48201 489.953C39.7042 476.916 81.7783 484.619 81.7783 485.212C124.445 495.286 160.593 479.879 161.186 479.286C193.778 466.842 237.038 478.693 237.63 478.693C283.852 497.656 315.852 484.619 317.038 484.027C350.223 473.953 390.519 488.768 390.519 489.36L389.926 486.99L385.186 497.656L386.964 497.064C386.371 497.064 352.001 482.249 317.63 492.916C317.038 492.916 285.038 505.953 240.001 487.582C238.223 486.99 195.556 475.731 161.778 488.175C161.186 488.175 125.63 503.582 83.5561 493.508C81.7783 492.916 43.2598 484.027 12.445 497.656L14.8153 498.249L10.0746 487.582L9.48201 489.953ZM14.2227 500.619C44.445 487.582 82.9635 496.471 83.5561 496.471C126.223 506.545 162.963 491.138 163.556 491.138C196.149 479.286 239.408 490.545 239.408 490.545C286.223 509.508 319.408 495.879 319.408 495.879H318.815C352.001 485.805 385.778 500.027 386.371 500.027L387.556 500.619L388.149 499.434L393.482 488.768L394.075 486.99L392.297 486.397C390.519 485.805 350.815 470.397 316.445 481.064C315.852 481.064 283.852 494.101 238.815 475.731C237.038 475.138 193.778 463.286 160.001 476.323C159.408 476.323 124.445 491.731 82.3709 481.656C80.5931 481.064 39.1116 473.36 7.70423 486.99L6.51904 487.582L7.11164 488.768L11.8524 499.434L12.445 500.619H14.2227Z" fill="black"/>
<path d="M376.298 512.47C376.298 512.47 346.075 500.618 317.038 511.285C317.038 511.285 296.298 521.359 245.927 506.544C245.927 506.544 196.15 492.915 164.742 503.581C164.742 503.581 116.742 521.359 85.9273 512.47C85.9273 512.47 48.594 503.581 23.7051 513.655L35.5569 523.137C59.2606 516.618 88.8903 525.507 88.8903 525.507C119.705 534.989 167.705 516.618 167.705 516.618C193.779 505.952 248.298 521.359 248.298 521.359C298.668 533.211 320.001 524.322 320.001 524.322C348.446 516.026 365.038 523.137 365.038 523.137L376.298 512.47Z" fill="white"/>
<path d="M376.89 510.693C375.704 510.1 346.075 498.841 316.445 509.508C316.445 509.508 295.704 518.989 246.519 504.767C244.149 504.174 195.556 491.137 164.149 501.804C163.556 501.804 116.149 519.582 85.9267 510.693C84.1489 510.1 47.4082 501.804 22.5193 511.878L20.1489 513.063L22.5193 514.841L34.3711 524.322L34.9637 524.915H35.5563C58.6674 518.396 87.7045 527.285 88.2971 527.285C119.112 536.767 166.519 518.989 168.297 518.396C193.779 508.322 247.704 523.137 248.297 523.137C298.667 534.989 320.001 526.693 320.593 526.1C347.853 517.804 364.445 524.322 365.038 524.915L366.223 525.508L366.816 524.915L377.482 514.841L379.26 513.063L376.89 510.693ZM366.223 521.359C365.63 520.767 348.445 514.248 320.001 522.545C320.001 522.545 298.667 530.841 249.482 518.989C247.112 518.396 194.371 503.582 167.704 514.248C167.112 514.248 119.704 532.026 89.4823 523.137C88.2971 522.545 58.6674 514.248 34.9637 520.767H36.1489L24.2971 511.285L23.7045 514.841C48.0008 504.767 84.7415 513.656 85.3341 513.656C116.149 523.137 162.964 505.359 165.334 504.767C196.149 494.693 245.334 507.73 245.927 508.322C296.297 523.137 317.038 513.063 318.223 513.063C346.667 502.989 375.704 514.248 376.297 514.248L375.704 511.878L365.038 521.952L366.223 521.359Z" fill="black"/>
<path d="M2.96289 450.248C47.9999 436.026 98.3703 443.137 98.3703 443.137C140.444 447.878 157.037 418.248 162.37 376.767C164.148 362.544 164.741 342.396 167.704 324.026C170.667 306.248 169.481 285.507 169.481 285.507C170.074 238.692 178.963 233.359 178.963 233.359C200.889 187.137 194.963 165.211 194.963 165.211C192.593 145.655 178.963 172.322 178.963 172.322C150.518 193.063 152.889 219.137 152.889 219.137C138.667 226.248 142.815 254.1 142.815 254.1C126.815 255.878 129.185 328.174 129.185 328.174C117.926 344.174 119.111 350.1 119.111 350.1C117.926 361.952 114.37 365.507 114.37 365.507C112.593 371.433 107.852 380.915 100.148 386.841C91.8518 395.137 91.2592 402.841 91.2592 402.841C89.4814 406.989 81.7777 411.73 73.4814 412.322C51.5555 412.915 26.6666 427.73 26.6666 427.73C17.1851 432.47 2.96289 431.285 2.96289 431.285V450.248Z" fill="white"/>
<path d="M3.55622 452.619C47.4081 438.397 97.7784 445.508 98.371 445.508C136.89 449.656 158.223 427.138 164.741 377.36C165.334 372.026 165.927 365.508 166.519 358.989C167.704 348.323 168.297 336.471 170.075 325.212C173.038 307.434 171.853 287.286 171.853 286.101C172.445 242.841 180.149 235.73 180.149 235.73L178.964 236.323H180.149L180.741 235.138C203.26 188.915 197.334 166.397 196.741 165.212V165.804C196.741 164.026 195.556 157.508 191.408 156.915C185.482 155.73 178.964 167.582 176.593 172.323L177.186 171.73C148.149 193.063 149.927 219.73 149.927 220.915L151.112 219.138C136.297 225.656 140.445 254.101 140.445 255.286L142.223 252.915C125.038 254.693 126.223 316.915 126.223 328.767L126.815 327.582C116.149 342.989 116.741 349.508 116.741 350.101V349.508C115.556 360.175 112.593 363.73 112.593 363.73V364.323V364.915C111.408 369.063 107.26 379.138 98.9636 385.064C90.0747 393.952 89.4821 402.249 89.4821 402.841V402.249C88.297 405.212 81.7784 409.952 73.4821 410.545C50.9636 411.138 27.2599 425.36 26.0747 425.952C17.1859 430.101 4.14882 429.508 3.55622 429.508H1.18585V431.878L0.593262 451.434V454.397L3.55622 452.619ZM3.55622 433.063C4.14882 433.063 18.371 434.249 28.4451 428.915C29.0377 428.915 52.7414 414.101 74.0747 414.101C82.9636 412.915 91.2599 408.175 93.6303 402.841V402.249V401.656C93.6303 401.656 94.2229 394.545 101.927 386.841C111.408 379.73 115.556 369.064 116.741 364.323L116.149 364.915C116.741 364.323 119.704 360.767 121.482 348.323C121.482 348.323 120.89 342.397 130.964 328.767L131.556 328.175V327.582C130.371 298.545 133.927 257.063 143.408 255.878H145.778L145.186 253.508C145.186 253.508 141.63 227.434 154.075 220.915L155.26 220.323V219.138C155.26 219.138 154.075 193.656 180.741 174.101L181.334 173.508V172.915C185.482 165.212 190.223 159.286 192.001 159.878C192.001 159.878 193.186 160.471 193.778 165.212C193.778 165.212 199.112 187.138 177.778 232.175V231.582C176.593 232.175 167.704 239.286 167.704 285.508C167.704 286.101 168.297 306.249 165.927 323.434C164.149 334.693 162.964 347.138 162.371 357.804C161.778 364.323 161.186 370.841 160.593 376.175C154.667 424.175 135.112 444.323 98.9636 440.767C98.371 440.767 47.4081 433.656 2.37104 448.471L5.334 450.841L5.92659 431.286L3.55622 433.063Z" fill="black"/>
<path d="M33.7791 443.137C49.7791 426.544 63.4087 425.359 63.4087 425.359C83.5568 418.841 91.8531 404.026 91.8531 404.026C86.5198 430.693 66.9642 433.656 66.9642 433.656C49.1865 438.396 39.1124 442.544 39.1124 442.544L33.7791 443.137Z" fill="black"/>
<path d="M169.482 297.359C151.111 314.544 139.26 368.47 139.26 368.47C133.926 386.248 120.297 404.618 120.297 404.618C133.334 393.359 140.445 375.581 140.445 375.581C152.889 340.026 168.297 310.396 168.297 310.396L169.482 297.359Z" fill="black"/>
<path d="M120.297 347.138C128.593 334.693 135.704 324.619 135.704 324.619C149.334 309.212 148.741 288.471 148.741 288.471C148.741 270.693 154.074 261.804 154.074 261.804C157.63 256.471 157.037 247.582 157.037 247.582C152.889 256.471 142.223 268.323 142.223 268.323C143.408 265.36 142.223 259.434 144 255.878C144 254.101 142.223 254.693 142.223 254.693C137.482 270.693 139.26 268.915 139.26 268.915C135.704 293.212 136.297 301.508 136.297 301.508C132.148 328.175 120.297 347.138 120.297 347.138Z" fill="black"/>
<path d="M178.963 172.323C182.518 198.99 162.963 226.842 162.963 226.842C165.926 211.434 171.259 194.249 171.259 194.249C173.63 182.99 172.444 178.842 172.444 178.842L178.963 172.323Z" fill="black"/>
<path d="M210.964 162.841C210.964 162.841 209.779 150.396 221.63 162.841C221.63 162.841 222.816 165.211 224.001 172.915C224.001 172.915 237.63 175.878 235.853 198.989C235.853 198.989 240.001 197.804 241.779 212.619C242.964 217.952 240.001 224.471 244.149 235.137C244.149 235.137 259.556 252.322 257.186 284.322C257.186 284.322 265.482 285.508 266.667 303.285C266.667 303.285 267.853 316.322 272.001 331.137C272.001 331.137 277.334 363.73 309.927 393.952C327.704 406.989 334.223 399.285 350.816 406.396C350.816 406.396 366.223 413.508 395.853 416.471V447.285C395.853 447.285 373.334 439.582 321.779 448.471C321.779 448.471 299.26 456.767 262.519 436.026C262.519 436.026 242.964 427.73 228.149 382.1C225.779 375.582 224.593 362.545 216.297 337.656C212.149 324.026 212.741 312.174 210.964 297.359C210.964 297.359 213.927 284.322 209.779 257.063C209.779 257.063 203.26 248.174 207.408 222.693C209.186 222.693 215.704 206.1 210.964 162.841Z" fill="white"/>
<path d="M212.741 162.841C212.741 161.656 212.741 159.878 213.334 159.878C213.334 159.878 215.112 159.878 219.853 164.619V164.026C219.853 164.026 221.038 166.397 221.63 173.508V175.286L223.408 175.878C224.001 175.878 234.667 178.841 233.482 199.582V202.545L236.445 201.36C235.853 201.36 235.853 201.36 235.853 201.36C235.853 201.36 238.223 202.545 240.001 213.211C240.593 214.989 240.593 216.767 240.001 219.137C240.001 223.286 239.408 228.619 242.371 236.323V236.915V237.508C242.371 237.508 257.186 254.1 254.815 284.915V286.693L256.593 287.286C256.593 287.286 263.112 289.063 264.297 304.471C264.297 305.063 265.482 317.508 269.63 332.323C269.63 333.508 274.964 366.1 308.741 396.915C319.408 405.211 327.112 405.211 333.63 405.804C338.371 406.397 343.112 406.397 349.63 409.36C350.223 409.36 366.223 416.471 395.26 419.434L393.482 417.063V447.878L396.445 446.1C395.26 445.508 372.741 438.397 321.778 446.693C321.778 446.693 299.26 454.397 264.297 434.248C264.297 434.248 245.334 425.36 231.704 381.508C230.519 379.137 229.927 375.582 228.741 370.841C226.964 363.73 224.593 352.471 219.26 337.063C216.297 326.989 215.704 318.693 215.112 308.619C215.112 305.063 214.519 301.508 214.519 297.36V297.952C214.519 297.36 218.075 284.323 213.927 257.063V256.471L213.334 255.878C213.334 255.878 207.408 246.989 211.556 223.286V223.878C211.556 223.286 218.075 206.1 212.741 162.841L208.593 163.434C213.334 205.508 206.815 222.1 206.815 222.1C202.667 248.174 209.186 257.656 209.778 257.656L209.186 256.471C213.334 282.545 210.371 295.582 210.371 295.582V296.174V296.767C210.964 300.915 210.964 304.471 210.964 308.026C211.556 318.1 212.149 326.989 215.112 337.656C220.445 353.063 222.815 363.73 224.593 371.434C225.778 376.174 226.371 379.73 227.556 382.1C241.778 428.323 261.927 437.211 263.112 437.211C299.853 457.952 322.964 450.248 324.149 449.656H323.556C353.778 444.323 378.075 444.323 396.445 448.471L399.408 449.063V446.1V415.286V413.508H397.63C368.593 410.545 353.186 403.434 353.186 403.434C346.075 400.471 340.741 399.878 335.408 399.878C328.297 399.286 322.371 399.286 312.297 391.582C280.297 361.952 274.964 329.952 274.964 329.952C270.815 315.73 270.223 302.693 270.223 302.693C268.445 283.73 258.964 281.952 258.964 281.952L260.741 284.323C263.112 251.73 247.704 234.545 247.112 233.952L247.704 234.545C245.334 228.026 245.334 223.286 245.334 219.137C245.334 216.767 245.334 214.397 244.741 212.026C243.556 203.73 241.778 198.989 238.815 197.211C237.038 196.026 235.853 196.619 235.853 196.619L238.815 198.989C240.001 174.1 225.778 171.137 225.186 171.137L226.964 172.915C225.778 165.211 224.593 162.248 224.593 161.656C221.63 158.1 216.89 153.952 213.334 155.73C209.778 156.915 210.371 162.248 210.371 163.434L212.741 162.841Z" fill="black"/>
<path d="M235.852 198.99C232.297 203.138 232.297 203.73 228.741 209.064C226.371 217.953 222.815 222.693 222.815 222.693C213.334 232.768 224.593 254.693 224.593 254.693C229.926 275.434 227.556 309.212 227.556 309.212C230.519 286.101 230.519 264.175 230.519 264.175C225.186 235.73 227.556 226.842 227.556 226.842C228.149 213.212 235.852 198.99 235.852 198.99Z" fill="black"/>
<path d="M257.187 284.322C251.853 309.804 248.89 316.915 248.89 316.915C237.038 341.804 254.816 356.026 254.816 356.026C274.964 376.174 299.261 391.582 299.261 391.582C317.038 404.619 320.594 414.693 320.594 414.693C327.705 425.359 346.075 429.507 346.075 429.507C325.335 417.656 322.964 402.248 322.964 402.248C309.927 395.137 296.298 379.73 296.298 379.73C300.446 385.063 306.964 393.952 306.964 393.952C291.557 384.47 273.779 368.47 273.779 368.47C250.668 344.174 256.001 309.211 256.001 309.211C258.964 297.952 258.964 287.878 258.964 287.878L257.187 284.322Z" fill="black"/>
<path d="M226.372 334.101C244.149 348.916 246.52 363.731 246.52 363.731C249.483 395.138 256.594 402.842 256.594 402.842C245.927 397.508 242.964 376.175 242.964 376.175C241.779 360.768 226.372 334.101 226.372 334.101Z" fill="black"/>
<path d="M265.482 378.545C269.037 383.879 270.815 382.101 276.741 396.916C282.074 427.138 307.556 431.286 307.556 431.286C267.852 428.916 269.63 401.064 269.63 401.064C272.593 387.434 265.482 378.545 265.482 378.545Z" fill="black"/>
<path d="M210.964 160.471H194.964V164.619H210.964V160.471Z" fill="black"/>
<path d="M336.592 116.026C250.666 84.619 123.851 92.9153 65.7774 115.434L64.5922 114.841C64.5922 114.841 57.4811 106.545 59.8514 94.693C125.629 68.0264 253.037 61.5079 343.111 95.8782C343.703 108.323 336.592 116.026 336.592 116.026Z" fill="black"/>
<path d="M58.6661 97.0617C50.3698 100.025 48.5921 91.7284 54.518 89.358C138.074 59.1358 260.74 61.5061 341.925 88.7654C351.407 91.7283 348.444 100.617 338.962 97.0617C258.37 69.8024 146.37 68.0246 58.6661 97.0617Z" fill="#FFD400"/>
<path d="M58.6663 95.877C55.7033 97.0622 53.9255 96.4696 53.3329 94.6918C52.7404 93.5066 53.3329 91.7289 55.7033 90.5437C95.407 76.3215 146.37 68.6178 199.703 69.2103C251.851 69.2103 302.222 76.914 341.926 90.5437C344.889 91.7289 346.666 93.5066 346.666 94.6918C346.666 95.2844 346.666 95.877 346.074 96.4696C344.889 97.0622 343.111 97.6548 340.148 96.4696C255.407 67.4326 142.222 67.4326 58.6663 95.877ZM59.2589 98.84C142.222 70.3955 254.814 70.3955 338.963 98.84C342.518 100.025 346.074 100.025 347.851 98.2474C349.037 97.0622 349.629 95.2844 349.629 93.5066C349.037 90.5437 346.666 88.7659 342.518 86.9881C302.222 73.3585 251.259 65.6548 199.111 65.6548C145.185 65.6548 93.6292 73.3585 53.9255 87.5807C49.7774 89.3585 48.5922 92.914 49.7774 95.2844C50.9626 98.84 54.5181 100.618 59.2589 98.84Z" fill="black"/>
<path d="M65.7778 120.173C57.4815 123.136 56.2963 114.84 62.2223 112.469C145.778 82.247 258.37 85.21 339.556 112.469C349.037 115.432 346.074 124.321 336.593 120.766C250.667 92.9137 155.259 91.1359 65.7778 120.173Z" fill="#FFD400"/>
<path d="M65.185 118.395C62.8146 119.581 60.4442 118.988 59.8516 117.803C59.259 116.618 60.4442 114.247 62.222 113.655C142.222 85.2102 253.037 85.2102 338.37 113.655C341.333 114.84 343.111 116.025 343.111 117.21C343.111 117.803 343.111 118.395 342.518 118.988C341.333 119.581 339.555 120.173 336.592 118.988C248.889 90.5435 152.889 90.5435 65.185 118.395ZM66.3701 121.358C152.889 93.5065 248.889 93.5065 336 121.358C339.555 122.544 343.111 122.544 344.889 120.766C346.074 119.581 346.666 117.803 346.666 116.025C346.074 113.655 343.703 111.284 340.148 110.099C254.222 81.062 142.222 81.062 61.6294 110.099C57.4812 111.877 56.2961 115.432 57.4812 118.395C58.0738 121.358 61.6294 123.136 66.3701 121.358Z" fill="black"/>
<path d="M70.518 107.136C73.7908 107.136 76.4439 104.483 76.4439 101.21C76.4439 97.9376 73.7908 95.2844 70.518 95.2844C67.2452 95.2844 64.592 97.9376 64.592 101.21C64.592 104.483 67.2452 107.136 70.518 107.136Z" fill="#FFD400"/>
<path d="M85.9259 102.989C89.1987 102.989 91.8519 100.335 91.8519 97.0626C91.8519 93.7898 89.1987 91.1367 85.9259 91.1367C82.6531 91.1367 80 93.7898 80 97.0626C80 100.335 82.6531 102.989 85.9259 102.989Z" fill="#FFD400"/>
<path d="M101.926 99.4324C105.198 99.4324 107.852 96.7793 107.852 93.5065C107.852 90.2337 105.198 87.5806 101.926 87.5806C98.6529 87.5806 95.9998 90.2337 95.9998 93.5065C95.9998 96.7793 98.6529 99.4324 101.926 99.4324Z" fill="#FFD400"/>
<path d="M117.925 96.4693C121.198 96.4693 123.851 93.8162 123.851 90.5434C123.851 87.2706 121.198 84.6174 117.925 84.6174C114.653 84.6174 112 87.2706 112 90.5434C112 93.8162 114.653 96.4693 117.925 96.4693Z" fill="#FFD400"/>
<path d="M133.333 93.5064C136.606 93.5064 139.259 90.8533 139.259 87.5805C139.259 84.3077 136.606 81.6545 133.333 81.6545C130.061 81.6545 127.407 84.3077 127.407 87.5805C127.407 90.8533 130.061 93.5064 133.333 93.5064Z" fill="#FFD400"/>
<path d="M149.925 91.7283C153.198 91.7283 155.851 89.0752 155.851 85.8024C155.851 82.5296 153.198 79.8765 149.925 79.8765C146.652 79.8765 143.999 82.5296 143.999 85.8024C143.999 89.0752 146.652 91.7283 149.925 91.7283Z" fill="#FFD400"/>
<path d="M166.518 90.5435C169.791 90.5435 172.444 87.8904 172.444 84.6176C172.444 81.3448 169.791 78.6917 166.518 78.6917C163.245 78.6917 160.592 81.3448 160.592 84.6176C160.592 87.8904 163.245 90.5435 166.518 90.5435Z" fill="#FFD400"/>
<path d="M184.296 89.9517C187.568 89.9517 190.221 87.2986 190.221 84.0258C190.221 80.753 187.568 78.0999 184.296 78.0999C181.023 78.0999 178.37 80.753 178.37 84.0258C178.37 87.2986 181.023 89.9517 184.296 89.9517Z" fill="#FFD400"/>
<path d="M200.295 89.3584C203.568 89.3584 206.221 86.7053 206.221 83.4325C206.221 80.1597 203.568 77.5066 200.295 77.5066C197.022 77.5066 194.369 80.1597 194.369 83.4325C194.369 86.7053 197.022 89.3584 200.295 89.3584Z" fill="#FFD400"/>
<path d="M216.296 89.9517C219.569 89.9517 222.222 87.2986 222.222 84.0258C222.222 80.753 219.569 78.0999 216.296 78.0999C213.023 78.0999 210.37 80.753 210.37 84.0258C210.37 87.2986 213.023 89.9517 216.296 89.9517Z" fill="#FFD400"/>
<path d="M232.296 90.5435C235.569 90.5435 238.222 87.8904 238.222 84.6176C238.222 81.3448 235.569 78.6917 232.296 78.6917C229.023 78.6917 226.37 81.3448 226.37 84.6176C226.37 87.8904 229.023 90.5435 232.296 90.5435Z" fill="#FFD400"/>
<path d="M248.889 92.3216C252.162 92.3216 254.815 89.6685 254.815 86.3957C254.815 83.1229 252.162 80.4697 248.889 80.4697C245.616 80.4697 242.963 83.1229 242.963 86.3957C242.963 89.6685 245.616 92.3216 248.889 92.3216Z" fill="#FFD400"/>
<path d="M266.074 94.0997C269.346 94.0997 271.999 91.4465 271.999 88.1737C271.999 84.9009 269.346 82.2478 266.074 82.2478C262.801 82.2478 260.148 84.9009 260.148 88.1737C260.148 91.4465 262.801 94.0997 266.074 94.0997Z" fill="#FFD400"/>
<path d="M282.666 97.0625C285.939 97.0625 288.592 94.4094 288.592 91.1366C288.592 87.8638 285.939 85.2107 282.666 85.2107C279.394 85.2107 276.74 87.8638 276.74 91.1366C276.74 94.4094 279.394 97.0625 282.666 97.0625Z" fill="#FFD400"/>
<path d="M298.666 100.025C301.939 100.025 304.592 97.3723 304.592 94.0995C304.592 90.8267 301.939 88.1736 298.666 88.1736C295.393 88.1736 292.74 90.8267 292.74 94.0995C292.74 97.3723 295.393 100.025 298.666 100.025Z" fill="#FFD400"/>
<path d="M314.074 103.58C317.347 103.58 320 100.927 320 97.6542C320 94.3814 317.347 91.7283 314.074 91.7283C310.801 91.7283 308.148 94.3814 308.148 97.6542C308.148 100.927 310.801 103.58 314.074 103.58Z" fill="#FFD400"/>
<path d="M330.666 107.73C333.938 107.73 336.591 105.076 336.591 101.804C336.591 98.5308 333.938 95.8777 330.666 95.8777C327.393 95.8777 324.74 98.5308 324.74 101.804C324.74 105.076 327.393 107.73 330.666 107.73Z" fill="#FFD400"/>
<path d="M201.481 571.73C200.889 570.545 186.074 537.359 124.444 542.1C123.852 542.1 63.4074 546.248 29.037 514.841C14.2222 500.619 5.92593 481.063 5.92593 456.767V121.359L2.96296 124.322H396.444L393.481 121.359V457.359C393.481 481.063 385.778 499.434 371.556 513.063C340.741 542.1 286.815 539.137 286.222 539.137C253.037 538.545 228.148 543.285 211.556 553.952C199.111 562.248 196.148 571.137 196.148 572.322L201.481 571.73ZM202.074 573.508C202.074 573.508 211.556 543.285 285.63 545.063C288 545.063 342.519 548.619 375.704 517.804C391.704 502.989 400 482.248 400 457.359V121.359V118.396H397.037H2.96296H0V121.359V456.767C0 482.841 8.2963 504.174 24.8889 519.582C61.037 552.767 122.074 548.619 125.037 548.619C181.926 544.471 195.556 573.508 196.148 574.693L199.704 582.989C199.704 582.396 202.074 573.508 202.074 573.508Z" fill="black"/>
</g>
<defs>
<clipPath id="clip0">
<rect y="0.19043" width="400" height="582.8" fill="white"/>
</clipPath>
</defs>
</svg>
