<svg width="400" height="502" viewBox="0 0 400 502" fill="none" xmlns="http://www.w3.org/2000/svg">
<g clip-path="url(#clip0)">
<path fill-rule="evenodd" clip-rule="evenodd" d="M397.007 0.19043C398.66 0.19043 400 1.53023 400 3.18295V396.244C400 423.572 391.844 440.72 378.605 451.173C365.539 461.49 348.059 464.833 330.378 465.854C320.606 466.419 311.317 466.627 302.374 466.795C301.364 466.814 300.359 466.832 299.359 466.851C291.48 466.995 283.871 467.135 276.363 467.487C259.466 468.279 243.226 470.145 226.167 475.51C217.027 478.385 211.591 482.334 208.279 486.432C204.965 490.533 203.578 495.032 202.963 499.365C202.753 500.84 201.49 501.936 200 501.936C198.51 501.936 197.247 500.84 197.037 499.365C196.422 495.032 195.035 490.533 191.721 486.432C188.409 482.334 182.973 478.385 173.833 475.51C156.774 470.145 140.534 468.279 123.637 467.487C116.129 467.135 108.52 466.995 100.641 466.851C99.6406 466.832 98.6359 466.814 97.6264 466.795C88.6831 466.627 79.3945 466.419 69.6218 465.854C51.9415 464.833 34.4614 461.49 21.3952 451.173C8.15561 440.72 0 423.572 0 396.244V3.18295C0 1.53023 1.3398 0.19043 2.99252 0.19043H397.007Z" fill="black"/>
<path fill-rule="evenodd" clip-rule="evenodd" d="M397.008 3.18286V396.244C397.008 449.652 365.256 460.843 330.206 462.867C291.365 465.109 260.07 461.71 225.27 472.655C206.119 478.678 201.329 489.591 200 498.943C198.671 489.591 193.881 478.678 174.73 472.655C139.93 461.71 108.635 465.109 69.7943 462.867C34.7441 460.843 2.99255 449.652 2.99255 396.244V3.18286H200H397.008Z" fill="#0085CA"/>
<path fill-rule="evenodd" clip-rule="evenodd" d="M180.084 228.852C181.326 191.635 177.234 173.433 167.739 153.354C162.297 141.844 149.578 130.481 137.689 126.82C122.999 122.297 107.207 124.615 95.0995 128.534C67.9816 137.312 54.284 159.458 50.7728 182.135C49.2907 198.819 49.4817 224.034 55.206 236.649C59.1171 244.852 64.0041 246.368 68.5905 243.666C70.9842 245.961 74.5013 249.437 78.8562 245.615C82.6227 250.32 86.9581 250.7 89.3819 247.954C92.415 251.986 99.2987 251.84 98.4781 246.785C96.3053 233.4 94.0847 210.028 98.738 190.128C103.052 171.679 113.945 153.602 135.123 154.523C159.976 155.604 174.637 187.473 173.067 229.372L180.084 228.852Z" fill="white" stroke="black" stroke-width="1.5"/>
<path fill-rule="evenodd" clip-rule="evenodd" d="M7.25598 313.902L61.4435 320.205L82.6897 305.521C83.9142 302.537 85.1366 298.393 85.5666 295.056C86.0938 290.964 86.185 284.215 83.9242 280.701C83.291 279.717 81.1702 276.492 73.6585 273.424C57.0863 266.656 48.3234 264.656 20.7054 262.054C17.3201 261.735 12.0692 268.27 8.03566 278.882C4.74188 287.548 3.39961 301.465 7.25598 313.902V313.902Z" fill="#FFCC00" stroke="black" stroke-width="1.5"/>
<path fill-rule="evenodd" clip-rule="evenodd" d="M97.9584 302.922C101.16 283.015 107.978 270.284 116.931 259.26C131.543 241.265 148.439 233.165 164.751 229.372C186.115 224.404 209.465 228.864 229.204 240.547C247.425 251.333 263.843 271.274 283.262 272.254C309.43 273.575 314.52 234.228 306.132 217.157C299.1 202.846 289.543 181.751 279.103 161.54C267.682 164.047 256.643 162.453 245.837 156.082C237.564 151.205 232.392 140.623 231.543 132.432C240.701 138.338 250.51 138.788 260.911 129.313C268.512 122.389 275.88 125.236 283.002 125.675C287.3 117.829 293.338 107.488 305.872 110.601C315.041 112.879 321.055 105.553 326.924 94.7478C327.675 108.002 328.711 121.087 321.726 134.511C315.636 146.214 304.134 152.766 306.132 156.862C315.22 175.492 329.832 182.429 344.596 198.185C372.005 227.435 365.877 271.254 342.517 301.882L205.814 334.628L97.9584 302.922Z" fill="black" stroke="black"/>
<path d="M68.5906 243.666C60.6439 230.752 61.7238 213.082 62.0933 198.965" stroke="black" stroke-width="1.5" stroke-linecap="round" stroke-linejoin="round"/>
<path d="M78.8562 245.615C72.6691 235.869 72.5152 215.858 73.7233 200.784" stroke="black" stroke-width="1.5" stroke-linecap="round" stroke-linejoin="round"/>
<path d="M89.3819 247.954C81.9458 234.155 84.0108 217.85 84.5089 203.383" stroke="black" stroke-width="1.5" stroke-linecap="round" stroke-linejoin="round"/>
<path d="M4.72192 302.402C10.2594 304.956 16.1051 306.959 21.8099 308.119" stroke="black" stroke-width="1.5"/>
<path d="M4.6571 294.865C13.4136 298.65 25.9957 302.27 34.0899 304.416" stroke="black" stroke-width="1.5"/>
<path d="M6.21643 285.769C23.8033 290.187 41.3967 294.605 58.5847 299.023" stroke="black" stroke-width="1.5"/>
<path d="M9.0752 276.153C26.5202 279.626 44.5593 283.711 70.02 292.006" stroke="black" stroke-width="1.5"/>
<path d="M73.1386 285.899C40.1595 275.015 27.3959 272.891 11.6741 270.305" stroke="black" stroke-width="1.5"/>
<path d="M14.5979 265.822C38.5718 267.831 60.0132 273.601 76.3873 281.221" stroke="black" stroke-width="1.5"/>
<path fill-rule="evenodd" clip-rule="evenodd" d="M35.6492 263.678C26.504 272.937 18.5992 291.786 19.6008 309.419L13.8299 311.303C11.8403 290.281 19.5288 271.423 28.9686 262.898L35.6492 263.678Z" fill="#FFCC00" stroke="black" stroke-width="1.5"/>
<path fill-rule="evenodd" clip-rule="evenodd" d="M49.5477 300.778L55.9857 299.608C55.4859 293.001 62.2548 280.1 70.0199 272.189L64.887 270.24C58.4971 274.977 50.267 289.702 49.5477 300.778Z" fill="#FFCC00" stroke="black" stroke-width="1.5"/>
<path d="M68.1357 298.179C69.2964 290.991 76.7428 276.825 81.3253 277.842" stroke="black" stroke-width="1.5"/>
<path fill-rule="evenodd" clip-rule="evenodd" d="M74.375 322.884C44.8039 322.884 21.7522 332.929 2.99255 340.007V315.069C21.7522 307.992 44.8039 297.946 74.375 297.946C124.938 297.946 146.731 325.876 200 325.876C253.269 325.876 275.062 297.946 325.625 297.946C355.196 297.946 378.248 307.992 397.008 315.069V340.007C378.248 332.929 355.196 322.884 325.625 322.884C275.062 322.884 253.269 350.814 200 350.814C146.731 350.814 124.938 322.884 74.375 322.884Z" fill="white"/>
<path fill-rule="evenodd" clip-rule="evenodd" d="M74.375 372.759C44.8039 372.759 21.7522 382.805 2.99255 389.882V364.945C21.7522 357.867 44.8039 347.821 74.375 347.821C124.938 347.821 146.731 375.751 200 375.751C253.269 375.751 275.062 347.821 325.625 347.821C355.196 347.821 378.248 357.867 397.008 364.945V389.882C378.248 382.805 355.196 372.759 325.625 372.759C275.062 372.759 253.269 400.689 200 400.689C146.731 400.689 124.938 372.759 74.375 372.759Z" fill="white"/>
<path fill-rule="evenodd" clip-rule="evenodd" d="M325.625 422.634C350.571 422.634 370.878 429.784 387.882 436.269C392.079 428.94 394.244 421.612 395.59 414.283C377.089 407.245 354.455 397.697 325.625 397.697C275.062 397.697 253.269 425.627 200 425.627C146.731 425.627 124.938 397.697 74.375 397.697C45.5446 397.697 22.9111 407.245 4.4104 414.283C5.75609 421.612 7.92108 428.94 12.1179 436.269C29.1221 429.784 49.4287 422.634 74.375 422.634C124.938 422.634 146.731 450.565 200 450.565C253.269 450.565 275.062 422.634 325.625 422.634Z" fill="white"/>
</g>
<defs>
<clipPath id="clip0">
<rect y="0.19043" width="400" height="501.75" fill="white"/>
</clipPath>
</defs>
</svg>
