<svg width="400" height="547" viewBox="0 0 400 547" fill="none" xmlns="http://www.w3.org/2000/svg">
<g clip-path="url(#clip0)">
<path d="M107.221 109.356C156.071 70.5778 239.948 68.5256 293.301 109.26L107.221 109.356Z" fill="black" stroke="black"/>
<path d="M66.267 70.0541L59.8747 75.5941L44.2211 57.8721L54.6726 49.4738L59.737 56.2686L70.2801 48.2707L65.1038 41.7524L77.134 33.9826L81.3202 40.8388L92.3024 34.4959L88.1775 27.7151L100.172 22.0385L109.834 43.1826L102.879 46.6344L107.769 56.8745L118.791 51.25L123.917 63.3261L137.167 58.2251L132.342 45.2541C135.485 44.1792 140.862 43.2757 144.5 42.3626L140.844 31.5742L133.55 33.5478C131.391 26.1612 128.265 19.6666 125.729 11.8785L145.67 6.13833L146.735 14.6066L162.022 11.6547L160.424 2.8539L177.335 0.899647L177.969 8.90299L191.252 8.27668L191.239 0.460567L210.1 0.19043L210.144 8.24547L222.934 9.23673L223.537 1.32663L240.487 3.51133L239.282 11.4968L253.821 13.6815L255.554 6.6377L274.613 11.3084C272.161 18.6597 270.56 25.8639 267.231 34.3984L258.906 31.9877L256.758 42.2474L268.318 44.8043L264.199 57.963L277.088 62.9257L282.199 51.2649C285.814 52.9337 289.36 54.7737 292.594 56.4551L298.415 47.0417L290.987 43.5372C293.492 36.2251 296.941 28.9779 300.449 21.2668L312.156 26.7826L308.113 34.8624L320.179 41.6659L324.308 34.3216L335.555 41.8487L330.541 48.4385L340.846 56.4467L345.953 49.8817L355.827 58.5387L340.605 75.9137L334.212 71.1727L299.481 114.214C240.918 65.7126 150.681 70.2259 101.372 114.268L66.267 70.0541Z" fill="#C8AA3C" stroke="black" stroke-width="0.9"/>
<path d="M99.8268 111.711C153.757 62.4155 250.354 66.1218 301.131 111.466" stroke="black"/>
<path d="M94.4999 105.851C158.526 53.856 249.314 57.2842 305.66 106.384" stroke="black"/>
<path d="M91.7299 102.016C151.833 50.2662 251.238 49.6807 308.856 102.335" stroke="black" stroke-width="1.7"/>
<path d="M87.483 97.1519C156.308 41.7153 250.873 44.5054 312.808 97.5286" stroke="black"/>
<path d="M100.971 75.2099C121.82 62.4715 150.003 51.5311 187.13 47.4226" stroke="black"/>
<path d="M187.527 56.6221C188.11 41.876 190.702 35.795 200.183 35.6038C211.683 35.3719 211.199 41.6306 211.709 56.4714C212.197 43.0086 216.525 27.8928 200.108 28.1457C184.752 28.3823 187.366 43.1865 187.527 56.6221Z" fill="black" stroke="black"/>
<path d="M98.6299 88.3604C94.9874 81.4503 83.8108 67.8377 88.0826 64.9775C93.7995 61.1498 101.645 77.222 105.803 83.8798C102.457 77.5831 93.1504 56.4928 85.8614 61.0501C79.0437 65.3128 95.001 82.2516 98.6299 88.3604V88.3604Z" fill="black" stroke="black" stroke-width="0.526116"/>
<path d="M299.337 74.5174C278.489 61.7791 249.667 51.3245 212.54 47.2161" stroke="black"/>
<path d="M81.2891 89.0712C83.6858 86.6001 90.1841 81.3236 92.7953 79.749" stroke="black"/>
<path d="M301.815 88.3604C305.458 81.4503 316.634 67.8377 312.362 64.9775C306.646 61.1498 298.8 77.222 294.642 83.8798C297.988 77.5831 307.295 56.4928 314.584 61.0501C321.401 65.3128 305.444 82.2516 301.815 88.3604Z" fill="black" stroke="black" stroke-width="0.526116"/>
<path d="M319.385 89.0482C316.988 86.5772 310.49 81.3006 307.878 79.7261" stroke="black"/>
<path d="M144.946 42.2533C183.036 32.3595 219.577 33.2854 256.759 42.2331" stroke="black"/>
<path d="M141.046 31.7995C180.989 19.5414 219.133 20.6069 258.774 32.2515" stroke="black" stroke-width="1.5"/>
<path d="M292.664 56.387C299.645 60.0825 302.963 62.5556 306.41 64.906" stroke="black"/>
<path d="M313.79 70.1003L326.654 80.0016" stroke="black"/>
<path d="M107.996 56.6938C104.336 58.5987 97.9946 62.7022 94.6666 65.19" stroke="black"/>
<path d="M86.2513 70.416L74.3491 79.8721" stroke="black"/>
<path d="M66.6007 70.2305C78.3125 59.5234 89.5961 52.7572 103.107 46.9207" stroke="black" stroke-width="1.5"/>
<path d="M122.414 87.301L126.389 93.0828" stroke="black"/>
<path d="M153.852 74.7256L156.237 81.5914" stroke="black"/>
<path d="M183.483 69.0884L184.567 76.5324" stroke="black"/>
<path d="M217.09 68.8716L216.801 76.8215" stroke="black"/>
<path d="M246.143 74.5811L244.481 81.6637" stroke="black"/>
<path d="M277.437 87.1562L274.257 93.2271" stroke="black"/>
<path d="M294.782 90.9868L291.819 95.4677" stroke="black"/>
<path d="M264.356 75.2314L262.766 79.9291" stroke="black"/>
<path d="M231.906 66.053V71.0397" stroke="black"/>
<path d="M200.323 63.3066V68.2211" stroke="black"/>
<path d="M167.873 66.4866L168.74 71.2565" stroke="black"/>
<path d="M136.001 75.8096L138.53 80.0736" stroke="black"/>
<path d="M106.08 91.4204L108.899 95.1063" stroke="black"/>
<path d="M148.287 55.2122L150.817 63.5957" stroke="black"/>
<path d="M180.109 48.5593L181.121 57.4488" stroke="black"/>
<path d="M219.475 48.1294L218.246 57.1634" stroke="black"/>
<path d="M252.214 54.9954L249.829 63.3066" stroke="black"/>
<path d="M287.338 68.1487L282.496 76.4599" stroke="black"/>
<path d="M237.832 38.5894L235.302 50.442" stroke="black"/>
<path d="M220.993 25.0024L220.342 35.6264" stroke="black"/>
<path d="M298.337 47.2849C311.132 52.6237 325.052 62.1814 334.022 71.3736" stroke="black" stroke-width="1.5"/>
<path d="M113.436 68.7886L117.88 76.5857" stroke="black"/>
<path d="M162.667 38.6172L165.454 50.5953" stroke="black"/>
<path d="M179.542 24.4543L180.295 36.0558" stroke="black"/>
<path d="M294.276 34.2478C312.477 42.4966 329.937 53.6268 346.332 68.9016" stroke="black"/>
<path d="M296.31 29.2756C317.472 38.3014 334.956 50.5151 350.098 64.7581" stroke="black" stroke-width="0.8"/>
<path d="M308.137 34.6997L305.501 39.5211" stroke="black"/>
<path d="M320.191 41.6306L317.215 46.5274" stroke="black"/>
<path d="M330.549 48.4858L326.933 53.0436" stroke="black"/>
<path d="M340.945 56.4336L337.292 60.9536" stroke="black"/>
<path d="M105.314 34.2478C87.1128 42.4966 69.6525 53.6268 53.2579 68.9016" stroke="black"/>
<path d="M103.657 29.5393C82.4943 38.5651 65.0104 50.7788 49.8679 65.0218" stroke="black"/>
<path d="M92.2435 34.3606L94.8802 39.182" stroke="black"/>
<path d="M81.1694 40.5005L84.1451 45.3972" stroke="black"/>
<path d="M69.8691 47.8833L73.4852 52.441" stroke="black"/>
<path d="M59.473 56.1323L63.1267 60.6524" stroke="black"/>
<path d="M0 130.888L32.4943 109.527L367.719 109.58L400 130.888C384.019 141.168 374.143 153.592 374.164 168.709L374.507 413.104C374.695 547.602 215.978 469.226 199.894 546.941C180.344 470.812 25.8335 546.244 25.709 412.049L25.483 168.569C25.4649 149.079 13.8643 139.271 0 130.888Z" fill="#CC3D14" stroke="black" stroke-width="1.5"/>
<path d="M103.984 364.03C146.22 358.162 190.223 360.246 233.929 360.995L189.41 389.325L103.984 364.03Z" fill="#B3B3B3"/>
<path d="M48.624 340.469C53.1766 342.687 57.3075 345.466 62.9339 346.251C64.5264 356.743 72.1807 374.24 84.3986 385.206L74.7865 386.796C62.1448 372.461 52.6863 354.555 48.624 340.469Z" fill="#B3B3B3" stroke="black" stroke-width="0.7"/>
<path d="M163.745 511.442C186.119 500.867 208.661 496.971 235.44 510.828L247.44 507.81C211.483 486.781 182.39 491.692 153.65 508.755L163.745 511.442V511.442Z" fill="#B3B3B3" stroke="black" stroke-width="0.5"/>
<path d="M26.8071 422.891L27.392 429.069C54.2969 428.864 64.4336 418.612 86.5791 418.377C105.589 418.176 123.989 428.899 142.628 428.924C160.548 428.948 180.682 419.761 199.731 418.679C222.04 417.412 235.872 429.621 256.684 429.376C276.678 429.144 289.989 418.558 313.185 418.829C334.944 419.084 354.075 429.551 372.842 429.786L373.698 421.126C355.883 423.583 332.057 410.809 313.034 411.296C291.583 411.846 277.761 421.521 256.533 421.692C235.915 421.859 218.97 411.254 199.731 411.447C183.154 411.613 165.781 421.48 142.929 421.692C120.707 421.899 106.079 410.389 87.1818 411.145C69.0182 411.873 55.6685 420.343 26.8071 422.891V422.891Z" fill="#B3B3B3" stroke="black" stroke-width="0.5"/>
<path d="M31.8582 448.59L34.0692 454.659C60.07 452.044 67.4469 443.75 86.579 443.817C105.59 443.884 123.989 454.339 142.628 454.364C160.548 454.388 180.682 445.2 199.731 444.118C222.04 442.852 235.872 455.061 256.684 454.816C276.678 454.584 289.989 443.998 313.185 444.269C334.944 444.524 347.365 455.738 366.131 455.973L369.3 447.566C351.485 450.023 332.057 436.248 313.034 436.736C291.583 437.285 277.761 446.96 256.533 447.132C235.915 447.298 218.97 436.694 199.731 436.886C183.154 437.052 165.781 446.92 142.929 447.132C120.706 447.338 106.079 435.828 87.1817 436.585C69.0182 437.312 56.6515 444.384 31.8582 448.59V448.59Z" fill="#B3B3B3" stroke="black" stroke-width="0.5"/>
<path d="M160.03 473.221C161.384 470.223 173.061 465.802 179.997 465.018C184.981 459.653 186.941 458.866 189.493 458.388C192.056 457.907 194.402 462.354 195.286 463.842C197.129 462.222 199.196 460.246 200.923 460.145C204.422 459.942 210.554 462.516 212.716 463.759C213.761 464.36 213.98 466.146 214.165 467.169C215.37 466.706 216.776 465.442 218.328 465.688C221.099 466.128 223.694 467.781 224.064 470.283C226.768 472.719 233.401 471.962 239.131 471.94C237.35 474.255 236.291 477.015 232.05 477.816C233.688 481.071 232.965 483.82 231.824 486.48C228.502 481.521 225.05 476.742 219.167 475.33C218.124 476.231 217.637 477.208 216.477 477.365C213.993 477.7 211.268 478.005 207.913 478.598C207.002 478.759 205.844 477.226 204.784 476.736C203.438 476.113 205.225 477.384 203.873 479.457C202.875 480.989 198.377 483.924 196.774 483.972C195.489 484.011 194.122 482.178 193.293 479.841L186.456 480.631C188.367 481.31 190.017 483.011 189.467 483.796C187.692 486.33 186.878 485.329 180.672 480.83C175.164 480.319 165.875 479.113 162.151 476.631C161.104 475.934 164.276 476.09 164.252 475.26C164.233 474.62 159.608 474.155 160.03 473.221V473.221Z" fill="#B3B3B3" stroke="black" stroke-width="0.5"/>
<path d="M180.059 465.009C198 462.877 211.964 466.399 225.345 471.112" stroke="black" stroke-width="0.5"/>
<path d="M179.872 480.713C201.812 480.92 205.767 472.335 218.977 475.275" stroke="black" stroke-width="0.5"/>
<path d="M178.559 480.521C182.42 481.032 183.423 475.697 183.407 471.652" stroke="black" stroke-width="0.4" stroke-linecap="round"/>
<path d="M183.406 469.655C199.468 468.404 211.438 470.121 223.359 473.783" stroke="black" stroke-width="0.4" stroke-linecap="round"/>
<path d="M172.247 470.107C173.489 470.675 174.067 469.939 173.711 468.855C176.895 470.526 172.731 473.62 172.247 470.107Z" fill="black"/>
<path d="M59.375 354.222C88.5234 361.838 120.22 367.251 142.828 368.326C143.89 374.512 149.377 376.905 154.071 379.978L74.604 374.868C70.0395 367.681 68.1015 372.72 59.375 354.222Z" fill="#B3B3B3" stroke="black" stroke-width="0.6"/>
<path d="M162.083 481.263C165.311 483.147 166.779 481.097 167.789 478.626L168.788 478.984C166.525 483.269 164.295 483.34 162.083 481.263Z" fill="black"/>
<path d="M254.844 480.174C257.84 471.001 270.608 466.608 275.388 466.072C277.898 462.348 282.645 460.224 284.32 460.204C287.481 460.167 287.031 462.466 288.05 464.571C290.403 461.644 291.097 459.74 292.77 459.848C303.716 460.552 302.13 462.776 304.22 465.462C306.249 462.739 308.456 463.567 312.576 464.489C314.497 464.919 314.273 466.05 315.03 467.044C321.288 467.982 325.51 464.133 330.285 462.524C329.741 465.687 329.791 468.869 325.577 470.886C327.486 473.25 327.089 475.742 325.389 478.306C322.777 475.259 318.948 473.318 314.126 472.279C312.711 472.67 313.114 474.385 311.898 474.94C309.266 476.141 303.909 476.846 301.192 477.629C300.087 477.947 298.799 476.756 297.138 475.782C296.499 476.59 297.616 477.018 296.547 478.559C295.071 480.687 291.395 484.109 288.391 485.499C286.838 486.218 284.673 484.879 282.109 482.299C281.221 482.279 279.933 482.993 277.508 483.459C282.504 486.749 283.227 488.145 279.041 488.382C276.864 488.505 274.849 486.2 272.956 484.295C267.937 485.31 261.343 485.757 257.136 483.09C256.204 482.499 259.598 482.33 259.607 481.05C259.612 480.186 254.374 481.61 254.844 480.174V480.174Z" fill="#B3B3B3" stroke="black" stroke-width="0.5"/>
<path d="M275.405 466.064C282.996 464.421 296.788 464.411 315.2 467.081" stroke="black" stroke-width="0.5"/>
<path d="M272.805 484.295C297.164 480.174 295.794 471.057 314.143 472.275" stroke="black" stroke-width="0.6"/>
<path d="M271.977 484.521C271.977 484.521 276.863 479.521 273.471 474.321" stroke="black" stroke-width="0.4" stroke-linecap="round"/>
<path d="M263.431 475.526C264.848 475.276 264.282 473.526 262.986 473.706C265.74 470.408 267.833 477.571 263.431 475.526Z" fill="black"/>
<path d="M274.657 471.919C290.233 473.34 292.45 466.988 315.568 469.788" stroke="black" stroke-width="0.4" stroke-linecap="round"/>
<path d="M262.852 489.343C260.393 487.991 261.119 486.294 262.292 484.637L261.602 484.345C259.768 487.553 260.667 488.733 262.852 489.343Z" fill="black"/>
<path d="M69.2501 472.558C69.2501 470.291 63.0445 471.39 64.9693 468.464C67.1536 465.142 74.6485 461.621 79.5844 460.945C82.1887 457.859 84.4507 454.679 86.317 455.064C93.894 456.626 92.1809 458.508 93.2257 460.152C94.0158 458.518 95.4377 457.221 97.0228 457.385C101.228 457.822 107.711 459.31 110.952 461.591C112.506 462.684 111.411 463.752 112.012 465.127C116.06 462.207 121.64 466.601 125.404 469.095C126.673 469.936 126.021 470.937 127.101 471.812C132.931 476.537 139.973 475.214 145.745 473.836C144.383 476.232 143.885 478.735 140.418 480.868C141.725 483.569 141.536 486.769 141.164 490.03C136.755 484.178 130.55 479.972 122.733 477.245C121.099 480.691 114.636 479.444 110.632 480.02C109.166 480.231 108.635 477.854 108.422 476.93C107.86 476.943 107.892 478.1 106.36 478.833C103.318 480.289 98.5745 481.466 94.7397 482.792C92.4739 483.575 92.2706 481.422 91.4177 477.435C90.0743 477.436 88.1728 477.222 85.9443 477.184C86.972 479.963 87.5451 483.47 86.1337 482.81C83.9666 481.797 83.1371 479.985 81.5021 476.5C77.3849 475.195 67.7172 475.544 69.2501 472.558V472.558V472.558Z" fill="#B3B3B3" stroke="black" stroke-width="0.5"/>
<path d="M79.4912 460.932C109.538 458.209 110.841 468.432 130.27 473.796" stroke="black" stroke-width="0.5"/>
<path d="M80.9694 476.353C95.7134 479.248 115.786 475.053 122.506 477.166" stroke="black" stroke-width="0.5"/>
<path d="M83.3867 465.066C107.428 465.21 109.895 471.109 127.256 475.835" stroke="black" stroke-width="0.4" stroke-linecap="round"/>
<path d="M82.3389 466.006C84.9964 468.083 84.2775 476.719 80.5682 476.196" stroke="black" stroke-width="0.4" stroke-linecap="round"/>
<path d="M74.1292 467.171C75.5918 467.36 75.6695 465.935 74.705 465.556C78.1353 464.775 76.3531 470.071 74.1292 467.171Z" fill="black"/>
<path d="M73.058 474.988L73.9511 475.334C73.8619 476.445 73.2085 478.934 70.9058 479.838C72.9721 478.209 73.2582 476.288 73.058 474.988Z" fill="black"/>
<path d="M146.098 207.451C232.63 257.411 149.613 354.687 116.458 365.669C266.415 372.636 238.248 352.235 298.388 345.432C296.451 332.333 351.371 269.422 231.544 182.819L146.098 207.451V207.451Z" fill="#BFBFBF" stroke="black" stroke-width="0.7"/>
<path d="M265.069 352.535C265.069 352.535 292.947 351.831 287.656 339.657C286.2 336.305 263.995 345.534 263.995 345.534C263.368 347.333 263.678 351.695 265.069 352.535V352.535Z" fill="#B3B3B3" stroke="black" stroke-width="0.5"/>
<path d="M135.06 206.122L231.646 178.322C234.771 177.423 235.541 181.708 233.486 182.308L135.878 210.824C132.772 211.731 130.633 207.396 135.06 206.122V206.122Z" fill="#B3B3B3" stroke="black" stroke-width="0.7"/>
<path d="M296.445 333.965C294.689 337.792 294.901 343.339 296.445 346.468L309.815 339.169L296.445 333.965Z" fill="#B3B3B3" stroke="black" stroke-width="0.5"/>
<path d="M329.46 313.032L321.181 316.098C318.588 339.455 300.58 362.896 276.925 382.738L283.67 384.475C315.252 356.86 326.395 332.389 329.46 313.032V313.032Z" fill="#B3B3B3" stroke="black" stroke-width="0.7"/>
<path d="M214.416 358.249L218.608 353.045L223.667 352.9L230.46 358.971C226.349 363.679 222.07 367.713 216.439 366.343L219.475 357.381C217.532 364.076 215.984 360.907 214.416 358.249Z" fill="#B3B3B3" stroke="black" stroke-width="0.5"/>
<path d="M189.026 380.796L180.031 160.844C179.94 158.598 182.95 158.688 183.098 161.048L196.589 377.116L189.026 380.796Z" fill="#B3B3B3" stroke="black" stroke-width="0.6"/>
<path d="M62.1132 359.703C101.236 371.381 155.329 381.226 209.095 372.896C212.532 372.363 218.702 367.396 221.999 362.717C223.398 360.731 222.541 357.711 225.661 357.145C260.072 350.904 293.591 342.234 322.075 326.53C309.637 349.856 293.035 377.192 262.002 393.674C260.128 406.232 218.454 390.639 196.18 388.768L143.85 398.58L79.1522 385.702C72.3021 376.099 66.5063 369.439 62.1132 359.703V359.703Z" fill="#B3B3B3" stroke="black" stroke-width="0.6"/>
<path d="M52.3252 350.995C35.702 358.017 35.531 379.892 46.4558 377.906C51.1339 377.056 50.6992 371.615 47.2272 369.606C43.6618 367.544 43.6696 362.358 54.4846 355.849L52.3252 350.995V350.995Z" fill="#B3B3B3" stroke="black" stroke-width="0.7"/>
<path d="M127.19 345.585L127.139 351.641L123.919 351.717L125.555 351.717L126.321 356.726C116.184 354.479 122.267 354.136 120.035 352.944C117.881 348.224 124.501 348.07 127.19 345.585H127.19Z" fill="#B3B3B3" stroke="black" stroke-width="0.5"/>
<path d="M320.921 327.169C322.362 326.655 322.895 325.304 323.257 324.002C324.088 321.015 324.31 317.031 324.732 314.974" stroke="black" stroke-width="0.5"/>
<path d="M55.1284 343.794C60.2273 357.955 67.5779 371.694 78.8336 384.7" stroke="black" stroke-width="0.5"/>
<path d="M74.642 379.424C131.622 393.292 224.908 395.725 285.817 376.989" stroke="black" stroke-width="0.5"/>
<path d="M298.491 363.318C216.632 391.936 117.026 385.8 66.7693 368.402" stroke="black" stroke-width="0.5"/>
<path d="M26.4506 395.018C52.4487 393.84 66.0124 383.869 89.434 384.573C107.604 385.119 122.018 394.494 144.033 394.669C177.467 394.934 181.969 372.46 241.014 392.463C242.817 393.073 244.918 397.431 248.247 394.873C244.273 398.28 236.999 387.671 246.89 387.49C254.605 387.349 253.938 398.87 259.848 394.421C254.707 398.689 249.286 386.15 260.149 386.134C265.857 386.126 270.045 398.182 276.12 392.915C271.068 397.847 258.374 385.528 276.12 380.258C283.38 378.103 287.426 385.57 310.788 383.904C338.605 381.92 351.433 396.098 373.722 394.795L373.71 400.9C355.616 403.433 337.616 390.645 311.829 390.827C287.759 390.997 279.002 401.783 257.437 401.503C237.68 401.246 221.771 392.162 199.73 391.935C180.099 391.733 165.4 402.049 142.326 401.653C119.744 401.261 107.212 390.427 86.7284 391.179C58.3175 392.01 47.2797 402.131 26.4451 401.804L26.4506 395.018H26.4506H26.4506Z" fill="#B3B3B3" stroke="black" stroke-width="0.5"/>
<path d="M309.58 348.191C281.416 362.243 247.586 368.114 209.143 372.97" stroke="black" stroke-width="0.5"/>
<path d="M221.413 363.369C264.226 358.667 288.772 349.079 316.173 337.255" stroke="black" stroke-width="0.5"/>
<path d="M115.845 352.382C116.446 353.205 119.972 352.819 122.263 349.899C126.104 345.003 127.581 346.55 129.387 344.461C125.803 343.515 124.372 342.481 121.211 343.337C119.013 344.675 118.407 347.015 118.4 348.703C118.397 349.483 116.836 351.355 115.845 352.382V352.382Z" fill="#B3B3B3" stroke="black" stroke-width="0.5"/>
<path d="M137.717 367.918L180.525 173.817" stroke="black" stroke-width="0.5"/>
<path d="M150.596 308.841L138.228 210.415" stroke="black" stroke-width="0.5"/>
<path d="M223.008 348.546L271.201 250.992L201.802 273.273" stroke="black" stroke-width="0.3"/>
<path d="M267.93 274.091L281.222 286.062" stroke="black" stroke-width="0.3"/>
<path d="M288.474 268.367L281.294 286.049L280.093 310.988" stroke="black" stroke-width="0.3"/>
<path d="M254.745 208.473C258.09 211.686 259.634 216.781 257.812 222.169" stroke="black" stroke-width="0.4" stroke-linecap="round"/>
<path d="M247.526 210.789C250.871 214.001 252.415 218.895 250.372 223.549" stroke="black" stroke-width="0.4" stroke-linecap="round"/>
<path d="M240.519 212.862C244.541 215.895 244.916 221.649 242.751 225.481" stroke="black" stroke-width="0.4" stroke-linecap="round"/>
<path d="M232.384 214.554C235.508 217.105 236.004 223.891 233.508 227.228" stroke="black" stroke-width="0.4" stroke-linecap="round"/>
<path d="M225.057 216.398C228.28 219.786 227.677 225.048 226.149 228.25" stroke="black" stroke-width="0.4" stroke-linecap="round"/>
<path d="M218.074 218.541C220.257 220.988 220.927 227.599 218.634 230.282" stroke="black" stroke-width="0.4" stroke-linecap="round"/>
<path d="M210.818 220.278C212.907 222.146 213.334 230.205 211.319 231.799" stroke="black" stroke-width="0.4" stroke-linecap="round"/>
<path d="M203.561 222.22C205.814 224.877 205.537 231.068 204.018 233.067" stroke="black" stroke-width="0.4" stroke-linecap="round"/>
<path d="M190.785 225.388C192.29 228.499 191.892 232.776 190.785 235.2" stroke="black" stroke-width="0.4" stroke-linecap="round"/>
<path d="M197.936 224.009C199.515 226.678 199.606 231.47 198.058 233.968" stroke="black" stroke-width="0.4" stroke-linecap="round"/>
<path d="M133.936 206.378C138.201 205.05 138.04 210.589 135.469 210.875" stroke="black" stroke-width="0.5"/>
<path d="M185.011 200.574C186.353 199.928 184.327 197.702 188.008 198.698C190.115 199.268 190.811 204.734 183.866 205.464C178.91 205.985 175.995 200.59 178.944 199.356C182.505 197.866 181.122 200.273 181.688 200.493C182.72 200.894 184.205 200.941 185.011 200.574Z" fill="#B3B3B3" stroke="black" stroke-width="0.5"/>
<path d="M45.6282 375.113C51.8616 373.842 70.3569 370.784 90.0898 367.245C115.962 362.603 140.86 359.688 140.554 358.104C140.165 356.091 116.032 359.978 89.5772 364.915C70.5886 368.458 52.2082 371.413 44.857 372.925C43.2949 373.246 43.8144 375.483 45.6282 375.113V375.113Z" fill="#B3B3B3" stroke="black" stroke-width="0.5"/>
<path d="M198.298 378.398C190.969 378.058 193.583 385.068 196.862 385.236C202.741 385.538 216.092 369.57 219.169 366.962C219.861 366.377 218.374 365.907 217.944 366.266C214.822 368.871 200.385 387.094 198.298 378.398Z" fill="#B3B3B3" stroke="black" stroke-width="0.5"/>
<path d="M207.315 372.234C208.556 371.611 208.926 373.669 209.45 375.461C209.906 377.017 211.456 377.604 210.122 378.82C207 381.664 203.898 373.951 207.315 372.234Z" fill="#B3B3B3" stroke="black" stroke-width="0.5"/>
<path d="M202.926 357.697L205.686 362.501L207.934 356.164C213.553 354.391 217.435 358.563 218.257 361.683C219.053 364.705 217.346 367.447 215.218 369.884L211.616 368.628C213.67 365.834 215.373 362.626 212.125 359.332C215.364 362.578 213.707 365.895 211.611 368.632L214.98 369.884L208.343 371.699L203.233 362.603L209.33 373.529C207.166 373.696 206.389 374.458 205.534 375.187C202.829 370.051 196.919 362.14 202.926 357.697Z" fill="#B3B3B3" stroke="black" stroke-width="0.5"/>
<path d="M212.453 369.024C211.45 370.636 209.803 373.249 210.551 374.031C212.694 375.935 215.853 372.251 214.722 370.11C214.398 369.603 213.377 369.293 212.453 369.024Z" fill="#B3B3B3" stroke="black" stroke-width="0.403505"/>
<path d="M128.371 361.752C127.616 360.586 129.622 359.995 131.346 359.279C132.843 358.656 133.259 357.052 134.612 358.245C137.779 361.039 130.449 364.963 128.371 361.752V361.752Z" fill="#B3B3B3" stroke="black" stroke-width="0.5"/>
<path d="M127.689 360.055C129.77 359.867 131.952 362.52 131.012 364.17C127.701 367.212 120.472 372.062 118.8 369.74C115.621 365.323 114.484 353.26 118.307 352.798C123.408 352.182 125.373 354.622 126.329 355.922L125.992 352.972C129.168 352.616 129.212 355.202 129.563 358.236C126.658 358.647 124.91 358.962 121.898 359.472C121.564 360.788 123.013 363.086 120.976 364.212C122.616 363.011 121.916 360.658 121.375 356.869C122.103 360.551 122.463 362.903 121.089 364.302L127.689 360.055V360.055Z" fill="#B3B3B3" stroke="black" stroke-width="0.5"/>
<path d="M312.273 334.464L322.373 341.52C325.138 343.452 312.809 349.192 320.851 340.69L312.273 334.464V334.464Z" fill="black" stroke="black"/>
<path d="M312.724 335.301C313.977 334.398 313.152 333.23 312.583 332.025C311.933 325.826 305.417 337.592 312.724 335.301Z" fill="#B3B3B3" stroke="black" stroke-width="0.55069"/>
<path d="M280.652 314.555C279.208 314.639 279.484 313.21 279.52 311.914C279.551 310.788 278.178 310.007 279.901 309.564C283.934 308.527 284.627 314.325 280.652 314.555Z" fill="#B3B3B3" stroke="black" stroke-width="0.528968"/>
<path d="M262.673 345.328C268.494 346.534 272.857 344.843 276.876 343.059C280.431 341.481 277.404 333.614 277.331 328.039C282.229 323.948 282.85 318.914 283.204 313.703C281.883 314.31 280.484 314.412 279.067 314.399C278.498 321.962 274.588 328.062 264.359 330.559L262.673 345.328Z" fill="#B3B3B3" stroke="black" stroke-width="0.511473"/>
<path d="M180.236 338.584L181.871 205.407L156.932 342.979" stroke="black" stroke-width="0.5"/>
<path d="M201.7 354.017C202.689 357.621 204.966 360.067 206.299 359.434C207.273 358.972 208.59 356.244 206.912 352.382L201.7 354.017Z" fill="#B3B3B3" stroke="black" stroke-width="0.5"/>
<path d="M198.546 355.031C205.864 356.422 207.275 354.401 210.27 353.318C209.958 352.242 209.05 351.692 207.109 352.056C205.818 349.273 204.453 348.823 203.236 349.351C201.268 350.205 201.668 352.998 198.546 355.031V355.031Z" fill="#B3B3B3" stroke="black" stroke-width="0.5"/>
<path d="M248.511 337.051C251.031 334.869 253.442 332.504 255.154 328.977" stroke="black" stroke-width="0.4" stroke-linecap="round"/>
<path d="M257.708 330.802C258.741 329.775 257.617 329.129 256.742 328.384C255.982 327.736 256.4 326.246 254.942 327.267C251.528 329.658 254.863 333.631 257.708 330.802V330.802Z" fill="#B3B3B3" stroke="black" stroke-width="0.5"/>
<path d="M255.352 332.094C256.538 331.437 257.549 331.01 258.131 329.535C258.131 329.535 261.791 334.612 262.324 332.861C262.69 331.66 263.491 326.353 264.469 326.977C268.05 329.26 267.299 338.062 262.958 337.824C258.418 337.575 256.911 333.748 255.352 332.094V332.094Z" fill="#B3B3B3" stroke="black" stroke-width="0.488664"/>
<path d="M264.274 323.792L261.56 329.462C267.462 330.668 272.514 329.68 275.567 323.544L264.274 323.792Z" fill="#B3B3B3" stroke="black" stroke-width="0.5"/>
<path d="M263.525 322.365C263.958 320.054 264.089 316.536 266.415 316.403C268.15 316.304 269.639 319.238 270.643 321.137L273.751 320.414C273.89 321.199 272.928 323.958 267.283 324.678C262.551 325.281 260.292 324.399 260.092 322.943L263.525 322.365Z" fill="#B3B3B3" stroke="black" stroke-width="0.5"/>
<path d="M216.248 351.242L218.824 351.508C219.66 350.234 219.722 347.608 221.453 347.68C222.762 347.734 223.403 349.882 224.132 351.383L226.548 350.875C226.46 351.613 226.05 353.911 221.41 353.852C217.488 353.802 216.231 352.488 216.248 351.242V351.242Z" fill="#B3B3B3" stroke="black" stroke-width="0.5"/>
<path d="M311.26 312.573C310.81 316.138 308.548 317.664 306.635 319.583C297.094 309.919 307.223 314.918 311.26 312.573Z" fill="#B3B3B3" stroke="black" stroke-width="0.5"/>
<path d="M307.819 304.069C309.002 304.467 309.105 303.236 309.377 302.168C309.613 301.239 310.938 300.915 309.606 300.159C306.489 298.389 304.562 302.972 307.819 304.069Z" fill="#B3B3B3" stroke="black" stroke-width="0.453272"/>
<path d="M308.836 304.111L305.651 302.75C302.415 309.423 301.288 314.861 301.07 321.245C303.327 320.309 304.22 315.452 305.156 312.564C306.213 309.301 307.684 308.061 308.836 304.111Z" fill="#B3B3B3" stroke="black" stroke-width="0.5"/>
<path d="M293.409 331.941C295.533 334.047 299.259 335.352 302.877 336.711C305.797 335.616 307.208 334.45 309.02 333.17C305.846 328.739 304.376 324.885 307.069 320.812C304.281 324.911 305.839 328.725 309.02 333.315L313.067 331.652C312.416 326.272 313.785 317.084 308.225 316.837L304.973 316.692C301.819 316.552 296.016 325.783 293.409 331.941Z" fill="#B3B3B3" stroke="black" stroke-width="0.5"/>
<path d="M302.515 313.223C301.222 315.934 317.049 313.675 313.139 312.067C311.578 311.425 309.683 308.175 307.502 307.73C305.493 307.321 303.666 310.81 302.515 313.223Z" fill="#B3B3B3" stroke="black" stroke-width="0.5"/>
<path d="M156.871 348.784C158.535 349.082 158.407 347.177 158.539 345.476C158.653 343.999 160.352 343.157 158.411 342.352C153.868 340.465 152.286 347.962 156.871 348.784H156.871Z" fill="#B3B3B3" stroke="black" stroke-width="0.53045"/>
<path d="M158.874 347.374C156.967 348.259 155.544 347.932 154.173 347.476C155.027 354.946 156.902 358.941 161.838 360.967C162.162 358.664 162.147 355.054 162.145 353.302C159.238 352.46 159.601 350.231 158.874 347.374V347.374Z" fill="#B3B3B3" stroke="black" stroke-width="0.5"/>
<path d="M179.403 343.843C177.738 344.141 177.867 342.236 177.735 340.535C177.621 339.057 175.922 338.216 177.862 337.41C182.405 335.524 183.987 343.02 179.403 343.843H179.403Z" fill="#B3B3B3" stroke="black" stroke-width="0.53045"/>
<path d="M177.988 343.337C179.589 343.507 181.318 342.77 182.689 342.314C182.96 350.193 180.369 358.072 175.432 360.099C175.109 357.795 175.328 353.572 175.33 351.82C178.238 350.978 178.386 346.194 177.988 343.337H177.988Z" fill="#B3B3B3" stroke="black" stroke-width="0.5"/>
<path d="M162.145 352.791C168.557 351.192 168.485 353.873 168.584 356.061C170.274 353.891 171.434 351.265 175.228 351.462L175.943 371.291L168.38 368.838L161.021 369.962L162.145 352.791V352.791Z" fill="#B3B3B3" stroke="black" stroke-width="0.5"/>
<path d="M168.584 357.901L168.073 368.633" stroke="black" stroke-width="0.4"/>
<path d="M165.416 346.454C165.416 346.454 165.43 351.976 168.789 353.506C171.935 354.939 172.972 347.462 172.468 346.454H165.416Z" fill="#B3B3B3" stroke="black" stroke-width="0.5"/>
<path d="M166.015 345.802C166.73 344.056 167.358 341.331 169.4 341.531C170.923 341.681 171.789 344.164 172.385 345.776L175.193 345.619C175.199 346.25 173.96 348.275 168.946 348.097C164.743 347.948 162.908 346.964 162.946 345.803L166.015 345.802V345.802Z" fill="#B3B3B3" stroke="black" stroke-width="0.417484"/>
<path d="M162.043 369.962L181.871 205.202L174.41 372.006" stroke="black" stroke-width="0.5"/>
<path d="M150.545 375.328C152.018 372.769 155.327 370.545 159.794 368.531C162.351 371.407 165.687 371.693 169.606 369.042C175.835 374.996 181.102 369.738 182.996 367.815C184.941 370.075 185.614 373.648 184.631 375.532C173.807 376.048 161.146 376.029 150.545 375.328Z" fill="#B3B3B3" stroke="black" stroke-width="0.5"/>
<path d="M144.617 315.587C148.16 313.177 154.088 303.265 155.757 304.6C156.55 305.234 152.803 307.845 150.596 308.892C148.713 308.688 146.614 308.918 144.974 308.228C142.863 307.339 147.988 306.235 150.647 308.483" stroke="black" stroke-width="0.4"/>
<path d="M202.491 273.293C202.491 273.465 202.428 273.631 202.316 273.753C202.205 273.875 202.053 273.943 201.895 273.943C201.737 273.943 201.585 273.875 201.473 273.753C201.361 273.631 201.299 273.465 201.299 273.293C201.299 273.12 201.361 272.955 201.473 272.833C201.585 272.711 201.737 272.642 201.895 272.642C202.053 272.642 202.205 272.711 202.316 272.833C202.428 272.955 202.491 273.12 202.491 273.293Z" fill="black"/>
<path d="M211.435 270.366C211.435 270.538 211.372 270.704 211.26 270.826C211.148 270.948 210.997 271.016 210.838 271.016C210.68 271.016 210.529 270.948 210.417 270.826C210.305 270.704 210.242 270.538 210.242 270.366C210.242 270.193 210.305 270.028 210.417 269.906C210.529 269.784 210.68 269.715 210.838 269.715C210.997 269.715 211.148 269.784 211.26 269.906C211.372 270.028 211.435 270.193 211.435 270.366Z" fill="black"/>
<path d="M219.746 267.728C219.746 267.9 219.683 268.066 219.571 268.188C219.459 268.31 219.308 268.378 219.15 268.378C218.992 268.378 218.84 268.31 218.728 268.188C218.616 268.066 218.553 267.9 218.553 267.728C218.553 267.555 218.616 267.39 218.728 267.268C218.84 267.146 218.992 267.077 219.15 267.077C219.308 267.077 219.459 267.146 219.571 267.268C219.683 267.39 219.746 267.555 219.746 267.728Z" fill="black"/>
<path d="M227.913 265.018C227.913 265.19 227.85 265.356 227.738 265.478C227.626 265.6 227.475 265.668 227.316 265.668C227.158 265.668 227.007 265.6 226.895 265.478C226.783 265.356 226.72 265.19 226.72 265.018C226.72 264.845 226.783 264.68 226.895 264.558C227.007 264.436 227.158 264.367 227.316 264.367C227.475 264.367 227.626 264.436 227.738 264.558C227.85 264.68 227.913 264.845 227.913 265.018Z" fill="black"/>
<path d="M235.393 262.705C235.393 262.877 235.33 263.043 235.218 263.165C235.106 263.287 234.955 263.355 234.797 263.355C234.638 263.355 234.487 263.287 234.375 263.165C234.263 263.043 234.2 262.877 234.2 262.705C234.2 262.532 234.263 262.367 234.375 262.245C234.487 262.123 234.638 262.054 234.797 262.054C234.955 262.054 235.106 262.123 235.218 262.245C235.33 262.367 235.393 262.532 235.393 262.705Z" fill="black"/>
<path d="M243.776 259.995C243.776 260.167 243.714 260.333 243.602 260.455C243.49 260.577 243.338 260.645 243.18 260.645C243.022 260.645 242.87 260.577 242.759 260.455C242.647 260.333 242.584 260.167 242.584 259.995C242.584 259.822 242.647 259.657 242.759 259.535C242.87 259.413 243.022 259.344 243.18 259.344C243.338 259.344 243.49 259.413 243.602 259.535C243.714 259.657 243.776 259.822 243.776 259.995Z" fill="black"/>
<path d="M253.244 256.959C253.244 257.132 253.181 257.297 253.069 257.419C252.958 257.541 252.806 257.61 252.648 257.61C252.49 257.61 252.338 257.541 252.226 257.419C252.114 257.297 252.052 257.132 252.052 256.959C252.052 256.787 252.114 256.621 252.226 256.499C252.338 256.377 252.49 256.309 252.648 256.309C252.806 256.309 252.958 256.377 253.069 256.499C253.181 256.621 253.244 256.787 253.244 256.959Z" fill="black"/>
<path d="M261.302 254.43C261.302 254.602 261.24 254.768 261.128 254.89C261.016 255.012 260.864 255.08 260.706 255.08C260.548 255.08 260.396 255.012 260.285 254.89C260.173 254.768 260.11 254.602 260.11 254.43C260.11 254.257 260.173 254.092 260.285 253.97C260.396 253.848 260.548 253.779 260.706 253.779C260.864 253.779 261.016 253.848 261.128 253.97C261.24 254.092 261.302 254.257 261.302 254.43Z" fill="black"/>
<path d="M271.71 251.033C271.71 251.206 271.647 251.371 271.535 251.493C271.423 251.615 271.271 251.683 271.113 251.683C270.955 251.683 270.804 251.615 270.692 251.493C270.58 251.371 270.517 251.206 270.517 251.033C270.517 250.861 270.58 250.695 270.692 250.573C270.804 250.451 270.955 250.383 271.113 250.383C271.271 250.383 271.423 250.451 271.535 250.573C271.647 250.695 271.71 250.861 271.71 251.033Z" fill="black"/>
<path d="M268.692 274.232C268.692 274.405 268.629 274.57 268.517 274.692C268.406 274.814 268.254 274.883 268.096 274.883C267.938 274.883 267.786 274.814 267.674 274.692C267.562 274.57 267.5 274.405 267.5 274.232C267.5 274.06 267.562 273.895 267.674 273.773C267.786 273.651 267.938 273.582 268.096 273.582C268.254 273.582 268.406 273.651 268.517 273.773C268.629 273.895 268.692 274.06 268.692 274.232Z" fill="black"/>
<path d="M289.127 268.45C289.127 268.623 289.064 268.788 288.952 268.91C288.841 269.032 288.689 269.101 288.531 269.101C288.373 269.101 288.221 269.032 288.109 268.91C287.997 268.788 287.935 268.623 287.935 268.45C287.935 268.278 287.997 268.113 288.109 267.991C288.221 267.869 288.373 267.8 288.531 267.8C288.689 267.8 288.841 267.869 288.952 267.991C289.064 268.113 289.127 268.278 289.127 268.45Z" fill="black"/>
<path d="M26.5339 389.324C40.6916 389.8 56.874 382.052 69.3858 380.139L65.4096 374.743C54.4623 376.447 40.8669 382.839 26.5701 382.625L26.5339 389.324V389.324Z" fill="#B3B3B3" stroke="black" stroke-width="0.5"/>
<path d="M288.596 380.071C288.596 380.071 305.217 378.133 314.8 377.768C335.578 376.974 346.032 387.615 373.601 388.559V381.226C345.685 380.253 342.116 370.666 314.246 370.435C308.75 370.389 297.348 371.637 297.348 371.637L288.596 380.071V380.071Z" fill="#B3B3B3" stroke="black" stroke-width="0.5"/>
<path d="M180.42 174.223C181.543 174.394 182.693 174.427 183.954 173.911" stroke="black" stroke-width="0.4"/>
<path d="M180.342 173.439C181.465 173.61 182.615 173.643 183.876 173.127" stroke="black" stroke-width="0.4"/>
</g>
<defs>
<clipPath id="clip0">
<rect y="0.19043" width="400" height="546.75" fill="white"/>
</clipPath>
</defs>
</svg>
