<svg width="400" height="523" viewBox="0 0 400 523" fill="none" xmlns="http://www.w3.org/2000/svg">
<g clip-path="url(#clip0)">
<path d="M199.709 522.007C121.895 465.553 68.561 394.252 36.6483 304.063C7.70906 222.292 -3.90222 123.193 1.14434 1.11175L1.16528 0.630127H398.839L398.86 1.11175C403.896 123.193 392.284 222.281 363.356 304.063C331.443 394.252 278.109 465.553 200.295 522.007L200.002 522.217L199.709 522.007Z" fill="#32AC60"/>
<path fill-rule="evenodd" clip-rule="evenodd" d="M252.436 218.7C285.668 130.469 345.368 51.6403 398.598 0.19043C266.047 0.19043 133.496 0.19043 0.945374 0.19043C54.1751 51.6403 113.875 130.469 147.107 218.7C185.25 319.956 193.427 433.033 199.772 521.578C206.106 433.033 214.294 319.956 252.436 218.7Z" fill="#B4B7B9"/>
</g>
<defs>
<clipPath id="clip0">
<rect y="0.19043" width="400" height="522.03" fill="white"/>
</clipPath>
</defs>
</svg>
