<svg width="400" height="522" viewBox="0 0 400 522" fill="none" xmlns="http://www.w3.org/2000/svg">
<g clip-path="url(#clip0)">
<rect y="0.19043" width="400" height="521.59" fill="white"/>
<path d="M199.709 521.568C121.895 465.113 68.561 393.812 36.6483 303.623C7.70906 221.852 -3.90222 122.753 1.14434 0.672055L1.16528 0.19043H398.839L398.86 0.672055C403.896 122.753 392.284 221.841 363.356 303.623C331.443 393.812 278.109 465.113 200.295 521.568L200.002 521.777L199.709 521.568Z" fill="#0085CA"/>
<path fill-rule="evenodd" clip-rule="evenodd" d="M210.65 225.244H282.265C282.443 260.644 278.245 294.922 263.22 328.437C253.263 350.665 237.097 374.966 206.661 399.937V414.072H218.293V465.438C218.293 477.374 208.305 484.399 199.782 484.399C191.249 484.399 181.271 477.374 181.271 465.438V414.072H192.903V399.937C162.446 374.966 146.291 350.665 136.323 328.437C121.309 294.922 117.1 260.644 117.289 225.244H188.904V100.452L104.965 65.7121L210.65 27.1614V225.244Z" fill="white"/>
<path fill-rule="evenodd" clip-rule="evenodd" d="M191.951 464.37V423.421H199.772H207.593V464.37C207.593 469.961 204.588 472.777 199.772 472.913C194.955 472.788 191.951 469.971 191.951 464.37Z" fill="#0085CA"/>
</g>
<defs>
<clipPath id="clip0">
<rect y="0.19043" width="400" height="521.59" fill="white"/>
</clipPath>
</defs>
</svg>
