<svg width="400" height="523" viewBox="0 0 400 523" fill="none" xmlns="http://www.w3.org/2000/svg">
<g clip-path="url(#clip0)">
<path d="M199.709 521.992C121.895 465.537 68.561 394.236 36.6483 304.047C7.70906 222.276 -3.90222 123.177 1.14434 1.09637L1.16528 0.614746H398.839L398.86 1.09637C403.896 123.177 392.284 222.266 363.356 304.047C331.443 394.236 278.109 465.537 200.295 521.992L200.002 522.201L199.709 521.992Z" fill="#0085CA"/>
<mask id="mask0" mask-type="alpha" maskUnits="userSpaceOnUse" x="1" y="33" width="398" height="376">
<path fill-rule="evenodd" clip-rule="evenodd" d="M179.851 33.4175L151.446 39.1132C149.98 143.96 145.279 194.928 89.9655 242.243C70.1247 259.215 43.468 266.052 23.9623 268.313H1.07471V408.34H87.3584C114.057 408.643 137.29 398.477 150.985 385.986C174.731 364.334 179.851 336.536 179.851 307.995V33.4175Z" fill="#B4B7B9"/>
<path fill-rule="evenodd" clip-rule="evenodd" d="M220.149 33.4175L248.554 39.1132C250.02 143.96 254.721 194.928 310.034 242.243C329.875 259.215 356.532 266.052 376.038 268.313H398.925V408.34H312.641C285.943 408.643 262.71 398.477 249.015 385.986C225.269 364.334 220.149 336.536 220.149 307.995V33.4175Z" fill="#B4B7B9"/>
</mask>
<g mask="url(#mask0)">
<path d="M200.291 521.992C278.104 465.537 331.439 394.236 363.352 304.047C392.291 222.276 403.902 123.177 398.856 1.09637L398.835 0.614746H1.16112L1.14019 1.09637C-3.89591 123.177 7.71539 222.266 36.6441 304.047C68.5568 394.236 121.891 465.537 199.705 521.992L199.998 522.201L200.291 521.992Z" fill="#C6C6C6"/>
</g>
</g>
<defs>
<clipPath id="clip0">
<rect y="0.614746" width="400" height="521.59" fill="white"/>
</clipPath>
</defs>
</svg>
