<svg width="400" height="523" viewBox="0 0 400 523" fill="none" xmlns="http://www.w3.org/2000/svg">
<g clip-path="url(#clip0)">
<path d="M199.709 521.992C121.895 465.537 68.561 394.236 36.6483 304.047C7.70906 222.276 -3.90222 123.177 1.14434 1.09637L1.16528 0.614746H398.839L398.86 1.09637C403.896 123.177 392.284 222.266 363.356 304.047C331.443 394.236 278.109 465.537 200.295 521.992L200.002 522.201L199.709 521.992Z" fill="#0085CA"/>
<mask id="mask0" mask-type="alpha" maskUnits="userSpaceOnUse" x="0" y="129" width="400" height="170">
<path fill-rule="evenodd" clip-rule="evenodd" d="M227.517 242.821L255.263 298.312L283.009 242.821L310.754 298.312L338.5 242.821L366.246 294.271H400V181.268H391.677L366.246 129.745L338.5 185.236L310.754 129.745L283.009 185.236L255.263 129.745L227.517 185.236L199.772 129.745L172.026 185.236L144.28 129.745L116.535 185.236L88.7892 129.745L61.0435 185.236L33.2979 129.745L7.86615 181.268H0V294.271H33.2979L61.0435 242.821L88.7892 298.312L116.535 242.821L144.28 298.312L172.026 242.821L199.772 298.312L227.517 242.821Z" fill="#C4C4C4"/>
</mask>
<g mask="url(#mask0)">
<path d="M199.709 521.992C121.895 465.537 68.561 394.236 36.6483 304.047C7.70906 222.276 -3.90222 123.177 1.14434 1.09637L1.16528 0.614746H398.839L398.86 1.09637C403.896 123.177 392.284 222.266 363.356 304.047C331.443 394.236 278.109 465.537 200.295 521.992L200.002 522.201L199.709 521.992Z" fill="#FFE000"/>
</g>
</g>
<defs>
<clipPath id="clip0">
<rect y="0.614746" width="400" height="521.59" fill="white"/>
</clipPath>
</defs>
</svg>
