<svg width="400" height="523" viewBox="0 0 400 523" fill="none" xmlns="http://www.w3.org/2000/svg">
<g clip-path="url(#clip0)">
<path d="M200.291 521.992C278.105 465.537 331.439 394.236 363.352 304.047C392.291 222.276 403.902 123.177 398.856 1.09637L398.835 0.614746H1.16126L1.14031 1.09637C-3.89578 123.177 7.71551 222.266 36.6443 304.047C68.557 394.236 121.891 465.537 199.705 521.992L199.998 522.201L200.291 521.992Z" fill="#0085CA"/>
<path d="M269.048 403.754H239.323L211.672 305.21L215.326 449.204C205.045 449.204 194.763 449.204 184.481 449.204L188.135 305.21L160.484 403.754H130.76L199.904 236.306L269.048 403.754Z" fill="#C6C6C6"/>
<path d="M180.053 199.588H150.328L122.677 101.044L126.331 245.038C116.049 245.038 105.768 245.038 95.486 245.038L99.14 101.044L71.4886 199.588H41.7642L110.908 32.1401L180.053 199.588Z" fill="#C6C6C6"/>
<path d="M358.043 199.588H328.319L300.668 101.044L304.322 245.038C294.04 245.038 283.758 245.038 273.477 245.038L277.131 101.044L249.479 199.588H219.755L288.899 32.1401L358.043 199.588Z" fill="#C6C6C6"/>
</g>
<defs>
<clipPath id="clip0">
<rect y="0.614746" width="400" height="521.59" fill="white"/>
</clipPath>
</defs>
</svg>
