<svg width="400" height="523" viewBox="0 0 400 523" fill="none" xmlns="http://www.w3.org/2000/svg">
<g clip-path="url(#clip0)">
<path d="M199.77 522.25C121.981 465.813 68.6629 394.534 36.76 304.372C7.82967 222.627 -3.77804 123.558 1.26697 1.51468L1.28791 1.0332H398.839L398.86 1.51468C403.895 123.558 392.287 222.616 363.367 304.372C331.464 394.534 278.146 465.813 200.357 522.25L200.064 522.459L199.77 522.25Z" fill="#FFE000"/>
<mask id="mask0" mask-type="alpha" maskUnits="userSpaceOnUse" x="0" y="0" width="400" height="356">
<path fill-rule="evenodd" clip-rule="evenodd" d="M172.619 214.902L0 0.614746V354.613H57.746L172.619 214.902Z" fill="#0085CA"/>
<path fill-rule="evenodd" clip-rule="evenodd" d="M227.381 215.321L400 1.0332V355.032H342.254L227.381 215.321Z" fill="#0085CA"/>
</mask>
<g mask="url(#mask0)">
<path d="M199.77 522.25C121.981 465.813 68.6629 394.534 36.76 304.372C7.82967 222.627 -3.77804 123.558 1.26697 1.51468L1.28791 1.0332H398.839L398.86 1.51468C403.895 123.558 392.287 222.616 363.367 304.372C331.464 394.534 278.146 465.813 200.357 522.25L200.064 522.459L199.77 522.25Z" fill="#0085CA"/>
</g>
</g>
<defs>
<clipPath id="clip0">
<rect y="0.614746" width="400" height="521.84" fill="white"/>
</clipPath>
</defs>
</svg>
