<svg width="400" height="523" viewBox="0 0 400 523" fill="none" xmlns="http://www.w3.org/2000/svg">
<g clip-path="url(#clip0)">
<path d="M199.718 522.558C123.901 468.765 66.8672 392.545 36.6494 304.631C7.70976 222.854 -3.90453 123.752 1.1455 1.66763V1.18335H398.86V1.66763C403.895 123.752 392.288 222.846 363.356 304.631C333.142 392.543 276.114 468.763 200.302 522.558L200.01 522.766L199.718 522.558Z" fill="#DFE3EB"/>
<mask id="mask0" mask-type="alpha" maskUnits="userSpaceOnUse" x="0" y="0" width="400" height="523">
<path fill-rule="evenodd" clip-rule="evenodd" d="M50.7975 339.72C125.034 266.952 196.349 139.01 200 0.614746C203.651 139.018 274.966 266.952 349.203 339.72H400V522.555H0V339.72H50.7975Z" fill="#0096DA"/>
</mask>
<g mask="url(#mask0)">
<path d="M199.718 522.558C123.901 468.765 66.8672 392.545 36.6494 304.631C7.70976 222.854 -3.90453 123.752 1.1455 1.66763V1.18335H398.86V1.66763C403.895 123.752 392.288 222.846 363.356 304.631C333.142 392.543 276.114 468.763 200.302 522.558L200.01 522.766L199.718 522.558Z" fill="#0096DA"/>
</g>
</g>
<defs>
<clipPath id="clip0">
<rect y="0.614746" width="400" height="522.15" fill="white"/>
</clipPath>
</defs>
</svg>
