<svg width="400" height="508" viewBox="0 0 400 508" fill="none" xmlns="http://www.w3.org/2000/svg">
<g clip-path="url(#clip0)">
<path d="M0.912106 0.614746C-1.59461 36.5443 1.67881 79.0797 3.38826 101.293L3.44868 102.078C30.5055 412.386 200 507.93 200 507.93C200 507.93 369.495 412.386 396.551 102.078L396.612 101.293C398.321 79.0797 401.595 36.5443 399.088 0.614746H0.912106Z" fill="#008BCB"/>
<path d="M4.68366 4.15076C2.9926 38.8173 5.52918 80.248 7.22023 103.077H100.228L200 309.385V4.15076H4.68366Z" fill="white"/>
<path d="M4.68366 4.15076C2.9926 38.8173 5.52918 80.248 7.22023 103.077H100.228L200 309.385V4.15076H4.68366Z" fill="white"/>
<path d="M200 4.15076H395.316C397.007 38.8173 394.471 80.248 392.78 103.077H299.772L200 309.385V4.15076Z" fill="white"/>
<path d="M200 4.15076H395.316C397.007 38.8173 394.471 80.248 392.78 103.077H299.772L200 309.385V4.15076Z" fill="white"/>
</g>
<defs>
<clipPath id="clip0">
<rect y="0.614746" width="400" height="507.32" fill="white"/>
</clipPath>
</defs>
</svg>
