<svg width="400" height="523" viewBox="0 0 400 523" fill="none" xmlns="http://www.w3.org/2000/svg">
<g clip-path="url(#clip0)">
<path d="M200.291 521.992C278.105 465.537 331.439 394.236 363.352 304.047C392.291 222.276 403.902 123.177 398.856 1.09637L398.835 0.614746H1.16126L1.14031 1.09637C-3.89578 123.177 7.71551 222.266 36.6443 304.047C68.557 394.236 121.891 465.537 199.705 521.992L199.998 522.201L200.291 521.992Z" fill="#0085CA"/>
<path d="M73.7188 32.4227L85.0369 32.3809C86.8482 21.4082 79.76 14.3933 69.9391 16.9166C75.6243 19.7644 74.8391 28.5907 73.7188 32.4227Z" fill="#FFE000" stroke="#0085CA" stroke-width="3"/>
<path d="M62.3901 74.3553C61.9503 69.2459 66.599 64.4925 60.6625 58.9852C46.5908 59.5716 45.994 69.5181 49.1874 79.5903C52.276 72.3345 58.4952 72.8057 62.3901 74.3553V74.3553Z" fill="#FFE000" stroke="#0085CA" stroke-width="3"/>
<path d="M51.742 41.7933C58.8721 43.1021 60.0133 36.7572 61.7932 31.229C57.5424 23.4812 46.8106 17.7541 39.9841 33.4592C48.3916 28.5382 51.2499 37.3331 51.742 41.7933V41.7933Z" fill="#FFE000" stroke="#0085CA" stroke-width="3"/>
<path d="M151.386 165.413L174.294 136.61C141.114 113.482 111.945 85.8932 88.2197 58.2942C84.5552 54.3784 83.9375 49.5203 85.2148 44.2957C86.1886 40.3171 91.3922 36.684 90.4185 33.187C88.0836 24.79 83.3826 32.6949 79.7809 31.3338C74.7971 29.4492 73.9909 28.465 72.1482 30.5276C69.6668 33.3021 76.2106 39.8459 70.9965 41.2908C63.5209 43.3534 69.3108 30.3705 63.3638 29.6062C60.694 29.2607 58.7466 32.7472 57.9299 36.3175C57.1865 39.5528 47.219 42.3483 49.5957 47.3111C52.4226 53.1952 56.6211 48.7559 60.4741 49.9705C65.4997 51.5619 64.6621 55.8128 62.788 55.6348C54.9983 54.9228 56.8201 56.2525 56.4222 57.488C55.1972 61.2886 62.2017 63.1941 62.0865 67.5497C61.9923 71.3398 61.3117 77.7475 63.479 78.1977C67.3006 78.9934 71.4153 71.9366 75.3939 74.4913C82.5869 79.1086 77.0063 87.7359 81.4142 91.2643C94.4599 101.703 87.2879 108.624 80.0217 104.802C82.6497 110.466 91.8947 116.026 101.307 104.917C105.244 111.639 100.292 118.246 92.0518 118.11C97.5067 124.528 103.998 129.051 112.531 118.34C114.678 123.229 115.798 130.475 104.553 130.024C110.081 141.877 118.897 138.547 123.41 134.192C132.655 145.604 141.858 157.571 151.406 165.424" fill="#FFE000"/>
<path d="M151.386 165.413L174.294 136.61C141.114 113.482 111.945 85.8932 88.2197 58.2942C84.5552 54.3784 83.9375 49.5203 85.2148 44.2957C86.1886 40.3171 91.3922 36.684 90.4185 33.187C88.0836 24.79 83.3826 32.6949 79.7809 31.3338C74.7971 29.4492 73.9909 28.465 72.1482 30.5276C69.6668 33.3021 76.2106 39.8459 70.9965 41.2908C63.5209 43.3534 69.3108 30.3705 63.3638 29.6062C60.694 29.2607 58.7466 32.7472 57.9299 36.3175C57.1865 39.5528 47.219 42.3483 49.5957 47.3111C52.4226 53.1952 56.6211 48.7559 60.4741 49.9705C65.4997 51.5619 64.6621 55.8128 62.788 55.6348C54.9983 54.9228 56.8201 56.2525 56.4222 57.488C55.1972 61.2886 62.2017 63.1941 62.0865 67.5497C61.9923 71.3398 61.3117 77.7475 63.479 78.1977C67.3006 78.9934 71.4153 71.9366 75.3939 74.4913C82.5869 79.1086 77.0063 87.7359 81.4142 91.2643C94.4599 101.703 87.2879 108.624 80.0217 104.802C82.6497 110.466 91.8947 116.026 101.307 104.917C105.244 111.639 100.292 118.246 92.0518 118.11C97.5067 124.528 103.998 129.051 112.531 118.34C114.678 123.229 115.798 130.475 104.553 130.024C110.081 141.877 118.897 138.547 123.41 134.192C132.655 145.604 141.858 157.571 151.406 165.424" stroke="#0085CA" stroke-width="3"/>
<path d="M69.3213 125.428L82.032 125.501C82.6916 114.068 74.7972 108.906 65.5416 112.466C70.8814 114.267 72.2948 122.413 69.3213 125.428Z" fill="#FFE000" stroke="#0085CA" stroke-width="3"/>
<path d="M32.8226 131.585C38.2252 127.386 43.2927 128.883 44.769 135.595L53.8465 123.491C43.8371 115.963 36.4034 120.926 32.8226 131.585Z" fill="#FFE000" stroke="#0085CA" stroke-width="3"/>
<path d="M48.3708 163.55L46.3082 149.384C35.9847 149.206 30.3937 154.42 31.1685 165.863C36.5606 158.513 44.633 160.785 48.3708 163.56V163.55Z" fill="#FFE000" stroke="#0085CA" stroke-width="3"/>
<path d="M177.236 428.002C181.372 423.804 186.314 422.641 190.795 427.96C197.004 426.829 198.344 422.537 195.831 415.742C182.262 408.894 176.932 417.815 177.236 428.002V428.002Z" fill="#FFE000" stroke="#0085CA" stroke-width="3"/>
<path d="M174.692 465.694C175.812 458.135 180.419 455.936 187.56 458.596C187.696 451.926 185.822 447.225 181.948 443.016C168.965 445.916 170.41 457.339 174.692 465.694V465.694Z" fill="#FFE000" stroke="#0085CA" stroke-width="3"/>
<path d="M216.949 485.064C211.714 480.865 212.95 472.877 219.294 465.82C214.321 462.606 209.254 461.58 203.966 465.747C201.945 482.939 209.829 486.278 216.96 485.064H216.949Z" fill="#FFE000" stroke="#0085CA" stroke-width="3"/>
<path d="M73.4884 302.288C76.755 294.876 80.095 291.818 88.3244 296.122C89.4447 291.745 90.387 287.327 87.5706 282.05C72.1377 278.5 69.782 295.169 73.4884 302.299V302.288Z" fill="#FFE000" stroke="#0085CA" stroke-width="3"/>
<path d="M73.4046 268.742C77.268 263.528 83.8118 261.277 87.1936 267.81C93.6641 268.135 96.6271 263.936 96.6167 255.937C85.9896 249.111 71.4048 253.55 73.3941 268.742H73.4046Z" fill="#FFE000" stroke="#0085CA" stroke-width="3"/>
<path d="M103.736 247.404C110.416 247.446 112.123 250.43 112.06 259.204C115.473 261.738 119.263 262.889 124.509 258.701C122.561 244.766 113.107 238.976 103.736 247.404V247.404Z" fill="#FFE000" stroke="#0085CA" stroke-width="3"/>
<path d="M94.1249 281.327C90.9734 278.155 86.0315 278.699 87.0681 282.364C90.429 294.184 85.6127 297.462 89.1516 300.299C102.564 303.817 98.2082 286.583 106.04 288.154C112.468 289.441 110.772 296.341 108.123 300.99C106.218 304.34 112.803 312.35 115.18 313.02C118.489 313.952 120.426 309.23 122.122 306.539C127.64 316.852 123.609 322.098 114.719 323.773C119.672 331.657 128.173 332.829 136.005 320.883C136.843 326.17 136.225 334.662 128.027 335.457C134.183 343.624 139.303 339.855 144.57 337.656C145.46 343.278 143.502 348.534 139.366 353.508C162.013 352.482 157.908 332.589 165.855 321.229C171.111 313.732 183.005 306.487 196.627 319.491C184.063 329.259 191.496 356.513 221.148 386.237C222.76 387.86 223.158 391.88 222.854 395.021C221.859 405.491 216.876 420.589 212.238 420.474C202.218 420.223 203.673 412.171 196.501 412.496C189.8 412.789 196.051 420.401 193.381 422.903C192.083 424.128 188.847 424.945 190.952 430.306C191.769 432.389 195.506 430.839 198.009 430.536C200.375 430.253 201.474 438.032 198.7 438.744C194.679 439.791 189.622 436.849 186.67 437.708C184.105 438.451 180.827 441.519 181.466 443.257C183.016 447.466 187.884 449.717 186.324 457.716C185.392 462.511 192.596 464.909 195.004 459.8C196.721 456.135 195.171 452.209 200.668 452.628C205.086 452.963 198.763 461.998 201.244 465.349C202.835 467.506 206.793 463.998 211.536 464.197C216.122 464.386 219.671 469.034 224.257 463.967C227.021 460.501 222.896 456.041 222.404 451.476C221.901 446.775 225.859 444.513 233.052 445.225C235.324 445.445 236.968 450.607 239.533 446.032L249.71 427.866C263.729 427.678 265.541 417.323 266.253 412.831C258.452 418.328 251.511 417.145 251.448 406.926C260.976 410.81 269.257 407.743 271.812 395.587C263.813 399.304 257.269 397.555 256.547 388.415C271.058 392.32 274.576 383.85 276.21 374.532C260.85 384.824 255.824 374.636 253.887 363.538C252.861 357.685 254.369 340.42 270.43 330.222C282.293 335.593 303.652 344.336 315.891 318.307C322.341 304.602 324.539 287.536 324.34 270.763C338.245 270.742 349.542 258.963 353.028 245.08C345.406 249.027 327.816 257.288 324.11 250.514C319.807 242.661 335.344 218.831 360.315 200.886C344.443 199.86 329.952 208.634 317.399 215.46C322.655 202.247 346.778 184.27 363.907 172.083C345.846 172.104 325.408 185.61 310.918 194.991C317.577 173.915 352.547 150.787 372.346 141.081C353.468 139.646 328.078 149.991 313.232 157.739C315.723 147.782 346.327 125.051 371.539 109.618C357.091 108.383 342.872 113.136 330.476 119.91C333.742 105.451 352.746 84.0609 377.56 68.8898C362.085 67.4659 351.939 72.9208 341.815 76.6377C343.794 52.4414 315.797 44.9134 287.329 55.4672C284.167 56.6399 285.947 57.8021 287.674 59.5191C290.553 62.3775 298.113 64.5971 297.621 66.6911C294.406 80.3545 284.418 106.079 261.059 97.9233C264.2 104.718 268.891 108.32 273.665 111.231C267.875 117.157 259.751 118.151 251.218 118.288C258.62 124.978 266.451 128.454 273.54 127.428C269.77 136.998 260.232 143.196 252.945 147.206C272.786 148.891 285.622 142.442 295.286 128.58C304.573 115.251 303.453 96.7402 307.201 79.1819C312.09 58.713 331.952 62.8172 332.193 83.0035C332.538 112.278 310.604 126.067 300.259 144.546C285.214 171.454 289.465 202.749 299.108 224.161C307.463 242.724 313.274 255.225 314.258 278.04C314.834 291.347 308.405 321.909 291.695 323.385C281.696 324.275 269.75 312.088 269.634 296.446C269.551 285.431 268.179 282.018 266.242 275.38C258.421 248.451 246.485 259.895 236.978 192.436C233.083 164.827 232.33 136.212 233.743 106.362L183.769 108.331C182.607 123.784 162.62 147.824 146.171 165.246C141.596 170.093 85.508 151.823 80.5766 143.039C77.4984 137.542 85.7279 128.758 84.3982 124.758C82.8591 120.162 78.6711 123.606 74.4517 124.413C71.6666 124.946 68.379 119.136 65.4265 123.135C62.5053 127.103 69.9495 131.396 63.9188 134.014C59.5318 135.919 57.7205 133.406 58.0137 128.496C58.1917 125.596 54.2131 121.502 50.9673 123.721C43.2404 128.998 49.3235 130.925 43.2195 137.259C39.8796 140.714 45.0832 141.542 47.1562 140.85C49.0094 140.222 49.7423 137.615 51.8992 140.159C54.2759 142.955 53.3126 145.185 51.8154 147.038C49.4911 146.389 46.6956 145.342 45.0727 146.525C40.4973 149.855 47.4703 154.106 47.5017 158.671C47.5332 163.267 46.5699 169.748 50.8522 169.894C56.9667 170.104 53.9094 161.487 60.9139 160.754C69.1957 161.581 69.8658 174.533 68.201 184.354C72.9335 184.259 78.0115 182.804 83.3512 180.302C85.0683 184.678 82.2937 190.52 76.7551 192.332C83.8852 197.535 94.4913 190.269 99.2029 183.998C101.705 190.562 97.3601 196.122 92.3764 200.54C99.5588 203.807 108.375 197.326 111.924 194.635L144.779 213.722C149.114 216.235 152.527 212.874 157.039 211.293C160.222 217.47 177.268 232.579 192.669 246.462C198.763 251.959 212.991 271.475 221.587 285.096C210.479 277.61 197.517 269.014 186.303 260.806C183.55 258.785 165.248 258.974 162.473 262.083C156.767 268.459 152.412 274.993 143.732 282.447C141.083 284.73 127.367 284.133 120.248 273.653C118.51 271.098 120.384 266.837 126.268 264.052C128.509 262.994 127.859 255.55 124.184 256.995C121.556 258.031 120.363 259.916 116.782 259.811C113.453 259.717 110.395 257.372 109.265 258.963C106.427 262.931 111.474 267.119 106.26 268.564C100.815 270.082 104.815 255.676 98.7422 255.026C95.4546 254.681 95.842 260.031 93.3082 263.235C90.5546 266.721 86.1362 264.69 86.4817 269.255C86.9215 274.961 94.1144 272.009 97.3601 275.275C100.606 278.542 97.5905 284.772 94.1249 281.296V281.327Z" fill="#FFE000" stroke="#0085CA" stroke-width="3"/>
<path d="M179.759 34.4225C177.016 29.7528 173.205 26.2768 168.347 25.324C166.012 24.8633 162.85 25.0727 162.201 29.6481C161.479 34.8098 161.217 39.2387 163.562 45.7196C165.007 49.7297 167.384 51.2269 167.928 57.7288C168.211 61.1316 165.74 67.958 167.164 74.0621C169.886 85.7571 175.802 85.7152 175.802 91.5261V100.363C175.802 102.76 182.063 107.587 184.921 110.582C187.099 112.864 195.894 109.231 206.605 107.462C217.315 109.231 226.11 112.854 228.288 110.582C231.146 107.598 237.408 102.76 237.408 100.363V91.5261C237.408 85.7257 243.323 85.7571 246.045 74.0621C247.459 67.958 244.998 61.1316 245.281 57.7288C245.825 51.2164 248.202 49.7192 249.647 45.7196C251.992 39.2282 251.731 34.8098 251.008 29.6481C250.369 25.0727 247.197 24.8633 244.862 25.324C240.004 26.2768 236.193 29.7528 233.45 34.4225C225.974 31.7421 217.441 29.7738 206.615 29.7738C195.789 29.7738 187.256 31.7421 179.78 34.4225H179.759Z" fill="#FFE000" stroke="#0085CA" stroke-width="3"/>
<path d="M212.436 100.583C212.039 103.986 218.509 104.76 218.572 100.583C218.593 98.7714 216.98 97.0753 214.153 97.358C211.337 97.7349 209.086 99.2321 206.605 100.583C204.123 99.2321 201.872 97.7349 199.056 97.358C196.229 97.0648 194.616 98.7714 194.637 100.583C194.7 104.76 201.171 103.986 200.773 100.583" stroke="#0085CA" stroke-width="3" stroke-linecap="round" stroke-linejoin="round"/>
<path d="M206.594 107.472V100.583" stroke="#0085CA" stroke-width="3"/>
<path d="M217.63 110.142C218.3 116.173 215.63 117.827 212.908 117.817C210.29 117.817 209.117 116.173 206.594 116.173C204.228 116.173 203.139 117.806 200.689 117.806C198.145 117.806 195.642 115.88 196.271 109.87" stroke="#0085CA" stroke-width="3"/>
<path d="M188.9 111.597C189.79 117.492 190.837 123.156 194.951 124.434C198.228 125.46 201.83 123.701 206.584 123.701C211.431 123.711 215.096 125.47 218.436 124.444C222.634 123.156 223.65 117.44 224.561 111.534" stroke="#0085CA" stroke-width="3"/>
<path d="M190.01 93.5469C195.402 86.1027 197.935 77.0356 200.281 67.4974C195.046 68.4816 189.905 67.8429 183.885 62.9115" stroke="#0085CA" stroke-width="3" stroke-linecap="round"/>
<path d="M176.221 72.5649C180.639 71.2457 184.796 69.2773 188.209 65.9792" stroke="#0085CA" stroke-width="3" stroke-linecap="round"/>
<path d="M197.454 77.7999C189.832 79.0249 185.759 74.5647 181.916 70.6384" stroke="#0085CA" stroke-width="3"/>
<path d="M189.434 66.9215C186.869 70.3871 189.308 74.0202 192.261 74.8997C197.098 76.3341 200.752 73.1407 199.642 68.0732L189.434 66.9215Z" fill="#0085CA"/>
<path d="M223.734 94.1331C218.258 86.6051 215.724 77.7475 213.389 68.1988C218.624 69.183 223.765 68.5443 229.785 63.6129" stroke="#0085CA" stroke-width="3" stroke-linecap="round"/>
<path d="M224.226 67.6335C226.791 71.0991 224.351 74.7322 221.399 75.6117C216.562 77.0461 212.908 73.8528 214.017 68.7852L224.226 67.6335Z" fill="#0085CA"/>
<path d="M237.428 73.2768C233.01 71.9576 228.853 69.9892 225.44 66.6912" stroke="#0085CA" stroke-width="3" stroke-linecap="round"/>
<path d="M216.206 78.5119C223.828 79.7368 227.901 75.2766 231.743 71.3503" stroke="#0085CA" stroke-width="3"/>
<path d="M157.039 211.293C170.535 204.278 183.33 194.258 191.193 183.778" stroke="#0085CA" stroke-width="3"/>
<path d="M196.187 320.14C204.469 315.753 221.336 307.398 224.498 298.467C225.922 294.457 223.66 289.305 220.886 283.987" stroke="#0085CA" stroke-width="3"/>
<path d="M207.222 443.341C207.945 448 204.793 452.062 201.904 453.403" stroke="#0085CA" stroke-width="3"/>
<path d="M58.9979 145.573C57.6263 147.541 54.8413 148.64 51.8154 147.038" stroke="#0085CA" stroke-width="3"/>
<path d="M73.7292 139.364C76.1897 141.709 77.8021 142.285 80.5976 143.123" stroke="#0085CA" stroke-width="3"/>
</g>
<defs>
<clipPath id="clip0">
<rect y="0.614746" width="400" height="521.59" fill="white"/>
</clipPath>
</defs>
</svg>
