<svg width="400" height="500" viewBox="0 0 400 500" fill="none" xmlns="http://www.w3.org/2000/svg">
<g clip-path="url(#clip0)">
<path d="M399.696 0.614746C401.535 103.021 396.017 188.258 355.544 297.41C327.337 372.836 281.346 442.129 199.788 499.158C118.231 442.742 72.2396 373.449 44.0317 297.41C3.55961 188.258 -1.95931 103.021 0.493543 0.614746C133.561 1.22796 266.628 0.614746 399.696 0.614746Z" fill="#DC3927"/>
<mask id="mask0" mask-type="alpha" maskUnits="userSpaceOnUse" x="0" y="0" width="399" height="373">
<path d="M80.2114 372.222H0V0.614746L398.47 101.795L14.8232 191.938L361.677 282.08L80.2114 372.222Z" fill="#84763D"/>
</mask>
<g mask="url(#mask0)">
<path d="M399.696 0.614746C401.535 103.021 396.017 188.258 355.544 297.41C327.337 372.836 281.346 442.129 199.788 499.158C118.231 442.742 72.2396 373.449 44.0317 297.41C3.55961 188.258 -1.95931 103.021 0.493543 0.614746C133.561 1.22796 266.628 0.614746 399.696 0.614746Z" fill="#84763D"/>
</g>
</g>
<defs>
<clipPath id="clip0">
<rect y="0.614746" width="400" height="498.54" fill="white"/>
</clipPath>
</defs>
</svg>
