<svg width="400" height="461" viewBox="0 0 400 461" fill="none" xmlns="http://www.w3.org/2000/svg">
<g clip-path="url(#clip0)">
<path d="M0.564332 0.614746H399.418C399.418 0.614746 405.564 106.935 377.908 199.12C366.232 240.296 355.169 263.035 329.972 307.284C296.171 365.053 252.537 416.676 200.299 459.081L197.84 460.925L195.382 459.081C154.82 423.437 120.405 382.876 91.5201 337.398C62.6355 293.763 39.2821 247.056 22.6888 197.276C-5.5813 108.779 0.564332 0.614746 0.564332 0.614746Z" fill="#007AC2"/>
<mask id="mask0" mask-type="alpha" maskUnits="userSpaceOnUse" x="54" y="79" width="292" height="382">
<path d="M54.6462 259.962V460.929H345.951V262.42L296.171 85.4254L247.62 259.347L195.382 81.7374L148.06 256.275L100.739 79.8942L54.6462 259.962Z" fill="white"/>
</mask>
<g mask="url(#mask0)">
<path d="M0.564332 0.614746H399.418C399.418 0.614746 405.564 106.935 377.908 199.12C366.232 240.296 355.169 263.035 329.972 307.284C296.171 365.053 252.537 416.676 200.299 459.081L197.84 460.925L195.382 459.081C154.82 423.437 120.405 382.876 91.5201 337.398C62.6355 293.763 39.2821 247.056 22.6888 197.276C-5.5813 108.779 0.564332 0.614746 0.564332 0.614746Z" fill="white"/>
</g>
<path d="M3.85321 5.56132C3.87207 5.03783 3.89046 4.55524 3.90798 4.11475H396.077C396.094 4.53575 396.112 4.99531 396.131 5.49244C396.244 8.55367 396.375 13.0385 396.447 18.7119C396.59 30.06 396.494 46.1562 395.538 65.1219C393.625 103.087 388.27 152.401 374.556 198.114L374.548 198.14L374.541 198.165C362.973 238.958 352.06 261.422 326.942 305.533C293.357 362.928 250.015 414.204 198.144 456.322L197.84 456.55L197.591 456.363C157.33 420.965 123.162 380.689 94.4746 335.521L94.4569 335.493L94.4386 335.466C65.7141 292.073 42.5043 245.648 26.0161 196.19C12.0168 152.356 6.51048 103.539 4.52048 65.5756C3.52642 46.6121 3.41183 30.4021 3.54556 18.9389C3.61242 13.2081 3.74131 8.66579 3.85321 5.56132Z" stroke="#007AC2" stroke-width="7"/>
</g>
<defs>
<clipPath id="clip0">
<rect y="0.614746" width="400" height="460.31" fill="white"/>
</clipPath>
</defs>
</svg>
