<svg width="400" height="490" viewBox="0 0 400 490" fill="none" xmlns="http://www.w3.org/2000/svg">
<g clip-path="url(#clip0)">
<path d="M36.3638 253.311C13.5595 171.339 1.23267 86.285 0 0.614746H400C398.151 85.6686 385.824 170.723 363.636 253.311C326.656 383.974 200.308 489.983 200.308 489.983C200.308 489.983 73.3437 383.357 36.3638 253.311Z" fill="#009FE3"/>
<path d="M210.169 231.74C211.401 235.438 213.251 239.135 215.716 242.217C216.332 242.833 217.565 242.833 218.798 242.217C220.647 238.519 222.496 235.437 224.961 232.356C227.426 229.89 230.508 228.041 233.59 226.809C234.822 226.192 235.439 226.193 237.288 225.576C290.292 205.237 317.411 145.453 297.072 92.4486C276.733 39.444 216.948 12.3249 163.944 32.6639C110.939 53.0029 83.8209 112.788 104.16 165.792C114.638 192.911 136.209 215.099 163.944 225.576C168.874 226.809 173.189 229.891 176.887 233.589C179.352 236.054 183.051 238.52 183.667 242.834C184.283 244.683 187.365 244.683 187.365 244.066C187.981 242.217 188.597 240.984 189.213 239.135C189.83 237.286 191.063 236.054 191.063 234.205C191.679 231.123 192.295 228.042 192.295 224.96C192.295 223.111 192.912 220.03 192.912 218.181V217.564C192.912 212.633 191.063 212.634 189.83 212.017C147.92 206.47 117.103 170.723 117.103 128.812C117.103 83.2038 154.083 46.2237 199.691 46.2237C245.3 46.2237 282.28 83.2038 282.28 128.812C282.28 129.429 282.28 130.045 282.28 130.661C281.664 173.188 250.231 207.703 212.018 212.017C211.402 212.017 208.32 212.017 208.32 213.866C208.32 217.564 208.32 220.646 208.32 224.344C208.937 226.809 209.552 229.274 210.169 231.74Z" fill="#DBAC00"/>
<path d="M194.144 410.476C193.528 414.174 192.911 418.489 191.679 422.187C191.062 424.652 187.981 428.966 186.132 428.35C184.283 428.35 183.666 427.733 183.05 427.117C182.434 425.884 180.585 422.803 179.352 421.57C178.119 420.338 176.27 419.104 175.654 417.872C173.805 416.639 171.34 415.407 169.491 414.174C128.197 396.917 109.09 349.459 126.348 308.165C143.605 266.871 191.062 247.764 232.356 265.022C261.94 277.348 281.663 306.932 281.663 338.982C281.663 369.798 263.173 398.149 235.438 411.092C233.589 411.709 231.741 413.557 230.508 414.79C228.659 416.023 226.81 417.872 225.577 419.721C223.728 421.57 222.495 424.035 221.879 425.884C221.263 427.117 219.414 426.501 218.797 425.884C216.948 423.419 215.715 420.337 213.866 417.872C211.401 414.79 210.169 411.092 209.552 407.394L210.169 403.697C210.169 402.464 210.168 401.847 213.866 401.231C249.614 394.451 273.035 359.937 266.872 324.19C260.092 288.442 225.577 265.022 189.83 271.185C154.083 277.348 130.662 312.479 136.825 348.227C141.139 372.88 159.63 393.219 184.283 399.999C186.748 400.615 189.83 401.231 192.295 401.847C195.376 402.464 195.377 403.696 195.993 404.313C194.761 407.394 194.76 409.243 194.144 410.476Z" fill="#DBAC00"/>
</g>
<defs>
<clipPath id="clip0">
<rect y="0.614746" width="400" height="489.37" fill="white"/>
</clipPath>
</defs>
</svg>
