<svg width="400" height="523" viewBox="0 0 400 523" fill="none" xmlns="http://www.w3.org/2000/svg">
<g clip-path="url(#clip0)">
<path d="M199.652 522.038C121.884 465.852 68.2861 394.439 36.7582 304.122C7.8576 222.731 -3.70264 123.488 1.02655 1.13984V0.614746H398.804V1.13984C404.059 122.963 391.973 222.206 363.072 304.122C331.019 394.439 277.947 465.327 200.178 522.038H199.652V522.038Z" fill="#DD0E00"/>
<path d="M168.65 208.029L189.669 220.631V166.021C196.5 166.021 203.856 166.021 210.687 166.021V220.106L231.706 207.504C236.435 299.396 230.129 362.933 200.178 419.643C170.226 362.933 163.921 299.396 168.65 208.029Z" fill="#FFDD00"/>
<path d="M74.0662 100.908L95.0848 113.511V59.4255C101.916 59.4255 109.272 59.4255 116.103 59.4255V113.511L137.122 100.908C141.851 192.801 135.546 256.338 105.594 313.048C76.168 256.338 69.337 192.801 74.0662 100.908Z" fill="#FFDD00"/>
<path d="M262.708 100.908L283.727 113.511V59.4255C290.558 59.4255 297.915 59.4255 304.746 59.4255V113.511L325.764 100.908C330.493 192.801 324.188 256.338 294.236 313.048C264.285 256.338 257.979 192.801 262.708 100.908Z" fill="#FFDD00"/>
</g>
<defs>
<clipPath id="clip0">
<rect y="0.614746" width="400" height="521.42" fill="white"/>
</clipPath>
</defs>
</svg>
