<svg width="400" height="522" viewBox="0 0 400 522" fill="none" xmlns="http://www.w3.org/2000/svg">
<g clip-path="url(#clip0)">
<path d="M200 521.796C121.992 465.301 68.9676 394.046 36.8468 303.959C7.78509 222.524 -3.94155 123.276 1.15699 1.12371V0.614746H398.843V1.12371C403.942 123.276 392.215 222.015 363.153 303.959C331.032 394.046 278.008 465.301 200 521.796Z" fill="#32AB60"/>
<path d="M177.567 269.349C171.958 271.385 166.86 263.75 161.761 257.134C154.113 247.972 174.507 247.972 166.35 198.094C165.84 195.04 161.761 195.549 161.761 198.603C162.271 213.363 158.702 232.703 150.034 241.865C147.485 244.41 145.446 247.972 140.347 245.936C135.759 244.41 124.542 238.302 126.581 235.757C136.268 218.961 135.249 203.692 133.719 192.495C133.209 189.441 129.13 190.459 129.13 193.004C128.621 208.273 121.483 225.069 110.266 231.685C107.207 233.212 93.4407 224.56 85.7929 217.943C73.0465 206.746 64.379 193.513 65.3987 180.789C65.9086 177.226 66.9283 174.681 73.5564 167.047C82.7338 156.867 91.4013 142.616 88.852 118.695C88.852 116.659 85.7929 117.677 85.283 119.713C83.2436 129.383 81.2042 135.491 76.1057 144.652C72.5367 152.287 67.948 157.376 63.3593 160.939C58.7706 164.502 55.7115 163.484 55.2017 161.448C51.6327 147.706 47.044 122.258 51.1228 115.641C56.7312 105.971 62.8495 101.39 66.4184 90.7017C68.9677 84.0852 69.9874 72.8879 69.4776 67.2893C68.9677 63.7265 66.9283 63.7265 66.4184 65.2534C60.81 80.5224 59.7903 91.2107 48.5735 95.7914C43.475 97.8273 42.4553 93.2466 41.9454 87.139L38.8863 31.1527C38.8863 26.063 33.2779 28.0989 33.2779 32.6796C33.2779 46.4217 33.2779 50.4934 32.2582 62.7086C32.2582 66.2713 32.2582 71.87 29.1991 71.361C18.4922 68.3072 19.002 61.1817 15.9429 44.8948C15.433 41.332 10.8444 41.841 10.8444 43.8768C10.8444 57.11 11.8641 72.8879 23.0809 84.0852C33.7878 95.2824 34.2976 110.042 35.3173 118.186C42.4553 172.645 51.6327 201.147 60.3002 214.89C80.6943 246.445 150.034 264.259 153.603 278.001C154.623 281.055 151.564 281.055 146.465 282.582C143.916 280.037 127.091 269.858 119.443 265.786C113.835 262.732 80.6943 248.481 73.0465 255.607C71.0071 257.643 86.8126 282.073 95.4801 288.69C123.522 310.575 131.17 300.396 144.426 304.468C144.936 321.772 154.113 357.4 165.84 377.25C173.998 391.501 173.488 404.734 172.468 422.548C171.448 438.835 183.685 443.924 200 443.924C215.806 443.924 228.042 438.835 227.532 422.548C226.513 404.734 226.003 391.501 234.16 377.25C245.887 357.909 255.064 321.772 255.574 304.468C269.34 300.396 276.478 310.575 304.52 288.69C313.188 282.073 328.993 257.643 326.954 255.607C318.796 247.972 286.165 262.732 280.557 265.786C272.399 269.858 255.574 280.546 253.535 282.582C247.926 281.055 245.377 281.055 246.397 278.001C249.966 264.259 319.306 246.445 339.7 214.89C348.368 201.147 357.545 173.154 364.683 118.186C365.703 110.042 366.213 95.2824 376.919 84.0852C388.136 72.8879 389.156 57.11 389.156 43.8768C389.156 41.332 384.567 41.332 384.057 44.8948C380.998 61.1817 380.998 68.8162 370.801 71.361C367.742 72.3789 368.252 66.2713 367.742 62.7086C366.722 50.4934 366.722 46.4217 366.722 32.6796C366.722 28.0989 361.114 26.063 360.604 31.1527L357.035 86.63C356.525 92.7376 355.506 97.3183 350.407 95.2824C339.19 90.7017 338.68 80.0134 332.562 64.7445C332.052 62.7086 330.013 63.2176 329.503 66.7803C328.993 72.3789 330.013 83.0672 332.562 90.1928C336.641 100.881 342.759 105.462 347.858 115.132C351.427 121.749 347.348 147.706 343.779 160.939C343.269 163.484 339.7 163.993 335.621 160.43C331.033 156.867 326.954 151.778 322.875 144.143C318.286 134.473 315.737 128.874 313.698 119.204C313.188 117.168 310.129 116.15 310.129 118.186C308.089 142.107 316.247 156.867 325.424 166.538C332.562 174.172 333.582 176.717 333.582 180.28C334.602 193.004 325.934 206.237 313.188 217.434C305.54 224.051 291.774 233.212 288.715 231.176C277.498 224.56 270.36 208.273 269.85 192.495C269.85 189.441 265.771 188.932 265.261 191.986C263.222 202.674 262.712 218.452 272.399 235.248C273.929 237.793 263.222 243.901 258.633 245.428C253.535 246.954 251.495 243.901 248.946 241.356C240.279 232.194 236.71 212.854 237.219 198.094C237.219 195.04 233.141 194.531 232.631 197.585C223.963 247.463 244.357 247.463 237.219 256.625C232.121 263.241 227.022 270.876 221.414 268.84C214.276 266.295 205.099 264.768 198.98 264.768C193.882 265.277 184.705 266.804 177.567 269.349Z" fill="#FFDF00"/>
<path d="M180.626 355.364C180.116 355.364 180.116 355.364 180.626 355.364C179.606 353.837 179.096 352.31 179.096 350.783C176.037 340.604 172.978 331.952 168.389 326.862C165.33 323.808 157.172 319.736 147.485 320.245C146.975 320.245 146.975 320.245 146.975 319.736C146.975 319.228 146.975 319.228 147.485 319.228C157.682 318.719 166.35 322.79 169.409 325.844C174.507 330.934 177.057 340.095 180.116 350.274C180.626 351.801 181.135 352.819 181.135 354.346C181.135 354.855 180.626 355.364 180.626 355.364Z" fill="#32AB60"/>
<path d="M163.8 337.55C158.192 337.55 153.093 336.532 149.524 335.005C149.524 335.005 149.015 334.496 149.524 334.496C149.524 334.496 150.034 333.988 150.034 334.496C155.133 337.041 166.35 337.55 173.488 336.023C173.997 336.023 173.997 336.023 173.997 336.532C173.997 337.041 173.997 337.041 173.488 337.041C170.938 337.55 167.369 337.55 163.8 337.55Z" fill="#32AB60"/>
<path d="M184.704 441.379C184.195 441.379 184.195 441.379 184.704 441.379C184.195 440.87 184.195 440.362 184.704 440.362C188.273 438.835 195.411 435.781 200 434.763V423.057C192.862 422.039 186.744 421.021 186.234 416.949C186.234 416.44 186.234 416.44 186.744 416.44C187.254 416.44 187.254 416.44 187.254 416.949C187.254 420.003 192.352 421.021 200.51 422.039C201.02 422.039 201.02 422.039 201.02 422.548V435.272C201.02 435.272 201.02 435.781 200.51 435.781C195.411 436.799 188.273 439.344 184.704 441.379Z" fill="#32AB60"/>
<path d="M154.113 320.245C154.113 327.88 155.133 332.461 155.133 336.532C156.662 337.041 162.271 337.55 164.31 337.55L166.35 324.826C163.29 323.299 159.212 321.263 154.113 320.245Z" fill="#32AB60"/>
<path d="M219.884 355.364C219.375 355.364 219.375 354.855 219.375 354.855C219.884 353.328 220.394 352.31 220.394 350.783C223.453 340.604 226.512 331.951 231.101 326.353C234.16 323.299 242.828 318.718 253.025 319.736C253.535 319.736 253.535 320.245 253.535 320.245C253.535 320.754 253.025 320.754 253.025 320.754C243.338 320.245 235.18 324.317 232.121 327.371C227.532 332.46 224.473 341.113 221.414 351.292C221.414 352.31 220.904 353.837 219.884 355.364C219.884 355.364 220.394 355.364 219.884 355.364Z" fill="#32AB60"/>
<path d="M236.2 337.55C232.631 337.55 229.062 337.041 226.003 336.532C225.493 336.532 225.493 336.023 225.493 336.023C225.493 335.514 226.003 335.514 226.003 335.514C233.65 337.041 244.867 336.532 249.456 333.987H249.966V334.496C247.417 337.041 241.808 337.55 236.2 337.55Z" fill="#32AB60"/>
<path d="M215.805 441.379C212.236 439.344 204.589 436.799 200 435.781L199.49 435.272V422.548C199.49 422.039 199.49 422.039 200 422.039C208.158 421.021 213.256 420.003 213.256 416.949C213.256 416.44 213.256 416.44 213.766 416.44C214.276 416.44 214.276 416.44 214.276 416.949C214.276 421.021 207.648 422.039 200.51 423.057V434.763C205.098 435.781 212.236 438.835 215.805 440.362C216.315 440.362 216.315 440.87 215.805 441.379C215.805 441.379 216.315 441.379 215.805 441.379Z" fill="#32AB60"/>
<path d="M246.397 320.245C246.397 327.88 245.377 332.461 245.377 336.532C243.847 337.041 238.239 337.55 236.2 337.55L234.16 324.826C236.709 323.299 241.298 321.263 246.397 320.245Z" fill="#32AB60"/>
</g>
<defs>
<clipPath id="clip0">
<rect y="0.614746" width="400" height="521.18" fill="white"/>
</clipPath>
</defs>
</svg>
