<svg width="400" height="522" viewBox="0 0 400 522" fill="none" xmlns="http://www.w3.org/2000/svg">
<g clip-path="url(#clip0)">
<path d="M200.088 521.132C278.008 464.845 331.208 393.549 363.45 303.49C392.469 222.009 403.754 122.837 398.917 1.15081V0.614746H1.25947V1.15081C-4.11428 123.373 7.70798 222.009 36.7262 304.026C68.4314 394.085 122.169 465.382 200.088 521.668V521.132Z" fill="#E8E8E9"/>
<path d="M178.056 233.266C171.607 250.42 185.042 238.627 183.967 248.276C183.43 255.781 168.383 261.142 165.159 269.719C163.547 273.471 163.009 279.904 167.308 280.44C172.145 280.976 176.444 282.048 174.832 286.337C172.145 293.842 163.009 297.058 159.785 305.099C157.098 311.532 156.023 325.469 164.084 325.469C172.145 324.933 174.294 329.222 173.757 334.582C173.219 338.335 167.308 353.345 178.056 352.808C181.817 352.272 184.504 353.881 186.116 357.097C189.341 361.922 192.565 372.643 199.551 372.643C206.537 372.643 210.298 361.922 212.985 357.097C215.135 353.881 217.284 352.272 221.046 352.808C231.793 353.345 225.882 338.871 225.345 334.582C224.807 329.222 226.957 325.469 235.018 325.469C242.541 326.005 242.003 311.532 239.317 305.099C236.092 297.058 226.957 293.842 224.27 286.337C222.658 282.048 226.957 280.976 231.793 280.44C236.092 279.904 235.555 273.471 233.943 269.719C230.181 261.142 215.672 255.781 215.135 248.276C214.06 239.163 227.494 250.42 221.046 233.266C218.359 225.761 207.074 206.999 199.013 206.999C192.028 207.535 180.743 226.298 178.056 233.266Z" fill="#32AA60"/>
<path d="M225.345 214.504C239.317 226.298 232.868 209.68 241.466 213.968C248.452 217.185 248.452 232.73 254.9 239.163C258.125 241.843 263.498 244.524 265.648 240.771C268.335 236.483 270.484 232.73 273.709 235.947C279.62 240.771 280.157 250.42 286.606 256.317C291.442 261.142 304.876 266.502 307.026 258.997C309.175 251.493 314.012 250.42 318.848 253.101C322.61 254.709 334.432 265.43 337.119 255.245C338.194 251.493 340.343 249.884 344.105 248.812C349.478 247.74 361.301 247.74 363.45 241.307C365.6 234.875 357.002 227.906 353.24 223.617C351.091 220.401 350.553 217.721 351.628 214.504C355.927 204.855 339.806 205.391 336.044 204.319C331.208 203.247 327.983 199.494 331.208 191.99C333.895 185.021 320.46 180.732 313.474 181.268C304.876 181.804 298.428 188.773 290.367 188.773C285.531 188.773 286.068 184.485 287.143 179.66C288.218 175.372 281.769 173.763 278.008 173.763C268.872 174.299 258.662 186.093 251.676 184.485C242.541 182.34 258.125 173.227 239.854 173.763C232.331 173.763 210.298 178.052 207.611 185.557C205.462 192.526 219.434 209.144 225.345 214.504Z" fill="#32AA60"/>
<path d="M175.369 214.504C161.397 226.298 167.846 209.68 159.248 213.968C152.262 217.185 152.262 232.73 145.813 239.163C142.589 241.843 137.215 244.524 135.066 240.771C132.379 236.483 130.229 232.73 127.005 235.947C121.094 240.771 120.557 250.42 114.108 256.317C109.272 261.142 95.8374 266.502 93.6879 258.997C91.5384 251.493 86.702 250.42 81.8656 253.101C78.104 254.709 66.2817 265.43 63.5949 255.245C62.5201 251.493 60.3706 249.884 56.609 248.812C51.2352 247.74 39.413 247.74 37.2635 241.307C35.114 234.875 43.712 227.906 47.4736 223.617C49.6231 220.401 50.1605 217.721 49.0857 214.504C44.7867 204.855 60.908 205.391 64.6696 204.319C69.506 203.247 72.7302 199.494 69.506 191.99C66.8191 185.021 80.2535 180.732 87.2394 181.268C95.8374 181.804 102.286 188.773 110.347 188.773C115.183 188.773 114.646 184.485 113.571 179.66C112.496 175.372 118.945 173.763 122.706 173.763C131.842 174.299 142.052 186.093 149.038 184.485C158.173 182.34 142.589 173.227 160.86 173.763C168.383 173.763 190.415 178.052 193.102 185.557C195.252 192.526 181.28 209.144 175.369 214.504Z" fill="#32AA60"/>
<path d="M243.078 157.145C258.662 148.032 240.929 148.568 247.377 141.599C252.751 136.239 267.26 141.063 275.321 136.775C279.082 134.63 283.381 130.342 280.157 127.126C276.396 123.373 273.709 120.157 278.008 118.013C284.456 113.724 293.592 116.404 301.652 112.116C307.563 108.899 316.699 98.1782 310.788 93.8897C304.339 89.0651 304.876 84.7766 308.638 81.0242C311.325 78.3439 325.297 70.3029 316.161 64.4062C312.937 62.262 311.862 59.5817 312.4 55.8292C312.937 50.4686 316.699 39.7473 311.325 35.4588C305.951 31.1703 296.278 37.6031 290.905 39.2113C287.143 40.2834 284.456 40.2834 281.769 37.6031C273.709 30.0982 269.41 45.108 267.26 48.3243C264.573 52.6128 260.274 54.221 254.363 49.3965C248.452 44.5719 240.391 56.3653 238.779 62.798C236.63 71.375 241.466 79.416 238.779 86.9209C237.167 91.2094 233.406 89.6012 229.107 86.9209C225.345 84.7766 221.583 89.6012 220.509 93.8897C218.359 102.467 226.42 115.868 222.658 122.301C217.822 130.342 214.06 113.188 208.686 130.342C206.537 137.847 203.313 159.289 209.761 164.114C216.21 168.939 236.63 160.898 243.078 157.145Z" fill="#32AA60"/>
<path d="M157.636 157.145C142.052 148.032 159.785 148.568 153.337 141.599C147.963 136.239 133.454 141.063 125.393 136.775C121.631 134.631 117.332 130.342 120.557 127.126C124.318 123.373 127.005 120.157 122.706 118.013C116.258 113.724 107.122 116.404 99.0617 112.116C93.1506 108.899 84.0152 98.1782 89.9263 93.8897C96.3748 89.0651 95.8375 84.7766 92.0758 81.0242C89.389 78.3439 75.4172 70.3029 84.5526 64.4062C87.7768 62.262 88.8516 59.5817 88.3142 55.8292C87.7768 50.4686 84.0152 39.7473 89.389 35.4588C94.7627 31.1703 104.435 37.6031 109.809 39.2113C113.571 40.2834 116.258 40.2834 118.945 37.6031C127.005 30.6342 131.304 45.644 133.454 48.8604C136.141 53.1489 140.44 54.7571 146.351 49.9325C152.262 45.108 160.322 56.9013 161.935 63.3341C164.084 71.9111 159.248 79.9521 161.935 87.4569C163.547 91.7455 167.308 90.1373 171.607 87.4569C175.369 85.3127 179.131 90.1373 180.205 94.4258C182.355 103.003 174.294 116.404 178.056 122.837C182.892 130.878 186.654 113.724 192.028 130.878C194.177 138.383 197.401 159.825 190.953 164.65C184.504 168.939 164.084 160.898 157.636 157.145Z" fill="#32AA60"/>
</g>
<defs>
<clipPath id="clip0">
<rect y="0.614746" width="400" height="521.05" fill="white"/>
</clipPath>
</defs>
</svg>
