<svg width="400" height="522" viewBox="0 0 400 522" fill="none" xmlns="http://www.w3.org/2000/svg">
<g clip-path="url(#clip0)">
<path d="M199.746 521.285C122.036 465.01 68.7048 394.033 36.7064 303.79C7.75544 222.166 -3.92653 123.304 1.15258 1.12173V0.614746H398.847V1.12173C403.927 122.797 392.245 222.166 363.294 303.79C331.803 394.033 278.472 465.01 200.762 521.285H199.746Z" fill="#32AB60"/>
<path d="M143.368 20.3868C118.48 21.4008 94.1005 42.694 87.4976 66.5221C53.4676 72.6059 25.5324 98.969 25.0245 136.486C25.0245 170.453 52.4517 209.491 97.148 208.477C139.813 207.463 168.256 173.495 167.748 136.993C167.24 97.448 136.765 72.0989 107.306 67.0291C111.877 50.8057 123.051 39.1451 139.813 39.1451C165.716 39.1451 191.112 70.578 192.635 85.7874C193.651 95.9271 193.651 114.178 192.127 126.346C188.064 154.737 186.54 171.974 187.556 192.254C189.08 218.617 188.572 238.896 190.604 266.273C193.143 299.227 182.985 329.139 177.906 358.037C176.89 363.107 160.129 350.939 160.637 348.911C166.224 328.632 174.351 307.339 175.366 286.045C176.382 262.724 169.779 231.798 161.145 210.505C144.892 231.291 137.781 248.022 136.257 268.808C127.115 250.05 111.877 236.361 95.1163 230.784C95.1163 251.064 94.6084 266.78 105.782 285.031C86.4818 257.654 70.7366 243.966 47.8805 236.361C50.4201 273.371 80.3869 303.79 91.5609 312.915C81.9106 308.859 67.6891 313.929 62.61 315.45C69.7207 329.646 88.5135 341.306 110.354 346.883C99.1796 349.925 90.0372 356.009 87.4976 366.148C102.735 372.232 116.449 372.739 131.686 369.19C145.907 366.148 150.479 367.669 156.066 373.753L171.303 390.991C176.382 396.567 170.287 399.102 167.24 400.623C162.161 404.172 149.463 404.172 152.51 411.27C158.097 425.465 155.05 435.605 157.589 436.112C160.637 436.619 164.192 436.112 167.24 436.112C168.256 441.689 163.684 448.28 158.097 452.335C155.558 454.363 160.637 458.926 162.669 457.912C172.319 453.349 177.906 445.238 181.969 432.563C182.985 430.028 195.683 428 194.667 429.014C190.604 434.084 190.604 438.647 190.604 445.238C190.604 456.898 187.556 466.531 182.985 476.164C181.969 478.191 188.064 482.247 190.604 481.233C196.699 475.15 200.762 467.545 201.27 459.94C202.794 444.224 202.286 436.112 205.333 426.479C207.365 421.409 225.142 415.833 225.142 419.382C225.142 421.409 228.189 423.437 228.697 428.507C229.205 436.112 231.745 437.633 237.332 440.168C238.855 440.675 245.458 434.084 243.934 432.056C236.316 423.944 241.903 417.861 233.776 413.805L261.711 403.665C264.759 402.651 263.743 370.204 259.68 371.218L214.983 382.372C227.681 370.711 234.792 361.586 245.966 348.911C257.648 335.223 282.536 335.73 301.328 333.702C315.55 332.181 330.279 326.097 336.374 320.013C332.311 314.436 324.692 310.38 315.55 309.873C331.803 294.664 346.025 282.496 352.12 263.231C337.898 265.766 328.756 269.822 307.423 283.003C321.645 263.231 333.835 240.924 337.39 220.138C318.597 227.235 296.249 247.008 281.52 267.794C279.996 250.557 276.441 232.305 268.314 216.082C258.156 232.812 255.616 255.119 254.601 276.413C246.982 253.598 241.395 230.784 226.158 209.491C212.952 254.612 227.173 293.143 235.3 323.055C231.237 329.646 223.618 343.334 212.952 352.46C210.412 354.488 209.904 349.925 210.412 347.39C213.46 315.957 212.444 280.468 210.412 249.036C206.857 195.803 206.349 143.583 210.412 92.8852C211.936 74.6339 231.237 42.694 256.632 42.694C273.393 42.694 282.536 50.2987 287.107 66.5221C257.648 71.592 227.173 96.4341 226.665 136.486C226.157 172.988 254.601 206.956 297.265 207.97C342.469 208.984 369.896 169.946 369.389 135.472C368.881 98.462 340.946 71.592 307.423 66.0152C302.344 39.1451 277.457 25.4566 252.569 24.4426C229.205 23.4287 213.46 44.7219 203.301 55.3685C191.112 39.6521 166.224 19.3728 143.368 20.3868Z" fill="white"/>
<path d="M75.3077 82.7456C77.3393 79.7037 63.1178 84.2665 56.515 90.8573C41.7855 105.56 37.7222 118.234 37.2143 126.346C36.7064 141.048 54.9912 133.444 56.515 124.825C58.0387 116.206 59.5624 110.123 63.1178 102.518C66.6732 95.4201 70.2286 90.8573 75.3077 82.7456Z" fill="#32AB60"/>
<path d="M132.194 86.2944C136.257 88.3224 139.305 91.8712 142.352 94.9131C152.002 105.053 156.574 118.741 159.113 128.881C161.145 136.486 145.907 136.993 142.86 126.853C140.828 118.741 139.305 111.644 136.765 103.532C135.749 99.476 127.623 84.2665 132.194 86.2944Z" fill="#32AB60"/>
<path d="M107.306 81.7314C112.385 84.2664 115.941 88.3222 118.48 91.3641C128.131 102.011 129.146 112.15 129.654 123.304C130.162 134.965 108.83 134.965 107.306 125.332C105.782 116.713 105.274 110.629 105.274 102.011C104.767 95.9269 102.735 79.1965 107.306 81.7314Z" fill="#32AB60"/>
<path d="M92.0688 80.718C88.0055 80.211 82.9264 88.8297 80.3868 92.8855C76.3235 100.49 69.2128 113.165 69.2128 123.304C68.7049 136.993 90.0372 135.472 93.0846 125.332C95.1163 118.235 95.6242 106.574 95.6242 93.8995C95.6242 89.8436 95.1163 81.2249 92.0688 80.718Z" fill="#32AB60"/>
<path d="M326.724 85.2805C338.406 85.2805 355.167 120.769 355.675 130.402C356.183 143.583 341.961 139.021 339.422 131.416C336.374 121.783 334.343 114.178 331.295 104.039C329.771 98.462 322.661 85.2805 326.724 85.2805Z" fill="#32AB60"/>
<path d="M260.188 87.8153C244.95 99.4758 238.347 117.22 236.316 129.895C234.284 141.048 251.045 138.513 253.077 129.388C254.601 120.262 258.664 104.039 263.743 94.913C264.759 91.3641 268.314 82.2385 260.188 87.8153Z" fill="#32AB60"/>
<path d="M289.138 80.2108C284.059 78.1829 276.949 87.8155 272.377 99.4761C268.822 108.095 266.282 116.713 266.282 123.304C265.775 137.5 285.075 136.486 288.123 124.318C289.138 120.262 290.662 113.672 291.17 106.574C291.678 94.9133 293.202 81.7317 289.138 80.2108Z" fill="#32AB60"/>
<path d="M305.9 81.2245C313.01 80.7175 318.089 94.406 320.121 101.504C322.661 109.109 323.169 116.206 323.676 123.304C324.184 136.993 305.392 137.5 302.344 127.36C300.82 122.29 300.82 114.685 300.82 105.56C300.82 97.4479 300.82 81.2245 305.9 81.2245Z" fill="#32AB60"/>
</g>
<defs>
<clipPath id="clip0">
<rect y="0.614746" width="400" height="520.67" fill="white"/>
</clipPath>
</defs>
</svg>
