<svg width="400" height="522" viewBox="0 0 400 522" fill="none" xmlns="http://www.w3.org/2000/svg">
<g clip-path="url(#clip0)">
<path d="M199.732 521.871C121.882 465.562 68.7301 394.238 36.5166 304.145C7.52452 222.095 -3.75019 123.421 1.08183 1.15102V0.614746H398.918V1.15102C403.75 122.885 392.475 222.095 363.483 303.608C331.807 393.702 278.118 465.026 200.268 521.335H199.732V521.871Z" fill="#32AC60"/>
<path d="M306.573 414.08C296.909 411.399 287.245 403.355 270.065 389.948C252.347 376.005 241.073 355.091 241.073 320.233C217.449 323.45 198.658 323.451 179.867 311.653C160.539 299.318 150.875 281.085 150.875 246.227C127.252 249.445 108.461 249.445 89.6693 237.647C70.3413 225.313 60.6772 207.08 60.6772 172.222C40.2754 174.903 23.0948 175.439 5.91432 166.859C5.91432 167.932 2.15608 136.292 0.54541 98.2163C12.357 107.869 26.3162 114.841 35.9802 119.667C55.3083 130.393 73.5626 131.465 97.1858 128.248C97.1858 163.105 106.85 181.338 126.178 193.673C144.969 205.471 163.76 205.471 187.384 202.253C187.384 237.111 197.048 255.344 216.376 267.678C235.167 279.476 253.958 279.476 277.581 276.259C277.581 298.246 281.876 312.725 289.393 323.987C302.278 341.147 306.036 350.8 336.639 365.816C327.512 382.44 316.774 399.601 306.573 414.08Z" fill="#D8D8D8"/>
<path d="M23.0947 0.614746H89.1323C93.9644 11.3402 100.944 18.848 110.608 24.747C129.399 36.545 148.19 36.545 171.814 33.3273C171.814 68.185 181.478 86.4182 200.806 98.7525C219.597 110.55 238.388 110.55 262.011 107.333C262.011 142.191 271.675 160.424 291.003 172.758C309.795 184.556 328.586 184.556 352.209 181.338C351.672 216.732 359.725 237.111 379.054 251.054C374.758 270.359 369.39 287.52 363.484 303.608C363.484 303.608 358.652 304.681 344.693 295.564C325.364 283.23 316.774 260.17 316.237 224.776C292.614 228.53 273.823 229.067 255.032 216.732C235.704 204.398 226.04 186.165 226.04 151.307C202.416 154.525 183.625 154.525 164.834 142.727C145.506 130.393 135.842 112.159 135.842 77.3016C112.219 80.5192 93.4275 77.8379 74.6363 68.7213C54.7713 58.5321 29.5374 34.3999 23.0947 0.614746Z" fill="#D8D8D8"/>
</g>
<defs>
<clipPath id="clip0">
<rect y="0.614746" width="400" height="521.26" fill="white"/>
</clipPath>
</defs>
</svg>
