<svg width="400" height="470" viewBox="0 0 400 470" fill="none" xmlns="http://www.w3.org/2000/svg">
<g clip-path="url(#clip0)">
<path d="M296.769 0.614746C296.769 0.614746 318.476 0.614746 400 0.614746C400 180.44 344.822 295.912 344.822 295.912C302.9 385.081 200 469.617 200 469.617C200 469.617 97.1003 385.081 55.1781 295.912C55.1781 295.912 0 180.44 0 0.614746C81.5244 0.614746 103.231 0.614746 103.231 0.614746H296.769V0.614746Z" fill="#EE3124"/>
<path d="M42.9162 163.07C48.0529 156.287 73.0736 125.847 128.252 106.326C128.252 106.326 128.749 105.003 137.034 109.966C145.153 114.763 154.598 117.245 164.706 116.914C165.203 116.914 165.534 116.418 165.369 115.921C163.712 112.778 158.243 102.356 156.089 97.7238C155.924 97.2275 155.427 96.8966 154.929 96.5657L144.325 92.099C144.325 92.099 144.159 92.099 144.159 91.9336C143.993 91.7682 143.496 91.7682 142.502 92.4299C142.336 92.5953 142.005 92.5953 141.839 92.2645L139.851 89.2867C139.519 88.9558 139.188 88.6249 138.691 88.6249H136.205C136.04 88.6249 136.04 88.4595 136.04 88.2941C136.371 87.6324 137.531 85.978 140.679 84.4891C143.828 82.8348 152.61 84.3237 155.758 84.9854C156.421 85.1509 157.249 84.9854 157.746 84.4891C161.723 81.6768 178.956 72.4125 200.166 100.536C200.166 100.536 228.5 89.6175 241.425 50.7408C241.756 49.9137 242.253 49.2519 242.916 48.7556C250.704 43.1309 298.426 11.6987 369.18 20.3012C369.511 20.3012 369.677 20.9629 369.345 21.1284L280.033 80.8496C279.536 81.1805 279.039 81.6768 278.542 82.3385L239.271 140.405C239.271 140.405 245.402 150.993 249.047 163.566L279.039 180.275C279.039 180.275 271.748 197.314 242.419 199.796L233.471 176.139C233.471 176.139 221.044 170.349 211.268 163.07L126.595 155.956C126.595 155.956 56.3379 165.717 43.7447 165.055C42.9162 164.724 42.4191 163.731 42.9162 163.07Z" fill="#D7D8D6"/>
<path d="M174.482 89.6175C173.819 90.2793 173.322 90.941 172.328 91.2719C171.334 91.6027 169.843 91.4373 169.18 90.6101C168.517 89.9484 168.517 88.9558 168.848 88.1286C169.18 87.3015 170.34 86.6398 171.5 86.8052C173.985 86.8052 175.476 88.4595 176.636 90.2793C176.802 90.6101 176.802 90.941 176.471 91.2719C176.139 91.6027 175.808 91.2719 175.642 90.941C175.476 90.4447 175.145 89.9484 174.482 89.6175Z" fill="black"/>
<path d="M242.419 200.127C242.253 200.127 241.922 199.961 241.922 199.796L232.974 176.304C231.317 175.477 220.05 170.183 210.936 163.401L126.595 156.287C122.949 156.783 56.1723 165.882 43.7448 165.386C43.082 165.386 42.5849 165.055 42.4192 164.393C42.0878 163.897 42.2535 163.235 42.5849 162.739C45.2361 159.265 52.6926 150.001 66.6114 139.082C84.0099 125.351 104.722 114.267 128.086 105.83C128.086 105.83 128.252 105.665 128.418 105.665C129.577 105.334 132.56 106.492 137.531 109.469C145.816 114.267 155.261 116.749 164.872 116.252H165.037V116.087C163.38 112.944 157.912 102.521 155.758 97.8892C155.592 97.5583 155.261 97.2275 154.93 97.062L144.325 92.5953C144.159 92.5953 144.159 92.4299 144.159 92.4299C144.159 92.4299 143.828 92.4299 142.999 92.9262C142.833 93.0916 142.502 93.0916 142.171 93.0916C141.839 93.0916 141.674 92.9262 141.508 92.5953L139.519 89.6175C139.354 89.2867 139.022 89.2867 138.857 89.2867H136.371C136.04 89.2867 135.874 89.1212 135.708 88.9558C135.543 88.7904 135.543 88.4595 135.708 88.2941C136.04 87.6324 137.365 85.8126 140.514 84.1583C143.828 82.5039 152.444 83.8274 155.924 84.6546C156.421 84.82 157.084 84.6546 157.581 84.3237C159.569 83.0002 165.037 79.857 172.659 80.6842C182.104 81.6768 191.384 88.2941 200.331 100.205C201.823 99.5435 208.119 96.5657 215.576 90.1138C223.529 83.1657 234.3 70.9236 240.928 50.9063C241.259 49.9137 241.756 49.0865 242.585 48.5902C246.396 45.9433 260.315 36.5136 282.187 28.9037C294.615 24.6025 307.539 21.6247 320.63 19.9703C336.537 17.9851 352.941 17.9851 369.18 19.9703C369.511 19.9703 369.843 20.3012 370.008 20.7975C370.174 21.1284 370.008 21.6247 369.677 21.7901L280.365 81.5113C279.867 81.8422 279.37 82.3385 279.039 82.8348L239.934 140.571C240.928 142.391 246.23 152.151 249.544 163.401L279.205 179.944C279.37 180.109 279.536 180.44 279.37 180.606C279.37 180.771 277.382 185.072 271.914 189.539C266.943 193.509 257.664 198.803 242.419 200.127ZM126.595 155.129L211.268 162.243C211.433 162.243 211.433 162.243 211.599 162.408C221.21 169.522 233.637 175.312 233.637 175.312C233.803 175.312 233.803 175.477 233.968 175.643L242.916 198.969C251.201 198.307 262.635 195.825 271.417 188.546C275.725 184.907 277.879 181.433 278.376 180.275L248.881 163.731C248.716 163.731 248.716 163.566 248.55 163.401C245.07 150.993 238.939 140.405 238.939 140.405C238.774 140.24 238.774 140.075 238.939 139.909L278.21 81.8422C278.708 81.1805 279.205 80.6842 279.867 80.1879L369.014 20.6321C352.941 18.6469 336.703 18.6469 320.961 20.6321C307.871 22.2864 295.112 25.2642 282.85 29.5654C261.143 37.0099 247.224 46.4396 243.413 49.0865C242.751 49.5828 242.253 50.0791 242.088 50.9063C235.294 71.0891 224.358 83.662 216.404 90.6101C207.788 98.2201 200.828 100.867 200.497 101.032C200.331 101.198 200 101.032 199.834 100.867C190.886 88.9558 181.773 82.5039 172.659 81.3459C165.369 80.5187 160.232 83.4965 158.244 84.82C157.581 85.3163 156.587 85.4817 155.758 85.3163C153.107 84.82 143.993 83.1657 141.011 84.82C138.691 85.978 137.531 87.1361 137.034 87.9632H138.691C139.354 87.9632 140.017 88.2941 140.348 88.7904L142.336 91.7682C143.331 91.1064 143.993 90.941 144.656 91.1064H144.822L155.427 95.5731C156.089 95.904 156.587 96.4003 156.918 96.8966C159.072 101.529 164.54 111.951 166.197 115.094C166.363 115.425 166.363 115.921 166.197 116.252C166.031 116.583 165.534 116.914 165.203 116.914C155.261 117.245 145.65 114.929 137.2 109.966C130.903 106.326 129.246 106.161 129.08 106.326L128.915 106.492C105.551 114.763 84.8384 125.847 67.6056 139.578C53.5211 150.662 45.8989 159.926 43.4134 163.401C43.2477 163.566 43.2477 163.731 43.4134 163.897C43.4134 164.062 43.5791 164.228 43.9105 164.228C44.2419 164.228 44.739 164.228 45.2361 164.228C60.4805 164.228 125.766 155.294 126.595 155.129C126.595 155.129 126.429 155.129 126.595 155.129ZM128.915 106.492C128.915 106.492 128.749 106.492 128.915 106.492C128.749 106.492 128.915 106.492 128.915 106.492Z" fill="black"/>
<path d="M210.936 163.235C197.349 155.129 185.584 142.722 178.127 133.788C170.008 124.028 165.037 116.252 165.037 116.087L165.866 115.591C165.866 115.591 170.837 123.531 178.956 133.126C186.412 142.06 198.011 154.302 211.433 162.408L210.936 163.235Z" fill="black"/>
<path d="M155.758 97.5583C155.592 97.5583 155.427 97.3929 155.261 97.2275C155.095 96.8966 155.261 96.5658 155.427 96.5658L160.729 93.4225C156.421 92.2645 142.171 88.2941 141.011 88.4595C140.017 88.625 139.022 89.1213 139.022 89.1213C138.691 89.2867 138.36 89.1213 138.36 88.9558C138.194 88.625 138.36 88.2941 138.525 88.2941C138.525 88.2941 139.685 87.6324 140.845 87.4669C141.011 87.4669 141.674 87.3015 151.616 89.9484C156.421 91.2719 161.558 92.5954 162.22 92.9262C162.386 92.9262 162.552 93.0917 162.552 93.4225C162.552 93.588 162.552 93.7534 162.22 93.9188L155.924 97.7238C155.924 97.5583 155.924 97.5583 155.758 97.5583Z" fill="black"/>
<path d="M162.055 93.7534C161.889 93.7534 161.723 93.588 161.558 93.4225L156.587 84.9854C156.421 84.6546 156.587 84.3237 156.752 84.3237C157.084 84.1583 157.415 84.3237 157.415 84.4891L162.386 92.9262C162.552 93.2571 162.386 93.5879 162.22 93.5879C162.22 93.7534 162.22 93.7534 162.055 93.7534Z" fill="black"/>
<path d="M238.774 178.786H238.608L233.306 176.304C232.974 176.139 232.974 175.808 232.974 175.643C233.14 175.312 233.471 175.312 233.637 175.312L238.939 177.793C239.271 177.959 239.271 178.29 239.271 178.455C239.105 178.786 238.939 178.786 238.774 178.786Z" fill="black"/>
<path d="M235.46 145.865C235.294 145.865 235.294 145.865 235.128 145.699C234.963 145.534 234.797 145.203 234.963 144.872L238.939 139.744C239.105 139.578 239.437 139.413 239.768 139.578C239.934 139.744 240.099 140.075 239.934 140.405L235.957 145.534C235.791 145.865 235.625 145.865 235.46 145.865Z" fill="black"/>
<path d="M197.514 102.19C197.349 102.19 197.017 102.025 197.017 101.86C196.852 101.529 197.017 101.198 197.349 101.198L200 100.205C200.331 100.04 200.663 100.205 200.663 100.536C200.828 100.867 200.663 101.198 200.331 101.198L197.68 102.19C197.68 102.19 197.514 102.19 197.514 102.19Z" fill="black"/>
<path d="M86.1639 308.982C90.3064 303.357 110.853 278.376 156.421 262.329C156.421 262.329 156.752 261.337 163.711 265.307C170.34 269.278 178.127 271.263 186.412 270.932C186.91 270.932 187.075 270.436 186.91 270.105C185.584 267.458 181.11 259.021 179.287 255.05C179.122 254.72 178.79 254.389 178.293 254.058L169.511 250.253C169.511 250.253 169.345 250.253 169.345 250.087C169.18 250.087 168.848 249.922 168.02 250.584C167.854 250.749 167.523 250.749 167.357 250.418L165.7 247.937C165.534 247.606 165.037 247.441 164.706 247.441H162.552C162.386 247.441 162.386 247.275 162.386 247.275C162.717 246.779 163.711 245.455 166.197 244.132C168.848 242.808 175.973 243.966 178.625 244.463C179.287 244.628 179.784 244.463 180.282 244.132C183.596 241.816 197.68 234.206 215.079 257.367C215.079 257.367 238.442 248.433 249.047 216.339C249.213 215.677 249.71 215.016 250.373 214.685C256.835 210.053 296.106 184.08 354.267 191.193C354.598 191.193 354.764 191.69 354.432 191.855L281.193 241.32C280.696 241.65 280.364 241.981 280.033 242.478L247.721 290.122C247.721 290.122 252.858 298.89 255.675 309.147L280.364 322.878C280.364 322.878 274.399 336.94 250.207 338.925L242.75 319.404C242.75 319.404 232.477 314.772 224.523 308.651L154.929 302.695C154.929 302.695 97.1001 310.636 86.8267 310.14C86.1639 310.305 85.6668 309.478 86.1639 308.982Z" fill="#D7D8D6"/>
<path d="M194.2 248.599C193.703 249.095 193.206 249.757 192.378 250.087C191.549 250.418 190.389 250.087 189.727 249.591C189.229 248.929 189.229 248.268 189.561 247.606C189.892 246.944 190.886 246.448 191.715 246.448C193.703 246.448 195.029 247.771 196.023 249.426C196.189 249.591 196.189 249.922 195.857 250.253C195.526 250.418 195.36 250.253 195.195 250.087C195.029 249.26 194.698 248.929 194.2 248.599Z" fill="black"/>
<path d="M250.207 339.421C250.041 339.421 249.71 339.256 249.71 339.09L242.419 319.735C240.928 319.073 231.649 314.606 224.358 309.147L154.929 303.357C151.781 303.853 96.9344 311.297 86.8267 310.801C86.3296 310.801 85.8325 310.47 85.6668 309.974C85.5011 309.478 85.5011 308.981 85.8325 308.485C87.9866 305.673 94.1175 297.897 105.551 288.964C119.801 277.715 136.868 268.45 156.089 261.668L156.255 261.502C156.586 261.337 157.581 261.006 163.877 264.645C170.671 268.616 178.459 270.601 186.412 270.27C185.087 267.789 180.613 259.186 178.79 255.216C178.625 254.885 178.459 254.719 178.127 254.554L169.345 250.749C169.345 250.749 169.18 250.749 169.18 250.584C169.18 250.584 168.848 250.584 168.351 251.08C168.185 251.245 167.854 251.245 167.688 251.245C167.357 251.245 167.191 251.08 167.026 250.915L165.369 248.433C165.203 248.268 165.037 248.102 164.871 248.102H162.717C162.552 248.102 162.22 247.937 162.055 247.771C161.889 247.606 161.889 247.275 162.055 247.11C162.386 246.613 163.38 245.124 166.031 243.635C168.683 242.312 175.808 243.47 178.79 243.966C179.287 244.132 179.784 243.966 180.116 243.635C181.773 242.477 186.247 239.831 192.543 240.658C200.331 241.485 207.954 246.944 215.41 256.705C216.736 256.043 221.872 253.727 227.838 248.433C234.3 242.808 243.082 232.551 248.55 216.174C248.881 215.346 249.379 214.685 250.041 214.188C253.19 212.038 264.623 204.262 282.684 197.976C305.551 190.035 329.577 187.554 354.267 190.532C354.598 190.532 354.929 190.862 355.095 191.193C355.261 191.524 355.095 192.02 354.764 192.186L281.359 241.319C280.862 241.65 280.53 241.981 280.364 242.312L248.219 289.791C249.047 291.446 253.355 299.386 256.007 308.485L280.364 322.216C280.53 322.381 280.696 322.712 280.53 322.878C280.53 323.043 278.873 326.517 274.399 330.322C270.422 334.127 262.8 338.428 250.207 339.421ZM154.929 302.364L224.524 308.32C224.689 308.32 224.689 308.32 224.855 308.485C232.809 314.441 242.916 319.073 243.082 319.073C243.248 319.073 243.248 319.238 243.413 319.404L250.704 338.594C257.498 337.932 266.943 335.947 274.068 329.991C277.548 327.179 279.205 324.367 279.702 323.374L255.509 309.809C255.344 309.809 255.344 309.643 255.178 309.478C252.361 299.386 247.224 290.618 247.224 290.618C247.059 290.453 247.059 290.288 247.224 290.122L279.536 242.477C279.867 241.981 280.364 241.485 280.862 241.154L353.935 192.351C329.577 189.374 305.882 191.855 283.347 199.796C265.451 205.917 254.018 213.692 251.036 215.843C250.538 216.174 250.207 216.67 250.041 217.332C244.573 234.04 235.46 244.297 228.997 250.087C221.872 256.374 216.073 258.524 215.907 258.69C215.741 258.855 215.41 258.69 215.244 258.524C207.953 248.764 200.497 243.47 192.875 242.477C186.91 241.816 182.601 244.297 181.11 245.29C180.447 245.786 179.784 245.952 178.956 245.786C176.802 245.29 169.345 244.132 166.86 245.29C165.203 246.117 164.209 247.11 163.712 247.606H165.037C165.534 247.606 166.197 247.937 166.528 248.433L168.02 250.749C168.848 250.253 169.511 250.087 169.842 250.253C169.842 250.253 169.842 250.253 170.008 250.253L178.79 254.058C179.287 254.223 179.784 254.719 179.95 255.216C181.773 259.021 186.247 267.623 187.572 270.105C187.738 270.436 187.738 270.766 187.572 271.097C187.407 271.428 187.075 271.594 186.578 271.594C178.459 271.924 170.505 269.939 163.546 265.803C158.575 262.826 157.249 262.826 156.918 262.826C156.918 262.826 156.752 262.826 156.752 262.991C137.531 269.774 120.63 278.873 106.379 290.122C95.1117 299.055 88.9808 306.665 86.8267 309.478L86.3296 309.147L86.8267 309.478C86.661 309.643 86.8267 309.809 86.8267 309.809C86.8267 309.809 86.9924 309.974 87.1581 309.974C96.9344 310.305 154.267 302.364 154.929 302.364C154.764 302.364 154.764 302.364 154.929 302.364ZM156.918 262.329C156.918 262.329 156.918 262.495 156.918 262.329C156.918 262.495 156.918 262.329 156.918 262.329Z" fill="black"/>
<path d="M224.192 309.147C202.817 296.243 186.578 270.601 186.412 270.27L187.241 269.774C187.407 270.105 203.645 295.581 224.689 308.32L224.192 309.147Z" fill="black"/>
<path d="M178.956 255.216C178.79 255.216 178.625 255.05 178.459 254.885C178.293 254.554 178.459 254.223 178.625 254.223L182.767 251.742C179.122 250.584 167.854 247.771 166.694 247.771C165.866 247.937 165.037 248.433 165.037 248.433C164.706 248.599 164.374 248.433 164.374 248.268C164.209 247.937 164.374 247.606 164.54 247.606C164.54 247.606 165.534 247.11 166.529 246.944C167.688 246.779 184.093 251.245 184.258 251.411C184.424 251.411 184.59 251.576 184.59 251.907C184.59 252.073 184.59 252.238 184.258 252.404L179.122 255.547C179.122 255.05 178.956 255.216 178.956 255.216Z" fill="black"/>
<path d="M184.093 252.073C183.927 252.073 183.761 251.907 183.596 251.742L179.619 244.793C179.453 244.463 179.619 244.132 179.785 244.132C179.95 244.132 180.447 244.132 180.447 244.297L184.424 251.245C184.59 251.576 184.424 251.907 184.258 251.907C184.258 252.073 184.093 252.073 184.093 252.073Z" fill="black"/>
<path d="M247.059 322.051H246.893L242.419 320.066C242.088 319.9 242.088 319.569 242.088 319.404C242.253 319.073 242.585 319.073 242.75 319.073L247.224 321.058C247.556 321.224 247.556 321.554 247.556 321.72C247.556 321.885 247.39 322.051 247.059 322.051Z" fill="black"/>
<path d="M244.408 294.92C244.242 294.92 244.242 294.92 244.076 294.754C243.91 294.589 243.745 294.258 243.91 293.927L247.224 289.626C247.39 289.46 247.722 289.295 248.053 289.46C248.219 289.626 248.384 289.957 248.219 290.288L244.905 294.589C244.739 294.92 244.573 294.92 244.408 294.92Z" fill="black"/>
<path d="M213.256 259.021C213.09 259.021 212.759 258.855 212.759 258.69C212.593 258.359 212.759 258.028 213.09 258.028L215.244 257.201C215.576 257.036 215.907 257.201 215.907 257.532C216.073 257.863 215.907 258.194 215.576 258.194L213.422 259.021H213.256Z" fill="black"/>
</g>
<defs>
<clipPath id="clip0">
<rect y="0.614746" width="400" height="469" fill="white"/>
</clipPath>
</defs>
</svg>
