<svg width="400" height="488" viewBox="0 0 400 488" fill="none" xmlns="http://www.w3.org/2000/svg">
<g clip-path="url(#clip0)">
<path d="M400 0.614746L399.412 12.6317C399.207 16.8281 399.002 21.2414 398.789 25.8548V25.855C396.264 80.4565 392.444 163.081 369.854 245.846C345.33 335.698 298.301 427.213 205.421 483.736L199.465 487.361L193.509 483.736C100.628 427.213 53.597 335.696 29.1922 245.832C6.21892 161.239 2.96225 76.8269 0.856038 22.2343L0.855947 22.232C0.726762 18.8835 0.601906 15.6473 0.477092 12.5301L0 0.614746H400Z" fill="#1DA7E0"/>
<path d="M193.009 24.5938H206.508L209.883 31.8182L215.668 41.4506L219.525 49.1566L223.864 53.9729L229.65 56.381L244.113 62.1605L261.469 66.9767L271.111 69.3848L281.717 70.8297L289.431 71.7929H292.806L306.787 60.234L312.572 54.9361H318.839L322.214 56.8626L325.589 61.1972L326.071 70.3481L321.25 94.9109L315.465 124.772L307.269 157.522L300.037 185.456L295.216 199.905L293.288 204.239L290.395 207.611L280.753 217.243L270.629 229.765L263.397 239.88L254.719 253.847L247.97 268.777L243.149 278.409L235.917 295.266L230.132 311.16L225.793 328.98L222.9 341.984L220.49 354.024L220.007 363.175L220.972 367.991L239.774 427.231H160.226L179.028 367.991L179.993 363.175L179.51 354.024L177.1 341.984L174.207 328.98L169.868 311.16L164.083 295.266L156.851 278.409L152.03 268.777L145.281 253.847L136.603 239.88L129.371 229.765L119.247 217.243L109.605 207.611L106.712 204.239L104.784 199.905L99.9627 185.456L92.7311 157.522L84.5353 124.772L78.2679 94.9109L73.929 70.3481L74.4111 61.1972L77.7858 56.8626L81.1606 54.9361H87.428L93.2133 60.234L106.712 71.7929H110.569L118.283 70.8297L128.889 69.3848L138.531 66.9767L155.887 62.1605L170.35 56.381L176.136 53.9729L180.475 49.1566L184.332 41.4506L190.117 31.8182L193.009 24.5938Z" fill="#86898F"/>
</g>
<defs>
<clipPath id="clip0">
<rect y="0.614746" width="400" height="486.75" fill="white"/>
</clipPath>
</defs>
</svg>
