<svg width="400" height="523" viewBox="0 0 400 523" fill="none" xmlns="http://www.w3.org/2000/svg">
<g clip-path="url(#clip0)">
<rect y="0.614746" width="400" height="521.59" fill="white"/>
<path d="M199.709 521.992C121.895 465.537 68.561 394.236 36.6483 304.047C7.70906 222.276 -3.90223 123.177 1.14434 1.09637L1.16528 0.614746H398.839L398.86 1.09637C403.896 123.177 392.284 222.266 363.356 304.047C331.443 394.236 278.109 465.537 200.295 521.992L200.002 522.201L199.709 521.992Z" fill="#0085CA"/>
<path d="M172.612 479.482C183.246 484.371 170.444 465.651 160.906 447.405C86.0673 304.188 86.0015 156.849 88.1034 66.0892C88.3419 55.6367 71.9227 47.2611 78.1338 41.6577C85.0333 35.4488 122.239 35.8761 133.844 31.6069C138.093 30.0397 134.704 25.0672 129.707 23.5108C122.854 21.3599 109.286 20.8783 92.9313 22.8851C76.4749 24.9104 49.9927 30.032 48.0562 40.6725C20.0565 194.367 87.9186 440.553 172.626 479.479L172.612 479.482Z" fill="white"/>
<path d="M227.388 479.481C216.754 484.371 229.557 465.65 239.094 447.404C313.933 304.188 313.999 156.848 311.897 66.0888C311.658 55.6363 328.077 47.2607 321.866 41.6574C314.967 35.4484 277.761 35.8758 266.156 31.6066C261.907 30.0393 265.296 25.0668 270.294 23.5105C277.146 21.3595 290.715 20.8779 307.069 22.8847C323.525 24.91 350.007 30.0316 351.944 40.6721C379.944 194.366 312.082 440.553 227.374 479.478L227.388 479.481Z" fill="white"/>
<path d="M166.834 62.5821V136.683C175.524 141.97 180.3 146.838 180.16 154.359C179.95 165.796 159.534 178.665 149.472 191.254C136.656 207.298 129.647 224.684 129.637 242.721C129.627 265.875 135.765 288.409 149.472 312.795C169.086 347.677 190.543 403.43 195.039 446.735C198.343 446.735 201.657 446.735 204.961 446.735C209.457 403.43 230.914 347.677 250.528 312.795C264.245 288.409 270.383 265.875 270.363 242.721C270.353 224.684 263.344 207.288 250.528 191.254C240.466 178.665 220.05 165.786 219.84 154.359C219.7 146.838 224.476 141.98 233.166 136.683V62.5821C224.986 58.486 212.541 55.141 200.005 55.141C187.469 55.141 175.024 58.486 166.834 62.5821Z" fill="white"/>
<path d="M212.861 323.621C213.041 317.722 208.245 312.364 201.707 308.889C204.481 277.833 206.363 262.1 209.176 243.171C210.308 235.55 206.673 230.122 200.005 230.122C193.337 230.122 189.702 235.56 190.833 243.171C193.657 262.1 195.529 277.833 198.303 308.889C191.765 312.364 186.959 317.722 187.149 323.621C187.359 330.091 194.148 334.367 200.005 334.367C205.862 334.367 212.651 330.091 212.861 323.621Z" fill="#0085CA"/>
</g>
<defs>
<clipPath id="clip0">
<rect y="0.614746" width="400" height="521.59" fill="white"/>
</clipPath>
</defs>
</svg>
