<svg width="400" height="521" viewBox="0 0 400 521" fill="none" xmlns="http://www.w3.org/2000/svg">
<g clip-path="url(#clip0)">
<path d="M399.965 24.8052C399.94 16.8566 399.924 8.79312 399.916 0.614746H0.0923377C0.0923377 8.81825 0.0761737 16.9104 0.0438747 24.8914C-0.074555 67.5317 -0.192919 107.824 3.13926 141.32C27.0944 382.218 127 462.28 200.002 520.721C272.997 462.291 372.909 382.223 396.859 141.32C400.191 107.792 400.062 67.4832 399.965 24.8052ZM393.634 141.002C390.305 176.03 384.613 210.792 376.597 245.051C376.363 246.034 376.126 247.013 375.886 247.986C375.649 248.966 375.412 249.956 375.17 250.926C368.656 277.525 360.143 303.594 349.702 328.909C349.293 329.89 348.884 330.87 348.464 331.85C348.044 332.83 347.624 333.81 347.199 334.785C337.724 356.866 326.416 378.113 313.393 398.304C277.105 454.31 234.594 488.867 199.996 516.569C165.399 488.872 122.882 454.299 86.5945 398.304C83.2964 393.216 80.1005 388.021 77.007 382.719C76.431 381.744 75.855 380.769 75.2898 379.784C74.7245 378.798 74.1809 377.829 73.621 376.843C55.9441 345.131 41.9193 311.515 31.8154 276.64C31.5247 275.671 31.2448 274.68 30.9595 273.705C30.6742 272.731 30.3942 271.751 30.1142 270.765C18.3529 228.297 10.4028 184.863 6.35835 140.981C3.04232 107.63 3.12846 67.424 3.27381 24.8591C3.29175 17.9408 3.30608 10.9401 3.31685 3.85668H396.67C396.67 10.9544 396.686 17.966 396.719 24.8914C396.832 67.4563 396.95 107.657 393.634 141.002Z" fill="#00AAEF"/>
<path d="M61.187 3.85675L132.702 270.754H194.496L122.986 3.85675H61.187Z" fill="white"/>
<path d="M127.4 273.7L126.614 270.76L55.0989 3.85675H3.32891C3.32891 10.9473 3.31458 17.9481 3.28587 24.8591C3.16744 67.4025 3.05438 107.63 6.37042 140.981C10.4148 184.863 18.3649 228.297 30.1263 270.765C30.4062 271.749 30.688 272.729 30.9715 273.706C31.2568 274.686 31.5367 275.671 31.8274 276.64C41.9313 311.515 55.9561 345.131 73.6331 376.843H155.043L128.197 276.64L127.4 273.7Z" fill="white"/>
<path d="M329.344 3.85675H275.351L210.753 245.04H264.746L329.344 3.85675Z" fill="white"/>
<path d="M396.715 24.8915C396.697 17.9697 396.68 10.9581 396.666 3.85675H335.433L270.835 245.045L270.049 247.98L269.263 250.921L248.371 328.904H349.736C360.176 303.589 368.69 277.52 375.203 250.921C375.446 249.951 375.677 248.96 375.919 247.98C376.162 247 376.393 246.025 376.63 245.045C384.646 210.786 390.339 176.024 393.668 140.997C396.968 107.646 396.838 67.451 396.715 24.8915Z" fill="white"/>
<path d="M269.252 250.921L270.038 247.98L270.824 245.045L335.422 3.85675H329.339L264.741 245.045H210.732L275.33 3.85675H122.975L194.491 270.76H132.692L61.1817 3.85675H55.0989L126.598 270.76L127.384 273.7L128.17 276.635L155.016 376.838H73.6277C74.166 377.818 74.7366 378.804 75.2964 379.778C75.8563 380.753 76.4377 381.739 77.0137 382.714C80.1144 388.005 83.3102 393.2 86.6011 398.298C122.889 454.305 165.405 488.862 200.003 516.563C234.601 488.867 277.112 454.294 313.399 398.298C326.423 378.108 337.731 356.86 347.206 334.78C347.631 333.799 348.051 332.825 348.471 331.845C348.891 330.864 349.3 329.884 349.709 328.904H248.344L269.252 250.921Z" fill="#00AAEF"/>
</g>
<defs>
<clipPath id="clip0">
<rect y="0.614746" width="400" height="520.11" fill="white"/>
</clipPath>
</defs>
</svg>
