<svg width="400" height="487" viewBox="0 0 400 487" fill="none" xmlns="http://www.w3.org/2000/svg">
<g clip-path="url(#clip0)">
<rect y="0.304504" width="400" height="485.984" fill="white"/>
<path d="M0 0.476157C2.62157 88.4035 14.7857 176.323 39.7805 260.762C60.9466 325.062 100.082 381.921 144.756 432.142C162.389 450.842 179.911 469.863 199.723 486.289C204.675 483.89 208.501 478.868 212.848 475.352C269.247 422.169 319.21 360.304 349.873 288.579C366.573 248.736 375.201 206.12 383.327 163.866C393.007 109.901 398.816 55.0117 400 0.304504H0.16399L0 0.476157Z" fill="white"/>
<path d="M0 0.476157C2.62157 88.4035 14.7857 176.323 39.7805 260.762C60.9466 325.062 100.082 381.921 144.756 432.142C162.389 450.842 179.911 469.863 199.723 486.289C204.675 483.89 208.501 478.868 212.848 475.352C269.247 422.169 319.21 360.304 349.873 288.579C366.573 248.736 375.201 206.12 383.327 163.866C393.007 109.901 398.816 55.0117 400 0.304504H0.163992L0 0.476157ZM346.11 90.9188C347.395 90.8055 353.468 91.9897 351.723 93.4951C339.038 98.9626 334.182 109.023 330.9 121.485C322.504 149.786 320.424 179.521 310.967 207.497C298.091 241.189 270.55 271.215 234.626 279.806C214.184 284.568 191.997 281.265 173.432 271.64C170.754 270.099 175.23 270.81 176.109 271.064C189.523 274.806 203.6 274.336 217.363 273.551C244.835 269.404 267.346 249.958 282.625 227.689C288.008 219.438 295.254 206.139 299.402 194.165C303.709 181.732 304.817 170.773 304.817 170.773C304.817 170.773 301.843 170.099 294.55 169.338C287.258 168.577 273.391 167.456 261.015 167.344C256.797 193.922 239.732 217.377 216.966 231.345C196.481 244.985 171.375 248.467 147.323 249.308C146.371 249.432 144.801 249.408 144.801 249.408C144.801 249.408 144.68 252.004 144.56 256.245C143.024 271.392 144.451 288.598 137.103 302.398C133.382 308.382 124.647 314.808 117.751 315.91C119.693 311.865 120.999 309.734 123.067 306.806C132.227 290.539 130.557 271.343 131.579 253.402C131.702 250.745 131.907 248.679 131.907 248.679C131.907 248.679 128.72 248.559 122.945 248.605C106.462 249.483 92.1119 247.736 80.5534 253.414C78.8004 253.815 69.766 260.535 68.1262 259.713C69.5982 252.417 74.5463 245.679 80.7044 241.458C92.395 234.989 106.45 236.231 119.314 234.822C131.623 234.029 131.598 234.047 131.598 234.047C131.598 234.047 132.256 211.263 134.59 200.889C138.617 178.37 149.041 156.927 165.519 140.88C180.571 125.462 202.384 114.885 224.205 115.921C232.026 116.294 239.777 116.344 247.044 119.468C237.254 121.209 226.584 120.255 216.73 123.019C193.023 128.024 173.93 145.583 162.414 166.329C150.383 186.722 147.006 211.033 146.158 234.178C166.439 232.665 187.412 231.123 205.766 221.488C227.38 210.872 246.365 191.41 253.277 168.015C249.9 168.658 246.792 168.712 240.275 170.66C221.996 174.957 203.518 183.383 192.38 199.144C189.032 202.56 187.682 207.854 184.021 210.801C182.529 206.854 184.358 201.976 185.206 197.892C191.821 177.62 211.137 164.412 230.562 157.863C238.829 154.636 247.687 153.312 256.052 150.639C256.771 148.65 256.868 145.728 257.005 143.723C257.323 139.071 257.284 135.433 258.423 131.361C260.362 137.443 261.307 144.073 261.651 150.349C276.768 150.522 308.499 154.218 308.499 154.218C308.499 154.218 309.273 150.249 311.335 141.687C313.396 133.125 316.28 116.448 321.326 104.672C325.638 95.2769 336.103 90.3452 346.11 90.9188Z" fill="#256596"/>
</g>
<defs>
<clipPath id="clip0">
<rect y="0.304504" width="400" height="485.984" fill="white"/>
</clipPath>
</defs>
</svg>
