<svg xmlns="http://www.w3.org/2000/svg" fill="none" viewBox="0 0 400 522">
  <path fill="#0085CA" d="M199.754 521.669C121.958 465.227 68.635 393.942 36.729 303.773 7.797 222.02-3.812 122.943 1.233.89l.021-.482H398.84l.021.482c5.035 122.053-6.574 221.12-35.496 302.883-31.906 90.169-85.228 161.454-163.024 217.896l-.293.209-.293-.209Z"/>
  <path fill="#fff" fill-rule="evenodd" d="M71.409 224.438c35.475.115 60.597-27.394 64.198-47.827 3.601 20.433 28.724 47.942 64.199 47.827 35.475.115 60.597-27.394 64.198-47.827 3.601 20.433 28.723 47.942 64.199 47.827 35.475.115 60.597-27.394 64.198-47.827 6.877-55.678 9.117-114.705 6.103-176.611H.909C-1.153 58.902.029 118.264 7.21 176.611c3.601 20.433 28.724 47.942 64.199 47.827Z" clip-rule="evenodd"/>
  <path stroke="#0085CA" stroke-width="3" d="M397.398 1.908c4.891 120.544-6.505 218.507-34.775 299.45l-.673 1.914c-31.724 89.654-84.672 160.558-161.904 216.754-76.626-55.756-129.348-125.99-161.153-214.65l-.75-2.104C9.37 221.971-2.246 123.403 2.695 1.908h394.703Z"/>
</svg>
