<svg width="401" height="523" viewBox="0 0 401 523" fill="none" xmlns="http://www.w3.org/2000/svg">
<g clip-path="url(#clip0)">
<path d="M400.425 245.279C400.425 358.775 302.378 453.812 200.594 522.662C98.5998 452.921 0.5 358.356 0.5 245.474L0.664748 0.0522461H400.5L400.425 245.279Z" fill="#ED1C24"/>
<path d="M212.321 158.464C217.879 159.331 223.336 160.756 228.609 162.718C246.581 136.433 278.782 92.1233 296.986 65.7038L248.169 174.13C252.242 177.503 255.976 181.265 259.319 185.363C298.552 167.203 321.002 149.733 359.516 132.554L271.151 205.193C272.962 209.912 274.316 214.795 275.195 219.773L378.739 231.702L275.397 243.115C274.762 248.571 273.491 253.935 271.608 259.095L359.508 317.611L261.101 278.191C257.761 282.649 253.933 286.721 249.689 290.33L297.001 391.904L229.605 302.416C224.074 304.729 218.267 306.315 212.329 307.134C212.329 307.134 204.84 396.734 200.706 442.534L189.706 307.037C183.962 306.158 178.326 304.675 172.894 302.611L103.999 391.904L153.244 290.809C148.829 287.035 144.778 282.856 141.143 278.326L38.2202 317.618L130.329 258.586C128.602 253.553 127.317 248.378 126.488 243.122L20.9966 231.71L127.176 219.728C128.033 214.857 129.342 210.076 131.086 205.447L37.4788 132.509L142.783 185.333C146.271 180.967 150.265 177.03 154.682 173.606L103.999 66.1681L174.347 162.471C179.305 160.58 184.455 159.236 189.706 158.464L200.699 36.6558L212.321 158.464Z" fill="#FFCB05"/>
</g>
<defs>
<clipPath id="clip0">
<rect x="0.5" y="0.0522461" width="400" height="522.61" fill="white"/>
</clipPath>
</defs>
</svg>
