<svg width="401" height="495" viewBox="0 0 401 495" fill="none" xmlns="http://www.w3.org/2000/svg">
<g clip-path="url(#clip0)">
<path d="M0.5 0.0522461V181.646C0.5 182.026 0.527141 182.406 0.527141 182.813C0.527141 184.955 0.581421 187.07 0.689984 189.213C0.717125 190.162 0.744266 191.111 0.798547 192.033C0.825688 193.064 0.87997 194.094 0.961393 195.152C0.988533 195.776 1.01567 196.4 1.06996 197.023C1.2328 199.41 1.39564 201.796 1.66705 204.183C1.72133 204.915 1.80276 205.647 1.88418 206.38C2.23701 209.715 2.64412 213.024 3.13265 216.306C3.32264 217.689 3.53976 219.072 3.75689 220.428C3.91973 221.458 4.08257 222.516 4.2997 223.574C4.57111 225.119 4.84252 226.665 5.14106 228.211C5.33105 229.323 5.54817 230.435 5.79244 231.547C6.06385 232.876 6.33526 234.178 6.6338 235.506C6.74237 236.049 6.87807 236.618 7.01377 237.188C7.42088 238.951 7.82799 240.713 8.26225 242.476C8.47937 243.371 8.72364 244.293 8.94076 245.188C9.18503 246.083 9.40216 246.978 9.67357 247.873C9.91783 248.768 10.1621 249.663 10.4064 250.558C10.6506 251.453 10.8949 252.348 11.1663 253.243C11.4106 254.138 11.682 255.006 11.9534 255.928C13.2833 260.348 14.7217 264.769 16.2416 269.108C16.8387 270.816 17.4358 272.498 18.0872 274.179C18.8471 276.24 19.6342 278.301 20.4756 280.363C20.9641 281.637 21.5069 282.912 22.0226 284.186C22.5111 285.38 22.9997 286.546 23.4882 287.712C24.0039 288.932 24.5195 290.153 25.0624 291.346C26.2837 294.112 27.5322 296.851 28.8078 299.59C29.4049 300.865 30.0291 302.167 30.6533 303.441C32.9874 308.269 35.4301 313.015 37.9542 317.679C38.7141 319.09 39.4741 320.5 40.2612 321.883C40.8854 323.049 41.5368 324.161 42.1882 325.3C42.7853 326.358 43.4095 327.443 44.0337 328.5C44.1966 328.771 44.3594 329.07 44.5223 329.341C44.6851 329.612 44.8479 329.883 45.0108 330.182C45.2822 330.67 45.5807 331.185 45.8793 331.673C46.4221 332.622 46.9921 333.544 47.562 334.467C50.059 338.589 52.6102 342.63 55.2157 346.616C55.27 346.725 55.3514 346.833 55.4328 346.942C56.1928 348.108 56.9798 349.301 57.7398 350.44C58.7983 352.04 59.8568 353.586 60.9153 355.132C61.6752 356.217 62.408 357.301 63.1679 358.359C65.3935 361.532 67.6462 364.678 69.9531 367.77C70.7673 368.882 71.5816 369.966 72.3958 371.051C79.3981 380.407 86.6175 389.303 93.8912 397.737C94.9497 398.985 96.0353 400.232 97.121 401.452C108.194 414.117 119.322 425.643 129.961 435.949C130.857 436.79 131.725 437.63 132.594 438.471C135.525 441.291 138.429 444.003 141.252 446.634C142.717 448.017 144.21 449.346 145.649 450.675C149.068 453.767 152.379 456.723 155.609 459.489C156.152 459.977 156.722 460.465 157.265 460.926C157.591 461.225 157.916 461.496 158.242 461.767C159.138 462.526 160.006 463.286 160.875 464.018C162.177 465.13 163.48 466.215 164.729 467.272C166.276 468.574 167.795 469.821 169.288 471.042C170.618 472.127 171.894 473.157 173.142 474.161C174.038 474.893 174.906 475.598 175.775 476.276C175.992 476.466 176.236 476.656 176.453 476.818C178.597 478.527 180.633 480.1 182.533 481.591C183.428 482.269 184.27 482.92 185.111 483.571C185.464 483.842 185.817 484.114 186.143 484.358C186.875 484.927 187.608 485.47 188.287 485.958C188.911 486.419 189.535 486.88 190.132 487.341C190.621 487.721 191.082 488.073 191.544 488.371C192.005 488.697 192.439 488.995 192.846 489.321C193.091 489.51 193.308 489.673 193.552 489.809C193.932 490.08 194.285 490.324 194.61 490.568C194.61 490.595 194.61 490.595 194.638 490.568C194.99 490.812 195.316 491.056 195.615 491.273C195.805 491.409 195.967 491.517 196.103 491.653C196.402 491.87 196.7 492.06 196.945 492.25C197.325 492.521 197.677 492.765 197.976 492.982H198.003C198.302 493.172 198.546 493.361 198.763 493.524C198.79 493.551 198.817 493.551 198.844 493.578C199.062 493.741 199.224 493.85 199.306 493.904C199.36 493.931 199.36 493.958 199.36 493.958L200.446 494.663L201.531 493.958C201.558 493.931 205.06 491.544 211.166 487.043C211.546 486.771 211.926 486.5 212.306 486.202C214.233 484.764 216.377 483.137 218.711 481.347C219.037 481.103 219.336 480.859 219.661 480.615C223.488 477.632 227.804 474.215 232.526 470.337C232.797 470.12 233.042 469.93 233.286 469.713C234.263 468.899 235.267 468.086 236.271 467.245C237.52 466.187 238.768 465.13 240.044 464.045C240.94 463.286 241.862 462.499 242.785 461.713C243.599 461.008 244.441 460.275 245.282 459.543C253.56 452.356 262.571 444.166 271.962 435C272.993 433.996 274.051 432.966 275.083 431.935C281.352 425.725 287.785 419.107 294.244 412.111C295.33 410.944 296.415 409.778 297.474 408.585C298.315 407.663 299.129 406.741 299.971 405.819C305.697 399.391 311.478 392.693 317.151 385.696C319.105 383.282 321.059 380.814 323.013 378.319C327.681 372.326 332.295 366.142 336.774 359.769C337.425 358.874 338.049 357.952 338.701 357.03C340.926 353.83 343.124 350.576 345.296 347.294C346.056 346.128 346.843 344.935 347.576 343.742C348.526 342.277 349.448 340.813 350.371 339.348C350.48 339.158 350.615 338.968 350.697 338.806C351.321 337.829 351.945 336.826 352.542 335.823C352.814 335.389 353.085 334.982 353.329 334.548C354.252 333.056 355.148 331.51 356.043 329.992V329.965C356.043 329.965 356.043 329.938 356.071 329.938C356.885 328.582 357.672 327.226 358.459 325.815C359.029 324.839 359.572 323.863 360.142 322.859C360.739 321.774 361.363 320.69 361.96 319.578C362.367 318.846 362.774 318.086 363.182 317.327C363.941 315.944 364.674 314.561 365.38 313.178C366.33 311.36 367.28 309.516 368.203 307.672C368.718 306.642 369.234 305.611 369.75 304.581C372.626 298.723 375.368 292.729 377.919 286.681C379.14 283.78 380.307 280.851 381.447 277.895C382.044 276.376 382.614 274.857 383.184 273.339C383.564 272.281 383.944 271.25 384.324 270.193C385.057 268.159 385.763 266.125 386.441 264.091C386.902 262.68 387.391 261.27 387.825 259.86C387.907 259.616 387.988 259.372 388.07 259.101C388.422 257.989 388.775 256.877 389.101 255.765C389.264 255.222 389.427 254.707 389.562 254.192C389.969 252.782 390.376 251.371 390.756 249.934C391.136 248.605 391.489 247.303 391.815 245.947C391.951 245.459 392.086 244.944 392.222 244.456C392.466 243.534 392.683 242.612 392.901 241.69C393.145 240.795 393.335 239.927 393.525 239.032C393.769 238.083 393.986 237.106 394.203 236.13C394.312 235.723 394.393 235.289 394.475 234.856C394.692 233.879 394.909 232.876 395.099 231.899C395.316 230.869 395.506 229.838 395.723 228.781C395.967 227.506 396.212 226.231 396.456 224.93C396.7 223.655 396.917 222.353 397.135 221.052C397.352 219.696 397.569 218.34 397.759 216.984C398.003 215.411 398.22 213.811 398.41 212.265C398.573 211.017 398.736 209.77 398.872 208.495C398.98 207.79 399.034 207.085 399.116 206.38C399.279 204.834 399.414 203.288 399.55 201.742C399.631 200.847 399.713 199.925 399.767 199.003C399.876 197.945 399.93 196.888 400.011 195.803C400.337 190.732 400.5 185.606 400.5 180.426V0.0522461H0.5ZM350.642 331.565C295.981 422.009 210.868 482.595 200.446 490.026C190.159 482.92 111.804 426.999 57.3055 342.819L145.974 179.26L164.891 82.388L220.014 64.1363L242.894 156.723L261.295 142.35L350.642 331.565L351.674 333.734L350.642 331.565Z" fill="#006AB7"/>
<path d="M350.642 331.565C295.981 422.009 210.868 482.595 200.446 490.026C190.159 482.92 111.804 426.999 57.3054 342.82L145.974 179.26L164.891 82.3881L220.014 64.1365L242.894 156.724L261.295 142.35L350.642 331.565Z" fill="white"/>
</g>
<defs>
<clipPath id="clip0">
<rect x="0.5" y="0.0522461" width="400" height="494.61" fill="white"/>
</clipPath>
</defs>
</svg>
