<svg width="401" height="523" viewBox="0 0 401 523" fill="none" xmlns="http://www.w3.org/2000/svg">
<g clip-path="url(#clip0)">
<path d="M200.206 522.214C122.538 465.798 68.6717 394.337 36.7276 304.072C7.91536 221.955 -3.35901 122.914 1.65182 0.679091V0.0522461H399.386V0.679091C404.397 122.914 392.497 221.955 363.684 304.072C332.367 394.337 278.5 465.798 200.206 522.214Z" fill="#0281C6"/>
<path d="M200.204 35.1558C205.842 35.1558 218.369 45.8121 235.28 58.9759H211.479L209.6 157.39C209.6 163.032 207.094 165.539 200.204 169.927C192.688 165.539 190.809 163.032 190.809 157.39L188.304 58.9759H164.502C182.04 45.8121 194.567 35.1558 200.204 35.1558Z" fill="#FFDB00"/>
<path d="M200.204 359.861C205.842 359.861 218.369 349.205 235.28 336.041H211.479L209.6 237.626C209.6 231.985 207.094 229.478 200.204 225.09C192.688 229.478 190.809 231.985 190.809 237.626L188.304 336.041H164.502C182.04 349.205 194.567 359.861 200.204 359.861Z" fill="#FFDB00"/>
<path d="M59.9015 116.018C62.4069 111.004 78.0657 105.989 98.7354 97.8398L86.8347 117.899L170.14 169.3C175.151 172.434 176.403 175.569 175.777 183.718C168.261 188.105 165.129 188.732 160.118 185.598L74.3076 137.331L63.0332 158.644C59.9015 137.331 57.396 121.033 59.9015 116.018Z" fill="#FFDB00"/>
<path d="M340.508 116.018C338.002 111.004 322.343 105.989 301.674 97.8398L313.575 117.899L230.269 169.3C225.259 172.434 224.006 175.569 224.632 183.718C232.149 188.105 235.28 188.732 240.291 185.598L326.102 138.585L338.002 158.644C340.508 137.331 343.64 121.033 340.508 116.018Z" fill="#FFDB00"/>
<path d="M340.508 278.998C338.002 284.013 322.343 289.028 301.674 297.177L313.575 277.118L230.269 225.716C225.259 222.582 224.006 219.448 224.632 211.299C232.149 206.911 235.28 206.284 240.291 209.418L326.102 256.432L338.002 236.373C340.508 257.685 343.64 273.983 340.508 278.998Z" fill="#FFDB00"/>
<path d="M59.9015 278.998C62.4069 284.013 78.0657 289.028 98.7354 297.177L86.8347 277.118L170.14 225.716C175.151 222.582 176.403 219.448 175.777 211.299C168.261 206.911 165.129 206.284 160.118 209.418L74.3076 257.685L63.0332 236.373C59.9015 257.685 57.396 273.983 59.9015 278.998Z" fill="#FFDB00"/>
</g>
<defs>
<clipPath id="clip0">
<rect x="0.5" y="0.0522461" width="400" height="522.16" fill="white"/>
</clipPath>
</defs>
</svg>
