<svg width="401" height="450" viewBox="0 0 401 450" fill="none" xmlns="http://www.w3.org/2000/svg">
<g clip-path="url(#clip0)">
<path d="M200.5 449.927C122.287 401.117 69.3601 339.369 37.0162 261.744C8.20069 191.175 -3.56073 105.905 1.73191 0.640317V0.0522461H399.268V0.640317C404.561 105.905 392.799 191.175 363.984 261.744C331.64 339.369 278.713 401.117 200.5 449.927Z" fill="#E13D00"/>
<path d="M190.503 177.062C193.443 183.531 196.383 191.176 196.383 204.702V238.81C192.855 232.929 188.15 228.224 181.094 222.344C163.451 207.642 155.807 206.466 146.397 206.466C135.812 206.466 127.579 212.935 127.579 220.579C127.579 231.753 134.636 231.165 134.636 241.75C134.636 252.923 126.991 252.335 127.579 262.921C127.579 270.566 135.812 277.034 146.397 277.034C155.218 277.034 162.863 275.858 181.094 261.156C166.392 278.799 165.216 286.443 165.216 295.853C165.216 306.438 171.684 314.671 179.329 314.671C190.503 314.671 189.915 307.614 200.5 307.614C211.085 307.614 211.085 315.259 221.671 314.671C229.315 314.671 235.784 306.438 235.784 295.853C235.784 287.032 234.608 279.387 219.906 261.156C237.548 275.858 245.193 277.034 254.603 277.034C265.188 277.034 273.421 270.566 273.421 262.921C273.421 251.747 266.364 252.335 266.364 241.75C266.364 230.577 274.009 231.165 273.421 220.579C273.421 212.935 265.188 206.466 254.603 206.466C245.781 206.466 238.137 207.642 219.906 222.344C212.849 228.224 208.733 232.929 204.616 238.81V204.702C204.616 191.176 207.557 183.531 210.497 177.062C214.026 169.417 229.315 159.42 237.548 155.304L267.54 138.25C264.6 144.718 262.247 150.599 260.483 159.42C256.955 182.355 259.895 189.412 264.012 197.057C269.304 206.466 279.302 209.994 285.77 206.466C295.768 201.173 291.063 194.704 300.472 189.412C309.881 184.119 313.41 190.588 322.819 184.707C329.288 180.591 331.052 170.593 325.759 161.184C321.055 153.539 316.35 147.071 294.591 139.426C317.526 142.954 324.583 140.014 332.228 135.897C341.637 130.605 345.166 120.607 341.637 114.139C336.344 104.141 329.876 108.846 324.583 99.4368C319.29 90.0277 325.759 86.4992 319.878 77.0901C315.762 70.6213 305.765 68.8571 296.356 74.1497C288.711 78.8543 282.242 83.5589 274.597 105.318C278.125 82.3827 275.185 75.3259 271.069 67.681C265.776 58.2718 255.779 54.7434 249.31 58.2718C239.313 63.5645 244.017 70.0332 234.608 75.3259C225.199 80.6185 221.671 74.1497 212.261 80.0305C205.793 84.147 204.028 94.1442 209.321 103.553C214.026 111.198 218.73 117.667 240.489 125.312C249.31 128.252 255.779 129.428 262.247 130.017L232.256 147.071C226.963 149.423 208.145 162.949 199.324 162.949C191.091 162.949 171.684 149.423 166.392 147.071L136.4 130.017C143.457 129.428 149.926 128.252 158.159 125.312C179.917 117.079 184.622 111.198 189.327 103.553C194.619 94.7322 192.855 84.147 186.386 80.0305C176.977 74.1497 173.449 81.2066 164.04 75.3259C154.63 70.0332 158.747 63.5645 149.338 58.2718C142.869 54.7434 132.872 58.2718 127.579 67.681C123.463 75.3259 119.934 82.3827 124.051 105.318C115.818 83.5589 109.937 78.8543 102.292 74.1497C93.471 68.8571 82.8857 70.6213 78.7692 77.0901C72.8885 86.4992 79.9454 90.0277 74.0647 99.4368C68.772 108.846 62.3032 104.729 57.0106 114.139C53.4822 120.607 57.0106 130.605 66.4197 135.897C74.0647 140.014 81.1215 143.542 104.056 139.426C82.2977 147.659 77.5931 153.539 72.8885 161.184C67.5959 170.005 69.3601 180.591 75.8289 184.707C85.238 190.588 88.7664 183.531 98.1756 189.412C107.585 195.292 103.468 201.173 112.877 206.466C119.346 209.994 129.343 206.466 134.636 197.057C138.752 189.412 142.281 182.355 138.164 159.42C136.4 150.599 134.636 144.13 131.108 138.25L161.099 155.304C171.684 159.42 186.974 169.417 190.503 177.062Z" fill="#B9BDC9"/>
</g>
<defs>
<clipPath id="clip0">
<rect x="0.5" y="0.0522461" width="400" height="449.87" fill="white"/>
</clipPath>
</defs>
</svg>
