<svg width="401" height="522" viewBox="0 0 401 522" fill="none" xmlns="http://www.w3.org/2000/svg">
<g clip-path="url(#clip0)">
<path d="M363.357 303.26C331.557 393.483 278.311 464.478 200.66 521.422C122.27 465.217 69.0239 393.483 37.2241 303.26C7.64281 221.912 -3.45016 122.814 1.72656 0.791777V0.0522461H399.594V0.791777C404.031 122.814 392.199 221.912 363.357 303.26Z" fill="#FFCD00"/>
<mask id="mask0" mask-type="alpha" maskUnits="userSpaceOnUse" x="46" y="61" width="266" height="461">
<path d="M311.6 255.93V61.4333H46.8484V149.438H128.197V256.67H209.545V275.158H192.536V521.422H208.806V342.455H225.815V274.418V255.93H311.6Z" fill="#03305B"/>
</mask>
<g mask="url(#mask0)">
<path d="M363.357 303.26C331.557 393.483 278.311 464.478 200.66 521.422C122.27 465.217 69.0239 393.483 37.2241 303.26C7.64281 221.912 -3.45016 122.814 1.72656 0.791777V0.0522461H399.594V0.791777C404.031 122.814 392.199 221.912 363.357 303.26Z" fill="#03305B"/>
</g>
<path d="M294.591 220.433H225.815V238.921H294.591V220.433Z" fill="#FFCD00"/>
<path d="M294.591 184.935H225.815V203.423H294.591V184.935Z" fill="#FFCD00"/>
<path d="M294.591 149.439H225.815V167.927H294.591V149.439Z" fill="#FFCD00"/>
<path d="M294.591 113.941H225.815V132.429H294.591V113.941Z" fill="#FFCD00"/>
<path d="M294.591 78.4431H225.815V96.9314H294.591V78.4431Z" fill="#FFCD00"/>
<path d="M209.418 113.501L144.345 114.369L144.592 132.855L209.664 131.987L209.418 113.501Z" fill="#FFCD00"/>
<path d="M209.545 184.935H144.466V203.423H209.545V184.935Z" fill="#FFCD00"/>
<path d="M209.545 219.993H144.466V238.481H209.545V219.993Z" fill="#FFCD00"/>
<path d="M209.545 149.439H144.466V167.927H209.545V149.439Z" fill="#FFCD00"/>
<path d="M209.545 78.4431H144.466V96.9314H209.545V78.4431Z" fill="#FFCD00"/>
<path d="M127.457 113.941H62.3784V132.429H127.457V113.941Z" fill="#FFCD00"/>
<path d="M127.457 78.4431H62.3784V96.9314H127.457V78.4431Z" fill="#FFCD00"/>
</g>
<defs>
<clipPath id="clip0">
<rect x="0.5" y="0.0522461" width="400" height="521.37" fill="white"/>
</clipPath>
</defs>
</svg>
