<svg width="401" height="523" viewBox="0 0 401 523" fill="none" xmlns="http://www.w3.org/2000/svg">
<g clip-path="url(#clip0)">
<path d="M200.206 522.538C122.538 466.147 68.6717 394.718 36.7276 304.492C7.91536 222.412 -3.35901 123.415 1.65182 1.23399V0.607422H399.386V1.23399C404.397 123.415 392.497 222.412 363.684 304.492C332.367 394.718 278.5 466.147 200.206 522.538Z" fill="#DE0E00"/>
<path d="M296.662 349.606C321.09 300.734 339.254 238.077 343.639 166.022L239.038 153.49C226.511 117.776 222.752 73.9163 220.873 25.6707C207.094 25.6707 193.94 25.6707 180.16 25.6707C178.281 74.5429 174.523 117.776 161.996 153.49L57.395 166.022C61.1531 238.077 79.9438 300.734 104.372 349.606C123.162 387.2 165.128 452.989 200.83 452.989C235.279 452.363 277.872 387.2 296.662 349.606Z" fill="#FFDE00"/>
<path d="M200.204 432.313C177.655 432.313 135.689 370.282 121.283 337.701C100.613 292.588 89.339 246.849 87.46 202.362C87.46 198.603 88.0863 195.47 90.5917 193.591C94.3499 189.831 100.613 189.205 106.877 189.205C165.754 189.831 225.884 189.831 284.135 189.205H294.157C299.794 189.205 306.684 189.205 310.442 193.591C312.321 195.47 313.574 198.603 313.574 202.362C311.695 246.849 300.42 292.588 279.751 337.701C264.718 370.282 222.752 432.313 200.204 432.313ZM124.415 336.448C138.821 368.403 180.787 429.18 200.83 429.18C220.873 429.18 262.839 368.403 277.245 336.448C297.288 291.335 308.563 246.222 310.442 202.362C310.442 199.23 309.816 197.35 308.563 196.097C305.431 192.964 299.794 192.964 294.783 192.964H284.761C226.51 192.964 167.007 193.591 107.503 192.964C102.492 192.964 96.8553 192.964 93.7235 196.097C92.4708 197.35 91.8444 199.856 91.8444 202.362C92.4708 246.222 103.745 291.335 124.415 336.448Z" fill="#DE0E00"/>
</g>
<defs>
<clipPath id="clip0">
<rect x="0.5" y="0.607422" width="400" height="521.93" fill="white"/>
</clipPath>
</defs>
</svg>
