<svg width="401" height="523" viewBox="0 0 401 523" fill="none" xmlns="http://www.w3.org/2000/svg">
<g clip-path="url(#clip0)">
<path d="M200.209 521.985C122.395 465.53 69.061 394.229 37.1483 304.04C8.20906 222.269 -3.40222 123.17 1.64434 1.08905L1.66528 0.607422H399.339L399.36 1.08905C404.396 123.17 392.784 222.258 363.856 304.04C331.943 394.229 278.609 465.53 200.795 521.985L200.502 522.194L200.209 521.985Z" fill="#0085CA"/>
<mask id="mask0" mask-type="alpha" maskUnits="userSpaceOnUse" x="70" y="61" width="260" height="462">
<path d="M208.742 352.383V522.197H191.802L191.802 352.383C191.802 320.206 174.906 273.974 175.514 212.902L176.321 131.949C176.421 121.851 178.773 111.935 189.375 111.935H200.272H211.168C221.771 111.935 224.122 121.851 224.223 131.949L225.029 212.902C225.637 273.974 208.742 320.206 208.742 352.383Z" fill="#FFE000"/>
<path fill-rule="evenodd" clip-rule="evenodd" d="M87.101 440.32V302.127C87.101 269.95 70.2054 223.718 70.8137 162.646L71.62 81.6928C71.7206 71.5953 74.0723 61.679 84.675 61.679H95.5712H106.467C117.07 61.679 119.422 71.5953 119.522 81.6928L120.329 162.646C120.937 223.718 104.041 269.95 104.041 302.127V440.32H87.101Z" fill="#FFE000"/>
<path fill-rule="evenodd" clip-rule="evenodd" d="M313.442 440.318V302.127C313.442 269.95 330.338 223.718 329.73 162.646L328.923 81.6928C328.823 71.5953 326.471 61.679 315.868 61.679H304.972H294.076C283.473 61.679 281.122 71.5953 281.021 81.6928L280.215 162.646C279.606 223.718 296.502 269.95 296.502 302.127V440.318H313.442Z" fill="#FFE000"/>
</mask>
<g mask="url(#mask0)">
<path d="M200.209 521.985C122.395 465.53 69.061 394.229 37.1483 304.04C8.20906 222.269 -3.40222 123.17 1.64434 1.08905L1.66528 0.607422H399.339L399.36 1.08905C404.396 123.17 392.784 222.258 363.856 304.04C331.943 394.229 278.609 465.53 200.795 521.985L200.502 522.194L200.209 521.985Z" fill="#FFE000"/>
</g>
</g>
<defs>
<clipPath id="clip0">
<rect x="0.5" y="0.607422" width="400" height="521.59" fill="white"/>
</clipPath>
</defs>
</svg>
