<svg width="401" height="523" viewBox="0 0 401 523" fill="none" xmlns="http://www.w3.org/2000/svg">
<g clip-path="url(#clip0)">
<path d="M200.209 521.985C122.395 465.53 69.061 394.229 37.1483 304.04C8.20906 222.269 -3.40222 123.17 1.64434 1.08905L1.66528 0.607422H399.339L399.36 1.08905C404.396 123.17 392.784 222.258 363.856 304.04C331.943 394.229 278.609 465.53 200.795 521.985L200.502 522.194L200.209 521.985Z" fill="#B9BDC9"/>
<mask id="mask0" mask-type="alpha" maskUnits="userSpaceOnUse" x="1" y="127" width="399" height="148">
<path fill-rule="evenodd" clip-rule="evenodd" d="M2.38773 127.75H1.34073V274.551H2.38773L2.38773 274.546C2.38773 260.885 13.4622 249.81 27.1232 249.81C40.7843 249.81 51.8587 260.885 51.8587 274.546C51.8587 260.885 62.9332 249.81 76.5942 249.81C90.2512 249.81 101.323 260.878 101.33 274.534C101.336 260.878 112.408 249.81 126.065 249.81C139.726 249.81 150.801 260.885 150.801 274.546C150.801 260.885 161.875 249.81 175.536 249.81C189.197 249.81 200.272 260.885 200.272 274.546C200.272 260.885 211.346 249.81 225.007 249.81C238.668 249.81 249.743 260.885 249.743 274.546C249.743 260.885 260.817 249.81 274.478 249.81C288.139 249.81 299.214 260.885 299.214 274.546C299.214 260.885 310.288 249.81 323.949 249.81C337.61 249.81 348.685 260.885 348.685 274.546C348.685 260.885 359.759 249.81 373.42 249.81C387.081 249.81 398.156 260.885 398.156 274.546V274.551H399.203V127.75H398.156C398.153 141.409 387.079 152.481 373.42 152.481C359.761 152.481 348.687 141.409 348.685 127.75C348.682 141.409 337.608 152.481 323.949 152.481C310.29 152.481 299.216 141.409 299.214 127.75C299.211 141.409 288.138 152.481 274.478 152.481C260.819 152.481 249.745 141.409 249.743 127.75C249.74 141.409 238.667 152.481 225.007 152.481C211.348 152.481 200.274 141.409 200.272 127.75C200.269 141.409 189.196 152.481 175.536 152.481C161.877 152.481 150.803 141.409 150.801 127.75C150.798 141.409 139.725 152.481 126.065 152.481C112.406 152.481 101.332 141.409 101.33 127.75C101.327 141.409 90.2535 152.481 76.5942 152.481C62.9349 152.481 51.8615 141.409 51.8587 127.75C51.856 141.409 40.7826 152.481 27.1232 152.481C13.4639 152.481 2.39046 141.409 2.38773 127.75Z" fill="#0085CA"/>
</mask>
<g mask="url(#mask0)">
<path d="M200.209 521.985C122.395 465.53 69.061 394.229 37.1483 304.04C8.20906 222.269 -3.40222 123.17 1.64434 1.08905L1.66528 0.607422H399.339L399.36 1.08905C404.396 123.17 392.784 222.258 363.856 304.04C331.943 394.229 278.609 465.53 200.795 521.985L200.502 522.194L200.209 521.985Z" fill="#008BD7"/>
</g>
</g>
<defs>
<clipPath id="clip0">
<rect x="0.5" y="0.607422" width="400" height="521.59" fill="white"/>
</clipPath>
</defs>
</svg>
