<svg width="401" height="523" viewBox="0 0 401 523" fill="none" xmlns="http://www.w3.org/2000/svg">
<g clip-path="url(#clip0)">
<path d="M200.209 521.987C122.395 465.532 69.061 394.231 37.1483 304.042C8.20906 222.271 -3.40222 123.172 1.64434 1.091L1.66528 0.609375H399.339L399.36 1.091C404.396 123.172 392.784 222.26 363.856 304.042C331.943 394.231 278.609 465.532 200.795 521.987L200.502 522.196L200.209 521.987Z" fill="#FFE000"/>
<mask id="mask0" mask-type="alpha" maskUnits="userSpaceOnUse" x="5" y="0" width="391" height="523">
<path d="M165.949 143.348V176.852H132.445L109.411 153.818H74.8594L97.8935 176.852H63.3423L40.3082 153.818H5.75706L28.7912 176.852H5.75706L16 245.954H28.7912L20.9647 253.781L21.1737 268.999H40.3082L63.3423 245.965H97.8935L74.8594 268.999H109.411L132.445 245.965H165.949V279.469L142.915 302.503V337.054L165.949 314.02V348.571L142.915 371.605V406.156L165.949 383.122V522.197H235.051V383.112L258.085 406.146V371.595L235.051 348.561V314.01L258.085 337.044V302.492L235.051 279.458V245.954H268.555L291.589 268.988H326.141L303.106 245.954H337.658L360.692 268.988H378.868L379.972 253.718L372.209 245.954H382.752L394.17 176.852H372.209L395.243 153.818H360.692L337.658 176.852H303.106L326.141 153.818H291.589L268.555 176.852H235.051V143.348L258.085 120.314V85.7624L235.051 108.797V74.2454L258.085 51.2113V16.6601L235.051 39.6942V0.607422H165.949V39.6942L142.915 16.6601V51.2113L165.949 74.2454V108.797L142.915 85.7624V120.314L165.949 143.348Z" fill="#32AC60"/>
</mask>
<g mask="url(#mask0)">
<path d="M200.209 521.987C122.395 465.532 69.061 394.231 37.1483 304.042C8.20906 222.271 -3.40222 123.172 1.64434 1.091L1.66528 0.609375H399.339L399.36 1.091C404.396 123.172 392.784 222.26 363.856 304.042C331.943 394.231 278.609 465.532 200.795 521.987L200.502 522.196L200.209 521.987Z" fill="#32AC60"/>
</g>
</g>
<defs>
<clipPath id="clip0">
<rect x="0.5" y="0.607422" width="400" height="521.59" fill="white"/>
</clipPath>
</defs>
</svg>
