<svg width="401" height="493" viewBox="0 0 401 493" fill="none" xmlns="http://www.w3.org/2000/svg">
<g clip-path="url(#clip0)">
<path d="M0.50354 0.642454L400.504 0.607422C400.488 277.56 400.484 281.645 400.484 281.658C401.51 563.327 0.510334 563.333 0.506933 281.657L0.50354 0.642454Z" fill="black"/>
<path d="M111.126 367.746C126.924 354.277 125.564 368.868 122.599 372.896C120.358 375.94 119.939 377.941 119.992 379.871C127.146 381.079 130.804 383.4 134.203 385.803C129.937 391.925 121.783 394.741 111.647 390.236L109.235 396.559C130.976 405.918 119.807 428.608 100.696 431.174C102.642 427.864 104.143 424.442 104.02 420.614C101.378 418.774 98.5129 416.864 103.042 408.945C102.087 406.036 101.403 403.435 98.0228 403.6C87.4723 404.113 84.9038 414.431 85.7021 418.984C83.4854 419.001 82.2722 418.264 80.6825 417.811C76.6053 418.767 75.9492 422.942 74.6851 426.546C71.0379 421.914 68.0654 416.642 70.3175 409.336C64.4255 409.596 62.7866 402.377 71.6864 399.688C75.2888 398.6 87.6532 405.646 84.2027 397.342C80.2903 387.926 69.7068 393.793 65.2979 394.408C62.4884 394.8 61.1871 391.634 61.0606 388.476L50.8911 392.257C51.2867 385.702 54.0464 381.223 58.779 377.459C60.7601 375.884 58.3125 373.173 55.9759 372.244C58.8336 369.419 66.3215 367.248 70.4478 367.746C81.7601 369.112 82.0998 384.517 89.9394 385.608C94.6148 386.258 102.144 375.405 111.126 367.746V367.746Z" fill="#F9423A"/>
<path d="M247.046 365.258C247.997 369.534 250.372 376.716 254.395 376.84C258.381 376.964 263.14 371.396 267.117 368.774C268.393 377.013 261.598 388.357 256.238 390.485C257.37 393.659 259.954 396.035 264.213 396.569C271.057 397.427 273.71 391.501 280.116 392.236C292.209 393.624 299.13 407.044 293.668 412.426C294.681 416.387 293.255 429.433 288.92 432.431C288.301 425.879 288.885 420.103 285.325 418.464C282.938 420.1 280.526 420.524 278.825 420.031C272.964 418.334 269.414 406.848 262.277 408.922C249.858 412.532 266.237 424.282 264.49 431.693C263.668 435.177 259.461 436.691 256.976 436.764C255.103 439.249 256.107 445.213 256.838 449.947C251.752 448.652 245.668 442.642 245.406 435.75C240.338 437.904 237.665 435.279 237.293 429.803C237.003 425.533 243.652 421.604 244.254 418.51C245.699 411.075 232.773 416.638 233.237 419.617C234.578 428.234 231.658 431.236 225.262 432.016C222.596 436.149 223.487 440.651 224.94 444.969C217.785 441.996 216.729 433.148 217.979 429.296C209.579 420.636 213.717 404.467 225.17 401.686C231.154 400.232 237.347 401.319 243.009 402.331C244.432 396.352 242.655 378.868 236.452 369.8C229.676 359.894 245.675 359.093 247.046 365.258Z" fill="#F9423A"/>
<path d="M79.5091 83.397C79.8952 67.2307 96.4158 60.9866 109.105 61.1027C132.065 61.3128 162.633 94.2205 168.557 103.475C183.091 126.179 167.29 196.683 179.379 223.551C184.219 234.309 218.933 241.145 218.492 216.511C218.033 190.869 204.583 160.552 205.976 131.767C207.675 96.6425 265.336 52.7136 296.198 54.0624C329.935 55.537 351.194 75.0676 376.152 89.2314C382.041 92.5732 384.64 120.574 381.791 118.599C351.802 97.8046 326.707 73.2672 295.415 73.3581C292.676 73.3661 292.813 76.4881 295.546 76.4871C320.815 76.4781 346.129 98.2854 364.776 115.6C369.376 119.871 375.068 147.195 372.86 145.065C356.78 129.55 339.976 112.555 323.055 100.867C305.715 95.2198 286.289 92.7564 271.035 93.0449C261.565 101.907 242.604 116.392 234.398 121.076C234.579 152.135 229.985 182.657 227.097 213.382C226.823 216.294 230.185 216.482 230.487 214.034C234.318 182.958 236.519 149.784 242.351 120.945C256.355 108.041 272.809 101.285 292.025 101.65C302.965 101.857 313.489 105.078 324.098 107.647C341.498 120.906 360.201 138.578 376.771 157.19C379.967 160.78 376.038 167.226 373.772 165.012C356.746 148.37 342.833 132.208 320.839 129.681C353.503 149.099 376.616 190.373 377.032 210.774C346.179 178.349 316.018 142.192 293.329 142.457C272.692 142.699 266.56 164.739 261.123 187.14C256.118 207.763 251.649 228.866 250.044 233.199C249.374 235.007 251.687 235.639 252.26 234.242C255.239 226.983 260.555 186.633 273.515 162.425C278.098 153.864 286.935 147.996 295.937 148.064C310.689 148.174 331.747 168.709 327.879 178.702C338.633 186.664 348.252 194.794 359.952 208.037C362.401 210.808 371.221 252.516 370.774 262.403C369.912 281.459 352.929 291.319 366.471 313.511C341.91 316.116 351.52 251.106 344.046 219.901L306.889 200.084L273.381 251.582C272.038 253.647 275.587 254.767 276.38 253.538L304.151 210.514C313.183 213.206 326.919 224.863 330.487 234.112C328.404 261.437 349 292.778 330.748 307.905C330.764 291.098 319.474 247.915 311.973 245.194C305.576 268.34 287.294 310.86 256.432 327.591C265.137 353.69 249.62 365.378 236.106 369.275L209.887 342.194C193.85 344.719 178.661 344.437 163.603 339.716C160.208 348.713 142.04 385.923 111.805 367.226L122.925 326.157C99.1416 317.384 75.7616 271.715 72.5991 224.855L66.6017 232.026C68.2601 203.829 78.1477 176.672 90.2001 153.67C92.9761 148.372 116.091 142.036 114.842 127.203C114.39 121.84 112.417 110.009 108.844 109.342C90.1096 105.844 79.2163 95.7876 79.5091 83.397Z" fill="white"/>
<path d="M83.9331 103.544C73.3738 101.868 60.5735 101.438 55.9991 94.5093C60.076 90.7964 68.7996 91.1412 75.4054 91.1443C76.2976 91.1448 65.1293 83.4917 63.5588 84.5067L50.0067 93.2647C51.4486 75.0259 58.7061 74.4823 80.6389 71.2695C68.5157 95.0545 93.9757 105.799 94.2585 110.873C94.9773 123.771 88.0151 138.165 79.5079 135.119C72.1071 132.469 75.1706 114.084 83.9331 103.544V103.544Z" fill="#F9423A"/>
<path d="M98.9491 59.5933C131.121 51.6782 152.77 89.9242 173.359 90.5914C175.789 90.6702 177.052 73.9145 174.557 72.3378L161.282 63.9485C168.316 44.6487 190.032 57.4223 204.335 51.4107C211.109 48.5637 179.461 27.9271 175.663 29.1008C168.149 31.4231 158.949 38.8033 150.311 44.4965L153.169 28.0867C158.4 28.4415 164.042 29.5609 167.643 26.8882C165.46 22.4344 154.446 18.2352 148.836 17.9458C139.676 17.4735 128.784 30.9049 119.703 40.9011C117.143 34.3347 113.811 28.5399 109.286 23.9382C97.3921 26.9151 95.8338 48.391 98.9491 59.5933V59.5933Z" fill="#F9423A"/>
<path d="M96.1376 60.2863C90.4956 61.8848 85.127 65.7684 81.6175 70.1047C77.0541 61.8996 72.9141 50.7213 71.8914 39.405C76.2305 37.9755 81.9963 40.5034 84.9364 44.1067C88.3764 48.3228 92.6135 54.4607 96.1376 60.2863Z" fill="#F9423A"/>
<path d="M96.1324 108.102C95.8884 106.453 106.156 109.99 106.334 111.786C107.011 118.588 107.739 126.373 104.216 133.07C102.295 136.721 88.0546 138.835 90.0046 134.7C93.7495 126.757 97.7835 119.267 96.1324 108.102Z" fill="#F9423A"/>
<path d="M130.13 83.0319C130.13 87.7777 127.633 92.3292 123.188 95.685C118.743 99.0408 112.714 100.926 106.428 100.926C100.141 100.926 94.1127 99.0408 89.6677 95.685C85.2227 92.3292 82.7255 87.7777 82.7255 83.0319C82.7255 78.2861 85.2227 73.7346 89.6677 70.3788C94.1127 67.023 100.141 65.1377 106.428 65.1377C112.714 65.1377 118.743 67.023 123.188 70.3788C127.633 73.7346 130.13 78.2861 130.13 83.0319V83.0319Z" stroke="black" stroke-width="2" stroke-linecap="round" stroke-linejoin="round"/>
<path d="M103.226 81.9253C103.226 83.1118 102.602 84.2497 101.491 85.0886C100.38 85.9276 98.8724 86.3989 97.3008 86.3989C95.7293 86.3989 94.2221 85.9276 93.1108 85.0886C91.9995 84.2497 91.3752 83.1118 91.3752 81.9253C91.3752 80.7389 91.9995 79.601 93.1108 78.7621C94.2221 77.9231 95.7293 77.4518 97.3008 77.4518C98.8724 77.4518 100.38 77.9231 101.491 78.7621C102.602 79.601 103.226 80.7389 103.226 81.9253V81.9253Z" stroke="black" stroke-width="2" stroke-linecap="round" stroke-linejoin="round"/>
</g>
<defs>
<clipPath id="clip0">
<rect x="0.5" y="0.607422" width="400" height="492.3" fill="white"/>
</clipPath>
</defs>
</svg>
