<svg width="401" height="523" viewBox="0 0 401 523" fill="none" xmlns="http://www.w3.org/2000/svg">
<g clip-path="url(#clip0)">
<path d="M200.209 521.985C122.395 465.53 69.061 394.229 37.1483 304.04C8.20906 222.269 -3.40222 123.17 1.64434 1.08905L1.66528 0.607422H399.339L399.36 1.08905C404.396 123.17 392.784 222.258 363.856 304.04C331.943 394.229 278.609 465.53 200.795 521.985L200.502 522.194L200.209 521.985Z" fill="#B9BDC9"/>
<path d="M12.6312 83.082C16.872 79.5221 18.9729 92.5216 24.4589 92.778C36.6634 93.3485 48.6748 96.6224 60.6298 100.686C59.8117 88.0442 37.7034 74.8293 22.396 70.5666C15.8168 68.7345 16.4045 56.2877 29.8202 56.5231C104.018 57.807 166.847 69.4806 210.402 101.443C226.081 121.256 245.885 121.45 268.991 133.9L261.014 203.354L253.037 206.654C255.503 236.132 259.848 259.008 268.166 288.486C275.664 291.264 285.906 302.095 287.214 304.784C287.328 305.019 281.649 306.43 275.455 307.603C276.406 313.403 283.449 322.558 287.145 322.594L343.12 323.144C315.48 345.673 291.994 373.159 279.856 414.19C272.715 393.495 268.515 372.492 266.103 351.338C265.663 347.48 247.705 324.583 241.484 326.72C231.148 330.27 215.558 332.292 216.041 331.809C213.262 315.65 212.458 300.973 211.64 286.285C200.678 270.195 190.005 254.047 181.52 237.462L176.157 243.238C165.892 232.68 154.668 217.821 157.177 199.09C138.88 184.338 126.432 160.253 106.657 143.626C75.1115 117.102 30.7401 109.253 16.207 99.5171C11.7901 96.5583 10.2384 85.0907 12.6312 83.082Z" fill="#0085CA" stroke="#B9BDC9" stroke-width="3"/>
<path d="M76.5173 78.1818C76.5177 78.8008 76.3973 79.4138 76.163 79.9858C75.9287 80.5578 75.5852 81.0776 75.152 81.5155C74.7188 81.9533 74.2044 82.3007 73.6382 82.5376C73.0721 82.7746 72.4652 82.8966 71.8524 82.8966C71.2396 82.8966 70.6327 82.7746 70.0666 82.5376C69.5004 82.3007 68.986 81.9533 68.5528 81.5155C68.1196 81.0776 67.7761 80.5578 67.5418 79.9858C67.3075 79.4138 67.1871 78.8008 67.1875 78.1818C67.1871 77.5627 67.3075 76.9497 67.5418 76.3777C67.7761 75.8057 68.1196 75.2859 68.5528 74.848C68.986 74.4102 69.5004 74.0628 70.0666 73.8259C70.6327 73.5889 71.2396 73.4669 71.8524 73.4669C72.4652 73.4669 73.0721 73.5889 73.6382 73.8259C74.2044 74.0628 74.7188 74.4102 75.152 74.848C75.5852 75.2859 75.9287 75.8057 76.163 76.3777C76.3973 76.9497 76.5177 77.5627 76.5173 78.1818V78.1818Z" stroke="#B9BDC9" stroke-width="3" stroke-linecap="round" stroke-linejoin="round"/>
<path d="M61.1803 86.1514C66.6145 89.9015 71.8583 95.8345 73.5167 100.665C74.8529 104.556 70.0946 104.211 66.3406 104.454" stroke="#B9BDC9" stroke-width="3" stroke-linecap="round"/>
<path d="M88.365 125.2C98.1407 121.485 106.41 117.761 110.715 109.35C113.908 103.11 112.66 95.2499 111.399 84.6057" stroke="#B9BDC9" stroke-width="3" stroke-linecap="round"/>
<path d="M115.162 121.779C127.885 125.156 134.098 128.612 139.108 135.691C141.203 138.651 132.53 142.29 126.108 141.62C122.636 141.258 116.616 135.649 112.311 131.13" stroke="#B9BDC9" stroke-width="3" stroke-linecap="round"/>
</g>
<defs>
<clipPath id="clip0">
<rect x="0.5" y="0.607422" width="400" height="521.59" fill="white"/>
</clipPath>
</defs>
</svg>
