<svg width="401" height="521" viewBox="0 0 401 521" fill="none" xmlns="http://www.w3.org/2000/svg">
<g clip-path="url(#clip0)">
<path d="M200.209 520.985C122.395 464.53 69.061 393.229 37.1483 303.04C8.20906 221.269 -3.40222 122.17 1.64434 0.0890472L1.66528 -0.392578H399.339L399.36 0.0890472C404.396 122.17 392.784 221.258 363.856 303.04C331.943 393.229 278.609 464.53 200.795 520.985L200.502 521.194L200.209 520.985Z" fill="white"/>
<mask id="mask0" mask-type="alpha" maskUnits="userSpaceOnUse" x="0" y="124" width="401" height="397">
<path fill-rule="evenodd" clip-rule="evenodd" d="M400.5 218.321H294.022V124.223H105.826V218.321H0.5V520.674H400.5V218.321Z" fill="#32AC60"/>
</mask>
<g mask="url(#mask0)">
<path d="M200.209 520.985C122.395 464.53 69.061 393.229 37.1483 303.04C8.20906 221.269 -3.40222 122.17 1.64434 0.0890472L1.66528 -0.392578H399.339L399.36 0.0890472C404.396 122.17 392.784 221.258 363.856 303.04C331.943 393.229 278.609 464.53 200.795 520.985L200.502 521.194L200.209 520.985Z" fill="#32AC60"/>
</g>
</g>
<defs>
<clipPath id="clip0">
<rect x="0.5" y="0.607422" width="400" height="520.31" fill="white"/>
</clipPath>
</defs>
</svg>
