<svg width="401" height="523" viewBox="0 0 401 523" fill="none" xmlns="http://www.w3.org/2000/svg">
<g clip-path="url(#clip0)">
<path d="M200.209 521.985C122.395 465.53 69.061 394.229 37.1483 304.04C8.20906 222.269 -3.40222 123.17 1.64434 1.08905L1.66528 0.607422H399.339L399.36 1.08905C404.396 123.17 392.784 222.258 363.856 304.04C331.943 394.229 278.609 465.53 200.795 521.985L200.502 522.194L200.209 521.985Z" fill="#FFE000"/>
<mask id="mask0" mask-type="alpha" maskUnits="userSpaceOnUse" x="0" y="79" width="401" height="444">
<path d="M176.054 287.005C175.123 384.24 288.388 416.467 333.357 371.792H400.5V522.197H0.5L0.500028 212.312H13.0462C20.7103 179.09 51.932 134.111 72.0554 117.788C94.0635 99.9367 143.587 74.2013 200.272 80.3891C251.418 85.9801 313.422 117.097 311.506 173.908C309.893 221.662 285.32 254.119 257.239 260.097C264.935 243.282 253.397 215.118 222.573 216.311C194.932 217.379 176.389 251.417 176.054 287.005Z" fill="#0085CA"/>
</mask>
<g mask="url(#mask0)">
<path d="M200.209 521.985C122.395 465.53 69.061 394.229 37.1483 304.04C8.20906 222.269 -3.40222 123.17 1.64434 1.08905L1.66528 0.607422H399.339L399.36 1.08905C404.396 123.17 392.784 222.258 363.856 304.04C331.943 394.229 278.609 465.53 200.795 521.985L200.502 522.194L200.209 521.985Z" fill="#0085CA"/>
</g>
</g>
<defs>
<clipPath id="clip0">
<rect x="0.5" y="0.607422" width="400" height="521.59" fill="white"/>
</clipPath>
</defs>
</svg>
