<svg width="401" height="490" viewBox="0 0 401 490" fill="none" xmlns="http://www.w3.org/2000/svg">
<g clip-path="url(#clip0)">
<path d="M0.5 0.607422H400.5C400.5 117.613 380.754 356.998 200.444 489.119C21.8258 356.886 0.612835 117.725 0.5 0.607422Z" fill="#004881"/>
<path d="M327.158 233.611C328.625 225.326 334.379 206.627 334.379 206.627L327.722 203.156C318.515 216.169 312.207 230.979 309.217 246.599H306.17C317.454 154.227 288.681 43.0435 288.681 43.0435L269.725 35.8776C272.484 64.1203 273.764 92.4861 273.561 120.861C275.836 163.241 272.037 205.727 262.278 247.047H140.641C130.874 205.728 127.075 163.241 129.358 120.861C129.201 92.6334 130.519 64.4171 133.307 36.3254L114.351 43.4913C114.351 43.4913 86.255 154.451 97.5385 246.599H94.0406V233.723H81.7416V274.479H93.8149V263.283H101.149C117.172 306.166 179.57 392.94 179.57 392.94L201.234 377.825C201.234 377.825 184.986 350.505 175.395 332.03C163.527 310.014 153.525 287.056 145.493 263.395H258.328C250.292 287.054 240.29 310.012 228.427 332.03C218.723 350.505 202.588 377.825 202.588 377.825L224.252 392.94C224.252 392.94 286.65 306.166 302.672 263.283H309.781C310.892 273.626 313.202 283.808 316.664 293.626C318.469 297.992 321.065 304.822 321.065 304.822L329.64 301.911C329.64 301.911 325.465 277.838 324.337 264.402C324.24 254.227 325.377 244.077 327.722 234.171" fill="#CDAD63"/>
</g>
<defs>
<clipPath id="clip0">
<rect x="0.5" y="0.607422" width="400" height="488.51" fill="white"/>
</clipPath>
</defs>
</svg>
