<svg width="401" height="521" viewBox="0 0 401 521" fill="none" xmlns="http://www.w3.org/2000/svg">
<g clip-path="url(#clip0)">
<path d="M200.205 515.337C125.973 462.687 70.1309 388.075 40.5446 302.011C12.2461 221.971 0.524899 124.853 5.79946 5.37964V4.79358H395.112V5.37964C400.052 124.853 388.665 221.888 360.535 302.011C330.911 388.055 275.039 462.638 200.791 515.254V515.254L200.205 515.337Z" fill="#FFE000"/>
<path d="M200.874 520.361L197.777 518.686C122.841 465.545 66.4707 390.228 36.6095 303.35C8.14362 222.809 -3.32645 125.271 1.61322 5.2122V1.19348L5.8831 0.607422H399.382V4.62613C404.322 125.187 392.935 222.725 364.386 303.267C334.535 390.172 278.164 465.519 203.219 518.686L200.874 520.361ZM9.90181 8.97974C5.38076 126.695 16.7671 221.971 44.5632 300.588C73.5421 384.96 128.017 458.246 200.456 510.314C272.924 458.221 327.426 384.908 356.432 300.504C384.312 221.804 395.614 126.192 391.093 8.97974H9.90181Z" fill="black"/>
<path d="M148.966 109.448L104.928 343.872H295.565L251.694 109.448H205.228V75.9583H255.462V50.8413H188.483V109.448H148.966Z" fill="black"/>
<path d="M296.151 343.872H104.341L148.631 109.448H188.567V50.8413H255.545V84.3306H205.312V109.448H251.694L296.151 343.872ZM105.514 343.872H294.895L251.024 109.448H205.228V75.9583H247.089V50.8413H188.483V109.448H149.385L105.514 343.872Z" fill="black"/>
</g>
<defs>
<clipPath id="clip0">
<rect x="0.5" y="0.607422" width="400" height="519.75" fill="white"/>
</clipPath>
</defs>
</svg>
