<svg width="401" height="522" viewBox="0 0 401 522" fill="none" xmlns="http://www.w3.org/2000/svg">
<g clip-path="url(#clip0)">
<path d="M200.436 521.461C122.809 465.096 69.6023 394.118 37.766 304.133C8.85442 222.612 -2.68725 123.775 2.34721 2.11027V1.651H399.088V2.13115C404.112 123.838 392.529 222.623 363.669 304.153C331.833 394.045 278.627 465.096 201.042 521.461L200.749 521.67L200.436 521.461Z" fill="#E00E00"/>
<path d="M255.418 99.6324C254.426 96.6054 251.668 98.6617 251.93 100.488C257.33 138.389 263.419 185.151 267.806 213.458L271.18 235.482C271.503 237.57 272.14 241.108 278.094 241.108H323.791C329.013 241.108 330.434 239.021 331.509 236.443C339.865 216.235 343.699 197.958 346.31 175.506C348.148 159.64 349.297 143.618 348.566 127.763C348.441 125.132 348.566 123.922 350.175 122.784C353.423 120.404 356.943 116.521 353.392 113.776C330.204 95.8086 308.269 77.0516 287.588 57.5048C285.144 55.1876 286.889 53.006 286.941 50.7514C286.993 48.4968 283.807 48.2672 282.92 48.8204C278.971 51.2838 278 52.5781 274.073 58.9557C273.028 60.6675 274.835 63.1308 276.809 64.9053L323.467 108.118C330.778 114.893 333.776 128.431 330.549 146.217C326.872 166.268 323.164 186.414 316.427 206.538C315.382 209.492 314.568 210.4 313.367 210.4H289.343C286.857 210.4 285.907 208.511 285.479 206.705L280.256 184.169C279.212 179.827 290.231 182.082 288.988 179.086C277.499 152.062 261.309 117.69 255.408 99.6324H255.418Z" fill="#FFE000"/>
<path d="M52.7859 99.6321C51.7414 96.6051 49.0362 98.6614 49.2973 100.488C54.6973 138.388 60.7867 185.15 65.1736 213.458L68.5473 235.461C68.8711 237.549 69.5083 241.087 75.4619 241.087H121.159C126.381 241.087 127.802 239 128.877 236.422C137.233 216.214 141.067 197.937 143.678 175.485C145.516 159.619 146.665 143.597 145.934 127.742C145.809 125.111 145.934 123.9 147.542 122.763C150.791 120.383 154.311 116.5 150.76 113.755C127.572 95.7875 105.637 77.0305 84.9563 57.4837C82.5122 55.1664 84.2565 52.9849 84.3088 50.7303C84.361 48.4757 81.1753 48.2461 80.2875 48.7993C76.3393 51.2626 75.3679 52.5569 71.4406 58.9345C70.3961 60.6464 72.2031 63.1097 74.1772 64.8842L120.835 108.118C128.146 114.892 131.144 128.43 127.916 146.217C124.24 166.268 120.532 186.413 113.795 206.538C112.75 209.492 111.936 210.4 110.734 210.4H86.7111C84.2252 210.4 83.2747 208.51 82.8465 206.705L77.624 184.169C76.5795 179.827 87.5989 182.082 86.356 179.086C74.8665 152.062 58.6769 117.69 52.7755 99.6321H52.7859Z" fill="#FFE000"/>
<path d="M155.575 284.175C154.582 281.148 151.825 283.204 152.086 285.031C157.486 322.931 163.575 369.693 167.962 398.001L171.336 420.025C171.66 422.113 172.297 425.651 178.251 425.651H223.947C229.17 425.651 230.59 423.564 231.666 420.986C240.022 400.778 243.855 382.501 246.467 360.049C248.305 344.183 249.454 328.161 248.723 312.306C248.597 309.675 248.723 308.464 250.331 307.327C253.58 304.947 257.1 301.064 253.548 298.319C230.36 280.351 208.426 261.594 187.745 242.048C185.301 239.73 187.045 237.549 187.097 235.294C187.15 233.04 183.964 232.81 183.076 233.363C179.128 235.827 178.157 237.121 174.229 243.498C173.185 245.21 174.992 247.674 176.966 249.448L223.623 292.693C230.935 299.467 233.912 313.036 230.778 330.781C227.143 350.832 223.394 370.977 216.625 391.07C215.581 394.024 214.766 394.932 213.565 394.932H189.552C187.066 394.932 186.116 393.043 185.687 391.237L180.465 368.702C179.42 364.36 190.44 366.614 189.197 363.619C177.707 336.595 161.518 302.222 155.616 284.165L155.575 284.175Z" fill="#FFE000"/>
</g>
<defs>
<clipPath id="clip0">
<rect x="0.5" y="0.607422" width="400" height="521.19" fill="white"/>
</clipPath>
</defs>
</svg>
