<svg width="401" height="523" viewBox="0 0 401 523" fill="none" xmlns="http://www.w3.org/2000/svg">
<g clip-path="url(#clip0)">
<path d="M200.209 521.985C122.395 465.53 69.061 394.229 37.1483 304.04C8.20906 222.269 -3.40222 123.17 1.64434 1.08904L1.66528 0.607422H399.339L399.36 1.08904C404.396 123.17 392.784 222.258 363.856 304.04C331.943 394.229 278.609 465.53 200.795 521.985L200.502 522.194L200.209 521.985Z" fill="#B9BDC9"/>
<path d="M95.3657 239.643C82.9308 219.828 54.779 225.213 44.6967 243.559L95.3657 239.643ZM42.0798 256.181C49.2117 259.418 47.9711 269.312 48.3225 268.572C55.3296 260.387 64.5157 265.668 68.0909 274.626C72.6009 265.748 80.7338 267.573 87.292 274.248C86.3095 265.996 89.1344 266.629 91.8316 266.964C92.1239 262.511 91.7437 258.73 90.6967 255.614C94.7195 259.565 99.2146 263.613 104.373 266.681C107.171 260.576 116.58 260.782 118.087 267.911L152.545 267.832L167.005 253.07L197.957 258.923L231.121 251.248C226.262 259.304 229.356 271.027 234.623 274.798C244.855 261.392 243.1 272.986 251.945 278.143C263.131 266.347 265.121 277.077 276.858 280.35C276.477 276.507 273.677 271 280.637 272.725C279.597 255.135 289.116 272.011 292.275 273.327C294.907 273.079 300.312 260.935 304.982 272.993L343.64 271.588C345.842 265.22 346.672 258.076 340.631 251.724C338.374 249.352 348.849 243.143 349.794 245.036C355.999 257.468 349.65 314.674 295.869 308.951C245.505 303.593 203.484 279.625 134.972 288.108C101.042 292.31 89.7549 306.42 90.5641 322.357C92.0469 351.56 118.135 354.63 141.656 365.023C151.339 374.635 160.499 385.398 173.605 387.48C171.924 383.835 171.288 379.096 174.027 376.54V376.541C179.234 386.53 190.821 393.596 202.497 393.283C201.292 388.688 199.296 384.164 200.7 379.332C204.817 385.986 226.428 393.85 235.406 389.488C231.938 386.456 230.607 379.189 232.859 374.413C257.199 379.714 268.019 370.529 278.544 361.029C256.128 363.837 233.639 360.073 222.36 341.403C194.93 342.449 169.771 334.74 142.34 351.712C86.9408 342.102 87.3154 298.73 144.338 296.498C215.618 293.708 254.627 316.408 296.894 319.08C330.251 321.189 359.845 302.723 361.779 258.073C362.667 237.582 353.276 172.162 301.639 174.276C270.344 175.556 268.592 184.125 242.473 175.761C235.59 173.558 220.888 166.997 215.762 165.18C213.66 164.435 212.858 155.223 215.561 156.285L224.925 159.963C224.925 159.963 226.428 152.418 226.689 148.408C227.37 137.948 226.141 132.573 223.386 126.388L229.071 125.452C232.648 101.372 213.767 66.6047 194.726 67.0081C194.777 63.409 192.815 58.5193 186.344 55.4148C181.675 54.6154 172.029 55.5657 169.647 59.2615C164.662 56.1106 153.056 59.69 150.217 66.9968C148.894 70.4022 124.873 69.7398 122.127 77.4304C121.821 78.2851 122.299 80.3231 122.662 81.4432C114.827 86.3149 99.2663 92.0135 98.5839 93.4822C97.6322 97.0255 98.9313 100.03 100.705 102.984L105.729 112.942H126.67C130.63 112.946 130.481 117.142 126.628 117.142H105.988C101.323 120.806 98.6796 128.214 98.1037 133.24C105.637 131.534 110.451 130.353 117.98 129.13C120.403 128.736 121.109 131.369 119.184 132.34C103.101 140.448 93.0178 155.209 87.8912 171.822L96.9789 171.735C85.4343 190.34 95.1757 212.625 102.719 221.075C99.8521 224.493 95.4966 223.905 87.4806 223.549C78.7584 218.47 74.9156 210.652 57.2134 211.347C39.5113 212.043 24.7636 234.933 37.8706 250.648C37.57 244.231 42.0463 236.674 44.1133 235.608C43.4567 237.179 43.3978 242.46 44.6967 243.559C42.7104 247.276 42.3695 251.542 42.0798 256.181ZM95.3657 239.643L121.437 239.156Z" fill="#E00E00"/>
<path d="M95.3657 239.643C82.9308 219.828 54.779 225.213 44.6967 243.559M95.3657 239.643L44.6967 243.559M95.3657 239.643L121.437 239.156L138.936 226.86M44.6967 243.559C43.3978 242.46 43.4567 237.179 44.1133 235.608C42.0463 236.674 37.57 244.231 37.8706 250.648C24.7636 234.933 39.5113 212.043 57.2134 211.347C74.9156 210.652 78.7584 218.47 87.4806 223.549C95.4966 223.905 99.8521 224.493 102.719 221.075C95.1757 212.625 85.4343 190.34 96.9789 171.735L87.8912 171.822C93.0178 155.209 103.101 140.448 119.184 132.34C121.109 131.369 120.403 128.736 117.98 129.13C110.451 130.353 105.637 131.534 98.1037 133.24C98.6796 128.214 101.323 120.806 105.988 117.142H126.628C130.481 117.142 130.63 112.946 126.67 112.942H105.729L100.705 102.984C98.9313 100.03 97.6322 97.0255 98.5839 93.4822C99.2663 92.0135 114.827 86.3149 122.662 81.4432C122.299 80.3231 121.821 78.2851 122.127 77.4304C124.873 69.7398 148.894 70.4022 150.217 66.9968C153.056 59.69 164.662 56.1106 169.647 59.2615C172.029 55.5657 181.675 54.6154 186.344 55.4148C192.815 58.5193 194.777 63.409 194.726 67.0081C213.767 66.6047 232.648 101.372 229.071 125.452L223.386 126.388C226.141 132.573 227.37 137.948 226.689 148.408C226.428 152.418 224.925 159.963 224.925 159.963L215.561 156.285C212.858 155.223 213.66 164.435 215.762 165.18C220.888 166.997 235.59 173.558 242.473 175.761C268.592 184.125 270.344 175.556 301.639 174.276C353.276 172.162 362.667 237.582 361.779 258.073C359.845 302.723 330.251 321.189 296.894 319.08C254.627 316.408 215.618 293.708 144.338 296.498C87.3154 298.73 86.9408 342.102 142.34 351.712C169.771 334.74 194.93 342.449 222.36 341.403C233.639 360.073 256.128 363.837 278.544 361.029C268.019 370.529 257.199 379.714 232.859 374.413C230.607 379.189 231.938 386.456 235.406 389.488C226.428 393.85 204.817 385.986 200.7 379.332C199.296 384.164 201.292 388.688 202.497 393.283C190.821 393.596 179.234 386.53 174.027 376.541V376.54C171.288 379.096 171.924 383.835 173.605 387.48C160.499 385.398 151.339 374.635 141.656 365.023C118.135 354.63 92.0469 351.56 90.5641 322.357C89.7549 306.42 101.042 292.31 134.972 288.108C203.484 279.625 245.505 303.593 295.869 308.951C349.65 314.674 355.999 257.468 349.794 245.036C348.849 243.143 338.374 249.352 340.631 251.724C346.672 258.076 345.842 265.22 343.64 271.588L304.982 272.993C300.312 260.935 294.907 273.079 292.275 273.327C289.116 272.011 279.597 255.135 280.637 272.725C273.677 271 276.477 276.507 276.858 280.35C265.121 277.077 263.131 266.347 251.945 278.143C243.1 272.986 244.855 261.392 234.623 274.798C229.356 271.027 226.262 259.304 231.121 251.248L197.957 258.923L167.005 253.07L152.545 267.832L118.087 267.911C116.58 260.782 107.171 260.576 104.373 266.681C99.2146 263.613 94.7195 259.565 90.6967 255.614C91.7437 258.73 92.1239 262.511 91.8316 266.964C89.1344 266.629 86.3095 265.996 87.292 274.248C80.7338 267.573 72.6009 265.748 68.0909 274.626C64.5157 265.668 55.3296 260.387 48.3225 268.572C47.9711 269.312 49.2117 259.418 42.0798 256.181C42.3695 251.542 42.7104 247.276 44.6967 243.559Z" stroke="#B9BDC9" stroke-width="3" stroke-linejoin="round"/>
<path d="M136.331 87.378C135.453 90.5302 130.903 90.3724 129.233 89.2016C126.644 87.3878 127.354 84.0908 128.648 82.6305C130.596 84.27 133.005 85.9894 136.331 87.378Z" fill="#B9BDC9" stroke="#B9BDC9"/>
<path d="M121.437 239.156C117.824 236.04 108.86 229.436 102.719 221.075" stroke="#B9BDC9" stroke-width="3"/>
<path d="M127.661 80.1057C128.424 84.0981 135.988 87.6635 139.516 88.4827" stroke="#B9BDC9" stroke-linecap="round"/>
<path d="M194.726 67.0082C194.872 78.9637 187.819 80.7059 183.131 81.5235" stroke="#B9BDC9" stroke-width="3" stroke-linecap="round"/>
<path d="M169.647 59.2616C168.375 61.2324 167.137 63.6181 168.03 66.4513" stroke="#B9BDC9" stroke-width="3" stroke-linecap="round"/>
<path d="M301.572 191.564C285.316 187.573 272.644 205.267 272.644 205.267L280.367 226.674L311.505 247.768L294.094 246.765C289.023 241.917 275.702 233.705 260.438 234.061C245.378 234.411 236.175 243.987 231.121 251.248" stroke="#B9BDC9" stroke-width="3" stroke-linecap="round" stroke-linejoin="round"/>
<path d="M167.005 253.07L185.206 232.981L181.525 222.619" stroke="#B9BDC9" stroke-width="3" stroke-linecap="round"/>
<path d="M100.705 102.984L108.157 100.002" stroke="#B9BDC9" stroke-width="3" stroke-linecap="round"/>
</g>
<defs>
<clipPath id="clip0">
<rect x="0.5" y="0.607422" width="400" height="521.59" fill="white"/>
</clipPath>
</defs>
</svg>
