<svg width="401" height="496" viewBox="0 0 401 496" fill="none" xmlns="http://www.w3.org/2000/svg">
<g clip-path="url(#clip0)">
<path fill-rule="evenodd" clip-rule="evenodd" d="M228.879 468.352C234.608 462.538 240.234 456.642 245.756 450.641C261.347 433.572 275.879 415.592 289.29 396.805C303.074 378.35 315.696 359.108 327.052 339.224C329.439 335.19 331.764 331.155 334.048 327.079C346.338 304.527 356.801 281.023 365.333 256.815C365.333 256.67 365.291 256.505 365.291 256.38C369.589 243.966 373.325 231.387 376.481 218.641C382.647 194.227 387.629 169.523 391.407 144.612C393.981 129.218 396.016 113.742 397.49 98.1827L398.009 90.5066C399.545 60.5678 400.396 30.5669 400.5 0.607422L0.5 0.835015C0.707598 30.7945 1.57951 60.7126 3.05346 90.6308C4.65196 107.99 6.6449 125.287 8.99076 142.563C12.0009 166.088 16.1737 189.468 21.5712 212.6C27.1348 237.118 34.4631 261.201 43.4936 284.685C51.5484 306.244 61.5754 327.038 73.4085 346.756C83.1863 363.018 93.8154 378.805 105.192 394.012C105.441 394.343 105.69 394.674 105.939 395.026C118.54 412.302 132.242 428.751 146.94 444.289C148.289 445.655 149.638 447.041 150.988 448.407C165.52 463.883 180.84 478.615 196.867 492.539C198.009 493.594 199.151 494.629 200.272 495.622C200.292 495.581 200.313 495.581 200.334 495.56C200.375 495.581 200.396 495.581 200.417 495.622C210.195 486.849 219.703 477.746 228.879 468.352Z" fill="#00AEEF"/>
<path fill-rule="evenodd" clip-rule="evenodd" d="M197.222 399.841L189.5 394.358C189.271 393.861 189.147 393.364 189.085 392.847C188.815 390.468 189.562 388.13 191.098 386.35C191.223 386.247 191.327 386.144 191.472 386.04C192.012 385.626 192.51 385.192 192.967 384.716C193.984 383.392 194.524 381.757 194.524 380.061C194.503 379.295 194.254 378.55 193.797 377.93C193.652 377.805 193.486 377.661 193.299 377.578C192.801 377.371 192.261 377.267 191.721 377.267L184.185 383.412H183.853C183.417 383.35 183.023 383.102 182.794 382.75C182.566 381.302 182.836 379.854 183.563 378.571C184.04 377.743 184.559 376.936 185.099 376.129C185.846 374.992 186.427 373.771 186.718 372.467C186.801 372.281 186.843 372.095 186.884 371.909C186.967 371.247 186.905 370.605 186.656 370.026C186.157 368.681 185.286 367.46 184.185 366.55C183.998 366.384 183.812 366.219 183.604 366.115C183.044 365.826 182.421 365.681 181.798 365.743C180.428 365.826 179.12 366.24 177.957 366.984C177.418 367.626 176.982 368.309 176.629 369.053C175.757 370.978 175.259 373.109 175.155 375.24C175.051 378.033 175.03 380.805 175.072 383.619C175.134 385.937 174.885 388.275 174.324 390.53C173.598 393.385 171.688 395.806 169.051 397.13L168.927 397.109C168.449 397.047 167.993 396.985 167.536 396.965C167.141 396.965 166.726 396.903 166.332 396.82C166.062 396.737 165.834 396.613 165.626 396.427C165.086 395.702 164.692 394.896 164.484 394.006C164.214 392.599 164.297 391.171 164.754 389.806C165.294 388.213 165.958 386.702 166.706 385.254C167.37 383.992 167.93 382.709 168.346 381.343L167.432 379.15C167.162 378.53 166.809 377.95 166.353 377.454C165.647 377.309 164.941 377.226 164.235 377.267C163.903 377.329 163.592 377.495 163.28 377.661C162.408 378.219 161.723 379.026 161.266 379.978C160.997 381.219 160.81 382.419 160.664 383.661C160.498 385.047 160.166 386.392 159.689 387.654C159.149 389.102 158.111 390.261 156.741 390.964C156.014 391.171 155.308 391.357 154.582 391.502C154.125 391.544 153.689 391.585 153.232 391.523C152.9 391.461 152.61 391.337 152.34 391.13C152.111 390.882 151.966 390.571 151.904 390.261L152.111 386.144C152.236 385.895 152.402 385.668 152.61 385.461C152.921 385.15 153.295 384.923 153.731 384.778C154.084 384.302 154.416 383.826 154.706 383.309C155.391 382.295 155.827 381.137 156.014 379.916C156.201 378.819 155.952 377.681 155.308 376.75C154.623 376.605 153.938 376.543 153.232 376.564C151.925 377.102 150.762 377.95 149.828 379.005C148.831 380.185 147.939 381.426 147.108 382.75C145.302 383.723 143.351 384.302 141.296 384.488C139.116 384.737 136.915 384.385 134.943 383.412L137.476 375.881L145.676 373.833C145.987 373.543 146.195 373.171 146.319 372.736C146.402 372.405 146.361 372.053 146.174 371.764L143.6 370.605L134.673 367.646C134.839 367.171 135.068 366.736 135.358 366.281C136.272 365.577 137.289 364.998 138.368 364.605C141.856 363.446 145.634 363.488 149.101 364.667C151.115 365.164 153.17 365.515 155.225 365.702C156.803 365.846 158.381 365.702 159.896 365.288C161.225 364.895 162.387 364.046 163.114 362.846C163.156 362.784 163.197 362.722 163.197 362.619C163.322 362.226 163.363 361.895 163.363 361.481C163.197 361.253 163.052 361.005 162.865 360.777C162.512 360.322 162.076 359.95 161.578 359.681C161.349 359.557 161.08 359.474 160.81 359.432C160.353 359.412 159.917 359.412 159.46 359.432L154.976 359.867C153.772 359.991 152.547 359.97 151.364 359.784C149.869 359.557 148.561 358.667 147.793 357.405C147.98 356.825 148.229 356.308 148.561 355.812C149.288 354.674 150.451 353.805 151.779 353.391C152.963 352.977 154.167 352.729 155.412 352.605C156.762 352.46 158.111 352.253 159.44 351.922C160.457 351.715 161.412 351.239 162.242 350.556L162.304 350.411C163.031 348.653 163.135 346.646 162.574 344.784C162.387 344.122 162.035 343.522 161.536 342.984C160.997 342.673 160.457 342.363 159.917 342.073C158.568 341.556 157.073 341.473 155.682 341.866C154.27 342.301 152.963 342.922 151.738 343.749L147.108 346.873C145.302 347.97 143.371 348.86 141.358 349.48C137.434 350.825 133.178 350.949 129.172 349.853L127.843 347.329C126.037 346.646 124.189 346.046 122.321 345.487L122.155 345.404L119.373 344.142C118.626 343.791 117.941 343.397 117.318 342.88C116.55 342.239 116.093 341.266 116.114 340.273L125.041 334.087C125.227 334.004 125.373 333.859 125.497 333.673C125.643 333.466 125.726 333.176 125.788 332.928L125.933 332.018C125.954 331.832 125.996 331.625 126.079 331.459C126.162 331.314 126.265 331.17 126.431 331.087C127.2 330.797 128.009 330.611 128.798 330.466C130.936 330.156 133.137 330.011 135.317 330.052C137.102 330.073 138.887 329.887 140.631 329.535C142.313 329.225 143.807 328.418 144.991 327.218L145.468 325.873C145.531 325.687 145.551 325.459 145.551 325.252C145.551 324.093 145.219 322.935 144.576 321.962C144.181 321.259 143.641 320.659 142.977 320.162C139.884 318.9 136.479 318.528 133.178 319.086C129.649 319.686 126.182 320.576 122.819 321.776C119.622 322.893 116.321 323.742 113.021 324.259C109.948 324.714 106.834 324.342 103.99 323.121C103.845 322.852 103.741 322.562 103.699 322.273C103.637 321.921 103.616 321.549 103.616 321.155C103.616 320.886 103.554 320.617 103.492 320.39C103.43 320.1 103.284 319.873 103.056 319.707L96.1637 316.479L94.5859 314.204L103.056 307.107C104.696 306.341 106.481 305.907 108.308 305.927C110.218 305.948 112.128 306.093 114.038 306.279C116.093 306.527 118.19 306.403 120.224 306.01C120.598 305.907 120.972 305.7 121.325 305.493C122.363 304.893 123.006 303.796 123.068 302.596L122.944 302.451C122.466 301.851 122.03 301.189 121.615 300.507C118.377 297.341 113.581 296.265 109.305 297.796C106.585 297.838 103.866 297.879 101.146 297.796C96.9318 297.796 92.7591 297.155 88.7317 295.851C85.5969 294.858 82.8359 292.872 80.8429 290.223L79.6804 284.741L78.7047 284.12C77.9158 283.603 77.21 283.023 76.6079 282.299C75.9021 281.43 75.6322 280.354 75.7983 279.278C76.3796 278.761 77.0439 278.389 77.7705 278.12C79.4728 277.499 81.2997 277.209 83.1058 277.23L87.922 274.685L101.665 282.734L102.516 282.403C102.952 282.258 103.367 282.03 103.72 281.782C104.115 281.513 104.385 281.099 104.488 280.644C104.571 279.299 104.405 277.954 103.949 276.692C103.637 275.678 103.097 274.768 102.371 274.002C101.167 273.051 99.942 272.099 98.6964 271.188C96.6204 269.719 94.6897 268.044 92.9459 266.181C90.9114 263.947 89.7904 261.071 89.7904 258.05L91.6173 245.264C91.8249 245.139 92.0532 245.057 92.3024 245.015C92.6345 244.933 92.9667 244.912 93.3196 244.912C93.5895 244.891 93.8593 244.87 94.1292 244.808C94.4199 244.767 94.669 244.601 94.8558 244.395C95.2918 243.112 95.707 241.85 96.0806 240.546C96.4336 239.325 96.9318 238.146 97.5961 237.05C98.1981 236.015 99.1531 235.208 100.295 234.794L109.305 245.077L113.415 245.926C113.602 246.195 113.789 246.484 113.934 246.774C114.91 248.802 115.491 250.995 115.678 253.25C115.657 253.684 115.657 254.14 115.719 254.574L116.01 256.891C116.176 258.216 115.969 259.561 115.408 260.761L115.45 261.133L115.553 265.892C115.595 267.03 115.802 268.126 116.176 269.181C116.633 270.464 117.629 271.457 118.937 271.933H120.224C120.66 271.582 121.117 271.251 121.615 271.064L125.041 263.016L129.857 258.05C130.168 257.326 130.583 256.685 131.123 256.105C131.725 255.422 132.514 254.926 133.345 254.636C133.947 254.905 134.486 255.278 134.943 255.712C135.856 256.664 136.542 257.823 136.936 259.043C137.476 260.74 137.891 262.478 138.182 264.216C138.265 264.692 138.472 265.126 138.784 265.499C139.074 265.83 139.427 266.119 139.801 266.388C140.154 266.616 140.507 266.864 140.818 267.133C141.171 267.464 141.462 267.857 141.565 268.333L138.784 288.858L138.804 290.037C138.784 292.044 139.178 293.948 139.988 295.727C140.424 296.472 140.984 297.155 141.607 297.734C142.541 298.624 143.724 299.12 144.991 299.141C145.738 298.81 146.444 298.355 147.046 297.796C147.669 297.237 148.146 296.534 148.416 295.727C148.665 295.106 148.831 294.465 148.935 293.803C149.06 292.727 149.143 291.692 149.205 290.658C149.226 289.913 149.371 289.189 149.599 288.506C149.849 287.699 150.43 286.996 151.177 286.603C151.904 286.416 152.547 286.003 153.046 285.444L153.938 283.644C154.353 282.796 154.893 282.03 155.516 281.327C156.014 280.768 156.679 280.354 157.426 280.189L164.92 287.513C165.564 287.534 166.228 287.699 166.768 288.03C166.872 288.072 166.955 288.134 167.038 288.217C168.117 290.886 168.74 293.658 168.948 296.513C169.155 300.424 169.197 304.396 169.072 308.348C168.927 312.652 169.467 316.955 170.65 321.114C171.75 323.473 173.079 325.769 174.657 327.9C176.546 330.59 179.12 332.701 182.089 334.087C182.483 333.983 182.857 333.818 183.21 333.611C183.293 333.549 183.396 333.487 183.479 333.404C184.268 330.59 184.663 327.652 184.725 324.714C184.746 320.969 184.953 317.245 185.348 313.521C184.58 295.375 182.525 277.292 179.182 259.416L173.452 233.408C172.186 226.891 170.401 220.477 168.076 214.249L156.222 184.062L164.92 178.806C165.024 178.806 165.149 178.786 165.252 178.786C165.605 178.806 165.917 178.91 166.187 179.117C166.602 179.386 166.955 179.737 167.266 180.11C168.076 181.144 168.719 182.303 169.259 183.503C169.425 183.917 169.591 184.331 169.736 184.765L171.376 188.055C183.625 215.759 191.659 245.119 195.23 275.161C195.562 276.609 195.79 278.037 195.956 279.506L196.932 289.644C197.202 291.692 197.762 293.658 198.676 295.5L198.738 295.624C198.759 295.686 198.8 295.748 198.8 295.831C198.862 296.12 198.904 296.389 198.946 296.7C199.07 298.686 199.132 300.693 199.112 302.7C199.112 303.403 199.132 304.107 199.174 304.81C199.174 304.893 199.195 304.955 199.195 305.017L199.444 303.817L202.059 280.292C202.578 274.871 203.492 269.492 204.821 264.216C207 253.291 209.595 242.429 212.585 231.649C217.339 213.028 224.667 195.152 234.383 178.537C234.569 178.351 234.798 178.227 235.068 178.165C235.275 178.124 235.462 178.124 235.69 178.124L245.302 184.765C237.476 199.124 231.227 214.29 226.743 229.994L219.498 260.885C213.685 284.368 211.962 308.679 214.432 332.701C214.557 332.845 214.702 332.97 214.848 333.094C215.097 333.28 215.429 333.383 215.74 333.404L216.488 333.011C222.695 329.825 226.951 323.845 227.947 316.997L228.196 315.528C229.089 308.969 229.525 302.348 229.566 295.727C229.815 295.21 230.023 294.693 230.189 294.155C230.5 292.996 230.75 291.817 230.936 290.617C231.04 289.768 231.248 288.961 231.559 288.217L235.69 286.81L236.542 285.485C237.227 284.389 238.057 283.396 239.012 282.506C239.988 281.616 241.254 281.099 242.583 281.099C242.769 281.223 242.956 281.327 243.102 281.451C243.496 281.844 243.87 282.258 244.202 282.734L246.008 286.106L248.541 287.699C248.873 288.403 249.143 289.106 249.267 289.851C249.475 291.092 249.599 292.375 249.599 293.658C249.599 294.61 249.703 295.582 249.89 296.555C250.118 297.548 250.7 298.5 251.509 299.141L254.25 299.844L256.429 298.334C257.924 296.658 258.962 294.651 259.419 292.458C259.876 289.996 259.876 287.451 259.398 284.989L257.675 276.278C257.135 273.671 257.073 270.982 257.488 268.333L257.592 268.209C258.111 267.837 258.609 267.506 259.191 267.216C259.606 266.968 260 266.678 260.374 266.347C260.789 265.954 261.08 265.437 261.121 264.878C261.412 262.457 262.18 260.078 263.405 257.947C264.007 256.85 264.879 255.94 265.937 255.278C266.789 255.464 267.557 255.919 268.138 256.56C268.719 257.243 269.197 258.05 269.508 258.878L270.525 261.795C270.733 262.416 271.065 262.995 271.439 263.533C271.522 263.678 271.646 263.802 271.792 263.885C271.999 264.03 272.29 264.133 272.56 264.195C272.85 264.237 273.141 264.299 273.452 264.34C273.639 264.361 273.847 264.402 274.034 264.485C274.2 264.568 274.366 264.692 274.449 264.878L275.57 270.361C275.881 271.064 276.297 271.706 276.836 272.264C277.438 272.926 278.165 273.464 278.995 273.816C279.784 273.34 280.469 272.699 281.051 271.995C282.172 270.547 282.857 268.83 283.064 267.03C283.334 264.919 283.396 262.83 283.293 260.74C283.189 258.298 283.272 255.836 283.583 253.416C283.832 251.367 284.621 249.422 285.888 247.767L289.292 247.084C290.164 246.65 290.932 246.112 291.597 245.47C292.635 244.415 293.569 243.277 294.378 242.077C295.126 240.939 295.998 239.884 296.953 238.891C297.866 237.96 299.049 237.318 300.316 237.05L304.426 246.381C304.551 246.567 304.696 246.712 304.883 246.836C305.132 246.96 305.402 247.043 305.672 247.084L306.668 247.229C306.876 247.271 307.083 247.333 307.27 247.395C307.457 247.477 307.582 247.602 307.685 247.767L309.056 261.464C308.703 262.561 308.204 263.616 307.582 264.609C306.128 266.719 304.426 268.664 302.454 270.34C300.461 272.057 298.53 273.857 296.704 275.782C295.375 277.168 294.337 278.823 293.693 280.644C293.776 280.996 293.922 281.368 294.15 281.678L294.524 282.175C294.669 282.341 294.773 282.506 294.814 282.734C294.96 282.858 295.147 282.961 295.313 283.106C295.832 283.396 296.371 283.644 296.932 283.83C298.157 283.872 299.382 283.603 300.461 283.106C301.644 282.485 302.745 281.72 303.72 280.83C304.779 279.878 305.879 278.989 307 278.182C308.474 277.127 310.197 276.589 311.983 276.547L323.691 280.644L317.505 288.217L317.795 289.127C317.92 289.479 317.982 289.851 317.982 290.223C315.097 294.775 310.426 297.941 305.132 298.955C300.959 299.741 296.745 300.051 292.51 299.865C288.005 299.679 283.5 299.741 278.995 300.031C278.497 300.279 277.999 300.569 277.542 300.879C276.774 301.396 276.068 302.017 275.528 302.741C275.113 303.279 274.906 303.962 274.864 304.624L276.255 307.376L293.423 308.017C293.756 308.1 294.046 308.224 294.337 308.348C295.022 308.721 295.603 309.259 296.018 309.941C296.351 310.459 296.641 310.955 296.932 311.472L302.184 314.204C302.205 314.307 302.226 314.41 302.267 314.493C302.35 314.866 302.371 315.217 302.371 315.59L293.423 323.121C293.423 323.349 293.423 323.576 293.382 323.804C293.32 324.073 293.237 324.362 293.071 324.611C293.008 324.735 292.884 324.88 292.738 324.962C289.479 325.935 286.012 326.038 282.711 325.252C279.161 324.425 275.695 323.369 272.248 322.107C269.363 321.031 266.332 320.245 263.259 319.811C259.917 319.335 256.512 319.997 253.606 321.776C253.461 322.045 253.295 322.335 253.087 322.624C252.755 323.018 252.444 323.411 252.153 323.845C251.717 324.445 251.509 325.149 251.509 325.873L251.572 325.997L252.423 327.921C253.232 328.852 254.229 329.618 255.35 330.114C256.907 330.797 258.568 331.19 260.27 331.335L266.477 331.749C267.951 331.852 269.384 332.163 270.754 332.701L272.165 335.473C272.498 335.825 272.871 336.156 273.286 336.404C273.888 336.777 274.532 337.108 275.196 337.397C276.089 337.77 276.919 338.287 277.687 338.866C278.539 339.404 279.265 340.108 279.826 340.977C280.49 341.97 280.635 343.232 280.179 344.37L268.491 349.853C268.346 350.225 268.159 350.618 267.93 350.949C267.64 351.446 267.183 351.756 266.643 351.901C264.318 352.46 261.889 352.501 259.523 351.922C257.011 351.28 254.582 350.205 252.34 348.798C250.015 347.329 247.627 345.922 245.178 344.639C242.479 343.191 239.427 342.487 236.375 342.528C235.587 342.942 234.902 343.563 234.445 344.329C233.76 345.611 233.469 347.06 233.677 348.487L237.061 352.77C237.289 352.874 237.517 352.956 237.746 353.039C239.24 353.536 240.797 353.97 242.334 354.301C243.579 354.57 244.783 354.963 245.946 355.543C247.274 356.184 248.312 357.343 248.811 358.77C248.728 358.998 248.624 359.226 248.52 359.432C248.458 359.557 248.375 359.681 248.292 359.763C248.271 359.784 248.209 359.846 248.167 359.867C247.71 360.157 247.191 360.363 246.652 360.467C245.676 360.674 244.679 360.632 243.745 360.384C242.645 360.115 241.607 359.784 240.548 359.432C239.718 359.163 238.887 358.998 238.036 358.957C236.894 358.853 235.773 359.288 234.985 360.136L233.884 362.846C233.947 363.239 234.092 363.55 234.299 363.86L234.715 364.398C234.839 364.564 234.922 364.75 234.985 364.936C236.043 365.598 237.185 366.033 238.389 366.24C240.195 366.488 242.001 366.467 243.787 366.157L250.347 365.081C252.589 364.771 254.872 364.936 257.031 365.577C257.301 365.764 257.55 365.929 257.841 366.053C258.443 366.364 259.004 366.653 259.564 366.984C260 367.233 260.374 367.626 260.644 368.019C260.976 368.536 261.059 369.157 260.934 369.716L249.433 372.467C249.35 372.55 249.267 372.633 249.205 372.736C248.956 373.026 248.811 373.44 248.811 373.833C248.873 374.019 248.914 374.205 248.997 374.412C249.101 374.681 249.247 374.95 249.433 375.178L258.63 378.633C258.796 379.481 259.087 380.33 259.419 381.116C259.71 381.778 259.959 382.481 260.166 383.185C260.353 383.93 260.312 384.716 260.021 385.461C259.46 385.937 258.817 386.247 258.132 386.433C256.948 386.702 255.703 386.744 254.499 386.454C252.776 386.081 251.073 385.523 249.433 384.778L244.617 378.364C244.41 378.302 244.223 378.219 244.036 378.136C243.517 377.93 242.998 377.743 242.458 377.557C242.147 377.474 241.794 377.412 241.462 377.454C241.088 377.454 240.735 377.64 240.486 377.93L239.199 380.681C239.282 381.261 239.531 381.861 239.842 382.378C240.299 383.081 240.797 383.723 241.358 384.302C242.105 385.068 242.769 385.937 243.288 386.847C243.849 387.571 244.036 388.502 243.828 389.371C243.621 390.282 243.185 391.151 242.583 391.854C241.731 392.02 240.88 391.958 240.071 391.709C239.012 391.337 238.015 390.861 237.061 390.261C236.874 390.054 236.687 389.806 236.542 389.537C236.085 388.73 235.815 387.84 235.732 386.95C235.628 385.792 235.545 384.633 235.504 383.454C235.462 382.523 235.337 381.654 235.068 380.764C234.735 379.688 233.947 378.84 232.95 378.364C232.556 378.219 232.12 378.136 231.725 378.095C231.206 378.074 230.687 378.095 230.231 378.219C229.961 378.302 229.732 378.447 229.566 378.633C228.591 379.73 228.113 381.199 228.279 382.647C228.424 383.785 228.653 384.861 229.047 385.895C229.504 387.219 229.898 388.585 230.231 389.971C230.563 391.42 230.48 392.951 229.981 394.358C229.94 394.585 229.878 394.771 229.795 394.999C229.545 395.702 229.172 396.406 228.674 396.965C228.175 397.503 227.49 397.813 226.743 397.813C226.265 397.627 225.809 397.399 225.373 397.13C223.67 395.827 222.321 394.171 221.408 392.226C219.954 388.792 219.581 385.006 220.349 381.343C220.743 379.895 221.034 378.405 221.2 376.936C221.47 374.888 221.325 372.819 220.806 370.833C220.349 369.136 219.29 367.709 217.816 366.736C217.463 366.736 217.11 366.653 216.799 366.488C216.425 366.302 216.072 366.074 215.74 365.826C215.263 365.66 214.744 365.598 214.246 365.681C213.581 365.826 213 366.074 212.481 366.488C211.692 367.109 210.965 367.791 210.322 368.536C209.637 369.26 209.325 370.233 209.388 371.226C209.45 372.116 209.678 373.026 210.031 373.895C210.654 375.24 211.339 376.605 212.128 377.93L212.17 378.095L212.689 379.916C212.855 380.412 212.938 380.888 212.938 381.385C212.938 381.778 212.813 382.15 212.564 382.481C212.315 382.771 212.003 383.04 211.609 383.185C211.464 383.102 211.298 382.999 211.111 382.916C210.571 382.709 210.031 382.461 209.512 382.192C209.097 382.006 208.723 381.737 208.433 381.343C208.246 380.557 207.935 379.854 207.457 379.212C206.813 378.302 205.9 377.619 204.821 377.267C204.468 377.267 204.094 377.267 203.741 377.288C203.388 377.288 203.014 377.33 202.682 377.474C202.412 377.557 202.163 377.723 201.997 377.93L200.689 381.343L206.813 390.964C206.71 391.171 206.585 391.44 206.523 391.709C206.294 392.413 206.025 393.095 205.713 393.695C203.928 396.902 200.814 399.178 197.222 399.841Z" fill="#FFF101"/>
<path fill-rule="evenodd" clip-rule="evenodd" d="M140.962 121.07C140.796 121.753 140.443 122.332 139.924 122.808C138.699 123.905 137.101 124.526 135.461 124.546C135.17 124.505 134.879 124.422 134.609 124.298C134.111 124.07 133.634 123.76 133.26 123.367C132.949 123.057 132.596 122.767 132.264 122.498C132.16 122.188 132.035 121.856 131.931 121.546C131.558 120.532 131.454 119.436 131.578 118.381C131.703 118.049 131.869 117.718 132.035 117.408C132.866 115.794 134.381 114.636 136.166 114.284C136.312 114.429 136.478 114.553 136.644 114.656C137.038 114.884 137.474 115.07 137.931 115.194C138.512 115.38 139.052 115.587 139.592 115.856C140.505 116.436 141.149 117.346 141.377 118.422C141.522 119.332 141.377 120.243 140.962 121.07ZM134.028 134.829C133.966 135.347 133.758 135.802 133.447 136.216C132.866 136.65 132.201 137.022 131.516 137.271C130.79 137.56 130.022 137.664 129.253 137.581L125.62 135.471L124.437 132.802L125.392 130.071C125.6 129.926 125.828 129.781 126.077 129.657C126.928 129.202 127.8 128.705 128.631 128.188C130.229 127.939 131.828 128.395 133.073 129.408C133.509 129.76 133.841 130.215 134.049 130.753C134.028 131.457 134.028 132.202 134.07 132.946C134.132 133.567 134.111 134.209 134.028 134.829ZM110.694 128.664C109.324 128.25 107.995 127.795 106.646 127.319C104.487 126.532 102.619 125.084 101.331 123.181C100.522 121.898 99.9198 120.491 99.5669 119.001C98.6119 115.505 99.2555 111.78 101.331 108.801C102.66 107.001 104.445 105.615 106.501 104.746C109.801 103.442 113.351 103.028 116.881 103.504C117.441 103.815 117.981 104.166 118.5 104.539C122.091 106.897 124.437 110.704 124.935 114.967C124.873 115.194 124.811 115.422 124.769 115.629C124.624 116.58 124.541 117.532 124.541 118.463C124.52 119.85 124.271 121.194 123.814 122.498C120.721 126.595 115.822 128.891 110.694 128.664ZM118.313 143.23L114.805 144.43L112.064 143.457L111.877 143.188C111.379 142.567 110.985 141.905 110.694 141.202C110.694 140.602 110.694 140.002 110.736 139.381C110.798 138.554 110.964 137.726 111.255 136.96C111.525 136.236 112.064 135.616 112.77 135.264C114.867 134.457 117.213 134.809 118.998 136.174L119.185 142.34L118.313 143.23ZM103.947 139.36C103.428 140.126 102.619 140.705 101.726 140.974H98.9856C98.5911 140.933 98.1967 140.788 97.8645 140.581C97.4909 140.354 97.138 140.064 96.8473 139.733C96.5982 139.464 96.3283 139.195 96.0169 138.947L95.5187 135.45C95.6225 135.181 95.7263 134.912 95.8508 134.664C96.4529 133.733 97.2833 132.988 98.3005 132.533L101.726 132.077C102.369 132.284 102.971 132.636 103.449 133.091C103.968 133.546 104.342 134.167 104.528 134.85L104.964 137.56C104.695 138.202 104.342 138.802 103.947 139.36ZM94.9167 127.319L93.9617 128.684C93.6918 129.222 93.2974 129.677 92.7784 130.029C91.7612 130.671 90.5571 130.898 89.3738 130.671L85.7201 128.684C85.118 127.05 85.2011 125.27 85.9484 123.698C86.2391 123.098 86.7165 122.601 87.2978 122.27C87.9206 122.125 88.5641 122.001 89.2077 121.919C90.2872 121.753 91.3667 121.794 92.4255 122.043C93.4842 122.27 94.3977 122.953 94.9167 123.905V127.319ZM83.7064 113.58L83.042 110.146L85.3464 107.166H90.7855L91.0138 107.415C91.2629 107.642 91.4913 107.87 91.7196 108.077C91.7196 108.408 91.8027 108.739 91.9065 109.049C92.031 109.422 92.1971 109.794 92.3424 110.146C92.6123 110.787 92.7161 111.491 92.6538 112.194C92.3424 113.022 91.8857 113.787 91.2629 114.47C90.6194 115.215 89.7059 115.711 88.7302 115.836L87.8376 116.063C87.111 115.732 86.3428 115.422 85.5955 115.153C85.2011 114.987 84.8066 114.801 84.433 114.553C84.1008 114.305 83.8309 113.953 83.7064 113.58ZM91.9065 95.3523C92.467 94.5453 93.2766 93.9453 94.2108 93.7177C94.2939 93.697 94.3769 93.697 94.4599 93.697L95.8301 93.5936C96.702 93.5315 97.5947 93.7384 98.3628 94.1729C98.9025 94.3591 99.38 94.6902 99.7329 95.1661C100.46 96.1178 100.854 97.2972 100.875 98.4972C100.293 99.8627 99.4215 101.104 98.342 102.159L94.2108 102.615H93.7541L93.4842 102.428C92.6954 101.932 92.0518 101.249 91.5951 100.442C91.1799 99.6145 90.91 98.7248 90.7439 97.8144C91.0138 96.9454 91.4082 96.1178 91.9065 95.3523ZM104.425 90.0556C104.944 88.8141 105.982 87.8831 107.248 87.49L111.379 87.7383C111.504 87.8624 111.628 87.9865 111.774 88.1107C112.189 88.6072 112.542 89.1659 112.77 89.7659C112.853 89.8693 112.936 89.9521 113.019 90.0556C113.268 90.4694 113.434 90.9659 113.476 91.4625C113.517 92.5177 113.31 93.5522 112.853 94.5247C112.687 94.9798 112.417 95.3937 112.085 95.7661L111.94 95.8902C111.296 96.4075 110.549 96.7385 109.739 96.8627C108.68 97.0282 107.622 97.1109 106.563 97.0696H106.148C106.085 97.0696 106.023 97.0696 105.982 97.0489C105.816 96.9868 105.712 96.9247 105.608 96.8213C105.276 96.5523 104.985 96.242 104.757 95.8902C104.3 95.2281 103.968 94.4833 103.843 93.697C103.719 92.4556 103.926 91.1935 104.425 90.0556ZM120.036 91.6073C120.68 90.9246 121.406 90.3245 122.195 89.7659C122.486 89.7038 122.776 89.6418 123.108 89.6004C124.084 89.4555 125.081 89.5797 125.994 89.9728C126.824 90.3866 127.53 90.9452 128.112 91.6694C128.485 92.6418 128.589 93.697 128.465 94.7522C128.236 96.5316 127.281 98.1455 125.786 99.18L123.108 99.8627L120.285 98.4765C119.704 97.7937 119.351 96.9868 119.185 96.1385C119.019 95.104 118.957 94.0488 118.998 93.0143C119.309 92.5177 119.642 92.0418 120.036 91.6073ZM130.25 102.035C130.665 101.332 131.267 100.732 131.973 100.277C132.097 100.214 132.243 100.173 132.347 100.132C134.215 99.5524 136.249 99.9662 137.723 101.228C137.889 101.497 138.014 101.766 138.159 102.035C138.803 103.277 139.01 104.663 138.824 106.028C138.741 106.38 138.595 106.711 138.408 107.022C137.827 107.87 137.038 108.532 136.104 108.946L132.72 109.442H132.222C131.412 108.987 130.748 108.304 130.291 107.497C129.689 106.401 129.336 105.201 129.212 103.959C129.482 103.297 129.835 102.656 130.25 102.035ZM183.727 120.367C182.648 118.981 181.444 117.698 180.115 116.56C177.271 114.574 173.929 113.415 170.462 113.187C166.953 112.96 163.445 112.96 159.957 113.187C157.3 113.332 154.643 113.229 151.985 112.898C151.736 112.836 151.508 112.753 151.28 112.649C151.134 112.567 150.989 112.442 150.906 112.318C150.802 112.153 150.74 111.987 150.74 111.801C150.761 111.698 150.761 111.573 150.802 111.491C156.677 110.477 162.511 109.153 168.261 107.58C172.662 106.339 176.773 104.208 180.323 101.311C181.07 100.67 181.796 99.9455 182.44 99.2007C184.931 95.3936 185.907 90.7797 185.118 86.3106C184.558 82.6691 183.353 79.1311 181.568 75.9241C175.88 67.7101 169.154 60.2616 161.597 53.7442C155.764 49.2337 149.307 45.5715 142.436 42.8611C136.27 40.5231 129.586 39.9437 123.108 41.1645C118.313 43.2542 114.514 47.1646 112.604 52.0269C112.417 52.4614 112.23 52.8752 112.064 53.3097C111.67 57.0132 110.964 60.6754 109.988 64.2548C109.968 64.2962 109.905 64.3376 109.843 64.3376C109.739 64.3996 109.615 64.4203 109.511 64.441C109.199 64.441 108.909 64.3789 108.639 64.2548C107.435 61.0892 106.023 58.027 104.404 55.0683C102.639 51.82 99.9405 49.1923 96.6605 47.5164L96.2453 47.3302C92.2386 45.3853 87.6922 44.806 83.3327 45.7163C78.8901 46.6474 74.5513 48.1164 70.4616 50.082L67.3684 51.4475C62.4691 55.2959 57.8604 59.4547 53.5008 63.8824L50.8851 66.3238C46.8577 72.3861 43.2455 78.7173 40.0277 85.2554C36.893 91.6694 35.5644 98.7869 36.2079 105.904C36.3325 106.877 36.4985 107.828 36.6854 108.801C38.0971 113.808 41.8753 117.822 46.8162 119.498C51.5287 120.015 56.3034 119.767 60.9328 118.815C65.5208 117.863 70.1294 117.077 74.7381 116.456C76.4197 116.27 78.0804 116.229 79.762 116.27C79.8035 116.353 79.8658 116.436 79.8865 116.539C79.9488 116.767 79.9488 117.015 79.9073 117.243C79.8866 117.408 79.845 117.553 79.762 117.698C76.565 119.291 73.1811 120.45 69.6727 121.132C65.1056 122.043 60.5799 123.077 56.0958 124.236C52.2968 125.25 48.7468 127.029 45.6744 129.471C44.5118 130.443 43.4946 131.56 42.6227 132.781C40.8581 137.416 40.5675 142.464 41.73 147.285C41.8753 147.926 42.0414 148.588 42.1867 149.25C43.4323 153.409 45.3837 157.34 47.9372 160.858L53.5631 166.32C55.6183 168.265 58.0472 169.734 60.7045 170.644C61.5556 170.892 62.4068 171.058 63.2579 171.141C67.2646 176.044 71.9771 180.348 77.2293 183.927C82.2947 187.176 88.1697 188.996 94.2108 189.183L95.664 189.452C95.8508 189.472 96.0792 189.534 96.2453 189.638C99.3385 189.721 102.411 189.472 105.421 188.914C107.829 188.438 110.071 187.341 111.877 185.707C112.396 185.251 112.832 184.713 113.227 184.155C114.991 180.596 115.926 176.686 115.946 172.713V161.623C115.946 159.058 116.258 156.533 116.881 154.03C117.047 153.844 117.254 153.719 117.503 153.657C117.773 153.575 118.043 153.533 118.313 153.533C118.957 154.361 119.392 155.313 119.621 156.347C119.932 157.775 120.14 159.202 120.244 160.651C120.347 162.223 120.659 163.796 121.095 165.327C121.219 165.678 121.344 166.03 121.51 166.361C122.133 172.796 125.434 178.651 130.624 182.541C141.149 184.61 152.068 182.417 160.954 176.417C164.358 174.265 167.555 171.803 170.503 169.03C176.42 162.761 181.236 155.561 184.765 147.719C186.841 142.671 188.004 137.312 188.17 131.871C187.775 127.691 186.218 123.719 183.727 120.367Z" fill="#FFF101"/>
<path fill-rule="evenodd" clip-rule="evenodd" d="M318.55 113.142C318.217 113.99 317.595 114.714 316.785 115.149L313.38 115.645L310.682 114.673C310.495 114.549 310.329 114.362 310.183 114.176C309.83 113.68 309.602 113.08 309.478 112.48C309.291 111.487 309.228 110.473 309.249 109.459C309.374 109.314 309.457 109.149 309.561 109.004C310.017 108.197 310.64 107.493 311.387 106.935C311.637 106.748 311.906 106.583 312.197 106.459C313.526 105.962 314.979 105.983 316.245 106.521C316.744 106.707 317.159 107.017 317.491 107.39C317.636 107.597 317.761 107.804 317.906 108.011C318.217 108.631 318.467 109.252 318.674 109.873C319.006 110.949 318.944 112.107 318.55 113.142ZM316.66 127.77C316.287 128.68 315.581 129.404 314.688 129.839C313.837 130.232 312.924 130.522 312.01 130.687L310.952 130.377C310.142 130.149 309.395 129.839 308.689 129.384C307.941 128.928 307.402 128.163 307.194 127.315C307.111 126.363 307.173 125.432 307.402 124.521C307.63 123.342 308.315 122.308 309.27 121.583L314.066 121.087C314.73 121.314 315.353 121.687 315.851 122.183C316.328 122.639 316.681 123.259 316.785 123.921C316.702 124.17 316.66 124.439 316.681 124.728C316.702 125.059 316.744 125.39 316.785 125.721C316.889 126.239 316.889 126.777 316.827 127.315C316.764 127.459 316.702 127.625 316.66 127.77ZM306.094 138.984L301.091 141.694C299.783 141.425 298.62 140.743 297.728 139.749C296.939 138.715 296.42 137.494 296.295 136.17C296.565 135.28 296.98 134.432 297.478 133.646C297.997 132.88 298.766 132.342 299.658 132.094C300.219 131.991 300.779 131.949 301.36 131.97C302.523 131.97 303.686 132.26 304.724 132.818C305.305 133.108 305.782 133.584 306.094 134.184C306.364 134.825 306.509 135.508 306.53 136.232C306.55 137.163 306.384 138.094 306.094 138.984ZM294.178 127.397C291.479 127.956 288.676 128.121 285.915 127.956C283.424 127.356 281.223 126.011 279.583 124.066C277.943 121.976 276.822 119.576 276.303 116.969C276.656 114.942 277.217 112.956 277.943 111.052C279.064 108.135 281.14 105.693 283.839 104.162C285.126 103.438 286.6 102.962 288.074 102.817C292.143 102.507 296.191 103.645 299.471 106.045C299.741 106.438 300.011 106.831 300.302 107.204C301.111 108.176 301.817 109.231 302.398 110.349C302.523 110.659 302.648 110.99 302.71 111.342C303.167 113.328 303.208 115.418 302.834 117.445C302.482 119.763 301.547 121.956 300.156 123.839C299.907 124.211 299.596 124.542 299.285 124.852C297.852 126.135 296.067 127.025 294.178 127.397ZM291.354 140.039C290.981 140.743 290.607 141.425 290.233 142.149C290.005 142.625 289.714 143.081 289.32 143.474L285.209 144.425C284.13 144.012 283.154 143.37 282.345 142.563C281.556 141.777 281.099 140.743 281.078 139.646C281.369 138.963 281.618 138.26 281.826 137.556C282.137 136.418 282.926 135.487 284.005 134.97C284.836 134.577 285.728 134.308 286.621 134.163L287.493 134.473C288.261 134.742 289.008 135.094 289.693 135.508C290.212 135.86 290.648 136.315 290.939 136.873L291.624 139.646C291.541 139.77 291.458 139.915 291.354 140.039ZM276.988 136.253C276.303 136.832 275.473 137.225 274.601 137.391C273.563 137.556 272.525 137.618 271.466 137.598C271.072 137.536 270.698 137.391 270.345 137.184C269.972 136.956 269.64 136.646 269.349 136.315C269.1 136.025 268.809 135.736 268.518 135.487V130.066L268.913 129.653C269.1 129.487 269.266 129.301 269.39 129.115C269.619 129.115 269.826 129.094 270.055 129.053C270.636 128.949 271.196 128.804 271.757 128.618C272.546 128.349 273.376 128.204 274.186 128.184C275.245 128.473 276.158 129.053 276.822 129.901C277.611 130.956 278.11 132.197 278.338 133.48L276.988 136.253ZM264.553 124.563L261.813 123.177L260.671 119.08C260.713 118.728 260.879 118.418 261.086 118.128L261.377 117.735C261.522 117.528 261.626 117.259 261.605 117.011C261.772 116.825 261.938 116.659 262.124 116.494C262.54 116.183 262.955 115.894 263.432 115.666C263.495 115.604 263.578 115.521 263.661 115.48C264.076 115.19 264.553 115.004 265.031 114.983C266.173 114.9 267.314 115.107 268.332 115.604C268.705 115.769 269.058 115.997 269.37 116.287C269.515 116.556 269.681 116.804 269.868 117.032C270.055 117.259 270.2 117.507 270.325 117.776C270.491 118.19 270.574 118.625 270.553 119.08C270.74 119.763 270.74 120.487 270.532 121.17C270.013 122.701 268.871 123.942 267.377 124.563H264.553ZM264.263 102.528C264.533 102.197 264.844 101.907 265.238 101.721C267.314 100.914 269.66 101.266 271.425 102.631C271.549 102.879 271.715 103.107 271.902 103.335C272.068 103.562 272.234 103.79 272.338 104.059C272.525 104.493 272.608 104.948 272.587 105.404C272.712 106.852 272.318 108.28 271.425 109.438C270.906 110.142 270.179 110.659 269.349 110.886H265.923H265.467C265.135 110.68 264.782 110.431 264.491 110.162C263.723 109.417 263.183 108.466 262.955 107.431L262.934 107.286C262.726 105.59 263.204 103.872 264.263 102.528ZM274.746 92.2446C274.933 91.7687 275.203 91.3549 275.556 91.0032C275.826 90.8583 276.054 90.6721 276.303 90.4859C276.532 90.3204 276.76 90.1548 277.03 90.0514C277.424 89.8652 277.84 89.8031 278.276 89.8238C279.023 89.6169 279.812 89.6376 280.538 89.8859C282.033 90.4238 283.196 91.5618 283.798 93.0515C283.922 94.2515 283.735 95.4516 283.279 96.5688C282.78 97.8723 281.701 98.8448 280.352 99.2172H276.968H276.469C276.324 99.1965 276.2 99.1344 276.054 99.0724C275.764 98.9482 275.515 98.7413 275.328 98.4723C275.162 98.1827 275.016 97.893 274.85 97.6033C274.643 97.2723 274.477 96.8999 274.373 96.4861C274.082 95.0791 274.186 93.5894 274.746 92.2446ZM288.822 90.9204C289.071 89.741 289.756 88.6858 290.711 87.9824L293.451 86.8651L296.939 88.21L298.745 92.286L298.205 93.6101C297.977 94.1274 297.686 94.6446 297.375 95.0998C297.084 95.4929 296.69 95.7826 296.233 95.9688L293.451 97.0654L292.434 96.7964C291.624 96.5688 290.856 96.2378 290.15 95.8033C289.382 95.3481 288.842 94.5826 288.614 93.6929C288.531 92.7618 288.614 91.8101 288.822 90.9204ZM302.212 95.7826C302.398 95.2653 302.668 94.8102 303.042 94.3964L303.146 94.355C303.831 94.0032 304.495 93.6101 305.16 93.2377C305.907 93.0101 306.737 93.0515 307.505 93.3205C309.104 93.8998 310.474 95.0171 311.367 96.4654C311.74 98.0585 311.408 99.7551 310.495 101.079C310.183 101.534 309.747 101.907 309.228 102.155L304.412 102.61H303.955C303.789 102.569 303.603 102.507 303.457 102.424C303.208 102.3 303.001 102.072 302.834 101.845C302.648 101.555 302.482 101.286 302.336 100.997C302.108 100.624 301.921 100.21 301.838 99.7551C301.61 98.4103 301.734 97.0654 302.212 95.7826ZM359.114 131.991C358.491 130.977 357.661 130.128 356.665 129.508C351.495 126.632 345.911 124.521 340.119 123.259C334.597 122.018 329.116 120.611 323.677 119.038C323.366 118.645 323.2 118.169 323.221 117.652C325.899 117.011 328.68 116.887 331.4 117.28C335.324 117.838 339.226 118.521 343.129 119.328C346.575 120.032 350.125 120.259 353.654 120.011C356.166 119.783 358.616 118.976 360.796 117.652C364.18 113.845 366.131 108.962 366.318 103.852C366.546 100.21 366.214 96.5481 365.405 92.9894C360.734 76.9131 350.893 62.7816 337.42 52.7882C332.895 50.1606 328.099 47.9881 323.117 46.3329L320.293 45.257C314.626 44.7604 308.959 46.188 304.205 49.2916C303.395 49.8709 302.648 50.5123 301.942 51.2158C299.243 55.0435 297.395 59.4298 296.565 64.0437C295.672 68.6163 295.091 73.2302 294.8 77.8855C294.759 78.1131 294.676 78.3407 294.572 78.5683C294.489 78.7338 294.364 78.8787 294.219 78.9821C294.074 79.0649 293.887 79.1269 293.721 79.1062C293.617 79.1062 293.513 79.0856 293.43 79.0649C292.517 76.52 292.019 73.8509 292.019 71.1612L292.06 60.0091C292.081 56.8849 291.624 53.7814 290.711 50.802C289.818 48.0915 288.116 45.6708 285.874 43.8707C283.424 41.5741 280.269 40.1465 276.905 39.8154C273.065 39.3809 269.183 39.6913 265.467 40.6844C259.716 42.8776 254.236 45.6294 249.046 48.9192L245.994 50.6985C239.247 56.1401 232.936 62.0782 227.082 68.4301C222.286 73.6647 218.903 79.9752 217.242 86.8444C216.993 87.9824 216.806 89.1203 216.702 90.2583C216.474 91.9756 216.619 93.7136 217.096 95.3688C217.595 96.7964 218.425 98.0792 219.567 99.0724C220.418 99.8379 221.269 100.562 222.162 101.245C225.587 103.81 229.469 105.776 233.58 106.997C239.642 108.88 245.89 110.162 252.18 110.824C252.243 110.866 252.264 110.907 252.305 110.969C252.326 111.073 252.367 111.197 252.367 111.3C252.367 111.611 252.326 111.9 252.18 112.169C249.357 112.831 246.43 113.1 243.524 112.956C240.036 112.79 236.569 112.769 233.123 112.873C229.656 112.956 226.293 113.907 223.304 115.604C222.826 115.873 222.369 116.183 221.933 116.514C218.093 119.763 215.56 124.294 214.813 129.259C214.211 132.673 214.086 136.149 214.439 139.605C219.899 155.019 229.988 168.405 243.295 177.985C248.361 180.758 253.841 182.62 259.529 183.53C263.889 184.233 268.394 183.509 272.318 181.482L272.878 181.151C275.95 178.006 278.151 174.116 279.272 169.854C280.414 165.592 281.327 161.267 282.033 156.902C282.469 154.502 283.05 152.143 283.798 149.805C284.213 149.515 284.69 149.37 285.189 149.391C285.645 152.908 285.728 156.488 285.396 160.026C285.002 164.247 284.877 168.488 284.919 172.73C284.981 176.413 285.915 180.033 287.659 183.302C287.929 183.82 288.261 184.316 288.614 184.813C290.669 186.965 293.264 188.558 296.129 189.406L298.932 190.296C308.419 190.358 317.781 187.999 326.106 183.427C329.22 181.585 332.043 179.289 334.452 176.599C335.137 175.399 335.905 174.261 336.735 173.185C340.223 172.875 343.607 171.778 346.617 169.999C348.631 168.695 350.374 166.957 351.682 164.929C357.08 158.826 360.464 151.15 361.315 143.018C361.128 140.908 360.941 138.777 360.671 136.687C360.443 135.032 359.924 133.439 359.114 131.991Z" fill="#FFF101"/>
</g>
<defs>
<clipPath id="clip0">
<rect x="0.5" y="0.607422" width="400" height="495.01" fill="white"/>
</clipPath>
</defs>
</svg>
