<svg width="401" height="523" viewBox="0 0 401 523" fill="none" xmlns="http://www.w3.org/2000/svg">
<g clip-path="url(#clip0)">
<path d="M200.209 521.985C122.395 465.53 69.061 394.229 37.1483 304.04C8.20906 222.269 -3.40222 123.17 1.64434 1.08904L1.66528 0.607422H399.339L399.36 1.08904C404.396 123.17 392.784 222.258 363.856 304.04C331.943 394.229 278.609 465.53 200.795 521.985L200.502 522.194L200.209 521.985Z" fill="#0085CA"/>
<path fill-rule="evenodd" clip-rule="evenodd" d="M101.696 375.791C101.518 371.182 106.463 365.718 112.871 362.732C122.24 358.366 127.209 360.933 131.799 352.697C136.776 343.769 142.008 345.033 157.342 340.908C166.387 338.474 162.63 315.467 165.552 303.209C166.79 298.014 170.13 295.172 176.955 292.49C180.18 291.223 179.306 273.017 178.323 266.264C177.68 261.846 170.468 259.202 166.136 255.359C163.576 253.088 162.854 246.1 166.07 243.386C171.227 239.034 176.651 236.237 178.195 232.055C179.594 228.266 179.475 214.953 178.064 213.127C174.756 208.843 170.167 209.673 167.376 206.969C163.455 203.169 166.367 196.678 154.377 194.654C145.359 193.132 136.16 186.981 129.747 181.655C116.654 170.779 101.075 152.21 100.556 130.715L99.6434 92.9405C99.4149 83.4789 96.573 74.8775 88.9247 64.6614L77.2938 49.1256H323.229L311.598 64.6614C303.949 74.8775 301.107 83.4789 300.879 92.9405L299.967 130.715C299.448 152.21 283.869 170.779 270.775 181.655C264.363 186.981 255.163 193.132 246.145 194.654C234.155 196.678 237.068 203.169 233.146 206.969C230.356 209.673 225.767 208.843 222.458 213.127C221.048 214.953 220.928 228.266 222.327 232.055C223.871 236.237 229.295 239.034 234.452 243.386C237.669 246.1 236.946 253.088 234.387 255.359C230.055 259.202 222.842 261.846 222.199 266.264C221.217 273.017 220.342 291.223 223.568 292.49C230.392 295.172 233.732 298.014 234.971 303.209C237.893 315.467 234.135 338.474 243.181 340.908C258.514 345.033 263.746 343.769 268.723 352.697C273.313 360.933 278.283 358.366 287.652 362.732C294.059 365.718 299.004 371.182 298.826 375.791C233.116 375.791 167.406 375.791 101.696 375.791V375.791Z" fill="white"/>
</g>
<defs>
<clipPath id="clip0">
<rect x="0.5" y="0.607422" width="400" height="521.59" fill="white"/>
</clipPath>
</defs>
</svg>
