<svg width="401" height="488" viewBox="0 0 401 488" fill="none" xmlns="http://www.w3.org/2000/svg">
<g clip-path="url(#clip0)">
<path fill-rule="evenodd" clip-rule="evenodd" d="M400.12 0.607422C402.828 91.3952 391.052 182.036 365.232 269.146C337.171 358.78 278.976 436.054 200.434 487.971C121.893 436.054 63.6981 358.78 35.6371 269.146C9.86543 182.028 -1.86163 91.3875 0.89348 0.607422H400.12Z" fill="#00953A"/>
<path fill-rule="evenodd" clip-rule="evenodd" d="M253.489 361.525C253.398 357.626 252.853 353.751 251.864 349.978C250.486 343.948 248.04 338.21 244.641 333.035C243.161 330.822 241.229 328.947 238.971 327.531C236.313 326.656 233.992 324.985 232.325 322.746C231.939 321.588 231.78 320.367 231.856 319.149C232 318.323 232.396 317.562 232.991 316.97C233.586 316.378 234.35 315.983 235.178 315.839C236.551 315.432 237.923 315.06 239.296 314.724C242.221 313.883 245.326 313.883 248.252 314.724C252.376 315.619 256.45 316.723 260.46 318.034C268.837 321.665 275.442 328.437 278.843 336.884L280.576 341.56L279.926 371.202C279.863 371.284 279.821 371.381 279.806 371.483C279.79 371.585 279.801 371.69 279.837 371.787C279.873 371.884 279.933 371.97 280.012 372.038C280.091 372.106 280.186 372.152 280.287 372.173C280.728 372.013 281.132 371.768 281.479 371.454L284.874 368.072C284.336 358.873 285.562 349.655 288.486 340.913C289.487 338.46 291.088 336.296 293.145 334.617C295.395 333.896 297.788 333.735 300.115 334.15C301.82 334.203 303.499 333.725 304.918 332.783C311.135 331.728 316.852 328.729 321.243 324.221C321.507 323.997 321.695 323.697 321.779 323.361C321.864 323.025 321.84 322.672 321.712 322.351C321.525 322.266 321.322 322.222 321.116 322.222C320.911 322.222 320.708 322.266 320.52 322.351C314.491 324.52 308.625 327.117 302.968 330.121C298.633 330.519 294.277 329.643 290.436 327.603C284.233 324.047 278.316 320.018 272.739 315.552C262.32 309.414 250.425 306.207 238.32 306.271C232.47 305.935 226.643 305.419 220.84 304.724C219.695 304.225 218.667 303.494 217.821 302.577C216.975 301.661 216.331 300.578 215.929 299.4C213.832 296.133 212.476 292.45 211.956 288.608C211.48 283.001 211.981 277.354 213.437 271.916C214.556 266.714 215.113 261.408 215.098 256.088C214.929 247.67 214.929 239.277 215.098 230.907C215.159 229.015 215.837 227.195 217.029 225.721C218.222 224.248 219.864 223.202 221.707 222.741C225.941 221.462 230.502 221.808 234.492 223.712C236.491 224.959 238.513 226.159 240.56 227.31C244.798 228.503 249.286 228.503 253.525 227.31C255.403 226.278 257.233 225.163 259.015 223.964C260.415 223.093 261.996 222.551 263.638 222.381C265.817 222.599 267.977 222.971 270.103 223.497C271.817 223.857 273.589 223.857 275.303 223.497C281.545 221.661 288.226 221.978 294.264 224.396C296.7 224.946 299.251 224.641 301.487 223.532L306.219 222.381C308.113 221.892 309.806 220.822 311.058 219.324C313.561 215.521 316.44 211.977 319.654 208.748C320.679 207.186 321.131 205.32 320.933 203.465C320.736 201.61 319.901 199.88 318.57 198.567C314.878 196.013 310.657 194.316 306.219 193.603C301.744 193.805 297.319 194.628 293.072 196.049C285.108 195.816 277.144 196.516 269.344 198.135C265.492 199.742 261.579 201.193 257.606 202.488C251.892 202.844 246.312 204.362 241.21 206.949C236.776 210.14 232.554 213.613 228.569 217.345C227.133 218.618 225.266 219.304 223.344 219.263C221.422 219.223 219.586 218.461 218.204 217.129C216.853 215.544 215.944 213.634 215.567 211.589C215.062 203.627 214.905 195.641 215.098 187.631L215.423 166.515C215.475 162.815 216.469 159.188 218.312 155.975C219.108 155.268 220.041 154.73 221.054 154.396C222.066 154.062 223.137 153.938 224.199 154.033C226.318 154.033 228.449 154.033 230.592 154.033C233.305 153.927 236.002 154.509 238.429 155.723C242.132 157.54 246.052 158.881 250.094 159.716C254.647 161.184 258.956 163.318 262.879 166.048C265.332 167.801 268.275 168.744 271.294 168.746C272.566 168.491 273.786 168.029 274.906 167.379C278.858 165.342 283.076 163.865 287.438 162.99C289.581 162.822 291.724 162.702 293.867 162.63C295.959 162.541 298.017 162.065 299.934 161.227C302.221 159.628 304.637 158.22 307.158 157.018C311.253 156.137 315.428 155.679 319.618 155.651C321.481 155.752 323.312 155.131 324.726 153.917C326.14 152.703 327.027 150.991 327.202 149.14C327.586 147.195 327.816 145.222 327.888 143.241C327.925 141.367 327.84 139.492 327.635 137.629C327.387 135.477 326.313 133.505 324.638 132.125L317.992 128.851C314.75 127.772 311.368 127.166 307.952 127.053C305.259 126.904 302.593 126.445 300.007 125.686C297.464 123.865 294.696 122.377 291.772 121.261C289.093 120.889 286.386 120.745 283.682 120.829C279.694 120.858 275.778 121.898 272.306 123.851C268.863 125.88 265.664 128.294 262.771 131.046C261.987 131.927 260.944 132.541 259.79 132.799C258.636 133.057 257.43 132.947 256.342 132.485L252.731 131.01C251.304 130.72 249.829 130.768 248.424 131.149C247.019 131.53 245.723 132.234 244.641 133.204C243.228 134.43 241.878 135.727 240.596 137.089C239.294 138.683 238.088 140.353 236.984 142.089C235.798 143.952 234.364 145.646 232.722 147.126C229.16 148.587 225.275 149.096 221.454 148.601C220.005 148.643 218.595 148.128 217.518 147.162C216.282 144.956 215.589 142.491 215.495 139.967C215.351 137.137 215.351 134.307 215.495 131.477C214.929 127.096 215.885 122.653 218.204 118.887C219.516 116.992 221.07 115.275 222.827 113.779L231.278 105.613C232.714 104.516 234.066 103.313 235.323 102.015C236.16 101.224 237.176 100.645 238.284 100.325C240.316 100.292 242.308 100.882 243.991 102.015C250.742 105.385 258.36 106.64 265.841 105.613C270.263 104.126 274.394 101.886 278.048 98.9937C278.914 98.0905 280.05 97.4903 281.287 97.2829C282.524 97.0754 283.795 97.2717 284.91 97.8426L288.522 99.7492C290.94 101.256 293.678 102.181 296.518 102.449C299.358 102.718 302.222 102.323 304.882 101.296C310.882 98.816 316.617 95.7429 322.001 92.1229C324.146 90.9887 326.511 90.3263 328.935 90.1803L336.52 89.7846C338.061 89.7177 339.553 89.2246 340.829 88.3605C342.105 87.4964 343.114 86.2954 343.743 84.8923L346.018 80.2158C346.69 79.157 347.136 77.972 347.329 76.7343C347.521 75.4967 347.456 74.2328 347.138 73.0212C345.315 69.3042 343.711 65.4846 342.335 61.5817C341.718 57.1469 340.06 52.9194 337.495 49.243C335.832 47.5209 333.775 46.225 331.5 45.4658C325.57 43.6787 319.54 42.2374 313.442 41.149C311.448 40.8255 309.653 39.7579 308.422 38.1633C303.629 30.9869 296.458 25.7157 288.161 23.2704C286.492 22.335 284.595 21.88 282.682 21.9562C280.768 22.0325 278.914 22.6369 277.326 23.7021C275.201 24.5761 272.885 24.8831 270.604 24.5929C268.324 24.3027 266.16 23.4253 264.324 22.0473C261.661 18.5253 257.816 16.074 253.489 15.1405C249.324 15.1405 245.17 15.1405 241.029 15.1405C236.018 16.3762 231.214 18.327 226.763 20.9322C225.779 21.1292 224.76 21.0705 223.805 20.7618C222.85 20.4531 221.991 19.9047 221.31 19.1695C218.84 17.0445 216.124 15.2209 213.22 13.7375C211.083 12.697 208.749 12.1175 206.372 12.0369C203.994 11.9563 201.627 12.3765 199.424 13.2699C196.821 14.3066 194.288 15.5082 191.839 16.8672C190.695 17.442 189.411 17.686 188.135 17.5716C186.858 17.4571 185.639 16.9888 184.616 16.2197C181.729 15.0582 178.774 14.0731 175.768 13.2699C173.614 12.6993 171.348 12.6993 169.194 13.2699L147.85 23.3783C146.908 23.7147 145.942 23.9793 144.961 24.1697L139.038 25.0331C136.878 25.3135 134.8 26.0361 132.934 27.1555C129.097 30.4453 125.806 34.3182 123.183 38.6309C119.911 40.5617 116.962 42.9891 114.443 45.8255C112.577 48.726 111.164 51.8917 110.253 55.2145C109.818 57.6553 110.159 60.1705 111.228 62.4091L114.587 67.6971C115.831 69.8796 116.193 72.4528 115.598 74.8918C114.413 78.843 112.338 82.4726 109.531 85.5038C108.892 86.0514 108.141 86.454 107.33 86.6838C106.52 86.9137 105.668 86.9652 104.836 86.8348C102.787 85.7118 100.536 85.0033 98.2118 84.7502C95.8875 84.497 93.5358 84.7043 91.2922 85.3599C88.2825 86.2233 85.321 87.2065 82.4076 88.3097C79.4301 89.8019 76.7953 91.8925 74.6694 94.4495C72.5436 97.0066 70.9727 99.9747 70.056 103.167C69.0205 105.567 67.0919 107.475 64.6747 108.491C59.6289 112.048 55.4861 116.728 52.5758 122.16C51.7515 123.837 51.3546 125.69 51.4201 127.556C52.3381 130.539 53.6368 133.393 55.2845 136.046C56.2389 137.099 57.411 137.934 58.7203 138.493C60.0296 139.052 61.4449 139.322 62.8689 139.284H68.6836C70.7022 139.232 72.7095 139.602 74.5757 140.37C76.4419 141.138 78.1257 142.288 79.5184 143.744C84.157 147.981 90.0494 150.606 96.3123 151.227C98.7637 150.978 101.184 150.484 103.536 149.752C106.644 149.418 109.693 148.668 112.601 147.521C113.523 146.934 114.58 146.589 115.673 146.52C116.766 146.451 117.859 146.659 118.849 147.126C120.004 147.653 121.208 148.121 122.46 148.529C127.442 149.175 132.478 149.295 137.485 148.888C139.771 148.503 141.914 147.523 143.697 146.046L149.15 141.442C150.718 140.409 152.486 139.715 154.34 139.405C156.194 139.095 158.092 139.176 159.913 139.643C166.774 141.926 173.43 144.777 179.813 148.169C183.005 149.371 185.822 151.394 187.975 154.033C188.717 155.348 189.161 156.809 189.275 158.313C189.739 171.231 189.51 184.163 188.589 197.056C187.847 199.347 186.867 201.553 185.663 203.639C184.835 204.96 183.551 205.932 182.052 206.373C178.633 206.517 175.202 206.517 171.759 206.373C170.462 206.304 169.202 205.92 168.088 205.255C166.974 204.591 166.04 203.666 165.366 202.56L162.802 198.639C160.456 195.647 157.667 193.027 154.531 190.869C150.815 189.923 146.99 189.463 143.155 189.502C140.789 189.362 138.477 188.738 136.365 187.667C132.943 185.405 129.358 183.397 125.639 181.66C123.957 180.665 122.054 180.101 120.1 180.019C118.146 179.938 116.202 180.341 114.443 181.192C111.564 183.167 108.49 184.842 105.269 186.192L90.2448 186.984C87.0927 187.883 84.3417 189.824 82.4438 192.488C80.5666 195.097 78.9459 197.879 77.6042 200.798C77.2667 201.703 77.2667 202.698 77.6042 203.603C78.4897 204.937 79.7441 205.987 81.2158 206.625C82.0954 207.095 82.9192 207.662 83.6717 208.316C85.0983 210.035 86.0892 212.071 86.561 214.251C86.8696 215.781 87.52 217.223 88.4641 218.468C89.4082 219.714 90.6216 220.731 92.0145 221.446C93.8377 222.381 95.7197 223.198 97.6486 223.892C102.371 225.085 107.356 224.706 111.842 222.813C116.379 221.926 121.079 222.44 125.313 224.288C130.621 225.086 136.042 224.617 141.132 222.921L151.425 221.266C153.493 220.921 155.442 220.068 157.096 218.784C159.546 216.313 161.659 213.531 163.38 210.51C164.238 209.787 165.289 209.328 166.404 209.187C167.519 209.047 168.652 209.232 169.664 209.719C171.03 210.25 172.368 210.85 173.673 211.517C175.733 212.401 177.694 213.499 179.524 214.791C181.061 216.026 182.089 217.779 182.413 219.719C183.368 236.493 183.368 253.308 182.413 270.082C181.859 272.48 181.197 274.962 180.426 277.528C179.628 283.097 179.134 288.705 178.946 294.328C178.052 298.18 176.317 301.789 173.864 304.898C171.41 308.007 168.299 310.539 164.752 312.314C161.699 313.948 158.239 314.672 154.784 314.4C140.348 310.857 125.12 312.487 111.77 319.005C108.911 320.538 105.786 321.515 102.56 321.883C98.5515 322.601 94.4295 322.377 90.5231 321.228C86.6167 320.079 83.0338 318.036 80.0601 315.264C79.0567 314.742 77.9414 314.471 76.8097 314.472C76.5824 314.525 76.3689 314.625 76.1829 314.765C75.9969 314.905 75.8427 315.083 75.7302 315.287C75.6178 315.49 75.5497 315.715 75.5303 315.947C75.5109 316.178 75.5408 316.411 75.6178 316.631C75.9567 317.86 76.6173 318.977 77.532 319.868C78.4229 321.385 79.6332 322.692 81.0797 323.698C82.5262 324.704 84.1744 325.385 85.9109 325.696C88.1501 326.224 90.4013 326.691 92.6646 327.099C94.6754 327.321 96.5491 328.222 97.9736 329.653C98.497 330.387 98.7636 331.272 98.7321 332.171C98.5154 334.809 98.407 337.459 98.407 340.121C98.1519 344.365 98.6159 348.621 99.7794 352.712C99.9126 353.027 100.096 353.318 100.321 353.575C100.477 353.753 100.676 353.89 100.899 353.971C101.369 353.692 101.769 353.311 102.069 352.856C102.369 352.402 102.562 351.885 102.633 351.345C103.621 347.135 104.357 342.871 104.836 338.574C107.609 332.007 112.519 326.559 118.776 323.106C121.907 321.883 125.085 320.78 128.311 319.796C133.785 319.323 139.297 319.565 144.708 320.516C150.179 320.842 155.52 322.313 160.382 324.833L163.452 327.063C163.805 329.449 163.374 331.884 162.224 334.006C160.221 336.591 157.567 338.602 154.531 339.833C151.326 340.338 148.094 340.663 144.852 340.805C141.584 340.817 138.327 341.178 135.137 341.884C131.162 342.273 127.392 343.825 124.302 346.345C124.185 346.56 124.124 346.801 124.124 347.046C124.124 347.291 124.185 347.532 124.302 347.748C128.926 348.403 133.619 348.403 138.243 347.748C145.111 348.45 152.019 346.869 157.89 343.251C160.848 341.937 163.421 339.894 165.366 337.315C167.605 335.06 170.116 333.09 172.842 331.452C173.528 331.06 174.295 330.83 175.084 330.781C175.873 330.731 176.663 330.862 177.393 331.164C179.372 332.468 180.957 334.283 181.979 336.416C182.454 337.677 182.51 339.056 182.139 340.351C181.769 341.646 180.991 342.788 179.921 343.611L170.061 351.453C169.227 352.221 168.541 353.136 168.039 354.151C158.29 360.975 147.354 365.94 135.787 368.792C129.138 369.579 122.439 367.789 117.079 363.792C116.788 363.499 116.425 363.288 116.026 363.18C115.627 363.072 115.207 363.071 114.807 363.177C114.408 363.283 114.043 363.492 113.751 363.783C113.459 364.074 113.249 364.437 113.142 364.835C112.898 365.864 113.066 366.948 113.612 367.856C117.905 371.213 122.378 374.336 127.011 377.209C127.879 377.831 128.689 378.529 129.431 379.296C130.078 380.061 130.436 381.029 130.442 382.03L129.72 389.045C129.752 392.244 129.969 395.439 130.37 398.613C130.461 399.548 130.744 400.454 131.2 401.275C131.271 401.399 131.388 401.489 131.525 401.527C131.588 401.554 131.656 401.568 131.724 401.568C131.792 401.568 131.86 401.554 131.923 401.527C132.305 401.136 132.622 400.687 132.862 400.196C134.595 395.547 135.806 390.721 136.473 385.807C136.658 384.831 136.912 383.87 137.232 382.929C139.274 379.109 142.241 375.858 145.863 373.468C149.547 371.07 153.339 368.9 157.24 366.957L163.633 364.331L167.461 363.432L174.034 359.834L188.48 349.762C188.993 349.319 189.661 349.097 190.338 349.145C191.015 349.192 191.646 349.504 192.092 350.014C192.319 352.949 191.953 355.901 191.016 358.693C190.08 361.486 188.591 364.063 186.638 366.274C182.341 371.787 177.646 376.981 172.589 381.814L161.032 392.102C159.288 393.765 157.825 395.696 156.698 397.822C155.69 400.517 155.152 403.364 155.109 406.24C155.109 409.933 155.193 413.638 155.362 417.355C155.699 419.034 156.12 420.689 156.626 422.32C157.396 426.162 158.891 429.824 161.032 433.112H161.285C162.046 432.519 162.628 431.728 162.966 430.826C163.303 429.925 163.384 428.948 163.199 428.003C163.028 423.69 162.521 419.396 161.682 415.161C163.392 405.504 168.517 396.775 176.129 390.555C176.973 389.834 178.049 389.437 179.162 389.437C180.275 389.437 181.352 389.834 182.196 390.555C183.082 395.292 182.503 400.184 180.535 404.585C178.996 408.581 178.474 412.894 179.018 417.14C178.492 421.25 178.812 425.423 179.957 429.406C180.381 435.996 181.202 442.555 182.413 449.048C182.748 453.285 183.979 457.404 186.024 461.135C186.344 461.54 186.769 461.851 187.252 462.034L187.505 462.286L189.022 461.422L188.047 451.638C187.444 447.547 188.099 443.371 189.925 439.659C190.997 438.249 192.432 437.155 194.078 436.493C195.227 436.1 196.453 435.98 197.657 436.143C198.861 436.305 200.01 436.745 201.013 437.428C204.741 439.728 207.647 443.139 209.319 447.177C209.56 448.352 209.849 449.551 210.186 450.774C210.256 451.26 210.442 451.722 210.729 452.121C211.016 452.52 211.395 452.844 211.834 453.066C212.273 453.288 212.76 453.402 213.252 453.398C213.745 453.393 214.229 453.271 214.664 453.041C215.31 451.875 215.702 450.587 215.814 449.261C215.926 447.934 215.756 446.599 215.315 445.342C213.36 438.465 209.866 432.118 205.094 426.78C201.899 425.437 198.51 424.611 195.053 424.334C192.931 424.018 190.893 423.284 189.058 422.176C187.344 420.784 186.201 418.814 185.849 416.639C185.496 414.464 185.957 412.235 187.144 410.377C188.04 406.946 188.501 403.417 188.516 399.872C188.509 396.037 188.738 392.205 189.203 388.397C191.372 381.508 194.548 374.975 198.629 369.008C201.574 363.487 203.899 357.66 205.563 351.633C206.272 349.323 207.595 347.247 209.392 345.625C209.889 345.219 210.472 344.93 211.098 344.781C211.723 344.631 212.375 344.625 213.003 344.762C214.063 345.018 215.051 345.51 215.892 346.201C217.312 347.792 218.174 349.799 218.348 351.92C219.054 360.757 218.69 369.646 217.265 378.397C216.136 381.958 215.564 385.67 215.567 389.404C216.512 395.911 218.525 402.219 221.527 408.074C223.634 412.013 225.503 416.073 227.124 420.233L229.436 431.421C229.672 432.098 230.04 432.721 230.519 433.256L233.698 436.637C233.983 430.196 233.681 423.742 232.795 417.355L231.278 407.247C231.28 406.319 231.57 405.414 232.108 404.657C235.571 403.968 239.127 403.883 242.618 404.405C245.243 404.717 247.867 404.921 250.492 405.017L268.224 401.168C269.626 400.616 270.867 399.726 271.836 398.577C271.907 398.493 271.956 398.394 271.979 398.287C272.003 398.18 272.001 398.069 271.972 397.963C271.944 397.858 271.891 397.76 271.817 397.679C271.743 397.598 271.65 397.536 271.547 397.498C271.367 397.306 271.145 397.158 270.897 397.067C268.868 396.481 266.762 396.202 264.649 396.239C256.728 396.239 248.818 396.407 240.921 396.743C238.854 396.491 236.82 396.021 234.853 395.34C233.645 394.924 232.533 394.27 231.584 393.417C230.635 392.564 229.867 391.53 229.328 390.376C228.602 386.939 227.661 383.551 226.511 380.231C225.808 377.884 225.808 375.384 226.511 373.037C226.875 371.519 227.152 369.981 227.341 368.432C228.84 362.957 229.605 357.308 229.616 351.633C228.238 346.884 226.052 342.406 223.152 338.395C222.435 336.381 222.033 334.27 221.96 332.135C221.868 331.555 221.921 330.961 222.113 330.405C222.306 329.85 222.632 329.35 223.063 328.949C223.494 328.548 224.017 328.258 224.587 328.105C225.156 327.952 225.755 327.94 226.33 328.07C227.502 328.617 228.596 329.319 229.58 330.157C238.753 339.814 244.794 351.998 246.916 365.123C249.132 369.709 252.413 373.705 256.487 376.778C257.806 375.921 258.808 374.657 259.34 373.18L253.525 361.381L253.489 361.525ZM188.986 115.146C191.13 117.086 192.426 119.784 192.598 122.664C193.141 126.983 192.785 131.367 191.55 135.542C190.671 137.279 189.199 138.647 187.398 139.398C185.597 140.15 183.586 140.237 181.727 139.643C175.491 138.538 169.462 136.488 163.849 133.564C161.951 132.784 160.166 131.755 158.54 130.506C157.583 129.494 156.899 128.256 156.554 126.909C155.776 123.768 155.423 120.538 155.506 117.304C155.567 116.424 155.895 115.584 156.445 114.894C157.039 114.208 157.763 113.645 158.576 113.239C162.022 111.612 165.363 109.774 168.58 107.735C170.102 106.028 172.194 104.929 174.467 104.641C175.198 104.737 175.887 105.036 176.454 105.505C180.211 109.155 184.394 112.343 188.914 115.002L188.986 115.146ZM181.763 100.756C181.894 98.912 182.704 97.1806 184.036 95.8932C185.369 94.6058 187.131 93.8526 188.986 93.7776C192.177 93.164 195.449 93.091 198.665 93.5618C200.106 93.8314 201.394 94.6267 202.277 95.7921C202.194 98.6802 201.413 101.506 200.001 104.03C199.987 105.279 199.647 106.504 199.014 107.582C198.381 108.661 197.476 109.557 196.39 110.181C195.024 110.434 193.62 110.405 192.266 110.096C190.911 109.786 189.635 109.203 188.516 108.383C185.753 106.372 183.481 103.765 181.871 100.756H181.763ZM219.54 110.361C218.805 110.797 217.971 111.039 217.116 111.066C216.261 111.093 215.414 110.903 214.652 110.515C213.891 110.127 213.241 109.553 212.763 108.847C212.285 108.14 211.995 107.325 211.92 106.476C211.492 103.144 211.627 99.7639 212.317 96.4756C212.506 95.7977 212.825 95.1626 213.256 94.605C217.173 92.9236 221.53 92.5452 225.68 93.5258C227.189 93.6614 228.604 94.318 229.679 95.3821C230.753 96.4462 231.421 97.8509 231.567 99.3535C231.484 100.184 231.113 100.959 230.519 101.548C227.059 104.677 223.443 107.631 219.685 110.397L219.54 110.361Z" fill="#FFF200"/>
</g>
<defs>
<clipPath id="clip0">
<rect x="0.5" y="0.607422" width="400" height="487.36" fill="white"/>
</clipPath>
</defs>
</svg>
