<svg width="401" height="488" viewBox="0 0 401 488" fill="none" xmlns="http://www.w3.org/2000/svg">
<g clip-path="url(#clip0)">
<path fill-rule="evenodd" clip-rule="evenodd" d="M200.486 487.869C133.274 422.171 88.0689 381.515 53.2879 302.907C16.0883 218.655 -2.06871 125.211 0.792807 0.607422H400.212C403.04 125.211 384.985 218.486 347.717 302.975C313.004 381.515 267.697 422.171 200.486 487.869Z" fill="#E64219"/>
<path fill-rule="evenodd" clip-rule="evenodd" d="M242.625 203.65C263.064 203.853 282.209 215.985 287.659 233.728C288.48 236.374 288.972 239.109 289.124 241.873C266.777 243.664 245.18 231.058 239.286 211.93L239.048 211.085C233.779 222.35 228.715 233.897 223.855 245.725C236.527 241.298 245.35 239.98 257.171 244.441C261.691 246.082 265.984 248.285 269.945 250.998C276.552 255.189 282.326 260.551 286.978 266.814C293.791 267.523 301.865 267.557 307.418 263.029C307.418 262.736 307.418 262.454 307.418 262.184C307.418 258.171 308.857 254.29 311.478 251.234C314.098 248.178 317.73 246.147 321.722 245.504C325.714 244.862 329.807 245.649 333.267 247.726C336.728 249.803 339.33 253.034 340.609 256.84C341.888 260.647 341.76 264.781 340.248 268.502C338.736 272.223 335.938 275.289 332.355 277.151C328.773 279.014 324.639 279.55 320.694 278.666C316.75 277.781 313.251 275.532 310.824 272.322C308.552 272.574 306.347 273.239 304.318 274.283C304.147 274.789 303.977 275.296 303.807 276.006C305.666 279.258 307.958 282.247 310.62 284.894V284.894C314.483 283.298 318.804 283.168 322.758 284.531C326.712 285.893 330.021 288.652 332.055 292.281C334.089 295.91 334.705 300.155 333.786 304.206C332.866 308.257 330.475 311.83 327.069 314.243C323.663 316.657 319.481 317.741 315.32 317.291C311.16 316.84 307.312 314.885 304.511 311.8C301.711 308.714 300.153 304.713 300.136 300.561C300.12 296.409 301.644 292.396 304.42 289.288C300.332 284.556 296.687 280.163 291.066 278.135C293.626 283.4 294.898 289.189 294.779 295.033C294.786 298.101 294.454 301.161 293.791 304.158C293.784 309.417 294.766 314.632 296.687 319.535C300.764 318.51 305.08 319.019 308.802 320.962C312.525 322.906 315.39 326.147 316.847 330.062C318.304 333.976 318.25 338.287 316.694 342.165C315.138 346.042 312.192 349.211 308.421 351.061C304.651 352.911 300.324 353.312 296.274 352.186C292.223 351.06 288.736 348.487 286.484 344.963C284.231 341.439 283.373 337.212 284.075 333.097C284.776 328.983 286.987 325.271 290.283 322.678C290.197 321.897 289.906 321.153 289.44 320.518C288.974 319.884 288.348 319.382 287.625 319.061C285.953 324.941 283.416 330.543 280.097 335.689C279.245 337.074 277.883 338.899 276.69 340.555C275.611 341.692 274.705 342.978 273.999 344.374C276.486 347.091 277.899 350.608 277.977 354.277C278.056 357.945 276.794 361.519 274.426 364.337C272.057 367.156 268.741 369.03 265.089 369.613C261.437 370.197 257.696 369.451 254.555 367.512C251.414 365.574 249.085 362.575 247.998 359.067C246.912 355.559 247.14 351.78 248.641 348.426C250.143 345.072 252.816 342.37 256.168 340.818C259.519 339.266 263.324 338.969 266.879 339.981C270.286 337.717 271.785 333.425 273.693 330.045C273.352 330.045 271.104 331.769 267.833 333.425C263.206 335.696 258.452 337.705 253.594 339.44C250.475 340.301 247.299 340.944 244.09 341.366C244.49 345.064 243.543 348.783 241.421 351.849C239.299 354.915 236.141 357.127 232.519 358.084C228.896 359.042 225.047 358.682 221.669 357.07C218.29 355.458 215.604 352.7 214.097 349.295C212.589 345.89 212.359 342.062 213.448 338.503C214.538 334.944 216.875 331.889 220.036 329.891C223.198 327.892 226.977 327.082 230.688 327.606C234.4 328.13 237.8 329.954 240.274 332.749C241.655 332.577 243.021 332.306 244.362 331.938C246.644 331.314 248.849 330.441 250.937 329.335C245.559 327.238 240.607 324.192 236.323 320.346C232.881 322.115 228.901 322.559 225.149 321.592C221.397 320.626 218.138 318.316 215.999 315.109C213.861 311.902 212.993 308.023 213.564 304.219C214.135 300.415 216.103 296.955 219.091 294.505C222.079 292.055 225.874 290.787 229.748 290.947C233.621 291.106 237.298 292.681 240.071 295.368C242.844 298.055 244.517 301.665 244.768 305.503C245.02 309.34 243.831 313.134 241.432 316.155C243.908 318.724 246.871 320.784 250.15 322.217C253.429 323.649 256.961 324.426 260.543 324.502C267.57 324.494 274.305 321.721 279.274 316.792C284.242 311.863 287.037 305.18 287.046 298.21C287.113 292.041 284.964 286.051 280.983 281.312L280.403 281.515C280.148 286.809 278.453 291.935 275.498 296.351L274.612 297.5L274.408 298.48C276.066 301.52 276.588 305.043 275.884 308.428C275.179 311.812 273.292 314.841 270.555 316.98C267.819 319.12 264.409 320.231 260.927 320.119C257.445 320.008 254.114 318.68 251.523 316.369C248.932 314.059 247.246 310.916 246.763 307.493C246.28 304.07 247.031 300.588 248.884 297.661C250.736 294.734 253.571 292.55 256.889 291.494C260.206 290.438 263.792 290.578 267.016 291.89C269.639 290.606 270.422 287.936 270.627 284.387C263.975 284.807 257.362 285.688 250.835 287.023C248.125 289.336 244.699 290.66 241.127 290.776C237.554 290.892 234.049 289.793 231.193 287.66C228.336 285.528 226.301 282.491 225.424 279.053C224.547 275.615 224.881 271.983 226.37 268.76C227.86 265.536 230.416 262.915 233.614 261.33C236.812 259.746 240.46 259.294 243.952 260.049C247.445 260.805 250.572 262.722 252.815 265.483C255.058 268.244 256.283 271.683 256.285 275.229C256.284 276.193 256.192 277.154 256.012 278.101C263.643 277.054 270.082 270.261 264.597 262.826C250.051 245.252 227.874 252.687 215.645 266.983C213.964 271.489 212.318 276.074 210.705 280.737C206.977 315.491 206.68 350.523 209.819 385.334C210.841 397.501 210.705 410.85 211.863 422.712L189.278 436.23C193.57 401.759 191.39 402.435 193.059 385.774C196.159 352.154 195.816 318.31 192.037 284.759C190.493 280.253 188.915 275.747 187.302 271.241C176.129 254.343 151.124 243.698 135.216 262.893C129.731 270.328 136.17 277.121 143.8 278.169C143.116 274.553 143.743 270.813 145.571 267.612C147.4 264.411 150.311 261.955 153.79 260.679C157.269 259.404 161.09 259.391 164.578 260.643C168.065 261.895 170.994 264.331 172.844 267.519C174.695 270.708 175.348 274.443 174.688 278.064C174.029 281.685 172.099 284.957 169.24 287.301C166.382 289.645 162.779 290.91 159.071 290.872C155.362 290.833 151.787 289.494 148.978 287.091C142.451 285.755 135.837 284.874 129.186 284.455C129.459 287.835 130.174 290.673 132.797 291.958C136.02 290.646 139.607 290.506 142.924 291.561C146.242 292.617 149.076 294.801 150.929 297.728C152.782 300.655 153.533 304.137 153.05 307.56C152.567 310.983 150.881 314.127 148.29 316.437C145.699 318.747 142.368 320.075 138.886 320.187C135.404 320.299 131.994 319.187 129.258 317.048C126.521 314.909 124.634 311.88 123.929 308.495C123.224 305.11 123.747 301.587 125.405 298.548L125.2 297.568L124.315 296.419C121.36 292.003 119.665 286.876 119.409 281.582L118.83 281.38C114.852 286.12 112.702 292.109 112.766 298.277C112.775 305.248 115.571 311.93 120.539 316.859C125.507 321.788 132.243 324.561 139.27 324.57C142.852 324.493 146.384 323.717 149.663 322.284C152.942 320.852 155.904 318.792 158.38 316.223C155.988 313.208 154.805 309.422 155.057 305.594C155.309 301.765 156.979 298.164 159.746 295.484C162.514 292.804 166.182 291.233 170.046 291.075C173.91 290.916 177.697 292.181 180.678 294.625C183.659 297.07 185.623 300.522 186.193 304.316C186.763 308.111 185.898 311.981 183.765 315.181C181.632 318.382 178.381 320.687 174.638 321.652C170.895 322.618 166.925 322.177 163.49 320.413C159.205 324.26 154.254 327.305 148.876 329.403C150.964 330.508 153.169 331.381 155.451 332.005C156.792 332.374 158.158 332.645 159.539 332.816C162.017 330.013 165.424 328.183 169.144 327.655C172.865 327.128 176.653 327.939 179.823 329.941C182.993 331.943 185.336 335.005 186.429 338.572C187.522 342.14 187.291 345.977 185.78 349.391C184.269 352.804 181.576 355.569 178.189 357.184C174.802 358.799 170.944 359.159 167.313 358.197C163.682 357.236 160.517 355.018 158.392 351.943C156.266 348.868 155.319 345.141 155.723 341.434C152.502 341.013 149.315 340.37 146.185 339.508C141.327 337.772 136.573 335.764 131.945 333.492C128.539 331.87 126.427 330.113 126.086 330.113C128.028 333.492 129.493 337.784 132.899 340.048C136.471 339.027 140.295 339.322 143.664 340.878C147.034 342.435 149.722 345.148 151.233 348.517C152.744 351.887 152.975 355.684 151.884 359.21C150.793 362.735 148.454 365.749 145.297 367.697C142.141 369.645 138.381 370.394 134.711 369.806C131.042 369.219 127.71 367.334 125.332 364.5C122.953 361.666 121.689 358.075 121.771 354.388C121.853 350.701 123.277 347.168 125.78 344.442C125.075 343.046 124.168 341.759 123.088 340.623C121.76 338.933 120.431 337.243 119.682 335.756C116.362 330.611 113.825 325.008 112.153 319.129C111.431 319.449 110.805 319.951 110.339 320.586C109.873 321.22 109.582 321.965 109.496 322.745C112.75 325.318 114.931 328.994 115.618 333.065C116.305 337.136 115.451 341.316 113.219 344.8C110.987 348.284 107.535 350.827 103.528 351.938C99.5202 353.05 95.24 352.652 91.5102 350.822C87.7805 348.992 84.8647 345.858 83.3236 342.023C81.7825 338.189 81.725 333.924 83.1622 330.05C84.5994 326.176 87.4297 322.966 91.1088 321.037C94.7879 319.108 99.0559 318.597 103.092 319.602C105.013 314.7 105.995 309.485 105.987 304.225C105.324 301.228 104.993 298.169 105 295.101C104.881 289.257 106.153 283.467 108.713 278.203C103.092 280.231 99.4468 284.59 95.3589 289.355C98.0972 292.436 99.5973 296.409 99.5735 300.516C99.5496 304.623 98.0034 308.578 95.2295 311.627C92.4556 314.677 88.6478 316.607 84.5318 317.05C80.4158 317.494 76.2792 316.419 72.9101 314.032C69.5411 311.645 67.1751 308.111 66.263 304.105C65.3509 300.098 65.9565 295.899 67.9643 292.307C69.9721 288.715 73.2418 285.981 77.1505 284.626C81.0591 283.272 85.3334 283.391 89.159 284.962V284.962C91.8208 282.315 94.1123 279.326 95.9721 276.074C95.8018 275.398 95.6315 274.891 95.4611 274.35C93.4318 273.306 91.2263 272.642 88.9546 272.39C86.528 275.6 83.0291 277.848 79.0842 278.733C75.1393 279.618 71.0058 279.081 67.4233 277.219C63.8408 275.357 61.0432 272.291 59.5309 268.569C58.0187 264.848 57.8906 260.714 59.1696 256.908C60.4486 253.101 63.0511 249.871 66.5116 247.794C69.972 245.717 74.0645 244.929 78.0567 245.572C82.0489 246.215 85.6804 248.246 88.3012 251.302C90.922 254.358 92.3612 258.239 92.3612 262.251C92.3612 262.544 92.3612 262.826 92.3612 263.096C97.8798 267.625 105.987 267.591 112.801 266.881C117.453 260.618 123.227 255.257 129.833 251.065C133.795 248.352 138.087 246.149 142.608 244.509C154.906 239.879 163.967 241.501 177.525 246.368C177.509 246.188 177.509 246.007 177.525 245.827C171.643 231.362 165.455 217.45 158.959 204.09C156.302 225.144 141.927 241.501 123.736 242.38C121.026 242.504 118.312 242.277 115.662 241.704C116.854 218.723 131.945 200.271 151.261 199.358C153.104 199.276 154.95 199.355 156.779 199.595C153.236 192.453 149.626 185.48 145.946 178.675C141.242 191.961 132.372 203.402 120.636 211.322C107.939 220.514 92.3166 224.836 76.6569 223.488C80.7131 208.426 90.1273 195.329 103.16 186.617C114.76 178.257 128.782 173.857 143.119 174.079C137.555 164.031 131.877 154.433 126.086 145.286C121.571 160.058 112.696 173.149 100.605 182.866C86.8592 194.633 69.2975 201.088 51.1418 201.048C54.4258 183.234 64.1081 167.205 78.3943 155.931C90.5769 145.627 105.68 139.322 121.624 137.884C115.56 128.714 109.394 120.063 103.126 111.929C91.1348 142.345 64.8702 164.752 41.0583 163.332C37.7362 163.156 34.4614 162.472 31.3496 161.305C43.0001 129.942 69.8097 106.725 94.0645 108.144C96.3698 108.289 98.6534 108.674 100.878 109.293C93.1276 99.3482 84.8015 89.8582 75.9415 80.8715C71.4789 106.691 52.0956 125.65 30.0211 124.366C26.8908 124.182 23.7984 123.592 20.8233 122.609C25.0475 96.4174 44.6693 77.1202 66.8801 78.4044C69.5685 78.5586 72.231 79.012 74.8174 79.7562C72.6826 77.6384 70.5478 75.5882 68.413 73.6055C40.2407 68.3334 19.2222 47.9885 19.2222 23.7235C19.219 20.0497 19.7 16.3913 20.653 12.8413C52.0615 15.9843 76.3844 37.5458 76.3844 63.5344C76.3844 64.6384 76.3844 65.7649 76.3844 66.914C77.906 68.2883 79.4162 69.6965 80.9151 71.1384C82.2096 40.0804 102.036 14.7677 128.232 12.7399C131.977 12.4464 135.745 12.6395 139.44 13.3145C138.759 45.0821 118.694 71.1722 92.0887 73.2675C89.0105 73.5065 85.9154 73.4159 82.8568 72.9971C90.1753 80.1681 97.1223 87.703 103.671 95.5725C122.68 60.6619 156.439 35.3491 183.998 37.2078C187.812 37.4395 191.562 38.2842 195.103 39.7087C176.333 76.5457 141.143 103.582 112.801 101.622C111.153 101.514 109.514 101.299 107.895 100.98C115.412 110.33 122.827 120.468 130.14 131.396C134.33 119.47 141.785 108.938 151.669 100.98C163.716 90.6628 179.12 85.0206 195.035 85.0959C192.152 100.651 183.68 114.64 171.189 124.468C161.098 132.971 148.727 138.373 135.59 140.013C140.133 146.998 144.516 154.241 148.74 161.744C150.998 153.133 155.817 145.396 162.57 139.54C171.87 131.869 185.224 126.022 195.137 126.428C193.638 136.161 190.675 152.045 181.511 159.716C173.744 166.137 162.094 168.165 152.691 168.469C156.212 174.823 159.675 181.334 163.081 188.003C173.982 170.058 195.41 160.46 213.499 166.205C216.036 167.034 218.462 168.169 220.72 169.584C209.956 187.935 188.222 197.871 169.895 192.025C167.752 191.347 165.686 190.453 163.729 189.355C177.952 217.586 190.266 246.726 200.588 276.581C209.247 251.654 219.278 227.217 230.634 203.38C218.608 213.518 201.882 216.29 189.21 209.497C187.205 208.42 185.34 207.103 183.657 205.576C195.648 191.788 215.542 186.82 230.02 194.627C231.318 195.318 232.56 196.109 233.734 196.992C238.457 187.35 243.317 178.045 248.314 169.078C238.912 168.773 227.295 166.712 219.494 160.324C210.194 152.653 207.196 136.668 205.868 127.036C215.781 126.698 229.135 132.477 238.435 140.149C245.189 146.003 250.009 153.74 252.265 162.352C256.58 154.85 260.963 147.606 265.415 140.622C252.278 138.982 239.907 133.579 229.816 125.076C217.325 115.248 208.853 101.259 205.97 85.7042C221.885 85.6289 237.289 91.2711 249.336 101.588C259.22 109.546 266.675 120.079 270.865 132.004C278.155 121.077 285.57 110.938 293.11 101.588C291.491 101.908 289.852 102.122 288.205 102.23C259.862 104.157 224.672 77.0864 206.038 40.317C209.579 38.8925 213.33 38.0478 217.144 37.8161C244.566 35.9574 278.462 61.2702 297.504 96.2484C304.053 88.3791 311 80.8443 318.319 73.673C315.26 74.0918 312.165 74.1824 309.087 73.9434C282.447 71.8481 262.417 45.7581 261.736 13.9904C265.43 13.3154 269.198 13.1223 272.943 13.4159C299.14 15.4774 318.966 40.7564 320.26 71.8143C321.782 70.3724 323.292 68.9643 324.791 67.5899C324.791 66.5085 324.791 65.382 324.791 64.2104C324.791 38.0865 349.114 16.5251 380.522 13.5173C381.476 17.0672 381.957 20.7256 381.953 24.3994C381.953 48.6645 360.935 69.0093 332.762 74.2814C330.616 76.2753 328.913 76.6808 326.767 78.81C329.322 78.0665 321.827 79.79 334.295 79.0803C346.763 78.3706 376.128 97.0933 380.352 123.285C377.422 124.231 383.759 124.299 371.154 125.042C358.55 125.786 327.073 107.637 322.645 81.8177C314.299 90.2328 308.405 99.3238 300.162 109.834C302.386 109.215 304.669 108.83 306.975 108.685C331.229 107.266 358.073 130.483 369.69 161.845C366.578 163.012 363.303 163.696 359.981 163.873C336.135 165.292 309.904 142.92 297.913 112.47C291.668 120.559 285.502 129.21 279.416 138.425C295.359 139.862 310.462 146.167 322.645 156.472C336.931 167.745 346.613 183.774 349.897 201.589C331.66 201.686 314.004 195.227 300.196 183.407C288.105 173.689 279.229 160.599 274.715 145.826C268.901 154.974 263.223 164.571 257.682 174.62C272.115 174.312 286.254 178.691 297.947 187.09C310.98 195.802 320.394 208.899 324.45 223.961C308.791 225.309 293.169 220.987 280.472 211.795C268.736 203.875 259.865 192.434 255.161 179.149C250.869 187.079 246.69 195.246 242.625 203.65Z" fill="#FFEC00"/>
</g>
<defs>
<clipPath id="clip0">
<rect x="0.5" y="0.607422" width="400" height="487.26" fill="white"/>
</clipPath>
</defs>
</svg>
