<svg width="401" height="523" viewBox="0 0 401 523" fill="none" xmlns="http://www.w3.org/2000/svg">
<g clip-path="url(#clip0)">
<path d="M38.5624 303.54L37.3869 303.956L38.5623 303.54C9.78278 222.22 -1.83777 123.63 3.10385 2.10742H397.9C402.831 123.63 391.211 222.209 362.442 303.54C330.711 393.214 277.751 464.134 200.502 520.343C123.253 464.134 70.2928 393.214 38.5624 303.54Z" fill="white" stroke="black" stroke-width="3"/>
<path fill-rule="evenodd" clip-rule="evenodd" d="M251.576 329.46C293.971 329.46 313.201 288.634 313.201 264.532H353.001L362.315 229.395H313.201V189.24H368.52L372.708 154.103H313.201C313.201 130 293.971 89.1749 251.576 89.1749C221.324 89.1749 207.959 102.855 200.261 115.922C192.563 102.855 179.198 89.1749 148.946 89.1749C106.551 89.1749 87.3215 130 87.3215 154.103H27.8141L32.0021 189.24H87.3215V229.395H38.2079L47.5217 264.532H87.3215C87.3215 288.634 106.551 329.46 148.946 329.46C179.198 329.46 192.563 315.78 200.261 302.713C207.959 315.78 221.324 329.46 251.576 329.46V329.46Z" fill="#E00E00"/>
<path fill-rule="evenodd" clip-rule="evenodd" d="M173.986 137.284C164.563 154.103 143.285 154.103 122.459 154.103C122.459 142.277 129.124 129.193 143.087 125.206C159.308 120.574 169.087 130.343 173.986 137.284V137.284Z" fill="white"/>
<path fill-rule="evenodd" clip-rule="evenodd" d="M173.986 281.351C159.908 264.532 141.643 264.532 122.459 264.532C122.459 276.358 129.124 289.442 143.087 293.429C159.308 298.061 169.087 288.292 173.986 281.351Z" fill="white"/>
<path fill-rule="evenodd" clip-rule="evenodd" d="M226.537 137.284C235.959 154.103 257.237 154.103 278.064 154.103C278.064 142.277 271.398 129.193 257.435 125.206C241.215 120.574 231.435 130.343 226.537 137.284V137.284Z" fill="white"/>
<path fill-rule="evenodd" clip-rule="evenodd" d="M226.537 281.351C240.614 264.532 258.88 264.532 278.064 264.532C278.064 276.358 271.398 289.442 257.435 293.429C241.215 298.061 231.435 288.292 226.537 281.351V281.351Z" fill="white"/>
<path fill-rule="evenodd" clip-rule="evenodd" d="M278.064 229.395V189.239C245.995 189.239 217.982 183.671 200.261 166.262C182.54 183.671 154.528 189.239 122.459 189.239V229.395C154.528 229.395 182.54 234.964 200.261 252.373C217.982 234.964 245.995 229.395 278.064 229.395V229.395Z" fill="white"/>
</g>
<defs>
<clipPath id="clip0">
<rect x="0.5" y="0.607422" width="400" height="521.59" fill="white"/>
</clipPath>
</defs>
</svg>
