<svg width="401" height="523" viewBox="0 0 401 523" fill="none" xmlns="http://www.w3.org/2000/svg">
<g clip-path="url(#clip0)">
<path d="M200.209 521.985C122.395 465.53 69.061 394.229 37.1483 304.04C8.20906 222.269 -3.40222 123.17 1.64434 1.08904L1.66528 0.607422H399.339L399.36 1.08904C404.396 123.17 392.784 222.258 363.856 304.04C331.943 394.229 278.609 465.53 200.795 521.985L200.502 522.194L200.209 521.985Z" fill="#0085CA"/>
<path fill-rule="evenodd" clip-rule="evenodd" d="M119.642 194.659C100.99 172.339 79.7165 148.744 74.3223 135.28C64.6267 111.081 78.9887 93.8157 93.031 81.2464L145.403 139.756C146.392 110.685 145.323 76.9275 150.283 63.2981C159.199 38.8004 181.415 35.5146 200.261 35.5146V114.04C222.582 95.3882 246.177 74.1146 259.64 68.7204C283.84 59.0248 301.105 73.3868 313.674 87.4292L255.164 139.801C284.235 140.79 317.993 139.721 331.622 144.682C356.12 153.597 359.406 175.813 359.406 194.659H280.881C299.532 216.98 320.806 240.575 326.2 254.038C335.896 278.238 321.534 295.503 307.491 308.072L255.119 249.562C254.13 278.633 255.199 312.391 250.239 326.021C241.324 350.518 219.107 353.804 200.261 353.804V275.279C177.941 293.93 154.346 315.204 140.882 320.598C116.683 330.294 99.4176 315.932 86.8483 301.89L145.358 249.517C116.287 248.528 82.5293 249.597 68.9 244.637C44.4023 235.722 41.1165 213.505 41.1165 194.659H119.642Z" fill="white"/>
<path fill-rule="evenodd" clip-rule="evenodd" d="M200.261 175.813L181.415 194.659L200.261 213.505L219.107 194.659L200.261 175.813Z" fill="#0085CA"/>
</g>
<defs>
<clipPath id="clip0">
<rect x="0.5" y="0.607422" width="400" height="521.59" fill="white"/>
</clipPath>
</defs>
</svg>
