<svg width="401" height="523" viewBox="0 0 401 523" fill="none" xmlns="http://www.w3.org/2000/svg">
<g clip-path="url(#clip0)">
<path d="M200.791 521.985C278.605 465.53 331.939 394.229 363.852 304.04C392.791 222.269 404.402 123.17 399.356 1.08905L399.335 0.607422H1.66126L1.64031 1.08905C-3.39578 123.17 8.21551 222.258 37.1443 304.04C69.057 394.229 122.391 465.53 200.205 521.985L200.498 522.194L200.791 521.985Z" fill="#B29D49"/>
<path fill-rule="evenodd" clip-rule="evenodd" d="M68.5948 39.835C81.1583 75.657 104.117 89.3461 139.052 86.7532L143.268 75.0332L172.064 74.8697L177.882 88.14C197.886 95.1525 206.985 96.5617 207.004 99.3714C206.985 102.181 197.886 103.59 177.882 110.603L172.064 123.873L143.268 123.71L139.052 111.99C104.117 109.397 81.1583 123.086 68.5948 158.908C40.5912 147.59 27.184 118.994 27.184 99.3714C27.184 79.7485 40.5912 51.153 68.5948 39.835V39.835Z" fill="black"/>
<path fill-rule="evenodd" clip-rule="evenodd" d="M136.65 136.159C149.214 171.981 172.173 185.671 207.107 183.078L211.323 171.358L240.119 171.194L245.937 184.464C265.941 191.477 275.04 192.886 275.06 195.696C275.04 198.506 265.941 199.915 245.937 206.927L240.119 220.198L211.323 220.034L207.107 208.314C172.173 205.721 149.214 219.41 136.65 255.232C108.647 243.914 95.2393 215.319 95.2393 195.696C95.2393 176.073 108.647 147.477 136.65 136.159V136.159Z" fill="black"/>
<path fill-rule="evenodd" clip-rule="evenodd" d="M204.705 232.484C217.269 268.306 240.228 281.995 275.162 279.402L279.379 267.682L308.174 267.519L313.992 280.789C333.996 287.801 343.096 289.211 343.115 292.02C343.096 294.83 333.996 296.239 313.992 303.252L308.174 316.522L279.379 316.359L275.162 304.639C240.228 302.046 217.269 315.735 204.705 351.557C176.702 340.239 163.295 311.643 163.295 292.02C163.295 272.397 176.702 243.802 204.705 232.484V232.484Z" fill="black"/>
</g>
<defs>
<clipPath id="clip0">
<rect x="0.5" y="0.607422" width="400" height="521.59" fill="white"/>
</clipPath>
</defs>
</svg>
