<svg width="401" height="494" viewBox="0 0 401 494" fill="none" xmlns="http://www.w3.org/2000/svg">
<g clip-path="url(#clip0)">
<path d="M0.60134 0.607422C0.60134 0.607422 -10.5288 345.951 200.499 493.827C200.499 493.827 405.74 370.522 400.397 0.607422H0.60134Z" fill="#D1281F"/>
<path d="M200.055 31.4337C177.795 31.4337 155.089 47.5169 155.979 81.0237C156.87 106.042 169.781 133.741 183.137 155.185L166.664 167.248C151.082 148.037 129.712 127.933 107.007 118.998C75.8422 107.382 53.1366 123.912 46.0133 144.91C38.89 165.908 46.9037 193.16 78.5134 202.542C102.555 209.69 132.829 206.562 157.315 200.755L162.658 218.625C139.952 228.9 113.685 244.537 98.9929 264.641C79.4038 291.446 89.1984 317.805 107.897 330.314C126.151 342.823 154.199 342.377 172.007 314.231C184.918 293.68 189.815 264.194 191.151 239.622H209.85C211.185 264.194 216.082 293.68 228.993 314.231C246.802 342.377 274.85 342.823 293.103 330.314C311.357 317.805 321.151 291.446 302.007 264.641C287.316 244.537 261.048 228.454 238.343 218.625L243.685 200.755C268.172 206.562 298.446 209.69 322.487 202.542C354.097 192.713 362.11 165.908 354.987 144.91C347.864 123.912 325.158 107.382 293.994 118.998C271.288 127.486 249.918 148.037 233.891 166.801L217.418 154.739C230.774 133.294 243.685 105.595 244.576 80.5769C245.021 47.5169 222.315 31.4337 200.055 31.4337Z" fill="#F3DA00"/>
<path d="M181.357 82.8107C181.357 71.6418 186.254 59.5794 200.055 59.5794C213.857 59.5794 218.754 71.195 218.754 82.8107C218.754 99.7875 212.076 117.211 200.055 133.741C188.035 117.211 181.357 99.7875 181.357 82.8107Z" fill="#D1281F"/>
<path d="M88.7533 179.31C78.0683 175.736 68.719 167.248 73.1711 154.292C77.6231 141.336 90.5341 140.442 100.774 144.016C116.801 149.378 131.048 161.44 142.623 177.97C123.034 184.225 104.781 184.671 88.7533 179.31Z" fill="#D1281F"/>
<path d="M151.973 299.041C145.74 308.423 135.055 315.571 123.48 307.53C111.904 299.935 114.575 287.426 120.808 278.044C130.158 264.194 145.295 253.472 164.884 246.324C165.329 266.875 161.322 285.192 151.973 299.041Z" fill="#D1281F"/>
<path d="M311.802 179.31C322.487 175.736 331.837 167.248 327.385 154.292C322.933 141.336 310.022 140.442 299.782 144.016C283.754 149.378 269.508 161.44 257.932 177.97C277.521 184.225 295.775 184.671 311.802 179.31Z" fill="#D1281F"/>
<path d="M248.583 299.041C254.816 308.423 265.501 315.571 277.076 307.53C288.651 299.935 285.98 287.426 279.747 278.044C270.398 264.194 255.261 253.472 235.672 246.324C234.781 266.875 239.233 285.192 248.583 299.041Z" fill="#D1281F"/>
<path d="M188.034 214.157L179.576 188.692L200.055 173.949L220.535 188.692L212.076 214.157C204.062 214.157 196.048 214.157 188.034 214.157Z" fill="#D1281F"/>
</g>
<defs>
<clipPath id="clip0">
<rect x="0.5" y="0.607422" width="400" height="493.22" fill="white"/>
</clipPath>
</defs>
</svg>
