<svg width="401" height="523" viewBox="0 0 401 523" fill="none" xmlns="http://www.w3.org/2000/svg">
<g clip-path="url(#clip0)">
<path d="M200.209 521.985C122.395 465.53 69.061 394.229 37.1483 304.04C8.20906 222.269 -3.40222 123.17 1.64434 1.08904L1.66528 0.607422H399.339L399.36 1.08904C404.396 123.17 392.784 222.258 363.856 304.04C331.943 394.229 278.609 465.53 200.795 521.985L200.502 522.194L200.209 521.985Z" fill="#E00E00"/>
<path d="M200.261 333.543C282.709 333.543 349.547 266.706 349.547 184.257C349.547 101.809 282.709 34.9717 200.261 34.9717C117.813 34.9717 50.9756 101.809 50.9756 184.257C50.9756 266.706 117.813 333.543 200.261 333.543Z" fill="white"/>
<path d="M200.261 197.103C207.355 197.103 213.106 191.352 213.106 184.257C213.106 177.163 207.355 171.412 200.261 171.412C193.167 171.412 187.416 177.163 187.416 184.257C187.416 191.352 193.167 197.103 200.261 197.103Z" fill="#E00E00"/>
<path fill-rule="evenodd" clip-rule="evenodd" d="M185.479 152.601C187.226 151.702 190.883 150.464 192.815 150.137V50.8392C170.311 51.9539 146.629 59.3999 126.335 72.8852L185.479 152.601Z" fill="#E00E00"/>
<path fill-rule="evenodd" clip-rule="evenodd" d="M169.838 167.192C170.703 165.428 172.899 162.366 174.254 160.951L114.987 81.3373C97.6532 95.6065 84.1242 114.06 75.262 136.878L169.838 167.192Z" fill="#E00E00"/>
<path fill-rule="evenodd" clip-rule="evenodd" d="M165.561 188.18C165.229 186.244 165.216 182.476 165.485 180.535L70.8205 150.71C65.355 172.485 64.9668 194.908 70.975 218.195L165.561 188.18Z" fill="#E00E00"/>
<path fill-rule="evenodd" clip-rule="evenodd" d="M174.011 207.268C172.629 205.871 170.54 202.71 169.649 200.965L75.5388 232.209C83.5342 253.429 97.2745 272.434 114.571 286.866L174.011 207.268Z" fill="#E00E00"/>
<path fill-rule="evenodd" clip-rule="evenodd" d="M192.237 218.269C189.936 217.779 187.042 216.672 185.542 215.976L127.445 296.288C145.994 308.336 166.754 315.879 192.815 317.796L192.237 218.269Z" fill="#E00E00"/>
<path fill-rule="evenodd" clip-rule="evenodd" d="M214.927 152.618C213.18 151.718 209.522 150.48 207.59 150.153V50.8559C230.094 51.9706 253.777 59.4166 274.071 72.9019L214.927 152.618Z" fill="#E00E00"/>
<path fill-rule="evenodd" clip-rule="evenodd" d="M230.567 167.209C229.702 165.445 227.506 162.383 226.151 160.967L285.419 81.354C302.752 95.6232 316.281 114.076 325.143 136.895L230.567 167.209Z" fill="#E00E00"/>
<path fill-rule="evenodd" clip-rule="evenodd" d="M234.844 188.197C235.176 186.261 235.19 182.493 234.92 180.552L329.585 150.727C335.05 172.501 335.438 194.925 329.43 218.211L234.844 188.197Z" fill="#E00E00"/>
<path fill-rule="evenodd" clip-rule="evenodd" d="M226.395 207.285C227.776 205.888 229.865 202.727 230.757 200.981L324.867 232.225C316.871 253.446 303.131 272.451 285.835 286.883L226.395 207.285Z" fill="#E00E00"/>
<path fill-rule="evenodd" clip-rule="evenodd" d="M208.169 218.286C210.469 217.795 213.364 216.688 214.863 215.992L272.96 296.305C255.542 307.948 232.44 316.381 207.59 317.732L208.169 218.286Z" fill="#E00E00"/>
</g>
<defs>
<clipPath id="clip0">
<rect x="0.5" y="0.607422" width="400" height="521.59" fill="white"/>
</clipPath>
</defs>
</svg>
