<svg width="401" height="523" viewBox="0 0 401 523" fill="none" xmlns="http://www.w3.org/2000/svg">
<g clip-path="url(#clip0)">
<path d="M200.209 521.985C122.395 465.53 69.061 394.229 37.1483 304.04C8.20906 222.269 -3.40222 123.17 1.64434 1.08904L1.66528 0.607422H399.339L399.36 1.08904C404.396 123.17 392.784 222.258 363.856 304.04C331.943 394.229 278.609 465.53 200.795 521.985L200.502 522.194L200.209 521.985Z" fill="white"/>
<mask id="mask0" mask-type="alpha" maskUnits="userSpaceOnUse" x="19" y="26" width="354" height="497">
<path d="M128.123 457.357C164.579 371.147 82.6645 294.648 147.498 202.266C195.841 194.942 237.974 161.397 216.175 126.682C213.766 122.847 212.639 134.676 211.832 138.815C200.261 136.766 225.679 135.902 143.078 46.1361C139.526 42.2564 148.971 37.63 131.306 35.8332C149.583 13.8413 190.699 67.4522 204.885 65.9237C223.075 63.9638 220.192 50.1667 219.166 45.2214C217.52 37.2822 215.622 34.437 212.122 26.5412C226.17 37.7596 232.585 44.6589 234.992 59.6648C237.426 57.9212 238.701 55.0207 238.562 50.7099C242.974 55.1192 243.058 63.2678 242.519 69.2938C247.601 69.2617 255.224 69.2296 259.309 74.686C254.056 74.8814 250.209 75.8431 248.019 81.1374C259.806 81.5512 264.985 89.438 269.152 98.4696C263.532 94.087 258.28 91.5394 254.195 94.8106C259.897 111.337 270.5 132.164 269.071 146.149C264.875 187.222 193.128 199.163 199.107 244.217C201.622 263.173 244.515 311.878 264.703 465.593C237.21 495.361 210.541 514.55 200.337 522.057C184.391 510.867 148.105 482.055 128.123 457.357V457.357Z" fill="black"/>
<path d="M46.7096 203.743C95.0525 196.403 137.114 161.721 115.315 126.931C112.906 123.087 111.779 134.942 110.972 139.09C99.4008 137.037 124.819 136.171 42.2183 46.2117C38.6656 42.3237 48.1105 37.6873 30.4457 35.8866C48.7226 13.8474 89.8387 67.5736 104.025 66.0419C122.215 64.0777 119.332 50.251 118.306 45.295C116.66 37.3388 114.762 34.4873 111.262 26.5746C125.31 37.8171 131.725 44.7313 134.132 59.7696C136.566 58.0221 137.841 55.1154 137.702 50.7953C142.114 55.2142 142.198 63.3802 141.659 69.4193C146.741 69.3871 154.364 69.355 158.449 74.8231C153.196 75.0189 149.349 75.9827 147.159 81.2884C158.946 81.7031 164.125 89.6069 168.292 98.6579C162.672 94.2659 157.42 91.7128 153.335 94.991C159.037 111.553 169.741 132.445 168.312 146.461C164.115 187.622 87.9687 201.349 94.2111 250.443C97.1448 273.516 147.48 384.791 121.811 450.432C61.3822 383.01 30.0801 296.482 19.0006 240.862C24.0453 223.777 36.4225 210.319 46.7096 203.743Z" fill="black"/>
<path d="M273.72 456.083C257.821 308.156 200.02 278.119 250.476 203.743C301.135 194.088 332.903 171.823 319.182 126.931C317.856 122.593 315.646 134.942 314.84 139.09C303.268 137.037 328.686 136.171 246.085 46.2117C242.533 42.3237 251.978 37.6873 234.313 35.8866C252.59 13.8474 293.706 67.5736 307.892 66.0419C326.082 64.0777 323.199 50.251 322.173 45.295C320.527 37.3388 318.629 34.4873 315.129 26.5746C329.177 37.8171 335.592 44.7313 337.999 59.7696C340.433 58.0221 341.708 55.1154 341.569 50.7953C345.981 55.2142 346.065 63.3802 345.526 69.4193C350.608 69.3871 358.231 69.355 362.316 74.8231C357.063 75.0189 353.216 75.9827 351.026 81.2884C362.813 81.7031 367.992 89.6069 372.159 98.6579C366.539 94.2659 361.287 91.7128 357.202 94.991C362.904 111.553 373.508 132.445 372.078 146.461C367.882 187.622 310.111 193.333 312.891 236.985C313.833 251.772 341.783 261.211 364.095 301.287C345.084 359.95 306.778 422.151 273.72 456.083V456.083Z" fill="black"/>
</mask>
<g mask="url(#mask0)">
<path d="M200.209 521.985C122.395 465.53 69.061 394.229 37.1483 304.04C8.20906 222.269 -3.40222 123.17 1.64434 1.08904L1.66528 0.607422H399.339L399.36 1.08904C404.396 123.17 392.784 222.258 363.856 304.04C331.943 394.229 278.609 465.53 200.795 521.985L200.502 522.194L200.209 521.985Z" fill="black"/>
</g>
<path d="M202.856 103.334C200.485 99.1622 198.887 93.2968 202.181 94.1672C225.993 100.459 222.625 64.6855 199.286 81.4296C195.803 83.9283 198.298 70.2525 198.89 65.3409C182.841 58.5553 147.87 17.0747 132.25 35.5838C152.1 34.1181 180.9 72.6018 191.856 85.965C174.208 67.1603 162.733 51.3103 143.69 39.5168C143.69 39.5168 142.445 43.7381 144.156 45.4693C159.554 61.049 175.488 80.3974 192.454 101.781C196.214 106.519 202.856 103.334 202.856 103.334V103.334Z" fill="white"/>
<path d="M214.307 85.9378C214.308 86.7071 214.161 87.4691 213.874 88.1802C213.587 88.8914 213.166 89.5377 212.634 90.0822C212.103 90.6267 211.471 91.0587 210.776 91.3534C210.08 91.6482 209.335 91.7999 208.582 91.7999C207.829 91.7999 207.084 91.6482 206.389 91.3534C205.693 91.0587 205.062 90.6267 204.53 90.0822C203.998 89.5377 203.577 88.8914 203.29 88.1802C203.003 87.4691 202.856 86.7071 202.858 85.9378C202.856 85.1686 203.003 84.4066 203.29 83.6954C203.577 82.9843 203.998 82.338 204.53 81.7935C205.062 81.249 205.693 80.817 206.389 80.5222C207.084 80.2275 207.829 80.0758 208.582 80.0758C209.335 80.0758 210.08 80.2275 210.776 80.5222C211.471 80.817 212.103 81.249 212.634 81.7935C213.166 82.338 213.587 82.9843 213.874 83.6954C214.161 84.4066 214.308 85.1686 214.307 85.9378V85.9378Z" fill="black"/>
<path d="M101.996 103.334C99.6253 99.1622 98.027 93.2968 101.321 94.1672C125.133 100.459 121.765 64.6855 98.426 81.4296C94.9432 83.9283 97.4376 70.2525 98.0303 65.3409C81.981 58.5553 47.0102 17.0747 31.3896 35.5838C51.2404 34.1181 80.0402 72.6018 90.9957 85.965C73.3481 67.1603 61.8727 51.3103 42.8299 39.5168C42.8299 39.5168 41.5847 43.7381 43.2959 45.4693C58.6943 61.049 74.6277 80.3974 91.5941 101.781C95.3537 106.519 101.996 103.334 101.996 103.334V103.334Z" fill="white"/>
<path d="M113.447 85.9378C113.448 86.7071 113.301 87.4691 113.014 88.1802C112.727 88.8914 112.306 89.5377 111.774 90.0822C111.242 90.6267 110.611 91.0587 109.916 91.3534C109.22 91.6482 108.475 91.7999 107.722 91.7999C106.969 91.7999 106.224 91.6482 105.529 91.3534C104.833 91.0587 104.202 90.6267 103.67 90.0822C103.138 89.5377 102.717 88.8914 102.43 88.1802C102.143 87.4691 101.996 86.7071 101.998 85.9378C101.996 85.1686 102.143 84.4066 102.43 83.6954C102.717 82.9843 103.138 82.338 103.67 81.7935C104.202 81.249 104.833 80.817 105.529 80.5222C106.224 80.2275 106.969 80.0758 107.722 80.0758C108.475 80.0758 109.22 80.2275 109.916 80.5222C110.611 80.817 111.242 81.249 111.774 81.7935C112.306 82.338 112.727 82.9843 113.014 83.6954C113.301 84.4066 113.448 85.1686 113.447 85.9378V85.9378Z" fill="black"/>
<path d="M305.863 103.334C303.492 99.1622 301.894 93.2968 305.188 94.1672C329 100.459 325.632 64.6855 302.293 81.4296C298.81 83.9283 301.305 70.2525 301.897 65.3409C285.848 58.5553 250.877 17.0747 235.257 35.5838C255.107 34.1181 283.907 72.6018 294.863 85.965C277.215 67.1603 265.74 51.3103 246.697 39.5168C246.697 39.5168 245.452 43.7381 247.163 45.4693C262.561 61.049 278.495 80.3974 295.461 101.781C299.221 106.519 305.863 103.334 305.863 103.334V103.334Z" fill="white"/>
<path d="M317.314 85.9378C317.314 87.4893 316.711 88.9773 315.637 90.0743C314.564 91.1714 313.107 91.7877 311.589 91.7877C310.071 91.7877 308.615 91.1714 307.541 90.0743C306.468 88.9773 305.865 87.4893 305.865 85.9378C305.865 85.1696 306.013 84.4089 306.3 83.6992C306.588 82.9894 307.01 82.3445 307.541 81.8013C308.073 81.2581 308.704 80.8272 309.399 80.5332C310.093 80.2392 310.837 80.0879 311.589 80.0879C312.341 80.0879 313.085 80.2392 313.78 80.5332C314.474 80.8272 315.106 81.2581 315.637 81.8013C316.169 82.3445 316.59 82.9894 316.878 83.6992C317.166 84.4089 317.314 85.1696 317.314 85.9378V85.9378Z" fill="black"/>
<path d="M38.5624 303.54L37.3869 303.956L38.5623 303.54C9.78278 222.22 -1.83777 123.63 3.10385 2.10742H397.9C402.831 123.63 391.211 222.209 362.442 303.54C330.711 393.214 277.751 464.134 200.502 520.343C123.253 464.134 70.2928 393.214 38.5624 303.54Z" stroke="black" stroke-width="3"/>
</g>
<defs>
<clipPath id="clip0">
<rect x="0.5" y="0.607422" width="400" height="521.59" fill="white"/>
</clipPath>
</defs>
</svg>
