<svg width="401" height="523" viewBox="0 0 401 523" fill="none" xmlns="http://www.w3.org/2000/svg">
<g clip-path="url(#clip0)">
<path d="M200.791 521.985C278.605 465.53 331.939 394.229 363.852 304.04C392.791 222.269 404.402 123.17 399.356 1.08904L399.335 0.607422H1.66126L1.64031 1.08904C-3.39578 123.17 8.21551 222.258 37.1443 304.04C69.057 394.229 122.391 465.53 200.205 521.985L200.498 522.194L200.791 521.985Z" fill="#0085CA"/>
<path d="M200.56 347.06C215.331 349.214 214.774 356.571 218.364 360.264C223.185 365.187 220.184 368.943 220.594 380.227C222.6 382.061 228.056 382.697 231.397 378.611C231.966 362.404 235.284 361.981 239.695 358.288C246.055 361.366 254.07 359.451 265.251 357.399C270.261 359.871 281.388 363.713 291.7 365.324C297.223 366.186 300.575 366.026 304.761 363.879C304.761 363.879 295.324 357.416 290.913 352.082C290.913 352.082 302.915 349.928 312.147 348.389C303.908 331.018 293.447 319.512 276.623 309.459C270.571 270.683 260.619 222.563 239.116 185.658C232.354 174.054 217.832 149.121 205.812 140.607C209.241 128.975 208.405 131.325 212.993 118.859C216.071 110.345 220.614 114.322 225.986 81.81C228.512 66.5191 227.935 53.1203 212.342 40.4002C198.802 29.3214 198.234 23.5789 172.387 20.6701C166.331 19.9885 143.87 23.8673 139.117 32.1771C130.09 46.7437 130.005 49.7192 127.132 71.3639C125.799 80.904 139.376 79.9113 140.915 89.2462C149.863 92.1993 146.472 97.1947 146.627 99.567C147.113 107.007 124.16 110.705 118.515 135.375C91.8442 144.197 72.8652 181.493 79.8758 223.238C84.1492 248.684 90.2171 246.847 114.529 286.956C129.403 311.473 134.65 324.594 162.962 337.007C171.374 352.291 168.578 358.65 169.152 370.297C169.304 373.396 178.46 375.76 180.522 368.559C181.59 361.438 187.472 347.114 200.56 347.06V347.06Z" fill="white" stroke="black"/>
<path d="M231.507 377.985C230.325 404.56 236.65 387.534 236.741 398.866C236.832 406.989 228.648 398.364 215.735 411.1C199.184 427.346 201.821 432.36 198.911 435.569C195.001 432.761 195.819 425.942 196.82 422.031C181.451 417.819 177.177 421.53 175.995 425.842C171.812 417.017 183.179 414.811 186.907 411.602C184.452 409.696 176.177 413.006 172.903 413.908C176.086 403.379 186.271 410.599 195.456 405.685C201.185 402.576 206.914 406.588 211.097 403.178C218.463 397.061 220.919 386.642 220.646 379.322C223.283 377.918 224.738 381.517 226.738 380.414C228.212 379.413 228.285 377.623 231.507 377.985V377.985Z" fill="#E00E00" stroke="black"/>
<path d="M138.377 70.468C138.992 76.0075 140.569 85.8631 142.005 88.6329C125.006 91.522 111.733 88.9501 106.619 87.0691C101.428 85.1604 95.8891 80.2564 89.9229 74.4276C89.9229 74.4276 133.453 54.5679 138.377 70.468Z" fill="#E00E00" stroke="black"/>
<path d="M113.041 71.7837C130.369 70.8863 131.841 69.9036 138.377 70.468C137.653 64.2898 134.316 64.3461 133.634 57.52C132.829 49.4651 135.005 48.3076 138.868 32.7251C115.759 32.7618 87.002 50.5486 85.5022 75.1435C96.4158 73.6733 99.7337 72.4728 113.041 71.7837V71.7837Z" fill="#E00E00" stroke="black"/>
<path d="M131.738 397.213C135.455 397.874 139.543 399.416 149.95 397.323C158.963 395.56 168.72 396.441 168.999 390.602C169.105 385.827 168.977 379.173 169.086 365.839C172.338 363.966 172.064 368.957 175.038 368.899C177.733 368.846 176.098 365.104 180.882 366.646C180.324 373.477 179.592 385.424 183.494 391.043C188.14 397.653 183.401 400.407 177.083 401.179C160.264 403.052 161.472 412.306 152.924 413.628C146.698 414.62 143.817 422.882 142.052 426.408C141.123 420.789 140.379 416.492 143.632 412.857C131.552 414.069 131.087 406.908 122.539 417.043C122.446 413.297 122.539 410.213 130.994 403.823C127.278 401.399 118.45 402.28 117.056 407.458C115.384 405.806 121.052 395.119 131.738 397.102L131.738 397.213Z" fill="#E00E00" stroke="black" stroke-width="0.98632"/>
<path d="M150.369 33.5802C162.316 30.4237 173.075 30.548 182 35.2571C197.753 43.5687 198.683 58.9143 218.367 58.6183" stroke="black" stroke-linecap="round"/>
<path d="M155.266 96.6121C177.452 96.7854 187.63 89.6664 195.469 83.384C207.097 74.0647 209.794 63.1456 218.276 61.8494" stroke="black" stroke-linecap="round"/>
<path d="M171.804 57.3883C170.792 51.3135 167.479 47.3733 164.835 46.0599C160.385 48.5631 159.86 56.3811 161.797 57.5447L171.804 57.3883Z" fill="black" stroke="black" stroke-linecap="round"/>
<path d="M278.617 336.695C278.428 341.948 286.299 347.58 290.913 352.082" stroke="black" stroke-linecap="round"/>
<path d="M265.251 357.399C254.599 351.451 244.601 336.539 235.362 311.407" stroke="black" stroke-linecap="round"/>
<path d="M242.26 315.377C215.896 300.707 192.405 268.497 182.66 225.618" stroke="black" stroke-linecap="round"/>
<path d="M202.894 415.923C198.894 417.77 197.252 421.155 196.432 423.924" stroke="black" stroke-width="1.0165" stroke-linecap="round"/>
<path d="M212.552 406.387C207.368 408.693 189.908 414.109 186.726 411.501" stroke="black" stroke-linecap="round"/>
<path d="M151.623 401.729C147.72 403.823 142.145 405.145 130.809 404.043" stroke="black" stroke-width="1.0026" stroke-linecap="round"/>
<path d="M153.853 405.145C150.786 407.789 147.813 411.425 143.446 413.077" stroke="black" stroke-width="1.0026" stroke-linecap="round"/>
<path d="M200.739 58.4839C194.103 59.0933 180.441 59.5571 171.804 57.3884" stroke="black" stroke-linecap="round"/>
<path d="M164.835 46.06C165.096 44.3087 165.461 42.2476 166.136 39.2529" stroke="black" stroke-linecap="round"/>
</g>
<defs>
<clipPath id="clip0">
<rect x="0.5" y="0.607422" width="400" height="521.59" fill="white"/>
</clipPath>
</defs>
</svg>
