<svg width="401" height="521" viewBox="0 0 401 521" fill="none" xmlns="http://www.w3.org/2000/svg">
<g clip-path="url(#clip0)">
<path d="M200.771 519.977C276.611 466.368 333.646 390.407 363.836 302.8C392.777 221.349 404.4 122.65 399.358 1.06738V0.607422H1.64436V1.10571C-3.3973 122.688 8.18697 221.349 37.0514 302.8C67.2619 390.417 124.325 466.38 200.193 519.977L200.501 520.168L200.771 519.977Z" fill="#0085CA"/>
<path fill-rule="evenodd" clip-rule="evenodd" d="M164.662 209.649C158.978 262.142 153.244 315.094 157.589 379.498V379.46H243.952C248.252 315.244 242.565 262.544 236.917 210.202C235.337 195.56 233.76 180.946 232.406 166.116C228.211 120.427 255.921 110.921 271.315 106.666V105.248H365.106V86.4664H271.315V85.3165C260.809 67.8764 227.249 61.437 200.771 61.437C174.292 61.437 140.732 67.8764 130.226 85.3165V86.4664H36.3586V105.248H130.226V106.705C145.659 110.959 173.292 120.465 169.135 166.154C167.789 180.771 166.227 195.192 164.662 209.649Z" fill="white"/>
</g>
<defs>
<clipPath id="clip0">
<rect x="0.5" y="0.607422" width="400" height="519.56" fill="white"/>
</clipPath>
</defs>
</svg>
