<svg width="401" height="520" viewBox="0 0 401 520" fill="none" xmlns="http://www.w3.org/2000/svg">
<g clip-path="url(#clip0)">
<path d="M200.25 519.643C124.398 466.089 67.3416 390.194 37.1204 302.653C8.2081 221.242 -3.42105 122.628 1.65466 1.05509V0.607422H399.359V1.05509C404.371 122.564 392.934 221.242 363.829 302.653C333.642 390.177 276.632 466.07 200.828 519.643V519.643H200.25Z" fill="#0085CA"/>
<path d="M163.499 389.692C163.623 389.742 163.761 389.742 163.884 389.692L163.949 389.628C164.043 389.606 164.129 389.559 164.197 389.491C164.265 389.423 164.313 389.338 164.334 389.244L173.907 339.234C178.019 319.408 179.24 312.054 171.594 297.217C170.691 295.676 170.178 293.939 170.1 292.156C170.022 290.374 170.38 288.599 171.145 286.985C171.896 285.757 172.209 284.312 172.034 282.885C171.859 281.458 171.207 280.131 170.181 279.119C168.767 277.456 167.611 276.305 166.647 275.282C165.017 273.649 163.513 271.896 162.15 270.037C139.727 239.404 133.816 192.016 135.807 157.865C135.643 153.844 137.039 149.915 139.706 146.89C142.374 143.866 146.108 141.98 150.135 141.622C150.231 141.619 150.323 141.589 150.403 141.537C150.483 141.484 150.546 141.411 150.586 141.325C150.626 141.238 150.641 141.142 150.63 141.048C150.618 140.954 150.58 140.864 150.521 140.79C139.727 125.186 135.807 94.6168 142.232 72.6812C142.286 72.5713 142.298 72.446 142.267 72.3279C142.236 72.2098 142.163 72.1066 142.063 72.0371C141.962 71.9676 141.839 71.9363 141.717 71.9489C141.595 71.9614 141.482 72.017 141.397 72.1056C124.821 83.8088 116.725 87.3902 108.052 86.6227C103.49 86.239 98.5427 80.2915 92.1178 72.7451C86.3657 65.4421 79.9101 58.7165 72.8429 52.6642C72.7642 52.6006 72.6682 52.5616 72.5673 52.5522C72.4663 52.5427 72.3648 52.5632 72.2755 52.6111C72.1862 52.6589 72.1131 52.732 72.0655 52.8211C72.0178 52.9102 71.9977 53.0114 72.0077 53.1118C74.5777 73.4486 75.8626 91.3552 77.0834 108.686C77.7901 118.343 78.4326 127.36 79.2679 136.889C79.7176 142.069 80.2959 147.121 80.8099 152.046C82.1669 161.018 82.7473 170.09 82.5446 179.161C82.5356 179.229 82.5402 179.297 82.558 179.363C82.5758 179.428 82.6065 179.489 82.6484 179.543C82.6902 179.597 82.7424 179.641 82.8018 179.675C82.8612 179.708 82.9266 179.729 82.9943 179.737C89.2908 180.377 109.529 212.992 123.407 248.741C130.366 263.2 136.209 278.166 140.883 293.508C142.104 297.793 143.903 297.729 146.152 297.793C148.4 297.857 150.585 297.921 152.577 302.589C156.689 312.118 152.769 336.1 143.196 359.634C140.443 366.464 137.245 373.108 133.623 379.523C133.551 379.616 133.514 379.729 133.516 379.846C133.518 379.962 133.56 380.074 133.635 380.164C133.71 380.253 133.813 380.315 133.928 380.338C134.042 380.361 134.161 380.344 134.265 380.291C140.369 377.925 145.445 375.367 151.87 372.361C154.572 378.838 158.523 384.726 163.499 389.692Z" fill="white"/>
<path d="M258.717 72.5535C275.036 84.0649 283.324 87.902 292.448 87.1346C301.571 86.3672 310.951 66.8618 328.106 53.0481C324.123 84.3207 323.287 109.71 320.91 136.825C318.938 150.749 317.843 164.782 317.633 178.842C310.63 179.609 290.07 214.016 276.835 248.166C269.864 262.752 264.022 277.846 259.359 293.316C257.046 301.182 251.97 292.805 247.858 302.334C243.746 311.862 247.537 335.78 257.239 359.89C260.098 366.707 263.403 373.33 267.133 379.716C260.708 377.285 255.311 374.599 248.758 371.402C246.145 378.054 242.162 384.089 237.065 389.117L227.62 342.751C223.251 320.368 221.195 313.269 229.226 297.985C234.173 288.328 225.371 285.898 230.575 279.95C233.429 277.041 236.131 273.989 238.671 270.805C262.764 237.87 266.812 187.667 265.142 158.313C265.276 154.175 263.823 150.141 261.079 147.029C258.335 143.918 254.504 141.962 250.364 141.558C261.158 125.954 265.077 95.4484 258.717 73.0012V72.5535Z" fill="white"/>
</g>
<defs>
<clipPath id="clip0">
<rect x="0.5" y="0.607422" width="400" height="519.04" fill="white"/>
</clipPath>
</defs>
</svg>
