<svg width="401" height="522" viewBox="0 0 401 522" fill="none" xmlns="http://www.w3.org/2000/svg">
<g clip-path="url(#clip0)">
<path d="M200.156 520.949C124.371 467.232 67.3805 391.153 37.2061 303.422C8.13466 221.834 -3.50179 122.93 1.70503 1.07971V0.607422H399.356V1.07971C404.405 123.087 392.769 221.795 363.855 303.422C333.639 391.174 276.591 467.256 200.748 520.949L200.471 521.146L200.156 520.949Z" fill="#0085CA"/>
<path d="M110.18 58.1084C110.149 56.8627 109.626 55.6796 108.725 54.8171C107.823 53.9546 106.617 53.4825 105.368 53.5036C104.088 53.501 102.858 53.995 101.936 54.8811C101.499 55.2975 101.151 55.7983 100.914 56.3532C100.676 56.908 100.554 57.5052 100.556 58.1084C100.556 59.3871 101.065 60.6134 101.971 61.5176C102.877 62.4217 104.106 62.9297 105.388 62.9297C106.669 62.9297 107.898 62.4217 108.805 61.5176C109.711 60.6134 110.22 59.3871 110.22 58.1084H110.18Z" fill="white"/>
<path d="M47.4619 116.042C51.3253 118.779 55.8705 120.4 60.5973 120.726C62.2935 121.041 64.0685 121.356 65.8041 121.749C65.9188 121.776 66.0206 121.842 66.0924 121.935C66.1643 122.028 66.2018 122.143 66.1986 122.261C66.1986 124.176 66.1986 126.013 66.1986 127.771C66.4747 140.09 66.6719 148.984 63.3585 154.849C60.0451 160.713 53.8916 160.359 50.4992 160.359C49.8561 160.304 49.2095 160.304 48.5664 160.359C48.6504 160.72 48.86 161.041 49.1581 161.264C50.8268 162.315 52.7146 162.972 54.6768 163.183C56.639 163.395 58.6237 163.155 60.479 162.484C70.0248 159.335 73.5749 147.804 72.7071 122.733C72.7012 122.659 72.7114 122.585 72.737 122.515C72.7627 122.446 72.8031 122.383 72.8557 122.33C72.9082 122.278 72.9715 122.237 73.0412 122.212C73.1109 122.186 73.1853 122.176 73.2593 122.182C80.2018 122.772 86.7497 123.284 92.5088 123.678C118.385 125.567 134.006 126.708 141.224 135.485C153.11 148.873 166.107 161.236 180.078 172.441L187.967 179.329C191.912 182.753 188.48 192.474 184.812 202.943C183.155 207.548 181.459 212.31 180.433 216.6C178.674 223.425 177.526 230.392 177.001 237.42C177.001 241.002 177.238 242.812 178.145 243.717C178.712 244.116 179.354 244.395 180.032 244.537C180.71 244.679 181.411 244.681 182.09 244.544C187.928 244.229 193.45 243.717 197.868 243.324C201.103 243.048 203.903 242.773 206.073 242.655C208.242 242.536 209.465 242.851 210.017 243.678C210.57 244.504 210.017 246.275 209.228 248.046L206.822 253.32C199.801 268.748 195.817 277.407 194.476 293.937C194.378 294.42 194.391 294.919 194.514 295.396C194.637 295.873 194.867 296.316 195.186 296.692C195.995 297.23 196.904 297.601 197.859 297.784C198.814 297.966 199.796 297.956 200.748 297.755C203.43 297.558 205.718 297.322 207.769 297.086C209.82 296.849 212.463 296.574 214.08 296.574C215.486 296.443 216.891 296.835 218.025 297.676C218.544 298.29 218.922 299.009 219.134 299.784C219.345 300.559 219.384 301.371 219.248 302.163C218.656 317.551 217.788 340.772 205.599 342.386C202.72 342.779 197.71 343.134 191.438 343.566C173.333 344.865 145.997 346.794 133.059 351.753C128.562 353.484 126.038 354.665 125.564 356.043C125.091 357.42 125.84 358.444 127.142 360.608C132.295 367.882 138.675 374.207 145.997 379.303C152.996 384.374 159.295 390.342 164.734 397.053C167.728 402.245 170.11 407.766 171.834 413.504C173.837 419.981 176.479 426.243 179.723 432.199C182.287 436.135 183.668 438.024 184.851 438.181C186.034 438.339 187.336 437.119 189.584 435.072C198.732 426.044 205.94 415.25 210.767 403.35C212.266 399.926 213.804 396.384 215.264 392.96C221.259 378.909 227.452 364.347 235.341 355.531L240.824 349.431C254.56 335.205 266.484 319.342 276.325 302.202C277.785 299.486 284.569 299.722 294.786 300.037C298.73 300.037 303.582 300.313 308.355 300.273C310.288 300.273 310.564 299.604 310.959 298.739V298.502C317.704 284.019 313.089 259.736 309.381 240.254C308.907 237.853 308.473 235.531 308.079 233.248C307.408 229.312 315.968 227.541 325.317 225.377C329.261 224.511 332.811 223.684 335.573 222.779C339.517 221.441 339.517 220.26 339.162 218.843C335.37 195.394 325.051 173.478 309.381 155.596C303.03 147.725 299.164 143.199 302.557 138.988L310.959 128.676C322.792 113.956 337.9 95.6159 345.395 84.6746C349.97 77.9839 348.59 76.567 346.696 74.6778C334.547 62.359 306.225 50.3551 280.783 46.7342C271.464 45.5802 262.087 44.9626 252.697 44.8844C242.402 44.6089 233.487 44.3728 228.162 42.2081C206.894 34.0215 184.295 29.8187 161.499 29.8106C105.25 28.6692 60.8734 51.89 45.0952 67.7116C39.8095 72.9461 36.8905 77.9051 36.9299 81.6834C36.9299 82.8642 37.1666 78.6136 37.6005 79.0465C38.0344 79.4794 38.8628 74.4417 39.4939 74.4417H39.8489C40.0856 74.4417 40.2828 79.6369 40.3617 79.873C40.8925 82.4197 41.7683 84.8825 42.9651 87.1934C43.5877 84.1244 44.6366 81.1571 46.0813 78.3774C46.0813 78.3774 46.318 74.4417 46.4363 74.4417H50.8148C51.0788 76.2422 51.25 78.055 51.3276 79.873C51.8597 82.4194 52.7355 84.8819 53.931 87.1934C54.5176 84.1308 55.5264 81.1639 56.9289 78.3774C56.9289 78.3774 57.1655 74.4417 57.2839 74.4417H61.6623C61.9264 76.2422 62.0975 78.055 62.1751 79.873C62.7173 82.4346 63.6064 84.9106 64.818 87.2328C65.4421 84.1642 66.4908 81.1971 67.9342 78.4168C67.9342 78.4168 68.1709 74.4811 68.2892 74.4811H72.7071C72.9698 76.2817 73.1409 78.0945 73.2199 79.9124C73.752 82.4587 74.6278 84.9213 75.8233 87.2328C76.4469 84.1641 77.4957 81.1969 78.9395 78.4168C78.9395 78.4168 79.1762 74.4811 79.2945 74.4811H83.673C83.9357 76.2817 84.1068 78.0945 84.1858 79.9124C84.7179 82.4587 85.5937 84.9213 86.7892 87.2328C87.4133 84.1642 88.462 81.1971 89.9054 78.4168C89.9054 78.4168 90.1421 74.4811 90.2604 74.4811H94.6389C95.9011 74.4811 97.2423 80.2272 98.5834 81.526C100.677 84.6317 101.789 88.2918 101.779 92.0344C101.772 92.5908 101.705 93.1449 101.581 93.6874C101.581 93.6874 101.305 94.4352 101.147 94.4352C86.9787 92.806 72.6506 93.177 58.5856 95.5372C53.6947 96.4375 48.6985 96.6231 43.754 96.0882C41.3479 95.734 39.2572 95.3404 37.3639 94.9075C34.5238 94.2777 32.1176 93.7267 31.7626 94.5139C31.7072 94.6447 31.6787 94.7852 31.6787 94.9271C31.6787 95.0691 31.7072 95.2096 31.7626 95.3404C32.888 96.6109 34.2561 97.6447 35.7868 98.3813C37.3175 99.118 38.9801 99.5426 40.6773 99.6303L42.0973 99.8665C47.9698 101.005 53.9821 101.244 59.9267 100.575C65.6154 99.8343 71.349 99.4924 77.0856 99.5516C84.9331 99.6762 92.7358 100.76 100.319 102.779C100.584 101.484 100.703 100.164 100.674 98.8432C99.5696 103.33 94.4416 102.11 90.7338 102.11H86.4342C86.4342 102.11 86.1581 106.754 86.0792 106.675C84.5802 105.219 83.7124 105.967 82.963 103.999C81.8585 105.298 80.9118 103.487 80.3596 105.298C80.2515 104.239 80.0803 103.188 79.8468 102.149H75.4683C75.4683 102.149 75.1922 106.793 75.1133 106.715C73.6144 105.258 72.7466 106.006 71.9971 104.038C70.8926 105.337 69.9459 103.527 69.3937 105.337C69.2855 104.278 69.1142 103.227 68.8809 102.189H64.5024C64.5024 102.189 64.2263 106.833 64.1474 106.754C62.6485 105.298 61.7807 106.046 61.0312 104.078C59.9267 105.376 58.98 103.566 58.4278 105.376C58.3196 104.318 58.1483 103.266 57.915 102.228H53.5366C53.5366 102.228 53.2604 106.872 53.1815 106.793C51.6826 105.337 50.8148 106.085 50.0653 104.117C48.8701 105.953 47.9902 107.975 47.4619 110.099C47.4619 110.296 47.1858 111.044 46.9886 111.044L44.9374 111.398C44.9374 111.398 44.7007 111.398 44.6613 111.634C44.6218 111.87 46.1208 114.862 47.4619 116.082L47.1069 116.515L47.4619 116.042ZM98.1101 58.1872C98.1009 57.2279 98.2926 56.2772 98.673 55.3962C99.0533 54.5151 99.614 53.723 100.319 53.0707C101.705 51.7621 103.539 51.0302 105.447 51.0241C106.416 50.9517 107.389 51.0796 108.307 51.3999C109.224 51.7201 110.065 52.2258 110.777 52.8852C111.489 53.5446 112.057 54.3437 112.446 55.2323C112.835 56.1209 113.035 57.0799 113.035 58.0494C113.035 59.0189 112.835 59.978 112.446 60.8666C112.057 61.7552 111.489 62.5542 110.777 63.2136C110.065 63.8731 109.224 64.3787 108.307 64.699C107.389 65.0192 106.416 65.1471 105.447 65.0747C103.549 65.117 101.712 64.4079 100.338 63.1025C98.9626 61.797 98.1618 60.0014 98.1101 58.1085V58.1872Z" fill="white"/>
</g>
<defs>
<clipPath id="clip0">
<rect x="0.5" y="0.607422" width="400" height="520.54" fill="white"/>
</clipPath>
</defs>
</svg>
