<svg width="401" height="507" viewBox="0 0 401 507" fill="none" xmlns="http://www.w3.org/2000/svg">
<g clip-path="url(#clip0)">
<path d="M400.5 0.607422H0.5V306.452C0.5 306.482 0.5 306.512 0.5 306.543C0.5 417.004 90.0436 506.538 200.495 506.538C310.946 506.538 400.5 416.994 400.5 306.543C400.5 306.512 400.5 306.482 400.5 306.452V0.607422V0.607422Z" fill="#0085CA"/>
<path d="M287.082 196.617C327.417 196.617 360.114 163.919 360.114 123.585C360.114 83.2507 327.417 50.5532 287.082 50.5532C246.748 50.5532 214.05 83.2507 214.05 123.585C214.05 163.919 246.748 196.617 287.082 196.617Z" fill="#FFE000"/>
<path d="M287.082 172.485C314.089 172.485 335.983 150.592 335.983 123.585C335.983 96.5781 314.089 74.6846 287.082 74.6846C260.075 74.6846 238.182 96.5781 238.182 123.585C238.182 150.592 260.075 172.485 287.082 172.485Z" fill="#0085CA"/>
<path d="M114.375 196.617C154.709 196.617 187.407 163.919 187.407 123.585C187.407 83.2507 154.709 50.5532 114.375 50.5532C74.0406 50.5532 41.3431 83.2507 41.3431 123.585C41.3431 163.919 74.0406 196.617 114.375 196.617Z" fill="#FFE000"/>
<path d="M114.375 172.485C141.382 172.485 163.275 150.592 163.275 123.585C163.275 96.5781 141.382 74.6846 114.375 74.6846C87.3681 74.6846 65.4746 96.5781 65.4746 123.585C65.4746 150.592 87.3681 172.485 114.375 172.485Z" fill="#0085CA"/>
<path d="M114.375 369.324C154.709 369.324 187.407 336.627 187.407 296.292C187.407 255.958 154.709 223.26 114.375 223.26C74.0406 223.26 41.3431 255.958 41.3431 296.292C41.3431 336.627 74.0406 369.324 114.375 369.324Z" fill="#FFE000"/>
<path d="M114.375 345.193C141.382 345.193 163.275 323.299 163.275 296.292C163.275 269.285 141.382 247.392 114.375 247.392C87.3681 247.392 65.4746 269.285 65.4746 296.292C65.4746 323.299 87.3681 345.193 114.375 345.193Z" fill="#0085CA"/>
<path d="M287.082 369.324C327.417 369.324 360.114 336.627 360.114 296.292C360.114 255.958 327.417 223.26 287.082 223.26C246.748 223.26 214.05 255.958 214.05 296.292C214.05 336.627 246.748 369.324 287.082 369.324Z" fill="#FFE000"/>
<path d="M287.082 345.193C314.089 345.193 335.983 323.299 335.983 296.292C335.983 269.285 314.089 247.392 287.082 247.392C260.075 247.392 238.182 269.285 238.182 296.292C238.182 323.299 260.075 345.193 287.082 345.193Z" fill="#0085CA"/>
</g>
<defs>
<clipPath id="clip0">
<rect x="0.5" y="0.607422" width="400" height="505.93" fill="white"/>
</clipPath>
</defs>
</svg>
