<svg width="401" height="523" viewBox="0 0 401 523" fill="none" xmlns="http://www.w3.org/2000/svg">
<g clip-path="url(#clip0)">
<path d="M200.209 521.985C122.395 465.53 69.061 394.229 37.1483 304.04C8.20906 222.269 -3.40222 123.17 1.64434 1.08905L1.66528 0.607422H399.339L399.36 1.08905C404.396 123.17 392.784 222.258 363.856 304.04C331.943 394.229 278.609 465.53 200.795 521.985L200.502 522.194L200.209 521.985Z" fill="black"/>
<path d="M321.519 303.556C329.578 309.195 329.685 296.605 317.178 286.857C295.236 269.754 254.477 230.373 264.056 173.231C273.461 117.123 305.841 84.0597 327.791 63.878C340.905 51.82 355.559 39.6721 349.012 39.6721H249.825V22.1289C249.825 17.4742 238.174 17.4742 238.174 21.9981V39.6721L85.0694 40.6355C81.5823 40.6575 76.7028 46.9943 73.7439 51.0525C56.8592 74.2103 42.4284 108.4 42.1328 143.527C41.985 161.087 47.8303 185.561 50.7304 195.532C52.4836 201.56 56.9279 212.782 63.1356 217.735C67.1336 220.925 73.1454 202.894 77.3403 198.178C106.442 165.462 195.968 225.866 237.146 245.917C236.88 265.198 237.146 281.851 237.146 297.595C237.146 301.23 216.325 299.808 202.547 298.746C167.668 296.058 132.469 292.283 111.865 283.844C101.028 279.406 97.6098 269.211 96.9169 259.709C96.492 253.88 97.2381 247.87 105.021 243.408C110.758 240.119 110.253 230.58 102.703 231.226C99.963 231.461 93.1048 233.363 92.6292 230.681C92.0278 227.291 92.3588 223.312 92.2118 217.099C92.0425 209.945 80.1834 212.1 79.7655 216.234C75.7504 255.949 74.4275 320.382 81.0299 350.291C83.5119 361.534 93.2239 366.747 100.887 371.49C119.296 382.886 216.53 398.702 266.148 398.05C287.215 397.774 293.041 397.372 292.469 383.005C291.906 368.892 296.344 307.884 292.525 301.67C289.911 297.415 254.509 303.312 254.509 298.357L254.509 256.667L321.519 303.556Z" fill="white"/>
</g>
<defs>
<clipPath id="clip0">
<rect x="0.5" y="0.607422" width="400" height="521.59" fill="white"/>
</clipPath>
</defs>
</svg>
