<svg width="401" height="490" viewBox="0 0 401 490" fill="none" xmlns="http://www.w3.org/2000/svg">
<g clip-path="url(#clip0)">
<path d="M397.915 2.21985C404.123 124.571 382.894 239.108 326.779 337.088C294.276 393.647 252.476 444.337 203.13 487.034C92.3293 396.62 25.6628 279.664 9.95826 145.841C3.80753 98.2267 1.25531 50.2172 2.32327 2.21985H397.915Z" fill="#B4A031"/>
<path d="M203.189 489.143L202.134 488.274C90.9608 397.488 23.9839 279.23 8.40359 146.027C2.28883 98.3259 -0.283882 50.2382 0.706529 2.15774V0.607422H399.402V2.09572C406.106 130.462 382.084 243.511 328.018 338.142C295.319 394.762 253.356 445.508 203.872 488.274L203.189 489.143ZM3.81018 3.83208C2.96729 51.2315 5.56044 98.6296 11.5693 145.655C27.0255 277.618 93.3196 394.945 203.127 484.988C251.805 442.618 293.107 392.472 325.349 336.592C378.856 242.829 402.816 130.834 396.361 3.83208H3.81018Z" fill="#231F20"/>
<path d="M176.935 88.7893C182.29 96.3915 186.475 104.753 189.349 113.594C193.508 176.971 188.418 240.286 187.735 303.539C185.011 312.12 180.614 320.078 174.798 326.953C168.981 333.829 161.859 339.486 153.843 343.599C122.186 351.289 95.4946 334.173 76.6244 309.74C53.4711 274.269 41.3048 234.457 31.5593 193.777C57.63 214.179 81.2178 241.03 106.047 264.657C100.647 268.688 88.7907 263.231 82.8938 269.308C92.3289 285.431 108.778 303.787 127.648 306.515C135.122 306.119 142.32 303.564 148.369 299.161C154.418 294.758 159.058 288.696 161.727 281.71L164.768 263.107L160.113 138.027C155.023 101.316 114.737 83.8903 84.5077 74.7745C72.9621 55.0545 45.3396 42.1559 45.4637 17.7229C90.9012 37.815 136.152 57.659 176.935 88.7893Z" fill="black"/>
<path d="M352.974 34.6523C340.001 47.0548 321.938 59.4573 315.73 76.3248C291.398 89.0994 254.712 95.4866 243.291 127.299C233.856 176.475 228.89 231.294 235.594 283.199C238.636 296.966 253.533 308.004 266.63 310.98C288.232 311.663 302.447 288.47 311.447 272.533C306.792 266.765 298.164 270.424 291.46 269.308L365.947 195.327C352.043 246.487 342.608 300.748 296.364 337.336C282.149 348.56 259.12 348.374 242.36 343.537C227.338 335.723 211.323 320.22 208.282 303.477L206.668 141.314C200.088 87.425 259.43 68.8212 294.315 48.5431L351.547 20.7615L352.974 34.6523Z" fill="black"/>
</g>
<defs>
<clipPath id="clip0">
<rect x="0.5" y="0.607422" width="400" height="488.54" fill="white"/>
</clipPath>
</defs>
</svg>
