<svg width="401" height="523" viewBox="0 0 401 523" fill="none" xmlns="http://www.w3.org/2000/svg">
<g clip-path="url(#clip0)">
<path d="M200.209 521.985C122.395 465.53 69.061 394.229 37.1483 304.04C8.20906 222.269 -3.40222 123.17 1.64434 1.08905L1.66528 0.607422H399.339L399.36 1.08905C404.396 123.17 392.784 222.258 363.856 304.04C331.943 394.229 278.609 465.53 200.795 521.985L200.502 522.194L200.209 521.985Z" fill="#0085CA"/>
<mask id="mask0" mask-type="alpha" maskUnits="userSpaceOnUse" x="3" y="106" width="370" height="417">
<path d="M180.839 285.958C103.989 286.429 31.0652 186.671 3.27768 134.163V522.772H372.096V276.587C366.515 239.251 351.491 200.219 340.162 176.934C325.577 146.937 293.11 108.606 248.078 106.973C214.218 105.748 160.852 123.055 153.156 181.875C150.664 200.941 161.051 225.891 177.656 233.524C187.561 238.089 200.272 236.362 207.925 229.19C196.953 227.452 185.718 221.861 185.676 205.004C185.645 190.335 200.272 179.3 218.898 178.881C235.095 178.515 252.789 189.759 253.732 214.678C255.051 249.669 226.363 285.675 180.839 285.958Z" fill="#C4C4C4"/>
</mask>
<g mask="url(#mask0)">
<path d="M200.209 521.985C122.395 465.53 69.061 394.229 37.1483 304.04C8.20906 222.269 -3.40222 123.17 1.64434 1.08905L1.66528 0.607422H399.339L399.36 1.08905C404.396 123.17 392.784 222.258 363.856 304.04C331.943 394.229 278.609 465.53 200.795 521.985L200.502 522.194L200.209 521.985Z" fill="white"/>
</g>
<path d="M38.5624 303.54L37.3869 303.956L38.5623 303.54C9.78278 222.22 -1.83777 123.63 3.10385 2.10742H397.9C402.831 123.63 391.211 222.209 362.442 303.54C330.711 393.214 277.751 464.134 200.502 520.343C123.253 464.134 70.2928 393.214 38.5624 303.54Z" stroke="#0085CA" stroke-width="3"/>
</g>
<defs>
<clipPath id="clip0">
<rect x="0.5" y="0.607422" width="400" height="522.17" fill="white"/>
</clipPath>
</defs>
</svg>
