<svg width="401" height="524" viewBox="0 0 401 524" fill="none" xmlns="http://www.w3.org/2000/svg">
<g clip-path="url(#clip0)">
<path d="M200.25 522.96C124.422 469.064 67.3819 392.694 37.1648 304.608C8.20621 222.681 -3.40884 123.419 1.64805 1.08236V0.607422H399.365V1.08236C404.382 123.379 392.807 222.72 363.809 304.608C333.613 392.683 276.602 469.052 200.803 522.96L200.526 523.158L200.25 522.96Z" fill="#0085CA"/>
<path d="M197.287 198.577C201.237 210.451 194.166 216.111 182.59 215.715C170.106 215.319 157.701 201.942 159.676 184.29C161.375 168.815 176.111 151.598 200.329 149.896C231.934 147.68 256.745 176.612 256.863 201.862C256.863 235.82 234.226 278.723 178.402 278.169C140.278 277.813 97.0969 248.208 95.4376 193.116C93.6993 140.714 141.937 85.9379 200.289 84.0777C256.35 82.2967 316.519 130.186 321.023 192.918C325.447 254.501 289.812 329.66 200.289 340.544C124.949 349.766 34.8339 297.8 34.7154 192.918C34.7154 86.8086 123.804 32.1907 200.289 32.1907C312.726 34.2487 363.927 132.798 360.688 192.918C359.858 208.037 357.567 225.926 351.404 238.749C352.465 228.296 352.913 217.79 352.747 207.285C352.747 130.859 295.58 55.5418 202.62 54.7502C116.1 54.0378 56.8393 123.893 60.9085 196.163C65.6889 277.298 133.917 311.85 181.523 310.267C265.713 307.338 291.313 245.517 291.313 206.374C291.313 152.983 249.831 116.334 204.398 116.334C160.94 116.334 128.386 149.184 128.386 189.435C128.186 204.334 133.9 218.703 144.272 229.383C154.643 240.063 168.824 246.179 183.696 246.388C209.731 246.665 227.154 225.095 227.154 208.314C227.154 187.021 213.327 178.155 202.818 178.155C189.82 178.155 181.839 185.596 181.523 193.551C181.471 195.427 182.03 197.269 183.117 198.798C184.203 200.327 185.758 201.459 187.545 202.023C189.332 202.587 191.254 202.552 193.019 201.923C194.784 201.294 196.296 200.105 197.326 198.538L197.287 198.577Z" fill="white" stroke="white" stroke-width="0.2"/>
</g>
<defs>
<clipPath id="clip0">
<rect x="0.5" y="0.607422" width="400" height="522.55" fill="white"/>
</clipPath>
</defs>
</svg>
