<svg width="401" height="510" viewBox="0 0 401 510" fill="none" xmlns="http://www.w3.org/2000/svg">
<g clip-path="url(#clip0)">
<path d="M0.5 0V184.928C0.5 414.6 200.5 509.984 200.5 509.984C200.5 509.984 400.5 414.6 400.5 184.928V0H0.5Z" fill="#00A1E4"/>
<path d="M318.034 267.04C301.4 254.593 261.995 254.652 212.327 266.598C213.831 261.699 215.806 256.958 218.226 252.44C220.291 248.547 222.355 244.742 224.361 240.967C257.335 179.472 281.078 134.995 265.948 101.696C256.568 81.0498 232.914 79.5456 221.706 81.6691L218.757 88.2168C219.199 88.8952 229.67 105.029 235.274 112.638C249.608 142.309 226.189 170.594 196.548 206.341C180.267 225.984 162.04 247.987 148.708 272.88C147.337 271.915 146.097 270.774 145.021 269.488C134.816 257.69 139.86 231.677 149.416 211.267C151.274 207.285 153.604 202.418 156.082 197.552C174.044 160.861 201.267 105.5 187.287 74.5315C177.907 53.8856 154.253 52.3519 143.045 54.4755L140.243 61.0232C140.686 61.7311 151.038 77.6874 156.672 85.3264C167.467 112.52 150.773 136.145 130.127 166.052C108.419 197.08 83.821 232.237 83.821 281.345C83.821 342.044 130.599 380.416 171.389 394.838C181.963 399.346 193.373 401.558 204.865 401.327V401.327C228.962 401.327 259.016 389.765 281.55 371.833C301.842 355.641 325.998 326.795 325.998 281.168C325.907 278.345 325.136 275.587 323.749 273.127C322.363 270.667 320.402 268.579 318.034 267.04V267.04ZM203.331 211.827C233.799 175.048 260.049 143.282 243.001 108.45L242.588 107.801C239.255 103.288 233.74 95.1185 230.083 89.4851H230.26C238.547 89.4851 252.056 91.7266 258.161 105.176C271.492 134.67 247.396 179.767 216.869 236.867L210.734 248.341C207.159 254.828 204.49 261.775 202.801 268.987C198.612 270.107 194.336 271.287 190.03 272.555C179.589 275.505 166.906 278.071 156.937 275.977C169.856 252.234 187.523 230.91 203.331 211.827ZM92.2859 281.345C92.2859 234.95 116.058 200.944 137.058 170.977C158.707 140.038 177.465 113.316 164.429 81.6102L163.898 80.6663C160.565 76.1832 155.049 67.9838 151.392 62.3799C159.651 62.3799 173.336 64.5035 179.471 78.0708C191.77 105.294 164.724 160.655 148.325 193.747C145.847 198.82 143.517 203.598 141.6 207.639C131.661 228.875 124.877 259.254 138.503 275.092C140.37 277.256 142.57 279.108 145.021 280.578C145.021 280.873 144.727 281.168 144.609 281.463C127.738 316.856 132.811 352.632 145.139 372.246L145.552 372.865C117.031 354.608 92.2859 323.757 92.2859 281.345ZM276.005 365.049C250.493 385.4 221.677 392.626 204.777 392.626H202.388C193.226 392.106 184.183 390.31 175.518 387.288C165.963 383.277 157.885 376.405 152.395 367.615C141.6 350.538 136.999 317.475 152.395 285.031L152.985 283.822C163.013 286.565 176.256 285.562 192.566 280.725C195.515 279.841 198.73 278.956 201.827 278.13C201.631 284.442 203.281 290.674 206.576 296.062C221.323 320.189 268.071 323.167 309.157 322.607C301.794 339.283 290.402 353.868 276.005 365.049ZM312.253 313.759C275.504 314.585 226.956 312.844 213.772 291.52C210.991 286.789 209.831 281.28 210.469 275.829C252.203 265.506 296.327 261.407 312.873 273.794C314.137 274.567 315.194 275.638 315.949 276.913C316.705 278.188 317.137 279.628 317.208 281.109C317.278 292.223 315.606 303.28 312.253 313.877V313.759Z" fill="white"/>
</g>
<defs>
<clipPath id="clip0">
<rect x="0.5" width="400" height="509.984" fill="white"/>
</clipPath>
</defs>
</svg>
