<svg width="401" height="669" viewBox="0 0 401 669" fill="none" xmlns="http://www.w3.org/2000/svg">
<g clip-path="url(#clip0)">
<path d="M79.2032 55.8826C82.5624 63.0873 98.1588 96.7095 101.758 104.154C100.798 104.875 99.8384 105.595 98.8786 106.316L99.1186 106.796L114.475 139.458C136.55 124.808 160.784 115.922 185.739 113.28C190.777 112.8 195.816 112.56 200.855 112.56C211.653 112.56 222.21 113.761 232.528 116.162C251.243 120.245 269.239 127.93 286.035 139.218L300.432 108.237L301.632 105.595C300.432 104.875 299.472 103.914 298.272 103.194C301.632 96.2292 316.988 63.0873 320.347 55.8826L326.826 59.4849L336.184 42.6738L327.306 37.6305L323.227 45.0754L317.948 42.1935L322.027 34.7486L313.149 29.7053L309.07 37.1502L303.791 34.2683L307.87 26.8234L298.992 21.78L289.634 38.5911L296.593 42.4337C296.113 43.1542 295.393 44.1148 294.433 45.5557L288.435 43.3943L286.515 48.4376L283.156 47.2369L285.076 42.1935L277.637 39.5518L275.718 44.5951L272.358 43.3943L274.278 38.351L269.239 36.4297C269.719 34.5084 269.959 32.8273 270.199 31.8667L277.397 34.0281L282.676 15.5359L272.838 12.654L270.439 20.8194L264.68 19.1383L267.08 10.9729L257.242 8.09099L254.843 16.2564L249.084 14.5753L251.483 6.40988L241.646 3.52798L236.367 22.0202L244.045 24.1816C243.805 25.1423 243.085 26.5832 242.605 28.2643L236.847 27.3037L236.127 32.5872L232.288 31.8667L233.008 26.5832L224.609 25.3824L223.89 30.6659L220.051 29.9454L220.77 24.6619L214.532 23.7013C214.532 22.2604 214.292 20.8194 214.292 20.0989H221.97V0.88623H211.653V9.53194H205.654V0.88623H195.336V9.53194H189.338V0.88623H179.02V20.0989H186.938C186.938 21.0596 186.698 22.2604 186.698 23.7013L180.46 24.6619L181.18 29.9454L177.34 30.6659L176.621 25.3824L168.702 26.5832L169.422 31.8667L165.583 32.5872L164.863 27.3037L158.865 28.2643C158.145 26.343 157.665 24.9021 157.425 23.9415L164.863 22.0202L160.304 3.28782L150.227 5.6894L152.386 14.095L146.628 15.5359L144.468 7.13036L134.39 9.53194L136.55 17.9375L130.791 19.3784L128.632 10.9729L118.554 13.3745L123.113 32.1069L130.791 30.1856C131.031 31.1462 131.271 33.0675 131.751 35.4691L125.992 37.6305L127.912 42.6738L124.313 43.8746L122.153 39.3116L114.475 42.1935L116.395 47.2369L112.795 48.4376L110.876 43.3943L104.877 45.5557C103.917 44.3549 103.438 43.1542 102.958 42.4337L109.436 38.8313L100.078 22.0202L91.2004 27.0635L95.2795 34.5084L90.2406 37.3903L86.1616 29.9454L77.0437 34.9888L81.1227 42.4337L75.844 45.3156L71.7649 38.1108L62.887 43.1542L72.2448 59.9653L79.2032 55.8826Z" fill="#C6A55A"/>
<path d="M200.374 667.803C146.866 667.803 96.7177 638.984 58.8065 586.389C21.1352 534.035 0.5 464.389 0.5 390.18C0.5 316.211 21.1352 246.325 58.8065 193.97C96.4778 141.375 146.866 112.556 200.374 112.556C253.881 112.556 304.03 141.375 341.941 193.97C379.612 246.325 400.247 315.971 400.247 390.18C400.247 464.148 379.612 533.794 341.941 586.389C304.03 638.984 253.881 667.803 200.374 667.803Z" fill="#BFC2C1"/>
<path d="M200.132 155.546C114.952 155.546 45.6079 260.015 45.6079 388.5C45.6079 516.985 114.952 621.454 200.132 621.454C285.312 621.454 354.656 516.985 354.656 388.5C354.656 260.015 285.312 155.546 200.132 155.546Z" fill="#005EB8"/>
<path d="M376.253 392.351C376.253 395.954 375.053 398.596 372.654 400.517C371.454 401.478 370.015 401.718 368.335 401.718C365.936 401.718 364.016 400.757 362.816 398.836C361.377 396.915 360.657 394.273 360.657 390.911C360.657 387.548 361.137 384.907 362.336 382.745C363.536 380.344 364.976 378.662 366.895 377.222C368.815 375.781 370.974 375.06 373.614 375.06L375.053 376.261L374.574 376.981C374.094 376.981 373.854 376.981 373.374 376.981C371.454 376.981 370.015 377.702 368.575 379.143C367.855 379.863 367.375 380.584 366.895 381.544C366.175 383.225 365.696 385.387 365.456 388.269C367.135 386.588 368.095 385.867 368.335 385.627C369.055 385.387 370.015 385.147 370.974 385.147C372.414 385.147 373.854 385.867 374.813 387.068C375.773 388.029 376.253 389.95 376.253 392.351ZM371.934 394.273C371.934 392.351 371.694 390.911 370.974 389.71C370.255 388.749 369.535 388.269 368.335 388.269C366.895 388.269 365.936 388.989 365.456 390.19C365.216 390.911 365.216 391.631 365.216 392.592C365.216 395.474 365.696 397.395 366.655 398.355C367.135 399.076 367.855 399.316 368.815 399.316C370.974 399.556 371.934 397.875 371.934 394.273Z" fill="black"/>
<path d="M393.767 391.625C393.767 394.266 392.807 396.668 390.887 398.589C388.968 400.51 386.328 401.471 383.449 401.471C382.249 401.471 380.81 401.231 379.37 400.51C379.37 399.79 378.89 398.109 378.17 395.227V394.987L379.13 394.747H379.37C380.57 397.629 382.489 399.069 385.129 399.069C387.048 399.069 388.248 398.109 388.968 396.428C389.208 395.707 389.448 394.747 389.448 393.786C389.448 392.105 388.968 390.664 388.248 389.703C387.288 388.743 386.328 388.262 384.649 388.262C383.209 388.262 382.009 388.743 380.57 389.943L379.85 389.463C380.09 387.062 380.09 385.14 380.09 383.459V380.817C380.09 378.896 380.09 376.975 379.85 375.054L380.09 374.813C382.969 375.054 385.369 375.054 387.288 375.054C388.488 375.054 390.407 375.054 392.567 374.813L392.807 375.054C392.567 376.254 392.567 377.215 392.567 377.695C392.567 377.936 392.567 378.416 392.567 378.896L392.327 379.136C390.887 379.136 389.208 379.136 387.048 379.136C384.649 379.136 382.969 379.136 381.769 379.376L381.529 385.621C383.209 384.66 384.889 384.42 386.328 384.42C388.488 384.42 390.167 385.14 391.367 386.341C393.047 387.782 393.767 389.463 393.767 391.625Z" fill="black"/>
<path d="M21.8533 400.752C19.9337 400.752 18.0142 400.752 15.6147 400.752C13.2153 400.752 10.8158 400.753 8.41638 400.993L8.17644 400.752V399.552L8.41638 399.312C9.13622 399.312 9.61611 399.071 10.096 399.071C11.0558 399.071 11.7756 398.831 12.0155 398.831C12.2555 398.831 12.4954 398.591 12.4954 398.111C12.7354 397.63 12.7354 395.229 12.7354 390.906V386.103C12.7354 384.662 12.7354 382.981 12.7354 380.819V379.378C12.7354 378.658 12.4954 378.418 12.2555 378.418C12.2555 378.418 11.7756 378.658 11.2957 378.898C9.61611 379.619 8.41638 380.339 7.21666 381.059H6.97672C6.97672 380.339 6.73677 379.619 6.49683 378.658V378.418C9.85605 377.457 13.4552 376.016 17.2943 374.575L17.7742 374.815C17.7742 375.536 17.7742 376.737 17.5343 378.178C17.5343 378.658 17.5343 380.099 17.5343 382.741V390.186C17.5343 395.469 17.5343 398.351 17.7742 398.831C18.0142 399.071 18.0142 399.312 18.2541 399.312C18.734 399.552 19.6938 399.552 21.6133 399.552L21.8533 399.792V400.752Z" fill="#1D1D1B"/>
<path d="M40.3264 392.344C40.3264 395.946 39.1266 398.588 36.7272 400.509C35.5275 401.47 34.0878 401.71 32.4082 401.71C30.0088 401.71 28.0892 400.749 26.8895 398.828C25.4498 396.907 24.73 394.265 24.73 390.903C24.73 387.541 25.2099 384.899 26.4096 382.737C27.6093 380.336 29.049 378.655 30.9685 377.214C32.8881 375.773 35.0476 375.052 37.687 375.052L39.1266 376.253L38.6468 376.974C38.1669 376.974 37.9269 376.974 37.447 376.974C35.5275 376.974 34.0878 377.694 32.6481 379.135C31.9283 379.855 31.4484 380.576 30.9685 381.537C30.2487 383.218 29.7688 385.379 29.5289 388.261C31.2085 386.58 32.1683 385.859 32.4082 385.619C33.128 385.379 34.0878 385.139 35.0476 385.139C36.4873 385.139 37.9269 385.859 38.8867 387.06C39.8465 388.261 40.3264 389.942 40.3264 392.344ZM36.0074 394.505C36.0074 392.584 35.7674 391.143 35.0476 389.942C34.3278 388.981 33.6079 388.501 32.4082 388.501C30.9685 388.501 30.0088 389.222 29.5289 390.422C29.2889 391.143 29.2889 391.863 29.2889 392.824C29.2889 395.706 29.7688 397.627 30.7286 398.588C31.2085 399.308 31.9283 399.548 32.8881 399.548C35.0476 399.789 36.0074 397.867 36.0074 394.505Z" fill="#1D1D1B"/>
<path d="M21.8533 400.752C19.9337 400.752 18.0142 400.752 15.6147 400.752C13.2153 400.752 10.8158 400.753 8.41638 400.993L8.17644 400.752V399.552L8.41638 399.312C9.13622 399.312 9.61611 399.071 10.096 399.071C11.0558 399.071 11.7756 398.831 12.0155 398.831C12.2555 398.831 12.4954 398.591 12.4954 398.111C12.7354 397.63 12.7354 395.229 12.7354 390.906V386.103C12.7354 384.662 12.7354 382.981 12.7354 380.819V379.378C12.7354 378.658 12.4954 378.418 12.2555 378.418C12.2555 378.418 11.7756 378.658 11.2957 378.898C9.61611 379.619 8.41638 380.339 7.21666 381.059H6.97672C6.97672 380.339 6.73677 379.619 6.49683 378.658V378.418C9.85605 377.457 13.4552 376.016 17.2943 374.575L17.7742 374.815C17.7742 375.536 17.7742 376.737 17.5343 378.178C17.5343 378.658 17.5343 380.099 17.5343 382.741V390.186C17.5343 395.469 17.5343 398.351 17.7742 398.831C18.0142 399.071 18.0142 399.312 18.2541 399.312C18.734 399.552 19.6938 399.552 21.6133 399.552L21.8533 399.792V400.752Z" fill="black"/>
<path d="M40.3264 392.344C40.3264 395.946 39.1266 398.588 36.7272 400.509C35.5275 401.47 34.0878 401.71 32.4082 401.71C30.0088 401.71 28.0892 400.749 26.8895 398.828C25.4498 396.907 24.73 394.265 24.73 390.903C24.73 387.541 25.2099 384.899 26.4096 382.737C27.6093 380.336 29.049 378.655 30.9685 377.214C32.8881 375.773 35.0476 375.052 37.687 375.052L39.1266 376.253L38.6468 376.974C38.1669 376.974 37.9269 376.974 37.447 376.974C35.5275 376.974 34.0878 377.694 32.6481 379.135C31.9283 379.855 31.4484 380.576 30.9685 381.537C30.2487 383.218 29.7688 385.379 29.5289 388.261C31.2085 386.58 32.1683 385.859 32.4082 385.619C33.128 385.379 34.0878 385.139 35.0476 385.139C36.4873 385.139 37.9269 385.859 38.8867 387.06C39.8465 388.261 40.3264 389.942 40.3264 392.344ZM36.0074 394.505C36.0074 392.584 35.7674 391.143 35.0476 389.942C34.3278 388.981 33.6079 388.501 32.4082 388.501C30.9685 388.501 30.0088 389.222 29.5289 390.422C29.2889 391.143 29.2889 391.863 29.2889 392.824C29.2889 395.706 29.7688 397.627 30.7286 398.588C31.2085 399.308 31.9283 399.548 32.8881 399.548C35.0476 399.789 36.0074 397.867 36.0074 394.505Z" fill="black"/>
<path d="M135.349 166.829V167.069C134.39 167.789 132.95 168.99 130.79 170.431C128.631 172.112 127.191 173.313 126.471 174.033H126.231L125.512 173.073V172.833C126.471 172.112 126.951 171.392 127.191 171.392C127.431 171.151 127.431 170.671 127.191 170.431C126.711 169.47 125.512 168.029 123.592 165.388L120.713 161.785C120.233 162.025 118.553 163.226 115.914 165.388C113.514 167.309 111.835 168.51 111.115 169.23L113.994 172.833C115.914 175.234 117.114 176.915 117.833 177.396C118.073 177.636 118.313 177.636 118.793 177.636C119.033 177.636 119.513 177.155 120.713 176.435H120.953L121.673 177.396V177.636C120.713 178.356 119.033 179.557 117.114 180.998C114.954 182.679 113.514 183.88 112.795 184.6H112.555L111.835 183.64V183.4C112.795 182.679 113.274 181.959 113.514 181.959C113.754 181.718 113.754 181.238 113.514 180.998C113.035 180.278 111.835 178.596 109.915 175.955L103.437 167.789C101.517 165.388 100.317 163.707 99.5977 163.226C99.3577 162.986 99.1178 162.986 98.6379 162.986C98.3979 162.986 97.918 163.466 96.7183 164.187H96.4784L95.7585 163.226V162.986C96.7183 162.266 98.158 161.065 100.317 159.624C102.477 157.943 103.917 156.742 104.636 156.021H104.876L105.596 156.982V157.222C104.636 157.943 104.157 158.663 103.917 158.663C103.677 158.903 103.677 159.384 103.917 159.624C104.397 160.344 105.596 162.025 107.516 164.667L109.435 167.309C110.395 166.588 111.835 165.388 113.754 163.947C116.634 161.785 118.313 160.344 119.033 159.624L117.114 156.982C115.194 154.581 113.994 152.899 113.274 152.419C113.035 152.179 112.795 152.179 112.315 152.179C112.075 152.179 111.595 152.659 110.395 153.38H110.155L109.435 152.419V152.179C110.395 151.458 111.835 150.258 113.994 148.817C116.154 147.136 117.593 145.935 118.313 145.214H118.553L119.273 146.175V146.415C118.313 147.376 117.833 147.856 117.593 147.856C117.354 148.096 117.354 148.577 117.593 148.817C118.073 149.537 119.273 151.218 121.193 153.62L127.671 161.785C129.591 164.187 130.79 165.868 131.51 166.348C131.75 166.588 131.99 166.588 132.47 166.588C132.71 166.588 133.19 166.108 134.39 165.388H134.63L135.349 166.829Z" fill="black"/>
<path d="M167.983 151.707C165.344 152.908 163.904 153.629 163.424 153.869C161.265 154.83 159.345 155.55 157.665 156.511H157.425L156.946 155.31V155.07L158.385 154.349C159.105 154.109 159.105 153.629 159.105 153.148C159.105 152.908 158.625 152.428 157.905 151.707L155.026 148.585C153.346 149.306 151.907 149.786 150.227 150.507C149.267 150.987 148.068 151.467 146.388 152.188L146.628 154.589C146.868 156.511 146.868 157.711 147.108 158.192C147.348 158.672 147.588 158.912 148.308 158.672C148.547 158.672 149.267 158.432 149.987 158.192H150.227L150.707 159.393V159.633C148.547 160.353 147.348 161.074 146.628 161.314C146.148 161.554 144.948 162.034 143.269 162.995H143.029L142.549 161.794V161.554C143.749 161.074 144.228 160.353 144.468 159.873C144.468 159.393 144.468 156.511 144.228 150.987L143.749 137.298C143.749 136.337 143.509 134.656 143.509 132.495L145.908 131.534L164.384 150.267C165.104 150.987 165.584 151.227 165.823 151.227C166.303 151.227 166.783 150.987 167.503 150.747L167.743 150.987L167.983 151.707ZM153.106 146.424L145.428 138.499L145.908 149.306C146.868 149.066 148.068 148.345 149.507 147.865C150.947 147.385 152.147 146.904 153.106 146.424Z" fill="black"/>
<path d="M195.097 140.897C195.097 142.818 195.337 144.979 195.577 147.381L195.337 147.621L182.14 149.302C179.981 149.542 178.301 149.782 177.342 150.023L177.102 149.782V149.302V149.062C177.821 148.342 178.301 147.861 178.301 147.621C178.301 147.381 178.301 146.42 178.301 144.979L177.821 140.656L176.622 130.81C176.142 127.688 175.902 125.767 175.662 124.806C175.662 124.326 175.422 124.326 174.942 124.085C174.702 124.085 173.982 124.085 172.783 124.085L172.543 123.845L172.303 122.644L172.543 122.404C173.742 122.404 175.662 122.164 178.061 121.924C180.461 121.684 182.38 121.204 183.82 120.963L184.06 121.204L184.3 122.644L184.06 122.885C182.86 123.125 182.14 123.365 181.901 123.365C181.661 123.605 181.421 123.845 181.421 124.085C181.421 125.046 181.661 126.967 181.901 130.089L183.34 141.617C183.58 143.298 183.82 144.979 184.06 146.42L186.459 146.18C190.059 145.7 192.218 145.219 192.938 144.979C193.178 144.979 193.178 144.739 193.178 144.739C193.178 144.499 193.418 144.019 193.418 143.538V141.137L193.658 140.897H195.097Z" fill="black"/>
<path d="M235.406 136.575C234.686 140.898 232.767 144.26 229.647 146.662C228.208 147.863 226.288 148.583 224.369 149.063C222.209 149.544 219.81 149.544 217.17 149.063L210.692 147.863C209.012 147.622 207.572 147.382 206.373 147.142L206.133 146.902V146.422L206.373 146.182C207.333 145.701 207.812 145.461 208.052 145.221C208.292 144.981 208.532 144.26 208.772 142.579L209.492 138.256L211.172 128.41C211.652 125.288 211.891 123.366 211.891 122.406C211.891 121.926 211.652 121.685 211.412 121.685C211.172 121.685 210.452 121.445 209.252 121.205L209.012 120.965L209.252 119.764L209.492 119.524C210.692 119.764 211.891 120.004 213.091 120.244C215.971 120.725 218.37 121.205 220.769 121.445C221.969 121.685 222.929 121.685 224.129 121.926C227.248 122.406 229.647 123.126 231.087 124.327C232.767 125.528 233.966 126.969 234.686 128.89C235.646 131.292 235.886 133.693 235.406 136.575ZM229.647 136.575C230.127 132.973 229.887 130.091 228.688 127.929C227.968 126.729 227.008 126.008 225.808 125.288C224.609 124.807 222.929 124.327 220.769 123.847C219.57 123.607 218.61 123.607 217.41 123.607C217.17 125.048 216.45 128.41 215.491 133.933L214.051 142.339C213.811 144.26 213.571 145.461 213.571 146.182C214.531 146.662 215.731 146.902 216.69 146.902C219.09 147.382 221.009 147.142 222.689 146.662C224.369 146.181 225.808 144.981 227.008 143.059C228.208 141.378 229.168 139.217 229.647 136.575Z" fill="black"/>
<path d="M262.04 157.711C261.08 159.392 259.881 161.313 258.921 163.475H258.681L246.684 157.711C244.764 156.75 243.325 156.03 242.365 155.79V155.55L242.605 155.069L242.845 154.829C244.044 154.589 244.524 154.589 244.764 154.349C245.004 154.109 245.484 153.388 245.964 152.187L247.883 148.345L252.202 139.459C253.642 136.577 254.362 134.896 254.602 133.935C254.602 133.455 254.602 133.215 254.362 132.975C254.122 132.735 253.642 132.494 252.442 131.774V131.534L252.922 130.333H253.162C254.362 131.053 256.042 131.774 258.201 132.975C260.361 133.935 264.2 135.857 270.198 138.498L270.438 138.739L269.239 140.66C268.999 141.38 268.519 141.861 268.279 142.101L267.319 143.782L267.079 144.022L266.119 143.061V142.821C266.839 141.14 267.319 140.179 267.079 139.939C267.079 139.699 266.599 139.219 265.399 138.739C264.44 138.018 263.48 137.538 262.76 137.298C261.8 136.817 260.84 136.337 259.881 136.097C259.161 137.298 258.201 138.979 257.241 141.14L255.562 144.743C256.521 145.223 257.001 145.463 257.721 145.943L259.881 146.904C260.84 147.384 261.56 147.624 261.8 147.384C262.04 147.144 262.52 146.424 263.24 145.223H263.48L264.44 145.703V145.943C263.72 147.144 263.24 148.345 262.76 149.546C262.28 150.746 261.56 151.947 261.08 153.388H260.84L259.641 152.908V152.668C260.361 151.227 260.601 150.506 260.601 150.026C260.601 149.786 260.121 149.306 259.161 148.825C258.441 148.345 257.721 148.105 257.001 147.624C256.282 147.144 255.322 146.904 254.602 146.664L251.963 151.947C251.243 153.388 250.523 155.069 249.803 156.51L251.963 157.471C255.082 158.912 257.241 159.872 258.201 159.872C258.441 159.872 258.441 159.872 258.441 159.872C258.681 159.872 258.921 159.392 259.161 158.912L260.601 156.991H260.84L261.8 157.471L262.04 157.711Z" fill="black"/>
<path d="M306.191 166.113H305.951C304.991 165.393 304.272 164.912 304.272 164.912C304.032 164.672 303.552 164.912 303.312 165.152C302.592 165.873 301.152 167.314 299.233 169.715L294.194 175.96C290.595 180.523 288.195 183.645 287.236 185.086H286.996C286.036 184.125 285.316 183.164 284.836 182.684C284.836 177.641 284.836 168.515 285.316 155.306L277.158 165.152C275.238 167.554 274.039 169.235 273.559 169.956C273.319 170.196 273.319 170.676 273.559 170.916C273.559 171.156 274.279 171.637 274.998 172.357V172.597L274.279 173.558H274.039C273.079 172.597 271.879 171.637 271.159 170.916C269.96 169.956 269 169.235 267.8 168.275V168.034L268.52 167.074H268.76C269.72 167.794 270.439 168.275 270.439 168.275C270.679 168.515 271.159 168.275 271.399 168.034C272.119 167.314 273.559 165.873 275.478 163.471L281.957 155.306C283.876 152.904 285.076 151.223 285.556 150.503C285.796 150.263 285.796 149.782 285.556 149.542C285.556 149.302 284.836 148.822 284.116 148.101V147.861L284.836 146.9H285.076C286.036 147.621 286.756 148.341 287.475 149.062C288.675 150.022 289.875 150.983 290.835 151.463C290.355 159.148 290.115 167.554 290.355 176.92L297.553 168.034C299.473 165.633 300.672 163.952 301.152 163.231C301.392 162.991 301.392 162.511 301.152 162.271C301.152 162.03 300.432 161.55 299.713 160.83V160.589L300.672 159.629H300.912C301.872 160.589 302.832 161.31 303.792 162.271C304.991 163.231 306.191 164.192 307.151 164.912V165.152L306.191 166.113Z" fill="black"/>
<path d="M286.753 581.351L279.795 576.068L272.836 571.985L267.318 568.863L262.759 566.942L258.44 566.702L255.32 566.461L253.641 567.662L254.361 572.225L248.842 574.627L241.883 573.666L236.365 570.064L227.487 565.741L213.33 558.536L209.731 559.497L207.331 558.776L203.972 560.698H199.653L160.062 579.19L151.904 575.587L150.465 573.186L146.146 572.705L140.627 574.627L131.509 578.229L122.151 582.072L117.592 584.954H117.352C141.347 608.009 169.66 621.458 200.133 621.458C232.286 621.458 262.039 606.568 286.753 581.351Z" fill="#53565A"/>
<path d="M301.392 304.447C294.194 302.526 286.036 302.526 280.037 297.483C274.039 282.353 267.56 267.463 258.922 253.534C254.603 249.691 256.043 243.687 250.524 240.325C247.645 236.963 242.606 237.443 238.767 238.404C230.849 240.325 234.208 250.652 230.369 255.935C227.489 256.175 225.81 253.053 223.41 252.093C222.451 250.171 223.65 248.25 225.33 246.809C223.41 233.36 227.489 220.392 223.41 207.903L230.129 200.939C236.607 195.415 230.129 187.73 230.129 181.246C228.689 176.923 224.13 176.443 219.811 176.923L216.212 173.561C209.254 170.439 207.334 180.525 200.136 176.923C198.216 175.962 196.297 173.801 193.897 175.002C191.258 179.084 186.219 175.962 183.82 180.525C173.742 181.966 181.9 191.813 176.861 196.376C177.341 201.899 174.222 205.742 175.421 211.506C173.982 213.907 172.062 212.947 169.903 212.947C167.983 213.187 165.584 214.868 166.783 217.27C166.544 218.951 164.624 218.47 163.424 219.191C162.225 221.112 162.704 223.994 163.424 225.915C163.664 226.636 164.384 227.356 165.344 227.116C166.544 228.317 167.263 229.758 166.783 231.439C168.703 235.762 173.982 235.282 178.061 236.722C181.9 236.722 182.14 230.478 185.979 231.439C186.699 235.282 188.858 238.644 188.618 242.726C191.738 259.778 172.542 259.057 164.864 269.384C157.666 254.254 151.667 238.644 145.428 223.274C144.469 222.073 143.269 221.112 141.829 220.632C140.39 223.274 141.829 226.155 141.829 229.037C148.068 243.927 153.826 258.817 158.625 274.187C156.706 276.829 154.546 279.471 153.826 282.593C150.227 289.557 155.026 297.002 151.187 303.967C156.226 307.569 147.588 311.892 151.667 316.215C151.187 317.896 151.667 319.817 150.467 321.018C150.707 331.585 144.229 339.27 146.148 350.317C150.227 355.121 158.146 352.479 162.465 357.282C165.104 358.243 168.463 357.042 170.383 359.444C169.663 364.247 169.423 369.77 168.463 374.093C167.503 376.975 165.584 380.818 167.743 383.7C168.223 384.66 168.943 385.621 168.223 386.341C167.023 389.463 167.023 394.267 169.663 396.908C166.064 403.873 167.743 413.239 166.783 421.404C166.544 441.578 176.381 457.909 174.942 478.082C175.901 480.964 179.261 482.885 176.381 485.767C173.262 504.259 177.821 523.952 175.182 542.204L170.863 552.771C164.624 557.815 157.906 562.137 152.867 567.901C150.227 568.862 148.308 573.185 145.188 570.783C136.55 573.905 128.392 578.949 119.754 582.071C120.234 582.551 119.754 583.512 119.994 583.512L121.194 582.311C123.114 582.071 125.513 582.311 125.753 584.472C127.193 585.433 128.392 585.673 129.592 584.472C129.592 584.232 129.832 583.752 129.352 583.512C128.632 582.311 128.632 580.149 130.312 579.909C132.471 580.63 133.191 582.551 133.191 584.472H134.151C134.391 582.791 131.992 580.39 133.191 578.708C134.631 577.508 136.55 578.949 136.79 580.63C137.27 579.669 136.311 579.189 136.071 578.468C136.551 577.267 137.75 575.346 139.43 576.547C141.589 577.748 141.349 580.149 142.309 581.83C143.029 582.071 143.509 581.35 144.229 581.11C146.148 583.752 147.348 577.508 149.747 580.87C148.548 579.429 148.548 576.547 146.148 576.787C144.709 575.586 145.428 573.665 146.868 572.704C146.628 575.346 149.747 574.145 149.987 576.067C153.587 577.267 156.706 579.669 160.545 579.669C173.982 574.145 187.899 568.862 200.136 560.937C201.096 562.378 200.136 565.26 199.176 567.181L202.055 563.338L203.495 564.059L203.735 561.897C204.455 560.456 206.134 559.015 207.334 559.736C208.774 562.618 205.894 565.26 206.374 567.901L208.534 566.46C207.334 565.5 208.054 563.578 207.814 562.137C208.054 559.736 210.693 559.976 212.613 559.976C221.491 565.98 232.048 567.661 240.446 575.106C244.765 575.346 250.044 576.547 254.123 573.665C254.363 571.984 256.283 570.063 254.843 568.382C254.843 567.421 256.043 567.421 256.763 566.941H256.523C253.403 554.933 234.928 557.094 238.047 542.444C239.247 528.275 247.405 516.988 248.125 502.578C246.445 493.452 246.685 484.566 246.925 474.96C248.125 472.078 247.885 469.436 247.405 466.314C247.885 465.113 247.405 462.712 249.564 463.432C255.083 438.216 258.922 413.479 256.043 386.101C253.883 382.979 250.044 379.617 251.724 375.774C260.122 383.219 265.401 399.55 280.037 395.948C284.836 393.066 286.036 388.022 287.236 383.459C288.915 364.247 287.476 345.034 285.796 325.821C289.395 319.097 295.634 313.573 302.832 310.931C303.072 308.05 304.512 305.408 301.392 304.447ZM217.172 528.035C217.412 536.921 216.452 545.086 213.093 552.531C212.853 554.212 212.373 556.133 211.173 557.334C210.933 556.133 211.653 553.252 209.254 553.252L198.936 556.133C196.777 551.33 198.696 545.567 198.696 540.523C200.616 524.192 206.614 509.783 207.094 492.972C201.096 485.767 210.213 479.283 207.814 470.877C207.814 467.995 202.535 464.873 207.334 462.952C206.374 457.668 209.254 453.346 209.254 448.302C209.494 438.936 211.413 429.81 213.333 421.164C216.452 438.216 219.811 457.428 215.972 475.2C215.732 479.763 219.811 483.846 216.692 488.409C208.054 499.936 216.932 514.586 217.172 528.035Z" fill="black"/>
<path d="M214.531 175.721C213.331 177.642 212.612 180.524 213.571 182.445C216.451 181.004 220.53 180.524 223.409 181.244C223.649 182.926 221.73 182.445 220.77 183.166C220.29 185.327 221.49 186.768 222.689 188.449C225.569 189.41 223.889 185.327 226.289 185.567C228.208 188.209 222.929 191.811 227.728 192.772H229.888C230.608 193.733 229.888 194.693 229.408 195.414C228.208 196.855 227.008 194.453 225.569 194.693C223.649 195.654 221.97 197.095 221.49 198.776C222.449 199.977 224.369 199.256 224.129 201.418C223.649 202.619 222.449 201.898 221.49 202.138C220.05 200.937 220.05 197.815 217.89 197.815C216.691 198.776 216.931 200.697 217.411 201.898C218.37 204.059 223.169 201.658 221.49 205.02C218.61 205.5 214.051 205.981 213.092 202.378C209.972 197.815 216.931 188.449 208.293 189.65C205.173 188.449 200.135 189.65 201.574 184.126C201.814 183.166 201.574 182.685 200.854 182.205C198.215 183.886 199.655 186.528 198.215 188.689C197.255 188.93 196.775 188.689 196.295 187.969C195.816 186.528 197.255 185.327 195.096 184.847C192.216 182.926 189.337 186.768 186.218 185.567C186.938 188.449 180.219 190.37 184.778 192.532C187.657 192.532 191.257 190.611 193.896 192.772C195.816 193.252 194.616 195.894 195.096 197.575C194.616 199.977 191.497 197.335 191.497 199.737C195.816 207.422 183.098 202.859 187.897 210.304C188.857 212.465 189.097 215.107 187.897 217.268C185.258 220.63 183.098 213.666 181.419 217.989C180.459 222.792 189.577 220.871 185.258 225.674C183.338 225.914 180.699 222.792 179.739 226.154C180.219 228.315 183.338 227.355 183.098 229.756C180.459 233.359 174.46 226.875 174.94 233.359C173.981 228.556 167.022 233.839 167.022 228.556C166.302 225.914 161.264 223.032 164.383 219.67C165.822 218.709 167.982 220.15 169.182 218.229V215.347C171.341 214.386 175.66 215.827 177.1 212.705C174.94 206.701 182.619 203.819 179.019 198.536C178.06 194.453 185.738 191.811 180.219 188.689C179.259 183.886 186.218 186.048 185.258 181.485C186.698 179.563 188.137 180.524 190.057 180.284C191.976 178.363 193.416 175 196.535 176.681C199.655 177.882 201.094 181.965 204.933 179.804C207.813 177.642 210.692 173.559 214.531 175.721Z" fill="#C6A55A"/>
<path d="M208.533 198.537C208.773 203.581 210.692 208.144 213.812 211.986C217.651 211.506 221.01 214.148 223.17 216.789V218.23C219.33 217.029 215.491 213.427 210.692 212.707C207.573 210.785 210.213 206.703 207.813 204.541C204.934 205.742 206.373 209.104 204.454 210.785L196.776 215.829C197.016 209.825 198.935 203.1 201.095 197.096C202.294 193.254 207.813 195.415 208.533 198.537Z" fill="#C6A55A"/>
<path d="M217.65 219.427C226.288 223.03 218.129 230.715 221.729 236.479C221.489 238.16 221.009 240.802 218.849 239.361C217.17 237.92 214.29 237.439 213.81 235.038C213.331 232.876 213.091 229.994 214.77 228.553C216.45 228.794 217.89 228.313 219.329 227.353L217.17 223.99C217.89 222.79 220.049 223.75 219.809 221.829C217.17 222.55 212.131 221.349 211.411 225.431L211.891 234.557C211.411 235.518 210.451 235.278 209.731 235.278C208.532 234.317 207.812 232.876 206.612 232.636C206.372 233.597 205.172 234.317 206.132 235.278L207.332 237.199C206.372 237.439 205.412 237.68 205.172 238.64C202.773 239.12 199.894 238.88 197.974 240.561C196.055 236.959 196.055 232.156 196.055 227.833C198.934 227.353 203.973 228.794 205.172 225.191C204.933 224.231 204.693 223.03 203.253 222.55C200.614 223.03 198.694 221.589 197.014 223.75C198.454 225.191 200.614 221.589 201.093 224.471C199.894 225.912 198.214 225.912 196.295 225.912C195.815 224.471 193.655 222.79 195.575 221.109C199.894 218.467 203.253 213.424 209.012 214.384C211.171 216.786 214.05 218.707 217.65 219.427Z" fill="#C6A55A"/>
<path d="M145.908 228.559C161.265 268.425 176.621 308.772 191.738 348.638C190.778 349.358 189.818 349.598 188.858 349.598C181.66 334.468 176.861 318.618 171.342 303.008L146.148 233.842C144.948 230.24 142.549 226.637 142.549 222.795C144.948 223.035 143.989 226.637 145.908 228.559Z" fill="#C6A55A"/>
<path d="M199.658 247.531C200.857 245.61 197.738 244.649 198.218 242.488C203.497 242.728 209.255 246.81 214.054 243.208C217.173 242.968 220.293 243.448 222.452 244.409C221.013 246.33 218.853 243.688 218.133 246.57C218.373 248.972 217.653 250.893 215.494 252.334C211.415 252.094 206.136 254.736 204.216 250.413C203.017 250.653 202.537 252.574 200.857 251.854C199.898 248.732 196.298 248.251 194.619 245.61L193.899 246.57L205.656 259.299C210.455 260.499 215.014 260.259 220.053 259.779C221.013 263.862 216.214 264.582 213.814 266.744C209.015 271.547 204.696 265.303 200.137 264.102C197.738 260.259 191.499 260.259 192.219 254.976L192.459 244.889H193.659C194.379 242.968 190.54 241.287 192.939 238.885C194.379 242.007 196.298 245.37 199.658 247.531Z" fill="#C6A55A"/>
<path d="M250.524 242.004C236.128 244.645 240.447 262.897 237.088 273.224C236.608 310.929 243.566 346.473 262.282 376.733L270.2 386.339C271.4 387.3 268.04 388.5 270.2 389.461C270.92 390.902 273.319 389.461 273.799 391.382C272.839 392.583 271.879 392.343 270.92 391.382C260.842 389.941 256.763 378.894 252.204 371.689C249.085 362.563 243.806 354.158 241.647 344.551C233.248 330.382 235.408 312.13 231.329 296.279C229.409 278.748 232.769 261.937 236.848 246.086C239.247 243.925 241.647 242.004 244.526 241.043C246.925 240.082 248.605 241.523 250.524 242.004Z" fill="#C6A55A"/>
<path d="M249.323 248.004V248.724H247.404C247.164 247.284 249.083 247.284 249.323 248.004Z" fill="#C6A55A"/>
<path d="M252.683 252.093C252.203 253.053 251.243 252.813 250.523 252.813C249.083 252.333 250.043 250.892 251.003 250.171L252.683 252.093Z" fill="#C6A55A"/>
<path d="M254.843 254.969C255.083 255.93 254.603 256.17 253.883 256.41C252.923 256.651 252.444 256.17 251.964 255.69C251.724 254.009 254.363 253.768 254.843 254.969Z" fill="#C6A55A"/>
<path d="M249.324 259.291C252.203 261.692 251.724 266.495 254.843 268.897C256.283 269.137 258.442 269.377 258.202 271.539C258.442 272.739 257.722 273.7 256.762 274.18C252.443 268.897 243.565 264.334 246.445 256.168C248.364 256.168 247.405 259.05 249.324 259.291Z" fill="#C6A55A"/>
<path d="M256.763 260.498C256.523 261.219 255.803 260.739 255.323 260.739C254.843 260.018 254.363 259.298 254.603 258.097C255.803 256.656 258.202 258.817 256.763 260.498Z" fill="#C6A55A"/>
<path d="M243.327 260.496C242.848 260.977 242.848 261.217 242.608 261.937H241.888V257.854C242.848 257.854 242.608 259.536 243.327 260.496Z" fill="#C6A55A"/>
<path d="M208.532 273.947C213.57 274.187 216.21 268.423 220.529 267.463C224.368 265.301 224.368 259.537 229.407 258.817C232.526 271.545 219.089 278.75 214.29 288.356C212.611 289.077 212.851 287.156 212.131 286.435C204.453 280.671 192.695 284.994 186.697 275.868C183.577 273.467 182.857 266.982 178.538 267.222C176.379 270.825 181.178 273.226 181.418 276.829C184.537 285.715 186.697 298.443 182.618 307.089C184.537 305.888 185.257 302.766 186.697 300.845C189.336 295.801 187.656 288.837 188.136 282.833C194.615 290.037 207.572 285.955 211.651 295.561C216.45 312.372 213.091 330.864 213.091 348.396L214.05 349.116C217.889 344.793 217.649 338.309 217.889 332.305C219.329 317.896 217.41 303.246 215.25 289.557C219.089 287.396 221.009 280.191 225.808 281.872C231.806 301.325 232.526 324.86 230.846 345.754C223.888 348.636 216.21 359.683 209.251 352.238C210.211 347.675 208.292 344.553 204.453 342.632C201.573 342.152 198.214 343.353 195.814 345.274C188.136 323.9 177.819 303.486 170.62 281.872C173.5 280.671 177.339 283.313 178.538 278.99C179.258 276.348 177.579 273.707 175.419 273.467C172.54 273.467 169.9 274.187 168.221 276.829C167.261 275.388 166.781 272.986 167.021 271.305C173.98 266.742 181.418 262.9 188.616 259.057C194.135 265.061 199.654 272.746 208.532 273.947Z" fill="#C6A55A"/>
<path d="M259.64 263.375C259.4 263.856 259.4 264.336 258.92 264.816C258.201 265.057 257.481 264.576 257.001 264.096C256.521 262.415 259.88 260.493 259.64 263.375Z" fill="#C6A55A"/>
<path d="M246.924 265.294C253.402 275.14 261.561 284.026 269.239 293.873V295.074C265.4 296.274 264.2 291.231 260.841 289.79C254.602 282.825 241.165 278.262 244.525 266.255C244.525 265.294 245.964 264.333 246.924 265.294Z" fill="#C6A55A"/>
<path d="M266.601 276.585C266.601 276.825 266.841 277.545 266.121 277.545H264.921L259.163 266.498C259.163 265.537 260.602 265.057 261.322 265.778L266.601 276.585Z" fill="#C6A55A"/>
<path d="M259.403 273.945H258.443V276.106H259.403V273.945Z" fill="#C6A55A"/>
<path d="M173.981 276.591C173.501 276.831 173.501 277.552 172.781 277.312C172.061 276.831 171.822 276.111 172.301 275.39C173.501 275.15 173.501 275.871 173.981 276.591Z" fill="#C6A55A"/>
<path d="M159.585 278.033C162.225 283.317 162.705 289.08 165.104 294.364C161.745 292.923 157.186 293.163 154.547 291.242C155.506 286.439 156.946 281.155 159.585 278.033Z" fill="#C6A55A"/>
<path d="M241.405 279.473C241.165 279.953 241.645 279.953 241.645 280.434C241.165 280.674 240.925 281.154 240.205 281.154V279.713L241.405 279.473Z" fill="#C6A55A"/>
<path d="M268.043 299.885C267.563 300.845 268.043 302.526 266.603 302.526C258.685 297.963 245.008 300.605 243.089 288.837C243.089 285.475 244.048 282.593 245.248 279.711C253.406 285.956 260.844 293.16 268.043 299.885Z" fill="#C6A55A"/>
<path d="M241.405 286.437C240.445 285.957 240.925 285.236 241.405 284.516V286.437Z" fill="#C6A55A"/>
<path d="M277.395 295.56C276.196 303.965 274.516 312.371 278.355 319.816C279.315 320.536 280.515 320.536 280.515 321.737V323.658C276.196 324.139 277.395 315.253 271.637 317.894C270.677 310.209 268.517 299.642 273.556 292.678C275.476 292.438 275.716 294.599 277.395 295.56Z" fill="#C6A55A"/>
<path d="M169.183 304.446C167.984 309.97 163.665 303.245 160.065 304.446C158.146 303.245 154.547 305.407 153.827 302.525C154.547 300.363 154.067 297.722 155.746 296.041C160.785 297.481 169.183 296.761 169.183 304.446Z" fill="#C6A55A"/>
<path d="M242.843 298.916C242.603 299.396 242.123 299.156 241.644 299.156C241.164 298.676 241.164 297.475 242.123 296.995C242.843 297.475 242.843 298.195 242.843 298.916Z" fill="#C6A55A"/>
<path d="M265.883 305.164C267.802 306.364 268.522 308.766 267.802 311.168C260.124 309.006 249.806 315.971 245.487 306.604C245.727 303.963 244.528 300.841 246.447 298.919C252.926 301.321 259.644 302.762 265.883 305.164Z" fill="#C6A55A"/>
<path d="M282.437 311.41C281.477 311.89 280.517 313.811 279.558 312.851C277.878 309.008 279.798 304.926 280.757 301.083C286.276 303.004 280.757 308.048 282.437 311.41Z" fill="#C6A55A"/>
<path d="M300.671 309.964C298.752 310.445 298.752 307.803 297.072 307.803C295.872 310.685 290.114 307.803 291.553 312.606L290.833 313.327C289.634 312.846 290.114 310.685 288.914 309.724C287.954 310.685 290.594 315.008 286.994 314.527C287.474 313.087 286.514 310.445 284.355 310.205L285.075 304.201L300.431 305.642V309.964H300.671Z" fill="#C6A55A"/>
<path d="M169.182 313.569C163.903 313.328 159.344 312.128 153.825 313.088C152.865 310.447 154.545 307.565 155.985 305.163C160.784 307.084 168.222 307.084 169.182 313.569Z" fill="#C6A55A"/>
<path d="M242.608 312.128H241.888C242.128 311.408 241.888 310.447 242.608 310.688V312.128Z" fill="#C6A55A"/>
<path d="M270.437 316.935C266.598 321.498 259.879 320.298 255.32 323.9C252.921 323.9 250.521 326.301 248.362 323.9C247.402 320.778 247.402 317.416 248.362 314.054C255.08 313.813 265.878 310.451 270.437 316.935Z" fill="#C6A55A"/>
<path d="M173.264 317.655C174.944 320.777 169.185 318.856 171.824 321.978C172.784 323.419 174.944 325.1 173.264 326.781C167.026 326.541 159.347 320.777 153.109 326.061H152.389C151.189 321.738 154.069 318.135 156.468 315.493C162.467 316.454 169.185 313.092 173.264 317.655Z" fill="#C6A55A"/>
<path d="M272.598 322.461C271.638 325.583 268.039 328.225 266.359 330.866C262.52 333.988 259.161 341.433 254.122 339.992C249.803 337.351 250.283 332.307 250.763 328.705C256.761 324.862 263.48 323.181 269.958 320.299C270.678 320.299 272.118 321.26 272.598 322.461Z" fill="#C6A55A"/>
<path d="M274.281 325.581C273.561 335.187 267.082 343.593 263.243 352.478C261.564 354.64 258.684 352.959 256.765 352.478C254.845 350.557 255.325 347.915 254.605 345.514C256.285 342.392 260.124 340.951 262.523 338.309L273.081 325.821H274.281V325.581Z" fill="#C6A55A"/>
<path d="M171.583 331.108C170.863 335.431 165.824 336.632 162.225 338.072C157.666 340.234 153.827 341.915 150.228 345.998C150.228 340.474 153.107 334.95 153.587 329.187C154.547 327.265 156.946 328.706 158.386 327.746C163.185 327.505 167.744 328.226 171.583 331.108Z" fill="#C6A55A"/>
<path d="M247.405 327.98C247.165 328.221 247.645 328.461 247.645 328.701L246.925 329.421C245.965 328.941 245.965 327.5 247.405 327.98Z" fill="#C6A55A"/>
<path d="M277.399 331.825C272.84 344.073 268.761 356.322 263.722 368.329C261.803 367.849 260.123 365.448 259.643 363.526C258.204 358.963 263.002 357.042 264.202 353.44C269.001 345.755 271.88 337.349 275.959 329.184C277.159 329.184 276.679 331.105 277.399 331.825Z" fill="#C6A55A"/>
<path d="M169.183 339.983C166.064 343.826 164.864 348.629 162.944 353.192C161.745 351.271 158.625 352.472 158.146 349.83C158.625 345.507 162.704 343.105 165.824 340.704C167.023 340.464 168.463 339.743 169.183 339.983Z" fill="#C6A55A"/>
<path d="M251.724 344.065C251.484 344.546 251.964 345.266 251.244 345.506C250.764 345.746 250.524 345.026 250.044 344.786C249.804 343.825 251.724 342.384 251.724 344.065Z" fill="#C6A55A"/>
<path d="M174.702 345.51L171.823 356.797C170.143 355.596 167.264 355.596 166.784 353.195C166.304 349.352 169.663 346.47 172.303 344.069C173.502 343.348 173.982 345.029 174.702 345.51Z" fill="#C6A55A"/>
<path d="M203.976 348.634C205.656 357.519 196.538 350.795 192.939 353.917C189.819 356.559 186.7 358.72 182.861 360.161C180.941 358.96 181.901 356.319 182.141 354.637C188.14 351.756 195.338 351.515 200.377 346.232C202.776 345.752 203.496 347.193 203.976 348.634Z" fill="#C6A55A"/>
<path d="M180.222 349.117C181.662 351.998 179.503 352.239 179.023 355.12C178.063 356.321 176.863 357.282 175.424 357.282C174.704 355.841 176.863 349.117 176.863 347.916C178.303 347.676 179.503 347.916 180.222 349.117Z" fill="#C6A55A"/>
<path d="M234.687 349.115C233.007 351.277 234.687 353.678 234.687 356.08C229.168 360.162 222.93 361.844 217.171 365.206C213.092 366.407 214.292 361.603 213.092 359.682V357.761C221.25 357.04 226.529 349.355 234.687 349.115Z" fill="#C6A55A"/>
<path d="M275.718 351.032C275.238 355.835 275.238 359.678 274.278 364.241C277.877 367.603 270.199 367.843 273.798 371.205C274.278 374.327 270.919 377.449 273.078 379.611L272.359 380.331C270.679 378.17 266.12 376.008 267.8 372.166C271.399 365.201 271.399 356.796 274.758 349.831L275.718 351.032Z" fill="#C6A55A"/>
<path d="M207.811 356.083C207.571 361.126 200.613 356.323 200.613 361.607C203.252 362.327 208.291 358.004 209.011 362.807C206.852 364.729 201.333 363.288 201.813 366.65C204.692 368.811 207.092 364.248 210.451 366.41V370.012C207.811 371.453 203.492 366.89 202.533 371.213C203.972 373.374 206.852 371.693 208.771 372.654C209.251 374.335 207.811 375.536 206.612 376.256C203.492 376.737 200.853 375.536 198.693 373.615C197.494 368.811 196.534 363.048 197.254 357.764C200.133 356.803 204.212 357.284 207.811 356.083Z" fill="#C6A55A"/>
<path d="M257.242 356.801C257.482 357.042 257.002 357.282 256.762 357.522H255.802V356.081C256.282 355.841 256.762 356.321 257.242 356.801Z" fill="#C6A55A"/>
<path d="M239.489 358.966C238.289 360.407 235.17 363.289 238.049 365.21L238.529 365.45C231.81 369.293 225.092 373.616 217.654 375.537C215.254 374.576 212.375 373.376 214.054 370.013C214.294 366.891 217.174 370.254 218.853 368.572C225.092 364.73 231.57 361.848 238.049 358.246C238.529 358.005 238.769 358.726 239.489 358.966Z" fill="#C6A55A"/>
<path d="M193.175 362.324C192.695 365.926 194.614 369.289 193.415 372.171C191.015 372.411 190.775 369.529 190.295 368.328C190.055 364.966 188.376 360.883 191.735 358.962C193.175 358.962 193.175 361.123 193.175 362.324Z" fill="#C6A55A"/>
<path d="M279.797 369.049C278.597 366.888 278.837 363.526 280.037 361.364C280.517 363.526 280.996 367.128 279.797 369.049Z" fill="#C6A55A"/>
<path d="M181.662 363.521C180.462 365.923 180.702 368.805 179.742 371.206C179.263 370.726 173.744 370.245 173.504 369.045C174.464 366.883 173.504 364.242 175.423 362.56C177.583 362.801 180.222 361.36 181.662 363.521Z" fill="#C6A55A"/>
<path d="M244.528 370.012C244.048 370.732 243.328 372.173 244.528 372.894C245.007 372.653 245.247 373.374 245.727 373.614C234.69 376.256 225.572 383.701 215.494 388.264C214.055 388.504 212.855 388.023 211.895 387.063V380.819C220.533 381.779 227.492 373.614 235.41 369.772C238.049 369.291 242.608 366.65 244.528 370.012Z" fill="#C6A55A"/>
<path d="M280.039 374.336C279.799 374.096 279.559 374.576 279.319 374.816C278.119 374.096 278.839 372.655 279.319 371.935H280.039V374.336Z" fill="#C6A55A"/>
<path d="M194.856 378.178C195.816 379.379 196.536 380.82 196.296 382.501L195.576 383.461C187.418 382.26 178.3 383.221 171.102 379.859C171.342 378.178 172.062 376.497 173.741 375.776C180.94 375.776 188.138 376.017 194.856 378.178Z" fill="#C6A55A"/>
<path d="M204.693 379.863C204.933 382.504 206.132 385.146 203.493 387.067C199.414 387.788 199.894 383.465 198.454 381.303C197.975 379.382 199.414 378.662 200.374 377.701C202.054 377.701 203.733 378.662 204.693 379.863Z" fill="#C6A55A"/>
<path d="M245.484 381.544C246.923 383.465 244.524 385.146 243.324 385.867C232.767 389.709 222.449 395.233 212.611 400.997C199.894 394.993 186.457 391.39 171.581 390.91C169.901 389.229 170.141 385.867 171.101 383.945C179.499 383.465 188.137 384.185 196.055 386.107C199.175 390.91 204.933 392.591 210.452 390.67C212.611 389.229 215.011 392.351 217.41 390.67C225.808 386.107 233.487 379.622 242.844 377.701L245.484 381.544Z" fill="#C6A55A"/>
<path d="M249.802 395.945C255.081 406.752 252.201 420.681 250.522 432.689L249.322 433.89C247.403 430.768 251.242 427.165 249.322 424.284L247.163 426.925C245.243 435.331 243.563 443.736 241.164 451.902C242.604 455.744 247.403 459.107 245.963 463.189C241.644 459.347 240.684 453.103 236.845 448.54L241.884 394.744C244.043 391.382 247.642 394.504 249.802 395.945Z" fill="#C6A55A"/>
<path d="M235.167 396.662C237.086 413.713 234.687 431.485 234.447 448.056C231.327 452.379 226.768 454.541 222.449 458.143C221.01 452.379 222.21 445.414 221.25 439.411C221.01 428.363 212.852 414.194 223.169 405.068C226.049 401.225 229.888 397.143 234.207 395.461L235.167 396.662Z" fill="#C6A55A"/>
<path d="M186.456 397.864C187.896 406.03 189.576 414.915 187.896 423.561C189.096 433.408 186.696 444.695 191.015 453.101L192.455 451.66C189.576 436.53 191.495 421.4 191.975 405.789C193.175 404.348 192.455 401.947 194.135 400.746C198.934 402.187 203.732 405.549 206.612 410.352C208.771 425.482 203.013 439.892 198.934 453.581L197.014 455.502C198.214 459.105 202.533 460.305 203.253 464.148C199.413 462.707 197.734 458.384 194.615 456.223C188.616 456.463 185.737 461.506 179.978 461.746C177.818 460.305 179.738 456.943 178.058 455.262C174.699 437.25 167.501 418.278 173.02 398.825C176.859 396.423 182.617 395.943 186.456 397.864Z" fill="#C6A55A"/>
<path d="M242.847 470.158C241.408 473.04 239.968 468.957 238.048 470.878C236.369 469.197 238.528 464.634 236.129 463.193H235.169C233.729 465.355 234.929 468.477 233.969 470.878C232.53 471.359 230.37 469.678 229.17 471.359C231.09 472.319 233.009 474.721 233.009 477.123C233.009 479.284 231.57 481.686 233.009 483.367C236.609 480.485 238.768 477.123 243.087 476.162C241.648 479.524 238.768 484.567 234.209 484.567C233.249 486.008 233.009 487.93 231.57 488.89C227.251 488.89 226.291 484.567 223.172 481.926C219.813 477.603 220.053 468.717 221.252 463.674C224.372 458.15 230.37 457.43 233.729 452.386C237.089 457.67 241.648 463.434 242.847 470.158Z" fill="#C6A55A"/>
<path d="M192.219 459.107C195.098 467.993 211.654 474.477 199.897 484.083C197.018 484.083 194.618 487.686 192.219 486.245C192.699 482.883 196.538 480.961 199.177 480.241C200.137 480.721 200.137 479.52 200.617 479.04C199.897 476.398 196.058 476.398 193.658 475.438C191.979 476.158 191.259 474.477 191.499 473.276C191.019 471.835 192.459 469.194 190.299 468.473C187.66 469.914 190.779 474.237 187.66 474.957C187.18 477.119 189.819 476.879 189.819 478.8C189.579 481.682 190.059 484.564 189.339 487.205C185.74 485.284 182.381 481.682 180.221 477.839C179.982 474.237 179.022 470.394 179.502 466.792C184.78 466.072 187.42 459.827 192.219 459.107Z" fill="#C6A55A"/>
<path d="M185.738 513.623C186.218 514.103 186.698 514.584 187.177 514.584C190.057 507.139 190.057 498.733 195.576 492.489C203.014 498.493 196.775 507.859 196.775 516.024C195.576 526.591 192.936 536.918 191.976 547.485C189.817 549.647 186.458 549.647 183.818 548.926C181.659 548.206 180.939 545.804 180.219 543.643C181.179 523.71 177.1 503.056 179.499 483.843C192.216 489.607 185.978 503.776 185.738 513.623Z" fill="#C6A55A"/>
<path d="M233.008 492.486C233.248 509.777 230.129 526.588 227.01 543.159C222.931 544.36 219.332 547.962 217.892 552.045C220.771 553.486 222.691 549.163 225.57 548.683C227.01 549.163 230.129 547.962 230.369 549.884C228.929 552.285 224.131 547.962 225.57 552.525C228.45 556.128 234.928 551.805 239.007 554.687C234.928 555.888 232.529 562.612 227.25 560.211L225.09 563.092C219.812 561.411 226.29 554.687 221.011 553.486C218.852 554.447 219.812 559.01 216.692 557.569C215.253 556.608 215.253 553.966 216.212 552.766C222.691 537.396 220.531 519.384 221.011 502.092C219.332 497.529 219.812 491.285 221.011 486.722C225.33 488.643 228.929 493.447 233.008 492.486Z" fill="#C6A55A"/>
<path d="M242.126 498.732C243.565 513.622 237.327 525.87 234.208 539.079L233.008 544.602C231.808 544.122 230.129 544.362 229.409 542.681C230.848 524.909 238.287 509.299 238.047 490.807C238.287 489.366 239.246 488.645 240.206 487.685C241.886 490.326 241.646 494.889 242.126 498.732Z" fill="#C6A55A"/>
<path d="M192.695 556.132C190.536 559.494 188.136 554.931 184.777 554.211C183.577 552.77 182.138 553.25 180.938 554.211C180.698 554.691 179.978 554.691 180.218 555.411C181.418 556.372 183.337 554.931 184.297 556.612C182.858 560.215 180.458 555.892 177.819 557.333C174.22 555.411 174.699 560.695 171.58 559.974C170.86 560.695 170.14 561.175 170.38 562.136C171.82 563.337 173.5 564.057 175.419 564.057C177.339 562.376 174.46 558.774 178.299 559.254C180.218 560.455 182.618 563.096 180.458 565.498C179.018 568.14 177.099 565.018 175.179 565.258C171.82 566.699 168.461 565.978 166.061 563.337C165.582 563.337 164.862 562.376 164.622 563.337C164.622 565.018 165.821 564.537 166.781 565.978C169.421 566.939 167.981 569.821 167.981 571.502C164.622 576.065 158.383 573.663 153.584 572.943C152.385 572.463 153.104 571.262 152.865 570.301C159.103 562.376 168.221 559.494 174.939 552.77C179.738 550.848 185.017 552.049 190.776 551.569C191.975 552.529 193.175 554.211 192.695 556.132Z" fill="#C6A55A"/>
<path d="M245.005 558.536C244.765 563.58 237.327 562.859 237.807 567.903C237.087 568.864 235.887 568.143 235.167 567.663C233.968 566.222 233.728 563.34 234.927 561.659C237.567 559.017 241.406 557.816 245.005 558.536Z" fill="#C6A55A"/>
<path d="M251.003 564.779C250.523 565.98 250.763 567.661 249.084 568.382C245.724 567.421 245.004 571.264 241.405 571.984C238.526 570.783 240.445 567.421 241.405 565.74C243.805 563.579 249.323 559.256 251.003 564.779Z" fill="#C6A55A"/>
<path d="M276.915 573.179C279.794 573.899 282.913 576.781 284.113 579.423C282.673 579.183 280.274 576.781 279.314 579.183C279.074 580.864 280.994 582.785 279.314 584.226C274.755 583.025 274.035 591.911 270.196 586.388C271.636 585.187 268.996 584.226 268.757 583.025C266.117 581.825 263.238 583.506 261.078 581.584C258.199 583.986 257.239 578.702 254.84 580.143C256.519 579.663 257.959 578.222 258.439 576.301C258.199 577.502 258.919 578.462 259.879 578.943C261.798 579.663 261.798 577.502 262.758 576.781C262.758 576.301 262.518 577.982 263.478 578.222C265.397 577.742 266.597 575.58 267.077 573.899C268.037 571.017 266.117 567.895 262.998 567.655C259.879 567.175 260.119 571.017 258.679 572.699L258.199 575.34C257.239 572.458 262.038 568.856 258.199 566.454V564.533C264.917 567.175 271.636 569.096 276.915 573.179Z" fill="black"/>
<path d="M203.015 569.34L203.255 566.458L203.735 568.86L203.015 569.34Z" fill="black"/>
<path d="M191.252 570.785C180.935 577.509 168.938 581.352 159.1 588.797C163.419 584.234 170.137 581.592 175.896 577.749C178.775 577.509 180.215 575.348 182.854 574.387C185.014 572.946 188.373 572.226 191.252 570.785Z" fill="black"/>
<path d="M199.173 571.262C189.095 577.266 178.298 581.109 169.9 589.274H168.7C177.338 579.908 188.375 576.305 199.173 571.262Z" fill="black"/>
<path d="M228.207 573.42C227.247 575.822 224.608 576.062 222.688 576.542C213.57 583.747 203.733 587.59 194.135 594.794C197.014 590.712 202.773 588.31 208.052 584.948C214.05 579.905 220.289 576.542 226.527 572.94C227.007 573.18 227.727 572.94 228.207 573.42Z" fill="black"/>
<path d="M272.117 575.583C270.677 577.744 272.597 581.827 268.518 581.107C268.518 578.945 268.038 575.343 270.437 573.422C272.117 573.181 271.157 575.103 272.117 575.583Z" fill="#53565A"/>
<path d="M199.655 576.304L202.534 573.902H203.254L199.655 576.304Z" fill="black"/>
<path d="M275.476 575.589C274.757 578.231 276.676 580.392 274.517 582.553C273.797 583.754 274.517 585.676 272.597 586.396C272.357 582.553 270.917 577.75 275.476 575.589Z" fill="#53565A"/>
<path d="M197.733 577.267C195.573 578.228 194.134 580.869 191.494 580.869C193.894 580.149 195.573 577.747 197.733 577.267Z" fill="black"/>
<path d="M209.973 577.267C204.694 581.83 197.735 584.952 192.697 589.275C187.418 593.118 182.379 597.921 176.86 601.523H176.14C181.179 596.96 185.738 593.118 191.017 589.275C197.255 584.712 203.254 580.87 209.973 577.267Z" fill="black"/>
<path d="M241.645 579.669C241.405 580.63 240.205 580.87 239.006 580.87C238.286 580.63 240.685 579.669 241.645 579.669Z" fill="black"/>
<path d="M226.768 580.873V580.393H227.728L226.768 580.873Z" fill="black"/>
<path d="M137.749 581.587L137.989 581.347L138.469 582.548H137.989L137.749 581.587Z" fill="black"/>
<path d="M189.097 582.314L189.337 581.594H190.056L189.097 582.314Z" fill="black"/>
<path d="M225.327 581.588C225.087 582.308 224.368 582.789 223.888 583.509H222.688C223.648 582.789 224.128 581.348 225.327 581.588Z" fill="black"/>
<path d="M251.244 581.591C251.004 583.512 253.403 582.792 254.123 583.512C252.443 583.993 251.724 582.552 250.044 582.071C250.284 581.351 250.764 581.591 251.244 581.591Z" fill="black"/>
<path d="M233.246 584.471L235.886 582.31H237.325L233.246 584.471Z" fill="black"/>
<path d="M186.456 583.992L186.696 583.272H187.416L186.456 583.992Z" fill="black"/>
<path d="M221.01 584.717L221.25 583.996H221.97L221.01 584.717Z" fill="black"/>
<path d="M244.285 584.708C245.484 585.669 247.164 587.35 249.083 587.59H251.723C251.243 590.472 255.322 590.232 257.242 591.673C260.121 591.433 262.04 593.594 264.44 594.555C258.201 594.315 252.203 593.834 245.484 591.673C249.083 592.633 252.203 593.114 255.322 592.393V591.193L240.925 585.429C242.605 586.389 242.845 584.228 244.285 584.708Z" fill="black"/>
<path d="M262.76 584.473H261.561V584.714H262.76V584.473Z" fill="black"/>
<path d="M219.088 585.674C217.169 586.635 215.729 587.836 213.569 588.796C213.809 588.796 217.169 586.395 219.088 585.674Z" fill="black"/>
<path d="M139.91 589.516C139.43 591.197 141.35 591.437 142.07 591.677C141.11 591.677 133.432 593.598 131.752 590.236C134.392 589.516 137.511 590.476 139.91 589.516Z" fill="black"/>
<path d="M153.827 592.157L157.186 589.516L156.466 591.197L153.827 592.157Z" fill="black"/>
<path d="M211.41 590.001C211.65 590.481 210.93 590.721 210.69 591.202H209.97C210.45 590.721 210.69 590.001 211.41 590.001Z" fill="black"/>
<path d="M260.839 598.4C261.079 599.841 259.159 600.081 258.199 601.042C255.08 600.801 250.761 600.801 247.882 598.4C244.282 598.16 240.923 597.439 237.564 596.239C235.165 596.959 233.005 595.038 231.086 594.077C232.045 593.837 233.485 594.557 233.965 593.117C233.965 591.916 232.525 591.195 231.326 590.955H229.166V589.754C239.484 593.357 250.761 595.038 260.839 598.4Z" fill="black"/>
<path d="M165.821 592.161H165.101L167.02 590.24C167.26 590.48 166.54 591.681 165.821 592.161Z" fill="black"/>
<path d="M242.602 591.197L240.683 590.717H242.122L242.602 591.197Z" fill="black"/>
<path d="M148.307 591.438H146.868C147.108 590.718 148.067 590.718 148.307 591.438Z" fill="black"/>
<path d="M163.18 595.764C165.819 597.205 168.219 598.886 170.138 595.283C171.338 596.004 166.059 596.964 168.219 599.366C162.7 601.287 157.181 601.527 149.983 602.008V601.527C154.302 601.287 158.381 600.087 162.7 600.567C162.7 599.126 164.86 599.846 164.14 597.925L163.18 597.205L143.984 599.126C149.023 596.004 155.742 597.445 161.5 596.484L161.26 596.244L164.14 592.642L164.38 592.882C164.38 592.882 162.7 594.563 163.18 595.764Z" fill="black"/>
<path d="M205.173 594.081H205.413L204.454 595.282L203.974 595.042L205.173 594.081Z" fill="black"/>
<path d="M201.572 596.962L203.491 595.521C202.531 595.521 202.771 597.442 201.572 596.962Z" fill="black"/>
<path d="M190.536 597.68L192.696 595.759L191.256 597.68H190.536Z" fill="black"/>
<path d="M186.695 601.042L188.614 598.4L188.374 599.841L186.695 601.042Z" fill="black"/>
<path d="M198.215 600.321L199.175 598.4H199.895L198.215 600.321Z" fill="black"/>
<path d="M222.69 601.524C220.05 602.965 217.411 599.362 214.532 598.882V598.162L222.69 601.524Z" fill="black"/>
<path d="M251.961 603.443C244.283 601.762 236.844 601.282 229.166 598.4C237.084 600.561 244.522 599.601 251.961 603.443Z" fill="black"/>
<path d="M233.725 609.689C231.806 611.13 230.126 607.768 228.207 609.929C228.927 610.409 228.927 611.13 228.927 611.85C224.368 615.933 221.968 609.929 217.169 613.772H216.449C217.889 613.291 219.089 612.09 220.528 611.61L218.609 609.689C211.89 610.169 205.892 615.693 199.893 615.933C196.774 611.61 191.735 616.413 187.416 614.492L181.178 614.012L181.897 611.37C181.418 610.65 180.218 611.13 179.258 610.89C180.698 610.409 183.337 610.649 184.057 608.248L182.857 607.527C185.976 605.846 191.255 608.008 193.175 604.165C192.695 605.366 193.895 606.086 194.614 606.327C198.933 608.248 201.333 604.886 203.972 602.724C210.691 606.327 218.609 608.248 226.527 610.409C227.007 609.929 226.767 609.209 226.767 608.488C223.168 605.606 218.129 606.327 214.29 603.685C211.171 603.925 209.491 600.563 205.892 601.043C207.332 596.72 210.451 601.283 212.85 601.764C219.329 604.886 226.047 607.527 233.246 608.728V609.689H233.725Z" fill="black"/>
<path d="M175.421 605.602C179.02 604.642 184.059 605.122 185.738 601.279C184.778 605.602 178.54 604.401 175.421 605.602Z" fill="black"/>
<path d="M244.283 606.086C236.845 606.326 230.846 604.405 224.128 602.003C230.366 603.444 237.805 604.885 244.283 606.086Z" fill="black"/>
<path d="M165.825 603.441L168.464 602.48H170.624L165.825 603.441Z" fill="black"/>
<path d="M155.744 604.884L156.463 604.644L157.423 604.884H155.744Z" fill="black"/>
<path d="M204.451 605.363C204.931 606.323 203.971 606.804 203.491 607.524C203.011 607.764 202.531 607.044 202.291 606.804C202.771 606.083 203.011 604.882 204.451 605.363Z" fill="#53565A"/>
<path d="M161.263 608.729L161.503 608.008H162.223L161.263 608.729Z" fill="black"/>
<path d="M200.137 623.618C158.146 623.618 118.795 599.122 89.2823 554.693C59.7691 510.263 43.4529 451.424 43.4529 388.743C43.4529 326.061 59.7691 266.982 89.2823 222.793C118.795 178.364 158.386 153.868 200.137 153.868C242.127 153.868 281.478 178.364 310.991 222.793C340.504 267.223 356.82 326.061 356.82 388.743C356.82 451.424 340.504 510.503 310.991 554.693C281.478 599.122 242.127 623.618 200.137 623.618ZM200.137 155.549C114.956 155.549 45.6124 260.018 45.6124 388.503C45.6124 516.988 114.956 621.457 200.137 621.457C285.317 621.457 354.661 516.988 354.661 388.503C354.661 260.018 285.317 155.549 200.137 155.549Z" fill="black"/>
<path d="M254.839 40.0414C257.478 40.0414 259.638 37.88 259.638 35.2382C259.638 32.5965 257.478 30.4351 254.839 30.4351C252.199 30.4351 250.04 32.5965 250.04 35.2382C250.04 37.88 252.199 40.0414 254.839 40.0414ZM254.839 32.3563C256.278 32.3563 257.718 33.5571 257.718 35.2382C257.718 36.6792 256.518 38.1201 254.839 38.1201C253.159 38.1201 251.959 36.9193 251.959 35.2382C251.959 33.5571 253.399 32.3563 254.839 32.3563Z" fill="black"/>
<path d="M146.386 40.5185C149.026 40.5185 151.185 38.357 151.185 35.7153C151.185 33.0735 149.026 30.9121 146.386 30.9121C143.747 30.9121 141.348 33.0735 141.348 35.7153C141.588 38.357 143.747 40.5185 146.386 40.5185ZM146.386 32.8334C147.826 32.8334 149.266 34.0342 149.266 35.7153C149.266 37.1562 148.066 38.5972 146.386 38.5972C144.947 38.5972 143.507 37.3964 143.507 35.7153C143.747 34.0342 144.947 32.8334 146.386 32.8334Z" fill="black"/>
<path d="M95.2776 50.5972C92.6382 50.5972 90.2388 52.7586 90.2388 55.6405C90.2388 56.8413 90.7187 58.2822 91.6784 59.0027C92.6382 59.9634 93.8379 60.4437 95.0377 60.4437C96.2374 60.4437 97.677 59.9634 98.3969 59.0027C99.3566 58.0421 99.8365 56.8413 99.8365 55.4003C99.8365 54.1995 99.3566 52.7586 98.3969 52.0381C97.917 51.0775 96.7173 50.5972 95.2776 50.5972ZM98.1569 55.4003C98.1569 56.1208 97.917 56.8413 97.4371 57.3216C96.9572 57.8019 96.2374 58.0421 95.5175 58.0421C94.7977 58.0421 94.0779 57.8019 93.598 57.3216C93.1181 56.8413 92.8782 56.1208 92.8782 55.4003C92.8782 53.9594 94.0779 52.5184 95.7575 52.5184C96.4773 52.5184 97.1972 52.7586 97.677 53.2389C97.677 53.9594 98.1569 54.6799 98.1569 55.4003Z" fill="black"/>
<path d="M200.852 32.1112C203.492 32.1112 205.651 29.9498 205.651 27.3081C205.651 24.6663 203.492 22.5049 200.852 22.5049C198.213 22.5049 196.053 24.6663 196.053 27.3081C195.813 29.7096 197.973 32.1112 200.852 32.1112ZM200.852 24.4262C202.292 24.4262 203.731 25.6269 203.731 27.3081C203.731 28.749 202.532 30.19 200.852 30.19C199.173 30.19 197.973 28.9892 197.973 27.3081C197.973 25.6269 199.173 24.4262 200.852 24.4262Z" fill="black"/>
<path d="M302.589 59.4884C303.309 59.9687 304.269 60.2089 304.989 60.2089C305.469 60.2089 305.949 60.2089 306.428 59.9687C307.628 59.7286 308.828 58.7679 309.308 57.5671C310.028 56.3664 310.028 55.1656 309.788 53.7246C309.548 52.5238 308.588 51.323 307.388 50.8427C306.189 50.1222 304.989 50.1222 303.549 50.3624C302.349 50.6025 301.15 51.5632 300.67 52.764C299.95 53.9648 299.95 55.1656 300.19 56.6065C300.67 57.8073 301.63 58.7679 302.589 59.4884ZM302.589 53.9648C302.829 53.2443 303.549 52.764 304.269 52.764C304.509 52.764 304.749 52.764 304.989 52.764C305.469 52.764 305.949 53.0041 306.428 53.2443C307.148 53.7246 307.628 54.2049 307.628 54.9254C307.868 55.6459 307.628 56.3664 307.388 57.0868C307.148 57.8073 306.428 58.2876 305.709 58.2876C304.989 58.5278 304.269 58.2876 303.549 58.0475C302.829 57.5672 302.349 57.0868 302.349 56.3664C302.109 55.1656 302.349 54.4451 302.589 53.9648Z" fill="black"/>
<path d="M210.693 101.999C215.252 101.999 219.091 98.1566 219.091 93.5935C219.091 89.0305 215.252 85.188 210.693 85.188C206.134 85.188 202.295 89.0305 202.295 93.5935C202.295 98.1566 205.894 101.999 210.693 101.999ZM210.693 87.3494C214.052 87.3494 216.932 90.2313 216.932 93.5935C216.932 96.9558 214.052 99.8377 210.693 99.8377C207.334 99.8377 204.455 96.9558 204.455 93.5935C204.455 90.2313 207.094 87.3494 210.693 87.3494Z" fill="black"/>
<path d="M230.128 104.163C234.686 104.163 238.526 100.32 238.526 95.7571C238.526 91.1941 234.686 87.3516 230.128 87.3516C225.569 87.3516 221.729 91.1941 221.729 95.7571C221.729 100.56 225.329 104.163 230.128 104.163ZM230.128 89.7531C233.487 89.7531 236.366 92.635 236.366 95.9973C236.366 99.3595 233.487 102.241 230.128 102.241C226.768 102.241 223.889 99.3595 223.889 95.9973C223.889 92.3949 226.528 89.7531 230.128 89.7531Z" fill="black"/>
<path d="M247.641 108.959C252.2 108.959 256.039 105.116 256.039 100.553C256.039 95.99 252.2 92.1475 247.641 92.1475C243.082 92.1475 239.243 95.99 239.243 100.553C239.483 105.356 243.082 108.959 247.641 108.959ZM247.641 94.549C251 94.549 253.88 97.4309 253.88 100.793C253.88 104.155 251 107.037 247.641 107.037C244.282 107.037 241.402 104.155 241.402 100.793C241.402 97.1908 244.282 94.549 247.641 94.549Z" fill="black"/>
<path d="M265.397 115.926C269.956 115.926 273.795 112.083 273.795 107.52C273.795 102.957 269.956 99.1147 265.397 99.1147C260.838 99.1147 256.999 102.957 256.999 107.52C256.999 112.323 260.838 115.926 265.397 115.926ZM265.397 101.516C268.756 101.516 271.636 104.398 271.636 107.76C271.636 111.123 268.756 114.005 265.397 114.005C262.038 114.005 259.159 111.123 259.159 107.76C259.159 104.158 262.038 101.516 265.397 101.516Z" fill="black"/>
<path d="M280.513 124.333C285.072 124.333 288.911 120.491 288.911 115.928C288.911 111.365 285.072 107.522 280.513 107.522C275.954 107.522 272.115 111.365 272.115 115.928C272.115 120.491 275.954 124.333 280.513 124.333ZM280.513 109.683C283.872 109.683 286.751 112.565 286.751 115.928C286.751 119.29 283.872 122.172 280.513 122.172C277.153 122.172 274.274 119.29 274.274 115.928C274.274 112.565 277.153 109.683 280.513 109.683Z" fill="black"/>
<path d="M189.815 85.188C185.256 85.188 181.417 89.0305 181.417 93.5935C181.417 98.1566 185.256 101.999 189.815 101.999C194.374 101.999 198.213 98.1566 198.213 93.5935C198.213 88.7904 194.374 85.188 189.815 85.188ZM189.815 99.5975C186.456 99.5975 183.577 96.7156 183.577 93.3534C183.577 89.9912 186.456 87.1093 189.815 87.1093C193.174 87.1093 196.054 89.9912 196.054 93.3534C196.054 96.7156 193.174 99.5975 189.815 99.5975Z" fill="black"/>
<path d="M170.381 87.8286C165.822 87.8286 161.983 91.6712 161.983 96.2342C161.983 100.797 165.822 104.64 170.381 104.64C174.94 104.64 178.779 100.797 178.779 96.2342C178.779 91.431 174.94 87.8286 170.381 87.8286ZM170.381 102.238C167.022 102.238 164.142 99.3562 164.142 95.994C164.142 92.6318 167.022 89.7499 170.381 89.7499C173.74 89.7499 176.62 92.6318 176.62 95.994C176.62 99.5964 173.98 102.238 170.381 102.238Z" fill="black"/>
<path d="M152.864 92.6245C148.305 92.6245 144.466 96.467 144.466 101.03C144.466 105.593 148.305 109.436 152.864 109.436C157.423 109.436 161.262 105.593 161.262 101.03C161.022 96.2269 157.423 92.6245 152.864 92.6245ZM152.864 107.034C149.504 107.034 146.625 104.152 146.625 100.79C146.625 97.4277 149.504 94.5458 152.864 94.5458C156.223 94.5458 159.102 97.4277 159.102 100.79C158.862 104.392 156.223 107.034 152.864 107.034Z" fill="black"/>
<path d="M135.346 99.8306C130.787 99.8306 126.948 103.673 126.948 108.236C126.948 112.799 130.787 116.642 135.346 116.642C139.905 116.642 143.744 112.799 143.744 108.236C143.504 103.433 139.905 99.8306 135.346 99.8306ZM135.346 114.24C131.987 114.24 129.108 111.358 129.108 107.996C129.108 104.634 131.987 101.752 135.346 101.752C138.705 101.752 141.585 104.634 141.585 107.996C141.585 111.598 138.705 114.24 135.346 114.24Z" fill="black"/>
<path d="M119.749 108.238C115.19 108.238 111.351 112.08 111.351 116.643C111.351 121.206 115.19 125.049 119.749 125.049C124.308 125.049 128.147 121.206 128.147 116.643C127.907 112.08 124.308 108.238 119.749 108.238ZM119.749 122.887C116.39 122.887 113.511 120.006 113.511 116.643C113.511 113.281 116.39 110.399 119.749 110.399C123.108 110.399 125.988 113.281 125.988 116.643C125.988 120.006 123.108 122.887 119.749 122.887Z" fill="black"/>
<path d="M341.952 194.214C325.396 171.159 306.44 152.667 285.805 139.218L300.202 108.237L301.401 105.595C300.202 104.875 299.242 103.914 298.042 103.194C301.402 96.2292 316.758 63.0873 320.117 55.8826L326.596 59.4849L335.954 42.6738L327.076 37.6305L322.997 45.0754L317.718 42.1935L321.797 34.7486L312.919 29.7053L308.84 37.1502L303.561 34.2683L307.64 26.8234L298.762 21.78L289.404 38.5911L296.363 42.4337C295.883 43.1542 295.163 44.1148 294.203 45.5557L288.205 43.3943L286.285 48.4377L282.926 47.2369L284.845 42.1935L277.407 39.5518L275.487 44.5951L272.128 43.3943L274.048 38.351L269.009 36.4297C269.489 34.5084 269.729 32.8273 269.969 31.8667L277.167 34.0281L282.446 15.5359L272.608 12.654L270.209 20.8194L264.45 19.1383L266.849 10.9729L257.012 8.09099L254.612 16.2564L248.854 14.5753L251.253 6.40988L241.415 3.52798L236.137 22.0202L243.815 24.1816C243.575 25.1423 242.855 26.5832 242.375 28.2643L236.616 27.3037L235.897 32.5872L232.058 31.8667L232.777 26.5832L224.619 25.3824L223.899 30.6659L220.06 29.9454L220.78 24.6619L214.542 23.7013C214.542 22.2604 214.302 20.8194 214.302 20.0989H221.98V0.88623H211.662V9.53194H205.664V0.88623H195.346V9.53194H189.347V0.88623H179.03V20.0989H186.948C186.948 21.0596 186.708 22.2604 186.708 23.7013L180.469 24.6619L181.189 29.9454L177.35 30.6659L176.63 25.3824L168.712 26.5832L169.432 31.8667L165.593 32.5872L164.873 27.3037L158.874 28.2643C158.155 26.3431 157.675 24.9021 157.435 23.9415L164.873 22.0202L160.314 3.28782L150.236 5.6894L152.396 14.095L146.637 15.5359L144.478 7.13036L134.4 9.53194L136.56 17.9375L130.801 19.3784L128.641 10.9729L118.564 13.3745L123.123 32.1069L130.801 30.1856C131.041 31.1462 131.281 33.0675 131.761 35.4691L126.002 37.6305L127.922 42.6738L124.322 43.8746L122.163 39.3116L114.485 42.1935L116.404 47.2369L112.805 48.4377L110.886 43.3943L104.887 45.5557C103.927 44.355 103.447 43.1542 102.967 42.4337L109.446 38.8313L100.088 22.0202L91.2101 27.0635L95.2891 34.5084L90.2503 37.3904L86.1712 29.9454L77.0533 34.9888L81.1324 42.4337L75.8536 45.3156L71.7746 38.1108L62.8966 43.1542L72.2545 59.9653L79.2128 56.1227C82.5721 63.3275 98.1685 96.9497 101.768 104.395C100.808 105.115 99.8481 105.836 98.8883 106.556L99.1282 107.036L114.485 139.698C94.0894 153.147 75.3737 171.399 59.0575 194.214C21.3862 246.569 0.750977 316.215 0.750977 390.424C0.750977 464.393 21.3862 534.279 59.0575 586.633C96.7288 639.228 147.117 668.047 200.625 668.047C254.132 668.047 304.281 639.228 342.192 586.633C379.863 534.279 400.499 464.633 400.499 390.424C400.259 316.215 379.623 246.569 341.952 194.214ZM292.284 37.6305L299.722 24.6619L305.001 27.5438L300.922 34.9888L309.8 40.0321L313.879 32.5872L319.157 35.4691L315.078 42.914L323.956 47.9573L328.035 40.5124L333.314 43.3943L326.116 56.603L292.284 37.6305ZM298.282 43.3943L318.438 54.6818C311.479 69.5716 299.482 95.5087 296.363 101.993C294.443 100.792 292.524 99.5914 290.604 98.3906L296.123 83.0205C297.082 80.1386 297.802 76.2961 297.322 74.3748C297.082 73.174 296.363 72.2134 295.403 71.733C294.443 71.2527 293.243 71.0126 292.284 71.4929C290.604 72.2134 287.485 74.6149 285.565 77.0165L275.248 89.7449C273.328 88.7843 271.168 87.8237 269.249 86.863C273.088 81.0992 289.164 57.0834 298.282 43.3943ZM288.924 96.9497C285.085 94.7883 281.246 92.6268 277.407 90.7056L287.485 78.2173C289.404 75.8157 292.044 73.8945 293.243 73.4142C293.723 73.174 294.203 73.174 294.683 73.4142C295.163 73.6543 295.403 74.1346 295.403 74.6149C295.643 76.0559 295.163 79.178 294.203 82.0599L288.924 96.9497ZM271.648 61.1661C270.929 63.0873 269.969 65.2488 269.009 67.4102L263.01 65.0086C263.49 62.8472 263.97 60.4456 264.45 58.2842L271.648 61.1661ZM264.93 55.8826C265.41 53.7211 265.89 51.5597 266.37 49.3983L269.489 50.8392C269.009 53.0007 268.529 55.1621 268.049 57.3235L264.93 55.8826ZM272.848 71.4929L275.967 72.6937C275.008 74.3748 273.808 75.8157 272.848 77.2567L269.729 76.0559C270.929 74.6149 271.888 73.174 272.848 71.4929ZM268.049 75.0953L266.13 74.3748L266.61 72.6937C266.849 71.4929 267.089 70.2921 267.569 69.0913L271.168 70.7724C269.969 72.2134 269.009 73.6543 268.049 75.0953ZM270.929 68.1307C271.888 65.9692 272.848 63.8078 273.568 61.8865L281.006 65.0086C279.806 66.9299 278.367 68.8511 277.167 70.7724L270.929 68.1307ZM279.087 62.1267C279.806 60.9259 280.526 59.7251 281.246 58.5243L282.686 56.3629L286.045 57.8038C284.845 59.7251 283.646 61.4062 282.446 63.3275L279.087 62.1267ZM279.567 57.3235C278.847 58.5243 277.887 59.7251 277.167 61.1661L269.969 58.044C270.449 55.8826 270.929 53.7211 271.408 51.5597L280.766 55.6424L279.567 57.3235ZM265.41 68.1307C265.17 69.5716 264.69 70.7724 264.45 72.2134L264.21 73.4142L261.811 72.4535C262.051 70.7724 262.53 69.0913 263.01 67.17L265.41 68.1307ZM265.17 76.2961C263.73 79.6583 262.53 82.3 261.811 83.9811C260.851 83.741 260.131 83.2606 259.171 83.0205C259.411 81.3394 260.131 78.4575 260.851 74.6149L265.17 76.2961ZM267.089 77.0165L271.888 78.9378C269.729 82.0599 268.289 84.4614 267.329 85.9024C266.13 85.4221 265.17 84.9418 263.97 84.4614C264.69 83.0205 265.89 80.3787 267.089 77.0165ZM271.168 39.3116L269.249 44.355L276.687 46.9967L278.607 41.9534L281.966 43.1542L280.046 48.1975L287.485 50.8392L289.404 45.7959L292.763 46.9967C291.084 49.3983 289.164 52.5203 286.765 55.8826L266.13 47.2369C266.849 43.8746 267.329 40.7526 268.049 38.351L271.168 39.3116ZM238.536 20.3391L242.615 5.92956L248.374 7.61067L245.974 15.7761L255.812 18.658L258.211 10.4926L263.97 12.1737L261.571 20.3391L271.408 23.221L273.808 15.0556L279.567 16.7367L275.487 31.1462L238.536 20.3391ZM245.734 24.6619L268.049 30.9061C264.69 47.2369 258.931 75.5756 257.492 82.0599C255.332 81.3394 253.173 80.6189 251.013 79.8984L252.693 63.3275C252.933 60.2054 252.693 56.3629 251.973 54.6818C251.493 53.7211 250.533 53.0007 249.573 52.5203C248.614 52.2802 247.414 52.5203 246.454 53.0007C244.775 53.9613 242.615 57.0834 241.175 59.9653L233.737 75.5756C231.578 75.0953 229.418 74.8551 227.259 74.3748C227.739 72.9338 228.938 69.5716 230.618 65.0086V64.5283C234.937 53.7211 241.415 35.9494 245.734 24.6619ZM250.773 63.3275L249.094 79.6583C244.775 78.4575 240.456 77.2567 236.137 76.2961L243.335 61.1661C244.535 58.5243 246.694 55.8826 247.894 55.1621C248.374 54.9219 248.854 54.6818 249.334 54.9219C249.813 55.1621 250.053 55.4022 250.293 55.8826C250.533 56.8432 251.013 60.2054 250.773 63.3275ZM222.22 64.048C221.74 67.8905 221.26 71.733 221.02 73.6543C220.06 73.6543 219.34 73.4142 218.381 73.4142C218.381 71.733 218.141 67.8905 217.661 63.5676L222.22 64.048ZM217.421 61.1661C217.181 59.4849 217.181 57.5637 216.941 55.6424L220.06 56.1227C220.06 58.044 220.3 59.7251 220.3 61.6464L217.421 61.1661ZM216.701 53.7211C216.461 51.5597 216.461 49.1581 216.221 46.7565L224.379 47.9573L223.42 54.6818L216.701 53.7211ZM216.221 44.5951C215.981 42.4337 215.981 40.0321 215.741 37.8707L219.58 38.351C219.58 40.5124 219.82 42.6738 219.82 45.0754L216.221 44.5951ZM234.217 49.1581C233.497 51.3196 232.537 53.481 231.818 55.6424L225.579 54.6818L226.539 47.9573L234.217 49.1581ZM231.818 46.7565L232.777 43.8746C233.257 42.6738 233.497 41.473 233.977 40.2723L237.576 40.7526C236.856 42.914 236.137 44.8353 235.177 46.9967L231.818 46.7565ZM231.098 57.8038C230.378 59.4849 229.898 61.4062 229.178 62.8472L226.539 62.3669L228.218 57.0834L231.098 57.8038ZM230.618 43.1542L229.658 46.2762L221.98 45.3156C221.98 42.914 221.74 40.7526 221.74 38.5911L231.818 40.0321C231.338 40.9927 231.098 42.1935 230.618 43.1542ZM226.299 57.0834L224.619 62.3669L222.46 62.1267V61.8865C222.46 60.2054 222.22 58.5243 222.22 56.603L226.299 57.0834ZM224.379 64.2881L228.698 64.7684C227.259 68.8511 225.819 72.4535 225.339 74.1346C224.619 74.1346 223.899 73.8945 223.18 73.8945C223.18 72.2134 223.659 68.1307 224.379 64.2881ZM218.381 26.5832L217.661 31.8667L225.579 33.0675L226.299 27.784L230.138 28.5045L229.418 33.788L237.336 34.9888L238.056 29.7053L241.175 30.1856C240.216 32.5872 239.256 35.7092 238.056 38.8313L215.261 35.7092C215.021 32.1069 214.782 28.7446 214.542 25.8627L218.381 26.5832ZM180.949 17.9375V3.04766H186.948V11.6934H197.266V3.04766H203.264V11.6934H213.582V3.04766H219.58V17.9375H180.949ZM189.107 20.0989H212.142C213.342 37.1502 215.741 67.8905 215.981 73.174C213.822 72.9338 211.662 72.9338 209.503 72.6937L206.383 55.4023C205.904 52.2802 204.464 48.918 203.264 47.2369C202.544 46.2762 201.585 45.7959 200.385 45.7959C199.425 45.7959 198.225 46.2762 197.506 47.2369C196.306 48.6778 194.866 52.2802 194.386 55.4023L191.507 72.6937C189.347 72.6937 187.188 72.9338 185.028 73.174C185.508 66.2094 187.668 36.6699 189.107 20.0989ZM207.343 72.4535C204.944 72.4535 202.544 72.2134 200.385 72.2134C198.225 72.2134 196.066 72.2134 193.906 72.4535L196.786 55.6424C197.266 52.7605 198.465 49.6384 199.425 48.6778C199.665 48.1975 200.145 47.9573 200.625 47.9573C201.105 47.9573 201.585 48.1975 201.825 48.6778C202.784 49.6384 203.984 52.7605 204.464 55.6424L207.343 72.4535ZM180.709 61.8865C180.709 60.2054 180.949 58.2842 180.949 56.3629L184.069 55.8826C183.829 57.8038 183.829 59.7251 183.589 61.4062L180.709 61.8865ZM183.589 63.8078C183.349 68.1307 183.109 71.733 182.869 73.4142C181.909 73.4142 180.949 73.6543 179.99 73.6543C179.75 71.9732 179.27 68.3708 178.79 64.2881L183.589 63.8078ZM177.83 54.9219L177.11 48.1975L185.028 47.2369C184.548 49.3983 184.549 51.7999 184.309 53.9613L177.83 54.9219ZM174.951 48.4377L175.671 55.1621L168.952 55.8826C168.232 53.7211 167.272 51.5597 166.553 49.3983L174.951 48.4377ZM165.593 47.2369C164.873 45.0754 163.913 42.914 163.193 40.9927L167.512 40.5124C167.992 41.7132 168.232 43.1542 168.712 44.355L169.432 46.9967L165.593 47.2369ZM169.912 40.2723L179.99 39.0715L179.75 45.7959L172.071 46.7565L171.112 43.8746C170.392 42.4337 170.152 41.2329 169.912 40.2723ZM172.791 57.5637L174.471 62.8472L171.591 63.0873C170.872 61.4062 170.392 59.7251 169.672 58.044L172.791 57.5637ZM176.87 64.5283C177.35 68.611 177.83 72.4535 178.07 73.8945C177.35 73.8945 176.63 74.1346 175.671 74.1346C174.711 71.733 173.511 68.1307 172.311 65.0086L176.87 64.5283ZM176.63 62.607L174.951 57.3235L178.79 56.8432C178.79 58.7645 178.55 60.4456 178.55 62.3669L176.63 62.607ZM181.669 45.3156L181.909 38.5911L185.508 38.1108C185.268 40.2723 185.268 42.4337 185.028 44.8353L181.669 45.3156ZM162.953 29.7053L163.673 34.9888L171.591 33.788L170.872 28.5045L174.711 27.784L175.431 33.0675L183.349 31.8667L182.629 26.5832L186.228 25.8627C185.988 28.7446 185.748 32.347 185.508 35.9494L162.474 38.8313C161.274 35.7092 160.314 32.5872 159.354 30.1856L162.953 29.7053ZM173.511 74.6149C170.872 75.0953 168.232 75.5756 165.593 76.0559L158.395 59.9653C157.195 57.0834 155.035 53.9613 153.356 53.0007C152.396 52.2802 151.196 52.04 150.236 52.2802C149.277 52.5203 148.317 53.2408 147.837 54.2015C146.877 55.8826 146.397 59.7251 146.637 62.8472L147.837 80.6189C145.677 81.3394 143.278 82.0599 141.119 83.0205C134.88 43.6345 132.96 32.8273 132.481 29.9454L155.035 24.4218C156.475 28.0242 160.794 39.7919 173.511 74.6149ZM163.433 76.5362C159.114 77.4969 154.555 78.6976 150.236 80.1386L149.037 62.8472C148.797 59.9653 149.277 56.603 149.996 55.4023C150.236 54.9219 150.476 54.6818 150.956 54.4416C151.436 54.4416 151.916 54.4416 152.156 54.6818C153.356 55.4022 155.275 58.044 156.475 60.9259L163.433 76.5362ZM135.12 57.8038C135.6 60.2054 135.84 62.3669 136.32 64.7684L130.081 67.4102L127.442 61.1661L135.12 57.8038ZM129.601 50.5991L133.68 48.918C133.92 51.0794 134.4 53.2408 134.88 55.6424L131.281 57.0834C130.801 55.4022 130.561 53.481 130.081 52.04L129.601 50.5991ZM136.56 66.6897C136.8 68.611 137.039 70.2921 137.519 72.2134L134.88 73.4142L133.68 68.1307L136.56 66.6897ZM132.72 74.1346L130.801 74.8551C129.841 73.4142 128.881 71.9732 127.922 70.2921L131.521 68.8511L132.72 74.1346ZM121.923 60.9259L118.324 55.4023L127.682 51.5597L127.922 52.5203C128.401 54.2015 128.641 56.1227 129.121 58.044L121.923 60.9259ZM120.003 61.6464L116.884 62.8472C115.684 60.9259 114.485 59.0046 113.285 57.3235L116.644 55.8826L120.003 61.6464ZM125.282 61.8865L127.922 68.1307L121.683 70.7724C120.483 68.8511 119.044 66.9299 117.844 65.0086L125.282 61.8865ZM126.002 71.2527C126.962 72.9338 127.922 74.3748 128.881 75.8157L126.002 77.0165C125.042 75.5756 124.082 74.1346 122.883 72.4535L126.002 71.2527ZM131.761 77.0165L135.36 85.6622C134.4 86.1426 133.44 86.3827 132.72 86.863C132.001 85.6622 130.081 82.7803 127.442 78.9378L131.761 77.0165ZM133.68 76.0559L137.999 74.3748C138.479 77.9772 139.199 81.3394 139.439 83.741C138.719 83.9811 137.999 84.2213 137.279 84.7016L133.68 76.0559ZM124.562 29.7053L120.963 15.0556L126.722 13.6146L128.881 22.0202L138.959 19.6186L136.8 11.2131L142.558 9.7721L144.718 18.1777L154.795 15.7761L152.636 7.37051L158.395 5.92956L161.994 20.5792L124.562 29.7053ZM109.926 46.0361L111.845 51.0794L119.524 48.1975L117.364 43.3943L120.963 42.1935L122.883 47.2369L130.561 44.355L128.641 39.3116L132.001 38.1108C132.481 40.7526 132.96 43.6345 133.44 46.9967L111.845 55.8826C109.686 52.7605 107.766 49.8786 106.327 47.477L109.926 46.0361ZM72.9743 56.8432L65.536 43.8746L70.8148 40.9927L74.8938 48.4377L83.7718 43.3943L79.6927 35.9494L84.9715 33.0675L89.0506 40.5124L97.9285 35.4691L94.0894 27.784L99.3682 24.9021L106.806 37.8707L72.9743 56.8432ZM81.1324 54.9219L101.288 43.6345C110.886 58.044 127.682 83.2607 130.561 87.5835C128.401 88.5441 126.482 89.5048 124.562 90.4654L113.765 77.2567C111.845 74.8551 108.966 72.4535 107.046 71.733C106.087 71.2527 104.887 71.4929 103.927 71.9732C102.967 72.4535 102.248 73.4141 102.008 74.6149C101.528 76.5362 102.248 80.3788 103.207 83.2607L108.966 99.3513C107.286 100.552 105.367 101.513 103.687 102.714L103.447 102.954C101.048 97.6702 88.3307 70.2921 81.1324 54.9219ZM122.403 91.426C118.324 93.5875 114.485 95.7489 110.886 97.9103L105.367 82.3C104.407 79.4181 103.927 76.2961 104.167 74.8551C104.167 74.3748 104.647 73.8945 104.887 73.6543C105.367 73.4142 105.847 73.4142 106.327 73.6543C107.526 74.1346 110.166 76.2961 112.085 78.4575L122.403 91.426ZM102.008 107.277C129.601 87.1032 163.673 75.3354 200.625 75.3354C236.856 75.3354 270.449 86.863 298.042 106.556L295.403 112.32C265.65 91.6662 233.737 81.0992 200.625 81.0992C167.033 81.0992 134.88 91.9064 104.887 112.8L102.008 107.277ZM105.847 115.442C135.6 94.5481 167.272 83.9811 200.385 83.9811C233.257 83.9811 264.69 94.308 294.203 114.962L287.245 130.092C260.131 111.84 231.098 103.194 200.865 103.194C170.152 103.194 140.639 112.08 113.045 131.052L105.847 115.442ZM200.865 105.836C230.618 105.836 259.171 114.241 286.045 132.493L284.845 134.895C259.171 117.123 229.898 108.958 200.625 108.958C170.872 108.958 141.598 117.603 115.205 135.615L114.005 133.214C141.358 114.481 170.632 105.836 200.865 105.836ZM200.385 665.165C91.69 665.165 3.15042 541.724 3.15042 390.183C3.15042 280.911 49.2198 186.289 115.444 142.1C141.119 125.048 169.912 115.442 200.385 115.442C309.08 115.442 397.619 238.884 397.619 390.424C397.619 541.964 309.08 665.165 200.385 665.165Z" fill="black"/>
<path d="M214.288 249.687C211.409 251.848 206.85 250.408 205.17 248.246L214.288 249.687Z" fill="black"/>
<path d="M180.217 285.95C180.697 287.391 179.737 288.592 178.777 289.312H177.337C176.138 287.871 179.497 287.151 178.537 285.229L175.898 284.509C176.378 282.588 180.697 283.548 180.217 285.95Z" fill="black"/>
<path d="M182.375 294.352C182.375 295.793 181.415 297.234 180.215 297.714C179.255 297.954 179.015 297.234 178.296 296.994C180.215 296.513 180.215 288.348 182.375 294.352Z" fill="black"/>
<path d="M82.5635 587.591C81.6037 587.111 81.3638 586.871 80.8839 587.111C80.6439 587.111 79.4442 587.832 77.5247 589.273C76.5649 589.993 75.845 590.714 74.8853 591.434C71.0461 589.032 68.4067 586.631 66.4872 583.989C63.8478 580.387 62.888 576.784 63.3679 573.182C63.8478 569.339 66.0073 566.217 69.6065 563.576C74.4054 560.213 79.2043 559.733 84.0032 562.135C86.1627 563.336 88.3222 565.257 90.2417 567.899C91.4414 569.58 92.4012 571.261 93.1211 573.182C93.8409 574.623 94.0808 576.064 94.3208 577.025L94.0808 577.265C92.8811 577.745 91.2015 578.706 88.8021 580.147H88.5621L87.8423 579.186V578.946C88.0822 578.706 88.5621 578.465 89.042 577.985C89.5219 577.505 90.0018 577.025 90.2417 576.784C90.4817 575.824 90.4817 574.863 90.2417 573.422C90.0018 571.981 89.2819 570.54 88.3222 569.34C85.6828 565.737 82.5635 564.536 78.4844 565.257C76.5649 565.737 74.8853 566.458 72.9657 567.899C70.0864 570.06 68.1668 572.462 67.207 575.343C66.2472 578.225 66.7271 581.107 68.4067 583.509C69.3665 584.71 70.5663 585.91 72.0059 586.631C72.7258 586.151 73.9255 585.43 75.1252 584.469C76.085 583.749 76.8048 583.269 77.0448 583.028C77.2847 582.788 77.0448 582.548 77.0448 582.308C76.8048 582.068 76.3249 581.107 75.3651 579.666V579.426L76.3249 578.706H76.5649C77.5247 580.147 78.7244 581.588 79.6842 583.269C80.404 584.229 81.3638 585.43 82.5635 587.351V587.591Z" fill="black"/>
<path d="M116.396 600.563C115.197 599.602 114.237 599.122 113.517 599.602C113.037 599.842 112.317 600.563 111.118 601.523C110.158 602.244 108.958 603.445 107.518 604.886L103.199 608.968C100.32 611.61 97.9206 613.051 95.7611 613.051C92.8817 613.291 90.2423 612.09 87.8429 609.449C85.6834 607.047 84.2437 604.886 84.0038 602.724C83.7638 601.043 84.0038 599.362 84.9636 597.681C85.6834 596.72 87.6029 594.559 91.2021 591.197L94.8013 587.834C96.9608 585.673 98.4005 584.232 99.1203 583.512C99.3602 583.271 99.3602 582.791 99.1203 582.551C99.1203 582.311 98.6404 581.83 97.6806 580.87V580.63L98.6404 579.669H98.8803C99.6002 580.63 100.8 582.071 102.719 583.752C104.639 585.673 105.839 587.114 106.559 587.834V588.075L105.599 589.035H105.359C104.399 588.075 103.919 587.834 103.679 587.594C103.439 587.354 102.959 587.354 102.719 587.594C102 588.075 100.32 589.515 98.1605 591.677L95.2812 594.559C91.682 597.921 89.7625 600.082 89.0426 601.283C88.0828 603.445 88.5627 605.606 90.9622 608.008C92.4018 609.449 94.0815 610.409 95.5211 610.409C96.241 610.409 96.9608 610.409 97.4407 610.169C97.9206 609.929 98.6404 609.449 99.6002 608.728C100.56 608.008 101.28 607.287 102 606.567L104.879 603.685C107.278 601.283 108.958 599.602 109.918 598.882C110.638 598.161 111.357 597.441 111.357 597.201C111.597 596.96 111.357 596.72 111.357 596.24C111.357 596 110.878 595.279 109.918 594.319V594.078L110.878 593.118H111.118C111.837 593.838 112.557 594.799 113.277 595.519C113.757 596.24 114.957 597.201 116.636 598.882V599.122L116.396 600.563Z" fill="black"/>
<path d="M137.272 628.18C134.633 631.782 131.514 633.944 127.675 634.904C125.755 635.385 123.836 635.385 121.916 634.904C119.757 634.424 117.597 633.464 115.438 631.782L110.159 627.94C108.719 626.979 107.519 626.019 106.56 625.538V625.298L106.8 624.818L107.039 624.578C108.239 624.578 108.719 624.578 108.959 624.578C109.199 624.338 109.679 623.857 110.639 622.656L113.278 619.054L119.037 610.889C120.716 608.247 121.916 606.566 122.396 605.845C122.636 605.605 122.636 605.125 122.396 604.885C122.396 604.645 121.676 604.164 120.716 603.444V603.204L121.436 602.003H121.676C122.636 602.723 123.596 603.444 124.555 604.164C126.955 605.845 128.874 607.286 130.794 608.487C131.754 609.208 132.714 609.688 133.673 610.408C136.313 612.33 137.992 614.011 138.952 615.692C139.912 617.373 140.392 619.294 140.152 621.456C139.912 623.617 138.952 625.779 137.272 628.18ZM132.234 625.779C134.393 622.897 135.353 620.015 135.113 617.613C135.113 616.172 134.633 614.971 133.673 614.011C132.953 613.05 131.514 611.849 129.834 610.649C128.874 609.928 127.915 609.448 126.955 608.968C125.995 610.168 123.836 613.05 120.716 617.613L115.917 624.578C114.718 626.259 114.238 627.219 113.758 627.7C114.478 628.42 115.438 629.141 116.397 629.861C118.317 631.302 120.236 632.023 121.676 632.263C123.356 632.503 125.275 632.023 126.955 630.822C128.874 629.621 130.554 627.94 132.234 625.779Z" fill="black"/>
<path d="M214.536 652.192C214.296 654.113 214.296 656.274 214.296 658.676L214.056 658.916H200.619C198.46 658.916 196.78 658.916 195.82 659.156L195.58 658.916V658.436V658.196C196.54 657.475 197.02 657.235 197.02 656.995C197.02 656.755 197.26 655.794 197.26 654.353V650.03L197.02 640.184C197.02 637.062 196.78 635.14 196.78 634.18C196.78 633.699 196.54 633.459 196.06 633.459C195.82 633.459 195.1 633.459 193.901 633.219L194.141 632.979V631.538L194.381 631.298C195.58 631.298 197.5 631.298 200.139 631.298C202.539 631.298 206.858 631.058 213.336 631.058L213.576 631.298L213.336 633.459C213.336 634.18 213.336 634.66 213.096 635.14V637.062L212.856 637.302H211.897L211.657 637.062C211.657 635.38 211.417 634.18 211.417 633.94C211.177 633.699 210.697 633.699 209.497 633.459C208.297 633.459 207.338 633.219 206.378 633.459C205.418 633.459 204.218 633.459 203.259 633.699C203.259 635.14 203.019 637.062 203.259 639.463V643.546C204.218 643.546 204.938 643.546 205.658 643.546H208.057C209.257 643.546 209.737 643.306 209.977 643.306C210.217 643.066 210.217 642.105 210.217 640.664L210.457 640.424H211.657L211.897 640.664C211.897 642.105 211.897 643.546 211.897 644.747C211.897 645.947 211.897 647.388 212.137 649.069L211.897 649.31H210.697L210.457 649.069C210.457 647.629 210.217 646.668 210.217 646.428C209.977 646.188 209.497 645.947 208.537 645.947C207.817 645.947 207.098 645.947 206.138 645.947C205.178 645.947 204.458 645.947 203.738 646.188V652.192C203.738 653.873 203.738 655.554 203.978 657.235H206.378C209.977 657.235 212.137 656.995 212.856 656.755C213.096 656.755 213.096 656.514 213.096 656.514C213.096 656.274 213.336 656.034 213.336 655.314L213.816 652.912L214.056 652.672L214.536 652.192Z" fill="black"/>
<path d="M248.365 634.907C249.565 639.23 249.325 643.072 247.645 646.675C246.685 648.356 245.486 650.037 244.046 651.238C242.366 652.679 240.207 653.639 237.568 654.36L231.329 656.041C229.649 656.521 228.21 657.001 227.25 657.482L227.01 657.242L226.77 656.761V656.521C227.49 655.561 227.73 655.08 227.97 655.08C227.97 654.84 227.73 653.879 227.49 652.439L226.29 648.116L223.411 638.509C222.451 635.627 221.971 633.706 221.491 632.746C221.251 632.505 221.011 632.265 220.771 632.265C220.531 632.265 219.812 632.505 218.612 632.746L218.372 632.505L217.892 631.305L218.132 631.064C219.332 630.824 220.531 630.584 221.731 630.104C224.371 629.383 227.01 628.423 229.169 627.702C230.129 627.222 231.329 626.982 232.529 626.742C235.648 625.781 238.047 625.541 239.967 625.781C241.887 626.021 243.806 626.982 245.246 628.423C246.446 629.864 247.645 632.025 248.365 634.907ZM243.326 637.309C242.366 633.946 240.687 631.305 238.527 630.104C237.328 629.383 236.128 628.903 234.928 628.903C233.728 628.903 232.049 629.143 229.889 629.864C228.69 630.104 227.73 630.584 226.77 631.064C227.01 632.505 227.97 635.868 229.649 641.391L232.049 649.557C232.529 651.478 233.009 652.679 233.249 653.159C234.448 652.919 235.408 652.919 236.608 652.439C239.007 651.718 240.687 650.757 241.887 649.797C243.086 648.596 243.806 646.915 244.046 644.753C244.286 642.352 244.046 639.95 243.326 637.309Z" fill="black"/>
<path d="M288.194 610.167C291.073 614.009 292.033 617.852 291.553 621.695C291.073 625.297 288.914 628.419 285.315 631.061C281.956 633.462 278.596 634.423 274.997 633.702C271.638 632.982 268.519 630.821 266.119 627.218C262.52 622.175 261.8 617.372 263.96 612.809C264.92 610.647 266.599 608.726 269.239 607.045C272.598 604.643 276.197 603.683 279.316 604.163C282.675 604.643 285.555 606.805 288.194 610.167ZM284.115 614.25C281.956 611.128 279.556 609.206 277.157 608.246C274.757 607.285 272.358 607.525 270.198 609.206C267.319 611.368 266.359 614.25 267.319 617.612C267.799 619.533 268.759 621.214 269.958 623.135C272.358 626.498 274.757 628.659 277.157 629.62C279.796 630.821 282.196 630.58 284.595 628.899C287.474 626.978 288.194 624.096 286.994 620.254C286.515 618.332 285.555 616.171 284.115 614.25Z" fill="black"/>
<path d="M312.672 592.638C314.351 594.079 315.311 595.76 315.551 597.922C315.791 599.843 315.551 601.764 314.591 603.686C313.872 605.607 312.672 607.288 310.992 609.209C308.833 611.611 306.433 613.532 303.314 614.973H302.834C301.874 613.772 300.435 612.091 298.515 610.17V609.93L299.475 608.729H299.715L299.955 608.969C300.435 609.449 301.394 609.93 302.354 610.65C303.314 610.89 304.514 610.65 305.953 609.93C307.393 609.209 308.593 608.249 309.792 607.048C311.712 604.886 312.432 602.725 311.952 600.564C311.712 599.603 311.232 598.642 310.512 597.922C309.313 596.721 307.873 596.721 306.193 597.441C305.473 597.922 304.274 598.642 302.834 599.843C299.715 602.485 297.555 603.926 296.116 604.406C293.956 605.127 291.797 604.406 289.877 602.725C287.957 601.044 286.998 598.642 287.238 596.241C287.478 593.599 288.917 590.717 291.557 587.595C293.956 584.953 296.116 583.032 298.275 582.071L298.755 582.311C299.715 583.512 300.915 584.953 302.594 586.634V586.874L301.634 587.835H301.394C300.195 586.874 299.475 586.154 298.995 585.914C298.275 585.914 297.315 586.154 296.116 586.634C294.916 587.355 293.956 588.075 292.996 589.036C291.557 590.477 290.837 592.158 290.837 593.599C290.837 595.04 291.317 596.241 292.276 597.201C293.476 598.162 294.676 598.402 296.116 597.922C297.075 597.682 298.515 596.481 300.915 594.56C301.154 594.319 301.874 593.839 303.074 592.878C303.794 592.398 304.514 591.918 305.234 591.438C306.673 590.717 307.873 590.237 309.313 590.477C310.272 590.957 311.472 591.438 312.672 592.638Z" fill="black"/>
<path d="M330.423 570.303C332.103 571.504 333.302 573.425 333.782 575.346C334.262 577.267 334.022 578.949 333.542 581.11C333.063 582.791 331.863 584.712 330.423 586.634C328.504 589.035 326.344 590.956 323.465 592.638H322.985C322.025 591.437 320.346 589.996 318.186 588.315V588.075L319.146 586.874H319.386L319.866 587.114C320.346 587.594 321.305 588.075 322.265 588.555C323.225 588.555 324.425 588.315 325.624 587.594C327.064 586.874 328.024 585.913 328.983 584.712C330.663 582.551 331.143 580.389 330.423 578.228C329.943 577.267 329.463 576.307 328.744 575.826C327.544 574.866 326.104 574.626 324.425 575.586C323.705 576.067 322.745 576.787 321.545 577.988C318.666 580.63 316.746 582.311 315.307 582.791C313.147 583.512 311.228 583.031 309.068 581.59C306.909 579.909 305.949 577.748 305.949 575.346C305.949 572.704 306.909 569.822 309.308 566.7C311.468 564.059 313.387 562.137 315.547 561.177L316.027 561.417C316.986 562.618 318.426 564.059 320.106 565.259V565.5L319.386 566.7H319.146C317.946 565.74 316.986 565.259 316.506 565.019C315.787 565.019 314.827 565.259 313.867 565.98C312.907 566.7 311.948 567.421 310.988 568.622C309.788 570.063 309.308 571.744 309.308 573.185C309.308 574.626 310.028 575.586 310.988 576.547C312.187 577.508 313.387 577.748 314.587 577.027C315.307 576.787 316.986 575.586 318.906 573.425C319.146 573.185 319.866 572.704 320.825 571.744C321.545 571.023 322.025 570.543 322.745 570.303C323.945 569.342 325.384 569.102 326.584 569.102C327.784 568.622 329.223 569.342 330.423 570.303Z" fill="black"/>
<path d="M184.057 657.714C183.818 657.954 183.818 657.954 184.057 657.714C182.618 657.474 180.698 656.993 178.299 656.513C175.659 656.033 173.74 655.552 172.54 655.312V655.072C172.78 654.592 172.78 654.352 172.78 653.871C172.78 653.871 173.02 653.871 173.02 653.631C174.22 653.871 174.94 653.871 175.18 653.871C175.659 653.871 175.899 653.631 175.899 653.391C176.139 652.43 176.859 650.509 177.579 647.627C178.779 642.584 179.499 639.942 180.698 634.659C178.299 637.781 177.099 639.222 174.7 642.344C174.46 642.824 173.02 644.265 171.1 647.147C168.941 649.789 167.981 651.23 165.822 653.871C165.342 653.631 165.102 653.631 164.622 653.631C164.382 651.95 163.902 649.789 163.662 647.147C163.182 644.745 162.942 643.304 162.462 640.903C161.743 636.34 161.263 633.938 160.543 629.375C159.103 634.659 158.383 637.3 157.184 642.584C156.464 645.706 155.984 647.627 155.984 648.588C155.984 649.068 155.984 649.308 156.464 649.548C156.704 649.548 157.424 649.789 158.623 650.269C158.623 650.269 158.623 650.509 158.863 650.509C158.623 650.989 158.623 651.23 158.623 651.71H158.383C156.944 651.23 155.744 650.989 154.544 650.509C153.105 650.029 151.665 649.789 150.225 649.548C150.225 649.548 150.225 649.308 149.985 649.308C150.225 648.828 150.225 648.588 150.225 648.108C150.225 648.108 150.465 648.108 150.465 647.867C151.665 648.108 152.385 648.348 152.625 648.348C153.105 648.348 153.345 648.108 153.345 647.867C153.824 646.907 154.304 644.985 155.024 642.104C155.984 638.021 156.704 636.1 157.664 632.017C158.383 628.895 158.863 626.974 158.863 626.013C158.863 625.533 158.863 625.293 158.383 625.052C158.143 625.052 157.664 624.812 156.464 624.332V624.092C156.704 623.612 156.704 623.371 156.704 622.891C156.704 622.891 156.944 622.891 156.944 622.651C158.143 623.131 165.102 624.572 165.342 625.052C165.582 625.293 165.582 627.694 166.062 629.615C166.302 630.816 166.302 631.297 166.542 632.497C167.501 638.021 167.981 640.903 169.181 646.667C170.861 644.505 171.82 643.545 173.5 641.383C176.139 638.021 177.579 636.1 180.218 632.737C180.938 631.777 182.138 629.615 182.618 629.375C183.098 629.135 189.336 631.056 190.776 631.056C190.776 631.056 190.776 631.297 191.016 631.297C190.776 631.777 190.776 632.017 190.776 632.497C190.776 632.497 190.536 632.497 190.536 632.737C189.336 632.497 188.616 632.497 188.376 632.497C187.897 632.497 187.657 632.738 187.657 632.978C187.177 633.938 186.697 635.86 185.977 638.741C185.017 642.824 184.537 644.745 183.578 648.828C182.858 651.95 182.378 653.871 182.378 654.832C182.378 655.312 182.618 655.552 182.858 655.793C183.098 655.793 183.818 656.033 185.017 656.513C185.017 656.513 185.017 656.753 185.257 656.753C184.057 656.993 184.057 657.233 184.057 657.714Z" fill="black"/>
</g>
<defs>
<clipPath id="clip0">
<rect x="0.5" y="0.88623" width="400" height="667.16" fill="white"/>
</clipPath>
</defs>
</svg>
