<svg width="401" height="510" viewBox="0 0 401 510" fill="none" xmlns="http://www.w3.org/2000/svg">
<g clip-path="url(#clip0)">
<path d="M396.392 0.88623C396.392 0.88623 445.993 346.504 200.482 509.261C-45.0288 346.504 4.61683 0.88623 4.61683 0.88623H396.392Z" fill="#D3001B"/>
<path d="M296.155 309.245C292.636 306.823 289.843 303.488 288.077 299.599C286.311 295.709 285.639 291.412 286.133 287.169V256.655C286.133 255.074 286.133 253.315 286.133 251.545C287.627 230.711 284.213 209.816 276.166 190.539C270.639 179.585 262.432 170.206 252.308 163.271C242.184 156.336 230.471 152.072 218.257 150.874C216.15 150.558 214.226 149.496 212.834 147.882C211.443 146.269 210.676 144.21 210.673 142.08V111.699C215.495 115.039 220.317 118.268 225.551 121.318C225.551 111.377 224.438 102.081 224.092 92.3734C233.001 87.6422 241.91 83.8683 250.753 78.7028C241.844 73.6041 232.935 69.897 224.081 65.2437C224.46 55.5028 225.574 46.1738 225.551 36.188C216.642 41.3534 208.98 47.2091 200.461 52.5861C191.942 47.2091 184.258 41.3534 175.371 36.188C175.371 46.1293 176.485 55.4249 176.83 65.1324C167.921 69.8636 159.012 73.6375 150.17 78.803C159.079 83.8905 167.988 87.6088 176.83 92.2621C176.451 102.003 175.338 111.332 175.36 121.318C180.605 118.279 185.383 114.983 190.238 111.699V142.08C190.235 144.21 189.468 146.269 188.077 147.882C186.685 149.496 184.762 150.558 182.654 150.874C170.44 152.072 158.727 156.336 148.603 163.271C138.479 170.206 130.272 179.585 124.745 190.539C116.698 209.816 113.284 230.711 114.778 251.545C114.778 253.36 114.778 255.074 114.778 256.655V287.136C115.274 291.378 114.602 295.676 112.836 299.566C111.07 303.456 108.276 306.79 104.756 309.211C101.282 311.257 97.3757 312.458 93.3522 312.718V312.718V336.196C101.181 335.947 108.837 333.829 115.68 330.018C123.099 325.72 129.152 319.415 133.142 311.828C137.132 304.241 138.896 295.681 138.231 287.136V256.655C138.231 254.985 138.231 253.193 138.231 251.289C137.808 212.493 142.263 174.475 200.461 172.794C258.66 174.486 263.114 212.493 262.68 251.289C262.68 253.193 262.68 254.996 262.68 256.655V287.136C262.015 295.681 263.779 304.241 267.769 311.828C271.759 319.415 277.812 325.72 285.231 330.018C292.074 333.829 299.73 335.948 307.559 336.196V312.718C303.538 312.468 299.632 311.279 296.155 309.245Z" fill="#FFD800"/>
</g>
<defs>
<clipPath id="clip0">
<rect x="0.5" y="0.88623" width="400" height="508.37" fill="white"/>
</clipPath>
</defs>
</svg>
