<svg width="401" height="503" viewBox="0 0 401 503" fill="none" xmlns="http://www.w3.org/2000/svg">
<g clip-path="url(#clip0)">
<path d="M28.5569 305.489C3.61841 223.558 2.8496 123.723 2.01041 2.38623L398.99 2.38623C398.15 123.723 397.382 223.558 372.443 305.489C347.505 387.419 298.379 451.472 200.5 501.006C102.621 451.472 53.495 387.419 28.5569 305.489Z" fill="#FFD00E" stroke="#272425" stroke-width="3"/>
<path d="M85.5239 387.284L107.805 238.166H74.5554V183.758H102.767V214.992H113.85V183.758H148.107V214.992H159.19V183.758H195.462V238.166H185.387V346.982H215.613V238.166H205.538V183.758H241.81V214.992H252.893V183.758H287.15V214.992H298.233V183.758H326.445V238.166H293.195L315.476 387.284H85.5239Z" fill="#272425"/>
<path d="M330.156 149.801C318.027 150.423 305.965 153.156 294.774 151.216C290.755 150.519 292.436 142.203 295.92 140.917C303.156 138.246 309.863 145.046 316.835 141.884C320.106 135.218 306.117 118.985 293.351 114.931C272.517 108.315 274.015 93.2338 266.386 91.2194C260.271 108.247 229.355 148.179 225.823 148.728L201.684 149.89C200.332 149.955 200.26 138.824 207.154 138.949C211.911 139.034 216.73 142.05 221.432 139.216C228.926 134.698 230.39 123.595 228.503 119.601C225.749 113.768 227.284 103.989 231.172 95.717C232.694 92.4783 237.256 91.174 240.512 89.0454C240.068 86.1029 236.515 86.9 234.641 87.5777C218.419 93.4456 218.073 95.8377 179.967 89.2961C175.819 88.584 173.821 89.3474 175.131 93.1818C176.045 95.8565 181.423 99.0399 180.468 103.189C175.428 125.083 191.072 144.974 184.627 147.889C177.663 151.038 167.57 145.595 152.981 151.224C149.611 152.788 147.466 137.921 154.449 138.548C159.682 139.018 166.725 140.512 172.863 139.349C176.245 138.708 175.036 136.17 173.797 134.145L148.682 93.1131C143.136 84.0628 141.357 93.2627 140.481 103.899C139.819 111.925 107.567 124.523 101.744 136.547C100.433 139.254 99.5021 140.937 98.2744 140.95L73.4562 141.217C70.9845 141.244 68.8023 131.567 73.4562 130.943C81.2885 129.892 90.0138 134.194 93.7377 130.943C104.341 121.685 109.193 92.2442 120.424 83.975C122.643 82.3414 117.182 80.9383 113.619 74.7682C112.852 73.4402 106.823 73.9614 102.144 72.0996L84.7978 71.5659C84.7978 71.5659 82.1399 68.0025 82.4622 68.0886C83.6842 68.4149 87.7869 67.3517 90.4536 64.4417C90.6592 64.2174 91.7747 67.735 93.235 67.2584C93.8589 67.0548 94.3224 66.5515 94.7433 66.0743C96.9507 63.5722 93.4006 59.1243 97.4122 61.1792C97.8134 61.3847 99.3397 63.9111 100.343 63.6267C102.347 63.0582 102.19 61.9295 101.571 59.9797C101.259 58.9975 100.195 58.5332 99.2957 59.7231C96.6146 63.2715 94.1572 61.7332 93.9055 58.4569C93.6961 55.7313 87.4579 57.9493 90.5355 62.2501C91.4145 63.4785 95.8091 59.721 95.884 59.9553C96.495 61.8658 91.5585 65.2118 90.9662 65.5389C89.1568 66.5383 85.238 60.7201 84.1344 63.5316C81.5426 62.9997 80.1823 59.418 78.7843 57.5551C77.6848 54.0385 85.5242 49.6742 83.5604 47.2218C81.1768 44.2451 77.1459 45.3872 74.9178 45.9464C72.8062 46.4764 77.7946 51.9581 80.8446 53.2402C81.549 53.5363 79.7134 58.3563 78.9882 57.6973C76.8648 55.7679 70.914 44.5841 74.0775 44.4517C79.7538 42.7412 83.875 44.3513 89.9349 43.145C91.8073 41.8555 90.5503 38.5808 93.9379 37.9412C98.4103 37.0967 103.32 32.0859 113.019 36.8737C113.996 35.3615 112.884 33.8493 112.485 32.3371C111.688 29.319 116.81 27.0026 121.292 27.3919C125.364 27.7455 128.941 30.4326 128.763 32.3371C128.514 35.0098 126.05 35.9842 127.229 37.8077C134.637 39.91 139.012 30.8334 145.776 30.5357C189.804 28.5981 185.836 40.0218 207.088 39.8759C230.277 39.7167 245.42 31.1615 257.689 35.7147C269.226 39.9967 278.254 36.4005 282.476 40.0761C289.836 46.4827 299.877 52.6042 311.199 58.0974C314.21 59.5587 313.942 64.896 318.604 68.4383C320.278 69.7106 318.305 74.2001 316.301 72.9669L311.698 69.7646C310.447 68.8942 308.866 71.7682 310.23 72.5666C321.687 79.2741 320.119 101.95 325.167 127.561C326.671 135.19 333.858 149.61 330.156 149.801V149.801Z" fill="#272425"/>
<path d="M294.28 141.646C290.828 139.876 285.282 141.107 283.772 143.897C287.778 142.963 291.123 143.646 293.976 144.265C294.907 144.466 295.255 142.146 294.28 141.646V141.646Z" fill="#FFD00E" stroke="#272425" stroke-linecap="round" stroke-linejoin="round"/>
<path d="M152.414 147.488C147.762 147.424 143.34 152.23 143.975 156.495C147.134 152.97 150.869 151.788 154.082 150.824C155.129 150.51 153.727 147.507 152.414 147.488Z" fill="#FFD00E" stroke="#272425" stroke-linecap="round" stroke-linejoin="round"/>
<path d="M152.215 143.622C147.938 141.791 142.019 144.551 140.982 148.737C145.246 146.68 149.149 147.01 152.487 147.342C153.575 147.45 153.422 144.139 152.215 143.622Z" fill="#FFD00E" stroke="#272425" stroke-linecap="round" stroke-linejoin="round"/>
<path d="M152.721 139.616C148.828 137.068 142.519 138.754 140.768 142.695C145.325 141.413 149.111 142.418 152.34 143.326C153.393 143.623 153.819 140.336 152.721 139.616Z" fill="#FFD00E" stroke="#272425" stroke-linecap="round" stroke-linejoin="round"/>
<path d="M205.291 139.105C201.513 136.686 195.43 138.35 193.767 142.146C198.16 140.883 201.824 141.821 204.95 142.671C205.969 142.948 206.357 139.789 205.291 139.105L205.291 139.105Z" fill="#FFD00E" stroke="#272425" stroke-linecap="round" stroke-linejoin="round"/>
<path d="M205.21 142.679C200.731 141.465 195.168 144.675 194.639 148.658C198.638 146.282 202.564 146.151 205.928 146.085C207.025 146.063 206.474 143.022 205.21 142.679Z" fill="#FFD00E" stroke="#272425" stroke-linecap="round" stroke-linejoin="round"/>
<path d="M206.128 146.225C201.492 145.755 196.634 149.931 196.873 154.039C200.352 150.968 204.188 150.174 207.483 149.542C208.557 149.336 207.436 146.359 206.128 146.225V146.225Z" fill="#FFD00E" stroke="#272425" stroke-linecap="round" stroke-linejoin="round"/>
<path d="M294.383 147.989C289.731 147.925 285.308 152.731 285.943 156.996C289.103 153.47 292.838 152.289 296.051 151.325C297.098 151.01 295.696 148.007 294.383 147.989V147.989Z" fill="#FFD00E" stroke="#272425" stroke-linecap="round" stroke-linejoin="round"/>
<path d="M294.204 144.328C289.4 143.593 284.068 147.535 284.053 151.695C287.878 148.791 291.928 148.206 295.405 147.752C296.538 147.604 295.56 144.537 294.204 144.328Z" fill="#FFD00E" stroke="#272425" stroke-linecap="round" stroke-linejoin="round"/>
<path d="M72.7936 137.844C68.1416 137.78 63.7193 142.586 64.3541 146.851C67.5137 143.326 71.2485 142.144 74.4615 141.18C75.509 140.866 74.107 137.863 72.7936 137.844V137.844Z" fill="#FFD00E" stroke="#272425" stroke-linecap="round" stroke-linejoin="round"/>
<path d="M72.6204 130.901C68.7886 128.807 62.7826 130.476 61.2386 133.962C65.5743 132.7 69.2494 133.454 72.3855 134.142C73.4079 134.366 73.702 131.492 72.6204 130.901Z" fill="#FFD00E" stroke="#272425" stroke-linecap="round" stroke-linejoin="round"/>
<path d="M72.1458 134.551C67.7671 133.064 61.9755 135.88 61.1483 139.781C65.317 137.689 69.245 137.811 72.6067 137.962C73.7026 138.011 73.3817 134.97 72.1458 134.551V134.551Z" fill="#FFD00E" stroke="#272425" stroke-linecap="round" stroke-linejoin="round"/>
<path d="M101.59 45.2137C100.925 45.9092 100.886 46.7329 101.81 47.2104C103.36 48.0109 110.483 47.8937 112.17 46.4138C113.206 45.505 112.342 44.0435 111.044 43.4617C108.237 42.2039 103.046 43.692 101.59 45.2137V45.2137Z" fill="#FFD00E"/>
<path d="M104.426 43.1801C103.86 44.9241 104.107 47.4381 104.864 48.5611L106.776 48.6916C107.49 46.8329 107.473 43.7114 107.154 42.6504L104.426 43.1801Z" fill="#272425"/>
<path d="M90.049 65.311C89.3912 64.6667 78.2368 62.9674 72.517 65.3607C68.8323 66.9025 72.1155 69.351 73.182 69.1383C79.2216 67.9337 84.3965 68.7323 89.263 69.5857L90.049 65.311V65.311Z" fill="#272425"/>
</g>
<defs>
<clipPath id="clip0">
<rect x="0.5" y="0.88623" width="400" height="501.8" fill="white"/>
</clipPath>
</defs>
</svg>
