<svg width="401" height="459" viewBox="0 0 401 459" fill="none" xmlns="http://www.w3.org/2000/svg">
<g clip-path="url(#clip0)">
<path d="M398.701 0.88623C401.167 43.3105 406.735 145.014 368.757 248.251C340.542 324.95 286.605 395.538 200.5 458.681C114.395 395.538 60.4581 324.95 32.2426 248.251C-5.73545 145.014 -0.16747 43.3105 2.29866 0.88623C134.433 0.88623 266.567 0.88623 398.701 0.88623Z" fill="#E00E00"/>
<path fill-rule="evenodd" clip-rule="evenodd" d="M99.9291 76.5499C99.8543 80.5074 102.264 83.4405 104.681 84.8829C106.559 84.0729 108.457 83.3049 110.801 82.8156C112.99 82.3586 116.025 81.8721 118.85 82.583L113.74 75.2866" fill="#FFE000"/>
<path d="M99.9291 76.5499C99.8543 80.5074 102.264 83.4405 104.681 84.8829C106.559 84.0729 108.457 83.3049 110.801 82.8156C112.99 82.3586 116.025 81.8721 118.85 82.583L113.74 75.2866" stroke="#E00E00"/>
<path d="M164.794 231.442C164.732 207.297 148.432 174.901 152.986 134.754C153.785 127.708 156.416 128.154 157.37 124.992C167.554 91.2514 159.411 66.9858 157.149 64.0579C156.463 63.1697 161.751 61.6744 159.96 58.1883C157.94 56.2478 159.9 54.3584 159.381 52.5667C158.336 48.9541 153.311 48.6338 151.114 49.0945C149.975 49.3334 149.529 50.9193 149.048 52.4013C143.674 47.8587 140.332 44.9553 134.321 45.209C126.797 45.5265 116.771 48.332 111.294 52.4261C110.256 53.2027 110.425 55.0061 110.702 56.0526C101.105 57.2888 91.5981 65.0082 96.1381 67.7363C96.0268 70.3143 96.9852 74.2253 99.6516 76.1279C109.266 79.3225 125.471 66.2226 128.245 83.8648C128.635 86.3482 125.45 88.173 124.329 87.1232C123.221 86.0856 122.69 85.2285 121.557 84.1683C120.036 82.7445 117.482 81.971 114.203 82.2776C108.904 82.773 102.886 85.1402 103.133 86.5958C103.306 87.6122 105.646 89.1537 107.282 88.8841C117.596 87.1846 116.995 90.4518 114.684 93.3621C109.627 99.023 98.479 102.827 90.4186 111.223L56.5212 81.786C55.194 80.6334 52.5409 56.3115 50.0086 45.7522C48.7127 40.3486 30.3574 37.3748 29.062 45.2638C33.208 45.2821 35.7796 46.7671 37.0764 48.3107C37.9892 49.3973 38.527 51.4767 38.1568 53.0165C36.2047 51.8052 34.6254 51.197 32.6194 51.3782C29.2559 51.6819 26.6493 54.928 27.1507 57.8788C30.0619 55.8364 33.7327 57.6025 36.0541 58.9684C37.5025 59.8207 38.199 61.4091 37.4966 63.1927C32.2231 62.6058 28.5334 66.5202 29.7952 69.9079C32.3826 68.61 36.108 69.2055 38.6312 70.3954C42.4481 72.1953 44.8084 75.5596 43.3959 79.472C42.3191 82.4545 39.1378 86.8185 41.8167 90.5654L62.1543 119.011L38.3537 118.522C36.1434 118.319 37.4177 99.6616 34.789 95.5163C31.1587 89.7915 17.8212 90.1108 17.3688 95.5876C21.4944 95.7431 26.7236 98.0246 26.7066 101.878C22.689 100.486 17.1857 103.813 17.6154 107.984C20.5416 106.902 26.4948 106.99 25.6922 113.442C22.1077 113.168 18.0312 115.789 18.3811 120.004C25.9421 115.884 26.0452 123.569 29.9082 123.515C36.7088 123.42 31.2285 131.048 28.2208 130.292C28.2467 135.254 35.8553 134.855 39.3049 132.41C41.1711 131.087 50.8314 138.567 56.8135 137.262C59.6585 137.652 58.1881 141.148 71.1356 142.289C77.2488 143.712 81.7922 149.358 93.2532 149.496C93.7439 155.847 95.8236 165.751 100.939 173.187C105.979 180.511 109.081 189.333 112.68 197.78C111.156 201.066 109.537 203.183 108.595 206.94C89.215 204.226 72.4361 216.383 67.9978 226.92C67.6276 227.798 61.7999 228.6 56.8588 229.338C57.726 225.307 55.8192 221.191 55.4779 219.102C54.8812 215.45 57.0913 212.941 55.8235 207.073C54.4276 200.612 44.2921 196.907 40.1674 202.562C42.3642 202.529 44.5085 203.409 45.8283 205.036C46.8456 206.29 47.4802 207.973 46.3716 209.924C42.5408 207.534 37.1365 211.904 37.7116 215.16C44.9682 213.158 47.2982 217.661 46.7881 220.797C43.8816 216.353 38.0583 220.661 39.098 225.917C42.0881 222.988 46.3302 225.625 45.5835 228.557C45.5229 228.795 42.6661 241.976 48.2894 242.534L108.762 248.531C110.82 257.597 115.864 264.94 119.312 270.685C121.582 274.468 125.496 276.698 127.566 279.992C128.198 280.997 130.434 296.017 129.46 303.48C120.709 297.674 112.744 298.626 107.519 302.077C103.727 304.581 101.608 308.593 102.49 315.486C104.617 313.508 106.273 311.074 110.253 311.525C110.981 314.099 110.287 315.792 112.409 317.434C113.474 315.383 115.255 312.279 118.714 312.076C119.382 314.892 119.621 316.104 121.737 318.112C123.137 316.51 125.195 312.744 127.286 312.801C135.607 313.026 146.955 314.662 146.925 310.267C146.709 278.82 152.971 277.478 156.191 267.505C158.786 260.746 159.993 254.313 159.519 248.87C166.994 247.488 164.81 237.4 164.794 231.442V231.442Z" fill="#FFE000" stroke="#E00E00" stroke-linecap="round" stroke-linejoin="round"/>
<path d="M115.366 57.3452C115.086 59.346 125.515 58.2174 130.276 58.3395" stroke="#E00E00" stroke-linecap="round" stroke-linejoin="round"/>
<path d="M123.078 58.4134C122.779 59.6337 122.774 61.6102 123.784 62.1062C124.698 62.5549 127.365 62.7408 128.479 61.9434C129.555 61.1731 129.073 58.311 129.073 58.311" stroke="#E00E00"/>
<path d="M152.508 55.1002C153.157 52.0482 158.651 55.9233 156.337 57.0293C154.234 58.0345 153.501 60.5727 152.187 59.3384C150.751 57.9904 152.109 56.977 152.508 55.1002V55.1002Z" stroke="#E00E00"/>
<path fill-rule="evenodd" clip-rule="evenodd" d="M180.266 316.813V157.7H168.31V118.152H186.704V142.065H195.901V118.152H214.296V157.7H202.339V220.241H224.413V100.677H189.463V45.4932H217.055V77.6836H232.69V45.4932H253.844H274.998V77.6836H290.633V45.4932H318.225V100.677H283.275V220.241H305.349V157.7H293.392V118.152H311.787V142.065H320.984V118.152H339.379V157.7H327.422V316.813H253.844H180.266Z" fill="#FFE000"/>
<path d="M99.25 65.1816C98.6628 65.2557 96.6212 66.3196 96.1381 67.7365" stroke="#E00E00" stroke-linecap="round" stroke-linejoin="round"/>
<path d="M104.547 84.4865L105.138 76.7654L110.657 82.7528L113.454 75.6406" stroke="#E00E00" stroke-linecap="round" stroke-linejoin="bevel"/>
<path d="M108.762 248.531C106.467 237.087 107.061 219.909 108.595 206.939" stroke="#E00E00"/>
<path d="M135.819 111.365L129.478 119.01H62.1543" stroke="#E00E00"/>
<path d="M93.2532 149.496C97.8918 149.458 102.536 149.064 106.073 148.475" stroke="#E00E00" stroke-linecap="round"/>
<path d="M157.211 235.463C158.559 239.757 159.185 244.576 159.519 248.87" stroke="#E00E00" stroke-linecap="round" stroke-linejoin="round"/>
<path d="M90.4186 111.223L84.3499 119.052" stroke="#E00E00"/>
</g>
<defs>
<clipPath id="clip0">
<rect x="0.5" y="0.88623" width="400" height="457.79" fill="white"/>
</clipPath>
</defs>
</svg>
