<svg width="401" height="523" viewBox="0 0 401 523" fill="none" xmlns="http://www.w3.org/2000/svg">
<g clip-path="url(#clip0)">
<path d="M200.209 522.05C122.395 465.595 69.061 394.294 37.1483 304.105C8.20906 222.334 -3.40222 123.235 1.64434 1.15448L1.66528 0.672852H399.339L399.36 1.15448C404.396 123.235 392.784 222.324 363.856 304.105C331.943 394.294 278.609 465.595 200.795 522.05L200.502 522.259L200.209 522.05Z" fill="#BFBFBF"/>
<path d="M180.267 36.2478C183.555 38.7392 186.252 36.3509 189.164 33.0418C190.915 31.0513 184.208 26.7669 182.18 24.7684C180.631 23.2411 185.312 17.8416 187.22 18.9578C189.309 20.1792 198.159 27.5789 199.075 31.8762C200.024 36.3283 196.119 39.0251 193.033 41.77C185.926 48.0919 169.712 60.7051 175.94 60.7425C195.701 60.8609 195.993 53.641 218.277 51.7197C236.008 50.191 254.028 64.467 263.661 69.1326C284.955 79.4456 327.367 99.7877 345.587 107.859L343.474 136.881C342.833 145.673 344.032 154.177 360.286 159.114C356.945 178.409 355.436 198.594 354.138 219.864L344.811 228.922C344.013 209.996 344.496 188.959 344.619 170.953C331.562 162.948 318.493 158.481 306.975 148.79L320.373 175.14C305.342 190.301 293.178 204.988 278.864 219L268.283 218.953C277.086 200.91 301.124 179.942 299.581 176.138C291.662 156.606 267.915 154.035 265.259 140.21C252.588 141.466 242.544 142.956 225.195 143.275C224.253 166.524 224.51 190.585 224.999 216.219L215.494 222.344C209.005 195.987 208.991 170.913 205.269 143.123C204.88 140.219 175.253 136.873 175.526 139.66L177.871 175.168L168.191 185.702L162.888 134.393C162.205 127.785 163.73 127.028 170.098 125.769C179.125 123.984 192.583 123.905 201.036 122.147C191.024 115.486 181.255 105.778 173.98 97.3752C170.782 99.1647 166.688 103.645 164.223 103.713C160.491 103.815 158.23 91.2077 152.618 90.9296C146.531 90.6281 136.423 90.4056 135.415 90.5792C133.048 90.9869 133.034 96.1099 131.605 96.3501C126.802 97.1573 118.843 95.4928 116.74 93.183C114.341 90.5483 117.737 80.9403 122.199 77.5602C129.513 72.019 144.862 71.0831 156.795 62.5002C144.488 59.1357 139.138 56.2536 136.537 48.9017C135.722 46.5965 138.368 43.3186 139.835 45.735C141.427 48.3561 141.141 48.1082 143.239 49.7174C147.263 52.8042 149.284 50.7121 148.961 46.6343L148.687 43.183C148.48 40.5605 153.949 39.0409 154.202 41.0794L155.047 47.8828C155.354 50.3508 160.795 52.2309 163.403 52.6995C167.208 53.3831 168.993 51.2459 173.202 45.0581C176.527 40.1703 168.683 38.5056 165.696 34.098C164.487 32.3156 170.273 26.413 172.101 28.7843C173.929 31.1555 176.837 33.6494 180.267 36.2478Z" fill="#0085CA"/>
<path d="M113.291 202.448C116.58 204.94 120.569 200.613 123.481 197.304C125.232 195.313 118.525 191.029 116.497 189.031C114.948 187.503 119.629 182.104 121.537 183.22C123.626 184.441 132.476 191.841 133.392 196.138C134.341 200.591 129.306 206.841 126.22 209.586C119.112 215.908 104.352 228.36 110.58 228.397C130.341 228.516 129.825 220.972 152.11 219.051C169.84 217.522 187.052 230.668 196.686 235.333C217.98 245.646 259.745 263.727 277.966 271.798L275.367 307.605C274.729 316.397 295.372 320.309 293.957 325.315C288.971 342.951 289.323 358.24 289.424 380.733L278.158 390.6C277.36 371.674 276.713 352.575 276.835 334.57C263.779 326.564 251.517 324.681 240 314.991L252.266 341.341C237.236 356.502 225.556 367.958 211.243 381.97L200.662 381.923C209.464 363.879 230.539 345.054 228.729 341.369C220.325 324.26 209.502 325.082 203.13 303.019C190.459 304.274 177.346 304.795 159.996 305.114C159.055 328.363 157.534 356.786 158.024 382.42L148.518 388.545C142.03 362.188 142.823 335.498 139.101 307.708C138.712 304.804 110.701 303.881 110.974 306.669L112.834 341.692L103.154 352.226L95.9128 298.817C95.0202 292.234 96.7547 291.452 103.123 290.193C112.15 288.408 122.7 290.428 131.153 288.671C121.14 282.01 113.795 273.432 106.52 265.03C103.321 266.819 96.4812 271.945 94.0168 272.013C90.2844 272.116 88.1854 258.055 82.5734 257.777C76.4861 257.475 66.0556 256.606 65.0474 256.78C62.6803 257.188 62.6657 262.311 61.237 262.551C56.4347 263.358 50.5749 262.824 48.472 260.515C46.0733 257.88 49.631 247.626 54.0927 244.246C61.407 238.704 80.6325 238.576 92.5654 229.993C80.2586 226.629 68.4471 222.616 65.8462 215.264C65.0307 212.959 69.292 210.004 70.7595 212.42C72.3512 215.041 74.2775 217.239 76.7481 218.18C80.6105 219.651 82.2579 217.563 81.9855 213.481L81.712 209.384C81.5369 206.759 86.9737 205.242 87.2269 207.28L88.072 214.084C88.3786 216.552 93.8195 218.432 96.4278 218.9C100.232 219.584 102.018 217.447 106.227 211.259C109.551 206.371 101.708 204.706 98.7202 200.299C97.512 198.516 103.297 192.614 105.125 194.985C106.953 197.356 109.862 199.85 113.291 202.448Z" fill="#0085CA"/>
</g>
<defs>
<clipPath id="clip0">
<rect x="0.5" y="0.672852" width="400" height="521.59" fill="white"/>
</clipPath>
</defs>
</svg>
