<svg width="401" height="473" viewBox="0 0 401 473" fill="none" xmlns="http://www.w3.org/2000/svg">
<g clip-path="url(#clip0)">
<path d="M200.499 472.087C-40.8846 282.197 3.75408 0.672852 3.75408 0.672852H397.243C397.243 0.672852 441.882 282.197 200.638 471.982L200.499 472.087Z" fill="#231F20"/>
<path fill-rule="evenodd" clip-rule="evenodd" d="M139.304 110.522C143.866 112.573 155.013 118.045 165.448 123.512C175.418 128.734 184.917 133.804 189.826 142.098C198.262 156.355 196.655 177.971 196.627 198.935H195.199C191.699 184.321 184.827 177.328 169.908 170.274C143.079 157.589 133.778 152.158 139.304 110.522V110.522Z" fill="#FFE000"/>
<path fill-rule="evenodd" clip-rule="evenodd" d="M128.71 164.379C134.115 166.809 147.322 173.292 159.686 179.769C171.498 185.957 182.753 191.963 188.568 201.791C198.564 218.682 196.66 244.293 196.626 269.132H194.935C190.788 251.817 182.646 243.531 164.97 235.173C133.183 220.144 122.163 213.71 128.71 164.379V164.379Z" fill="#FFE000"/>
<path fill-rule="evenodd" clip-rule="evenodd" d="M122.824 228.17C128.698 230.811 143.049 237.856 156.485 244.893C169.32 251.618 181.551 258.144 187.87 268.823C198.732 287.179 196.662 315.009 196.626 342H194.789C190.282 323.185 181.434 314.18 162.227 305.099C127.685 288.767 115.71 281.776 122.824 228.17Z" fill="#FFE000"/>
<path fill-rule="evenodd" clip-rule="evenodd" d="M220.369 102.506C220.445 85.1106 207.057 69.2372 200.5 51.4988C193.944 69.2372 180.556 85.1106 180.632 102.506C180.709 120.373 190.42 127.314 200.5 140.641C210.581 127.314 220.292 120.373 220.369 102.506Z" fill="#FFE000"/>
<path fill-rule="evenodd" clip-rule="evenodd" d="M261.696 110.522C257.134 112.573 245.987 118.045 235.552 123.512C225.582 128.734 216.083 133.804 211.175 142.098C202.738 156.355 204.346 177.971 204.373 198.935H205.801C209.301 184.321 216.173 177.328 231.092 170.274C257.921 157.589 267.222 152.158 261.696 110.522V110.522Z" fill="#FFE000"/>
<path fill-rule="evenodd" clip-rule="evenodd" d="M272.29 164.379C266.885 166.809 253.678 173.292 241.314 179.769C229.502 185.957 218.247 191.963 212.432 201.791C202.436 218.682 204.341 244.293 204.374 269.132H206.065C210.212 251.817 218.354 243.531 236.03 235.173C267.817 220.144 278.837 213.71 272.29 164.379V164.379Z" fill="#FFE000"/>
<path fill-rule="evenodd" clip-rule="evenodd" d="M278.176 228.17C272.302 230.811 257.951 237.856 244.516 244.893C231.68 251.618 219.449 258.144 213.13 268.823C202.268 287.179 204.338 315.009 204.374 342H206.211C210.718 323.185 219.566 314.18 238.773 305.099C273.315 288.767 285.29 281.776 278.176 228.17V228.17Z" fill="#FFE000"/>
</g>
<defs>
<clipPath id="clip0">
<rect x="0.5" y="0.672852" width="400" height="471.41" fill="white"/>
</clipPath>
</defs>
</svg>
