<svg width="401" height="523" viewBox="0 0 401 523" fill="none" xmlns="http://www.w3.org/2000/svg">
<g clip-path="url(#clip0)">
<path d="M200.209 522.05C122.395 465.595 69.061 394.294 37.1483 304.105C8.20906 222.334 -3.40222 123.235 1.64434 1.15447L1.66528 0.672852H399.339L399.36 1.15447C404.396 123.235 392.784 222.324 363.856 304.105C331.943 394.294 278.609 465.595 200.795 522.05L200.502 522.259L200.209 522.05Z" fill="#E00E00"/>
<path d="M66.7705 50.2098C62.9223 53.8989 69.2357 56.1318 73.3453 54.5815C80.3661 51.933 82.2407 65.8362 82.5886 69.4086C83.9548 83.4353 83.0094 95.5052 81.9823 109.533C70.1459 87.8167 60.2292 66.8168 48.3086 63.8522C41.2979 62.1087 33.1465 69.0021 32.1055 74.2189C31.2992 78.2594 38.2984 75.6816 40.2953 73.8083C49.3903 65.2762 60.1659 90.6578 74.1835 112.835C55.7799 103.733 38.7044 90.7643 25.5837 92.8374C19.6027 93.7824 14.7838 97.0011 16.6651 107.029C17.6036 112.031 23.5538 107.561 23.9414 103.925C24.4868 98.8111 39.5295 103.229 45.2918 106.611L72.2882 122.611C79.9922 127.177 56.3295 157.881 52.1462 161.183C47.1022 164.931 41.2222 165.584 39.8283 160.919C38.2995 155.801 31.6572 155.184 32.0005 158.647C32.5012 163.698 36.602 171.151 44.9833 172.077C57.9741 173.513 71.2151 149.719 80.5856 131.412C101.911 151.858 117.687 187.142 134.351 211.316C136.826 204.642 137.647 191.645 142.359 186.901C123.006 166.683 101.451 144.954 88.3178 120.07C90.9135 99.1514 91.2722 72.1724 90.6469 57.6197C90.2716 48.8864 77.815 39.6219 66.7705 50.2098V50.2098Z" fill="white" stroke="#E00E00" stroke-width="3" stroke-linecap="round" stroke-linejoin="round"/>
<path d="M135.181 76.3019C138.015 75.8777 139.706 75.1285 141.531 73.8401C134.53 70.2921 128.076 63.981 124.143 57.5758C123.287 73.2408 127.165 81.6323 129.951 84.7812C130.502 82.6876 130.8 80.8845 132.091 79.1609C143.094 95.0561 172.224 79.3872 180.582 99.6019C173.906 106.069 169.034 107.551 164.664 105.373L157.799 129.846C169.976 122.533 176.527 109.96 186.003 107.909C192.183 106.572 200.213 110.931 193.465 120.892C188.241 128.602 168.14 135.992 168.395 147.455C153.167 154.553 145.268 164.695 145.413 182.374C130.922 198.846 126.804 217.986 140.787 233.111C137.334 246.061 142.277 255.727 152.576 261.017C151.445 264.621 152.202 269.014 154.073 271.47C154.073 271.47 151.1 274.318 149.421 277.396C146.254 282.9 147.345 291.361 141.683 304.591C127.755 284.595 101.438 257.005 100.331 242.44C99.2415 228.094 99.3175 220.272 90.4215 187.122C88.1436 178.634 70.4606 177.154 65.7535 187.796C64.9855 189.533 65.3403 192.662 70.8832 189.635C76.3172 186.667 81.7929 189.401 84.0434 194.741C88.5435 205.42 90.9922 223.746 94.0694 241.295C78.5103 227.566 51.2398 196.505 39.6649 221.521C37.9919 225.136 42.6155 227.088 45.4459 224.408C47.9047 222.079 49.7596 218.216 58.1374 222.172C71.4342 228.451 83.9165 241.727 87.4537 245.974C75.8021 243.606 67.4442 243.261 56.3838 244.093C47.423 244.766 42.71 254.039 46.7879 264.115C47.418 265.672 51.0995 264.004 51.4415 258.893C52.3285 245.637 86.9687 253.591 91.2978 254.562C94.6975 255.325 91.0563 304.112 74.9791 296.985C72.1173 295.716 64.7745 295.216 67.1482 299.431C97.1568 323.18 97.8232 279.053 100.039 267.679L140.936 338.317C147.026 348.835 149.527 322.069 156.05 317.963C167.521 310.743 177.007 314.018 184.59 298.208C184.711 304.426 191.533 317.002 204.006 315.816C203.806 322.068 210.036 329.966 219 329.456C219.392 335.041 222.44 343.155 231.159 344.043L232.483 351.943C234.028 360.887 233.7 366.079 233.854 374.616C233.597 397.521 218.332 412.365 199.567 415.277C188.108 417.056 169.489 407.04 167.297 391.997C166.299 385.155 168.443 375.437 176.874 369.017C190.52 358.625 214.009 363.48 233.854 374.616C233.754 368.053 234.129 362.535 232.483 351.943C215.346 342.462 192.637 337.319 170.701 343.34C151.513 348.606 136.473 367.31 135.642 388.895C134.726 412.739 148.618 433.014 170.809 442.424C182.804 447.511 197.641 449.832 212.975 447.318C230.757 444.402 246.821 433.085 257.938 412.764C277.89 376.293 280.434 316.704 238.979 262.211C254.244 252.141 279.382 249.603 295.014 266.389C307.021 249.3 323.58 244.036 343.438 250.422C333.231 226.872 340.429 204.153 364.629 195.804C344.032 174.792 349.651 134.209 379.104 119.101C351.705 87.6675 357.751 54.7951 383.879 21.059C325.291 20.7575 231.513 98.6346 251.216 126.264C264.096 144.327 254.546 155.649 245.246 166.257C236.73 172.15 226.977 177.425 218.333 182.949C211.752 171.739 221.041 158.944 226.593 144.619C232.108 130.39 243.482 121.395 233.308 93.7328C250.221 66.3743 234.732 64.6743 239.953 57.702C243.916 52.4094 247.31 48.0759 246.775 42.7947C241.775 46.4352 237.015 46.3626 234.637 49.3504C230.911 54.0321 230.264 57.3024 227.787 58.6643C226.499 53.4413 226.513 48.2184 228.106 42.9954C220.771 47.8756 218.859 54.5328 219.878 62.2458C212.403 63.1822 202.105 51.9501 196.001 53.4413C193.533 54.0445 192.788 55.6321 192.569 57.7689C186.762 57.8642 179.959 58.2914 172.424 58.9628C166.952 54.2289 161.48 51.0389 156.009 50.9045C159.048 57.5681 163.369 61.4134 163.768 73.8855L194.211 84.1822C196.999 85.1253 200.01 89.3554 196.151 92.5389L190.085 96.0218C176.54 74.5413 144.069 87.7665 135.181 76.3019V76.3019Z" fill="white" stroke="#E00E00" stroke-width="3" stroke-linecap="round" stroke-linejoin="round"/>
<path d="M270.019 377.631C285.151 370.744 300.089 356.281 307.703 327.795C307.922 326.973 308.883 324.684 311.218 326.878L316.262 331.616C318.776 325.464 315.698 296.655 291.655 281.485C293.722 300.068 287.331 317.413 279.844 334.404C284.775 334.603 288.893 331.25 294.463 327.445C296.503 326.051 298.021 325.546 297.74 327.052C295.079 342.606 278.752 355.423 271.899 357.317C271.751 364.388 271.028 370.345 270.019 377.631V377.631Z" fill="white" stroke="#E00E00" stroke-width="3" stroke-linecap="round" stroke-linejoin="round"/>
<path d="M196.219 62.3451C201.693 62.2103 201.763 66.2063 207.671 67.3333" stroke="#E00E00" stroke-width="3" stroke-linecap="round"/>
<path d="M204.318 66.5042C204.366 68.0032 203.602 70.0107 202.182 70.1943C200.1 70.4635 197.993 66.6437 201.45 64.6611" stroke="#E00E00" stroke-width="3" stroke-linecap="round"/>
<path d="M218.333 182.949C213.212 186.155 208.626 189.523 206.358 191.437" stroke="#E00E00" stroke-width="3" stroke-linecap="round"/>
<path d="M154.073 271.47C158.166 267.739 160.966 265.953 164.397 263.646" stroke="#E00E00" stroke-width="3" stroke-linecap="round"/>
<path d="M184.59 298.208L186.448 293.41" stroke="#E00E00" stroke-width="3" stroke-linecap="round"/>
</g>
<defs>
<clipPath id="clip0">
<rect x="0.5" y="0.672852" width="400" height="521.59" fill="white"/>
</clipPath>
</defs>
</svg>
