<svg width="401" height="523" viewBox="0 0 401 523" fill="none" xmlns="http://www.w3.org/2000/svg">
<g clip-path="url(#clip0)">
<path d="M200.209 522.05C122.395 465.595 69.061 394.294 37.1483 304.105C8.20906 222.334 -3.40222 123.235 1.64434 1.15448L1.66528 0.672852H399.339L399.36 1.15448C404.396 123.235 392.784 222.324 363.856 304.105C331.943 394.294 278.609 465.595 200.795 522.05L200.502 522.259L200.209 522.05Z" fill="#FFE000"/>
<path fill-rule="evenodd" clip-rule="evenodd" d="M1.45996 101.4C4.7587 179.081 16.5745 245.972 37.1483 304.105C69.061 394.294 122.395 465.595 200.209 522.05L200.502 522.259L200.795 522.05C249.21 486.924 288.149 446.051 318.347 398.457L1.45996 101.4ZM373.595 273.658C395.35 198.015 403.787 108.468 399.36 1.15448L399.339 0.672852H82.3867L373.595 273.658Z" fill="#32AC60"/>
</g>
<defs>
<clipPath id="clip0">
<rect x="0.5" y="0.672852" width="400" height="521.59" fill="white"/>
</clipPath>
</defs>
</svg>
