<svg width="401" height="501" viewBox="0 0 401 501" fill="none" xmlns="http://www.w3.org/2000/svg">
<g clip-path="url(#clip0)">
<path d="M200.44 500.313C126.12 446.393 75.18 378.293 44.7 292.153C17.06 214.053 5.96999 119.403 10.79 2.80278L10.81 2.34277H390.63L390.65 2.80278C395.46 119.403 384.37 214.043 356.74 292.153C326.26 378.293 275.32 446.393 201 500.313L200.72 500.513L200.44 500.313Z" fill="#0085CA"/>
<mask id="mask0" mask-type="alpha" maskUnits="userSpaceOnUse" x="12" y="128" width="378" height="131">
<path fill-rule="evenodd" clip-rule="evenodd" d="M12.368 258.463V128.673H53.718V160.673H95.718V128.673H137.718V160.673H179.718V128.673C193.718 128.673 207.718 128.673 221.718 128.673V160.673H263.718V128.673H305.718V160.673H347.718V128.673H389.068V258.463C278.128 258.463 123.308 258.463 12.368 258.463Z" fill="#C8C7C4"/>
</mask>
<g mask="url(#mask0)">
<path d="M200.44 500.313C126.12 446.393 75.18 378.293 44.7 292.153C17.06 214.053 5.96999 119.403 10.79 2.80278L10.81 2.34277H390.63L390.65 2.80278C395.46 119.403 384.37 214.043 356.74 292.153C326.26 378.293 275.32 446.393 201 500.313L200.72 500.513L200.44 500.313Z" fill="#C8C7C4"/>
</g>
</g>
<defs>
<clipPath id="clip0">
<rect x="0.5" y="0.672852" width="400" height="500" fill="white"/>
</clipPath>
</defs>
</svg>
