<svg width="401" height="505" viewBox="0 0 401 505" fill="none" xmlns="http://www.w3.org/2000/svg">
<g clip-path="url(#clip0)">
<path d="M400.5 0.672852H0.5V305.28C0.5 431.805 90.0256 504.415 200.5 504.415C310.974 504.415 400.5 430.034 400.5 305.28V0.672852Z" fill="#006EB6"/>
<path d="M156.824 43.3726C160.777 63.6403 162.951 84.6952 163.148 105.947C164.532 205.908 125.401 297.014 60.7769 363.721C88.2474 358.998 192.99 347.586 225.006 420.195C250.895 375.331 265.52 323.185 264.73 267.695C263.544 178.556 221.646 97.0918 156.824 43.3726ZM108.208 271.827C126.587 236.605 138.84 198.234 144.176 158.485C130.539 131.528 108.8 108.505 89.0376 95.5176C89.8279 100.437 90.6186 105.356 91.2116 110.473C98.1287 173.44 77.9704 233.063 40.0258 278.124C58.8003 273.401 86.8636 270.057 108.208 271.827ZM269.275 81.1534C272.635 96.305 274.809 113.818 274.611 130.937C274.611 149.434 272.239 167.34 267.892 184.46C275.797 211.221 280.144 239.163 280.342 267.695C280.737 291.111 278.366 314.527 273.425 337.157C295.559 341.485 315.125 353.095 322.239 375.134C337.457 342.273 345.757 305.673 345.954 267.105C346.35 194.298 317.101 128.97 269.275 81.1534Z" fill="white"/>
</g>
<defs>
<clipPath id="clip0">
<rect x="0.5" y="0.672852" width="400" height="503.74" fill="white"/>
</clipPath>
</defs>
</svg>
