<svg width="401" height="486" viewBox="0 0 401 486" fill="none" xmlns="http://www.w3.org/2000/svg">
<g clip-path="url(#clip0)">
<path fill-rule="evenodd" clip-rule="evenodd" d="M400.134 0.672852H1.67546C1.67546 0.672852 -27.1903 307.963 201.167 485.83C418.169 319.303 400.134 0.672852 400.134 0.672852Z" fill="#009DE0"/>
<path fill-rule="evenodd" clip-rule="evenodd" d="M286.589 354.591C271.807 355.444 260.823 348 252.036 338.266C287.351 340.126 292.756 331.328 291.828 322.954C291.744 319.742 286.166 297.146 261.412 270.324C234.206 240.387 200.755 220.497 200.755 220.497H200.741C200.741 220.497 167.284 240.387 140.084 270.324C115.33 297.153 109.752 319.742 109.662 322.954C108.74 331.328 114.145 340.126 149.453 338.266C140.666 348 129.696 355.444 114.901 354.591C100.119 353.744 81.9559 340.042 81.9559 312.548C81.9559 285.053 112.822 248.026 136.044 231.216C159.162 214.461 175.897 204.595 175.897 204.595C175.897 204.595 154.775 184.129 145.066 180.313C141.601 182.519 139.065 184.288 135.011 179.217C130.957 174.145 130.618 173.889 128.594 171.516C126.564 169.15 126.813 166.444 132.225 162.892C137.631 159.34 187.048 124.477 187.048 124.477L187.221 117.123C187.221 117.123 183.34 111.622 173.368 104.261C163.389 96.9065 148.025 89.712 137.291 77.9524C126.564 66.1928 124.873 43.3535 133.743 35.2224C142.613 27.1052 149.626 23.9832 149.626 23.9832H278.46C286.173 23.9832 296.706 30.9973 296.706 41.8272C296.706 52.6571 296.644 53.9268 296.644 53.9268C296.644 53.9268 274.066 62.5505 270.518 47.3289H161.026C156.639 47.3289 146.328 60.0182 165.586 71.1811C177.755 79.8187 177.755 80.3182 190.935 88.4424C204.109 96.5596 217.29 110.269 217.29 127.523C227.428 135.654 253.284 154.435 253.284 154.435C253.284 154.435 260.38 148.343 264.434 152.402C268.488 156.461 270.795 160.672 273.56 164.585C276.007 168.054 275.14 170.392 269.749 174.228C264.364 178.058 225.398 204.179 225.398 204.179L225.585 204.595C225.585 204.595 242.327 214.461 265.445 231.216C288.668 248.033 319.533 285.053 319.533 312.548C319.533 340.042 301.377 353.744 286.582 354.591" fill="white"/>
<path fill-rule="evenodd" clip-rule="evenodd" d="M201.301 149.815L173.533 168.998L201.301 188.563L230.996 168.998L201.301 149.815" fill="#009DE0"/>
</g>
<defs>
<clipPath id="clip0">
<rect x="0.5" y="0.672852" width="400" height="485.16" fill="white"/>
</clipPath>
</defs>
</svg>
