<svg width="401" height="523" viewBox="0 0 401 523" fill="none" xmlns="http://www.w3.org/2000/svg">
<g clip-path="url(#clip0)">
<path d="M200.209 522.05C122.395 465.595 69.061 394.294 37.1483 304.105C8.20906 222.334 -3.40222 123.235 1.64434 1.15448L1.66528 0.672852H399.339L399.36 1.15448C404.396 123.235 392.784 222.324 363.856 304.105C331.943 394.294 278.609 465.595 200.795 522.05L200.502 522.259L200.209 522.05Z" fill="#32AC60"/>
<mask id="mask0" mask-type="alpha" maskUnits="userSpaceOnUse" x="24" y="23" width="352" height="500">
<path d="M231.33 465.875L231.007 522.263H169.537L169.214 465.875C169.126 457.29 162.526 454.621 162.429 442.793L162.106 403.532C161.902 378.815 137.535 378.984 121.72 371.546C96.8747 359.861 64.0476 329.426 57.4262 298.529C47.9942 254.517 44.531 210.24 38.3641 166.064L24.9122 33.0799C24.3669 27.6901 35.5933 33.515 36.9285 43.1549L56.0946 181.533C62.1735 225.422 66.1066 279.683 86.5039 311.775C100.717 334.137 135.982 362.311 163.77 354.88C175.225 351.816 189.961 338.106 190.214 303.375L192.003 57.8737C192.096 45.0143 193.553 23.286 200.272 23.2603C206.99 23.286 208.447 45.0143 208.541 57.8737L210.329 303.375C210.582 338.106 225.318 351.816 236.773 354.88C264.561 362.311 299.827 334.137 314.039 311.775C334.437 279.683 338.37 225.422 344.449 181.533L363.615 43.1549C364.95 33.515 376.176 27.6901 375.631 33.0799L362.179 166.064C356.012 210.24 352.549 254.517 343.117 298.529C336.496 329.426 303.669 359.861 278.823 371.546C263.008 378.984 238.641 378.815 238.437 403.532L238.114 442.793C238.017 454.621 231.417 457.29 231.33 465.875Z" fill="#FFCE46"/>
</mask>
<g mask="url(#mask0)">
<path d="M200.209 522.05C122.395 465.595 69.061 394.294 37.1483 304.105C8.20906 222.334 -3.40222 123.235 1.64434 1.15448L1.66528 0.672852H399.339L399.36 1.15448C404.396 123.235 392.784 222.324 363.856 304.105C331.943 394.294 278.609 465.595 200.795 522.05L200.502 522.259L200.209 522.05Z" fill="#FFE000"/>
</g>
<path d="M38.5624 303.605L37.1483 304.105L38.5623 303.605C9.78278 222.285 -1.83777 123.696 3.10385 2.17285H397.9C402.831 123.695 391.211 222.275 362.442 303.605C330.711 393.279 277.751 464.2 200.502 520.409C123.253 464.2 70.2928 393.279 38.5624 303.605Z" stroke="#32AC60" stroke-width="3"/>
</g>
<defs>
<clipPath id="clip0">
<rect x="0.5" y="0.672852" width="400" height="521.59" fill="white"/>
</clipPath>
</defs>
</svg>
