<svg width="401" height="523" viewBox="0 0 401 523" fill="none" xmlns="http://www.w3.org/2000/svg">
<g clip-path="url(#clip0)">
<rect x="0.5" y="0.672852" width="400" height="521.59" fill="white"/>
<path d="M200.209 522.05C122.395 465.595 69.061 394.294 37.1483 304.105C8.20906 222.334 -3.40222 123.235 1.64434 1.15448L1.66528 0.672852H399.339L399.36 1.15448C404.396 123.235 392.784 222.324 363.856 304.105C331.943 394.294 278.609 465.595 200.795 522.05L200.502 522.259L200.209 522.05Z" fill="#32AC60"/>
<path d="M24.653 77.0158C23.3865 75.4011 24.5394 73.484 25.6927 72.4156C33.5511 65.1348 46.4749 56.4351 55.499 48.0144C56.7935 46.8064 57.9295 46.6019 59.4294 48.3158L68.3748 58.5373C73.2729 64.1341 75.7367 49.8999 77.3291 51.1416C84.0276 56.3648 86.974 59.1403 86.7793 65.788C86.5638 73.1463 83.2578 82.1142 95.3867 96.2797C106.963 109.8 124.51 134.048 129.165 127.895C133.098 122.696 133.437 110.319 135.443 113.341C139.306 119.16 150.587 126.322 147.71 130.744C143.777 136.791 143.15 140.534 142.685 147.395C141.919 158.675 161.173 179.878 176.822 201.548C178.457 203.812 170.039 210.441 161.228 217.384C151.635 224.944 141.459 232.7 140.261 231.074C129.765 216.831 126.561 210.483 113.015 203.428C103.311 198.374 92.8909 200.163 90.8642 197.997C86.0447 192.845 78.2155 185.195 82.5855 184.87C88.1984 184.453 91.8227 183.481 95.1709 182.33C97.6053 181.494 99.4631 178.219 97.1286 174.868C89.7803 164.321 73.0289 144.808 68.7749 141.026C64.8966 137.577 60.393 134.045 54.883 135.808C53.6726 136.195 37.9413 118.465 40.0544 116.517C43.7471 113.112 48.7223 107.703 45.7177 103.872L24.653 77.0158Z" fill="#FFE000"/>
<path d="M217.913 198.059C225.85 185.07 235.044 177.329 239.378 167.185C241.662 161.838 239.945 156.779 237.792 154.335C236.019 152.322 250.519 134.459 252.88 136.384C255.69 138.676 257.578 141.017 260.525 140.625C264.328 140.119 278.579 122.135 286.939 108.885C289.556 104.737 296.045 96.4666 288.569 81.8341C286.313 77.4182 297.152 63.6387 298.638 66.1347C304.113 75.3329 310.951 80.1384 315.895 73.7563L335.399 46.7123C337.383 43.9607 349.702 54.0631 355.71 59.2889C362.007 64.7657 373.781 75.6436 371.715 78.5417C357.407 98.6109 338.54 117.692 332.748 132.011C331.963 133.951 336.925 135.395 338.904 137.724C341.21 140.436 327.257 160.09 323.386 158.062C315.905 154.141 316.477 156.483 314.941 158.219C303.72 170.905 283.223 192.448 289.075 193.943L303.468 197.617C307.118 198.549 298.235 212.436 293.043 211.828C285.959 211 278.035 209.747 272.307 213.617C264.469 218.912 260.493 221.936 254.973 229.987C253.066 232.769 244.855 223.559 235.164 215.757C226.211 208.549 215.452 202.087 217.913 198.059Z" fill="#FFE000"/>
<path d="M173.881 250.562C174.027 246.725 186.971 248.182 198.951 248.049C210.689 247.918 221.076 246.834 221.494 249.515C223.849 264.621 222.341 272.61 223.89 282.784C225.091 290.674 229.765 290.474 232.608 292.567C235.276 294.532 236.693 308.442 233.433 307.835C229.744 307.149 223.663 309.09 223.357 311.574C221.635 325.561 222.835 343.718 222.156 360.971C222 364.93 233.054 371.906 233.641 376.121C234.818 384.571 235.975 394.345 231.815 390.653C226.855 386.251 226.499 386.453 223.204 389.793C219.947 393.095 222.491 421.454 221.883 440.29C221.737 444.794 210.15 444.018 198.466 444.191C185.74 444.38 174.264 445.359 173.936 440.507C173.455 433.363 173.884 423.026 173.783 414.945C173.722 410.097 165.854 408.317 160.912 408.532C157.571 408.678 157.564 404.298 158.002 398.566C158.302 394.651 173.098 391.316 173.186 369.597L173.464 300.446C173.5 291.396 171.869 287.229 164.462 293.138C160.448 296.341 159.525 278.406 161.487 277.44C176.88 269.86 173.685 255.703 173.881 250.562Z" fill="#FFE000"/>
</g>
<defs>
<clipPath id="clip0">
<rect x="0.5" y="0.672852" width="400" height="521.59" fill="white"/>
</clipPath>
</defs>
</svg>
