<svg width="401" height="523" viewBox="0 0 401 523" fill="none" xmlns="http://www.w3.org/2000/svg">
<g clip-path="url(#clip0)">
<rect x="0.5" y="0.672852" width="400" height="521.59" fill="white"/>
<path d="M200.209 522.05C122.395 465.595 69.061 394.294 37.1483 304.105C8.20906 222.334 -3.40222 123.235 1.64434 1.15448L1.66528 0.672852H399.339L399.36 1.15448C404.396 123.235 392.784 222.324 363.856 304.105C331.943 394.294 278.609 465.595 200.795 522.05L200.502 522.259L200.209 522.05Z" fill="#32AC60"/>
<path d="M23.0124 167.253C27.0797 170.674 31.9344 174.564 43.0074 179.146C55.1579 184.174 58.7101 186.819 76.6889 184.577C84.5874 183.593 89.2208 187.361 87.654 189.87C84.012 190.163 77.6025 192.135 73.2219 191.346C68.6807 190.528 66.7072 194.918 66.9703 196.547C69.146 210.018 103.558 188.628 112.484 224.518C100.143 224.288 97.7999 219.584 88.4752 215.381C87.1194 220.962 90.3479 230.169 93.786 233.484C103.039 242.407 123.74 243.112 128.765 268.55C123.925 265.189 118.647 265.014 114.565 261.705C108.924 257.133 108.375 253.94 107.618 265.147C106.524 281.346 137.251 279.854 142.628 305.912C129.053 304.93 125.419 307.571 121.812 313.844C118.421 319.739 119.38 319.53 123.276 318.865C139.255 316.139 156.713 330.591 153.804 341.998C142.18 339.941 130.722 342.891 124.884 356.657C122.268 362.826 121.654 365.101 128.699 362.603C159.003 351.857 160.794 396.87 160.697 402.553C160.6 408.236 164.618 408.648 165.874 407.541C178.263 396.624 181.167 402.845 186.567 412.826C190.535 420.16 195.939 427.388 203.159 426.708C209.285 426.13 212.985 414.925 216.04 412.554C224.461 406.015 220.859 393.531 233.763 406.023C234.917 407.141 240.21 405.309 239.783 402.336C233.538 358.856 256.445 356.395 265.046 360.686C276.238 366.269 274.975 362.698 273.987 358.9C272.141 351.804 273.691 338.982 244.143 341.747C258.393 316.571 267.897 319.936 273.245 320.458C278.501 320.614 283.95 323.599 276.307 312.284C272.536 306.297 262.5 300.74 257.054 305.648C260.22 283.153 284.192 278.781 290.576 266.661C294.444 259.318 290.367 261.564 285.821 261.871C279.633 262.574 268.535 268.477 269.265 265.072C275.539 235.797 309.2 251.496 307.43 220.81C306.806 210.003 286.401 229.222 286.95 221.671C287.733 210.895 306.54 198.396 322.918 200.305C336.927 201.937 342.546 201.064 329.035 191.367C325.1 188.543 314.632 188.919 310.74 189.26C312.809 177.662 348.4 189.615 374.227 168.545C379.48 164.259 371.554 157.881 366.939 161.484C362.503 164.948 358.661 168.346 356.304 163.925C354.416 160.383 359.772 158.404 365.394 152.773C368.047 150.117 361.204 143.012 359.316 143.955C354.253 146.483 347.447 155.136 344.312 151.874C339.426 146.789 347.45 143.846 351.676 137.582C353.737 134.527 345.632 126.039 342.881 130.548C338.826 137.195 333.705 142.713 330.342 140.567C326.013 137.803 333.104 129.03 334.431 125.19C336.017 120.598 327.458 117.681 325.718 120.813C322.136 127.26 320.533 134.626 315.439 132.607C311.672 131.114 316.142 124.733 317.532 116.936C318.321 112.515 308.001 110.4 307.373 114.052C306.089 121.518 305.861 128.93 300.988 128.43C296.217 127.941 298.146 120.058 298.513 112.326C298.662 109.184 289.014 109.212 289.057 111.84C289.188 119.837 290.945 128.417 285.321 127.971C281.331 127.654 281.697 119.755 280.774 112.628C280.238 108.489 271.318 110.851 271.38 114.313C271.493 120.519 273.494 127.338 268.621 128.511C265.465 129.27 263.133 120.276 262.639 116.104C262.264 112.94 253.901 113.758 253.998 119.113C254.439 143.308 282.792 163.064 276.738 168.907C271.088 161.784 255.482 158.9 251.335 165.008C268.537 182.92 272.1 207.733 266.235 205.397C258.655 202.377 254.854 196.826 254.071 188.398C253.491 182.149 250.63 182.095 247.453 187.682C239.135 202.312 258.274 225.028 254.65 233.804C251.532 229.466 244.197 225.976 237.927 225.817C234.733 225.737 243.153 251.154 242.684 266.949C233.662 260.554 231.992 262.123 232.765 269.372C236.475 304.147 225.153 331.612 215.677 343.004C213.32 324.798 215.894 310.137 217.557 307.343C221.549 300.636 221.049 300.225 224.206 293.235C229.087 282.43 230.764 278.017 214.381 287.798C215.145 260.66 221.862 255.864 231.017 250.409C231.839 245.14 230.231 242.092 226.12 241.849C218.601 241.406 208.293 244.858 213.909 236.367C219.998 227.199 231.24 212.125 233.097 201.843C235.465 188.679 233.777 187.649 224.733 195.784C219.277 199.537 217.547 201.886 212.957 203.058C210.321 179.898 235.987 164.4 239.575 160.712C249.536 150.47 219.524 154.217 215.445 163.615C214.596 144.325 243.905 141.513 243.059 130.037C242.687 124.978 241.397 126.55 239.744 126.014C233.18 123.884 221.679 135.636 219.704 131.214C214.557 119.686 253.218 114.371 266.328 81.4396C268.489 76.01 259.677 75.4333 258.626 77.1654C253.661 85.3449 248.153 92.3809 245.496 90.414C242.066 87.8747 248.808 79.4072 251.506 71.1455C252.931 66.7812 246.004 62.3877 243.553 67.179C239.75 74.6138 235.336 85.163 232.306 83.8315C229.399 82.554 232.479 71.3329 235.934 64.2516C237.809 60.4097 230.137 57.2937 227.958 61.0989C223.944 68.1116 222.558 79.0679 218.461 77.1812C216.019 76.0567 217.746 66.8727 220.475 58.8978C221.491 55.9267 211.659 51.5656 210.621 57.1497C209.071 65.4844 209.515 76.0132 206.042 75.5095C202.632 75.015 204.283 64.2687 204.769 56.8973C205.111 51.706 194.781 52.3057 194.44 56.2079C193.848 62.9828 195.876 75.0318 192.085 75.0562C187.655 75.0848 189.086 65.1847 187.416 56.0557C186.853 52.9764 175.971 53.4727 176.559 58.0397C177.572 65.9038 182.197 75.994 178.194 77.1314C174.184 78.2707 173.177 68.171 169.114 61.5569C166.468 57.2495 158.189 61.8876 159.627 64.8853C163.345 72.6338 167.071 81.5846 164.223 82.9366C160.031 84.9264 158.103 73.735 153.429 67.2306C150.266 62.83 142.34 70.3376 143.992 73.0734C147.926 79.5878 154.929 87.7514 151.273 89.5383C145.557 92.3321 144.61 84.4506 139.324 77.6387C136.464 73.9541 129.997 78.4847 131.267 82.0563C144.543 119.4 186.375 115.907 175.379 131.952C172.595 133.694 164.344 130.391 157.532 124.526C155.474 122.754 151.752 121.042 151.61 125.17C151.143 138.711 187.376 149.425 185.123 167.259C184.537 171.905 175.206 166.228 164.204 155.618C161.7 153.203 159.356 152.715 159.174 163.366C158.992 174.017 191.481 184.326 186.205 207.672C181.981 205.942 175.473 198.864 170.388 197.808C166.54 197.754 163.984 192.769 165.032 202.645C166.472 216.218 192.478 223.697 185.615 244.012C180.137 241.821 180.092 244.458 174.927 236.139C169.981 228.174 166.835 226.805 166.273 240.566C165.861 250.653 193.107 271.019 185.968 292.058C182.258 287.615 181.041 286.639 177.67 284.297C174.559 282.137 172.177 284.473 172.258 285.779C173.306 302.609 191.867 314.289 184.099 344.102C177.856 326.26 168.388 312.773 164.924 296.37C163.769 290.899 166.363 274.944 165.184 268.759C163.758 261.279 161.258 265.933 156.114 269.628C149.523 248.048 157.972 235.576 157.848 229.321C152.479 229.777 149.602 231.605 145.606 237.552C138.525 212.512 147.332 213.859 151.352 203.388C153.727 197.202 145.181 180.023 141.85 190.461C139.88 196.636 137.589 204.084 131.538 206.273C119.097 175.562 131.124 167.458 143.962 167.904C145.408 167.954 142.784 163.684 139.975 162.497C132.654 159.403 120.322 173.369 119.867 171.498C116.299 156.829 139.1 162.373 141.406 120.602C141.699 115.297 134.063 113.888 133.357 118.437C131.953 127.496 129.792 132.555 125.74 131.398C121.7 130.245 125.998 124.662 126.492 115.337C126.709 111.255 116.925 110.293 116.826 114.003C116.625 121.555 116.418 129.044 111.657 128.019C108.814 127.407 109.088 120.479 109.204 113.043C109.28 108.131 98.5898 109.771 99.0077 113.328C99.9251 121.136 101.992 129.102 97.5619 130.039C94.0372 130.784 93.1835 120.789 91.0279 113.532C89.9347 109.853 79.3779 113.849 80.2576 116.591C82.8881 124.79 87.8995 132.744 83.6918 134.444C79.7004 136.056 75.9342 127.26 71.6936 119.794C69.9831 116.782 60.4186 123.019 61.8422 125.975C65.1879 132.923 73.1022 140.567 69.569 143.785C66.0406 146.999 60.573 137.144 55.013 130.519C52.9229 128.029 44.1396 135.803 46.2506 138.01C51.4546 143.453 61.3748 149.571 57.4981 154.003C53.4762 158.601 44.9854 147.345 39.1832 143.224C35.9498 140.928 30.7216 149.417 31.9317 150.519C38.2225 156.251 48.2354 160.195 44.6231 164.773C41.981 168.121 35.8321 164.714 27.7609 158.978C25.4585 157.342 20.2775 164.952 23.0124 167.253V167.253Z" fill="#FFE000"/>
</g>
<defs>
<clipPath id="clip0">
<rect x="0.5" y="0.672852" width="400" height="521.59" fill="white"/>
</clipPath>
</defs>
</svg>
