<svg width="401" height="523" viewBox="0 0 401 523" fill="none" xmlns="http://www.w3.org/2000/svg">
<g clip-path="url(#clip0)">
<rect x="0.5" y="0.672852" width="400" height="521.59" fill="white"/>
<path d="M200.209 522.05C122.395 465.595 69.061 394.294 37.1483 304.105C8.20906 222.334 -3.40222 123.235 1.64434 1.15448L1.66528 0.672852H399.339L399.36 1.15448C404.396 123.235 392.784 222.324 363.856 304.105C331.943 394.294 278.609 465.595 200.795 522.05L200.502 522.259L200.209 522.05Z" fill="#32AC60"/>
<path fill-rule="evenodd" clip-rule="evenodd" d="M191.496 465.259L174.938 441.728L188.117 389.946L178.646 390.026L167.962 431.947H162.846L146.484 387.694L166.825 338.528H157.781L140.563 380.332H134.651L121.952 335.308L152.5 280.642H141.905L118.28 322.918H112.481L108.584 274.323L146.93 225.464H136.375L106.934 262.615L101.908 262.776L105.69 214.512L152.92 168.735L141.457 168.659L106.001 202.634H101.795L110.192 156.309L165.348 116.843H150.495L111.458 145.22H107.252L125.831 100.407L180.489 59.2698L167.07 59.1408L132.491 84.5801H127.784L161.019 36.9866L193.202 36.8196V23.3438C197.915 23.3438 202.628 23.3438 207.342 23.3438V36.8196L239.525 36.9866L272.76 84.5801H268.052L233.473 59.1408L220.054 59.2698L274.712 100.407L293.292 145.22H289.085L250.049 116.843H235.196L290.351 156.309L298.749 202.634H294.542L259.086 168.659L247.623 168.735L294.853 214.512L298.635 262.776L293.609 262.615L264.169 225.464H253.614L291.959 274.323L288.062 322.918H282.264L258.639 280.642H248.043L278.592 335.308L265.892 380.332H259.98L242.763 338.528H233.718L254.059 387.694L237.697 431.947H232.581L221.897 390.026L212.427 389.946L225.606 441.728L209.047 465.259C203.197 465.259 197.347 465.259 191.496 465.259Z" fill="#FFE000"/>
</g>
<defs>
<clipPath id="clip0">
<rect x="0.5" y="0.672852" width="400" height="521.59" fill="white"/>
</clipPath>
</defs>
</svg>
