<svg width="401" height="523" viewBox="0 0 401 523" fill="none" xmlns="http://www.w3.org/2000/svg">
<g clip-path="url(#clip0)">
<rect x="0.5" y="0.672852" width="400" height="521.59" fill="white"/>
<path d="M200.209 522.05C122.395 465.595 69.061 394.294 37.1483 304.105C8.20906 222.334 -3.40223 123.235 1.64434 1.15447L1.66528 0.672852H399.339L399.36 1.15447C404.396 123.235 392.784 222.324 363.856 304.105C331.943 394.294 278.609 465.595 200.795 522.05L200.502 522.259L200.209 522.05Z" fill="#E00E00"/>
<path fill-rule="evenodd" clip-rule="evenodd" d="M267.032 115.152C270.311 115.152 270.658 115.131 272.216 112.284C283.09 92.4159 290.504 71.5641 303.062 50.5159C303.815 49.0812 302.924 48.332 301.866 48.3766C288.375 48.9462 273.784 54.6138 262.046 65.5967C260.733 66.8247 261.447 68.0371 262.964 68.0371H275.097C276.874 68.0371 277.4 68.5198 277.036 69.9564C274.412 88.5121 262.702 103.168 240.85 103.138C227.012 103.119 212.501 90.4152 213.065 68.0371H228.25C230.257 68.0371 230.607 66.8725 229.789 65.7563C221.211 54.0629 212.168 44.6113 200.261 40.1396C188.355 44.6113 179.311 54.0629 170.734 65.7563C169.915 66.8725 170.266 68.0371 172.273 68.0371H187.458C188.022 90.4152 173.511 103.119 159.672 103.138C137.82 103.168 126.111 88.5121 123.487 69.9564C123.122 68.5198 123.648 68.0371 125.425 68.0371H137.559C139.075 68.0371 139.789 66.8247 138.477 65.5967C126.738 54.6138 112.147 48.9462 98.6564 48.3766C97.5985 48.332 96.7072 49.0812 97.4604 50.5159C110.018 71.5641 117.433 92.4159 128.306 112.284C129.864 115.131 130.211 115.152 133.49 115.152H200.261H267.032Z" fill="#FFE000"/>
<path fill-rule="evenodd" clip-rule="evenodd" d="M267.032 209.383C270.311 209.383 270.658 209.361 272.216 206.514C283.09 186.646 290.504 165.795 303.062 144.746C303.815 143.312 302.924 142.562 301.866 142.607C288.375 143.177 273.784 148.844 262.046 159.827C260.733 161.055 261.447 162.268 262.964 162.268H275.097C276.874 162.268 277.4 162.75 277.036 164.187C274.412 182.743 262.702 197.399 240.85 197.368C227.012 197.349 212.501 184.646 213.065 162.268H228.25C230.257 162.268 230.607 161.103 229.789 159.987C221.211 148.293 212.168 138.842 200.261 134.37C188.355 138.842 179.311 148.293 170.734 159.987C169.915 161.103 170.266 162.268 172.273 162.268H187.458C188.022 184.646 173.511 197.349 159.672 197.368C137.82 197.399 126.111 182.743 123.487 164.187C123.122 162.75 123.648 162.268 125.425 162.268H137.559C139.075 162.268 139.789 161.055 138.477 159.827C126.738 148.844 112.147 143.177 98.6564 142.607C97.5985 142.562 96.7072 143.312 97.4604 144.746C110.018 165.795 117.433 186.646 128.306 206.514C129.864 209.361 130.211 209.383 133.49 209.383H200.261H267.032Z" fill="#FFE000"/>
<path fill-rule="evenodd" clip-rule="evenodd" d="M267.032 303.613C270.311 303.613 270.658 303.591 272.216 300.745C283.09 280.877 290.504 260.025 303.062 238.977C303.815 237.542 302.924 236.793 301.866 236.838C288.375 237.407 273.784 243.075 262.046 254.058C260.733 255.286 261.447 256.498 262.964 256.498H275.097C276.874 256.498 277.4 256.981 277.036 258.417C274.412 276.973 262.702 291.629 240.85 291.599C227.012 291.579 212.501 278.876 213.065 256.498H228.25C230.257 256.498 230.607 255.333 229.789 254.217C221.211 242.524 212.168 233.072 200.261 228.601C188.355 233.072 179.311 242.524 170.734 254.217C169.915 255.333 170.266 256.498 172.273 256.498H187.458C188.022 278.876 173.511 291.579 159.672 291.599C137.82 291.629 126.111 276.973 123.487 258.417C123.122 256.981 123.648 256.498 125.425 256.498H137.559C139.075 256.498 139.789 255.286 138.477 254.058C126.738 243.075 112.147 237.407 98.6564 236.838C97.5985 236.793 96.7072 237.542 97.4604 238.977C110.018 260.025 117.433 280.877 128.306 300.745C129.864 303.591 130.211 303.613 133.49 303.613H200.261H267.032Z" fill="#FFE000"/>
<path fill-rule="evenodd" clip-rule="evenodd" d="M267.032 397.844C270.311 397.844 270.658 397.822 272.216 394.975C283.09 375.107 290.504 354.256 303.062 333.207C303.815 331.773 302.924 331.023 301.866 331.068C288.375 331.638 273.784 337.305 262.046 348.288C260.733 349.516 261.447 350.729 262.964 350.729H275.097C276.874 350.729 277.4 351.211 277.036 352.648C274.412 371.204 262.702 385.86 240.85 385.829C227.012 385.81 212.501 373.107 213.065 350.729H228.25C230.257 350.729 230.607 349.564 229.789 348.448C221.211 336.754 212.168 327.303 200.261 322.831C188.355 327.303 179.311 336.754 170.734 348.448C169.915 349.564 170.266 350.729 172.273 350.729H187.458C188.022 373.107 173.511 385.81 159.672 385.829C137.82 385.86 126.111 371.204 123.487 352.648C123.122 351.211 123.648 350.729 125.425 350.729H137.559C139.075 350.729 139.789 349.516 138.477 348.288C126.738 337.305 112.147 331.638 98.6564 331.068C97.5985 331.023 96.7072 331.773 97.4604 333.207C110.018 354.256 117.433 375.107 128.306 394.975C129.864 397.822 130.211 397.844 133.49 397.844H200.261H267.032Z" fill="#FFE000"/>
</g>
<defs>
<clipPath id="clip0">
<rect x="0.5" y="0.672852" width="400" height="521.59" fill="white"/>
</clipPath>
</defs>
</svg>
