<svg width="401" height="523" viewBox="0 0 401 523" fill="none" xmlns="http://www.w3.org/2000/svg">
<g clip-path="url(#clip0)">
<path d="M200.209 522.542C122.395 466.088 69.061 394.786 37.1483 304.597C8.20906 222.826 -3.40222 123.727 1.64434 1.64654L1.66528 1.16492H399.339L399.36 1.64654C404.396 123.727 392.784 222.816 363.856 304.597C331.943 394.786 278.609 466.088 200.795 522.542L200.502 522.751L200.209 522.542Z" fill="#E00E00"/>
<mask id="mask0" mask-type="alpha" maskUnits="userSpaceOnUse" x="13" y="0" width="388" height="383">
<path d="M395.5 377.254H329.119L24.2557 215.78L395.5 9.03265V377.254Z" fill="#FFE000" stroke="black" stroke-width="10"/>
</mask>
<g mask="url(#mask0)">
<path d="M200.209 522.542C122.395 466.088 69.061 394.786 37.1483 304.597C8.20906 222.826 -3.40222 123.727 1.64434 1.64654L1.66528 1.16492H399.339L399.36 1.64654C404.396 123.727 392.784 222.816 363.856 304.597C331.943 394.786 278.609 466.088 200.795 522.542L200.502 522.751L200.209 522.542Z" fill="#FFE000"/>
</g>
</g>
<defs>
<clipPath id="clip0">
<rect x="0.5" y="0.672852" width="400" height="522.08" fill="white"/>
</clipPath>
</defs>
</svg>
