<svg width="401" height="523" viewBox="0 0 401 523" fill="none" xmlns="http://www.w3.org/2000/svg">
<g clip-path="url(#clip0)">
<rect x="0.5" y="0.672852" width="400" height="521.59" fill="white"/>
<path d="M200.209 522.05C122.395 465.595 69.061 394.294 37.1483 304.105C8.20906 222.334 -3.40223 123.235 1.64434 1.15447L1.66528 0.672852H399.339L399.36 1.15447C404.396 123.235 392.784 222.324 363.856 304.105C331.943 394.294 278.609 465.595 200.795 522.05L200.502 522.259L200.209 522.05Z" fill="#E00E00"/>
<path d="M188.116 30.5125V53.599H163.815V78.9051H139.514V102.19H163.815V126.491H188.116V150.792H212.417V126.491H236.718V102.19H261.019V78.9051H236.718V53.599H212.417V30.5125H188.116Z" fill="white"/>
<path d="M188.116 172.905V195.992H163.815V221.298H139.514V244.583H163.815V268.884H188.116V293.185H212.417V268.884H236.718V244.583H261.019V221.298H236.718V195.992H212.417V172.905H188.116Z" fill="white"/>
<path d="M188.116 315.298V338.384H163.815V363.69H139.514V386.976H163.815V411.277H188.116V435.578H212.417V411.277H236.718V386.976H261.019V363.69H236.718V338.384H212.417V315.298H188.116Z" fill="white"/>
</g>
<defs>
<clipPath id="clip0">
<rect x="0.5" y="0.672852" width="400" height="521.59" fill="white"/>
</clipPath>
</defs>
</svg>
