<svg width="401" height="500" viewBox="0 0 401 500" fill="none" xmlns="http://www.w3.org/2000/svg">
<g clip-path="url(#clip0)">
<rect x="0.5" y="0.672852" width="400" height="498.48" fill="white"/>
<path fill-rule="evenodd" clip-rule="evenodd" d="M0.879493 0.672852C-1.21177 103.195 4.26154 188.276 44.836 297.442C72.903 372.968 119.091 442.299 200.5 499.154C281.909 442.299 328.097 372.968 356.164 297.442C396.738 188.276 402.212 103.195 400.121 0.672852C267.04 0.963027 133.96 0.672852 0.879493 0.672852Z" fill="#0085CA"/>
<path fill-rule="evenodd" clip-rule="evenodd" d="M228.992 161.867H279.94C274.349 153.265 267.893 141.903 260.482 139.485C251.762 136.641 247.557 139.367 241.023 133.879C235.75 129.449 232.22 122.826 229.975 113.926C228.008 106.13 229.596 95.7611 235.087 90.8397C241.204 85.3575 249.516 83.7712 258.503 79.7914C280.374 70.1055 298.85 58.9079 324.127 42.1939C326.291 40.7633 325.708 38.9587 323.303 38.9587C241.435 38.9587 159.566 38.9587 77.6979 38.9587C75.2929 38.9587 74.7099 40.7633 76.8734 42.1939C102.151 58.9079 120.627 70.1055 142.498 79.7914C151.485 83.7712 159.797 85.3575 165.914 90.8397C171.405 95.7611 172.992 106.13 171.026 113.926C168.781 122.826 165.251 129.449 159.977 133.879C153.444 139.367 149.239 136.641 140.519 139.485C133.108 141.903 126.652 153.265 121.061 161.867H172.009C173.112 149.137 183.55 133.879 200.5 133.879C217.451 133.879 227.889 149.137 228.992 161.867Z" fill="white"/>
<path fill-rule="evenodd" clip-rule="evenodd" d="M223.311 281.694H264.1C259.624 274.806 254.455 265.71 248.522 263.775C241.541 261.497 238.174 263.679 232.943 259.286C228.721 255.739 225.895 250.437 224.098 243.311C222.523 237.07 223.794 228.769 228.191 224.828C233.088 220.439 239.743 219.169 246.937 215.983C264.448 208.228 279.24 199.263 299.477 185.882C301.209 184.737 300.742 183.292 298.817 183.292C233.272 183.292 167.728 183.292 102.183 183.292C100.258 183.292 99.791 184.737 101.523 185.882C121.761 199.263 136.553 208.228 154.063 215.983C161.258 219.169 167.912 220.439 172.81 224.828C177.206 228.769 178.477 237.07 176.902 243.311C175.105 250.437 172.279 255.739 168.057 259.286C162.826 263.68 159.459 261.497 152.478 263.775C146.545 265.71 141.377 274.806 136.9 281.694H177.69C178.573 271.502 186.929 259.286 200.5 259.286C214.071 259.286 222.427 271.502 223.311 281.694Z" fill="white"/>
<path fill-rule="evenodd" clip-rule="evenodd" d="M220.129 388.899H255.229C251.377 382.973 246.929 375.146 241.823 373.48C235.816 371.52 232.919 373.398 228.418 369.617C224.785 366.565 222.353 362.003 220.806 355.871C219.451 350.501 220.545 343.357 224.328 339.966C228.542 336.189 234.269 335.097 240.46 332.355C255.527 325.682 268.256 317.968 285.671 306.453C287.161 305.467 286.759 304.224 285.103 304.224C228.701 304.224 172.299 304.224 115.898 304.224C114.241 304.224 113.839 305.467 115.33 306.453C132.744 317.968 145.473 325.682 160.541 332.355C166.732 335.097 172.458 336.189 176.672 339.966C180.456 343.357 181.549 350.501 180.194 355.871C178.647 362.003 176.216 366.565 172.583 369.617C168.081 373.398 165.184 371.52 159.177 373.48C154.071 375.146 149.624 382.973 145.772 388.899H180.872C181.632 380.129 188.822 369.617 200.5 369.617C212.178 369.617 219.369 380.129 220.129 388.899Z" fill="white"/>
</g>
<defs>
<clipPath id="clip0">
<rect x="0.5" y="0.672852" width="400" height="498.48" fill="white"/>
</clipPath>
</defs>
</svg>
