<svg width="401" height="523" viewBox="0 0 401 523" fill="none" xmlns="http://www.w3.org/2000/svg">
<g clip-path="url(#clip0)">
<path d="M200.209 522.05C122.395 465.595 69.061 394.294 37.1483 304.105C8.20906 222.334 -3.40222 123.235 1.64434 1.15448L1.66528 0.672852H399.339L399.36 1.15448C404.396 123.235 392.784 222.324 363.856 304.105C331.943 394.294 278.609 465.595 200.795 522.05L200.502 522.259L200.209 522.05Z" fill="#0085CA"/>
<mask id="mask0" mask-type="alpha" maskUnits="userSpaceOnUse" x="31" y="181" width="339" height="342">
<path fill-rule="evenodd" clip-rule="evenodd" d="M31.2118 522.263V286.327C33.6304 266.916 47.7754 251.828 65.9305 247.379C82.871 243.232 104.638 249.515 115.852 268.643C113.841 232.522 141.399 181.271 200.261 181.271C259.124 181.271 286.681 232.522 284.671 268.643C295.895 249.515 317.662 243.232 334.592 247.379C352.747 251.828 366.903 266.916 369.311 286.327V522.263" fill="#FFE000"/>
</mask>
<g mask="url(#mask0)">
<path d="M200.209 522.05C122.395 465.595 69.061 394.294 37.1483 304.105C8.20906 222.334 -3.40222 123.235 1.64434 1.15448L1.66528 0.672852H399.339L399.36 1.15448C404.396 123.235 392.784 222.324 363.856 304.105C331.943 394.294 278.609 465.595 200.795 522.05L200.502 522.259L200.209 522.05Z" fill="#FFE000"/>
</g>
</g>
<defs>
<clipPath id="clip0">
<rect x="0.5" y="0.672852" width="400" height="521.59" fill="white"/>
</clipPath>
</defs>
</svg>
