<svg width="401" height="523" viewBox="0 0 401 523" fill="none" xmlns="http://www.w3.org/2000/svg">
<g clip-path="url(#clip0)">
<path d="M200.209 522.05C122.395 465.595 69.061 394.294 37.1483 304.105C8.20906 222.334 -3.40222 123.235 1.64434 1.15448L1.66528 0.672852H399.339L399.36 1.15448C404.396 123.235 392.784 222.324 363.856 304.105C331.943 394.294 278.609 465.595 200.795 522.05L200.502 522.259L200.209 522.05Z" fill="#0085CA"/>
<path fill-rule="evenodd" clip-rule="evenodd" d="M66.1297 370.039C78.5276 346.363 99.2546 314.099 117.661 296.931C141.717 274.491 176.46 263.983 198.029 242.049C219.962 220.481 223.019 189.498 246.168 166.124C269.542 142.975 298.691 140.17 319.999 117.985C345.532 91.402 355.243 48.9294 379.074 21.318C385.118 14.3148 391.507 7.76204 397.743 0.75885H366.141C341.861 21.2584 328.859 74.6136 303.247 101.233C281.919 123.4 252.79 126.223 229.416 149.372C206.267 172.746 203.21 203.729 181.277 225.297C159.708 247.23 124.965 257.739 100.908 280.179C84.5494 295.438 66.3567 322.622 53.8081 345.103L66.1297 370.039Z" fill="white"/>
<path fill-rule="evenodd" clip-rule="evenodd" d="M327.614 0.75885H301.678C290.95 22.4655 281.394 47.0786 265.555 63.5403C244.227 85.7073 215.098 88.5305 191.724 111.68C168.575 135.054 165.518 166.037 143.585 187.605C122.016 209.538 87.2727 220.047 63.2163 242.486C52.3781 252.596 40.7351 267.94 30.4617 283.682L39.8933 312.085C51.6936 292.581 66.4564 271.842 79.9684 259.239C104.025 236.799 138.768 226.29 160.337 204.357C182.27 182.789 185.327 151.806 208.476 128.432C231.85 105.283 260.979 102.459 282.307 80.2924C302.462 59.3447 312.443 24.7749 327.614 0.75885Z" fill="white"/>
<path fill-rule="evenodd" clip-rule="evenodd" d="M400.069 80.3045C386.452 104.204 376.503 136.125 357.692 155.677C336.364 177.844 307.234 180.667 283.861 203.816C260.711 227.19 257.654 258.173 235.721 279.742C214.153 301.675 179.409 312.184 155.353 334.623C134.931 353.672 111.652 391.304 100.062 415.17C99.308 417.054 98.6206 418.481 97.8619 420.496C93.1158 414.169 87.1065 405.601 83.1886 399.147C94.7783 375.28 118.179 336.92 138.601 317.871C162.657 295.431 197.401 284.923 218.969 262.989C240.902 241.421 243.959 210.438 267.109 187.064C290.482 163.915 319.612 161.092 340.94 138.925C366.551 112.306 375.734 62.7576 400.014 42.2581" fill="white"/>
<path d="M38.5624 303.605L37.3869 304.021L38.5623 303.605C9.78278 222.285 -1.83777 123.696 3.10385 2.17285H397.9C402.831 123.695 391.211 222.275 362.442 303.605C330.711 393.279 277.751 464.2 200.502 520.409C123.253 464.2 70.2928 393.279 38.5624 303.605Z" stroke="#0085CA" stroke-width="3"/>
</g>
<defs>
<clipPath id="clip0">
<rect x="0.5" y="0.672852" width="400" height="521.59" fill="white"/>
</clipPath>
</defs>
</svg>
