<svg width="401" height="490" viewBox="0 0 401 490" fill="none" xmlns="http://www.w3.org/2000/svg">
<g clip-path="url(#clip0)">
<path d="M400.5 0.672852C400.5 84.8466 392.682 144.225 384.213 188.596C358.806 323.665 304.735 398.704 200.5 489.403C96.2655 398.704 42.1938 323.665 16.7866 188.596C8.31759 143.572 0.5 84.1941 0.5 0.672852H400.5Z" fill="#008ACB"/>
<path d="M211.575 405.229V381.086C223.301 377.823 231.771 369.993 231.771 360.858C231.771 358.901 231.119 356.943 230.468 354.986H225.256C238.285 294.302 261.738 231.661 290.402 231.661C299.523 231.661 305.386 234.924 307.992 240.796C311.249 247.974 307.341 258.414 298.872 268.854L298.22 268.202C285.842 259.719 271.51 258.414 264.344 266.244C263.041 267.549 261.738 269.507 261.086 271.464L270.207 279.947C263.041 286.472 238.937 308.657 254.572 323.013C270.858 338.02 290.402 311.267 296.266 304.09L305.386 312.572C307.341 311.92 309.295 310.615 310.598 308.657C317.764 300.827 315.81 286.472 306.038 275.379L304.735 274.074C315.81 261.677 320.37 247.974 315.81 237.534C311.901 228.399 302.78 223.831 290.402 223.831C249.36 223.831 225.256 312.572 216.135 355.638H215.484C216.787 336.063 224.604 267.549 261.738 219.264C275.419 204.908 279.328 210.128 283.888 208.171C289.099 205.561 285.842 200.341 293.66 197.731C301.477 195.121 308.643 200.993 313.855 193.816C319.718 186.638 313.204 180.766 317.764 178.155C329.49 171.63 336.005 182.071 346.429 169.673C356.852 157.275 338.611 157.928 345.777 149.445C349.034 146.182 356.852 148.14 364.67 139.005C373.139 128.565 365.972 122.692 368.578 120.082C369.881 118.125 371.836 117.472 373.139 116.167C374.442 114.862 384.214 99.2018 371.184 88.1091C358.155 77.0165 344.474 88.1091 343.171 89.4141C341.868 90.7192 341.217 92.6767 339.914 94.6342C337.308 97.2443 330.793 91.3717 321.673 101.159C313.204 109.642 317.113 118.125 313.855 121.387C306.038 129.217 304.735 111.599 293.66 122.692C282.585 134.437 293.66 139.657 288.448 152.055C287.145 155.318 279.979 150.098 274.116 156.623C267.601 163.148 274.767 169.673 272.813 177.503C270.858 185.333 265.647 183.376 263.692 188.596C261.738 193.163 268.253 197.078 255.223 212.738C215.484 263.634 208.318 334.105 207.015 353.681H205.712V274.074C207.015 264.939 211.575 264.939 212.878 262.329C213.529 261.024 210.924 258.414 212.878 254.499C214.181 251.889 215.484 251.889 216.787 247.974C218.741 243.406 216.135 241.449 218.741 236.229C221.347 231.009 227.862 232.314 227.862 224.484C227.862 216.654 221.347 220.569 221.347 217.306C221.347 215.349 224.604 215.349 227.21 212.738C229.816 210.128 251.314 184.681 251.314 168.368C251.314 154.665 246.754 155.318 244.148 155.318C240.24 155.318 241.543 160.538 236.982 160.538C234.376 160.538 233.073 158.58 233.073 155.318C233.073 144.877 263.692 139.657 263.692 95.9393C263.692 85.4991 259.784 80.279 255.223 80.279C245.451 80.279 250.012 92.0242 243.497 92.0242C240.24 92.0242 238.937 88.1091 238.937 86.8041C238.937 78.974 247.406 76.364 247.406 63.3138C247.406 50.2636 239.588 44.391 233.073 44.391C225.907 44.391 227.21 50.2636 221.347 50.2636C216.135 50.2636 221.999 43.7385 221.999 35.2558C221.999 30.0358 217.438 18.2906 198.546 18.2906C179.653 18.2906 175.093 29.3833 175.093 35.2558C175.093 43.086 180.956 50.2636 175.744 50.2636C170.533 50.2636 171.184 44.391 164.018 44.391C156.852 44.391 149.686 50.2636 149.686 63.3138C149.686 76.364 158.155 78.974 158.155 86.8041C158.155 88.1091 156.852 92.0242 153.595 92.0242C147.731 92.0242 152.292 80.279 141.868 80.279C136.656 80.279 133.399 85.4991 133.399 95.9393C133.399 139.657 164.018 144.225 164.018 155.318C164.018 158.58 162.715 160.538 160.109 160.538C156.2 160.538 156.852 155.318 152.943 155.318C150.337 155.318 145.777 154.665 145.777 168.368C145.777 185.333 167.927 210.781 169.881 212.738C172.487 215.349 175.744 215.349 175.744 217.306C175.744 220.569 169.23 217.306 169.23 224.484C169.23 232.314 176.396 231.009 178.35 236.229C180.956 241.449 178.35 244.059 180.305 247.974C182.259 252.542 183.562 251.889 184.214 254.499C186.168 258.414 183.562 260.372 184.214 262.329C185.516 264.939 190.077 264.939 191.38 274.074V354.333H190.077C188.774 334.105 181.608 264.287 141.868 213.391C128.839 197.078 135.354 193.816 133.399 189.248C131.445 184.028 126.233 185.986 124.279 178.155C125.582 169.673 132.096 163.148 126.233 156.623C119.718 150.098 113.204 155.318 111.249 151.403C106.038 139.005 117.764 133.785 106.038 122.04C94.9627 110.294 93.6597 128.565 85.8422 120.735C82.5848 117.472 85.8422 109.642 78.0246 100.507C68.904 90.7192 62.3894 97.2443 59.7835 93.9817C58.4806 92.6767 57.8291 90.0667 56.5262 88.7616C55.2233 87.4566 41.5425 75.7114 28.5132 87.4566C15.4839 98.5493 25.2558 114.21 26.5588 115.515C27.8617 116.82 29.8161 117.472 31.119 119.43C33.7249 122.04 26.5588 128.565 35.0278 138.352C42.8454 147.488 50.663 144.877 53.9203 148.793C61.0865 157.275 42.8454 156.623 53.2689 169.02C63.6923 181.418 70.207 170.978 81.9334 177.503C85.8422 180.113 79.979 185.986 85.8422 193.163C91.7054 200.341 98.8715 194.468 106.038 197.078C113.855 199.688 110.598 204.908 115.81 207.518C120.37 209.476 123.627 204.256 137.959 218.611C175.093 266.897 182.911 335.41 184.214 354.986H183.562C174.442 311.92 150.989 223.179 109.295 223.179C96.9171 223.179 87.7966 228.399 83.8878 236.881C79.3275 247.322 83.8878 261.024 94.9627 273.422L93.6597 274.074C83.8878 285.167 81.9334 299.522 89.0995 307.352C90.4024 308.657 92.3568 309.962 94.3112 311.267L103.432 302.785C109.295 309.962 128.839 336.715 145.126 321.708C161.412 306.7 136.656 285.167 129.49 278.642L138.611 270.159C137.959 268.202 136.656 266.244 135.354 264.939C128.187 257.109 113.855 257.762 101.477 266.897L100.826 267.549C91.7054 257.762 88.448 247.322 91.7054 239.491C94.3112 233.619 100.174 230.356 109.295 230.356C137.959 230.356 162.064 292.997 174.442 353.681H169.23C168.578 355.638 167.927 357.596 167.927 359.553C167.927 368.688 176.396 376.518 188.122 379.781V403.924H211.575V405.229Z" fill="white"/>
</g>
<defs>
<clipPath id="clip0">
<rect x="0.5" y="0.672852" width="400" height="488.73" fill="white"/>
</clipPath>
</defs>
</svg>
