<svg width="401" height="484" viewBox="0 0 401 484" fill="none" xmlns="http://www.w3.org/2000/svg">
<g clip-path="url(#clip0)">
<path fill-rule="evenodd" clip-rule="evenodd" d="M400.5 283.878C400.5 394.26 310.882 483.878 200.5 483.878C90.1165 483.878 0.5 394.26 0.5 283.878C0.5 279.716 0.627132 275.584 0.879328 271.473L0.575195 0.778564L400.5 0.672852V283.878Z" fill="#EF3D42"/>
<path fill-rule="evenodd" clip-rule="evenodd" d="M183.749 303.951C184.805 302.842 185.963 301.83 187.206 300.93C186.575 300.15 185.948 299.422 185.34 298.716C182.235 295.113 179.63 292.091 179.651 285.758C179.685 275.769 187.576 265.28 201.254 265.03V265.018L201.511 265.024L201.767 265.018V265.03C215.446 265.28 223.337 275.769 223.37 285.758C223.392 292.091 220.787 295.113 217.682 298.716C217.155 299.328 216.612 299.958 216.066 300.623C217.329 301.498 218.509 302.486 219.588 303.573C220.245 302.585 220.829 301.623 221.393 300.694C223.86 296.627 225.929 293.217 231.958 291.28C241.469 288.224 253.884 292.488 258.348 305.42L258.359 305.416L258.433 305.662L258.518 305.904L258.506 305.907C262.496 318.993 254.959 329.74 245.468 332.858C239.451 334.836 235.773 333.293 231.386 331.453C229.612 330.708 227.721 329.915 225.513 329.287C225.009 330.759 224.373 332.169 223.617 333.502C226.164 334.537 228.49 335.084 230.653 335.593C235.282 336.682 239.166 337.596 242.871 342.733C248.716 350.834 248.497 363.959 237.578 372.2L237.585 372.21L237.373 372.356L237.17 372.511L237.163 372.501C225.95 380.339 213.401 376.492 207.503 368.43C203.763 363.319 204.093 359.343 204.488 354.603C204.699 352.067 204.928 349.312 204.562 346.047C203.672 346.143 202.768 346.192 201.853 346.192C201.334 346.192 200.818 346.176 200.307 346.145C199.86 349.623 200.102 352.524 200.323 355.184C200.717 359.924 201.048 363.9 197.308 369.011C191.41 377.073 178.86 380.921 167.647 373.082L167.641 373.093L167.436 372.937L167.226 372.791L167.233 372.782C156.314 364.54 156.095 351.415 161.94 343.314C165.645 338.177 169.528 337.264 174.158 336.174C176.145 335.706 178.27 335.206 180.577 334.326C179.761 333.008 179.064 331.608 178.502 330.141C176.16 330.782 174.176 331.614 172.319 332.393C167.933 334.233 164.254 335.776 158.236 333.799C148.747 330.68 141.209 319.934 145.199 306.848L145.187 306.845L145.272 306.602L145.345 306.357L145.357 306.36C149.821 293.429 162.235 289.165 171.746 292.219C177.777 294.156 179.846 297.568 182.313 301.634C182.769 302.386 183.238 303.16 183.749 303.951Z" fill="white"/>
<path d="M202.094 298.025V316.277" stroke="#EF3D42" stroke-width="3" stroke-miterlimit="1.5" stroke-linecap="round" stroke-linejoin="bevel"/>
<path d="M177.568 315.625L194.926 321.265" stroke="#EF3D42" stroke-width="3" stroke-miterlimit="1.5" stroke-linecap="round" stroke-linejoin="bevel"/>
<path d="M186.803 344.241L197.531 329.475" stroke="#EF3D42" stroke-width="3" stroke-miterlimit="1.5" stroke-linecap="round" stroke-linejoin="bevel"/>
<path d="M216.781 344.392L206.053 329.626" stroke="#EF3D42" stroke-width="3" stroke-miterlimit="1.5" stroke-linecap="round" stroke-linejoin="bevel"/>
<path d="M226.319 315.777L208.96 321.417" stroke="#EF3D42" stroke-width="3" stroke-miterlimit="1.5" stroke-linecap="round" stroke-linejoin="bevel"/>
<path d="M202.028 302.357C204.416 302.357 206.352 300.421 206.352 298.033C206.352 295.645 204.416 293.71 202.028 293.71C199.64 293.71 197.704 295.645 197.704 298.033C197.704 300.421 199.64 302.357 202.028 302.357Z" fill="white"/>
<path fill-rule="evenodd" clip-rule="evenodd" d="M202.028 293.71C204.415 293.71 206.352 295.646 206.352 298.031C206.352 300.418 204.415 302.355 202.028 302.355C199.643 302.355 197.704 300.418 197.704 298.031C197.704 295.646 199.643 293.71 202.028 293.71ZM202.028 295.982C203.157 295.982 204.076 296.901 204.076 298.031C204.076 299.163 203.157 300.079 202.028 300.079C200.898 300.079 199.979 299.163 199.979 298.031C199.979 296.901 200.898 295.982 202.028 295.982Z" fill="#EF3D42"/>
<path d="M181.678 316.948C182.416 314.677 181.173 312.238 178.902 311.5C176.631 310.762 174.191 312.005 173.453 314.276C172.715 316.547 173.958 318.987 176.229 319.725C178.501 320.463 180.94 319.22 181.678 316.948Z" fill="white"/>
<path fill-rule="evenodd" clip-rule="evenodd" d="M173.453 314.276C174.191 312.006 176.631 310.762 178.899 311.499C181.169 312.237 182.413 314.677 181.675 316.948C180.938 319.215 178.497 320.461 176.227 319.724C173.959 318.987 172.716 316.544 173.453 314.276ZM175.615 314.978C175.964 313.904 177.122 313.314 178.196 313.663C179.273 314.013 179.861 315.17 179.511 316.245C179.162 317.319 178.007 317.91 176.93 317.56C175.856 317.211 175.266 316.053 175.615 314.978Z" fill="#EF3D42"/>
<path d="M189.297 340.76C187.365 339.356 184.661 339.784 183.257 341.716C181.854 343.648 182.282 346.352 184.214 347.756C186.146 349.159 188.85 348.731 190.253 346.799C191.657 344.867 191.229 342.163 189.297 340.76Z" fill="white"/>
<path fill-rule="evenodd" clip-rule="evenodd" d="M184.214 347.756C182.283 346.353 181.854 343.647 183.256 341.718C184.659 339.787 187.364 339.359 189.295 340.762C191.224 342.163 191.655 344.87 190.252 346.801C188.85 348.73 186.143 349.157 184.214 347.756ZM185.55 345.917C184.636 345.253 184.432 343.969 185.096 343.055C185.762 342.139 187.044 341.938 187.958 342.602C188.872 343.266 189.077 344.548 188.411 345.464C187.747 346.378 186.464 346.581 185.55 345.917Z" fill="#EF3D42"/>
<path d="M214.257 340.884C212.325 342.287 211.897 344.991 213.3 346.923C214.704 348.855 217.408 349.284 219.34 347.88C221.272 346.476 221.7 343.772 220.296 341.84C218.893 339.908 216.189 339.48 214.257 340.884Z" fill="white"/>
<path fill-rule="evenodd" clip-rule="evenodd" d="M219.34 347.88C217.409 349.283 214.703 348.854 213.302 346.925C211.899 344.994 212.327 342.289 214.258 340.886C216.187 339.484 218.895 339.911 220.298 341.842C221.699 343.772 221.269 346.478 219.34 347.88ZM218.004 346.041C217.09 346.705 215.807 346.502 215.142 345.588C214.477 344.672 214.682 343.391 215.596 342.727C216.51 342.062 217.792 342.264 218.457 343.18C219.121 344.094 218.918 345.377 218.004 346.041Z" fill="#EF3D42"/>
<path d="M222.156 317.111C222.894 319.382 225.334 320.625 227.605 319.887C229.876 319.149 231.119 316.71 230.381 314.438C229.643 312.167 227.204 310.924 224.932 311.662C222.661 312.4 221.418 314.84 222.156 317.111Z" fill="white"/>
<path fill-rule="evenodd" clip-rule="evenodd" d="M230.381 314.438C231.118 316.709 229.875 319.149 227.607 319.886C225.337 320.624 222.897 319.38 222.159 317.11C221.422 314.842 222.665 312.399 224.935 311.662C227.203 310.925 229.644 312.171 230.381 314.438ZM228.22 315.141C228.569 316.215 227.979 317.373 226.904 317.722C225.827 318.072 224.672 317.481 224.323 316.407C223.974 315.332 224.561 314.175 225.638 313.825C226.712 313.476 227.87 314.066 228.22 315.141Z" fill="#EF3D42"/>
<path fill-rule="evenodd" clip-rule="evenodd" d="M80.188 229.949C81.2444 228.841 82.4016 227.829 83.645 226.928C83.0143 226.149 82.3868 225.421 81.7786 224.715C78.6735 221.112 76.0693 218.09 76.0903 211.757C76.1245 201.767 84.0149 191.279 97.6934 191.028V191.017L97.9498 191.023L98.2061 191.017V191.028C111.885 191.279 119.776 201.767 119.809 211.757C119.831 218.09 117.226 221.112 114.121 224.715C113.594 225.327 113.051 225.956 112.505 226.622C113.768 227.496 114.947 228.485 116.027 229.572C116.684 228.584 117.268 227.621 117.832 226.693C120.299 222.626 122.368 219.215 128.397 217.279C137.908 214.223 150.323 218.487 154.787 231.419L154.798 231.415L154.872 231.661L154.956 231.903L154.945 231.906C158.935 244.992 151.398 255.738 141.907 258.857C135.89 260.835 132.211 259.292 127.825 257.452C126.051 256.707 124.16 255.914 121.952 255.286C121.448 256.758 120.812 258.168 120.056 259.501C122.603 260.535 124.929 261.083 127.092 261.592C131.721 262.681 135.605 263.595 139.31 268.732C145.155 276.833 144.936 289.958 134.017 298.198L134.024 298.209L133.812 298.354L133.609 298.51L133.601 298.5C122.389 306.338 109.84 302.491 103.942 294.429C100.201 289.318 100.532 285.342 100.927 280.602C101.138 278.066 101.367 275.311 101.001 272.046C100.111 272.142 99.2068 272.191 98.2915 272.191C97.7726 272.191 97.2574 272.175 96.7463 272.144C96.2992 275.622 96.5406 278.523 96.762 281.183C97.1564 285.923 97.4872 289.899 93.7472 295.01C87.8485 303.072 75.2986 306.92 64.0862 299.081L64.08 299.091L63.8754 298.935L63.6645 298.79L63.6717 298.78C52.7529 290.538 52.5338 277.414 58.3787 269.313C62.0837 264.176 65.9669 263.262 70.5968 262.173C72.5839 261.705 74.7085 261.205 77.0156 260.325C76.1998 259.006 75.5032 257.606 74.9408 256.14C72.5988 256.78 70.6148 257.613 68.7576 258.392C64.3717 260.232 60.6928 261.775 54.6754 259.797C45.186 256.679 37.648 245.933 41.6376 232.846L41.6263 232.843L41.711 232.6L41.7844 232.356L41.7958 232.359C46.2599 219.427 58.6743 215.164 68.1854 218.218C74.2156 220.155 76.285 223.566 78.752 227.633C79.2079 228.384 79.6774 229.158 80.188 229.949Z" fill="white"/>
<path d="M98.5334 224.023V242.275" stroke="#EF3D42" stroke-width="3" stroke-miterlimit="1.5" stroke-linecap="round" stroke-linejoin="bevel"/>
<path d="M74.0066 241.624L91.3655 247.264" stroke="#EF3D42" stroke-width="3" stroke-miterlimit="1.5" stroke-linecap="round" stroke-linejoin="bevel"/>
<path d="M83.2417 270.24L93.9701 255.473" stroke="#EF3D42" stroke-width="3" stroke-miterlimit="1.5" stroke-linecap="round" stroke-linejoin="bevel"/>
<path d="M113.22 270.391L102.492 255.625" stroke="#EF3D42" stroke-width="3" stroke-miterlimit="1.5" stroke-linecap="round" stroke-linejoin="bevel"/>
<path d="M122.758 241.776L105.399 247.416" stroke="#EF3D42" stroke-width="3" stroke-miterlimit="1.5" stroke-linecap="round" stroke-linejoin="bevel"/>
<path d="M98.4667 228.356C100.855 228.356 102.791 226.42 102.791 224.032C102.791 221.644 100.855 219.708 98.4667 219.708C96.0787 219.708 94.1428 221.644 94.1428 224.032C94.1428 226.42 96.0787 228.356 98.4667 228.356Z" fill="white"/>
<path fill-rule="evenodd" clip-rule="evenodd" d="M98.4667 219.708C100.854 219.708 102.791 221.645 102.791 224.03C102.791 226.417 100.854 228.353 98.4667 228.353C96.0822 228.353 94.1428 226.417 94.1428 224.03C94.1428 221.645 96.0822 219.708 98.4667 219.708ZM98.4667 221.981C99.5964 221.981 100.515 222.9 100.515 224.03C100.515 225.162 99.5964 226.078 98.4667 226.078C97.3369 226.078 96.418 225.162 96.418 224.03C96.418 222.9 97.3369 221.981 98.4667 221.981Z" fill="#EF3D42"/>
<path d="M78.1167 242.947C78.8546 240.676 77.6118 238.237 75.3407 237.499C73.0696 236.761 70.6302 238.004 69.8923 240.275C69.1544 242.546 70.3973 244.985 72.6684 245.723C74.9395 246.461 77.3788 245.218 78.1167 242.947Z" fill="white"/>
<path fill-rule="evenodd" clip-rule="evenodd" d="M69.8923 240.275C70.63 238.005 73.0704 236.761 75.3382 237.498C77.6084 238.236 78.8519 240.676 78.1142 242.946C77.3774 245.214 74.9362 246.46 72.6659 245.723C70.3981 244.986 69.1555 242.543 69.8923 240.275ZM72.0536 240.977C72.4027 239.903 73.5606 239.313 74.6351 239.662C75.7121 240.012 76.2995 241.169 75.9504 242.243C75.6013 243.318 74.4459 243.909 73.369 243.559C72.2945 243.21 71.7045 242.052 72.0536 240.977Z" fill="#EF3D42"/>
<path d="M85.7358 266.758C83.8038 265.355 81.0999 265.783 79.6963 267.715C78.2926 269.647 78.7209 272.351 80.6528 273.754C82.5847 275.158 85.2888 274.73 86.6924 272.798C88.096 270.866 87.6677 268.162 85.7358 266.758Z" fill="white"/>
<path fill-rule="evenodd" clip-rule="evenodd" d="M80.6528 273.754C78.7216 272.351 78.2931 269.646 79.6947 267.717C81.0978 265.786 83.803 265.357 85.7342 266.76C87.6633 268.162 88.0939 270.869 86.6908 272.8C85.2893 274.729 82.5819 275.156 80.6528 273.754ZM81.9885 271.916C81.0745 271.252 80.8713 269.968 81.5354 269.054C82.201 268.138 83.4829 267.937 84.3969 268.601C85.3109 269.265 85.5158 270.547 84.8502 271.463C84.1861 272.377 82.9026 272.58 81.9885 271.916Z" fill="#EF3D42"/>
<path d="M110.696 266.883C108.764 268.286 108.336 270.99 109.739 272.922C111.143 274.854 113.847 275.282 115.779 273.879C117.711 272.475 118.139 269.771 116.735 267.839C115.332 265.907 112.628 265.479 110.696 266.883Z" fill="white"/>
<path fill-rule="evenodd" clip-rule="evenodd" d="M115.779 273.879C113.848 275.282 111.142 274.853 109.741 272.924C108.338 270.993 108.766 268.288 110.697 266.885C112.626 265.483 115.334 265.91 116.737 267.841C118.138 269.77 117.708 272.477 115.779 273.879ZM114.443 272.04C113.529 272.704 112.245 272.501 111.581 271.587C110.916 270.671 111.121 269.389 112.035 268.725C112.949 268.061 114.231 268.262 114.896 269.179C115.56 270.093 115.357 271.376 114.443 272.04Z" fill="#EF3D42"/>
<path d="M118.595 243.11C119.333 245.381 121.773 246.624 124.044 245.886C126.315 245.148 127.558 242.708 126.82 240.437C126.082 238.166 123.643 236.923 121.371 237.661C119.1 238.399 117.857 240.838 118.595 243.11Z" fill="white"/>
<path fill-rule="evenodd" clip-rule="evenodd" d="M126.82 240.437C127.557 242.708 126.314 245.148 124.046 245.885C121.776 246.622 119.336 245.379 118.598 243.109C117.861 240.841 119.104 238.398 121.374 237.66C123.642 236.924 126.083 238.169 126.82 240.437ZM124.658 241.14C125.008 242.214 124.418 243.372 123.343 243.721C122.266 244.071 121.111 243.48 120.762 242.406C120.413 241.331 121 240.174 122.077 239.824C123.151 239.475 124.309 240.065 124.658 241.14Z" fill="#EF3D42"/>
<path fill-rule="evenodd" clip-rule="evenodd" d="M287.31 229.949C288.366 228.841 289.524 227.829 290.767 226.928C290.136 226.149 289.509 225.421 288.901 224.715C285.796 221.112 283.191 218.09 283.212 211.757C283.247 201.767 291.137 191.279 304.816 191.028V191.017L305.072 191.023L305.328 191.017V191.028C319.007 191.279 326.898 201.767 326.931 211.757C326.953 218.09 324.348 221.112 321.243 224.715C320.716 225.327 320.173 225.956 319.627 226.622C320.89 227.496 322.07 228.485 323.149 229.572C323.806 228.584 324.39 227.621 324.954 226.693C327.421 222.626 329.49 219.215 335.519 217.279C345.031 214.223 357.445 218.487 361.909 231.419L361.92 231.415L361.994 231.661L362.079 231.903L362.067 231.906C366.057 244.992 358.52 255.738 349.029 258.857C343.012 260.835 339.334 259.292 334.947 257.452C333.173 256.707 331.282 255.914 329.074 255.286C328.57 256.758 327.934 258.168 327.178 259.501C329.725 260.535 332.051 261.083 334.214 261.592C338.843 262.681 342.727 263.595 346.432 268.732C352.277 276.833 352.058 289.958 341.139 298.198L341.146 298.209L340.934 298.354L340.731 298.51L340.724 298.5C329.511 306.338 316.962 302.491 311.064 294.429C307.324 289.318 307.654 285.342 308.049 280.602C308.26 278.066 308.489 275.311 308.123 272.046C307.233 272.142 306.329 272.191 305.414 272.191C304.895 272.191 304.379 272.175 303.868 272.144C303.421 275.622 303.663 278.523 303.884 281.183C304.278 285.923 304.609 289.899 300.869 295.01C294.971 303.072 282.421 306.92 271.208 299.081L271.202 299.091L270.997 298.935L270.787 298.79L270.794 298.78C259.875 290.538 259.656 277.414 265.501 269.313C269.206 264.176 273.089 263.262 277.719 262.173C279.706 261.705 281.831 261.205 284.138 260.325C283.322 259.006 282.625 257.606 282.063 256.14C279.721 256.78 277.737 257.613 275.88 258.392C271.494 260.232 267.815 261.775 261.797 259.797C252.308 256.679 244.77 245.933 248.76 232.846L248.748 232.843L248.833 232.6L248.906 232.356L248.918 232.359C253.382 219.427 265.796 215.164 275.308 218.218C281.338 220.155 283.407 223.566 285.874 227.633C286.33 228.384 286.8 229.158 287.31 229.949Z" fill="white"/>
<path d="M305.656 224.023V242.275" stroke="#EF3D42" stroke-width="3" stroke-miterlimit="1.5" stroke-linecap="round" stroke-linejoin="bevel"/>
<path d="M281.129 241.624L298.488 247.264" stroke="#EF3D42" stroke-width="3" stroke-miterlimit="1.5" stroke-linecap="round" stroke-linejoin="bevel"/>
<path d="M290.364 270.24L301.092 255.473" stroke="#EF3D42" stroke-width="3" stroke-miterlimit="1.5" stroke-linecap="round" stroke-linejoin="bevel"/>
<path d="M320.343 270.391L309.614 255.625" stroke="#EF3D42" stroke-width="3" stroke-miterlimit="1.5" stroke-linecap="round" stroke-linejoin="bevel"/>
<path d="M329.88 241.776L312.522 247.416" stroke="#EF3D42" stroke-width="3" stroke-miterlimit="1.5" stroke-linecap="round" stroke-linejoin="bevel"/>
<path d="M305.589 228.356C307.977 228.356 309.913 226.42 309.913 224.032C309.913 221.644 307.977 219.708 305.589 219.708C303.201 219.708 301.265 221.644 301.265 224.032C301.265 226.42 303.201 228.356 305.589 228.356Z" fill="white"/>
<path fill-rule="evenodd" clip-rule="evenodd" d="M305.589 219.708C307.976 219.708 309.913 221.645 309.913 224.03C309.913 226.417 307.976 228.353 305.589 228.353C303.204 228.353 301.265 226.417 301.265 224.03C301.265 221.645 303.204 219.708 305.589 219.708ZM305.589 221.981C306.719 221.981 307.637 222.9 307.637 224.03C307.637 225.162 306.719 226.078 305.589 226.078C304.459 226.078 303.54 225.162 303.54 224.03C303.54 222.9 304.459 221.981 305.589 221.981Z" fill="#EF3D42"/>
<path d="M285.239 242.947C285.977 240.676 284.734 238.237 282.463 237.499C280.192 236.761 277.752 238.004 277.014 240.275C276.276 242.546 277.519 244.985 279.79 245.723C282.062 246.461 284.501 245.218 285.239 242.947Z" fill="white"/>
<path fill-rule="evenodd" clip-rule="evenodd" d="M277.014 240.275C277.752 238.005 280.192 236.761 282.46 237.498C284.731 238.236 285.974 240.676 285.236 242.946C284.499 245.214 282.058 246.46 279.788 245.723C277.52 244.986 276.278 242.543 277.014 240.275ZM279.176 240.977C279.525 239.903 280.683 239.313 281.757 239.662C282.834 240.012 283.422 241.169 283.072 242.243C282.723 243.318 281.568 243.909 280.491 243.559C279.417 243.21 278.827 242.052 279.176 240.977Z" fill="#EF3D42"/>
<path d="M292.858 266.758C290.926 265.355 288.222 265.783 286.818 267.715C285.415 269.647 285.843 272.351 287.775 273.754C289.707 275.158 292.411 274.73 293.814 272.798C295.218 270.866 294.79 268.162 292.858 266.758Z" fill="white"/>
<path fill-rule="evenodd" clip-rule="evenodd" d="M287.775 273.754C285.844 272.351 285.415 269.646 286.817 267.717C288.22 265.786 290.925 265.357 292.856 266.76C294.785 268.162 295.216 270.869 293.813 272.8C292.411 274.729 289.704 275.156 287.775 273.754ZM289.111 271.916C288.197 271.252 287.993 269.968 288.657 269.054C289.323 268.138 290.605 267.937 291.519 268.601C292.433 269.265 292.638 270.547 291.972 271.463C291.308 272.377 290.025 272.58 289.111 271.916Z" fill="#EF3D42"/>
<path d="M317.818 266.883C315.886 268.286 315.458 270.99 316.861 272.922C318.265 274.854 320.969 275.282 322.901 273.879C324.833 272.475 325.261 269.771 323.857 267.839C322.454 265.907 319.75 265.479 317.818 266.883Z" fill="white"/>
<path fill-rule="evenodd" clip-rule="evenodd" d="M322.901 273.879C320.97 275.282 318.264 274.853 316.863 272.924C315.46 270.993 315.888 268.288 317.819 266.885C319.749 265.483 322.456 265.91 323.859 267.841C325.261 269.77 324.83 272.477 322.901 273.879ZM321.565 272.04C320.651 272.704 319.368 272.501 318.703 271.587C318.038 270.671 318.243 269.389 319.157 268.725C320.071 268.061 321.353 268.262 322.018 269.179C322.682 270.093 322.479 271.376 321.565 272.04Z" fill="#EF3D42"/>
<path d="M325.717 243.11C326.455 245.381 328.895 246.624 331.166 245.886C333.437 245.148 334.68 242.708 333.942 240.437C333.204 238.166 330.765 236.923 328.493 237.661C326.222 238.399 324.98 240.838 325.717 243.11Z" fill="white"/>
<path fill-rule="evenodd" clip-rule="evenodd" d="M333.942 240.437C334.68 242.708 333.436 245.148 331.168 245.885C328.898 246.622 326.458 245.379 325.72 243.109C324.983 240.841 326.226 238.398 328.496 237.66C330.764 236.924 333.205 238.169 333.942 240.437ZM331.781 241.14C332.13 242.214 331.54 243.372 330.465 243.721C329.388 244.071 328.233 243.48 327.884 242.406C327.535 241.331 328.122 240.174 329.199 239.824C330.273 239.475 331.431 240.065 331.781 241.14Z" fill="#EF3D42"/>
<path fill-rule="evenodd" clip-rule="evenodd" d="M118.727 107.957C119.783 106.848 120.94 105.836 122.184 104.936C121.553 104.156 120.925 103.428 120.317 102.723C117.212 99.1195 114.608 96.0976 114.629 89.7648C114.663 79.7751 122.553 69.2862 136.232 69.0361V69.0247L136.488 69.0309L136.745 69.0247V69.0361C150.423 69.2862 158.315 79.7751 158.348 89.7648C158.369 96.0979 155.765 99.1198 152.66 102.722C152.132 103.335 151.59 103.964 151.043 104.629C152.307 105.504 153.486 106.492 154.566 107.579C155.223 106.592 155.807 105.629 156.37 104.7C158.837 100.634 160.906 97.2231 166.936 95.2862C176.447 92.2309 188.861 96.4945 193.326 109.427L193.337 109.423L193.41 109.669L193.495 109.911L193.484 109.914C197.473 123 189.936 133.746 180.446 136.865C174.429 138.843 170.75 137.299 166.364 135.459C164.589 134.715 162.699 133.922 160.49 133.294C159.987 134.765 159.35 136.175 158.594 137.509C161.141 138.543 163.467 139.09 165.63 139.599C170.26 140.689 174.143 141.603 177.849 146.739C183.694 154.841 183.474 167.965 172.556 176.206L172.563 176.216L172.351 176.362L172.147 176.517L172.14 176.508C160.928 184.346 148.379 180.499 142.48 172.437C138.74 167.325 139.071 163.35 139.465 158.61C139.676 156.073 139.906 153.318 139.539 150.053C138.649 150.149 137.745 150.199 136.83 150.199C136.311 150.199 135.796 150.183 135.285 150.152C134.838 153.629 135.079 156.53 135.301 159.191C135.695 163.931 136.026 167.906 132.286 173.017C126.387 181.08 113.837 184.928 102.625 177.089L102.619 177.099L102.414 176.943L102.203 176.797L102.21 176.788C91.2915 168.546 91.0723 155.422 96.9173 147.32C100.622 142.184 104.506 141.27 109.135 140.18C111.122 139.713 113.247 139.213 115.554 138.333C114.738 137.014 114.042 135.614 113.479 134.148C111.137 134.788 109.153 135.62 107.296 136.4C102.91 138.24 99.2314 139.783 93.2139 137.805C83.7245 134.687 76.1866 123.94 80.1762 110.854L80.1649 110.851L80.2496 110.608L80.323 110.363L80.3344 110.366C84.7984 97.4351 97.2129 93.1715 106.724 96.2258C112.754 98.1627 114.824 101.574 117.291 105.64C117.746 106.392 118.216 107.166 118.727 107.957Z" fill="white"/>
<path d="M137.072 102.031V120.283" stroke="#EF3D42" stroke-width="3" stroke-miterlimit="1.5" stroke-linecap="round" stroke-linejoin="bevel"/>
<path d="M112.545 119.632L129.904 125.272" stroke="#EF3D42" stroke-width="3" stroke-miterlimit="1.5" stroke-linecap="round" stroke-linejoin="bevel"/>
<path d="M121.78 148.247L132.509 133.481" stroke="#EF3D42" stroke-width="3" stroke-miterlimit="1.5" stroke-linecap="round" stroke-linejoin="bevel"/>
<path d="M151.759 148.399L141.031 133.632" stroke="#EF3D42" stroke-width="3" stroke-miterlimit="1.5" stroke-linecap="round" stroke-linejoin="bevel"/>
<path d="M161.297 119.783L143.938 125.424" stroke="#EF3D42" stroke-width="3" stroke-miterlimit="1.5" stroke-linecap="round" stroke-linejoin="bevel"/>
<path d="M137.005 106.364C139.393 106.364 141.329 104.428 141.329 102.04C141.329 99.6519 139.393 97.716 137.005 97.716C134.617 97.716 132.681 99.6519 132.681 102.04C132.681 104.428 134.617 106.364 137.005 106.364Z" fill="white"/>
<path fill-rule="evenodd" clip-rule="evenodd" d="M137.005 97.716C139.392 97.716 141.329 99.6528 141.329 102.037C141.329 104.424 139.392 106.361 137.005 106.361C134.621 106.361 132.681 104.424 132.681 102.037C132.681 99.6528 134.621 97.716 137.005 97.716ZM137.005 99.9885C138.135 99.9885 139.054 100.907 139.054 102.037C139.054 103.17 138.135 104.086 137.005 104.086C135.875 104.086 134.957 103.17 134.957 102.037C134.957 100.907 135.875 99.9885 137.005 99.9885Z" fill="#EF3D42"/>
<path d="M116.655 120.955C117.393 118.684 116.15 116.245 113.879 115.507C111.608 114.769 109.169 116.012 108.431 118.283C107.693 120.554 108.936 122.993 111.207 123.731C113.478 124.469 115.917 123.226 116.655 120.955Z" fill="white"/>
<path fill-rule="evenodd" clip-rule="evenodd" d="M108.431 118.283C109.169 116.012 111.609 114.769 113.877 115.506C116.147 116.243 117.39 118.684 116.653 120.954C115.916 123.222 113.475 124.468 111.204 123.73C108.937 122.993 107.694 120.551 108.431 118.283ZM110.592 118.985C110.941 117.91 112.099 117.321 113.174 117.67C114.251 118.02 114.838 119.177 114.489 120.251C114.14 121.326 112.984 121.916 111.908 121.566C110.833 121.217 110.243 120.059 110.592 118.985Z" fill="#EF3D42"/>
<path d="M124.274 144.766C122.342 143.362 119.638 143.791 118.235 145.723C116.831 147.655 117.259 150.359 119.191 151.762C121.123 153.166 123.827 152.737 125.231 150.806C126.635 148.874 126.206 146.17 124.274 144.766Z" fill="white"/>
<path fill-rule="evenodd" clip-rule="evenodd" d="M119.191 151.762C117.26 150.359 116.832 147.654 118.233 145.725C119.636 143.794 122.342 143.365 124.273 144.768C126.202 146.17 126.633 148.876 125.229 150.808C123.828 152.737 121.12 153.164 119.191 151.762ZM120.527 149.924C119.613 149.26 119.41 147.976 120.074 147.062C120.74 146.146 122.021 145.945 122.935 146.609C123.85 147.273 124.054 148.554 123.389 149.47C122.725 150.384 121.441 150.588 120.527 149.924Z" fill="#EF3D42"/>
<path d="M149.234 144.89C147.302 146.294 146.874 148.998 148.278 150.93C149.681 152.862 152.385 153.29 154.317 151.886C156.249 150.483 156.678 147.779 155.274 145.847C153.87 143.915 151.166 143.487 149.234 144.89Z" fill="white"/>
<path fill-rule="evenodd" clip-rule="evenodd" d="M154.317 151.886C152.386 153.29 149.681 152.861 148.279 150.932C146.876 149.001 147.305 146.296 149.236 144.892C151.165 143.491 153.872 143.918 155.275 145.849C156.677 147.778 156.246 150.485 154.317 151.886ZM152.982 150.048C152.068 150.712 150.784 150.509 150.12 149.595C149.454 148.679 149.659 147.397 150.573 146.733C151.487 146.069 152.769 146.27 153.435 147.186C154.099 148.1 153.896 149.384 152.982 150.048Z" fill="#EF3D42"/>
<path d="M157.134 121.117C157.872 123.388 160.311 124.631 162.582 123.893C164.853 123.155 166.096 120.716 165.358 118.445C164.62 116.174 162.181 114.931 159.91 115.669C157.639 116.407 156.396 118.846 157.134 121.117Z" fill="white"/>
<path fill-rule="evenodd" clip-rule="evenodd" d="M165.358 118.445C166.096 120.715 164.853 123.156 162.585 123.892C160.314 124.63 157.874 123.387 157.136 121.116C156.4 118.849 157.642 116.406 159.912 115.668C162.18 114.931 164.622 116.177 165.358 118.445ZM163.197 119.147C163.546 120.222 162.956 121.38 161.882 121.729C160.805 122.079 159.649 121.488 159.3 120.413C158.951 119.339 159.539 118.182 160.616 117.832C161.69 117.483 162.848 118.073 163.197 119.147Z" fill="#EF3D42"/>
<path fill-rule="evenodd" clip-rule="evenodd" d="M246.217 107.957C247.273 106.848 248.431 105.836 249.674 104.936C249.043 104.156 248.416 103.428 247.808 102.723C244.703 99.1195 242.098 96.0976 242.119 89.7648C242.154 79.7751 250.044 69.2862 263.722 69.0361V69.0247L263.979 69.0309L264.235 69.0247V69.0361C277.914 69.2862 285.805 79.7751 285.838 89.7648C285.86 96.0979 283.255 99.1198 280.15 102.722C279.623 103.335 279.08 103.964 278.534 104.629C279.797 105.504 280.977 106.492 282.056 107.579C282.713 106.592 283.297 105.629 283.861 104.7C286.328 100.634 288.397 97.2231 294.426 95.2862C303.937 92.2309 316.352 96.4945 320.816 109.427L320.827 109.423L320.901 109.669L320.986 109.911L320.974 109.914C324.964 123 317.427 133.746 307.936 136.865C301.919 138.843 298.241 137.299 293.854 135.459C292.08 134.715 290.189 133.922 287.981 133.294C287.477 134.765 286.841 136.175 286.085 137.509C288.632 138.543 290.958 139.09 293.121 139.599C297.75 140.689 301.634 141.603 305.339 146.739C311.184 154.841 310.965 167.965 300.046 176.206L300.053 176.216L299.841 176.362L299.638 176.517L299.631 176.508C288.418 184.346 275.869 180.499 269.971 172.437C266.231 167.325 266.561 163.35 266.956 158.61C267.167 156.073 267.396 153.318 267.03 150.053C266.14 150.149 265.236 150.199 264.321 150.199C263.802 150.199 263.286 150.183 262.775 150.152C262.328 153.629 262.57 156.53 262.791 159.191C263.185 163.931 263.516 167.906 259.776 173.017C253.878 181.08 241.328 184.928 230.115 177.089L230.109 177.099L229.904 176.943L229.694 176.797L229.701 176.788C218.782 168.546 218.563 155.422 224.408 147.32C228.113 142.184 231.996 141.27 236.626 140.18C238.613 139.713 240.738 139.213 243.045 138.333C242.229 137.014 241.532 135.614 240.97 134.148C238.628 134.788 236.644 135.62 234.787 136.4C230.401 138.24 226.722 139.783 220.704 137.805C211.215 134.687 203.677 123.94 207.667 110.854L207.655 110.851L207.74 110.608L207.813 110.363L207.825 110.366C212.289 97.4351 224.703 93.1715 234.214 96.2258C240.245 98.1627 242.314 101.574 244.781 105.64C245.237 106.392 245.706 107.166 246.217 107.957Z" fill="white"/>
<path d="M264.562 102.031V120.283" stroke="#EF3D42" stroke-width="3" stroke-miterlimit="1.5" stroke-linecap="round" stroke-linejoin="bevel"/>
<path d="M240.036 119.632L257.395 125.272" stroke="#EF3D42" stroke-width="3" stroke-miterlimit="1.5" stroke-linecap="round" stroke-linejoin="bevel"/>
<path d="M249.271 148.247L259.999 133.481" stroke="#EF3D42" stroke-width="3" stroke-miterlimit="1.5" stroke-linecap="round" stroke-linejoin="bevel"/>
<path d="M279.25 148.399L268.521 133.632" stroke="#EF3D42" stroke-width="3" stroke-miterlimit="1.5" stroke-linecap="round" stroke-linejoin="bevel"/>
<path d="M288.787 119.783L271.428 125.424" stroke="#EF3D42" stroke-width="3" stroke-miterlimit="1.5" stroke-linecap="round" stroke-linejoin="bevel"/>
<path d="M264.496 106.364C266.884 106.364 268.82 104.428 268.82 102.04C268.82 99.6519 266.884 97.716 264.496 97.716C262.108 97.716 260.172 99.6519 260.172 102.04C260.172 104.428 262.108 106.364 264.496 106.364Z" fill="white"/>
<path fill-rule="evenodd" clip-rule="evenodd" d="M264.496 97.716C266.883 97.716 268.82 99.6528 268.82 102.037C268.82 104.424 266.883 106.361 264.496 106.361C262.111 106.361 260.172 104.424 260.172 102.037C260.172 99.6528 262.111 97.716 264.496 97.716ZM264.496 99.9885C265.626 99.9885 266.544 100.907 266.544 102.037C266.544 103.17 265.626 104.086 264.496 104.086C263.366 104.086 262.447 103.17 262.447 102.037C262.447 100.907 263.366 99.9885 264.496 99.9885Z" fill="#EF3D42"/>
<path d="M244.146 120.955C244.884 118.684 243.641 116.245 241.37 115.507C239.099 114.769 236.659 116.012 235.921 118.283C235.183 120.554 236.426 122.993 238.697 123.731C240.969 124.469 243.408 123.226 244.146 120.955Z" fill="white"/>
<path fill-rule="evenodd" clip-rule="evenodd" d="M235.921 118.283C236.659 116.012 239.099 114.769 241.367 115.506C243.637 116.243 244.881 118.684 244.143 120.954C243.406 123.222 240.965 124.468 238.695 123.73C236.427 122.993 235.185 120.551 235.921 118.283ZM238.083 118.985C238.432 117.91 239.59 117.321 240.664 117.67C241.741 118.02 242.329 119.177 241.979 120.251C241.63 121.326 240.475 121.916 239.398 121.566C238.324 121.217 237.734 120.059 238.083 118.985Z" fill="#EF3D42"/>
<path d="M251.765 144.766C249.833 143.362 247.129 143.791 245.725 145.723C244.322 147.655 244.75 150.359 246.682 151.762C248.614 153.166 251.318 152.737 252.721 150.806C254.125 148.874 253.697 146.17 251.765 144.766Z" fill="white"/>
<path fill-rule="evenodd" clip-rule="evenodd" d="M246.682 151.762C244.751 150.359 244.322 147.654 245.724 145.725C247.127 143.794 249.832 143.365 251.763 144.768C253.692 146.17 254.123 148.876 252.72 150.808C251.318 152.737 248.611 153.164 246.682 151.762ZM248.018 149.924C247.104 149.26 246.9 147.976 247.564 147.062C248.23 146.146 249.512 145.945 250.426 146.609C251.34 147.273 251.545 148.554 250.879 149.47C250.215 150.384 248.932 150.588 248.018 149.924Z" fill="#EF3D42"/>
<path d="M276.725 144.89C274.793 146.294 274.365 148.998 275.768 150.93C277.172 152.862 279.876 153.29 281.808 151.886C283.74 150.483 284.168 147.779 282.764 145.847C281.361 143.915 278.657 143.487 276.725 144.89Z" fill="white"/>
<path fill-rule="evenodd" clip-rule="evenodd" d="M281.808 151.886C279.877 153.29 277.171 152.861 275.77 150.932C274.367 149.001 274.795 146.296 276.726 144.892C278.655 143.491 281.363 143.918 282.766 145.849C284.168 147.778 283.737 150.485 281.808 151.886ZM280.472 150.048C279.558 150.712 278.275 150.509 277.61 149.595C276.945 148.679 277.15 147.397 278.064 146.733C278.978 146.069 280.26 146.27 280.925 147.186C281.589 148.1 281.386 149.384 280.472 150.048Z" fill="#EF3D42"/>
<path d="M284.624 121.117C285.362 123.388 287.802 124.631 290.073 123.893C292.344 123.155 293.587 120.716 292.849 118.445C292.111 116.174 289.672 114.931 287.4 115.669C285.129 116.407 283.887 118.846 284.624 121.117Z" fill="white"/>
<path fill-rule="evenodd" clip-rule="evenodd" d="M292.849 118.445C293.586 120.715 292.343 123.156 290.075 123.892C287.805 124.63 285.365 123.387 284.627 121.116C283.89 118.849 285.133 116.406 287.403 115.668C289.671 114.931 292.112 116.177 292.849 118.445ZM290.688 119.147C291.037 120.222 290.447 121.38 289.372 121.729C288.295 122.079 287.14 121.488 286.791 120.413C286.442 119.339 287.029 118.182 288.106 117.832C289.18 117.483 290.338 118.073 290.688 119.147Z" fill="#EF3D42"/>
<path d="M208.898 214.202L227.277 208.23C229.09 208.409 230.84 209.32 232.566 210.218C234.469 211.208 236.342 212.183 238.239 212.146C242.613 212.061 247.32 210.477 251.091 207.97C255.006 205.368 260.278 200.211 261.801 196.513L261.819 196.469C258.43 194.357 251.095 193.274 246.379 193.47C241.855 193.659 237.117 195.145 233.527 197.646C231.971 198.731 231.029 200.621 230.072 202.54C229.194 204.3 228.304 206.085 226.917 207.296L208.591 213.25C207.401 210.181 204.514 207.958 201.081 207.73V188.267C201.827 186.659 203.195 185.315 204.544 183.988C206.074 182.485 207.58 181.005 208.131 179.189C209.402 175.003 209.349 170.037 208.131 165.676C206.865 161.149 203.59 154.541 200.544 151.949L200.508 151.919C197.451 154.489 194.155 161.131 192.884 165.676C191.666 170.037 191.615 175.003 192.884 179.189C193.435 181.004 194.941 182.485 196.471 183.988C197.915 185.407 199.38 186.847 200.081 188.609V207.721C196.579 207.888 193.62 210.131 192.41 213.247L174.075 207.289C172.693 206.078 171.804 204.297 170.928 202.541C169.971 200.622 169.029 198.732 167.473 197.647C163.884 195.145 159.145 193.66 154.621 193.471C149.924 193.275 142.627 194.349 139.221 196.445L139.181 196.47C140.681 200.171 145.979 205.358 149.909 207.971C153.681 210.478 158.387 212.061 162.761 212.147C164.658 212.184 166.531 211.209 168.433 210.219C170.163 209.319 171.917 208.406 173.734 208.23L192.102 214.198C191.92 214.898 191.824 215.631 191.824 216.387C191.824 219.093 193.063 221.51 195.004 223.101L183.702 238.658C182.121 239.602 180.15 239.897 178.205 240.188C176.084 240.505 173.996 240.817 172.483 241.962C168.994 244.602 166.118 248.65 164.54 252.895C162.903 257.301 161.668 264.572 162.609 268.459L162.621 268.505C166.604 268.222 173.175 264.786 176.874 261.856C180.424 259.044 183.384 255.057 184.818 250.924C185.439 249.131 185.09 247.049 184.737 244.933C184.416 243.013 184.09 241.067 184.481 239.287L195.813 223.69C197.165 224.559 198.773 225.063 200.5 225.063C202.265 225.063 203.908 224.536 205.278 223.63L216.588 239.197C217.02 241.009 216.687 242.999 216.359 244.961C216.006 247.076 215.657 249.159 216.278 250.951C217.711 255.086 220.672 259.072 224.222 261.884C227.906 264.803 234.44 268.224 238.428 268.53L238.475 268.533C239.437 264.657 238.199 257.347 236.556 252.923C234.978 248.678 232.101 244.631 228.613 241.99C227.1 240.845 225.012 240.533 222.891 240.216C220.988 239.931 219.059 239.643 217.496 238.745L206.079 223.032C207.973 221.44 209.176 219.054 209.176 216.387C209.176 215.632 209.08 214.9 208.898 214.202Z" fill="white" stroke="white" stroke-width="2"/>
<path d="M200.57 252.543C220.549 252.543 236.745 236.347 236.745 216.369C236.745 196.39 220.549 180.194 200.57 180.194C180.592 180.194 164.396 196.39 164.396 216.369C164.396 236.347 180.592 252.543 200.57 252.543Z" stroke="#EF3D42" stroke-width="3" stroke-miterlimit="1.5" stroke-linecap="round" stroke-linejoin="round"/>
<path d="M225.679 180.974C225.841 180.751 226.154 180.701 226.377 180.863C226.601 181.026 226.65 181.338 226.488 181.562L201.389 216.107L241.999 229.302C242.262 229.387 242.405 229.669 242.32 229.932C242.235 230.194 241.953 230.338 241.69 230.253L201.081 217.058V259.757C201.081 260.033 200.857 260.257 200.581 260.257C200.305 260.257 200.081 260.033 200.081 259.757V217.057L159.472 230.251C159.21 230.337 158.928 230.193 158.842 229.93C158.757 229.668 158.901 229.386 159.163 229.3L199.771 216.106L174.674 181.563C174.512 181.34 174.562 181.027 174.785 180.865C175.009 180.703 175.321 180.752 175.484 180.975L200.581 215.519L225.679 180.974Z" fill="white" stroke="white" stroke-width="2" stroke-miterlimit="1.5" stroke-linecap="round" stroke-linejoin="round"/>
</g>
<defs>
<clipPath id="clip0">
<rect x="0.5" y="0.672852" width="400" height="483.21" fill="white"/>
</clipPath>
</defs>
</svg>
