<svg width="401" height="523" viewBox="0 0 401 523" fill="none" xmlns="http://www.w3.org/2000/svg">
<g clip-path="url(#clip0)">
<path d="M200.209 522.05C122.395 465.595 69.061 394.294 37.1483 304.105C8.20906 222.334 -3.40222 123.235 1.64434 1.15448L1.66528 0.672852H399.339L399.36 1.15448C404.396 123.235 392.784 222.324 363.856 304.105C331.943 394.294 278.609 465.595 200.795 522.05L200.502 522.259L200.209 522.05Z" fill="#E00E00"/>
<mask id="mask0" mask-type="alpha" maskUnits="userSpaceOnUse" x="53" y="0" width="295" height="460">
<path fill-rule="evenodd" clip-rule="evenodd" d="M130.226 459.848L200.386 0.673828L53.1036 343.263L53.1035 459.848H130.226Z" fill="#FFE000"/>
<path fill-rule="evenodd" clip-rule="evenodd" d="M270.774 459.848L200.614 0.673828L347.896 343.263L347.896 459.848H270.774Z" fill="#FFE000"/>
</mask>
<g mask="url(#mask0)">
<path d="M200.209 522.05C122.395 465.595 69.061 394.294 37.1483 304.105C8.20906 222.334 -3.40222 123.235 1.64434 1.15448L1.66528 0.672852H399.339L399.36 1.15448C404.396 123.235 392.784 222.324 363.856 304.105C331.943 394.294 278.609 465.595 200.795 522.05L200.502 522.259L200.209 522.05Z" fill="#FFE000"/>
</g>
</g>
<defs>
<clipPath id="clip0">
<rect x="0.5" y="0.672852" width="400" height="521.59" fill="white"/>
</clipPath>
</defs>
</svg>
