<svg width="401" height="499" viewBox="0 0 401 499" fill="none" xmlns="http://www.w3.org/2000/svg">
<g clip-path="url(#clip0)">
<path fill-rule="evenodd" clip-rule="evenodd" d="M1.03791 0.672852C-1.05252 103.154 4.41861 188.202 44.977 297.324C73.0328 372.82 119.202 442.124 200.579 498.956C281.956 442.124 328.126 372.82 356.182 297.324C396.74 188.202 402.211 103.154 400.121 0.672852C267.093 0.962912 134.065 0.672852 1.03791 0.672852V0.672852Z" fill="#32AC60"/>
<mask id="mask0" mask-type="alpha" maskUnits="userSpaceOnUse" x="0" y="0" width="401" height="499">
<path fill-rule="evenodd" clip-rule="evenodd" d="M1.03791 0.672852C-1.05252 103.154 4.41861 188.202 44.977 297.324C73.0328 372.82 119.202 442.124 200.579 498.956C281.956 442.124 328.126 372.82 356.182 297.324C396.74 188.202 402.211 103.154 400.121 0.672852C267.093 0.962912 134.065 0.672852 1.03791 0.672852V0.672852Z" fill="#32AC60"/>
</mask>
<g mask="url(#mask0)">
<path d="M0.5 352.673L400.5 0.672852H0.5V352.673Z" fill="#FFE000"/>
</g>
<path fill-rule="evenodd" clip-rule="evenodd" d="M235.786 352.919L228.147 351.082L240.015 335.051C232.832 334.503 222.875 331.692 216.33 328.033L196.841 334.954L189.242 330.492L208.801 323.079C202.897 318.717 196.244 311.115 192.427 306.116L169.196 300.534L169.77 293.437L188.225 297.75C185.112 290.886 182.905 280.986 182.54 274.221L165.406 256.257L168.695 250.45L182.934 264.759C183.21 256.578 186.97 247.742 190.574 240.586L183.412 216.247L190.044 215.435L195.374 233.045C199.233 227.831 207.752 219.606 214.587 215.992L218.134 192.639L224.827 193.966L221.622 212.587C226.775 210.043 238.67 207.151 245.263 207.466L261.242 189.713L267.152 192.806L253.87 207.973C260.483 208.297 270.487 211.562 277.162 215.384L299.323 206.342L303.543 211.668L284.22 219.71C290.997 224.211 297.797 232.319 300.515 237.144L327.989 241.705L325.607 248.959L304.953 245.589C308.223 252.374 310.666 262.432 310.401 269.668L329.893 283.939L326.997 292.103L310.086 279.444C309.134 285.882 307.596 292.702 303.782 300.16L312.909 323.87L306.827 328.768L298.747 308.801C294.777 314.14 287.688 321.429 282.127 324.596L278.422 348.342L270.55 350.473L273.677 329.416C268.288 332.241 256.157 335.883 248.858 335.401L235.786 352.919Z" fill="#FFE000"/>
<path fill-rule="evenodd" clip-rule="evenodd" d="M256.951 271.508L246.572 261.145L236.21 271.524L246.588 281.886L256.951 271.508Z" fill="#32AC60"/>
<path fill-rule="evenodd" clip-rule="evenodd" d="M250.424 253.337L250.504 224.532C256.347 225.254 263.325 226.545 270.271 230.627C275.767 233.857 281.536 239.293 285.821 245.308L261.063 260.102C258.511 256.762 254.745 254.487 250.424 253.337H250.424Z" fill="#32AC60"/>
<path fill-rule="evenodd" clip-rule="evenodd" d="M244.267 224.424C238.464 224.839 230.944 226.215 223.902 230.129C218.33 233.225 211.779 238.83 207.849 244.682L232.454 259.574C235.814 255.8 240.218 253.573 244.573 253.134L244.267 224.424Z" fill="#32AC60"/>
<path fill-rule="evenodd" clip-rule="evenodd" d="M243.412 318.608C237.893 318.244 230.503 316.663 223.502 312.677C217.961 309.524 212.348 304.608 207.757 298.432L232.238 283.092C235.124 286.896 239.851 289.132 243.617 289.774L243.412 318.608Z" fill="#32AC60"/>
<path fill-rule="evenodd" clip-rule="evenodd" d="M250.15 318.574C256.606 318.033 263.495 316.164 270.431 312.143C275.946 308.946 281.833 303.567 285.457 298.097L261.132 282.807C258.812 286.345 253.304 289.336 249.496 289.767L250.15 318.574Z" fill="#32AC60"/>
<path fill-rule="evenodd" clip-rule="evenodd" d="M204.286 292.924C201.997 287.501 199.359 279.63 199.43 271.574C199.486 265.2 200.948 256.998 204.487 250.167L229.45 264.684C227.681 268.413 227.459 273.529 229.188 277.945L204.286 292.924Z" fill="#32AC60"/>
<path fill-rule="evenodd" clip-rule="evenodd" d="M288.595 292.997C291.063 287.931 293.487 281.022 293.683 272.967C293.839 266.595 292.449 257.347 288.806 250.585L264.013 265.306C265.683 269.715 265.095 275.465 263.677 278.657L288.595 292.997Z" fill="#32AC60"/>
<path fill-rule="evenodd" clip-rule="evenodd" d="M109.06 153.629V160.506H106.56V168.508H104.059V176.509H124.276H144.493V168.508H141.992V160.506H139.491V153.629" fill="#32AC60"/>
<path fill-rule="evenodd" clip-rule="evenodd" d="M78.0534 153.629C78.0534 153.629 80.4502 160.615 80.3645 165.613C80.3077 168.927 83.6555 172.424 83.893 176.588L60.0376 176.509C60.0922 173.148 64.2053 169.336 64.0393 166.109C63.7955 161.371 64.9973 157.531 67.1549 153.629C61.1029 153.629 58.2048 153.631 58.231 151.182C58.3068 144.086 62.4911 140.899 66.7195 137.024C71.0748 133.033 72.2488 129.117 72.2047 120.671C72.1701 114.033 68.1523 107.781 62.8709 107.781H45.4257L45.3075 88.5094L37.15 94.533L29.3623 85.6651L124.276 15.5798L219.19 85.6651L211.402 94.533L203.244 88.5094L203.126 107.781H185.681C180.4 107.781 176.382 114.033 176.347 120.671C176.303 129.117 177.477 133.033 181.832 137.024C186.061 140.899 190.245 144.086 190.321 151.182C190.347 153.63 187.449 153.629 181.397 153.629C183.554 157.531 184.756 161.371 184.513 166.109C184.347 169.336 188.571 173.148 188.626 176.509L164.77 176.588C165.008 172.424 168.244 168.927 168.187 165.613C168.102 160.615 170.498 153.629 170.498 153.629H124.276H78.0534Z" fill="#32AC60"/>
<path fill-rule="evenodd" clip-rule="evenodd" d="M111.429 144.894V107.893C119.993 107.893 128.558 107.893 137.123 107.893V144.894C128.558 144.894 119.993 144.894 111.429 144.894V144.894Z" fill="#FFE000"/>
<path fill-rule="evenodd" clip-rule="evenodd" d="M118.651 79.669V57.7792C118.651 55.3863 121.429 53.4457 124.276 53.4457C127.123 53.4457 129.901 55.3863 129.901 57.7792V79.669C126.151 79.669 122.401 79.669 118.651 79.669V79.669Z" fill="#FFE000"/>
<path fill-rule="evenodd" clip-rule="evenodd" d="M110.531 64.2131V79.669C107.884 79.669 105.236 79.669 102.588 79.669V64.2131C102.588 62.5235 104.55 61.1533 106.56 61.1533C108.57 61.1533 110.531 62.5235 110.531 64.2131V64.2131Z" fill="#FFE000"/>
<path fill-rule="evenodd" clip-rule="evenodd" d="M145.964 79.669V64.2131C145.964 62.5235 144.002 61.1533 141.992 61.1533C139.982 61.1533 138.021 62.5235 138.021 64.2131V79.669H141.992H145.964Z" fill="#FFE000"/>
</g>
<defs>
<clipPath id="clip0">
<rect x="0.5" y="0.672852" width="400" height="498.28" fill="white"/>
</clipPath>
</defs>
</svg>
