<svg width="401" height="523" viewBox="0 0 401 523" fill="none" xmlns="http://www.w3.org/2000/svg">
<g clip-path="url(#clip0)">
<rect x="0.5" y="0.672852" width="400" height="521.59" fill="white"/>
<path d="M200.209 522.05C122.395 465.595 69.061 394.294 37.1483 304.105C8.20906 222.334 -3.40223 123.235 1.64434 1.15447L1.66528 0.672852H399.339L399.36 1.15447C404.396 123.235 392.784 222.324 363.856 304.105C331.943 394.294 278.609 465.595 200.795 522.05L200.502 522.259L200.209 522.05Z" fill="#E00E00"/>
<path fill-rule="evenodd" clip-rule="evenodd" d="M159.202 391.171C160.512 384.705 168.859 384.016 172.518 380.314C176.101 376.69 177.691 370.44 182.619 365.067C186.767 360.545 189.666 360.291 189.701 354.662C189.723 351.133 184.558 345.001 180.56 339.292C184.462 333.719 189.012 328.549 189.256 322.231C179.057 319.551 170.794 310.855 167.148 302.59C163.242 293.736 160.357 275.573 160.357 256.551C160.357 241.171 157.175 227.551 149.816 213.571H200.261H250.706C243.347 227.551 240.165 241.171 240.165 256.551C240.165 275.573 237.28 293.736 233.374 302.59C229.728 310.855 221.465 319.551 211.266 322.231C211.511 328.549 216.061 333.719 219.963 339.292C215.965 345.001 210.8 351.133 210.822 354.662C210.857 360.291 213.755 360.545 217.903 365.067C222.831 370.44 224.422 376.69 228.004 380.314C231.663 384.016 240.01 384.705 241.32 391.171H200.261H159.202Z" fill="white"/>
<path fill-rule="evenodd" clip-rule="evenodd" d="M59.7366 239.355C61.0467 232.889 69.394 232.2 73.0529 228.498C76.6352 224.875 78.2257 218.624 83.1538 213.251C87.3015 208.73 90.2 208.475 90.2352 202.846C90.2573 199.317 85.0921 193.185 81.0943 187.476C84.9962 181.903 89.5462 176.733 89.7905 170.415C79.5915 167.735 71.3288 159.039 67.6828 150.775C63.777 141.921 60.8917 123.757 60.8917 104.735C60.8917 89.3551 57.7097 75.7348 50.3505 61.7551H100.796H151.241C143.882 75.7348 140.7 89.3551 140.7 104.735C140.7 123.757 137.814 141.921 133.909 150.775C130.263 159.039 122 167.735 111.801 170.415C112.045 176.733 116.595 181.903 120.497 187.476C116.499 193.185 111.334 199.317 111.356 202.846C111.391 208.475 114.29 208.73 118.438 213.251C123.366 218.624 124.956 224.875 128.539 228.498C132.197 232.2 140.545 232.889 141.855 239.355H100.796H59.7366Z" fill="white"/>
<path fill-rule="evenodd" clip-rule="evenodd" d="M258.668 239.355C259.978 232.889 268.325 232.2 271.984 228.498C275.566 224.875 277.157 218.624 282.085 213.251C286.232 208.73 289.131 208.475 289.166 202.846C289.188 199.317 284.023 193.185 280.025 187.476C283.927 181.903 288.477 176.733 288.721 170.415C278.522 167.735 270.26 159.039 266.614 150.775C262.708 141.921 259.823 123.757 259.823 104.735C259.823 89.3551 256.641 75.7348 249.281 61.7551H299.727H350.172C342.813 75.7348 339.631 89.3551 339.631 104.735C339.631 123.757 336.745 141.921 332.84 150.775C329.194 159.039 320.931 167.735 310.732 170.415C310.976 176.733 315.526 181.903 319.428 187.476C315.43 193.185 310.265 199.317 310.287 202.846C310.322 208.475 313.221 208.73 317.369 213.251C322.297 218.624 323.887 224.875 327.47 228.498C331.128 232.2 339.476 232.889 340.786 239.355H299.727H258.668Z" fill="white"/>
</g>
<defs>
<clipPath id="clip0">
<rect x="0.5" y="0.672852" width="400" height="521.59" fill="white"/>
</clipPath>
</defs>
</svg>
