<svg width="401" height="523" viewBox="0 0 401 523" fill="none" xmlns="http://www.w3.org/2000/svg">
<g clip-path="url(#clip0)">
<path d="M200.209 522.05C122.395 465.595 69.061 394.294 37.1483 304.105C8.20906 222.334 -3.40223 123.235 1.64434 1.15447L1.66528 0.672852H399.339L399.36 1.15447C404.396 123.235 392.784 222.324 363.856 304.105C331.943 394.294 278.609 465.595 200.795 522.05L200.502 522.259L200.209 522.05Z" fill="#E00E00"/>
<path fill-rule="evenodd" clip-rule="evenodd" d="M191.53 440.929C185.327 434.832 179.05 429.462 179.007 421.408C178.951 410.825 185.414 409.417 188.13 401.795C191.236 393.075 183.355 383.527 177.183 378.533C129.996 340.354 99.8903 300.728 72.9608 253.102C39.3873 193.726 36.3375 115.548 41.945 82.2872C59.2643 113.356 76.1739 144.782 97.3629 171.457C128.373 210.497 150.949 252.164 168.289 290.275C178.876 313.546 184.438 337.167 186.989 362.569C187.682 369.464 195.71 370.93 195.731 364.892L196.34 190.428C196.358 185.303 194.006 183.831 191.484 181.947C188.11 180.976 185.608 182.658 180.318 189.451C187.235 194.23 187.319 204.167 182.484 212.642C178.103 220.322 179.077 222.505 178.164 227.903C172.509 225.86 170.68 220.88 169.287 217.815C166.88 218.956 162.408 220.778 159.159 221.33C158.191 218.845 157.273 214.249 157.42 210.952C153.739 210.831 149.441 210.004 145.093 206.402C152.963 201.987 153.922 199.373 158.747 194.314C165.885 186.829 170.39 185.291 175.161 187.09C178.168 183.802 181.697 179.327 185.182 177.243C188.5 175.258 193.725 175.198 196.378 177.319L196.543 134.331C196.563 129.087 194.971 130.116 192.863 126.876C191.722 125.124 183.394 129.932 182.62 134.365C186.343 137.244 188.189 144.818 184.588 152.869C182.187 158.238 179.89 162.387 178.771 167.378C176.239 165.375 173.292 159.787 172.542 157.784C169.023 159.526 165.923 160.416 162.174 161.086C161.237 158.306 160.813 154.501 161.569 150.913C158.169 151.419 154.07 150.939 150.399 148.853C156.189 143.957 158.599 139.613 162.984 134.823C167.699 129.673 173.71 129.875 177.632 131.63C179.342 128.605 181.618 126.337 184.631 124.506C188.31 122.27 193.303 121.67 196.572 121.76L196.706 83.4504C196.717 80.1737 192.621 78.5836 189.821 78.8752C186.574 79.2132 184.211 82.0129 183.471 85.1639C186.001 88.1514 187.129 93.2163 184.777 99.4661C183.178 103.715 178.559 105.951 176.873 115.997C174.761 115.09 171.052 110.459 170.304 108.241C167.365 109.715 164.36 110.202 160.842 110.603C160.079 108.128 159.325 104.63 159.681 101.249C156.603 101.218 152.665 99.3595 150.366 97.8384C157.641 94.104 160.052 86.9815 165.252 82.5656C169.85 78.6606 176.458 80.3043 179.055 81.5056C181.764 78.4644 183.953 75.1803 189.002 74.5467C192.543 74.1024 195.288 75.2964 196.731 76.1928L196.847 42.8331C196.86 39.3524 193.534 35.728 190.419 35.6206C187.985 35.5368 185.272 36.4817 183.9 39.5963C191.831 46.7261 181.413 58.4462 181.536 67.4144C178.606 66.7856 175.264 62.8501 174.282 60.3663C171.854 61.9558 168.438 63.8669 166.069 64.6558C165.147 62.5851 164.06 59.2565 164.271 56.6135C161.749 56.8904 157.465 56.8764 154.861 54.7848C163.9 47.3723 163.825 41.3905 170.816 37.7256C173.545 36.2949 177.1 36.6142 179.506 37.2424C182.927 32.2815 187.087 30.81 190.621 30.8613C194.766 30.9214 199.053 34.2668 200.261 37.7568C201.469 34.2668 205.757 30.9214 209.901 30.8613C213.436 30.81 217.596 32.2815 221.016 37.2424C223.422 36.6142 226.977 36.2949 229.706 37.7256C236.698 41.3905 236.623 47.3723 245.661 54.7848C243.058 56.8764 238.773 56.8904 236.251 56.6135C236.463 59.2565 235.376 62.5851 234.453 64.6558C232.084 63.8669 228.668 61.9558 226.24 60.3663C225.258 62.85 221.917 66.7855 218.986 67.4144C219.109 58.4462 208.691 46.7261 216.623 39.5963C215.25 36.4817 212.537 35.5368 210.103 35.6206C206.989 35.728 203.663 39.3524 203.675 42.8331L203.791 76.1928C205.234 75.2964 207.98 74.1024 211.521 74.5467C216.569 75.1803 218.759 78.4644 221.468 81.5056C224.064 80.3043 230.673 78.6606 235.271 82.5656C240.47 86.9815 242.881 94.104 250.156 97.8384C247.858 99.3595 243.919 101.218 240.841 101.249C241.197 104.63 240.444 108.128 239.68 110.603C236.163 110.202 233.158 109.715 230.218 108.241C229.471 110.459 225.762 115.09 223.65 115.997C221.964 105.951 217.344 103.715 215.745 99.4661C213.393 93.2163 214.521 88.1514 217.051 85.1639C216.311 82.0129 213.948 79.2132 210.702 78.8752C207.901 78.5836 203.805 80.1737 203.817 83.4504L203.95 121.76C207.219 121.67 212.212 122.27 215.892 124.506C218.904 126.337 221.18 128.605 222.891 131.63C226.812 129.875 232.824 129.673 237.538 134.823C241.923 139.613 244.333 143.957 250.123 148.853C246.452 150.939 242.354 151.419 238.954 150.913C239.71 154.501 239.285 158.306 238.348 161.086C234.6 160.416 231.499 159.526 227.981 157.784C227.231 159.787 224.283 165.375 221.752 167.378C220.632 162.387 218.335 158.238 215.934 152.869C212.334 144.818 214.179 137.244 217.902 134.365C217.128 129.932 208.8 125.124 207.66 126.876C205.551 130.116 203.96 129.087 203.98 134.331L204.144 177.319C206.797 175.198 212.023 175.258 215.34 177.243C218.825 179.327 222.355 183.802 225.362 187.09C230.132 185.291 234.638 186.829 241.776 194.314C246.6 199.373 247.56 201.987 255.43 206.402C251.081 210.004 246.783 210.831 243.102 210.952C243.25 214.249 242.331 218.845 241.364 221.33C238.114 220.778 233.642 218.956 231.236 217.815C229.843 220.88 228.014 225.86 222.359 227.903C221.446 222.505 222.42 220.322 218.039 212.642C213.204 204.167 213.288 194.23 220.205 189.451C214.915 182.658 212.412 180.976 209.039 181.947C206.517 183.831 204.165 185.303 204.183 190.428L204.792 364.892C204.813 370.93 212.841 369.464 213.533 362.569C216.084 337.167 221.647 313.546 232.234 290.275C249.573 252.164 272.15 210.497 303.16 171.457C324.349 144.782 341.258 113.356 358.577 82.2872C364.185 115.548 361.135 193.726 327.562 253.102C300.632 300.728 270.526 340.354 223.34 378.533C217.168 383.527 209.286 393.075 212.393 401.795C215.109 409.417 221.571 410.825 221.515 421.408C221.472 429.462 215.195 434.832 208.993 440.929C205.078 444.778 201.811 450.143 200.261 450.143C198.712 450.143 195.444 444.778 191.53 440.929Z" fill="#FFE000"/>
</g>
<defs>
<clipPath id="clip0">
<rect x="0.5" y="0.672852" width="400" height="521.59" fill="white"/>
</clipPath>
</defs>
</svg>
