<svg xmlns="http://www.w3.org/2000/svg" fill="none" viewBox="0 0 400 667">
  <path fill="#C7A65B" d="M78.881 55.114c3.333 7.102 18.927 40.71 22.458 48.169-.952.675-1.904 1.35-2.817 2.064l.278.595 15.276 32.695c22.18-14.681 46.265-23.609 71.263-26.108 4.96-.516 9.999-.794 15.078-.794 10.832 0 21.386 1.19 31.584 3.531 18.688 4.127 36.663 11.864 53.605 22.974l14.443-31.068 1.191-2.579a246.318 246.318 0 0 0-3.373-2.381c3.294-6.944 18.808-40.155 22.141-47.336l6.586 3.69 9.444-16.784-8.967-5.04-4.167 7.46-5.237-2.936 4.206-7.46-8.968-5.039-4.166 7.46-5.277-2.976 4.206-7.46-8.968-5.039-9.443 16.784 6.983 3.889c-.476.753-1.19 1.785-2.063 3.094l-5.872-2.182-1.865 4.96-3.492-1.27 1.865-4.92-7.499-2.698-1.865 4.96-3.492-1.27 1.865-4.96-5-1.785c.397-1.984.715-3.571.953-4.643l7.261 2.064 5.238-18.49-9.92-2.818-2.341 8.214-5.793-1.627 2.341-8.214-9.92-2.817-2.341 8.214-5.793-1.627 2.341-8.214-9.92-2.817-5.237 18.53 7.658 2.182c-.357.953-.873 2.381-1.508 4.127l-5.714-.913-.833 5.238-3.769-.595.833-5.238-7.976-1.27-.833 5.238-3.73-.595.834-5.238-6.309-1.031c-.119-1.548-.199-2.778-.278-3.65h7.539V.118h-10.317V8.65h-6.031V.119h-10.316V8.65h-6.031V.119h-10.317v19.244h7.976c-.08.873-.159 2.143-.278 3.69l-6.309 1.032.833 5.238-3.769.595-.833-5.238-7.936 1.31.833 5.237-3.769.595-.834-5.237-6.031.952a221.255 221.255 0 0 1-1.547-4.325l7.539-1.865-4.643-18.688-9.999 2.46 2.064 8.292-5.833 1.469-2.063-8.333-9.999 2.46 2.063 8.293-5.873 1.428-2.063-8.293-9.999 2.5 4.603 18.689 7.578-1.865c.199 1.032.477 2.897.913 5.357l-5.714 2.102 1.865 4.96-3.571 1.31-1.825-4.96-7.579 2.777 1.826 4.96-3.572 1.31-1.825-4.92-6.031 2.221c-.833-1.27-1.547-2.3-2.023-3.055l6.586-3.69-9.443-16.784-8.968 5.04 4.206 7.459-5.237 2.936-4.206-7.46-8.968 5.04 4.206 7.46-5.237 2.935-4.166-7.459-8.968 5.04 9.444 16.743 6.943-3.888-.079-.08Z"/>
  <path fill="#C1C2C1" d="M200.099 666.561c-53.486 0-103.76-28.926-141.494-81.421C20.95 532.765.198 463.168.198 389.168c0-74.001 20.752-143.637 58.407-195.973 37.774-52.495 88.008-81.42 141.494-81.42 53.487 0 103.72 28.925 141.494 81.42C379.248 245.571 400 315.167 400 389.168c0 74-20.752 143.597-58.407 195.972-37.774 52.495-88.007 81.421-141.494 81.421Z"/>
  <path fill="#0258A4" d="M199.861 154.707c-85.229 0-154.548 104.394-154.548 232.675s69.319 232.675 154.548 232.675c85.23 0 154.548-104.394 154.548-232.675s-69.318-232.675-154.548-232.675Z"/>
  <path fill="#010101" d="M375.955 391.112c0 3.611-1.191 6.348-3.611 8.134-1.151.833-2.539 1.27-4.246 1.27-2.38 0-4.245-.913-5.594-2.818-1.389-1.864-2.103-4.523-2.103-7.975s.555-6.071 1.706-8.253c1.19-2.301 2.738-4.127 4.642-5.515 1.984-1.389 4.206-2.103 6.627-2.103l1.388 1.23-.555.635a6.327 6.327 0 0 0-1.191-.12c-1.825 0-3.412.715-4.761 2.143-.635.635-1.151 1.468-1.627 2.421-.754 1.626-1.27 3.888-1.508 6.745 1.588-1.587 2.54-2.421 2.857-2.54.754-.357 1.627-.515 2.619-.515 1.508 0 2.778.595 3.77 1.825 1.071 1.309 1.587 3.134 1.587 5.436Zm-4.286 2.063c0-1.944-.317-3.452-1.031-4.483-.595-.992-1.468-1.469-2.579-1.469-1.389 0-2.302.635-2.778 1.945-.198.595-.317 1.428-.317 2.499 0 2.778.476 4.722 1.428 5.873.556.635 1.23.952 2.103.952 2.063 0 3.135-1.786 3.135-5.317M393.413 390.557c0 2.698-.952 5.039-2.936 6.943-2.023 1.984-4.484 2.976-7.38 2.976-1.27 0-2.619-.278-4.087-.873-.079-.714-.436-2.46-1.151-5.277l.119-.278.834-.317.238.119c1.19 2.896 3.055 4.364 5.674 4.364 1.865 0 3.134-.872 3.888-2.579a7.092 7.092 0 0 0 .516-2.698c0-1.706-.397-3.015-1.27-4.007-.833-.992-2.023-1.468-3.531-1.468-1.349 0-2.658.555-4.008 1.587l-.714-.397c.159-2.42.238-4.404.238-5.952v-2.619c0-1.865-.079-3.809-.277-5.872l.238-.199c2.856.159 5.237.199 7.181.199 1.27 0 3.056-.079 5.357-.199l.159.318a21.613 21.613 0 0 0-.199 2.698c0 .318 0 .754.04 1.309l-.198.239a95.5 95.5 0 0 0-5.198-.12c-2.421 0-4.167.04-5.238.159l-.119 6.19c1.706-.873 3.293-1.309 4.762-1.309 2.182 0 3.848.635 5.118 1.944 1.23 1.27 1.865 3.015 1.865 5.158M21.545 399.722l-.198.238c-1.667-.119-3.65-.158-6.031-.158-2.38 0-4.761.039-7.301.158l-.198-.198v-1.151l.198-.198c.595-.08 1.19-.119 1.746-.199 1.032-.079 1.666-.198 1.944-.317.198-.119.397-.317.516-.674.198-.596.317-2.976.317-7.182v-4.682c0-1.429 0-3.214-.04-5.357v-1.428c-.039-.635-.158-.953-.436-.953-.08 0-.436.159-1.031.437a346.647 346.647 0 0 0-4.167 2.103l-.198-.119a21.192 21.192 0 0 0-.397-2.381v-.159c3.254-.992 6.904-2.301 10.912-3.928l.357.278c-.04.754-.12 1.825-.198 3.293-.04.556-.08 2.024-.12 4.444l-.079 7.42c0 5.317.08 8.174.238 8.531.12.278.318.476.556.516.436.119 1.508.238 3.333.317l.238.199v1.15h.04ZM40.075 391.191c0 3.611-1.23 6.349-3.61 8.134-1.111.873-2.54 1.27-4.246 1.27-2.38 0-4.246-.912-5.595-2.777-1.389-1.905-2.103-4.524-2.103-7.976s.556-6.071 1.667-8.253c1.19-2.301 2.738-4.126 4.642-5.515 1.984-1.389 4.166-2.103 6.627-2.103l1.388 1.23-.555.635a6.008 6.008 0 0 0-1.19-.119c-1.826 0-3.413.714-4.762 2.142-.595.635-1.15 1.468-1.587 2.421-.754 1.626-1.27 3.888-1.508 6.705 1.587-1.587 2.54-2.42 2.857-2.539.754-.357 1.627-.516 2.619-.516 1.508 0 2.777.595 3.77 1.825 1.07 1.31 1.626 3.135 1.626 5.436m-4.285 2.103c0-1.944-.357-3.452-1.032-4.483-.595-.992-1.468-1.469-2.579-1.469-1.389 0-2.301.635-2.777 1.945-.199.595-.318 1.428-.318 2.5 0 2.777.476 4.721 1.428 5.872.556.635 1.23.952 2.104.952 2.063 0 3.134-1.785 3.134-5.317"/>
  <path fill="#010101" d="m21.545 399.722-.198.238c-1.667-.119-3.65-.158-6.031-.158-2.38 0-4.761.039-7.301.158l-.198-.198v-1.151l.198-.198c.595-.08 1.19-.119 1.746-.199 1.032-.079 1.666-.198 1.944-.317.198-.119.397-.317.516-.674.198-.596.317-2.976.317-7.182v-4.682c0-1.429 0-3.214-.04-5.357v-1.428c-.039-.635-.158-.953-.436-.953-.08 0-.436.159-1.031.437a346.647 346.647 0 0 0-4.167 2.103l-.198-.119a21.192 21.192 0 0 0-.397-2.381v-.159c3.254-.992 6.904-2.301 10.912-3.928l.357.278c-.04.754-.12 1.825-.198 3.293-.04.556-.08 2.024-.12 4.444l-.079 7.42c0 5.317.08 8.174.238 8.531.12.278.318.476.556.516.436.119 1.508.238 3.333.317l.238.199v1.15h.04ZM40.075 391.191c0 3.611-1.23 6.349-3.61 8.134-1.111.873-2.54 1.27-4.246 1.27-2.38 0-4.246-.912-5.595-2.777-1.389-1.905-2.103-4.524-2.103-7.976s.556-6.071 1.667-8.253c1.19-2.301 2.738-4.126 4.642-5.515 1.984-1.389 4.166-2.103 6.627-2.103l1.388 1.23-.555.635a6.008 6.008 0 0 0-1.19-.119c-1.826 0-3.413.714-4.762 2.142-.595.635-1.15 1.468-1.587 2.421-.754 1.626-1.27 3.888-1.508 6.705 1.587-1.587 2.54-2.42 2.857-2.539.754-.357 1.627-.516 2.619-.516 1.508 0 2.777.595 3.77 1.825 1.07 1.31 1.626 3.135 1.626 5.436m-4.285 2.103c0-1.944-.357-3.452-1.032-4.483-.595-.992-1.468-1.469-2.579-1.469-1.389 0-2.301.635-2.777 1.945-.199.595-.318 1.428-.318 2.5 0 2.777.476 4.721 1.428 5.872.556.635 1.23.952 2.104.952 2.063 0 3.134-1.785 3.134-5.317M135.145 165.856v.278c-1.031.675-2.539 1.825-4.563 3.413-2.063 1.626-3.531 2.817-4.404 3.61h-.238l-.794-1.071v-.278c.953-.833 1.508-1.309 1.587-1.468.239-.317.238-.635.04-.952-.436-.833-1.627-2.5-3.531-4.92l-2.897-3.73c-.555.357-2.142 1.547-4.761 3.611-2.421 1.904-4.008 3.174-4.762 3.849l2.897 3.69c1.904 2.46 3.214 4.007 3.928 4.642.278.238.595.317.952.159.159-.08.754-.476 1.826-1.151h.277l.794 1.071v.238c-1.032.715-2.54 1.826-4.563 3.413-2.063 1.627-3.532 2.817-4.405 3.571h-.238l-.833-1.072v-.238c.952-.833 1.508-1.349 1.587-1.468.238-.317.238-.634.04-.952-.436-.833-1.627-2.5-3.531-4.92l-6.389-8.134c-1.904-2.46-3.214-3.968-3.928-4.643-.278-.277-.595-.317-.952-.198-.159.079-.794.476-1.825 1.19h-.278l-.833-1.111v-.238c1.031-.674 2.54-1.825 4.563-3.412 2.103-1.627 3.571-2.857 4.404-3.611h.238l.833 1.111v.238c-.992.834-1.507 1.349-1.626 1.468-.199.318-.239.596-.04.953.436.833 1.627 2.499 3.571 4.92l1.984 2.539c1.071-.754 2.5-1.825 4.285-3.253 2.817-2.222 4.563-3.611 5.238-4.206l-1.984-2.54c-1.905-2.46-3.214-3.968-3.928-4.642-.278-.238-.596-.318-.953-.199-.158.08-.793.477-1.825 1.191h-.278l-.833-1.072v-.238c1.032-.674 2.54-1.825 4.563-3.412 2.103-1.666 3.571-2.857 4.404-3.611h.278l.833 1.072v.238c-.992.833-1.507 1.349-1.626 1.507a.836.836 0 0 0-.04.953c.476.833 1.666 2.46 3.571 4.92l6.388 8.134c1.905 2.42 3.214 3.968 3.928 4.642.278.239.596.318.953.199.158-.08.793-.476 1.825-1.19h.278l.793 1.071v.039ZM167.682 150.779l-.08.238c-2.539.992-4.087 1.587-4.602 1.825-2.064.873-4.008 1.706-5.754 2.579l-.238-.119-.476-1.151.079-.277 1.429-.715c.595-.317.793-.674.635-1.111-.08-.238-.516-.753-1.191-1.507l-3.015-3.214c-1.548.635-3.175 1.309-4.801 1.984-.873.396-2.183.952-3.929 1.706l.159 2.5c.159 1.904.318 3.055.476 3.491.199.476.556.635 1.151.476.317-.079.913-.277 1.786-.595l.238.119.476 1.151-.119.238c-2.143.833-3.492 1.349-4.087 1.587-.476.199-1.587.714-3.413 1.587l-.238-.079-.476-1.151.119-.278c1.151-.555 1.746-1.11 1.825-1.666.08-.516 0-3.452-.198-8.769l-.555-13.649c-.04-1.032-.159-2.619-.278-4.762l2.42-1.032 18.49 18.649c.715.715 1.231 1.072 1.548 1.032.436 0 .992-.159 1.706-.476l.238.119.476 1.151.199.119Zm-14.88-5.158-7.618-7.896.516 10.911c.952-.357 2.142-.833 3.65-1.468a75.582 75.582 0 0 0 3.492-1.547M194.901 140.105c0 1.905.119 4.087.437 6.428l-.159.238-13.292 1.587c-2.222.278-3.809.516-4.682.715l-.238-.159-.08-.556.08-.238c.833-.714 1.269-1.19 1.309-1.349.079-.238.04-1.111-.119-2.579l-.516-4.365-1.23-9.84c-.397-3.095-.714-5.079-1.032-5.991-.079-.397-.317-.596-.714-.635-.198 0-.912 0-2.182.079l-.199-.159-.198-1.309.159-.198c1.27-.08 3.095-.278 5.515-.596 2.5-.317 4.404-.595 5.714-.833l.198.159.159 1.349-.159.198c-1.23.238-1.944.397-2.103.477-.317.158-.516.396-.516.793 0 .952.159 2.976.556 6.031l1.468 11.626c.238 1.706.476 3.333.714 4.92l2.5-.317c3.571-.437 5.714-.873 6.468-1.27.119-.079.198-.159.277-.238.08-.198.159-.595.199-1.19l.119-2.46.159-.238 1.111-.159.198.159.079-.08ZM235.016 135.622c-.754 4.364-2.698 7.737-5.872 10.157a13.09 13.09 0 0 1-5.317 2.46c-2.143.476-4.523.476-7.182 0l-6.388-1.19c-1.746-.318-3.174-.516-4.365-.595l-.158-.238.079-.556.119-.198c.992-.437 1.547-.754 1.666-.913.159-.198.358-1.071.635-2.539l.794-4.325 1.627-9.761c.515-3.055.793-5.079.754-6.031 0-.397-.159-.675-.477-.834-.158-.079-.872-.277-2.103-.555l-.158-.238.238-1.31.198-.158c1.27.317 2.5.555 3.651.754 2.817.476 5.396.873 7.658 1.19 1.15.159 2.261.317 3.412.516 3.174.516 5.515 1.309 7.063 2.381 1.706 1.15 2.936 2.698 3.65 4.682.754 2.023.913 4.444.437 7.301m-5.714 0c.595-3.572.238-6.428-1.071-8.65-.675-1.151-1.627-2.024-2.818-2.659-1.15-.595-2.817-1.071-4.999-1.428a18.816 18.816 0 0 0-3.293-.318c-.357 1.429-.992 4.881-1.945 10.436l-1.388 8.451c-.318 1.865-.477 3.135-.516 3.77 1.031.357 2.142.635 3.253.833 2.421.397 4.365.357 5.913-.159 1.626-.555 3.055-1.746 4.285-3.531 1.27-1.865 2.103-4.087 2.539-6.745M261.799 156.889c-1.071 1.587-2.103 3.492-3.134 5.674l-.278.08-12.023-5.873a130.873 130.873 0 0 0-4.324-1.944l-.08-.278.238-.476.199-.159c1.111-.158 1.706-.317 1.825-.436.238-.159.674-.913 1.309-2.262l1.944-3.928 4.246-8.967c1.349-2.818 2.143-4.682 2.381-5.595.119-.357 0-.675-.278-.913-.159-.119-.754-.476-1.865-1.111l-.079-.238.595-1.19.238-.079c1.071.595 2.817 1.468 5.158 2.579 2.103.992 6.071 2.857 11.944 5.555l.119.238-1.191 1.865c-.357.595-.674 1.111-.912 1.507l-.913 1.588-.238.119-.952-.477-.08-.238c.754-1.587 1.111-2.539 1.032-2.856-.04-.239-.595-.635-1.587-1.23-1.032-.596-1.945-1.112-2.738-1.469-.952-.476-1.984-.873-2.976-1.269-.714 1.19-1.587 2.857-2.619 5.079l-1.746 3.65c.834.476 1.548.833 2.064 1.111l2.182 1.032c.992.476 1.627.674 1.865.555.278-.119.754-.873 1.468-2.222l.278-.079 1.031.476.08.278a146.416 146.416 0 0 0-1.786 3.571c-.555 1.19-1.15 2.5-1.785 3.928l-.238.079-1.111-.516-.08-.277c.635-1.349.953-2.183.873-2.54-.039-.357-.516-.754-1.389-1.269-.634-.397-1.349-.754-2.103-1.111a33.115 33.115 0 0 0-2.301-.992l-2.579 5.396c-.714 1.547-1.428 3.055-2.063 4.523l2.261 1.071c3.214 1.548 5.278 2.342 6.151 2.421.158 0 .277 0 .357-.079.198-.12.436-.397.833-.913l1.428-2.024.278-.119.992.476.119.278h-.04ZM305.843 165.261h-.318c-1.031-.714-1.627-1.111-1.785-1.19-.357-.119-.635-.079-.953.159-.714.635-2.063 2.142-4.007 4.563l-5 6.15c-3.69 4.563-6.031 7.578-7.023 9.047h-.317c-.913-1.072-1.627-1.865-2.103-2.421-.08-5.118.079-14.244.436-27.299l-8.054 9.92c-1.945 2.42-3.135 4.047-3.611 4.88-.199.318-.199.635 0 .953.119.158.635.674 1.547 1.508v.277l-.833 1.032h-.238a116.652 116.652 0 0 0-2.976-2.54 76.293 76.293 0 0 0-3.373-2.579v-.277l.794-1.032h.278c1.031.714 1.627 1.111 1.785 1.19.357.119.675.08.952-.158.715-.635 2.064-2.143 4.008-4.563l6.507-8.055c1.945-2.421 3.175-4.047 3.651-4.881.198-.317.198-.674 0-.952-.119-.159-.635-.674-1.548-1.508v-.277l.834-1.032h.238a58.187 58.187 0 0 0 2.539 2.182 56.636 56.636 0 0 0 3.293 2.5c-.515 7.658-.674 16.149-.555 25.474l7.182-8.888c1.984-2.421 3.174-4.048 3.65-4.881.199-.317.199-.635-.04-.952-.119-.159-.634-.675-1.547-1.508v-.278l.833-1.031h.238c1.032.912 2.024 1.746 2.976 2.539 1.23.992 2.341 1.865 3.373 2.579v.278l-.794 1.032-.039.039Z"/>
  <path fill="#3B4449" d="m286.519 579.982-6.944-5.237-6.824-4.048-5.595-3.174-4.563-1.944-4.325-.357-3.214-.159-1.746 1.23.714 4.563-5.634 2.46-7.023-.873-5.436-3.69-8.928-4.404-14.046-7.182-3.69.873-2.301-.714-3.333 1.944h-4.405l-39.48 18.411-8.253-3.492-1.389-2.46-4.206-.555-5.436 1.944-9.126 3.492-9.483 3.848-4.523 2.976-.278.238c23.966 23.014 52.415 36.346 82.888 36.346 32.1 0 61.939-14.8 86.659-40.115"/>
  <path fill="#010101" d="M301.2 303.422c-7.301-1.825-15.316-1.984-21.347-7.023-5.912-14.999-12.499-29.918-21.188-43.964-4.365-3.769-2.936-9.8-8.412-13.173-2.817-3.373-8.015-2.817-11.666-1.825-7.856 1.944-4.642 12.221-8.411 17.538-2.937.277-4.484-2.937-7.023-3.929-.992-1.944.119-3.928 1.825-5.197-1.826-13.332 2.103-26.387-1.825-38.767l6.586-7.023c6.587-5.634 0-13.213 0-19.799-1.547-4.365-6.031-4.762-10.277-4.365l-3.65-3.373c-7.023-3.214-8.967 7.024-16.149 3.373-1.944-.992-3.809-3.095-6.19-1.825-2.54 4.087-7.579.833-9.959 5.475-9.96 1.389-1.826 11.23-6.865 15.713.437 5.476-2.539 9.404-1.547 15.038-1.389 2.381-3.373 1.548-5.476 1.548-1.825.278-4.206 1.825-3.214 4.365-.278 1.666-2.262 1.111-3.373 1.825-1.111 1.825-.833 4.761 0 6.586.278.715.992 1.389 1.826 1.111 1.111 1.27 1.825 2.54 1.547 4.365 1.944 4.365 7.301 3.809 11.348 5.198 3.928 0 4.087-6.309 8.015-5.198.834 3.809 2.817 7.142 2.54 11.388 3.214 16.982-16.15 16.427-23.728 26.703-7.182-15.038-13.213-30.631-19.522-46.066-.992-1.27-2.262-2.103-3.65-2.659-1.548 2.659 0 5.595 0 8.412 6.189 14.88 12.062 29.759 16.863 45.075-1.825 2.658-4.047 5.198-4.761 8.412-3.532 6.864 1.111 14.443-2.54 21.347 5.039 3.492-3.65 7.975.397 12.34-.397 1.706 0 3.531-1.111 4.761.119 10.515-6.19 18.252-4.365 29.362 4.087 4.921 11.944 2.223 16.427 6.865 2.659.833 6.031-.159 8.015 2.262-.714 4.761-.833 10.395-1.825 14.601-.992 2.937-2.817 6.746-.714 9.563.436.833 1.27 1.825.436 2.658-1.269 3.214-1.269 7.857 1.389 10.515-3.65 7.023-1.944 16.427-2.936 24.601-.119 20.077 9.562 36.504 8.134 56.701.992 2.817 4.206 4.801 1.389 7.737-3.095 18.53 1.547 38.052-1.111 56.423l-4.365 10.515c-6.15 5.039-13.054 9.245-17.974 15.038-2.54.992-4.643 5.317-7.738 2.936-8.689 3.254-16.863 8.134-25.553 11.388.437.555 0 1.547.278 1.547l1.111-1.15c1.825-.278 4.206 0 4.484 2.103 1.388.833 2.539 1.269 3.928 0 0-.278.119-.834-.278-.953-.714-1.269-.714-3.372.992-3.65 2.262.714 2.817 2.658 2.936 4.642h.834c.277-1.666-2.262-4.047-.834-5.753 1.548-1.111 3.373.278 3.651 1.825.436-.992-.556-1.389-.714-2.262.555-1.269 1.666-3.094 3.372-1.825 2.103 1.27 1.825 3.532 2.936 5.198.715.278 1.112-.555 1.826-.833 1.944 2.658 3.095-3.532 5.475-.278-1.269-1.389-1.269-4.206-3.65-4.087-1.389-1.111-.714-3.095.714-4.087-.119 2.659 2.936 1.548 3.254 3.373 3.65 1.27 6.586 3.531 10.673 3.65 13.451-5.475 27.379-10.832 39.6-18.688.833 1.547 0 4.364-.834 6.19l2.937-3.928 1.547.674.278-2.222c.714-1.389 2.38-2.817 3.65-2.262 1.548 2.937-1.547 5.595-.992 8.135l2.103-1.548c-1.27-.992-.436-2.817-.714-4.365.278-2.38 2.817-2.261 4.761-2.261 8.849 6.031 19.522 7.578 27.815 14.998 4.365.278 9.682 1.548 13.61-1.389.278-1.706 2.262-3.65.714-5.197 0-.953 1.27-.953 1.825-1.389h-.714c-3.214-11.943-21.625-9.801-18.411-24.561 1.27-14.205 9.245-25.553 9.959-39.877-1.666-9.126-1.388-18.094-1.111-27.537 1.27-2.936.834-5.595.397-8.69.556-1.15 0-3.531 2.103-2.976 5.476-25.275 9.404-49.995 6.587-77.373-2.262-3.095-5.912-6.468-4.365-10.237 8.412 7.46 13.61 23.728 28.212 20.236 4.92-2.817 6.031-7.856 7.301-12.499 1.666-19.085.119-38.329-1.389-57.534 3.65-6.745 9.84-12.221 17.141-14.879.278-2.262 1.667-5.039-1.389-5.912m-84.118 223.43c.158 8.848-.715 17.141-4.087 24.561-.278 1.706-.714 3.65-1.825 4.762-.119-1.112.555-4.088-1.826-4.088l-10.673 2.937c-2.262-4.762-.159-10.515-.278-15.713 1.944-16.268 7.856-30.751 8.412-47.575-5.912-7.142 3.254-13.609.714-22.021 0-2.936-5.198-5.912-.397-8.015-.992-5.198 1.826-9.563 1.826-14.761.277-9.404 2.261-18.53 4.047-27.1 3.095 17.141 6.586 36.226 2.539 53.923-.278 4.642 3.809 8.729.714 13.213-8.411 11.943.556 26.545.834 39.877Z"/>
  <path fill="#C7A65B" d="M214.304 174.824c-1.111 1.825-1.825 4.761-.992 6.587 2.817-1.429 7.023-1.826 9.801-1.111.277 1.666-1.667 1.269-2.54 1.825-.555 2.262.715 3.65 1.826 5.198 2.936.992 1.269-3.095 3.65-2.937 1.825 2.54-3.373 6.309 1.389 7.301h2.261c.834.834 0 1.826-.436 2.54-1.27 1.389-2.381-.992-3.928-.714-1.944.833-3.492 2.38-4.087 4.087.992 1.111 2.817.555 2.539 2.539-.436 1.111-1.706.555-2.539.714-1.389-1.27-1.389-4.206-3.651-4.364-1.269.833-.833 2.936-.436 4.047.833 2.261 5.753-.278 4.047 3.253-2.936.556-7.459.992-8.412-2.539-3.214-4.484 3.929-13.888-4.761-12.777-3.095-1.269-8.134 0-6.587-5.475.159-.834 0-1.389-.714-1.984-2.539 1.666-1.111 4.206-2.539 6.586-.834.119-1.389 0-1.826-.714-.436-1.547.834-2.658-1.111-3.214-2.936-1.825-5.753 1.825-8.848.714.714 2.818-5.912 4.762-1.389 7.024 2.937 0 6.428-1.945 9.126.277 1.984.556.715 3.254 1.111 4.762-.555 2.381-3.491-.159-3.65 2.261 4.365 7.738-8.293 3.214-3.651 10.515.992 2.262 1.27 4.762 0 7.023-2.658 3.373-4.92-3.65-6.586.715-.833 4.761 8.134 2.936 3.928 7.737-1.825.159-4.484-2.817-5.476.436.437 2.262 3.651 1.27 3.373 3.651-2.539 3.492-8.729-2.936-8.134 3.65-.992-4.92-7.856.556-8.015-4.761-.714-2.659-5.753-5.595-2.54-8.848 1.389-.834 3.651.436 4.762-1.429v-2.936c2.103-.833 6.587.436 8.015-2.54-2.103-5.912 5.595-8.848 1.825-14.046-.952-4.087 6.746-6.586 1.151-9.84-.833-4.761 6.031-2.539 5.039-7.301 1.547-1.825 2.817-.833 4.761-1.111 1.984-1.984 3.373-5.198 6.587-3.65 3.095 1.269 4.484 5.356 8.412 3.214 2.381-2.381 5.317-6.468 9.126-4.365"/>
  <path fill="#C7A65B" d="M208.114 197.56c.278 5.039 2.103 9.562 5.198 13.49 3.928-.436 7.182 2.103 9.404 4.762v1.547c-3.928-1.111-7.698-4.92-12.34-5.475-3.214-1.825-.556-6.031-2.936-8.134-2.818 1.111-1.389 4.483-3.373 6.308l-7.579 5.04c.159-6.031 2.103-12.777 4.365-18.689 1.27-4.087 6.587-1.984 7.301 1.111"/>
  <path fill="#C7A65B" d="M217.24 218.47c8.571 3.651.556 11.388 4.087 17.141-.159 1.707-.833 4.206-2.936 2.976-1.706-1.428-4.484-1.825-5.039-4.364-.556-2.103-.714-5.04.992-6.587 1.666.119 3.214-.278 4.483-1.111l-2.261-3.373c.714-1.269 2.817-.277 2.539-2.103-2.539.715-7.737-.555-8.412 3.651l.397 9.126c-.397.992-1.389.674-2.262.674-1.111-.833-1.825-2.38-3.214-2.499-.158.833-1.428 1.666-.436 2.499l1.111 1.826c-.833.158-1.984.436-2.262 1.547-2.38.556-5.356.159-7.301 1.825-1.944-3.65-1.825-8.293-1.825-12.776 2.817-.437 7.857.992 9.126-2.659-.277-.833-.555-2.261-1.825-2.539-2.539.436-4.603-.833-6.15 1.111 1.389 1.547 3.65-2.103 4.087.714-1.111 1.548-2.936 1.548-4.762 1.548-.555-1.548-2.539-3.214-.714-4.762 4.365-2.658 7.738-7.579 13.491-6.587 2.817 2.262 5.753 3.929 9.126 4.762M145.501 227.597c15.435 39.877 30.593 80.031 45.789 120.027-.833.714-1.825.833-2.936.833-7.142-14.998-11.943-31.028-17.538-46.622l-25.275-69.199c-1.27-3.651-3.531-7.301-3.65-10.952 2.817.278 1.825 4.087 3.65 5.913"/>
  <path fill="#C7A65B" d="M199.266 246.563c1.27-1.825-1.944-2.936-1.429-5.039 5.198.277 11.11 4.364 15.713.714 3.095-.159 6.309.159 8.452 1.111-1.429 1.825-3.651-.714-4.365 2.262.278 2.38-.555 4.364-2.539 5.753-4.087-.119-9.285 2.381-11.348-1.825-1.27.277-1.707 2.261-3.373 1.547-.992-3.214-4.643-3.65-6.19-6.309l-.675.834 11.626 12.776c4.762 1.27 9.285.833 14.324.437.992 4.047-3.769 4.761-6.15 6.864-4.92 4.761-9.126-1.389-13.61-2.54-2.38-3.769-8.57-3.769-8.015-9.126l.278-9.959h1.111c.714-1.825-3.095-3.65-.714-5.912 1.666 2.817 3.65 6.309 6.864 8.412M250.253 241.087c-14.443 2.54-10.118 20.752-13.491 31.148-.555 37.615 6.468 73.128 25.275 103.323l8.016 9.562c1.111.992-2.262 2.103 0 3.214.833 1.389 3.213 0 3.65 1.826-.992 1.269-1.825.833-2.936 0-9.96-1.548-14.046-12.499-18.689-19.8-3.055-9.126-8.412-17.419-10.673-27.1-8.293-14.047-6.19-32.418-10.238-48.289-1.944-17.419 1.548-34.402 5.635-50.273 2.381-2.103 4.761-4.087 7.578-5.039 2.381-.556 3.929.992 5.913 1.428"/>
  <path fill="#C7A65B" d="M249.102 246.96v.714h-1.825c-.436-1.27 1.389-1.27 1.825-.714ZM252.475 251.047c-.556.833-1.428.714-2.262.714-1.388-.556-.436-1.984.437-2.54l1.825 1.826ZM254.578 253.983c.278.952-.278 1.111-.992 1.388-.833.159-1.389-.158-1.825-.714-.278-1.666 2.261-1.944 2.817-.714M249.102 258.347c2.817 2.381 2.381 7.143 5.476 9.563 1.389.278 3.65.397 3.373 2.539.277 1.27-.437 2.262-1.548 2.54-4.206-5.357-13.213-9.84-10.277-17.975 1.984.159.834 3.095 2.976 3.373M256.443 259.458c-.159.715-.992.159-1.429.278-.396-.714-.992-1.428-.714-2.539 1.111-1.548 3.531.714 2.103 2.261M242.952 259.458c-.555.437-.555.833-.714 1.429h-.833V256.8c1.269 0 .992 1.825 1.547 2.658ZM208.114 272.949c5.04.119 7.579-5.475 12.063-6.586 3.928-2.103 3.769-8.015 8.848-8.73 3.095 12.658-10.396 19.919-15.038 29.64-1.706.714-1.548-1.27-2.262-1.825-7.579-5.753-19.363-1.547-25.553-10.674-3.214-2.38-3.809-8.848-8.134-8.689-2.262 3.531 2.5 6.031 2.936 9.562 3.095 8.968 5.198 21.625 1.111 30.315 1.984-1.111 2.659-4.206 4.087-6.15 2.659-5.04.992-12.102 1.429-17.975 6.586 7.142 19.521 3.095 23.45 12.777 4.92 16.704 1.547 35.393 1.388 52.772l.834.715c3.928-4.206 3.531-10.793 3.928-16.824 1.428-14.324-.556-29.085-2.54-42.813 3.929-2.103 5.754-9.246 10.674-7.738 6.031 19.363 6.745 42.932 5.079 63.724-6.904 2.817-14.761 14.046-21.625 6.587.992-4.484-.992-7.579-4.762-9.523-2.936-.556-6.189.674-8.729 2.5-7.578-21.347-18.093-41.703-25.275-63.288 2.936-1.27 6.587 1.389 8.015-2.936.714-2.539-.833-5.198-3.254-5.476-2.936 0-5.594.715-7.301 3.373-.991-1.389-1.388-3.928-1.111-5.595 7.024-4.642 14.324-8.411 21.625-12.34 5.754 6.468 11.229 14.047 20.078 15.316M259.379 262.394c-.119.437-.119.993-.714 1.429-.714.119-1.429-.159-1.825-.714-.556-1.667 2.817-3.651 2.499-.715M246.602 264.26c6.587 9.84 14.721 18.688 22.3 28.489v1.111c-3.77 1.111-5.039-3.928-8.412-5.198-6.19-7.023-19.681-11.507-16.427-23.45.278-.992 1.547-1.944 2.539-.992M266.402 275.608c0 .277.119.833-.436.992h-1.111l-5.754-10.952c0-.992 1.548-1.428 2.103-.714l5.198 10.674ZM259.062 272.949h-.834v2.262h.834v-2.262Z"/>
  <path fill="#C7A65B" d="M173.713 275.608c-.437.158-.556.833-1.111.714-.714-.437-.833-1.27-.437-1.825 1.111-.278 1.111.436 1.548 1.111ZM159.429 277.036c2.658 5.198 3.214 11.07 5.475 16.427-3.372-1.547-7.856-1.151-10.515-3.254.834-4.761 2.262-9.959 5.04-13.173ZM241.127 278.425c-.119.436.159.555.278.833-.437.278-.715.833-1.389.675v-1.548h1.111v.04ZM267.791 298.899c-.437.992 0 2.539-1.389 2.658-7.856-4.483-21.625-1.825-23.45-13.609 0-3.373.992-6.309 2.262-9.126 8.015 6.189 15.435 13.332 22.617 20.077M241.127 285.448c-.833-.437-.437-1.111 0-1.825v1.825ZM277.036 294.574c-1.27 8.293-2.817 16.705.992 24.164.833.715 2.103.715 2.262 1.826v1.825c-4.365.436-3.254-8.293-8.849-5.754-.952-7.737-3.095-18.252 1.825-25.275 1.945.119 2.103 2.262 3.77 3.214ZM168.951 303.422c-1.269 5.476-5.634-1.151-9.126 0-1.825-1.151-5.475.992-6.308-1.825.714-2.262.119-4.92 1.825-6.587 5.198 1.389 13.609.714 13.609 8.412ZM242.515 297.947c-.158.436-.714.277-1.111.277-.555-.555-.436-1.666.437-2.103.714.437.833.953.714 1.826M265.688 304.097c1.825 1.15 2.658 3.65 1.825 5.912-7.737-2.103-18.093 4.761-22.299-4.484.278-2.539-.992-5.753.952-7.579 6.468 2.262 13.213 3.77 19.522 6.151Z"/>
  <path fill="#C7A65B" d="M282.115 310.287c-.992.436-1.825 2.38-2.936 1.547-1.667-3.928.158-8.015 1.15-11.784 5.635 1.983.159 6.904 1.825 10.237M300.367 308.898c-1.944.436-1.825-2.103-3.65-2.262-1.27 2.936-6.905 0-5.476 4.762l-.714.714c-1.111-.556-.715-2.659-1.826-3.651-.952.834 1.667 5.198-1.825 4.762.437-1.548-.555-4.047-2.539-4.365l.714-5.912 15.316 1.548v4.404ZM168.951 312.548c-5.197-.119-9.84-1.388-15.435-.436-.991-2.54.834-5.595 2.262-8.015 4.762 1.984 12.221 1.984 13.173 8.412M242.238 311.12h-.833c.158-.714 0-1.706.833-1.548v1.548ZM270.053 315.762c-3.81 4.484-10.515 3.373-15.039 7.023-2.38 0-4.92 2.381-7.023 0-.992-3.253-.992-6.586 0-9.8 6.904-.159 17.697-3.651 22.062 2.817M173.038 316.596c1.667 3.095-4.086 1.269-1.547 4.364.833 1.389 3.214 3.214 1.547 4.762-6.308-.278-13.887-6.032-20.196-.715h-.714c-1.111-4.206 1.706-7.856 4.087-10.673 5.912.992 12.617-2.262 16.863 2.262M272.275 321.397c-.992 3.214-4.484 5.753-6.349 8.412-3.769 3.095-7.301 10.515-12.34 9.126-4.365-2.54-3.928-7.738-3.373-11.388 5.912-3.928 12.777-5.634 19.086-8.412 1.15.119 2.38.992 2.976 2.262ZM274.1 324.611c-.714 9.681-7.142 17.974-11.11 26.822-1.706 2.103-4.643.437-6.587 0-1.984-1.825-1.547-4.642-2.103-7.023 1.667-3.095 5.476-4.483 8.015-7.301l10.674-12.498h1.111ZM171.213 330.086c-.714 4.206-5.753 5.635-9.245 7.023-4.484 2.103-8.293 3.929-12.062 8.016 0-5.635 2.817-10.952 3.372-16.864.953-1.825 3.373-.555 4.762-1.428 4.92-.437 9.404.436 13.213 3.253M246.999 326.872c-.119.278.159.437.278.715l-.714.714c-.992-.278-.833-1.825.436-1.429Z"/>
  <path fill="#C7A65B" d="M277.036 330.801c-4.484 12.221-8.69 24.442-13.61 36.345-1.825-.397-3.492-2.936-4.087-4.761-1.547-4.643 3.373-6.468 4.484-9.999 4.92-7.579 7.737-15.991 11.666-24.125 1.269-.158.833 1.825 1.547 2.5M168.951 338.935c-3.213 3.928-4.205 8.729-6.189 13.213-1.27-1.825-4.206-.714-4.762-3.373.437-4.206 4.484-6.626 7.579-9.126 1.111-.278 2.539-.992 3.372-.714ZM251.364 343.022c-.159.436.278 1.11-.437 1.428-.436.119-.714-.556-1.15-.714-.278-.834 1.547-2.381 1.547-.714M174.427 344.41l-2.936 11.348c-1.667-1.111-4.643-1.111-5.039-3.65-.437-3.928 2.936-6.745 5.475-9.126 1.27-.714 1.667.833 2.54 1.428M203.789 347.624c1.667 8.968-7.459 2.103-10.951 5.198-3.214 2.539-6.309 4.92-9.959 6.19-1.826-1.111-.992-3.77-.715-5.476 6.032-2.817 13.213-3.214 18.253-8.412 1.983-.436 2.817 1.111 3.372 2.54M179.903 348.061c1.428 2.936-.714 3.095-1.111 5.872-.992 1.151-2.103 2.262-3.651 2.103-.674-1.468 1.548-8.055 1.548-9.404 1.27 0 2.5.159 3.214 1.429ZM234.501 348.061c-1.667 2.103 0 4.642 0 7.023-5.476 4.087-11.785 5.753-17.538 9.126-4.087 1.111-2.818-3.651-4.087-5.476v-1.825c8.134-.833 13.332-8.69 21.625-8.848ZM275.528 349.886c-.436 4.92-.436 8.571-1.389 13.213 3.651 3.373-4.047 3.65-.436 7.023.436 3.095-2.936 6.19-.714 8.412l-.714.714c-1.707-2.261-6.19-4.364-4.484-8.134 3.492-6.904 3.65-15.316 7.023-22.299l.714 1.111v-.04ZM207.44 355.084c-.119 5.039-7.301.277-7.301 5.475 2.539.834 7.737-3.65 8.412 1.111-2.262 1.826-7.579.437-7.301 3.929 2.777 2.102 5.317-2.381 8.689-.278v3.65c-2.658 1.389-7.023-3.095-8.015 1.111 1.389 2.103 4.365.437 6.19 1.389.437 1.666-.833 2.936-2.261 3.65-3.214.556-5.754-.714-8.016-2.539-1.269-4.92-2.103-10.515-1.388-15.713 3.372-1.27 7.42-.714 10.951-1.825M256.84 355.758c.119.278-.159.556-.437.714h-.992v-1.388c.556-.278.992.278 1.429.714M239.302 357.901c-1.111 1.548-4.365 4.206-1.548 6.309l.437.278c-6.746 3.809-13.332 8.134-20.911 9.959-2.381-.992-5.317-2.103-3.65-5.476.277-3.253 3.253.119 4.801-1.547 6.19-3.928 12.776-6.745 19.085-10.237.833-.278 1.111.555 1.825.714M192.838 361.234c-.555 3.492 1.547 6.864.278 9.84-2.381.119-2.54-2.539-3.214-3.928-.159-3.373-1.825-7.459 1.389-9.245 1.547 0 1.547 2.103 1.547 3.373M279.575 367.86c-1.269-2.261-.992-5.634.278-7.737.437 2.381.833 5.912-.278 7.737ZM181.45 362.385c-1.111 2.38-.833 5.317-1.825 7.697-.357-.396-5.912-.873-6.309-2.261.833-2.103 0-4.921 1.825-6.587 2.103.436 4.921-.992 6.309 1.151ZM244.341 368.971c-.556.715-1.27 2.262 0 2.936.555-.158.833.437 1.111.715-11.11 2.539-20.077 10.118-30.315 14.601-1.547.159-2.658-.158-3.65-1.111v-6.189c8.729.833 15.594-7.301 23.45-10.952 2.817-.833 7.42-3.372 9.404 0ZM279.853 373.336c-.278-.159-.436.119-.714.436-1.27-.714-.555-2.261 0-2.936h.714v2.54-.04ZM194.663 376.986c.992 1.27 1.667 2.659 1.429 4.365l-.715.833c-8.134-1.269-17.26-.277-24.561-3.65.159-1.706.992-3.373 2.54-4.087 7.301.278 14.602.555 21.347 2.539M204.464 378.812c.159 2.658 1.428 5.317-1.111 7.3-4.047.715-3.651-3.65-5.039-5.753-.556-1.825.833-2.658 1.825-3.65 1.706-.159 3.373.833 4.365 2.103"/>
  <path fill="#C7A65B" d="M245.174 380.359c1.428 1.825-.992 3.492-2.262 4.325-10.673 3.928-20.791 9.404-30.751 15.038-12.617-6.031-26.108-9.681-40.988-9.959-1.666-1.667-1.547-5.039-.436-6.865 8.293-.436 17.141.278 24.839 2.262 3.095 4.92 8.967 6.587 14.324 4.643 2.103-1.548 4.483 1.666 7.023 0 8.412-4.484 16.03-11.071 25.553-13.055l2.658 3.651.04-.04ZM249.539 394.961c5.317 10.792 2.381 24.72.714 36.623l-1.111 1.151c-1.984-3.095 1.825-6.626 0-9.563l-2.103 2.54c-1.825 8.412-3.531 16.863-5.912 24.839 1.389 3.928 6.19 7.3 4.761 11.387-4.364-3.928-5.356-10.118-9.126-14.601l5.039-53.805c1.984-3.372 5.635-.119 7.738 1.429ZM234.937 395.635c1.825 17.141-.556 34.679-.833 51.265-3.254 4.365-7.738 6.428-12.063 9.959-1.428-5.753-.158-12.657-1.111-18.688-.277-11.071-8.412-25.276 1.826-34.402 2.817-3.928 6.745-7.975 11.11-9.523l1.111 1.389h-.04ZM186.212 396.786c1.547 8.134 3.095 17.141 1.428 25.712 1.111 9.8-1.151 21.069 3.214 29.6l1.548-1.547c-2.937-14.999-.834-30.156-.437-45.75 1.111-1.547.556-3.809 2.222-5.039 4.801 1.547 9.563 4.761 12.499 9.562 2.262 15.039-3.492 29.482-7.698 43.25l-1.825 1.825c1.111 3.492 5.476 4.881 6.19 8.69-3.809-1.389-5.595-5.753-8.69-7.975-6.031.119-8.848 5.316-14.72 5.475-2.103-1.547-.159-4.761-1.826-6.586-3.372-18.094-10.515-36.902-5.039-56.423 3.492-2.262 9.245-2.54 13.213-.715M242.516 468.922c-1.429 2.936-2.937-1.111-4.762.714-1.666-1.706.437-6.19-1.825-7.737h-.992c-1.547 2.103-.278 5.356-1.111 7.737-1.428.555-3.531-1.27-4.761.397 1.825.992 3.809 3.372 3.928 5.753 0 2.103-1.548 4.484 0 6.309 3.491-2.817 5.753-6.19 9.959-7.301-1.389 3.373-4.365 8.412-8.848 8.412-.833 1.389-1.111 3.373-2.54 4.365-4.364 0-5.317-4.365-8.412-7.023-3.253-4.325-3.134-13.094-1.825-18.253 3.095-5.475 9.126-6.308 12.499-11.348 2.936 5.595 7.46 11.229 8.69 17.975Z"/>
  <path fill="#C7A65B" d="M191.965 457.97c2.857 8.849 19.363 15.277 7.737 24.839-2.817 0-5.197 3.532-7.737 2.262.556-3.373 4.206-5.198 7.023-5.912.992.436.992-.714 1.389-1.111-.833-2.54-4.484-2.659-6.864-3.651-1.707.675-2.381-.992-2.262-2.261-.437-1.548.992-4.087-1.111-4.762-2.54 1.548.555 5.754-2.54 6.587-.436 2.103 2.103 1.944 2.262 3.769-.159 2.818.278 5.754-.436 8.412-3.492-1.944-7.023-5.475-9.126-9.285-.278-3.65-1.27-7.419-.715-10.951 4.762-1.111 7.46-7.301 12.34-8.015M185.378 512.449c.437.397.834.992 1.548.834 2.817-7.46 2.817-15.872 8.412-22.062 7.459 6.031 1.269 15.435 1.111 23.45-1.111 10.674-3.809 20.792-4.762 31.465-2.103 2.262-5.475 2.103-8.134 1.548-2.262-.714-2.936-3.254-3.65-5.198.833-19.8-3.214-40.432-.714-59.677 12.776 5.476 6.467 19.8 6.189 29.64ZM232.675 491.261c.278 17.26-2.817 34.123-5.912 50.55-4.047 1.27-7.578 4.92-9.126 8.848 2.817 1.548 4.92-2.817 7.737-3.372 1.548.436 4.484-.833 4.762 1.15-1.548 2.381-6.349-1.825-4.762 2.5 2.937 3.532 9.404-.674 13.491 2.262-4.087 1.27-6.586 8.015-11.665 5.476l-2.262 2.976c-5.198-1.707 1.111-8.412-4.047-9.563-2.262.992-1.27 5.476-4.365 4.087-1.547-.992-1.389-3.651-.397-4.762 6.587-15.316 4.365-33.25 4.762-50.55-1.706-4.484-1.27-10.793 0-15.435 4.206 2.103 7.618 6.864 11.784 5.912"/>
  <path fill="#C7A65B" d="M241.801 497.451c1.429 14.76-4.761 27.14-8.015 40.274l-1.111 5.475c-1.269-.436-2.817-.278-3.65-1.825 1.547-17.816 8.967-33.251 8.689-51.939.159-1.389 1.27-2.262 2.262-3.254 1.667 2.936 1.27 7.46 1.825 11.229M192.401 554.985c-2.182 3.372-4.523-1.27-8.015-1.826-1.111-1.428-2.539-.992-3.809 0-.158.397-.833.556-.714 1.111 1.111.834 3.254-.436 4.087 1.111-1.389 3.492-3.928-.714-6.587.715-3.491-1.945-3.095 3.372-6.19 2.539-.714.714-1.547 1.151-1.111 2.262 1.389 1.27 3.095 1.984 5.079 1.825 1.945-1.667-.992-5.317 2.937-4.762 1.825 1.27 4.205 3.929 2.261 6.151-1.547 2.658-3.373-.437-5.198-.278-3.372 1.389-6.745.675-9.126-1.825-.555 0-1.111-.992-1.389 0 0 1.666 1.27 1.15 2.103 2.539 2.659.833 1.27 3.809 1.111 5.476-3.372 4.484-9.562 2.262-14.324 1.389-1.111-.437-.555-1.667-.714-2.5 6.19-8.015 15.435-10.832 22.022-17.538 4.92-1.984 9.959-.714 15.713-1.111 1.111.992 2.261 2.658 1.825 4.761M244.777 557.246c-.277 5.04-7.737 4.206-7.301 9.404-.833.833-1.904.278-2.618-.277-1.111-1.548-1.468-4.365-.318-5.913 2.659-2.698 6.587-3.809 10.237-3.214ZM250.65 563.397c-.556 1.269-.278 2.817-1.826 3.65-3.372-.873-4.166 2.817-7.737 3.65-2.817-1.111-.833-4.483 0-6.189 2.381-2.262 7.856-6.468 9.563-1.111Z"/>
  <path fill="#010101" d="M276.639 571.848c2.936.833 6.031 3.65 7.301 6.19-1.547-.159-3.928-2.54-4.761-.278-.119 1.706 1.706 3.531 0 5.039-4.484-1.111-5.198 7.737-9.126 2.262 1.547-1.111-1.27-2.103-1.429-3.373-2.658-1.111-5.595.437-7.737-1.389-2.817 2.381-3.77-2.936-6.309-1.388 1.666-.397 3.095-1.945 3.65-3.77-.277 1.27.556 2.262 1.548 2.659 1.984.833 1.984-1.389 2.976-2.262 0-.555-.278 1.27.714 1.389 1.984-.437 3.254-2.54 3.65-4.365.834-2.817-.833-5.912-4.047-6.19-3.254-.436-2.817 3.373-4.365 5.039l-.436 2.659c-.992-2.936 3.928-6.587 0-8.848v-1.826c6.309 2.381 13.213 4.365 18.411 8.412M202.639 568.198l.436-2.976.278 2.261-.714.715ZM190.854 569.586c-10.396 6.746-22.299 10.674-32.14 17.975 4.206-4.484 10.952-7.301 16.864-10.951 2.936-.278 4.206-2.381 6.864-3.373 2.381-1.667 5.635-2.381 8.412-3.651ZM198.988 570.023c-10.118 5.912-20.791 9.84-29.322 17.974h-1.111c8.57-9.245 19.522-13.054 30.473-17.974M227.914 572.245c-.992 2.381-3.532 2.539-5.476 3.214-9.126 7.301-18.966 10.951-28.648 18.252 2.817-4.087 8.69-6.468 13.888-9.84 6.031-5.079 12.221-8.293 18.411-12.063.555.119 1.388-.277 1.825.397"/>
  <path fill="#3C4448" d="M271.838 574.388c-1.547 2.261.555 6.189-3.65 5.475 0-2.262-.437-5.753 1.825-7.578 1.666-.397.833 1.547 1.825 2.103Z"/>
  <path fill="#010101" d="m199.266 575.062 2.976-2.5h.833l-3.809 2.5Z"/>
  <path fill="#3C4448" d="M275.092 574.387c-.714 2.54 1.111 4.762-.992 6.984-.714 1.27 0 3.095-1.825 3.928-.278-4.047-1.707-8.848 2.817-10.951"/>
  <path fill="#010101" d="M197.441 575.895c-2.103.833-3.651 3.532-6.19 3.651 2.261-.715 3.928-3.095 6.19-3.651ZM209.662 575.895c-5.198 4.484-12.34 7.738-17.26 12.063-5.317 3.928-10.396 8.53-15.713 12.34h-.714c5.078-4.643 9.681-8.293 14.879-12.34a178.192 178.192 0 0 1 18.808-12.063ZM241.405 578.435c-.278.833-1.429 1.269-2.54 1.111-.873-.159 1.548-1.111 2.54-1.111ZM226.525 579.585v-.436h.952l-.952.436ZM137.526 580.26l.278-.159.397 1.151-.397.119-.278-1.111ZM188.751 580.974l.278-.714h.833l-1.111.714ZM224.978 580.26c-.119.714-.992 1.27-1.429 1.825h-1.111c.833-.555 1.389-1.984 2.54-1.825ZM250.927 580.26c-.158 1.944 2.103 1.111 2.937 1.825-1.667.556-2.381-.992-4.048-1.428.278-.556.715-.397 1.111-.397ZM232.993 583.196l2.658-2.222h1.389l-4.047 2.222ZM186.212 582.799l.277-.714h.715l-.992.714ZM220.613 583.474l.278-.675h.873l-1.151.675ZM244.063 583.474c1.27.992 2.936 2.539 4.762 2.936h2.539c-.436 2.817 3.65 2.658 5.476 4.047 2.936-.158 4.92 1.984 7.301 2.937-6.309-.12-12.341-.715-18.927-2.937 3.492.833 6.586 1.548 9.84.715v-1.111l-14.324-5.754c1.548.675 1.825-1.428 3.373-.833M262.315 583.196h-1.15v.278h1.15v-.278ZM218.788 584.347c-1.945.833-3.373 2.261-5.476 3.214.278-.159 3.492-2.54 5.476-3.214ZM139.629 588.275c-.555 1.706 1.428 1.984 2.262 2.262-.992 0-8.571 1.825-10.237-1.429 2.38-.833 5.634 0 8.015-.833M153.517 590.933l3.372-2.658-.714 1.547-2.658 1.111ZM211.05 588.672c.159.555-.555.714-.714 1.15h-.714c.436-.436.714-1.15 1.389-1.15M260.49 597.123c.119 1.548-1.706 1.706-2.539 2.54-3.254-.119-7.46-.119-10.277-2.54-3.651-.119-7.023-.992-10.237-2.262-2.381.715-4.484-1.269-6.587-2.102.992-.278 2.381.555 2.936-.834 0-1.269-1.547-1.944-2.658-2.103h-2.103v-1.15c10.237 3.372 21.506 5.039 31.465 8.411M165.579 590.933h-.714l1.825-1.825c.278 0-.437 1.27-1.111 1.825ZM242.238 589.823l-1.825-.437h1.388l.437.437ZM148.041 590.1h-1.429c.278-.555 1.111-.555 1.429 0ZM162.762 594.584c2.539 1.547 5.039 3.214 6.864-.397 1.111.833-4.087 1.667-1.825 4.047-5.635 1.984-11.11 2.262-18.252 2.54v-.437c4.206-.277 8.411-1.547 12.776-.992 0-1.388 2.262-.833 1.389-2.658l-.992-.714-19.086 1.825c5.04-3.095 11.666-1.667 17.538-2.539l-.277-.278 2.936-3.651.278.278s-1.707 1.547-1.429 2.936M204.9 592.759l.159.158-.992 1.111-.278-.277 1.111-.992ZM201.25 595.695l1.825-1.548c-.833.159-.555 1.984-1.825 1.548ZM190.14 596.409l2.262-1.825-1.548 1.825h-.714ZM186.489 599.623l1.826-2.5-.278 1.389-1.548 1.111ZM197.877 598.948l1.111-1.825h.714l-1.825 1.825ZM222.438 600.337c-2.539 1.389-5.198-2.262-8.134-2.539v-.715l8.134 3.254ZM251.8 602.162c-7.578-1.706-15.157-2.261-22.735-5.079 7.737 2.222 15.157 1.27 22.735 5.079ZM233.39 608.471c-1.945 1.548-3.651-1.825-5.476.278.714.556.833 1.111.714 1.825-4.642 4.087-6.904-1.825-11.665 1.945h-.834c1.548-.556 2.659-1.667 4.048-2.262l-1.826-1.825c-6.745.555-12.657 5.912-18.688 6.19-3.095-4.206-8.134.555-12.499-1.429l-6.19-.397.714-2.539c-.555-.714-1.666-.278-2.539-.437 1.428-.436 4.087-.277 4.761-2.539l-1.111-.714c3.254-1.667 8.293.555 10.237-3.373-.436 1.111.715 1.984 1.548 2.262 4.206 1.825 6.745-1.389 9.404-3.651 6.745 3.492 14.76 5.476 22.458 7.698.555-.436.119-1.27.278-1.825-3.651-2.817-8.73-2.103-12.499-4.762-3.254.159-4.92-3.214-8.412-2.658 1.547-4.365 4.484.119 7.023.833 6.468 3.095 13.213 5.754 20.514 6.904v.397l.04.079ZM175.141 604.424c3.651-.992 8.571-.436 10.237-4.365-.992 4.206-7.142 3.095-10.237 4.365ZM244.063 604.821c-7.46.159-13.491-1.667-20.236-4.087 6.349 1.389 13.768 2.936 20.236 4.087ZM165.579 602.162l2.658-.992h2.143l-4.801.992ZM155.342 603.71l.833-.436.992.436h-1.825Z"/>
  <path fill="#3C4448" d="M204.067 604.107c.437.992-.436 1.547-.992 2.103-.555.119-.833-.437-1.111-.715.556-.833.714-1.825 2.103-1.388Z"/>
  <path fill="#010101" d="m160.936 607.36.318-.714h.674l-.992.714Z"/>
  <path fill="#010101" d="M199.861 622.2c-41.94 0-81.341-24.482-110.941-68.922-29.521-44.321-45.75-103.243-45.75-165.896 0-62.652 16.229-121.575 45.75-165.896 29.6-44.44 69.001-68.961 110.941-68.961s81.341 24.481 110.941 68.961c29.521 44.321 45.75 103.244 45.75 165.896 0 62.653-16.268 121.575-45.75 165.896-29.6 44.44-69.001 68.922-110.941 68.922Zm0-467.493c-85.23 0-154.548 104.394-154.548 232.675s69.318 232.676 154.548 232.676 154.548-104.395 154.548-232.676-69.318-232.675-154.548-232.675ZM254.578 39.242a4.92 4.92 0 0 0 4.92-4.92 4.92 4.92 0 0 0-4.92-4.92 4.92 4.92 0 0 0-4.92 4.92 4.92 4.92 0 0 0 4.92 4.92Zm0-7.697a2.76 2.76 0 0 1 2.777 2.777 2.76 2.76 0 0 1-2.777 2.777 2.76 2.76 0 0 1-2.778-2.777 2.76 2.76 0 0 1 2.778-2.778ZM146.136 39.679c2.698 0 4.92-2.222 4.92-4.92 0-2.699-2.222-4.92-4.92-4.92a4.92 4.92 0 0 0-4.92 4.92 4.92 4.92 0 0 0 4.92 4.92Zm0-7.658a2.76 2.76 0 0 1 2.778 2.777 2.76 2.76 0 0 1-2.778 2.778 2.76 2.76 0 0 1-2.777-2.778 2.76 2.76 0 0 1 2.777-2.777ZM95.03 49.717c-2.698 0-4.92 2.222-4.88 4.92 0 1.31.516 2.54 1.468 3.492a4.862 4.862 0 0 0 3.452 1.429 4.74 4.74 0 0 0 3.452-1.468 4.955 4.955 0 0 0 1.428-3.492c0-1.31-.515-2.54-1.428-3.492a4.886 4.886 0 0 0-3.492-1.428m2.778 4.96c0 .753-.278 1.428-.794 1.944-.516.515-1.23.833-1.944.833a2.764 2.764 0 0 1-1.944-.794c-.516-.515-.834-1.23-.834-1.944A2.76 2.76 0 0 1 95.07 51.9c.714 0 1.428.277 1.944.833.516.516.834 1.23.834 1.944M200.496 31.227c2.698 0 4.92-2.222 4.92-4.92s-2.222-4.92-4.92-4.92a4.92 4.92 0 0 0-4.92 4.92 4.92 4.92 0 0 0 4.92 4.92Zm0-7.698a2.76 2.76 0 0 1 2.777 2.778 2.76 2.76 0 0 1-2.777 2.777 2.76 2.76 0 0 1-2.778-2.777 2.76 2.76 0 0 1 2.778-2.777ZM302.391 58.724a4.8 4.8 0 0 0 2.42.635c.437 0 .913-.08 1.349-.198a4.893 4.893 0 0 0 2.936-2.302c.635-1.15.794-2.46.437-3.73-.357-1.269-1.191-2.3-2.302-2.975a4.89 4.89 0 0 0-3.729-.437c-1.27.357-2.341 1.19-2.937 2.302a4.897 4.897 0 0 0-.436 3.73c.357 1.27 1.19 2.3 2.301 2.975m-.039-5.674a2.76 2.76 0 0 1 1.666-1.31 2.7 2.7 0 0 1 .754-.118c.476 0 .952.119 1.349.357a2.764 2.764 0 0 1 1.31 1.666 2.765 2.765 0 0 1-.239 2.103c-.357.675-.952 1.111-1.666 1.31a2.89 2.89 0 0 1-2.143-.238 2.758 2.758 0 0 1-1.309-1.667c-.198-.714-.119-1.468.278-2.103ZM210.297 101.061a8.331 8.331 0 0 0 8.332-8.332 8.331 8.331 0 0 0-8.332-8.332c-4.603 0-8.373 3.73-8.373 8.332 0 4.603 3.73 8.332 8.373 8.332Zm0-14.522a6.197 6.197 0 0 1 6.189 6.19 6.197 6.197 0 0 1-6.189 6.19c-3.413 0-6.23-2.778-6.23-6.19 0-3.412 2.777-6.19 6.23-6.19ZM229.739 103.363a8.332 8.332 0 0 0 8.333-8.333 8.332 8.332 0 0 0-8.333-8.332 8.33 8.33 0 0 0-8.332 8.332 8.331 8.331 0 0 0 8.332 8.333Zm0-14.523a6.198 6.198 0 0 1 6.19 6.19 6.198 6.198 0 0 1-6.19 6.19 6.198 6.198 0 0 1-6.19-6.19 6.198 6.198 0 0 1 6.19-6.19ZM247.436 108.164a8.332 8.332 0 0 0 8.332-8.333 8.332 8.332 0 0 0-8.332-8.332c-4.603 0-8.372 3.73-8.372 8.332 0 4.603 3.729 8.333 8.372 8.333Zm0-14.523c3.412 0 6.229 2.778 6.229 6.19 0 3.413-2.777 6.19-6.229 6.19s-6.23-2.777-6.23-6.19c0-3.412 2.778-6.19 6.23-6.19ZM265.093 115.108a8.332 8.332 0 0 0 8.332-8.333 8.331 8.331 0 0 0-8.332-8.332 8.331 8.331 0 0 0-8.333 8.332 8.332 8.332 0 0 0 8.333 8.333Zm0-14.562a6.197 6.197 0 0 1 6.189 6.19 6.197 6.197 0 0 1-6.189 6.189c-3.413 0-6.23-2.777-6.23-6.189 0-3.413 2.778-6.19 6.23-6.19ZM280.29 123.361a8.332 8.332 0 0 0 8.332-8.333 8.332 8.332 0 0 0-8.332-8.332 8.332 8.332 0 0 0-8.333 8.332 8.332 8.332 0 0 0 8.333 8.333Zm0-14.523a6.198 6.198 0 0 1 6.189 6.19 6.197 6.197 0 0 1-6.189 6.19c-3.413 0-6.23-2.777-6.23-6.19 0-3.412 2.778-6.19 6.23-6.19ZM189.584 84.238a8.332 8.332 0 0 0-8.332 8.332 8.332 8.332 0 0 0 8.332 8.333 8.332 8.332 0 0 0 8.333-8.333 8.332 8.332 0 0 0-8.333-8.332Zm0 14.522a6.197 6.197 0 0 1-6.189-6.19 6.197 6.197 0 0 1 6.189-6.19c3.413 0 6.23 2.778 6.23 6.19 0 3.413-2.778 6.19-6.23 6.19ZM170.142 86.936a8.332 8.332 0 0 0-8.333 8.332 8.332 8.332 0 0 0 8.333 8.333c4.603 0 8.372-3.73 8.372-8.332 0-4.603-3.73-8.333-8.372-8.333Zm0 14.562a6.197 6.197 0 0 1-6.19-6.19 6.198 6.198 0 0 1 6.19-6.19c3.412 0 6.229 2.778 6.229 6.19 0 3.413-2.777 6.19-6.229 6.19ZM152.445 91.737a8.33 8.33 0 0 0-8.332 8.332 8.331 8.331 0 0 0 8.332 8.333 8.332 8.332 0 0 0 8.333-8.333 8.332 8.332 0 0 0-8.333-8.332Zm0 14.562a6.198 6.198 0 0 1-6.19-6.19 6.198 6.198 0 0 1 6.19-6.19 6.197 6.197 0 0 1 6.19 6.19 6.197 6.197 0 0 1-6.19 6.19ZM134.987 98.88a8.332 8.332 0 0 0-8.333 8.332 8.332 8.332 0 0 0 8.333 8.332 8.332 8.332 0 0 0 8.332-8.332 8.332 8.332 0 0 0-8.332-8.333Zm0 14.522a6.198 6.198 0 0 1-6.19-6.19 6.197 6.197 0 0 1 6.19-6.19 6.198 6.198 0 0 1 6.19 6.19 6.199 6.199 0 0 1-6.19 6.19ZM119.393 107.37a8.332 8.332 0 0 0-8.333 8.333 8.331 8.331 0 0 0 8.333 8.332 8.33 8.33 0 0 0 8.332-8.332 8.331 8.331 0 0 0-8.332-8.333Zm0 14.523a6.199 6.199 0 0 1-6.19-6.19 6.198 6.198 0 0 1 6.19-6.19c3.412 0 6.23 2.777 6.23 6.19 0 3.412-2.778 6.19-6.23 6.19Z"/>
  <path fill="#010101" d="M341.593 193.195c-16.546-23.013-35.473-41.504-56.066-54.994l14.443-31.069 1.23-2.579c-1.111-.833-2.222-1.587-3.372-2.381 3.293-6.943 18.807-40.154 22.14-47.336l6.587 3.73 9.404-16.784-8.968-5.04-4.206 7.46-5.237-2.936 4.206-7.46-8.968-5.039-4.166 7.46-5.277-2.976 4.166-7.46-8.967-5.04-9.444 16.785 6.944 3.889c-.476.753-1.19 1.785-2.063 3.094l-5.912-2.182-1.865 4.96-3.492-1.27 1.865-4.92-7.499-2.698-1.865 4.96-3.492-1.27 1.865-4.96-5-1.825c.397-1.984.715-3.571.953-4.642l7.261 2.063 5.237-18.53-9.919-2.817-2.341 8.213-5.793-1.627 2.341-8.213-9.92-2.817-2.301 8.253-5.793-1.667 2.341-8.213-9.92-2.817-5.237 18.53 7.697 2.182c-.357.952-.873 2.38-1.508 4.127l-5.753-.913-.833 5.198-3.73-.595.833-5.198-7.975-1.31-.833 5.238-3.73-.595.833-5.238-6.309-1.031c-.119-1.508-.198-2.778-.278-3.65h7.579V0H211.17v8.57h-6.032V0h-10.316v8.57h-6.031V0h-10.317v19.244h7.976c-.08.873-.159 2.143-.278 3.65l-6.309 1.032.833 5.238-3.769.595-.833-5.238-7.976 1.31.833 5.237-3.769.596-.833-5.238-6.031.952a215.748 215.748 0 0 1-1.548-4.325l7.539-1.865L159.667 2.5l-9.999 2.46 2.063 8.293-5.833 1.428-2.063-8.293-9.999 2.46 2.063 8.293-5.872 1.429-2.064-8.293-9.999 2.5 4.603 18.688 7.539-1.865c.199 1.032.516 2.897.913 5.357l-5.714 2.103 1.865 4.96-3.571 1.31-1.825-4.96-7.579 2.777 1.825 4.96-3.571 1.309-1.825-4.92-6.031 2.182c-.833-1.27-1.548-2.301-2.024-3.055l6.587-3.69-9.444-16.745-8.967 5.04 4.166 7.46-5.237 2.935-4.206-7.46-8.968 5.04 4.167 7.46-5.238 2.975-4.206-7.46-8.967 5.04 9.443 16.784 6.944-3.888c3.333 7.102 18.927 40.71 22.458 48.169-.952.675-1.904 1.35-2.817 2.064l.278.595 15.276 32.695c-20.316 13.451-39.044 31.783-55.431 54.558C20.752 245.571 0 315.167 0 389.168c0 74 20.752 143.597 58.407 195.972 37.774 52.495 88.007 81.421 141.494 81.421 53.487 0 103.72-28.926 141.494-81.421 37.655-52.375 58.407-121.972 58.407-195.972 0-74.001-20.752-143.637-58.407-195.973M292.074 36.703l7.341-13.055 5.237 2.937-4.166 7.46 8.967 5.038 4.167-7.46 5.237 2.937-4.166 7.46 8.967 5.039 4.206-7.46 5.238 2.937-7.341 13.054-33.726-18.967.039.08Zm5.912 5.793 20.157 11.308c-6.944 14.92-19.006 40.75-22.061 47.138-1.865-1.27-3.77-2.5-5.714-3.69l5.515-15.395c1.032-2.936 1.587-6.666 1.191-8.57a3.578 3.578 0 0 0-1.826-2.54c-.912-.516-2.063-.595-3.134-.238-1.786.674-4.762 3.055-6.706 5.476L275.052 88.8c-2.024-.953-4.047-1.905-6.071-2.778 3.809-5.793 19.76-29.759 28.966-43.567m-9.444 53.685c-3.73-2.261-7.578-4.364-11.467-6.348l10.078-12.42c1.865-2.301 4.484-4.325 5.754-4.8.476-.16.952-.16 1.349.079.397.238.674.595.754 1.11.277 1.35-.119 4.643-1.111 7.42l-5.357 14.96Zm-17.141-35.79a410.384 410.384 0 0 1-2.659 6.23l-5.872-2.5c.437-2.182.913-4.484 1.389-6.785l7.142 3.055Zm-6.706-5.158c.437-2.222.913-4.444 1.349-6.587l3.095 1.35c-.476 2.063-.992 4.245-1.508 6.507l-2.936-1.23v-.04Zm7.936 15.554.079-.159 3.135 1.35c-1.071 1.587-2.063 3.094-3.016 4.523l-3.095-1.31a397.244 397.244 0 0 1 2.857-4.404m-4.84 3.531-1.945-.833.397-1.627c.278-1.19.556-2.42.873-3.65l3.65 1.547c-1.031 1.587-1.984 3.095-2.936 4.563m2.936-6.864a430.593 430.593 0 0 1 2.659-6.23l7.499 3.175c-1.27 1.944-2.579 3.849-3.809 5.753l-6.349-2.698Zm8.095-6.23c.754-1.19 1.547-2.34 2.262-3.491l1.349-2.103 3.333 1.428c-1.23 1.825-2.46 3.69-3.691 5.555l-3.253-1.389Zm.476-4.642a615.96 615.96 0 0 1-2.46 3.77l-7.182-3.056c.516-2.222 1.032-4.404 1.508-6.507l9.324 3.968-1.15 1.785-.04.04Zm-14.245 10.793c-.317 1.349-.634 2.737-.952 4.007l-.278 1.27-2.499-1.072c.357-1.666.714-3.491 1.111-5.356l2.618 1.111v.04Zm-.079 8.094c-1.428 3.293-2.619 6.07-3.254 7.618a183.04 183.04 0 0 0-2.579-.952c.318-1.547.953-4.563 1.746-8.412l4.087 1.746Zm1.984.833 4.682 2.024c-2.063 3.135-3.69 5.595-4.563 6.904-1.111-.476-2.222-.913-3.333-1.389.635-1.508 1.825-4.285 3.214-7.539Zm4.007-37.853-1.864 4.96 7.499 2.698 1.865-4.96 3.491 1.27-1.864 4.92 7.499 2.698 1.865-4.92 3.412 1.27c-1.666 2.46-3.69 5.555-5.872 8.848l-20.514-8.769c.674-3.293 1.309-6.388 1.825-9.007l2.698.952-.04.04ZM238.23 19.562l4.087-14.404 5.793 1.627-2.341 8.213 9.92 2.818 2.301-8.253 5.793 1.626-2.341 8.214 9.92 2.817 2.341-8.213 5.793 1.626-4.087 14.404-37.179-10.555v.08Zm7.103 4.245 22.259 6.309c-3.333 16.308-9.126 44.678-10.475 51.225a120.024 120.024 0 0 0-6.388-2.103l1.786-16.625c.317-3.095 0-6.864-.834-8.61-.476-1.032-1.349-1.786-2.38-2.064-1.032-.317-2.143-.119-3.095.516-1.587 1.071-3.889 4.087-5.238 6.865l-7.459 15.554c-2.143-.437-4.325-.794-6.508-1.151.476-1.35 1.706-4.762 3.373-9.325h.079l.04-.357c4.087-11.15 10.554-28.806 14.76-40.273m5.119 38.607-1.746 16.228c-4.245-1.23-8.531-2.34-12.935-3.253l7.221-15.078c1.27-2.659 3.333-5.277 4.484-6.031.437-.278.873-.357 1.309-.238.437.119.794.436.992.912.556 1.23.953 4.563.635 7.5m-28.449.833a734.417 734.417 0 0 0-1.31 9.602c-.912-.12-1.785-.198-2.698-.317-.079-1.707-.317-5.595-.635-9.96l4.643.635v.04Zm-4.801-2.817c-.119-1.707-.278-3.532-.397-5.436l3.174.436c.079 1.865.119 3.69.199 5.436l-2.937-.397-.039-.04Zm-.596-7.619c-.158-2.261-.357-4.563-.515-6.904l8.134 1.111-.953 6.706-6.705-.913h.039Zm-.674-9.086c-.159-2.262-.357-4.523-.516-6.706l3.889.556c.079 2.103.158 4.364.238 6.666l-3.611-.476v-.04Zm18.212 4.682c-.833 2.182-1.587 4.364-2.38 6.507l-6.349-.873.913-6.705 7.777 1.07h.039Zm-2.539-2.5.913-2.817c.396-1.19.753-2.38 1.111-3.531l3.571.476c-.754 2.063-1.548 4.166-2.302 6.309l-3.293-.437Zm-.595 11.07a325.48 325.48 0 0 1-1.865 5.12l-2.619-.358 1.667-5.158 2.817.396Zm-.516-14.562-1.032 3.175-7.737-1.072a2618.26 2618.26 0 0 0-.238-6.666l10.039 1.39c-.318 1.03-.675 2.062-1.032 3.173Zm-4.444 13.848-1.667 5.158-2.102-.277v-.159c-.08-1.666-.12-3.452-.199-5.277l3.928.555h.04Zm-1.944 7.301 4.285.595c-1.508 4.167-2.817 7.777-3.333 9.285-.714-.119-1.468-.198-2.182-.278.238-1.865.714-5.793 1.269-9.602m-5.912-37.853-.833 5.237 7.975 1.27.834-5.238 3.729.596-.833 5.237 7.976 1.27.833-5.238 3.214.516c-.913 2.5-1.984 5.436-3.174 8.61l-22.697-3.174c-.277-3.65-.515-6.983-.754-9.721l3.73.595v.04Zm-37.377-8.61V2.142h6.031v8.571h10.317v-8.57h6.031v8.57h10.316v-8.57h6.031v14.959h-38.726Zm7.975 2.142h23.093c1.31 17.102 3.532 47.694 3.889 53.13a116.953 116.953 0 0 0-6.507-.437l-3.016-17.3c-.516-3.055-1.905-6.586-3.135-8.054a3.707 3.707 0 0 0-2.856-1.35 3.632 3.632 0 0 0-2.818 1.35c-1.23 1.468-2.618 5-3.134 8.055l-2.936 17.3c-2.183.118-4.365.277-6.547.475.476-7.062 2.698-36.623 3.967-53.13M206.964 71.7c-2.341-.119-4.682-.159-7.063-.159-2.143 0-4.285.04-6.388.12l2.856-16.665c.477-2.937 1.786-5.992 2.659-7.024a1.52 1.52 0 0 1 1.19-.595c.437 0 .873.199 1.191.595.872 1.032 2.182 4.087 2.658 7.024l2.857 16.704h.04Zm-26.466-10.514c.079-1.707.198-3.532.278-5.397l3.055-.357c-.159 1.905-.278 3.73-.397 5.436l-2.936.357v-.04Zm2.777 1.785c-.317 4.206-.515 7.975-.634 9.602-.953.12-1.905.198-2.857.318-.199-1.588-.675-5.357-1.151-9.364l4.642-.556Zm-5.793-8.967-.833-6.706 7.856-.952c-.158 2.34-.357 4.642-.515 6.864l-6.547.794h.039Zm-2.936-6.428.833 6.705-6.824.834c-.794-2.143-1.587-4.325-2.381-6.508l8.372-1.031Zm-9.126-1.072c-.793-2.142-1.547-4.285-2.301-6.348l4.245-.516c.397 1.27.754 2.54 1.191 3.849l.754 2.54-3.889.475Zm4.087-7.102 10.039-1.19-.357 6.666-7.777.952-.873-2.897c-.357-1.19-.715-2.38-1.072-3.492m3.056 17.34 1.587 5.198-2.897.357a215.984 215.984 0 0 0-1.904-5.158l3.214-.397Zm3.967 7.023c.477 4.008.953 7.857 1.111 9.404-.793.12-1.547.198-2.341.317-.912-2.46-2.222-5.951-3.372-9.126l4.563-.555.039-.04Zm-.238-2.103-1.587-5.198 3.968-.476c-.079 1.865-.198 3.69-.278 5.396l-2.103.239v.04Zm5.119-17.14.357-6.667 3.492-.436c-.159 2.182-.318 4.404-.516 6.666l-3.333.396v.04Zm-18.649-15.634.833 5.237 7.976-1.31-.834-5.237 3.73-.595.833 5.238 7.976-1.31-.833-5.237 3.69-.595c-.199 2.857-.476 6.388-.754 10.197l-23.014 2.778c-1.151-3.175-2.222-6.15-3.134-8.65l3.491-.556.04.04Zm10.435 44.916a166.91 166.91 0 0 0-7.975 1.468l-7.102-16.07c-1.231-2.817-3.413-5.952-5-7.063-.913-.634-2.024-.873-3.095-.634-1.032.238-1.904.952-2.42 1.983-.873 1.707-1.349 5.476-1.111 8.571l1.309 17.816c-2.262.714-4.484 1.508-6.706 2.301-6.348-39.4-8.134-50.114-8.729-53.13l22.458-5.555c1.31 3.73 5.555 15.475 18.292 50.273m-10.039 1.984a158.76 158.76 0 0 0-13.094 3.492l-1.309-17.3c-.198-2.936.278-6.23.913-7.46.238-.436.595-.753 1.031-.873.437-.119.913 0 1.31.278 1.111.794 3.095 3.452 4.285 6.15l6.904 15.713h-.04ZM134.828 56.94c.357 2.301.754 4.603 1.111 6.864l-6.309 2.62-2.579-6.23 7.777-3.215v-.04Zm-5.436-7.182 4.007-1.667c.358 2.143.715 4.405 1.072 6.666l-3.611 1.508a427.628 427.628 0 0 1-1.151-5.158l-.317-1.349Zm6.904 16.229c.317 1.864.595 3.65.873 5.396l-2.698 1.11-1.191-5.276 2.976-1.23h.04Zm-3.809 7.34-1.944.794c-.913-1.429-1.905-2.976-2.897-4.563l3.69-1.548 1.191 5.277-.04.04Zm-10.872-13.213-3.571-5.634 9.364-3.889.238.992c.397 1.746.833 3.611 1.23 5.516l-7.221 3.015h-.04Zm-1.984.833-3.174 1.31c-1.27-1.905-2.5-3.77-3.69-5.595l3.293-1.349 3.571 5.634Zm5.436.04 2.579 6.23-6.19 2.579c-1.23-1.865-2.539-3.81-3.809-5.754l7.42-3.055Zm.555 9.404c.992 1.587 1.984 3.135 2.897 4.563l-2.817 1.15c-.952-1.428-1.984-2.936-3.016-4.523l2.936-1.23v.04Zm5.714 5.753 3.532 8.57c-.913.398-1.826.755-2.738 1.152-.754-1.111-2.659-4.048-5.238-7.896l4.444-1.826Zm1.984-.833 4.206-1.746c.595 3.61 1.111 6.865 1.548 9.483-.715.278-1.469.556-2.183.873l-3.531-8.57-.04-.04Zm-8.967-46.384-3.611-14.523 5.833-1.468 2.063 8.293 9.999-2.5-2.063-8.293 5.832-1.428 2.064 8.293 9.999-2.46-2.063-8.293 5.872-1.428 3.611 14.522-37.536 9.285Zm-14.8 16.347 1.825 4.92 7.578-2.777-1.825-4.96 3.571-1.31 1.826 4.96 7.578-2.777-1.825-4.96 3.333-1.23c.397 2.58.913 5.555 1.428 8.809l-21.505 8.888a2706.05 2706.05 0 0 1-5.516-8.293l3.532-1.31v.04ZM72.731 56.106 65.39 43.05l5.237-2.936 4.206 7.46 8.967-5.04-4.206-7.46 5.238-2.935 4.206 7.46 8.967-5.04L93.8 27.1l5.238-2.975 7.34 13.054-33.727 18.927h.08Zm8.015-2.024 20.157-11.348c9.523 14.284 26.307 39.48 29.282 44.003a140.407 140.407 0 0 0-6.07 2.897l-10.753-13.292c-1.944-2.381-4.881-4.801-6.666-5.476-1.072-.397-2.183-.317-3.135.198-.912.516-1.587 1.469-1.825 2.58-.397 1.904.159 5.634 1.19 8.57l5.754 16.15a147.594 147.594 0 0 0-5.198 3.451c-.119.08-.199.119-.318.199-2.42-5.119-15.197-32.418-22.418-47.932Zm41.385 36.544c-3.968 2.063-7.857 4.245-11.626 6.587L104.871 81.5c-.992-2.778-1.389-6.07-1.111-7.42.119-.476.357-.913.753-1.111.397-.238.873-.238 1.35-.08 1.269.477 3.928 2.58 5.753 4.802l10.475 12.935h.04Zm-20.316 15.752c27.696-20.037 61.78-31.901 98.562-31.901s69.914 11.546 97.411 31.068l-2.738 5.873c-29.719-20.633-61.621-31.108-94.832-31.108-33.211 0-65.787 10.673-95.744 31.742l-2.619-5.674h-.04Zm3.77 8.134c29.64-20.91 61.462-31.544 94.633-31.544 33.172 0 64.319 10.396 93.721 30.91l-7.023 15.117c-27.14-18.331-56.185-26.942-86.341-26.942-30.155 0-60.232 8.928-87.769 27.894l-7.221-15.474v.039Zm94.951-9.602c29.719 0 58.407 8.333 85.19 26.545l-1.151 2.46c-25.672-17.696-54.836-25.791-84.238-25.791s-59.081 8.571-85.348 26.625l-1.072-2.342c27.18-18.847 56.304-27.497 86.619-27.497Zm-.437 558.992C91.34 663.902 2.857 540.661 2.857 389.207c0-109.195 45.987-203.71 112.37-247.951 25.711-17.141 54.478-26.744 84.832-26.744 108.76 0 197.243 123.242 197.243 274.735s-88.483 274.695-197.243 274.695"/>
  <path fill="#010101" d="M214.026 248.785c-2.817 2.261-7.459.714-9.126-1.429l9.126 1.429ZM179.903 285.011c.436 1.548-.437 2.54-1.429 3.373h-1.547c-1.111-1.547 2.103-2.103 1.111-4.087l-2.54-.714c.556-2.103 4.762-1.111 4.365 1.428M182.164 293.463c0 1.389-.992 2.817-2.261 3.373-.833.277-1.111-.556-1.825-.715 1.944-.555 1.944-8.848 4.086-2.658ZM82.214 586.251h-.278c-.595-.515-1.071-.714-1.428-.595s-1.468.834-3.333 2.183c-.913.674-1.786 1.349-2.58 2.063-3.73-2.341-6.546-4.841-8.49-7.539-2.54-3.531-3.572-7.182-3.016-10.912.555-3.729 2.619-6.904 6.309-9.562 4.761-3.452 9.562-3.968 14.403-1.548 2.183 1.111 4.285 3.016 6.27 5.754 1.15 1.587 2.102 3.333 2.896 5.198.635 1.547 1.071 2.856 1.23 3.928l-.198.357c-1.111.436-2.897 1.349-5.317 2.857h-.278l-.635-.953v-.238c.238-.158.635-.476 1.27-.952.595-.476.992-.873 1.23-1.111.317-.913.317-2.024 0-3.373a11.725 11.725 0 0 0-1.945-4.166c-2.539-3.492-5.793-4.841-9.8-4.007-1.825.396-3.69 1.269-5.515 2.579-2.937 2.142-4.841 4.602-5.714 7.459-.913 2.976-.476 5.674 1.27 8.134.952 1.31 2.142 2.341 3.61 3.135a43.175 43.175 0 0 0 3.135-2.103c1.071-.754 1.666-1.23 1.825-1.468.12-.198.12-.476-.04-.833-.119-.318-.634-1.191-1.587-2.659v-.278l1.032-.714h.278c.992 1.508 2.063 3.016 3.214 4.603.674.913 1.666 2.262 2.976 4.047v.238l-.834.556.04-.08ZM116.179 599.306h-.278c-.992-1.032-1.825-1.35-2.539-.913-.397.238-1.151.873-2.302 1.865-.833.754-2.063 1.865-3.61 3.333l-4.365 4.126c-2.817 2.659-5.317 4.048-7.5 4.167-2.896.119-5.554-1.072-7.935-3.611-2.182-2.341-3.492-4.523-3.928-6.626-.357-1.786 0-3.413.952-5 .635-.992 2.698-3.135 6.15-6.428l3.65-3.452c2.262-2.143 3.651-3.571 4.246-4.325.238-.317.278-.635.08-.952-.08-.159-.556-.714-1.35-1.706v-.238l.993-.913h.277c.754.913 2.024 2.301 3.809 4.166 1.826 1.905 3.135 3.254 3.968 4.008v.238l-.992.913h-.277c-.913-.834-1.468-1.31-1.627-1.389-.318-.199-.635-.199-.953 0-.793.555-2.301 1.865-4.563 4.007l-2.936 2.778c-3.57 3.412-5.634 5.634-6.15 6.666-1.031 2.103-.397 4.364 1.825 6.705 1.468 1.548 3.016 2.381 4.643 2.461.793 0 1.428-.04 1.984-.278.555-.199 1.27-.675 2.182-1.389a39.322 39.322 0 0 0 2.5-2.103l2.936-2.817c2.46-2.341 4.166-3.968 5.039-4.841.833-.833 1.349-1.389 1.508-1.746.119-.238.119-.555 0-.873-.079-.277-.556-.912-1.31-1.825v-.278l.953-.912h.278c.674.793 1.388 1.627 2.142 2.46.595.595 1.706 1.746 3.412 3.452v.278l-.952.912.04.08ZM136.931 626.962c-2.54 3.61-5.754 5.832-9.642 6.626-1.905.397-3.849.357-5.833-.079-2.143-.477-4.285-1.508-6.428-3.095l-5.198-3.81c-1.428-1.031-2.618-1.864-3.61-2.42v-.278l.277-.436.199-.159c1.111 0 1.706 0 1.865-.079.238-.119.793-.794 1.666-2.024l2.579-3.571 5.754-8.094c1.785-2.54 2.896-4.246 3.293-5.079.159-.357.159-.675-.079-.953-.119-.158-.675-.595-1.627-1.388v-.278l.714-1.111h.278a63.148 63.148 0 0 0 2.936 2.222c2.341 1.627 4.444 3.095 6.348 4.365.953.634 1.905 1.269 2.818 1.944 2.579 1.825 4.364 3.571 5.277 5.158 1.032 1.786 1.428 3.69 1.27 5.793-.199 2.143-1.151 4.365-2.818 6.746m-5.158-2.5c2.103-2.936 3.016-5.674 2.817-8.214-.119-1.349-.555-2.539-1.388-3.61-.754-1.032-2.064-2.183-3.809-3.452a15.903 15.903 0 0 0-2.818-1.667c-.952 1.111-3.015 3.968-6.269 8.571l-4.92 6.983c-1.071 1.547-1.786 2.619-2.063 3.174.793.794 1.627 1.468 2.539 2.143 1.984 1.389 3.77 2.222 5.357 2.42 1.706.199 3.491-.238 5.356-1.349 1.905-1.15 3.651-2.817 5.198-4.999ZM214.225 650.927c-.238 1.905-.357 4.048-.318 6.468l-.158.198-13.332.08c-2.222 0-3.77.079-4.682.198l-.199-.198v-.556l.079-.238c.913-.595 1.389-1.032 1.469-1.151.119-.238.158-1.111.158-2.618v-4.405l-.158-9.919c-.04-3.095-.159-5.119-.318-6.071-.079-.357-.278-.595-.635-.714-.198-.04-.873-.119-2.142-.159l-.199-.199v-1.349l.159-.158c1.23.039 3.135.079 5.714 0 2.301 0 6.666-.119 13.094-.278l.198.159-.198 2.182c-.08.714-.119 1.27-.119 1.746l-.119 1.825-.159.238h-1.071l-.199-.198c-.04-1.786-.159-2.778-.317-3.016-.119-.159-.794-.317-1.984-.397a47.648 47.648 0 0 0-3.095-.119c-1.071 0-2.143.08-3.214.199-.119 1.349-.159 3.253-.119 5.713v4.048c1.031.039 1.825.079 2.42.039h2.381c1.111-.079 1.746-.198 1.905-.357.198-.238.317-1.111.317-2.658l.198-.199h1.151l.198.199v4.007c0 1.31.08 2.738.159 4.325l-.198.199h-1.23l-.199-.199c0-1.507-.158-2.38-.317-2.658-.198-.278-.794-.476-1.786-.516-.754-.04-1.547-.079-2.38-.04-.913 0-1.707.04-2.5.119l.079 5.992c0 1.706.08 3.373.159 4.96h2.5c3.571-.08 5.753-.278 6.547-.596.119-.039.238-.119.277-.238.119-.158.238-.595.358-1.15l.396-2.46.159-.199h1.151l.198.199-.079-.08ZM248.11 633.508c1.23 4.246.992 8.135-.754 11.706-.873 1.745-2.103 3.253-3.69 4.523-1.706 1.389-3.809 2.42-6.428 3.135l-6.229 1.706c-1.706.476-3.095.912-4.166 1.349l-.239-.119-.158-.516v-.238c.714-.833 1.071-1.349 1.111-1.508 0-.278-.159-1.111-.556-2.539l-1.19-4.206-2.817-9.523c-.873-2.976-1.548-4.881-1.944-5.754-.159-.357-.437-.515-.794-.515-.199 0-.913.158-2.103.436l-.238-.159-.397-1.269.159-.238c1.27-.278 2.46-.596 3.571-.953 2.698-.833 5.158-1.587 7.34-2.301 1.072-.357 2.183-.714 3.254-1.032 3.055-.912 5.476-1.23 7.341-.952 2.023.278 3.809 1.151 5.317 2.579 1.547 1.468 2.737 3.611 3.571 6.388m-5.079 2.5c-1.032-3.452-2.619-5.912-4.722-7.301a7.096 7.096 0 0 0-3.69-1.15c-1.27 0-2.976.277-5.079.872a23.337 23.337 0 0 0-3.055 1.151c.317 1.429 1.27 4.841 2.857 10.237l2.46 8.174c.555 1.825.952 3.016 1.23 3.611 1.071-.159 2.182-.357 3.253-.675 2.302-.714 4.048-1.587 5.198-2.738 1.23-1.23 1.984-2.896 2.262-5.039.278-2.222.04-4.602-.675-7.182M287.829 608.908c2.817 3.928 3.928 7.737 3.372 11.506-.516 3.651-2.579 6.746-6.15 9.325-3.412 2.42-6.825 3.333-10.197 2.658-3.373-.674-6.389-2.817-9.007-6.428-3.651-5.118-4.365-9.919-2.103-14.522 1.031-2.063 2.738-3.968 5.158-5.714 3.452-2.46 6.864-3.452 10.197-2.857 3.373.556 6.27 2.58 8.73 6.071m-4.008 4.087c-2.222-3.095-4.523-5.118-6.983-6.11s-4.801-.675-7.023.912c-2.976 2.103-3.889 4.92-2.818 8.452.556 1.825 1.468 3.611 2.738 5.436 2.341 3.253 4.762 5.475 7.261 6.547 2.579 1.111 5.04.833 7.381-.833 2.856-2.024 3.69-4.881 2.499-8.531-.595-1.945-1.626-3.929-3.015-5.873M312.429 591.29c1.588 1.429 2.54 3.214 2.818 5.397.238 1.904 0 3.809-.834 5.793-.714 1.785-1.944 3.65-3.65 5.555-2.103 2.381-4.643 4.285-7.579 5.753l-.476-.079c-.833-1.31-2.301-2.897-4.365-4.762v-.277l.992-1.072h.278l.318.278c.555.476 1.349 1.071 2.341 1.746.992.159 2.182-.119 3.571-.754a11.333 11.333 0 0 0 3.73-2.817c1.983-2.222 2.698-4.365 2.142-6.428-.317-1.032-.833-1.905-1.547-2.579-1.23-1.111-2.659-1.31-4.286-.556-.793.357-1.864 1.151-3.253 2.302-3.055 2.658-5.357 4.206-6.785 4.602-2.183.596-4.246.04-6.19-1.666-1.984-1.786-2.897-3.968-2.698-6.587.238-2.738 1.666-5.595 4.245-8.531 2.381-2.619 4.603-4.444 6.785-5.436l.477.199c.912 1.309 2.142 2.698 3.729 4.206v.317l-.952 1.071h-.317c-1.191-.992-2.024-1.587-2.421-1.825-.754-.04-1.706.199-2.777.794a11.424 11.424 0 0 0-3.056 2.46c-1.349 1.508-2.063 3.015-2.182 4.523-.079 1.389.397 2.579 1.429 3.492 1.15.992 2.38 1.27 3.729.793.873-.317 2.5-1.468 4.841-3.452.238-.198.913-.793 2.063-1.706a16.173 16.173 0 0 1 2.064-1.428c1.388-.833 2.698-1.19 3.968-1.071 1.388.119 2.658.714 3.928 1.825M330.205 568.991c1.706 1.31 2.778 3.016 3.254 5.079.436 1.825.317 3.69-.278 5.674-.595 1.786-1.627 3.65-3.095 5.595-1.865 2.42-4.166 4.404-6.904 5.991l-.516-.079c-.952-1.23-2.499-2.698-4.721-4.404v-.278l.833-1.111h.278l.357.238c.555.436 1.388.952 2.46 1.547.992.08 2.103-.198 3.412-.952 1.349-.714 2.5-1.667 3.412-2.897 1.746-2.261 2.223-4.404 1.469-6.388-.397-.992-.992-1.825-1.786-2.42-1.309-1.032-2.738-1.111-4.246-.357-.753.396-1.745 1.23-2.975 2.42-2.778 2.738-4.881 4.365-6.23 4.841-2.103.714-4.166.278-6.19-1.27-2.103-1.627-3.214-3.73-3.253-6.269-.04-2.698 1.071-5.555 3.372-8.531 2.063-2.698 4.127-4.563 6.19-5.634l.437.158c1.031 1.23 2.38 2.54 4.047 3.889v.317l-.794 1.072h-.317c-1.27-.873-2.103-1.429-2.54-1.627-.754 0-1.626.278-2.658.912-1.071.675-1.984 1.548-2.778 2.54-1.19 1.547-1.746 3.015-1.706 4.484.04 1.388.635 2.499 1.706 3.333 1.191.912 2.421 1.111 3.73.595.833-.357 2.302-1.548 4.405-3.611.238-.198.833-.794 1.864-1.786a16.272 16.272 0 0 1 1.905-1.547c1.27-.873 2.539-1.27 3.809-1.23 1.349 0 2.698.555 4.047 1.587M183.672 656.443s-.119.079-.198.158c-1.19-.317-3.095-.793-5.634-1.349-2.619-.595-4.484-.992-5.635-1.19-.04-.079-.079-.119-.119-.198.119-.516.198-.754.318-1.31.079-.039.119-.079.238-.158 1.269.198 1.984.317 2.182.317.397 0 .674-.198.793-.556.358-.872.913-2.817 1.667-5.832 1.23-5.158 1.825-7.738 3.055-12.856-2.42 3.095-3.65 4.682-6.11 7.777-.357.436-1.548 2.023-3.651 4.761a434.252 434.252 0 0 1-5.198 6.785c-.476-.119-.754-.158-1.23-.277-.238-1.746-.595-3.929-1.071-6.627-.436-2.5-.674-3.769-1.111-6.269-.833-4.603-1.23-6.944-2.024-11.586-1.349 5.237-2.023 7.896-3.412 13.173-.794 3.016-1.19 4.96-1.27 5.912 0 .397.119.675.437.873.159.119.833.357 2.063.754.04.079.079.119.159.238l-.318 1.27-.238.119a78.482 78.482 0 0 0-3.848-1.151c-1.389-.397-2.778-.714-4.206-1.031-.04-.08-.08-.119-.119-.238.119-.516.198-.754.357-1.27.079-.08.119-.08.238-.159 1.23.278 1.944.397 2.142.397.397 0 .635-.159.794-.516.357-.873.992-2.817 1.746-5.793 1.031-4.008 1.587-5.991 2.619-9.999.793-3.016 1.19-5 1.309-5.912.04-.397-.079-.675-.437-.873-.158-.119-.833-.357-2.023-.754l-.119-.238c.119-.516.198-.754.357-1.27.079-.039.119-.079.198-.119 1.191.437 8.095 1.984 8.412 2.302.318.317.357 2.539.635 4.483.198 1.151.278 1.746.476 2.936a800.606 800.606 0 0 0 2.579 14.047c1.707-2.064 2.54-3.135 4.206-5.198 2.659-3.492 4.008-5.198 6.627-8.69.793-1.031 1.865-3.214 2.38-3.372.516-.199 6.785 1.587 8.095 1.785.039.079.079.119.119.198-.119.516-.199.794-.318 1.31-.079.039-.119.079-.198.119-1.23-.199-1.984-.278-2.143-.278-.357 0-.635.238-.793.556-.357.873-.913 2.817-1.627 5.872a762.234 762.234 0 0 0-2.341 10.078c-.714 3.016-1.071 5-1.151 5.952 0 .397.119.675.476.833.159.08.873.318 2.103.675.04.079.08.119.119.238-.119.516-.198.754-.317 1.27"/>
</svg>
