<svg xmlns="http://www.w3.org/2000/svg" fill="none" viewBox="0 0 400 509">
  <path fill="#D3001B" d="M395.892 0s49.601 345.738-195.91 508.551C-45.528 345.738 4.117 0 4.117 0h391.775Z"/>
  <path fill="#FFD800" d="M295.654 308.464a23.51 23.51 0 0 1-10.022-22.083v-35.636a133.638 133.638 0 0 0-9.968-61.027 72.811 72.811 0 0 0-57.908-39.679 8.907 8.907 0 0 1-7.584-8.797v-30.391c4.822 3.341 9.644 6.57 14.878 9.621 0-9.944-1.114-19.243-1.459-28.954 8.909-4.733 17.818-8.508 26.66-13.675-8.909-5.1-17.818-8.81-26.671-13.464.379-9.744 1.492-19.077 1.47-29.066-8.909 5.167-16.571 11.025-25.09 16.404-8.519-5.379-16.203-11.237-25.09-16.404 0 9.945 1.113 19.244 1.459 28.954-8.909 4.733-17.818 8.509-26.661 13.676 8.909 5.09 17.818 8.809 26.661 13.464-.379 9.744-1.493 19.076-1.47 29.065 5.245-3.04 10.022-6.336 14.878-9.621v30.391a8.91 8.91 0 0 1-7.584 8.797 72.828 72.828 0 0 0-57.909 39.679 133.637 133.637 0 0 0-9.967 61.027v35.603a23.499 23.499 0 0 1-10.023 22.083 25.737 25.737 0 0 1-11.403 3.508v23.486a49.088 49.088 0 0 0 22.328-6.18 45.5 45.5 0 0 0 22.551-42.897v-35.859c-.423-38.81 4.032-76.841 62.23-78.522 58.198 1.692 62.653 39.712 62.218 78.522v35.859a45.506 45.506 0 0 0 22.551 42.897 49.076 49.076 0 0 0 22.329 6.18v-23.486a25.738 25.738 0 0 1-11.404-3.475Z"/>
</svg>
