<svg xmlns="http://www.w3.org/2000/svg" fill="none" viewBox="0 0 400 511">
  <path fill="#FFD600" stroke="#000" stroke-width="8" d="M393.938 4c.072 1.643.163 3.792.266 6.401.259 6.558.596 16.014.908 27.6.624 23.174 1.148 54.853.748 88.883-.4 34.039-1.724 70.378-4.788 102.887-3.025 32.105-7.719 60.109-14.72 78.475l-.335.867v.001c-25.462 65.014-69.849 113.717-107.999 146.217-19.061 16.238-36.522 28.394-49.205 36.482-6.339 4.044-11.481 7.069-15.027 9.078a215.824 215.824 0 0 1-3.515 1.946 283.744 283.744 0 0 1-4.083-2.526c-3.865-2.436-9.446-6.062-16.276-10.801a549.585 549.585 0 0 1-52.179-41.166c-39.518-35.306-83.6-85.464-103.569-145.696l-.468-1.424-.008.001C10.309 259.944 5.643 184.937 4.392 119.714c-.624-32.507-.4-62.403-.02-84.175.19-10.885.42-19.736.6-25.863.068-2.282.13-4.186.18-5.676h388.787Z"/>
  <path fill="#231F20" fill-rule="evenodd" d="M74.228 145.491s2.073-13.872 31.163-4.146c0 0 .683 0 1.389 1.389 0 0 16.607-36.014 25.583-42.917 0 0 .684-.684 0-2.073 0 0-4.83-2.757-6.925-7.63 0 0-5.536.683-8.292-2.758 0 0-12.461 0-15.218-.683-3.484-.684-4.874-2.757-4.874-4.147 0-.683 4.168 0 4.168 0s0-2.073.684-5.535c0 0 2.073 5.535 3.463 5.535h3.462s.684-4.146 2.073-5.535c0 0 1.39 5.535 3.463 5.535 0 0 1.389.684 1.389-1.389s-.684-5.535-2.757-6.22c0 0-.683-.683-2.073-.683-1.389 0-3.462 3.463-3.462 6.925 0 0-2.073-2.073-2.073-6.22v-.683h-2.757s-2.757 0-2.757 4.146v1.39s-2.8-.684-3.484-5.536c0 0-2.757-1.39-3.463-6.925 0 0-2.757-2.073-2.073-5.535 0 0-.684-1.39 4.83-1.39l2.073.684s2.801-2.757 8.336-2.757c0 0 0-3.462 4.147-4.852 4.146-1.39 7.608-2.073 8.998-2.757 0 0 4.146-.683 6.219 2.074l.684 1.389.683-4.852s0-2.757 4.146-4.146c4.147-2.095 9.682 2.073 9.682 3.462.684 1.39-.683 4.147-1.389 4.852l.684 2.073s14.555-8.292 20.774-8.998c0 0 17.997 0 35.971 6.925 13.872 4.852 29.773-.683 40.844-1.39 11.071-1.389 32.552-1.389 43.623 4.147 0 0 22.87 11.755 24.237 13.828.684 1.39 8.293 11.071 10.366 13.144 0 0 .684.706 0 1.39-.684 1.39-2.073 5.535-4.146 4.146 0 0-4.146-4.146-4.83-4.146-.684.683-1.39 1.39-.684 2.073 0 0 4.852 4.146 5.536 5.535 0 0 8.292 17.335 8.998 38.066.706 21.48 4.146 21.48 4.852 24.921.683 3.462 0 4.146-2.073 4.146 0 0-12.461 0-15.923.684-3.463.683-9.704.683-13.872.683 0 0-4.852-1.389-6.925 2.779l-.684 2.073s-2.073-6.219 2.779-7.608c0 0-4.147-1.39-5.536 1.389 0 0-.684.684-.684 1.389 0 0-1.389-6.925 6.22-7.608 0 0-3.463-2.073-6.925 1.389 0 0 1.389-6.925 8.998-4.83 6.241.684 12.482 2.757 18.702 2.073 6.219-.683 3.462-2.756 2.778-3.462-.705-1.389-9.681-15.945-28.383-25.627-13.828-7.609-15.218-18.68-15.218-18.68s-33.919 49.137-35.308 50.526c-1.39 1.39-2.073 2.073-7.609 2.073-5.535 0-7.608.684-8.998 1.39-1.389.683-3.462 1.389-8.292 1.389 0 0-3.463 0-4.146 4.146 0 0-2.073-5.535 2.756-6.925 0 0 .684 0 1.39-.683 0 0-4.83-2.074-7.609 3.462 0 0 .706-8.314 6.925-7.609 0 0-2.073-2.756-5.535 0l-1.39 1.39s1.39-6.925 7.609-5.536c0 0 2.073 0 2.757 1.39 0 0 2.073-.684 9.681 0 6.925.705 6.22-.684 6.925-2.757 0 0 4.146-31.163 4.852-34.625 0-3.463 3.463-6.219 10.366-8.998 0 0 1.389-.684.683-2.073-1.389-1.39-5.535.683-5.535.683-2.779.684-12.461 4.147-34.581 4.147 0 0-10.41 0-17.313-2.757-6.925-2.073-4.146 2.073-3.462 2.757 0 0 4.83 5.535 5.535 10.365 1.368 5.536 1.368 29.773 2.074 31.163 0 .683 0 2.778 2.073 4.829 2.073 2.073 0 3.463-.684 4.147-.684.683-2.073 2.073-5.536 2.073-2.756 0-4.851-.706-11.754.683-6.22 2.073-10.388 2.073-11.755 2.073 0 0-6.22.684-7.609 4.147 0 0-.684-6.22 4.852-7.609 0 0-4.852-1.39-6.925 2.757l-1.389 1.389s1.389-8.292 7.608-8.998c0 0-4.852-2.073-7.608 2.073 0 0 1.389-7.609 10.365-5.536 0 0 8.998-.683 15.217 0 0 0 2.073.706 3.463.706 1.389 0 .683-2.073 0-3.462-.684-1.39-17.974-22.87-20.753-38.066 0 0-.684-4.852-5.536-4.146 0 0-1.389.684-1.389 2.073-.684 2.073 0 9.682-2.073 11.071-2.095 2.073-33.919 22.826-38.771 33.92 0 0 0 .683-2.073.683s-8.998-2.073-13.872-1.389c0 0-4.852 1.389-6.22 1.389-.683.684-6.925 1.39-8.292 6.22 0 0-2.073-7.609 5.536-8.999 0 0-7.61-1.389-11.755 2.757 0 0 2.073-6.219 8.292-6.925 0 0-6.22-4.19-9.682.684l-.022.022Zm8.204-67.265s2.78 3.463 4.83 1.39c2.757-1.39 7.609-2.757 9.682-.684 0 0 .684.683 1.39 2.073 0 0-2.757-1.39-4.853-.684-2.756.684-6.924 5.536-11.07-2.073l.021-.022Zm36.698-13.74a10.52 10.52 0 0 1-4.807-1.654 10.421 10.421 0 0 1 4.697-1.919 2.153 2.153 0 0 0-.904 1.743c0 .706.419 1.433 1.014 1.83Zm2.294-3.66c1.764.154 3.44.75 4.852 1.653-1.345 1.015-2.977 1.676-4.742 1.963.574-.419.927-1.058.927-1.764s-.419-1.434-1.015-1.83l-.022-.023ZM77.867 176.896h28.009v29.508h9.064v-29.508h35.507v29.508h9.065v-29.508h34.801v50.658h-9.064v108.132h29.442V227.554h-8.998v-50.658h33.235v29.508h9.837v-29.508h34.029v29.508h9.836v-29.508h29.464v50.636h-32.375l23.069 147.476H86.954l23.443-147.454h-32.53v-50.658Z" clip-rule="evenodd"/>
</svg>