<svg width="401" height="492" viewBox="0 0 401 492" fill="none" xmlns="http://www.w3.org/2000/svg">
<g clip-path="url(#clip0)">
<path fill-rule="evenodd" clip-rule="evenodd" d="M201.038 491.956C420.903 322.64 399.964 51.2947 399.964 0.672852H0.96082C0.96082 48.1505 -18.8271 322.588 200.934 491.904L201.038 491.956V491.956Z" fill="#0C93CB"/>
<path d="M243.964 250.9H212.555L204.702 58.0553L313.588 234.708C313.588 234.708 305.474 250.429 243.807 250.9H243.964V250.9ZM200.567 35.2597C199.718 35.2597 198.888 35.0077 198.182 34.5355C197.476 34.0634 196.926 33.3922 196.601 32.607C196.276 31.8219 196.191 30.9579 196.357 30.1243C196.522 29.2907 196.931 28.5251 197.532 27.9241C198.132 27.3232 198.897 26.9139 199.729 26.7481C200.562 26.5823 201.425 26.6674 202.21 26.9926C202.994 27.3179 203.664 27.8686 204.136 28.5753C204.608 29.2819 204.86 30.1127 204.86 30.9626C204.846 32.0981 204.389 33.1832 203.587 33.9861C202.785 34.789 201.701 35.2461 200.567 35.2597V35.2597ZM188.265 250.9H156.856C95.1363 250.324 87.0745 234.708 87.0745 234.708L195.803 58.1601L188.265 250.9V250.9ZM189.835 45.95C188.697 45.95 187.605 45.4973 186.8 44.6915C185.995 43.8856 185.543 42.7926 185.543 41.6529C185.543 40.5133 185.995 39.4203 186.8 38.6144C187.605 37.8086 188.697 37.3559 189.835 37.3559C190.974 37.3559 192.066 37.8086 192.871 38.6144C193.676 39.4203 194.128 40.5133 194.128 41.6529C194.128 42.7926 193.676 43.8856 192.871 44.6915C192.066 45.4973 190.974 45.95 189.835 45.95V45.95ZM211.298 37.3559C212.147 37.3559 212.977 37.6079 213.683 38.08C214.389 38.5522 214.939 39.2233 215.264 40.0085C215.589 40.7937 215.674 41.6577 215.509 42.4913C215.343 43.3248 214.934 44.0905 214.334 44.6915C213.733 45.2924 212.969 45.7017 212.136 45.8675C211.303 46.0333 210.44 45.9482 209.656 45.6229C208.871 45.2977 208.201 44.7469 207.729 44.0403C207.258 43.3336 207.006 42.5028 207.006 41.6529C207.019 40.5175 207.476 39.4324 208.278 38.6295C209.08 37.8266 210.164 37.3695 211.298 37.3559V37.3559ZM341.281 150.757C343.694 154.828 345.088 159.423 345.343 164.15C345.598 168.876 344.707 173.595 342.746 177.902C334.004 197.606 321.807 227.004 321.807 227.004L206.639 49.2515V46.4217C207.911 47.6794 209.618 48.3921 211.403 48.413C212.336 48.4955 213.277 48.3827 214.164 48.0818C215.051 47.7808 215.866 47.2984 216.557 46.665C217.248 46.0317 217.8 45.2614 218.178 44.403C218.555 43.5446 218.75 42.617 218.75 41.6792C218.75 40.7413 218.555 39.8137 218.178 38.9553C217.8 38.0969 217.248 37.3266 216.557 36.6933C215.866 36.0599 215.051 35.5775 214.164 35.2765C213.277 34.9756 212.336 34.8628 211.403 34.9453C209.587 34.9453 207.849 35.6789 206.587 36.989L205.488 35.6265C206.103 35.0161 206.591 34.2896 206.923 33.489C207.256 32.6884 207.426 31.8297 207.425 30.9626C207.276 29.2657 206.497 27.6863 205.242 26.5358C203.987 25.3852 202.347 24.7471 200.645 24.7471C198.944 24.7471 197.304 25.3852 196.049 26.5358C194.794 27.6863 194.015 29.2657 193.866 30.9626C193.882 32.7234 194.578 34.416 195.803 35.6789L194.756 36.989C193.468 35.6896 191.717 34.9547 189.888 34.9453C188.77 34.9331 187.667 35.1986 186.678 35.7181C185.688 36.2375 184.843 36.9947 184.217 37.9217C183.592 38.8487 183.206 39.9166 183.095 41.0296C182.983 42.1426 183.149 43.2659 183.578 44.2989C184.007 45.3319 184.685 46.2422 185.551 46.9482C186.418 47.6543 187.446 48.134 188.544 48.3444C189.641 48.5548 190.774 48.4892 191.84 48.1537C192.906 47.8181 193.872 47.223 194.651 46.4217V49.5659L79.484 227.214C79.484 227.214 74.7202 215.947 58.5444 178.584C56.6097 174.279 55.7331 169.572 55.9881 164.859C56.2432 160.145 57.6223 155.561 60.0102 151.491L31.9512 137.709C31.9512 137.709 64.041 246.761 80.0598 280.351C91.2625 303.881 110.37 322.274 135.393 322.274H266.265C291.497 322.274 311.389 304.352 322.016 280.351C337.407 245.87 370.073 137.709 370.073 137.709L341.281 150.757V150.757Z" fill="white"/>
</g>
<defs>
<clipPath id="clip0">
<rect x="0.5" y="0.672852" width="400" height="491.28" fill="white"/>
</clipPath>
</defs>
</svg>
