<svg width="401" height="505" viewBox="0 0 401 505" fill="none" xmlns="http://www.w3.org/2000/svg">
<g clip-path="url(#clip0)">
<path fill-rule="evenodd" clip-rule="evenodd" d="M400.388 0.672852C402.248 174.534 382.723 353.974 202.354 504.592C21.0549 353.974 -1.25885 173.604 0.600629 0.672852H400.388Z" fill="#2272DC"/>
<path fill-rule="evenodd" clip-rule="evenodd" d="M200.5 9.91113C167.959 32.2249 142.856 64.7658 137.278 88.0092C123.332 144.723 174.467 159.599 179.116 279.536C168.889 182.843 139.137 147.513 116.824 122.41C84.2827 89.8687 41.5147 106.604 30.3579 140.075C8.04414 206.086 65.6879 273.027 114.964 271.168C105.667 262.8 93.5801 246.065 95.4396 231.189C99.1585 202.367 125.191 198.648 139.137 212.594C153.083 226.54 161.451 280.465 161.451 280.465H146.575V317.655H158.662C158.662 317.655 152.154 349.266 130.77 348.336C117.753 347.407 111.245 336.25 113.105 326.023C106.596 327.882 94.5098 345.547 96.3693 360.423C100.088 387.385 137.278 398.542 154.943 372.51C163.31 360.423 171.678 348.336 176.327 319.514C172.608 366.931 159.592 372.509 154.943 413.418C153.083 439.451 191.203 464.554 200.5 468.273V9.91113Z" fill="#E0E4E8"/>
<mask id="mask0" mask-type="alpha" maskUnits="userSpaceOnUse" x="200" y="47" width="193" height="346">
<path fill-rule="evenodd" clip-rule="evenodd" d="M200.5 125.212V204.24L279.519 128.002L379.962 233.093L392.978 165.222L282.308 47.1143L200.5 125.212Z" fill="#B4A76C"/>
<path fill-rule="evenodd" clip-rule="evenodd" d="M200.5 284.262V363.29L279.519 287.051L379.962 392.143L392.978 324.272L282.308 206.164L200.5 284.262Z" fill="#B4A76C"/>
</mask>
<g mask="url(#mask0)">
<path fill-rule="evenodd" clip-rule="evenodd" d="M400.388 1.67285C402.248 175.534 382.723 354.974 202.354 505.592C21.0549 354.974 -1.25885 174.604 0.600629 1.67285H400.388Z" fill="#B4A76C"/>
</g>
</g>
<defs>
<clipPath id="clip0">
<rect x="0.5" y="0.672852" width="400" height="503.92" fill="white"/>
</clipPath>
</defs>
</svg>
