<svg width="401" height="466" viewBox="0 0 401 466" fill="none" xmlns="http://www.w3.org/2000/svg">
<g clip-path="url(#clip0)">
<path d="M399.931 0.672852C406.336 215.549 359.852 372.458 200.5 465.623C41.1475 372.458 -5.33571 215.549 1.06904 0.672852C125.305 0.672852 76.2643 0.943741 200.5 0.672852C324.736 0.943741 275.695 0.672852 399.931 0.672852Z" fill="#FFE000"/>
<mask id="mask0" mask-type="alpha" maskUnits="userSpaceOnUse" x="18" y="81" width="365" height="385">
<path d="M25.2054 239.485V465.623H375.795V239.485L359.24 204.836L332.071 147.766C330.528 144.525 333.952 141.507 337.102 144.46C345.514 152.345 350.174 157.118 358.234 160.848C364.756 163.866 373.895 165.52 379.51 153.66C383.168 145.931 382.629 131.067 379.51 121.891C377.27 115.305 371.08 108.141 359.959 113.122C351.606 116.863 345.198 124.02 338.109 129.941C334.172 133.229 330.255 128.368 333.077 125.341C341.322 116.497 351.336 107.058 351.909 96.0153C352.302 88.4298 345.488 81.4727 326.887 81.4727C308.286 81.4727 301.471 88.4298 301.865 96.0153C302.438 107.058 312.451 116.497 320.696 125.341C323.518 128.368 319.602 133.229 315.665 129.941C308.575 124.02 302.168 116.863 293.814 113.122C282.694 108.141 276.503 115.305 274.264 121.891C271.144 131.067 270.605 145.931 274.264 153.66C279.879 165.52 289.018 163.866 295.539 160.848C303.6 157.118 308.259 152.345 316.671 144.46C319.822 141.507 323.246 144.525 321.702 147.766L294.533 204.836L268.878 258.726C267.334 261.968 270.758 264.986 273.909 262.033C282.321 254.147 286.98 249.375 295.041 245.645C301.562 242.627 310.702 240.972 316.316 252.832C319.975 260.561 319.436 275.426 316.316 284.602C314.077 291.188 307.886 298.351 296.766 293.371C288.413 289.63 282.005 282.473 274.915 276.552C270.979 273.264 267.062 278.125 269.884 281.152C278.129 289.996 288.143 299.435 288.716 310.477C289.109 318.063 282.295 325.02 263.693 325.02C245.092 325.02 238.278 318.063 238.671 310.477C239.244 299.435 249.258 289.996 257.503 281.152C260.325 278.125 256.408 273.264 252.472 276.552C245.382 282.473 238.974 289.63 230.621 293.371C219.501 298.351 213.31 291.188 211.071 284.602C207.951 275.426 207.412 260.561 211.071 252.832C216.685 240.972 225.825 242.627 232.346 245.645C240.407 249.375 245.066 254.147 253.478 262.033C256.628 264.986 260.052 261.968 258.509 258.726L232.854 204.836L205.684 147.766C204.141 144.525 207.565 141.507 210.716 144.46C219.128 152.345 223.787 157.118 231.847 160.848C238.369 163.866 247.508 165.52 253.123 153.66C256.782 145.931 256.243 131.067 253.123 121.891C250.884 115.305 244.693 108.141 233.572 113.122C225.219 116.863 218.812 124.02 211.722 129.941C207.785 133.229 203.869 128.368 206.691 125.341C214.936 116.497 224.949 107.058 225.522 96.0153C225.916 88.4298 219.101 81.4727 200.5 81.4727C181.899 81.4727 175.084 88.4298 175.478 96.0153C176.051 107.058 186.065 116.497 194.31 125.341C197.132 128.368 193.215 133.229 189.278 129.941C182.189 124.02 175.781 116.863 167.428 113.122C156.307 108.141 150.117 115.305 147.877 121.891C144.757 131.067 144.219 145.931 147.877 153.66C153.492 165.52 162.631 163.866 169.153 160.848C177.213 157.118 181.873 152.345 190.284 144.46C193.435 141.507 196.859 144.525 195.316 147.766L168.147 204.836L142.491 258.726C140.948 261.968 144.372 264.986 147.522 262.033C155.934 254.147 160.594 249.375 168.654 245.645C175.176 242.627 184.315 240.972 189.93 252.832C193.588 260.561 193.049 275.426 189.93 284.602C187.69 291.188 181.5 298.351 170.379 293.371C162.026 289.63 155.618 282.473 148.529 276.552C144.592 273.264 140.675 278.125 143.497 281.152C151.742 289.996 161.756 299.435 162.329 310.477C162.723 318.063 155.908 325.02 137.307 325.02C118.706 325.02 111.891 318.063 112.285 310.477C112.858 299.435 122.871 289.996 131.116 281.152C133.938 278.125 130.021 273.264 126.085 276.552C118.995 282.473 112.588 289.63 104.234 293.371C93.114 298.351 86.9233 291.188 84.684 284.602C81.5642 275.426 81.0252 260.561 84.684 252.832C90.2986 240.972 99.438 242.627 105.959 245.645C114.02 249.375 118.679 254.147 127.091 262.033C130.242 264.986 133.666 261.968 132.123 258.726L106.467 204.836L79.2977 147.766C77.7545 144.525 81.1784 141.507 84.3291 144.46C92.7411 152.345 97.4004 157.118 105.461 160.848C111.982 163.866 121.122 165.52 126.736 153.66C130.395 145.931 129.856 131.067 126.736 121.891C124.497 115.305 118.306 108.141 107.186 113.122C98.8327 116.863 92.4249 124.02 85.3354 129.941C81.3988 133.229 77.4819 128.368 80.304 125.341C88.5489 116.497 98.5627 107.058 99.1357 96.0153C99.5292 88.4298 92.7146 81.4727 74.1135 81.4727C55.5124 81.4727 48.6977 88.4298 49.0913 96.0153C49.6642 107.058 59.678 116.497 67.9229 125.341C70.745 128.368 66.8282 133.229 62.8916 129.941C55.802 124.02 49.3942 116.863 41.0411 113.122C29.9207 108.141 23.73 115.305 21.4907 121.891C18.3708 131.067 17.8319 145.931 21.4907 153.66C27.1053 165.52 36.2447 163.866 42.7661 160.848C50.8266 157.118 55.4859 152.345 63.8978 144.46C67.0485 141.507 70.4724 144.525 68.9292 147.766L41.7599 204.836L25.2054 239.485Z" fill="#32AC60"/>
</mask>
<g mask="url(#mask0)">
<path d="M399.931 0.672852C406.336 215.549 359.852 372.458 200.5 465.623C41.1475 372.458 -5.33571 215.549 1.06904 0.672852C125.305 0.672852 76.2643 0.943741 200.5 0.672852C324.736 0.943741 275.695 0.672852 399.931 0.672852Z" fill="#32AC60"/>
</g>
</g>
<defs>
<clipPath id="clip0">
<rect x="0.5" y="0.672852" width="400" height="464.95" fill="white"/>
</clipPath>
</defs>
</svg>
