<svg width="401" height="523" viewBox="0 0 401 523" fill="none" xmlns="http://www.w3.org/2000/svg">
<g clip-path="url(#clip0)">
<rect x="0.5" y="0.672852" width="400" height="521.59" fill="white"/>
<path d="M200.209 522.05C122.395 465.595 69.061 394.294 37.1483 304.105C8.20906 222.334 -3.40222 123.235 1.64434 1.15448L1.66528 0.672852H399.339L399.36 1.15448C404.396 123.235 392.784 222.324 363.856 304.105C331.943 394.294 278.609 465.595 200.795 522.05L200.502 522.259L200.209 522.05Z" fill="#0085CA"/>
<path d="M63.1718 306.151C80.9523 270.343 101.515 255.555 117.806 249.104L125.745 260.281L112.602 269.159C120.857 285.137 135.017 293.807 148.261 293.362L223.867 403.776C237.692 397.61 251.073 389.246 261.599 378.79L187.317 270.071C192.517 256.623 190.22 237.864 177.157 226.13L163.477 235.294C163.185 235.245 138.64 204.574 131.356 191.315C123.649 177.286 126.777 165.534 120.961 153.943C98.0748 174.698 91.1711 194.037 93.4896 214.579C81.3624 220.195 48.7001 265.083 63.1718 306.151Z" fill="white"/>
<path d="M168.227 242.146L176.431 235.824C181.313 242.442 183.164 251.537 180.169 259.541L168.227 242.146Z" fill="#0085CA"/>
<path opacity="0.99" fill-rule="evenodd" clip-rule="evenodd" d="M186.609 299.098C186.609 300.788 185.963 302.409 184.815 303.604C183.666 304.799 182.108 305.47 180.483 305.47C178.859 305.47 177.301 304.799 176.152 303.604C175.003 302.409 174.358 300.788 174.358 299.098C174.358 297.407 175.003 295.786 176.152 294.591C177.301 293.396 178.859 292.725 180.483 292.725C182.108 292.725 183.666 293.396 184.815 294.591C185.963 295.786 186.609 297.407 186.609 299.098Z" fill="#0085CA"/>
<path opacity="0.99" fill-rule="evenodd" clip-rule="evenodd" d="M230.464 362.8C230.465 363.637 230.307 364.467 230 365.241C229.692 366.015 229.241 366.718 228.672 367.311C228.103 367.903 227.428 368.373 226.684 368.694C225.941 369.015 225.144 369.18 224.339 369.18C223.534 369.18 222.737 369.015 221.993 368.694C221.249 368.373 220.574 367.903 220.005 367.311C219.436 366.718 218.985 366.015 218.678 365.241C218.37 364.467 218.212 363.637 218.213 362.8C218.212 361.962 218.37 361.133 218.678 360.359C218.985 359.585 219.436 358.882 220.005 358.289C220.574 357.697 221.249 357.227 221.993 356.906C222.737 356.585 223.534 356.42 224.339 356.42C225.144 356.42 225.941 356.585 226.684 356.906C227.428 357.227 228.103 357.697 228.672 358.289C229.241 358.882 229.692 359.585 230 360.359C230.307 361.133 230.465 361.962 230.464 362.8Z" fill="#0085CA"/>
<path d="M130.288 266.918L122.238 272.203C126.786 279.054 134.002 285.032 142.547 284.956L130.288 266.918Z" fill="#0085CA"/>
<path d="M150.073 174.7C167.854 138.892 188.417 124.103 204.707 117.653L212.647 128.829L199.504 137.707C207.759 153.685 221.596 161.951 234.839 161.507L310.768 272.325C324.593 266.159 337.975 257.794 348.5 247.339L274.137 138.7C279.337 125.252 277.122 106.412 264.058 94.678L250.379 103.843C250.086 103.793 225.541 73.1219 218.257 59.8631C210.551 45.8348 213.679 34.0826 207.863 22.4917C184.976 43.2467 178.073 62.5858 180.391 83.1274C168.264 88.7432 135.602 133.632 150.073 174.7Z" fill="white"/>
<path d="M255.209 110.694L263.333 104.373C268.214 110.991 270.388 120.57 267.394 128.574L255.209 110.694Z" fill="#0085CA"/>
<path opacity="0.99" fill-rule="evenodd" clip-rule="evenodd" d="M273.51 167.646C273.51 169.336 272.865 170.957 271.716 172.152C270.567 173.347 269.009 174.019 267.385 174.019C265.76 174.019 264.202 173.347 263.053 172.152C261.905 170.957 261.259 169.336 261.259 167.646C261.259 165.956 261.905 164.335 263.053 163.14C264.202 161.944 265.76 161.273 267.385 161.273C269.009 161.273 270.567 161.944 271.716 163.14C272.865 164.335 273.51 165.956 273.51 167.646Z" fill="#0085CA"/>
<path opacity="0.99" fill-rule="evenodd" clip-rule="evenodd" d="M317.365 231.349C317.365 233.039 316.72 234.66 315.571 235.855C314.423 237.05 312.865 237.721 311.24 237.721C309.615 237.721 308.057 237.05 306.909 235.855C305.76 234.66 305.115 233.039 305.115 231.349C305.115 229.658 305.76 228.037 306.909 226.842C308.057 225.647 309.615 224.976 311.24 224.976C312.865 224.976 314.423 225.647 315.571 226.842C316.72 228.037 317.365 229.658 317.365 231.349Z" fill="#0085CA"/>
<path d="M217.189 135.467L209.139 140.752C213.688 147.603 220.742 153.338 229.287 153.262L217.189 135.467Z" fill="#0085CA"/>
</g>
<defs>
<clipPath id="clip0">
<rect x="0.5" y="0.672852" width="400" height="521.59" fill="white"/>
</clipPath>
</defs>
</svg>
