<svg width="401" height="463" viewBox="0 0 401 463" fill="none" xmlns="http://www.w3.org/2000/svg">
<g clip-path="url(#clip0)">
<path d="M200.388 462.196C195.891 459.732 191.394 456.597 187.122 453.462C167.56 439.131 148.448 423.903 130.91 406.661L113.372 388.522C103.03 377.997 93.8109 367.025 84.8171 356.052C49.7412 312.833 31.3039 262.001 20.0616 208.705C6.34604 141.974 2.52373 70.3155 0.275269 0.672852H400.5C398.252 70.3155 394.429 141.974 380.714 208.705C369.471 262.001 351.034 312.833 315.958 356.052C306.964 367.025 297.746 377.997 287.403 388.522L269.865 406.661C252.327 423.903 233.215 439.131 213.654 453.462C209.382 456.597 204.885 459.732 200.388 462.196Z" fill="#00ADE9"/>
<mask id="mask0" mask-type="alpha" maskUnits="userSpaceOnUse" x="4" y="77" width="297" height="257">
<path d="M300.219 94.7237H267.167L234.115 128.985H4.09788V77.705H300.219V94.7237Z" fill="white"/>
<path d="M267.392 197.06H234.115L200.838 231.322H4.09788V180.042H267.392V197.06Z" fill="white"/>
<path d="M234.115 299.621H201.512L168.46 333.882H4.09778L4.09788 282.602H234.115V299.621Z" fill="white"/>
</mask>
<g mask="url(#mask0)">
<path d="M200.388 462.196C195.891 459.732 191.394 456.597 187.122 453.462C167.56 439.131 148.448 423.903 130.91 406.661L113.372 388.522C103.03 377.997 93.8109 367.025 84.8171 356.052C49.7412 312.833 31.3039 262.001 20.0616 208.705C6.34604 141.974 2.52373 70.3155 0.275269 0.672852H400.5C398.252 70.3155 394.429 141.974 380.714 208.705C369.471 262.001 351.034 312.833 315.958 356.052C306.964 367.025 297.746 377.997 287.403 388.522L269.865 406.661C252.327 423.903 233.215 439.131 213.654 453.462C209.382 456.597 204.885 459.732 200.388 462.196Z" fill="white"/>
</g>
<path d="M188.009 452.253L188.008 452.252C168.482 437.947 149.438 422.771 131.976 405.604L114.451 387.479L114.442 387.471C104.15 376.997 94.9671 366.069 85.9784 355.103C51.111 312.139 32.745 261.564 21.5301 208.399C7.94461 142.299 4.07989 71.3204 1.82473 2.17285H398.951C396.695 71.3205 392.831 142.299 379.245 208.4C368.03 261.565 349.664 312.14 314.796 355.104C305.807 366.07 296.625 376.998 286.333 387.471L286.325 387.479L268.799 405.605C251.337 422.772 232.293 437.947 212.767 452.252L212.766 452.253C208.738 455.209 204.556 458.13 200.388 460.479C196.219 458.13 192.037 455.209 188.009 452.253Z" stroke="#00ADE9" stroke-width="3"/>
</g>
<defs>
<clipPath id="clip0">
<rect x="0.5" y="0.672852" width="400" height="461.52" fill="white"/>
</clipPath>
</defs>
</svg>
