<svg width="401" height="467" viewBox="0 0 401 467" fill="none" xmlns="http://www.w3.org/2000/svg">
<g clip-path="url(#clip0)">
<path d="M0.5 0H400.5C400.5 199.514 392.274 283.593 200.865 466.835C8.75973 283.62 0.5 199.085 0.5 0Z" fill="#003057"/>
<path d="M324.473 212.373C323.95 211.669 311.882 194.821 301.825 184.516C291.803 174.218 280.405 169.163 270.959 170.685C254.379 162.573 240.333 161.567 229.084 167.789C217.385 174.225 209.091 188.331 204.278 209.906V161.118C204.217 154.836 205.256 150.083 205.531 149.138C205.531 149.111 205.531 149.111 205.498 149.077C209.366 133.262 216.345 121.623 225.611 116.501C233.079 112.384 241.641 112.633 251.154 117.205L251.208 117.567C251.362 118.331 253.434 125.646 275.042 145.792C284.274 154.414 290.857 159.167 296.402 161.118C300.424 162.546 302.375 162.184 303.81 161.541C305.178 160.937 305.942 160.173 305.942 160.173C303.562 157.947 284.582 135.454 281.015 129.876C287.653 132.29 295.155 135.239 301.551 136.185L303.354 136.46C313.196 137.921 318.922 134.603 319.17 134.482L322.274 132.652L319.17 130.821C318.405 130.365 300.545 119.913 287.136 114.583C273.976 109.341 261.633 109.28 253.615 114.309C242.707 108.851 232.496 108.456 223.814 113.236C215.4 117.875 208.756 127.261 204.371 139.933C207.657 114.61 214.944 100.84 220.308 90.9306C221.313 90.6624 228.661 88.0679 247.862 66.3995C256.243 56.9531 260.842 50.2488 262.639 44.6775C263.946 40.6214 263.551 38.6704 262.88 37.2692C262.243 35.9284 261.479 35.1641 261.479 35.1641C259.313 37.6044 237.317 57.1341 231.826 60.8885C234.052 54.1842 236.827 46.6217 237.591 40.1923L237.799 38.3955C238.993 28.5201 235.547 22.8817 235.392 22.6404L233.475 19.5564L231.732 22.7342C231.309 23.4918 221.313 41.627 216.345 55.1564C211.384 68.632 211.719 81.1222 217.17 88.9797C211.015 100.377 202.3 116.655 199.672 149.138C197.091 134.636 192.853 122.233 186.907 112.143C180.692 101.537 173.833 95.4493 168.597 91.762C169.268 82.3089 163.381 71.4881 152.594 62.3501C141.599 53.0512 123.946 42.2036 123.216 41.7477L120.138 39.8571L119.991 43.4573C119.991 43.7255 119.743 50.3426 125.69 58.3543L126.756 59.8159C130.59 65.0318 136.718 70.2411 141.988 74.9676C135.377 74.4179 106.609 68.2633 103.532 67.2241C103.532 67.2241 103.264 68.2633 103.351 69.7517C103.438 71.3071 104.048 73.1977 107.219 76.0604C111.543 80.0227 118.858 83.5894 130.805 87.6723C158.749 97.2394 166.184 95.6236 166.921 95.4158L167.283 95.3219C172.13 98.8551 178.225 104.493 183.803 114C189.649 123.97 193.826 136.312 196.326 150.814C196.628 153.039 196.93 156.15 196.963 159.623V184.456C192.639 166.689 184.962 150.693 173.015 143.499C162.014 136.862 149 138.35 134.338 147.924C125.046 144.78 112.703 148.38 101.185 157.672C89.9689 166.723 75.9502 181.962 75.3736 182.599L72.9332 185.254L76.4396 186.105C76.7145 186.166 83.1774 187.627 92.1344 183.356L93.777 182.572C99.6298 179.796 105.912 174.768 111.543 170.504C109.747 176.9 98.2622 203.959 96.6129 206.795C96.6129 206.795 97.5582 207.284 99.0533 207.465C100.575 207.646 102.56 207.405 105.999 204.877C110.725 201.371 115.6 194.881 121.908 183.94C134.07 162.761 136.048 153.891 136.349 151.028C149.731 142.313 161.43 140.851 171.091 146.67C183.434 154.112 189.957 171.443 193.283 184.644C194.985 191.435 196.206 198.783 196.97 206.185V238.949C195.14 234.463 192.666 231.54 189.595 230.139C184.621 227.913 178.466 229.837 171.245 235.871C161.739 233.371 149.671 237.849 138.85 247.966C128.304 257.781 115.452 274.019 114.896 274.689L112.643 277.525L116.21 278.109C116.478 278.135 123.035 279.141 131.656 274.233L133.245 273.349C138.877 270.151 144.763 264.7 150.093 260.034C148.786 266.557 139.246 294.38 137.844 297.31C137.844 297.31 138.823 297.699 140.345 297.792C141.901 297.886 143.852 297.484 147.076 294.708C151.528 290.907 155.946 284.049 161.43 272.678C171.976 250.829 173.351 241.838 173.438 238.888C177.863 235.167 183.682 231.54 188.1 233.525C191.573 235.107 195.596 240.712 196.997 257.446V399.913C199.464 400.55 201.931 400.583 204.398 399.913V254.576C206.933 232.331 213.054 219.017 221.528 217.642C229.117 216.429 238.557 224.957 245.57 238.949L245.449 239.217C245.087 239.921 242.036 246.866 245.905 276.158C247.554 288.681 249.592 296.539 252.643 301.567C254.835 305.228 256.571 306.2 258.066 306.595C259.501 306.998 260.594 306.904 260.594 306.904C260.172 303.672 259.836 274.267 260.627 267.65C264.221 273.751 268.123 280.79 272.481 285.57L273.701 286.911C280.372 294.286 286.895 295.386 287.17 295.446L290.737 295.996L289.483 292.61C289.181 291.785 282.021 272.343 275.102 259.732C268.277 247.329 258.797 239.405 249.411 238.211C241.52 222.034 230.485 212.467 220.985 213.988C215.4 214.9 208.85 219.62 204.432 234.618V234.557C207.569 200.365 216.5 179.032 231.035 171.02C240.823 165.623 253.226 166.388 267.942 173.246C267.788 175.593 268.21 184.335 278.3 208.075C283.241 219.687 287.291 226.753 291.554 230.776C294.665 233.706 296.583 234.195 298.138 234.195C299.633 234.195 300.639 233.827 300.639 233.827C299.365 230.81 291.186 202.558 290.18 196.014C295.275 200.908 300.907 206.674 306.371 210.147L307.893 211.126C316.273 216.456 322.884 215.785 323.159 215.752L326.752 215.329L324.473 212.373V212.373Z" fill="#C8C9C7"/>
</g>
<defs>
<clipPath id="clip0">
<rect x="0.5" width="400" height="466.84" fill="white"/>
</clipPath>
</defs>
</svg>
