<svg width="401" height="493" viewBox="0 0 401 493" fill="none" xmlns="http://www.w3.org/2000/svg">
<g clip-path="url(#clip0)">
<path d="M0.5 0.672852C133.83 0.672852 267.159 0.672852 400.489 0.672852C400.66 202.811 401.164 329.854 200.38 492.965C0.310749 332.151 0.519369 202.595 0.5 0.672852Z" fill="#003380"/>
<path d="M4.79987 5.74951C135.163 5.74951 265.526 5.74951 395.889 5.74951C396.056 203.021 396.549 327.005 200.233 486.19C4.61482 329.247 4.81881 202.81 4.79987 5.74951Z" fill="#C3A869"/>
<path d="M24.1324 21.7047C141.566 21.7047 259 21.7047 376.434 21.7047C376.585 203.296 377.029 317.425 200.183 463.957C23.9658 319.489 24.1495 203.102 24.1324 21.7047Z" fill="#003380"/>
<path d="M181.756 90.25C179.482 90.2032 170.221 101.572 166.362 108.997L161.767 106.163C169.493 93.7886 176.769 84.6431 182.593 80.5238C179.86 77.9198 165.564 92.7645 158.907 104.465L155.393 102.263C164 87.3585 177.277 77.0406 182.273 72.7656C180.249 69.6668 160.395 86.6869 152.591 100.614L149.129 98.4947C157.874 82.9513 172.796 71.5444 183.515 63.969C181.101 60.6363 155.029 81.1364 146.411 96.8656L142.916 94.7807C158.651 66.6819 194.049 50.6758 202.018 47.1963C212.404 51.5684 245.471 68.1444 260.698 96.4083L256.969 98.2866C250.159 83.4964 222.365 60.7436 219.807 63.6061C225.074 67.8643 246.06 82.7035 253.997 99.7424L249.572 101.96C244.591 90.3845 222.786 69.8272 220.617 72.5161C230.4 81.0091 241.039 91.7598 246.608 103.431L242.7 105.359C238.14 96.0684 221.747 80.0081 220.078 81.7917C228.123 90.075 235.788 97.1088 239.696 106.843L235.426 108.936C232.228 100.872 224.597 93.0643 221.349 90.1544L215.207 98.2691L227.866 127.792L218.851 127.827C217.009 118.817 214.733 107.303 211.713 101.368L216.46 127.781L208.328 127.78C208.068 119.922 207.296 107.609 204.556 101.087L205.999 127.77L196.3 127.804L198.414 101.143C195.496 107.317 194.676 121.971 193.941 127.77L185.855 127.746L191.539 102.326C189.194 104.699 185.69 119.583 183.446 127.735H175.475L186.999 99.5652L181.756 90.25V90.25Z" fill="#C3A869"/>
<path d="M185.726 64.9689C185.706 68.1882 200.278 67.0644 200.249 64.9871C196.598 63.9357 187.903 64.0569 185.726 64.9689Z" fill="#003380"/>
<path d="M199.71 68.2897C195.93 73.0396 194.244 80.4997 193.793 87.7881L204.74 87.8444L206.05 85.8298L196.794 85.7734C196.324 80.3043 198.065 73.9011 199.71 68.2896V68.2897Z" fill="#003380"/>
<path d="M193.431 93.3231C194.534 92.1936 197.824 92.4564 201.337 92.4543C204.537 92.4436 209.176 92.2824 210.137 93.1949C210.119 94.1667 207.336 94.5357 201.494 94.5051C195.424 94.5333 193.471 94.0962 193.431 93.3231V93.3231Z" fill="#003380"/>
<path d="M204.081 65.1634C204.061 68.3826 218.633 67.2589 218.604 65.1816C214.953 64.1302 206.258 64.2513 204.081 65.1634Z" fill="#003380"/>
<path d="M189.979 70.0079C189.973 67.724 196.141 67.8863 195.995 69.9664C196.107 74.1598 190.015 73.8656 189.979 70.0079Z" fill="#003380"/>
<path d="M208.035 70.0583C208.029 67.7744 214.197 67.9368 214.05 70.0168C214.163 74.2102 208.071 73.916 208.035 70.0583Z" fill="#003380"/>
<path d="M93.9808 120.656L176.02 120.753L171.934 129.521L231.643 129.76L227.644 121.152L324.488 120.4L324.364 138.095L244.977 137.967C235.878 152.215 234.04 174.952 223 187.207L180.306 187.336C170.488 179.428 165.441 143.545 159.873 137.967L93.1166 137.454L93.9808 120.656V120.656Z" fill="#C3A869"/>
<path opacity="0.99" d="M139.124 118.483H123.352V154.511H139.124V118.483Z" fill="#C3A869" stroke="#003380" stroke-width="3.5"/>
<path opacity="0.99" d="M280.59 118.819H264.828V155.083H280.59V118.819Z" fill="#C3A869" stroke="#003380" stroke-width="3.51022"/>
<path d="M83.3229 69.3508L76.7846 79.5108L81.8165 79.6711L81.8806 186.367L85.1497 186.303L85.0536 79.5749H89.1881L83.3229 69.3508H83.3229Z" fill="#C3A869"/>
<path d="M112.211 72.16L101.681 78.0828L106.054 80.5777L53.3917 179.147L56.0549 180.876L108.96 82.0066L112.614 83.9401L112.211 72.1601L112.211 72.16V72.16Z" fill="#C3A869"/>
<path d="M53.7733 79.0627L53.1841 91.1304L57.6233 88.7557L110.974 181.155L113.775 179.467L60.3796 87.0554L63.9614 84.9902L53.7733 79.0627V79.0627Z" fill="#C3A869"/>
<path opacity="0.99" d="M192.147 190.455H181.45V200.427H192.147V190.455Z" fill="#C3A869"/>
<path opacity="0.99" d="M206.742 190.409H196.045V200.381H206.742V190.409Z" fill="#C3A869"/>
<path opacity="0.99" d="M221.926 190.409H211.229V200.381H221.926V190.409Z" fill="#C3A869"/>
<path d="M175.693 205.412H227.093L239.966 254.274H163.002L175.693 205.412V205.412Z" fill="#C3A869"/>
<path d="M170.714 257.007L190.841 257.135C183.363 271.921 186.219 274.695 184.25 287.197C181.661 302.556 173.027 307.73 168.737 322.966C167.77 327.353 169.842 341.738 166.814 342.324C151.731 343.88 122.684 347.347 121.431 345.401C114.275 332.369 146.174 332.26 149.507 325.017C158.108 303.784 162.407 278.643 170.714 257.007V257.007Z" fill="#C3A869"/>
<path d="M233.46 257.295L213.332 257.423C220.81 272.209 217.334 274.984 219.304 287.486C221.893 302.844 230.527 308.019 234.817 323.254C235.784 327.641 233.712 342.026 236.74 342.612C251.823 344.168 280.869 347.635 282.123 345.689C289.279 332.657 257.38 332.548 254.047 325.305C245.446 304.072 241.766 278.931 233.46 257.295V257.295Z" fill="#C3A869"/>
<path d="M165.949 240.071L168.997 228.113C161.411 201.165 157.651 162.94 157.148 138.741L150.264 138.736C151.083 173.68 153.762 210.669 165.949 240.07V240.071Z" fill="#C3A869"/>
<path d="M243.286 142.951C243.948 141.488 244.379 140.645 245.415 138.709L247.891 138.712C261.722 181.108 272.213 225.311 282.58 262.198L241.321 278.781L239.614 272.619L274.548 257.813C263.861 217.163 253.358 177.941 243.286 142.951Z" fill="#C3A869"/>
<path d="M217.605 278.426C217.618 280.823 217.714 283.097 218.129 285.879C208.25 287.871 196.263 289.752 184.516 289.964C185.173 286.947 185.298 284.995 185.562 282.515C196.832 282.24 206.36 280.584 217.605 278.426V278.426Z" fill="#C3A869"/>
<path opacity="0.99" d="M294.087 46.2435H290.25V212.841H294.087V46.2435Z" fill="#C3A869"/>
<path d="M289.099 44.0511C354.998 61.9408 364.834 186.857 290.369 213.933C277.748 207.547 335.604 202.33 336.511 127.814C338.656 68.7086 281.073 45.5904 289.099 44.0511V44.0511V44.0511Z" fill="#C3A869" stroke="#003380" stroke-width="1.6"/>
<path d="M193.257 175.293V142.079L173.994 141.979L193.257 175.293V175.293Z" fill="#C3A869" stroke="#003380" stroke-width="3.42242"/>
<path d="M209.67 175.289V141.902L228.925 141.802L209.67 175.289V175.289Z" fill="#C3A869" stroke="#003380" stroke-width="3.43055"/>
<path d="M294.132 120.554H290.218V138.048H294.132V120.554Z" fill="#003380"/>
<path d="M340.775 121.426C335.281 119.913 325.544 122.436 325.364 117.799C325.174 112.884 352.622 111.752 345.036 121.516C345.846 123.453 348.264 124.675 345.036 128.406C346.34 130.254 347.218 132.188 344.945 134.752C351.675 144.631 325.172 144.566 325.364 139.647C325.6 133.61 335.457 137.23 340.503 136.021C335.397 134.661 325.539 137.588 325.183 131.941C324.894 127.36 328.92 128.796 340.141 128.587C328.925 127.873 325.55 128.639 325.455 125.052C325.313 119.749 334.879 122.485 340.775 121.426H340.775Z" fill="#C3A869" stroke="#003380" stroke-width="1.5"/>
</g>
<defs>
<clipPath id="clip0">
<rect x="0.5" y="0.672852" width="400" height="492.29" fill="white"/>
</clipPath>
</defs>
</svg>
