<svg width="401" height="523" viewBox="0 0 401 523" fill="none" xmlns="http://www.w3.org/2000/svg">
<g clip-path="url(#clip0)">
<path d="M200.209 522.05C122.395 465.595 69.061 394.294 37.1483 304.105C8.20906 222.334 -3.40223 123.235 1.64434 1.15447L1.66528 0.672852H399.339L399.36 1.15447C404.396 123.235 392.784 222.324 363.856 304.105C331.943 394.294 278.609 465.595 200.795 522.05L200.502 522.259L200.209 522.05Z" fill="#E93B3A"/>
<path fill-rule="evenodd" clip-rule="evenodd" d="M156.432 304.58C157.883 301.614 158.117 298.52 158.092 295.563C158.05 290.722 153.032 284.357 146.001 284.375C139.657 284.392 135.853 288.76 134.367 292.377C133.161 295.314 133.123 300.061 134.465 302.34C131.986 300.896 129.588 300.548 126.569 300.885C122.089 301.384 115.761 305.541 115.761 313.776C115.761 322.01 122.089 326.167 126.569 326.667C129.588 327.003 131.986 326.655 134.465 325.211C133.123 327.49 133.161 332.238 134.367 335.175C135.853 338.792 139.657 343.16 146.001 343.176C153.032 343.195 158.05 336.83 158.092 331.988C158.117 329.031 157.883 325.938 156.432 322.972L191.146 322.891L191.065 357.605C188.099 356.154 185.006 355.92 182.049 355.945C177.207 355.987 170.842 361.005 170.86 368.036C170.877 374.38 175.245 378.184 178.862 379.67C181.799 380.876 186.546 380.913 188.826 379.572C187.382 382.051 187.034 384.449 187.37 387.468C187.869 391.948 192.026 398.275 200.261 398.275C208.496 398.275 212.653 391.948 213.152 387.468C213.489 384.449 213.141 382.051 211.697 379.572C213.976 380.913 218.723 380.876 221.66 379.67C225.277 378.184 229.645 374.38 229.662 368.036C229.68 361.005 223.315 355.987 218.474 355.945C215.517 355.92 212.423 356.154 209.457 357.605L209.376 322.891L244.09 322.972C242.639 325.938 242.405 329.031 242.43 331.988C242.472 336.83 247.49 343.195 254.521 343.176C260.865 343.16 264.67 338.792 266.155 335.175C267.361 332.238 267.399 327.49 266.057 325.211C268.536 326.655 270.935 327.003 273.953 326.667C278.433 326.167 284.761 322.01 284.761 313.776C284.761 305.541 278.433 301.384 273.953 300.885C270.935 300.548 268.536 300.896 266.057 302.34C267.399 300.061 267.361 295.314 266.155 292.377C264.67 288.76 260.865 284.392 254.521 284.375C247.49 284.357 242.472 290.722 242.43 295.563C242.405 298.52 242.639 301.614 244.09 304.58L209.376 304.661L209.457 269.947C212.423 271.398 215.517 271.632 218.474 271.606C223.315 271.565 229.68 266.547 229.662 259.516C229.645 253.172 225.277 249.367 221.66 247.882C218.723 246.676 213.976 246.638 211.697 247.98C213.141 245.501 213.489 243.102 213.152 240.084C212.653 235.604 208.496 229.276 200.261 229.276C192.026 229.276 187.869 235.604 187.37 240.084C187.034 243.102 187.382 245.501 188.825 247.98C186.546 246.638 181.799 246.676 178.862 247.882C175.245 249.367 170.877 253.172 170.86 259.516C170.842 266.547 177.207 271.565 182.049 271.606C185.006 271.632 188.099 271.398 191.065 269.947L191.146 304.661L156.432 304.58Z" fill="#FBD809"/>
<path fill-rule="evenodd" clip-rule="evenodd" d="M255.897 140.2C257.349 137.234 257.583 134.14 257.557 131.183C257.516 126.342 252.497 119.977 245.467 119.995C239.123 120.012 235.318 124.38 233.833 127.997C232.627 130.934 232.589 135.681 233.931 137.96C231.452 136.516 229.053 136.168 226.035 136.505C221.555 137.004 215.227 141.161 215.227 149.396C215.227 157.631 221.555 161.788 226.035 162.287C229.053 162.623 231.452 162.275 233.931 160.831C232.589 163.111 232.627 167.858 233.833 170.795C235.318 174.412 239.123 178.78 245.467 178.797C252.498 178.815 257.516 172.45 257.557 167.609C257.583 164.651 257.349 161.558 255.897 158.592L290.611 158.511L290.531 193.225C287.565 191.774 284.471 191.54 281.514 191.565C276.673 191.607 270.308 196.625 270.326 203.656C270.343 210 274.71 213.804 278.327 215.29C281.265 216.496 286.012 216.534 288.291 215.192C286.847 217.671 286.499 220.069 286.836 223.088C287.335 227.568 291.492 233.896 299.727 233.896C307.961 233.896 312.118 227.568 312.618 223.088C312.954 220.069 312.606 217.671 311.162 215.192C313.441 216.534 318.188 216.496 321.126 215.29C324.743 213.804 329.111 210 329.127 203.656C329.146 196.625 322.78 191.607 317.939 191.565C314.982 191.54 311.889 191.774 308.923 193.225L308.842 158.511L343.556 158.592C342.105 161.558 341.871 164.651 341.896 167.609C341.938 172.45 346.956 178.815 353.987 178.797C360.331 178.78 364.135 174.412 365.62 170.795C366.827 167.858 366.864 163.111 365.523 160.831C368.002 162.275 370.4 162.623 373.419 162.287C377.898 161.788 384.226 157.631 384.226 149.396C384.226 141.161 377.898 137.004 373.419 136.505C370.4 136.168 368.002 136.516 365.523 137.96C366.864 135.681 366.827 130.934 365.62 127.997C364.135 124.38 360.331 120.012 353.987 119.995C346.956 119.977 341.938 126.342 341.896 131.183C341.871 134.14 342.105 137.234 343.556 140.2L308.842 140.281L308.923 105.567C311.889 107.018 314.982 107.252 317.939 107.227C322.78 107.185 329.146 102.167 329.127 95.136C329.111 88.7919 324.743 84.9874 321.126 83.5021C318.188 82.2958 313.441 82.2582 311.162 83.6C312.606 81.1207 312.954 78.7223 312.618 75.704C312.118 71.2241 307.961 64.8962 299.727 64.8962C291.492 64.8962 287.335 71.2241 286.836 75.704C286.499 78.7223 286.847 81.1207 288.291 83.6C286.012 82.2582 281.265 82.2958 278.327 83.5021C274.71 84.9874 270.343 88.7919 270.326 95.136C270.308 102.167 276.673 107.185 281.514 107.227C284.471 107.252 287.565 107.018 290.531 105.567L290.611 140.281L255.897 140.2Z" fill="#FBD809"/>
<path fill-rule="evenodd" clip-rule="evenodd" d="M56.9666 140.2C58.4179 137.234 58.6517 134.14 58.6264 131.183C58.5849 126.342 53.5666 119.977 46.5359 119.995C40.1918 120.012 36.3873 124.38 34.902 127.997C33.6957 130.934 33.6581 135.681 34.9999 137.96C32.5206 136.516 30.1222 136.168 27.1039 136.505C22.624 137.004 16.2961 141.161 16.2961 149.396C16.2961 157.631 22.624 161.788 27.1039 162.287C30.1222 162.623 32.5206 162.275 34.9999 160.831C33.6581 163.111 33.6957 167.858 34.902 170.795C36.3873 174.412 40.1918 178.78 46.5359 178.797C53.5666 178.815 58.5849 172.45 58.6264 167.609C58.6517 164.651 58.4179 161.558 56.9666 158.592L91.6806 158.511L91.6 193.225C88.6337 191.774 85.5402 191.54 82.5832 191.565C77.742 191.607 71.3767 196.625 71.3951 203.656C71.4118 210 75.7796 213.804 79.3965 215.29C82.334 216.496 87.0811 216.534 89.3602 215.192C87.9163 217.671 87.5683 220.069 87.9048 223.088C88.4041 227.568 92.5612 233.896 100.796 233.896C109.03 233.896 113.187 227.568 113.687 223.088C114.023 220.069 113.675 217.671 112.231 215.192C114.51 216.534 119.258 216.496 122.195 215.29C125.812 213.804 130.18 210 130.196 203.656C130.215 196.625 123.85 191.607 119.008 191.565C116.051 191.54 112.958 191.774 109.992 193.225L109.911 158.511L144.625 158.592C143.174 161.558 142.94 164.651 142.965 167.609C143.007 172.45 148.025 178.815 155.056 178.797C161.4 178.78 165.204 174.412 166.69 170.795C167.896 167.858 167.934 163.111 166.592 160.831C169.071 162.275 171.469 162.623 174.488 162.287C178.968 161.788 185.295 157.631 185.295 149.396C185.295 141.161 178.968 137.004 174.488 136.505C171.469 136.168 169.071 136.516 166.592 137.96C167.934 135.681 167.896 130.934 166.69 127.997C165.204 124.38 161.4 120.012 155.056 119.995C148.025 119.977 143.007 126.342 142.965 131.183C142.94 134.14 143.174 137.234 144.625 140.2L109.911 140.281L109.992 105.567C112.958 107.018 116.051 107.252 119.008 107.227C123.85 107.185 130.215 102.167 130.196 95.136C130.18 88.7919 125.812 84.9874 122.195 83.5021C119.258 82.2958 114.51 82.2582 112.231 83.6C113.675 81.1207 114.023 78.7223 113.687 75.704C113.187 71.2241 109.03 64.8962 100.796 64.8962C92.5612 64.8962 88.4041 71.2241 87.9048 75.704C87.5683 78.7223 87.9163 81.1207 89.3602 83.6C87.0811 82.2582 82.334 82.2958 79.3965 83.5021C75.7796 84.9874 71.4118 88.7919 71.3951 95.136C71.3767 102.167 77.742 107.185 82.5832 107.227C85.5402 107.252 88.6337 107.018 91.5999 105.567L91.6806 140.281L56.9666 140.2Z" fill="#FBD809"/>
</g>
<defs>
<clipPath id="clip0">
<rect x="0.5" y="0.672852" width="400" height="521.59" fill="white"/>
</clipPath>
</defs>
</svg>
