<svg width="401" height="523" viewBox="0 0 401 523" fill="none" xmlns="http://www.w3.org/2000/svg">
<g clip-path="url(#clip0)">
<path d="M200.209 522.05C122.395 465.595 69.061 394.294 37.1483 304.105C8.20906 222.334 -3.40222 123.235 1.64434 1.15448L1.66528 0.672852H399.339L399.36 1.15448C404.396 123.235 392.784 222.324 363.856 304.105C331.943 394.294 278.609 465.595 200.795 522.05L200.502 522.259L200.209 522.05Z" fill="#32AC60"/>
<path fill-rule="evenodd" clip-rule="evenodd" d="M213.1 44.2666C219.51 48.1632 222.893 52.9628 222.897 59.883C222.903 68.3977 219.285 71.923 213.501 78.3689C210.902 81.2648 212.608 84.4046 214.729 86.5496C216.874 88.6708 220.014 90.3765 222.91 87.7779C229.356 81.9936 232.881 78.3765 241.396 78.3817C248.316 78.3858 253.116 81.7688 257.012 88.179C259.538 92.3345 262.327 98.1145 269.086 101.007C262.327 103.9 259.538 109.68 257.012 113.836C253.116 120.246 248.316 123.629 241.396 123.633C232.881 123.638 229.356 120.021 222.91 114.237C220.014 111.638 216.874 113.344 214.729 115.465C212.608 117.61 210.902 120.75 213.501 123.646C219.285 130.092 222.902 133.617 222.897 142.132C222.893 149.052 219.51 153.851 213.1 157.748C208.944 160.274 203.164 163.062 200.272 169.822C197.379 163.062 191.599 160.274 187.443 157.748C181.033 153.851 177.65 149.052 177.646 142.132C177.641 133.617 181.258 130.092 187.042 123.646C189.641 120.75 187.935 117.61 185.814 115.465C183.669 113.344 180.529 111.638 177.633 114.237C171.187 120.021 167.662 123.638 159.147 123.633C152.227 123.629 147.428 120.246 143.531 113.836C141.005 109.68 138.217 103.9 131.457 101.007C138.217 98.1145 141.005 92.3345 143.531 88.179C147.428 81.7688 152.227 78.3858 159.147 78.3817C167.662 78.3764 171.187 81.9936 177.633 87.7779C180.529 90.3765 183.669 88.6708 185.814 86.5496C187.935 84.4046 189.641 81.2648 187.042 78.3689C181.258 71.923 177.641 68.3977 177.646 59.883C177.65 52.9628 181.033 48.1632 187.443 44.2666C191.599 41.7406 197.379 38.9524 200.272 32.1926C203.164 38.9524 208.944 41.7406 213.1 44.2666Z" fill="white"/>
<path fill-rule="evenodd" clip-rule="evenodd" d="M122.822 159.437C129.232 163.334 132.615 168.133 132.619 175.054C132.624 183.568 129.007 187.094 123.223 193.54C120.624 196.435 122.33 199.575 124.451 201.72C126.596 203.841 129.736 205.547 132.632 202.949C139.078 197.164 142.603 193.547 151.118 193.552C158.038 193.557 162.838 196.939 166.734 203.35C169.26 207.505 172.048 213.285 178.808 216.178C172.048 219.071 169.26 224.851 166.734 229.006C162.838 235.417 158.038 238.799 151.118 238.804C142.603 238.809 139.078 235.192 132.632 229.407C129.736 226.809 126.596 228.514 124.451 230.636C122.33 232.781 120.624 235.921 123.223 238.816C129.007 245.262 132.624 248.788 132.619 257.302C132.615 264.222 129.232 269.022 122.822 272.919C118.666 275.445 112.886 278.233 109.993 284.993C107.101 278.233 101.321 275.445 97.1651 272.919C90.7549 269.022 87.3719 264.222 87.3677 257.302C87.3625 248.788 90.9797 245.262 96.764 238.816C99.3626 235.921 97.6569 232.781 95.5357 230.636C93.3907 228.514 90.2509 226.809 87.355 229.407C80.9091 235.192 77.3838 238.809 68.8691 238.804C61.9489 238.799 57.1493 235.417 53.2527 229.006C50.7267 224.851 47.9385 219.071 41.1787 216.178C47.9385 213.285 50.7267 207.505 53.2527 203.35C57.1493 196.939 61.9489 193.557 68.8691 193.552C77.3838 193.547 80.9091 197.164 87.355 202.949C90.2509 205.547 93.3907 203.841 95.5357 201.72C97.6569 199.575 99.3626 196.435 96.764 193.54C90.9797 187.094 87.3626 183.568 87.3677 175.054C87.3719 168.133 90.7549 163.334 97.1651 159.437C101.321 156.911 107.101 154.123 109.993 147.363C112.886 154.123 118.666 156.911 122.822 159.437Z" fill="white"/>
<path fill-rule="evenodd" clip-rule="evenodd" d="M303.378 159.437C309.789 163.334 313.171 168.133 313.176 175.054C313.181 183.568 309.564 187.094 303.779 193.54C301.181 196.435 302.886 199.575 305.008 201.72C307.153 203.841 310.293 205.547 313.188 202.949C319.634 197.164 323.16 193.547 331.674 193.552C338.595 193.557 343.394 196.939 347.291 203.35C349.817 207.505 352.605 213.285 359.365 216.178C352.605 219.071 349.817 224.851 347.291 229.006C343.394 235.417 338.595 238.799 331.674 238.804C323.16 238.809 319.634 235.192 313.188 229.407C310.293 226.809 307.153 228.514 305.008 230.636C302.886 232.781 301.181 235.921 303.779 238.816C309.564 245.262 313.181 248.788 313.176 257.302C313.171 264.222 309.789 269.022 303.378 272.919C299.223 275.445 293.443 278.233 290.55 284.993C287.657 278.233 281.877 275.445 277.722 272.919C271.311 269.022 267.929 264.222 267.924 257.302C267.919 248.788 271.536 245.262 277.321 238.816C279.919 235.921 278.213 232.781 276.092 230.636C273.947 228.514 270.807 226.809 267.912 229.407C261.466 235.192 257.94 238.809 249.426 238.804C242.505 238.799 237.706 235.417 233.809 229.006C231.283 224.851 228.495 219.071 221.735 216.178C228.495 213.285 231.283 207.505 233.809 203.35C237.706 196.939 242.505 193.557 249.426 193.552C257.94 193.547 261.466 197.164 267.912 202.949C270.807 205.547 273.947 203.841 276.092 201.72C278.213 199.575 279.919 196.435 277.321 193.54C271.536 187.094 267.919 183.568 267.924 175.054C267.929 168.133 271.311 163.334 277.722 159.437C281.877 156.911 287.657 154.123 290.55 147.363C293.443 154.123 299.223 156.911 303.378 159.437Z" fill="white"/>
<path fill-rule="evenodd" clip-rule="evenodd" d="M213.1 274.739C219.51 278.636 222.893 283.435 222.897 290.355C222.903 298.87 219.285 302.395 213.501 308.841C210.902 311.737 212.608 314.877 214.729 317.022C216.874 319.143 220.014 320.849 222.91 318.25C229.356 312.466 232.881 308.849 241.396 308.854C248.316 308.858 253.116 312.241 257.012 318.651C259.538 322.807 262.327 328.587 269.086 331.48C262.327 334.373 259.538 340.153 257.012 344.308C253.116 350.718 248.316 354.101 241.396 354.105C232.881 354.111 229.356 350.493 222.91 344.709C220.014 342.111 216.874 343.816 214.729 345.937C212.608 348.082 210.902 351.222 213.501 354.118C219.285 360.564 222.902 364.089 222.897 372.604C222.893 379.524 219.51 384.324 213.1 388.22C208.944 390.746 203.164 393.535 200.272 400.294C197.379 393.535 191.599 390.746 187.443 388.22C181.033 384.324 177.65 379.524 177.646 372.604C177.641 364.089 181.258 360.564 187.042 354.118C189.641 351.222 187.935 348.082 185.814 345.937C183.669 343.816 180.529 342.111 177.633 344.709C171.187 350.493 167.662 354.111 159.147 354.105C152.227 354.101 147.428 350.718 143.531 344.308C141.005 340.153 138.217 334.373 131.457 331.48C138.217 328.587 141.005 322.807 143.531 318.651C147.428 312.241 152.227 308.858 159.147 308.854C167.662 308.849 171.187 312.466 177.633 318.25C180.529 320.849 183.669 319.143 185.814 317.022C187.935 314.877 189.641 311.737 187.042 308.841C181.258 302.395 177.641 298.87 177.646 290.355C177.65 283.435 181.033 278.636 187.443 274.739C191.599 272.213 197.379 269.425 200.272 262.665C203.164 269.425 208.944 272.213 213.1 274.739Z" fill="white"/>
</g>
<defs>
<clipPath id="clip0">
<rect x="0.5" y="0.672852" width="400" height="521.59" fill="white"/>
</clipPath>
</defs>
</svg>
