<svg width="401" height="528" viewBox="0 0 401 528" fill="none" xmlns="http://www.w3.org/2000/svg">
<g clip-path="url(#clip0)">
<path fill-rule="evenodd" clip-rule="evenodd" d="M400.5 0.672852V403.741L200.5 527.392L0.5 403.741V0.672852C133.833 0.672852 267.167 0.672852 400.5 0.672852Z" fill="#FFE000"/>
<path fill-rule="evenodd" clip-rule="evenodd" d="M148.191 407.415L138.78 391.895L168.665 376.54C154.127 373.143 141.018 367.553 127.057 360.029L73.3962 358.378V340.711L104.107 342.032C91.9861 331.132 84.2356 319.386 76.8635 307.524L32.2837 277.804L41.5299 264.265L65.0239 280.357C60.6298 264.796 59.0345 250.268 58.8181 234.98L35.2557 186.498L49.125 178.738L62.3338 205.796C66.2441 191.603 71.5438 178.187 80.1657 163.052L82.8075 109.887L99.4836 110.382L98.3279 140.267C108.147 130.282 118.999 121.743 131.02 114.84L161.73 67.4531L175.93 76.8644L159.254 102.952C171.079 99.5426 185.796 96.6925 200.5 96.7287L252.809 69.3512L262.22 84.8716L232.335 100.227C246.873 103.624 259.982 109.214 273.943 116.738L327.604 118.389V136.056L296.893 134.735C309.014 145.635 316.764 157.38 324.136 169.243L368.716 198.963L359.47 212.502L335.976 196.41C340.37 211.971 341.965 226.499 342.182 241.787L365.744 290.269L351.875 298.029L338.666 270.971C334.756 285.164 329.456 298.58 320.834 313.715L318.192 366.88L301.516 366.385L302.672 336.5C292.853 346.485 282.001 355.024 269.98 361.927L239.269 409.314L225.07 399.902L241.746 373.815C229.921 377.224 215.204 380.074 200.5 380.038L148.191 407.415Z" fill="#E00E00"/>
<path fill-rule="evenodd" clip-rule="evenodd" d="M218.489 238.239L200.5 220.25L182.51 238.239L200.5 256.228L218.489 238.239Z" fill="#FFE000"/>
<path fill-rule="evenodd" clip-rule="evenodd" d="M159.549 229.773L117.176 204.377C112.785 214.439 110.272 229.773 110.555 238.336C110.272 246.899 112.785 262.234 117.176 272.296L159.549 246.899C158.42 242.578 158.376 234.04 159.549 229.773Z" fill="#FFE000"/>
<path fill-rule="evenodd" clip-rule="evenodd" d="M188.695 198.164L189.1 149.128C175.145 150.849 163.275 155.995 155.819 160.216C148.364 164.437 136.706 173.347 129.997 182.593L171.924 207.887C175.595 203.608 184.404 199.245 188.695 198.164Z" fill="#FFE000"/>
<path fill-rule="evenodd" clip-rule="evenodd" d="M188.643 278.489L189.049 327.525C175.094 325.804 163.224 320.659 155.768 316.437C148.312 312.216 136.655 303.306 129.945 294.06L171.872 268.766C174.959 272.578 184.353 277.408 188.643 278.489Z" fill="#FFE000"/>
<path fill-rule="evenodd" clip-rule="evenodd" d="M241.451 246.993L283.824 272.39C288.215 262.328 290.728 246.993 290.445 238.43C290.728 229.867 288.215 214.532 283.824 204.47L241.451 229.867C242.58 234.188 242.624 242.727 241.451 246.993Z" fill="#FFE000"/>
<path fill-rule="evenodd" clip-rule="evenodd" d="M212.305 278.602L211.9 327.638C225.854 325.917 237.725 320.772 245.18 316.551C252.636 312.329 264.294 303.419 271.003 294.174L229.076 268.88C225.405 273.159 216.596 277.521 212.305 278.602Z" fill="#FFE000"/>
<path fill-rule="evenodd" clip-rule="evenodd" d="M212.357 198.278L211.951 149.242C225.906 150.962 237.776 156.108 245.232 160.329C252.688 164.551 264.345 173.461 271.055 182.706L229.128 208C226.041 204.188 216.647 199.359 212.357 198.278Z" fill="#FFE000"/>
</g>
<defs>
<clipPath id="clip0">
<rect x="0.5" y="0.672852" width="400" height="526.72" fill="white"/>
</clipPath>
</defs>
</svg>
