<svg width="401" height="523" viewBox="0 0 401 523" fill="none" xmlns="http://www.w3.org/2000/svg">
<g clip-path="url(#clip0)">
<path d="M200.209 522.05C122.395 465.595 69.061 394.294 37.1483 304.105C8.20906 222.334 -3.40222 123.235 1.64434 1.15448L1.66528 0.672852H399.339L399.36 1.15448C404.396 123.235 392.784 222.324 363.856 304.105C331.943 394.294 278.609 465.595 200.795 522.05L200.502 522.259L200.209 522.05Z" fill="#32AC60"/>
<path fill-rule="evenodd" clip-rule="evenodd" d="M98.3537 232.037L189.527 194.272V210.721L151.681 226.397L161.806 252.277L189.527 240.795V253.471H210.979V231.909L302.152 194.144V212.179L266.88 226.789L277.215 252.864L302.152 242.534V253.471H323.604V233.648L361.486 217.957L350.891 191.99L323.604 203.293V185.258L369.586 166.212L359.592 140.277L323.604 155.184V138.735L375.717 117.149L366.28 90.7651L323.604 108.442V67.9072L302.152 75.4156V117.328L210.979 155.093V138.138L261.099 117.378L250.545 91.3218L210.979 107.71V67.9072L189.527 75.4156V116.596L98.3537 154.361V137.163L145.677 117.562L135.47 91.6304L98.3537 107.004V67.9072L76.9012 75.4156V115.89L26.3652 136.823L35.7618 163.09L76.9012 146.049V163.247L32.8797 181.482L43.4794 207.519L76.9012 193.675V210.63L39.3001 226.205L49.367 252.328L76.9012 240.923V253.471H98.3537V232.037Z" fill="white"/>
<path fill-rule="evenodd" clip-rule="evenodd" d="M98.3537 184.789L189.527 147.024V163.979L98.3537 201.744V184.789Z" fill="#32AC60"/>
<path fill-rule="evenodd" clip-rule="evenodd" d="M210.979 185.386L302.152 147.621V164.575L210.979 202.34V185.386Z" fill="#32AC60"/>
</g>
<defs>
<clipPath id="clip0">
<rect x="0.5" y="0.672852" width="400" height="521.59" fill="white"/>
</clipPath>
</defs>
</svg>
