<svg width="401" height="523" viewBox="0 0 401 523" fill="none" xmlns="http://www.w3.org/2000/svg">
<g clip-path="url(#clip0)">
<path d="M200.209 522.051C122.395 465.596 69.061 394.295 37.1483 304.106C8.20906 222.335 -3.40222 123.236 1.64434 1.15545L1.66528 0.673828H399.339L399.36 1.15545C404.396 123.236 392.784 222.325 363.856 304.106C331.943 394.295 278.609 465.596 200.795 522.051L200.502 522.26L200.209 522.051Z" fill="#32AC60"/>
<mask id="mask0" mask-type="alpha" maskUnits="userSpaceOnUse" x="19" y="0" width="382" height="445">
<path d="M65.7382 415.849L400.309 33.4698L400.309 100.103L98.7608 444.743L65.7382 415.849Z" fill="white"/>
<path d="M19.2382 330.349L307.688 0.672997L366 0.672852L52.2608 359.243L19.2382 330.349Z" fill="white"/>
</mask>
<g mask="url(#mask0)">
<path d="M200.209 522.051C122.395 465.596 69.061 394.295 37.1483 304.106C8.20906 222.335 -3.40222 123.236 1.64434 1.15545L1.66528 0.673828H399.339L399.36 1.15545C404.396 123.236 392.784 222.325 363.856 304.106C331.943 394.295 278.609 465.596 200.795 522.051L200.502 522.26L200.209 522.051Z" fill="white"/>
</g>
<path d="M38.5624 303.606L37.3869 304.022L38.5623 303.606C9.78278 222.286 -1.83777 123.697 3.10385 2.17383H397.9C402.831 123.696 391.211 222.276 362.442 303.606C330.711 393.28 277.751 464.201 200.502 520.41C123.253 464.201 70.2928 393.28 38.5624 303.606Z" stroke="#32AC60" stroke-width="3"/>
</g>
<defs>
<clipPath id="clip0">
<rect x="0.5" y="0.672852" width="400" height="521.59" fill="white"/>
</clipPath>
</defs>
</svg>
