<svg width="401" height="523" viewBox="0 0 401 523" fill="none" xmlns="http://www.w3.org/2000/svg">
<g clip-path="url(#clip0)">
<path d="M200.209 522.05C122.395 465.595 69.061 394.294 37.1483 304.105C8.20906 222.334 -3.40222 123.235 1.64434 1.15448L1.66528 0.672852H399.339L399.36 1.15448C404.396 123.235 392.784 222.324 363.856 304.105C331.943 394.294 278.609 465.595 200.795 522.05L200.502 522.259L200.209 522.05Z" fill="#32AC60"/>
<path fill-rule="evenodd" clip-rule="evenodd" d="M163.937 62.7738C163.79 76.8467 173.221 93.7881 192.369 98.4129C193.08 110.323 182.962 121.576 175.12 121.715L97.7879 123.086C93.5656 123.161 92.7309 128.784 97.331 129.14C105.711 129.789 111.323 129.525 117.492 129.768C150.679 131.078 176.148 135.537 176.148 135.537C180.84 135.894 186.172 139.277 188.828 144.447C192.04 150.7 192.467 164.413 193.282 174.603C194.33 187.697 195.3 202.17 196.709 216.524C196.931 218.781 198.735 221.649 200.272 222.236C201.808 221.649 203.612 218.781 203.834 216.524C205.244 202.17 206.213 187.697 207.261 174.603C208.076 164.413 208.504 150.7 211.716 144.447C214.371 139.277 219.703 135.894 224.395 135.537C224.395 135.537 249.865 131.078 283.051 129.768C289.22 129.525 294.832 129.789 303.212 129.14C307.812 128.784 306.978 123.161 302.755 123.086L225.423 121.715C217.582 121.576 207.463 110.323 208.175 98.4129C227.322 93.7881 236.753 76.8467 236.606 62.7738C236.391 42.1202 219.597 26.439 200.272 26.439C180.946 26.439 164.152 42.1202 163.937 62.7738Z" fill="#FFE000"/>
<path d="M200.272 89.8392C215.22 89.8392 227.337 77.7216 227.337 62.7738C227.337 47.8261 215.22 35.7085 200.272 35.7085C185.324 35.7085 173.206 47.8261 173.206 62.7738C173.206 77.7216 185.324 89.8392 200.272 89.8392Z" fill="#32AC60"/>
<path fill-rule="evenodd" clip-rule="evenodd" d="M115.833 339.678C124.419 338.28 140.631 329.992 153.954 318.635C169.425 305.447 182.403 286.064 180.137 280.321L120.768 129.927C118.593 129.777 116.416 129.754 114.237 129.724L54.8481 280.321C52.3818 286.575 63.9411 305.285 79.4125 318.473C92.7355 329.83 107.246 338.28 115.833 339.678" fill="#FFE000"/>
<path fill-rule="evenodd" clip-rule="evenodd" d="M174.211 282.174C176.381 282.174 175.507 280.229 175.238 279.544L117.613 132.811L59.9882 279.544C59.7192 280.229 58.8457 282.174 61.0158 282.174C101.926 282.099 125.066 282.158 174.211 282.174Z" fill="#32AC60"/>
<path fill-rule="evenodd" clip-rule="evenodd" d="M284.711 339.678C276.124 338.28 259.913 329.992 246.59 318.635C231.119 305.447 218.14 286.064 220.407 280.321L279.775 129.927C281.95 129.777 284.128 129.754 286.307 129.724L345.695 280.321C348.162 286.575 336.602 305.285 321.131 318.473C307.808 329.83 293.297 338.28 284.711 339.678" fill="#FFE000"/>
<path fill-rule="evenodd" clip-rule="evenodd" d="M226.333 282.174C224.163 282.174 225.036 280.229 225.305 279.544L282.93 132.811L340.555 279.544C340.824 280.229 341.698 282.174 339.528 282.174C298.617 282.099 275.477 282.158 226.333 282.174Z" fill="#32AC60"/>
<path fill-rule="evenodd" clip-rule="evenodd" d="M114.522 130.425L115.265 128.341C116.947 127.797 118.621 127.307 120.005 128.626L120.691 131.196C118.635 131.557 116.578 131.432 114.522 130.425Z" fill="#FFE000"/>
<path fill-rule="evenodd" clip-rule="evenodd" d="M286.15 130.739L285.364 128.512C283.91 126.253 282.306 126.802 280.624 128.798L279.853 131.282L286.15 130.739Z" fill="#FFE000"/>
</g>
<defs>
<clipPath id="clip0">
<rect x="0.5" y="0.672852" width="400" height="521.59" fill="white"/>
</clipPath>
</defs>
</svg>
