<svg width="401" height="507" viewBox="0 0 401 507" fill="none" xmlns="http://www.w3.org/2000/svg">
<g clip-path="url(#clip0)">
<path d="M400.5 0.88623H0.5V306.73V306.822C0.5 417.283 90.0436 506.817 200.495 506.817C310.946 506.817 400.5 417.273 400.5 306.822V306.73V0.88623Z" fill="#004899"/>
<path fill-rule="evenodd" clip-rule="evenodd" d="M219.569 118.784C227.803 106.993 229.432 92.8309 229.762 82.9226C230.128 71.8869 229.298 58.895 237.406 55.1159C235.341 57.2644 235.805 64.4357 243.329 64.8783C249.271 65.2279 255.724 60.2139 255.736 51.5154C255.748 43.3547 248.38 37.2318 240.84 37.1689C233.109 37.1044 223.052 43.8147 221.785 56.2237C220.906 51.296 219.617 47.3813 216.128 43.4957C212.911 39.9128 207.228 37.2797 200.729 37.2797C194.229 37.2797 188.546 39.9128 185.329 43.4957C181.84 47.3813 180.551 51.296 179.672 56.2237C178.405 43.8147 168.348 37.1044 160.617 37.1689C153.077 37.2318 145.71 43.3547 145.721 51.5154C145.733 60.2139 152.186 65.2279 158.129 64.8783C165.653 64.4357 166.116 57.2644 164.052 55.1159C172.159 58.895 171.329 71.8869 171.696 82.9226C172.025 92.8309 173.654 106.993 181.888 118.784H219.569Z" fill="white" stroke="#004899" stroke-linecap="round" stroke-linejoin="round"/>
<path fill-rule="evenodd" clip-rule="evenodd" d="M200.729 129.451H175.21L166.436 399.428C189.298 399.543 212.159 399.48 235.021 399.428L226.248 129.451H200.729Z" fill="white" stroke="#004899"/>
<path fill-rule="evenodd" clip-rule="evenodd" d="M153.119 421.754V501.157C168.308 504.847 184.17 506.816 200.494 506.816C216.986 506.816 233.007 504.806 248.338 501.042V421.754H200.729H153.119Z" fill="white" stroke="#004899"/>
<path d="M400.5 0.88623H0.5V306.73C0.5 306.761 0.5 306.791 0.5 306.822C0.5 417.283 90.0436 506.817 200.495 506.817C310.946 506.817 400.5 417.273 400.5 306.822C400.5 306.791 400.5 306.761 400.5 306.73V0.88623V0.88623Z" stroke="#004899"/>
<path fill-rule="evenodd" clip-rule="evenodd" d="M148.916 37.0021V21.7632H252.541V37.0021H148.916Z" fill="white" stroke="#004899"/>
<path d="M191.895 57.6685C193.326 60.8886 197.348 62.6036 200.729 62.6036C204.109 62.6036 208.131 60.8886 209.562 57.6685" stroke="#004899" stroke-linecap="round"/>
<path d="M194.167 60.4883C188.802 69.1705 186.74 79.7588 186.799 89.3918C186.887 103.811 191.48 112.221 193.07 118.784" stroke="#004899"/>
<path fill-rule="evenodd" clip-rule="evenodd" d="M175.21 129.451C169.178 129.451 169.178 118.784 175.21 118.784H226.248C232.279 118.784 232.279 129.451 226.248 129.451H175.21Z" fill="white" stroke="#004899"/>
<path fill-rule="evenodd" clip-rule="evenodd" d="M165.261 410.552C157.192 410.552 157.192 399.507 165.261 399.507H200.729H236.196C244.265 399.507 244.265 410.552 236.196 410.552" fill="white"/>
<path d="M165.261 410.552C157.192 410.552 157.192 399.507 165.261 399.507H200.729H236.196C244.265 399.507 244.265 410.552 236.196 410.552" stroke="#004899"/>
<path fill-rule="evenodd" clip-rule="evenodd" d="M161.432 421.754C153.364 421.754 153.129 410.552 161.197 410.552H200.729H240.26C248.329 410.552 248.094 421.754 240.025 421.754H200.729H161.432Z" fill="white" stroke="#004899"/>
<path d="M207.29 60.4883C212.656 69.1705 214.717 79.7588 214.658 89.3918C214.57 103.811 209.978 112.221 208.387 118.784" stroke="#004899"/>
<path d="M200.729 471.756C210.234 471.756 217.939 464.051 217.939 454.545C217.939 445.04 210.234 437.334 200.729 437.334C191.223 437.334 183.518 445.04 183.518 454.545C183.518 464.051 191.223 471.756 200.729 471.756Z" fill="white" stroke="#004899" stroke-width="0.848883" stroke-linecap="round" stroke-linejoin="round"/>
<path d="M166.187 475C175.692 475 183.398 467.294 183.398 457.789C183.398 448.284 175.692 440.578 166.187 440.578C156.682 440.578 148.976 448.284 148.976 457.789C148.976 467.294 156.682 475 166.187 475Z" fill="white" stroke="#004899" stroke-width="0.848883" stroke-linecap="round" stroke-linejoin="round"/>
<path d="M131.646 478.877C141.151 478.877 148.857 471.171 148.857 461.666C148.857 452.161 141.151 444.455 131.646 444.455C122.14 444.455 114.435 452.161 114.435 461.666C114.435 471.171 122.14 478.877 131.646 478.877Z" fill="white" stroke="#004899" stroke-width="0.848883" stroke-linecap="round" stroke-linejoin="round"/>
<path d="M148.916 494.116C158.422 494.116 166.127 486.411 166.127 476.905C166.127 467.4 158.422 459.694 148.916 459.694C139.411 459.694 131.706 467.4 131.706 476.905C131.706 486.411 139.411 494.116 148.916 494.116Z" fill="white" stroke="#004899" stroke-width="0.848883" stroke-linecap="round" stroke-linejoin="round"/>
<path d="M183.458 490.758C192.963 490.758 200.669 483.053 200.669 473.547C200.669 464.042 192.963 456.336 183.458 456.336C173.953 456.336 166.247 464.042 166.247 473.547C166.247 483.053 173.953 490.758 183.458 490.758Z" fill="white" stroke="#004899" stroke-width="0.848883" stroke-linecap="round" stroke-linejoin="round"/>
<path fill-rule="evenodd" clip-rule="evenodd" d="M97.1043 447.993C94.8441 447.993 92.606 448.438 90.5178 449.303C88.4296 450.168 86.5323 451.436 84.934 453.034C83.3358 454.632 82.0681 456.53 81.2031 458.618C80.3382 460.706 79.8931 462.944 79.8931 465.204C79.8939 465.602 79.9084 466 79.9368 466.397C87.2111 471.901 94.8742 476.916 102.876 481.4C106.22 480.209 109.115 478.014 111.162 475.115C113.21 472.215 114.312 468.754 114.315 465.204C114.316 462.944 113.87 460.706 113.005 458.618C112.141 456.53 110.873 454.632 109.275 453.034C107.676 451.436 105.779 450.168 103.691 449.303C101.603 448.438 99.3645 447.993 97.1043 447.993V447.993Z" fill="white" stroke="#004899" stroke-width="0.848883" stroke-linecap="round" stroke-linejoin="round"/>
<path fill-rule="evenodd" clip-rule="evenodd" d="M114.375 462.823C110.138 462.825 106.051 464.39 102.895 467.218C99.7401 470.045 97.7389 473.938 97.2749 478.149C106.453 483.691 116.116 488.512 126.179 492.543C127.885 490.936 129.244 488.997 130.174 486.846C131.104 484.695 131.584 482.376 131.586 480.032C131.586 475.468 129.772 471.091 126.545 467.863C123.317 464.636 118.939 462.823 114.375 462.823V462.823Z" fill="white" stroke="#004899" stroke-width="0.848883" stroke-linecap="round" stroke-linejoin="round"/>
<path fill-rule="evenodd" clip-rule="evenodd" d="M131.646 481.656C128.903 481.658 126.2 482.316 123.763 483.575C121.326 484.834 119.225 486.657 117.635 488.892C127.61 493.439 138.026 497.181 148.797 500.056C148.831 499.66 148.851 499.264 148.857 498.867C148.857 496.607 148.412 494.369 147.547 492.28C146.682 490.192 145.414 488.295 143.816 486.697C142.218 485.098 140.32 483.831 138.232 482.966C136.144 482.101 133.906 481.656 131.646 481.656V481.656Z" fill="white" stroke="#004899" stroke-width="0.848883" stroke-linecap="round" stroke-linejoin="round"/>
<path fill-rule="evenodd" clip-rule="evenodd" d="M166.187 478.126C163.927 478.126 161.689 478.571 159.601 479.436C157.513 480.301 155.615 481.569 154.017 483.167C152.419 484.765 151.151 486.663 150.286 488.751C149.421 490.839 148.976 493.077 148.976 495.337C148.981 497.021 149.233 498.695 149.724 500.306C159.497 502.863 169.559 504.707 179.855 505.762C182.146 502.769 183.391 499.107 183.398 495.337C183.398 493.077 182.953 490.839 182.088 488.751C181.223 486.663 179.956 484.765 178.357 483.167C176.759 481.569 174.862 480.301 172.774 479.436C170.685 478.571 168.447 478.126 166.187 478.126V478.126Z" fill="white" stroke="#004899" stroke-width="0.848883" stroke-linecap="round" stroke-linejoin="round"/>
<path d="M235.27 475C225.765 475 218.059 467.294 218.059 457.789C218.059 448.284 225.765 440.578 235.27 440.578C244.775 440.578 252.481 448.284 252.481 457.789C252.481 467.294 244.775 475 235.27 475Z" fill="white" stroke="#004899" stroke-width="0.848883" stroke-linecap="round" stroke-linejoin="round"/>
<path d="M269.811 478.877C260.306 478.877 252.601 471.171 252.601 461.666C252.601 452.161 260.306 444.455 269.811 444.455C279.317 444.455 287.022 452.161 287.022 461.666C287.022 471.171 279.317 478.877 269.811 478.877Z" fill="white" stroke="#004899" stroke-width="0.848883" stroke-linecap="round" stroke-linejoin="round"/>
<path d="M252.541 494.116C243.035 494.116 235.33 486.411 235.33 476.905C235.33 467.4 243.035 459.694 252.541 459.694C262.046 459.694 269.752 467.4 269.752 476.905C269.752 486.411 262.046 494.116 252.541 494.116Z" fill="white" stroke="#004899" stroke-width="0.848883" stroke-linecap="round" stroke-linejoin="round"/>
<path d="M217.999 490.758C208.494 490.758 200.788 483.053 200.788 473.547C200.788 464.042 208.494 456.336 217.999 456.336C227.505 456.336 235.21 464.042 235.21 473.547C235.21 483.053 227.505 490.758 217.999 490.758Z" fill="white" stroke="#004899" stroke-width="0.848883" stroke-linecap="round" stroke-linejoin="round"/>
<path fill-rule="evenodd" clip-rule="evenodd" d="M304.353 447.993C302.093 447.993 299.855 448.438 297.766 449.303C295.678 450.168 293.781 451.436 292.183 453.034C290.584 454.632 289.317 456.53 288.452 458.618C287.587 460.706 287.142 462.944 287.142 465.204C287.144 468.702 288.212 472.116 290.203 474.992C292.194 477.867 295.014 480.068 298.287 481.3C306.403 476.742 314.169 471.636 321.534 466.028C321.551 465.754 321.561 465.479 321.564 465.204C321.564 462.944 321.119 460.706 320.254 458.618C319.389 456.53 318.121 454.632 316.523 453.034C314.925 451.436 313.028 450.168 310.939 449.303C308.851 448.438 306.613 447.993 304.353 447.993V447.993Z" fill="white" stroke="#004899" stroke-width="0.848883" stroke-linecap="round" stroke-linejoin="round"/>
<path fill-rule="evenodd" clip-rule="evenodd" d="M287.082 462.823C282.518 462.823 278.14 464.636 274.913 467.863C271.685 471.091 269.871 475.468 269.871 480.032C269.871 482.343 270.337 484.63 271.24 486.757C272.143 488.884 273.465 490.807 275.127 492.412C285.233 488.344 294.935 483.487 304.145 477.895C303.624 473.736 301.603 469.91 298.461 467.135C295.32 464.36 291.274 462.827 287.082 462.823Z" fill="white" stroke="#004899" stroke-width="0.848883" stroke-linecap="round" stroke-linejoin="round"/>
<path fill-rule="evenodd" clip-rule="evenodd" d="M269.811 481.656C267.551 481.656 265.313 482.101 263.225 482.966C261.137 483.831 259.239 485.098 257.641 486.697C256.043 488.295 254.775 490.192 253.91 492.28C253.045 494.369 252.6 496.607 252.6 498.867C252.607 499.222 252.625 499.577 252.654 499.93C263.386 497.039 273.761 493.282 283.699 488.73C282.104 486.541 280.015 484.76 277.602 483.531C275.189 482.301 272.52 481.659 269.811 481.656V481.656Z" fill="white" stroke="#004899" stroke-width="0.848883" stroke-linecap="round" stroke-linejoin="round"/>
<path fill-rule="evenodd" clip-rule="evenodd" d="M235.27 478.126C233.01 478.126 230.772 478.571 228.684 479.436C226.595 480.301 224.698 481.569 223.1 483.167C221.502 484.765 220.234 486.663 219.369 488.751C218.504 490.839 218.059 493.077 218.059 495.337C218.067 499.085 219.298 502.728 221.565 505.713C231.891 504.631 241.981 502.761 251.779 500.169C252.241 498.6 252.478 496.973 252.481 495.337C252.481 493.077 252.036 490.839 251.171 488.751C250.306 486.663 249.038 484.765 247.44 483.167C245.842 481.569 243.945 480.301 241.857 479.436C239.768 478.571 237.53 478.126 235.27 478.126V478.126Z" fill="white" stroke="#004899" stroke-width="0.848883" stroke-linecap="round" stroke-linejoin="round"/>
<path fill-rule="evenodd" clip-rule="evenodd" d="M200.729 474.651C196.164 474.651 191.787 476.464 188.559 479.692C185.331 482.919 183.518 487.296 183.517 491.861C183.521 494.837 184.296 497.761 185.768 500.348C187.239 502.935 189.356 505.097 191.913 506.621C194.76 506.742 197.618 506.816 200.494 506.816C203.537 506.816 206.562 506.736 209.572 506.601C212.12 505.075 214.23 502.916 215.697 500.332C217.163 497.749 217.936 494.831 217.94 491.861C217.939 487.296 216.126 482.919 212.898 479.692C209.67 476.464 205.293 474.651 200.729 474.651V474.651Z" fill="white" stroke="#004899" stroke-width="0.848883" stroke-linecap="round" stroke-linejoin="round"/>
<path fill-rule="evenodd" clip-rule="evenodd" d="M110.842 126.649L79.7936 157.206L92.9012 171.297L101.913 162.285L94.0481 154.421L99.4549 149.014L107.319 156.878L116.822 147.375L121.902 152.454L112.399 161.957L120.386 169.945L114.979 175.352L106.992 167.364L97.9803 176.376L111.498 189.893L142.546 159.336" fill="white"/>
<path d="M110.842 126.649L79.7936 157.206L92.9012 171.297L101.913 162.285L94.0481 154.421L99.4549 149.014L107.319 156.878L116.822 147.375L121.902 152.454L112.399 161.957L120.386 169.945L114.979 175.352L106.992 167.364L97.9803 176.376L111.498 189.893L142.546 159.336" stroke="#004899"/>
<path fill-rule="evenodd" clip-rule="evenodd" d="M269.128 291.708L108.982 124.785L104.76 117.31L107.37 114.951L114.457 118.989L275.175 285.534" fill="white"/>
<path d="M269.128 291.708L108.982 124.785L104.76 117.31L107.37 114.951L114.457 118.989L275.175 285.534" stroke="#004899" stroke-width="1.09611"/>
<path d="M108.982 124.785L114.457 119.071" stroke="#004899"/>
<path d="M104.019 118.374C106.474 118.374 108.464 116.384 108.464 113.93C108.464 111.475 106.474 109.485 104.019 109.485C101.564 109.485 99.5743 111.475 99.5743 113.93C99.5743 116.384 101.564 118.374 104.019 118.374Z" fill="white" stroke="#004899" stroke-width="1.00628" stroke-linecap="round" stroke-linejoin="round"/>
<path d="M282.63 299.365C285.393 296.919 285.65 292.696 283.204 289.933C280.758 287.169 276.535 286.912 273.772 289.358C271.009 291.804 270.751 296.027 273.197 298.79C275.643 301.554 279.866 301.811 282.63 299.365Z" fill="white" stroke="#004899" stroke-width="1.05463" stroke-linecap="round" stroke-linejoin="round"/>
<path d="M313.377 331.353C316.307 328.76 316.58 324.282 313.986 321.353C311.393 318.423 306.916 318.15 303.986 320.744C301.056 323.337 300.784 327.814 303.377 330.744C305.97 333.674 310.448 333.946 313.377 331.353Z" fill="white" stroke="#004899" stroke-width="1.11814" stroke-linecap="round" stroke-linejoin="round"/>
<path fill-rule="evenodd" clip-rule="evenodd" d="M299.919 335.785C299.321 338.611 296.687 340.082 294.936 339.38C290.847 337.742 292.191 330.358 298.09 329.855C302.911 329.444 306.45 333.63 306.227 338.749C305.874 346.837 297.646 353.302 287.197 353.773C278.294 354.175 269.382 350.83 260.199 341.599C253.479 334.844 250.666 326.496 250.737 318.197C250.845 305.709 257.355 298.373 264.804 297.1C269.543 296.291 274.44 299.208 274.925 304.951C275.233 308.599 272.641 311.906 269.409 312.078C267.628 312.173 265.027 311.606 264.236 308.861C263.663 306.872 264.9 304.968 268.021 303.815C264.049 302.557 257.991 306.681 257.108 314.854C256.4 321.407 257.977 330.497 266.507 338.508C272.628 344.257 279.599 348.353 288.08 347.528C297.358 346.626 301.657 339.983 299.919 335.785Z" fill="white" stroke="#004899" stroke-width="1.08891" stroke-linecap="round" stroke-linejoin="round"/>
<path fill-rule="evenodd" clip-rule="evenodd" d="M318.347 317.035C321.174 316.437 322.644 313.803 321.943 312.051C320.305 307.963 312.921 309.307 312.418 315.205C312.007 320.026 316.192 323.566 321.312 323.342C329.4 322.989 335.786 314.918 336.257 304.469C336.659 295.566 335.015 286.229 325.784 277.046C319.029 270.326 310.864 267.088 302.564 267.159C290.076 267.267 282.741 273.855 281.468 281.304C280.658 286.043 283.419 290.94 289.161 291.425C292.81 291.733 296.274 289.063 296.446 285.83C296.541 284.05 295.973 281.449 293.229 280.658C291.24 280.085 289.336 281.322 288.183 284.443C286.924 280.471 291.048 274.413 299.221 273.53C305.774 272.822 314.682 274.824 322.693 283.354C328.442 289.475 330.837 296.871 330.013 305.352C329.111 314.63 322.546 318.773 318.347 317.035V317.035Z" fill="white" stroke="#004899" stroke-width="1.08891" stroke-linecap="round" stroke-linejoin="round"/>
<path fill-rule="evenodd" clip-rule="evenodd" d="M317.399 281.012C316.17 284.247 318.723 286.885 321.976 285.53C324.98 284.279 328.33 281.241 329.622 278.173C331.078 274.716 328.87 272.038 324.988 273.423C321.782 274.567 318.63 277.774 317.399 281.012V281.012Z" fill="white" stroke="#004899"/>
<path fill-rule="evenodd" clip-rule="evenodd" d="M264.516 332.988C267.751 331.759 270.389 334.312 269.034 337.565C267.783 340.569 264.746 343.919 261.678 345.211C258.22 346.667 255.542 344.459 256.927 340.577C258.072 337.371 261.278 334.219 264.516 332.988V332.988Z" fill="white" stroke="#004899"/>
<path fill-rule="evenodd" clip-rule="evenodd" d="M277.044 276.521C274.708 274.205 269.176 276.976 265.402 280.75C261.629 284.523 258.858 290.055 261.173 292.392C263.914 295.158 269.356 292.324 273.166 288.514C276.977 284.703 279.81 279.261 277.044 276.521V276.521Z" fill="white" stroke="#004899"/>
<path fill-rule="evenodd" clip-rule="evenodd" d="M88.7048 331.419L91.0053 334.298C99.4939 329.627 106.832 323.424 114.375 315.355L286.048 131.724C293.837 123.392 305.369 111.876 306.066 106.335C300.525 107.032 289.697 119.012 281.621 127.066L103.783 304.441C95.9625 312.241 90.4969 320.63 85.8256 329.118L88.7048 331.419" fill="white"/>
<path d="M88.7048 331.419L91.0053 334.298C99.4939 329.627 106.832 323.424 114.375 315.355L286.048 131.724C293.837 123.392 305.369 111.876 306.066 106.335C300.525 107.032 289.697 119.012 281.621 127.066L103.783 304.441C95.9625 312.241 90.4969 320.63 85.8256 329.118L88.7048 331.419" stroke="#004899"/>
<path d="M131.853 312.686L106.339 288.418L100.043 295.038L125.557 319.305L131.853 312.686Z" fill="white" stroke="#004899" stroke-linecap="round" stroke-linejoin="round"/>
<path d="M84.1457 343.6C88.2728 343.6 91.6184 340.254 91.6184 336.127C91.6184 332 88.2728 328.655 84.1457 328.655C80.0187 328.655 76.673 332 76.673 336.127C76.673 340.254 80.0187 343.6 84.1457 343.6Z" fill="white" stroke="#004899" stroke-linecap="round" stroke-linejoin="round"/>
</g>
<defs>
<clipPath id="clip0">
<rect x="0.5" y="0.88623" width="400" height="505.93" fill="white"/>
</clipPath>
</defs>
</svg>
