<svg width="401" height="507" viewBox="0 0 401 507" fill="none" xmlns="http://www.w3.org/2000/svg">
<g clip-path="url(#clip0)">
<path d="M400.5 0.672852H0.5V306.517V306.608C0.5 417.07 90.0436 506.603 200.495 506.603C310.946 506.603 400.5 417.06 400.5 306.608V306.517V0.672852Z" fill="#32AC60"/>
<path fill-rule="evenodd" clip-rule="evenodd" d="M209.871 297.309C211.385 297.238 213.186 299.877 216.777 300.46C219.043 310.443 222.477 320.141 227.188 329.261C231.209 338.139 229.659 347.848 238.31 355.674C240.038 357.237 236.838 368.178 236.91 374.43C232.269 373.735 229.981 376.787 232.436 379.239L245.848 392.633C250.674 397.453 248.322 405.8 247.983 411.913C247.748 416.158 251.864 416.55 254.072 414.735C254.796 414.14 255.316 412.33 255.905 410.925C258.836 416.247 263.668 423.822 262.407 428.394C261.096 433.143 261.123 437.448 260.716 441.835C260.575 443.354 259.433 448.815 265.186 449.193C269.756 449.494 268.104 448.066 281.49 447.309C286.063 447.051 293.857 450.145 300.946 450.064C306.45 450.001 316.417 448.875 316.417 448.875C321.222 448.84 324.195 441.755 315.081 439.553C308.005 437.844 301.904 435.629 294.949 430.544C290.849 427.547 286.455 419.527 282.023 421.149C280.455 417.56 280.139 412.138 279.116 407.049C280.794 407.395 282.246 406.578 282.337 405.089C282.496 402.485 280.634 398.129 279.751 394.201C283.316 394.174 280.49 388.878 279.85 384.303L278.89 377.438C278.51 374.724 279.876 371.859 280.926 368.977C281.78 366.635 276.425 366.709 272.781 367.567C269.92 360.295 265.238 356.936 265.494 345.163C267.304 329.803 265.162 314.001 262.237 297.678C264.113 297.817 265.879 297.631 265.573 296.673C263.01 288.671 262.111 278.491 260.637 268.629C259.052 258.022 259.085 247.778 256.075 237C253.653 228.328 250.63 223.862 246.537 218.102C245.303 216.366 244.936 213.87 244.344 211.679C242.774 205.866 241.025 199.675 235.648 190.92C233.667 187.693 234.239 183.424 233.612 180.03C235.146 180.391 236.653 170.414 234.787 170.239C236.347 165.819 238.84 161.531 241.283 157.553C243.868 168.337 244.119 180.676 248.26 190.293C252.365 199.824 260.798 206.739 270.586 210.739C271.95 211.296 275.024 211.203 274.895 208.937C274.46 201.357 271.775 187.955 269.147 179.37L272.014 147.64C273.121 143.036 270.666 140.387 268.647 135.683C269.646 135.755 271.12 135.601 270.844 133.792C270.465 131.308 269.156 130.254 268.549 127.154C271.577 126.285 269.038 119.9 266.278 115.99C269.523 111.696 261.817 104.239 255.785 98.0568C254.396 96.6343 247.986 97.4153 244.188 97.4649L243.975 96.0679C239.878 95.69 233.931 95.1627 228.911 95.7415L228.441 97.0732L219.28 95.6956C217.545 91.6054 215.788 86.2837 216.064 80.4991C217.617 81.0851 218.206 81.4472 222.096 81.5627C226.596 81.6964 226.805 77.2051 226.132 74.5041C225.809 73.2071 225.413 71.8421 226.131 71.6322C227.896 71.1157 227.903 69.0986 226.784 68.0905C228.627 67.7826 228.475 65.4909 227.281 63.5209C230.289 63.3774 230.843 62.4854 231.036 60.6055C231.379 57.2651 228.55 54.3138 228.679 50.3755C228.749 48.2166 228.1 46.2593 229.225 44.1181C230.238 42.19 230.013 39.9062 228.363 37.4596C230.278 36.9955 231.199 35.6271 231.261 34.1695C231.386 31.2491 229.956 27.0784 225.761 26.2574C222.984 25.7137 221.701 24.2307 219.372 23.4729C217.541 22.877 214.49 22.3072 211.616 22.7683C206.274 23.6254 203.928 22.8103 200.649 22.9644C197.983 23.0897 194.653 23.2875 191.552 22.4199C187.745 21.3548 183.908 22.3515 181.606 23.0737C179.2 23.8284 177.926 26.8831 175.696 27.6548C170.996 29.2819 169.113 31.2491 170.196 34.1695C170.703 35.5375 171.18 36.9955 173.095 37.4596C171.445 39.9062 171.22 42.19 172.233 44.1181C173.358 46.2593 172.875 48.3828 172.945 50.5417C173.073 54.48 170.435 57.0694 170.556 60.4253C170.641 62.7913 171.744 64.7963 175.065 63.5313C173.967 65.7766 173.522 66.9351 175.366 68.2566C173.355 69.6304 177.013 71.3348 175.326 74.5041C174.053 76.8942 175.743 81.7548 179.361 81.5627C183.247 81.3564 183.841 81.0851 185.393 80.4991C185.67 86.2837 183.912 91.6054 182.177 95.6956L173.016 97.0732L172.546 95.7415C167.526 95.1627 161.579 95.69 157.482 96.0679L157.269 97.4649C153.471 97.4153 147.061 96.6343 145.673 98.0568C139.64 104.239 131.935 111.696 135.18 115.99C132.419 119.9 129.88 126.285 132.908 127.154C132.302 130.254 130.992 131.308 130.613 133.792C130.337 135.601 131.811 135.755 132.811 135.683C130.852 139.755 126.095 145.72 128.973 147.404L129.502 149.637L132.31 179.37C129.683 187.955 126.997 201.357 126.563 208.937C126.433 211.203 129.508 211.296 130.871 210.739C140.659 206.739 149.093 199.824 153.197 190.293C157.338 180.676 157.589 168.337 160.174 157.553C162.617 161.531 165.111 165.819 166.671 170.239C164.804 170.414 166.312 180.391 167.846 180.03C167.218 183.424 167.79 187.693 165.809 190.92C160.433 199.675 158.684 205.866 157.114 211.679C156.522 213.87 156.154 216.366 154.92 218.102C150.828 223.862 147.804 228.328 145.382 237C142.372 247.778 142.405 258.022 140.82 268.629C139.346 278.491 138.447 288.671 135.885 296.673C135.578 297.631 137.344 297.817 139.221 297.678C136.296 314.001 134.154 329.803 135.963 345.163C136.22 356.936 131.537 360.295 128.676 367.567C125.032 366.709 119.677 366.635 120.531 368.977C121.582 371.859 122.947 374.724 122.568 377.438L121.608 384.303C120.968 388.878 118.142 394.174 121.706 394.201C120.823 398.129 118.962 402.485 119.12 405.089C119.211 406.578 120.663 407.395 122.341 407.049C121.319 412.138 121.002 417.56 119.434 421.149C115.002 419.527 110.608 427.547 106.509 430.544C99.5531 435.629 93.452 437.844 86.3765 439.553C77.2619 441.755 80.2353 448.84 85.0399 448.875C85.0399 448.875 95.0078 450.001 100.511 450.064C107.601 450.145 115.394 447.051 119.968 447.309C133.354 448.066 131.701 449.494 136.272 449.193C142.024 448.815 140.883 443.354 140.742 441.835C140.334 437.448 140.361 433.143 139.051 428.394C137.789 423.822 142.621 416.247 145.553 410.925C146.141 412.33 146.662 414.14 147.385 414.735C149.593 416.55 153.709 416.158 153.474 411.913C153.136 405.8 150.784 397.453 155.61 392.633L169.021 379.239C171.477 376.787 169.189 373.735 164.548 374.43C164.619 368.178 161.419 357.237 163.147 355.674C171.799 347.848 170.248 338.139 174.269 329.261C178.98 320.141 182.414 310.443 184.681 300.46C188.271 299.877 190.072 297.238 191.586 297.309C192.607 297.357 196.322 300.27 200.729 300.27C205.135 300.27 208.851 297.357 209.871 297.309V297.309Z" fill="white" stroke="#32AC60" stroke-width="3" stroke-linecap="round" stroke-linejoin="round"/>
<path fill-rule="evenodd" clip-rule="evenodd" d="M55.3146 240.129C58.8862 240.195 63.9867 237.169 63.6349 232.437L60.4951 190.208C60.3574 188.356 56.4044 185.935 53.4308 188.01L46.6804 192.719C41.4341 187.58 41.1956 175.212 44.6396 169.642C48.6725 172.501 60.2563 180.208 60.3381 174.675L62.379 36.6755C62.513 27.6095 65.3267 20.814 69.1294 16.4243C72.9321 20.814 75.6425 27.6116 75.8797 36.6755L79.4746 174.009C79.6194 179.54 90.5852 172.501 94.6182 169.642C98.0621 175.212 97.3796 187.247 92.1334 192.386L86.049 188.01C83.1055 185.893 79.8826 188.35 79.8727 190.208L79.6474 232.437C79.6221 237.182 84.396 240.195 87.9677 240.129C88.8369 245.801 82.4079 252.219 71.6411 253.63C60.8743 252.219 54.4454 245.801 55.3146 240.129Z" fill="#FFE000" stroke="#32AC60" stroke-width="3"/>
<path d="M166.671 170.239C173.825 168.697 181.814 167.412 191.029 166.503C193.033 166.305 194.453 158.339 200.729 158.339C207.005 158.339 208.424 166.305 210.429 166.503C219.643 167.412 227.632 168.697 234.787 170.239" stroke="#32AC60" stroke-width="3"/>
<path d="M139.221 297.678C146.68 298.036 149.456 294.456 150.919 294.525C152.383 294.593 154.847 298.682 161.506 298.763C167.502 298.836 169.831 296.299 170.926 296.251C171.881 296.21 174.65 300.35 180.266 300.412L184.681 300.46" stroke="#32AC60" stroke-width="3"/>
<path d="M154.92 218.102C157.296 219.386 156.823 220.62 156.099 222.547C151.229 235.522 148.546 246.889 146.288 260.93C144.751 270.488 144.513 280.247 150.134 281.102C157.94 282.29 159.83 273.442 161.672 264.462L170.385 221.997C171.045 218.779 175.426 218.989 174.781 222.704L167.402 265.168C166.075 272.806 165.786 282.574 172.347 282.986C179.483 283.434 183.023 275.093 183.964 266.974L189.145 222.311C189.483 219.394 193.963 219.115 193.855 223.253C193.504 236.574 190.906 253.193 190.558 266.66C190.331 275.459 192.446 283.143 200.729 283.143C209.012 283.143 211.127 275.459 210.9 266.66C210.552 253.193 207.953 236.574 207.603 223.253C207.494 219.115 211.974 219.394 212.312 222.311L217.493 266.974C218.435 275.093 221.974 283.434 229.11 282.986C235.671 282.574 235.382 272.806 234.055 265.168L226.677 222.704C226.031 218.989 230.412 218.779 231.072 221.997L239.785 264.462C241.627 273.442 243.517 282.29 251.323 281.102C256.944 280.247 256.707 270.488 255.17 260.93C252.912 246.889 250.228 235.522 245.358 222.547C244.635 220.62 244.161 219.386 246.537 218.102" stroke="#32AC60" stroke-width="3"/>
<path d="M154.137 227.884C155.381 232.299 160.907 235.71 168.187 231.966" stroke="#32AC60" stroke-width="3"/>
<path d="M173.289 231.181C174.535 235.998 183.549 237.301 187.889 232.908" stroke="#32AC60" stroke-width="3"/>
<path d="M193.619 232.044C194.394 234.598 199.055 235.89 200.729 235.89C202.403 235.89 207.064 234.598 207.838 232.044" stroke="#32AC60" stroke-width="3" stroke-linecap="round" stroke-linejoin="round"/>
<path d="M122.341 407.049C123.321 407.051 124.024 405.913 124.231 404.807C125.724 404.873 126.791 404.897 127.842 404.571C130.791 403.659 132.618 399.051 132.709 396.408C132.787 394.112 131.315 391.317 133.808 390.05C137.099 388.378 143.547 394.072 142.991 395.78C142.242 398.081 141.746 400.265 142.049 402.138C142.721 406.29 144.252 408.351 145.553 410.925" stroke="#32AC60" stroke-width="3"/>
<path d="M132.63 397.664C134.278 398.71 135.927 398.464 137.575 398.528C136.157 400.081 134.609 401.11 132.865 401.353" stroke="#32AC60" stroke-width="3" stroke-linecap="round" stroke-linejoin="round"/>
<path d="M143.227 405.985C141.578 404.938 139.616 404.713 137.968 404.65C139.385 403.097 140.306 402.382 142.049 402.138" stroke="#32AC60" stroke-width="3" stroke-linecap="round" stroke-linejoin="round"/>
<path d="M128.676 367.567C130.444 367.491 129.84 372.189 130.746 373.096C131.974 374.324 133.819 373.79 134.671 376.157L135.377 378.119C136.083 380.08 156.56 382.168 157.355 381.024C160.414 376.623 161.764 375.477 164.548 374.43" stroke="#32AC60" stroke-width="3"/>
<path d="M146.994 109.36C146.242 112.039 142.682 116.961 135.18 115.99" stroke="#32AC60" stroke-width="3" stroke-linecap="round"/>
<path d="M132.908 127.154C134.144 127.256 134.469 126.305 135.142 126C136.106 125.563 137.576 125.962 138.36 125.529C139.687 124.796 138.597 123.554 138.674 122.664" stroke="#32AC60" stroke-width="3" stroke-linecap="round"/>
<path d="M132.811 135.683C137.722 135.316 141.012 131.183 145.346 129.454C146.619 128.946 148.246 130.059 149.113 131.966C151.453 137.11 153.153 141.827 154.883 146.565" stroke="#32AC60" stroke-width="3"/>
<path d="M140.008 115.953L142.128 118.033L142.991 116.11" stroke="#32AC60" stroke-width="3" stroke-linecap="round" stroke-linejoin="round"/>
<path d="M135.299 135.341L138.988 138.363L139.459 133.222" stroke="#32AC60" stroke-width="3" stroke-linecap="round" stroke-linejoin="round"/>
<path d="M140.715 132.398L144.247 135.223L144.404 130.161" stroke="#32AC60" stroke-width="3" stroke-linecap="round" stroke-linejoin="round"/>
<path d="M157.269 97.4648C163.652 114.04 165.959 133.071 160.174 157.552" stroke="#32AC60" stroke-width="3"/>
<path d="M161.28 152.099L154.176 152.295C155.86 138.992 160.202 122.346 144.914 99.2734" stroke="#32AC60" stroke-width="3" stroke-linecap="round" stroke-linejoin="round"/>
<path d="M156.021 138.127L163.282 138.363" stroke="#32AC60" stroke-width="3"/>
<path d="M156.06 127.492L163.164 127.217" stroke="#32AC60" stroke-width="3"/>
<path d="M153.51 116.502L162.143 115.757" stroke="#32AC60" stroke-width="3"/>
<path d="M149.506 106.691L160.064 105.279" stroke="#32AC60" stroke-width="3"/>
<path d="M162.923 118.772L167.993 118.753L168.104 120.806H176.873L173.016 97.0732" stroke="#32AC60" stroke-width="3" stroke-linecap="round" stroke-linejoin="round"/>
<path d="M175.708 113.924L200.729 113.48" stroke="#32AC60" stroke-width="3"/>
<path d="M188.127 46.5531C186.446 44.2141 181.557 43.4829 178.706 43.8777" stroke="#32AC60" stroke-width="3" stroke-linecap="round" stroke-linejoin="round"/>
<path d="M179.647 46.7928C181.147 46.6652 182.803 47.0464 185.222 49.3019C184.537 51.6479 182.728 52.6203 180.354 52.7361" stroke="#32AC60" stroke-width="3" stroke-linecap="round" stroke-linejoin="round"/>
<path d="M181.02 47.022C180.266 47.9139 180.612 51.1379 181.216 52.3482" stroke="#32AC60" stroke-width="3"/>
<path d="M175.065 63.5312C177.584 61.6119 178.228 61.7607 179.285 61.7063C180.486 61.6445 180.972 60.3444 180.136 59.4985" stroke="#32AC60" stroke-width="3" stroke-linecap="round"/>
<path d="M175.366 68.2566C180.553 68.0551 181.14 66.9908 181.97 67.9748" stroke="#32AC60" stroke-width="3" stroke-linecap="round"/>
<path d="M173.094 37.4598C175.744 37.3812 176.66 35.2847 178.391 35.3019C180.169 35.3195 183.046 38.0722 187.967 39.4227C190.363 40.0801 193.663 40.5339 194.247 41.542C195.304 43.3667 194.909 46.7564 194.404 50.9612C193.742 56.4672 195.085 61.3322 194.404 67.6017C193.579 75.1916 197.551 76.1841 200.729 76.1574" stroke="#32AC60" stroke-width="3"/>
<path d="M200.329 43.9312C200.329 43.9312 201.04 47.6704 200.829 49.5717C200.641 51.2604 200.148 52.8789 200.01 54.5724C199.823 56.8718 200.887 58.3812 200.888 60.6882C200.889 62.1826 200.393 64.0256 200.328 65.5186C200.258 67.1414 200.729 70.1325 200.729 70.1325" stroke="#32AC60" stroke-width="3" stroke-linecap="round" stroke-linejoin="round"/>
<path d="M182.177 95.6953L182.59 102.601C182.76 105.443 185.603 107.208 187.009 107.208H200.729" stroke="#32AC60" stroke-width="3"/>
<path d="M121.706 394.201C124.792 395.027 124.62 388.951 125.566 387.068" stroke="#32AC60" stroke-width="3" stroke-linecap="round"/>
<path d="M123.604 393.779C124.717 393.653 125.18 393.722 125.684 393.347C126.272 392.91 125.192 390.731 124.859 389.619" stroke="#32AC60" stroke-width="3" stroke-linecap="round" stroke-linejoin="round"/>
<path d="M233.611 180.029C227.9 178.009 219.838 175.308 215.497 174.913C213.301 174.713 212.87 174.501 213.49 175.45L216.001 179.297C216.804 180.526 210.575 184.121 209.251 182.201L205.248 176.392C204.433 175.21 203.623 174.038 200.729 174.038C197.834 174.038 197.024 175.21 196.209 176.392L192.206 182.201C190.882 184.121 184.653 180.526 185.456 179.297L187.967 175.45C188.587 174.501 188.156 174.713 185.96 174.913C181.619 175.308 173.557 178.009 167.846 180.029" stroke="#32AC60" stroke-width="3"/>
<path d="M262.237 297.678C254.777 298.036 252.001 294.456 250.538 294.525C249.074 294.593 246.61 298.682 239.951 298.763C233.956 298.836 231.626 296.299 230.532 296.251C229.577 296.21 226.807 300.35 221.191 300.412L216.777 300.46" stroke="#32AC60" stroke-width="3"/>
<path d="M247.32 227.884C246.076 232.299 240.55 235.71 233.27 231.966" stroke="#32AC60" stroke-width="3"/>
<path d="M228.168 231.181C226.923 235.998 217.908 237.301 213.568 232.908" stroke="#32AC60" stroke-width="3"/>
<path d="M279.116 407.049C278.137 407.051 277.434 405.913 277.226 404.807C275.733 404.873 274.666 404.897 273.615 404.571C270.666 403.659 268.839 399.051 268.749 396.408C268.67 394.112 270.143 391.317 267.65 390.05C264.359 388.378 257.91 394.072 258.466 395.78C259.215 398.081 259.711 400.265 259.408 402.138C258.736 406.29 257.206 408.351 255.905 410.925" stroke="#32AC60" stroke-width="3"/>
<path d="M268.827 397.664C267.179 398.71 265.53 398.464 263.882 398.528C265.3 400.081 266.848 401.11 268.592 401.353" stroke="#32AC60" stroke-width="3" stroke-linecap="round" stroke-linejoin="round"/>
<path d="M258.23 405.985C259.879 404.938 261.841 404.713 263.49 404.65C262.072 403.097 261.152 402.382 259.408 402.138" stroke="#32AC60" stroke-width="3" stroke-linecap="round" stroke-linejoin="round"/>
<path d="M272.781 367.567C271.014 367.491 271.618 372.189 270.711 373.096C269.484 374.324 267.639 373.79 266.787 376.157L266.08 378.119C265.374 380.08 244.898 382.168 244.102 381.024C241.043 376.623 239.694 375.477 236.91 374.43" stroke="#32AC60" stroke-width="3"/>
<path d="M254.463 109.36C255.216 112.039 258.776 116.961 266.278 115.99" stroke="#32AC60" stroke-width="3" stroke-linecap="round"/>
<path d="M268.549 127.154C267.314 127.256 266.988 126.305 266.315 126C265.352 125.563 263.881 125.962 263.097 125.529C261.771 124.796 262.86 123.554 262.783 122.664" stroke="#32AC60" stroke-width="3" stroke-linecap="round"/>
<path d="M268.647 135.683C263.736 135.316 260.445 131.183 256.111 129.454C254.838 128.946 253.211 130.059 252.344 131.966C250.004 137.11 248.305 141.827 246.574 146.565" stroke="#32AC60" stroke-width="3"/>
<path d="M261.449 115.953L259.33 118.033L258.466 116.11" stroke="#32AC60" stroke-width="3" stroke-linecap="round" stroke-linejoin="round"/>
<path d="M266.158 135.341L262.469 138.363L261.998 133.222" stroke="#32AC60" stroke-width="3" stroke-linecap="round" stroke-linejoin="round"/>
<path d="M260.743 132.398L257.21 135.223L257.053 130.161" stroke="#32AC60" stroke-width="3" stroke-linecap="round" stroke-linejoin="round"/>
<path d="M256.543 99.2734C241.255 122.346 245.597 138.992 247.281 152.295L240.177 152.099" stroke="#32AC60" stroke-width="3" stroke-linecap="round" stroke-linejoin="round"/>
<path d="M244.188 97.4648C237.805 114.04 235.498 133.071 241.283 157.552" stroke="#32AC60" stroke-width="3"/>
<path d="M245.436 138.127L238.176 138.363" stroke="#32AC60" stroke-width="3"/>
<path d="M245.397 127.492L238.293 127.217" stroke="#32AC60" stroke-width="3"/>
<path d="M247.947 116.228L239.549 115.992" stroke="#32AC60" stroke-width="3"/>
<path d="M251.951 106.691L241.237 105.749" stroke="#32AC60" stroke-width="3"/>
<path d="M238.574 118.772L233.464 118.753L233.353 120.806H224.584L228.441 97.0732" stroke="#32AC60" stroke-width="3" stroke-linecap="round" stroke-linejoin="round"/>
<path d="M225.749 113.924L200.729 113.48" stroke="#32AC60" stroke-width="3"/>
<path fill-rule="evenodd" clip-rule="evenodd" d="M206.212 146.171C207.797 146.171 208.303 144.96 207.933 144.006L205.713 138.289C205.365 137.395 206.074 136.81 206.989 137.235L210.819 139.011C212.117 139.613 213.407 139.111 213.428 137.179L213.539 126.856C213.553 125.505 212.145 125.692 211.652 125.968L207.378 128.354C206.122 129.056 205.581 128.714 206.101 127.244L207.988 121.916C208.4 120.755 208.122 119.732 206.323 119.696L200.729 119.585L195.134 119.696C193.335 119.732 193.057 120.755 193.469 121.916L195.356 127.244C195.876 128.714 195.335 129.056 194.079 128.354L189.806 125.968C189.312 125.692 187.904 125.505 187.919 126.856L188.03 137.179C188.05 139.111 189.341 139.613 190.638 139.011L194.468 137.235C195.384 136.81 196.092 137.395 195.745 138.289L193.524 144.006C193.154 144.96 193.661 146.171 195.245 146.171L200.729 146.171L206.212 146.171Z" stroke="#32AC60" stroke-width="3"/>
<path d="M214.249 47.5114C215.824 45.0373 220.197 41.7915 222.752 42.6314" stroke="#32AC60" stroke-width="3" stroke-linecap="round" stroke-linejoin="round"/>
<path d="M220.987 46.4102C218.665 47.021 216.324 48.699 216.355 49.9407C216.385 51.1408 219.096 52.0379 220.901 52.5738" stroke="#32AC60" stroke-width="3" stroke-linecap="round" stroke-linejoin="round"/>
<path d="M220.427 46.7217L220.314 52.488" stroke="#32AC60" stroke-width="3"/>
<path d="M227.281 63.5212C225.079 63.6294 224.862 61.9415 223.453 61.5765C222.245 61.2634 219.47 61.1805 221.002 59.729" stroke="#32AC60" stroke-width="3" stroke-linecap="round"/>
<path d="M226.617 68.2568C221.431 68.0553 220.757 67.1674 219.926 68.1514" stroke="#32AC60" stroke-width="3" stroke-linecap="round"/>
<path d="M228.363 37.4598C225.714 37.3812 224.798 35.2847 223.066 35.3019C221.289 35.3195 218.412 38.0722 213.49 39.4227C211.094 40.0801 207.794 40.5339 207.21 41.542C206.154 43.3667 206.548 46.7564 207.053 50.9612C207.715 56.4672 206.372 61.3322 207.053 67.6017C207.878 75.1916 203.906 76.1841 200.729 76.1574" stroke="#32AC60" stroke-width="3"/>
<path d="M219.28 95.6953L218.867 102.601C218.697 105.443 215.855 107.208 214.449 107.208H200.729" stroke="#32AC60" stroke-width="3"/>
<path d="M279.751 394.201C276.665 395.027 276.838 388.951 275.892 387.068" stroke="#32AC60" stroke-width="3" stroke-linecap="round"/>
<path d="M277.854 393.779C276.74 393.653 276.278 393.722 275.774 393.347C275.186 392.91 276.265 390.731 276.598 389.619" stroke="#32AC60" stroke-width="3" stroke-linecap="round" stroke-linejoin="round"/>
<path fill-rule="evenodd" clip-rule="evenodd" d="M128.973 147.404L121.523 159.673C120.649 161.113 118.162 160.89 116.225 163.284C109.124 172.059 102.399 180.004 95.2282 190.168C91.9164 194.862 88.0165 200.474 83.729 202.452C82.0921 203.207 80.0912 196.44 77.6065 195.584C73.5697 194.193 66.8493 197.143 60.8393 196.683C58.9681 196.54 57.1021 196.254 57.5908 199.077C57.8791 200.742 58.886 201.432 58.886 201.432C57.723 202.607 56.6052 203.148 56.5704 205.71C56.5469 207.44 57.2349 208.764 57.9244 209.319C57.3384 209.729 56.9633 209.868 57.0021 212.185C57.0526 215.2 58.526 216.597 58.6897 216.816C59.3779 217.74 57.6179 217.403 57.7086 220.78C57.7623 222.782 58.2114 224.911 59.5924 225.333C58.7732 227.249 59.0264 229.293 59.7494 230.513C60.4471 231.691 63.1676 232.503 67.3239 232.044C71.2472 231.61 71.8011 230.124 73.9566 228.983C75.5713 229.945 76.8663 230.78 79.3334 230.631C83.2055 230.398 93.7083 217.302 101.39 210.694C109.737 203.514 127.607 190.6 127.607 190.6C132.187 187.089 135.454 180.653 138.674 174.273C139.41 172.814 139.703 166.975 138.127 161.584C136.418 155.735 132.662 150.263 128.973 147.404V147.404Z" fill="white" stroke="#32AC60" stroke-width="3"/>
<path d="M59.5923 225.333C64.3464 226.163 68.9947 225.844 72.9165 224.175" stroke="#32AC60" stroke-width="3"/>
<path d="M58.6897 216.816C63.1508 219.129 68.5367 217.782 72.5437 217.601" stroke="#32AC60" stroke-width="3"/>
<path d="M57.9246 209.319C59.2781 209.949 67.2087 210.498 71.6955 209.658" stroke="#32AC60" stroke-width="3"/>
<path d="M58.886 201.432C64.5718 204.201 68.9331 202.892 71.2565 204.043C71.4213 206.646 71.5387 208.308 71.6954 209.658C71.5739 210.995 73.4726 217.235 72.5438 217.602C73.6012 217.923 74.0163 223.781 72.9166 224.175" stroke="#32AC60" stroke-width="3" stroke-linecap="round" stroke-linejoin="round"/>
<path d="M72.9165 224.175C75.0436 224.963 74.366 228.467 73.9565 228.983" stroke="#32AC60" stroke-width="3"/>
<path fill-rule="evenodd" clip-rule="evenodd" d="M336.053 226.872H353.67C353.934 228.337 355.648 229.929 357.202 230.646L339.663 268.721C338.246 274.73 341.482 282.199 346.435 287.148C354.79 295.497 364.76 292.424 372.188 287.814C377.149 284.736 381.588 276.323 381.069 270.386L365.822 230.816C369.357 229.004 369.607 225.9 369.525 223.503C369.37 219.022 364.877 215.304 360.898 215.418C358.111 215.498 355.968 216.565 354.205 218.769H336.202C335.669 216.318 332.93 213.316 330.561 211.886V95.6634H340.629V85.0068H326.272H312.137V95.6634H321.983V211.886C319.614 213.316 316.875 216.318 316.342 218.769H298.339C296.576 216.565 294.433 215.498 291.646 215.418C287.667 215.304 283.174 219.022 283.019 223.503C282.937 225.9 283.187 229.004 286.723 230.816L271.476 270.386C270.956 276.323 275.396 284.736 280.356 287.814C287.784 292.424 297.755 295.497 306.109 287.148C311.062 282.199 314.298 274.73 312.881 268.721L295.342 230.646C296.896 229.929 298.61 228.337 298.874 226.872H316.491C317.145 230.084 321.055 233.909 326.272 233.866C331.489 233.909 335.399 230.084 336.053 226.872V226.872Z" fill="#FFE000" stroke="#32AC60" stroke-width="3"/>
<path fill-rule="evenodd" clip-rule="evenodd" d="M371.71 268.722C364.247 268.88 356.785 268.8 349.321 268.722L361.199 240.082L371.71 268.722Z" fill="#32AC60" stroke="#32AC60" stroke-width="3" stroke-linecap="round" stroke-linejoin="round"/>
<path fill-rule="evenodd" clip-rule="evenodd" d="M280.834 268.722C288.297 268.88 295.76 268.8 303.223 268.722L291.346 240.082L280.834 268.722Z" fill="#32AC60" stroke="#32AC60" stroke-width="3" stroke-linecap="round" stroke-linejoin="round"/>
<path d="M130.085 206.336C136.056 201.883 140.342 188.403 138.674 174.273" stroke="#32AC60" stroke-width="3" stroke-linecap="round"/>
<path fill-rule="evenodd" clip-rule="evenodd" d="M283.717 162.6C292.814 152.843 300.046 143.15 311.135 133.85C312.744 132.5 311.555 125.613 310.802 119.752C310.142 114.616 313.3 109.399 315.02 108.096C317.492 106.225 319.597 105.033 321.983 104.877C329.693 104.373 332.413 106.076 338.331 105.377C342.585 104.874 342.127 106.819 342.106 107.874C342.064 109.865 340.87 112.138 340.052 112.426C341.814 112.64 342.574 114.782 342.661 116.2C342.766 117.929 342.572 119.954 341.44 120.029C342.44 120.527 343.16 125.667 341.606 125.913C343.434 127.401 343.421 132.888 341.662 133.267C343.145 133.96 342.733 139.066 340.496 139.289C335.454 139.792 330.561 140.204 326.272 138.068C325.684 137.775 325.43 134.972 326.272 133.85C325.297 133.558 324.266 133.231 323.346 132.296C321.871 130.797 322.348 129.187 321.983 127.633V144.34C320.735 145.098 318.616 145.667 317.407 147.892C311.283 159.159 306.869 170.509 299.035 181.693C295.004 187.45 290.459 192.6 284.882 196.29C282.707 197.73 279.064 196.706 277.056 194.736C271.616 189.397 266.087 184.159 261.793 177.53C262.46 164.704 266.755 152.345 271.506 141.842C276.066 148.411 280.192 155.291 283.717 162.6V162.6Z" fill="white" stroke="#32AC60" stroke-width="3" stroke-linecap="round" stroke-linejoin="round"/>
<path d="M270.602 207.135C262.624 197.625 261.179 188.389 261.793 177.53" stroke="#32AC60" stroke-width="3" stroke-linecap="round"/>
<path d="M196.916 113.677L200.729 119.586" stroke="#32AC60" stroke-width="3"/>
<path d="M204.542 113.677L200.729 119.586" stroke="#32AC60" stroke-width="3"/>
<path d="M316.852 124.692C318.465 125.545 318.531 127.151 322.094 126.884C325.125 126.657 325.292 118.845 326.272 114.618C326.811 112.293 331.962 114.489 340.052 112.426" stroke="#32AC60" stroke-width="3" stroke-linecap="round" stroke-linejoin="round"/>
<path d="M341.44 120.029C336.413 121.129 325.545 122.314 325.538 118.864" stroke="#32AC60" stroke-width="3"/>
<path d="M341.606 125.913C336.159 128.734 326.371 127.472 323.621 126.163" stroke="#32AC60" stroke-width="3"/>
<path d="M341.661 133.267C336.532 133.563 328.844 134.005 326.272 133.85" stroke="#32AC60" stroke-width="3"/>
<path d="M324.733 126.579C323.38 126.353 322.2 127.608 322.18 128.549" stroke="#32AC60" stroke-width="3"/>
</g>
<defs>
<clipPath id="clip0">
<rect x="0.5" y="0.672852" width="400" height="505.93" fill="white"/>
</clipPath>
</defs>
</svg>
