<svg width="401" height="456" viewBox="0 0 401 456" fill="none" xmlns="http://www.w3.org/2000/svg">
<g clip-path="url(#clip0)">
<path d="M400.5 0.672852H200.5H0.5C2.57708 109.973 11.7624 216.961 66.8743 307.651C100.5 361.006 149.427 414.131 199.438 455.927C199.808 455.673 200.154 455.372 200.5 455.118L201.562 455.927C251.596 414.131 300.523 361.006 334.149 307.651C389.238 216.961 398.423 109.973 400.5 0.672852Z" fill="#EE334E"/>
<path d="M200.5 282.151C219.532 282.164 238.141 276.524 253.973 265.942C269.804 255.36 282.147 240.313 289.44 222.703C296.733 205.094 298.648 185.714 294.944 167.014C291.239 148.314 282.081 131.135 268.628 117.649C255.174 104.164 238.031 94.9776 219.365 91.2532C200.699 87.5289 181.35 89.4334 163.765 96.7259C146.18 104.018 131.149 116.371 120.574 132.222C109.998 148.073 104.354 166.709 104.354 185.773C104.36 211.332 114.499 235.843 132.541 253.916C150.584 271.989 175.053 282.144 200.569 282.151H200.5ZM200.569 56.5693C226.078 56.5785 251.012 64.1639 272.217 78.3666C293.423 92.5693 309.949 112.751 319.704 136.361C329.46 159.971 332.008 185.948 327.025 211.008C322.043 236.068 309.755 259.086 291.714 277.151C273.673 295.216 250.689 307.517 225.67 312.498C200.65 317.48 174.717 314.919 151.151 305.138C127.584 295.358 107.442 278.797 93.2708 257.551C79.0995 236.304 71.5358 211.326 71.5358 185.773C71.5358 151.51 85.1222 118.65 109.307 94.4205C133.492 70.1907 166.294 56.5755 200.5 56.5693" fill="#FFD046"/>
</g>
<defs>
<clipPath id="clip0">
<rect x="0.5" y="0.672852" width="400" height="455.25" fill="white"/>
</clipPath>
</defs>
</svg>
