<svg width="401" height="500" viewBox="0 0 401 500" fill="none" xmlns="http://www.w3.org/2000/svg">
<g clip-path="url(#clip0)">
<path fill-rule="evenodd" clip-rule="evenodd" d="M400.084 0.672852C402.175 103.176 396.703 188.242 356.136 297.388C328.074 372.9 281.894 442.219 200.5 499.064C119.106 442.219 72.9261 372.9 44.8643 297.388C4.29711 188.242 -1.1752 103.176 0.915679 0.672852C133.972 0.962974 267.028 0.672852 400.084 0.672852Z" fill="#0085CA"/>
<mask id="mask0" mask-type="alpha" maskUnits="userSpaceOnUse" x="0" y="0" width="401" height="365">
<path d="M200.5 134.529L66.7999 0.672852H0.5V39.4214L2.9165 41.9903L147.978 187.052L42.8241 292.205V364.154H75.9201L200.5 239.574L325.08 364.154H358.176V292.205L253.022 187.052L398.083 41.9903L400.5 39.4214V0.672852H334.2L200.5 134.529Z" fill="#FFE000"/>
</mask>
<g mask="url(#mask0)">
<path fill-rule="evenodd" clip-rule="evenodd" d="M400.084 0.672852C402.175 103.176 396.703 188.242 356.136 297.388C328.074 372.9 281.894 442.219 200.5 499.064C119.106 442.219 72.9261 372.9 44.8643 297.388C4.29711 188.242 -1.1752 103.176 0.915679 0.672852C133.972 0.962974 267.028 0.672852 400.084 0.672852Z" fill="#FFE000"/>
</g>
</g>
<defs>
<clipPath id="clip0">
<rect x="0.5" y="0.672852" width="400" height="498.39" fill="white"/>
</clipPath>
</defs>
</svg>
