<svg width="401" height="500" viewBox="0 0 401 500" fill="none" xmlns="http://www.w3.org/2000/svg">
<g clip-path="url(#clip0)">
<path d="M2.34971 2.17286C46.2174 2.17356 90.0863 2.20545 133.956 2.23733C222.186 2.30146 310.419 2.36559 398.65 2.17604C400.657 103.939 395.048 188.52 354.758 296.919C326.882 371.93 281.095 440.777 200.5 497.323C119.905 440.777 74.1177 371.93 46.2421 296.92L44.836 297.442L46.2421 296.919C5.95188 188.519 0.343127 103.937 2.34971 2.17286Z" fill="white" stroke="black" stroke-width="3"/>
<path d="M175.157 352.398C166.617 343.523 152.674 350.933 146.849 324.553C144.074 311.982 138.971 316.853 131.31 293.292C129.492 295.389 128.456 298.537 128.791 302.344C125.166 300.546 122.71 296.119 120.757 292.371C118.791 295.198 118.604 299.303 118.806 303.464C110.82 296.904 108.591 288.726 107.701 281.535C105.452 284.12 104.678 287.91 104.435 291.613C99.7624 285.295 96.3091 278.445 94.4505 270.897C92.5227 272.012 90.3835 275.617 89.2314 278.999C83.5419 274.142 81.6276 264.209 81.5729 256.806C78.5057 260.733 77.8483 266.267 77.3737 271.923C69.6685 264.803 69.5467 255.362 70.0951 246.355C66.5343 248.253 62.3946 251.461 59.9238 255.406C58.4189 242.888 61.1182 231.974 65.1494 221.253C61.202 222.283 56.6237 225.627 53.0184 229.185C52.6019 218.46 54.8979 208.844 58.3374 199.697C54.9068 201.49 51.0976 205.972 47.8861 210.522C47.8941 198.915 51.6741 189.068 56.9377 179.914C53.5959 180.923 48.8338 183.976 45.7398 186.446C47.6925 177.969 51.7247 170.471 56.6577 163.397C53.032 164.272 48.5734 166.609 44.9933 169.369C48.9295 154.923 59.3685 148.717 69.4006 140.54C34.3935 114.41 39.1591 75.4949 57.8864 59.888C71.2639 48.7395 91.6446 49.3353 112.883 75.4993C112.883 75.4993 131.337 61.0567 152.095 58.8861C172.282 56.7754 185.404 60.0549 200.5 59.888C215.597 60.0549 228.719 56.7754 248.905 58.8861C269.663 61.0567 288.118 75.4993 288.118 75.4993C309.356 49.3353 329.737 48.7395 343.114 59.888C361.841 75.4949 366.607 114.41 331.6 140.54C341.632 148.717 352.071 154.923 356.007 169.369C352.427 166.609 347.968 164.272 344.343 163.397C349.276 170.471 353.308 177.969 355.261 186.446C352.167 183.976 347.405 180.923 344.063 179.914C349.326 189.068 353.106 198.915 353.114 210.522C349.903 205.972 346.094 201.49 342.663 199.697C346.103 208.844 348.399 218.46 347.982 229.185C344.377 225.627 339.798 222.283 335.851 221.253C339.882 231.974 342.582 242.888 341.077 255.406C338.606 251.461 334.466 248.253 330.905 246.355C331.454 255.362 331.332 264.803 323.627 271.923C323.152 266.267 322.495 260.733 319.428 256.806C319.373 264.209 317.459 274.142 311.769 278.999C310.617 275.617 308.478 272.012 306.55 270.897C304.691 278.445 301.238 285.295 296.565 291.613C296.322 287.91 295.549 284.12 293.299 281.535C292.41 288.726 290.18 296.904 282.195 303.464C282.397 299.303 282.21 295.198 280.243 292.371C278.291 296.119 275.835 300.546 272.21 302.344C272.544 298.537 271.508 295.389 269.69 293.292C262.029 316.853 256.926 311.982 254.151 324.553C248.326 350.933 234.383 343.523 225.844 352.398L200.5 354.904L175.157 352.398Z" fill="black"/>
<path d="M173.654 314.081C168.417 309.216 164.863 303.685 162.639 298.635C160.959 303.114 161.056 307.29 161.491 312.889C146.58 301.606 145.701 248.56 155.888 254.496C163.12 258.71 169.588 261.97 175.636 264.357C184.35 267.796 192.241 269.384 200.5 269.427C208.76 269.384 216.65 267.796 225.364 264.357C231.412 261.97 237.88 258.71 245.112 254.496C255.3 248.56 254.42 301.606 239.509 312.889C239.944 307.29 240.041 303.114 238.361 298.635C236.137 303.685 232.584 309.216 227.346 314.081C221.126 319.859 209.804 322.478 200.5 322.617C191.197 322.478 179.874 319.859 173.654 314.081V314.081Z" fill="white"/>
<path d="M157.724 257.853C154.243 274.705 163.186 289.12 166.77 293.479C167.219 286.05 168.111 277.112 172.089 273.509C172.134 276.027 175.598 283.171 178.675 284.071C178.965 280.247 181.075 276.4 183.801 275.118C183.495 277.879 185.635 282.193 188.233 283.401C188.951 281.351 190.325 278.998 192.651 277.891C193.615 280.652 195.182 282.63 197.28 283.525C198.223 281.155 199.189 279.77 200.5 279.072C201.811 279.77 202.777 281.155 203.721 283.525C205.818 282.63 207.386 280.652 208.35 277.891C210.675 278.998 212.05 281.351 212.768 283.401C215.366 282.193 217.505 277.879 217.2 275.118C219.925 276.4 222.036 280.247 222.325 284.071C225.403 283.171 228.867 276.027 228.912 273.509C232.889 277.112 233.781 286.05 234.231 293.479C237.814 289.12 246.757 274.705 243.277 257.853C224.735 267.969 214.692 271.094 200.5 271.449C186.308 271.094 176.266 267.969 157.724 257.853H157.724Z" fill="black"/>
<path d="M171.989 314.391C174.405 304.199 188.508 295.974 200.5 305.879C212.492 295.974 226.596 304.199 229.011 314.391C237.047 348.299 222.041 369.056 200.5 368.764C178.96 369.056 163.954 348.299 171.989 314.391Z" fill="#E00E00" stroke="black" stroke-width="3"/>
<path d="M157.464 169.001C149.279 160.283 135.259 156.291 128.91 154.234" stroke="white" stroke-width="3.5" stroke-linecap="round"/>
<path d="M141.879 159.901C138.228 163.559 138.445 169.961 142.588 173.47C147.856 177.932 156.376 172.46 157.464 169.001" stroke="white" stroke-width="3.5" stroke-linecap="round" stroke-linejoin="round"/>
<path d="M243.536 169.001C251.721 160.283 265.742 156.291 272.091 154.234" stroke="white" stroke-width="3.5" stroke-linecap="round"/>
<path d="M259.121 159.901C262.772 163.559 262.556 169.961 258.413 173.47C253.144 177.932 244.625 172.46 243.536 169.001" stroke="white" stroke-width="3.5" stroke-linecap="round" stroke-linejoin="round"/>
<path d="M210.745 238.969C210.35 226.418 221.659 241.201 226.702 241.469C229.811 241.634 232.627 238.362 232.714 230.87C232.88 216.559 215.34 210.842 200.5 210.987C185.66 210.842 168.12 216.559 168.287 230.87C168.374 238.362 171.189 241.634 174.298 241.469C179.341 241.201 190.651 226.418 190.255 238.969" stroke="white" stroke-width="3.5" stroke-linecap="round" stroke-linejoin="round"/>
</g>
<defs>
<clipPath id="clip0">
<rect x="0.5" y="0.672852" width="400" height="498.48" fill="white"/>
</clipPath>
</defs>
</svg>
