<svg width="401" height="523" viewBox="0 0 401 523" fill="none" xmlns="http://www.w3.org/2000/svg">
<g clip-path="url(#clip0)">
<path d="M200.209 522.05C122.395 465.595 69.061 394.294 37.1483 304.105C8.20906 222.334 -3.40222 123.235 1.64434 1.15448L1.66528 0.672852H399.339L399.36 1.15448C404.396 123.235 392.784 222.324 363.856 304.105C331.943 394.294 278.609 465.595 200.795 522.05L200.502 522.259L200.209 522.05Z" fill="#FFE000"/>
<path fill-rule="evenodd" clip-rule="evenodd" d="M258.965 302.064V153.881H253.669V137.129H258.965V132.577C227.13 126.214 215.317 101.26 215.077 86.8379C214.606 58.5325 242.187 43.4438 258.965 41.225V36.7068H267.804H276.642V41.225C293.42 43.4438 321.001 58.5325 320.53 86.8379C320.29 101.26 308.477 126.214 276.642 132.577V137.129H281.938V153.881H276.642V255.441H286.126V239.736H310.207V255.441H319.124V239.736H326.337V302.556H319.124V288.945H310.207V302.556H286.126V288.945H276.642V302.064H258.965Z" fill="black" stroke="black" stroke-linejoin="round"/>
<path fill-rule="evenodd" clip-rule="evenodd" d="M91.4438 302.064V153.881H86.1481V137.129H91.4438V132.577C59.6094 126.214 47.7962 101.26 47.5561 86.8379C47.0849 58.5325 74.6659 43.4438 91.4438 41.225V36.7068H100.283H109.122V41.225C125.899 43.4438 153.48 58.5325 153.009 86.8379C152.769 101.26 140.956 126.214 109.122 132.577V137.129H114.417V153.881H109.122V255.441H118.605V239.736H142.686V255.441H151.603V239.736H158.816V302.556H151.603V288.945H142.686V302.556H118.605V288.945H109.122V302.064H91.4438Z" fill="black" stroke="black" stroke-linejoin="round"/>
<path d="M100.283 120.939C120.344 120.939 136.607 105.692 136.607 86.8845C136.607 68.0767 120.344 52.8299 100.283 52.8299C80.2215 52.8299 63.9586 68.0767 63.9586 86.8845C63.9586 105.692 80.2215 120.939 100.283 120.939Z" fill="#FFE000" stroke="black" stroke-width="0.996588" stroke-linecap="round" stroke-linejoin="round"/>
<path d="M84.9531 145.505H115.848" stroke="#FFE000" stroke-width="3"/>
<path d="M100.283 51.7875V122.339" stroke="black" stroke-width="8"/>
<path d="M136.723 86.8379H63.8423" stroke="black" stroke-width="8.23666"/>
<path d="M109.719 272.193H151.275" stroke="#FFE000" stroke-width="10"/>
<path d="M130.646 248.635V293.656" stroke="#FFE000" stroke-width="10"/>
<path fill-rule="evenodd" clip-rule="evenodd" d="M181.486 396.295V248.112H176.191V231.36H181.486V226.807C149.652 220.445 137.839 195.49 137.599 181.068C137.127 152.763 164.708 137.674 181.486 135.455V130.937H190.325H199.164V135.455C215.942 137.674 243.523 152.763 243.052 181.068C242.812 195.49 230.998 220.445 199.164 226.807V231.36H204.46V248.112H199.164V349.671H208.648V333.966H232.729V349.671H241.645V333.966H248.858V396.786H241.645V383.175H232.729V396.786H208.648V383.175H199.164V396.295H181.486Z" fill="black" stroke="black" stroke-linejoin="round"/>
<path d="M109.122 115.445H91.4438V121.613H109.122V115.445Z" fill="black"/>
<path d="M109.122 51.2784H91.4438V57.4459H109.122V51.2784Z" fill="black"/>
<path d="M190.325 215.169C210.386 215.169 226.649 199.923 226.649 181.115C226.649 162.307 210.386 147.06 190.325 147.06C170.264 147.06 154.001 162.307 154.001 181.115C154.001 199.923 170.264 215.169 190.325 215.169Z" fill="#FFE000" stroke="black" stroke-width="0.996588" stroke-linecap="round" stroke-linejoin="round"/>
<path d="M174.996 239.736H205.891" stroke="#FFE000" stroke-width="3"/>
<path d="M190.325 146.018V216.57" stroke="black" stroke-width="8"/>
<path d="M226.766 181.068H153.885" stroke="black" stroke-width="8.23666"/>
<path d="M199.761 366.423H241.317" stroke="#FFE000" stroke-width="10"/>
<path d="M220.688 342.866V387.887" stroke="#FFE000" stroke-width="10"/>
<path d="M199.164 209.676H181.486V215.843H199.164V209.676Z" fill="black"/>
<path d="M199.164 145.509H181.486V151.676H199.164V145.509Z" fill="black"/>
<path d="M267.803 120.939C287.865 120.939 304.128 105.692 304.128 86.8845C304.128 68.0767 287.865 52.8299 267.803 52.8299C247.742 52.8299 231.479 68.0767 231.479 86.8845C231.479 105.692 247.742 120.939 267.803 120.939Z" fill="#FFE000" stroke="black" stroke-width="0.996588" stroke-linecap="round" stroke-linejoin="round"/>
<path d="M252.474 145.505H283.369" stroke="#FFE000" stroke-width="3"/>
<path d="M267.803 51.7875V122.339" stroke="black" stroke-width="8"/>
<path d="M304.244 86.8379H231.363" stroke="black" stroke-width="8.23666"/>
<path d="M277.24 272.193H318.796" stroke="#FFE000" stroke-width="10"/>
<path d="M298.167 248.635V293.656" stroke="#FFE000" stroke-width="10"/>
<path d="M276.642 115.445H258.965V121.613H276.642V115.445Z" fill="black"/>
<path d="M276.642 51.2784H258.965V57.4459H276.642V51.2784Z" fill="black"/>
</g>
<defs>
<clipPath id="clip0">
<rect x="0.5" y="0.672852" width="400" height="521.59" fill="white"/>
</clipPath>
</defs>
</svg>
