<svg width="401" height="500" viewBox="0 0 401 500" fill="none" xmlns="http://www.w3.org/2000/svg">
<g clip-path="url(#clip0)">
<path fill-rule="evenodd" clip-rule="evenodd" d="M0.879493 0.672852C-1.21177 103.195 4.26154 188.276 44.836 297.442C72.903 372.968 119.091 442.299 200.5 499.154C281.909 442.299 328.097 372.968 356.164 297.442C396.738 188.276 402.212 103.195 400.121 0.672852C267.04 0.963027 133.96 0.672852 0.879493 0.672852Z" fill="#E00E00"/>
<path d="M187.781 281.681C185.07 281.681 183.914 278.887 182.243 273.189C182.243 289.223 182.243 291.699 187.126 291.699H198.498V301.746C198.498 309.633 196.211 310.589 190.882 313.815C186.975 316.181 171.277 322.34 159.606 314.141C157.165 312.426 155.632 310.442 153.438 305.885C152.16 303.23 148.779 304.872 149.575 307.087C151.985 313.799 157.13 318.332 163.475 320.652C164.097 327.743 166.066 335.775 173.471 342.6C158.585 345.164 146.174 353.055 139.918 372.792L97.7331 331.426C102.532 318.964 110.047 314.326 119.396 310.573L115.493 299.584C99.5394 300.393 92.0533 307.443 85.1358 316.303C82.3265 310.484 76.6582 299.027 76.6582 299.027C82.0093 292.185 91.2283 283.657 105.43 284.165V279.509C88.666 279.323 79.7567 288.841 74.3207 294.624L66.863 282.992C76.4987 269.702 87.304 265.114 97.9552 265.303V260.802C87.8545 260.716 76.212 263.553 64.3615 278.512C62.9484 275.624 62.2134 274.111 58.324 265.58C61.9631 261.121 71.1794 246.151 90.3643 246.557V241.962C74.3465 242.031 65.4616 249.3 56.0125 260.545C54.838 257.931 53.2062 253.872 50.7649 248.4C56.065 241.739 65.5535 229.172 82.9275 229.577V224.991C63.4442 225.033 54.4362 236.563 48.5391 243.888C47.0241 240.485 43.0693 231.552 41.3743 227.709C47.8548 217.278 57.6556 208.512 77.7743 208.268L82.1147 187.557L90.9474 184.343L89.6285 180.814L81.177 183.933C80.182 182.652 76.2642 177.899 76.2642 177.899L85.1264 174.614L83.8639 171.103L74.3604 174.621L70.4104 168.381L79.7949 165.865L78.8111 162.251L68.5733 164.913C67.9739 163.734 65.5968 158.817 65.5968 158.817L75.428 156.73L74.6252 153.044L64.211 155.237L61.9978 149.432L71.937 147.26L71.1371 143.626L60.9922 145.777L59.6387 139.64L69.1448 138.429L68.6892 134.721L59.2767 135.816L58.7228 129.933L67.7262 129.344L67.4646 125.681L58.8262 126.166L58.9312 120.397L67.6586 120.316L67.6465 116.575L59.3645 116.602C59.3645 116.602 59.9827 111.024 59.9853 111.003L67.6297 110.968L67.6569 107.272L60.3496 107.172L61.2716 101.614L67.6546 101.624L67.6127 97.838L61.9411 97.7751L63.1027 92.1235L67.6299 92.2001L67.6389 88.4299L61.9128 88.36L34.546 61.6234L38.8914 56.6948L63.1863 77.5284L41.4873 43.7714L48.3535 38.8805L69.9207 73.1453L65.0298 43.5175L71.7172 42.2759L78.5175 75.8448C90.886 87.8088 103.706 103.817 110.751 108.125C115.773 111.21 131.105 120.362 137.698 120.842C152.164 121.904 157.083 108.276 200.5 108.276C243.916 108.276 248.836 121.904 263.301 120.842C269.895 120.362 285.226 111.21 290.249 108.125C297.294 103.817 310.113 87.8088 322.482 75.8448L329.282 42.2759L335.97 43.5175L331.079 73.1453L352.646 38.8805L359.512 43.7714L337.813 77.5284L362.108 56.6948L366.454 61.6234L339.087 88.36L333.361 88.4299L333.37 92.2001L337.897 92.1235L339.058 97.7751L333.387 97.838L333.345 101.624L339.728 101.614L340.65 107.172L333.343 107.272L333.37 110.968L341.014 111.003C341.017 111.024 341.635 116.602 341.635 116.602L333.353 116.575L333.341 120.316L342.068 120.397L342.173 126.166L333.535 125.681L333.273 129.344L342.277 129.933L341.723 135.816L332.31 134.721L331.855 138.429L341.361 139.64L340.007 145.777L329.862 143.626L329.063 147.26L339.002 149.432L336.788 155.237L326.374 153.044L325.571 156.73L335.403 158.817C335.403 158.817 333.026 163.734 332.426 164.913L322.188 162.251L321.205 165.865L330.589 168.381L326.639 174.621L317.136 171.103L315.873 174.614L324.735 177.899C324.735 177.899 320.818 182.652 319.822 183.933L311.371 180.814L310.052 184.343L318.885 187.557L323.225 208.268C343.344 208.512 353.145 217.278 359.625 227.709C357.93 231.552 353.975 240.485 352.46 243.888C346.563 236.563 337.555 225.033 318.072 224.991V229.577C335.446 229.172 344.934 241.739 350.235 248.4C347.793 253.872 346.161 257.931 344.987 260.545C335.538 249.3 326.653 242.031 310.635 241.962V246.557C329.82 246.151 339.036 261.121 342.676 265.58C338.786 274.111 338.051 275.624 336.638 278.512C324.787 263.553 313.145 260.716 303.044 260.802V265.303C313.695 265.114 324.501 269.702 334.137 282.992L326.679 294.624C321.243 288.841 312.333 279.323 295.569 279.509V284.165C309.771 283.657 318.99 292.185 324.341 299.027C324.341 299.027 318.673 310.484 315.864 316.303C308.946 307.443 301.46 300.393 285.507 299.584L281.604 310.573C290.953 314.326 298.467 318.964 303.266 331.426L261.081 372.792C254.825 353.055 242.414 345.164 227.529 342.6C234.934 335.775 236.902 327.743 237.524 320.652C243.869 318.332 249.014 313.799 251.425 307.087C252.22 304.872 248.84 303.23 247.562 305.885C245.367 310.442 243.835 312.426 241.394 314.141C229.722 322.34 214.025 316.181 210.118 313.815C204.789 310.589 202.501 309.633 202.501 301.746V291.699H213.873C218.757 291.699 218.757 289.223 218.757 273.189C217.086 278.887 215.929 281.681 213.219 281.681H200.5H187.781Z" fill="#FFE000" stroke="#E00E00" stroke-linejoin="round"/>
<path fill-rule="evenodd" clip-rule="evenodd" d="M129.722 218.782L114.527 228.234C111.882 229.879 109.748 226.466 112.067 225.041L134.933 210.983L144.184 211.043C144.184 211.043 168.381 218.533 179.473 222.388C181.283 223.017 182.243 223.404 182.243 225.51V234.242C178.131 239.549 168.599 243.85 157.219 242.902C145.933 241.962 133.051 234.585 129.722 218.782V218.782Z" fill="#E00E00" stroke="#E00E00" stroke-linejoin="round"/>
<path fill-rule="evenodd" clip-rule="evenodd" d="M148.543 236.673C141.001 233.442 134.79 226.678 133.354 216.711C133.354 216.711 134.213 216.076 135.894 214.991L143.052 214.945C154.635 218.803 168.254 222.036 178.374 226.321L178.347 233.11C169.575 239.747 158.327 240.809 148.543 236.673L148.543 236.673Z" fill="#FFE000" stroke="#E00E00" stroke-linejoin="round"/>
<path fill-rule="evenodd" clip-rule="evenodd" d="M271.278 218.782L286.473 228.234C289.117 229.879 291.251 226.466 288.932 225.041L266.066 210.983L256.816 211.043C256.816 211.043 232.618 218.533 221.526 222.388C219.717 223.017 218.757 223.404 218.757 225.51V234.242C222.868 239.549 232.4 243.85 243.78 242.902C255.066 241.962 267.949 234.585 271.278 218.782V218.782Z" fill="#E00E00" stroke="#E00E00" stroke-linejoin="round"/>
<path fill-rule="evenodd" clip-rule="evenodd" d="M252.457 236.673C259.998 233.442 266.21 226.678 267.646 216.711C267.646 216.711 266.786 216.076 265.105 214.991L257.948 214.945C246.365 218.803 232.745 222.036 222.626 226.321L222.653 233.11C231.424 239.747 242.672 240.809 252.457 236.673L252.457 236.673Z" fill="#FFE000" stroke="#E00E00" stroke-linejoin="round"/>
<path d="M288.876 152.295L283.609 148.203L311.101 119.685L329.386 81.3663L331.728 82.5326L314.328 124.792L288.876 152.295Z" fill="#E00E00" stroke="#E00E00"/>
<path fill-rule="evenodd" clip-rule="evenodd" d="M251.94 217.08C255.991 234.051 232.134 240.572 226.129 225.337Z" fill="#E00E00"/>
<path d="M251.94 217.08C255.991 234.051 232.134 240.572 226.129 225.337" stroke="#E00E00"/>
<path fill-rule="evenodd" clip-rule="evenodd" d="M248.272 218.169C250.776 230.345 233.626 234.679 229.709 224.106Z" fill="#FFE000"/>
<path d="M248.272 218.169C250.776 230.345 233.626 234.679 229.709 224.106" stroke="#E00E00"/>
<path fill-rule="evenodd" clip-rule="evenodd" d="M224.969 339.594C229.822 334.89 232.663 329.205 233.524 321.745C218.952 323.839 206.116 317.949 200.5 311.255C194.883 317.949 182.047 323.839 167.475 321.745C168.336 329.205 171.178 334.89 176.031 339.594C182.243 345.616 193.144 347.99 200.5 347.99C207.856 347.99 218.757 345.616 224.969 339.594Z" fill="#FFE000" stroke="#E00E00"/>
<path d="M112.124 152.295L117.391 148.203L89.8982 119.685L71.6136 81.3663L69.2715 82.5326L86.672 124.792L112.124 152.295Z" fill="#E00E00" stroke="#E00E00"/>
<path fill-rule="evenodd" clip-rule="evenodd" d="M149.06 217.08C145.009 234.051 168.885 240.534 174.89 225.299Z" fill="#E00E00"/>
<path d="M149.06 217.08C145.009 234.051 168.885 240.534 174.89 225.299" stroke="#E00E00"/>
<path fill-rule="evenodd" clip-rule="evenodd" d="M152.727 218.169C150.224 230.345 167.451 234.718 171.368 224.144Z" fill="#FFE000"/>
<path d="M152.727 218.169C150.224 230.345 167.451 234.718 171.368 224.144" stroke="#E00E00"/>
<path d="M149.649 216.728C150.548 216.921 151.424 217.573 152.312 217.82" stroke="#E00E00" stroke-width="1.1085"/>
<path d="M251.362 216.781C250.458 216.984 249.537 217.449 248.663 217.68" stroke="#E00E00"/>
<path d="M229.14 223.84C228.235 224.071 227.351 224.504 226.476 224.814" stroke="#E00E00" stroke-width="1.06734"/>
<path d="M171.964 223.828C172.836 224.061 173.697 224.479 174.54 224.792" stroke="#E00E00" stroke-width="1.05314"/>
</g>
<defs>
<clipPath id="clip0">
<rect x="0.5" y="0.672852" width="400" height="498.48" fill="white"/>
</clipPath>
</defs>
</svg>
