<svg width="401" height="523" viewBox="0 0 401 523" fill="none" xmlns="http://www.w3.org/2000/svg">
<g clip-path="url(#clip0)">
<path d="M200.209 522.05C122.395 465.595 69.061 394.294 37.1483 304.105C8.20906 222.334 -3.40222 123.235 1.64434 1.15448L1.66528 0.672852H399.339L399.36 1.15448C404.396 123.235 392.784 222.324 363.856 304.105C331.943 394.294 278.609 465.595 200.795 522.05L200.502 522.259L200.209 522.05Z" fill="#32AC60"/>
<path fill-rule="evenodd" clip-rule="evenodd" d="M185.614 67.846H125.92C80.4287 67.846 33.3425 75.2115 20.7561 91.7543H154.204V148.646H26.2595C29.975 156.826 63.5165 173.774 98.4856 173.774H150.015V230.681H154.204V399.008L150.015 406.762H189.802L185.614 399.008V230.681H189.802V148.646H185.614V67.846Z" fill="white" stroke="#32AC60" stroke-width="3"/>
<path d="M154.203 399.008H185.614" stroke="#32AC60" stroke-width="3"/>
<path d="M154.203 230.681H185.614" stroke="#32AC60" stroke-width="3"/>
<path d="M154.203 148.646H185.614" stroke="#32AC60" stroke-width="3"/>
<path fill-rule="evenodd" clip-rule="evenodd" d="M214.93 67.846H274.623C320.115 67.846 367.201 75.2115 379.787 91.7543H246.34V148.646H374.284C370.568 156.826 337.027 173.774 302.058 173.774H250.528V230.681H246.34V399.008L250.528 406.762H210.742L214.93 399.008V230.681H210.742V148.646H214.93V67.846Z" fill="white" stroke="#32AC60" stroke-width="3"/>
<path d="M246.34 399.008H214.93" stroke="#32AC60" stroke-width="3"/>
<path d="M246.34 230.681H214.93" stroke="#32AC60" stroke-width="3"/>
<path d="M246.34 148.646H214.93" stroke="#32AC60" stroke-width="3"/>
</g>
<defs>
<clipPath id="clip0">
<rect x="0.5" y="0.672852" width="400" height="521.59" fill="white"/>
</clipPath>
</defs>
</svg>
