<svg width="400" height="580" viewBox="0 0 400 580" fill="none" xmlns="http://www.w3.org/2000/svg">
<g clip-path="url(#clip0)">
<path d="M242.317 0.552084L243.453 15.4877L237.339 28.6764C239.872 33.1309 234.893 43.2335 242.842 43.0006L262.144 44.136C264.939 39.3322 263.6 34.8777 265.463 29.8119C275.466 30.0919 285.428 31.202 295.247 33.1309L294.723 46.3196C302.836 48.2744 311.129 49.3867 319.47 49.6386C321.654 45.8829 324.623 41.6904 322.789 36.9739C319.033 28.2397 313.967 21.6016 318.422 11.5572C345.76 14.1775 371.963 23.2029 398.34 29.8119L400 31.4714L395.109 43.0006C390.043 46.3196 383.23 48.8234 380.697 54.6463L370.216 103.209C372.688 104.552 374.652 106.669 375.806 109.235C375.893 112.729 375.893 116.223 373.535 118.668C371.439 120.765 366.257 120.765 367.509 125.219C363.229 135.176 380.173 130.722 375.195 140.679C380.61 143.124 388.034 140.504 393.449 142.862L394.497 155.614L396.157 292.917L397.292 494.329C394.672 518.086 381.483 537.913 359.211 547.258C311.784 564.727 246.888 537.476 208.632 574.917C207.934 576.576 207.177 579.284 204.789 579.284C194.308 561.903 173.259 556.138 153.432 554.537C112.206 550.257 57.0056 567.376 28.7939 529.208C1.71774 495.319 16.1293 443.437 12.1989 399.504L10.5393 144.638V144.114C17.5268 142.658 23.5534 143.939 30.9193 143.59C31.5307 138.524 33.3649 133.022 38.6928 130.925C39.4809 127.831 39.4809 124.587 38.6928 121.492C35.1991 120.037 28.9977 122.715 28.2117 117.125C26.2901 111.011 30.9193 106.644 34.7624 103.849C29.8712 87.3415 24.8926 70.7464 19.9141 54.2387C12.1406 48.0373 1.48482 45.5044 1.13545 33.8587L0 32.7233C19.8268 23.8143 42.8852 20.3206 64.0512 13.4206L79.5109 10.1015C86.5856 18.8358 80.3843 29.2296 78.3754 38.8373C80.821 42.0689 80.9083 46.2614 83.878 49.3184L110.954 45.9993C112.41 41.3702 110.605 36.8284 110.43 32.1992C120.387 30.4524 131.654 28.7055 141.262 29.4043C140.162 33.883 140.753 38.6101 142.922 42.6803L162.836 41.0208L164.495 25.008C157.77 18.2826 156.547 9.89773 157.857 1.25082C185.37 0.94512 214.877 -0.903626 242.317 0.552084Z" fill="black"/>
<path d="M238.474 15.5315C213.232 15.0948 187.728 13.9593 162.923 14.396C159.866 12.5618 162.661 8.36938 161.788 6.09847C165.194 3.91491 171.308 5.83645 175.588 4.43896L238.474 5.05036V15.5315Z" fill="#FDC600"/>
<path d="M79.0742 21.5582L79.5982 22.0823C56.3068 29.7684 32.5205 35.7077 9.02538 42.4622L5.70636 34.776C27.6294 26.6532 50.9498 21.8493 73.4842 15.4733C78.9868 13.5227 78.1134 18.5012 79.0742 21.5582Z" fill="#FDC600"/>
<path d="M394.032 33.1742C394.556 35.7071 393.507 39.9869 390.713 40.8604C368.528 33.2615 344.77 29.5058 322.294 22.6931L321.77 16.5791C346.214 20.4249 370.359 25.9701 394.032 33.1742Z" fill="#FDC600"/>
<path d="M233.496 28.2107C235.155 48.1248 236.815 69.3491 238.474 89.9619C236.815 91.01 234.457 90.3113 232.36 90.486C227.469 73.1048 223.015 55.3743 213.669 39.7399C211.768 37.6263 209.307 36.0944 206.571 35.3215C203.835 34.5487 200.936 34.5664 198.209 35.3728C183.973 42.6514 180.654 59.392 175.588 72.8428C171.657 78.5201 175.588 94.2417 162.923 89.4379C164.932 68.1263 165.281 48.2122 168.95 27.5993C187.554 26.8132 211.165 26.8132 231.836 27.5993C232.186 28.2835 232.884 28.2107 233.496 28.2107Z" fill="#FDC600"/>
<path d="M136.982 33.6987C137.943 36.319 137.332 39.5216 137.506 42.5203L115.409 44.7039C114.273 42.5203 115.583 39.2013 114.361 37.0177C121.75 35.0524 129.34 33.9388 136.982 33.6987Z" fill="#FDC600"/>
<path d="M291.404 37.0176C290.269 39.3759 291.491 42.8405 290.356 45.3152C282.556 45.5494 274.752 44.9934 267.065 43.6556C267.414 40.2493 266.89 36.0569 269.86 34.2227C277.08 35.1834 284.941 34.3973 291.404 37.0176Z" fill="#FDC600"/>
<path d="M74.6197 37.5415C81.1704 56.7569 90.6325 74.8368 97.7655 93.7901C94.8541 94.2268 92.2629 95.3623 88.9439 94.9256C71.9994 76.2343 54.7929 47.3239 25.5332 58.5328L23.8737 51.3707C38.4308 45.9555 54.7929 42.1998 70.2526 37.5706L74.6197 37.5415Z" fill="#FDC600"/>
<path d="M376.461 49.6825C377.917 51.866 376.112 54.1369 375.937 56.3205C348.599 50.4977 330.082 77.3701 316.253 96.0614C314.678 95.5422 313.016 95.3345 311.362 95.45C316.253 76.5258 323.153 57.1066 329.529 38.0659C345.207 41.647 361.54 43.9179 376.461 49.6825Z" fill="#FDC600"/>
<path d="M215.329 54.6607C218.56 66.3064 224.5 76.933 225.81 89.423L223.539 90.4711L176.112 88.899C182.313 74.9242 183.623 59.0278 191.571 45.8391C195.065 43.4808 196.725 40.3365 200.917 39.7251C209.215 40.3365 212.097 48.5904 215.329 54.6607Z" fill="#FDC600"/>
<path d="M160.652 56.8445L129.82 59.6395L128.161 49.1584C139.442 47.1766 150.86 46.067 162.312 45.8394L160.652 56.8445Z" fill="#FDC600"/>
<path d="M277.604 49.6826C278.827 53.351 276.556 56.9611 276.556 60.6878C265.114 60.8624 252.362 60.7751 241.182 58.5042C241.007 55.3599 239.173 50.032 240.658 47.499L277.604 49.6826Z" fill="#FDC600"/>
<path d="M123.168 49.1577C125.176 52.0691 123.866 56.4363 124.303 60.1629L90.0648 64.006C87.7939 60.8616 87.9685 56.7274 85.6103 53.5248C97.5034 50.4679 110.692 50.6425 123.168 49.1577Z" fill="#FDC600"/>
<path d="M315.685 64.6037C305.291 65.0404 293.413 62.4202 282.058 61.8088C282.233 58.4897 281.272 53.3365 283.718 50.1631L317.869 54.6176L315.685 64.6037Z" fill="#FDC600"/>
<path d="M82.4078 94.9257L80.7337 96.6289C66.4969 98.2884 52.7841 100.996 38.8093 103.267C35.6649 89.9035 29.4636 77.7628 27.1636 64.0501C52.3474 53.1759 66.5842 80.5141 82.4078 94.9257Z" fill="#FDC600"/>
<path d="M374.205 62.9585L365.383 100.996L324.056 96.6291C334.624 82.6543 344.435 67.806 361.526 61.3427C365.733 61.8231 370.973 59.9015 374.205 62.9585Z" fill="#FDC600"/>
<path d="M158.993 74.4871C154.791 74.9876 150.559 75.1919 146.328 75.0986L145.28 63.4529C149.734 61.6187 156.547 62.2301 160.652 62.9288L158.993 74.4871Z" fill="#FDC600"/>
<path d="M141.349 75.6231L119.863 77.8066C118.448 73.925 117.882 69.785 118.204 65.666C125.715 65.2293 132.761 63.6571 140.301 63.4824L141.349 75.6231Z" fill="#FDC600"/>
<path d="M259.437 65.6658C260.135 68.7228 258.651 72.3038 258.301 75.6229L242.842 75.0988L242.318 64.6177L259.437 65.6658Z" fill="#FDC600"/>
<path d="M114.885 77.8065L97.2414 79.9901L92.2629 68.9703C98.5515 66.4374 106.238 67.1361 113.225 66.2627L114.885 77.8065Z" fill="#FDC600"/>
<path d="M287.561 77.2825C279.089 79.3788 271.752 75.7103 263.28 76.1471L264.415 66.2773L288.085 67.9369L287.561 77.2825Z" fill="#FDC600"/>
<path d="M310.707 79.4661C304.884 79.5535 297.518 79.6408 292.015 77.2826L293.588 68.4609L312.978 70.6445L310.707 79.4661Z" fill="#FDC600"/>
<path d="M158.469 79.9902C158.119 83.1346 156.896 85.9295 157.333 89.4232C149.349 90.8248 141.24 91.3811 133.139 91.0827C133.751 87.7637 131.916 85.4928 132.528 82.2611C140.825 80.689 149.822 80.7763 158.469 79.9902Z" fill="#FDC600"/>
<path d="M274.285 82.2611C273.936 85.4055 272.829 88.084 273.237 91.6068L245.578 91.0827C242.347 89.0739 244.967 83.8042 243.395 80.6016L244.443 79.9902L274.285 82.2611Z" fill="#FDC600"/>
<path d="M127.025 82.2612C127.375 85.1727 128.597 87.7638 128.161 91.0828C120.213 92.655 111.566 92.5385 103.414 93.2664C101.667 90.9081 101.143 88.1132 100.095 85.5802C109.033 84.4448 117.767 82.7853 127.025 82.2612Z" fill="#FDC600"/>
<path d="M307.388 85.5802C308.348 88.0258 305.932 91.4031 305.204 94.4018C296.176 94.6765 287.142 94.121 278.215 92.7423C276.032 88.8993 279.787 86.1043 279.263 82.2612C288.72 82.5009 298.135 83.612 307.388 85.5802Z" fill="#FDC600"/>
<path d="M366.955 106.542C369.139 106.63 370.274 109.075 371.934 110.385C371.934 119.906 360.579 112.918 354.902 114.228C252.187 101.127 137.157 97.8953 35.4902 117.023C33.132 115.713 31.8218 112.22 33.8307 109.861C140.127 87.0649 258.913 93.7902 366.955 106.542Z" fill="#FDC600"/>
<path d="M303.021 113.704C322.847 116.936 344.508 115.975 363.724 120.867L363.112 128.553C259.087 117.81 148.861 110.385 43.7004 128.553L42.6523 121.391C50.9498 117.286 61.4309 118.072 70.7766 116.412C140.891 107.875 211.71 106.763 282.058 113.093L303.021 113.704Z" fill="#FDC600"/>
<path d="M363.112 134.056C365.645 135.715 370.1 135.016 370.886 138.51C371.672 141.742 367.974 140.868 366.431 141.829C260.164 127.068 143.096 121.449 37.1497 142.353C35.694 138.597 39.0713 136.53 41.5168 135.191C80.297 124.535 126.414 126.631 167.814 122.526C234.282 123.05 300.4 124.448 363.112 134.056Z" fill="#FDC600"/>
<path d="M285.901 141.305L100.036 142.353C161.962 137.025 224.936 135.802 285.901 141.305Z" fill="#FDC600"/>
<path d="M389.563 146.196C391.018 191.614 391.571 244.282 391.222 289.612L346.59 271.445C343.358 261.925 340.127 252.404 334.449 243.787H316.209C312.628 238.371 313.298 226.842 302.497 230.598C292.307 227.454 271.053 238.371 272.101 221.165L268.782 218.981L136.982 220.641L132.004 231.646H100.56C97.1541 235.402 96.9794 240.992 93.9224 244.398L73.5425 243.787C69.2627 252.259 66.5551 261.43 63.0614 270.251C47.2524 277.239 31.8801 285.187 15.6343 291.214V147.855L370.333 146.807L370.944 146.196H389.563Z" fill="#E63329"/>
<path d="M269.918 228.997L271.577 236.683H236.291L232.36 225.154C243.628 224.106 259 224.717 267.123 224.542L269.918 228.997Z" fill="white"/>
<path d="M231.836 237.207C223.617 242.422 214.933 246.866 205.896 250.483V224.542H227.469L231.836 237.207Z" fill="white"/>
<path d="M172.269 225.154C173.23 229.696 170.813 232.84 170.085 236.683H135.323C133.358 215.459 159.953 228.997 172.269 225.154Z" fill="white"/>
<path d="M200.393 250.483L175.064 238.343C174.452 233.975 175.937 229.172 177.771 225.154H200.393V250.483Z" fill="white"/>
<path d="M310.707 243.321L282.582 244.457C277.08 244.981 279.671 238.255 277.08 235.635C286.862 234.412 297.693 235.722 307.388 234.5C310.095 236.77 308.873 240.745 310.707 243.321Z" fill="white"/>
<path d="M129.82 236.683C131.742 238.779 128.685 241.137 128.161 243.321C119.426 245.33 109.382 244.02 100.036 244.456C101.492 241.661 101.259 237.731 104.403 236.159C112.264 236.377 121.712 235.635 129.82 236.683Z" fill="white"/>
<path d="M166.839 248.299C166.053 255.461 165.179 263.934 162.384 270.921L68.0544 270.31L75.8279 249.347C106.412 248.212 136.72 249.478 166.839 248.299Z" fill="white"/>
<path d="M341.102 269.858C307.621 270.033 278.827 271.867 246.772 270.382C243.708 263.37 241.65 255.96 240.658 248.372H332.28L341.102 269.858Z" fill="white"/>
<path d="M241.182 270.921C229.74 280.703 219.084 290.398 205.896 298.58V262.187C216.086 258.518 224.82 251.793 235.155 248.911L241.182 270.921Z" fill="white"/>
<path d="M200.393 262.58C201.266 274.326 201.266 286.12 200.393 297.866L167.29 271.925L171.745 249.304C181.964 252.142 190.96 259.042 200.393 262.58Z" fill="white"/>
<path d="M171.745 402.197C193.144 392.007 218.327 392.677 240.163 401.673C261.562 407.787 274.925 387.698 296.412 395.559C328.437 418.85 361.133 377.741 392.401 401.061L393.537 404.38V472.799C374.845 464.851 348.73 458.999 330.65 472.275C305.495 483.105 288.114 453.758 264.444 467.82C253.614 474.371 238.416 476.817 226.887 470.091C203.042 454.806 181.469 478.301 156.838 472.799C136.051 455.592 109.848 469.887 87.3135 473.41C68.3892 471.576 50.1929 458.125 30.5408 467.82C25.6496 468.344 22.68 473.498 17.2647 472.799L16.7407 403.886C38.2269 393.579 64.5171 391.832 86.7894 401.702C104.083 405.196 114.739 387.64 133.168 393.929C145.28 398.354 157.158 403.594 171.745 402.197Z" fill="white"/>
</g>
<defs>
<clipPath id="clip0">
<rect width="400" height="579.28" fill="white"/>
</clipPath>
</defs>
</svg>
