<svg width="401" height="422" viewBox="0 0 401 422" fill="none" xmlns="http://www.w3.org/2000/svg">
<g clip-path="url(#clip0)">
<path fill-rule="evenodd" clip-rule="evenodd" d="M209.535 408.957C216.667 399.683 225.677 397.797 234.122 397.666C244.824 397.499 254.626 400 270.546 400C344.388 400 355.319 339.352 355.319 302.592V104.634C355.319 77.3326 381.033 55.6376 400 42.3488L355.319 0H44.6809L0 42.3488C18.9674 55.6376 44.6809 77.3326 44.6809 104.634V302.592C44.6809 339.352 55.6117 400 129.454 400C145.374 400 155.176 397.499 165.878 397.666C174.323 397.797 183.333 399.683 190.465 408.957C194.216 413.835 197.935 417.057 200 421.957C202.065 417.057 205.784 413.835 209.535 408.957Z" fill="white"/>
<path fill-rule="evenodd" clip-rule="evenodd" d="M176.399 176.914C175.107 173.999 171.65 171.72 167.783 169.562L172.953 160.831C174.723 166.415 176.386 172.015 177.318 177.718C179.136 188.836 180.761 199.966 179.091 212.298C176.468 231.679 163.453 235.041 160.431 234.7C149.2 233.433 143.339 225.778 141.245 219.421C137.158 225.18 132.846 237.265 139.579 249.577C145.095 259.662 156.859 259.622 160.603 259.112C172.876 257.442 183.528 241.238 186.624 234.24C193.329 219.086 200 208.564 200 208.564C200 208.564 206.671 219.086 213.376 234.24C216.472 241.238 227.124 257.442 239.397 259.112C243.141 259.622 254.905 259.662 260.421 249.577C267.154 237.265 262.842 225.18 258.755 219.421C256.661 225.778 250.8 233.433 239.569 234.7C236.547 235.041 223.532 231.679 220.909 212.298C219.239 199.966 220.864 188.836 222.682 177.718C223.614 172.015 225.277 166.415 227.047 160.831L232.217 169.562C228.35 171.72 224.893 173.999 223.601 176.914C239.502 177.246 246.348 178.038 261.627 185.071C261.425 182.944 261.258 181.076 259.789 179.154C258.295 177.2 256.39 176.523 254.504 176.684C250.022 173.977 247.034 171.831 240.374 168.987L231.298 149.974C230.339 147.966 231.946 143.447 232.562 140.497C235.421 146.399 238.302 152.289 243.705 156.695C245.233 151.296 243.992 145.896 242.671 140.497C245.71 143.945 248.862 146.772 252.206 148.538C253.046 144.89 252.545 141.075 252.206 137.28C256.139 141.486 260.416 145.053 265.418 147.275C265.008 142.242 263.903 137.297 261.052 132.57C265.609 135.166 270.166 137.465 274.723 138.544C273.803 133.904 271.299 129.631 268.405 125.447C273.073 127.473 277.794 129.266 282.765 129.927C281.491 125.983 279.085 122.039 276.447 118.095C284.457 120.897 289.989 121.221 295.287 121.311C292.194 115.954 287.505 111.772 281.501 108.559C294.579 110.372 306.721 110.991 315.392 107.181C307.449 103.585 296.576 100.722 285.637 97.8754C286.63 96.8037 288.38 96.3715 292.99 96.9563L323.778 100.862C327.255 101.303 334.211 100.071 336.99 94.7735L289.428 88.7997C290.877 86.5703 295.241 85.481 302.295 86.3871L332.703 90.2931C338.108 90.9875 343.221 87.7029 343.997 84.3193L292.53 77.771C292.84 76.4386 295.252 73.6084 301.836 74.4394L330.958 78.1156C339.448 79.1873 347.988 77.1492 350.431 72.2566L298.274 62.7214C287.408 60.7348 272.723 56.8514 258.295 61.3428C250.705 63.7056 242.259 70.5461 237.272 80.8728C229.018 77.4991 220.893 74.6353 214.295 77.8859L209.323 63.0052C207.521 57.613 206.097 52.1938 208.536 44.9034C210.199 39.9328 213.244 32.142 208.208 24.178C205.181 19.3913 199.161 15.6245 192.927 16.4388C188.927 16.9612 186.42 18.8841 184.663 21.9481C179.669 22.1144 175.683 23.7307 174.825 27.5229C179.944 27.5006 182.273 27.8767 183.744 28.3756C185.043 32.6778 184.581 35.5058 191.615 39.3941C192.35 39.8006 194.296 42.4478 193.32 49.2321C191.928 58.9036 187.017 66.6289 185.705 77.8859C179.107 74.6353 170.982 77.4991 162.728 80.8728C157.741 70.5461 149.295 63.7056 141.705 61.3428C127.277 56.8514 112.592 60.7348 101.726 62.7214L49.5693 72.2566C52.0125 77.1492 60.5519 79.1873 69.0418 78.1156L98.1645 74.4394C104.748 73.6084 107.16 76.4386 107.47 77.771L56.0027 84.3193C56.7794 87.7029 61.8917 90.9875 67.2975 90.2931L97.7049 86.3871C104.759 85.481 109.123 86.5703 110.572 88.7997L63.0105 94.7735C65.7892 100.071 72.7454 101.303 76.222 100.862L107.01 96.9563C111.62 96.3715 113.37 96.8037 114.363 97.8754C103.424 100.722 92.551 103.585 84.6084 107.181C93.2788 110.991 105.421 110.372 118.499 108.559C112.495 111.772 107.807 115.954 104.713 121.311C110.011 121.221 115.543 120.897 123.553 118.095C120.915 122.039 118.509 125.983 117.235 129.927C122.206 129.266 126.927 127.473 131.595 125.447C128.701 129.631 126.197 133.904 125.277 138.544C129.834 137.465 134.391 135.166 138.948 132.57C136.097 137.297 134.992 142.242 134.582 147.275C139.584 145.053 143.861 141.486 147.794 137.28C147.455 141.075 146.954 144.89 147.794 148.538C151.138 146.772 154.29 143.945 157.329 140.497C156.008 145.896 154.767 151.296 156.295 156.695C161.698 152.289 164.579 146.399 167.438 140.497C168.054 143.447 169.661 147.966 168.702 149.974L159.626 168.987C152.966 171.831 149.978 173.977 145.496 176.684C143.61 176.523 141.705 177.2 140.211 179.154C138.742 181.076 138.575 182.944 138.373 185.071C153.652 178.038 160.498 177.246 176.399 176.914Z" fill="black"/>
<path d="M176.399 176.914C175.107 173.999 171.65 171.72 167.783 169.562L172.953 160.831C174.723 166.415 176.386 172.015 177.318 177.718C179.136 188.836 180.761 199.966 179.091 212.298C176.468 231.679 163.453 235.041 160.431 234.7C149.2 233.433 143.339 225.778 141.245 219.421C137.158 225.18 132.846 237.265 139.579 249.577C145.095 259.662 156.859 259.622 160.603 259.112C172.876 257.442 183.528 241.238 186.624 234.24C193.329 219.086 200 208.564 200 208.564C200 208.564 206.671 219.086 213.376 234.24C216.472 241.238 227.124 257.442 239.397 259.112C243.141 259.622 254.905 259.662 260.421 249.577C267.154 237.265 262.842 225.18 258.755 219.421C256.661 225.778 250.8 233.433 239.569 234.7C236.547 235.041 223.532 231.679 220.909 212.298C219.239 199.966 220.864 188.836 222.682 177.718C223.614 172.015 225.277 166.415 227.047 160.831L232.217 169.562C228.35 171.72 224.893 173.999 223.601 176.914C239.502 177.246 246.348 178.038 261.627 185.071C261.425 182.944 261.258 181.076 259.789 179.154C258.295 177.2 256.39 176.523 254.504 176.684C250.022 173.977 247.034 171.831 240.374 168.987L231.298 149.974C230.339 147.966 231.946 143.447 232.562 140.497C235.421 146.399 238.302 152.289 243.705 156.695C245.233 151.296 243.992 145.896 242.671 140.497C245.71 143.945 248.862 146.772 252.206 148.538C253.046 144.89 252.545 141.075 252.206 137.28C256.139 141.486 260.416 145.053 265.418 147.275C265.008 142.242 263.903 137.297 261.052 132.57C265.609 135.166 270.166 137.465 274.723 138.544C273.803 133.904 271.299 129.631 268.405 125.447C273.073 127.473 277.794 129.266 282.765 129.927C281.491 125.983 279.085 122.039 276.447 118.095C284.457 120.897 289.989 121.221 295.287 121.311C292.194 115.954 287.505 111.772 281.501 108.559C294.579 110.372 306.721 110.991 315.392 107.181C307.449 103.585 296.576 100.722 285.637 97.8753C286.63 96.8037 288.38 96.3715 292.99 96.9563L323.778 100.862C327.255 101.303 334.211 100.071 336.99 94.7735L289.428 88.7997C290.877 86.5703 295.241 85.481 302.295 86.3871L332.703 90.2931C338.108 90.9875 343.221 87.7029 343.997 84.3193L292.53 77.771C292.84 76.4386 295.252 73.6084 301.836 74.4394L330.958 78.1156C339.448 79.1873 347.988 77.1492 350.431 72.2566L298.274 62.7214C287.408 60.7348 272.723 56.8514 258.295 61.3428C250.705 63.7056 242.259 70.5461 237.272 80.8728C229.018 77.4991 220.893 74.6353 214.295 77.8859L209.323 63.0052C207.521 57.613 206.097 52.1938 208.536 44.9034C210.199 39.9328 213.244 32.142 208.208 24.178C205.181 19.3913 199.161 15.6245 192.927 16.4388C188.927 16.9612 186.42 18.8841 184.663 21.9481C179.669 22.1144 175.683 23.7307 174.825 27.5229C179.944 27.5006 182.274 27.8767 183.744 28.3756C185.043 32.6778 184.581 35.5058 191.615 39.3941C192.35 39.8006 194.296 42.4478 193.32 49.2321C191.928 58.9036 187.017 66.6289 185.705 77.8859C179.107 74.6353 170.982 77.4991 162.728 80.8728C157.741 70.5461 149.295 63.7056 141.705 61.3428C127.277 56.8514 112.592 60.7348 101.726 62.7214L49.5693 72.2566C52.0125 77.1492 60.5519 79.1873 69.0418 78.1156L98.1645 74.4394C104.748 73.6084 107.16 76.4386 107.47 77.771L56.0027 84.3193C56.7794 87.7029 61.8917 90.9875 67.2975 90.2931L97.7049 86.3871C104.759 85.481 109.123 86.5703 110.572 88.7997L63.0105 94.7735C65.7892 100.071 72.7454 101.303 76.222 100.862L107.01 96.9563C111.62 96.3715 113.37 96.8037 114.363 97.8753C103.424 100.722 92.551 103.585 84.6084 107.181C93.2788 110.991 105.421 110.372 118.499 108.559C112.495 111.772 107.807 115.954 104.713 121.311C110.011 121.221 115.543 120.897 123.553 118.095C120.915 122.039 118.509 125.983 117.235 129.927C122.206 129.266 126.927 127.473 131.595 125.447C128.701 129.631 126.197 133.904 125.277 138.544C129.834 137.465 134.391 135.166 138.948 132.57C136.097 137.297 134.992 142.242 134.582 147.275C139.584 145.053 143.861 141.486 147.794 137.28C147.455 141.075 146.954 144.89 147.794 148.538C151.138 146.772 154.29 143.945 157.329 140.497C156.008 145.896 154.767 151.296 156.295 156.695C161.698 152.289 164.579 146.399 167.438 140.497C168.054 143.447 169.661 147.966 168.702 149.974L159.626 168.987C152.966 171.831 149.978 173.977 145.496 176.684C143.61 176.523 141.705 177.2 140.211 179.154C138.742 181.076 138.575 182.944 138.373 185.071C153.652 178.038 160.498 177.246 176.399 176.914" stroke="black" stroke-linecap="round" stroke-linejoin="round"/>
<path fill-rule="evenodd" clip-rule="evenodd" d="M62.2925 198.914L82.8564 193.945L71.3108 177.029C70.8836 176.403 74.9057 174.08 75.2455 174.588L89.4334 196.128L63.9009 202.762C63.2499 202.932 61.5837 199.085 62.2925 198.914Z" fill="#32AC60" stroke="black" stroke-linecap="round" stroke-linejoin="round"/>
<path fill-rule="evenodd" clip-rule="evenodd" d="M66.8304 207.645L85.4125 197.622L89.7206 199.259L69.4439 211.149C69.0061 211.406 66.0114 208.087 66.8304 207.645Z" fill="#32AC60" stroke="black"/>
<path fill-rule="evenodd" clip-rule="evenodd" d="M73.8094 215.514L90.8407 199.948L96.4412 200.867L77.3133 218.674C76.9769 218.987 73.0879 216.182 73.8094 215.514Z" fill="#32AC60" stroke="black"/>
<path fill-rule="evenodd" clip-rule="evenodd" d="M81.9948 221.89L98.4517 201.384L78.6345 172.951C78.2994 172.47 82.0687 170.448 82.6841 171.342L103.219 201.528L86.2454 223.843C85.8419 224.374 81.5437 222.452 81.9948 221.89Z" fill="#32AC60" stroke="black"/>
<path fill-rule="evenodd" clip-rule="evenodd" d="M86.0731 169.562C85.7954 169.138 89.8521 167.605 90.1801 168.097L111.318 199.804L96.8146 226.227C96.2335 227.286 91.757 226.356 92.3629 225.279L106.321 200.465L86.0731 169.562Z" fill="#32AC60" stroke="black"/>
<path fill-rule="evenodd" clip-rule="evenodd" d="M93.7128 167.379C93.4289 166.958 97.9305 166.261 98.308 166.805L119.016 196.616L107.269 227.807C106.984 228.565 102.632 228.323 102.989 227.434L114.593 198.368L93.7128 167.379Z" fill="#32AC60" stroke="black"/>
<path fill-rule="evenodd" clip-rule="evenodd" d="M122.003 194.434L126.942 192.883L107.47 165.713C106.95 164.988 102.1 165.513 102.463 166.041L122.003 194.434Z" fill="#32AC60" stroke="black"/>
<path fill-rule="evenodd" clip-rule="evenodd" d="M112.41 165.857L129.7 190.93L133.548 189.264L118.154 165.857C117.613 165.034 111.789 164.957 112.41 165.857Z" fill="#32AC60" stroke="black"/>
<path fill-rule="evenodd" clip-rule="evenodd" d="M132.17 195.123L127.316 224.303C127.193 225.04 122.319 226.6 122.491 225.624L127.689 196.042L132.17 195.123Z" fill="#32AC60" stroke="black"/>
<path fill-rule="evenodd" clip-rule="evenodd" d="M120.595 198.742L113.989 227.146C113.757 228.145 118.088 227.833 118.298 226.888L124.472 198.253L120.595 198.742Z" fill="#32AC60" stroke="black"/>
<path fill-rule="evenodd" clip-rule="evenodd" d="M62.4628 284.071L90.0008 278.15L76.9092 258.687C76.3936 257.921 80.6719 255.612 81.1517 256.323L97.351 280.339L64.6273 288.245C63.9231 288.415 61.1614 284.381 62.4628 284.071Z" fill="#32AC60" stroke="black"/>
<path fill-rule="evenodd" clip-rule="evenodd" d="M70.3828 294.159L94.0878 282.898L98.9783 285.132L74.4124 297.631C73.1377 298.279 69.2267 294.719 70.3828 294.159Z" fill="#32AC60" stroke="black"/>
<path fill-rule="evenodd" clip-rule="evenodd" d="M80.7186 301.869L101.104 285.477L106.572 286.43L85.2239 304.7C84.1409 305.627 79.9595 302.496 80.7186 301.869Z" fill="#32AC60" stroke="black"/>
<path fill-rule="evenodd" clip-rule="evenodd" d="M90.6137 306.677L107.864 287.347L104.561 284.879L84.8488 255.14C84.3321 254.361 89.2078 252.164 89.8271 253.089L112.834 287.465L95.0805 308.732C94.3599 309.595 89.798 307.591 90.6137 306.677Z" fill="#32AC60" stroke="black"/>
<path fill-rule="evenodd" clip-rule="evenodd" d="M92.4341 251.788C91.8523 250.947 97.195 249.542 97.5233 250.029L120.899 284.74L106.009 311.675C105.233 313.078 100.293 311.767 100.787 310.958L116.062 285.949L92.4341 251.788Z" fill="#32AC60" stroke="black"/>
<path fill-rule="evenodd" clip-rule="evenodd" d="M101.285 249.561C100.76 248.77 105.991 247.879 106.622 248.849L129.285 283.676L125.848 289.326L117.001 312.678C116.712 313.442 111.348 313.54 111.728 312.619L124.126 284.009L101.285 249.561Z" fill="#32AC60" stroke="black"/>
<path fill-rule="evenodd" clip-rule="evenodd" d="M109.876 248.544L133.323 284.002L137.128 282.169L115.515 248.14C114.824 247.053 109.272 247.63 109.876 248.544Z" fill="#32AC60" stroke="black"/>
<path fill-rule="evenodd" clip-rule="evenodd" d="M141.139 280.843L145.537 279.597L125.352 247.961C124.778 247.063 119.301 247.261 119.761 247.969L141.139 280.843Z" fill="#32AC60" stroke="black"/>
<path fill-rule="evenodd" clip-rule="evenodd" d="M140.287 282.204L138.336 310.466C138.309 310.846 133.619 311.662 133.667 311.081L135.864 284.697L140.287 282.204Z" fill="#32AC60" stroke="black"/>
<path fill-rule="evenodd" clip-rule="evenodd" d="M129.191 285.453L123.705 312.259C123.563 312.953 128.333 312.501 128.474 311.737L133.553 284.231L129.191 285.453Z" fill="#32AC60" stroke="black"/>
<path fill-rule="evenodd" clip-rule="evenodd" d="M79.9437 353.512L100.761 349.754L91.808 337.12C91.1994 336.261 95.199 334.026 95.5307 334.533L106.847 351.828L83.1328 357.453C82.0447 357.711 78.882 353.703 79.9437 353.512Z" fill="#32AC60" stroke="black"/>
<path fill-rule="evenodd" clip-rule="evenodd" d="M89.7296 362.398L110.65 352.492L116.035 354.078L93.8166 365.467C92.765 366.006 89.3137 362.598 89.7296 362.398Z" fill="#32AC60" stroke="black"/>
<path fill-rule="evenodd" clip-rule="evenodd" d="M101.275 368.959L117.378 353.75L121.593 354.691L105.885 371.301C105.383 371.831 100.431 369.773 101.275 368.959Z" fill="#32AC60" stroke="black"/>
<path fill-rule="evenodd" clip-rule="evenodd" d="M110.974 372.638L123.649 353.9L121.638 352.208L105.604 329.214C105.184 328.613 109.88 327.106 110.123 327.451L126.479 351.764L128.706 353.9L116.177 373.54C115.388 374.777 110.534 373.306 110.974 372.638Z" fill="#32AC60" stroke="black"/>
<path fill-rule="evenodd" clip-rule="evenodd" d="M113.389 326.532C112.959 325.913 117.743 324.679 118.191 325.348L134.116 349.119L136.959 351.373L128.011 374.633C127.779 375.236 122.504 375.401 122.863 374.52L131.991 352.385L130.711 351.477L113.389 326.532Z" fill="#32AC60" stroke="black"/>
<path fill-rule="evenodd" clip-rule="evenodd" d="M121.347 324.569C120.937 323.991 125.949 323.104 126.526 323.933L143.606 348.732L138.696 373.661C138.503 374.641 133.599 375.03 133.757 374.312L139.194 349.697L121.347 324.569Z" fill="#32AC60" stroke="black"/>
<path fill-rule="evenodd" clip-rule="evenodd" d="M129.945 323.412L146.491 346.268L150.513 344.795L134.915 322.853C134.432 322.174 129.428 322.698 129.945 323.412Z" fill="#32AC60" stroke="black"/>
<path fill-rule="evenodd" clip-rule="evenodd" d="M139.546 322.638L153.68 344.06L159.227 342.7L144.975 322.249C144.542 321.628 139.125 321.999 139.546 322.638Z" fill="#32AC60" stroke="black"/>
<path fill-rule="evenodd" clip-rule="evenodd" d="M158.457 344.617L158.344 371.301C158.341 371.846 153.627 372.671 153.635 371.974L153.92 345.731L158.457 344.617Z" fill="#32AC60" stroke="black"/>
<path fill-rule="evenodd" clip-rule="evenodd" d="M145.983 347.866L143.426 372.986C143.346 373.766 148.132 373.209 148.195 372.491L150.459 346.416L145.983 347.866Z" fill="#32AC60" stroke="black"/>
<path fill-rule="evenodd" clip-rule="evenodd" d="M97.8877 332.823C97.4246 332.179 102.204 330.174 102.598 330.755L116.603 350.846L110.342 350.156L97.8877 332.823Z" fill="#32AC60" stroke="black"/>
<path fill-rule="evenodd" clip-rule="evenodd" d="M162.843 340.736L162.384 370.376C162.376 370.872 167.322 370.407 167.323 369.926L167.438 339.53L156.045 322.808C155.35 321.788 149.135 321.616 149.747 322.47L162.843 340.736Z" fill="#32AC60" stroke="black"/>
<path fill-rule="evenodd" clip-rule="evenodd" d="M142.049 309.143C142.007 310.375 146.745 308.777 146.76 308.224L147.449 281.687L142.968 282.376L142.049 309.143Z" fill="#32AC60" stroke="black"/>
<path fill-rule="evenodd" clip-rule="evenodd" d="M337.707 198.914L317.144 193.945L328.689 177.029C329.116 176.403 325.094 174.08 324.755 174.588L310.567 196.128L336.099 202.762C336.75 202.932 338.416 199.085 337.707 198.914Z" fill="#32AC60" stroke="black" stroke-linecap="round" stroke-linejoin="round"/>
<path fill-rule="evenodd" clip-rule="evenodd" d="M333.17 207.645L314.587 197.622L310.279 199.259L330.556 211.149C330.994 211.406 333.989 208.087 333.17 207.645Z" fill="#32AC60" stroke="black"/>
<path fill-rule="evenodd" clip-rule="evenodd" d="M326.191 215.514L309.159 199.948L303.559 200.867L322.687 218.674C323.023 218.987 326.912 216.182 326.191 215.514Z" fill="#32AC60" stroke="black"/>
<path fill-rule="evenodd" clip-rule="evenodd" d="M318.005 221.89L301.548 201.384L321.366 172.951C321.701 172.47 317.931 170.448 317.316 171.342L296.781 201.528L313.755 223.843C314.158 224.374 318.456 222.452 318.005 221.89Z" fill="#32AC60" stroke="black"/>
<path fill-rule="evenodd" clip-rule="evenodd" d="M313.927 169.562C314.205 169.138 310.148 167.605 309.82 168.097L288.682 199.804L303.185 226.227C303.767 227.286 308.243 226.356 307.637 225.279L293.679 200.465L313.927 169.562Z" fill="#32AC60" stroke="black"/>
<path fill-rule="evenodd" clip-rule="evenodd" d="M306.287 167.379C306.571 166.958 302.07 166.261 301.692 166.805L280.984 196.616L292.731 227.807C293.016 228.565 297.368 228.323 297.01 227.434L285.407 198.368L306.287 167.379Z" fill="#32AC60" stroke="black"/>
<path fill-rule="evenodd" clip-rule="evenodd" d="M277.997 194.434L273.058 192.883L292.53 165.713C293.05 164.988 297.9 165.513 297.537 166.041L277.997 194.434Z" fill="#32AC60" stroke="black"/>
<path fill-rule="evenodd" clip-rule="evenodd" d="M287.59 165.857L270.3 190.93L266.452 189.264L281.846 165.857C282.387 165.034 288.211 164.957 287.59 165.857Z" fill="#32AC60" stroke="black"/>
<path fill-rule="evenodd" clip-rule="evenodd" d="M267.83 195.123L272.684 224.303C272.807 225.04 277.681 226.6 277.509 225.624L272.311 196.042L267.83 195.123Z" fill="#32AC60" stroke="black"/>
<path fill-rule="evenodd" clip-rule="evenodd" d="M279.405 198.742L286.011 227.146C286.243 228.145 281.912 227.833 281.702 226.888L275.528 198.253L279.405 198.742Z" fill="#32AC60" stroke="black"/>
<path fill-rule="evenodd" clip-rule="evenodd" d="M337.537 284.071L309.999 278.15L323.091 258.687C323.606 257.921 319.328 255.612 318.848 256.323L302.649 280.339L335.373 288.245C336.077 288.415 338.839 284.381 337.537 284.071Z" fill="#32AC60" stroke="black"/>
<path fill-rule="evenodd" clip-rule="evenodd" d="M329.617 294.159L305.912 282.898L301.022 285.132L325.588 297.631C326.862 298.279 330.773 294.719 329.617 294.159Z" fill="#32AC60" stroke="black"/>
<path fill-rule="evenodd" clip-rule="evenodd" d="M319.281 301.869L298.896 285.477L293.428 286.43L314.776 304.7C315.859 305.627 320.041 302.496 319.281 301.869Z" fill="#32AC60" stroke="black"/>
<path fill-rule="evenodd" clip-rule="evenodd" d="M309.386 306.677L292.136 287.347L295.439 284.879L315.151 255.14C315.668 254.361 310.792 252.164 310.173 253.089L287.166 287.465L304.92 308.732C305.64 309.595 310.202 307.591 309.386 306.677Z" fill="#32AC60" stroke="black"/>
<path fill-rule="evenodd" clip-rule="evenodd" d="M307.566 251.788C308.148 250.947 302.805 249.542 302.477 250.029L279.101 284.74L293.991 311.675C294.767 313.078 299.707 311.767 299.213 310.958L283.938 285.949L307.566 251.788Z" fill="#32AC60" stroke="black"/>
<path fill-rule="evenodd" clip-rule="evenodd" d="M298.715 249.561C299.24 248.77 294.009 247.879 293.378 248.849L270.715 283.676L274.152 289.326L282.999 312.678C283.288 313.442 288.652 313.54 288.272 312.619L275.874 284.009L298.715 249.561Z" fill="#32AC60" stroke="black"/>
<path fill-rule="evenodd" clip-rule="evenodd" d="M290.124 248.544L266.677 284.002L262.872 282.169L284.485 248.14C285.176 247.053 290.728 247.63 290.124 248.544Z" fill="#32AC60" stroke="black"/>
<path fill-rule="evenodd" clip-rule="evenodd" d="M258.861 280.843L254.463 279.597L274.648 247.961C275.222 247.063 280.699 247.261 280.239 247.969L258.861 280.843Z" fill="#32AC60" stroke="black"/>
<path fill-rule="evenodd" clip-rule="evenodd" d="M259.713 282.204L261.664 310.466C261.69 310.846 266.381 311.662 266.333 311.081L264.136 284.697L259.713 282.204Z" fill="#32AC60" stroke="black"/>
<path fill-rule="evenodd" clip-rule="evenodd" d="M270.809 285.453L276.295 312.259C276.437 312.953 271.668 312.501 271.526 311.737L266.447 284.231L270.809 285.453Z" fill="#32AC60" stroke="black"/>
<path fill-rule="evenodd" clip-rule="evenodd" d="M320.056 353.512L299.239 349.754L308.192 337.12C308.801 336.261 304.801 334.026 304.469 334.533L293.153 351.828L316.867 357.453C317.955 357.711 321.118 353.703 320.056 353.512Z" fill="#32AC60" stroke="black"/>
<path fill-rule="evenodd" clip-rule="evenodd" d="M310.27 362.398L289.35 352.492L283.965 354.078L306.183 365.467C307.235 366.006 310.686 362.598 310.27 362.398Z" fill="#32AC60" stroke="black"/>
<path fill-rule="evenodd" clip-rule="evenodd" d="M298.725 368.959L282.622 353.75L278.407 354.691L294.115 371.301C294.617 371.831 299.569 369.773 298.725 368.959Z" fill="#32AC60" stroke="black"/>
<path fill-rule="evenodd" clip-rule="evenodd" d="M289.026 372.638L276.351 353.9L278.362 352.208L294.396 329.214C294.816 328.613 290.12 327.106 289.877 327.451L273.521 351.764L271.294 353.9L283.823 373.54C284.612 374.777 289.466 373.306 289.026 372.638Z" fill="#32AC60" stroke="black"/>
<path fill-rule="evenodd" clip-rule="evenodd" d="M286.611 326.532C287.041 325.913 282.257 324.679 281.809 325.348L265.884 349.119L263.041 351.373L271.989 374.633C272.221 375.236 277.496 375.401 277.137 374.52L268.009 352.385L269.289 351.477L286.611 326.532Z" fill="#32AC60" stroke="black"/>
<path fill-rule="evenodd" clip-rule="evenodd" d="M278.653 324.569C279.063 323.991 274.051 323.104 273.474 323.933L256.394 348.732L261.304 373.661C261.497 374.641 266.401 375.03 266.243 374.312L260.806 349.697L278.653 324.569Z" fill="#32AC60" stroke="black"/>
<path fill-rule="evenodd" clip-rule="evenodd" d="M270.055 323.412L253.509 346.268L249.487 344.795L265.085 322.853C265.568 322.174 270.572 322.698 270.055 323.412Z" fill="#32AC60" stroke="black"/>
<path fill-rule="evenodd" clip-rule="evenodd" d="M260.453 322.638L246.32 344.06L240.773 342.7L255.025 322.249C255.458 321.628 260.875 321.999 260.453 322.638Z" fill="#32AC60" stroke="black"/>
<path fill-rule="evenodd" clip-rule="evenodd" d="M241.543 344.617L241.656 371.301C241.659 371.846 246.373 372.671 246.365 371.974L246.08 345.731L241.543 344.617Z" fill="#32AC60" stroke="black"/>
<path fill-rule="evenodd" clip-rule="evenodd" d="M254.017 347.866L256.574 372.986C256.654 373.766 251.868 373.209 251.805 372.491L249.541 346.416L254.017 347.866Z" fill="#32AC60" stroke="black"/>
<path fill-rule="evenodd" clip-rule="evenodd" d="M302.112 332.823C302.575 332.179 297.796 330.174 297.402 330.755L283.397 350.846L289.658 350.156L302.112 332.823Z" fill="#32AC60" stroke="black"/>
<path fill-rule="evenodd" clip-rule="evenodd" d="M237.157 340.736L237.616 370.376C237.624 370.872 232.678 370.407 232.676 369.926L232.562 339.53L243.955 322.808C244.65 321.788 250.865 321.616 250.253 322.47L237.157 340.736Z" fill="#32AC60" stroke="black"/>
<path fill-rule="evenodd" clip-rule="evenodd" d="M257.951 309.143C257.993 310.375 253.255 308.777 253.24 308.224L252.551 281.687L257.032 282.376L257.951 309.143Z" fill="#32AC60" stroke="black"/>
<path fill-rule="evenodd" clip-rule="evenodd" d="M210.516 407.274L209.483 365.51C209.359 360.506 218.806 352.301 224.284 349.217C234.32 343.567 244.932 345.136 263.639 351.971C281.283 358.417 292.975 353.72 302.88 349.791C303.975 349.356 303.094 345.488 301.962 345.775C293.552 347.91 285.517 352.268 274.769 349.332C263.727 346.316 253.237 340.442 240.462 339.235C229.798 338.228 219.77 341.605 209.368 348.643L208.909 305.387C208.884 303.001 211.533 294.349 225.891 284.276C236.494 276.836 255.88 287.914 271.786 289.554C285.987 291.018 299.906 287.965 313.995 278.742C314.9 278.149 313.045 274.84 312.288 275.211C300.587 280.954 288.604 285.043 281.084 284.505C256.713 282.764 251.923 274.928 235.873 273.146C226.508 272.107 215.708 277.083 208.795 285.194L207.188 207.401C207.049 200.671 206.785 200.555 213.719 193.406C217.239 189.778 222.666 186.156 227.841 184.569C248.035 178.376 259.311 194.214 280.08 201.232C291.461 205.078 306.631 204.57 321.123 194.78C321.646 194.427 319.587 191.309 318.828 191.797C311.236 196.685 295.296 200.764 286.816 197.649C262.408 188.681 254.701 175.836 236.102 175.39C219.155 174.983 207.729 183.718 200 193.633C192.271 183.718 180.845 174.983 163.898 175.39C145.299 175.836 137.592 188.681 113.184 197.649C104.704 200.764 88.7643 196.685 81.1719 191.797C80.4133 191.309 78.3538 194.427 78.8772 194.78C93.3691 204.57 108.539 205.078 119.92 201.232C140.689 194.214 151.965 178.376 172.159 184.569C177.334 186.156 182.761 189.778 186.281 193.406C193.215 200.555 192.951 200.671 192.812 207.401L191.205 285.194C184.292 277.083 173.492 272.107 164.127 273.146C148.077 274.928 143.287 282.764 118.916 284.505C111.396 285.043 99.4128 280.954 87.712 275.211C86.9549 274.84 85.1002 278.149 86.0048 278.742C100.094 287.965 114.013 291.018 128.214 289.554C144.12 287.914 163.506 276.836 174.109 284.276C188.467 294.349 191.116 303.001 191.091 305.387L190.632 348.643C180.23 341.605 170.202 338.228 159.538 339.235C146.763 340.442 136.273 346.316 125.231 349.332C114.483 352.268 106.448 347.91 98.0383 345.775C96.906 345.488 96.0248 349.356 97.1204 349.791C107.025 353.72 118.717 358.417 136.361 351.971C155.068 345.136 165.68 343.567 175.716 349.217C181.194 352.301 190.641 360.506 190.517 365.51L189.484 407.274C193.045 412.129 197.648 416.224 200 421.958C202.379 416.347 206.931 412.118 210.516 407.274Z" fill="#EF7836"/>
<path d="M196.14 30.1462C197.625 30.1462 198.829 28.9422 198.829 27.4571C198.829 25.972 197.625 24.7681 196.14 24.7681C194.655 24.7681 193.451 25.972 193.451 27.4571C193.451 28.9422 194.655 30.1462 196.14 30.1462Z" fill="white"/>
<path fill-rule="evenodd" clip-rule="evenodd" d="M202.109 24.7682C202.142 25.0111 202.11 25.1842 201.353 24.6851C200.208 23.9312 198.236 23.0454 196.085 23.1593C194.524 23.2419 192.68 24.1815 190.871 25.5904C189.492 26.664 187.019 21.6908 188.864 20.6442C191.115 19.3678 193.212 19.2438 195.045 19.3048C198.971 19.4354 201.687 21.6905 202.109 24.7682Z" fill="#E00E00"/>
<path fill-rule="evenodd" clip-rule="evenodd" d="M161.809 192.653C159.209 188.48 157.192 183.667 163.898 175.389L156.41 173.583C154.332 177.565 153.159 181.157 153.882 185.415C154.798 190.805 158.624 191.948 161.809 192.653Z" fill="black" stroke="black" stroke-linecap="round" stroke-linejoin="round"/>
<path fill-rule="evenodd" clip-rule="evenodd" d="M238.191 192.653C240.791 188.48 242.808 183.667 236.102 175.389L243.59 173.583C245.668 177.565 246.841 181.157 246.118 185.415C245.202 190.805 241.376 191.948 238.191 192.653Z" fill="black" stroke="black" stroke-linecap="round" stroke-linejoin="round"/>
<path d="M210.516 407.634L209.483 365.51C209.36 360.506 218.806 352.301 224.284 349.217C234.32 343.567 244.932 345.136 263.639 351.971C281.283 358.417 292.975 353.72 302.88 349.791C303.975 349.356 303.094 345.488 301.962 345.775C293.552 347.91 285.517 352.268 274.769 349.332C263.727 346.316 253.237 340.442 240.462 339.235C229.798 338.228 219.77 341.605 209.368 348.643L208.909 305.387C208.884 303.001 211.533 294.349 225.891 284.276C236.494 276.836 255.88 287.914 271.786 289.554C285.987 291.018 299.906 287.965 313.995 278.742C314.9 278.149 313.045 274.84 312.288 275.211C300.587 280.954 288.604 285.043 281.084 284.505C256.713 282.764 251.923 274.928 235.873 273.146C226.508 272.107 215.708 277.083 208.795 285.194L207.188 207.401C207.049 200.671 206.785 200.555 213.719 193.406C217.239 189.778 222.666 186.156 227.841 184.569C248.035 178.376 259.311 194.214 280.08 201.232C291.461 205.078 306.631 204.57 321.123 194.78C321.646 194.427 319.587 191.309 318.828 191.797C311.236 196.685 295.296 200.764 286.816 197.649C262.408 188.681 254.701 175.836 236.102 175.39C219.155 174.983 207.729 183.718 200 193.633C192.271 183.718 180.845 174.983 163.898 175.39C145.299 175.836 137.592 188.681 113.184 197.649C104.704 200.764 88.7643 196.685 81.1719 191.797C80.4133 191.309 78.3538 194.427 78.8772 194.78C93.3691 204.57 108.539 205.078 119.92 201.232C140.689 194.214 151.965 178.376 172.159 184.569C177.334 186.156 182.761 189.778 186.281 193.406C193.215 200.555 192.951 200.671 192.812 207.401L191.205 285.194C184.292 277.083 173.492 272.107 164.127 273.146C148.077 274.928 143.287 282.764 118.916 284.505C111.396 285.043 99.4128 280.954 87.712 275.211C86.9549 274.84 85.1002 278.149 86.0048 278.742C100.094 287.965 114.013 291.018 128.214 289.554C144.12 287.914 163.506 276.836 174.109 284.276C188.467 294.349 191.116 303.001 191.091 305.387L190.632 348.643C180.23 341.605 170.202 338.228 159.538 339.235C146.763 340.442 136.273 346.316 125.231 349.332C114.483 352.268 106.448 347.91 98.0383 345.775C96.906 345.488 96.0248 349.356 97.1204 349.791C107.025 353.72 118.717 358.417 136.361 351.971C155.068 345.136 165.68 343.567 175.716 349.217C181.194 352.301 190.64 360.506 190.517 365.51L189.484 407.645" stroke="#000C00" stroke-linecap="round" stroke-linejoin="round"/>
<path d="M234.098 396.166C225.419 396.301 215.869 398.26 208.346 408.043C207.198 409.536 206.099 410.817 205.018 412.078C204.331 412.877 203.653 413.669 202.974 414.5C201.899 415.815 200.883 417.164 200 418.65C199.117 417.164 198.101 415.815 197.026 414.5C196.347 413.669 195.669 412.877 194.982 412.078C193.901 410.817 192.802 409.536 191.654 408.043C184.131 398.26 174.581 396.301 165.902 396.166C160.803 396.087 155.909 396.601 150.602 397.16C150.225 397.199 149.847 397.239 149.467 397.279C143.7 397.882 137.333 398.5 129.454 398.5C93.0315 398.5 72.3376 383.59 60.6597 364.304C48.9077 344.895 46.1809 320.872 46.1809 302.592V104.634C46.1809 90.4964 39.5235 77.9156 30.6027 67.2731C22.1428 57.1804 11.5521 48.716 2.36007 42.1786L45.2788 1.5H354.721L397.64 42.1786C388.448 48.716 377.857 57.1804 369.397 67.2731C360.476 77.9156 353.819 90.4964 353.819 104.634V302.592C353.819 320.872 351.092 344.895 339.34 364.304C327.662 383.59 306.969 398.5 270.546 398.5C262.667 398.5 256.301 397.882 250.533 397.279C250.153 397.239 249.775 397.199 249.398 397.16C244.091 396.601 239.197 396.087 234.098 396.166Z" stroke="black" stroke-width="3"/>
</g>
<defs>
<clipPath id="clip0">
<rect width="400.862" height="421.96" fill="white"/>
</clipPath>
</defs>
</svg>
