<svg width="400" height="542" viewBox="0 0 400 542" fill="none" xmlns="http://www.w3.org/2000/svg">
<g clip-path="url(#clip0)">
<path d="M399.433 127.009C400.247 127.822 400.247 129.449 399.026 130.67C380.722 140.025 375.434 159.956 374.214 179.48L373.401 259.611L375.028 340.148C375.841 390.179 377.875 447.125 332.725 476.004C314.828 488.614 303.439 493.495 272.119 496.749C237.951 500.409 213.139 515.866 201.344 541.898H198.903C187.514 519.934 164.329 500.409 139.517 497.562C98.0279 497.969 58.5727 481.699 37.8282 443.871C30.5066 430.041 25.6255 415.398 26.0323 398.314L25.2188 181.107C25.6255 168.498 24.812 153.855 15.8634 143.686C12.2026 137.991 5.69456 134.737 0 131.076C0 131.076 17.0837 112.366 25.2188 103.824H372.994L399.433 127.009Z" fill="black" stroke="black" stroke-width="0.538"/>
<path d="M372.587 106.672L384.383 118.061L366.893 133.924L306.693 185.989L270.899 216.902C263.577 209.988 257.069 201.852 248.934 194.938C244.866 189.65 238.765 186.396 232.257 186.396C218.02 188.023 209.479 207.547 200.53 220.156C191.175 216.089 181.819 207.14 170.43 207.14C165.549 206.734 160.261 207.547 155.787 206.327C155.787 203.886 156.194 200.632 153.753 199.005C152.94 197.785 151.719 196.971 150.092 197.378L148.059 200.632C145.211 196.971 143.584 192.09 141.957 187.616C141.144 183.955 130.161 149.788 130.161 149.788C130.161 149.788 108.603 185.582 98.8414 202.666C97.2143 203.886 93.5536 202.666 93.5536 205.92C92.74 208.767 94.7738 211.615 97.2143 212.021C100.875 212.835 104.943 205.92 106.57 212.021C109.01 215.275 106.57 220.97 111.451 222.597C116.332 222.597 120.399 225.037 124.467 226.664C127.721 231.139 123.247 235.613 122.026 240.087C114.298 248.629 103.722 258.391 91.5198 253.917C85.4185 250.256 77.6901 249.849 72.8091 243.748C65.4875 241.308 69.1483 232.359 61.8267 229.512L54.5051 227.071C50.4376 205.513 45.5565 183.955 41.489 161.99C42.7092 151.008 38.2349 141.653 32.5404 133.111C32.5404 133.111 31.7268 135.551 31.3201 137.178C29.6931 156.703 39.0484 173.786 40.2687 192.904C42.3025 205.106 45.1498 216.496 46.37 229.105C44.3362 230.325 45.1497 233.579 43.5227 235.206C42.7092 239.681 42.3025 245.375 45.5565 249.036C46.7768 251.07 49.6241 252.29 50.8443 253.917L69.9618 360.487L74.8428 388.146L74.0293 390.18C59.3862 402.382 46.7768 414.992 32.1336 425.974C29.6931 420.686 28.8796 414.992 28.0661 408.891L27.6593 383.672L27.2526 177.447C28.8796 159.55 22.3715 142.873 8.13508 132.704L4.47429 129.857L26.0323 106.672H372.587Z" fill="#0066B3" stroke="black" stroke-width="0.538"/>
<path d="M395.772 128.637C379.095 138.399 372.18 156.296 371.367 175.007L370.553 194.531L372.18 355.199C372.994 371.876 372.587 389.773 370.553 406.043C355.097 409.704 339.233 412.958 323.37 415.805C322.15 407.264 323.37 399.128 328.251 393.027C330.691 388.96 324.997 386.926 326.624 383.672C323.777 380.011 320.116 384.079 316.455 382.452C312.388 377.164 304.659 380.011 300.998 375.13C299.371 373.91 298.151 375.13 296.524 374.316C285.135 363.741 272.119 352.758 256.255 357.233C254.222 353.165 249.747 356.419 247.714 351.538C250.154 348.284 253.815 345.03 255.035 341.369C259.103 341.369 261.95 339.335 263.984 336.081C269.272 329.573 265.611 320.625 268.458 312.896C265.611 308.422 259.916 309.236 255.035 308.422C249.341 305.168 243.239 303.134 237.138 300.287L237.545 299.474C248.934 293.779 272.119 283.203 272.119 283.203C281.474 279.136 293.27 273.441 295.304 262.052C295.304 248.222 284.728 238.46 277 227.885C274.966 225.037 270.492 220.563 270.899 220.156C280.661 211.615 309.947 186.396 327.031 171.753L378.282 126.196L386.417 118.875C389.671 122.129 393.738 124.976 395.772 128.637Z" fill="white" stroke="black" stroke-width="0.538"/>
<path d="M38.2349 146.126C41.0822 157.922 39.0484 166.464 41.8957 170.938C42.3025 172.565 45.5565 175.006 41.0822 175.819C38.2349 175.413 39.0484 168.905 38.2349 165.651C35.7944 157.515 32.9471 146.94 34.1674 138.398C35.7944 139.211 37.4214 144.093 38.2349 146.126Z" fill="white"/>
<path d="M143.991 199.006C145.211 200.633 146.025 204.293 149.279 203.887C151.719 203.073 150.092 200.226 152.126 200.226C153.346 201.446 153.753 203.48 152.94 204.7C151.719 206.327 149.686 207.141 147.652 206.327C133.822 198.192 135.856 181.108 131.382 168.092L128.534 171.346C127.314 170.94 124.467 168.499 124.467 168.499C117.145 181.108 109.824 194.125 102.095 206.734C100.875 208.361 99.2481 210.802 96.8076 209.175C96.8076 208.361 95.5873 207.547 96.8076 206.734C103.316 206.327 104.129 199.006 107.383 194.938C114.705 181.922 122.84 168.906 130.161 155.89C134.636 169.719 138.703 184.769 143.991 199.006Z" fill="white"/>
<path d="M128.534 173.785C129.348 172.972 130.568 172.158 130.975 171.752C133.009 177.446 133.009 184.361 135.043 190.055C129.348 188.428 123.653 185.174 116.332 186.395C118.772 181.107 122.026 175.819 124.874 170.938L128.534 173.785Z" fill="#EE334E"/>
<path d="M52.4713 227.07C51.6578 227.477 50.4376 228.697 49.6241 227.477C45.5565 211.614 43.5227 194.937 40.2687 178.26L41.8957 177.04L43.116 178.26L52.4713 227.07Z" fill="#EE334E"/>
<path d="M135.043 192.904C134.229 193.311 134.636 194.124 134.636 194.938C135.449 195.751 137.89 195.344 137.483 197.378C135.043 196.158 131.382 196.565 129.348 194.124C129.755 194.124 129.348 193.311 129.755 192.904L129.348 192.497C127.721 195.344 124.06 192.904 121.62 193.311C120.806 192.904 121.62 191.277 120.399 191.684C119.586 192.09 119.993 192.497 119.993 193.311C117.959 193.717 115.112 193.311 112.671 193.717C112.264 190.87 114.705 192.904 115.518 191.684C114.705 190.87 114.298 190.87 114.705 189.65C121.213 187.209 129.755 188.43 135.043 192.904Z" fill="white"/>
<path d="M242.019 191.276C251.374 200.224 261.136 208.766 268.865 218.935C224.122 259.61 177.752 301.099 132.195 339.741C144.398 317.776 160.261 297.845 170.837 275.474C176.531 267.745 181.413 259.61 186.294 251.475C194.022 238.459 202.971 221.782 207.852 212.427C217.207 199.817 223.715 186.395 237.545 189.649C239.985 190.055 240.799 190.462 242.019 191.276Z" fill="white" stroke="black" stroke-width="0.538"/>
<path d="M120.399 194.937C121.213 204.292 116.739 212.02 114.298 220.562C112.671 220.562 111.044 219.749 110.637 218.122C111.044 216.901 111.044 215.681 109.824 214.461C111.044 212.427 112.671 215.274 113.891 213.647C112.671 211.207 109.01 213.24 108.603 210.393C109.824 209.986 111.044 209.173 111.044 207.546C110.23 207.139 110.23 206.326 109.417 206.732L108.603 207.546C108.603 207.546 109.01 207.953 109.01 208.359C109.01 209.173 107.79 207.546 106.57 207.546C106.163 203.885 108.603 201.445 109.01 198.191H112.264C114.298 200.224 109.417 202.258 113.078 203.478C113.891 203.072 115.518 203.885 116.332 203.072C115.925 201.851 114.705 202.665 113.891 202.258C113.485 201.038 115.112 200.631 116.332 200.224L118.366 198.191C116.739 196.564 114.298 196.564 112.264 196.157C113.891 194.937 117.552 194.937 120.399 194.937Z" fill="white"/>
<path d="M123.247 195.343C123.653 200.631 121.62 204.699 120.399 209.58C120.399 205.512 123.247 200.631 122.84 195.343H123.247Z" fill="white"/>
<path d="M131.788 196.971C132.602 198.192 131.788 199.412 130.975 200.632C128.128 201.039 126.094 198.598 124.06 197.785L124.874 195.751C127.721 194.938 129.348 196.565 131.788 196.971Z" fill="white" stroke="black" stroke-width="0.1614"/>
<path d="M136.263 199.004C133.009 205.512 130.975 213.24 126.094 218.935C128.941 212.833 131.788 205.512 133.416 198.19C134.229 197.784 135.856 198.19 136.263 199.004Z" fill="white"/>
<path d="M130.975 202.258C131.382 203.479 130.161 203.479 129.755 203.885C127.314 205.106 125.687 199.818 124.467 203.072C126.501 203.479 127.721 206.326 130.161 205.512C130.568 206.733 129.348 207.546 128.128 207.546C126.094 207.546 124.467 206.326 123.247 205.106L124.467 199.411C126.501 200.225 128.534 201.445 130.975 202.258Z" fill="white" stroke="black" stroke-width="0.1614"/>
<path d="M140.737 201.039V201.852H137.483L137.89 199.818C138.703 199.818 139.924 199.818 140.737 201.039Z" fill="white" stroke="black" stroke-width="0.1614"/>
<path d="M142.771 206.327C143.178 207.548 141.957 207.954 141.957 208.768C139.924 207.954 138.703 204.7 136.263 206.327C137.89 207.141 139.517 208.361 140.33 209.988C140.33 210.802 139.517 211.615 139.11 212.022C137.483 211.208 136.263 209.581 134.229 209.581C135.043 207.141 135.856 204.7 137.483 202.667C139.11 203.073 141.551 203.887 142.771 206.327Z" fill="white" stroke="black" stroke-width="0.1614"/>
<path d="M147.245 207.954C142.771 214.055 136.67 218.53 130.568 223.411H129.755C134.636 218.123 141.144 213.242 145.211 206.734C145.618 206.734 146.432 207.141 147.245 207.954Z" fill="white"/>
<path d="M128.941 209.173C128.941 210.8 128.128 211.613 126.907 212.834C124.874 212.427 121.213 210.8 122.026 208.766L122.84 207.546C124.874 207.953 126.501 209.986 128.941 209.173Z" fill="white" stroke="black" stroke-width="0.1614"/>
<path d="M156.601 212.833C157.007 214.054 156.194 214.46 155.38 214.867C152.94 215.274 152.94 212.427 152.126 211.206L152.533 207.546C157.007 206.732 154.16 211.613 156.601 212.833Z" fill="white" stroke="black" stroke-width="0.1614"/>
<path d="M151.719 213.649C152.533 214.462 152.94 214.869 152.94 215.682C152.126 217.716 150.906 215.682 149.686 215.682C147.652 213.649 147.245 210.395 148.465 207.547C152.533 206.734 150.499 212.022 151.719 213.649Z" fill="white" stroke="black" stroke-width="0.1614"/>
<path d="M163.515 208.768C163.515 209.988 162.295 210.395 161.075 210.801C159.041 208.768 162.295 208.768 163.515 208.768Z" fill="white" stroke="black" stroke-width="0.1614"/>
<path d="M174.091 211.207L171.65 213.241L169.617 210.801C170.023 208.767 174.904 207.953 174.091 211.207Z" fill="white" stroke="black" stroke-width="0.1614"/>
<path d="M159.855 211.208C160.261 211.615 159.448 212.021 159.041 212.021C158.228 212.021 156.601 212.021 157.007 210.801C156.601 207.954 160.668 209.174 159.855 211.208Z" fill="white" stroke="black" stroke-width="0.1614"/>
<path d="M167.99 209.58C156.601 218.935 143.584 227.07 130.161 231.544C130.975 229.104 134.636 230.324 135.856 227.884C146.025 221.782 156.194 215.274 166.363 209.173L167.99 209.58Z" fill="white"/>
<path d="M176.938 210.801C172.464 218.936 167.583 228.291 170.837 238.867C169.21 239.68 168.803 237.24 167.99 236.426C165.549 226.257 171.244 218.529 175.718 210.394C176.125 210.394 176.531 210.394 176.938 210.801Z" fill="white"/>
<path d="M117.959 219.75C118.772 218.53 121.213 218.936 122.433 219.343C123.653 220.563 122.84 223.004 124.874 223.004C125.687 222.597 126.094 222.19 126.907 221.784C127.721 223.004 126.501 225.444 128.941 225.851L132.195 224.224C133.009 225.038 133.416 226.258 133.416 227.478C131.788 228.292 130.161 229.512 128.534 229.919C128.534 223.004 120.806 222.19 116.332 220.157L119.993 210.801C119.586 214.055 118.366 216.903 117.959 219.75Z" fill="white"/>
<path d="M147.652 214.867L150.092 217.715C149.279 219.748 147.652 218.121 146.432 218.121C145.211 216.494 144.398 214.867 144.805 212.834C145.618 212.427 145.618 211.207 146.432 211.207C147.652 212.02 146.432 214.054 147.652 214.867Z" fill="white" stroke="black" stroke-width="0.1614"/>
<path d="M185.887 214.461C185.887 215.274 184.667 215.681 184.26 216.494C182.633 214.867 181.006 212.834 178.565 212.427V211.613C181.413 210.8 183.446 213.24 185.887 214.461Z" fill="white" stroke="black" stroke-width="0.1614"/>
<path d="M126.501 215.275C124.874 215.681 123.247 214.868 121.62 214.461L121.213 214.868C122.026 216.088 123.653 216.495 125.28 217.308C124.467 220.969 122.026 216.902 120.399 217.308C119.586 215.275 121.213 213.241 121.62 211.614C122.84 212.427 125.687 213.241 126.501 215.275Z" fill="white" stroke="black" stroke-width="0.1614"/>
<path d="M136.67 213.241C136.67 214.055 136.67 215.275 135.856 215.275C134.229 215.275 133.009 214.055 132.195 212.835C132.195 210.394 136.263 211.208 136.67 213.241Z" fill="white" stroke="black" stroke-width="0.1614"/>
<path d="M170.43 214.868C170.43 215.275 170.837 215.682 170.023 216.089C167.99 216.089 168.396 213.648 166.769 212.835L167.583 212.021C168.803 212.021 170.023 213.648 170.43 214.868Z" fill="white" stroke="black" stroke-width="0.1614"/>
<path d="M183.04 216.902V218.122C181.413 216.902 179.379 214.461 176.938 214.868L176.531 213.648C179.379 212.834 181.413 215.275 183.04 216.902Z" fill="white" stroke="black" stroke-width="0.1614"/>
<path d="M169.21 218.529C168.396 221.376 167.176 225.037 163.515 225.85C161.075 226.664 163.109 223.003 161.482 222.189L158.634 218.529C159.041 217.308 160.668 216.495 161.482 216.088C163.515 218.122 164.329 221.376 163.922 223.816C164.736 223.816 165.142 223.003 165.142 222.596C166.363 218.935 160.261 215.274 164.736 213.647C167.176 214.461 167.99 216.495 169.21 218.529Z" fill="white" stroke="black" stroke-width="0.1614"/>
<path d="M146.432 219.75C146.432 220.564 145.618 220.97 145.211 220.97C141.144 222.191 143.178 217.31 141.957 215.682C142.771 215.276 142.771 214.055 143.991 214.462C143.991 216.496 144.398 218.53 146.432 219.75Z" fill="white" stroke="black" stroke-width="0.1614"/>
<path d="M133.009 216.089V216.903C132.195 217.31 130.975 216.089 130.568 215.683L130.975 214.869C131.788 214.869 133.416 214.869 133.009 216.089Z" fill="white" stroke="black" stroke-width="0.1614"/>
<path d="M189.548 216.902C182.633 223.003 178.565 231.952 176.938 240.9C175.718 239.68 176.125 236.833 176.532 234.799C179.379 228.291 181.819 220.969 187.107 215.682C188.327 214.868 188.734 216.495 189.548 216.902Z" fill="white"/>
<path d="M181.413 219.748C179.786 221.375 180.599 226.256 177.345 224.629C176.938 223.002 174.904 222.189 175.718 220.562C177.345 220.155 177.752 222.596 179.379 223.002C180.192 222.596 179.786 222.189 179.786 221.782C178.565 220.562 177.345 218.935 175.718 219.342L176.125 217.308C178.159 216.088 180.599 217.308 181.413 219.748Z" fill="white" stroke="black" stroke-width="0.1614"/>
<path d="M141.551 223.816C139.924 224.222 138.703 223.002 138.297 221.782C138.297 220.155 137.89 218.121 139.924 217.308C141.144 218.935 142.364 221.782 141.551 223.816Z" fill="white" stroke="black" stroke-width="0.1614"/>
<path d="M194.429 223.003C194.429 223.816 194.022 224.63 193.615 225.036C192.395 225.036 191.175 224.223 190.361 223.003C188.327 225.443 194.835 226.663 190.768 228.29C188.734 229.104 187.921 227.07 187.107 225.85C186.7 223.816 185.887 220.155 189.141 218.935C189.954 220.155 188.734 222.189 189.954 223.003L190.361 217.715C194.022 217.715 193.208 220.969 194.429 223.003Z" fill="white" stroke="black" stroke-width="0.1614"/>
<path d="M130.568 218.122C131.382 219.342 130.161 220.563 129.348 220.969C128.534 220.563 128.128 220.563 127.721 220.156C127.721 218.529 129.348 218.529 130.568 218.122Z" fill="white" stroke="black" stroke-width="0.1614"/>
<path d="M160.668 223.409C161.482 224.63 160.668 226.257 159.855 227.477L158.634 228.29C159.041 225.85 158.228 223.003 156.194 220.969C158.228 216.901 158.634 222.596 160.668 223.409Z" fill="white" stroke="black" stroke-width="0.1614"/>
<path d="M196.869 221.784C196.462 221.784 196.462 222.19 196.462 222.597C195.242 223.004 194.835 221.784 194.835 220.563C195.649 220.157 196.056 221.377 196.869 221.784Z" fill="white" stroke="black" stroke-width="0.1614"/>
<path d="M138.297 225.444C137.076 225.85 135.856 226.664 134.229 225.85C133.822 225.037 133.416 223.41 133.822 222.19C134.636 221.376 135.449 220.563 136.67 220.156C137.89 221.783 137.89 223.817 138.297 225.444Z" fill="white" stroke="black" stroke-width="0.1614"/>
<path d="M275.78 227.478C283.915 237.647 295.304 249.85 293.27 263.273C287.982 276.289 273.746 279.543 264.39 284.831C255.442 289.712 246.087 292.152 237.138 297.033C237.138 297.033 213.546 307.202 203.377 312.49C179.379 321.439 157.007 334.455 133.416 344.217H131.382L184.667 297.033C212.733 271.001 242.832 245.782 270.492 220.97C270.085 220.97 274.966 226.258 275.78 227.478Z" fill="#EE334E" stroke="black" stroke-width="0.538"/>
<path d="M156.601 223.817C157.414 225.444 156.194 227.884 157.414 228.698C156.601 229.511 155.38 230.325 154.16 229.918L152.126 223.003C153.753 220.563 155.787 222.597 156.601 223.817Z" fill="white" stroke="black" stroke-width="0.1614"/>
<path d="M200.123 223.003C195.649 231.545 191.175 239.68 186.294 247.408C185.073 246.595 185.48 243.747 185.887 242.12C189.548 235.206 191.581 227.477 198.089 222.189L200.123 223.003Z" fill="white"/>
<path d="M175.311 224.63C172.057 227.071 179.786 229.918 174.904 231.952C175.718 232.359 175.311 233.579 175.311 233.986C173.684 234.799 172.464 233.172 171.244 232.359C170.43 229.105 172.464 227.478 172.057 224.224C172.871 223.41 174.904 222.19 175.311 224.63Z" fill="white" stroke="black" stroke-width="0.1614"/>
<path d="M152.94 230.324C153.346 231.138 152.126 231.545 151.313 231.951H150.499C150.499 229.918 150.092 227.477 148.465 225.85L150.906 223.816C152.126 225.443 154.16 227.477 152.94 230.324Z" fill="white" stroke="black" stroke-width="0.1614"/>
<path d="M189.548 230.731C188.734 231.545 188.734 233.985 187.107 232.765C185.073 230.731 183.446 228.697 183.446 225.85L184.667 223.816C185.887 226.664 186.7 229.104 189.548 230.731Z" fill="white" stroke="black" stroke-width="0.1614"/>
<path d="M166.363 226.257C157.007 232.359 146.432 237.24 136.263 241.714C135.449 241.714 135.043 241.307 134.636 240.494C137.89 238.46 141.551 237.646 145.211 236.426C152.126 232.765 159.448 230.325 166.363 226.257Z" fill="white"/>
<path d="M148.872 229.917C149.279 231.545 148.465 233.172 146.838 233.985C146.025 233.172 146.025 231.545 145.618 230.324C146.025 229.104 142.364 227.884 144.805 226.663C147.245 226.257 148.059 228.29 148.872 229.917Z" fill="white" stroke="black" stroke-width="0.1614"/>
<path d="M144.805 231.139C145.211 233.173 144.398 234.393 142.771 235.613C141.551 235.206 142.771 233.173 141.957 232.359C141.551 231.139 140.33 229.919 141.144 228.698C142.771 229.105 144.398 229.512 144.805 231.139Z" fill="white" stroke="black" stroke-width="0.1614"/>
<path d="M186.7 237.241C183.853 238.868 182.633 234.8 181.006 233.173C180.599 231.953 181.006 229.512 182.633 229.105C182.226 232.766 189.141 233.58 186.7 237.241Z" fill="white" stroke="black" stroke-width="0.1614"/>
<path d="M165.956 229.105C164.329 232.36 169.617 237.647 163.515 238.054C162.702 238.054 161.888 237.241 161.482 236.427C161.075 233.58 162.702 230.326 165.142 229.105H165.956Z" fill="white" stroke="black" stroke-width="0.1614"/>
<path d="M53.6916 229.919C53.6916 230.326 53.6916 230.732 53.2849 230.732L52.4713 229.105C52.8781 229.105 53.2849 229.512 53.6916 229.919Z" fill="white"/>
<path d="M59.7929 234.798C58.1659 235.612 57.3524 233.578 55.7254 232.764C54.9119 231.951 54.5051 230.731 55.3186 229.51C57.7592 230.324 61.8267 230.731 59.7929 234.798Z" fill="white" stroke="black" stroke-width="0.1614"/>
<path d="M52.8781 233.172C52.0646 233.986 50.4376 233.986 49.6241 233.579C49.2173 232.765 48.8105 231.952 48.8105 231.138C50.8443 227.884 52.0646 232.359 52.8781 233.172Z" fill="white" stroke="black" stroke-width="0.1614"/>
<path d="M141.551 233.579C141.957 235.206 139.924 236.019 139.11 237.24H138.703C140.33 234.799 135.449 230.731 139.11 230.325L141.551 233.579Z" fill="white" stroke="black" stroke-width="0.1614"/>
<path d="M137.483 233.578C137.89 234.798 137.89 236.425 136.67 237.239C135.856 237.239 135.043 236.019 135.043 235.205L134.229 238.866C132.195 238.866 131.788 235.612 130.975 233.985C131.788 233.171 133.415 231.951 135.043 231.544C136.263 231.544 137.076 232.765 137.483 233.578Z" fill="white" stroke="black" stroke-width="0.1614"/>
<path d="M62.6402 232.358C63.047 233.578 61.8267 235.205 61.0132 236.425L61.4199 231.544L62.6402 232.358Z" fill="white"/>
<path d="M160.668 232.358C160.668 234.392 159.855 237.239 161.075 238.866C160.261 240.493 159.041 238.866 158.228 238.866C157.007 236.833 158.228 235.206 157.821 233.172C158.634 232.358 159.855 232.358 160.668 232.358Z" fill="white" stroke="black" stroke-width="0.1614"/>
<path d="M131.382 239.274C133.822 242.528 135.856 246.189 139.11 249.036C138.703 250.663 137.89 252.29 137.483 253.917C133.009 251.07 130.975 246.189 129.348 241.715C127.721 240.494 127.314 238.461 126.907 236.834C127.721 236.02 127.314 233.986 128.534 233.173C130.568 233.986 129.755 237.24 131.382 239.274Z" fill="white"/>
<path d="M56.9456 235.207C59.7929 237.24 63.047 239.681 62.2334 243.748C62.6402 244.969 61.4199 245.375 61.0132 246.189C59.3862 242.935 57.3524 238.867 54.9119 236.427C54.0984 236.834 54.9119 237.24 54.5051 238.054C53.2848 238.054 52.0646 237.647 52.0646 236.427C49.2173 237.24 50.0308 241.308 48.8105 243.342C47.997 241.308 50.8443 238.461 47.5903 238.054C45.9633 238.867 47.5903 240.088 47.997 240.494C46.37 240.901 48.4038 244.155 46.37 244.155C44.3362 241.715 46.7768 238.461 45.9633 235.613C46.7768 236.02 47.997 238.054 49.2173 236.834L46.7768 234.393L47.997 233.173C50.4376 237.647 54.0984 232.766 56.9456 235.207Z" fill="white"/>
<path d="M156.601 234.393C154.567 236.833 160.261 243.341 154.16 241.307C154.16 238.867 152.533 233.986 156.601 234.393Z" fill="white" stroke="black" stroke-width="0.1614"/>
<path d="M65.4875 236.833H63.047L63.8605 234.393C65.4875 234.799 65.0807 236.02 65.4875 236.833Z" fill="white" stroke="black" stroke-width="0.1614"/>
<path d="M174.498 237.24H172.057L171.65 234.799C173.277 234.799 174.498 236.426 174.498 237.24Z" fill="white" stroke="black" stroke-width="0.1614"/>
<path d="M184.667 242.121L183.853 242.934C181.413 241.714 179.786 238.867 179.786 236.02L180.599 234.799C181.006 237.24 187.921 238.053 184.667 242.121Z" fill="white" stroke="black" stroke-width="0.1614"/>
<path d="M153.346 242.934C152.533 244.561 151.719 242.528 150.906 242.528C149.686 241.307 150.499 238.867 150.499 237.24L152.533 236.426C152.94 237.647 151.719 241.307 153.346 242.934Z" fill="white" stroke="black" stroke-width="0.1614"/>
<path d="M167.99 238.46V239.273C160.668 243.341 153.753 248.629 146.025 251.476C145.211 251.069 144.398 250.663 143.991 249.849C151.313 244.968 159.448 241.714 167.99 238.46Z" fill="white"/>
<path d="M148.872 238.46C148.465 240.494 149.279 242.934 150.499 244.155H147.652L147.245 240.087C146.838 240.087 146.025 240.9 146.025 241.307C144.805 243.341 149.686 246.595 145.211 246.188C143.991 244.968 143.584 242.528 144.398 240.9C145.618 240.087 146.838 238.46 148.872 238.46Z" fill="white" stroke="black" stroke-width="0.1614"/>
<path d="M66.7078 240.087C65.8943 240.9 65.4875 241.307 64.2672 240.9C63.4537 240.087 62.2335 239.273 63.4537 238.46C64.2672 239.68 67.1145 238.053 66.7078 240.087Z" fill="white" stroke="black" stroke-width="0.1614"/>
<path d="M174.904 241.713V242.527C173.684 242.933 171.65 241.713 171.244 240.493C171.244 239.679 170.837 238.866 172.057 238.866C174.091 238.052 173.277 241.306 174.904 241.713Z" fill="white" stroke="black" stroke-width="0.1614"/>
<path d="M54.5051 240.901L52.4713 240.494V238.867C52.8781 239.681 54.5051 239.274 54.5051 240.901Z" fill="white"/>
<path d="M126.907 241.308C126.501 241.714 126.094 241.714 125.687 242.121C124.874 241.308 124.06 239.681 125.28 238.867C126.907 238.867 126.501 240.494 126.907 241.308Z" fill="white"/>
<path d="M183.853 245.781C182.226 247.001 180.599 244.967 178.972 244.967C177.752 243.747 178.565 242.12 178.565 240.493L179.379 239.679C179.379 242.12 182.633 243.747 183.853 245.781Z" fill="white" stroke="black" stroke-width="0.1614"/>
<path d="M168.396 241.308C167.99 243.749 172.871 244.969 170.837 247.816C170.023 248.223 169.21 248.63 168.396 248.63C168.803 246.189 166.769 244.969 165.549 242.935C165.956 242.122 167.176 241.308 168.396 241.308Z" fill="white" stroke="black" stroke-width="0.1614"/>
<path d="M143.991 247.816C142.364 247.816 141.144 247.003 140.737 245.376C140.737 244.155 140.33 242.122 141.551 241.308C143.584 242.528 142.364 246.189 143.991 247.816Z" fill="white" stroke="black" stroke-width="0.1614"/>
<path d="M54.0984 243.341V244.154C53.2849 243.747 51.6578 243.747 50.8443 242.934C51.6578 240.9 53.2849 242.527 54.0984 243.341Z" fill="white"/>
<path d="M135.043 268.559L134.636 269.373C131.788 268.152 131.382 264.898 130.161 262.458C124.467 257.17 122.433 249.035 123.653 242.12C124.467 252.289 130.568 260.017 135.043 268.559Z" fill="white" stroke="black" stroke-width="0.1614"/>
<path d="M57.7591 242.527C57.7591 244.561 55.7254 246.188 55.7254 248.222C55.7254 246.595 56.1321 244.154 56.5389 242.527H57.7591Z" fill="white"/>
<path d="M65.0807 242.527C64.2672 245.781 63.4537 249.849 60.1997 252.289C60.1997 252.696 59.7929 253.51 60.6064 253.51C63.047 252.289 64.2672 249.849 65.8942 247.815C64.674 249.442 64.2672 252.696 61.8267 254.323C60.1997 253.51 58.9794 251.476 56.9457 251.883C56.5389 249.849 57.3524 247.002 58.9794 245.781C60.6064 246.595 59.3862 249.849 62.2335 249.035C65.0807 247.408 61.8267 243.341 65.0807 242.527Z" fill="white"/>
<path d="M128.128 246.596L126.907 248.223C124.874 247.409 126.501 245.376 125.687 244.562L127.314 243.342C128.534 243.749 128.941 245.376 128.128 246.596Z" fill="white"/>
<path d="M139.924 247.409L137.483 244.969C137.076 243.749 138.703 243.749 139.517 243.342L139.924 247.409Z" fill="white" stroke="black" stroke-width="0.1614"/>
<path d="M172.871 246.594C172.057 246.188 171.65 244.561 172.057 243.747L174.904 244.967L172.871 246.594Z" fill="white" stroke="black" stroke-width="0.1614"/>
<path d="M167.176 247.816C167.176 249.443 166.363 250.663 164.736 251.476C163.109 251.07 163.922 248.629 162.702 247.409L160.668 244.968C163.922 241.308 165.549 246.595 167.176 247.816Z" fill="white" stroke="black" stroke-width="0.1614"/>
<path d="M71.182 247.815C70.7753 249.442 69.555 247.815 68.7415 247.815C67.5212 247.408 67.928 245.374 68.3348 244.154C69.9618 243.34 72.8091 245.781 71.182 247.815Z" fill="white" stroke="black" stroke-width="0.1614"/>
<path d="M54.0984 250.255C52.8781 251.069 51.2511 250.255 50.4376 249.442L51.2511 244.967C54.5051 244.561 54.0984 247.815 54.0984 250.255Z" fill="white" stroke="black" stroke-width="0.1614"/>
<path d="M122.026 249.85C121.213 250.663 119.586 251.477 118.366 251.07C117.552 250.663 117.145 249.443 117.552 248.63L121.213 245.375C121.213 247.003 122.026 248.223 122.026 249.85Z" fill="white" stroke="black" stroke-width="0.1614"/>
<path d="M162.702 251.882C159.041 253.916 162.295 247.815 158.634 247.408C158.228 246.594 159.041 246.188 159.448 245.781C161.482 247.001 162.295 249.848 162.702 251.882Z" fill="white" stroke="black" stroke-width="0.1614"/>
<path d="M177.752 246.188C176.125 248.629 172.464 249.849 170.023 252.289C165.549 254.323 161.888 259.611 157.007 257.984C157.821 255.543 161.075 256.357 162.702 254.73C167.583 251.883 172.464 248.222 177.752 246.188Z" fill="white"/>
<path d="M49.2173 247.408L48.8105 246.595H49.2173V247.408Z" fill="white"/>
<path d="M71.5888 255.544C71.182 257.578 69.9618 260.425 67.928 260.832C66.301 257.984 58.9794 255.544 64.674 252.29C65.8942 251.476 66.7077 253.51 67.5212 254.324C67.5212 254.73 67.928 255.137 67.1145 255.544L65.0807 254.73C64.2672 255.951 66.301 256.357 66.7077 257.578C67.928 256.357 70.3685 254.324 70.7753 251.883L73.2158 247.002C75.6563 249.442 72.4023 252.697 71.5888 255.544Z" fill="white" stroke="black" stroke-width="0.1614"/>
<path d="M184.26 251.07C182.633 252.29 182.633 254.731 180.192 253.104C179.379 251.477 179.379 248.629 179.786 247.409C181.819 248.223 186.294 248.629 184.26 251.07Z" fill="white" stroke="black" stroke-width="0.1614"/>
<path d="M159.855 251.476C159.855 252.289 159.855 254.73 158.228 255.137C157.414 253.51 156.601 251.069 154.973 249.442C156.194 245.781 159.448 249.442 159.855 251.476Z" fill="white" stroke="black" stroke-width="0.1614"/>
<path d="M181.413 255.543C181.006 257.17 178.972 256.357 178.158 256.357C177.345 256.357 176.531 255.543 176.531 254.73C176.531 252.289 176.125 249.442 178.158 248.222C179.786 250.255 177.345 255.137 181.413 255.543Z" fill="white" stroke="black" stroke-width="0.1614"/>
<path d="M128.534 248.629C130.161 250.256 126.501 250.663 128.128 252.29C129.348 253.103 128.941 250.256 130.161 251.476L128.534 252.696C127.721 251.883 127.314 250.663 127.721 249.036C128.128 249.036 128.128 248.629 128.534 248.629Z" fill="white"/>
<path d="M69.555 251.883C69.1483 252.29 68.3348 252.696 67.928 252.29C67.1145 251.476 66.7078 249.849 67.1145 248.629C68.3348 249.849 70.7753 249.849 69.555 251.883Z" fill="white" stroke="black" stroke-width="0.1614"/>
<path d="M78.0969 250.663H75.6563L76.0631 249.036C76.8766 249.036 77.2834 250.256 78.0969 250.663Z" fill="white" stroke="black" stroke-width="0.1614"/>
<path d="M133.415 251.883C131.382 252.697 130.975 250.256 130.975 249.443L133.415 251.883Z" fill="white" stroke="black" stroke-width="0.1614"/>
<path d="M156.194 255.137L154.567 255.951C154.974 253.917 150.906 250.663 153.753 249.443C154.567 251.477 156.601 252.697 156.194 255.137Z" fill="white" stroke="black" stroke-width="0.1614"/>
<path d="M125.687 272.627C125.28 273.847 123.247 273.847 122.026 273.44C116.332 267.339 114.298 257.984 116.332 250.255C117.145 258.39 119.993 266.119 125.687 272.627Z" fill="white"/>
<path d="M174.904 251.07C174.498 253.917 177.345 257.171 174.498 259.205C170.837 258.798 173.277 254.731 172.464 252.697C173.277 251.883 174.091 251.07 174.904 251.07Z" fill="white" stroke="black" stroke-width="0.1614"/>
<path d="M146.432 253.511C148.465 256.765 150.906 260.019 150.906 263.68C152.533 264.493 151.719 266.934 151.719 268.154C151.313 268.968 150.906 268.561 150.499 268.561C148.872 264.9 146.838 261.239 142.771 258.799C143.178 256.765 146.838 257.172 146.432 254.324C145.618 253.918 142.771 253.511 141.551 254.731V256.765C140.33 256.765 139.924 255.138 139.517 254.324L140.33 251.477C142.364 251.477 144.805 251.884 146.432 253.511Z" fill="white"/>
<path d="M152.94 254.323V255.137C150.906 255.95 149.279 253.51 147.652 252.696C149.279 250.662 152.94 251.476 152.94 254.323Z" fill="white" stroke="black" stroke-width="0.1614"/>
<path d="M78.0969 252.697C78.0969 253.511 78.0969 253.918 77.2834 254.324C76.4699 253.918 72.8091 254.324 74.4361 251.884C75.6563 251.477 77.2834 252.291 78.0969 252.697Z" fill="white" stroke="black" stroke-width="0.1614"/>
<path d="M80.5374 251.882C80.9442 257.576 79.3171 263.678 74.8428 267.745L74.0293 266.932C75.6563 262.051 78.5036 256.763 79.7239 251.882H80.5374Z" fill="white"/>
<path d="M113.891 251.882C113.485 255.949 113.078 260.424 115.112 264.084L110.637 267.338C109.824 267.338 110.231 266.525 110.231 266.118C110.637 262.864 116.739 265.711 113.485 262.457C111.858 262.864 110.231 264.491 109.01 263.271L113.891 260.017C113.078 258.797 111.858 259.61 110.637 260.017L109.01 261.237C108.197 260.83 108.603 259.61 108.603 258.797L113.485 255.543C112.264 254.729 110.637 255.543 109.824 255.949C109.417 256.356 109.01 256.356 109.01 256.356C107.79 253.916 111.858 253.102 113.891 251.882Z" fill="white" stroke="black" stroke-width="0.1614"/>
<path d="M123.247 253.916C123.653 255.949 120.806 255.136 119.586 255.949C118.366 255.949 118.366 254.729 117.959 253.916C117.145 251.882 119.586 252.695 120.399 251.882C122.026 251.882 123.247 252.289 123.247 253.916Z" fill="white" stroke="black" stroke-width="0.1614"/>
<path d="M86.232 254.322V256.356C84.605 257.17 83.7915 254.729 82.5712 253.916L82.978 251.882C83.7915 253.102 85.8252 252.695 86.232 254.322Z" fill="white" stroke="black" stroke-width="0.1614"/>
<path d="M171.244 253.104C171.65 255.544 171.65 258.798 171.244 260.425C170.43 259.205 168.803 259.612 168.396 257.985C167.99 255.951 169.21 253.51 171.244 253.104Z" fill="white" stroke="black" stroke-width="0.1614"/>
<path d="M59.7929 264.492L65.8942 297.032L80.1306 371.875L94.3671 445.091V446.311C92.74 446.718 89.8927 446.718 89.0792 445.091C82.5712 408.889 74.0293 373.909 68.3348 337.301L56.5389 271.813C55.7254 265.712 54.5051 259.611 53.6916 253.916C60.1997 252.696 58.1659 260.831 59.7929 264.492Z" fill="#EE334E" stroke="black" stroke-width="0.1614"/>
<path d="M130.161 254.322C129.755 254.322 129.755 254.322 129.348 254.729C128.534 254.322 129.755 253.916 130.161 253.916V254.322Z" fill="white"/>
<path d="M134.229 254.73V255.543H133.009V254.323C133.822 253.916 133.822 254.323 134.229 254.73Z" fill="white"/>
<path d="M91.113 258.391C90.2995 264.085 91.113 270.593 86.232 274.661C85.4185 274.254 84.605 274.254 83.7914 273.847C86.6387 269.373 87.4522 264.085 87.859 258.798C88.2657 257.984 89.8928 257.984 89.486 256.764C88.6725 256.357 87.0455 256.357 87.4522 254.73C90.2995 254.73 90.2995 256.764 91.113 258.391Z" fill="white"/>
<path d="M131.788 255.951C132.195 256.764 131.382 256.764 130.975 257.171C130.161 256.764 130.161 255.544 130.975 255.137C130.975 255.137 131.382 255.951 131.788 255.951Z" fill="white"/>
<path d="M141.957 260.425V261.238C139.517 260.831 135.856 263.679 134.636 260.018C135.449 258.798 133.009 258.391 134.229 257.171C135.856 256.357 135.856 258.798 137.076 258.391C137.483 257.577 136.67 256.357 135.856 255.95C139.11 255.137 139.11 259.611 141.957 260.425Z" fill="white" stroke="black" stroke-width="0.1614"/>
<path d="M76.8766 257.577C75.2496 257.577 74.0293 257.171 73.2158 256.764C73.2158 255.137 76.0631 255.95 76.8766 256.357V257.577Z" fill="white" stroke="black" stroke-width="0.1614"/>
<path d="M160.261 260.019C160.668 261.646 163.109 260.832 163.922 261.646C167.176 264.086 171.65 263.68 174.904 265.713C174.091 269.781 170.023 269.374 166.769 268.967C159.855 266.934 150.499 265.307 149.279 255.951L149.686 255.544C152.94 257.985 156.194 259.612 160.261 260.019Z" fill="white"/>
<path d="M168.803 261.644C167.176 262.051 165.956 260.831 164.736 259.61C165.142 258.39 164.736 256.356 166.769 255.95C168.396 257.17 167.176 260.017 168.803 261.644Z" fill="white" stroke="black" stroke-width="0.1614"/>
<path d="M106.57 255.951C108.603 262.459 106.57 271.001 113.485 275.882C113.078 276.696 111.858 277.102 111.044 276.696C106.163 271.815 106.163 264.9 104.943 258.392C104.943 257.578 104.536 255.544 106.57 255.951Z" fill="white"/>
<path d="M124.467 257.578C124.874 259.205 123.653 259.205 122.84 259.612C121.62 259.205 119.993 260.832 119.586 258.798C119.179 257.171 123.653 255.138 124.467 257.578Z" fill="white" stroke="black" stroke-width="0.1614"/>
<path d="M86.232 260.017C85.4185 261.644 84.1982 260.831 83.3847 259.61C82.9779 258.797 81.3509 257.577 82.5712 256.356C83.3847 257.577 85.4185 258.39 86.232 260.017Z" fill="white" stroke="black" stroke-width="0.1614"/>
<path d="M97.6211 257.577V258.797C95.9941 258.39 92.74 259.61 92.3333 257.577L92.74 256.356C93.9603 257.17 95.9941 255.95 97.6211 257.577Z" fill="white" stroke="black" stroke-width="0.1614"/>
<path d="M103.316 256.764C103.722 258.391 104.129 260.425 102.909 261.645C101.282 261.239 102.095 259.612 100.875 259.205C100.468 265.306 102.095 273.848 98.0278 278.322H95.9941C96.8076 276.289 98.0278 273.441 97.6211 271.001L96.8076 272.221C95.5873 269.781 90.7063 270.594 91.5198 267.34C93.5535 266.526 95.5873 268.154 96.8076 269.781L97.6211 271.001C99.6549 267.34 99.2481 262.052 99.2481 257.578L100.875 258.798C100.468 257.578 101.689 256.358 103.316 256.764Z" fill="white" stroke="black" stroke-width="0.1614"/>
<path d="M71.9956 267.746L72.8091 269.373C83.7915 277.508 97.2144 285.643 111.451 279.542C119.586 275.068 129.755 275.881 137.076 271H138.703C144.398 279.135 151.719 284.016 159.855 288.49C159.041 293.372 154.974 297.846 152.533 302.727C143.584 316.963 134.229 330.386 125.687 345.029C111.858 357.639 98.8414 369.028 84.605 381.23C78.9104 358.859 75.6564 334.86 70.7753 311.675C67.1145 293.778 63.8605 276.288 60.6064 258.391C65.8943 259.611 67.928 265.712 71.9956 267.746Z" fill="#0066B3" stroke="black" stroke-width="0.538"/>
<path d="M75.6563 259.61C74.8428 261.644 72.8091 259.204 71.5888 259.61L72.4023 257.983C73.2158 258.39 75.2496 257.983 75.6563 259.61Z" fill="white" stroke="black" stroke-width="0.1614"/>
<path d="M135.043 262.051C135.449 262.864 134.636 263.271 134.229 263.678C132.195 263.678 132.195 261.237 131.382 260.017L132.195 257.983C133.416 258.797 134.636 260.424 135.043 262.051Z" fill="white" stroke="black" stroke-width="0.1614"/>
<path d="M163.515 258.797V259.61H161.888C162.295 258.797 163.109 257.983 163.515 258.797Z" fill="white" stroke="black" stroke-width="0.1614"/>
<path d="M176.531 263.272C174.904 264.086 173.277 262.865 171.65 262.865C172.871 260.425 176.125 259.611 178.565 258.798C179.379 260.018 176.938 261.645 176.531 263.272Z" fill="white" stroke="black" stroke-width="0.1614"/>
<path d="M129.348 265.712C130.161 266.932 131.382 268.559 130.161 270.186C129.348 271.406 128.128 272.22 126.501 271.813L124.467 269.372C126.094 268.559 127.721 267.339 129.348 265.712C127.314 265.305 123.653 270.186 122.84 265.712C124.06 265.305 126.094 264.898 126.501 263.271C124.467 262.864 122.026 265.305 120.806 262.458C121.62 261.237 124.06 260.424 126.094 260.017L129.348 265.712Z" fill="white"/>
<path d="M129.348 265.712C130.161 266.932 131.382 268.559 130.161 270.186C129.348 271.406 128.128 272.22 126.501 271.813L124.467 269.372C126.094 268.559 127.721 267.339 129.348 265.712ZM129.348 265.712C127.314 265.305 123.653 270.186 122.84 265.712C124.06 265.305 126.094 264.898 126.501 263.271C124.467 262.864 122.026 265.305 120.806 262.458C121.62 261.237 124.06 260.424 126.094 260.017L129.348 265.712Z" stroke="black" stroke-width="0.1614"/>
<path d="M97.6211 262.053C97.6211 262.866 98.0279 263.68 97.2144 264.086C96.4008 261.646 91.113 264.086 92.3333 260.426C94.3671 259.612 96.8076 260.426 97.6211 262.053Z" fill="white" stroke="black" stroke-width="0.1614"/>
<path d="M86.232 262.458L85.8252 264.899C84.1982 265.712 82.5712 264.492 81.3509 263.678C79.3171 262.865 80.5374 261.238 81.3509 260.424C82.5712 261.238 84.1982 262.865 86.232 262.458Z" fill="white" stroke="black" stroke-width="0.1614"/>
<path d="M74.0293 263.272C74.4361 264.086 73.6226 264.899 73.2158 265.306C71.182 265.713 71.182 263.272 69.9618 262.459C69.555 261.645 71.182 261.645 71.5888 261.238C72.4023 261.645 74.4361 261.645 74.0293 263.272Z" fill="white" stroke="black" stroke-width="0.1614"/>
<path d="M144.805 262.865C142.771 263.679 140.737 264.086 138.297 263.679L137.89 262.865H144.805Z" fill="white" stroke="black" stroke-width="0.1614"/>
<path d="M104.536 264.899C104.536 265.305 104.943 266.526 103.722 266.526H102.909L102.502 263.272C104.129 262.865 104.129 264.085 104.536 264.899Z" fill="white" stroke="black" stroke-width="0.1614"/>
<path d="M137.483 264.9C137.89 265.713 136.67 266.527 136.263 266.934C135.449 267.34 135.043 266.527 134.636 266.12C134.229 264.9 135.449 264.493 135.856 263.68C136.67 263.68 137.076 264.493 137.483 264.9Z" fill="white" stroke="black" stroke-width="0.1614"/>
<path d="M97.2143 267.34C95.5873 267.34 93.5535 266.526 91.9265 265.713C91.9265 264.086 94.3671 263.679 95.1806 264.899C95.5873 265.713 97.2143 266.12 97.2143 267.34Z" fill="white" stroke="black" stroke-width="0.1614"/>
<path d="M148.059 269.78C146.838 270.593 145.618 270.593 144.398 270.186C142.771 269.373 143.584 267.339 143.584 265.712C144.398 264.492 145.618 264.898 146.432 264.492C146.838 266.525 148.872 267.339 148.059 269.78Z" fill="white" stroke="black" stroke-width="0.1614"/>
<path d="M85.0117 267.339V268.152C83.3847 268.559 80.5374 268.966 79.7239 266.525L79.3171 264.492C80.9442 266.119 83.3847 266.525 85.0117 267.339Z" fill="white" stroke="black" stroke-width="0.1614"/>
<path d="M141.957 268.153C140.737 268.153 139.924 266.526 139.11 265.712C139.517 264.899 141.144 265.306 142.364 265.712L141.957 268.153Z" fill="white" stroke="black" stroke-width="0.1614"/>
<path d="M155.787 266.934C155.38 267.747 154.16 268.154 153.346 267.747L153.753 265.713L155.787 266.934Z" fill="white" stroke="black" stroke-width="0.1614"/>
<path d="M116.332 267.746C113.891 267.339 112.671 271.814 110.637 269.78C111.858 267.746 114.705 264.899 116.332 267.746Z" fill="white" stroke="black" stroke-width="0.1614"/>
<path d="M83.3847 270.186C82.978 271 82.5712 273.847 80.9442 272.627C78.9104 271.406 77.6901 270.186 76.4699 268.966C76.8766 268.559 76.4699 266.525 78.0969 266.525C79.3172 268.152 80.9442 271.406 83.3847 270.186Z" fill="white" stroke="black" stroke-width="0.1614"/>
<path d="M139.11 267.746C138.297 268.153 137.89 268.966 137.076 268.56C137.076 267.746 138.297 266.933 139.11 267.746Z" fill="white" stroke="black" stroke-width="0.1614"/>
<path d="M104.943 269.373C105.756 271 104.129 270.187 103.316 270.593C102.909 270.593 102.502 270.187 102.502 269.78C101.282 267.746 105.349 266.933 104.943 269.373Z" fill="white" stroke="black" stroke-width="0.1614"/>
<path d="M157.414 268.56C156.601 269.78 154.567 270.187 152.94 270.593C154.16 268.966 155.787 268.56 157.414 268.56Z" fill="white"/>
<path d="M164.736 272.628C165.142 273.441 165.142 274.255 165.142 275.068C164.329 275.068 164.329 275.882 163.515 275.882L159.448 270.187C161.482 267.747 164.736 270.594 164.736 272.628Z" fill="white" stroke="black" stroke-width="0.1614"/>
<path d="M144.398 273.035C146.432 272.628 150.092 272.628 151.719 275.069C152.94 275.069 152.533 276.696 153.346 277.509C152.94 278.729 151.719 278.729 150.906 279.136C148.059 278.729 144.805 275.882 144.398 273.035C143.584 273.035 142.364 271.815 141.957 270.594L142.364 269.781C142.364 271.001 146.025 271.001 144.398 273.035Z" fill="white"/>
<path d="M144.398 273.035C146.432 272.628 150.092 272.628 151.719 275.069C152.94 275.069 152.533 276.696 153.346 277.509C152.94 278.729 151.719 278.729 150.906 279.136C148.059 278.729 144.805 275.882 144.398 273.035ZM144.398 273.035C143.584 273.035 142.364 271.815 141.957 270.594L142.364 269.781C142.364 271.001 146.025 271.001 144.398 273.035Z" stroke="black" stroke-width="0.1614"/>
<path d="M132.602 269.78C132.602 270.187 132.602 270.594 132.195 270.594H131.382C131.788 270.594 131.788 269.374 132.602 269.78Z" fill="white"/>
<path d="M117.552 270.593C116.332 271.406 114.705 272.627 113.485 274.254C112.671 273.847 112.264 273.033 112.671 271.813C113.891 270.186 115.925 269.779 117.552 270.593Z" fill="white" stroke="black" stroke-width="0.1614"/>
<path d="M161.482 276.694C160.668 276.694 160.261 278.321 159.041 277.508C160.261 273.847 150.092 271.406 157.821 270.186C159.041 272.627 161.888 273.847 161.482 276.694Z" fill="white" stroke="black" stroke-width="0.1614"/>
<path d="M168.396 272.628C169.617 272.221 169.617 270.187 171.244 271.407C170.43 272.221 170.43 273.441 169.21 273.848C166.363 275.882 165.956 271.814 165.142 270.187C167.176 269.78 168.803 271.001 168.396 272.628Z" fill="white" stroke="black" stroke-width="0.1614"/>
<path d="M95.5873 274.661C93.9603 274.661 91.9265 273.441 89.8928 273.441C89.0793 272.628 89.8928 271.407 90.7063 271.001C93.5536 269.78 94.3671 273.848 95.5873 274.661Z" fill="white" stroke="black" stroke-width="0.1614"/>
<path d="M106.57 273.44C106.976 275.474 104.536 275.067 103.316 275.474C102.502 275.474 101.282 275.881 101.282 274.66C102.095 273.847 100.875 271.813 102.502 271.406C103.722 271 106.163 271.406 106.57 273.44Z" fill="white" stroke="black" stroke-width="0.1614"/>
<path d="M157.007 277.915C153.346 279.542 154.16 273.034 150.499 272.628C153.753 269.373 154.567 275.475 157.007 275.882V277.915Z" fill="white" stroke="black" stroke-width="0.1614"/>
<path d="M120.399 273.847C119.586 275.474 116.739 275.067 115.112 275.474C114.705 274.254 115.925 273.847 116.332 273.44C117.552 273.44 119.586 272.627 120.399 273.847Z" fill="white" stroke="black" stroke-width="0.1614"/>
<path d="M94.3671 276.695C94.3671 277.508 94.3671 277.915 93.5536 278.322C91.5198 277.508 87.4522 277.508 87.4522 274.661C88.6725 273.848 91.113 274.254 92.74 275.068C93.5536 275.881 93.9603 276.288 94.3671 276.695Z" fill="white" stroke="black" stroke-width="0.1614"/>
<path d="M167.176 278.322C163.109 280.763 157.821 281.576 152.533 281.576C152.126 281.17 151.719 280.763 151.719 280.356C157.007 279.136 163.109 279.136 167.583 275.475C168.803 276.289 167.176 277.509 167.176 278.322Z" fill="white"/>
<path d="M109.417 277.509C106.57 278.322 102.909 279.949 100.062 278.322C100.468 275.475 104.943 277.509 106.57 275.475C108.603 274.661 107.79 277.102 109.417 277.509Z" fill="white" stroke="black" stroke-width="0.1614"/>
<path d="M165.142 281.169C163.922 282.796 163.515 286.864 161.075 286.05C159.448 284.83 157.414 284.83 156.194 283.203C159.041 281.982 162.295 281.982 165.142 281.169Z" fill="white" stroke="black" stroke-width="0.1614"/>
<path d="M250.154 307.607C255.035 310.454 261.136 309.641 266.017 312.081C264.39 319.81 266.831 329.572 261.543 336.08C259.509 336.487 258.289 333.64 256.255 333.233C242.426 329.165 231.037 319.81 220.868 309.234L220.054 308.421C223.715 304.353 229.41 303.54 234.291 300.692C239.172 303.54 245.273 303.946 250.154 307.607Z" fill="#EE334E"/>
<path d="M220.461 311.677C223.308 314.524 224.935 316.558 228.189 319.405C234.697 327.54 244.053 331.201 252.595 335.269C253.408 337.302 254.222 338.929 252.595 340.963C250.561 344.217 246.493 348.691 242.832 349.912C237.951 353.573 232.664 356.013 227.783 360.081C224.935 361.301 222.088 364.148 219.241 364.962C218.834 363.335 218.02 360.894 215.58 360.081C209.479 360.894 204.598 364.962 198.903 365.368C200.123 364.555 199.716 362.521 199.31 361.301C195.649 357.233 189.954 360.894 185.48 360.081C176.938 357.64 170.43 351.539 160.668 352.352L153.346 352.759C153.753 347.471 156.601 342.183 157.414 336.489C176.938 326.727 197.276 318.592 216.8 308.83C216.393 308.423 219.647 310.863 220.461 311.677Z" fill="#EE334E"/>
<path d="M230.63 330.794C232.664 334.454 236.324 336.895 238.765 339.742C240.392 341.776 243.646 340.962 244.053 343.81C235.104 341.369 229.41 331.2 223.308 324.285L216.8 316.15C222.902 319.404 226.156 325.913 230.63 330.794Z" fill="black"/>
<path d="M236.324 347.063C236.324 347.47 236.731 347.877 235.918 348.284C225.342 344.216 224.122 331.607 215.987 325.099L216.393 323.878C224.529 330.386 226.156 341.776 236.324 347.063Z" fill="black"/>
<path d="M189.954 334.047C193.208 340.555 193.615 348.284 198.903 353.571V354.385L197.683 353.978C192.802 347.877 191.175 340.148 187.921 333.234C187.107 331.2 185.073 329.98 185.073 327.946C186.7 329.573 189.141 332.013 189.954 334.047Z" fill="black"/>
<path d="M204.191 332.42C209.479 340.148 211.512 349.91 219.241 356.825V359.672C217.614 358.452 216.393 356.418 215.173 353.978C209.479 346.249 206.631 336.487 199.31 329.572C200.53 328.352 202.564 330.793 204.191 332.42Z" fill="black"/>
<path d="M188.734 339.334C191.175 345.436 191.581 352.351 194.429 358.045C190.361 356.825 190.361 351.537 189.548 347.469C187.107 342.588 187.107 336.487 182.633 332.42L182.226 329.166C185.073 331.606 187.107 335.674 188.734 339.334Z" fill="black"/>
<path d="M196.462 333.64C202.157 341.368 203.784 350.317 211.106 356.825C209.072 357.638 207.038 354.384 205.004 353.164C205.004 349.096 200.123 346.656 200.123 342.588C198.903 339.334 195.649 336.894 194.835 333.233L196.462 333.64Z" fill="black"/>
<path d="M154.567 336.896C153.753 342.997 150.499 348.691 150.092 355.199C150.092 359.674 150.092 363.335 152.126 366.589C161.075 375.13 165.549 387.333 171.244 397.909C174.091 404.01 177.345 410.111 179.786 416.213C178.159 417.84 179.786 419.873 180.192 421.094C182.633 423.534 183.04 427.602 185.073 430.856C183.446 432.89 180.192 432.89 179.379 435.737C180.192 439.804 176.125 441.431 175.311 444.685C170.837 444.279 168.803 452.007 163.922 449.567C160.261 450.38 159.448 454.854 159.041 457.702C133.415 461.769 103.722 474.785 78.0969 460.956C70.3685 457.702 63.4537 452.007 58.1659 445.092C56.9456 444.685 54.5051 444.685 54.0984 446.719C54.5051 451.6 58.9794 454.854 62.6402 458.515C78.0969 471.531 98.4346 475.192 118.772 473.158C137.89 468.684 159.041 464.616 178.565 460.142C208.665 453.227 238.358 446.312 268.865 440.618C276.186 438.584 285.135 438.177 290.016 430.856C288.389 427.195 292.457 428.009 294.084 426.788C319.709 423.127 344.114 414.992 369.74 410.925C366.079 446.312 334.352 476.819 301.812 487.801C295.304 489.835 281.067 493.903 270.899 493.496C242.426 496.343 213.546 510.173 200.53 537.832H199.716C185.48 513.02 160.261 493.903 130.568 493.903C100.875 492.683 74.0293 483.327 54.0984 460.549C48.8105 457.702 46.37 451.194 42.3025 446.719C39.0484 441.025 35.7944 434.923 33.7606 428.415L34.5741 426.382C48.4038 414.586 63.047 401.569 77.2834 390.587L89.0793 446.312C91.5198 447.939 94.3671 446.312 97.2143 446.312C97.2143 437.771 87.859 395.468 85.8252 382.452C98.0278 371.063 111.451 360.081 124.06 349.098C123.653 350.318 150.092 338.116 154.567 336.896Z" fill="white" stroke="black" stroke-width="0.538"/>
<path d="M248.12 353.977V355.198C247.307 355.198 245.273 354.791 246.087 356.418C245.68 357.231 246.493 357.638 246.9 358.452C249.341 358.859 251.781 356.418 253.408 358.045C254.222 360.079 249.341 360.892 252.595 362.926C257.069 359.265 262.357 357.638 268.458 358.859C279.847 360.892 289.609 369.841 297.744 377.569C297.744 381.637 294.897 385.298 293.677 389.772C278.22 389.365 266.831 378.79 252.595 375.535C243.239 374.315 233.477 372.688 228.596 363.74C233.477 359.265 239.578 356.418 245.273 353.164C246.493 352.757 247.307 353.164 248.12 353.977Z" fill="#EE334E" stroke="black" stroke-width="0.269"/>
<path d="M177.752 359.674C177.752 361.301 176.125 360.894 175.311 362.114C174.091 362.114 173.277 361.301 172.464 362.521C172.057 363.335 173.277 363.741 174.091 364.148C174.904 364.148 175.718 363.741 176.125 364.555C175.718 366.589 172.057 367.402 173.684 369.436C174.904 368.216 176.938 368.216 178.159 369.436C187.107 377.978 190.361 390.181 193.208 401.57C194.022 404.417 192.802 408.078 195.242 409.705C191.581 413.772 186.7 414.993 181.819 415.399C172.464 399.536 166.769 382.045 156.194 367.402C154.567 366.589 152.94 365.368 152.533 363.335C152.533 360.487 150.906 355.606 153.753 354.386C163.109 353.573 171.244 355.2 177.752 359.674Z" fill="#EE334E" stroke="black" stroke-width="0.269"/>
<path d="M193.208 361.707C195.242 363.74 194.835 368.215 198.496 367.808C204.598 369.842 209.479 360.486 213.953 367.401C218.427 368.215 222.495 366.588 226.156 363.74C230.223 368.621 233.884 373.096 239.172 374.723C259.509 375.536 273.746 389.773 293.677 391.4C293.27 393.027 294.084 394.247 295.711 395.06C298.965 391.4 300.998 397.501 304.659 396.281C305.066 396.688 305.473 397.094 305.473 397.908C303.846 397.908 302.219 399.128 301.812 400.348C301.405 403.196 301.405 406.45 304.659 407.263C307.913 406.043 308.32 409.704 308.727 410.924C307.913 414.585 301.405 414.585 302.219 419.872C272.526 424.347 236.324 440.617 208.258 420.279C205.818 419.466 203.377 415.398 200.123 417.432C198.496 414.585 199.716 410.924 196.462 408.89C194.835 393.027 189.954 377.977 178.565 366.994C178.972 364.961 178.565 361.3 181.413 360.486C184.667 361.707 189.141 362.113 193.208 361.707Z" fill="white"/>
<path d="M197.276 363.333C196.462 363.74 196.462 362.927 196.056 362.52C195.649 361.706 196.869 361.3 197.276 361.706V363.333Z" fill="#EE334E"/>
<path d="M216.8 363.333C217.207 364.553 215.987 364.96 215.58 365.367C214.36 365.367 213.953 364.146 213.139 363.333C213.953 362.926 215.58 361.299 216.8 363.333Z" fill="#EE334E"/>
<path d="M300.998 382.044C300.592 382.45 299.778 382.857 300.185 383.671C301.812 384.891 301.405 382.45 302.625 382.45C303.439 383.671 301.812 385.704 303.846 386.111C303.032 384.077 305.066 382.45 304.659 380.01C311.167 377.976 314.828 384.484 320.116 385.704C315.235 388.959 318.896 401.161 309.947 397.094L309.134 396.28C311.574 395.06 314.015 392.213 313.608 389.772H312.794L307.1 396.28C305.066 393.026 300.185 394.653 298.151 391.399C297.338 391.806 296.931 392.619 296.117 393.026C295.711 386.925 298.965 382.044 300.185 376.349C301.405 377.569 301.405 380.01 300.998 382.044Z" fill="#FEC340"/>
<path d="M324.183 384.079C322.963 390.18 318.489 394.654 316.862 400.756C313.608 399.129 309.947 402.789 307.507 398.722L308.32 397.908L314.828 398.722C318.082 394.247 318.896 388.146 322.15 383.672L324.183 384.079Z" fill="#FEC340"/>
<path d="M327.437 389.773C327.437 393.433 324.997 395.467 323.37 398.721C322.15 404.416 321.336 409.297 321.336 414.991C319.709 415.398 319.302 413.364 318.489 412.551C319.302 408.077 316.862 402.382 319.302 397.501L324.997 386.925C326.217 388.146 327.437 388.552 327.437 389.773Z" fill="#FEC340"/>
<path d="M308.727 401.163C308.727 401.976 307.913 401.976 307.507 401.976C306.693 401.569 306.693 400.349 307.507 399.942C307.507 400.349 308.32 400.349 308.727 401.163Z" fill="#FEC340"/>
<path d="M305.066 404.822L303.032 404.415C302.219 403.195 302.625 401.161 303.846 400.754H304.659L305.066 404.822Z" fill="#FEC340"/>
<path d="M316.455 402.382C313.608 403.195 309.947 404.416 307.1 404.416C309.134 402.382 312.794 400.755 316.455 402.382Z" fill="#FEC340"/>
<path d="M317.675 410.111C316.048 410.111 314.015 407.67 311.981 407.264C310.761 407.264 309.54 407.67 308.32 406.857C308.727 404.01 312.388 405.637 314.015 404.416C318.489 403.603 316.455 408.484 317.675 410.111Z" fill="#FEC340"/>
<path d="M314.421 410.109H309.54V408.482C311.167 408.889 313.201 408.482 314.421 410.109Z" fill="#FEC340"/>
<path d="M369.74 410.109L323.777 419.872C322.963 417.024 327.031 417.838 328.658 416.618C342.081 413.363 355.504 410.923 369.333 408.482L369.74 410.109Z" fill="white" stroke="black" stroke-width="0.1076"/>
<path d="M321.743 418.652C322.556 419.872 320.523 419.872 320.116 420.686C316.455 418.652 313.201 415.805 310.354 412.957V412.144C315.235 411.737 319.302 414.991 321.743 418.652Z" fill="white" stroke="black" stroke-width="0.269"/>
<path d="M197.276 412.55C198.496 416.617 192.395 417.838 192.802 421.092C194.022 421.498 194.022 419.871 194.429 419.465L197.683 417.024C199.716 421.092 196.869 426.379 200.937 430.04C200.123 432.888 195.649 432.481 195.649 435.328C197.276 434.921 198.496 432.074 200.53 433.701C199.31 434.921 196.869 435.735 195.649 437.362C197.683 438.175 198.903 435.735 200.937 435.328C201.75 435.735 202.157 436.548 202.157 437.362L196.056 439.396C193.615 436.548 190.768 434.108 187.107 433.294C187.107 427.6 183.853 423.125 181.819 418.244C186.7 417.024 192.395 416.211 197.276 412.55Z" fill="#FEC340"/>
<path d="M316.048 419.466C316.862 420.279 316.455 419.873 316.862 420.686L316.048 421.5C279.847 425.974 237.951 446.718 204.191 423.127C202.971 422.313 202.157 420.686 202.157 419.466C205.004 419.873 207.445 422.313 209.885 423.94C232.257 440.21 271.712 427.601 289.609 424.347C291.643 423.94 316.048 419.873 316.048 419.466C317.675 419.466 316.048 419.466 315.642 419.466H316.048Z" fill="white"/>
<path d="M316.048 419.466C316.862 420.279 316.455 419.873 316.862 420.686L316.048 421.5C279.847 425.974 237.951 446.718 204.191 423.127C202.971 422.313 202.157 420.686 202.157 419.466C205.004 419.873 207.445 422.313 209.885 423.94C232.257 440.21 271.712 427.601 289.609 424.347C291.643 423.94 316.048 419.873 316.048 419.466ZM316.048 419.466C317.675 419.466 316.048 419.466 315.642 419.466" stroke="black" stroke-width="0.1076"/>
<path d="M313.608 419.058C312.388 419.058 311.167 419.872 309.54 419.465C307.507 419.465 306.286 419.872 304.252 419.872C301.405 415.397 307.913 417.431 309.54 414.584C311.167 415.804 313.608 416.618 315.235 418.245L313.608 419.058Z" fill="#FEC340"/>
<path d="M210.292 430.042C231.85 441.025 258.696 435.737 281.474 431.263L279.034 433.296L208.665 448.346C209.885 445.499 207.038 442.652 208.665 439.804C209.072 438.177 207.445 436.957 206.225 436.144C200.53 435.33 204.598 428.009 200.123 425.161V422.314L210.292 430.042Z" fill="white"/>
<path d="M286.762 430.854C286.355 435.328 280.661 434.515 277.813 436.955C245.273 443.463 213.953 451.192 181.819 458.107C181.413 457.293 182.226 455.259 183.446 454.853C214.36 450.785 243.239 442.243 273.339 436.549C277.813 435.328 282.288 432.888 286.762 430.854Z" fill="white" stroke="black" stroke-width="0.1076"/>
<path d="M185.073 435.329C185.073 437.363 183.446 437.77 181.819 438.177C180.599 438.177 181.006 436.55 181.413 436.143C182.226 434.516 183.853 435.329 185.073 435.329Z" fill="#FEC340"/>
<path d="M193.208 438.989C193.208 442.65 199.716 441.836 196.462 445.497C195.649 445.091 192.802 446.718 193.208 444.277V443.463L185.073 438.989C186.7 438.176 185.48 433.701 188.734 435.328L193.208 438.989Z" fill="#FEC340"/>
<path d="M206.225 438.99C205.004 442.244 201.75 441.43 199.716 442.651C198.903 442.651 198.496 441.43 197.683 441.43C198.496 438.583 202.157 438.583 204.598 437.77C205.004 438.99 206.225 438.583 206.225 438.99Z" fill="#FEC340"/>
<path d="M190.768 445.092C188.734 448.346 185.073 450.786 181.413 451.6C180.599 448.346 174.091 445.498 178.972 442.244C181.006 440.617 183.853 440.21 185.887 441.431C187.921 441.837 189.954 443.464 190.768 445.092Z" fill="#FEC340"/>
<path d="M207.038 444.277C207.852 447.124 205.004 448.344 203.377 449.158C199.717 450.785 195.242 451.598 191.175 452.005H190.361C191.175 449.971 193.208 448.344 195.242 447.124C200.123 447.938 202.971 440.209 207.038 444.277Z" fill="#FEC340"/>
<path d="M192.802 447.124C189.954 449.972 186.7 454.853 182.226 453.633C185.073 451.599 189.548 449.972 191.581 446.718C191.988 445.904 192.395 446.718 192.802 447.124Z" fill="#FEC340"/>
<path d="M180.192 456.075C178.565 457.295 178.159 459.329 176.125 459.329C175.718 455.668 172.871 452.821 170.837 449.567C171.244 447.533 173.684 447.533 174.904 446.719C178.565 447.94 179.786 452.414 180.192 456.075Z" fill="white" stroke="black" stroke-width="0.269"/>
<path d="M65.8942 456.074C71.1821 462.582 79.3172 463.395 86.6387 467.056C115.518 475.598 143.178 461.768 170.837 458.107C171.65 457.294 172.464 457.701 173.277 457.701C174.091 458.107 174.091 459.328 173.684 459.734C141.551 464.615 93.1468 487.394 62.6402 455.667C60.1997 453.226 56.9457 451.599 56.1321 447.938C59.7929 449.159 61.8267 453.633 65.8942 456.074Z" fill="white" stroke="black" stroke-width="0.1076"/>
<path d="M169.21 454.446C170.023 454.039 170.023 453.225 170.837 453.632L172.057 455.666C170.43 457.293 167.176 456.073 165.549 457.7L160.261 456.886C160.668 455.666 160.668 452.819 162.702 452.819C165.142 451.192 167.99 452.005 169.21 454.446Z" fill="#FEC340"/>
<path d="M232.664 222.19C238.729 222.19 243.646 217.273 243.646 211.208C243.646 205.143 238.729 200.226 232.664 200.226C226.598 200.226 221.681 205.143 221.681 211.208C221.681 217.273 226.598 222.19 232.664 222.19Z" fill="#EE334E" stroke="black" stroke-width="0.3766"/>
<path d="M232.664 218.123C236.483 218.123 239.578 215.027 239.578 211.208C239.578 207.389 236.483 204.293 232.664 204.293C228.845 204.293 225.749 207.389 225.749 211.208C225.749 215.027 228.845 218.123 232.664 218.123Z" fill="#EE334E" stroke="black" stroke-width="0.3766"/>
<path d="M271.712 268.153C277.777 268.153 282.694 263.236 282.694 257.17C282.694 251.105 277.777 246.188 271.712 246.188C265.647 246.188 260.73 251.105 260.73 257.17C260.73 263.236 265.647 268.153 271.712 268.153Z" fill="white" stroke="black" stroke-width="0.3766"/>
<path d="M271.712 264.085C275.531 264.085 278.627 260.989 278.627 257.17C278.627 253.351 275.531 250.255 271.712 250.255C267.893 250.255 264.797 253.351 264.797 257.17C264.797 260.989 267.893 264.085 271.712 264.085Z" fill="white" stroke="black" stroke-width="0.3766"/>
<path d="M107.79 57.8608C104.943 53.7933 101.282 55.4203 99.6549 56.2338C96.8076 57.4541 97.6211 61.5216 98.0279 63.1486C98.4346 64.7757 109.417 83.4864 109.824 83.4864C110.231 83.4864 117.959 78.6053 118.772 78.6053C118.772 78.6053 111.044 62.3351 107.79 57.8608ZM194.429 32.6421C192.802 34.6758 192.802 37.5231 192.802 38.3366C192.802 39.1501 193.615 60.3014 194.022 60.3014C194.429 60.3014 201.344 60.3014 202.157 60.3014C202.971 60.3014 207.445 60.3014 207.445 60.3014C207.445 60.3014 207.445 41.1839 206.631 35.8961C206.225 30.6083 199.717 28.9813 199.31 29.7948C199.31 29.7948 197.276 28.9813 194.429 32.6421ZM202.157 75.3513C193.615 75.3513 176.125 74.5378 158.228 80.2323C137.483 86.7404 127.314 90.808 107.383 103.417L104.129 103.824H101.689L93.1468 92.435L97.6211 89.1809L78.0969 58.2676L71.1821 61.5216L56.5389 44.0312C56.5389 44.0312 74.0293 31.4218 76.4699 30.6083C78.0969 30.2015 82.9779 40.7771 82.9779 40.7771C82.9779 40.7771 94.7738 33.8623 96.4008 33.8623C97.6211 33.4556 92.3333 24.1002 92.3333 24.1002C92.3333 24.1002 111.858 14.3381 113.485 15.1516C114.705 15.5584 121.62 35.4893 121.62 35.4893L116.332 38.3366C116.332 38.3366 116.739 40.7771 117.552 40.7771C118.366 40.3704 130.161 35.4893 130.975 36.3028C131.788 37.1164 133.416 45.6582 134.636 45.6582C136.263 46.065 151.719 41.1839 152.94 41.1839C154.16 41.1839 151.313 31.4218 151.313 31.4218C151.313 31.4218 165.956 28.1678 167.176 28.5745C167.583 28.5745 167.176 24.507 167.176 24.507C167.176 24.507 158.634 24.9137 157.414 25.3205C156.194 26.134 152.533 4.57599 152.533 4.57599C152.533 4.57599 174.091 1.32195 175.311 2.13546C176.531 2.94897 175.718 8.64354 177.752 9.05029C179.786 9.8638 185.48 9.8638 186.7 9.05029C187.921 8.23678 185.887 0.101689 186.7 0.101689C187.514 0.101689 209.885 -0.305066 212.326 0.508443C213.546 0.915198 211.919 9.05029 211.919 9.05029C211.919 9.05029 222.088 9.8638 222.902 9.45704C223.715 9.05029 223.715 0.915198 225.342 0.915198C226.562 0.915198 246.087 3.35573 246.087 4.57599C246.087 5.79625 242.019 26.9475 242.019 26.9475L231.85 24.9137C231.85 24.9137 231.037 28.1678 231.443 28.1678C232.664 28.1678 248.934 32.2353 248.934 32.2353L247.307 41.5907L263.984 45.6582C263.984 45.6582 266.424 36.7096 267.238 36.7096C270.085 37.5231 281.881 42.4042 281.881 42.4042L283.101 39.9636L275.78 37.1164C275.78 37.1164 282.694 16.3719 283.915 16.3719C285.135 16.3719 303.846 25.3205 303.846 25.3205L300.998 32.6421L307.507 35.8961L314.015 39.5569L318.489 32.6421C318.489 32.6421 334.352 41.1839 335.979 42.8109C336.793 43.6244 324.59 61.1149 324.59 61.1149L318.896 57.4541L300.998 91.2147L305.066 94.4688L299.371 103.011C299.371 103.011 295.304 103.417 292.457 103.417C291.643 103.417 292.863 103.417 292.863 103.417C292.863 103.417 261.95 86.7404 250.561 83.4864C242.426 81.8594 226.562 75.3513 202.157 75.3513ZM296.117 57.4541C294.084 57.4541 292.863 59.0811 291.643 60.7081C290.423 62.3351 282.288 80.2323 281.881 80.6391C281.474 81.0458 288.389 84.2999 288.796 84.2999C289.203 84.2999 298.151 65.1824 298.965 63.5554C299.778 61.9284 300.592 59.0811 298.151 57.4541C297.744 57.8608 298.151 57.8608 296.117 57.4541Z" fill="black"/>
<path d="M66.301 50.5401C66.7078 50.1334 78.9104 42.8118 79.7239 42.8118C80.5374 42.405 75.6564 35.897 75.6564 35.897C75.6564 35.897 67.5213 39.9645 62.6402 44.4388C60.6065 45.6591 66.301 50.5401 66.301 50.5401Z" fill="#FEC340"/>
<path d="M100.875 32.2359C101.689 31.8291 106.57 29.3886 108.197 28.5751C109.824 27.7616 114.705 25.7278 115.112 25.321C115.112 24.9143 112.671 19.2197 111.858 19.2197C111.044 19.2197 99.2481 24.1008 97.2144 25.321C97.2144 25.7278 99.6549 33.0494 100.875 32.2359Z" fill="#FEC340"/>
<path d="M90.2995 40.3696C88.2658 40.3696 65.8943 54.1993 67.928 52.979C67.5213 52.979 70.7753 57.0466 71.1821 57.0466C79.7239 51.352 90.7063 45.6574 92.3333 44.8439C92.7401 44.8439 90.7063 40.3696 90.2995 40.3696Z" fill="#FEC340"/>
<path d="M95.5873 44.0307C104.943 39.1497 106.57 38.3362 118.366 33.4551C117.959 33.4551 116.739 29.3875 115.925 28.9808C115.112 28.574 97.2144 36.3024 92.7401 39.1497C92.7401 39.1497 95.9941 43.624 95.5873 44.0307Z" fill="#FEC340"/>
<path d="M106.976 85.1132C106.976 85.1132 104.536 80.6389 103.722 79.8254C102.909 79.0119 96.4008 67.6228 94.7738 63.1485C93.1468 58.2674 94.7738 55.4201 96.8076 53.3863C98.8414 51.3526 100.468 51.7593 102.502 51.3526C104.943 50.9458 107.79 52.9796 109.417 54.6066C111.044 56.2336 121.62 77.3849 122.026 77.3849C122.433 77.3849 128.128 74.1308 128.128 74.1308L113.078 39.9634C113.078 39.9634 113.078 39.9634 111.858 39.5567C110.637 39.1499 84.605 52.1661 80.9442 55.8269C80.1307 56.6404 100.062 87.9605 100.468 88.3672C100.875 88.774 105.756 85.9267 106.976 85.1132Z" fill="#FEC340"/>
<path d="M121.62 50.1321C121.62 50.1321 121.62 50.1321 122.84 49.7254C124.06 48.9119 131.788 46.4714 131.788 46.0646C131.788 46.0646 129.755 39.5565 129.348 39.1498C128.941 38.743 121.62 41.5903 118.366 42.8106L121.62 50.1321Z" fill="#FEC340"/>
<path d="M122.84 52.5737C122.84 52.5737 126.501 61.1156 126.501 61.5223C126.501 61.5223 128.941 60.7088 128.534 60.7088L124.467 52.167L122.84 52.5737Z" fill="#FEC340"/>
<path d="M127.721 50.9455L131.382 59.4873C131.382 59.4873 140.33 56.64 145.618 55.4198C146.025 55.4198 142.364 46.8779 142.364 46.8779C142.364 46.8779 131.788 48.9117 127.721 50.9455Z" fill="#FEC340"/>
<path d="M145.618 46.0656L148.059 54.6074C148.059 54.6074 163.109 50.9466 164.329 50.9466C165.549 50.9466 162.702 41.998 162.702 41.998C162.702 41.998 152.94 43.6251 145.618 46.0656Z" fill="#FEC340"/>
<path d="M155.38 33.0494C155.38 33.0494 156.194 40.371 156.601 39.9642C157.007 39.9642 169.21 37.5237 169.21 37.5237C169.617 37.5237 168.803 31.4224 168.396 31.4224C168.396 31.4224 160.668 31.8291 155.38 33.0494Z" fill="#FEC340"/>
<path d="M165.549 41.5904L167.176 50.1322L170.837 48.9119L170.023 40.7769C170.023 41.1836 165.549 41.5904 165.549 41.5904Z" fill="#FEC340"/>
<path d="M128.128 64.7748C128.128 64.7748 131.382 73.3167 131.788 73.3167C132.195 73.3167 139.517 70.0626 139.517 70.0626C137.89 65.1816 137.076 62.741 136.263 61.9275C136.263 61.114 128.128 64.7748 128.128 64.7748Z" fill="#FEC340"/>
<path d="M143.178 68.8423C142.364 68.8423 154.973 65.5883 156.601 65.1815C158.228 64.7747 157.414 65.1815 157.414 65.1815L155.787 56.6396C155.787 56.6396 141.957 59.8937 140.737 60.7072C139.517 61.5207 143.178 68.8423 143.178 68.8423Z" fill="#FEC340"/>
<path d="M160.668 64.3679C160.261 64.3679 171.65 62.3341 172.464 62.3341C172.871 62.3341 172.057 53.7923 171.65 53.3855C171.244 52.9788 161.888 54.6058 160.261 55.0126C158.634 55.8261 159.448 55.4193 159.448 55.4193L160.668 64.3679Z" fill="#FEC340"/>
<path d="M156.194 6.60994C156.194 6.60994 156.194 11.491 156.601 11.491C157.414 11.491 172.871 9.86398 173.684 9.86398C174.498 9.86398 173.684 4.98293 173.277 4.57617C173.277 4.57617 156.194 6.60994 156.194 6.60994Z" fill="#FEC340"/>
<path d="M157.821 14.7442L158.634 21.2523C158.634 21.2523 170.43 19.6253 180.599 19.6253C181.819 19.6253 180.599 12.3037 180.599 12.3037C180.599 12.3037 169.617 12.3037 168.396 12.7105C167.583 13.524 157.821 14.7442 157.821 14.7442Z" fill="#FEC340"/>
<path d="M190.361 3.76172V8.64277H208.665L209.072 3.76172H190.361Z" fill="#FEC340"/>
<path d="M183.853 12.3052C183.853 12.3052 183.04 20.0335 183.853 19.6268C184.26 19.6268 215.173 19.6268 215.58 20.0335C215.987 20.4403 215.987 12.3052 215.987 12.3052C215.987 12.3052 203.784 11.4917 201.344 11.4917C198.903 11.8985 183.853 12.3052 183.853 12.3052Z" fill="#FEC340"/>
<path d="M218.834 13.1182C218.834 13.1182 217.614 20.4397 218.427 20.4397C219.241 20.4397 228.596 21.2533 230.223 21.2533C231.85 21.2533 237.951 22.8803 238.358 22.8803C238.765 22.8803 239.985 15.5587 239.985 15.5587C239.985 15.5587 232.664 14.3384 231.443 14.3384C230.63 13.9317 219.241 13.1182 218.834 13.1182Z" fill="#FEC340"/>
<path d="M226.562 10.2707C229.003 10.6775 239.172 12.3045 239.985 12.3045C240.799 12.3045 240.392 12.3045 240.392 12.3045L242.019 7.0167C242.019 7.0167 229.003 4.57617 228.596 4.57617C228.189 4.57617 226.562 10.2707 226.562 10.2707Z" fill="#FEC340"/>
<path d="M199.31 26.1339C205.411 26.1339 210.292 30.6082 210.699 35.0825C211.106 39.5568 211.512 60.7081 211.512 60.7081C211.919 60.7081 216.393 61.1148 218.02 61.1148C219.647 61.1148 224.122 61.9283 224.935 61.9283C225.749 61.9283 227.783 24.5069 227.783 24.5069C227.783 24.5069 208.665 22.8799 200.53 22.8799C191.988 22.8799 174.091 23.6934 170.837 24.5069C170.023 24.5069 175.718 61.5216 175.718 61.9283C175.718 61.9283 182.226 61.5216 183.446 61.5216C184.667 61.5216 189.548 61.1148 189.954 61.1148C189.954 61.1148 188.327 39.1501 189.141 36.3028C189.954 33.4555 190.768 29.7947 194.429 28.1677C198.089 25.7272 199.31 26.1339 199.31 26.1339Z" fill="#FEC340"/>
<path d="M231.037 31.0151C231.037 31.0151 230.223 37.93 230.63 37.93L244.053 40.3705L245.273 34.2692C245.273 34.2692 235.104 31.0151 231.037 31.0151Z" fill="#FEC340"/>
<path d="M234.697 41.9976C234.697 41.9976 233.07 41.5908 230.223 41.1841C229.41 41.1841 229.41 49.7259 229.41 50.1327C229.41 50.5394 232.257 50.5394 232.664 50.5394C233.07 50.5394 234.697 41.9976 234.697 41.9976Z" fill="#FEC340"/>
<path d="M229.816 53.3867C229.816 53.3867 228.596 62.7421 229.003 62.7421C229.41 62.7421 237.138 64.3691 238.358 64.7758C239.578 64.7758 240.799 55.4205 240.799 55.4205C240.799 55.4205 237.545 53.7935 234.697 53.7935C232.257 53.3867 229.816 53.3867 229.816 53.3867Z" fill="#FEC340"/>
<path d="M237.545 42.4033C237.545 42.4033 235.104 51.3519 235.511 51.3519C235.511 51.3519 239.172 51.7587 242.426 52.9789C246.087 53.7924 250.154 55.0127 250.154 55.0127L252.595 46.4709C252.595 46.4709 248.12 44.4371 245.273 44.0303C242.832 43.2168 237.545 42.4033 237.545 42.4033Z" fill="#FEC340"/>
<path d="M263.17 48.9117L256.255 46.8779L253.815 55.8265L259.916 57.8603L266.831 60.3008L270.085 51.3522L263.17 48.9117Z" fill="#FEC340"/>
<path d="M272.932 52.5723L270.085 61.5209L273.339 62.7411L277 54.606L272.932 52.5723Z" fill="#FEC340"/>
<path d="M274.966 42.4034C272.119 41.1831 269.272 40.7764 268.865 40.3696C268.865 40.3696 266.424 46.0642 266.424 46.4709C266.424 46.4709 269.272 47.2845 272.119 48.5047C274.966 49.725 277.407 50.9452 277.813 50.9452L280.661 44.8439C280.661 44.8439 277.813 43.6237 274.966 42.4034Z" fill="#FEC340"/>
<path d="M251.374 58.2667C247.714 57.0464 243.646 56.6396 243.646 56.6396C243.646 56.6396 241.205 65.5883 241.612 65.5883C241.612 65.5883 245.273 66.4018 248.527 67.622C251.781 68.4355 255.442 69.6558 255.442 69.6558C255.849 69.6558 258.696 61.114 258.696 61.114C258.696 60.7072 255.035 59.0802 251.374 58.2667Z" fill="#FEC340"/>
<path d="M267.238 63.1485C264.797 62.335 261.95 61.5215 261.543 61.5215L258.289 70.4701C258.289 70.4701 260.323 71.2836 262.763 72.0971C264.797 72.9106 268.051 74.1309 268.051 74.1309L272.119 64.7755C272.526 65.1823 270.085 64.3688 267.238 63.1485Z" fill="#FEC340"/>
<path d="M299.371 26.5397C299.371 26.133 286.355 20.0316 285.948 20.4384C285.542 20.4384 283.915 24.5059 283.915 24.5059C283.915 24.5059 296.931 31.014 297.338 31.014C297.744 31.014 299.371 26.5397 299.371 26.5397Z" fill="#FEC340"/>
<path d="M320.116 37.5234C319.709 37.5234 317.269 40.7775 317.675 41.1842C320.116 42.4045 327.031 46.8788 327.844 46.8788C328.251 46.8788 330.691 44.0315 330.285 43.6248C330.285 43.6248 323.777 39.1505 320.116 37.5234Z" fill="#FEC340"/>
<path d="M283.101 27.3552C282.694 26.9485 279.44 33.4565 279.847 33.8633C282.288 35.0835 294.084 40.3714 301.812 44.4389C302.219 44.8456 305.879 38.7443 305.879 38.3376C296.117 33.0498 291.236 31.016 283.101 27.3552Z" fill="#FEC340"/>
<path d="M308.727 39.5571C308.727 39.5571 305.066 45.6585 305.066 45.2517C305.066 45.2517 316.455 51.353 322.963 55.4206C323.37 55.8273 326.624 50.1327 326.217 49.726C317.675 44.4382 316.048 43.6247 308.727 39.5571Z" fill="#FEC340"/>
<path d="M299.778 53.7935C305.473 57.0475 303.032 62.7421 302.219 65.1826C300.998 67.6231 292.05 85.5203 292.05 85.5203C292.457 85.9271 296.931 89.1811 297.338 89.5879C298.151 89.9946 315.642 57.0475 315.235 56.6408C314.828 55.4205 308.727 52.1665 300.998 48.0989C293.677 44.4381 285.948 41.1841 285.542 41.1841C284.728 41.1841 270.492 74.9447 270.492 75.3515C270.492 75.7582 278.22 79.8258 278.627 79.419C279.034 79.0123 286.762 61.9286 288.796 59.0813C290.423 56.234 292.05 52.98 296.117 53.3867C300.185 53.3867 299.778 53.7935 299.778 53.7935Z" fill="#FEC340"/>
<path d="M279.847 83.4857C271.712 79.4181 258.289 73.3168 246.493 70.0628C234.697 66.8087 216.8 63.9615 200.53 63.5547C184.26 63.1479 163.922 66.8087 155.38 68.8425C141.144 72.0965 142.771 72.0965 131.788 76.5708C113.891 84.2992 99.2481 93.2478 98.8414 93.6545C98.4346 94.0613 103.316 99.7559 103.316 99.7559C103.316 99.7559 103.722 99.7559 106.57 97.3153C111.451 93.2478 140.33 81.0451 143.991 79.4181C148.872 77.3844 165.956 72.0965 182.226 70.8763C208.665 68.8425 225.342 72.5033 244.866 77.3844C264.391 82.2654 293.27 99.7559 294.084 100.163C294.49 100.163 297.338 95.2815 297.744 94.8748C298.151 94.468 290.423 88.7735 279.847 83.4857Z" fill="#FEC340"/>
</g>
<defs>
<clipPath id="clip0">
<rect width="400" height="541.9" fill="white"/>
</clipPath>
</defs>
</svg>
