<svg width="400" height="506" viewBox="0 0 400 506" fill="none" xmlns="http://www.w3.org/2000/svg">
<g clip-path="url(#clip0)">
<path d="M400 0H0V305.844V305.936C0 416.397 89.5436 505.93 199.995 505.93C310.446 505.93 400 416.387 400 305.936V305.844V0Z" fill="#0085CA"/>
<path d="M273.045 97.5286C165.56 171.59 168.506 241.79 146.156 308.231C124.314 370.508 87.7404 333.63 104.808 289.538C112.529 269.626 119.64 256.521 136.708 235.085C182.831 176.974 198.781 133.797 201.422 91.5347C205.181 31.8999 162.208 16.661 143.108 17.4738C129.8 17.9817 122.688 22.4518 120.25 27.4298C117.812 32.4079 114.256 32.4079 109.989 30.6808C103.995 28.3442 95.9694 32.8142 95.055 37.9955C91.0929 61.4633 39.2808 48.9674 50.0496 80.9691C54.5196 75.4831 59.7009 74.5687 66.3044 74.5687H134.981C155.807 74.5687 158.347 101.491 158.246 109.009C156.011 212.023 37.3505 227.465 38.5696 345.109C39.0776 392.452 58.177 419.882 81.4416 435.832H320.082C369.659 389.302 352.998 344.195 383.781 303.05C386.016 300.002 381.241 299.799 379.819 299.799C347.411 300.307 361.329 344.906 292.856 327.128C316.12 298.072 311.345 283.443 318.05 259.873C329.53 219.44 366.612 198.308 365.189 155.944C339.791 182.358 322.927 168.542 281.274 252.864C273.655 268.407 262.175 261.296 268.575 249.409C290.113 209.484 301.897 188.555 319.473 172.809C349.443 145.887 381.851 115.307 373.825 88.7917C337.759 127.6 323.333 118.863 283.204 156.046C259.635 177.888 249.882 199.426 237.183 229.7C232.408 241.18 220.522 234.678 223.57 224.926C236.269 183.781 260.854 160.922 276.702 144.464C304.64 115.409 391.299 64.6127 371.793 24.2805C336.032 63.7999 301.186 74.4672 273.248 97.7318L273.045 97.5286Z" fill="white"/>
<path d="M114.256 48.6624C113.443 46.021 129.393 37.9952 130.206 41.4494C132.949 54.25 115.373 52.3198 114.256 48.6624Z" fill="#0085CA"/>
</g>
<defs>
<clipPath id="clip0">
<rect width="400" height="505.93" fill="white"/>
</clipPath>
</defs>
</svg>
