<svg width="400" height="507" viewBox="0 0 400 507" fill="none" xmlns="http://www.w3.org/2000/svg">
<g clip-path="url(#clip0)">
<path d="M0 0L4.91667 130.833C12.25 252.5 60 358 140 449.25C158.885 469.338 178.918 488.315 200 506.083C221.168 488.322 241.285 469.346 260.25 449.25C340.25 357.583 387.917 252.5 395.25 130.833L400 0H0Z" fill="#EC1C24"/>
<path d="M310.25 290.085V289.418V288.918C306.317 283.257 303.229 277.053 301.084 270.501L297.417 261.251C296.22 256.597 295.632 251.807 295.667 247.001C296.003 236.625 297.456 226.316 300 216.251L301.667 208.585C301.894 206.515 302.341 204.476 303 202.501C303.906 199.812 304.412 197.004 304.5 194.168C304.515 191.667 303.758 189.223 302.334 187.168L297.167 179.501C292.495 171.101 286.175 163.731 278.584 157.835L265.334 155.001C256.725 152.698 247.899 151.302 239 150.835C233.08 148.71 227.042 146.929 220.917 145.501C210.537 143.341 200.629 139.333 191.667 133.668C183.657 123.744 173.986 115.285 163.084 108.668C156.26 104.207 149.796 99.2195 143.75 93.7513V92.8346C146.879 94.3416 149.913 96.0392 152.834 97.918C157.915 101.418 163.549 104.038 169.5 105.668C173.75 106.501 180.667 107.835 184.584 104.085L186 102.668L184.667 101.168C174.372 91.301 161.43 84.6415 147.417 82.0013L141.667 80.0013H141.25C147.557 78.7294 154.024 78.4483 160.417 79.168C168.103 80.044 175.885 79.4213 183.334 77.3346L196.834 71.3346C206.522 67.772 215.687 62.923 224.084 56.918C234.504 45.6731 242.026 32.058 246 17.2513L242.334 15.5013L239.25 19.668C237.125 22.966 234.668 26.0376 231.917 28.8346C231.001 29.5264 229.939 29.9988 228.812 30.2155C227.685 30.4322 226.524 30.3874 225.417 30.0846C223.334 29.418 222.75 27.668 221.834 24.918L218 15.418L216.667 21.3346L215.584 24.8346C215.202 27.3843 214.071 29.7628 212.334 31.668C211.518 32.0212 210.639 32.2034 209.75 32.2034C208.862 32.2034 207.982 32.0212 207.167 31.668C205.667 31.0013 205.334 29.668 205.084 26.8346C205.006 25.4402 204.725 24.0645 204.25 22.7513L202.5 18.5013L198.75 26.2513C196.667 30.918 195 33.918 191.417 34.0013C188.044 32.4203 185.395 29.6219 184 26.168C183.014 24.2781 181.842 22.4914 180.5 20.8346L176.667 16.418L177.084 28.168C177.084 30.0846 177.084 32.0013 177.084 33.8346C177.197 36.9747 176.628 40.102 175.417 43.0013C173.628 46.1713 171.058 48.8309 167.951 50.7271C164.844 52.6233 161.304 53.6931 157.667 53.8346H157.25C155.343 54.1037 153.407 54.1037 151.5 53.8346C149.301 53.3857 147.033 53.3857 144.834 53.8346L141.584 54.668L143.75 57.168C145.334 59.0013 146.5 60.5013 146.334 62.2513C146 64.1475 144.957 65.8456 143.417 67.0013C140.084 70.168 135.084 68.168 130.5 67.0013C129.104 65.7201 127.566 64.6018 125.917 63.668C123.814 62.705 122.044 61.1387 120.834 59.168C125.566 55.8147 130.585 52.8866 135.834 50.418C141.684 47.7005 147.264 44.436 152.5 40.668C158.217 35.1505 162.433 28.2672 164.75 20.668L161.167 18.8346L158.334 21.418C155.834 25.0013 153.917 27.3346 151.167 27.2513C150.25 26.5846 150 25.5846 149.667 24.0013C149.532 22.4421 148.986 20.9467 148.084 19.668L146.334 17.5846L141.917 23.5846C140.917 25.2513 138.334 25.3346 136.084 24.8346C133.911 23.5299 132.239 21.5348 131.334 19.168L130.167 16.168L127.917 18.418C126.719 19.8011 125.888 21.4631 125.5 23.2513C125.208 24.5623 124.671 25.8063 123.917 26.918C123 28.168 121.5 28.168 119 28.168H117.417C115.917 28.168 114.667 26.0013 113.584 24.418L109.417 18.3346V24.168V28.168C109.719 31.5416 108.803 34.912 106.834 37.668C105.308 38.7832 103.473 39.3949 101.584 39.418C97.168 39.278 92.8791 37.9091 89.1987 35.4654C85.5184 33.0217 82.5926 29.5999 80.7502 25.5846L77.3336 18.668L76.8336 27.0013C76.7199 27.4102 76.7199 27.8424 76.8336 28.2513C76.92 28.9152 76.92 29.5874 76.8336 30.2513C76.8816 30.8064 76.765 31.3633 76.4982 31.8524C76.2314 32.3416 75.8263 32.7412 75.3336 33.0013C70.6669 34.0013 67.0003 31.0013 63.2503 27.5846C61.321 25.8081 59.2284 24.2177 57.0003 22.8346L51.4169 19.5846L54.0836 25.5013C57.8343 32.727 63.0915 39.0641 69.5003 44.0846L80.5836 49.0846C90.4341 52.8837 99.7594 57.9244 108.334 64.0846V64.5013V65.0846C100.849 65.6654 93.3392 64.3469 86.5003 61.2513C81.5619 59.2725 76.4193 57.8471 71.1669 57.0013C59.8336 57.668 52.5003 70.0013 49.0003 76.0013C48.1331 77.915 47.9496 80.0685 48.4806 82.1013C49.0115 84.1341 50.2247 85.9228 51.9169 87.168C54.0197 88.3445 56.4837 88.7008 58.8336 88.168H59.4169C60.9685 89.4887 62.841 90.3767 64.8455 90.7425C66.85 91.1083 68.9155 90.9389 70.8336 90.2513C72.0995 89.7717 73.4533 89.5682 74.8043 89.6545C76.1553 89.7407 77.4722 90.1147 78.6669 90.7513C90.9169 97.0846 90.3336 111.085 89.9169 124.668V136.168L91.6669 137.168C93.7204 137.666 95.8634 137.666 97.9169 137.168C101.5 136.668 103.084 136.668 104 138.418L114.834 180.085C114.834 186.751 114.834 193.585 115.5 200.168C116.167 206.751 116.167 213.835 116.167 220.751C116.167 221.335 116.167 221.835 116.167 222.418C116.134 222.862 116.134 223.307 116.167 223.751C116.665 227.635 118.671 231.167 121.75 233.585C122.865 234.648 123.87 235.82 124.75 237.085C126.084 250.418 128.417 263.418 130.75 276.085C134.812 295.51 137.182 315.25 137.834 335.085C137.947 336.861 137.947 338.642 137.834 340.418C137.834 358.585 125.584 372.085 112.834 383.085L109.084 386.418H115.167C119.5 387.373 123.991 387.353 128.314 386.359C132.638 385.364 136.687 383.42 140.167 380.668C142.963 378.221 144.917 374.955 145.75 371.335C147.167 367.001 148.167 364.501 151.834 363.918H153.834V361.918C152.509 349.545 151.814 337.112 151.75 324.668C151.688 315.192 152.3 305.724 153.584 296.335V295.501C151.667 278.335 151.417 260.168 151.167 242.501L151.584 242.001C152.917 242.001 153.417 242.001 153.667 242.585C156.167 251.418 158.25 260.668 160.334 269.501C162.834 280.251 165.334 291.418 168.667 302.168C171.844 313.584 173.689 325.328 174.167 337.168C174.756 340.608 175.035 344.095 175 347.585C175.022 354.535 173.544 361.409 170.668 367.737C167.792 374.064 163.585 379.697 158.334 384.251H157.917L156.667 388.751H165C168.081 389.517 171.304 389.499 174.375 388.698C177.447 387.897 180.269 386.34 182.584 384.168C184.363 382.73 185.732 380.848 186.551 378.712C187.371 376.575 187.612 374.261 187.25 372.001C187.25 367.585 187.25 365.085 190.25 363.668L191.75 363.001L191.667 362.168C188.972 345.954 187.275 329.59 186.584 313.168C186.984 309.459 187.178 305.731 187.167 302.001C186.99 293.135 186.294 284.286 185.084 275.501L183.334 257.835C183.405 256.947 183.405 256.055 183.334 255.168C183.412 253.697 183.412 252.223 183.334 250.751C183.334 249.335 183.334 248.085 183.334 246.918C183.279 246.068 183.398 245.215 183.685 244.412C183.971 243.61 184.419 242.874 185 242.251H186.917C206.567 242.643 226.182 240.429 245.25 235.668H246.5V234.418C246.545 233.919 246.545 233.417 246.5 232.918C246.524 232.502 246.524 232.084 246.5 231.668C252.882 245.419 260.733 258.44 269.917 270.501C274.417 277.001 279.084 283.751 283.25 290.501C287.061 296.092 289.332 302.587 289.834 309.335C290.301 326.513 288.108 343.66 283.334 360.168C279.669 367.559 274.765 374.268 268.834 380.001L259.334 390.751L263.084 391.335C266.478 392.232 270.017 392.443 273.494 391.957C276.971 391.47 280.316 390.296 283.334 388.501C285.415 387.523 287.247 386.085 288.691 384.295C290.135 382.505 291.152 380.409 291.667 378.168C293.167 374.085 294.334 371.501 298 370.751H299.667V369.085C300.247 349.224 302.392 329.441 306.084 309.918V309.501C306.439 306.981 307.025 304.498 307.834 302.085C309.068 298.599 309.77 294.947 309.917 291.251C309.917 291.251 309.917 290.668 309.917 290.418L310.25 290.085ZM106.584 80.5013C102.584 80.5013 102.334 76.5013 100.334 74.3346C102.25 72.168 105.167 73.8346 107.25 74.3346C109.185 75.2587 110.849 76.6649 112.084 78.418C112.084 81.0013 108.334 79.668 106.584 80.418" fill="white"/>
<path d="M262.084 263.166C261.099 275.509 263.642 287.879 269.417 298.832C269.417 304.832 264.584 309.082 263.167 314.749C255.932 332.5 250.705 351.003 247.584 369.916C240 371.166 238.75 380.166 233.75 385.166C228.75 390.166 218.667 388.999 210.584 388.832L209.834 388.166C233.917 370.499 244.167 345.499 250 318.916C255.834 292.332 235.584 275.249 229.25 252.999C227.608 249.588 226.431 245.973 225.75 242.249L245.25 237.749H247.334L262.084 263.166Z" fill="white"/>
</g>
<defs>
<clipPath id="clip0">
<rect width="400" height="506.08" fill="white"/>
</clipPath>
</defs>
</svg>
