<svg width="400" height="522" viewBox="0 0 400 522" fill="none" xmlns="http://www.w3.org/2000/svg">
<g clip-path="url(#clip0)">
<path d="M200.291 521.377C278.105 464.923 331.439 393.622 363.352 303.433C392.291 221.661 403.902 122.562 398.856 0.481625L398.835 0H1.16126L1.14031 0.481625C-3.89578 122.562 7.71551 221.651 36.6443 303.433C68.557 393.622 121.891 464.923 199.705 521.377L199.998 521.587L200.291 521.377Z" fill="#E00E00"/>
<path d="M357.782 38.7603L355.949 56.5279C348.202 58.3811 344.286 64.2234 343.302 69.8772C342.276 75.73 344.924 82.7763 350.4 85.9802C342.391 140.184 335.962 169.395 318.854 201.214C303.693 229.409 265.488 262.997 225.985 260.474C146.601 255.407 146.475 158.632 172.587 45.2412L20.9392 46.1626C38.152 186.367 90.4185 328.645 208.008 336.319C278.126 340.895 340.705 262.924 353.981 190C359.583 159.239 360.724 112.312 363.854 88.1475C373.005 84.64 375.298 78.0125 375.518 72.8088C375.738 67.7413 373.078 60.9253 365.519 57.3341C365.645 52.0049 365.99 44.8224 366.221 38.666L357.782 38.7603Z" fill="#FFE000"/>
<path d="M34.5293 84.2319L39.7748 92.8697L44.2979 84.3262" stroke="#E00E00" stroke-linecap="round" stroke-linejoin="round"/>
<path d="M54.6946 84.2319L59.9401 92.8697L64.4632 84.3262" stroke="#E00E00" stroke-linecap="round" stroke-linejoin="round"/>
<path d="M76.1897 84.2319L81.4352 92.8697L85.9583 84.3262" stroke="#E00E00" stroke-linecap="round" stroke-linejoin="round"/>
<path d="M100.166 84.2319L105.412 92.8697L109.935 84.3262" stroke="#E00E00" stroke-linecap="round" stroke-linejoin="round"/>
<path d="M121.462 84.2319L126.708 92.8697L131.231 84.3262" stroke="#E00E00" stroke-linecap="round" stroke-linejoin="round"/>
<path d="M143.784 84.2319L149.03 92.8697L153.553 84.3262" stroke="#E00E00" stroke-linecap="round" stroke-linejoin="round"/>
</g>
<defs>
<clipPath id="clip0">
<rect width="400" height="521.59" fill="white"/>
</clipPath>
</defs>
</svg>
