<svg width="400" height="522" viewBox="0 0 400 522" fill="none" xmlns="http://www.w3.org/2000/svg">
<g clip-path="url(#clip0)">
<path d="M199.709 521.377C121.895 464.923 68.561 393.622 36.6483 303.433C7.70906 221.661 -3.90222 122.562 1.14434 0.481625L1.16528 0H398.839L398.86 0.481625C403.896 122.562 392.284 221.651 363.356 303.433C331.443 393.622 278.109 464.923 200.295 521.377L200.002 521.587L199.709 521.377Z" fill="#32AC60"/>
<path fill-rule="evenodd" clip-rule="evenodd" d="M334.496 44.6144C335.683 45.5219 336.571 46.74 336.166 48.0942L334.896 52.3415L371.218 58.0023C372.279 58.1677 372.87 59.1057 373.148 60.1104C373.434 61.1407 373.453 62.4235 373.251 63.6516C373.049 64.8786 372.617 66.1103 371.944 67.0205C371.265 67.9385 370.293 68.5817 369.061 68.4384C367.805 68.2923 366.62 68.1554 365.466 68.0221C361.418 67.5546 357.744 67.1303 352.685 66.4999C349.317 66.0804 346.3 66.0091 344.016 66.4521C341.717 66.8979 340.32 67.8266 339.886 69.2719L333.833 89.4085C332.617 93.4552 328.586 96.4402 324.156 96.7691C318.563 125.44 311.502 156.232 302.436 184.584L312.838 185.908C314.008 186.057 314.852 186.757 315.403 187.778C315.943 188.779 316.214 190.104 316.285 191.596C316.429 194.586 315.783 198.428 314.634 202.189C313.484 205.952 311.816 209.684 309.88 212.448C308.912 213.829 307.864 214.989 306.762 215.787C305.659 216.586 304.47 217.044 303.244 216.954L293.78 216.255C292.772 223.884 291.138 234.242 287.447 244.243C283.73 254.316 277.907 264.077 268.485 270.314L280.194 292.456L289.816 291.003C290.457 290.906 290.991 291.192 291.396 291.64C291.79 292.075 292.1 292.697 292.351 293.405C292.855 294.828 293.179 296.78 293.363 298.824C293.548 300.876 293.594 303.054 293.53 304.947C293.466 306.827 293.291 308.472 293.014 309.435L292.906 309.814H101.186L101.179 309.298C101.175 309.024 101.293 308.784 101.428 308.595C101.566 308.402 101.755 308.215 101.974 308.033C102.413 307.668 103.04 307.269 103.816 306.842C105.373 305.984 107.616 304.965 110.375 303.825C115.896 301.544 123.544 298.757 132.048 295.78C139.817 293.061 148.296 290.186 156.536 287.391C166.36 284.06 175.844 280.844 183.381 278.144L183.717 278.024L183.952 278.292C184.559 278.986 185.361 280.004 186.154 281.008C186.55 281.511 186.944 282.011 187.31 282.465C187.867 283.158 188.355 283.74 188.702 284.095C188.763 284.157 188.817 284.21 188.865 284.254L205.052 278.753C192.344 257.191 182.993 225.99 183.47 195.179L56.642 172.487V180.051C56.642 181.124 55.8973 181.848 54.9965 182.255C54.0941 182.663 52.9315 182.815 51.7987 182.73C50.665 182.645 49.4994 182.32 48.601 181.711C47.6895 181.094 47.0333 180.166 47.0333 178.926V170.615L38.3223 169.066C37.984 169.006 37.7046 168.814 37.4805 168.579C37.2566 168.343 37.0633 168.04 36.8937 167.699C36.5546 167.018 36.2705 166.106 36.0351 165.067C35.5628 162.983 35.2637 160.28 35.152 157.623C35.0404 154.966 35.1146 152.322 35.4012 150.354C35.5436 149.377 35.7435 148.528 36.0197 147.922C36.1573 147.621 36.3307 147.341 36.5584 147.141C36.7997 146.928 37.1118 146.799 37.4692 146.85L47.0333 148.214V138.314C47.0333 137.737 47.1942 137.243 47.5147 136.857C47.8314 136.476 48.266 136.246 48.7356 136.123C49.6574 135.882 50.8163 136.023 51.9091 136.358C53.0137 136.696 54.1266 137.254 54.9768 137.93C55.8021 138.585 56.495 139.446 56.5084 140.406L56.6358 149.576L185.165 167.956L187.713 151.189C187.947 149.646 189.051 148.71 190.421 148.244C191.779 147.782 193.459 147.749 195.058 148.014C196.659 148.28 198.239 148.853 199.398 149.663C200.543 150.463 201.391 151.588 201.205 152.944L198.887 169.85L276.054 180.816L321.062 44.0772C321.524 42.6804 322.94 42.0589 324.485 41.8751C326.059 41.6878 327.962 41.9203 329.752 42.4146C331.542 42.9089 333.275 43.6803 334.496 44.6144Z" fill="white"/>
<path fill-rule="evenodd" clip-rule="evenodd" d="M197.26 196.636L267.635 210.338L267.572 210.825C266.837 216.515 263.824 228.257 260.603 238.779C258.99 244.046 257.321 249.025 255.85 252.805C255.115 254.694 254.426 256.295 253.815 257.486C253.51 258.081 253.218 258.585 252.945 258.975C252.682 259.35 252.397 259.679 252.088 259.853C243.19 264.891 235.113 268.772 220.115 274.209L219.722 274.351L219.496 274C208.08 256.243 198.867 230.613 197.291 197.302L197.26 196.636Z" fill="#32AC60"/>
<path d="M264.466 295.161L263.919 295.375C256.921 298.113 245.503 299.782 234.891 299.527C229.579 299.4 224.443 298.79 220.142 297.578C215.856 296.371 212.324 294.545 210.316 291.927L209.866 291.341L254.673 276.629L264.466 295.161Z" fill="#32AC60"/>
</g>
<defs>
<clipPath id="clip0">
<rect width="400" height="521.59" fill="white"/>
</clipPath>
</defs>
</svg>
