<svg width="400" height="522" viewBox="0 0 400 522" fill="none" xmlns="http://www.w3.org/2000/svg">
<g clip-path="url(#clip0)">
<path d="M200.291 521.377C278.105 464.923 331.439 393.622 363.352 303.433C392.291 221.661 403.902 122.562 398.856 0.481625L398.835 0H1.16126L1.14031 0.481625C-3.89578 122.562 7.71551 221.651 36.6443 303.433C68.557 393.622 121.891 464.923 199.705 521.377L199.998 521.587L200.291 521.377Z" fill="#FFE000"/>
<path d="M98.0955 278.385C101.989 275.864 77.1791 272.556 77.8013 266.355C79.2809 251.608 156.163 206.621 200.289 183.816C257.884 209.536 318.328 258.064 320.037 266.656C320.988 271.435 315.274 273.48 296.183 273.455C288.986 273.445 313.163 287.442 326.602 287.019C341.257 286.559 342.803 280.061 342.582 266.314C342.111 237.059 274.034 185.134 231.045 165.42C245.427 153.45 260.424 152 260.673 140.398C260.939 128.034 258.337 129.595 252.505 129.586C241.956 121.279 226.127 106.671 215.248 102.143C216.379 95.7674 204.692 92.8486 204.867 90.2996C205.717 77.9124 232.205 70.9203 230.085 51.0394C227.569 27.4452 190.153 23.5269 170.082 21.8565C156.92 20.761 140.777 20.3081 130.201 25.8052C124.462 28.7885 111.346 43.2208 110.823 53.202C110.549 58.4279 130.656 65.1511 134.294 57.8205C139.406 47.5199 140.848 40.2737 169.688 42.9758C185.911 44.4956 201.716 46.9114 201.82 52.3856C202.006 62.2234 175.671 74.5327 175.944 91.4638C176.019 96.1237 181.25 100.937 179.176 103.645C172.317 112.595 137.944 125.869 138.924 137.129C139.705 146.1 159.099 157.338 169.078 163.785C122.698 186.49 65.9608 226.643 52.5234 264.65C47.375 279.212 65.4265 287.189 77.1442 285.867C86.3258 284.831 91.1819 282.862 98.0955 278.385Z" fill="black"/>
<path d="M177.511 135.75C185.426 128.599 198.719 119.405 201.313 120.445C209.548 123.744 227.095 135.55 225.552 136.981C220.273 141.879 202.53 155.121 200.683 153.787C192.512 147.884 175.463 137.6 177.511 135.75Z" fill="#FFE000" stroke="black"/>
<path d="M134.819 393.699C137.62 391.817 117.896 390.395 118.763 382.847C119.972 372.319 190.067 328.684 201.251 333.945C250.908 357.301 279.373 375.683 279.969 378.704C280.656 382.182 279.412 384.961 264.554 390.112C259.607 391.827 276.906 400.237 286.684 399.981C299.44 399.645 301.233 394.919 301.217 384.917C301.188 365.734 264.11 334.096 232.834 319.754C243.297 311.046 246.939 314.191 247.12 305.75C247.313 296.755 245.42 297.891 241.178 297.884C233.503 291.841 220.048 280.082 212.134 276.788C212.957 272.15 207.524 271.642 207.651 269.787C208.269 260.776 229.801 254.235 228.259 239.771C226.428 222.606 196.785 217.817 182.183 216.602C172.608 215.805 157.955 217.252 150.261 221.251C146.086 223.422 136.544 233.921 136.163 241.183C135.964 244.985 150.592 249.876 153.239 244.543C156.958 237.049 158.007 231.777 178.989 233.743C190.791 234.849 202.289 236.606 202.365 240.589C202.5 247.746 183.341 256.701 183.54 269.019C183.594 272.409 187.596 276.078 185.891 277.881C182.211 281.773 153.254 292.545 153.699 301.272C154.033 307.814 174.359 316.775 170.791 318.403C134.841 334.804 111.624 353.958 98.4343 380.152C91.9867 392.957 108.94 401.322 119.577 399.142C127.464 397.526 129.973 396.956 134.819 393.699Z" fill="black"/>
<path d="M184.738 300.004C194.13 294.921 200.251 290.207 202.481 291.718C210.453 297.121 216.977 301.359 215.43 303.102C211.954 307.023 202.807 312.46 200.187 310.806C193.986 306.891 182.523 301.203 184.738 300.004Z" fill="#FFE000" stroke="black" stroke-width="0.727515"/>
</g>
<defs>
<clipPath id="clip0">
<rect width="400" height="521.59" fill="white"/>
</clipPath>
</defs>
</svg>
