<svg width="400" height="492" viewBox="0 0 400 492" fill="none" xmlns="http://www.w3.org/2000/svg">
<g clip-path="url(#clip0)">
<path d="M200 492.002C420.245 335.682 399.477 0 399.477 0H0.522848C0.522848 0 -20.2453 335.682 200 492.002Z" fill="#E53D42"/>
<path d="M205.641 369.349V226.175H194.361L192.947 249.429H180.967V243.092H136.561V254.365H142.197V262.123H155.592V256.487H166.165V262.824H171.801V273.396H166.165V279.747H154.184V273.396H142.197V282.562H135.853V291.027H180.26V282.562H193.654V369.266L194.361 369.349" fill="#FFD400"/>
<path d="M200.879 388.818V392.786C206.695 401.512 211.452 397.812 211.452 397.812C215.421 391.468 207.745 386.442 207.745 386.442V376.13C207.223 374.023 213.567 371.908 213.567 371.908C232.866 365.029 236.299 389.085 236.299 389.085C236.299 409.524 220.007 425.026 199.561 425.026H198.504C178.065 425.026 161.76 409.524 161.76 389.085C161.76 389.085 165.199 365.029 184.492 371.908C184.492 371.908 190.835 374.023 190.307 376.13V386.442C190.307 386.442 182.645 391.468 186.606 397.812C186.606 397.812 191.364 401.512 197.179 392.786V388.818H200.879ZM244.867 388.028C244.867 388.028 242.78 369.265 230.882 363.45C230.882 363.45 215.153 356.577 207.491 368.207H189.517C181.848 356.577 166.126 363.45 166.126 363.45C154.228 369.265 152.148 388.028 152.148 388.028C152.148 413.623 172.903 434.384 198.504 434.384C224.105 434.384 244.867 413.623 244.867 388.028Z" fill="#FFD400"/>
<path d="M306.064 84.8848L216.573 196.648L225.381 203.699L241.021 186.419L250.378 193.909L246.41 198.859L281.074 226.616L288.125 217.815L283.717 214.286L288.564 208.237L278.108 199.861L274.593 204.269L266.334 197.658L270.302 192.708L265.894 189.186L272.506 180.926L276.913 184.455L280.868 179.498L290.226 186.989L286.257 191.945L295.622 199.429L301.341 192.282L306.291 196.243L311.577 189.639L276.913 161.888L271.627 168.486L261.171 160.117L315.36 92.4437L314.866 91.9288" fill="#FFD400"/>
<path d="M321.946 72.6615L324.418 69.5652C325.331 59.1227 319.31 59.0403 319.31 59.0403C312.252 61.5119 315.095 70.2242 315.095 70.2242L308.648 78.2706C307.742 80.2479 301.467 77.9342 301.467 77.9342C282.113 71.2403 294.464 50.3212 294.464 50.3212C307.227 34.3657 329.656 32.4434 345.605 45.2201L346.436 45.8792C362.391 58.6559 365.426 80.9482 352.649 96.9036C352.649 96.9036 334.936 113.532 324.164 96.1072C324.164 96.1072 320.532 90.4912 322.269 89.173L328.709 81.1267C328.709 81.1267 337.826 81.9986 338.698 74.5632C338.698 74.5632 337.305 68.707 327.315 71.8788L324.837 74.9752L321.946 72.6615ZM287.118 45.7968C287.118 45.7968 277.019 61.7454 282.662 73.7188C282.662 73.7188 290.64 88.9121 303.904 84.6212L317.93 95.86C316.646 109.728 333.22 114.191 333.22 114.191C346.14 117.088 359.494 103.742 359.494 103.742C375.49 83.7561 372.264 54.5846 352.278 38.5812C332.293 22.5845 303.121 25.8113 287.118 45.7968Z" fill="#FFD400"/>
<path d="M79.2973 97.7254L173.156 205.836L181.676 198.442L167.492 179.96L176.54 172.099L180.694 176.891L214.239 147.782L206.838 139.262L202.588 142.962L197.494 137.106L187.381 145.887L191.081 150.143L183.097 157.078L178.936 152.286L174.68 155.979L167.746 147.995L172.002 144.301L167.849 139.509L176.897 131.655L181.051 136.447L190.1 128.593L184.092 121.672L188.884 117.512L183.337 111.127L149.806 140.237L155.353 146.621L145.24 155.402L88.401 89.933L87.8105 90.3312" fill="#FFD400"/>
<path d="M70.1253 79.904L67.5233 76.9107C57.4173 74.137 56.2501 80.0482 56.2501 80.0482C57.4104 87.4355 66.4935 86.2066 66.4935 86.2066L73.2491 93.992C75.0341 95.2416 71.6357 100.995 71.6357 100.995C61.5709 118.831 43.2057 102.924 43.2057 102.924C29.8042 87.4904 31.9463 65.0883 47.3799 51.6937L48.1832 51.0003C63.61 37.5988 86.0945 38.6218 99.4891 54.0554C99.4891 54.0554 112.664 74.4734 93.5916 81.9362C93.5916 81.9362 87.4126 84.497 86.424 82.5541L79.6684 74.7686C79.6684 74.7686 82.1605 65.9533 75.0067 63.7564C75.0067 63.7564 68.9925 64.0859 70.3175 74.4803L72.9196 77.4736L70.1253 79.904ZM37.4387 109.336C37.4387 109.336 51.3138 122.141 64.1043 118.728C64.1043 118.728 80.4854 113.614 78.6523 99.8002L92.2254 88.019C105.634 91.7745 113.007 76.279 113.007 76.279C118.177 64.0859 107.446 48.5561 107.446 48.5561C90.66 29.2229 61.3855 27.1564 42.0523 43.9425C22.719 60.7218 20.6525 90.0032 37.4387 109.336Z" fill="#FFD400"/>
</g>
<defs>
<clipPath id="clip0">
<rect width="400" height="492" fill="white"/>
</clipPath>
</defs>
</svg>
