<svg width="400" height="484" viewBox="0 0 400 484" fill="none" xmlns="http://www.w3.org/2000/svg">
<g clip-path="url(#clip0)">
<path d="M392.347 0H0V283.163C0 393.367 89.7959 483.163 200 483.163C310.204 483.163 400 393.367 400 283.163V0H392.347Z" fill="#1A171B"/>
<path d="M384.675 15.2876C384.675 29.5733 384.675 283.145 384.675 283.145C384.675 384.675 302.022 467.839 199.982 467.839C98.4509 467.839 15.2877 385.186 15.2877 283.145C15.2877 283.145 15.2877 30.0835 15.2877 15.2876C30.0836 15.2876 369.879 15.2876 384.675 15.2876Z" fill="white"/>
<path d="M79.149 59.8534C79.149 59.8534 96.496 49.1392 125.578 49.1392C154.659 49.1392 172.516 64.9555 176.088 79.2412C176.088 79.2412 148.537 66.4861 150.067 92.5065L132.72 108.833L210.782 172.609H238.843L260.782 150.67C260.782 150.67 277.618 132.302 256.19 113.935C256.19 113.935 237.823 102.2 225.067 114.956C225.067 114.956 220.476 117.507 220.476 128.221C220.476 138.935 225.067 143.017 217.414 148.119C209.761 153.221 195.986 144.547 192.414 129.241C188.843 113.935 195.476 53.2208 262.823 53.2208C330.169 53.2208 331.19 125.67 331.19 125.67H345.476L340.884 142.507H356.19L350.578 157.302L365.374 162.915L354.659 173.119L367.925 178.731L356.7 185.874L367.925 195.058L357.21 202.2L364.353 210.874L353.639 216.486C353.639 216.486 374.047 229.241 374.047 262.405C374.047 295.568 349.047 322.609 318.435 322.609C287.823 322.609 278.129 303.731 278.129 293.017C278.129 282.303 287.823 281.282 287.823 281.282C287.823 281.282 293.945 281.282 297.516 285.874C301.088 290.466 318.945 285.874 318.945 262.915C318.945 239.956 297.006 236.384 292.925 236.384C288.843 236.384 281.19 237.915 275.067 243.017L281.7 247.098L271.496 252.2L279.149 254.751C279.149 254.751 272.516 272.098 248.027 281.282L217.925 269.037L219.965 275.16L269.965 297.098C269.965 297.098 284.251 312.405 283.741 330.772L230.68 309.854L233.231 315.976L281.19 336.384C281.19 336.384 294.965 352.201 298.027 372.098L247.006 352.711L249.557 359.343L282.72 372.098C282.72 372.098 301.598 380.772 314.353 416.486L207.72 372.098L198.537 387.405L194.455 382.813L186.802 394.547L200.578 395.568C200.578 395.568 206.19 388.425 216.394 388.425C226.598 388.425 232.21 397.609 232.21 404.752C232.21 411.894 229.659 415.466 229.659 415.466C229.659 415.466 229.149 401.69 217.414 401.69C205.68 401.69 204.149 414.956 204.149 414.956H139.863C139.863 414.956 138.843 398.119 124.047 398.119C109.251 398.119 106.19 414.956 106.19 414.956C106.19 414.956 101.598 380.772 126.598 380.772C126.598 380.772 138.843 379.752 145.986 390.976H163.843L181.7 360.874L77.6184 316.996L34.2511 224.139C34.2511 224.139 24.5572 207.302 40.8837 199.649C57.2103 191.996 95.9858 172.609 95.9858 172.609L97.5164 166.996L57.2103 186.384L79.149 59.8534ZM126.088 62.4045C122.516 62.4045 119.455 64.4453 119.455 66.9963C119.455 69.5473 122.516 71.5881 126.088 71.5881C129.659 71.5881 132.72 69.5473 132.72 66.9963C132.72 64.4453 130.169 62.4045 126.088 62.4045Z" fill="#1A171B"/>
<path d="M96.3671 37.5919V57.4899C96.3671 57.4899 119.326 47.796 150.449 57.4899C150.449 57.4899 150.959 42.694 135.143 37.0817C121.367 31.9796 109.122 33.5103 96.3671 37.5919Z" fill="#E43138"/>
</g>
<defs>
<clipPath id="clip0">
<rect width="400" height="483.16" fill="white"/>
</clipPath>
</defs>
</svg>
