<svg width="400" height="463" viewBox="0 0 400 463" fill="none" xmlns="http://www.w3.org/2000/svg">
<g clip-path="url(#clip0)">
<path d="M115.998 372.973C133.223 394.473 146.244 408.834 173.56 436.452C187.853 450.904 200.045 462.728 200.653 462.728C202.086 462.728 241.533 422.616 253.732 408.755C300.686 355.402 332.685 306.491 356.261 252.041C386.115 183.093 400.966 105.166 399.951 22.7876L399.671 0H200.163H0.655151L0.178516 15.3468C-0.468969 36.1946 0.722383 77.0423 2.50196 95.0103C9.08568 161.485 24.9037 218.5 51.8791 272.986C70.1314 309.853 88.9887 339.259 115.998 372.973Z" fill="white"/>
<path d="M173.56 436.452C146.244 408.834 133.223 394.473 115.998 372.973C88.9887 339.259 70.1314 309.853 51.8791 272.986C24.9037 218.5 9.08568 161.485 2.50196 95.0103C0.722383 77.0423 -0.468969 36.1946 0.178516 15.3468L0.655151 0H200.163H399.671L399.951 22.7876C400.966 105.166 386.115 183.093 356.261 252.041C332.685 306.491 300.686 355.402 253.732 408.755C241.533 422.616 202.086 462.728 200.653 462.728C200.045 462.728 187.852 450.904 173.56 436.452H173.56ZM146.633 298.179C146.922 297.711 144.749 295.112 141.804 292.403C107.262 260.623 93.2753 232.793 90.912 191.137C90.6073 185.766 90.6846 179.307 91.084 176.785L91.81 172.199L97.5532 180.04C121.596 212.865 151.572 233.716 186.457 241.879C197.234 244.401 197.287 243.389 186.972 231.94C161.561 203.735 150.062 183.97 144.757 159.381C142.221 147.626 141.82 119.391 144.191 119.565C144.538 119.59 149.426 125.555 155.053 132.819C175.72 159.499 196.613 177.681 216.882 186.625C230.89 192.807 254.109 197.863 254.109 194.733C254.109 194.152 250.447 189.731 245.971 184.907C227.266 164.75 216.421 149.805 208.628 133.444C201.38 118.23 199.103 109.354 198.537 94.1125C198.067 81.4275 199.469 67.4327 201.211 67.4327C201.643 67.4327 203.226 69.8689 204.729 72.8465C212.768 88.7712 227.579 106.469 241.795 117.139C259.468 130.403 278.657 137.963 307.634 143.079C314.313 144.258 313.446 142.376 301.73 130.255C280.067 107.844 266.697 88.0807 259.333 67.5835C256.496 59.6894 254.095 46.9766 254.142 40.1053C254.179 34.6282 256.208 22.6865 257.792 18.6295L258.87 15.8666L260.522 18.6295C261.431 20.1491 264.022 24.527 266.28 28.3581C279.822 51.3317 298.224 69.1629 317.659 78.1425C329.715 83.713 336.707 85.2275 352.915 85.7802C366.471 86.2424 367.595 86.1545 368.197 84.5851C368.554 83.6533 368.451 82.7589 367.966 82.5975C364.917 81.5811 353.948 73.4062 347.942 67.6736C335.356 55.6615 323.458 36.2507 315.013 13.9516C313.075 8.83601 311.084 4.12611 310.587 3.48514C309.868 2.55805 278.468 2.36786 157.029 2.55503L4.37558 2.79032L4.59359 18.6021C5.21705 63.8196 9.00159 111.611 14.6842 146.027C29.3252 234.698 66.7034 283.481 130.071 296.62C142.15 299.125 145.834 299.472 146.633 298.179Z" fill="#139D47"/>
</g>
<defs>
<clipPath id="clip0">
<rect width="400" height="462.73" fill="white"/>
</clipPath>
</defs>
</svg>
