<svg width="400" height="489" viewBox="0 0 400 489" fill="none" xmlns="http://www.w3.org/2000/svg">
<g clip-path="url(#clip0)">
<path d="M199.842 487.018C72.3902 372.465 2.21458 268.405 1.40314 1.39893H398.561C400.716 240.172 314.395 395.046 204.683 483.786L199.842 487.018Z" fill="#FFD520"/>
<path fill-rule="evenodd" clip-rule="evenodd" d="M0 0H399.948L399.961 1.38641C402.118 240.53 315.649 395.831 205.563 484.874L205.513 484.915L199.716 488.785L198.907 488.059C135.12 430.727 85.5517 375.922 51.8595 301.958C18.1715 228.005 0.410334 135.021 0.0042646 1.40329L0 0ZM2.80723 2.79807C3.33239 135.432 21.0576 227.59 54.4058 300.799C87.7256 373.944 136.696 428.294 199.97 485.251L203.853 482.658C312.956 394.385 398.979 240.378 397.174 2.79807H2.80723Z" fill="black"/>
<path d="M217.33 1.1333L157.368 50.0995C157.368 50.0995 153.898 48.8964 152.499 49.2601C151.1 49.6239 146.217 53.0235 145.77 54.6324C145.627 56.1434 145.858 57.6662 146.441 59.0674C146.441 59.0674 133.318 68.1751 131.793 72.1204C131.144 74.3275 131.238 76.6867 132.059 78.8357C132.059 78.8357 87.7236 109.754 80.9942 114.875C74.2649 119.995 26.6837 163.841 26.4318 164.079C26.18 164.317 67.5635 161.924 97.1391 138.798C97.1391 138.798 115.704 169.997 170.826 180.476C170.826 180.476 120.811 129.663 119.999 118.358L143.125 92.0146C143.125 92.0146 149.575 94.337 150.386 94.1692C151.198 94.0013 165.174 82.3333 165.174 82.3333C166.361 82.8973 167.632 83.2613 168.938 83.4106C169.833 83.2287 175.303 79.5492 175.835 78.2062C176.366 76.8631 175.387 74.2609 175.387 74.2609L271.417 1.30118L217.33 1.1333Z" fill="black"/>
<path d="M398.561 1.39893L395.329 1.66474L209.524 152.243C207.773 151.753 205.969 151.48 204.151 151.432C201.498 152.989 199.132 154.991 197.156 157.349C197.04 159.056 197.129 160.771 197.422 162.456L183.18 174.837L183.446 181.553C183.446 181.553 139.082 212.471 132.353 217.578C125.623 222.684 78.0422 266.544 77.7904 266.796C77.5386 267.048 118.922 264.641 148.498 241.515C148.498 241.515 167.063 272.7 222.185 283.193C222.185 283.193 172.169 232.38 171.358 221.076L194.47 194.732L201.731 196.886L216.519 185.05C217.702 185.623 218.975 185.988 220.282 186.128C221.541 186.03 227.459 181.469 227.809 180.531C227.941 179.183 227.851 177.822 227.543 176.502L397.834 47.1054L398.561 1.39893Z" fill="black"/>
<path d="M386.278 156.72L262.057 257.017C260.308 256.502 258.495 256.233 256.671 256.219C255.146 256.485 250.138 261.06 249.676 262.137C249.214 263.215 249.956 267.244 249.956 267.244L235.699 279.611L235.965 286.327C235.965 286.327 191.672 317.259 184.886 322.408C178.101 327.556 130.562 371.374 130.324 371.612C130.086 371.85 171.47 369.457 201.045 346.331C201.045 346.331 219.597 377.53 274.719 388.009C274.719 388.009 224.703 337.196 223.892 325.905L247.018 299.548L254.279 301.702L269.066 289.866C270.238 290.47 271.517 290.836 272.83 290.943C274.005 290.762 280.231 286.425 280.497 285.431C280.55 284.02 280.413 282.609 280.091 281.234L374.806 209.086L386.278 156.72Z" fill="black"/>
<path d="M193.071 36.137C192.121 36.1342 191.191 36.4137 190.4 36.9399C189.608 37.4661 188.991 38.2154 188.626 39.0928C188.261 39.9702 188.165 40.9363 188.35 41.8684C188.535 42.8006 188.992 43.6569 189.664 44.3288C190.336 45.0008 191.192 45.4581 192.124 45.6428C193.056 45.8275 194.022 45.7313 194.9 45.3664C195.777 45.0015 196.527 44.3842 197.053 43.5929C197.579 42.8017 197.859 41.872 197.856 40.9217C197.856 39.6527 197.352 38.4357 196.454 37.5384C195.557 36.6411 194.34 36.137 193.071 36.137Z" fill="#FFD520"/>
<path d="M242.513 141.177C241.563 141.174 240.634 141.453 239.843 141.978C239.052 142.504 238.435 143.253 238.069 144.129C237.704 145.006 237.607 145.971 237.791 146.903C237.974 147.835 238.43 148.691 239.101 149.363C239.771 150.036 240.626 150.494 241.557 150.681C242.489 150.867 243.454 150.773 244.332 150.41C245.21 150.047 245.96 149.432 246.488 148.643C247.016 147.853 247.297 146.925 247.297 145.975C247.299 145.346 247.177 144.722 246.937 144.14C246.698 143.558 246.346 143.029 245.901 142.583C245.457 142.137 244.928 141.783 244.347 141.542C243.766 141.301 243.142 141.177 242.513 141.177Z" fill="#FFD520"/>
<path d="M295.928 246.58C294.979 246.58 294.051 246.862 293.262 247.389C292.473 247.916 291.858 248.666 291.495 249.542C291.132 250.419 291.037 251.384 291.222 252.315C291.407 253.246 291.864 254.101 292.535 254.772C293.206 255.443 294.061 255.9 294.992 256.085C295.923 256.27 296.888 256.175 297.765 255.812C298.641 255.449 299.391 254.834 299.918 254.045C300.445 253.256 300.727 252.328 300.727 251.379C300.727 250.106 300.221 248.886 299.321 247.986C298.421 247.086 297.201 246.58 295.928 246.58Z" fill="#FFD520"/>
</g>
<defs>
<clipPath id="clip0">
<rect width="400" height="488.79" fill="white"/>
</clipPath>
</defs>
</svg>
