<svg width="400" height="522" viewBox="0 0 400 522" fill="none" xmlns="http://www.w3.org/2000/svg">
<g clip-path="url(#clip0)">
<path d="M199.709 521.377C121.895 464.923 68.561 393.622 36.6483 303.433C7.70906 221.661 -3.90223 122.562 1.14434 0.481621L1.16528 0H398.839L398.86 0.481621C403.896 122.562 392.284 221.651 363.356 303.433C331.443 393.622 278.109 464.923 200.295 521.377L200.002 521.587L199.709 521.377Z" fill="#E00E00"/>
<path fill-rule="evenodd" clip-rule="evenodd" d="M236.612 423.624C225.821 414.712 206.522 400.716 206.522 384.006V353.85C213.697 364.023 222.457 374.301 231.652 379.437C238.965 383.52 256.77 384.691 265.464 378.98C286.498 365.161 299.795 343.724 312.525 325.521C339.275 287.275 351.342 237.758 362.557 191.646C373.416 147.001 376.879 90.7496 378.549 42.6927C368.369 53.6586 352.224 73.2329 344.052 83.1294C341.796 115.895 336.579 157.881 329.431 191.417C319.005 240.334 302.037 287.357 271.403 327.577C268.558 331.313 261.119 326.861 264.321 322.323C293.116 281.508 302.392 249.225 310.698 220.203C321.874 181.152 327.035 137.13 328.289 105.061C321.397 111.683 304.656 130.368 297.256 138.931C292.555 165.889 292.804 184.916 283.283 218.832C275.418 246.851 264.838 272.517 243.303 303.818C240.215 308.306 233.935 302.387 236.907 298.106C254.81 272.32 263.835 249.205 271.462 221.404C277.372 199.857 280.627 175.557 282.183 159.524C271.713 171.685 258.917 185.763 245.588 203.069C240.766 226.492 232.884 252.643 226.456 265.533C221.884 274.701 215.494 277.555 211.32 274.804C205.463 270.943 206.471 261.414 206.522 255.842L207.664 131.105L238.734 91.5823V32.8691L207.664 68.2798V53.6586C202.396 53.6586 197.127 53.6586 191.858 53.6586V68.2798L160.788 32.8691V91.5823L191.858 131.105L193 255.842C193.051 261.414 194.06 270.943 188.203 274.804C184.029 277.555 177.638 274.701 173.066 265.533C166.639 252.643 158.757 226.492 153.935 203.069C140.606 185.763 127.81 171.685 117.339 159.524C118.895 175.557 122.15 199.857 128.061 221.404C135.687 249.205 144.713 272.32 162.616 298.106C165.588 302.387 159.307 308.306 156.219 303.818C134.685 272.517 124.105 246.851 116.239 218.832C106.718 184.916 106.968 165.889 102.266 138.931C94.8669 130.368 78.1254 111.683 71.2335 105.061C72.4876 137.13 77.6487 181.152 88.8246 220.203C97.1304 249.225 106.406 281.508 135.201 322.323C138.403 326.861 130.965 331.313 128.119 327.577C97.4856 287.357 80.5174 240.334 70.0913 191.417C62.9432 157.881 57.7265 115.895 55.4701 83.1294C47.2985 73.2329 31.1533 53.6586 20.9733 42.6927C22.6436 90.7496 26.1064 147.001 36.9652 191.646C48.1809 237.758 60.2479 287.275 86.997 325.521C99.7279 343.724 113.025 365.161 134.059 378.98C142.752 384.691 160.558 383.52 167.87 379.437C177.065 374.301 185.826 364.023 193 353.85V384.006C193 400.716 173.701 414.712 162.911 423.624C178.606 438.31 192.676 456.272 199.761 481.785C206.846 456.272 220.916 438.31 236.612 423.624Z" fill="#FFE000"/>
</g>
<defs>
<clipPath id="clip0">
<rect width="400" height="521.59" fill="white"/>
</clipPath>
</defs>
</svg>
