<svg width="400" height="522" viewBox="0 0 400 522" fill="none" xmlns="http://www.w3.org/2000/svg">
<g clip-path="url(#clip0)">
<path d="M199.709 521.377C121.895 464.923 68.561 393.622 36.6483 303.433C7.70906 221.661 -3.90223 122.562 1.14434 0.481625L1.16528 0H398.839L398.86 0.481625C403.896 122.562 392.284 221.651 363.356 303.433C331.443 393.622 278.109 464.923 200.295 521.377L200.002 521.587L199.709 521.377Z" fill="#E00E00"/>
<path d="M140.387 147.558C145.1 150.237 151.142 136.222 151.347 132.055C151.506 128.801 147.338 129.993 146.001 126.174C143.603 119.328 145.819 109.392 145.199 101.049C139.086 101.403 138.767 97.6447 139.318 94.2324C139.5 86.9312 147.396 69.6499 146.803 65.899C144.719 52.7391 129.271 50.0529 128.612 36.5748C128.524 34.7666 130.64 34.2984 131.82 33.3672C131.707 30.5775 128.905 25.1398 131.686 25.2146C153.672 25.8065 171.689 43.9983 171.689 43.9983C175.882 47.4951 180.695 38.3397 193.158 37.6483C229.363 35.64 223.376 46.2942 231.29 43.2284C242.351 38.9439 250.291 26.1972 255.403 28.5371C260.108 30.6901 264.712 27.3215 270.586 27.8847C272.934 28.1097 269.97 33.5173 271.37 34.8086C273.589 36.8569 279.491 35.6616 277.107 39.1235C272.488 45.8316 256.16 59.2918 256.404 62.5666C257.448 76.5569 269.282 89.892 256.083 103.076C256.6 112.435 255.91 124.158 245.708 127.64C245.027 135.698 251.343 152.634 258.772 149.778C262.788 148.235 275.991 138.473 283.7 125.536C295.383 105.933 305.483 79.9411 313.241 74.3188C319.173 70.0204 323.419 55.5823 335.146 56.5204C365.082 58.9149 358.561 121.323 367.805 156.621C370.827 168.157 362.448 166.258 362.241 168.946C360.325 193.72 362.036 222.44 358.387 234.906C356.455 241.506 349.554 238.028 348.311 243.77C343.586 265.595 333.466 308.031 318.939 332.316C313.735 341.014 310.868 336.216 309.098 332.799C307.016 328.781 311.083 309.546 308.972 306.847C307.216 304.603 296.834 328.371 292.954 327.389C287.053 325.896 292.343 302.358 291.184 298.464C290.308 295.522 278.196 318.411 275.372 316.623C270.498 313.538 275.373 294.116 276.902 291.101C281.852 281.341 288.873 263.601 288.604 257.952C288.15 248.436 279.271 235.589 277.129 235.247C274.381 239.071 263.484 272.77 262.792 289.076C261.506 319.341 279.453 340.442 286.549 372.817C287.206 375.814 283.417 376.862 280.889 378.254C273.818 382.148 285.893 391.171 281 394.872C277.997 397.143 250.862 381.329 237.214 368.771C236.415 368.036 230.43 381.799 231.325 382.803C238.829 391.215 253.122 393.31 257.252 397.651C264.411 405.175 260.849 418.627 257.376 414.431C255.081 411.657 254.71 404.472 252.076 403.968C249.541 403.482 246.045 408.992 243.207 408.491C238.664 407.691 236.545 400.93 231.971 405.104C230.25 406.674 242.045 417.426 242.083 421.052C242.185 430.577 243.265 430.846 245.754 430.173L251.917 428.505C262.451 425.654 251.137 442.586 245.435 442.52C235.595 442.407 234.747 433.487 229.208 427.109C225.585 422.935 222.085 418.691 222.895 422.525C225.87 436.601 217.715 440.781 218.582 443.562C222.047 454.681 230.676 448.596 230.237 452.114C229.748 456.026 225.4 458.282 220.71 458.291C211.647 458.309 208.099 450.976 207.155 442.23C206.423 435.445 208.868 424.682 206.898 422.374C204.938 420.077 200.94 436.576 197.994 437.693C195.621 438.592 192.633 435.374 190.696 436.913C188.383 438.75 188.96 443.271 189.898 445.041C191.455 447.978 197.924 450.833 195.543 452.097C184.361 458.033 176.537 447.182 179.564 435.377C182.624 423.447 204.007 405.976 213.005 376.765C214.344 372.418 206.37 359.98 200.529 361.277C195.71 362.347 188.745 362.902 190.369 367.25C192.488 372.925 200.508 374.979 203.245 386.046C204.774 392.226 193.363 398.275 193.312 394.273C193.312 394.273 196.006 381.267 193.167 382.855C190.498 384.347 187.911 386.409 185.16 386.105C181.144 385.661 178.796 383.754 177.66 385.828C175.706 389.393 177.22 398.564 176.472 403.629C175.682 408.98 172.379 404.37 171.091 409.816C170.846 410.854 170.572 415.242 172.073 416.752C174.909 419.604 178.847 420.408 178.465 421.99C177.979 424 169.246 426.636 164.927 422.775C157.781 416.385 162.17 407.879 161.108 400.393C160.872 398.733 160.895 395.725 158.231 397.016C152.934 399.585 154.37 403.757 148.364 406.605C144.936 408.231 141.716 405.068 140.401 406.659C137.61 410.037 140.419 417.78 143.092 421.282C145.294 424.167 129.769 420.074 129.032 409.203C128.559 402.215 138.316 394.766 142.756 390.758C144.759 388.951 150.384 384.092 148.767 384.12C135.688 384.339 130.032 376.837 129.308 380.515C128.42 385.027 128.091 394.682 125.647 393.471C112.587 387.001 121.048 369 130.283 368.051C155.716 365.439 170.379 367.344 173.737 349.253C174.387 345.751 175.082 336.027 172.236 333.553C170.413 331.968 168.654 341.519 166.09 340.768C159.505 338.84 153.456 321.91 152.09 319.701C138.227 297.291 138.501 284.012 135.939 263.49C134.694 253.52 132.149 235.719 128.198 235.965C121.825 236.362 115.244 248.963 114.491 254.309C111.442 275.957 129.37 290.691 128.988 312.354C128.839 320.789 126.206 321.324 125.047 319.729C122.918 316.799 114.042 299.452 110.992 300.437C109.148 301.033 111.72 329.504 108.895 330.063C102.765 331.276 96.0823 305.701 93.3665 306.167C91.6746 306.458 92.6955 327.479 92.9826 334.131C93.2249 339.746 88.6535 340.953 86.7796 335.755C76.1123 306.165 60.3438 277.459 50.9766 247.126C26.8078 241.988 40.6412 195.182 38.28 166.002C31.0793 167.195 27.5779 163.533 29.9381 154.525C35.6193 132.843 41.7294 82.5725 46.5662 69.7748C50.1924 60.1804 74.8636 56.7332 80.6466 64.9635C99.2415 91.4273 111.539 131.163 140.387 147.558Z" fill="#FFE000"/>
<path d="M199.946 92.1299C196.169 92.0015 193.081 97.6056 193.137 101.528C193.18 104.503 197.827 109.366 200.232 114.545C203.695 109.931 206.368 106.087 206.231 99.7174C206.136 95.3214 203.237 92.2417 199.946 92.1299V92.1299Z" stroke="#E00E00"/>
<path d="M178.963 126.585C186.613 120.027 183.525 111.014 188.88 104.25" stroke="#E00E00" stroke-linecap="round" stroke-linejoin="round"/>
<path d="M211.94 104.734C217.219 111.001 215.523 117.684 222.261 123.601" stroke="#E00E00" stroke-linecap="round" stroke-linejoin="round"/>
<path d="M162.917 56.8395C173.292 70.2845 179.957 61.7356 198.878 82.8024C220.034 59.6372 230.971 67.6846 236.613 53.6143" stroke="#E00E00" stroke-linecap="round" stroke-linejoin="round"/>
<path d="M230.942 70.8691C229.273 73.0064 226.036 76.3168 223.685 76.9164C219.506 76.6591 214.595 76.076 211.994 79.4966C208.431 84.1826 210.31 90.9905 218.122 90.3817C225.182 89.8314 224.231 81.8156 223.685 76.9164" stroke="#E00E00" stroke-linecap="round"/>
<path d="M217.222 86.6715C218.846 86.6715 220.164 85.3544 220.164 83.7297C220.164 82.1049 218.846 80.7878 217.222 80.7878C215.597 80.7878 214.28 82.1049 214.28 83.7297C214.28 85.3544 215.597 86.6715 217.222 86.6715Z" fill="#E00E00"/>
<path d="M166.562 71.1917C168.231 73.3289 171.468 76.6393 173.819 77.2389C177.999 76.9816 182.909 76.3985 185.51 79.8191C189.073 84.5051 187.194 91.3131 179.382 90.7042C172.322 90.1539 173.273 82.1381 173.819 77.2389" stroke="#E00E00" stroke-linecap="round"/>
<path d="M180.282 86.994C178.658 86.994 177.34 85.6769 177.34 84.0522C177.34 82.4274 178.658 81.1104 180.282 81.1104C181.907 81.1104 183.224 82.4274 183.224 84.0522C183.224 85.6769 181.907 86.994 180.282 86.994Z" fill="#E00E00"/>
</g>
<defs>
<clipPath id="clip0">
<rect width="400" height="521.59" fill="white"/>
</clipPath>
</defs>
</svg>
