<svg width="400" height="522" viewBox="0 0 400 522" fill="none" xmlns="http://www.w3.org/2000/svg">
<g clip-path="url(#clip0)">
<path d="M200.291 521.377C278.105 464.923 331.439 393.622 363.352 303.433C392.291 221.661 403.902 122.562 398.856 0.481625L398.835 0H1.16126L1.14031 0.481625C-3.89578 122.562 7.71551 221.651 36.6443 303.433C68.557 393.622 121.891 464.923 199.705 521.377L199.998 521.587L200.291 521.377Z" fill="white"/>
<path fill-rule="evenodd" clip-rule="evenodd" d="M298.337 425.984C325.718 389.591 347.259 348.914 363.352 303.433C392.291 221.661 403.902 122.562 398.856 0.481625L398.835 0H1.16126L1.14031 0.481625C-3.89578 122.562 7.71551 221.651 36.6443 303.433C52.8275 349.168 74.5196 390.047 102.119 426.595V239.202C94.4646 237.672 85.1799 234.105 76.0064 228.483L72.4742 230.649L59.4746 218.104L60.9569 215.143C49.792 201.439 43.9028 184.796 43.5869 169.742C43.2394 153.183 48.7335 136.407 58.5606 123.234L56.6222 119.93C59.256 116.407 66.9178 108.325 69.8508 106.7L72.9278 108.981C81.6444 103.216 90.9834 98.3068 102.119 95.8679L103.942 69.871C104.646 59.8198 107.061 53.626 112.723 50.3706L113.294 34.0644C113.373 31.7965 114.275 29.7343 116.468 29.7343C118.661 29.7343 119.562 31.7965 119.642 34.0644L120.213 50.3706C125.874 53.626 128.289 59.8198 128.994 69.871L130.817 95.8679C141.952 98.3068 151.291 103.216 160.008 108.981L163.085 106.7C166.018 108.325 173.68 116.407 176.314 119.93L174.375 123.234C184.202 136.407 189.696 153.183 189.349 169.742C189.033 184.796 183.144 201.439 171.979 215.143L173.461 218.104L160.462 230.649L156.929 228.483C147.756 234.105 138.471 237.672 130.817 239.202V460.771C151.208 482.672 174.135 502.826 199.705 521.377L199.998 521.587L200.291 521.377C226.054 502.686 249.133 482.368 269.64 460.275V239.202C261.985 237.672 252.701 234.105 243.527 228.483L239.995 230.649L226.995 218.104L228.478 215.143C217.313 201.439 211.424 184.796 211.108 169.742C210.76 153.182 216.254 136.406 226.081 123.234L224.143 119.93C226.777 116.407 234.439 108.325 237.372 106.7L240.449 108.981C249.165 103.216 258.504 98.3067 269.64 95.8678L271.463 69.8709C272.167 59.8198 274.582 53.626 280.244 50.3706L280.815 34.0644C280.894 31.7964 281.796 29.7343 283.989 29.7343C286.181 29.7343 287.083 31.7964 287.163 34.0644L287.734 50.3706C293.395 53.626 295.81 59.8198 296.515 69.8709L298.337 95.8678C309.473 98.3067 318.812 103.216 327.529 108.981L330.606 106.7C333.539 108.325 341.201 116.407 343.834 119.93L341.896 123.234C351.723 136.406 357.217 153.182 356.87 169.742C356.554 184.796 350.665 201.439 339.5 215.143L340.982 218.104L327.982 230.649L324.45 228.483C315.277 234.105 305.992 237.672 298.337 239.202V425.984ZM102.119 207.63C100.991 207.071 99.2084 208.525 96.704 210.567C95.9077 211.216 95.0385 211.925 94.0941 212.648C90.2605 215.581 85.2243 220.643 85.2243 220.643C90.8713 223.855 95.4352 225.92 102.119 227.605C102.119 227.605 103.166 208.149 102.119 207.63ZM94.6612 128.807L94.6614 128.807C97.8585 131.506 101.103 134.246 101.776 133.952C102.56 133.61 102.469 128.565 102.39 124.192C102.37 123.072 102.35 121.996 102.346 121.054C102.326 115.882 102.118 108.042 102.118 108.042C95.9957 109.532 85.8886 113.907 82.0272 117.059C82.0272 117.059 87.52 122.92 91.8101 126.424C92.7057 127.155 93.6812 127.979 94.6611 128.806L94.6612 128.807ZM65.9339 132.98L92.1876 166.537C94.6928 169.739 93.607 171.9 91.7319 174.301L67.7602 205.005C51.2213 182.881 51.0625 155.457 65.9339 132.98ZM136.232 210.567C133.727 208.525 131.945 207.071 130.817 207.63C129.77 208.149 130.817 227.605 130.817 227.605C137.501 225.92 142.065 223.855 147.712 220.643C147.712 220.643 142.675 215.581 138.842 212.648C137.897 211.925 137.028 211.216 136.232 210.567ZM131.16 133.952C131.833 134.246 135.077 131.506 138.274 128.807L138.275 128.807C139.255 127.979 140.23 127.155 141.126 126.424C145.416 122.92 150.909 117.059 150.909 117.059C147.047 113.907 136.94 109.532 130.818 108.042C130.818 108.042 130.61 115.882 130.589 121.054C130.586 121.995 130.566 123.069 130.546 124.187L130.546 124.192V124.192C130.467 128.566 130.376 133.61 131.16 133.952ZM140.748 166.537L167.002 132.98C181.873 155.457 181.714 182.881 165.176 205.005L141.204 174.301C139.329 171.9 138.243 169.739 140.748 166.537ZM264.225 210.567C266.729 208.525 268.512 207.071 269.64 207.63C270.687 208.149 269.64 227.605 269.64 227.605C262.956 225.92 258.392 223.855 252.745 220.643C252.745 220.643 257.781 215.581 261.615 212.648C262.559 211.925 263.428 211.216 264.224 210.567L264.225 210.567ZM269.296 133.952C268.624 134.246 265.379 131.506 262.182 128.806C261.202 127.979 260.227 127.155 259.331 126.424C255.041 122.92 249.548 117.059 249.548 117.059C253.409 113.907 263.517 109.532 269.639 108.042C269.639 108.042 269.847 115.882 269.867 121.054C269.871 121.994 269.89 123.067 269.91 124.184L269.911 124.192V124.192C269.99 128.566 270.081 133.61 269.296 133.952ZM259.708 166.537L233.455 132.98C218.583 155.457 218.742 182.881 235.281 205.005L259.253 174.301C261.128 171.899 262.214 169.739 259.708 166.537ZM298.338 207.63C299.466 207.071 301.248 208.525 303.753 210.567C304.549 211.216 305.418 211.925 306.363 212.648C310.196 215.581 315.232 220.643 315.232 220.643C309.585 223.855 305.022 225.92 298.338 227.605C298.338 227.605 297.291 208.149 298.338 207.63ZM305.795 128.806C302.598 131.506 299.354 134.246 298.681 133.952C297.897 133.61 297.988 128.566 298.067 124.192V124.192V124.192V124.191C298.087 123.071 298.107 121.996 298.11 121.054C298.131 115.882 298.339 108.042 298.339 108.042C304.461 109.532 314.568 113.907 318.43 117.059C318.43 117.059 312.937 122.92 308.647 126.424C307.751 127.155 306.775 127.979 305.795 128.806ZM334.523 132.98L308.269 166.537C305.764 169.739 306.85 171.899 308.725 174.301L332.696 205.005C349.235 182.881 349.394 155.457 334.523 132.98Z" fill="#0085CA"/>
</g>
<defs>
<clipPath id="clip0">
<rect width="400" height="521.59" fill="white"/>
</clipPath>
</defs>
</svg>
