<svg width="400" height="522" viewBox="0 0 400 522" fill="none" xmlns="http://www.w3.org/2000/svg">
<g clip-path="url(#clip0)">
<path d="M199.709 521.377C121.895 464.923 68.561 393.622 36.6483 303.433C7.70906 221.661 -3.90222 122.562 1.14434 0.481625L1.16528 0H398.839L398.86 0.481625C403.896 122.562 392.284 221.651 363.356 303.433C331.443 393.622 278.109 464.923 200.295 521.377L200.002 521.587L199.709 521.377Z" fill="#32AC60"/>
<path fill-rule="evenodd" clip-rule="evenodd" d="M13.9178 71.0289C9.53089 72.2329 17.8022 95.822 22.3044 93.7698L79.7116 67.6471C83.0516 66.1289 88.6321 63.2392 91.4486 65.7729C93.2285 67.3748 93.5007 69.6992 98.097 69.5735V148.109C98.097 153.292 101.018 158.464 100.997 163.427L100.348 358.871C100.327 363.74 117.571 363.52 117.446 358.547C117.446 358.547 115.729 302.867 115.184 275.017C114.127 220.405 113.383 128.572 113.247 119.547C113.153 113.255 116.577 107.025 120.43 101.444C121.382 100.062 122.942 98.0626 123.403 95.8534C123.811 93.8536 122.744 92.3564 122.011 91.1104L121.288 78.0019L124.995 77.2062C127.518 76.6618 125.539 65.9614 124.597 55.3029C123.675 44.927 123.539 34.1848 121.225 34.9386L118.409 35.86L117.76 32.6352C117.226 29.9758 97.1966 34.3523 97.4374 38.4461L97.762 43.7649C69.451 55.8264 42.3022 63.2182 13.9178 71.0289Z" fill="#FFE000" stroke="#32AC60" stroke-width="3"/>
<path d="M98.097 69.5839C116.744 64.6839 119.425 72.4841 121.299 78.0228M97.7725 43.7753L118.419 35.8704" stroke="#32AC60" stroke-width="3"/>
<path fill-rule="evenodd" clip-rule="evenodd" d="M129.078 164.61C124.691 165.814 132.962 189.403 137.464 187.351L194.872 161.228C198.212 159.71 203.792 156.82 206.609 159.354C208.389 160.956 208.661 163.28 213.257 163.155V241.691C213.257 246.873 216.178 252.046 216.157 257.008L215.508 452.453C215.487 457.321 232.731 457.102 232.606 452.128C232.606 452.128 230.889 396.449 230.344 368.598C229.287 313.986 228.543 222.154 228.407 213.128C228.313 206.836 231.737 200.606 235.59 195.026C236.543 193.644 238.103 191.644 238.563 189.435C238.972 187.435 237.904 185.938 237.171 184.692L236.448 171.583L240.155 170.787C242.678 170.243 240.699 159.543 239.757 148.884C238.835 138.508 238.699 127.766 236.385 128.52L233.569 129.441L232.92 126.217C232.386 123.557 212.357 127.934 212.598 132.027L212.922 137.346C184.611 149.387 157.462 156.789 129.067 164.6L129.078 164.61Z" fill="#FFE000" stroke="#32AC60" stroke-width="3"/>
<path d="M213.257 163.155C231.904 158.255 234.585 166.055 236.459 171.594M212.933 137.357L233.579 129.452" stroke="#32AC60" stroke-width="3"/>
<path fill-rule="evenodd" clip-rule="evenodd" d="M210.755 71.0289C206.368 72.2329 214.639 95.822 219.141 93.7698L276.549 67.6471C279.888 66.1289 285.469 63.2392 288.285 65.7729C290.065 67.3748 290.338 69.6992 294.934 69.5735V148.109C294.934 153.292 297.855 158.464 297.834 163.427L297.185 358.871C297.164 363.74 314.408 363.52 314.283 358.547C314.283 358.547 312.566 302.867 312.021 275.017C310.964 220.405 310.22 128.572 310.084 119.547C309.99 113.255 313.414 107.025 317.267 101.444C318.219 100.062 319.779 98.0626 320.24 95.8534C320.648 93.8536 319.58 92.3564 318.848 91.1104L318.125 78.0019L321.832 77.2062C324.355 76.6618 322.376 65.9614 321.434 55.3029C320.512 44.927 320.376 34.1848 318.062 34.9386L315.246 35.86L314.597 32.6352C314.063 29.9758 294.034 34.3523 294.274 38.4461L294.599 43.7649C266.298 55.8264 239.15 63.2182 210.755 71.0289Z" fill="#FFE000" stroke="#32AC60" stroke-width="3"/>
<path d="M294.934 69.5839C313.581 64.6839 316.261 72.4841 318.136 78.0228M294.609 43.7753L315.256 35.8704" stroke="#32AC60" stroke-width="3"/>
</g>
<defs>
<clipPath id="clip0">
<rect width="400" height="521.59" fill="white"/>
</clipPath>
</defs>
</svg>
