<svg width="400" height="522" viewBox="0 0 400 522" fill="none" xmlns="http://www.w3.org/2000/svg">
<g clip-path="url(#clip0)">
<path d="M200.291 521.377C278.105 464.923 331.439 393.622 363.352 303.433C392.291 221.661 403.902 122.562 398.856 0.481622L398.835 0H1.16126L1.14031 0.481622C-3.89578 122.562 7.71551 221.651 36.6443 303.433C68.557 393.622 121.891 464.923 199.705 521.377L199.998 521.586L200.291 521.377Z" fill="#32AC60"/>
<path d="M76.4849 204.66L88.3335 222.545L97.9219 221.436L93.4867 231.02L105.632 230.061L99.8648 239.404L111.103 238.096L106.019 247.771L118.04 246.258L112.948 256.504L124.188 254.431L119.639 264.552L129.98 262.801L126.111 272.595L137.36 270.521L134.28 280.55L145.312 278.455L142.102 288.929L153.269 286.501L150.595 296.635L160.731 293.434L158.652 303.661L169 300.69L167.25 311.958L177.281 307.627L176.434 318.66L186.773 314.014L185.365 325.248L195.099 320.511L195.228 331.65L205.021 326.429L204.301 337.316L214.229 331.922L214.645 343.155L223.232 337.707L223.699 348.186L241.696 356.681L254.327 352.098L273.927 332.261L92.4694 164.419L80.8443 193.818L76.4849 204.66Z" fill="white" stroke="#32AC60" stroke-width="2" stroke-linejoin="round"/>
<path d="M41.6845 198.826C34.1197 206.746 44.8078 214.981 50.6399 209.055L118.177 140.431C124.637 133.867 114.985 122.088 108.457 128.921L41.6845 198.826Z" fill="white" stroke="#32AC60" stroke-width="2"/>
<path d="M82.9901 154.032L63.4015 173.422L75.7597 185.906L95.3483 166.517L82.9901 154.032Z" fill="white" stroke="#32AC60" stroke-width="2"/>
<path d="M95.0905 166.482L75.9102 186.18L85.663 195.676L104.843 175.979L95.0905 166.482Z" fill="white" stroke="#32AC60" stroke-width="2" stroke-linecap="round"/>
<path d="M239.892 381.362C232.461 389.407 243.286 397.462 249.018 391.439L315.393 321.691C321.742 315.019 311.894 303.404 305.482 310.346L239.892 381.362Z" fill="white" stroke="#32AC60" stroke-width="2"/>
<path d="M273.012 368.835L291.759 348.631L278.882 336.682L260.135 356.886L273.012 368.835Z" fill="white" stroke="#32AC60" stroke-width="2"/>
<path d="M260.56 357.079L278.886 336.585L268.739 327.511L250.413 348.005L260.56 357.079Z" fill="white" stroke="#32AC60" stroke-width="2" stroke-linecap="round"/>
<path d="M121.38 102.856L133.228 120.741L142.817 119.632L138.382 129.216L150.527 128.257L144.76 137.6L155.998 136.292L150.914 145.967L162.935 144.454L157.842 154.7L169.083 152.628L164.534 162.748L174.875 160.998L171.006 170.791L182.255 168.717L179.174 178.746L190.207 176.651L186.997 187.125L198.164 184.697L195.49 194.831L205.626 191.63L203.547 201.857L213.895 198.886L212.145 210.154L222.176 205.824L221.329 216.856L231.668 212.21L230.26 223.444L239.994 218.707L240.123 229.846L249.915 224.625L249.196 235.512L259.124 230.118L259.54 241.352L268.127 235.904L268.594 246.382L286.59 254.877L299.222 250.294L318.821 230.457L137.364 62.6155L125.739 92.0136L121.38 102.856Z" fill="white" stroke="#32AC60" stroke-width="2" stroke-linejoin="round"/>
<path d="M86.3294 96.7725C78.7646 104.692 89.4527 112.927 95.2848 107.001L162.821 38.3774C169.282 31.8131 159.63 20.0339 153.102 26.8676L86.3294 96.7725Z" fill="white" stroke="#32AC60" stroke-width="2"/>
<path d="M127.635 51.978L108.046 71.3679L120.405 83.8528L139.993 64.4628L127.635 51.978Z" fill="white" stroke="#32AC60" stroke-width="2"/>
<path d="M139.735 64.4285L120.555 84.1257L130.308 93.6225L149.488 73.9252L139.735 64.4285Z" fill="white" stroke="#32AC60" stroke-width="2" stroke-linecap="round"/>
<path d="M284.787 279.433C277.356 287.479 288.181 295.533 293.912 289.51L360.288 219.763C366.637 213.091 356.789 201.475 350.377 208.417L284.787 279.433Z" fill="white" stroke="#32AC60" stroke-width="2"/>
<path d="M317.907 266.907L336.654 246.702L323.777 234.754L305.029 254.958L317.907 266.907Z" fill="white" stroke="#32AC60" stroke-width="2"/>
<path d="M305.455 255.15L323.781 234.656L313.634 225.582L295.307 246.076L305.455 255.15Z" fill="white" stroke="#32AC60" stroke-width="2" stroke-linecap="round"/>
</g>
<defs>
<clipPath id="clip0">
<rect width="400" height="521.59" fill="white"/>
</clipPath>
</defs>
</svg>
