<svg width="400" height="522" viewBox="0 0 400 522" fill="none" xmlns="http://www.w3.org/2000/svg">
<g clip-path="url(#clip0)">
<path d="M200.291 521.377C278.105 464.923 331.439 393.622 363.352 303.433C392.291 221.661 403.902 122.562 398.856 0.481622L398.835 0H1.16126L1.14031 0.481622C-3.89578 122.562 7.71551 221.651 36.6443 303.433C68.557 393.622 121.891 464.923 199.705 521.377L199.998 521.586L200.291 521.377Z" fill="#0085CA"/>
<path d="M202.801 442.59C227.653 426.435 245.782 399.639 264.58 371.707C249.743 360.888 234.401 352.847 220.193 338.567C231.641 335.295 234.542 326.513 247.005 322.473C235.969 303.935 213.406 321.018 214.537 315.675C217.211 303.027 246.691 286.009 285.276 294.912C293.752 296.868 305.602 292.745 311.695 282.934C314.302 278.736 308.675 275.276 306.371 277.81C293.472 291.998 262.472 280.492 266.728 273.844C284.287 246.419 319.489 265.571 337.382 223.707C339.29 219.242 333.207 218.916 330.994 221.577C322.721 231.524 314.689 241.646 306.105 243.538C298.574 245.198 286.008 244.63 297.055 230.495C312.18 211.142 346.168 191.596 343.371 171.213C343.069 169.007 337.599 169.959 337.305 171.515C334.611 185.79 320.711 196.166 320.612 192.031C320.435 184.55 321.252 171.579 315.155 164.48C313.198 162.201 308.519 164.796 309.699 167.674C314.221 178.71 313.944 195.187 311.828 201.48C306.907 216.115 291.713 214.392 286.855 203.038C282.52 192.907 291.946 187.265 288.537 162.883C288.155 160.151 282.078 161.346 282.281 163.815C284.94 196.117 274.039 194.722 257.393 177.657C255.56 175.777 251.948 178.948 254.864 183.513C260.996 193.113 267.509 201.51 273.422 206.183C279.404 210.91 279.578 222.106 278.288 235.819C276.207 257.957 247.034 289.117 198.166 290.786C165.529 291.901 145.346 248.397 142.026 218.071C141.507 213.332 134.014 217.476 134.651 220.311C138.131 235.806 141.818 246.182 134.015 246.732C125.161 247.356 120.696 231.661 115.515 218.516C113.849 214.291 110.346 217.348 110.324 219.714C110.254 227.22 118.048 242.36 115.115 243.538C108.923 246.025 102.817 241.848 95.5762 241.481C88.9643 241.146 88.0936 246.101 91.8204 247.214C100.682 249.86 118.651 259.366 117.823 267.23C117.288 272.316 91.5494 260.878 78.9139 254.185C74.9267 252.074 73.3423 254.852 73.8563 256.714C75.8614 263.979 85.1287 267.197 92.242 269.842C103.636 274.079 91.317 282.82 86.7664 281.603L75.3203 278.542C72.7373 277.942 72.2413 283.037 73.7232 284.132C88.813 295.274 110.845 283.65 129.623 283.732C141.099 283.782 165.73 294.987 174.608 307.955C153.827 312.868 122.329 305.314 111.522 302.099C100.326 298.769 100.601 313.006 104.734 319.268C108.412 324.841 117.423 327.29 125.001 332.026C127.978 333.887 125.756 338.416 124.571 338.099C116.734 335.998 105.278 328.499 103.7 333.315C103.224 334.767 103.421 340.046 106.137 340.992C129.559 349.154 143.205 355.375 176.714 378.881C190.051 388.237 187.399 413.768 202.801 442.59Z" fill="white"/>
<path d="M195.799 273.791C221.883 265.163 231.841 236.988 250.639 209.057C233.59 192.512 227.097 190.446 214.122 176.875C231.184 172.241 225.687 163.85 238.15 159.811C225.266 138.33 205.328 167.303 204.649 156.228C204.142 147.968 227.862 134.57 270.593 137.667C279.27 138.296 294.627 136.456 300.72 129.225C303.905 125.446 298.423 121.359 295.396 122.96C270.25 136.255 264.349 121.512 266.338 119.549C291.146 95.0661 325.607 115.808 333.022 75.338C333.897 70.5621 327.715 71.1121 326.223 74.235C319.574 88.1432 310.587 93.0469 298.323 95.1006C293.584 95.8942 280.01 93.4982 292.04 80.1895C307.255 63.3574 344.588 54.5809 335.883 20.0079C335.34 17.8487 331.762 18.08 331.757 19.6637C331.713 34.1383 324.66 48.6472 316.624 46.565C309.381 44.6883 315.66 28.3116 309.564 21.2133C307.607 18.9343 302.563 17.3609 303.012 20.4385C304.876 33.2013 304.583 32.083 303.909 37.4613C301.603 55.8608 281.179 64.454 276.404 46.2048C273.614 35.5438 278.54 33.8529 278.868 16.3035C278.92 13.5449 273.299 13.9408 272.476 16.2771C269.695 24.1738 268.55 37.8334 262.465 38.1449C257.284 38.41 246.864 29.4421 240.891 19.8238C239.506 17.5936 235.259 20.7331 237.13 25.8168C241.62 38.0171 259.434 53.3075 265.347 57.9804C271.33 62.7076 274.667 72.2762 272.306 85.8453C269.233 103.507 242.725 137.702 191.528 127.06C142.903 116.953 143.965 81.9657 137.576 51.4306C136.025 44.0149 130.659 52.7512 131.022 56.955C132.388 72.7766 135.098 79.977 127.591 82.1741C117.46 85.1389 115.229 67.773 110.947 52.9799C109.684 48.6174 105.985 51.8226 105.756 54.1778C105.064 61.3281 109.419 70.7785 108.29 72.9876C105.254 78.9307 99.4912 75.1098 92.2499 74.7427C85.638 74.4076 81.4156 80.0813 85.1598 81.1344C95.6162 84.0752 115.814 91.0998 113.003 101.235C111.636 106.164 87.7542 102.978 73.2026 91.6315C69.6444 88.8572 67.631 92.2981 68.145 94.1603C70.1501 101.425 77.7322 103.471 84.8454 106.116C96.2396 110.353 90.1329 121.31 84.2422 119.988L72.8259 117.425C70.2387 116.845 69.8044 121.847 71.2288 123.015C88.6914 137.337 98.777 118.773 132.23 119.879C143.7 120.258 169.855 133.295 174.901 150.369C150.014 151.723 115.642 141.295 104.835 138.08C93.639 134.75 93.5915 151.245 97.7244 157.507C101.402 163.079 111.19 164.233 118.768 168.969C121.745 170.83 118.833 175.622 117.648 175.304C109.811 173.204 98.1804 165.095 96.6023 169.912C96.1267 171.364 99.5925 178.946 102.324 179.847C125.955 187.643 139.925 195.798 172.313 221.264C185.12 231.333 180.397 244.968 195.799 273.791Z" fill="white"/>
<path d="M119.361 310.459C109.28 302.896 103.96 316.562 115.687 319.059" stroke="#0085CA" stroke-width="2.5" stroke-linecap="round"/>
<path d="M112.203 146.77C102.122 139.207 96.802 152.874 108.529 155.37" stroke="#0085CA" stroke-width="2.5" stroke-linecap="round"/>
<path d="M158.331 164.442C165.983 159.964 179.199 161.714 182.519 171.208C175.002 176.117 161.75 174.523 158.331 164.442Z" fill="white"/>
<path d="M169.27 171.738C165.517 170.901 162.268 168.773 160.557 165.266C163.803 163.825 167.909 163.438 171.661 164.292C175.44 165.152 178.643 167.21 180.304 170.466C177.11 172.077 173.021 172.576 169.27 171.738Z" stroke="#0085CA" stroke-width="3.5"/>
<path d="M170.44 171.338C172.478 171.338 174.109 169.668 174.109 167.635C174.109 165.602 172.478 163.932 170.44 163.932C168.402 163.932 166.771 165.602 166.771 167.635C166.771 169.668 168.402 171.338 170.44 171.338Z" fill="white" stroke="#0085CA" stroke-width="2"/>
<path d="M158.788 321.281C166.44 316.802 179.656 318.552 182.977 328.047C175.459 332.956 162.207 331.362 158.788 321.281Z" fill="white"/>
<path d="M169.727 328.738C165.974 327.901 162.725 325.773 161.015 322.266C164.261 320.825 168.367 320.438 172.118 321.292C175.898 322.152 179.101 324.21 180.761 327.466C177.567 329.077 173.478 329.576 169.727 328.738Z" stroke="#0085CA" stroke-width="3.5"/>
<path d="M172.736 327.678C173.872 327.013 174.566 325.79 174.566 324.474C174.566 323.157 173.872 321.934 172.736 321.269C171.599 320.604 170.195 320.604 169.058 321.269C167.922 321.934 167.228 323.157 167.228 324.474C167.228 325.79 167.922 327.013 169.058 327.678C170.195 328.343 171.599 328.343 172.736 327.678Z" fill="white" stroke="#0085CA" stroke-width="2"/>
</g>
<defs>
<clipPath id="clip0">
<rect width="400" height="521.59" fill="white"/>
</clipPath>
</defs>
</svg>
