<svg width="400" height="522" viewBox="0 0 400 522" fill="none" xmlns="http://www.w3.org/2000/svg">
<g clip-path="url(#clip0)">
<path d="M200.291 521.377C278.105 464.923 331.439 393.622 363.352 303.433C392.291 221.661 403.902 122.562 398.856 0.481625L398.835 0H1.16126L1.14031 0.481625C-3.89578 122.562 7.71551 221.651 36.6443 303.433C68.557 393.622 121.891 464.923 199.705 521.377L199.998 521.587L200.291 521.377Z" fill="#32AC60"/>
<path fill-rule="evenodd" clip-rule="evenodd" d="M205.463 372.106C243.491 344.046 269.414 307.034 269.331 254.066C269.257 205.873 246.988 167.311 223.21 129.891C221.127 126.614 221.765 124.468 223.21 123.117C224.477 121.934 227.011 120.898 226.759 119.568C225.754 114.197 222.718 110.365 219.629 104.816C213.64 94.0524 210.918 80.3785 211.431 71.1858C212.279 56.0043 222.948 45.0526 235.785 31.5148C237.523 29.6826 249.867 29.0544 248.045 32.4781C245.721 36.8441 241.753 44.4034 238.371 50.2143C237.418 51.8477 237.669 55.1143 241.114 55.7006C243.428 56.0985 239.847 62.9668 239.344 65.5425C237.879 72.9762 236.654 75.1016 237.732 77.6354C239.083 80.8078 246.684 75.2168 251.28 74.086C255.018 73.1647 270.807 91.393 270.629 94.5655L269.174 120.856C268.263 137.388 290.082 165.364 300.615 186L314.488 219.861L329.973 219.211C336.161 218.95 340.642 236.204 340.935 245.334C341.249 255.008 343.773 269.195 337.554 274.2C335.344 275.98 324.675 277.802 317.723 279.519C316.038 300.658 300.448 329.555 286.439 344.025C264.986 366.169 227.524 382.073 223.545 395.946C220.833 405.421 227.461 411.955 235.806 411.107C246.024 410.06 245.229 403.453 245.647 397.883C262.724 403.83 256.651 421.577 254.516 424.655C247.626 434.559 237.156 435.585 223.556 431.753V444.653C217.399 443.71 212.688 441.365 210.332 436.591C205.484 426.78 206.144 414.614 205.966 403.212L205.463 372.106Z" fill="#FFE000"/>
<path fill-rule="evenodd" clip-rule="evenodd" d="M316.823 229.472L325.45 229.148C329.146 229.012 331.114 239.597 331.743 247.858C332.214 254.077 332.8 266.17 330.214 266.641L319.252 268.662C319.953 257.061 319.367 242.979 316.833 229.472H316.823Z" fill="#32AC60"/>
<path fill-rule="evenodd" clip-rule="evenodd" d="M257.028 107.245C249.008 99.9995 246.537 95.9581 241.774 90.2729C240.266 88.472 244.6 86.9957 247.385 85.8336C250.809 84.3992 259.824 92.2517 260.023 96.4292C260.253 101.225 258.965 108.522 257.028 107.245Z" fill="#32AC60"/>
<path fill-rule="evenodd" clip-rule="evenodd" d="M194.993 372.106C156.966 344.046 131.042 307.034 131.126 254.066C131.199 205.873 153.469 167.311 177.247 129.891C179.33 126.614 178.691 124.468 177.247 123.117C175.98 121.934 173.446 120.898 173.697 119.568C174.702 114.197 177.739 110.365 180.827 104.816C186.816 94.0524 189.538 80.3785 189.025 71.1858C188.177 56.0043 177.508 45.0526 164.672 31.5148C162.934 29.6826 150.59 29.0544 152.412 32.4781C154.736 36.8441 158.704 44.4034 162.086 50.2143C163.039 51.8477 162.787 55.1143 159.343 55.7006C157.029 56.0985 160.61 62.9668 161.112 65.5425C162.578 72.9762 163.803 75.1016 162.725 77.6354C161.374 80.8078 153.773 75.2168 149.176 74.086C145.439 73.1647 129.65 91.393 129.828 94.5655L131.283 120.856C132.194 137.388 110.374 165.364 99.8415 186L85.9687 219.861L70.4835 219.211C64.2957 218.95 59.8145 236.204 59.5214 245.334C59.2073 255.008 56.684 269.195 62.9032 274.2C65.1124 275.98 75.7814 277.802 82.7335 279.519C84.4191 300.658 100.009 329.555 114.018 344.025C135.471 366.169 172.933 382.073 176.912 395.946C179.623 405.421 172.996 411.955 164.651 411.107C154.432 410.06 155.228 403.453 154.809 397.883C137.733 403.83 143.805 421.577 145.941 424.655C152.83 434.559 163.301 435.585 176.901 431.753V444.653C183.057 443.71 187.769 441.365 190.125 436.591C194.972 426.78 194.313 414.614 194.491 403.212L194.993 372.106Z" fill="#FFE000"/>
<path fill-rule="evenodd" clip-rule="evenodd" d="M83.6339 229.472L75.0065 229.148C71.3106 229.012 69.3422 239.597 68.714 247.858C68.2429 254.077 67.6566 266.17 70.2427 266.641L81.2048 268.662C80.5033 257.061 81.0896 242.979 83.6234 229.472H83.6339Z" fill="#32AC60"/>
<path fill-rule="evenodd" clip-rule="evenodd" d="M143.428 107.245C151.448 99.9995 153.919 95.9581 158.683 90.2729C160.191 88.472 155.856 86.9957 153.071 85.8336C149.648 84.3992 140.633 92.2517 140.434 96.4292C140.204 101.225 141.491 108.522 143.428 107.245Z" fill="#32AC60"/>
</g>
<defs>
<clipPath id="clip0">
<rect width="400" height="521.59" fill="white"/>
</clipPath>
</defs>
</svg>
