<svg width="400" height="522" viewBox="0 0 400 522" fill="none" xmlns="http://www.w3.org/2000/svg">
<g clip-path="url(#clip0)">
<path d="M199.788 521.679C123.864 467.731 66.8219 391.28 36.7282 303.138C7.75384 221.643 -3.87819 122.524 1.12711 0.49348V0H398.872V0.49348C403.877 122.524 392.245 221.572 363.623 303.631C333.338 391.617 276.207 467.883 200.282 521.679H199.788Z" fill="#E00E00"/>
<path d="M207.331 366.585L206.908 338.386C213.253 337.54 217.06 334.297 217.13 329.786C216.813 318.389 215.108 307.073 212.055 296.088H328.939C329.793 286.983 327.118 277.898 321.466 270.709C318.576 267.325 309.905 263.659 304.829 258.372C293.349 244.766 286.009 228.154 283.68 210.505C278.956 188.157 278.674 129.715 271.343 115.756C264.011 101.798 245.47 92.5628 229.044 89.7429C229.679 85.3721 230.666 78.1109 230.948 73.599C231.794 61.6145 232.217 58.5832 224.462 55.4813C216.363 52.3193 207.701 50.8556 199.013 51.181C190.343 50.7901 181.69 52.2563 173.634 55.4813C165.879 58.6537 166.584 61.6145 167.148 73.599C167.148 78.1109 168.487 85.3721 168.981 89.7429C152.908 92.5628 134.226 101.798 127.035 115.756C119.844 129.715 119.844 188.157 114.91 210.505C112.603 228.16 105.261 244.778 93.7604 258.372C88.7551 263.73 80.084 267.255 77.1231 270.709C71.541 277.937 68.8517 286.985 69.5799 296.088H186.464C183.455 306.914 181.751 318.061 181.388 329.292C181.388 333.804 185.195 337.047 191.61 337.893L191.187 366.092L207.331 366.585Z" fill="#FFE000"/>
<path d="M219.034 89.4604C219.759 85.0565 220.113 80.5995 220.092 76.1365C220.092 68.5933 217.906 63.5175 209.165 63.0945C201.762 63.0945 203.102 66.6193 203.102 74.1625V89.0374L219.034 89.4604Z" fill="#E00E00"/>
<path d="M179.908 89.4604C179.148 85.0608 178.794 80.6008 178.85 76.1365C178.85 68.5933 181.036 63.5175 189.707 63.0945C197.18 63.0945 195.77 66.6193 195.77 74.1625V89.0374L179.908 89.4604Z" fill="#E00E00"/>
</g>
<defs>
<clipPath id="clip0">
<rect width="400" height="521.68" fill="white"/>
</clipPath>
</defs>
</svg>
