<svg width="400" height="522" viewBox="0 0 400 522" fill="none" xmlns="http://www.w3.org/2000/svg">
<g clip-path="url(#clip0)">
<path d="M2.58728 1.5H397.412C402.313 122.977 390.674 221.523 362.207 303.137L362.205 303.143C332.138 390.497 275.519 466.258 200.282 519.838C125.017 466.129 67.9939 390.174 38.1478 302.654L38.1446 302.644L38.1414 302.635C9.32676 221.59 -2.31449 122.979 2.58728 1.5Z" fill="white" stroke="#0085CA" stroke-width="3"/>
<path fill-rule="evenodd" clip-rule="evenodd" d="M268.298 462.24L243.003 249.418C242.981 248.802 243.09 248.187 243.322 247.616C243.555 247.044 243.906 246.529 244.352 246.102C244.798 245.676 245.329 245.349 245.911 245.143C246.493 244.937 247.111 244.856 247.726 244.907C248.97 244.993 249.87 246.504 250.985 248.378C252.588 251.071 254.637 254.512 258.794 255.552C268.803 257.976 279.356 256.594 288.403 251.674L331.688 225.238C308.636 223.969 275.291 223.123 247.092 224.603C247.069 226.892 246.234 229.097 244.736 230.827C243.239 232.557 241.175 233.699 238.914 234.05L236.306 223.334L127.67 224.18C123.926 224.419 120.271 225.417 116.926 227.114C113.581 228.811 110.616 231.171 108.212 234.05C97.6378 245.33 93.1965 265.21 92.703 280.578C95.9789 281.283 99.3673 281.283 102.643 280.578V280.719C103.852 283.419 105.632 285.824 107.86 287.769C112.396 287.911 116.822 286.352 120.267 283.398C121.874 281.934 123.07 280.741 124.057 279.756C126.97 276.85 128.077 275.745 132.604 274.797C135.918 274.163 141.91 273.951 141.91 277.617C141.91 281.57 141.726 284.846 141.556 287.867C141.41 290.448 141.276 292.843 141.276 295.312C141.487 303.067 156.291 302.221 156.855 295.312C157.049 292.94 156.902 289.92 156.757 286.934C156.478 281.222 156.206 275.633 158.336 274.938C161.579 273.881 165.738 273.458 164.61 279.521L134.336 464.817C90.8026 418.796 57.3914 363.73 36.728 303.138C7.75372 221.643 -3.87831 122.524 1.12698 0.49348V0H398.872V0.49348C403.877 122.524 392.245 221.572 363.623 303.631C343.216 362.919 310.62 416.885 268.298 462.24Z" fill="#0085CA"/>
<path d="M98.1308 209.658C74.5142 206.204 56.3965 198.52 42.297 170.673C29.3974 146.882 22.7965 120.188 23.1218 93.1266C23.1218 86.0769 37.2212 86.7818 37.2212 93.6201C36.8638 106.344 40.2463 118.894 46.9499 129.715C49.2763 132.534 53.2241 132.887 52.0961 127.811C49.6426 116.447 48.718 104.806 49.3468 93.1971C49.7089 77.4048 52.0778 61.7226 56.3965 46.528C59.1459 40.7472 72.8223 44.3426 70.8484 52.8727C67.9683 69.1561 67.2336 85.7465 68.663 102.221C70.0201 113.654 73.2098 124.794 78.1096 135.213C80.295 140.219 87.4857 140.007 87.2742 136.059C86.0089 124.754 87.1582 113.309 90.6461 102.48C94.1339 91.6522 99.8809 81.6879 107.507 73.2464C112.653 68.1001 124.144 76.2073 119.844 84.0324C111.632 98.4338 108.224 115.078 110.115 131.548C110.609 135.848 117.94 139.161 119.35 132.182C120.77 121.966 124.964 112.334 131.476 104.336C136.481 98.9778 145.575 106.733 143.954 112.09C136.113 130.045 133.9 149.955 137.609 169.193C139.987 176.61 144.424 183.198 150.403 188.191C156.381 193.183 163.655 196.374 171.377 197.392C180.714 198.846 190.131 199.717 199.576 200C208.789 199.757 217.975 198.885 227.07 197.392C234.792 196.374 242.066 193.183 248.045 188.191C254.023 183.198 258.46 176.61 260.838 169.193C264.608 149.812 262.37 129.742 254.423 111.667C252.449 106.31 261.473 98.5549 266.901 103.913C273.298 111.981 277.477 121.58 279.026 131.759C280.366 138.809 287.698 135.284 288.262 131.125C290.173 114.609 286.765 97.9136 278.533 83.4685C274.233 75.6433 285.583 67.6771 290.87 72.7529C298.501 81.1747 304.247 91.128 307.724 101.948C311.201 112.768 312.328 124.205 311.032 135.495C311.032 139.514 318.082 139.725 320.267 134.649C325.126 124.24 328.314 113.129 329.714 101.727C331.097 85.3668 330.339 68.8958 327.458 52.7317C325.484 44.1311 339.231 40.6062 341.557 46.3165C345.915 61.5268 348.284 77.2372 348.607 93.0561C349.22 104.661 348.319 116.297 345.928 127.67C344.73 132.675 348.748 132.393 351.004 129.574C357.876 118.785 361.385 106.196 361.085 93.4086C361.085 86.3589 375.185 86.3589 375.185 92.9151C375.588 119.968 369.033 146.67 356.15 170.462C341.698 198.238 323.722 205.71 300.176 209.517C266.844 214.848 233.183 217.863 199.435 218.541C165.511 218.039 131.662 215.189 98.1308 210.011V209.658Z" fill="white"/>
<path d="M199.224 241.735C202.066 241.735 204.371 239.431 204.371 236.589C204.371 233.747 202.066 231.443 199.224 231.443C196.382 231.443 194.078 233.747 194.078 236.589C194.078 239.431 196.382 241.735 199.224 241.735Z" fill="#0085CA"/>
</g>
<defs>
<clipPath id="clip0">
<rect width="400" height="521.68" fill="white"/>
</clipPath>
</defs>
</svg>
