<svg width="400" height="522" viewBox="0 0 400 522" fill="none" xmlns="http://www.w3.org/2000/svg">
<g clip-path="url(#clip0)">
<path d="M199.788 521.644C123.841 467.724 66.792 391.27 36.7282 303.117C7.75384 221.628 -3.87819 122.516 1.12711 0.493447V0H398.872V0.493447C403.877 122.516 392.245 221.558 363.623 303.611C333.338 391.591 276.207 467.851 200.282 521.644H199.788Z" fill="white"/>
<path fill-rule="evenodd" clip-rule="evenodd" d="M199.788 521.644C123.841 467.724 66.792 391.27 36.7282 303.117C7.75384 221.628 -3.87819 122.516 1.12711 0.493447V0H398.872V0.493447C403.877 122.516 392.245 221.558 363.623 303.611C363.141 305.012 362.652 306.409 362.156 307.804L244.061 212.463C226.846 198.238 210.618 182.858 195.489 166.432C177.901 147.094 161.806 126.451 147.339 104.681C143.019 98.4428 138.751 91.5807 134.394 84.576C123.536 67.1204 112.128 48.7793 97.9912 37.0078C91.6465 31.7209 82.7639 25.3765 78.534 26.7159C74.3042 28.0552 82.3409 46.7357 89.3201 47.4407L96.3698 48.2866C103.561 49.344 112.796 77.5409 115.545 87.3394C117.383 93.3399 119.054 99.243 120.715 105.112C124.343 117.928 127.925 130.582 133.099 143.733C143.74 170.421 159.525 194.756 179.556 215.354C192.246 227.76 205.711 238.969 221.009 251.234L344.552 350.244C341.692 356.241 338.701 362.168 335.582 368.02L187.523 248.768C170.323 234.525 154.096 219.146 138.95 202.736C121.368 183.395 105.272 162.752 90.8006 140.985C86.6368 134.916 82.5114 128.257 78.2946 121.45C67.3758 103.825 55.845 85.2119 41.4526 73.3122C35.2488 68.0253 26.3662 61.6809 22.1363 63.0203C17.9065 64.3597 25.9432 83.0401 32.9224 83.7451L39.9721 84.591C46.8787 85.4197 55.4768 112.838 58.6736 123.032L58.8654 123.644C60.6673 129.527 62.3155 135.316 63.954 141.072C67.6361 154.006 71.2694 166.769 76.4896 180.038C87.131 206.725 102.916 231.06 122.947 251.658C136.144 264.317 149.98 276.292 164.4 287.539L312.777 406.094C282.812 450.884 244.774 490.121 200.282 521.644H199.788Z" fill="#0085CA"/>
<path d="M2.58739 1.5H397.412C402.313 122.968 390.674 221.509 362.207 303.117L362.205 303.123C332.105 390.566 275.396 466.393 200.035 519.979C124.655 466.266 68.028 390.247 38.1479 302.633L38.1447 302.624L38.1415 302.615C9.32689 221.575 -2.31436 122.97 2.58739 1.5Z" stroke="#0085CA" stroke-width="3"/>
</g>
<defs>
<clipPath id="clip0">
<rect width="400" height="521.64" fill="white"/>
</clipPath>
</defs>
</svg>
