<svg width="400" height="522" viewBox="0 0 400 522" fill="none" xmlns="http://www.w3.org/2000/svg">
<g clip-path="url(#clip0)">
<path d="M199.788 521.679C123.864 467.731 66.8218 391.28 36.728 303.138C7.75372 221.643 -3.87831 122.524 1.12698 0.49348V0H398.872V0.49348C403.877 122.524 392.245 221.572 363.623 303.631C333.338 391.617 276.207 467.883 200.281 521.679H199.788Z" fill="#E00E00"/>
<path d="M370.885 282.975C363.835 277.476 356.01 271.272 350.652 266.76C334.649 253.789 311.315 232.64 304.758 227C296.863 219.95 294.889 210.292 290.659 202.537C289.39 200.211 264.011 181.388 250.617 170.884C246.739 167.853 253.225 164.187 250.617 161.085L247.374 157.278C244.342 153.753 244.413 147.55 252.661 137.116C263.446 123.633 275.229 110.978 287.91 99.2591C307.486 80.8822 328.727 64.362 351.357 49.9112C354.247 48.1487 353.049 43.2844 350.723 43.2844C337.117 43.2844 292.844 60.4857 268.875 74.0917C245.172 87.8499 222.59 103.455 201.339 120.761L196.545 116.037C193.232 112.795 173.422 138.103 162.002 152.766C150.581 167.43 130.842 192.738 134.79 195.065L140.571 198.519C128.962 223.33 119.344 249.025 111.808 275.361C104.758 301.938 98.4134 349.101 101.868 362.284C102.502 364.61 107.367 364.681 108.424 361.367C116.795 335.898 127.46 311.24 140.289 287.698C148.569 272.638 157.997 258.238 168.488 244.624C176.665 234.05 182.587 232.358 186.746 234.473L191.188 236.658C194.994 238.491 196.898 231.441 200.846 234.332C214.311 244.695 238.632 264.786 241.241 265.491C249.841 267.747 259.852 267.183 268.452 273.176C275.502 278.181 301.516 295.664 318.294 308.001C327.882 315.051 344.237 327.811 352.203 333.944C359.521 317.382 365.738 300.355 370.814 282.975H370.885Z" fill="#FFE000"/>
</g>
<defs>
<clipPath id="clip0">
<rect width="400" height="521.68" fill="white"/>
</clipPath>
</defs>
</svg>
