<svg width="400" height="522" viewBox="0 0 400 522" fill="none" xmlns="http://www.w3.org/2000/svg">
<g clip-path="url(#clip0)">
<path d="M200.291 521.377C278.105 464.923 331.439 393.622 363.352 303.433C392.291 221.661 403.902 122.562 398.856 0.481625L398.835 0H1.16126L1.14031 0.481625C-3.89578 122.562 7.71551 221.651 36.6443 303.433C68.557 393.622 121.891 464.923 199.705 521.377L199.998 521.587L200.291 521.377Z" fill="#32AC60"/>
<path fill-rule="evenodd" clip-rule="evenodd" d="M303.47 237.332L299.738 204.08L295.419 204.08L295.179 197.172L361.037 205.289C362.77 205.51 365.394 204.079 365.05 201.767L346.011 73.839C343.33 73.2551 330.801 71.7368 327.411 71.4869C325.068 52.5899 309.633 35.9387 289.224 35.9387C268.815 35.9387 253.38 52.5899 251.036 71.4869C247.646 71.7368 235.118 73.2551 232.436 73.839L213.398 201.767C213.054 204.079 215.677 205.51 217.411 205.289L283.268 197.172L283.029 204.08L278.71 204.08L274.978 237.332C274.547 241.164 285.344 248.106 289.224 250.117C293.103 248.106 303.9 241.164 303.47 237.332Z" fill="#FFE000" stroke="#32AC60"/>
<path fill-rule="evenodd" clip-rule="evenodd" d="M268.147 70.3126C268.812 63.7176 275.759 51.018 289.224 50.8931C302.689 51.018 309.636 63.7176 310.301 70.3126C307.12 70.1713 292.33 69.8782 289.224 69.8557C286.118 69.8782 271.328 70.1713 268.147 70.3126Z" fill="#32AC60" stroke="#32AC60"/>
<path fill-rule="evenodd" clip-rule="evenodd" d="M125.479 237.332L121.747 204.08L117.428 204.08L117.188 197.172L183.046 205.289C184.779 205.51 187.403 204.079 187.059 201.767L168.02 73.839C165.339 73.2551 152.81 71.7368 149.42 71.4869C147.077 52.5899 131.642 35.9387 111.233 35.9387C90.8239 35.9387 75.3887 52.5899 73.0456 71.4869C69.6555 71.7368 57.1267 73.2551 54.4453 73.839L35.407 201.767C35.0628 204.079 37.6866 205.51 39.42 205.289L105.277 197.172L105.038 204.08L100.719 204.08L96.9867 237.332C96.5565 241.164 107.354 248.106 111.233 250.117C115.112 248.106 125.909 241.164 125.479 237.332Z" fill="#FFE000" stroke="#32AC60"/>
<path fill-rule="evenodd" clip-rule="evenodd" d="M90.1559 70.3126C90.8209 63.7176 97.7678 51.018 111.233 50.8931C124.698 51.018 131.645 63.7176 132.31 70.3126C129.129 70.1713 114.339 69.8782 111.233 69.8557C108.127 69.8782 93.3367 70.1713 90.1559 70.3126Z" fill="#32AC60" stroke="#32AC60"/>
<path fill-rule="evenodd" clip-rule="evenodd" d="M214.474 416.902L210.742 383.65H206.423L206.184 376.742L272.041 384.859C273.775 385.08 276.398 383.649 276.054 381.337L257.016 253.409C254.335 252.825 241.806 251.307 238.416 251.057C236.073 232.16 220.637 215.509 200.228 215.509C179.819 215.509 164.384 232.16 162.041 251.057C158.651 251.307 146.122 252.825 143.441 253.409L124.402 381.337C124.058 383.649 126.682 385.08 128.415 384.859L194.273 376.742L194.033 383.65H189.715L185.982 416.902C185.552 420.734 196.349 427.676 200.228 429.687C204.108 427.676 214.905 420.734 214.474 416.902Z" fill="#FFE000" stroke="#32AC60"/>
<path fill-rule="evenodd" clip-rule="evenodd" d="M179.151 249.883C179.816 243.288 186.763 230.588 200.228 230.463C213.694 230.588 220.64 243.288 221.305 249.883C218.125 249.741 203.334 249.448 200.228 249.426C197.122 249.448 182.332 249.741 179.151 249.883Z" fill="#32AC60" stroke="#32AC60"/>
</g>
<defs>
<clipPath id="clip0">
<rect width="400" height="521.59" fill="white"/>
</clipPath>
</defs>
</svg>
