<svg width="400" height="489" viewBox="0 0 400 489" fill="none" xmlns="http://www.w3.org/2000/svg">
<g clip-path="url(#clip0)">
<path d="M198.615 488.041C184.368 488.797 -10.9293 320.696 0.480867 0H399.523C410.934 320.696 213.871 488.04 199.624 487.347L198.615 488.104V488.041Z" fill="#A6A8AB"/>
<path d="M343.481 201.695L342.158 199.048L340.393 196.653L339.762 194.699L338.438 192.43L335.475 187.829L334.089 184.551L331.504 179.32L329.865 175.412L326.587 169.55L324.191 163.877L322.867 160.285L318.959 154.423L315.177 146.607L308.873 138.665L301.056 135.703L298.471 134.695L296.517 133.371L294.878 133.686L289.961 131.921L280.82 128.329L268.716 124.421L263.484 122.782L257.18 120.828L251.317 117.55L249.678 113.958L244.761 103.81L239.529 92.4015L236.566 87.8003L234.296 87.4851L233.225 86.4767L229.316 86.1615L224.714 85.153L221.121 83.1991L216.897 82.884L212.674 81.2452L209.08 79.6064L205.172 79.2913L202.209 77.9676L195.905 76.3289L187.395 74.3749L180.208 72.421L176.489 71.4756L174.219 70.1519H170.626L162.809 68.5131L154.299 66.8744L151.273 65.9289L147.049 65.6138L143.771 64.2901H139.863L133.559 63.2817L129.65 62.6514L128.642 63.2817H127.003L124.355 65.5507L121.392 66.8744L118.114 68.8283L111.81 73.0513L103.993 76.644L98.1302 79.2913L94.2218 81.2452L90.6285 84.5227L81.1725 89.7542L78.5248 91.7082L76.8858 93.3469L74.9316 96.9396L72.3469 101.541L68.1233 106.457L66.169 110.05L65.8538 113.012L64.2148 115.66L63.5844 118.937L62.5757 122.215L59.9281 125.492L58.6042 129.715L56.713 136.522L53.1198 145.347L51.7959 149.948V155.81L50.1569 161.041L49.8417 167.344L49.2113 170.937L48.2027 175.16L47.8875 180.076L49.5265 185.938L52.8046 191.169L54.7588 195.077V205.477L52.8046 213.293L51.4807 219.596L50.409 231.95L49.7786 233.904L50.0938 236.488L52.3633 239.765L54.6327 243.043L55.2631 245.438L56.9022 247.959L59.865 250.606L64.7821 253.191L69.3841 253.821L71.9687 254.83H74.5533L77.5162 253.506L82.1181 251.552L86.3418 248.968L90.2503 247.644L92.5197 249.283L93.8435 251.237L92.8349 253.821L91.8262 255.775V259.053L92.8349 262.33L95.7978 267.246L98.7606 272.793L101.724 276.701L103.993 279.663L105.317 279.033L106.325 277.079L107.334 274.81L108.343 273.171L109.351 270.524L111.306 269.2H112.945L113.26 271.154L113.89 274.432L114.899 278.655L115.907 279.663L119.186 282.941L124.733 288.172L129.965 292.774L136.269 297.69L138.917 300.274L140.556 298.95L141.186 297.942L142.195 295.988L143.519 294.034L144.843 291.387H146.482L147.806 293.341L149.13 295.925L149.445 300.148L148.436 302.102L145.158 306.325L140.934 313.51L137.026 319.057L135.702 325.36L136.332 328.638L138.602 328.953L140.556 329.268L141.88 330.276L141.565 332.545V334.814L145.473 335.823H152.975L156.253 335.193L158.838 334.184L161.422 332.545L165.016 330.591L167.663 329.583L169.617 326.936L170.626 324.351L170.941 316.536L171.257 310.233L169.617 305.632L167.348 297.438L165.394 291.135L166.024 289.496L168.609 290.126L170.563 291.45L175.165 293.404L178.443 295.043L180.082 294.034L182.352 291.765L184.936 288.803L188.214 285.84L190.168 288.109L191.808 291.072L193.762 295.673L194.392 298.95L192.123 300.589L189.16 304.812L185.567 309.035L184.243 312.943L182.288 318.805L180.649 322.713L180.334 325.99L181.973 326.305L187.206 326.621V332.924L189.79 332.608L195.338 331.6L199.94 330.97L205.487 329.331L208.45 327.062L211.035 324.478L213.619 321.2V317.607L212.989 310.737L212.359 306.136L210.719 301.22L209.08 297.627L209.396 295.673H212.043L213.052 296.681L218.284 297.69L222.193 299.013L224.84 299.329L228.118 300.337L229.442 297.753L231.334 296.24L233.288 293.971H234.612L236.251 295.61L237.574 298.572L239.214 298.257L240.853 297.942L243.122 296.303L244.761 295.988L246.715 294.664L249.363 293.656L251.948 293.026L251.632 294.98L251.317 296.618L249.048 300.526L246.463 302.795L241.861 306.073L237.638 309.35L234.675 315.653L231.081 321.956L232.09 324.225L236.314 324.541H238.961L238.646 326.179L237.638 327.503L237.322 330.465L239.592 331.474H242.555L246.778 330.844L251.002 329.835L254.91 327.566L260.458 323.343L264.051 320.065L267.329 315.464L268.653 311.556L268.968 305.253L270.292 295.799L271.301 294.16L272.94 294.475L275.588 296.429L278.235 295.799L279.874 294.16L282.522 291.513L284.791 289.559L287.376 287.29L289.015 287.605L289.645 289.874L289.961 294.097L289.33 297.06L287.376 298.698L284.098 302.291L281.513 306.892L277.29 313.195L274.327 322.335V324.919L276.281 325.927L278.866 324.919L280.82 324.604L280.505 326.242L280.82 329.205L282.774 330.213H285.044L288.637 329.898L291.915 328.89L296.139 327.566L298.786 326.242L304.018 323.658L307.612 320.381L309.251 318.112L309.566 312.88V307.018L308.557 301.787L307.234 299.14L305.91 296.24V291.639L307.549 288.677L309.818 287.668L311.457 289.622L313.096 292.269L315.744 295.232L319.022 294.917L323.246 293.908L325.83 293.278L327.785 292.269L328.1 290.315L325.137 282.5L322.867 272.667L323.876 270.398L325.83 264.851L327.469 259.62L329.108 255.019L330.747 251.111L332.071 245.879L334.089 239.513L335.728 234.597L337.367 229.996L338.375 227.412L339.699 222.81L340.708 219.218L342.032 214.616L343.671 207.431L344.679 204.847L343.481 201.695ZM75.0576 238.946L73.6708 240.711L72.2839 241.845L71.3383 242.665L69.8253 243.358L68.1863 244.177H66.7994H63.017L61.9453 243.736H61.378V243.169L64.1517 241.53L65.7908 240.963L66.8625 239.702L67.5559 238.064L68.3754 235.416L69.321 233.21L70.3927 232.265L71.7796 231.824L73.2925 232.265L75.0576 233.651L75.7511 235.605V237.244L75.0576 238.946ZM95.1674 176.862L93.4022 178.942L92.5827 179.887L91.6371 180.706L90.9437 181.652L90.2503 182.471H88.8634L87.3504 181.778L85.7114 180.706L84.1984 179.761L83.2528 178.626V178.059L84.7658 177.366H86.72H89.1786L90.8176 176.925L92.4566 176.483H94.0957H95.0413H95.6086L95.1674 176.862Z" fill="#231F20"/>
<path d="M54.8848 163.185L55.4521 156.882L56.1456 153.037L56.7129 150.264L57.6585 145.978L59.0454 144.024L60.1171 140.053L62.1974 134.38L62.6387 131.607L64.5929 127.195L66.4211 123.917L66.9884 121.837L68.2492 117.866V115.093L69.0687 112.761L70.5817 110.681L73.4815 107.214L75.4358 105.45L76.6966 103.811L77.8313 103.117H79.9116C104.182 104.063 117.736 131.922 120.32 157.89C122.779 180.392 117.168 201.066 125.994 200.499C133.748 199.994 136.08 178.816 136.08 178.816C136.08 178.816 136.08 175.224 138.728 175.098C142.888 175.098 142.006 180.896 142.006 180.896C140.791 189.058 138.85 197.094 136.206 204.911C135.265 207.607 133.583 209.983 131.353 211.766C129.123 213.55 126.435 214.669 123.598 214.995C116.727 215.815 109.225 189.784 109.225 189.784C109.225 189.784 104.371 149.949 83.0006 151.146C74.8299 152.504 67.2541 156.281 61.2518 161.987L56.7129 165.013L54.8848 163.185Z" fill="#B37948"/>
</g>
<defs>
<clipPath id="clip0">
<rect width="400" height="488.1" fill="white"/>
</clipPath>
</defs>
</svg>
