<svg width="400" height="522" viewBox="0 0 400 522" fill="none" xmlns="http://www.w3.org/2000/svg">
<g clip-path="url(#clip0)">
<path d="M199.685 521.209C123.786 467.404 66.6913 391.131 36.4525 303.146C7.46138 221.215 -3.88296 122.267 1.15897 0H398.841C403.883 122.267 392.539 221.215 363.548 303.146C333.309 391.131 276.214 467.404 200.315 521.209H199.685Z" fill="#CECED0"/>
<path d="M362.917 303.146C366.069 293.062 371.741 275.415 371.741 275.415H257.667L199.685 97.6874L142.333 275.415H27.6292C27.6292 275.415 33.3014 293.062 36.4526 303.146C66.6533 391.151 123.756 467.435 199.685 521.209C275.614 467.435 332.717 391.151 362.917 303.146Z" fill="#006FAF"/>
</g>
<defs>
<clipPath id="clip0">
<rect width="400" height="521.21" fill="white"/>
</clipPath>
</defs>
</svg>
