<svg width="400" height="494" viewBox="0 0 400 494" fill="none" xmlns="http://www.w3.org/2000/svg">
<g clip-path="url(#clip0)">
<path d="M0.211235 0.241759C-4.70453 235.957 76.6071 385.444 199.259 493.672H202.644C316.513 390.683 395.648 252.88 400 40.2932V0L0.211235 0.241759Z" fill="#27AAE1"/>
<path fill-rule="evenodd" clip-rule="evenodd" d="M306.681 207.429C308.717 203.895 309.826 199.903 309.905 195.825C282.263 185.993 231.736 220.484 236.893 173.583C249.465 145.942 283.553 175.92 309.905 165.122C309.534 160.73 308.445 156.428 306.681 152.389C317.782 152.481 328.719 149.705 338.432 144.33C336.051 135.197 331.297 126.857 324.652 120.154C329.396 116.209 333.033 111.1 335.209 105.327C331.282 101.848 326.496 99.4831 321.348 98.4767C326.6 84.5254 329.855 69.9023 331.018 55.0407C312.322 54.3154 299.992 60.037 285.487 63.0993C284.865 58.1729 282.789 53.5436 279.524 49.8026C270.82 54.396 271.948 61.0041 265.34 61.0041C263.729 61.0041 257.765 54.4766 254.784 52.9454C250.648 49.7961 245.855 47.62 240.762 46.5791C234.879 56.1532 231.601 67.0986 231.252 78.3301C227.541 76.692 223.6 75.6321 219.567 75.1873C210.139 96.5426 225.45 112.902 224.886 128.132C223.758 156.66 179.596 156.902 185.721 119.671C193.78 110.403 192.651 90.9822 191.04 75.1873C186.65 75.5163 182.346 76.5786 178.307 78.3301C177.237 67.2587 174.093 56.4876 169.04 46.5791C158.08 48.6743 152.117 55.6048 143.655 60.3594C140.118 56.2324 136.116 52.5277 131.728 49.319C128.827 53.1066 123.67 58.5059 123.67 63.5022C109.574 58.6843 94.9735 55.4939 80.1529 53.993C79.4277 72.6891 85.1493 85.0188 88.6145 99.5243C83.3536 100.929 78.3488 103.16 73.7866 106.132C76.7553 111.346 80.7266 115.919 85.4716 119.59C81.0394 128.132 73.9478 133.532 71.5302 144.25C81.7378 147.796 92.3215 150.965 103.281 153.759C101.641 157.47 100.581 161.411 100.138 165.444C116.256 173.503 136.16 162.704 145.67 161.173C182.498 155.29 182.901 207.268 144.622 200.338C139.948 199.532 135.435 194.939 128.505 193.971C118.918 193.16 109.263 193.867 99.8966 196.067C99.9845 200.562 101.324 204.943 103.765 208.719C92.731 210.078 81.9054 212.784 71.5302 216.777C74.1896 227.576 81.2812 233.862 86.3581 242.162C81.2367 245.104 76.811 249.117 73.3837 253.928C77.5016 258.042 82.745 260.846 88.4533 261.986C84.9881 275.122 77.8965 290.192 81.0394 306.47C96.0662 306.978 110.994 303.855 124.556 297.364C125.586 302.387 127.765 307.104 130.922 311.144C137.45 308.888 139.706 303.085 145.75 300.587C152.451 306.777 160.389 311.473 169.04 314.367C172.818 303.976 175.993 293.374 178.549 282.616C182.556 284.459 186.877 285.526 191.282 285.759C197.325 266.257 187.494 250.704 185.963 239.18C181.531 204.609 224.805 203.481 225.128 233.862C225.128 251.913 210.139 261.019 219.809 285.759C224.185 285.064 228.497 284.013 232.703 282.616C233.428 295.268 238.666 303.488 241.164 314.367C250.19 315.737 261.23 299.137 266.549 299.54C271.868 299.943 271.868 310.096 278.718 312.836C284.439 310.096 284.198 302.521 286.776 297.444C300.989 302.867 316.049 305.732 331.26 305.906C329.815 290.724 326.485 275.781 321.348 261.422C326.344 259.73 332.388 259.005 335.128 255.056C332.815 249.357 329.199 244.279 324.571 240.228C331.143 233.742 335.919 225.662 338.432 216.777C328.014 213.123 317.417 210.003 306.681 207.429Z" fill="#D9D9D9"/>
<path d="M204.176 200.419C215.436 200.419 224.564 191.29 224.564 180.03C224.564 168.77 215.436 159.642 204.176 159.642C192.916 159.642 183.787 168.77 183.787 180.03C183.787 191.29 192.916 200.419 204.176 200.419Z" fill="#D9D9D9" stroke="#27AAE1" stroke-width="3" stroke-miterlimit="10"/>
</g>
<defs>
<clipPath id="clip0">
<rect width="400" height="493.67" fill="white"/>
</clipPath>
</defs>
</svg>
