<svg width="400" height="525" viewBox="0 0 400 525" fill="none" xmlns="http://www.w3.org/2000/svg">
<g clip-path="url(#clip0)">
<path d="M399.931 0C399.931 19.1355 400.086 29.927 399.931 49.0625C399.585 79.8952 400.394 97.2386 397.812 128.071C394.324 169.541 390.99 193.591 380.719 233.423C368.656 280.365 359.406 301.698 336.59 347.947C318.09 385.428 305.41 405.623 280.378 439.038C260.105 466.017 248.37 481.587 223.472 504.558C214.646 512.69 209.173 516.717 200.039 524.483C190.886 516.775 185.452 512.69 176.645 504.558C151.767 481.645 140.031 466.19 119.739 439.038C94.6878 405.623 82.0079 385.428 63.5275 347.947C40.7114 301.698 31.4615 280.365 19.3983 233.423C9.06931 193.494 5.8126 169.58 2.24757 128.071C-0.334664 97.3735 0.455423 79.8952 0.127826 49.0625C-0.0841488 29.9655 0.0314738 19.1548 0.0314738 0H399.931Z" fill="#00539F"/>
<path d="M136.158 232.864V347.562H93.551V232.864C93.7176 227.325 96.0351 222.068 100.012 218.209C103.989 214.35 109.313 212.192 114.854 212.192C120.396 212.192 125.72 214.35 129.697 218.209C133.674 222.068 135.991 227.325 136.158 232.864Z" fill="white"/>
<path d="M99.1971 206.194C94.542 208.923 90.6745 212.814 87.9724 217.485C85.2703 222.156 83.8261 227.448 83.7807 232.845V347.523H88.6754L88.4827 232.825C88.4827 225.869 91.2459 219.199 96.1644 214.28C101.083 209.361 107.754 206.598 114.71 206.598C121.666 206.598 128.337 209.361 133.255 214.28C138.174 219.199 140.937 225.869 140.937 232.825V347.504H146.024V232.864C145.953 227.385 144.446 222.021 141.653 217.307C138.859 212.593 134.878 208.695 130.107 206.001C127.856 204.722 125.888 202.997 124.326 200.933C122.145 198.18 120.89 194.807 120.741 191.298V53.0129C120.774 52.2559 120.897 51.5054 121.108 50.7776C121.273 50.04 121.519 49.3228 121.84 48.6385C122.129 47.9589 122.49 47.3128 122.919 46.7115C123.23 46.2081 123.605 45.7481 124.037 45.3433C125.251 44.1875 126.219 42.7976 126.881 41.2575C127.543 39.7174 127.887 38.059 127.891 36.3826C127.708 32.9899 126.231 29.7965 123.765 27.4596C121.299 25.1228 118.03 23.8203 114.633 23.8203C111.235 23.8203 107.967 25.1228 105.501 27.4596C103.034 29.7965 101.558 32.9899 101.375 36.3826C101.386 38.0493 101.734 39.6966 102.396 41.2262C103.058 42.7558 104.021 44.1364 105.229 45.2855C105.656 45.701 106.031 46.1669 106.346 46.673C106.776 47.2736 107.138 47.9199 107.426 48.6C107.747 49.2909 107.992 50.0146 108.158 50.7583C108.363 51.4415 108.485 52.1466 108.524 52.8588C108.524 52.8588 108.524 156.322 108.524 191.606C108.361 195.119 107.093 198.491 104.901 201.241C103.348 203.31 101.379 205.03 99.12 206.29L99.1971 206.194Z" fill="white"/>
<path d="M306.778 232.652V347.369H264.171V232.652C264.338 227.113 266.656 221.856 270.633 217.997C274.61 214.138 279.933 211.98 285.475 211.98C291.017 211.98 296.34 214.138 300.317 217.997C304.294 221.856 306.612 227.113 306.778 232.652Z" fill="white"/>
<path d="M269.818 206.02C265.169 208.757 261.306 212.649 258.605 217.319C255.904 221.988 254.456 227.277 254.401 232.671V347.369H259.296L259.103 232.671C259.103 225.715 261.866 219.044 266.785 214.126C271.703 209.207 278.374 206.444 285.33 206.444C292.286 206.444 298.957 209.207 303.876 214.126C308.794 219.044 311.557 225.715 311.557 232.671V347.369H316.645V232.652C316.566 227.172 315.053 221.809 312.257 217.096C309.461 212.383 305.479 208.485 300.708 205.789C298.457 204.518 296.49 202.799 294.927 200.74C292.733 197.993 291.471 194.618 291.323 191.105V52.8009C291.361 52.0492 291.49 51.305 291.709 50.5848C291.874 49.8411 292.12 49.1175 292.441 48.4265C292.723 47.7475 293.079 47.1013 293.501 46.4995C293.827 46.0077 294.202 45.5494 294.619 45.1313C295.832 43.9791 296.8 42.5926 297.462 41.0557C298.125 39.5188 298.468 37.8634 298.473 36.1898C298.342 32.7636 296.889 29.5212 294.419 27.1433C291.948 24.7655 288.653 23.4371 285.224 23.4371C281.796 23.4371 278.5 24.7655 276.03 27.1433C273.56 29.5212 272.107 32.7636 271.976 36.1898C271.985 37.8569 272.332 39.5049 272.994 41.0348C273.656 42.5647 274.621 43.945 275.83 45.0928C276.247 45.5108 276.621 45.9691 276.948 46.461C277.37 47.0628 277.725 47.709 278.007 48.388C278.326 49.0734 278.571 49.7903 278.74 50.527C278.955 51.2142 279.079 51.9271 279.106 52.6468C279.106 52.6468 279.106 156.09 279.106 191.394C278.954 194.909 277.685 198.285 275.483 201.029C273.929 203.092 271.96 204.805 269.702 206.059L269.818 206.02Z" fill="white"/>
<path d="M221.372 338.524V453.24H178.765V338.524C178.931 332.984 181.249 327.728 185.226 323.869C189.203 320.01 194.527 317.851 200.068 317.851C205.61 317.851 210.934 320.01 214.911 323.869C218.888 327.728 221.205 332.984 221.372 338.524Z" fill="white"/>
<path d="M205.743 238.664L205.994 53.0128C206.026 52.2558 206.149 51.5053 206.36 50.7775C206.534 50.0425 206.78 49.3261 207.092 48.6384C207.381 47.9588 207.743 47.3127 208.172 46.7114C208.488 46.2123 208.863 45.753 209.289 45.3432C210.504 44.1874 211.471 42.7975 212.134 41.2574C212.796 39.7173 213.139 38.0589 213.143 36.3824C213.013 32.9562 211.56 29.7138 209.089 27.336C206.619 24.9581 203.324 23.6298 199.895 23.6298C196.466 23.6298 193.171 24.9581 190.7 27.336C188.23 29.7138 186.777 32.9562 186.646 36.3824C186.657 38.0494 187.004 39.697 187.666 41.2268C188.328 42.7566 189.292 44.137 190.501 45.2854C190.928 45.7009 191.303 46.1668 191.618 46.6729C192.048 47.2735 192.41 47.9198 192.697 48.5999C193.019 49.2908 193.264 50.0145 193.43 50.7582C193.644 51.4392 193.767 52.1455 193.796 52.8587C193.796 52.8587 193.796 200.316 193.796 239.666V297.323C193.612 300.803 192.346 304.138 190.173 306.862C188.625 308.935 186.654 310.656 184.392 311.911C179.737 314.641 175.869 318.531 173.167 323.202C170.465 327.874 169.021 333.166 168.975 338.562V453.24H173.889L173.697 338.524C173.697 331.568 176.46 324.897 181.378 319.978C186.297 315.06 192.968 312.296 199.924 312.296C206.88 312.296 213.551 315.06 218.469 319.978C223.388 324.897 226.151 331.568 226.151 338.524V453.24H231.277V338.524C231.206 333.045 229.698 327.68 226.905 322.967C224.112 318.253 220.131 314.354 215.359 311.661C213.108 310.381 211.141 308.657 209.578 306.592C207.391 303.843 206.136 300.468 205.994 296.957C205.994 296.957 205.666 238.606 205.743 238.606V238.664Z" fill="white" stroke="white" stroke-width="0.6" stroke-miterlimit="3.86"/>
</g>
<defs>
<clipPath id="clip0">
<rect width="400" height="524.48" fill="white"/>
</clipPath>
</defs>
</svg>
