<svg width="400" height="510" viewBox="0 0 400 510" fill="none" xmlns="http://www.w3.org/2000/svg">
<g clip-path="url(#clip0)">
<path d="M199.5 0.103475H0.659454C-0.106272 59.2093 -1.63772 92.2183 6.04023 149.793C13.6768 207.036 22.017 239.217 43.6643 292.59C65.3116 345.963 76.1766 366.183 115.891 420.818C144.306 459.974 164.256 480.711 199.583 509.105C234.889 480.69 255.729 459.974 284.144 420.818C323.775 366.183 334.744 345.777 356.308 292.507C377.873 239.238 386.296 206.953 393.932 149.71C401.61 92.1355 400.141 59.1265 399.313 0L199.5 0.103475Z" fill="#EF3E42"/>
<path d="M102.646 120.529C104.132 119.56 105.681 118.689 107.282 117.922C108.957 116.934 110.761 116.182 112.642 115.687C114.353 115.42 116.084 115.309 117.816 115.356C116.263 116.556 115.498 117.197 114.028 118.377C111.338 120.447 109.144 121.088 107.157 123.903C105.276 126.449 104.26 129.532 104.26 132.698C105.734 131.57 107.331 130.612 109.02 129.842C110.858 129.341 112.746 129.042 114.649 128.952C113.138 133.547 111.855 136.051 110.717 140.79C105.978 138.12 103.474 136.051 98.5275 133.588C94.8852 131.788 92.6708 131.105 88.9249 129.449C83.2337 127.111 79.8397 126.221 74.2933 123.592C71.0235 122.04 69.6576 119.619 66.0152 119.329C60.1791 118.853 54.1154 125.538 53.598 127.711C52.377 132.698 53.1013 137.769 52.646 144.267C51.8182 155.774 51.8389 162.355 49.8522 173.716C48.8317 179.924 47.4496 186.068 45.7131 192.114C45.2594 194.086 45.4108 196.149 46.1477 198.033C48.3016 206.329 51.1682 214.424 54.7156 222.226C58.151 213.803 60.1584 209.209 63.5939 200.765C62.2487 199.296 61.3795 198.551 60.1377 196.978C58.896 195.405 57.199 193.998 57.0541 192.239C56.9093 190.48 58.0061 191.121 58.6477 191.225C60.0964 191.473 61.6899 192.404 62.4763 191.721C62.9539 191.266 63.2359 190.642 63.2627 189.983C63.5939 187.913 60.8207 185.368 60.6758 183.112C60.3049 175.951 60.7004 168.77 61.8555 161.692C63.0351 152.255 64.8977 147.206 66.8223 137.831C72.0582 142.156 75.1004 144.453 80.2329 148.903C86.9796 154.759 90.4771 158.423 97.0168 164.486C93.0806 163.642 89.1914 162.592 85.3653 161.341C81.5988 159.954 79.7776 157.926 75.9903 157.036C75.0335 156.773 74.0294 156.732 73.0541 156.915C72.0788 157.098 71.158 157.5 70.3612 158.091C68.1261 159.85 68.0434 162.334 68.4573 165.128C69.8025 174.13 72.1824 181.456 73.9829 192.032C75.1418 198.799 75.742 202.628 76.5698 209.457C77.3148 215.666 76.7354 220.343 78.0806 225.413C78.3686 226.738 78.8645 228.01 79.5499 229.18C83.5433 236.337 88.4937 242.917 94.2643 248.737L96.1062 226.696C94.9728 226.198 93.8674 225.638 92.7949 225.02C91.0099 224.072 89.4664 222.727 88.2834 221.088C88.1087 220.881 87.9797 220.639 87.9048 220.379C87.8299 220.119 87.8108 219.845 87.8488 219.577C87.9936 218.584 89.9183 219.246 91.3049 219.039C91.3049 217.942 91.3049 217.28 91.3049 216.183C89.2353 212.872 86.9795 211.278 85.9862 207.677C84.4302 202.234 83.4998 196.631 83.213 190.976C82.9404 187.304 82.9404 183.617 83.213 179.946C83.5027 178.414 85.1377 178.994 85.6964 179.615C86.721 180.644 87.806 181.611 88.9456 182.512C93.0847 186.175 95.1542 188.389 99.5002 191.887C105.01 196.743 110.961 201.073 117.277 204.821C117.866 205.256 118.559 205.527 119.286 205.607C120.013 205.687 120.748 205.573 121.417 205.277C122.265 204.842 122.451 204.159 123.114 203.518C129.711 212.25 137.357 220.139 145.878 227.007C154.653 234.188 158.875 235.947 166.118 241.969C168.746 244.253 171.032 246.901 172.906 249.834C177.853 257.367 180.191 261.878 185.137 269.37C191.346 278.662 195.485 283.422 201.694 292.694C211.71 307.76 218.25 315.976 225.535 332.491C233.813 351.116 236.296 362.644 240.27 382.635C242.029 391.452 240.994 395.508 243.27 403.331C243.457 403.972 243.436 403.827 243.953 404.283C252.232 411.754 256.66 417.031 264.049 421.688C263.014 412.747 262.455 407.615 261.42 398.674C260.075 398.281 259.351 398.178 257.943 397.681C256.536 397.184 255.646 396.708 255.377 395.404C255.234 394.835 255.28 394.235 255.508 393.693C255.736 393.152 256.133 392.7 256.64 392.404C257.55 391.824 257.943 390.458 257.426 389.92C252.169 384.581 250.41 378 247.948 369.597C244.347 357.18 245.588 348.902 246.002 336.733C246.488 334.778 247.139 332.867 247.948 331.021C248.217 330.111 248.548 330.814 247.948 328.434C246.758 324.222 245.342 320.077 243.705 316.017C249.231 323.695 253.184 327.482 257.861 335.698C261.57 342.252 264.64 349.148 267.029 356.29C270.609 366.038 271.437 371.936 274.251 381.932C276.983 384.001 278.618 385.16 281.267 387.416C283.916 389.672 285.178 391.058 287.683 393.418L285.323 370.322C283.489 370.131 281.735 369.468 280.232 368.397C280.812 367.342 281.722 366.886 281.702 365.686C281.689 365.279 281.597 364.879 281.433 364.506C280.998 363.347 279.715 362.871 279.363 362.106C276.639 357.039 274.441 351.706 272.803 346.191C269.678 336.464 266.594 329.18 266.449 317.859C266.449 315.79 267.546 314.651 266.615 312.665C263.96 306.33 260.382 300.423 255.998 295.136C254.673 293.983 253.222 292.983 251.673 292.156C247.764 289.059 245.115 284.645 244.222 279.738C244.105 278.901 244.105 278.051 244.222 277.214C244.222 273.385 245.754 271.419 246.561 267.673C247.989 261.051 249.417 257.325 249.376 250.537C249.376 246.874 248.279 242.901 248.444 241.204C248.568 239.838 249.955 240.417 250.245 240.645C251.362 241.493 251.735 242.528 252.873 243.542C254.126 244.969 255.753 246.015 257.571 246.564C260.903 247.454 260.655 244.267 259.64 242.88C257.198 239.217 254.839 238.058 252.169 234.602C249.5 231.146 248.796 228.393 245.857 225.061C235.737 213.907 228.08 209.54 218.167 198.158C205.481 183.671 197.782 175.393 189.711 157.843C183.151 143.667 179.964 135.078 178.411 119.453C177.335 108.857 178.846 102.897 179.136 92.1562C177.873 90.2315 177.066 89.2588 175.887 87.2721C175.095 85.9884 174.404 84.6462 173.817 83.2572C173.182 81.7708 172.697 80.2248 172.368 78.6421C176.507 86.527 178.929 92.0527 186.172 97.7232C188.407 99.4823 190.311 100.517 190.787 95.0535C191.118 91.0593 191.656 86.1959 190.208 83.402C195.692 94.1636 202.625 104.47 215.042 112.976C222.761 118.294 228.039 119.826 236.358 124.172C237.851 127.555 239.573 130.832 241.511 133.981C244.471 138.12 246.395 141.618 250.472 143.356C253.411 144.619 254.612 140.687 253.37 139.031C251.493 136.711 249.811 134.24 248.341 131.643C247.368 129.76 247.037 128.58 246.271 126.676C249.852 127.483 251.818 128.104 255.439 128.745C261.234 129.76 265.021 129.532 270.443 130.194C270.894 130.202 271.331 130.343 271.7 130.602C272.069 130.86 272.352 131.222 272.513 131.643C273.134 132.698 275.969 138.41 278.722 142.404C280.811 145.402 283.107 148.251 285.592 150.931C287.91 153.538 292.96 150.931 290.663 147.806C287.683 143.667 286.731 142.86 284.454 139.528C281.971 135.74 280.936 133.319 278.68 129.449C281.702 128.932 283.419 128.745 286.4 128.083C289.38 127.421 291.47 126.365 294.429 125.869C294.845 125.785 295.276 125.807 295.681 125.934C296.086 126.061 296.453 126.287 296.747 126.593C299.996 129.139 302.521 132.243 306.867 134.871C312.414 138.327 317.442 140.956 322.347 141.266C324.168 141.37 327.832 138.969 324.127 136.982C319.264 134.375 315.849 133.278 311.213 130.38C307.7 128.205 304.705 125.288 302.438 121.833L307.695 118.915C309.541 120.675 311.551 122.255 313.697 123.634C315.914 125.081 318.449 125.969 321.085 126.221C325.907 126.883 326.921 121.771 325.017 121.15C322.643 120.64 320.311 119.948 318.043 119.081C316.089 118.003 314.233 116.757 312.496 115.356C315.083 113.286 316.635 112.272 319.119 110.037C321.873 107.64 324.37 104.963 326.569 102.049C328.08 99.979 325.576 94.681 320.505 100.082C309.454 111.858 300.638 116.287 285.323 119.722C270.506 123.054 260.862 122.247 246.437 117.508C232.012 112.769 225.079 105.939 213.945 96.4401C230.771 98.344 236.524 96.1503 249.562 90.8937C258.585 87.2514 262.993 83.2779 270.94 78.042C273.779 79.767 276.983 80.8019 280.294 81.0635C284.821 81.6561 289.41 80.6061 293.229 78.104C295.298 76.6347 295.195 72.7853 290.849 73.3234C288.056 73.9664 285.181 74.1828 282.323 73.965C280.073 73.5232 277.87 72.8719 275.741 72.0196C277.811 69.1223 279.28 67.6322 281.143 64.59C282.612 62.1894 282.943 60.4509 284.516 58.1952C285.282 57.0569 285.344 56.1256 286.586 55.422C290.217 53.7158 293.612 51.5454 296.685 48.965C299.091 47.2397 301.261 45.2082 303.142 42.922C305.025 40.6248 302.728 36.2995 299.603 38.783C295.899 41.6596 296.25 41.7217 293.974 43.4187C291.698 45.1157 290.311 45.8814 287.972 47.4543C288.832 45.0072 289.524 42.5041 290.042 39.9626C290.725 35.3061 290.808 29.1596 289.607 27.8972C289.317 27.5601 288.952 27.2945 288.542 27.1211C288.132 26.9476 287.688 26.8709 287.244 26.8969C286.799 26.9229 286.367 27.051 285.98 27.2711C285.593 27.4912 285.262 27.7975 285.013 28.1663C282.799 30.7946 284.661 40.3558 282.178 47.6199C278.515 58.34 274.603 64.5486 265.621 71.5436C253.204 81.3532 252.77 80.1943 236.213 86.8582C230.005 89.3209 216.077 90.7075 206.578 84.0436C199.334 78.9525 196.354 73.5718 194.285 64.9625C192.215 55.898 194.285 50.1033 197.182 41.2664C199.122 35.8375 201.707 30.6611 204.881 25.8484C207.695 20.985 214.049 17.3219 212.745 13.783C212.476 13.0794 211.876 13.0173 211.234 12.7069C207.757 10.9892 205.646 15.418 202.956 18.1911C201.443 19.6742 200.173 21.385 199.189 23.2615C198.76 21.4564 198.179 19.6909 197.451 17.9842C196.499 15.9146 196.52 13.6796 194.326 13.1415C190.87 12.2723 189.049 14.4453 189.794 18.4188C190.394 21.6472 192.753 22.7234 193.685 25.8484C194.297 27.3871 194.586 29.0357 194.533 30.6911C194.326 33.7333 192.277 34.8302 191.077 37.7068C189.348 41.584 188.017 45.6265 187.103 49.7722C185.634 42.5909 185.489 38.3484 183.337 31.3533C181.241 24.0356 178.157 17.0381 174.169 10.5546L165.208 15.3973L157.84 19.5363C163.312 24.5751 167.95 30.4496 171.582 36.9411C175.059 42.7151 176.114 46.4609 179.012 52.5453C175.889 49.8483 172.53 47.4379 168.974 45.3434C163.821 42.0528 160.51 40.8525 155.171 37.8517C151.238 35.6373 148.962 34.499 145.175 32.0777C141.388 29.6563 139.09 26.9039 134.951 24.9378C134.365 24.626 133.722 24.436 133.06 24.3791C132.399 24.3222 131.733 24.3996 131.102 24.6067C128.784 25.2482 128.122 27.1108 127.087 29.2838C126.052 31.4568 124.645 33.2573 125.97 35.3682C127.811 38.3484 132.178 39.3003 133.979 41.5768C134.458 42.2156 134.743 42.9795 134.798 43.7764C134.853 44.5732 134.676 45.369 134.289 46.0677C134.041 46.6265 131.516 46.5644 130.274 45.4262C128.598 43.8533 126.59 38.6588 124.852 39.6522C123.083 40.9635 121.789 42.8164 121.168 44.9295C120.216 47.2887 121.541 52.4626 124.852 55.0288C126.442 56.2057 128.325 56.9217 130.295 57.0983C131.102 57.0983 131.454 57.7606 131.806 58.4849C132.659 62.0371 133.844 65.5015 135.344 68.8325C137.124 72.8474 138.345 75.0411 140.27 78.9939C137.794 81.8696 135.519 84.9121 133.461 88.0999C128.639 88.0999 125.452 87.9757 121.458 90.604C119.525 91.9007 117.877 93.5796 116.617 95.5372C115.357 97.4947 114.511 99.6896 114.132 101.986C117.298 100.496 120.113 98.4268 124.066 99.2132C124.89 99.308 125.689 99.5536 126.425 99.9376C126.901 100.145 127.335 100.331 127.397 100.827C127.542 102.09 125.742 101.986 124.397 102.028C121.813 101.991 119.235 102.269 116.719 102.856C113.575 103.649 110.76 105.408 108.668 107.885C105.459 111.414 103.364 115.813 102.646 120.529Z" fill="#AD8456"/>
<path d="M152.397 45.2399C154.087 44.4713 155.966 44.2193 157.799 44.5156C158.853 44.5322 159.886 44.8171 160.8 45.3434C161.938 46.047 162.186 46.8955 162.993 47.951C163.409 48.6809 163.886 49.3734 164.421 50.0205C164.888 50.4248 165.387 50.7916 165.911 51.1174" stroke="#EF3E42" stroke-width="0.66" stroke-miterlimit="3.86" stroke-linecap="round"/>
<path d="M154.695 44.5985C154.343 44.8644 154.062 45.2134 153.878 45.6143C153.693 46.0151 153.611 46.4554 153.639 46.8957C153.639 48.1581 154.446 48.7997 155.46 49.5654C156.552 50.3443 157.894 50.6909 159.227 50.5381C160.358 50.6297 161.491 50.3772 162.476 49.8137C162.87 49.5526 163.243 49.262 163.594 48.9445" stroke="#EF3E42" stroke-width="0.66" stroke-miterlimit="3.86"/>
</g>
<defs>
<clipPath id="clip0">
<rect width="400" height="509.1" fill="white"/>
</clipPath>
</defs>
</svg>
