<svg width="400" height="522" viewBox="0 0 400 522" fill="none" xmlns="http://www.w3.org/2000/svg">
<g clip-path="url(#clip0)">
<path d="M199.709 521.377C121.895 464.923 68.561 393.622 36.6483 303.433C7.70906 221.661 -3.90222 122.562 1.14434 0.481625L1.16528 0H398.839L398.86 0.481625C403.896 122.562 392.284 221.651 363.356 303.433C331.443 393.622 278.109 464.923 200.295 521.377L200.002 521.587L199.709 521.377Z" fill="#E00E00"/>
<path d="M214.063 93.3235C212.543 93.6093 208.714 93.5037 206.928 92.9264C203.12 91.696 203.777 88.6626 199.782 89.5276C194.271 90.7205 189.87 91.9344 188.049 94.914C184.257 101.118 176.8 98.3652 172.474 96.4726C171.013 95.1253 170.628 94.1391 169.151 92.8691C168.386 92.2108 166.956 93.1217 166.31 92.1945C163.245 87.7945 166.186 82.7876 169.024 81.1808C168.948 77.0123 166.296 76.4321 168.479 74.6413L197.158 51.1119C197.559 47.3167 194.115 46.1865 193.184 42.6843C190.472 32.4707 201.006 30.5688 211.635 30.0815C223.963 29.5162 238.127 30.3018 242.926 22.4132C248.095 34.5476 234.183 35.6891 233.298 40.7301C249.28 37.0077 249.076 53.9243 266.118 48.6536C266.565 53.0735 265.05 57.7828 259.058 57.74C267.472 59.6144 280.425 62.9481 281.149 78.0618C281.64 88.3059 282.29 91.8975 293.994 91.1332C295.437 91.039 293.762 95.7475 292.135 97.3214C289.737 99.6411 285.433 100.783 281.822 100.058C284.973 109.773 276.277 116.069 278.935 120C280.344 122.084 282.25 123.809 287.461 122.473C287.014 130.201 279.593 133.754 270.844 129.62C271.801 134.256 270.852 138.829 265.599 145.036C261.376 150.025 266.047 153.861 267.591 161.042C268.292 164.301 268.892 169.746 266.612 172.412C263.075 176.547 258.33 178.025 259.803 173.995C261.46 169.464 260.269 165.199 254.321 160.908C252.529 164.464 249.911 166.497 247.864 168.873C244.513 172.763 238.103 176.145 237.338 183.316C236.55 190.707 241.981 196.286 238.534 195.619C227.862 193.556 224.586 179.467 227.222 173.045C228.205 170.652 227.017 168.935 226.614 167.617C226.203 166.276 220.311 169.942 219.739 172.797C218.589 178.53 220.979 185.455 223.684 192.653C226.792 200.926 232.534 218.228 235.664 219.382C260.448 228.519 264.47 246.354 268.587 246.973C275.934 248.076 282.369 245.371 281.153 242.037C275.814 227.39 276.64 223.405 282.983 218.055C288 213.823 306.898 208.9 319.25 212.294C331.378 215.627 339.846 223.158 345.315 232.195C351.38 242.214 353.45 255.206 352.783 263.125C351.963 272.872 350.926 278.602 346.06 285.456C334.144 302.238 316.028 315.998 311.493 338.737C309.988 346.281 310.385 365.654 307.38 364.13C297.405 359.073 295.377 342.381 295.324 336.161C295.242 326.41 296.198 316.902 298.924 307.997C305.668 285.965 318.455 267.028 318.156 252.878C317.845 238.151 303.174 238.857 299.51 244.063C290.137 257.384 288.006 263.165 274.158 259.544C277.724 275.347 276.852 292.412 273.05 310.375C272 315.334 279.744 320.466 288.413 325.256C290.274 326.285 292.085 331.381 292.307 336.809C292.521 342.021 291.179 347.44 290.819 348.899C289.808 352.992 278.825 370.832 267.636 392.274C265.116 397.104 264.182 407.263 260.155 407.196C260.155 407.196 259.903 414.446 258.605 417.2C257.362 419.838 211.879 419.222 211.834 417.051C211.544 402.854 222.231 397.16 232.38 391.19C238.286 387.715 244.041 383.527 247.846 379.135C254.269 371.721 262.806 348.321 261.581 345.68C260.431 343.202 254.046 333.556 252.16 332.553C242.671 327.506 235.768 326.554 227.286 322.11C217.154 316.801 210.085 309.957 205.852 306.087C204.573 304.865 203.171 304.134 201.851 302.988C201.517 303.352 201.279 303.673 201.017 304.012C197.46 308.621 196.799 312.864 196.328 318.628C196.031 322.259 200.898 327.13 202.666 330.691C204.156 333.694 203.869 339.495 203.098 342.255C199.666 354.55 159.975 382.17 161.2 386.791C163.043 393.742 160.302 398.333 158.298 397.489C158.298 397.489 158.271 404.309 156.541 405.752C152.261 409.323 113.094 409.248 112.879 407.106C111.983 398.216 120.752 386.399 126.553 382.781L147.634 369.635C156.486 364.115 169.381 345.88 170.967 340.496C172.28 336.041 165.857 326.843 162.795 321.76C155.707 309.995 146.16 305.158 145.896 298.844C145.558 290.782 146.738 275.547 157.15 266.951C165.056 260.424 169.658 257.424 173.157 252.783C174.859 250.524 176.218 244.211 174.532 241.41L148.59 198.308C147.203 196.003 140.138 202.267 135.315 202.228C129.167 202.179 116.029 177.985 115.254 173.6C113.863 165.727 108.681 158.713 107.282 158.966C104.418 159.484 97.624 176.492 96.2775 182.409C99.8681 183.409 104.945 189.039 102.159 190.962C102.159 190.962 105.952 195.397 106.76 200.76C107.225 203.847 74.3801 225.672 73.6529 222.29C72.1303 215.209 73.0912 206.859 74.093 199.843C74.5657 196.532 75.7185 194.318 78.9263 190.207C80.5788 188.089 75.5444 185.82 78.3613 178.763C79.2943 176.425 95.8962 148.641 102.431 142.978C104.054 141.571 110.71 141.049 112.625 142.623C115.601 145.068 117.901 149.521 122.11 155.644C124.649 159.336 127.732 170.662 131.26 169.159C133.413 168.241 128.19 156.394 128.02 148.756C120.999 144.488 117.022 132.045 111.413 126.911C109.553 125.208 106.112 125.782 103.01 126.053C97.5842 126.526 88.8321 135.152 81.1622 142.155C79.7322 143.461 82.8212 158.416 78.5839 158.675C78.7406 160.173 78.34 162.539 78.0271 164.929C77.6959 167.459 42.3285 175.831 41.4571 172.729C38.3477 161.662 49.6723 152.496 52.7218 148.826C59.0555 141.204 66.5451 133.229 75.2148 127.287C87.0523 119.173 96.9509 109.081 103.736 105.381C110.026 101.95 118.984 104.252 119.32 104.742L135.667 128.517C143.547 108.617 178.804 109.421 203.171 97.9608L214.063 93.3235Z" fill="#FFE000" stroke="#E00E00" stroke-width="0.964" stroke-linecap="round" stroke-linejoin="round"/>
<path d="M201.33 64.5058C201.632 59.1072 205.779 59.7689 207.642 61.2064C207.523 64.8465 204.378 65.9416 201.33 64.5058Z" stroke="#E00E00" stroke-width="0.96755"/>
<path d="M213.985 50.2986C217.092 46.4836 215.902 46.4295 213.828 40.8593C212.997 38.6297 215.654 34.243 218.227 31.6514C221.103 34.0222 223.458 36.628 223.821 40.2886C224.291 45.0408 220.233 48.2599 225.383 50.3817" stroke="#E00E00" stroke-width="0.96755" stroke-linecap="round" stroke-linejoin="round"/>
<path d="M172.733 77.5553C174.332 77.5748 174.165 82.1164 172.601 81.5918" stroke="#E00E00" stroke-linecap="round"/>
<path d="M193.59 63.71C197.651 63.6216 198.337 60.0679 200.214 56.9213C201.429 54.8867 205.666 54.064 209.283 56.6832" stroke="#E00E00" stroke-linecap="round"/>
<path d="M201.33 64.5059L198.568 66.345" stroke="#E00E00" stroke-linecap="round"/>
<path d="M210.404 59.3673L207.642 61.2064" stroke="#E00E00" stroke-linecap="round"/>
<path d="M260.155 407.196C257.273 406.969 255.705 400.597 252.935 398.814" stroke="#E00E00" stroke-linecap="round"/>
<path d="M158.298 397.489C155.26 396.448 149.432 391.677 147.955 388.609" stroke="#E00E00" stroke-linecap="round"/>
<path d="M102.159 190.962C100.102 192.13 97.2116 190.662 94.5341 189.476" stroke="#E00E00" stroke-linecap="round"/>
<path d="M78.5839 158.675C76.639 158.247 74.8427 155.588 74.39 153.359" stroke="#E00E00" stroke-linecap="round"/>
<path d="M135.667 128.517C132.052 134.375 128.6 142.993 128.02 148.755" stroke="#E00E00"/>
<path d="M214.063 93.3235C224.066 90.1254 229.414 82.481 230.395 75.0907" stroke="#E00E00" stroke-linecap="round"/>
<path d="M169.151 92.8691C172.671 88.7963 181.833 85.7991 185.936 86.8931C188.592 87.6013 179.794 91.0008 172.474 96.4726" stroke="#E00E00" stroke-linecap="round" stroke-linejoin="round"/>
<path d="M233.298 40.7301L228.797 41.7245" stroke="#E00E00" stroke-linecap="round"/>
<path d="M259.058 57.7401C257.394 57.7713 253.792 57.8561 250.48 56.4487" stroke="#E00E00" stroke-linecap="round"/>
<path d="M281.822 100.058C273.482 98.0124 273.074 89.2266 266.778 84.5858" stroke="#E00E00" stroke-linecap="round"/>
<path d="M270.844 129.62C266.587 127.023 260.959 123.759 261.454 117.065" stroke="#E00E00" stroke-linecap="round"/>
<path d="M254.321 160.908C241.483 152.207 255.1 136.697 254.354 131.795" stroke="#E00E00" stroke-linecap="round"/>
<path d="M226.614 167.617C224.618 159.188 236.31 158.936 237.583 152.206" stroke="#E00E00" stroke-linecap="round"/>
<path d="M201.851 302.988C197.157 298.54 193.169 293.783 190.446 288.472" stroke="#E00E00" stroke-linecap="round"/>
</g>
<defs>
<clipPath id="clip0">
<rect width="400" height="521.59" fill="white"/>
</clipPath>
</defs>
</svg>
