<svg width="400" height="474" viewBox="0 0 400 474" fill="none" xmlns="http://www.w3.org/2000/svg">
<g clip-path="url(#clip0)">
<path d="M200 473.801C369.119 328.842 400.661 142.274 399.99 0H0.0105832C-0.660523 142.274 30.2103 328.842 200 473.801Z" fill="#0076A8"/>
<path d="M171.143 114.088L179.196 115.43L207.382 120.799C208.054 120.799 208.725 121.47 208.725 122.812C208.725 123.483 208.054 124.155 207.382 124.155L175.84 117.444L171.814 116.772L169.8 122.141V139.59V342.264H279.862C279.191 338.237 272.48 287.233 262.413 257.705C251.675 226.834 228.858 181.87 200 165.092C200.671 164.421 200.671 163.75 201.342 163.079C203.356 160.394 206.711 153.683 211.409 146.301C216.778 136.906 222.818 125.497 226.844 116.772C226.844 116.772 226.844 116.772 226.844 116.101C232.884 100.666 229.529 89.9282 227.516 83.2171C227.516 82.546 226.844 81.2038 226.844 80.5327C224.831 73.8216 224.16 65.0973 226.173 59.7284L216.778 49.6618L214.093 46.9774L202.685 65.0973L197.987 80.5327L209.396 85.9016C209.396 85.9016 212.08 87.2438 206.04 93.9548L216.107 97.9815L219.462 99.3237C220.133 99.3237 220.805 100.666 220.805 101.337C220.805 102.008 220.133 102.679 219.462 102.679H218.791L214.765 100.666L208.725 98.6526L204.027 96.6392C204.027 96.6392 204.027 96.6392 203.356 96.6392H202.685H192.618L157.721 97.3104C156.378 97.3104 155.036 96.6392 154.365 95.9681L120.81 69.1239L120.139 68.4528V67.7817V66.4395L119.468 64.4262C127.521 65.7684 135.574 67.1106 143.627 68.4528L146.983 69.1239C157.049 71.1372 167.116 72.4794 175.169 73.8216L194.631 77.1772L195.303 73.1505C187.249 71.8083 161.747 67.1106 146.983 64.4262C146.312 63.084 145.641 61.7417 144.97 61.0706L142.956 59.0573L142.285 58.3862H130.205C129.534 58.3862 128.863 58.3862 128.863 59.0573L128.192 60.3995C125.508 59.7284 123.494 59.0573 120.81 58.3862V57.7151C120.81 57.044 120.139 56.3729 119.468 56.3729L107.388 51.0041C106.717 51.0041 106.717 51.0041 106.045 51.0041L103.361 52.3463C103.361 52.3463 102.69 53.0174 102.019 53.0174L102.69 55.0307L104.703 59.0573L106.045 61.7417L106.717 63.084L110.072 71.1372L149.667 110.732C149.667 110.732 149.667 110.732 150.338 110.732L169.129 114.759L171.143 114.088Z" fill="#FBE319"/>
<path d="M226.844 61.7417C224.831 66.4394 225.502 75.1638 227.515 81.8748C227.515 82.5459 228.186 83.2171 228.186 84.5593C230.2 91.2703 234.226 103.35 227.515 119.457C224.16 128.181 218.12 139.59 212.08 149.657L253.017 165.763C253.017 165.763 249.662 124.155 249.662 100.666C249.662 80.5326 253.017 71.1371 253.017 68.4527C252.346 34.2263 212.08 39.5952 212.08 46.9773L227.515 60.3995L226.844 61.7417Z" fill="#FBE319"/>
<path d="M244.964 351.659C246.978 353.673 251.675 357.028 260.4 354.344C260.4 351.659 259.729 348.304 259.058 346.29H246.978C246.307 348.304 245.635 350.317 244.964 351.659Z" fill="#FBE319"/>
<path d="M242.28 353.001C238.253 355.015 216.778 363.068 215.436 363.739C213.422 363.739 215.436 369.108 216.107 369.108C217.449 369.108 234.898 369.108 238.924 367.766C242.28 366.424 246.978 365.081 246.978 365.081V368.437H261.742V357.699C259.057 358.37 257.044 359.041 255.031 359.041C247.649 358.37 243.622 355.015 242.28 353.001Z" fill="#FBE319"/>
<path d="M181.209 351.659C183.223 353.673 187.92 357.028 196.645 354.344C196.645 351.659 195.974 348.304 195.302 346.29H183.223C181.88 348.304 181.209 350.317 181.209 351.659Z" fill="#FBE319"/>
<path d="M177.854 353.001C173.827 355.015 152.352 363.068 151.01 363.739C148.996 363.739 151.01 369.108 151.681 369.108C153.023 369.108 170.472 369.108 174.498 367.766C177.854 366.424 182.552 365.081 182.552 365.081V368.437H197.316V357.699C194.631 358.37 192.618 359.041 190.605 359.041C183.223 358.37 179.196 355.015 177.854 353.001Z" fill="#FBE319"/>
<path d="M153.023 89.9278L157.049 93.2834C157.72 93.9545 157.72 93.9545 158.391 93.9545H171.142L150.338 73.8213L138.258 71.808L153.023 89.9278Z" fill="#FBE319"/>
<path d="M99.3344 55.03L98.6633 53.6878C87.2545 51.0034 75.8457 48.319 67.1213 46.3057C53.0281 42.9501 28.8683 32.8835 28.8683 32.8835L24.8417 52.3456C24.8417 52.3456 50.3437 53.6878 65.7791 55.7011C71.8191 56.3722 85.9123 59.0567 102.69 61.7411L100.677 57.7145L99.3344 55.03Z" fill="#FBE319"/>
</g>
<defs>
<clipPath id="clip0">
<rect width="400" height="473.8" fill="white"/>
</clipPath>
</defs>
</svg>
