<svg width="400" height="493" viewBox="0 0 400 493" fill="none" xmlns="http://www.w3.org/2000/svg">
<g clip-path="url(#clip0)">
<path d="M0 0C133.333 0 266.667 0 400 0C400 117.857 380.357 359.524 200 492.857C21.4286 358.929 0 117.857 0 0Z" fill="#008C31"/>
<path d="M55.383 37.4149C51.2164 39.2006 47.0497 38.0101 43.4783 40.9863C39.3116 45.153 40.5021 51.1054 36.9307 55.8673C33.3592 60.0339 26.8116 63.6054 25.6211 69.5577C25.0259 73.7244 28.5973 76.1054 28.5973 80.272C28.5973 83.2482 24.4307 89.2006 25.6211 93.3673C26.8116 98.1292 33.3592 101.701 33.9545 107.058C34.5497 113.605 39.3116 119.558 39.3116 119.558C43.4783 123.724 51.2164 123.129 55.383 126.701C55.383 126.701 59.5497 130.867 63.7164 134.439C67.2878 138.01 72.0497 135.034 78.0021 138.01C100.621 149.32 117.288 157.058 145.264 174.915C172.645 192.177 244.669 252.891 291.097 299.915C294.669 303.486 291.097 305.867 297.05 311.82C307.169 308.843 317.288 296.939 318.478 290.391C313.121 284.439 311.335 287.415 307.169 283.844C266.693 243.963 215.502 198.129 180.383 155.272C163.716 135.629 148.835 111.224 142.288 89.2006C140.502 83.2482 136.931 79.0816 134.55 76.1054C132.169 73.7244 133.359 70.153 130.978 66.5816C128.002 61.8196 122.645 63.0101 119.669 57.0577C116.097 49.3196 109.55 40.9863 101.216 37.4149C97.0497 35.6292 91.6926 37.4149 87.5259 34.4387C79.1926 29.0816 78.0021 26.1054 71.4545 26.7006C63.7164 27.2958 60.7402 35.0339 55.383 37.4149Z" fill="#F2F2F2"/>
</g>
<defs>
<clipPath id="clip0">
<rect width="400" height="492.86" fill="white"/>
</clipPath>
</defs>
</svg>
