<svg width="400" height="513" viewBox="0 0 400 513" fill="none" xmlns="http://www.w3.org/2000/svg">
<g clip-path="url(#clip0)">
<path d="M296.564 375.79C291.058 345.507 315.835 323.483 307.576 291.823C303.447 271.175 293.811 251.903 297.941 228.502C303.447 203.725 314.459 173.442 297.941 150.041C291.058 136.275 284.175 122.51 275.916 108.745C277.293 133.522 289.682 158.3 280.046 183.077C274.54 203.725 260.775 221.62 263.528 246.397C267.657 269.798 273.163 300.082 260.775 320.729C237.374 346.883 255.268 389.556 231.868 415.71C233.244 392.309 227.738 370.284 218.102 351.013C211.22 323.483 230.491 302.835 224.985 276.681C222.232 258.786 211.22 245.021 212.596 225.749C212.596 200.972 223.608 177.571 215.349 152.794C202.961 126.64 219.479 101.862 216.726 75.7084L196.078 28.9066L194.701 30.2831C197.455 52.3075 201.584 78.4614 190.572 97.7328C175.43 117.004 178.183 145.911 183.689 169.312C185.066 196.842 167.171 218.867 174.054 247.774C180.936 267.045 183.689 293.199 174.054 312.47C164.418 328.989 164.418 351.013 169.924 370.284C171.301 386.803 167.171 401.944 160.288 414.333C161.665 388.179 149.276 367.531 135.511 348.26C127.252 326.236 138.264 305.588 135.511 283.563C131.381 258.786 113.487 239.515 121.746 211.984C135.511 176.195 114.863 141.782 98.3449 112.875C96.9683 115.628 99.7214 118.381 99.7214 122.51C103.851 143.158 109.357 169.312 99.7214 189.96C91.4622 209.231 81.8266 231.256 91.4622 253.28C96.9683 271.175 102.474 294.576 94.2153 313.847C87.3327 334.495 94.2153 356.519 99.7214 374.414C99.7214 379.92 96.9683 384.05 92.8388 385.426H90.0857C118.993 432.228 153.406 472.147 196.078 510.69L197.454 512.066C238.75 474.9 277.293 432.228 304.823 385.426C302.07 382.673 299.317 378.543 296.564 375.79Z" fill="#FFD500"/>
<path d="M399.803 2.75304L398.427 0H0.611788C-0.764735 26.1539 0.611788 52.3079 0.611788 78.4618C3.36483 191.337 36.4014 293.199 91.4623 382.673H94.2153C98.3449 379.92 101.098 375.791 101.098 371.661C95.5919 353.766 87.3327 331.742 95.5919 311.094C103.851 291.823 96.9684 269.798 92.8388 250.527C84.5797 228.503 92.8388 206.478 101.098 187.207C110.734 167.936 106.604 140.405 101.098 119.757C101.098 117.004 98.3449 112.875 99.7214 110.122C114.863 139.029 135.511 173.442 123.122 209.231C116.24 236.762 134.134 256.033 136.888 280.811C141.017 302.835 130.005 323.483 136.888 345.507C149.276 364.779 163.041 386.803 161.665 411.58C168.548 399.192 172.677 382.673 171.301 367.532C165.795 348.26 167.171 326.236 175.43 309.718C186.442 291.823 182.313 265.669 175.43 245.021C168.548 216.114 186.442 195.466 185.066 166.559C179.56 143.158 176.807 114.251 191.948 94.9801C202.961 75.7087 198.831 49.5548 196.078 27.5305L197.455 26.1539L218.102 72.9557C220.855 99.1096 202.961 125.264 216.726 150.041C224.985 174.818 213.973 198.219 213.973 222.997C212.596 240.892 223.608 256.033 226.362 273.928C231.868 301.459 212.596 322.106 219.479 348.26C229.115 367.532 234.621 389.556 233.244 412.957C256.645 386.803 238.75 344.131 262.151 317.977C274.54 297.329 269.034 267.045 264.904 243.645C262.151 220.244 275.916 202.349 281.422 180.324C291.058 155.547 278.669 130.77 277.293 105.992C285.552 119.757 292.435 132.146 299.317 147.288C315.836 170.689 304.823 200.972 299.317 225.75C295.188 249.151 304.823 268.422 308.953 289.07C315.836 320.73 292.435 342.754 297.941 373.038C299.317 375.791 303.447 379.92 307.576 381.297C335.107 337.248 357.131 290.446 372.273 242.268C395.674 169.312 401.18 86.7209 399.803 2.75304Z" fill="#E30613"/>
</g>
<defs>
<clipPath id="clip0">
<rect width="400" height="512.07" fill="white"/>
</clipPath>
</defs>
</svg>
