<svg width="400" height="522" viewBox="0 0 400 522" fill="none" xmlns="http://www.w3.org/2000/svg">
<g clip-path="url(#clip0)">
<path d="M199.709 521.377C121.895 464.923 68.561 393.622 36.6483 303.433C7.70906 221.661 -3.90222 122.562 1.14434 0.481625L1.16528 0H398.839L398.86 0.481625C403.896 122.562 392.284 221.651 363.356 303.433C331.443 393.622 278.109 464.923 200.295 521.377L200.002 521.587L199.709 521.377Z" fill="#32AC60"/>
<path fill-rule="evenodd" clip-rule="evenodd" d="M211.043 350.792C218.821 358.714 221.001 366.704 222.728 377.939L251.22 397.12L273.141 375.594L295.062 354.067L276.401 325.231C265.2 323.301 257.25 320.977 249.471 313.056L237.855 301.227L265.636 273.447C314.567 224.516 329.6 200.191 329.137 157.441C328.388 88.2578 254.299 36.9906 199.772 36.9906C145.244 36.9906 71.1557 88.2578 70.4062 157.441C69.9431 200.191 84.9763 224.516 133.908 273.447L161.688 301.227L150.072 313.056C142.294 320.977 134.343 323.301 123.142 325.231L104.481 354.067L126.402 375.594L148.323 397.12L176.816 377.939C178.542 366.704 180.722 358.714 188.5 350.792L199.772 339.311L211.043 350.792Z" fill="white" stroke="#32AC60" stroke-width="3"/>
<path opacity="0.98" d="M199.772 309.661C204.975 309.661 209.194 305.443 209.194 300.24C209.194 295.036 204.975 290.818 199.772 290.818C194.568 290.818 190.35 295.036 190.35 300.24C190.35 305.443 194.568 309.661 199.772 309.661Z" fill="#32AC60" stroke="#32AC60" stroke-linecap="round" stroke-linejoin="round"/>
<path d="M161.688 301.227L199.772 263.144" stroke="#32AC60" stroke-width="3"/>
<path d="M199.772 339.311L237.855 301.227" stroke="#32AC60" stroke-width="3"/>
<path fill-rule="evenodd" clip-rule="evenodd" d="M234.969 227.946C262.512 200.403 266.46 179.989 267.116 158.443C268.109 125.804 237.475 100.858 217.571 100.858C217.571 91.8208 210.131 83.0588 199.772 83.0588C189.412 83.0588 181.973 91.8208 181.973 100.858C162.069 100.858 131.434 125.804 132.428 158.443C133.083 179.989 137.031 200.403 164.574 227.946L199.772 263.144L234.969 227.946Z" fill="#32AC60" stroke="#32AC60" stroke-width="3"/>
</g>
<defs>
<clipPath id="clip0">
<rect width="400" height="521.59" fill="white"/>
</clipPath>
</defs>
</svg>
