<svg width="400" height="522" viewBox="0 0 400 522" fill="none" xmlns="http://www.w3.org/2000/svg">
<g clip-path="url(#clip0)">
<path d="M38.0624 302.932L36.6483 303.433L38.0623 302.932C9.28278 221.612 -2.33777 123.023 2.60385 1.5H397.4C402.331 123.023 390.711 221.602 361.942 302.932C330.211 392.606 277.251 463.527 200.002 519.736C122.753 463.527 69.7928 392.606 38.0624 302.932Z" fill="white" stroke="#0085CA" stroke-width="3"/>
<path fill-rule="evenodd" clip-rule="evenodd" d="M199.118 520.948C199.315 521.091 199.512 521.234 199.709 521.377L200.002 521.587L200.295 521.377C200.492 521.234 200.689 521.091 200.886 520.948H199.118ZM4.23929 149.02C-0.0678504 103.651 -1.08037 54.2992 1.14434 0.481625L1.16528 0H398.839L398.86 0.481625C403.572 114.72 393.708 208.826 368.716 287.457V286.178H231.182L159.986 149.02H4.23929Z" fill="#0085CA"/>
</g>
<defs>
<clipPath id="clip0">
<rect width="400" height="521.59" fill="white"/>
</clipPath>
</defs>
</svg>
