<svg width="400" height="522" viewBox="0 0 400 522" fill="none" xmlns="http://www.w3.org/2000/svg">
<g clip-path="url(#clip0)">
<path d="M199.765 521.357C123.778 467.885 66.7874 391.194 36.5332 303.245C7.68607 221.629 -4.27492 122.423 1.35378 0.702557V0H398.881V0.702557C403.806 122.423 392.548 221.629 363.701 303.245C332.743 391.194 275.753 467.181 199.765 521.357Z" fill="#1A9D4B"/>
<path d="M11.204 62.6186C19.647 61.2114 23.8685 56.9892 37.2367 54.8784C54.1228 52.7677 70.3053 59.1 80.8591 72.4681C85.7842 78.0968 88.5986 84.4298 90.0058 90.7621C96.338 97.0944 104.781 102.723 113.224 106.241C113.928 103.426 114.631 98.5015 113.224 97.798C95.6345 90.7621 85.0806 61.915 94.2273 27.4392C103.374 41.511 121.667 43.6221 128.703 68.2476C131.517 77.3943 131.517 92.1693 121.667 97.798C120.964 99.9087 120.26 106.945 121.667 108.352C132.221 116.091 146.293 125.237 159.661 135.791C167.4 142.123 173.733 150.567 184.286 156.196C185.694 156.9 187.804 150.568 187.101 144.235C187.804 138.607 184.99 132.978 180.065 130.164C167.4 132.978 152.625 123.831 143.478 106.945C137.146 97.0947 135.739 85.133 139.96 74.5792C151.218 85.8366 170.215 90.7621 176.547 104.834C180.065 109.759 182.176 115.387 182.176 121.719C182.176 123.83 183.583 124.535 186.397 126.646C187.804 128.053 187.804 111.87 187.101 103.427C172.326 92.1696 166.697 72.4681 173.029 54.8784C177.954 42.9174 188.508 36.5865 193.433 24.6255C198.358 35.8829 208.208 42.9188 213.837 52.769C218.059 59.8049 219.466 68.2466 216.651 75.9861C213.134 85.8363 206.801 94.9833 199.062 102.723C197.655 110.462 197.655 118.201 199.765 125.237C200.469 127.348 202.58 123.83 204.691 120.312C204.691 114.684 206.098 108.351 207.505 102.723C218.059 78.0972 242.684 79.504 246.202 68.9502C246.202 73.8753 246.906 79.5054 247.609 84.4305C252.534 104.835 229.316 131.57 207.505 129.459C202.58 132.977 199.765 138.607 200.469 144.235C200.469 151.271 202.58 156.9 205.394 154.789C208.912 151.271 212.43 147.048 215.244 142.827C236.352 119.608 251.831 117.498 266.606 102.723C269.421 99.9084 269.421 95.6875 266.606 92.8732C266.606 92.8732 265.903 92.1689 265.199 92.1689C257.46 85.8366 254.645 75.2838 258.867 66.8408C263.792 56.287 270.124 47.1403 277.16 38.6973C284.196 29.5507 290.528 30.2532 296.86 25.3281C309.525 91.4653 280.678 93.5757 277.864 97.0937C277.864 97.7973 277.16 100.613 278.567 99.9091C286.307 97.0947 294.046 94.28 301.082 90.7621C303.193 71.7652 318.672 62.6179 333.447 58.3964C349.63 54.8784 367.219 55.582 382.698 61.9143C374.959 72.4681 367.219 83.023 358.776 92.8732C354.555 97.7983 348.926 100.612 343.297 101.316C333.447 102.723 326.411 110.462 307.414 100.612C299.675 103.426 291.935 106.945 285.603 112.574C284.9 113.981 286.307 113.981 289.121 113.981C290.528 113.981 293.342 111.869 295.453 111.165C315.154 106.24 344.001 121.016 347.519 128.755C352.444 137.198 360.887 144.938 363.701 154.085C344.704 151.974 336.965 156.899 320.782 153.381C303.896 149.159 287.714 139.31 282.789 122.424C281.382 120.313 272.235 119.608 270.828 121.719C263.088 141.42 260.274 124.535 242.684 142.124C246.202 142.124 249.72 142.125 253.238 140.717C260.977 140.014 270.828 135.792 281.382 140.717C299.675 149.161 324.3 168.157 327.115 185.746C318.672 182.932 309.525 182.228 300.378 183.635C266.606 186.45 244.091 175.896 244.091 152.678C244.091 149.864 241.277 149.159 237.056 149.863C230.02 150.566 222.28 164.638 219.466 178.006C218.762 187.856 218.762 197.708 220.169 207.558C220.873 213.891 222.984 217.407 222.28 220.221C220.873 223.739 241.277 234.998 260.978 232.184C266.606 204.744 331.336 225.148 336.965 237.109C342.594 249.773 332.743 262.437 319.375 265.955C310.229 268.065 300.378 268.066 290.528 265.252C283.492 263.141 277.16 261.031 270.828 258.216C263.088 254.698 257.46 252.588 259.57 240.627C243.388 242.737 227.909 237.109 215.948 226.555C213.134 224.444 212.43 225.148 212.43 226.555C220.169 244.848 255.349 249.07 270.828 275.806C286.307 268.066 306.711 275.806 318.672 287.767C325.708 294.802 329.225 304.653 329.929 314.503C328.522 325.057 321.486 334.203 310.932 337.018C300.378 341.239 282.789 334.203 266.606 322.946C253.942 313.799 251.127 289.174 263.792 280.731C254.645 264.548 240.573 257.513 226.502 249.774C218.059 246.256 211.726 239.923 206.801 232.184C204.69 227.962 199.062 224.444 199.765 230.073C201.876 243.441 194.137 252.587 211.023 263.141C222.984 258.919 233.538 262.438 244.795 281.435C249.017 291.989 244.091 304.653 233.538 308.874C230.723 310.281 227.205 310.281 224.391 310.281C210.319 310.985 196.951 282.137 203.987 269.473C206.098 265.955 201.173 261.735 198.358 260.327C194.84 256.809 189.915 285.655 192.026 296.209C193.433 303.245 211.023 316.614 222.28 330.686C242.684 313.096 268.013 335.61 274.346 350.385C295.453 399.636 251.831 398.933 229.316 378.529C212.43 363.05 206.098 351.793 216.651 338.425C211.726 327.871 203.987 319.428 194.84 312.392C191.322 309.578 203.283 356.717 199.765 378.529C211.023 377.121 221.577 383.455 225.798 394.009C230.723 404.563 231.427 417.227 227.205 428.484C218.059 455.22 220.873 455.923 200.469 462.959C180.065 469.995 165.29 441.852 160.365 426.373C155.439 411.598 167.4 388.38 176.547 381.344C180.769 378.53 186.397 377.122 191.322 377.826C193.433 361.644 186.397 336.315 185.694 320.132C184.99 313.096 181.472 319.427 170.918 329.278C168.104 332.092 174.436 339.832 175.14 344.054C177.954 362.347 161.772 377.121 150.514 385.565C129.407 401.747 85.7842 392.601 118.853 345.46C125.185 335.61 135.035 327.871 146.996 325.057C152.625 325.057 158.957 324.354 164.586 323.65C170.215 321.539 184.286 308.874 183.583 304.652C180.769 287.766 182.879 270.881 188.508 254.698C189.915 251.18 181.472 258.92 175.843 267.363C183.583 277.917 176.547 291.285 169.511 300.431C153.329 322.946 132.925 302.542 145.589 279.324C149.811 272.288 154.736 260.327 167.4 263.845C172.325 256.106 182.879 249.069 185.694 244.847C189.212 239.922 188.508 239.923 188.508 232.184C188.508 227.962 187.804 227.962 187.101 230.073C169.511 259.623 155.439 249.069 130.11 278.62C146.293 302.542 125.185 320.834 111.817 329.278C99.1524 338.424 80.8591 335.611 71.7125 322.946C68.8981 319.428 67.4909 315.909 66.7873 311.688C64.6766 299.023 73.1197 284.249 89.3022 273.695C97.7452 268.066 106.892 264.548 124.482 271.584C139.257 249.069 165.993 245.551 177.954 227.962C179.361 225.851 178.658 223.74 177.251 224.444C170.918 230.072 163.179 234.294 155.439 236.404C140.664 240.626 130.814 236.405 130.814 238.515C129.407 248.366 111.113 261.734 88.5986 261.734C71.7125 261.734 58.3443 253.29 54.8264 244.847C52.7156 239.218 52.7156 233.59 54.8264 227.962C57.6407 220.926 71.0089 215.297 90.7093 213.89C99.1524 213.186 111.817 211.779 120.26 216.001C128.703 220.223 126.592 225.851 132.925 229.368C144.886 234.997 169.511 224.444 168.104 220.926C166.697 218.111 164.586 218.111 166.697 213.89C169.511 206.15 170.918 197.707 170.918 189.264C170.918 180.821 168.808 172.378 165.29 164.639C162.475 159.714 158.254 155.493 154.032 151.271C153.329 150.568 145.589 148.456 144.886 153.381C142.775 173.785 135.035 175.193 125.185 179.415C109.706 185.043 87.1914 180.118 66.7873 182.933C71.7125 161.825 101.263 137.902 137.85 144.938C140.664 145.642 142.775 144.235 142.775 142.124C135.035 129.46 117.446 138.607 116.742 123.128C114.631 121.721 113.224 119.609 106.892 122.424C107.595 134.385 101.263 142.123 82.2663 149.863C64.6766 156.899 44.9762 158.306 25.9793 153.381C47.7905 127.348 61.8623 102.724 97.0416 116.092C99.856 116.092 102.67 116.795 105.485 113.981L87.895 102.723C84.377 100.612 80.1555 103.426 77.3412 104.13C59.0479 108.351 49.1977 106.945 40.7546 102.02C25.9793 93.5771 21.0542 71.7652 11.204 62.6186Z" fill="white"/>
</g>
<defs>
<clipPath id="clip0">
<rect width="400" height="521.36" fill="white"/>
</clipPath>
</defs>
</svg>
