<svg width="400" height="522" viewBox="0 0 400 522" fill="none" xmlns="http://www.w3.org/2000/svg">
<g clip-path="url(#clip0)">
<path d="M199.707 521.372C121.893 464.911 68.5547 393.618 36.6432 303.419C7.71278 221.649 -3.89936 122.556 1.14249 0.478512L1.16247 0H398.837L398.857 0.478512C403.899 122.555 392.287 221.648 363.358 303.419C331.446 393.618 278.108 464.911 200.294 521.372L200.001 521.586L199.707 521.372Z" fill="#32AC60"/>
<path d="M101.72 229.081L175.455 151.881L205.259 180.719L204.914 181.078C204.436 181.575 156.828 231.139 126.489 260.553C100.716 285.538 88.9174 289.229 61.7682 293.408L60.6793 293.576L101.72 229.081Z" fill="white"/>
<path d="M175.622 152.614L204.708 180.755C204.708 180.755 156.979 230.47 126.295 260.217C100.429 285.294 88.3845 288.853 61.8445 292.938L102.294 229.373L175.622 152.614ZM175.594 151.197L174.9 151.924L101.573 228.683L101.505 228.754L101.452 228.836L61.0024 292.402L59.8196 294.261L61.9974 293.926C89.2636 289.729 101.112 286.023 126.991 260.936C157.337 231.517 204.951 181.945 205.429 181.449L206.118 180.731L205.403 180.038L176.318 151.897L175.594 151.197Z" fill="#32AC60"/>
<path d="M71.7993 275.961C87.9159 274.278 94.1885 268.96 112.697 251.264C131.205 233.567 161.199 204.098 168.149 197.063C178.3 186.787 188.378 179.162 197.607 188.378" stroke="#32AC60" stroke-width="3" stroke-miterlimit="10"/>
<path d="M175.17 151.483L175.297 151.171C193.711 105.929 240.991 59.3943 295.747 32.6187L296.06 32.4658L296.312 32.7056C301.665 37.8094 304.936 40.9402 306.928 42.8562L307.243 43.116C307.295 43.1649 308.683 44.4566 320.765 56.3464L321.012 56.5902L320.87 56.9069C295.856 112.491 250.856 161.233 206.227 181.084L205.919 181.221L175.17 151.483Z" fill="white"/>
<path d="M295.963 33.0712C301.597 38.4418 304.922 41.6285 306.88 43.5116L306.898 43.4866C306.898 43.4866 308.195 44.6854 320.41 56.7071C295.567 111.911 250.977 160.636 206.019 180.633L175.755 151.364C194.306 105.788 241.581 59.6641 295.963 33.0712ZM296.148 31.8685L295.524 32.1742C240.663 59.0018 193.288 105.638 174.83 150.987L174.575 151.612L175.061 152.082L205.325 181.35L205.81 181.818L206.426 181.545C251.161 161.647 296.26 112.807 321.322 57.1167L321.607 56.4823L321.112 55.9948C309.024 44.1 307.632 42.8033 307.578 42.7534L306.758 41.9951L306.753 42.0021C304.305 39.6515 300.914 36.4098 296.653 32.349L296.148 31.8685Z" stroke="#32AC60" stroke-width="3"/>
<path d="M320.774 42.4088C320.649 41.9402 320.336 40.9962 320.32 40.9622C319.536 38.7705 318.422 37.1002 316.953 35.7575C315.561 34.329 313.851 33.2671 311.629 32.5548C311.595 32.5408 310.643 32.2581 310.169 32.1492C306.5 36.1322 303.475 39.5886 303.475 39.5886L313.558 49.3447C313.56 49.3447 316.915 46.2079 320.774 42.4088Z" fill="white" stroke="#32AC60" stroke-width="3" stroke-miterlimit="10"/>
<path d="M188.39 126.988L229.976 167.352" stroke="#32AC60" stroke-width="3" stroke-miterlimit="10"/>
<path d="M269.06 46.8132L307.458 84.0702" stroke="#32AC60" stroke-width="3" stroke-miterlimit="10"/>
<path d="M147.841 309.012L221.575 231.812L251.379 260.65L251.034 261.009C250.557 261.506 202.948 311.069 172.609 340.483C146.837 365.469 135.038 369.16 107.889 373.339L106.8 373.507L147.841 309.012Z" fill="white"/>
<path d="M221.589 232.522L250.675 260.663C250.675 260.663 202.946 310.377 172.262 340.125C146.396 365.201 134.351 368.761 107.812 372.845L148.261 309.28L221.589 232.522ZM221.561 231.104L220.867 231.831L147.54 308.59L147.472 308.661L147.419 308.744L106.969 372.309L105.787 374.168L107.964 373.833C135.231 369.637 147.079 365.93 172.958 340.843C203.304 311.424 250.919 261.854 251.396 261.356L252.085 260.638L251.37 259.946L222.285 231.804L221.561 231.104Z" fill="#32AC60"/>
<path d="M117.766 355.87C133.883 354.186 140.156 348.869 158.664 331.172C177.172 313.475 207.166 284.006 214.116 276.971C224.267 266.696 234.345 259.071 243.574 268.286" stroke="#32AC60" stroke-width="3" stroke-miterlimit="10"/>
<path d="M221.133 231.395L221.26 231.082C239.674 185.84 286.954 139.306 341.71 112.53L342.022 112.377L342.274 112.617C347.628 117.721 350.898 120.852 352.89 122.768L353.205 123.027C353.258 123.076 354.646 124.368 366.727 136.258L366.975 136.502L366.832 136.818C341.819 192.403 296.819 241.145 252.189 260.996L251.882 261.132L221.133 231.395Z" fill="white"/>
<path d="M341.93 112.979C347.564 118.349 350.889 121.536 352.847 123.419L352.865 123.394C352.865 123.394 354.162 124.593 366.377 136.615C341.534 191.818 296.945 240.543 251.986 260.54L221.722 231.272C240.272 185.695 287.548 139.571 341.93 112.979ZM342.115 111.776L341.491 112.082C286.63 138.909 239.255 185.546 220.797 230.894L220.542 231.52L221.028 231.989L251.292 261.257L251.777 261.726L252.393 261.452C297.128 241.554 342.227 192.714 367.289 137.024L367.574 136.39L367.079 135.902C354.991 124.007 353.599 122.711 353.545 122.661L352.725 121.903L352.72 121.91C350.272 119.559 346.881 116.317 342.62 112.256L342.115 111.776Z" stroke="#32AC60" stroke-width="3"/>
<path d="M366.741 122.316C366.616 121.848 366.303 120.904 366.287 120.87C365.504 118.678 364.389 117.008 362.92 115.665C361.528 114.236 359.818 113.174 357.596 112.462C357.562 112.448 356.61 112.165 356.136 112.057C352.467 116.04 349.442 119.496 349.442 119.496L359.525 129.252C359.527 129.252 362.881 126.115 366.741 122.316Z" fill="white" stroke="#32AC60" stroke-width="3" stroke-miterlimit="10"/>
<path d="M234.356 206.896L275.942 247.26" stroke="#32AC60" stroke-width="3" stroke-miterlimit="10"/>
<path d="M315.026 126.721L353.425 163.978" stroke="#32AC60" stroke-width="3" stroke-miterlimit="10"/>
</g>
<defs>
<clipPath id="clip0">
<rect width="400" height="521.59" fill="white"/>
</clipPath>
</defs>
</svg>
