<svg width="400" height="522" viewBox="0 0 400 522" fill="none" xmlns="http://www.w3.org/2000/svg">
<g clip-path="url(#clip0)">
<path d="M199.709 521.377C121.895 464.923 68.561 393.622 36.6483 303.433C7.70906 221.661 -3.90223 122.562 1.14434 0.481621L1.16528 0H398.839L398.86 0.481621C403.896 122.562 392.284 221.651 363.356 303.433C331.443 393.622 278.109 464.923 200.295 521.377L200.002 521.587L199.709 521.377Z" fill="#E53D42"/>
<path fill-rule="evenodd" clip-rule="evenodd" d="M275.915 162.119V131.391L246.383 131.458C247.594 133.933 247.789 136.515 247.768 138.982C247.733 143.022 243.545 148.334 237.678 148.319C232.384 148.305 229.209 144.66 227.97 141.642C226.963 139.19 226.932 135.229 228.052 133.327C225.983 134.531 223.981 134.822 221.463 134.542C217.724 134.125 212.444 130.656 212.444 123.784C212.444 116.913 217.724 113.444 221.463 113.027C223.981 112.746 225.983 113.036 228.052 114.241C226.932 112.34 226.963 108.378 227.97 105.927C229.209 102.909 232.384 99.2638 237.678 99.2498C243.545 99.2344 247.733 104.546 247.768 108.586C247.789 111.054 247.594 113.635 246.383 116.11L275.915 116.178L275.848 86.6451C273.373 87.8563 270.791 88.0514 268.323 88.0303C264.284 87.9957 258.972 83.8079 258.987 77.9409C259.001 72.6468 262.646 69.4721 265.664 68.2326C268.116 67.2259 272.077 67.1946 273.979 68.3143C272.774 66.2453 272.483 64.2439 272.764 61.7252C273.181 57.9868 276.65 52.7062 283.522 52.7062C290.393 52.7062 293.862 57.9868 294.279 61.7252C294.56 64.2439 294.269 66.2453 293.064 68.3143C294.966 67.1945 298.928 67.2259 301.379 68.2326C304.397 69.4721 308.042 72.6468 308.056 77.9409C308.071 83.8079 302.76 87.9957 298.72 88.0303C296.252 88.0512 293.671 87.8563 291.195 86.6451L291.128 116.178L320.661 116.11C319.45 113.635 319.254 111.054 319.276 108.586C319.31 104.546 323.498 99.2344 329.365 99.2498C334.659 99.2638 337.834 102.909 339.073 105.927C340.08 108.378 340.111 112.34 338.992 114.241C341.061 113.036 343.062 112.746 345.581 113.027C349.319 113.444 354.6 116.913 354.6 123.784C354.6 130.656 349.319 134.125 345.581 134.542C343.062 134.822 341.061 134.531 338.992 133.327C340.111 135.229 340.08 139.19 339.073 141.642C337.834 144.66 334.659 148.305 329.365 148.319C323.498 148.334 319.31 143.022 319.276 138.982C319.255 136.515 319.45 133.933 320.661 131.458L291.128 131.391L290.801 162.119L334.93 367.37C303.836 427.424 257.327 479.509 199.761 521.164L275.915 162.119Z" fill="#FFD400"/>
<path fill-rule="evenodd" clip-rule="evenodd" d="M123.607 162.119V131.391L153.14 131.458C151.929 133.933 151.734 136.515 151.755 138.982C151.789 143.022 155.977 148.334 161.844 148.319C167.138 148.305 170.313 144.66 171.552 141.642C172.559 139.19 172.59 135.229 171.471 133.327C173.54 134.531 175.541 134.822 178.06 134.542C181.798 134.125 187.079 130.656 187.079 123.784C187.079 116.913 181.798 113.444 178.06 113.027C175.541 112.746 173.54 113.036 171.471 114.241C172.59 112.34 172.559 108.378 171.552 105.927C170.313 102.909 167.138 99.2638 161.844 99.2498C155.977 99.2344 151.789 104.546 151.755 108.586C151.734 111.054 151.929 113.635 153.14 116.11L123.607 116.178L123.675 86.6451C126.15 87.8563 128.731 88.0514 131.199 88.0303C135.239 87.9957 140.551 83.8079 140.535 77.9409C140.521 72.6468 136.876 69.4721 133.858 68.2326C131.407 67.2259 127.446 67.1946 125.544 68.3143C126.749 66.2453 127.039 64.2439 126.758 61.7252C126.341 57.9868 122.872 52.7062 116.001 52.7062C109.129 52.7062 105.66 57.9868 105.243 61.7252C104.963 64.2439 105.254 66.2453 106.458 68.3143C104.556 67.1945 100.595 67.2259 98.1434 68.2326C95.1251 69.4721 91.4802 72.6468 91.4664 77.9409C91.4511 83.8079 96.7627 87.9957 100.803 88.0303C103.27 88.0512 105.852 87.8563 108.327 86.6451L108.394 116.178L78.8617 116.11C80.0729 113.635 80.268 111.054 80.2468 108.586C80.2123 104.546 76.0245 99.2344 70.1575 99.2498C64.8634 99.2638 61.6887 102.909 60.4492 105.927C59.4425 108.378 59.4111 112.34 60.5309 114.241C58.4619 113.036 56.4605 112.746 53.9417 113.027C50.2034 113.444 44.9228 116.913 44.9228 123.784C44.9228 130.656 50.2034 134.125 53.9417 134.542C56.4605 134.822 58.4619 134.531 60.5309 133.327C59.4111 135.229 59.4425 139.19 60.4492 141.642C61.6887 144.66 64.8634 148.305 70.1575 148.319C76.0245 148.334 80.2123 143.022 80.2468 138.982C80.2678 136.515 80.0729 133.933 78.8617 131.458L108.394 131.391L108.722 162.119L64.5928 367.37C95.6863 427.424 142.195 479.509 199.761 521.164L123.607 162.119Z" fill="#FFD400"/>
<path d="M38.0624 302.932L36.6483 303.433L38.0623 302.932C9.28278 221.612 -2.33777 123.023 2.60385 1.5H397.4C402.331 123.023 390.711 221.602 361.942 302.932C330.211 392.606 277.251 463.527 200.002 519.736C122.753 463.527 69.7928 392.606 38.0624 302.932Z" stroke="#E53D42" stroke-width="3"/>
</g>
<defs>
<clipPath id="clip0">
<rect width="400" height="521.59" fill="white"/>
</clipPath>
</defs>
</svg>
