<svg width="400" height="474" viewBox="0 0 400 474" fill="none" xmlns="http://www.w3.org/2000/svg">
<g clip-path="url(#clip0)">
<path fill-rule="evenodd" clip-rule="evenodd" d="M0.103383 0C0.103383 0 -4.69423 168.118 51.0752 278.047C106.856 387.976 199.812 473.211 199.812 473.211H200.188C200.188 473.211 293.144 387.976 348.925 278.047C404.694 168.118 399.897 0 399.897 0H0.103383Z" fill="#4B72B5"/>
<path fill-rule="evenodd" clip-rule="evenodd" d="M166.934 83.8779L176.762 96.3174C176.762 96.3174 181.836 90.4119 188.502 91.0295C195.156 91.6472 206.266 92.6332 233.206 125.845C254.143 151.645 256.995 161.896 258.266 165.938C259.526 169.979 254.452 173.403 250.329 174.964C246.217 176.513 244.945 177.445 244.945 177.445L253.181 187.696C253.181 187.696 266.512 180.869 273.797 183.351C281.093 185.843 291.562 192.052 309.956 217.852C328.351 243.652 334.055 251.421 334.055 251.421C334.055 251.421 341.03 229.045 343.882 222.826C346.734 216.606 353.079 203.863 353.079 203.863C353.079 203.863 347.696 201.381 347.375 188.639C347.055 175.885 349.277 169.047 349.277 169.047C349.277 169.047 338.167 154.441 337.216 153.823C336.277 153.195 336.907 159.729 335.636 161.907C334.066 164.605 335.005 168.43 328.351 167.812C321.685 167.184 304.882 151.959 293.142 133.614C281.414 115.28 287.427 102.223 287.748 101.291C288.069 100.359 277.921 86.0559 277.921 86.0559C277.921 86.0559 274.748 100.359 272.847 103.458C270.945 106.568 252.241 88.8515 240.822 74.8625C229.403 60.8735 224.329 54.0361 223.069 49.9943C221.797 45.9525 224.959 36.3195 225.6 35.3876C226.23 34.4557 212.91 17.9853 212.91 17.9853C212.91 17.9853 213.551 27.9326 206.896 30.414C201.137 32.5595 190.082 14.8754 190.082 14.8754L169.156 55.8998C169.156 55.8998 178.033 63.0515 181.836 72.3811C184.776 79.5977 181.515 82.946 175.811 83.5745C170.107 84.1921 166.934 83.8779 166.934 83.8779Z" fill="#FFD735"/>
<path fill-rule="evenodd" clip-rule="evenodd" d="M55.9437 248.932L64.8204 261.686C64.8204 261.686 73.6086 258.327 80.0423 260.125C88.9189 262.607 85.1273 261.415 112.078 294.627C133.004 320.427 138.83 330.818 139.029 335.044C139.338 341.567 135.856 341.871 131.733 343.431C127.62 344.981 124.757 345.609 124.757 345.609L136.176 357.734C136.176 357.734 152.67 354.31 159.954 356.792C167.25 359.284 172.004 364.258 190.398 390.058C208.793 415.858 216.089 428.601 216.089 428.601C216.089 428.601 225.607 408.089 228.459 401.869C231.311 395.66 242.73 384.466 242.73 384.466C242.73 384.466 233.533 372.655 233.212 359.912C232.891 347.17 233.842 345.295 233.842 345.295C233.842 345.295 225.595 334.112 224.645 333.484C223.694 332.866 221.793 339.086 220.522 341.253C218.952 343.951 215.768 346.855 208.163 339.704C203.332 335.163 199.297 330.807 184.053 315.15C151.398 281.58 160.905 269.444 160.596 265.413C160.363 262.466 148.226 245.205 148.226 245.205C148.226 245.205 144.313 260.851 140.93 262.303C135.856 264.481 129.511 255.769 118.103 241.78C106.683 227.802 98.9453 213.618 97.1655 209.771C92.7327 200.128 96.5354 187.385 95.8943 186.149C95.3858 185.142 87.0176 175.574 87.0176 175.574C87.0176 175.574 85.8569 195.089 78.771 195.782C69.2642 196.714 61.6478 169.354 61.6478 169.354L45.1656 210.703C45.1656 210.703 64.4998 226.556 68.3136 235.875C71.254 243.092 69.8943 245.205 64.8204 247.383C59.5585 249.636 55.9437 248.932 55.9437 248.932Z" fill="#FFD735"/>
<path fill-rule="evenodd" clip-rule="evenodd" d="M78.7746 139.521L89.2431 153.195C89.2431 153.195 102.243 149.154 108.898 149.782C115.564 150.4 128.055 163.153 156.465 195.162C177.711 219.099 195.807 241.258 198.007 244.899C203.081 253.286 200.539 259.506 196.415 261.066C192.303 262.615 191.032 263.558 191.032 263.558L201.5 275.358C201.5 275.358 212.599 269.767 219.884 272.248C227.18 274.73 237.648 282.196 256.043 307.996C274.437 333.796 283.314 343.429 283.314 343.429C283.314 343.429 292.434 321.779 295.684 315.765C301.388 305.2 310.585 292.143 310.585 292.143C310.585 292.143 292.058 269.139 291.87 264.165C291.561 255.464 293.141 249.244 293.141 249.244C293.141 249.244 282.043 235.883 281.092 235.255C280.141 234.637 279.821 240.857 278.561 243.035C276.98 245.733 277.289 248.637 270.624 248.009C263.969 247.391 243.994 225.936 222.426 204.178C207.039 188.65 213.859 170.294 214.18 169.362C214.5 168.43 203.722 153.51 203.722 153.51C203.722 153.51 199.157 163.273 196.106 165.321C191.032 168.745 169.785 145.112 156.465 130.505C144.294 117.155 130.973 98.9187 129.194 95.072C123.169 82.0149 126.662 72.9995 127.292 72.0676C127.933 71.1357 117.144 60.2565 117.144 60.2565C117.144 60.2565 115.928 70.919 108.898 72.0676C101.292 73.3137 62.9226 14.2477 62.9226 14.2477L30.2568 62.4345C30.2568 62.4345 62.2814 83.261 90.5143 122.422C94.6708 128.186 92.2278 133.279 87.6513 136.411C84.4786 138.589 78.7746 139.521 78.7746 139.521Z" fill="#FFD735"/>
</g>
<defs>
<clipPath id="clip0">
<rect width="400" height="473.21" fill="white"/>
</clipPath>
</defs>
</svg>
