<svg width="400" height="522" viewBox="0 0 400 522" fill="none" xmlns="http://www.w3.org/2000/svg">
<g clip-path="url(#clip0)">
<path d="M199.709 521.377C121.895 464.923 68.561 393.622 36.6483 303.433C7.70906 221.661 -3.90223 122.562 1.14434 0.481621L1.16528 0H398.839L398.86 0.481621C403.896 122.562 392.284 221.651 363.356 303.433C331.443 393.622 278.109 464.923 200.295 521.377L200.002 521.586L199.709 521.377Z" fill="#FFE000"/>
<path fill-rule="evenodd" clip-rule="evenodd" d="M149.339 479.517C98.2403 430.727 61.1371 372.641 36.6483 303.433C7.70906 221.661 -3.90222 122.562 1.14434 0.481621L1.16528 0H398.839L398.86 0.481621C403.896 122.562 392.284 221.651 363.356 303.433C338.716 373.066 301.307 431.44 249.721 480.415L249.787 392.555C249.787 390.446 250.958 389.288 252.244 388.017C253.81 386.468 255.546 384.752 255.546 380.944V176.949C255.546 174.312 254.285 172.894 252.993 171.44C251.62 169.895 250.211 168.309 250.243 165.177C250.287 160.972 251.286 158.816 254.275 154.05C259.451 145.796 268.654 137.096 281.85 136.795C300.057 136.381 308.712 146.039 315.231 154.05H374.898C370.372 149.337 358.292 146.628 348.028 144.326C340.617 142.664 334.153 141.214 332.164 139.376C319.415 127.592 304.881 115.056 274.271 115.67C253.449 116.088 244.033 120.442 235.73 129.861C235.583 109.811 233.232 102.339 228.957 92.9325C224.867 83.9312 215.985 77.2902 210.001 77.2902C216.394 96.7694 215.414 109.055 214.505 120.44C214.283 123.23 214.064 125.967 213.96 128.742C213.791 133.65 212.95 139.36 212.085 145.223L212.085 145.223C211.059 152.184 210.001 159.359 210.001 165.661V380.944C210.001 384.752 211.737 386.468 213.303 388.017C214.589 389.288 215.759 390.446 215.759 392.555V509.709C210.716 513.667 205.562 517.556 200.295 521.377L200.002 521.586L199.709 521.377C194.114 517.318 188.645 513.182 183.302 508.967V392.555C183.302 390.446 184.473 389.288 185.759 388.017C187.325 386.468 189.061 384.752 189.061 380.944V165.661C189.061 159.359 188.003 152.184 186.977 145.223C186.112 139.36 185.27 133.65 185.102 128.742C184.998 125.967 184.779 123.23 184.557 120.44C183.648 109.055 182.668 96.7694 189.061 77.2902C183.076 77.2902 174.195 83.9312 170.105 92.9325C165.83 102.339 163.478 109.811 163.332 129.861C155.028 120.442 145.613 116.088 124.79 115.67C94.1809 115.055 79.6471 127.592 66.8979 139.376C64.9089 141.214 58.4449 142.664 51.0339 144.326C40.7702 146.628 28.6899 149.337 24.1638 154.05H83.8303C90.3492 146.039 99.0047 136.381 117.211 136.795C130.407 137.096 139.611 145.796 144.787 154.05C147.775 158.816 148.775 160.972 148.818 165.177C148.85 168.309 147.442 169.895 146.068 171.44C144.777 172.894 143.516 174.312 143.516 176.949V380.944C143.516 384.752 145.252 386.468 146.818 388.017C148.104 389.288 149.275 390.446 149.275 392.555L149.339 479.517Z" fill="#0085CA"/>
</g>
<defs>
<clipPath id="clip0">
<rect width="400" height="521.59" fill="white"/>
</clipPath>
</defs>
</svg>
