<svg width="400" height="523" viewBox="0 0 400 523" fill="none" xmlns="http://www.w3.org/2000/svg">
<g clip-path="url(#clip0)">
<path d="M200.291 521.853C278.105 465.398 331.439 394.097 363.352 303.908C392.291 222.137 403.902 123.038 398.856 0.957329L398.835 0.475708H1.16126L1.14031 0.957329C-3.89578 123.038 7.71551 222.127 36.6443 303.908C68.557 394.097 121.891 465.398 199.705 521.853L199.998 522.062L200.291 521.853Z" fill="#0085CA"/>
<path fill-rule="evenodd" clip-rule="evenodd" d="M136.658 347.071C126.425 347.071 113.624 350.595 113.624 362.883V371.777H99.2564L96.5197 333.848L91.5619 235.791C91.4162 232.91 84.3145 233.805 80.6908 232.812C76.1767 231.575 88.616 189.311 92.3409 166.847C92.7528 164.363 84.9319 162.192 85.573 159.686C88.0625 149.956 90.9101 140.241 92.0726 130.265C92.612 125.636 92.2766 116.285 92.2766 116.285C92.318 113.443 90.2271 109.424 85.1169 107.003C76.4811 111.229 58.394 106.074 62.0285 103.721L72.4597 96.9684C73.9991 95.9719 53.2486 89.9169 51.3908 91.195C50.4527 91.8404 44.3349 96.3548 40.6458 98.4508L34.334 95.0203L39.2234 88.4943C27.2385 86.9403 11.8701 77.6003 18.7523 64.9264C25.39 73.4754 36.7817 76.3169 47.1876 78.5928L57.3792 65.5301C50.7461 61.8673 41.1779 57.7957 37.9715 48.5591C34.52 38.6166 41.1997 27.6016 49.0274 26.2765C47.4487 36.4222 53.179 45.3421 61.2245 49.7065C78.1875 58.9082 96.3542 63.6743 112.753 76.8928C128.548 89.6247 134.575 118.456 144.51 141.257C146.671 146.216 146.008 146.995 136.695 151.623C139.653 155.38 144.113 159.686 152.821 159.686H186.04H192.988C190.06 155.572 186.935 153.131 186.9 145.545C186.856 136.344 191.493 129.83 194.463 121.973C191.366 120.095 188.494 117.369 187.4 113.144L160.718 116.285V100.58L188.427 103.721C189.843 100.58 192.426 98.8293 195 97.3911L194.926 87.0215C193.598 86.4289 191.821 84.5084 191.037 82.7808L166.305 84.8748V70.2167L191.62 72.3107C192.555 70.9294 194.226 69.5608 195.309 68.8379L192.418 46.9099H208.521L205.63 68.8379C206.712 69.5608 208.384 70.9294 209.319 72.3107L234.633 70.2167V84.8748L209.902 82.7808C209.117 84.5084 207.34 86.4289 206.012 87.0214L205.938 97.3911C208.513 98.8292 211.096 100.58 212.512 103.721L240.22 100.58V116.285L213.538 113.144C212.444 117.369 209.572 120.095 206.475 121.973C209.445 129.83 214.082 136.344 214.039 145.545C214.003 153.131 210.878 155.572 207.95 159.686H214.898H248.118C256.825 159.686 261.285 155.38 264.244 151.623C254.93 146.995 254.268 146.216 256.428 141.257C266.363 118.456 272.39 89.6247 288.185 76.8928C304.584 63.6743 322.751 58.9082 339.714 49.7065C347.759 45.3421 353.49 36.4222 351.911 26.2765C359.739 27.6016 366.418 38.6166 362.967 48.5591C359.76 57.7957 350.192 61.8673 343.559 65.5301L353.751 78.5928C364.157 76.3169 375.548 73.4754 382.186 64.9264C389.068 77.6003 373.7 86.9403 361.715 88.4943L366.604 95.0203L360.293 98.4508C356.603 96.3548 350.486 91.8404 349.547 91.195C347.69 89.9169 326.939 95.9719 328.479 96.9684L338.91 103.721C342.544 106.074 324.457 111.229 315.821 107.003C310.711 109.424 308.62 113.443 308.662 116.285C308.662 116.285 308.326 125.636 308.866 130.265C310.028 140.241 312.876 149.956 315.365 159.686C316.006 162.192 308.186 164.363 308.597 166.847C312.322 189.31 324.762 231.575 320.247 232.812C316.624 233.805 309.522 232.91 309.376 235.791L304.419 333.848L301.682 371.777H287.314V362.883C287.314 350.595 274.513 347.071 264.281 347.071L136.658 347.071Z" fill="#FFE000"/>
<path opacity="0.98" d="M200.469 117.38C196.281 117.38 192.886 113.985 192.886 109.797C192.886 105.609 196.281 102.214 200.469 102.214C204.657 102.214 208.052 105.609 208.052 109.797C208.052 113.985 204.657 117.38 200.469 117.38Z" fill="#0085CA"/>
<path opacity="0.98" d="M200.469 83.7208C197.363 83.7208 194.845 81.2028 194.845 78.0967C194.845 74.9906 197.363 72.4726 200.469 72.4726C203.575 72.4726 206.093 74.9906 206.093 78.0967C206.093 81.2028 203.575 83.7208 200.469 83.7208Z" fill="#0085CA"/>
<path fill-rule="evenodd" clip-rule="evenodd" d="M93.0172 76.4416C99.9409 77.1972 107.611 82.325 110.41 87.6168C114.73 95.7832 104.182 97.5123 102.26 93.4144C99.6482 87.8485 96.1833 81.0906 93.0172 76.4416Z" fill="#0085CA"/>
<path fill-rule="evenodd" clip-rule="evenodd" d="M187.832 333.848V310.398C187.832 301.774 191.619 296.429 200.469 296.429C209.319 296.429 213.107 301.774 213.107 310.398V333.848C204.682 333.848 196.257 333.848 187.832 333.848Z" fill="#0085CA"/>
<path fill-rule="evenodd" clip-rule="evenodd" d="M226.571 333.848V310.398C226.571 301.774 230.358 296.429 239.208 296.429C248.058 296.429 251.846 301.774 251.846 310.398V333.848C243.421 333.848 234.996 333.848 226.571 333.848Z" fill="#0085CA"/>
<path fill-rule="evenodd" clip-rule="evenodd" d="M265.31 333.848V310.398C265.31 301.774 269.097 296.429 277.947 296.429C286.798 296.429 290.585 301.774 290.585 310.398V333.848C282.16 333.848 273.735 333.848 265.31 333.848Z" fill="#0085CA"/>
<path fill-rule="evenodd" clip-rule="evenodd" d="M149.093 333.848V310.398C149.093 301.774 152.88 296.429 161.73 296.429C170.58 296.429 174.367 301.774 174.367 310.398V333.848C165.942 333.848 157.517 333.848 149.093 333.848Z" fill="#0085CA"/>
<path fill-rule="evenodd" clip-rule="evenodd" d="M110.353 333.848V310.398C110.353 301.774 114.141 296.429 122.991 296.429C131.841 296.429 135.628 301.774 135.628 310.398V333.848C127.203 333.848 118.778 333.848 110.353 333.848Z" fill="#0085CA"/>
<path fill-rule="evenodd" clip-rule="evenodd" d="M58.2859 81.7338C58.2859 81.7338 63.979 70.7877 71.003 73.151C84.6043 77.7273 87.938 89.8444 88.5784 93.5044C80.5498 88.0497 66.2773 83.3644 58.2859 81.7338Z" fill="#0085CA"/>
<path fill-rule="evenodd" clip-rule="evenodd" d="M307.921 76.4416C300.997 77.1972 293.328 82.325 290.528 87.6168C286.208 95.7832 296.756 97.5123 298.679 93.4144C301.29 87.8485 304.755 81.0906 307.921 76.4416Z" fill="#0085CA"/>
<path fill-rule="evenodd" clip-rule="evenodd" d="M342.652 81.7338C342.652 81.7338 336.959 70.7877 329.935 73.151C316.334 77.7273 313 89.8444 312.36 93.5044C320.389 88.0497 334.661 83.3644 342.652 81.7338Z" fill="#0085CA"/>
</g>
<defs>
<clipPath id="clip0">
<rect y="0.475708" width="400" height="521.59" fill="white"/>
</clipPath>
</defs>
</svg>
