<svg width="400" height="522" viewBox="0 0 400 522" fill="none" xmlns="http://www.w3.org/2000/svg">
<g clip-path="url(#clip0)">
<path d="M199.773 521.893C123.929 468.088 66.873 391.847 36.6407 303.908C7.70162 222.171 -3.88543 123.024 1.13753 0.93234V0.475708H398.864V0.93234C403.887 123.024 392.3 222.114 363.361 303.908C333.165 391.85 276.125 468.096 200.286 521.893H200.001H199.773Z" fill="#FFE000"/>
<path fill-rule="evenodd" clip-rule="evenodd" d="M36.6407 303.908C66.873 391.847 123.929 468.088 199.773 521.893H200.001H200.286C276.125 468.096 333.165 391.85 363.361 303.908C367.805 291.347 371.84 278.378 375.469 264.98H328.2C301.373 213.495 255.025 191.177 199.944 191.177C144.863 191.177 98.3431 213.609 71.516 264.98L24.4546 264.709C28.1033 278.205 32.1644 291.265 36.6407 303.908ZM5.7175 163.753C72.2779 144.576 126.202 139.007 199.773 139.007C273.789 139.007 327.015 144.643 394.242 164.103C399.807 114.761 401.319 60.5932 398.864 0.93234V0.475708H1.13753V0.93234C-1.31082 60.4438 0.187196 114.504 5.7175 163.753Z" fill="#0085CA"/>
</g>
<defs>
<clipPath id="clip0">
<rect y="0.475708" width="400" height="521.42" fill="white"/>
</clipPath>
</defs>
</svg>
