<svg width="400" height="500" viewBox="0 0 400 500" fill="none" xmlns="http://www.w3.org/2000/svg">
<g clip-path="url(#clip0)">
<path d="M400 0.475708C400 119.523 390.894 239.237 334.924 337.184C299.893 398.689 254.249 453.506 200.107 499.097C97.7221 416.873 30.5924 298.661 12.43 168.608C3.07128 113.074 -1.01879 56.7794 0.214323 0.475708L400 0.475708Z" fill="#E7C250"/>
<path d="M395.336 4.69563C395.336 127.963 384.231 247.676 324.041 346.29C290.988 401.706 249.128 451.367 200.107 493.323C91.4987 398.262 25.0898 281.214 13.0963 143.288C6.46508 97.4024 3.64214 51.0468 4.65634 4.69563H395.336Z" fill="#E7C250"/>
<path d="M126.147 93.7589C136.455 88.6519 147.745 85.8295 159.244 85.4845C170.743 85.1396 182.181 87.2801 192.778 91.76C187.525 102.038 179.764 110.826 170.214 117.309C160.663 123.793 149.632 127.762 138.14 128.851C146.298 136.867 152.534 146.627 156.38 157.398C160.227 168.168 161.584 179.67 160.351 191.04C149.067 189.597 138.357 185.23 129.28 178.374C120.203 171.518 113.074 162.409 108.601 151.95C103.269 162.072 95.8332 170.936 86.7924 177.947C77.7516 184.957 67.3152 189.952 56.1843 192.595C54.1349 181.058 55.103 169.188 58.9946 158.135C62.8862 147.083 69.5691 137.225 78.3946 129.518C66.6312 128.167 55.339 124.117 45.399 117.683C35.4591 111.249 27.1403 102.606 21.092 92.4263C31.7593 87.3173 43.4937 84.8331 55.3162 85.1808C67.1388 85.5285 78.7069 88.6981 89.0555 94.4252C86.2565 83.0833 86.3989 71.2146 89.4694 59.9431C92.5399 48.6717 98.4368 38.3705 106.602 30.0153C115.171 37.9876 121.489 48.0765 124.92 59.2667C128.352 70.4568 128.775 82.3534 126.147 93.7589Z" fill="#1A8AB9"/>
<path d="M124.814 102.2C126.591 109.085 126.591 108.863 121.927 113.527C123.399 113.791 124.803 114.349 126.054 115.169C127.305 115.989 128.378 117.053 129.207 118.298C130.037 119.542 130.607 120.942 130.882 122.412C131.158 123.882 131.134 125.392 130.811 126.853C130.811 129.518 126.591 132.628 124.592 132.628H117.707C117.707 137.736 114.597 140.179 111.266 143.067C107.934 145.954 104.159 144.399 102.604 141.734C101.049 139.069 97.4955 137.736 98.1619 133.516C95.0524 133.516 88.6114 135.515 85.502 129.74C84.9928 129.033 84.644 128.223 84.4798 127.367C84.3157 126.51 84.3402 125.629 84.5516 124.783C84.7631 123.937 85.1563 123.148 85.704 122.47C86.2518 121.792 86.9407 121.241 87.723 120.856L92.8314 115.97C92.8314 111.528 88.6114 108.418 90.6104 103.31C91.9698 101.254 94.0878 99.8196 96.5016 99.3202C98.9153 98.8208 101.429 99.297 103.492 100.645L108.157 104.198C109.155 102.169 110.761 100.501 112.751 99.4259C114.741 98.3512 117.017 97.9233 119.262 98.2017C121.261 98.4238 124.814 100.201 124.814 102.2Z" fill="#E7C250"/>
<path d="M120.594 107.974L117.041 115.304C119.187 115.979 121.167 117.099 122.851 118.592C124.535 120.084 125.885 121.916 126.813 123.966C125.48 129.518 118.595 127.964 115.93 127.297H114.597C111.932 131.517 114.597 137.736 107.268 138.402C104.329 135.609 102.579 131.791 102.382 127.741C96.3849 127.741 99.4944 133.072 89.7219 126.409C87.7229 122.189 94.8302 119.302 97.7176 117.969V116.414C97.7176 110.862 91.9429 109.085 97.7176 103.31C99.9912 103.015 102.3 103.46 104.3 104.58C106.301 105.701 107.887 107.436 108.823 109.529C109.52 107.848 110.577 106.34 111.92 105.112C113.263 103.884 114.86 102.965 116.596 102.422C117.642 102.981 118.546 103.772 119.239 104.734C119.932 105.697 120.396 106.805 120.594 107.974Z" fill="#1A8AB9"/>
<path d="M312.491 93.7589C322.8 88.6519 334.089 85.8295 345.589 85.4845C357.088 85.1396 368.526 87.2801 379.122 91.76C373.886 102.051 366.129 110.85 356.576 117.335C347.022 123.821 335.982 127.783 324.485 128.851C332.642 136.867 338.878 146.627 342.725 157.398C346.571 168.168 347.929 179.67 346.695 191.04C335.405 189.618 324.684 185.26 315.604 178.401C306.523 171.542 299.4 162.422 294.945 151.95C289.578 162.088 282.104 170.96 273.025 177.97C263.946 184.98 253.472 189.967 242.307 192.595C240.257 181.058 241.225 169.188 245.117 158.135C249.009 147.083 255.692 137.225 264.517 129.518C252.822 128.135 241.605 124.068 231.742 117.634C221.879 111.2 213.637 102.573 207.659 92.4263C218.413 87.205 230.269 84.66 242.219 85.008C254.168 85.356 265.857 88.5868 276.289 94.4252C273.44 83.1031 273.536 71.2402 276.569 59.9659C279.601 48.6915 285.469 38.3808 293.613 30.0153C302.065 38.0576 308.257 48.178 311.57 59.3645C314.883 70.5509 315.201 82.4111 312.491 93.7589Z" fill="#1A8AB9"/>
<path d="M311.159 102.199C313.158 109.084 312.936 108.862 308.272 113.526C311.229 114.119 313.837 115.844 315.539 118.335C317.241 120.825 317.901 123.882 317.378 126.852C317.378 129.518 312.936 132.627 310.937 132.627H304.274C304.274 137.735 301.164 140.179 297.611 143.066C294.057 145.953 290.503 144.399 289.171 141.733C287.838 139.068 283.84 137.735 284.507 133.515C281.397 133.515 274.956 135.514 272.069 129.74C271.519 129.046 271.136 128.236 270.949 127.371C270.762 126.506 270.776 125.609 270.991 124.75C271.205 123.892 271.615 123.094 272.187 122.419C272.759 121.743 273.478 121.209 274.29 120.856L279.398 115.969C279.398 111.527 274.956 108.418 276.955 103.309C278.227 101.413 280.151 100.049 282.361 99.4759C284.572 98.9028 286.915 99.1604 288.949 100.2L293.613 103.754C294.636 101.745 296.247 100.095 298.231 99.0243C300.214 97.9531 302.477 97.5111 304.718 97.7568C307.827 98.4231 311.159 100.2 311.159 102.199Z" fill="#E7C250"/>
<path d="M306.939 107.973L303.607 115.303C305.736 116.014 307.698 117.147 309.378 118.636C311.057 120.124 312.418 121.937 313.38 123.965C311.825 129.517 305.162 127.962 302.275 127.296C299.387 131.516 302.275 137.735 294.723 138.401C291.505 135.812 289.432 132.064 288.948 127.962C282.729 127.962 286.061 133.293 276.288 126.63C274.067 122.41 281.175 119.523 284.062 118.19V116.635C284.062 111.083 278.51 109.306 284.062 103.531C286.336 103.236 288.644 103.681 290.645 104.801C292.645 105.922 294.231 107.657 295.167 109.75C295.923 108.106 297 106.631 298.335 105.41C299.67 104.189 301.236 103.248 302.941 102.643C303.961 103.179 304.848 103.936 305.54 104.858C306.231 105.78 306.709 106.844 306.939 107.973Z" fill="#1A8AB9"/>
<path d="M220.763 306.533C231.06 301.405 242.34 298.552 253.837 298.169C265.333 297.786 276.778 299.881 287.394 304.312C282.239 314.802 274.415 323.752 264.708 330.262C255.001 336.772 243.752 340.615 232.09 341.404C240.225 349.482 246.444 359.283 250.288 370.085C254.132 380.886 255.503 392.413 254.3 403.815C242.993 402.35 232.266 397.951 223.187 391.054C214.108 384.157 206.993 375.003 202.55 364.502C197.243 374.684 189.787 383.592 180.698 390.61C171.61 397.628 161.106 402.588 149.912 405.147C147.925 393.645 148.923 381.826 152.812 370.82C156.701 359.815 163.35 349.992 172.122 342.292C160.501 340.772 149.379 336.62 139.603 330.155C129.827 323.689 121.655 315.078 115.708 304.979C126.495 299.845 138.353 297.368 150.293 297.755C162.232 298.141 173.906 301.38 184.338 307.2C181.496 295.86 181.617 283.98 184.689 272.701C187.762 261.421 193.683 251.121 201.884 242.79C210.336 250.832 216.528 260.952 219.841 272.139C223.154 283.325 223.472 295.186 220.763 306.533Z" fill="#1A8AB9"/>
<path d="M219.208 314.973C221.207 321.636 220.985 321.636 216.321 326.079C217.799 326.345 219.209 326.903 220.47 327.719C221.73 328.536 222.816 329.595 223.663 330.835C224.511 332.075 225.103 333.472 225.406 334.943C225.709 336.414 225.716 337.931 225.427 339.405C225.427 342.292 221.207 345.401 218.986 345.401H212.323C212.14 347.551 211.438 349.624 210.278 351.442C209.117 353.26 207.532 354.77 205.66 355.84C204.327 355.84 198.552 357.173 197.22 354.286C195.887 351.398 191.889 350.288 192.778 346.068C189.446 346.068 183.005 348.289 180.118 342.514C179.644 341.795 179.325 340.986 179.181 340.137C179.036 339.289 179.069 338.42 179.278 337.584C179.487 336.749 179.866 335.967 180.393 335.286C180.92 334.605 181.583 334.041 182.339 333.63L187.447 328.966C187.447 324.524 183.005 321.414 185.226 316.306C185.879 315.264 186.735 314.366 187.745 313.664C188.754 312.962 189.895 312.472 191.098 312.223C192.302 311.974 193.544 311.971 194.748 312.215C195.953 312.459 197.096 312.944 198.108 313.641L202.772 316.972C203.796 314.964 205.407 313.314 207.39 312.243C209.374 311.172 211.637 310.73 213.878 310.975C215.877 311.42 219.208 312.752 219.208 314.973Z" fill="#E7C250"/>
<path d="M214.988 320.526L211.656 328.078C213.777 328.74 215.738 329.831 217.419 331.283C219.1 332.735 220.465 334.517 221.429 336.518C220.096 342.293 213.211 340.738 210.324 340.071H209.213C206.326 344.291 209.213 350.51 201.884 351.177C200.386 349.874 199.177 348.273 198.335 346.475C197.494 344.677 197.038 342.723 196.998 340.738C191.001 340.738 194.11 345.846 184.338 339.405C182.117 335.185 189.446 332.298 192.111 330.743V329.188C192.111 323.858 186.559 322.081 192.111 316.306C194.412 316.032 196.741 316.484 198.773 317.599C200.804 318.714 202.435 320.437 203.439 322.525C204.135 320.844 205.193 319.336 206.536 318.108C207.879 316.88 209.475 315.962 211.212 315.418C212.166 315.956 212.995 316.689 213.646 317.569C214.296 318.449 214.754 319.457 214.988 320.526Z" fill="#1A8AB9"/>
</g>
<defs>
<clipPath id="clip0">
<rect y="0.475708" width="400" height="498.62" fill="white"/>
</clipPath>
</defs>
</svg>
