<svg width="400" height="386" viewBox="0 0 400 386" fill="none" xmlns="http://www.w3.org/2000/svg">
<g clip-path="url(#clip0)">
<path d="M48.87 0.475708C18.7062 40.7382 -0.520978 90.2173 0.00821091 142.519C0.669697 207.741 26.7323 253.649 48.87 279.667C94.3362 333.292 147.167 363.455 199.998 385.505C252.916 363.455 305.835 333.071 351.125 279.667C373.175 253.649 399.325 207.653 399.987 142.519C400.516 90.2173 381.289 40.7382 351.125 0.475708H48.87Z" fill="#0085CA"/>
<path d="M244.626 14.808C263.456 14.808 275.495 21.3787 284.006 35.2258C292.194 25.6787 303.77 19.6848 316.291 18.5083C328.813 17.3318 341.303 21.0647 351.125 28.9197C372.69 44.8394 378.599 75.2237 358.975 100.007C367.742 104.292 374.982 111.167 379.714 119.701C384.447 128.235 386.443 138.017 385.434 147.723C385.358 156.176 382.75 164.412 377.948 171.369C373.145 178.325 366.367 183.683 358.49 186.75C363.446 194.353 366.251 203.156 366.608 212.224C366.965 221.293 364.861 230.289 360.518 238.258C348.744 258.72 331.193 263.394 315.14 263.483C318.889 287.869 310.201 305.73 295.075 315.211C288.188 319.286 280.508 321.84 272.551 322.699C264.595 323.559 256.547 322.705 248.948 320.194C247.173 331.778 241.208 342.307 232.186 349.785C223.163 357.264 211.71 361.171 199.998 360.765C188.286 361.171 176.833 357.264 167.81 349.785C158.787 342.307 152.823 331.778 151.048 320.194C143.468 322.685 135.444 323.529 127.512 322.67C119.58 321.81 111.923 319.267 105.052 315.211C89.9264 305.73 81.2389 287.869 84.9873 263.483C68.9352 263.483 51.3838 258.72 39.6093 238.258C35.2668 230.289 33.1624 221.293 33.5196 212.224C33.8767 203.156 36.682 194.353 41.6379 186.75C33.7605 183.683 26.983 178.325 22.1802 171.369C17.3774 164.412 14.7696 156.176 14.6933 147.723C13.6843 138.017 15.681 128.235 20.4134 119.701C25.1458 111.167 32.3854 104.292 41.1528 100.007C21.3964 75.4442 27.3057 44.8394 48.8701 28.9197C58.6927 21.0647 71.1821 17.3318 83.704 18.5083C96.2259 19.6848 107.801 25.6787 115.989 35.2258C124.588 21.3787 136.716 15.0285 155.369 14.808C164.813 14.5893 174.107 17.1969 182.058 22.2963C190.01 27.3957 196.257 34.7543 199.998 43.4283C203.739 34.7543 209.985 27.3957 217.937 22.2963C225.889 17.1969 235.182 14.5893 244.626 14.808Z" fill="white"/>
<path d="M157.221 33.7705C132.217 33.7705 122.604 50.7486 117.532 63.3169C106.772 41.4878 79.7835 26.1413 57.778 42.2816C38.0216 56.702 41.726 86.3807 64.5252 104.682C48.5172 110.723 29.6869 123.424 30.8776 146.796C31.8037 164.436 46.4446 174.402 63.8196 180.444C53.8091 191.204 44.7247 205.316 51.2073 225.381C60.0271 251.84 87.2803 251.84 103.729 247.431C95.3945 262.204 93.5424 286.546 107.389 298.233C124.544 312.785 145.668 311.154 162.469 297.968C162.469 321.429 171.951 344.934 199.998 344.934C228.045 344.934 237.482 321.429 237.482 297.968C254.328 311.198 275.451 312.785 292.606 298.233C306.453 286.546 304.601 262.204 296.266 247.431C312.715 251.84 340.365 251.84 348.788 225.381C355.27 205.492 346.186 191.381 336.176 180.62C353.551 174.579 368.191 164.524 369.118 146.973C370.308 123.6 351.478 110.679 335.47 104.858C358.269 86.5571 361.929 56.8784 342.217 42.458C320.168 26.3177 293.179 41.6642 282.463 63.4932C277.391 50.925 267.778 33.8146 242.774 33.9469C221.606 33.9469 207.053 50.484 199.998 69.5348C192.942 50.484 178.389 34.2556 157.221 33.9469V33.7705Z" fill="#0085CA"/>
<path d="M267.557 221.5C285.55 201.523 301.117 179.165 300.235 152.794C299.176 120.558 275.892 97.0968 254.107 91.849C229.588 85.8956 207.494 106.314 205.245 120.778C203.771 130.927 203.49 141.213 204.407 151.427C205.025 156.19 207.935 157.689 209.699 157.821C217.593 157.821 220.504 152.044 227.912 152.265C229.185 152.177 230.462 152.352 231.665 152.779C232.867 153.205 233.969 153.875 234.902 154.745C235.834 155.616 236.578 156.669 237.087 157.839C237.595 159.009 237.857 160.272 237.857 161.548C237.857 162.823 237.595 164.086 237.087 165.256C236.578 166.426 235.834 167.479 234.902 168.35C233.969 169.22 232.867 169.89 231.665 170.317C230.462 170.743 229.185 170.918 227.912 170.83C220.504 170.83 217.593 165.45 209.699 165.274C205.686 165.274 202.335 166.2 203.57 170.875C205.289 177.489 210.052 180.841 210.14 187.632C210.14 193.497 207.494 200.024 199.998 200.024C192.501 200.024 189.811 193.497 189.855 187.632C189.855 180.841 194.706 177.489 196.426 170.875C197.66 166.2 194.309 165.142 190.296 165.274C182.402 165.274 179.492 171.051 172.083 170.83C170.81 170.918 169.533 170.743 168.33 170.317C167.128 169.89 166.026 169.22 165.093 168.35C164.161 167.479 163.417 166.426 162.909 165.256C162.4 164.086 162.138 162.823 162.138 161.548C162.138 160.272 162.4 159.009 162.909 157.839C163.417 156.669 164.161 155.616 165.093 154.745C166.026 153.875 167.128 153.205 168.33 152.779C169.533 152.352 170.81 152.177 172.083 152.265C179.492 152.044 182.402 157.821 190.296 157.821C192.06 157.821 194.97 156.19 195.588 151.427C196.506 141.213 196.224 130.927 194.75 120.778C192.501 106.137 170.407 85.8956 145.888 91.849C124.103 97.0968 100.819 120.558 99.7604 152.794C98.8784 179.253 114.445 201.523 132.438 221.5C152.643 241.423 175.354 258.633 199.998 272.699C224.641 258.633 247.352 241.423 267.557 221.5Z" fill="white"/>
</g>
<defs>
<clipPath id="clip0">
<rect y="0.475708" width="400" height="385.03" fill="white"/>
</clipPath>
</defs>
</svg>
