<svg width="400" height="499" viewBox="0 0 400 499" fill="none" xmlns="http://www.w3.org/2000/svg">
<g clip-path="url(#clip0)">
<path d="M399.639 0.475708C401.679 102.984 396.259 188.068 355.465 297.279C326.224 379.235 271.799 449.837 199.983 498.974C128.103 449.864 73.6145 379.259 44.3265 297.279C3.76595 188.068 -1.71205 102.984 0.385907 0.475708C133.431 0.767091 266.535 0.475708 399.639 0.475708Z" fill="#0085CA"/>
<path d="M42.8699 0.475708C42.8699 20.0567 42.8699 38.7052 37.9164 49.0784C34.2525 56.416 29.0419 62.8724 22.6435 68.0032C16.2451 73.134 8.81084 76.8173 0.852478 78.7995C0.852478 93.1355 2.89216 112.25 4.2908 128.509C8.03883 136.183 13.4436 142.929 20.1152 148.26C26.7867 153.591 34.5586 157.375 42.8699 159.338C42.8699 177.695 42.8699 195.178 37.9164 204.91C34.1278 212.07 28.888 218.362 22.5314 223.384L21.3659 224.258C29.3774 254.882 39.3039 284.973 51.0869 314.354C59.5058 312.385 67.3726 308.544 74.1023 303.116C80.832 297.688 86.2514 290.812 89.9574 283.001C94.9109 272.628 94.911 253.862 94.911 234.34C86.6612 232.651 78.8851 229.165 72.1363 224.128C65.3876 219.092 59.8322 212.63 55.8656 205.201C50.9121 195.469 50.9121 177.986 50.9121 159.629C59.3524 157.621 67.2378 153.754 73.9929 148.309C80.7479 142.865 86.2021 135.981 89.9574 128.16C94.9109 117.787 94.911 99.0215 94.911 79.5571C86.5501 77.7892 78.6964 74.1562 71.9356 68.9292C65.1749 63.7023 59.6816 57.0162 55.8656 49.3698C50.9121 38.9966 50.9121 20.2315 50.9121 0.767091" fill="white"/>
<path d="M357.097 0.475708C357.097 20.0567 357.097 38.7052 362.051 49.0784C365.715 56.416 370.925 62.8724 377.324 68.0032C383.722 73.134 391.156 76.8173 399.115 78.7995C399.115 93.1355 397.075 112.25 395.735 128.509C391.947 136.166 386.523 142.896 379.846 148.223C373.169 153.55 365.403 157.345 357.097 159.338C357.097 177.695 357.097 195.178 362.051 204.91C365.839 212.07 371.079 218.362 377.436 223.384L378.601 224.258C370.59 254.882 360.663 284.973 348.88 314.354C340.461 312.385 332.594 308.544 325.865 303.116C319.135 297.688 313.716 290.812 310.01 283.001C305.056 272.628 305.056 253.862 305.056 234.34C313.306 232.651 321.082 229.165 327.831 224.128C334.58 219.092 340.135 212.63 344.101 205.201C349.055 195.469 349.055 177.986 349.055 159.629C340.615 157.621 332.729 153.754 325.974 148.309C319.219 142.865 313.765 135.981 310.01 128.16C305.056 117.787 305.056 99.0215 305.056 79.5571C313.417 77.7892 321.271 74.1562 328.031 68.9292C334.792 63.7023 340.286 57.0162 344.101 49.3698C349.055 38.9966 349.055 20.2315 349.055 0.767091" fill="white"/>
<path d="M254.997 0.475708C254.997 20.0567 254.997 38.7052 260.009 49.0784C263.825 56.7248 269.318 63.4109 276.079 68.6378C282.84 73.8648 290.693 77.4978 299.054 79.2657C299.054 98.8466 299.054 117.495 294.101 127.868C290.339 135.696 284.876 142.584 278.111 148.029C271.345 153.474 263.448 157.337 254.997 159.338C254.997 177.695 254.997 195.178 260.009 204.91C263.975 212.338 269.531 218.801 276.28 223.837C283.028 228.873 290.804 232.36 299.054 234.048C299.054 253.629 299.054 272.336 294.101 282.709C290.333 290.526 284.866 297.403 278.101 302.837C271.336 308.271 263.442 312.126 254.997 314.121C254.997 332.478 254.997 349.961 260.009 359.693C263.965 367.164 269.512 373.676 276.258 378.771C283.004 383.866 290.786 387.419 299.054 389.181C302.013 389.824 305.011 390.272 308.029 390.521C288.875 419.103 266.026 445.027 240.078 467.621L238.913 467.271C225.303 461.726 214.22 451.35 207.793 438.133C202.839 427.76 202.839 408.995 202.839 389.53C211.12 387.8 218.915 384.258 225.665 379.16C232.416 374.062 237.954 367.533 241.885 360.042C246.838 350.31 246.838 332.827 246.838 314.47C238.404 312.468 230.522 308.61 223.767 303.176C217.012 297.742 211.555 290.869 207.793 283.059C202.839 272.686 202.839 253.921 202.839 234.398C211.089 232.71 218.865 229.223 225.614 224.187C232.363 219.15 237.918 212.688 241.885 205.26C246.838 195.528 246.838 178.045 246.838 159.687C238.398 157.679 230.513 153.812 223.758 148.367C217.002 142.923 211.548 136.039 207.793 128.218C202.839 117.845 202.839 99.0798 202.839 79.6154C211.2 77.8474 219.054 74.2145 225.815 68.9875C232.576 63.7605 238.069 57.0745 241.885 49.4281C246.838 39.0548 246.838 20.2898 246.838 0.825368" fill="white"/>
<path d="M144.971 0.475708C144.971 20.0567 144.971 38.7052 139.959 49.0784C136.15 56.7299 130.659 63.4202 123.897 68.6481C117.135 73.8759 109.277 77.5058 100.913 79.2657C100.913 98.8466 100.913 117.495 105.867 127.868C109.628 135.696 115.091 142.584 121.857 148.029C128.623 153.474 136.52 157.337 144.971 159.338C144.971 177.695 144.971 195.178 139.959 204.91C135.999 212.343 130.445 218.81 123.695 223.847C116.946 228.884 109.166 232.367 100.913 234.048C100.913 253.629 100.913 272.336 105.867 282.709C109.635 290.526 115.101 297.403 121.867 302.837C128.632 308.271 136.525 312.126 144.971 314.121C144.971 332.478 144.971 349.961 139.959 359.693C136.003 367.164 130.456 373.676 123.71 378.771C116.963 383.866 109.182 387.419 100.913 389.181C97.9553 389.828 94.957 390.276 91.9388 390.521C111.093 419.103 133.941 445.027 159.889 467.621L160.88 467.271C174.49 461.726 185.573 451.35 192 438.133C197.012 427.76 197.012 408.995 197.012 389.53C188.721 387.807 180.914 384.27 174.153 379.171C167.392 374.073 161.844 367.54 157.908 360.042C152.954 350.31 152.954 332.827 152.954 314.47C161.442 312.508 169.382 308.667 176.189 303.231C182.997 297.795 188.499 290.902 192.291 283.059C197.303 272.686 197.303 253.921 197.303 234.398C189.043 232.717 181.255 229.234 174.496 224.198C167.736 219.161 162.172 212.695 158.199 205.26C153.246 195.528 153.246 178.045 153.246 159.687C161.686 157.679 169.572 153.812 176.327 148.367C183.082 142.923 188.536 136.039 192.291 128.218C197.303 117.845 197.303 99.0798 197.303 79.6154C188.851 77.8646 180.91 74.2094 174.084 68.928C167.257 63.6465 161.725 56.8778 157.908 49.1367C152.954 38.7635 152.954 19.9984 152.954 0.533985" fill="white"/>
<path d="M354.06 296.754L354.056 296.764L354.053 296.775C325.032 378.11 271.118 448.222 199.983 497.155C128.783 448.249 74.8054 378.134 45.739 296.774L45.7359 296.765L45.7326 296.756C5.45663 188.312 -0.156981 103.728 1.85596 1.97891C90.0621 2.16924 178.296 2.10485 266.535 2.04046C310.412 2.00844 354.291 1.97642 398.168 1.97572C400.124 103.728 394.567 188.31 354.06 296.754Z" stroke="#0085CA" stroke-width="3"/>
</g>
<defs>
<clipPath id="clip0">
<rect y="0.475708" width="400" height="498.5" fill="white"/>
</clipPath>
</defs>
</svg>
