<svg width="400" height="423" viewBox="0 0 400 423" fill="none" xmlns="http://www.w3.org/2000/svg">
<g clip-path="url(#clip0)">
<path d="M387.739 0.475708L399.694 224.263C402.143 270.931 390.764 317.792 338.766 346.455L200.009 422.268L61.2526 346.455C9.11081 317.984 -2.17218 270.931 0.324477 224.263L12.2316 0.475708H387.739Z" fill="#0085CA"/>
<path d="M111.762 90.5956L268.86 237.707L281.871 219.174C282.735 217.973 293.442 227.816 291.81 229.881L274.957 248.798L298.964 270.451L301.172 268.579C303.045 266.946 304.341 267.522 305.589 269.059C307.554 271.623 308.541 274.802 308.374 278.028C308.207 281.254 306.896 284.314 304.676 286.661C302.457 289.008 299.474 290.487 296.263 290.833C293.051 291.18 289.822 290.371 287.153 288.552C286.746 288.374 286.389 288.098 286.115 287.749C285.841 287.399 285.658 286.987 285.582 286.55C285.506 286.112 285.539 285.663 285.679 285.241C285.819 284.82 286.062 284.44 286.384 284.135L288.161 281.83L265.211 260.945L247.302 278.95C245.477 280.822 234.867 270.643 236.019 269.683L253.736 255.567L97.4542 107.592C91.2949 100.852 87.9754 91.9938 88.1878 82.8655C92.4349 82.5049 96.7112 83.0034 100.762 84.3315C104.812 85.6596 108.553 87.79 111.762 90.5956Z" fill="#FFE000"/>
<path d="M294.546 291.337C291.807 291.302 289.143 290.431 286.912 288.84C286.493 288.624 286.129 288.314 285.849 287.935C285.568 287.556 285.379 287.117 285.295 286.653C285.212 286.188 285.236 285.711 285.367 285.258C285.497 284.805 285.731 284.387 286.048 284.039L287.585 282.022L265.211 261.665L247.59 279.382C247.327 279.533 247.029 279.613 246.726 279.613C246.422 279.613 246.124 279.533 245.862 279.382C241.604 277.189 238.033 273.867 235.539 269.779C235.46 269.666 235.418 269.532 235.418 269.395C235.418 269.258 235.46 269.124 235.539 269.011L252.871 255.183L97.1661 107.928C90.8765 101.11 87.4399 92.1405 87.5636 82.8654V82.4813H87.9477C92.2744 82.0916 96.635 82.589 100.763 83.9429C104.891 85.2968 108.699 87.4788 111.954 90.3554L268.86 237.082L281.631 218.934C281.707 218.817 281.816 218.727 281.945 218.675C282.074 218.624 282.216 218.613 282.351 218.645C286.454 220.895 289.872 224.213 292.242 228.248C292.411 228.531 292.5 228.855 292.5 229.184C292.5 229.514 292.411 229.838 292.242 230.12L275.629 248.797L298.964 269.923L300.884 268.243C301.215 267.891 301.618 267.614 302.065 267.432C302.513 267.249 302.994 267.166 303.477 267.186C303.973 267.282 304.445 267.475 304.866 267.755C305.286 268.036 305.647 268.397 305.926 268.819C308.007 271.395 309.048 274.658 308.843 277.964C308.639 281.27 307.204 284.379 304.821 286.679C303.521 288.12 301.937 289.278 300.169 290.079C298.401 290.88 296.487 291.309 294.546 291.337ZM265.211 260.272L265.499 260.561L288.737 281.734L286.72 284.375C286.469 284.644 286.275 284.961 286.151 285.308C286.027 285.655 285.976 286.024 286 286.391C286.224 287.126 286.723 287.745 287.393 288.12C289.967 289.81 293.054 290.541 296.113 290.182C299.172 289.824 302.007 288.4 304.121 286.16C306.234 283.92 307.492 281.008 307.673 277.933C307.854 274.859 306.946 271.819 305.109 269.347C304.909 269.018 304.644 268.734 304.331 268.511C304.017 268.288 303.661 268.131 303.285 268.051C302.917 268.033 302.549 268.097 302.209 268.238C301.869 268.379 301.564 268.594 301.316 268.867L298.82 271.027L274.285 248.845L291.474 229.64C291.474 229.64 291.474 228.824 291.09 228.104C288.817 224.583 285.74 221.654 282.111 219.558L268.86 238.379L268.476 238.043L111.474 90.9316C108.369 88.1926 104.747 86.1021 100.823 84.7828C96.8979 83.4636 92.749 82.9423 88.6199 83.2495C88.5091 92.1185 91.7696 100.699 97.7423 107.256L254.456 255.471L236.403 269.875C238.782 273.396 241.957 276.307 245.67 278.373C246.342 278.661 246.87 278.757 247.062 278.373L265.211 260.272Z" fill="#FFE000"/>
<path d="M193.576 70.5744L314.136 183.548L322.49 170.969C323.114 170.009 331.468 177.691 330.124 179.179L318.841 192.095L336.078 208.707L337.758 207.219C339.198 206.018 340.207 206.45 341.167 207.651C342.642 209.605 343.378 212.018 343.245 214.463C343.112 216.908 342.118 219.227 340.439 221.01C338.76 222.792 336.505 223.923 334.072 224.202C331.639 224.481 329.186 223.891 327.147 222.535C325.851 221.671 325.371 220.662 326.523 219.174L327.867 217.397L310.247 201.313L298.148 213.508C296.755 214.901 288.545 207.075 289.505 206.354L301.316 197.328L181.285 83.7779C176.52 78.537 173.973 71.6529 174.179 64.5728C181.101 64.0775 187.956 66.2026 193.384 70.5264L193.576 70.5744Z" fill="#FFE000"/>
<path d="M332.621 224.839C330.511 224.806 328.465 224.118 326.763 222.871C326.413 222.679 326.105 222.418 325.858 222.105C325.61 221.791 325.428 221.431 325.323 221.046C325.294 220.664 325.342 220.279 325.466 219.916C325.59 219.553 325.786 219.219 326.043 218.934L327.147 217.445L310.151 202.129L298.34 213.988C298.124 214.125 297.875 214.198 297.619 214.198C297.364 214.198 297.115 214.125 296.899 213.988C293.635 212.407 290.863 209.967 288.881 206.931C288.826 206.827 288.798 206.712 288.798 206.594C288.798 206.477 288.826 206.362 288.881 206.258L300.692 197.328L180.997 83.9219C176.21 78.6848 173.615 71.8107 173.747 64.7168V64.3327H174.131C181.248 63.7506 188.316 65.9346 193.864 70.4303L314.088 182.924L322.154 170.729C322.22 170.629 322.316 170.552 322.428 170.509C322.54 170.466 322.662 170.459 322.778 170.489C326.036 172.253 328.732 174.898 330.556 178.123C330.692 178.347 330.763 178.605 330.763 178.867C330.763 179.129 330.692 179.387 330.556 179.611L319.513 192.191L336.078 208.131L337.47 206.931C338.017 206.38 338.759 206.07 339.535 206.066C340.335 206.224 341.042 206.69 341.503 207.363C343.134 209.387 343.936 211.954 343.749 214.547C343.562 217.14 342.399 219.565 340.495 221.334C339.486 222.419 338.269 223.288 336.916 223.891C335.562 224.493 334.102 224.816 332.621 224.839ZM310.103 200.833L328.3 217.445L326.715 219.51C326.527 219.706 326.382 219.941 326.291 220.197C326.2 220.454 326.165 220.727 326.187 220.998C326.187 221.43 326.571 221.862 327.243 222.295C329.213 223.603 331.583 224.169 333.932 223.894C336.28 223.618 338.455 222.518 340.068 220.789C341.682 219.06 342.63 216.815 342.743 214.453C342.856 212.091 342.127 209.766 340.687 207.891C340.539 207.649 340.343 207.439 340.112 207.274C339.881 207.109 339.62 206.992 339.343 206.931C339.072 206.924 338.802 206.977 338.554 207.084C338.305 207.192 338.083 207.353 337.902 207.555L335.886 209.283L318.265 192.095L329.836 178.891C329.836 178.891 329.836 178.603 329.836 178.171C328.071 175.396 325.709 173.05 322.922 171.305L314.376 184.22L193.288 70.9104C188.005 66.6688 181.323 64.5616 174.563 65.0049C174.516 71.767 177.019 78.2986 181.573 83.2977L301.989 197.328L289.745 206.931C291.617 209.633 294.101 211.854 296.995 213.412C297.475 213.412 297.667 213.412 297.715 213.412L310.103 200.833Z" fill="#FFE000"/>
<path d="M90.9246 177.163L213.213 291.817L221.567 279.238C222.239 278.278 230.546 285.96 229.201 287.448L217.918 300.364L235.251 316.976L236.931 315.536C238.372 314.287 239.38 314.719 240.34 315.92C241.776 317.881 242.481 320.283 242.333 322.709C242.185 325.135 241.193 327.433 239.529 329.206C237.865 330.978 235.634 332.112 233.222 332.413C230.81 332.713 228.368 332.161 226.321 330.852C225.024 329.939 224.544 328.979 225.696 327.443L227.089 325.666L209.42 309.63L197.321 321.777C195.928 323.218 187.718 315.343 188.679 314.671L200.634 305.453L78.9215 190.222C74.1394 184.989 71.5747 178.104 71.7676 171.017C78.6939 170.483 85.5629 172.613 90.9727 176.971L90.9246 177.163Z" fill="#FFE000"/>
<path d="M231.698 333.108C229.593 333.095 227.545 332.424 225.84 331.188C225.487 330.995 225.179 330.727 224.939 330.404C224.698 330.081 224.531 329.709 224.448 329.315C224.397 328.935 224.431 328.549 224.547 328.183C224.663 327.818 224.859 327.483 225.12 327.203L226.273 325.714L209.228 310.206L197.417 322.161C197.202 322.298 196.952 322.37 196.697 322.37C196.442 322.37 196.192 322.298 195.976 322.161C192.682 320.514 189.907 317.989 187.958 314.863C187.928 314.747 187.936 314.625 187.979 314.513C188.022 314.401 188.098 314.305 188.198 314.239L199.77 305.357L78.3453 190.51C73.5962 185.25 71.0071 178.391 71.0954 171.305V170.921H71.4795C78.5787 170.289 85.6479 172.421 91.2127 176.875L213.165 291.193L221.231 278.95C221.324 278.89 221.433 278.858 221.543 278.858C221.654 278.858 221.762 278.89 221.855 278.95C225.111 280.651 227.81 283.251 229.633 286.44C229.769 286.664 229.841 286.922 229.841 287.184C229.841 287.446 229.769 287.703 229.633 287.928L218.59 300.507L235.251 316.4L236.691 315.199C236.954 314.919 237.275 314.7 237.632 314.559C237.989 314.418 238.373 314.358 238.756 314.383C239.15 314.449 239.526 314.598 239.857 314.822C240.189 315.046 240.468 315.338 240.676 315.679C242.289 317.671 243.1 320.193 242.949 322.751C242.798 325.31 241.696 327.719 239.86 329.507C238.819 330.635 237.558 331.537 236.154 332.156C234.749 332.776 233.233 333.1 231.698 333.108ZM209.18 309.102L227.377 325.666L225.792 327.779C225.438 328.173 225.249 328.689 225.264 329.219C225.264 329.651 225.696 330.083 226.321 330.515C228.283 331.911 230.685 332.547 233.082 332.305C235.478 332.063 237.704 330.959 239.347 329.198C240.991 327.438 241.939 325.14 242.015 322.733C242.092 320.326 241.292 317.973 239.764 316.112C239.466 315.611 238.983 315.249 238.42 315.103C238.146 315.109 237.877 315.172 237.629 315.288C237.381 315.403 237.16 315.569 236.979 315.775L234.963 317.456L217.342 300.267L228.913 287.064C228.913 287.064 228.913 286.824 228.913 286.344C227.189 283.549 224.818 281.211 221.999 279.526L213.453 292.393L213.069 292.057L90.6366 177.499C85.3874 173.263 78.7382 171.155 72.0076 171.593C71.9721 178.368 74.4727 184.91 79.0175 189.934L201.066 305.501L188.823 315.103C190.682 317.817 193.169 320.04 196.073 321.585C196.553 321.585 196.745 321.585 196.793 321.585L209.18 309.102Z" fill="#FFE000"/>
<path d="M91.2126 339.109C93.3098 336.221 95.6381 333.507 98.1744 330.995C96.801 331.977 95.2103 332.612 93.5382 332.846C91.8661 333.081 90.1622 332.907 88.5719 332.34C87.3865 331.829 86.3576 331.014 85.5901 329.977C84.8225 328.939 84.3438 327.717 84.2027 326.434C83.5786 321.633 87.9477 315.487 93.5172 317.792C92.3169 320.384 91.9808 322.593 94.2854 323.745C95.6051 324.291 97.0484 324.468 98.4608 324.256C99.8732 324.045 101.202 323.453 102.304 322.545C104.418 320.996 106.198 319.036 107.537 316.783C108.57 315.25 109.185 313.473 109.319 311.628C109.454 309.784 109.104 307.936 108.305 306.269C109.482 306.075 110.689 306.242 111.769 306.748C112.849 307.253 113.75 308.074 114.355 309.101C115.555 306.797 119.156 306.797 119.156 306.797C119.156 306.797 120.884 309.966 119.444 312.126C120.639 312.162 121.796 312.556 122.764 313.259C123.731 313.961 124.465 314.938 124.87 316.063C123.023 316.149 121.234 316.729 119.688 317.743C118.143 318.756 116.898 320.166 116.083 321.825C114.706 324.075 113.838 326.598 113.538 329.219C113.295 330.621 113.429 332.063 113.927 333.396C114.425 334.729 115.268 335.906 116.371 336.805C118.532 338.197 120.26 336.805 121.941 334.548C126.742 338.341 123.381 345.159 118.916 346.936C117.723 347.432 116.419 347.604 115.138 347.435C113.857 347.267 112.642 346.763 111.618 345.975C110.345 344.847 109.363 343.429 108.753 341.842C108.143 340.254 107.923 338.543 108.113 336.853C107.185 340.302 105.948 343.661 104.416 346.888C103.11 349.185 101.171 351.058 98.8297 352.284C96.4887 353.509 93.8446 354.036 91.2126 353.801C89.8212 351.604 89.0824 349.056 89.0824 346.455C89.0824 343.854 89.8212 341.307 91.2126 339.109Z" fill="#FFE000"/>
<path d="M373.815 139.328C370.246 139.661 366.711 140.304 363.253 141.249C366.326 139.377 369.254 136.928 369.35 133.567C369.518 132.284 369.339 130.98 368.832 129.79C368.326 128.599 367.51 127.566 366.47 126.797C362.677 123.868 355.139 124.445 354.274 130.494C357.155 130.734 359.076 131.55 359.076 134.143C358.852 135.552 358.259 136.877 357.356 137.982C356.454 139.087 355.274 139.932 353.938 140.433C351.536 141.499 348.933 142.039 346.304 142.017C344.419 142.159 342.531 141.787 340.84 140.942C339.15 140.096 337.719 138.809 336.702 137.216C335.906 138.139 335.419 139.288 335.307 140.501C335.195 141.714 335.464 142.933 336.077 143.986C333.485 143.986 331.66 147.011 331.66 147.011C331.66 147.011 333.485 150.131 336.077 149.987C335.499 151.037 335.254 152.237 335.374 153.429C335.494 154.621 335.974 155.748 336.75 156.661C337.752 155.053 339.179 153.754 340.874 152.907C342.569 152.059 344.465 151.697 346.352 151.86C348.979 151.798 351.587 152.323 353.986 153.396C355.326 153.905 356.507 154.759 357.409 155.872C358.312 156.986 358.903 158.318 359.124 159.734C359.124 162.279 357.203 163.095 354.322 163.383C355.187 169.384 362.725 170.009 366.518 167.032C367.558 166.263 368.374 165.23 368.88 164.04C369.387 162.849 369.566 161.545 369.398 160.262C369.087 158.587 368.368 157.013 367.305 155.682C366.241 154.35 364.866 153.302 363.301 152.628C366.765 153.54 370.297 154.166 373.864 154.501C376.46 154.543 379.016 153.849 381.234 152.498C383.452 151.146 385.242 149.194 386.395 146.866C385.253 144.527 383.468 142.561 381.248 141.2C379.028 139.839 376.467 139.14 373.864 139.184L373.815 139.328Z" fill="#FFE000"/>
<path d="M361.14 169.336C360.021 169.348 358.911 169.136 357.875 168.712C356.823 168.316 355.897 167.643 355.195 166.764C354.494 165.885 354.043 164.833 353.89 163.719C353.868 163.666 353.856 163.609 353.856 163.551C353.856 163.493 353.868 163.436 353.89 163.383C353.943 163.36 354.001 163.349 354.058 163.349C354.116 163.349 354.173 163.36 354.226 163.383C357.395 163.047 358.691 162.134 358.595 160.166C358.376 158.844 357.818 157.601 356.977 156.558C356.136 155.515 355.04 154.707 353.794 154.212H353.458C351.183 153.238 348.731 152.748 346.256 152.772C344.473 152.603 342.679 152.936 341.075 153.734C339.472 154.531 338.123 155.762 337.182 157.285C337.092 157.373 336.971 157.422 336.846 157.422C336.72 157.422 336.599 157.373 336.51 157.285C335.781 156.382 335.301 155.305 335.116 154.16C334.93 153.015 335.047 151.842 335.453 150.755C333.737 150.262 332.276 149.127 331.372 147.587C331.321 147.526 331.294 147.45 331.294 147.371C331.294 147.291 331.321 147.215 331.372 147.154C332.29 145.627 333.746 144.497 335.453 143.986C335.046 142.907 334.929 141.741 335.115 140.604C335.3 139.466 335.781 138.397 336.51 137.504C336.543 137.444 336.591 137.394 336.651 137.359C336.71 137.324 336.777 137.306 336.846 137.306C336.914 137.306 336.982 137.324 337.041 137.359C337.1 137.394 337.149 137.444 337.182 137.504C338.144 138.97 339.477 140.155 341.046 140.939C342.614 141.724 344.362 142.079 346.112 141.969C348.587 141.993 351.039 141.503 353.314 140.529H353.65C354.895 140.034 355.992 139.226 356.833 138.183C357.674 137.14 358.232 135.897 358.451 134.575C358.451 132.607 357.251 131.694 354.082 131.358C354.029 131.381 353.972 131.392 353.914 131.392C353.856 131.392 353.799 131.381 353.746 131.358C353.721 131.306 353.707 131.248 353.707 131.19C353.707 131.132 353.721 131.075 353.746 131.022C353.778 129.765 354.19 128.546 354.927 127.527C355.664 126.507 356.691 125.734 357.875 125.309C359.342 124.771 360.917 124.6 362.465 124.809C364.013 125.018 365.486 125.602 366.758 126.509C367.823 127.335 368.654 128.426 369.168 129.672C369.681 130.919 369.86 132.278 369.686 133.615C369.52 135.001 369.034 136.329 368.268 137.495C367.501 138.661 366.475 139.634 365.269 140.337L367.094 139.953C369.25 139.404 371.452 139.05 373.671 138.896C376.351 138.842 378.989 139.555 381.278 140.95C383.566 142.345 385.408 144.364 386.587 146.77C386.63 146.834 386.653 146.909 386.653 146.986C386.653 147.063 386.63 147.139 386.587 147.202C385.408 149.609 383.566 151.628 381.278 153.023C378.989 154.418 376.351 155.131 373.671 155.077C371.484 154.971 369.313 154.649 367.19 154.116L365.365 153.732C366.547 154.441 367.551 155.411 368.3 156.568C369.049 157.725 369.523 159.038 369.686 160.406C369.854 161.752 369.663 163.119 369.132 164.367C368.601 165.615 367.748 166.7 366.662 167.512C365.065 168.697 363.129 169.336 361.14 169.336ZM354.802 163.719C354.964 164.631 355.358 165.486 355.947 166.201C356.536 166.916 357.299 167.467 358.163 167.8C359.496 168.284 360.928 168.437 362.333 168.245C363.738 168.052 365.076 167.521 366.229 166.696C367.209 165.957 367.977 164.973 368.457 163.844C368.937 162.715 369.113 161.48 368.966 160.262C368.966 157.669 366.902 155.461 363.061 152.964C363.006 152.896 362.976 152.811 362.976 152.724C362.976 152.637 363.006 152.552 363.061 152.484C363.1 152.392 363.168 152.314 363.254 152.263C363.34 152.211 363.441 152.188 363.541 152.196L367.574 153.06C369.679 153.614 371.834 153.951 374.008 154.068C376.483 154.119 378.923 153.47 381.047 152.196C383.17 150.922 384.891 149.075 386.011 146.866C384.865 144.641 383.111 142.786 380.951 141.52C378.792 140.253 376.317 139.626 373.815 139.712C371.642 139.829 369.487 140.167 367.382 140.721L363.349 141.585C363.278 141.632 363.194 141.658 363.109 141.658C363.023 141.658 362.94 141.632 362.869 141.585C362.81 141.509 362.778 141.416 362.778 141.321C362.778 141.225 362.81 141.132 362.869 141.057C366.71 138.752 368.678 136.256 368.774 133.759C368.921 132.541 368.745 131.306 368.265 130.177C367.785 129.048 367.017 128.064 366.037 127.325C364.885 126.497 363.545 125.967 362.137 125.782C360.73 125.598 359.298 125.765 357.971 126.269C357.108 126.59 356.344 127.131 355.754 127.838C355.165 128.546 354.77 129.395 354.61 130.302C356.963 130.59 359.412 131.358 359.412 134.335C359.2 135.835 358.589 137.25 357.643 138.432C356.697 139.615 355.451 140.521 354.034 141.057H353.746C351.378 142.061 348.828 142.568 346.256 142.545C344.417 142.685 342.573 142.358 340.894 141.594C339.215 140.83 337.757 139.654 336.654 138.176C336.075 138.995 335.737 139.96 335.677 140.961C335.618 141.962 335.84 142.96 336.318 143.842C336.352 143.917 336.37 143.999 336.37 144.082C336.37 144.165 336.352 144.246 336.318 144.322C336.264 144.413 336.178 144.481 336.077 144.514C334.157 144.514 332.621 146.434 332.14 147.106C332.621 147.779 334.109 149.747 336.077 149.651C336.156 149.656 336.233 149.681 336.3 149.723C336.367 149.765 336.422 149.823 336.462 149.891C336.495 149.958 336.513 150.032 336.513 150.107C336.513 150.182 336.495 150.256 336.462 150.323C335.984 151.205 335.762 152.203 335.821 153.204C335.881 154.205 336.219 155.17 336.798 155.989C337.894 154.506 339.352 153.329 341.034 152.573C342.716 151.816 344.563 151.504 346.4 151.668C348.971 151.606 351.525 152.097 353.89 153.108H354.178C355.597 153.627 356.847 154.522 357.794 155.698C358.742 156.874 359.351 158.286 359.556 159.782C359.604 162.807 357.155 163.719 354.802 163.719Z" fill="#FFE000"/>
<path d="M192.327 390.723C192.661 387.169 193.304 383.651 194.248 380.208C193.552 381.768 192.491 383.136 191.154 384.198C189.816 385.259 188.242 385.983 186.566 386.306C185.284 386.463 183.983 386.28 182.794 385.774C181.606 385.268 180.571 384.458 179.796 383.425C176.867 379.632 177.443 372.046 183.493 371.23C183.733 374.063 184.549 376.031 187.142 376.031C188.551 375.826 189.879 375.246 190.985 374.35C192.092 373.454 192.937 372.277 193.432 370.942C194.498 368.539 195.038 365.936 195.016 363.308C195.147 361.424 194.771 359.54 193.926 357.851C193.082 356.162 191.8 354.731 190.215 353.705C191.136 352.956 192.262 352.505 193.445 352.41C194.629 352.316 195.813 352.583 196.84 353.177C196.84 350.584 199.865 348.712 199.865 348.712C199.865 348.712 202.986 350.584 202.842 353.177C203.887 352.592 205.084 352.339 206.276 352.451C207.468 352.562 208.598 353.033 209.516 353.801C207.916 354.811 206.622 356.24 205.776 357.933C204.93 359.626 204.563 361.517 204.715 363.404C204.734 365.997 205.324 368.554 206.443 370.894C206.937 372.229 207.782 373.406 208.889 374.302C209.996 375.198 211.324 375.778 212.733 375.983C215.325 375.983 216.142 374.063 216.43 371.182C222.431 371.998 223.007 379.584 220.079 383.377C219.303 384.41 218.269 385.22 217.08 385.726C215.892 386.232 214.591 386.415 213.309 386.258C211.636 385.939 210.067 385.217 208.737 384.154C207.406 383.092 206.355 381.721 205.675 380.16C206.585 383.608 207.212 387.125 207.547 390.675C207.596 393.273 206.904 395.831 205.552 398.05C204.2 400.27 202.244 402.058 199.913 403.206C197.57 402.07 195.601 400.285 194.239 398.064C192.878 395.844 192.181 393.279 192.231 390.675L192.327 390.723Z" fill="#FFE000"/>
<path d="M200.009 403.783C197.562 402.607 195.508 400.748 194.094 398.431C192.68 396.114 191.966 393.437 192.039 390.723C192.19 388.503 192.543 386.301 193.095 384.145C193.095 383.569 193.336 382.993 193.48 382.321C192.777 383.527 191.804 384.553 190.638 385.32C189.472 386.086 188.143 386.572 186.758 386.738C185.401 386.89 184.029 386.686 182.774 386.148C181.52 385.609 180.428 384.754 179.604 383.665C178.704 382.428 178.112 380.995 177.879 379.483C177.645 377.971 177.775 376.426 178.26 374.975C178.676 373.909 179.374 372.975 180.278 372.273C181.183 371.572 182.261 371.128 183.397 370.99H183.733C183.766 371.083 183.766 371.185 183.733 371.278C184.069 374.495 184.981 375.743 186.95 375.647C188.279 375.446 189.53 374.895 190.576 374.052C191.622 373.208 192.425 372.102 192.903 370.846V370.51C193.882 368.253 194.372 365.815 194.344 363.356C194.485 361.581 194.145 359.802 193.359 358.205C192.573 356.608 191.371 355.252 189.879 354.281C189.856 354.228 189.845 354.171 189.845 354.113C189.845 354.056 189.856 353.999 189.879 353.945C189.83 353.822 189.83 353.685 189.879 353.561C190.82 352.746 191.972 352.21 193.202 352.015C194.432 351.82 195.693 351.973 196.84 352.457C197.334 350.74 198.469 349.279 200.009 348.376C200.07 348.325 200.146 348.297 200.225 348.297C200.304 348.297 200.381 348.325 200.441 348.376C201.996 349.264 203.135 350.731 203.61 352.457C204.693 352.044 205.864 351.92 207.009 352.096C208.154 352.273 209.233 352.745 210.14 353.465C210.188 353.589 210.188 353.726 210.14 353.849C210.177 353.958 210.177 354.076 210.14 354.185C208.639 355.15 207.427 356.503 206.633 358.101C205.838 359.698 205.491 361.481 205.627 363.26C205.603 365.734 206.093 368.187 207.067 370.462V370.75C207.545 372.006 208.349 373.112 209.395 373.956C210.441 374.799 211.692 375.35 213.021 375.551C214.989 375.551 215.902 374.399 216.238 371.182C216.205 371.089 216.205 370.987 216.238 370.894H216.574C217.71 371.032 218.788 371.476 219.692 372.177C220.597 372.879 221.295 373.813 221.711 374.879C222.274 376.341 222.459 377.921 222.25 379.474C222.04 381.027 221.442 382.501 220.511 383.761C219.694 384.846 218.61 385.699 217.364 386.238C216.119 386.777 214.754 386.982 213.405 386.834C211.968 386.693 210.586 386.21 209.375 385.425C208.163 384.639 207.158 383.575 206.443 382.321C206.443 382.993 206.731 383.569 206.827 384.145C207.403 386.296 207.757 388.5 207.883 390.723C207.983 393.406 207.312 396.061 205.951 398.375C204.59 400.689 202.595 402.566 200.201 403.783H200.009ZM192.759 390.867C192.719 393.347 193.377 395.788 194.659 397.911C195.941 400.034 197.796 401.752 200.009 402.87C202.218 401.75 204.065 400.03 205.339 397.906C206.613 395.783 207.262 393.343 207.211 390.867C207.163 388.75 206.906 386.644 206.443 384.577C206.203 383.473 205.915 382.177 205.579 380.544C205.524 380.476 205.495 380.392 205.495 380.304C205.495 380.217 205.524 380.132 205.579 380.064C205.654 380.006 205.747 379.974 205.843 379.974C205.938 379.974 206.031 380.006 206.107 380.064C208.46 383.953 210.908 385.874 213.405 385.97C214.62 386.137 215.857 385.976 216.988 385.503C218.12 385.03 219.104 384.263 219.839 383.281C220.684 382.09 221.219 380.706 221.395 379.256C221.571 377.805 221.383 376.334 220.847 374.975C220.516 374.104 219.967 373.333 219.253 372.736C218.538 372.139 217.681 371.736 216.766 371.566C216.526 373.919 215.709 376.367 212.733 376.367C211.24 376.152 209.833 375.54 208.659 374.594C207.484 373.647 206.586 372.403 206.059 370.99V370.654C205.045 368.307 204.553 365.768 204.619 363.212C204.455 361.375 204.767 359.527 205.524 357.846C206.28 356.164 207.457 354.705 208.94 353.609C208.13 353.009 207.163 352.657 206.157 352.597C205.151 352.538 204.149 352.773 203.274 353.273C203.214 353.324 203.137 353.352 203.058 353.352C202.979 353.352 202.903 353.324 202.842 353.273C202.77 353.238 202.71 353.183 202.668 353.115C202.625 353.047 202.603 352.969 202.602 352.889C202.602 350.969 200.729 349.432 200.057 349C199.385 349.432 197.369 350.969 197.465 352.889C197.491 352.95 197.505 353.015 197.505 353.081C197.505 353.147 197.491 353.213 197.465 353.273C197.394 353.321 197.31 353.346 197.225 353.346C197.139 353.346 197.056 353.321 196.985 353.273C196.11 352.773 195.108 352.538 194.102 352.597C193.095 352.657 192.128 353.009 191.319 353.609C192.802 354.705 193.978 356.164 194.735 357.846C195.492 359.527 195.804 361.375 195.64 363.212C195.706 365.768 195.214 368.307 194.2 370.654V370.99C193.643 372.442 192.7 373.715 191.473 374.671C190.247 375.627 188.782 376.23 187.238 376.415C184.261 376.415 183.493 374.063 183.205 371.614C182.294 371.783 181.444 372.186 180.736 372.784C180.029 373.382 179.49 374.153 179.172 375.023C178.672 376.351 178.507 377.781 178.692 379.188C178.876 380.595 179.403 381.935 180.228 383.089C180.969 384.063 181.954 384.825 183.084 385.297C184.214 385.769 185.448 385.935 186.662 385.778C189.254 385.778 191.463 383.761 193.96 379.872C194.035 379.814 194.128 379.782 194.224 379.782C194.319 379.782 194.412 379.814 194.488 379.872C194.542 379.94 194.572 380.025 194.572 380.112C194.572 380.2 194.542 380.284 194.488 380.352C194.152 381.985 193.864 383.281 193.624 384.385C193.07 386.49 192.732 388.646 192.615 390.819L192.759 390.867Z" fill="#FFE000"/>
<path d="M308.806 339.158C306.697 336.279 304.369 333.566 301.845 331.043C303.208 332.045 304.798 332.695 306.472 332.938C308.147 333.181 309.855 333.008 311.447 332.436C312.63 331.921 313.656 331.105 314.423 330.068C315.19 329.032 315.67 327.811 315.816 326.53C316.44 321.729 312.071 315.535 306.502 317.84C307.702 320.481 308.038 322.641 305.734 323.841C304.404 324.376 302.955 324.547 301.538 324.336C300.12 324.125 298.784 323.54 297.667 322.641C295.543 321.084 293.762 319.107 292.434 316.832C291.401 315.307 290.786 313.538 290.651 311.701C290.516 309.864 290.866 308.024 291.666 306.365C290.494 306.153 289.285 306.306 288.202 306.804C287.12 307.302 286.217 308.121 285.616 309.15C284.416 306.845 280.815 306.845 280.815 306.845C280.815 306.845 279.087 310.014 280.527 312.174C279.334 312.216 278.18 312.613 277.213 313.315C276.247 314.016 275.512 314.99 275.101 316.111C276.945 316.207 278.73 316.791 280.274 317.804C281.818 318.816 283.065 320.22 283.888 321.873C285.25 324.13 286.117 326.65 286.432 329.267C286.676 330.669 286.542 332.111 286.044 333.444C285.546 334.777 284.703 335.954 283.6 336.853C281.439 338.293 279.711 336.853 278.03 334.596C273.229 338.389 276.59 345.207 281.055 346.984C282.248 347.48 283.552 347.652 284.833 347.484C286.114 347.315 287.329 346.811 288.353 346.023C289.632 344.9 290.619 343.483 291.23 341.894C291.84 340.305 292.056 338.592 291.858 336.901C292.769 340.356 294.007 343.716 295.555 346.936C296.835 349.201 298.734 351.055 301.03 352.28C303.326 353.504 305.924 354.049 308.518 353.849C309.91 351.652 310.648 349.104 310.648 346.503C310.648 343.903 309.91 341.355 308.518 339.158H308.806Z" fill="#FFE000"/>
<path d="M308.374 354.282C305.729 354.46 303.087 353.883 300.757 352.616C298.428 351.349 296.507 349.446 295.219 347.128C294.247 345.139 293.459 343.066 292.866 340.934C292.866 340.406 292.482 339.83 292.29 339.158C292.292 340.562 291.968 341.948 291.343 343.206C290.718 344.464 289.81 345.56 288.689 346.407C287.613 347.225 286.341 347.744 285.001 347.912C283.661 348.081 282.3 347.893 281.055 347.368C279.61 346.765 278.342 345.806 277.368 344.58C276.394 343.354 275.746 341.902 275.486 340.358C275.291 339.226 275.411 338.063 275.835 336.995C276.259 335.928 276.968 334.998 277.886 334.308C277.935 334.273 277.994 334.254 278.054 334.254C278.115 334.254 278.173 334.273 278.222 334.308C278.316 334.275 278.417 334.275 278.51 334.308C280.383 336.901 281.823 337.525 283.312 336.469C284.341 335.612 285.131 334.502 285.602 333.247C286.073 331.993 286.211 330.638 286 329.315V328.979C285.703 326.529 284.884 324.172 283.6 322.065C282.815 320.468 281.618 319.11 280.132 318.131C278.647 317.151 276.926 316.587 275.15 316.496C275.097 316.521 275.04 316.534 274.981 316.534C274.923 316.534 274.866 316.521 274.813 316.496C274.78 316.437 274.762 316.371 274.762 316.303C274.762 316.236 274.78 316.17 274.813 316.111C275.226 315.028 275.911 314.07 276.802 313.33C277.694 312.589 278.762 312.092 279.903 311.886C279.665 311.037 279.602 310.148 279.718 309.273C279.833 308.398 280.125 307.556 280.575 306.797C280.602 306.729 280.648 306.67 280.708 306.628C280.768 306.585 280.838 306.561 280.911 306.557C282.699 306.557 284.418 307.245 285.712 308.477C286.438 307.575 287.387 306.879 288.465 306.458C289.543 306.037 290.713 305.905 291.858 306.077C291.91 306.051 291.968 306.038 292.026 306.038C292.084 306.038 292.142 306.051 292.194 306.077C292.241 306.13 292.267 306.198 292.267 306.269C292.267 306.34 292.241 306.408 292.194 306.461C291.408 308.056 291.065 309.834 291.2 311.607C291.335 313.381 291.944 315.085 292.962 316.544C294.117 318.727 295.721 320.641 297.667 322.161H297.956C299.001 322.997 300.247 323.544 301.57 323.746C302.893 323.948 304.246 323.799 305.494 323.313C307.27 322.401 307.414 320.817 306.07 317.888C306.046 317.777 306.046 317.663 306.07 317.552H306.31C307.367 317.093 308.529 316.931 309.671 317.083C310.813 317.236 311.892 317.696 312.792 318.416C313.995 319.408 314.939 320.679 315.541 322.118C316.144 323.557 316.386 325.12 316.248 326.674C316.081 328.049 315.547 329.354 314.702 330.452C313.858 331.55 312.733 332.401 311.447 332.916C310.164 333.479 308.768 333.737 307.369 333.671C305.97 333.604 304.605 333.214 303.381 332.532L304.677 333.876C306.261 335.454 307.677 337.192 308.902 339.062C310.355 341.307 311.129 343.925 311.129 346.6C311.129 349.274 310.355 351.892 308.902 354.138C308.85 354.163 308.793 354.176 308.734 354.176C308.676 354.176 308.619 354.163 308.566 354.138L308.374 354.282ZM291.906 336.565C291.99 336.575 292.069 336.607 292.137 336.657C292.204 336.708 292.257 336.775 292.29 336.853L293.586 340.79C294.177 342.883 294.982 344.911 295.987 346.84C297.197 348.999 298.993 350.772 301.168 351.953C303.343 353.134 305.808 353.675 308.278 353.513C309.595 351.412 310.293 348.983 310.293 346.504C310.293 344.024 309.595 341.595 308.278 339.494C307.051 337.771 305.669 336.164 304.149 334.692C303.381 333.876 302.469 332.916 301.364 331.668C301.297 331.596 301.259 331.502 301.259 331.404C301.259 331.305 301.297 331.211 301.364 331.139C301.436 331.072 301.53 331.034 301.629 331.034C301.727 331.034 301.821 331.072 301.893 331.139C303.19 332.144 304.722 332.799 306.344 333.043C307.967 333.286 309.624 333.111 311.159 332.532C312.28 332.053 313.253 331.285 313.978 330.307C314.704 329.328 315.156 328.174 315.288 326.962C315.434 325.553 315.224 324.129 314.679 322.821C314.134 321.513 313.271 320.362 312.167 319.472C311.53 318.854 310.748 318.403 309.894 318.16C309.039 317.917 308.138 317.889 307.27 318.08C308.182 320.289 308.758 322.881 306.166 324.178C304.769 324.745 303.247 324.932 301.755 324.722C300.263 324.511 298.852 323.909 297.667 322.977H297.427C295.451 321.423 293.817 319.478 292.626 317.264C291.606 315.776 290.975 314.056 290.79 312.261C290.606 310.466 290.874 308.654 291.57 306.989C290.609 306.938 289.652 307.153 288.805 307.61C287.957 308.068 287.253 308.75 286.769 309.582C286.71 309.615 286.644 309.633 286.577 309.633C286.509 309.633 286.443 309.615 286.384 309.582C286.324 309.608 286.259 309.622 286.192 309.622C286.126 309.622 286.061 309.608 286 309.582C285.136 307.853 282.64 307.565 281.823 307.517C281.403 308.24 281.161 309.053 281.119 309.889C281.078 310.724 281.237 311.557 281.583 312.318C281.628 312.385 281.653 312.463 281.656 312.544C281.659 312.624 281.64 312.704 281.6 312.774C281.56 312.844 281.501 312.901 281.43 312.939C281.36 312.978 281.279 312.995 281.199 312.991C280.178 312.998 279.181 313.302 278.329 313.864C277.477 314.426 276.806 315.224 276.398 316.159C278.195 316.354 279.915 316.997 281.4 318.028C282.885 319.06 284.087 320.448 284.896 322.065C286.205 324.26 287.07 326.691 287.441 329.219V329.555C287.685 331.051 287.53 332.585 286.99 334.002C286.451 335.418 285.546 336.667 284.368 337.621C281.871 339.254 279.951 337.621 278.51 335.605C277.836 336.191 277.324 336.94 277.021 337.78C276.719 338.621 276.636 339.525 276.782 340.406C277.009 341.778 277.565 343.075 278.4 344.187C279.236 345.299 280.328 346.192 281.583 346.792C282.67 347.16 283.832 347.252 284.964 347.059C286.095 346.866 287.161 346.395 288.065 345.687C289.302 344.612 290.252 343.246 290.831 341.712C291.409 340.179 291.597 338.525 291.378 336.901C291.383 336.803 291.418 336.71 291.478 336.632C291.538 336.555 291.621 336.498 291.714 336.469L291.906 336.565Z" fill="#FFE000"/>
<path d="M247.878 22.3215C248.211 25.8914 248.853 29.4257 249.799 32.8843C249.124 31.3106 248.069 29.9293 246.728 28.8649C245.387 27.8004 243.802 27.0863 242.117 26.7867C240.84 26.6125 239.541 26.7885 238.357 27.296C237.173 27.8034 236.149 28.6231 235.395 29.6674C232.418 33.4604 233.042 40.9984 239.044 41.8627C239.284 38.9819 240.1 37.0614 242.693 37.0614C244.1 37.2867 245.424 37.8744 246.536 38.7667C247.647 39.6591 248.507 40.8253 249.03 42.1507C250.055 44.5818 250.577 47.1948 250.567 49.8328C250.719 51.7191 250.352 53.6111 249.505 55.3037C248.659 56.9963 247.366 58.4251 245.766 59.4353C246.671 60.207 247.79 60.6846 248.974 60.8047C250.157 60.9247 251.349 60.6816 252.391 60.1075C252.391 62.7002 255.416 64.5247 255.416 64.5247C255.416 64.5247 258.537 62.7002 258.393 60.1075C259.442 60.6856 260.643 60.9309 261.835 60.8109C263.026 60.6908 264.154 60.2111 265.067 59.4353C263.459 58.433 262.159 57.0057 261.312 55.311C260.465 53.6164 260.103 51.7204 260.265 49.8328C260.208 47.1904 260.732 44.5676 261.802 42.1507C262.322 40.8227 263.18 39.654 264.292 38.7611C265.404 37.8681 266.731 37.2821 268.14 37.0614C270.684 37.0614 271.5 38.9819 271.788 41.8627C277.79 40.9984 278.414 33.4604 275.437 29.6674C274.686 28.6574 273.684 27.8606 272.53 27.3555C271.377 26.8503 270.112 26.6543 268.86 26.7867C267.181 27.0895 265.604 27.8055 264.272 28.87C262.939 29.9345 261.892 31.3141 261.226 32.8843C262.137 29.4204 262.763 25.8876 263.098 22.3215C263.153 19.7223 262.463 17.1616 261.111 14.9414C259.758 12.7212 257.799 10.9339 255.464 9.79016C253.132 10.941 251.172 12.7285 249.813 14.946C248.453 17.1636 247.749 19.7206 247.782 22.3215H247.878Z" fill="#FFE000"/>
<path d="M255.56 64.7646C254.032 63.8465 252.902 62.3911 252.391 60.6835C251.313 61.0908 250.147 61.2075 249.009 61.0222C247.872 60.8368 246.803 60.3557 245.91 59.6272C245.884 59.5749 245.871 59.5174 245.871 59.4592C245.871 59.401 245.884 59.3435 245.91 59.2912C245.884 59.2388 245.871 59.1813 245.871 59.1231C245.871 59.0649 245.884 59.0074 245.91 58.9551C247.402 57.9843 248.604 56.6288 249.39 55.0317C250.176 53.4346 250.516 51.655 250.375 49.8807C250.42 47.409 249.945 44.9555 248.982 42.6787V42.3427C248.5 41.0983 247.702 40.0012 246.666 39.1593C245.631 38.3173 244.393 37.7597 243.077 37.5414C241.06 37.5414 240.148 38.7417 239.86 41.9105C239.893 42.0037 239.893 42.1054 239.86 42.1986C239.86 42.1986 239.86 42.1986 239.572 42.1986C238.424 42.0789 237.331 41.6431 236.416 40.9396C235.5 40.236 234.798 39.2924 234.387 38.2136C233.793 36.7671 233.561 35.1976 233.712 33.6412C233.862 32.0849 234.391 30.5889 235.251 29.2832C236.059 28.1928 237.144 27.3376 238.393 26.806C239.642 26.2743 241.01 26.0853 242.357 26.2584C243.742 26.4249 245.07 26.9105 246.237 27.6769C247.403 28.4433 248.376 29.4698 249.078 30.6756C249.078 30.0034 248.838 29.3792 248.694 28.8511C248.136 26.6984 247.798 24.4944 247.686 22.2733C247.622 19.5981 248.325 16.9604 249.712 14.6718C251.098 12.3832 253.111 10.5393 255.512 9.35791C255.576 9.31456 255.651 9.29138 255.728 9.29138C255.805 9.29138 255.881 9.31456 255.944 9.35791C258.351 10.5372 260.37 12.3792 261.765 14.6672C263.16 16.9553 263.872 19.5941 263.818 22.2733C263.682 24.4919 263.345 26.6936 262.81 28.8511C262.81 29.3792 262.522 30.0034 262.378 30.6756C263.067 29.517 264.007 28.5275 265.129 27.7798C266.25 27.032 267.525 26.545 268.86 26.3544C270.212 26.1578 271.593 26.3256 272.859 26.8405C274.125 27.3553 275.23 28.1985 276.062 29.2832C276.993 30.5433 277.591 32.0179 277.8 33.5705C278.01 35.1231 277.825 36.7035 277.262 38.1655C276.854 39.2377 276.159 40.1768 275.253 40.8798C274.347 41.5828 273.264 42.0225 272.125 42.1506C272.073 42.1801 272.016 42.1956 271.957 42.1956C271.898 42.1956 271.84 42.1801 271.788 42.1506C271.756 42.0574 271.756 41.9557 271.788 41.8625C271.5 38.6937 270.54 37.3973 268.572 37.4934C267.246 37.704 265.999 38.258 264.955 39.1004C263.91 39.9428 263.105 41.0441 262.618 42.2946V42.6307C261.637 44.9019 261.162 47.3594 261.226 49.8326C261.085 51.607 261.425 53.3866 262.211 54.9837C262.997 56.5808 264.199 57.9363 265.691 58.9071C265.691 58.9071 265.691 58.9071 265.691 59.2431C265.731 59.3515 265.731 59.4709 265.691 59.5792C264.788 60.3076 263.711 60.788 262.566 60.9733C261.421 61.1585 260.247 61.0421 259.161 60.6355C258.686 62.3613 257.547 63.8287 255.992 64.7166L255.56 64.7646ZM252.535 59.4832C252.565 59.5429 252.58 59.6086 252.58 59.6753C252.58 59.7419 252.565 59.8076 252.535 59.8673C252.535 61.7878 254.456 63.3242 255.128 63.8043C255.8 63.3242 257.817 61.7878 257.673 59.8673C257.678 59.7885 257.703 59.7122 257.745 59.6452C257.787 59.5782 257.844 59.5225 257.913 59.4832C257.98 59.4494 258.054 59.4318 258.129 59.4318C258.204 59.4318 258.278 59.4494 258.345 59.4832C259.227 59.9611 260.224 60.1828 261.226 60.1235C262.227 60.0641 263.191 59.7259 264.01 59.1471C262.534 58.045 261.363 56.5851 260.607 54.9051C259.851 53.2252 259.535 51.3804 259.689 49.5446C259.652 46.9756 260.142 44.4264 261.13 42.0546V41.7665C261.751 40.3278 262.756 39.0876 264.034 38.1815C265.313 37.2755 266.816 36.7384 268.38 36.6291C271.356 36.6291 272.173 38.9818 272.461 41.4304C273.371 41.2615 274.222 40.8584 274.929 40.2606C275.636 39.6628 276.176 38.8911 276.494 38.0215C276.987 36.6978 277.144 35.2727 276.951 33.8734C276.758 32.4742 276.222 31.1445 275.389 30.0034C274.664 28.9796 273.672 28.1742 272.52 27.6748C271.369 27.1754 270.103 27.001 268.86 27.1706C266.267 27.1706 264.058 29.1872 261.514 33.0762C261.446 33.1307 261.361 33.1605 261.274 33.1605C261.186 33.1605 261.102 33.1307 261.034 33.0762C260.941 33.0364 260.864 32.9686 260.812 32.8825C260.761 32.7963 260.737 32.6962 260.746 32.5961C261.082 30.9156 261.37 29.6193 261.61 28.563C262.163 26.4582 262.501 24.3025 262.618 22.1293C262.686 19.6616 262.06 17.2243 260.813 15.0942C259.565 12.964 257.746 11.2262 255.56 10.0781C253.35 11.213 251.5 12.9423 250.219 15.0714C248.938 17.2005 248.277 19.6448 248.31 22.1293C248.427 24.3025 248.765 26.4582 249.319 28.563C249.319 29.6193 249.847 30.9156 250.183 32.5961C250.23 32.6671 250.256 32.7507 250.256 32.8361C250.256 32.9216 250.23 33.0051 250.183 33.0762C250.107 33.1346 250.014 33.1663 249.919 33.1663C249.823 33.1663 249.73 33.1346 249.655 33.0762C247.35 29.1872 244.853 27.2667 242.357 27.1706C241.138 27.0189 239.901 27.1922 238.771 27.6728C237.641 28.1534 236.659 28.9243 235.923 29.9074C235.099 31.0527 234.571 32.3844 234.386 33.7836C234.202 35.1827 234.367 36.6057 234.867 37.9255C235.181 38.7976 235.719 39.5718 236.427 40.1702C237.135 40.7686 237.987 41.1701 238.9 41.3344C239.188 38.9818 239.956 36.5331 242.933 36.5331C244.445 36.7674 245.866 37.4034 247.049 38.3747C248.231 39.3459 249.131 40.6168 249.655 42.0546V42.3427C250.659 44.711 251.165 47.2604 251.143 49.8326C251.287 51.6722 250.962 53.5183 250.198 55.1978C249.434 56.8773 248.255 58.3353 246.774 59.4352C247.593 60.014 248.558 60.3521 249.559 60.4115C250.56 60.4709 251.558 60.2492 252.439 59.7713L252.535 59.4832Z" fill="#FFE000"/>
<path d="M136.777 22.3215C137.111 25.8876 137.738 29.4204 138.649 32.8843C137.983 31.3141 136.936 29.9345 135.603 28.87C134.271 27.8055 132.694 27.0895 131.015 26.7867C129.732 26.6192 128.428 26.798 127.238 27.3045C126.047 27.8111 125.014 28.6269 124.245 29.6674C121.317 33.4604 121.893 40.9984 127.894 41.8627C128.182 38.9819 128.999 37.0614 131.591 37.0614C132.995 37.2806 134.316 37.8667 135.42 38.7604C136.525 39.6541 137.374 40.8237 137.881 42.1507C138.951 44.5676 139.475 47.1904 139.417 49.8328C139.58 51.7204 139.218 53.6164 138.371 55.311C137.523 57.0057 136.224 58.433 134.616 59.4353C135.532 60.205 136.659 60.6808 137.849 60.8007C139.04 60.9206 140.239 60.679 141.29 60.1075C141.29 62.7002 144.267 64.5247 144.267 64.5247C144.267 64.5247 147.435 62.7002 147.291 60.1075C148.333 60.6816 149.526 60.9247 150.709 60.8047C151.893 60.6846 153.012 60.207 153.917 59.4353C152.324 58.4175 151.037 56.9872 150.192 55.2965C149.346 53.6058 148.975 51.7178 149.116 49.8328C149.099 47.1892 149.639 44.5717 150.7 42.1507C151.208 40.8237 152.056 39.6541 153.161 38.7604C154.265 37.8667 155.586 37.2806 156.99 37.0614C159.583 37.0614 160.399 38.9819 160.639 41.8627C166.689 40.9984 167.265 33.4604 164.336 29.6674C163.567 28.6269 162.534 27.8111 161.344 27.3045C160.153 26.798 158.849 26.6192 157.566 26.7867C155.88 27.0863 154.296 27.8004 152.955 28.8649C151.614 29.9293 150.558 31.3106 149.884 32.8843C150.829 29.4257 151.472 25.8914 151.805 22.3215C151.849 19.7183 151.15 17.1565 149.789 14.9368C148.428 12.7171 146.463 10.9317 144.123 9.79016C141.795 10.9431 139.843 12.7325 138.491 14.9506C137.14 17.1687 136.446 19.7246 136.489 22.3215H136.777Z" fill="#FFE000"/>
<path d="M144.411 64.7648C142.87 63.8613 141.735 62.4002 141.242 60.6837C140.113 61.139 138.881 61.2767 137.679 61.0821C136.477 60.8874 135.352 60.3678 134.424 59.5794C134.402 59.5262 134.39 59.4691 134.39 59.4113C134.39 59.3536 134.402 59.2965 134.424 59.2433C134.399 59.1909 134.385 59.1335 134.385 59.0753C134.385 59.017 134.399 58.9596 134.424 58.9072C135.978 57.9789 137.248 56.6418 138.094 55.0417C138.941 53.4417 139.332 51.6399 139.225 49.8328C139.253 47.3579 138.763 44.9046 137.785 42.6309V42.2948C137.298 41.0442 136.493 39.943 135.448 39.1006C134.404 38.2582 133.157 37.7041 131.831 37.4935C129.863 37.4935 128.951 38.6939 128.614 41.8627C128.64 41.9065 128.653 41.9562 128.653 42.0067C128.653 42.0573 128.64 42.107 128.614 42.1508C128.563 42.1803 128.505 42.1958 128.446 42.1958C128.387 42.1958 128.329 42.1803 128.278 42.1508C127.139 42.0227 126.056 41.583 125.15 40.88C124.244 40.177 123.549 39.2379 123.141 38.1657C122.516 36.739 122.259 35.1784 122.393 33.6267C122.528 32.0749 123.049 30.5816 123.909 29.2834C124.721 28.1967 125.806 27.3444 127.054 26.8131C128.303 26.2818 129.669 26.0905 131.015 26.2586C132.409 26.418 133.747 26.9002 134.922 27.667C136.097 28.4337 137.077 29.4639 137.785 30.6757C137.785 30.0035 137.497 29.3794 137.401 28.8512C136.829 26.6997 136.475 24.496 136.345 22.2735C136.291 19.6308 136.984 17.0266 138.342 14.7593C139.701 12.492 141.671 10.6534 144.027 9.4541C144.09 9.41075 144.166 9.38757 144.243 9.38757C144.32 9.38757 144.395 9.41075 144.459 9.4541C146.865 10.6334 148.884 12.4754 150.279 14.7634C151.674 17.0515 152.387 19.6903 152.333 22.3695C152.179 24.5893 151.825 26.7908 151.276 28.9473C151.276 29.4754 151.036 30.0996 150.892 30.7718C151.595 29.566 152.568 28.5395 153.734 27.7731C154.9 27.0067 156.229 26.5211 157.614 26.3546C158.989 26.1361 160.397 26.2929 161.69 26.8085C162.983 27.324 164.113 28.179 164.96 29.2834C165.867 30.5546 166.451 32.0281 166.66 33.5759C166.869 35.1237 166.698 36.6992 166.16 38.1657C165.753 39.2379 165.058 40.177 164.152 40.88C163.245 41.583 162.163 42.0227 161.023 42.1508C160.974 42.1859 160.915 42.2049 160.855 42.2049C160.795 42.2049 160.736 42.1859 160.687 42.1508C160.662 42.107 160.648 42.0573 160.648 42.0067C160.648 41.9562 160.662 41.9065 160.687 41.8627C160.351 38.6939 159.439 37.3975 157.47 37.4935C156.145 37.7041 154.898 38.2582 153.853 39.1006C152.809 39.943 152.003 41.0442 151.517 42.2948V42.6309C150.539 44.9046 150.048 47.3579 150.076 49.8328C149.935 51.6072 150.275 53.3868 151.061 54.9839C151.847 56.581 153.049 57.9364 154.541 58.9072C154.571 58.9583 154.586 59.0163 154.586 59.0753C154.586 59.1343 154.571 59.1922 154.541 59.2433C154.564 59.2965 154.575 59.3536 154.575 59.4113C154.575 59.4691 154.564 59.5262 154.541 59.5794C153.639 60.3077 152.562 60.7882 151.417 60.9734C150.272 61.1586 149.098 61.0422 148.012 60.6357C147.501 62.3433 146.371 63.7987 144.843 64.7168L144.411 64.7648ZM141.434 59.4834C141.502 59.5227 141.56 59.5783 141.602 59.6453C141.644 59.7123 141.669 59.7886 141.674 59.8675C141.674 61.788 143.546 63.3244 144.219 63.8045C144.891 63.3244 146.907 61.788 146.811 59.8675C146.782 59.8078 146.766 59.7421 146.766 59.6754C146.766 59.6088 146.782 59.5431 146.811 59.4834C146.887 59.4488 146.969 59.431 147.051 59.431C147.134 59.431 147.216 59.4488 147.291 59.4834C148.173 59.9612 149.171 60.183 150.172 60.1236C151.173 60.0642 152.138 59.726 152.957 59.1473C151.475 58.0474 150.297 56.5894 149.533 54.9099C148.769 53.2304 148.444 51.3843 148.588 49.5447C148.566 46.9725 149.072 44.4231 150.076 42.0547V41.7667C150.618 40.3495 151.525 39.101 152.706 38.1481C153.887 37.1952 155.298 36.5718 156.798 36.3412C159.775 36.3412 160.543 38.6939 160.831 41.1425C161.743 40.9782 162.596 40.5767 163.304 39.9783C164.012 39.3799 164.55 38.6058 164.864 37.7336C165.364 36.4138 165.529 34.9908 165.344 33.5917C165.16 32.1926 164.632 30.8609 163.808 29.7155C163.075 28.7287 162.093 27.955 160.962 27.4739C159.832 26.9929 158.593 26.822 157.374 26.9787C154.781 26.9787 152.573 28.9953 150.076 32.8843C150.001 32.9427 149.908 32.9744 149.812 32.9744C149.717 32.9744 149.624 32.9427 149.548 32.8843C149.46 32.8431 149.388 32.7732 149.344 32.686C149.301 32.5989 149.288 32.4996 149.308 32.4042C149.644 30.7237 149.932 29.4274 150.172 28.3711C150.726 26.2663 151.064 24.1106 151.18 21.9374C151.224 19.5343 150.619 17.1639 149.427 15.0766C148.235 12.9892 146.502 11.2623 144.411 10.0783C142.206 11.2154 140.363 12.9465 139.09 15.0762C137.817 17.2058 137.166 19.6489 137.209 22.1295C137.326 24.3027 137.664 26.4584 138.217 28.5632C138.457 29.6194 138.745 30.9158 139.081 32.5962C139.096 32.6467 139.099 32.6996 139.092 32.7516C139.086 32.8036 139.068 32.8536 139.041 32.8986C139.014 32.9436 138.978 32.9826 138.936 33.0132C138.893 33.0437 138.844 33.0652 138.793 33.0764C138.722 33.1238 138.639 33.1492 138.553 33.1492C138.468 33.1492 138.384 33.1238 138.313 33.0764C135.96 29.1873 133.512 27.2668 131.015 27.1708C129.835 27.0575 128.645 27.2498 127.56 27.729C126.476 28.2083 125.532 28.9585 124.821 29.9075C124.001 31.0541 123.471 32.3833 123.279 33.7802C123.086 35.1771 123.237 36.5999 123.717 37.9257C124.039 38.8014 124.586 39.5772 125.302 40.1755C126.018 40.7737 126.879 41.1734 127.798 41.3346C128.038 38.9819 128.855 36.5333 131.831 36.5333C133.295 36.8053 134.661 37.4592 135.791 38.4288C136.921 39.3984 137.774 40.6492 138.265 42.0547V42.3428C139.276 44.7075 139.767 47.2618 139.705 49.8328C139.869 51.6696 139.557 53.5175 138.8 55.1991C138.044 56.8807 136.867 58.3395 135.384 59.4354C136.203 60.0141 137.168 60.3523 138.169 60.4117C139.17 60.4711 140.168 60.2493 141.05 59.7714L141.434 59.4834Z" fill="#FFE000"/>
<path d="M26.1553 139.328C29.7257 139.657 33.2603 140.3 36.7181 141.249C33.6453 139.377 30.7165 136.928 30.6204 133.567C30.4737 132.276 30.6719 130.969 31.1948 129.78C31.7177 128.591 32.5467 127.562 33.5972 126.797C37.3902 123.868 44.9282 124.445 45.7925 130.494C42.9117 130.734 40.9912 131.55 40.9912 134.143C41.196 135.552 41.7768 136.88 42.6724 137.987C43.568 139.093 44.7453 139.938 46.0805 140.433C48.4832 141.499 51.086 142.039 53.7146 142.017C55.6002 142.164 57.4902 141.794 59.1819 140.949C60.8735 140.103 62.3031 138.812 63.3171 137.216C64.0888 138.121 64.5664 139.24 64.6865 140.424C64.8065 141.608 64.5634 142.8 63.9893 143.842C66.582 143.842 68.4545 146.866 68.4545 146.866C68.4545 146.866 66.582 149.987 63.9893 149.843C64.5674 150.893 64.8127 152.093 64.6926 153.285C64.5726 154.477 64.0929 155.604 63.3171 156.517C62.3188 154.905 60.8922 153.603 59.1965 152.755C57.5009 151.907 55.6029 151.547 53.7146 151.716C51.0873 151.654 48.4793 152.179 46.0805 153.252C44.6932 153.77 43.4777 154.665 42.5702 155.835C41.6628 157.005 41.0994 158.405 40.9432 159.878C40.9432 162.423 42.8157 163.239 45.7445 163.527C44.8802 169.529 37.3422 170.153 33.5492 167.176C32.5162 166.4 31.706 165.366 31.2003 164.178C30.6945 162.989 30.5111 161.688 30.6685 160.406C30.9794 158.731 31.6984 157.158 32.7619 155.826C33.8255 154.495 35.2007 153.446 36.7661 152.772C33.3031 153.688 29.77 154.314 26.2033 154.645C23.6064 154.687 21.0505 153.993 18.8324 152.642C16.6143 151.29 14.8249 149.338 13.672 147.011C14.8135 144.671 16.5989 142.705 18.8186 141.344C21.0383 139.983 23.6001 139.284 26.2033 139.328H26.1553Z" fill="#FFE000"/>
<path d="M38.8306 169.336C36.8092 169.357 34.8365 168.716 33.2131 167.512C32.1265 166.7 31.2742 165.615 30.7429 164.367C30.2116 163.119 30.0202 161.752 30.1883 160.406C30.3477 159.012 30.83 157.674 31.5967 156.499C32.3635 155.324 33.3937 154.344 34.6055 153.636L32.781 154.116C30.6294 154.688 28.4257 155.042 26.2033 155.173C23.5241 155.227 20.8852 154.514 18.5972 153.119C16.3091 151.724 14.4671 149.705 13.2878 147.298C13.237 147.238 13.2092 147.161 13.2092 147.082C13.2092 147.003 13.237 146.927 13.2878 146.866C14.4718 144.464 16.3148 142.448 18.6018 141.053C20.8888 139.659 23.5252 138.944 26.2033 138.992C28.4231 139.146 30.6245 139.5 32.781 140.049L34.6055 140.433C33.3997 139.73 32.3733 138.757 31.6068 137.591C30.8404 136.425 30.3548 135.097 30.1883 133.711C30.0164 132.358 30.2057 130.983 30.737 129.726C31.2682 128.47 32.1225 127.376 33.2131 126.557C34.4802 125.642 35.9517 125.05 37.4996 124.832C39.0475 124.614 40.6252 124.778 42.0955 125.309C43.1737 125.714 44.1199 126.407 44.8311 127.313C45.5423 128.219 45.9911 129.303 46.1285 130.446C46.157 130.556 46.157 130.672 46.1285 130.782C46.0353 130.815 45.9337 130.815 45.8405 130.782C42.6236 131.118 41.3273 132.03 41.4233 133.999C41.6385 135.323 42.1942 136.567 43.036 137.611C43.8778 138.655 44.9766 139.462 46.2246 139.953H46.5126C48.7876 140.926 51.2401 141.417 53.7146 141.393C55.487 141.519 57.2611 141.172 58.8554 140.387C60.4498 139.603 61.8072 138.409 62.789 136.928C62.8413 136.902 62.8988 136.889 62.957 136.889C63.0152 136.889 63.0727 136.902 63.1251 136.928C63.1761 136.898 63.2341 136.883 63.2931 136.883C63.3521 136.883 63.4101 136.898 63.4611 136.928C64.1897 137.821 64.6707 138.89 64.8561 140.027C65.0414 141.165 64.9247 142.331 64.5174 143.409C66.2339 143.903 67.695 145.038 68.5985 146.578C68.6493 146.639 68.6772 146.715 68.6772 146.794C68.6772 146.873 68.6493 146.95 68.5985 147.01C67.7106 148.565 66.2432 149.704 64.5174 150.179C64.924 151.266 65.0404 152.439 64.8552 153.584C64.6699 154.729 64.1895 155.806 63.4611 156.709C63.4088 156.734 63.3513 156.748 63.2931 156.748C63.2349 156.748 63.1774 156.734 63.1251 156.709C63.0719 156.731 63.0147 156.743 62.957 156.743C62.8993 156.743 62.8421 156.731 62.789 156.709C61.8478 155.185 60.4992 153.955 58.8957 153.158C57.2921 152.36 55.4975 152.027 53.7146 152.196C51.2401 152.172 48.7876 152.662 46.5126 153.636H46.2246C44.9766 154.127 43.8778 154.934 43.036 155.978C42.1942 157.021 41.6385 158.266 41.4233 159.59C41.4233 161.558 42.6236 162.471 45.8405 162.807H46.1285C46.1494 162.918 46.1494 163.032 46.1285 163.143C46.0337 164.329 45.6045 165.463 44.8906 166.415C44.1767 167.367 43.2075 168.097 42.0955 168.52C41.0748 169.013 39.9634 169.291 38.8306 169.336ZM36.7181 152.34C36.8053 152.337 36.8908 152.364 36.9607 152.416C37.0305 152.469 37.0804 152.543 37.1022 152.628C37.1341 152.659 37.1595 152.697 37.1768 152.738C37.1941 152.779 37.203 152.823 37.203 152.868C37.203 152.913 37.1941 152.957 37.1768 152.998C37.1595 153.039 37.1341 153.077 37.1022 153.108C33.2611 155.461 31.3406 157.909 31.2446 160.406C31.0392 161.59 31.1483 162.808 31.5612 163.937C31.9741 165.066 32.6761 166.067 33.5972 166.84C34.7529 167.661 36.0901 168.19 37.4947 168.382C38.8993 168.575 40.3295 168.424 41.6634 167.944C42.5743 167.613 43.3821 167.049 44.0058 166.307C44.6294 165.566 45.0469 164.673 45.2163 163.719C42.8637 163.479 40.415 162.663 40.415 159.686C40.6527 158.205 41.287 156.815 42.2507 155.666C43.2144 154.516 44.4715 153.649 45.8885 153.156H46.1766C48.5413 152.145 51.0955 151.654 53.6665 151.716C55.5033 151.552 57.3512 151.864 59.0328 152.621C60.7144 153.377 62.1732 154.554 63.2691 156.037C63.8585 155.222 64.2033 154.257 64.2628 153.253C64.3224 152.249 64.0942 151.25 63.6052 150.371C63.5714 150.304 63.5538 150.23 63.5538 150.155C63.5538 150.08 63.5714 150.006 63.6052 149.939C63.6522 149.867 63.7161 149.807 63.7914 149.765C63.8667 149.724 63.9512 149.701 64.0373 149.699C65.9578 149.699 67.4942 147.827 67.9263 147.154C67.4942 146.482 65.9098 144.466 64.0373 144.562C63.9703 144.596 63.8963 144.613 63.8212 144.613C63.7462 144.613 63.6722 144.596 63.6052 144.562C63.5707 144.486 63.5528 144.405 63.5528 144.322C63.5528 144.239 63.5707 144.157 63.6052 144.082C64.0942 143.203 64.3224 142.203 64.2628 141.2C64.2033 140.196 63.8585 139.231 63.2691 138.416C62.1692 139.898 60.7112 141.076 59.0317 141.84C57.3522 142.604 55.5061 142.929 53.6665 142.785C51.0943 142.808 48.5449 142.301 46.1766 141.297H45.8885C44.4721 140.761 43.2257 139.855 42.2797 138.672C41.3337 137.49 40.7229 136.075 40.5111 134.575C40.5111 131.598 42.8637 130.83 45.3123 130.542C45.1347 129.635 44.7283 128.789 44.1317 128.083C43.5351 127.377 42.7681 126.835 41.9034 126.509C40.5785 125.905 39.1223 125.645 37.6702 125.754C36.218 125.863 34.817 126.338 33.5972 127.133C32.6154 127.868 31.8482 128.852 31.3753 129.983C30.9025 131.115 30.7413 132.352 30.9085 133.567C30.9085 136.16 32.925 138.368 36.7661 140.865C36.8336 140.936 36.8712 141.031 36.8712 141.129C36.8712 141.227 36.8336 141.322 36.7661 141.393C36.695 141.44 36.6115 141.466 36.526 141.466C36.4405 141.466 36.357 141.44 36.2859 141.393L32.2529 140.529C30.2512 140.062 28.2092 139.789 26.1553 139.712C23.7112 139.721 21.3175 140.408 19.2406 141.696C17.1637 142.985 15.4853 144.824 14.3921 147.01C15.5073 149.164 17.1962 150.967 19.2721 152.221C21.3479 153.475 23.7301 154.131 26.1553 154.116C28.3285 153.999 30.4842 153.662 32.589 153.108L36.622 152.244L36.7181 152.34Z" fill="#FFE000"/>
<path d="M21.8342 254.943C25.3698 254.514 28.9342 254.369 32.493 254.511C29.0841 253.359 25.7232 251.582 24.907 248.365C24.4558 247.156 24.3426 245.847 24.5795 244.578C24.8163 243.309 25.3943 242.129 26.2513 241.164C29.2761 237.419 36.8141 236.362 38.9267 242.076C36.19 242.94 34.4135 244.188 35.0857 246.877C35.6252 248.165 36.4956 249.287 37.6086 250.13C38.7215 250.974 40.0376 251.508 41.4234 251.678C44.0029 252.23 46.6699 252.23 49.2494 251.678C51.1277 251.421 52.8996 250.654 54.3725 249.461C55.8454 248.267 56.9629 246.693 57.6036 244.909C58.5584 245.636 59.2711 246.635 59.6481 247.774C60.0251 248.914 60.0488 250.141 59.7162 251.294C62.2129 250.574 64.5175 253.215 64.5175 253.215C64.5175 253.215 63.4132 256.72 60.8685 257.104C61.6553 258.008 62.1534 259.126 62.2989 260.316C62.4444 261.505 62.2305 262.711 61.6847 263.778C60.3581 262.487 58.71 261.574 56.9117 261.135C55.1134 260.696 53.2303 260.746 51.458 261.281C48.8509 261.84 46.3947 262.953 44.2561 264.546C43.0664 265.337 42.1069 266.429 41.4746 267.711C40.8423 268.992 40.5596 270.418 40.6552 271.844C41.1353 274.388 43.2959 274.724 46.1286 274.34C46.6087 280.39 39.3588 282.647 35.0377 280.582C33.8547 280.061 32.8313 279.236 32.0721 278.189C31.3128 277.143 30.845 275.915 30.7165 274.628C30.6622 272.915 31.0275 271.215 31.7806 269.675C32.5337 268.135 33.6519 266.803 35.0377 265.794C31.8693 267.46 28.5595 268.842 25.147 269.923C22.6174 270.542 19.9629 270.418 17.5019 269.567C15.0408 268.715 12.8775 267.172 11.2714 265.122C11.879 262.595 13.196 260.294 15.0674 258.491C16.9388 256.688 19.2866 255.457 21.8342 254.943Z" fill="#FFE000"/>
<path d="M38.3986 281.686C37.1212 281.689 35.859 281.41 34.7016 280.87C33.4628 280.311 32.3933 279.435 31.6009 278.331C30.8085 277.227 30.3213 275.933 30.1884 274.58C30.0334 273.19 30.2092 271.782 30.7015 270.472C31.1937 269.162 31.9886 267.987 33.0211 267.042L31.2927 267.811C29.3215 268.846 27.2451 269.667 25.099 270.259C22.4906 270.926 19.7452 270.829 17.1909 269.977C14.6367 269.126 12.3816 267.557 10.6952 265.458C10.6615 265.391 10.6439 265.317 10.6439 265.242C10.6439 265.167 10.6615 265.093 10.6952 265.026C11.328 262.425 12.6895 260.059 14.62 258.205C16.5505 256.351 18.9699 255.086 21.5941 254.559C23.7975 254.182 26.0343 254.038 28.2679 254.127H30.1404C28.8238 253.668 27.6293 252.915 26.6475 251.925C25.6658 250.935 24.9227 249.734 24.4749 248.413C24.024 247.134 23.9197 245.759 24.1727 244.426C24.4257 243.094 25.0269 241.852 25.9153 240.827C26.9564 239.663 28.2658 238.77 29.7299 238.226C31.1941 237.683 32.7688 237.504 34.3175 237.707C35.4208 237.903 36.4501 238.396 37.2956 239.131C38.1412 239.867 38.7713 240.818 39.1188 241.884C39.1442 241.936 39.1575 241.993 39.1575 242.052C39.1575 242.11 39.1442 242.167 39.1188 242.22C36.0459 243.228 35.0377 244.428 35.5178 246.301C36.0126 247.555 36.8268 248.658 37.8796 249.5C38.9324 250.342 40.1872 250.895 41.5194 251.102H41.8555C44.276 251.627 46.7809 251.627 49.2014 251.102C50.9643 250.856 52.6276 250.137 54.0142 249.021C55.4007 247.905 56.4587 246.434 57.0755 244.764C57.105 244.707 57.1457 244.656 57.1952 244.615C57.2446 244.574 57.3019 244.543 57.3636 244.524C57.422 244.491 57.4882 244.473 57.5556 244.473C57.6231 244.473 57.6893 244.491 57.7477 244.524C58.6548 245.248 59.3577 246.195 59.7871 247.272C60.2165 248.35 60.3575 249.521 60.1963 250.67C61.0999 250.694 61.9897 250.897 62.814 251.268C63.6382 251.639 64.3805 252.17 64.9976 252.831C65.0314 252.898 65.049 252.972 65.049 253.047C65.049 253.122 65.0314 253.196 64.9976 253.263C64.4518 254.97 63.2639 256.399 61.6847 257.248C62.3291 258.209 62.7084 259.324 62.7842 260.479C62.8601 261.633 62.6299 262.788 62.1169 263.825C62.1169 263.825 62.1169 264.066 61.7808 264.066C61.7318 264.101 61.673 264.12 61.6127 264.12C61.5524 264.12 61.4937 264.101 61.4447 264.066C60.1907 262.865 58.6456 262.013 56.9617 261.592C55.2779 261.171 53.5133 261.196 51.8421 261.665C49.4126 262.159 47.1193 263.175 45.1203 264.642H44.8323C43.7161 265.391 42.8146 266.418 42.2168 267.622C41.619 268.826 41.3455 270.165 41.4234 271.508C41.7595 273.476 43.1998 274.1 46.2246 273.716C46.2684 273.691 46.3181 273.678 46.3687 273.678C46.4192 273.678 46.4689 273.691 46.5127 273.716C46.5375 273.827 46.5375 273.942 46.5127 274.052C46.6244 275.189 46.4242 276.336 45.9336 277.368C45.443 278.4 44.6805 279.278 43.728 279.91C42.1841 281.051 40.3182 281.673 38.3986 281.686ZM35.0377 265.314C35.0909 265.291 35.148 265.28 35.2057 265.28C35.2634 265.28 35.3206 265.291 35.3738 265.314C35.4322 265.39 35.4638 265.482 35.4638 265.578C35.4638 265.673 35.4322 265.766 35.3738 265.842C32.1089 268.963 30.5725 271.7 31.1967 274.244C31.3085 275.461 31.7406 276.626 32.449 277.621C33.1574 278.616 34.1169 279.406 35.2297 279.91C36.4999 280.473 37.8864 280.723 39.2732 280.639C40.6599 280.556 42.0065 280.141 43.1998 279.43C43.9842 278.905 44.6211 278.189 45.0498 277.348C45.4784 276.508 45.6846 275.571 45.6485 274.628C43.2479 274.868 40.8472 274.628 40.175 271.7C40.0549 270.196 40.344 268.688 41.0118 267.335C41.6796 265.983 42.7012 264.836 43.968 264.018H44.2561C46.3268 262.501 48.7022 261.453 51.218 260.945C52.9568 260.438 54.7947 260.375 56.5642 260.761C58.3337 261.146 59.9785 261.969 61.3487 263.153C61.7488 262.228 61.8755 261.207 61.7139 260.211C61.5522 259.216 61.1089 258.287 60.4364 257.536C60.3931 257.472 60.3699 257.397 60.3699 257.32C60.3699 257.243 60.3931 257.167 60.4364 257.104C60.4613 257.03 60.5056 256.964 60.5648 256.913C60.6239 256.863 60.6957 256.829 60.7725 256.816C62.693 256.48 63.7493 254.223 64.0374 253.455C63.4967 252.845 62.8177 252.375 62.0575 252.082C61.2972 251.79 60.4778 251.684 59.6682 251.774C59.6012 251.808 59.5272 251.826 59.4522 251.826C59.3771 251.826 59.3031 251.808 59.2361 251.774C59.1886 251.703 59.1633 251.62 59.1633 251.534C59.1633 251.449 59.1886 251.365 59.2361 251.294C59.5414 250.301 59.5496 249.239 59.2595 248.241C58.9695 247.243 58.3939 246.352 57.6037 245.677C56.8516 247.324 55.7042 248.76 54.2636 249.857C52.8229 250.955 51.1335 251.679 49.3455 251.966C46.8419 252.471 44.263 252.471 41.7595 251.966H41.3754C39.8776 251.75 38.4649 251.137 37.2832 250.192C36.1015 249.246 35.1937 248.003 34.6536 246.589C33.8854 243.708 36.142 242.412 38.3506 241.788C37.9987 240.936 37.4262 240.193 36.692 239.636C35.9578 239.079 35.0885 238.728 34.1734 238.619C32.77 238.417 31.3385 238.566 30.0065 239.052C28.6745 239.538 27.4834 240.346 26.5394 241.404C25.7412 242.334 25.2048 243.461 24.9855 244.667C24.7661 245.874 24.8716 247.117 25.2911 248.269C25.9633 250.766 28.3639 252.687 32.637 254.127C32.7304 254.15 32.8118 254.207 32.8652 254.287C32.9185 254.367 32.9399 254.464 32.9251 254.559C32.9133 254.665 32.8625 254.763 32.7828 254.834C32.703 254.905 32.5998 254.944 32.493 254.943H28.4119C26.228 254.859 24.0411 254.987 21.8822 255.327C19.4628 255.816 17.2297 256.976 15.4383 258.674C13.6468 260.372 12.3692 262.54 11.7515 264.93C13.3339 266.835 15.4188 268.259 17.7696 269.04C20.1204 269.821 22.6429 269.927 25.051 269.347C27.148 268.767 29.1763 267.962 31.1006 266.946L34.8456 265.218L35.0377 265.314Z" fill="#FFE000"/>
<path d="M378.185 254.943C374.633 254.516 371.053 254.371 367.478 254.511C369.152 254.18 370.721 253.447 372.051 252.377C373.38 251.307 374.431 249.93 375.112 248.365C375.538 247.152 375.637 245.849 375.402 244.585C375.166 243.321 374.602 242.141 373.767 241.164C370.695 237.419 363.157 236.362 361.044 242.076C363.781 242.94 365.845 244.188 364.885 246.877C364.346 248.165 363.475 249.287 362.362 250.13C361.249 250.974 359.933 251.508 358.547 251.678C355.984 252.23 353.333 252.23 350.769 251.678C348.933 251.409 347.203 250.653 345.759 249.487C344.315 248.322 343.21 246.79 342.559 245.053C341.62 245.792 340.918 246.792 340.543 247.928C340.167 249.063 340.134 250.284 340.447 251.438C337.998 250.718 335.645 253.359 335.645 253.359C335.645 253.359 336.75 256.864 339.294 257.248C338.515 258.157 338.026 259.278 337.889 260.467C337.752 261.656 337.974 262.859 338.526 263.922C339.843 262.63 341.482 261.717 343.273 261.278C345.064 260.839 346.94 260.889 348.705 261.425C351.291 261.951 353.731 263.033 355.859 264.594C357.056 265.378 358.021 266.469 358.654 267.752C359.287 269.035 359.565 270.465 359.46 271.892C358.98 274.436 356.867 274.772 353.986 274.388C353.506 280.438 360.756 282.695 365.125 280.63C366.302 280.107 367.318 279.279 368.069 278.233C368.82 277.186 369.279 275.959 369.398 274.676C369.451 272.923 369.066 271.184 368.278 269.616C367.49 268.049 366.324 266.702 364.885 265.698C367.957 267.357 371.171 268.738 374.488 269.827C377.025 270.444 379.685 270.319 382.154 269.468C384.622 268.617 386.794 267.075 388.411 265.026C387.798 262.567 386.52 260.326 384.715 258.547C382.911 256.768 380.651 255.521 378.185 254.943Z" fill="#FFE000"/>
<path d="M364.885 266.13L361.092 264.258C361.025 264.186 360.987 264.092 360.987 263.994C360.987 263.895 361.025 263.801 361.092 263.73C361.128 263.689 361.173 263.656 361.222 263.634C361.272 263.611 361.326 263.599 361.38 263.599C361.435 263.599 361.489 263.611 361.538 263.634C361.588 263.656 361.632 263.689 361.668 263.73L365.461 265.602C365.529 265.673 365.567 265.768 365.567 265.866C365.567 265.964 365.529 266.059 365.461 266.13C365.378 266.193 365.277 266.226 365.173 266.226C365.069 266.226 364.968 266.193 364.885 266.13Z" fill="#FFE000"/>
<path d="M35.662 38.0697C38.3712 40.3924 41.2611 42.4956 44.3043 44.3594C42.7462 43.7381 41.0626 43.4968 39.3928 43.6554C37.7229 43.814 36.1149 44.3681 34.7017 45.2716C33.6763 46.0429 32.8709 47.0693 32.3654 48.2486C31.86 49.4279 31.6723 50.719 31.821 51.9934C32.3011 56.7947 37.9666 61.596 42.9119 58.2831C41.1354 56.0265 40.3192 54.01 42.2397 52.3295C43.4127 51.5139 44.7781 51.0184 46.2012 50.8921C47.6242 50.7658 49.0556 51.013 50.3539 51.6093C52.7713 52.6347 54.9467 54.1559 56.7396 56.0745C58.1108 57.3154 59.1271 58.8989 59.684 60.6624C60.2409 62.4259 60.3183 64.3058 59.9084 66.1092C61.1016 66.0309 62.2435 65.5951 63.1855 64.8586C64.1275 64.1222 64.8259 63.1191 65.1898 61.9801C66.8703 63.9486 70.3752 63.1324 70.3752 63.1324C70.3752 63.1324 71.3834 59.6274 69.511 57.851C70.6638 57.5437 71.6954 56.8917 72.4676 55.9822C73.2398 55.0727 73.7159 53.9491 73.8321 52.7616C72.0165 53.0991 70.1439 52.9479 68.406 52.3236C66.6681 51.6993 65.1273 50.6243 63.9415 49.2087C62.1194 47.3112 60.7131 45.0546 59.8124 42.5829C59.2463 41.2706 59.0413 39.8308 59.2186 38.4126C59.3958 36.9944 59.9489 35.6494 60.8207 34.5168C62.5971 32.6443 64.6137 33.5565 66.7742 35.429C70.5192 30.6278 65.766 24.8182 60.9647 24.098C59.6934 23.8903 58.3899 24.0205 57.1848 24.4755C55.9797 24.9306 54.9155 25.6945 54.0989 26.6907C53.1211 28.0666 52.4923 29.6594 52.2665 31.3321C52.0406 33.0048 52.2246 34.7074 52.8025 36.2933C51.0364 33.1732 48.9958 30.2167 46.7049 27.4589C44.7161 25.3181 42.2288 23.7025 39.4643 22.7559C36.6999 21.8092 33.7443 21.5611 30.8607 22.0335C30.2686 24.895 30.3973 27.8588 31.2355 30.6581C32.0736 33.4575 33.5948 36.0044 35.662 38.0697Z" fill="#FFE000"/>
<path d="M59.7644 66.5412C59.7112 66.5636 59.654 66.5752 59.5963 66.5752C59.5386 66.5752 59.4815 66.5636 59.4283 66.5412C59.3801 66.4177 59.3801 66.2806 59.4283 66.1571C59.83 64.4323 59.7612 62.6313 59.2291 60.9421C58.697 59.253 57.7212 57.7377 56.4035 56.5545C54.7124 54.7632 52.6691 53.341 50.4019 52.3774H50.1138C48.8934 51.8231 47.5517 51.5895 46.2158 51.6987C44.8799 51.8079 43.5939 52.2564 42.4798 53.0016C40.9914 54.3459 41.1834 55.8823 43.2 58.427C43.2208 58.5219 43.2208 58.6202 43.2 58.7151C43.2329 58.8083 43.2329 58.91 43.2 59.0032C42.2887 59.7064 41.1996 60.1419 40.0547 60.2606C38.9097 60.3793 37.7544 60.1767 36.7183 59.6754C35.3143 58.988 34.0994 57.9684 33.179 56.7049C32.2586 55.4415 31.6606 53.9725 31.4369 52.4254C31.2741 51.075 31.4728 49.7056 32.0127 48.4571C32.5526 47.2086 33.4142 46.1259 34.5097 45.3195C35.5848 44.4695 36.8422 43.8798 38.1832 43.5966C39.5243 43.3134 40.9126 43.3444 42.2397 43.6871L40.7033 42.6308C38.7972 41.4669 37.012 40.1159 35.3739 38.5978C33.2705 36.4663 31.7304 33.8451 30.8923 30.9703C30.0541 28.0954 29.9443 25.0573 30.5726 22.1294C30.5975 22.0555 30.6418 21.9898 30.701 21.9391C30.7601 21.8883 30.8319 21.8546 30.9087 21.8413C33.8323 21.3562 36.8301 21.5925 39.6416 22.5297C42.4531 23.4669 44.9932 25.0765 47.041 27.2187C48.5032 28.8978 49.7753 30.7335 50.834 32.6922C51.1701 33.1723 51.4582 33.7005 51.8423 34.2766C51.5135 32.9126 51.5072 31.4908 51.8239 30.1239C52.1406 28.7571 52.7716 27.4829 53.6667 26.4025C54.5367 25.36 55.6614 24.5601 56.9317 24.0806C58.2021 23.601 59.5748 23.4582 60.9167 23.6658C62.4545 23.9597 63.8972 24.6252 65.119 25.6043C66.3408 26.5834 67.3046 27.8464 67.9265 29.2833C68.3908 30.3226 68.5688 31.467 68.4422 32.5982C68.3156 33.7293 67.8889 34.8061 67.2063 35.717C67.1131 35.75 67.0115 35.75 66.9183 35.717C66.8659 35.7425 66.8084 35.7557 66.7502 35.7557C66.692 35.7557 66.6345 35.7425 66.5822 35.717C64.1335 33.6044 62.5971 33.3644 61.2528 34.7567C60.4398 35.8251 59.923 37.089 59.7544 38.4209C59.5858 39.7527 59.7714 41.1055 60.2925 42.3428V42.6788C61.1257 44.9975 62.4715 47.0983 64.2295 48.8245C65.3592 50.2278 66.8506 51.296 68.5429 51.9137C70.2352 52.5313 72.0641 52.6751 73.8321 52.3294C73.8811 52.2942 73.9398 52.2753 74.0001 52.2753C74.0604 52.2753 74.1192 52.2942 74.1682 52.3294C74.2164 52.4529 74.2164 52.59 74.1682 52.7135C74.027 53.885 73.58 54.9986 72.8721 55.9425C72.1641 56.8865 71.2202 57.6274 70.1351 58.0909C70.978 59.6679 71.1677 61.5128 70.6633 63.2283C70.6516 63.3089 70.6111 63.3825 70.5493 63.4355C70.4875 63.4885 70.4086 63.5172 70.3272 63.5164C68.6138 63.9734 66.79 63.7497 65.2378 62.8922C64.7276 63.927 63.9613 64.8143 63.0117 65.4697C62.0622 66.1252 60.9609 66.527 59.8124 66.6372L59.7644 66.5412ZM46.6089 50.4569C47.9187 50.438 49.2157 50.7171 50.4019 51.2731H50.69C53.0613 52.2623 55.1905 53.7528 56.9316 55.6423C58.2306 56.8488 59.2156 58.354 59.8012 60.0273C60.3869 61.7007 60.5555 63.4916 60.2925 65.2448C61.2887 65.1202 62.2273 64.7091 62.9944 64.0613C63.7614 63.4136 64.3239 62.5571 64.6137 61.5959C64.6269 61.5191 64.6607 61.4473 64.7114 61.3881C64.7621 61.329 64.8279 61.2846 64.9017 61.2598C64.9654 61.2164 65.0407 61.1932 65.1178 61.1932C65.1948 61.1932 65.2701 61.2164 65.3338 61.2598C65.9887 61.8111 66.7699 62.1917 67.6077 62.3676C68.4455 62.5436 69.3138 62.5094 70.1351 62.268C70.4112 61.4633 70.4812 60.6022 70.3386 59.7634C70.196 58.9247 69.8454 58.1351 69.3189 57.4668C69.2768 57.3938 69.2546 57.311 69.2546 57.2267C69.2546 57.1424 69.2768 57.0596 69.3189 56.9866C69.3507 56.9172 69.3973 56.8554 69.4553 56.8057C69.5133 56.756 69.5815 56.7194 69.655 56.6986C70.6342 56.4624 71.5235 55.9462 72.2141 55.2129C72.9048 54.4796 73.3669 53.5611 73.544 52.5695C71.7552 52.7717 69.9441 52.5315 68.2698 51.8702C66.5955 51.2088 65.1092 50.1465 63.9415 48.7765C62.1239 46.9494 60.7163 44.7562 59.8124 42.3428V42.0547C59.2476 40.7808 59.0048 39.3875 59.1052 37.9977C59.2057 36.6078 59.6464 35.264 60.3885 34.0846C62.4531 31.924 64.7097 33.1723 66.5342 34.7087C67.0658 33.9764 67.4057 33.1227 67.5231 32.2255C67.6405 31.3282 67.5316 30.4158 67.2063 29.5714C66.6215 28.315 65.7383 27.2207 64.6336 26.3838C63.529 25.547 62.2365 24.993 60.8687 24.7701C59.6609 24.563 58.4198 24.6806 57.2724 25.1108C56.1251 25.5411 55.1127 26.2686 54.3389 27.2187C53.3904 28.5539 52.7849 30.1018 52.5755 31.7261C52.3662 33.3504 52.5596 35.0012 53.1386 36.5332C53.1692 36.6287 53.1612 36.7325 53.1164 36.8222C53.0715 36.9119 52.9933 36.9805 52.8985 37.0133C52.8229 37.0717 52.73 37.1034 52.6345 37.1034C52.5389 37.1034 52.446 37.0717 52.3704 37.0133L50.2098 33.5084C49.161 31.5965 47.9224 29.7949 46.5128 28.131C44.6188 26.0003 42.2347 24.3624 39.5664 23.3586C36.8981 22.3549 34.0256 22.0154 31.1968 22.3695C30.6948 25.1278 30.8694 27.9667 31.7057 30.6427C32.5419 33.3187 34.0148 35.7519 35.9981 37.7335C37.5877 39.2333 39.325 40.5685 41.1834 41.7186L44.5923 44.0232C44.6599 44.0945 44.6975 44.189 44.6975 44.2873C44.6975 44.3855 44.6599 44.48 44.5923 44.5513C44.5511 44.6396 44.4812 44.7114 44.3941 44.755C44.3069 44.7985 44.2076 44.8114 44.1122 44.7914C42.5858 44.0623 40.8939 43.7494 39.2076 43.8843C37.5214 44.0192 35.9008 44.5971 34.5097 45.5596C33.523 46.281 32.7484 47.2543 32.2669 48.3777C31.7854 49.5011 31.6148 50.7333 31.7729 51.9453C31.967 53.3532 32.5071 54.691 33.345 55.839C34.1829 56.9869 35.2924 57.9091 36.5742 58.523C37.4531 58.9681 38.4373 59.1631 39.4195 59.0869C40.4016 59.0107 41.344 58.6662 42.1437 58.0909C40.7033 56.2184 39.599 53.8658 41.8076 51.8973C43.1986 50.887 44.8915 50.3791 46.6089 50.4569Z" fill="#FFE000"/>
<path d="M364.309 38.0697C361.6 40.3923 358.71 42.4955 355.667 44.3594C357.225 43.7381 358.908 43.4967 360.578 43.6554C362.248 43.814 363.856 44.368 365.269 45.2716C366.295 46.0429 367.1 47.0692 367.606 48.2485C368.111 49.4278 368.299 50.719 368.15 51.9934C367.67 56.7947 362.005 61.5959 357.059 58.283C358.836 56.0265 359.7 54.0099 357.731 52.3295C356.56 51.5093 355.195 51.0112 353.771 50.8848C352.347 50.7584 350.914 51.0082 349.617 51.6093C347.2 52.6347 345.024 54.1558 343.232 56.0745C341.86 57.3153 340.844 58.8988 340.287 60.6623C339.73 62.4258 339.653 64.3058 340.063 66.1091C338.874 66.0345 337.736 65.5994 336.801 64.8616C335.866 64.1239 335.178 63.1187 334.829 61.98C333.149 63.9486 329.596 63.1323 329.596 63.1323C329.596 63.1323 328.588 59.6274 330.508 57.8509C329.412 57.4895 328.446 56.8148 327.729 55.9103C327.013 55.0059 326.577 53.9112 326.475 52.7616C328.246 53.0461 330.061 52.8685 331.743 52.2461C333.425 51.6236 334.918 50.5774 336.078 49.2086C337.898 47.3005 339.318 45.0478 340.255 42.5829C340.799 41.2634 340.988 39.8242 340.803 38.4088C340.618 36.9935 340.064 35.6515 339.198 34.5167C337.422 32.6442 335.453 33.5565 333.245 35.429C329.5 30.6277 334.301 24.8182 339.054 24.098C340.326 23.8902 341.629 24.0204 342.834 24.4755C344.039 24.9305 345.104 25.6945 345.92 26.6907C346.898 28.0665 347.527 29.6593 347.753 31.3321C347.978 33.0048 347.794 34.7073 347.217 36.2932C348.95 33.1563 350.941 30.1691 353.17 27.3628C355.166 25.2181 357.662 23.6004 360.435 22.6538C363.208 21.7071 366.171 21.4611 369.062 21.9374C369.642 24.7991 369.506 27.7595 368.669 30.5565C367.832 33.3535 366.318 35.9011 364.261 37.9737L364.309 38.0697Z" fill="#FFE000"/>
<path d="M340.207 66.5412C339.059 66.4485 337.955 66.0647 336.997 65.4262C336.039 64.7878 335.26 63.9156 334.733 62.8922C333.194 63.7822 331.37 64.0404 329.644 63.6124C329.567 63.5992 329.495 63.5654 329.436 63.5147C329.377 63.464 329.333 63.3982 329.308 63.3244C329.045 62.4605 328.956 61.5531 329.047 60.6547C329.138 59.7563 329.406 58.8849 329.836 58.091C328.779 57.6332 327.857 56.9115 327.16 55.995C326.462 55.0786 326.011 53.9983 325.851 52.8576C325.803 52.7341 325.803 52.597 325.851 52.4735C325.902 52.444 325.96 52.4285 326.019 52.4285C326.078 52.4285 326.136 52.444 326.187 52.4735C327.955 52.8192 329.784 52.6754 331.476 52.0577C333.168 51.44 334.66 50.3719 335.79 48.9686C337.545 47.2311 338.905 45.1347 339.775 42.8229V42.4868C340.272 41.2449 340.445 39.8967 340.277 38.5694C340.109 37.2422 339.606 35.9796 338.814 34.9008C337.422 33.5085 335.886 33.7485 333.437 35.8611C333.385 35.8865 333.327 35.8998 333.269 35.8998C333.211 35.8998 333.153 35.8865 333.101 35.8611C333.008 35.894 332.906 35.894 332.813 35.8611C332.093 34.9399 331.645 33.8364 331.518 32.6746C331.391 31.5127 331.59 30.3384 332.093 29.2833C332.693 27.8319 333.65 26.5558 334.876 25.5737C336.101 24.5916 337.555 23.9353 339.102 23.6658C340.437 23.4573 341.803 23.6 343.066 24.0799C344.329 24.5597 345.445 25.3602 346.304 26.4026C347.18 27.4557 347.801 28.6971 348.117 30.0297C348.434 31.3624 348.438 32.7501 348.129 34.0846L349.137 32.5002C350.196 30.5415 351.468 28.7058 352.93 27.0267C354.976 24.8155 357.537 23.1452 360.386 22.165C363.234 21.1848 366.281 20.9251 369.254 21.4092C369.322 21.4299 369.384 21.467 369.435 21.5172C369.485 21.5674 369.522 21.6293 369.542 21.6973C370.171 24.6252 370.061 27.6634 369.223 30.5382C368.385 33.413 366.845 36.0342 364.741 38.1657C363.112 39.6732 361.343 41.0235 359.46 42.1988L357.731 43.6871C359.084 43.2965 360.509 43.2277 361.893 43.4861C363.277 43.7445 364.581 44.3231 365.701 45.1755C366.781 45.9941 367.628 47.0802 368.158 48.3266C368.689 49.5729 368.884 50.9362 368.726 52.2814C368.503 53.8285 367.904 55.2975 366.984 56.5609C366.064 57.8244 364.849 58.844 363.445 59.5314C362.409 60.0327 361.253 60.2353 360.108 60.1166C358.964 59.9979 357.874 59.5624 356.963 58.8592C356.938 58.8154 356.925 58.7657 356.925 58.7151C356.925 58.6646 356.938 58.6149 356.963 58.5711C356.942 58.5261 356.931 58.4769 356.931 58.4271C356.931 58.3772 356.942 58.328 356.963 58.283C358.98 55.7383 359.172 54.2019 357.683 52.8576C356.569 52.1124 355.283 51.6639 353.947 51.5547C352.611 51.4455 351.27 51.6791 350.049 52.2334H349.761C347.494 53.197 345.451 54.6192 343.76 56.4105C342.442 57.5937 341.466 59.109 340.934 60.7981C340.402 62.4873 340.333 64.2883 340.735 66.0131C340.769 66.0715 340.786 66.1377 340.786 66.2051C340.786 66.2725 340.769 66.3388 340.735 66.3972C340.677 66.4785 340.593 66.5372 340.496 66.5635C340.4 66.5897 340.298 66.5819 340.207 66.5412ZM334.973 61.7399C335.054 61.7516 335.128 61.792 335.18 61.8539C335.233 61.9157 335.262 61.9946 335.261 62.076C335.567 63.0284 336.134 63.8757 336.898 64.521C337.662 65.1663 338.592 65.5835 339.583 65.725C339.317 63.9675 339.489 62.1716 340.084 60.4966C340.678 58.8215 341.677 57.3191 342.991 56.1224C344.716 54.2352 346.829 52.7445 349.185 51.7533H349.473C350.84 51.0956 352.357 50.8155 353.868 50.9422C355.38 51.0688 356.829 51.5975 358.067 52.4735C360.324 54.442 359.172 56.7946 357.731 58.6671C358.508 59.1737 359.402 59.4709 360.328 59.5298C361.253 59.5887 362.178 59.4073 363.013 59.0032C364.3 58.3964 365.414 57.4762 366.253 56.3269C367.091 55.1776 367.628 53.8362 367.814 52.4255C367.972 51.2135 367.802 49.9813 367.32 48.8579C366.839 47.7345 366.064 46.7611 365.077 46.0398C363.686 45.0773 362.066 44.4993 360.379 44.3644C358.693 44.2295 357.001 44.5425 355.475 45.2716C355.379 45.2916 355.28 45.2787 355.193 45.2351C355.106 45.1916 355.036 45.1198 354.995 45.0315C354.927 44.9602 354.889 44.8657 354.889 44.7674C354.889 44.6692 354.927 44.5747 354.995 44.5034L358.404 42.1988C360.262 41.0486 361.999 39.7135 363.589 38.2137C365.572 36.232 367.045 33.7988 367.881 31.1228C368.718 28.4468 368.892 25.6079 368.39 22.8496C365.608 22.4644 362.774 22.7517 360.126 23.6873C357.478 24.6229 355.093 26.1797 353.17 28.2271C351.761 29.891 350.522 31.6925 349.473 33.6045L347.313 37.1094C347.237 37.1678 347.144 37.1995 347.049 37.1995C346.953 37.1995 346.86 37.1678 346.784 37.1094C346.73 37.0413 346.7 36.9566 346.7 36.8693C346.7 36.7821 346.73 36.6974 346.784 36.6293C347.451 35.0626 347.699 33.3498 347.506 31.6583C347.312 29.9668 346.683 28.3544 345.68 26.9787C344.916 26.0277 343.914 25.2958 342.776 24.8573C341.637 24.4189 340.403 24.2894 339.198 24.4821C337.833 24.7128 336.544 25.2698 335.441 26.1057C334.338 26.9417 333.452 28.0318 332.861 29.2833C332.496 30.1392 332.357 31.0745 332.458 31.9994C332.559 32.9243 332.896 33.8077 333.437 34.5647C335.261 33.0283 337.518 31.78 339.583 33.9406C340.587 35.153 341.239 36.6182 341.468 38.1762C341.697 39.7341 341.493 41.3249 340.879 42.7749V43.063C339.975 45.4764 338.567 47.6696 336.75 49.4967C335.596 50.8836 334.111 51.958 332.433 52.6208C330.755 53.2837 328.938 53.5137 327.147 53.2897C327.341 54.2743 327.809 55.1841 328.497 55.9146C329.185 56.6451 330.065 57.1665 331.036 57.4188C331.11 57.4396 331.178 57.4762 331.236 57.5259C331.294 57.5757 331.341 57.6374 331.372 57.7069C331.41 57.7726 331.43 57.8471 331.43 57.9229C331.43 57.9988 331.41 58.0733 331.372 58.139C330.838 58.8029 330.478 59.5904 330.327 60.4293C330.176 61.2682 330.239 62.1316 330.508 62.9403C331.329 63.1816 332.198 63.2158 333.036 63.0399C333.873 62.8639 334.655 62.4833 335.309 61.932C335.223 61.906 335.146 61.8562 335.086 61.7883C335.027 61.7204 334.988 61.637 334.973 61.5479V61.7399Z" fill="#FFE000"/>
<path d="M200.009 373.151L100.287 316.592C76.8088 303.244 56.3074 286.152 48.3853 273.14C41.7595 262.289 42.6718 249.134 43.584 233.386C43.584 230.985 43.9201 228.584 44.0641 225.944L52.8024 44.5995H54.819C146.043 44.1674 239.14 44.5995 329.02 44.5995H346.88L355.715 226.136C355.715 228.68 356.051 230.937 356.243 233.578C357.299 249.086 358.259 262.385 351.442 273.332C343.472 286.344 323.114 303.436 299.492 316.784L200.009 373.151ZM56.9796 48.8246L48.4813 226.136C48.4813 228.68 48.1452 231.225 48.0012 233.626C46.8969 249.038 46.0807 261.185 51.9862 270.884C59.5722 283.367 79.3535 299.691 102.352 312.895L200.009 368.301L297.667 312.943C320.665 299.883 340.447 283.415 348.033 270.932C353.986 261.329 353.122 249.086 352.066 233.674C352.066 231.273 351.682 228.872 351.538 226.184L342.991 48.8246H329.116C240.052 48.4886 147.724 48.4886 56.9796 48.8246Z" fill="#FFE000"/>
</g>
<defs>
<clipPath id="clip0">
<rect y="0.475708" width="400" height="421.79" fill="white"/>
</clipPath>
</defs>
</svg>
