<svg width="401" height="463" viewBox="0 0 401 463" fill="none" xmlns="http://www.w3.org/2000/svg">
<g clip-path="url(#clip0)">
<path d="M400.568 0.124146H0.609844C0.311133 46.1303 2.60051 92.1168 7.46711 137.866C13.1996 198.061 29.7112 256.736 56.2134 311.086L60.6855 319.733C100.935 393.523 200.514 462.244 200.514 462.244C200.514 462.244 300.094 393.225 340.343 319.434L345.709 308.999C371.724 255.155 387.929 197.102 393.561 137.568C398.466 91.9203 400.806 46.0337 400.568 0.124146V0.124146Z" fill="#006DB3"/>
<path d="M292.193 290.217C277.084 286.206 261.447 284.546 245.832 285.297C225.128 286.82 204.696 290.926 185.011 297.521C165.185 303.931 145.805 311.534 125.383 316.453C110.512 320.42 94.9848 321.283 79.7668 318.987C75.4085 318.123 71.1227 316.927 66.9467 315.41V316.304C100.935 378.765 180.539 439.138 200.067 453.151C219.446 439.138 299.05 378.616 333.188 316.155L338.256 306.167C323.355 299.621 307.951 294.287 292.193 290.217ZM278.628 347.907C270.329 342.956 260.93 340.146 251.276 339.73C241.622 339.314 232.016 341.304 223.322 345.522C210.8 350.739 199.024 357.299 186.353 362.218C177.762 365.719 168.814 368.268 159.669 369.82C158.625 369.82 157.433 369.82 156.837 371.162C166.706 373.816 177.17 373.188 186.651 369.373C196.822 365.215 206.773 360.538 216.465 355.361C225.223 350.515 235.078 348 245.087 348.056C251.918 348.661 258.549 350.684 264.555 353.995C270.561 357.306 275.811 361.833 279.969 367.286C279.969 367.286 281.162 368.33 279.969 368.926C278.777 369.522 278.777 368.926 278.329 368.926C271.954 364.378 264.69 361.229 257.012 359.684C247.77 358.23 238.304 359.634 229.881 363.709C225.558 365.646 221.384 367.584 217.21 369.82C204.7 376.832 191.006 381.481 176.812 383.535C182.564 385.982 188.977 386.403 194.999 384.728C202.248 382.674 209.247 379.824 215.869 376.231C222.83 372.455 230.317 369.742 238.08 368.181C243.846 367.289 249.745 367.952 255.17 370.101C260.594 372.25 265.347 375.806 268.938 380.405C268.938 381.299 270.876 382.342 269.981 383.982L267.149 382.193C261.966 378.885 256.011 376.98 249.87 376.667C243.728 376.353 237.611 377.641 232.117 380.405C223.671 384.518 214.955 388.054 206.03 390.989C198.396 393.738 190.19 394.507 182.179 393.225C179.951 392.795 177.835 391.911 175.963 390.629C174.091 389.347 172.502 387.693 171.296 385.771C170.926 385.159 170.399 384.657 169.771 384.317C169.142 383.976 168.433 383.809 167.719 383.833C163.47 383.848 159.284 382.807 155.537 380.804C151.79 378.8 148.599 375.897 146.253 372.355C146.253 371.311 144.613 371.46 143.718 371.46C134.07 371.085 124.872 367.279 117.78 360.727C116.184 359.646 114.93 358.132 114.164 356.363C113.399 354.594 113.153 352.643 113.457 350.739C116.438 352.23 119.122 353.721 122.103 355.062C134.659 359.967 148.542 360.284 161.309 355.957C175.823 351.061 189.928 345.029 203.496 337.919C211.209 333.757 219.358 330.457 227.794 328.081C239.931 325.834 252.464 327.342 263.721 332.404C271.405 335.328 278.226 340.148 283.547 346.416C285.142 348.492 286.4 350.806 287.274 353.274L278.628 347.907Z" fill="white"/>
<path d="M254.031 228.352C248.784 206.49 241.342 185.214 231.819 164.848C216.438 131.286 198.963 98.7241 179.495 67.3554L171.296 54.0881C171.296 54.0881 171.296 54.0881 170.253 53.0446C171.832 58.2119 173.93 63.2063 176.514 67.9517C191.421 97.7659 205.135 127.58 216.614 158.289C223.95 177.142 229.442 196.662 233.012 216.576C235.173 228.353 235.173 240.426 233.012 252.204C232.073 257.695 229.876 262.895 226.591 267.395C223.306 271.896 219.024 275.574 214.08 278.142C213.723 278.367 213.309 278.486 212.887 278.486C212.465 278.486 212.052 278.367 211.695 278.142C213.072 276.399 214.318 274.555 215.421 272.626C218.09 268.187 218.944 262.889 217.806 257.835C216.667 252.782 213.624 248.362 209.309 245.495C205.789 243.225 202.042 241.327 198.129 239.831C193.619 238.143 189.471 235.613 185.905 232.377C184.538 231.386 183.583 229.926 183.226 228.276C182.868 226.625 183.132 224.901 183.967 223.433C185.16 220.6 186.502 218.066 187.843 215.234C189.093 212.787 189.493 209.994 188.98 207.295C188.468 204.596 187.071 202.145 185.011 200.327C180.021 195.773 174.334 192.049 168.166 189.296C157.899 185.013 147.938 180.032 138.352 174.388C133.251 171.131 128.966 166.745 125.83 161.568C123.813 157.773 122.934 153.478 123.295 149.195C123.071 147.595 123.205 145.965 123.689 144.423C124.173 142.881 124.995 141.466 126.094 140.281C127.193 139.096 128.543 138.171 130.044 137.573C131.545 136.975 133.161 136.718 134.774 136.823L143.718 136.077C152.513 136.077 155.644 128.624 150.724 121.17C147.685 117.556 144.056 114.481 139.991 112.077C135.806 109.552 131.819 106.712 128.066 103.58C121.059 97.1697 122.55 90.1633 131.494 86.8838C134.923 85.6912 138.501 84.7968 142.078 83.7533C143.625 83.4901 145.039 82.7154 146.093 81.5531C147.147 80.3908 147.781 78.9083 147.892 77.3432C148.429 70.0528 147.62 62.7259 145.507 55.7279C143.687 49.5589 142.537 43.2115 142.078 36.7959C141.696 32.3863 143.035 27.9998 145.813 24.5544C148.592 21.109 152.595 18.8719 156.985 18.3111C159.843 17.6895 162.812 17.8157 165.606 18.6774C168.401 19.5392 170.925 21.1074 172.936 23.2304C178.31 28.7388 183.291 34.6166 187.843 40.8208C190.676 44.3985 193.657 47.6781 196.787 50.9576C197.684 52.0481 198.923 52.8035 200.303 53.1011C201.683 53.3988 203.124 53.2213 204.39 52.5974L209.309 50.3613C211.695 49.3178 213.931 47.9762 216.465 47.0818C217.82 46.5476 219.273 46.3032 220.728 46.3644C222.184 46.4255 223.611 46.7908 224.917 47.4368C226.223 48.0828 227.379 48.9951 228.311 50.1149C229.243 51.2348 229.93 52.5375 230.328 53.939C231.695 58.2717 232.102 62.8498 231.521 67.3554C231.224 70.927 231.224 74.517 231.521 78.0886C231.557 79.0692 231.812 80.0295 232.268 80.8984C232.724 81.7674 233.369 82.523 234.156 83.1095C234.942 83.696 235.851 84.0985 236.814 84.2873C237.777 84.4761 238.77 84.4464 239.72 84.2005C242.552 84.2005 245.236 82.5607 248.068 81.8153C249.964 81.2236 251.974 81.0916 253.932 81.4302C255.889 81.7687 257.738 82.5682 259.325 83.7624C260.913 84.9567 262.193 86.5115 263.061 88.2984C263.929 90.0853 264.36 92.0531 264.317 94.0392C263.924 100.674 261.818 107.094 258.205 112.673C256.379 115.73 254.784 118.919 253.434 122.214C253.016 123.079 252.921 124.066 253.167 124.996C253.413 125.926 253.984 126.737 254.776 127.282C256.98 129.043 259.445 130.451 262.081 131.456C266.583 132.706 270.489 135.53 273.087 139.414C275.686 143.298 276.805 147.985 276.242 152.624C276.19 154.841 275.672 157.022 274.722 159.025C273.772 161.028 272.41 162.809 270.727 164.252C268.168 166.462 265.822 168.908 263.72 171.556C262.748 172.458 262 173.575 261.537 174.818C261.074 176.061 260.908 177.395 261.053 178.714C261.198 180.032 261.649 181.299 262.371 182.411C263.093 183.524 264.066 184.452 265.211 185.122C267.049 186.407 268.614 188.044 269.817 189.937C271.019 191.83 271.835 193.943 272.217 196.153C272.57 197.786 272.552 199.477 272.165 201.102C271.778 202.728 271.032 204.245 269.981 205.544L268.491 207.333C262.077 213.098 257.122 220.302 254.031 228.352Z" fill="white"/>
</g>
<defs>
<clipPath id="clip0">
<rect x="0.583984" y="0.124146" width="400" height="462.12" fill="white"/>
</clipPath>
</defs>
</svg>
