<svg width="401" height="517" viewBox="0 0 401 517" fill="none" xmlns="http://www.w3.org/2000/svg">
<g clip-path="url(#clip0)">
<path fill-rule="evenodd" clip-rule="evenodd" d="M8.36872 6.35013C2.79931 95.3442 10.3303 185.469 33.8592 271.599C48.5338 276.544 56.7337 244.653 70.959 238.223C102.39 203.617 135.806 167.977 151.937 123.3C159.052 91.7073 128.547 60.7512 96.9487 65.0331C66.3372 67.3445 44.1818 106.115 63.1839 132.146C80.4222 157.742 127.582 140.689 119.796 109.911C115.387 95.4815 95.7545 94.2727 104.033 112.63C101.972 130.459 74.262 150.695 72.9883 120.865C64.1005 94.9156 100.073 71.6221 120.886 88.7652C144.662 106.628 136.833 148.444 108.508 157.209C79.4581 169.089 43.9896 148.183 38.9986 117.425C28.8042 76.0982 68.7642 35.1474 109.966 38.8024C150.75 39.425 185.703 77.9827 181.256 118.811C177.991 161.115 150.017 195.632 137.849 235.365C115.385 298.236 103.76 370.171 129.269 433.941C137.552 457.444 156.815 473.564 175.18 489.101C184.661 498.631 205.376 516.905 199.476 491.111C200.045 329.513 200.229 167.913 199.751 6.31499C135.96 5.45791 72.1586 5.47049 8.36872 6.35013ZM285.002 39.3588C237.877 42.5443 205.063 97.3194 222.776 140.748C237.613 186.233 264.785 227.099 274.297 274.476C289.063 332.055 292.472 396.781 262.86 450.416C270.064 450.859 288.794 421.255 299.538 411.308C320.051 387.062 313.86 353.664 312.38 324.577C307.276 266.49 283.725 212.448 258.578 160.597C247.585 135.489 238.831 100.107 262.252 79.15C278.051 64.7386 303.371 60.4666 322.14 71.5562C298.795 81.9192 310.889 109.535 304.096 126.754C293.871 145.126 252.905 117.754 273.629 144.027C294.861 170.115 341.688 163.695 355.362 132.867C373.803 99.3238 353.826 52.7102 316.759 42.9005C306.601 39.4282 295.677 38.1406 285.002 39.3588Z" fill="#FBFBFB"/>
<path fill-rule="evenodd" clip-rule="evenodd" d="M1.63228 0.794301C0.93843 43.9885 -0.906797 87.9775 2.98359 130.704C3.62459 146.553 6.13709 162.868 7.91597 179.702C9.60878 190.597 12.5781 207.208 13.4286 214.834C17.6223 231.657 19.7742 248.808 25.5593 265.711C26.7963 274.682 31.2615 285.275 33.381 294.347C38.8312 310.359 45.0924 326.887 51.2653 341.055C54.0515 346.284 56.6353 352.805 60.6598 359.545C63.366 366.186 65.9105 369.323 68.5653 374.461C70.4995 377.317 74.4755 384.43 78.1891 390.362C82.5294 396.129 86.3502 402.954 91.5415 408.994C94.1187 413.946 101.115 421.571 105.396 427.8C113.533 437.137 118.394 442.995 124.997 449.855C129.839 456.329 131.174 456.191 136.518 462.625C147.267 473.037 157.828 483.482 168.741 492.921C170.977 493.791 178.868 501.876 182.599 504.097C187.257 508.147 193.312 513.284 198.815 516.218C208.622 514.318 214.756 505.152 222.355 500.557C231.252 492.907 242.868 483.468 251.888 473.952C262.986 463.61 274.071 451.876 284.521 439.919C287.961 434.937 293.547 429.59 296.045 425.858C299.093 421.979 305.485 414.337 309.769 407.883C313.242 403.373 316.223 398.98 319.963 393.336C321.88 390.745 324.098 386.449 327.301 381.69C334.124 371.683 339.181 360.357 344.223 351.152C347.076 343.286 353.238 333.37 355.729 323.869C360.63 313.726 363.09 303.615 367.201 293.42C368.529 288.399 371.556 277.119 374.029 269.91C376.077 261.311 377.052 257.729 379.756 247.624C382.608 230.953 387.641 215.334 388.864 198.372C391.363 188.85 391.6 181.857 393.455 171.213C393.903 165.316 394.941 152.348 396.339 144.62C397.889 132.271 397.651 118.546 399.261 107.479C399.672 82.295 401.263 55.8077 400.254 31.5381C399.369 21.4277 399.217 10.1918 398.739 0.190931C266.373 0.442822 133.974 -0.42426 1.63228 0.794301ZM199.751 6.31499C200.214 173.603 200.089 340.9 199.37 508.187C177.981 492.475 157.223 475.041 139.943 454.811C104.573 396.173 111.792 323.543 129.441 260.329C140.924 216.797 166.002 178.492 179.158 135.661C189.308 99.737 170.755 57.6369 135.011 44.5673C98.0193 28.5073 47.2744 48.6432 39.3009 90.1558C29.9884 123.226 56.1639 162.677 91.9532 160.559C121.744 161.379 146.69 126.26 130.321 99.4907C120.29 79.1109 89.358 76.9667 77.9272 97.1543C61.9902 105.623 79.0179 156.965 93.5366 129.818C107.524 121.242 99.3672 105.61 105.777 96.747C128.298 102.217 120.883 139.087 100.234 143.471C72.9366 153.395 47.1501 121.263 58.6117 95.7889C68.5333 61.9422 116.241 55.617 138.876 80.1462C158.086 98.0525 155.039 127.931 141.407 148.145C113.593 196.748 72.0817 234.915 36.258 277.259C18.8248 223.301 11.7245 165.966 8.07137 109.371C6.44668 75.0849 5.29805 40.565 8.36875 6.35013C72.1443 5.47052 135.975 5.45793 199.751 6.31499ZM298.887 39.161C338.688 40.7811 373.294 82.6163 359.839 121.898C352.127 154.692 309.179 172.343 281.77 151.785C271.143 147.556 257.897 116.744 277.968 133.569C304.117 142.511 313.41 111.025 305.846 91.806C304.723 78.4281 336.861 71.9043 311.629 67.1489C280.448 57.4052 243.805 83.6018 247.311 117.247C250.737 157.738 276.145 191.729 289.13 229.366C307.586 276.998 316.94 328.89 313.454 379.96C310.536 407.142 285.371 424.987 270.064 445.833C260.946 457.306 259.065 455.201 266.614 443.121C296.523 382.181 286.041 311.017 267.164 248.466C254.661 208.066 230.591 172.113 220.004 131.146C213 98.7781 227.698 62.7672 257.966 47.7429C270.397 41.0284 284.785 37.8001 298.887 39.161Z" fill="#4C7BB2"/>
</g>
<defs>
<clipPath id="clip0">
<rect x="0.583984" y="0.124146" width="400" height="516.094" fill="white"/>
</clipPath>
</defs>
</svg>
