<svg width="401" height="467" viewBox="0 0 401 467" fill="none" xmlns="http://www.w3.org/2000/svg">
<g clip-path="url(#clip0)">
<path d="M0.583984 0.124146H400.584C400.143 196.317 379.398 344.566 200.612 466.083C20.9702 344.566 0.997777 196.814 0.583984 0.124146Z" fill="url(#paint0_linear)"/>
<path d="M22.653 141.172C22.653 137.807 22.653 135.959 22.653 135.959C22.653 135.435 23.784 123.048 28.1702 121.945C30.1012 121.448 32.3357 123.159 34.8461 127.021C44.253 141.476 106.405 213.393 135.481 237.366C137.439 238.966 139.894 240.952 143.012 243.434L143.591 242.966C148.115 239.462 152.087 236.814 155.287 234.69C157.961 233.238 160.39 231.376 162.487 229.172C163.95 226.772 170.763 207.103 170.763 200.124C170.763 199.959 170.763 199.821 170.763 199.683C170.432 193.145 169.798 177.255 169.798 172.703C169.79 169.591 169.476 166.486 168.86 163.435C168.86 163.269 160.915 144.51 157.687 134.497C156.281 130.166 155.591 128.207 155.205 127.131C154.808 126.109 154.53 125.044 154.377 123.959V123.655C154.244 122.742 154.189 121.819 154.212 120.897C154.212 115.379 155.232 104.897 155.674 100.4V99.0207C155.762 98.1947 155.9 97.3748 156.087 96.5655C156.28 95.807 156.391 95.0303 156.418 94.2483C156.399 93.2918 156.173 92.3509 155.756 91.4897C155.207 90.0317 154.383 88.6926 153.329 87.5448L152.915 86.1104L58.7633 104.069L75.6185 110.469V110.745L33.0805 106.883L78.2667 82.6621L78.4323 82.8828L65.4668 96.6759L151.646 80.1242C152.584 77.9448 155.26 72.8966 160.115 71.8483C163.646 71.0207 167.618 72.4552 171.894 76.0966L240.418 63.0483C241.658 59.3909 244.536 56.5231 248.198 55.2966C251.26 54.2759 256.115 54.0552 261.825 58.8828V59.1862L388.998 34.6897C389.218 34.6897 392.005 36.2345 392.005 38.2483C392.005 39.3793 391.094 40.4552 389.246 41.3931L263.177 65.4759C262.613 70.1489 259.953 74.3114 255.95 76.7862L253.605 96.4C253.187 102.732 252.385 109.034 251.205 115.269C250.641 116.653 250.006 118.007 249.301 119.324C247.073 123.297 245.402 127.558 244.336 131.986C243.002 139.337 241.28 146.611 239.177 153.779L235.177 164.814C233.482 169.532 230.876 173.872 227.508 177.586C227.15 178.331 226.267 179.959 225.136 182.055C221.79 187.824 218.823 193.805 216.253 199.959C215.797 201.705 215.583 203.506 215.618 205.31C215.616 207.731 215.809 210.148 216.198 212.538C216.576 214.043 217.036 215.525 217.577 216.979C218.969 220.534 219.95 224.236 220.501 228.014C221.15 231.107 222.346 234.059 224.032 236.731C225.151 238.771 226.137 240.881 226.984 243.048L227.618 244.924C229.986 251.173 231.949 257.568 233.494 264.069C233.872 266.021 234.725 267.849 235.977 269.393C236.947 270.469 237.588 271.799 237.825 273.228C237.721 276.743 239.443 280.062 242.377 282L243.756 283.103C247.674 286.248 252.032 289.807 253.218 293.393L254.791 298.221C257.301 305.835 261.494 318.552 261.494 319.655C263.276 323.915 265.388 328.029 267.812 331.959C268.722 332.124 277.412 333.917 277.55 336.676C277.55 337.614 278.267 340.952 279.481 346.634C291.205 355.214 301.081 362.386 308.75 367.876C280.529 403.738 245.301 435.793 200.887 465.945C175.891 449.199 152.367 430.354 130.57 409.614C102.57 379.269 80.915 349.614 66.0736 321.338C33.0805 258.745 26.4874 217.917 24.4185 189.366C22.8185 167.159 22.653 149.641 22.653 141.172ZM172.391 82.8828C170.373 85.518 168.53 88.2825 166.874 91.1586C166.712 91.6475 166.637 92.1611 166.653 92.6759C166.729 94.1017 166.951 95.516 167.315 96.8966C167.481 97.6138 167.646 98.3035 167.729 98.9104C168.833 104.176 170.308 109.356 172.143 114.414C172.964 116.941 173.337 119.592 173.246 122.248C173.246 123.297 173.246 124.014 173.246 124.014C173.246 124.014 176.005 129.09 177.025 130.579C178.046 132.069 186.129 141.283 188.722 142.248C191.315 143.214 193.384 149.09 193.687 150.028C195.453 149.669 196.446 146.386 197.329 143.986C197.494 143.462 197.66 142.993 197.798 142.579C198.016 141.931 198.119 141.249 198.101 140.566C197.926 137.981 197.492 135.421 196.805 132.924L196.501 131.545C196.312 130.684 196.22 129.805 196.225 128.924C196.139 123.316 199.01 118.076 203.784 115.131C209.025 112.372 215.812 115.462 219.067 116.924L220.474 117.531C222.598 118.331 224.694 122.8 225.246 123.986C225.526 123.397 225.898 122.857 226.35 122.386C227.805 119.869 229.015 117.218 229.963 114.469C230.294 113.291 230.489 112.078 230.543 110.855C230.649 108.85 231.011 106.866 231.618 104.952C232.336 103.048 233.66 99.6276 234.763 96.6759L236.501 92.1241L239.26 84.0966C240.749 79.931 242.322 75.5724 242.653 74.6621C242.7 74.3883 242.7 74.1083 242.653 73.8345C242.513 72.3998 242.101 71.0049 241.439 69.7241L172.391 82.8828ZM195.508 262.193C192.316 262.729 189.089 263.033 185.853 263.103C183.438 263.164 181.07 263.778 178.929 264.897L177.798 265.393C177.356 265.586 176.501 266.028 175.343 266.662L174.101 267.324C189.991 279.49 209.163 294.028 228.143 308.29C226.311 303.985 224.933 299.501 224.032 294.91C222.903 291.062 220.726 287.604 217.743 284.924C214.243 281.935 210.927 278.739 207.812 275.352C205.687 273.172 203.839 271.297 203.094 270.634C201.136 268.897 196.06 262.91 195.508 262.359" fill="black"/>
</g>
<defs>
<linearGradient id="paint0_linear" x1="0.583984" y1="233.09" x2="400.612" y2="233.09" gradientUnits="userSpaceOnUse">
<stop offset="0.37" stop-color="#DFC574"/>
<stop offset="1" stop-color="#9E7C28"/>
</linearGradient>
<clipPath id="clip0">
<rect x="0.583984" y="0.124146" width="400" height="466.21" fill="white"/>
</clipPath>
</defs>
</svg>
