<svg width="400" height="522" viewBox="0 0 400 522" fill="none" xmlns="http://www.w3.org/2000/svg">
<g clip-path="url(#clip0)">
<path d="M199.709 521.568C121.895 465.113 68.561 393.812 36.6483 303.623C7.70906 221.852 -3.90223 122.753 1.14434 0.672051L1.16528 0.19043H398.839L398.86 0.672051C403.896 122.753 392.284 221.841 363.356 303.623C331.443 393.812 278.109 465.113 200.295 521.568L200.002 521.777L199.709 521.568Z" fill="#0085CA"/>
<path opacity="0.99" d="M199.761 321.805C269.634 321.805 326.277 265.162 326.277 195.289C326.277 125.417 269.634 68.7736 199.761 68.7736C129.888 68.7736 73.2455 125.417 73.2455 195.289C73.2455 265.162 129.888 321.805 199.761 321.805Z" fill="#FFE000"/>
<path opacity="0.99" d="M199.761 298.913C256.991 298.913 303.385 252.519 303.385 195.289C303.385 138.059 256.991 91.6652 199.761 91.6652C142.531 91.6652 96.1371 138.059 96.1371 195.289C96.1371 252.519 142.531 298.913 199.761 298.913Z" fill="#0085CA"/>
<path fill-rule="evenodd" clip-rule="evenodd" d="M209.446 167.682V157.516C209.446 153.72 213.545 153.369 213.545 148.006V107.491C213.545 102.128 209.446 101.776 209.446 97.9805V89.9082C202.859 89.3846 196.447 89.5654 190.076 89.9082V97.9805C190.076 101.776 185.977 102.128 185.977 107.491V148.006C185.977 153.369 190.076 153.72 190.076 157.516V167.682H209.446Z" fill="#FFE000"/>
<path d="M190.076 92.0022V97.9805C190.076 101.776 185.977 102.128 185.977 107.491V148.006C185.977 153.369 190.076 153.721 190.076 157.516V167.682H209.446V157.516C209.446 153.721 213.545 153.369 213.545 148.006V107.491C213.545 102.128 209.446 101.776 209.446 97.9805V92.0022" stroke="#0085CA" stroke-width="3"/>
<path fill-rule="evenodd" clip-rule="evenodd" d="M227.368 185.605H237.534C241.33 185.605 241.682 181.505 247.045 181.505H287.56C292.923 181.505 293.274 185.605 297.07 185.605H305.142V204.974H297.07C293.274 204.974 292.923 209.073 287.56 209.073H247.045C241.682 209.073 241.33 204.974 237.534 204.974H227.368V185.605Z" fill="#FFE000"/>
<path d="M303.048 204.974H297.07C293.274 204.974 292.923 209.073 287.56 209.073H247.045C241.682 209.073 241.33 204.974 237.534 204.974H227.368V185.605H237.534C241.33 185.605 241.682 181.505 247.045 181.505H287.56C292.923 181.505 293.274 185.605 297.07 185.605H303.048" stroke="#0085CA" stroke-width="3"/>
<path fill-rule="evenodd" clip-rule="evenodd" d="M172.154 185.605H161.988C158.192 185.605 157.841 181.505 152.478 181.505H111.963C106.6 181.505 106.248 185.605 102.452 185.605H94.3802C93.8177 192.249 94.0252 198.636 94.3802 204.974H102.452C106.248 204.974 106.6 209.073 111.963 209.073H152.478C157.841 209.073 158.192 204.974 161.988 204.974H172.154V185.605Z" fill="#FFE000"/>
<path fill-rule="evenodd" clip-rule="evenodd" d="M210.406 69.437V48.6324C210.406 38.752 205.224 35.9246 199.761 35.9246C194.298 35.9246 189.117 38.752 189.117 48.6324V69.437" fill="#FFE000"/>
<path d="M210.406 69.437V48.6324C210.406 38.752 205.224 35.9246 199.761 35.9246C194.298 35.9246 189.117 38.752 189.117 48.6324V69.437" stroke="#0085CA" stroke-width="3"/>
<path fill-rule="evenodd" clip-rule="evenodd" d="M210.406 321.142V341.946C210.406 351.827 205.224 354.654 199.761 354.654C194.298 354.654 189.117 351.827 189.117 341.946V321.142" fill="#FFE000"/>
<path d="M210.406 321.142V341.946C210.406 351.827 205.224 354.654 199.761 354.654C194.298 354.654 189.117 351.827 189.117 341.946V321.142" stroke="#0085CA" stroke-width="3"/>
<path fill-rule="evenodd" clip-rule="evenodd" d="M209.446 222.896V233.063C209.446 236.858 213.545 237.21 213.545 242.573V283.088C213.545 288.451 209.446 288.803 209.446 292.598V300.67C202.869 301.396 196.436 301.253 190.076 300.67V292.598C190.076 288.803 185.977 288.451 185.977 283.088V242.573C185.977 237.21 190.076 236.858 190.076 233.063V222.896H209.446Z" fill="#FFE000"/>
<path d="M190.076 298.576V292.598C190.076 288.803 185.977 288.451 185.977 283.088V242.573C185.977 237.21 190.076 236.858 190.076 233.063V222.896H209.446V233.063C209.446 236.858 213.545 237.21 213.545 242.573V283.088C213.545 288.451 209.446 288.803 209.446 292.598V298.576" stroke="#0085CA" stroke-width="3"/>
<path fill-rule="evenodd" clip-rule="evenodd" d="M325.613 205.934H346.418C356.298 205.934 359.126 200.753 359.126 195.289C359.126 189.826 356.298 184.645 346.418 184.645H325.613" fill="#FFE000"/>
<path d="M325.613 205.934H346.418C356.298 205.934 359.126 200.753 359.126 195.289C359.126 189.826 356.298 184.645 346.418 184.645H325.613" stroke="#0085CA" stroke-width="3"/>
<path fill-rule="evenodd" clip-rule="evenodd" d="M73.909 205.934H53.1043C43.2239 205.934 40.3965 200.753 40.3965 195.289C40.3965 189.826 43.2239 184.645 53.1043 184.645H73.909" fill="#FFE000"/>
<path d="M73.909 205.934H53.1043C43.2239 205.934 40.3965 200.753 40.3965 195.289C40.3965 189.826 43.2239 184.645 53.1043 184.645H73.909" stroke="#0085CA" stroke-width="3"/>
<path fill-rule="evenodd" clip-rule="evenodd" d="M103.85 113.091L88.8653 98.6594C81.7488 91.8054 83.3065 86.1122 87.0963 82.1772C90.8861 78.2421 96.5168 76.4716 103.633 83.3256L118.618 97.7576" fill="#FFE000"/>
<path d="M103.85 113.091L88.8653 98.6594C81.7488 91.8054 83.3065 86.1122 87.0963 82.1772C90.8861 78.2421 96.5168 76.4716 103.633 83.3256L118.618 97.7576" stroke="#0085CA" stroke-width="3"/>
<path fill-rule="evenodd" clip-rule="evenodd" d="M295.672 113.091L310.657 98.6594C317.774 91.8054 316.216 86.1122 312.426 82.1772C308.636 78.2421 303.006 76.4716 295.889 83.3256L280.904 97.7576" fill="#FFE000"/>
<path d="M295.672 113.091L310.657 98.6594C317.774 91.8054 316.216 86.1122 312.426 82.1772C308.636 78.2421 303.006 76.4716 295.889 83.3256L280.904 97.7576" stroke="#0085CA" stroke-width="3"/>
<path fill-rule="evenodd" clip-rule="evenodd" d="M118.618 292.818L104.186 307.803C97.3323 314.919 91.6391 313.362 87.704 309.572C83.769 305.782 81.9985 300.151 88.8525 293.035L103.284 278.05" fill="#FFE000"/>
<path d="M118.618 292.818L104.186 307.803C97.3323 314.919 91.6391 313.362 87.704 309.572C83.769 305.782 81.9985 300.151 88.8525 293.035L103.284 278.05" stroke="#0085CA" stroke-width="3"/>
<path fill-rule="evenodd" clip-rule="evenodd" d="M280.904 292.818L295.336 307.803C302.19 314.919 307.883 313.362 311.818 309.572C315.753 305.782 317.524 300.151 310.67 293.035L296.238 278.05" fill="#FFE000"/>
<path d="M280.904 292.818L295.336 307.803C302.19 314.919 307.883 313.362 311.818 309.572C315.753 305.782 317.524 300.151 310.67 293.035L296.238 278.05" stroke="#0085CA" stroke-width="3"/>
<path d="M190.076 97.9806H209.446" stroke="#0085CA" stroke-width="3"/>
<path d="M209.446 157.516H190.076" stroke="#0085CA" stroke-width="3"/>
<path d="M161.988 185.604V204.974" stroke="#0085CA" stroke-width="3"/>
<path d="M102.452 185.604V204.974" stroke="#0085CA" stroke-width="3"/>
<path d="M237.534 185.604V204.974" stroke="#0085CA" stroke-width="3"/>
<path d="M297.07 185.604V204.974" stroke="#0085CA" stroke-width="3"/>
<path d="M190.076 233.062H209.446" stroke="#0085CA" stroke-width="3"/>
<path d="M209.446 292.598H190.076" stroke="#0085CA" stroke-width="3"/>
<path d="M96.4742 204.974H102.452C106.248 204.974 106.6 209.073 111.963 209.073H152.478C157.841 209.073 158.192 204.974 161.988 204.974H172.154V185.605H161.988C158.192 185.605 157.841 181.505 152.478 181.505H111.963C106.6 181.505 106.248 185.605 102.452 185.605H96.4742" stroke="#0085CA" stroke-width="3"/>
<path d="M199.761 226.79C217.159 226.79 231.262 212.687 231.262 195.289C231.262 177.892 217.159 163.788 199.761 163.788C182.364 163.788 168.26 177.892 168.26 195.289C168.26 212.687 182.364 226.79 199.761 226.79Z" fill="#FFE000" stroke="#0085CA" stroke-width="3" stroke-linecap="round" stroke-linejoin="round"/>
<path opacity="0.99" d="M199.761 207.713C206.623 207.713 212.185 202.151 212.185 195.289C212.185 188.428 206.623 182.865 199.761 182.865C192.9 182.865 187.337 188.428 187.337 195.289C187.337 202.151 192.9 207.713 199.761 207.713Z" stroke="#0085CA" stroke-width="3" stroke-linecap="round" stroke-linejoin="round"/>
<path opacity="0.99" d="M199.761 321.805C269.634 321.805 326.277 265.162 326.277 195.289C326.277 125.417 269.634 68.7736 199.761 68.7736C129.888 68.7736 73.2455 125.417 73.2455 195.289C73.2455 265.162 129.888 321.805 199.761 321.805Z" stroke="#0085CA" stroke-width="3" stroke-linecap="round" stroke-linejoin="round"/>
<path opacity="0.99" d="M199.761 298.892C256.979 298.892 303.363 252.507 303.363 195.289C303.363 138.071 256.979 91.687 199.761 91.687C142.543 91.687 96.159 138.071 96.159 195.289C96.159 252.507 142.543 298.892 199.761 298.892Z" stroke="#0085CA" stroke-width="3" stroke-linecap="round" stroke-linejoin="round"/>
</g>
<defs>
<clipPath id="clip0">
<rect y="0.19043" width="400" height="521.59" fill="white"/>
</clipPath>
</defs>
</svg>
