<svg width="400" height="638" viewBox="0 0 400 638" fill="none" xmlns="http://www.w3.org/2000/svg">
<g clip-path="url(#clip0)">
<path d="M339.112 156.123L341.649 153.586V151.894C341.685 150.904 341.471 149.92 341.028 149.034C340.585 148.147 339.926 147.386 339.112 146.82H338.266L343.34 129.061L344.25 125.125C346.927 124.01 347.76 123.802 348.875 121.125L349.587 118.375C349.689 117.255 350.03 116.666 349.587 115.632C349.144 114.599 347.382 113.198 346.5 112.5L356.375 78.875C360.603 62.8073 365.801 45.3801 370.875 29.3125L362.188 25L357.812 23.6875C357.262 27.5052 356.025 34.2623 354.334 37.7294L344.125 34.25L344.938 25.9375C345.385 23.7061 346.607 21.3975 346.723 19.1247L323.044 14.0507H321.353V16.5877C320.214 20.4655 319.366 24.423 318.816 28.427H309.514C307.822 28.427 306.438 27.1288 306.438 25.4375C306.354 24.3115 306.791 22.876 306.875 21.75L307.312 19.1247C307.828 17.4807 308.622 15.7731 308.668 14.0507L292.6 11.5137H291.755L287.526 41.112C287.526 41.9577 286.096 44.875 285.25 44.875L271.459 41.9577L262.156 40.2664C261.757 40.1453 261.394 39.9275 261.099 39.6325C260.804 39.3375 260.586 38.9743 260.465 38.575V33.501C261.311 24.1987 262.156 15.7421 263.002 6.43973L260.465 5.1875L237.632 3.90273V16.5877L235.941 18.279H219.873C219.873 16.5877 219.873 14.8964 219.873 14.0507C219.873 13.2051 219.873 8.97673 219.873 6.43973V2.2114H215.645C202.973 1.39275 191.234 0.993848 178.562 1.8125C178.476 3.22063 178.164 4.18593 178.25 5.59406C178.25 6.43973 178.25 7.96683 178.25 8.8125C178.25 9.65816 178.25 10.7793 178.25 11.625C178.202 13.6247 178.104 15.5004 177.59 17.4334H164.905L163.213 2.2114H161.522L138.689 5.59406C138.689 11.5137 139.535 18.2791 140.38 24.1987V38.575H139.535L127.695 40.2664L118.375 41.25L115.856 24.1987L113.438 8.8125L99 10.375L100.634 25.0444H99.7885L91.3318 26.7357H90.4861C89.2344 23.1769 88.3835 19.4895 87.9491 15.7421V12.3594L73.75 14.5L61.875 17.9375L62.5792 21.6617C63.4355 24.4141 64.0024 27.2483 64.2705 30.1184L65.0625 33.25L54.375 35.875C53.2852 33.1352 51.602 28.1138 50.9375 24.625L48.875 20.875L32.875 26.7357L41.4375 58.0253L46.5115 74.9387C49.8942 85.9323 53.2768 96.926 55.8138 107.92C55.0489 108.531 54.4259 109.302 53.9878 110.178C53.5498 111.054 53.3072 112.015 53.2768 112.994C53.3615 114.162 53.6476 115.306 54.1225 116.376C54.6581 117.854 55.5596 119.172 56.7426 120.208C57.9257 121.243 59.3518 121.961 60.8878 122.296H61.7335V125.679L65.9618 143.438C65.4367 143.831 65.0105 144.342 64.7169 144.929C64.4233 145.516 64.2705 146.164 64.2705 146.82C64.3773 148.124 64.9832 149.335 65.9618 150.203L68.25 153.586L339.112 156.123Z" fill="#EEB310"/>
<path d="M342.495 152.74C342.558 152.178 342.558 151.611 342.495 151.049C342.505 149.851 342.198 148.671 341.604 147.631C341.009 146.591 340.149 145.728 339.112 145.129L344.186 126.524C346.814 125.338 348.919 123.233 350.106 120.605V118.068C350.434 116.689 350.37 115.245 349.921 113.901C349.473 112.556 348.658 111.363 347.569 110.457C356.025 83.3952 362.791 55.4883 372.093 28.427V25.89L359.408 21.6616C357.717 21.6616 356.025 19.9703 356.025 21.6616C355.563 25.7685 354.42 29.7698 352.643 33.5009L345.032 31.8096C345.032 27.5813 346.723 22.5073 346.723 18.279L322.199 13.205C322.199 13.205 320.507 12.3593 320.507 14.0506C319.083 18.4815 317.953 23.0015 317.125 27.5813H308.668C306.131 27.5813 307.822 23.353 307.822 19.9703C307.822 16.5876 309.514 13.205 307.822 13.205L291.755 10.668C291.755 10.668 290.063 10.668 290.063 12.3593L285.835 42.8033C285.835 42.8033 285.835 44.4946 284.989 44.4946L262.156 38.5749H260.465C261.311 27.5813 262.279 16.5876 263.125 5.59397C263.125 5.59397 260.465 4.7483 259.619 4.7483C252.124 3.06896 244.467 2.21819 236.786 2.21131V15.742H220.719C220.719 10.668 220.719 5.59397 220.719 1.36564H219.873C205.812 0.167675 191.688 -0.114809 177.59 0.519973C176.744 6.43964 178.436 11.5136 176.744 16.5876H165.751L164.059 1.36564H163.214L137.844 4.7483C138.689 15.742 139.535 27.5813 140.381 37.7293L120.085 40.2663H119.239C117.548 29.2726 115.856 19.1246 114.165 8.13097L98.0973 9.8223H97.2516L98.9429 24.1986L91.3319 25.89C89.7699 21.2106 88.6377 16.3986 87.9493 11.5136L76.1099 13.205L60.8879 16.5876C61.7336 22.5073 64.2706 27.5813 64.2706 32.6553L54.9683 35.1923C52.4313 30.1183 51.5856 24.1986 49.8943 19.1246C43.4887 20.3874 37.2472 22.3733 31.2896 25.0443L40.592 57.1796C45.666 74.0929 51.5856 90.1606 54.9683 107.92C53.7919 109.125 53.0025 110.655 52.7012 112.312C52.3998 113.97 52.6003 115.679 53.277 117.222C53.7614 118.819 54.6322 120.272 55.8123 121.452C56.9924 122.632 58.4453 123.503 60.0423 123.987L65.1163 145.129C64.3688 145.56 63.7435 146.174 63.2996 146.914C62.8557 147.654 62.6078 148.495 62.5793 149.357C62.5681 150.139 62.7118 150.915 63.0021 151.641C63.2924 152.366 63.7235 153.027 64.2706 153.586H0V433.501V437.729C7.90407e-07 490.773 21.0714 541.643 58.5786 579.151C96.0859 616.658 146.957 637.729 200 637.729C253.043 637.729 303.914 616.658 341.421 579.151C378.929 541.643 400 490.773 400 437.729V152.74H342.495ZM330.655 152.74C273.15 133.29 208.879 129.907 147.992 134.981C121.339 138.353 95.0268 144.012 69.3446 151.894C68.5764 151.919 67.8229 151.68 67.208 151.219C66.5932 150.758 66.1537 150.101 65.9619 149.357C65.8749 148.689 65.9894 148.01 66.2907 147.407C66.592 146.805 67.0665 146.306 67.6533 145.975C100.877 136.844 134.831 130.619 169.133 127.37H242.706L268.922 130.753C291.88 133.807 314.521 138.901 336.575 145.975C337.333 146.342 337.926 146.979 338.239 147.761C338.552 148.543 338.561 149.414 338.266 150.203H329.81L330.655 152.74ZM347.569 99.4629L318.816 91.8519V85.9322C328.59 88.059 338.199 90.8852 347.569 94.3889V99.4629ZM345.032 108.765L339.112 107.074L333.192 105.383L334.884 98.6172L345.877 102C347.569 102.846 345.032 107.074 345.032 108.765ZM293.446 87.6236L283.298 85.9322C283.394 83.6577 283.676 81.395 284.144 79.1669L294.292 81.7039L316.279 86.7779C316.279 88.4692 315.433 91.0062 314.588 92.6976L293.446 87.6236ZM299.366 91.8519L297.674 97.7716L284.989 95.2346H280.761C280.761 93.5432 280.761 91.8519 281.607 90.1606L299.366 91.8519ZM304.44 79.1669C305.147 76.3786 305.711 73.5561 306.131 70.7103C316.401 72.3764 326.566 74.6353 336.575 77.4756C335.97 80.637 335.122 83.747 334.038 86.7779L305.285 80.0126L304.44 79.1669ZM302.748 92.6976L331.501 98.6172L329.81 105.383L301.903 98.6172C301.903 96.0802 302.748 94.3889 302.748 92.6976ZM350.106 91.8519L338.266 88.4692C339.112 85.0866 339.958 82.5496 340.803 79.1669L352.643 83.3952L350.106 91.8519ZM353.488 79.1669H350.951L324.736 71.5559C325.05 68.6928 325.616 65.863 326.427 63.0993L356.025 72.4016C355.32 74.7069 354.473 76.9664 353.488 79.1669ZM308.668 55.4883L311.205 47.0316C321.816 48.7563 332.277 51.301 342.495 54.6426C341.959 57.5453 341.108 60.381 339.958 63.0993C329.738 59.7641 319.278 57.2196 308.668 55.4883ZM356.871 68.1733L343.34 63.9449L345.877 55.4883L358.562 59.7166C358.481 62.5519 358.198 65.3779 357.717 68.1733H356.871ZM359.408 56.3339L352.643 54.6426L329.81 47.8773V40.2663C340.38 42.5367 350.824 45.3595 361.099 48.7229C361.068 51.2816 360.785 53.8309 360.254 56.3339H359.408ZM358.562 25.0443L367.865 28.427L366.173 35.1923L356.871 31.8096L358.562 25.0443ZM323.044 16.5876L343.34 20.816L341.649 28.427L329.81 25.89L321.353 24.1986C321.681 21.615 322.247 19.0671 323.044 16.5876ZM294.292 12.3593L306.131 14.0506C305.285 16.5876 305.285 17.4333 304.44 19.1246L292.6 17.4333L294.292 12.3593ZM292.6 22.5073L304.44 24.1986C304.44 25.89 303.594 27.5813 305.285 28.427L318.816 30.964C320.507 30.1183 320.507 28.427 321.353 27.5813L337.421 30.1183L342.495 31.8096C343.34 32.6553 341.649 34.3466 343.34 35.1923L356.025 38.5749C356.871 38.5749 356.871 36.8836 357.717 35.1923L366.173 38.5749C365.74 41.1392 365.175 43.6795 364.482 46.1859L324.736 35.1923L291.755 29.2726C291.775 26.9925 292.059 24.7223 292.6 22.5073ZM290.909 32.6553L309.514 36.0379L328.118 40.2663C328.118 41.9576 328.118 45.3403 327.273 47.0316L290.909 40.2663C290.582 37.7399 290.582 35.1817 290.909 32.6553ZM289.218 42.8033L307.822 46.1859C306.977 48.7229 306.977 52.1056 306.131 54.6426L288.372 51.2599L289.218 42.8033ZM287.526 54.6426L322.199 61.4079L320.507 69.8646C310.359 67.3276 300.211 66.4819 290.063 64.7906L285.835 63.0993L287.526 54.6426ZM302.748 69.8646L301.057 78.3213L284.144 74.9386C284.508 72.3614 285.074 69.8166 285.835 67.3276L302.748 69.8646ZM260.465 41.9576L285.835 45.3403C284.144 61.4079 280.761 77.4756 278.224 93.5432L256.237 90.1606C257.928 74.9386 258.774 58.0253 260.465 41.9576ZM148.837 83.3952L174.207 81.7039C175.899 81.7039 175.053 85.0866 175.899 86.7779L148.837 88.4692C148.837 86.7779 147.992 83.3952 148.837 83.3952ZM147.992 80.8583V72.4016H166.596V80.0126L147.992 80.8583ZM169.133 78.3213V71.5559H174.207C174.238 74.1146 174.521 76.6639 175.053 79.1669L169.133 78.3213ZM173.362 67.3276C164.905 69.0189 154.757 68.1733 146.3 69.0189V62.2536L175.899 59.7166C174.423 61.9983 173.55 64.6169 173.362 67.3276ZM144.609 40.2663L173.362 38.5749H210.571L257.082 42.8033C256.955 45.075 256.673 47.3354 256.237 49.5686L236.786 45.3403C224.727 43.765 212.584 42.9178 200.423 42.8033H197.886C180.077 42.9155 162.289 44.0449 144.609 46.1859C144.431 44.2167 144.431 42.2355 144.609 40.2663ZM143.763 36.8836C143.34 34.3644 143.057 31.8234 142.918 29.2726H163.214C163.362 32.0896 163.362 34.9123 163.214 37.7293L143.763 36.8836ZM199.577 34.3466L168.288 36.0379C168.288 33.501 167.442 30.1183 167.442 27.5813H200.423C200.252 29.8489 199.97 32.1067 199.577 34.3466ZM202.96 26.7356C212.552 26.298 222.163 26.5807 231.712 27.5813H236.786C236.651 30.4129 236.369 33.2356 235.941 36.0379L202.96 34.3466V26.7356ZM238.478 37.7293V29.2726L257.082 31.8096C257.082 34.3466 256.237 36.8836 256.237 39.4206H254.545L238.478 37.7293ZM158.985 47.8773H165.751C165.751 51.2599 166.596 54.6426 165.751 57.1796L145.455 58.8709V50.4143L158.985 47.8773ZM169.133 56.3339V47.8773L192.812 46.1859H200.423C195.974 46.8179 191.676 48.2504 187.738 50.4143L180.127 55.4883L169.133 56.3339ZM184.355 55.4883C190.277 51.3827 197.494 49.5786 204.651 50.4143C212.039 52.5676 218.553 57.009 223.256 63.0993C224.947 65.6363 222.41 80.0126 221.564 86.7779H179.281C179.281 77.4756 172.516 63.0993 184.355 56.3339V55.4883ZM222.41 56.3339C218.411 52.7701 213.836 49.9106 208.879 47.8773L202.96 46.1859L235.941 48.7229C235.941 52.1056 235.941 54.6426 235.095 58.0253L222.41 56.3339ZM252.854 85.0866V90.1606L225.793 86.7779C226.638 84.2409 225.793 83.3953 226.638 80.8583L252.854 85.0866ZM226.638 78.3213V70.7103H234.249C234.418 73.2445 234.418 75.787 234.249 78.3213H226.638ZM238.478 80.0126C238.478 77.4756 238.478 74.9386 238.478 71.5559L251.163 73.2473H253.7V81.7039L238.478 80.0126ZM228.33 67.3276C228.33 65.6363 229.175 62.2536 226.638 60.5623H242.706L255.391 62.2536V69.8646L228.33 67.3276ZM238.478 57.1796C238.478 53.7969 239.323 52.1056 239.323 48.7229L256.237 52.1056V59.7166L238.478 57.1796ZM240.169 5.59397H259.619C259.619 8.15441 259.336 10.707 258.774 13.205L239.323 11.5136L240.169 5.59397ZM201.268 3.05697H217.336C217.336 6.43964 217.336 9.8223 217.336 12.3593H201.268C201.268 8.97663 201.268 6.43964 201.268 3.05697ZM180.127 3.05697H197.886C197.886 4.7483 197.886 6.43964 198.731 9.8223C199.577 13.205 198.731 12.3593 197.886 12.3593H180.127V3.05697ZM163.214 19.9703H180.127C180.253 18.5637 180.253 17.1486 180.127 15.742H217.336C218.182 17.4333 217.336 19.9703 218.182 19.9703H237.632C238.478 19.9703 238.478 17.4333 238.478 15.742L258.774 18.279V25.89L219.873 23.353C193.912 22.3842 167.915 23.2319 142.072 25.89V18.279L161.522 16.5876L163.214 19.9703ZM158.14 4.7483H160.677V13.205L143.763 14.8963H140.381C139.535 12.3593 139.535 9.8223 139.535 6.43964L158.14 4.7483ZM140.381 41.1119C140.884 41.8668 141.176 42.7429 141.226 43.6489C142.918 58.8709 144.609 74.0929 146.3 89.3149L127.696 91.0062C126.85 85.0866 126.004 80.0126 125.159 74.0929C124.313 68.1733 121.776 53.7969 120.93 43.6489L140.381 41.1119ZM92.1776 89.3149V82.5496L112.474 77.4756L123.467 75.7842V81.7039H117.548L92.1776 89.3149ZM107.4 95.2346L74.4186 102.846L72.7273 96.9259L85.4123 93.5432L105.708 89.3149C106.554 89.3149 106.554 90.1606 106.554 92.6976C106.898 93.228 107.182 93.7953 107.4 94.3889V95.2346ZM69.3446 84.2409C68.3824 81.5166 67.8129 78.6691 67.6533 75.7842L104.017 67.3276C104.738 70.1126 105.303 72.936 105.708 75.7842L69.3446 84.2409ZM122.622 85.9322L124.313 91.8519L111.628 94.3889C111.191 92.4409 110.908 90.4616 110.782 88.4692L122.622 85.9322ZM120.085 65.6363C120.611 68.1401 120.894 70.689 120.93 73.2473L109.091 75.7842C108.251 73.0276 107.685 70.1951 107.4 67.3276L120.085 65.6363ZM120.085 62.2536L98.0973 65.6363L87.9493 68.1733L86.2579 60.5623C97.2516 58.8709 106.554 55.4883 118.393 54.6426L120.085 62.2536ZM78.6469 58.8709L62.5793 62.2536V54.6426L99.7886 46.1859H101.48C101.976 48.9792 102.259 51.8063 102.326 54.6426L78.6469 58.8709ZM117.548 44.4946V51.2599H114.165L104.863 52.9513C104.863 50.4143 104.017 47.0316 104.017 44.4946L116.702 42.8033L117.548 44.4946ZM115.856 35.1923V40.2663C106.446 40.832 97.1052 42.2472 87.9493 44.4946H82.8753C82.4598 42.2582 82.1774 39.9991 82.0296 37.7293L115.011 33.5009L115.856 35.1923ZM111.628 10.668C112.071 13.4684 112.353 16.2919 112.474 19.1246H102.326C101.443 16.3789 100.876 13.5418 100.634 10.668H111.628ZM76.9556 15.742L85.4123 14.0506V21.6616L64.2706 27.5813L62.5793 19.1246C67.2088 17.3927 72.0396 16.2561 76.9556 15.742ZM34.6723 27.5813L48.203 23.353L49.8943 30.964L37.2093 35.1923L34.6723 27.5813ZM38.9006 41.1119C38.9006 40.2663 38.055 39.4206 38.055 38.5749L43.9746 36.8836L50.74 34.3466C51.5856 36.0379 51.5856 38.5749 52.4313 39.4206L67.6533 35.1923C68.4989 33.5009 67.6533 32.6553 66.8076 30.964L87.9493 26.7356L89.6406 30.1183H95.5602L103.171 28.427C103.171 26.7356 102.326 25.89 103.171 25.0443L114.165 23.353C114.81 26.1236 115.095 28.9661 115.011 31.8096L86.2579 37.7293H83.7209L43.9746 46.1859H40.592L38.9006 41.1119ZM41.4376 50.4143C53.277 46.1859 65.9619 43.6489 78.6469 41.1119V47.0316C78.6469 48.7229 76.9556 47.8773 74.4186 48.7229L53.277 53.7969L41.4376 57.1796C41.0549 54.657 41.0549 52.0912 41.4376 49.5686V50.4143ZM43.9746 59.7166H44.8203L56.6596 56.3339V63.9449L43.129 67.3276L43.9746 59.7166ZM46.5116 69.8646C51.6837 67.8315 57.0764 66.4123 62.5793 65.6363L82.8753 61.4079C83.9711 64.0938 84.5451 66.9639 84.5666 69.8646C72.8167 71.8258 61.2277 74.6523 49.8943 78.3213L46.5116 69.8646ZM49.8943 80.8583L64.2706 77.4756V80.8583C65.1294 82.4365 65.7021 84.1543 65.9619 85.9322H65.1163L52.4313 88.4692C51.5856 85.9322 50.74 82.5496 49.8943 80.0126V80.8583ZM53.277 91.8519L57.5053 90.1606L70.1903 86.7779L87.1036 83.3952C87.1036 85.0866 87.9493 87.6236 87.9493 89.3149L68.4989 93.5432L54.9683 97.7716L53.277 91.8519ZM69.3446 97.7716L71.0359 103.691L64.2706 106.228L57.5053 107.92L55.8139 101.154L69.3446 97.7716ZM56.6596 115.531C56.3136 114.619 56.2929 113.617 56.6011 112.692C56.9093 111.768 57.5275 110.978 58.3509 110.457C68.5822 106.948 79.0351 104.123 89.6406 102L114.165 96.9259C128.951 93.9246 143.927 91.9466 158.985 91.0062C177.59 89.3149 194.503 90.1606 212.262 90.1606C223.588 90.7059 234.879 91.8349 246.089 93.5432L284.989 98.6172L317.97 105.383L328.964 108.765L342.495 112.148C343.375 112.645 344.087 113.393 344.539 114.297C344.991 115.201 345.162 116.22 345.032 117.222C344.186 118.913 343.34 120.605 341.649 120.605C301.282 108.017 259.542 100.35 217.336 97.7716C178.792 95.1937 140.078 98.0404 102.326 106.228L60.0423 118.068C59.1966 118.913 57.5053 118.068 56.6596 115.531ZM62.5793 123.987C105.731 110.059 150.853 103.205 196.195 103.691C244.936 103.91 293.379 111.319 339.958 125.679C339.112 131.598 336.575 137.518 334.884 143.438L309.514 136.672C291.755 132.444 260.465 128.216 250.317 126.524C235.441 124.785 220.474 123.938 205.497 123.987C191.966 123.142 179.281 123.987 165.751 124.833L137.844 127.37C114.216 130.958 90.7887 135.757 67.6533 141.746L62.5793 123.987ZM174.207 140.055C220.568 137.87 267 142.428 312.051 153.586H297.674C276.272 148.483 254.498 145.09 232.558 143.438C207.782 141.697 182.915 141.697 158.14 143.438C139.604 144.641 121.211 147.471 103.171 151.894H89.6406C117.364 143.629 146.124 139.358 175.053 139.209L174.207 140.055ZM111.628 153.586C118.393 151.894 140.381 145.975 197.04 145.129C227.399 145.132 257.692 147.963 287.526 153.586H111.628Z" fill="black"/>
<path d="M185.201 213.628C183.32 216.329 181.625 219.154 180.127 222.085H174.207C168.565 223.629 162.638 223.821 156.908 222.646C151.177 221.47 145.805 218.96 141.226 215.32C149.079 218.196 157.388 219.629 165.751 219.548V217.857H162.368L154.757 216.165H150.529C158.576 218.206 167.005 218.206 175.053 216.165C177.691 214.919 180.677 214.621 183.51 215.32L185.201 213.628Z" fill="white"/>
<path d="M230.867 217.01V218.702C228.33 219.547 226.639 222.084 223.256 221.239C219.873 220.393 221.565 218.702 219.873 218.702C218.182 218.702 215.645 219.547 214.799 222.084C213.954 224.621 214.799 226.313 214.799 228.85C214.799 231.387 197.04 236.461 186.892 233.924C185.54 233.69 184.276 233.095 183.233 232.202C182.191 231.309 181.41 230.151 180.973 228.85C180.749 226.883 180.935 224.891 181.517 223C182.099 221.108 183.065 219.357 184.355 217.856C185.201 218.702 186.047 221.239 187.738 222.084C190.778 222.954 194 222.954 197.04 222.084C206.343 219.547 214.799 217.01 224.102 215.319C225.232 214.683 226.563 214.504 227.821 214.818C229.079 215.133 230.169 215.917 230.867 217.01Z" fill="white"/>
<path d="M284.99 220.393C282.574 222.002 280.783 224.389 279.916 227.159C273.994 229.563 267.426 229.861 261.311 228.004H270.613C270.613 227.159 271.459 227.159 270.613 226.313H265.539C268.076 224.622 272.305 226.313 274.842 224.622C277.379 222.93 281.607 219.548 284.99 220.393Z" fill="white"/>
<path d="M228.33 222.93L231.713 220.393C232.558 221.238 232.558 222.084 233.404 223.775C234.257 225.908 234.472 228.243 234.021 230.495C233.571 232.747 232.475 234.82 230.867 236.46C228.33 239.843 218.182 237.306 221.565 244.917H219.028C218.182 240.689 217.336 235.615 217.336 230.541C217.336 225.467 217.336 224.621 218.182 222.084C218.182 221.636 218.36 221.205 218.677 220.888C218.994 220.571 219.425 220.393 219.873 220.393C222.41 221.238 224.947 224.621 228.33 222.93Z" fill="white"/>
<path d="M289.218 222.084H285.835C285.835 221.239 288.372 221.239 289.218 222.084Z" fill="white"/>
<path d="M298.52 222.085C296.348 224.355 293.715 226.134 290.797 227.301C287.88 228.468 284.746 228.996 281.607 228.85H280.761L282.453 224.622C289.218 226.313 293.446 220.393 298.52 222.085Z" fill="white"/>
<path d="M305.285 223.775C305.615 224.589 305.615 225.499 305.285 226.312C301.903 228.004 298.52 225.467 295.983 228.849C297.671 226.103 299.657 223.551 301.903 221.238C303.594 222.084 304.44 222.084 305.285 223.775Z" fill="white"/>
<path d="M304.44 222.931V225.468H301.057C300.212 223.776 301.903 222.931 303.594 222.085L304.44 222.931Z" fill="black"/>
<path d="M312.896 224.621C312.959 225.72 312.662 226.808 312.052 227.723C311.442 228.638 310.551 229.331 309.514 229.695C307.822 231.387 305.285 228.004 304.44 230.541L283.298 252.528C283.298 251.683 280.761 250.837 282.452 249.991C288.576 243.158 295.069 236.664 301.903 230.541C301.903 228.85 304.44 228.85 305.285 228.85C306.131 228.85 306.131 224.621 309.514 223.776L312.896 224.621Z" fill="white"/>
<path d="M73.5728 243.226C75.2634 245.993 77.6189 248.294 80.4251 249.918C83.2313 251.543 86.3991 252.44 89.6405 252.528C92.1775 255.065 91.3318 258.448 91.3318 260.985C91.3318 263.522 72.7272 255.065 66.8075 248.3C62.5933 243.034 59.4348 237.004 57.5052 230.541C60.9835 238.144 66.5572 244.598 73.5728 249.146C74.4185 249.146 73.5728 248.3 73.5728 247.454C68.3543 241.981 64.5767 235.298 62.5792 228.004C65.9197 233.304 69.5916 238.389 73.5728 243.226Z" fill="white"/>
<path d="M119.239 234.769C118.935 236.269 118.362 237.701 117.548 238.997C115.856 240.689 119.239 246.608 115.011 244.917C114.547 241.55 114.547 238.136 115.011 234.769C115.242 234.42 115.556 234.134 115.925 233.936C116.294 233.738 116.706 233.634 117.125 233.634C117.543 233.634 117.956 233.738 118.324 233.936C118.693 234.134 119.007 234.42 119.239 234.769Z" fill="white"/>
<path d="M291.755 233.078C287.527 238.152 280.761 243.226 280.761 250.837C277.516 250.695 274.284 251.334 271.337 252.7C268.389 254.066 265.813 256.12 263.824 258.689C261.836 261.257 260.493 264.266 259.908 267.461C259.324 270.657 259.515 273.946 260.465 277.053C256.356 276.726 252.241 277.608 248.626 279.589C245.739 280.693 243.117 282.394 240.931 284.579C238.745 286.765 237.045 289.387 235.941 292.274C234.072 297.757 234.072 303.705 235.941 309.188H231.713C228.33 294.811 225.793 278.744 223.256 263.522H224.947C246.636 252.146 268.94 241.983 291.755 233.078Z" fill="white"/>
<path d="M98.9427 237.306C97.2514 238.152 94.7144 238.998 94.7144 240.689C94.7144 242.38 97.2514 254.22 93.8687 259.294C90.4861 264.368 93.023 255.065 92.1774 252.528C91.3317 249.991 83.7207 247.454 86.2577 240.689C88.7947 233.924 88.7947 237.306 90.486 237.306H98.9427Z" fill="white"/>
<path d="M117.548 247.455L125.159 245.763C126.85 245.763 126.85 247.455 126.85 248.3C127.13 250.094 126.879 251.931 126.128 253.584C125.376 255.237 124.157 256.634 122.622 257.603C112.474 262.677 105.708 252.529 97.2517 249.146C96.3126 247.023 96.0185 244.67 96.4061 242.381C96.6976 241.698 97.1637 241.104 97.7575 240.659C98.3513 240.214 99.0518 239.932 99.7887 239.844C106.554 239.844 110.782 246.609 117.548 247.455Z" fill="white"/>
<path d="M124.313 242.381C125.158 243.226 123.467 244.918 122.621 244.918H119.239C119.239 243.226 119.239 240.689 121.776 239.844C122.449 239.844 123.094 240.111 123.57 240.587C124.045 241.062 124.313 241.708 124.313 242.381Z" fill="white"/>
<path d="M227.484 247.454C226.638 250.837 228.33 255.911 223.256 257.602C220.133 258.116 216.932 257.825 213.953 256.757C212.642 255.624 211.643 254.174 211.051 252.546C210.459 250.918 210.293 249.165 210.571 247.454C216.143 246.241 221.911 246.241 227.484 247.454Z" fill="white"/>
<path d="M186.892 249.146C186.047 252.529 183.509 253.374 180.127 253.374L169.133 266.905C170.72 261.974 173.648 257.581 177.59 254.22C176.744 252.529 179.281 251.683 178.436 249.992C177.59 248.3 181.818 247.455 183.51 246.609C184.278 246.585 185.031 246.823 185.646 247.284C186.261 247.745 186.7 248.402 186.892 249.146Z" fill="white"/>
<path d="M334.884 251.683C334.884 257.603 333.192 265.214 339.112 268.596L336.575 271.979C334.035 268.486 332.397 264.42 331.806 260.141C331.216 255.863 331.692 251.505 333.192 247.455C334.884 248.301 334.884 250.837 334.884 251.683Z" fill="white"/>
<path d="M282.452 254.22C275.687 261.831 268.076 269.442 262.156 277.053V273.67L279.915 253.374C280.761 254.22 282.452 253.374 282.452 254.22Z" fill="white"/>
<path d="M175.053 254.219C171.226 257.526 168.559 261.972 167.442 266.904L162.368 268.596C158.335 270.946 155.119 274.475 153.153 278.709C151.188 282.943 150.567 287.677 151.374 292.274C146.151 293.468 141.247 295.776 136.998 299.04L134.461 302.422C131.323 307.465 130.121 313.474 131.078 319.336C131.584 320.691 131.87 322.118 131.924 323.564C130.017 323.396 128.097 323.693 126.329 324.429C124.562 325.165 122.999 326.32 121.776 327.792C120.93 314.262 119.239 300.731 118.393 287.2C136.346 274.675 155.296 263.644 175.053 254.219Z" fill="white"/>
<path d="M115.856 260.985V269.441H113.319C112.735 266.084 112.735 262.651 113.319 259.293C114.165 260.139 115.856 260.139 115.856 260.985Z" fill="white"/>
<path d="M323.045 269.442C325.875 274.062 327.61 279.269 328.119 284.664L325.582 287.201C324.736 279.59 318.816 272.825 323.045 265.214C323.116 266.622 323.116 268.033 323.045 269.442Z" fill="white"/>
<path d="M219.027 260.985C219.027 282.127 219.873 309.188 219.027 330.33C219.873 332.021 218.182 332.867 217.336 334.558C216.49 336.25 215.645 335.404 214.799 334.558C214.515 332.879 214.515 331.164 214.799 329.484C214.799 320.182 216.49 262.677 216.49 262.677C216.49 262.677 219.027 260.14 219.027 260.985Z" fill="white"/>
<path d="M229.176 310.034L221.565 314.262V266.059C223.256 281.281 226.639 295.657 229.176 310.034Z" fill="white"/>
<path d="M166.596 270.287L152.22 290.583C151.374 282.127 158.985 277.053 163.213 271.133L166.596 270.287Z" fill="white"/>
<path d="M212.262 269.442L196.195 350.626C191.93 355.901 189.549 362.448 189.429 369.23C189.431 372.631 189.714 376.025 190.275 379.378C189.429 381.915 186.047 383.607 184.355 384.452C180.851 387.121 178.028 390.581 176.117 394.549C174.207 398.518 173.262 402.882 173.362 407.285C173.362 408.977 173.362 409.822 173.362 410.668C174.431 415.002 175.845 419.244 177.59 423.353C172.636 424.896 168.422 428.207 165.751 432.655L164.059 437.729C161.217 447.391 161.217 457.666 164.059 467.328C164.041 468.51 164.333 469.676 164.905 470.71H164.059C160.138 466.322 156.733 461.498 153.911 456.334C141.302 434.198 134.876 409.079 135.307 383.607C137.014 361.519 143.774 340.118 155.064 321.057C166.354 301.995 181.873 285.783 200.423 273.67L212.262 269.442Z" fill="white"/>
<path d="M341.649 270.288C341.649 271.979 339.958 273.67 339.958 275.362C339.676 278.267 340.151 281.196 341.337 283.863C342.522 286.531 344.378 288.846 346.723 290.584C347.569 292.275 350.952 292.275 350.106 293.966C343.552 299.691 338.106 306.57 334.038 314.262C333.111 311.486 331.678 308.905 329.81 306.651C326.928 303.329 325.155 299.19 324.736 294.812C325.582 292.275 325.582 289.738 328.119 288.047C330.656 286.355 328.964 287.201 328.964 286.355C328.964 285.51 329.81 299.886 336.575 302.423H339.958C342.495 293.966 334.884 286.355 336.575 277.899C338.267 269.442 339.112 271.979 340.804 268.596L341.649 270.288Z" fill="white"/>
<path d="M122.621 271.978C122.557 275.095 122.274 278.203 121.776 281.281C117.958 282.707 113.754 282.707 109.936 281.281C107.399 279.589 106.554 276.207 106.554 274.515H122.621V271.978Z" fill="white"/>
<path d="M213.108 323.565C210.999 325.244 209.405 327.483 208.508 330.025C207.611 332.567 207.446 335.31 208.034 337.941C208.879 341.324 209.725 341.324 209.725 341.324H206.342L199.577 345.552C203.805 321.028 209.725 297.349 213.953 272.825H214.799L213.108 323.565Z" fill="white"/>
<path d="M259.62 280.435L239.324 305.805C238.651 304.813 238.351 303.614 238.478 302.422L257.083 280.435C257.896 280.106 258.806 280.106 259.62 280.435Z" fill="white"/>
<path d="M237.632 298.194C236.786 293.12 241.015 289.738 243.552 286.355L249.471 283.818L237.632 298.194Z" fill="white"/>
<path d="M115.856 288.892C115.856 303.268 115.011 322.718 115.011 337.095V361.619C114.489 362.442 113.7 363.06 112.775 363.369C111.85 363.677 110.848 363.656 109.937 363.31C110.782 340.477 111.628 317.644 112.474 293.966C113.319 289.737 110.782 284.663 115.856 286.355V288.892Z" fill="white"/>
<path d="M248.626 307.497C246.266 318.968 246.555 330.827 249.471 342.169C254.977 364.319 268.162 383.797 286.681 397.138H285.835C274.216 392.86 261.68 391.694 249.471 393.755V392.064L245.243 376.842L234.249 319.336C234.043 318.218 234.043 317.072 234.249 315.954C235.095 314.262 236.786 312.571 238.478 311.725C240.169 310.88 240.169 309.188 240.169 308.343L253.7 289.738C251.688 295.561 249.994 301.49 248.626 307.497Z" fill="white"/>
<path d="M109.937 294.812C109.091 314.262 109.091 335.404 108.245 355.7C106.554 356.545 104.017 357.391 103.171 359.082V362.465L100.634 365.848C101.48 360.774 102.326 348.089 102.326 348.089C104.863 330.33 107.4 313.417 109.091 295.658L109.937 294.812Z" fill="white"/>
<path d="M148.837 296.503C143.763 304.959 138.689 312.57 134.461 321.027C131.078 311.725 140.38 306.651 142.917 299.04C145.454 291.429 147.146 297.348 148.837 296.503Z" fill="white"/>
<path d="M352.643 296.503C351.466 298.539 350.777 300.821 350.63 303.169C350.484 305.516 350.883 307.866 351.797 310.033C352.643 312.57 358.562 312.57 356.025 316.799L353.488 324.41L348.414 337.94C341.649 334.558 334.884 329.484 334.884 321.027C335.767 318.658 336.901 316.39 338.266 314.262C341.841 307.453 346.727 301.417 352.643 296.503Z" fill="white"/>
<path d="M106.554 297.348C106.554 301.577 98.0975 367.539 95.5605 388.68C91.272 390.71 87.8734 394.238 86.0044 398.599C84.1354 402.96 83.9249 407.853 85.4125 412.359C87.0975 416.171 89.0767 419.847 91.3322 423.352C91.3322 424.198 91.3322 424.198 90.4865 425.044H84.5668C79.9572 427.349 76.3484 431.258 74.4188 436.037C73.1219 439.756 72.6028 443.702 72.8938 447.63C73.1847 451.557 74.2795 455.383 76.1102 458.87C66.8078 449.568 57.5055 441.957 53.2772 427.581C47.2271 411.359 46.0513 393.722 49.8945 376.841C52.8948 362.472 58.9515 348.916 67.6535 337.095C82.0298 316.799 93.0235 310.033 106.554 297.348Z" fill="white"/>
<path d="M119.239 321.027C118.393 325.256 121.776 330.33 117.547 333.712H116.702V299.886C119.239 306.651 118.393 314.262 119.239 321.027Z" fill="white"/>
<path d="M363.636 308.342C363.636 310.034 361.945 310.879 361.099 311.725C360.254 312.571 359.408 312.571 358.562 311.725C358.245 311.373 358.032 310.939 357.949 310.472C357.866 310.005 357.915 309.524 358.091 309.084C358.267 308.644 358.563 308.262 358.945 307.981C359.328 307.701 359.781 307.533 360.254 307.497L363.636 308.342Z" fill="white"/>
<path d="M373.784 314.263C373.784 315.954 375.476 317.645 374.63 318.491C372.536 319.067 370.324 319.056 368.236 318.46C366.148 317.863 364.264 316.704 362.791 315.108C361.945 313.417 364.482 313.417 365.328 311.726C366.173 310.034 368.71 310.034 370.402 310.88C371.831 311.658 373.006 312.833 373.784 314.263Z" fill="white"/>
<path d="M234.249 311.725L232.558 313.417C232.558 311.725 233.404 311.725 234.249 311.725Z" fill="white"/>
<path d="M230.867 316.799C227.462 320.796 224.353 325.036 221.564 329.484C220.918 327.289 220.633 325.005 220.719 322.719C223 318.922 225.852 315.499 229.175 312.571C229.722 313.129 230.153 313.79 230.444 314.516C230.734 315.241 230.878 316.017 230.867 316.799Z" fill="white"/>
<path d="M220.719 319.336C220.719 317.645 223.256 316.799 224.101 315.954L220.719 319.336Z" fill="white"/>
<path d="M368.71 321.873C371.247 322.719 372.939 321.028 374.63 321.873C373.879 331.016 370.665 339.783 365.328 347.243C361.945 352.317 355.18 351.472 350.106 352.317C348.528 355.236 347.388 358.37 346.723 361.62L341.649 376.842H338.266C345.032 356.546 350.951 335.404 358.562 315.108C359.155 317.269 360.509 319.143 362.373 320.386C364.237 321.629 366.488 322.157 368.71 321.873Z" fill="white"/>
<path d="M246.934 395.446L236.786 397.137L230.021 398.829C227.484 381.07 224.947 362.465 222.41 344.706C224.528 343.197 226.198 341.142 227.24 338.759C228.283 336.376 228.659 333.755 228.33 331.176L224.947 327.793C226.406 325.108 228.104 322.561 230.021 320.182C233.404 326.102 246.089 392.909 246.934 395.446Z" fill="white"/>
<path d="M130.233 326.947C128.072 331.928 125.527 336.735 122.622 341.323C122.002 338.835 121.717 336.275 121.776 333.712C125.159 331.175 126.004 326.947 130.233 326.947Z" fill="white"/>
<path d="M227.484 332.021C226.638 337.095 224.947 342.169 219.027 342.169C217.775 342.429 216.475 342.329 215.278 341.88C214.08 341.431 213.035 340.651 212.262 339.632C211.461 338.721 210.89 337.632 210.596 336.455C210.302 335.278 210.293 334.048 210.571 332.867C210.571 331.176 212.262 330.33 213.108 329.484C213.953 328.639 212.262 333.713 213.953 335.404C214.505 335.967 215.162 336.414 215.888 336.719C216.615 337.024 217.394 337.181 218.182 337.181C218.969 337.181 219.749 337.024 220.475 336.719C221.201 336.414 221.859 335.967 222.41 335.404C224.31 333.286 225.493 330.623 225.793 327.793C226.638 328.639 227.484 330.33 227.484 332.021Z" fill="white"/>
<path d="M118.393 352.317H116.702C117.548 348.934 115.011 343.86 118.393 341.323C118.695 340.083 119.273 338.926 120.085 337.941C120.947 340.302 121.244 342.833 120.95 345.33C120.656 347.827 119.78 350.22 118.393 352.317Z" fill="white"/>
<path d="M211.416 346.398C204.651 357.391 199.577 369.231 193.657 379.379C192.812 375.15 195.349 370.922 195.349 366.694C195.349 362.465 202.96 352.317 208.034 344.706H211.416V346.398Z" fill="white"/>
<path d="M219.027 346.397V397.982H212.262C212.262 380.223 213.108 361.619 213.953 343.86H218.182L219.027 346.397Z" fill="white"/>
<path d="M221.564 346.398C224.101 364.157 225.793 380.224 228.33 397.983L221.564 399.675V396.292C221.564 378.533 220.719 361.62 220.719 344.706L221.564 346.398Z" fill="white"/>
<path d="M203.806 348.088L197.04 359.082C196.93 356.767 197.417 354.462 198.454 352.389C199.49 350.316 201.042 348.544 202.96 347.243L203.806 348.088Z" fill="white"/>
<path d="M211.417 403.057L204.651 404.748C207.188 385.298 209.725 367.539 212.262 348.088C212.262 367.539 211.417 385.298 211.417 403.057Z" fill="white"/>
<path d="M210.571 351.471L202.114 406.439L186.892 412.359C187.489 402.731 189.779 393.284 193.657 384.452C198.731 373.459 203.805 363.311 209.725 352.317L210.571 351.471Z" fill="white"/>
<path d="M120.93 359.082C121.267 360.207 121.365 361.389 121.219 362.554C121.074 363.719 120.687 364.841 120.085 365.848C118.393 369.23 114.165 368.385 111.628 367.539C109.375 366.522 107.571 364.718 106.554 362.465C106.51 362.131 106.568 361.792 106.718 361.49C106.869 361.189 107.106 360.939 107.4 360.774C108.245 359.928 109.091 361.619 108.245 362.465C108.91 363.357 109.85 364.006 110.919 364.311C111.989 364.617 113.129 364.562 114.165 364.156C118.393 363.311 118.393 359.082 119.239 356.545C120.085 354.008 120.085 358.237 120.93 359.082Z" fill="white"/>
<path d="M192.812 369.23C191.966 369.23 192.812 368.385 192.812 367.539C193.077 364.578 193.94 361.701 195.349 359.082C194.895 362.551 194.043 365.956 192.812 369.23Z" fill="white"/>
<path d="M122.622 365.848C123.467 384.453 126.004 403.903 126.85 422.508H123.467C121.776 403.903 119.239 388.681 117.548 370.922C119.239 369.231 120.93 368.385 120.93 365.848H122.622Z" fill="white"/>
<path d="M105.708 366.694C104.856 369.344 103.722 371.896 102.326 374.305C102.141 372.796 102.271 371.266 102.708 369.811C103.145 368.355 103.878 367.006 104.863 365.848L105.708 366.694Z" fill="white"/>
<path d="M383.087 367.539V369.23C382.241 368.384 381.395 370.076 380.55 369.23L376.321 370.921C345.032 381.069 313.742 394.6 282.452 404.748C281.906 404.399 281.513 403.854 281.356 403.225C281.199 402.596 281.289 401.931 281.607 401.365C296.829 393.754 313.742 388.68 328.964 382.761L379.704 364.156C382.241 365.002 382.241 366.693 383.087 367.539Z" fill="white"/>
<path d="M104.862 380.224V381.915L102.325 379.378L107.399 369.23C107.74 371.139 107.69 373.097 107.254 374.986C106.818 376.875 106.005 378.657 104.862 380.224Z" fill="white"/>
<path d="M110.782 369.23C110.782 370.076 109.937 370.076 109.937 370.921H109.091V368.384L110.782 369.23Z" fill="white"/>
<path d="M114.165 370.076C114.165 381.916 115.011 393.755 115.011 406.44H107.4C108.245 395.446 107.4 385.298 109.091 374.305C110.782 363.311 110.782 368.385 114.165 370.076Z" fill="white"/>
<path d="M131.924 390.372C132.817 402.923 134.797 415.373 137.844 427.581C135.307 426.736 132.77 423.353 130.233 423.353C131.924 433.501 132.77 443.649 133.615 452.106H131.924C130.233 442.803 129.387 433.501 128.541 424.199L130.233 422.507C129.387 404.749 126.85 388.681 126.004 370.922C127.696 378.533 130.233 384.453 131.924 390.372Z" fill="white"/>
<path d="M121.776 420.816H116.702C115.856 405.594 115.856 391.218 115.856 374.305C118.393 388.681 120.085 405.594 121.776 420.816Z" fill="white"/>
<path d="M374.63 385.298L364.482 411.514C363.636 413.205 362.791 412.359 361.945 413.205C351.268 418.451 340.249 422.972 328.964 426.736C313.742 432.655 297.674 437.729 281.607 442.803C265.024 448.052 248.06 452.01 230.867 454.643C237.632 439.421 256.237 435.192 268.922 427.581C272.585 426.524 275.877 424.456 278.42 421.614C280.962 418.772 282.653 415.272 283.298 411.514L294.292 407.285L308.668 401.366L378.858 375.996L374.63 385.298Z" fill="white"/>
<path d="M103.171 385.298C102.96 385.881 102.624 386.41 102.185 386.849C101.747 387.287 101.217 387.624 100.634 387.835H98.943C98.943 384.452 99.7887 380.224 99.7887 376.841L103.171 385.298Z" fill="white"/>
<path d="M193.658 380.224V381.915C191.966 381.915 191.966 380.224 193.658 380.224Z" fill="white"/>
<path d="M105.708 419.125H102.325C103.171 407.285 104.862 395.446 106.554 384.452C106.554 394.6 106.554 408.131 105.708 419.125Z" fill="white"/>
<path d="M189.429 386.143C186.683 397.877 183.295 409.452 179.281 420.815C177.758 419.207 176.858 417.108 176.744 414.896C177.59 410.667 180.127 406.439 180.973 403.057L186.047 388.68L189.429 386.143Z" fill="white"/>
<path d="M104.862 386.143L100.634 419.124C103.171 419.124 101.48 421.661 101.48 423.352L98.9427 440.266H100.634C104.017 440.266 104.017 443.648 105.708 444.494C114.433 449.943 124.249 453.407 134.461 454.642L150.528 457.179C154.113 463.332 158.067 469.262 162.368 474.938C162.368 476.629 159.831 475.784 158.985 475.784H155.602C155.46 475.166 155.146 474.6 154.698 474.151C154.249 473.703 153.684 473.389 153.065 473.247H149.683L136.998 471.555C136.7 470.787 136.246 470.09 135.663 469.507C135.081 468.925 134.383 468.47 133.615 468.173C132.827 468.106 132.035 468.224 131.3 468.517C130.566 468.811 129.911 469.272 129.387 469.864L118.393 467.327C116.702 466.481 113.319 462.253 109.936 464.79L95.56 460.562L90.486 458.87C90.3061 459.029 90.1619 459.224 90.0632 459.443C89.9645 459.662 89.9134 459.899 89.9134 460.139C89.9134 460.379 89.9645 460.616 90.0632 460.835C90.1619 461.054 90.3061 461.249 90.486 461.407C93.467 462.841 96.5831 463.974 99.7884 464.79L107.399 467.327H109.091C118.393 491.006 126.004 510.456 135.306 532.443H134.461C122.516 530.784 111.22 526 101.717 518.575C92.2136 511.151 84.8388 501.349 80.338 490.16C78.789 485.476 76.8072 480.946 74.4184 476.629C70.1901 470.71 63.4247 468.173 60.0421 461.407C56.6594 454.642 61.7334 454.642 62.5791 450.414C63.4247 446.185 71.8814 458.025 76.9554 461.407C76.1308 461.841 75.4047 462.441 74.8226 463.168C74.2405 463.896 73.815 464.736 73.5727 465.636C73.5041 467.476 74.105 469.279 75.264 470.71C76.3647 471.796 77.8043 472.472 79.343 472.626C80.8817 472.78 82.4267 472.402 83.7207 471.555C85.412 468.173 83.7207 465.636 84.5664 462.253C85.5371 454.567 86.9488 446.944 88.7947 439.42C91.2908 438.776 93.9096 438.776 96.4057 439.42C96.4057 436.037 98.9427 428.426 100.634 419.97C102.325 411.513 95.56 420.815 94.7144 421.661C96.2741 410.657 99.1122 399.872 103.171 389.526C103.171 388.68 103.171 386.989 104.862 386.143Z" fill="white"/>
<path d="M353.488 389.526L345.877 413.205L325.581 419.97L331.501 397.137L353.488 389.526Z" fill="black"/>
<path d="M100.634 390.372L95.5602 404.748C96.4058 400.52 96.4058 395.446 97.2515 390.372H100.634Z" fill="white"/>
<path d="M179.281 401.365L175.899 410.668C175.354 406.991 175.683 403.238 176.859 399.712C178.034 396.186 180.023 392.986 182.664 390.372L179.281 401.365Z" fill="white"/>
<path d="M94.7147 392.909C92.1777 399.674 90.4864 406.44 87.9494 412.359C87.0514 409.036 87.0514 405.534 87.9494 402.211C88.9011 398.345 91.3298 395.006 94.7147 392.909Z" fill="white"/>
<path d="M343.34 411.513L328.118 417.433L332.347 399.674L348.414 394.6L343.34 411.513Z" fill="white"/>
<path d="M249.471 397.138C252.008 406.44 252.854 419.125 255.391 429.273H253.7C251.163 418.279 249.471 407.286 247.78 396.292H249.471V397.138Z" fill="white"/>
<path d="M92.1775 419.125C91.3318 418.279 90.4862 416.588 89.6405 414.896C88.7949 413.205 93.0232 403.903 94.7145 398.829C96.4058 393.755 93.0232 412.359 92.1775 419.125Z" fill="white"/>
<path d="M219.873 412.36H212.262C212.235 408.116 212.517 403.877 213.108 399.675H219.873V412.36Z" fill="white"/>
<path d="M230.867 400.52C232.558 414.051 235.941 427.581 236.787 441.112H235.095C234.25 432.655 230.867 419.97 230.867 409.822C230.867 399.674 230.021 403.057 230.021 399.674C230.021 396.292 230.867 399.674 230.867 400.52Z" fill="white"/>
<path d="M306.131 427.582L284.99 433.501L290.909 411.514L312.896 403.903L306.131 427.582Z" fill="black"/>
<path d="M304.44 425.045L289.218 430.119C289.982 424.339 291.401 418.665 293.446 413.205L308.668 408.131C308.668 409.823 305.286 421.662 304.44 425.045Z" fill="white"/>
<path d="M115.011 408.131C115.011 412.359 115.011 415.742 115.011 418.279H107.4C107.4 414.896 107.4 411.513 107.4 407.285L115.011 408.131Z" fill="white"/>
<path d="M183.51 413.205C182.664 412.36 183.51 411.514 183.51 410.668V408.131C184.355 409.823 185.201 412.36 183.51 413.205Z" fill="white"/>
<path d="M203.806 408.131C201.269 425.045 198.732 442.804 195.349 458.871H193.658C196.195 441.958 198.732 425.89 202.114 408.977L203.806 408.131Z" fill="white"/>
<path d="M220.719 414.896C220.719 419.97 219.873 445.34 219.873 454.642C219.873 463.944 217.336 455.488 213.108 455.488H210.571C211.417 442.803 211.417 429.272 212.262 415.741C214.9 414.496 217.887 414.197 220.719 414.896Z" fill="white"/>
<path d="M186.047 414.896C183.51 429.272 180.127 444.494 176.744 459.716C176.744 459.716 175.899 458.871 175.053 459.716C176.744 445.34 180.973 430.964 183.51 415.742L186.047 414.896Z" fill="white"/>
<path d="M347.568 439.42C336.575 445.34 323.89 448.723 312.051 453.797L301.057 457.179L280.761 463.099L259.619 469.019L246.934 471.556C245.243 471.556 244.397 469.019 241.86 469.864C239.323 470.71 240.169 472.401 240.169 472.401L230.021 474.093H226.638C225.87 474.068 225.117 474.306 224.502 474.768C223.887 475.229 223.447 475.886 223.256 476.63L213.108 478.321C213.108 478.321 212.262 475.784 208.879 476.63C205.497 477.475 206.342 478.321 204.651 479.167H194.503C194.211 478.484 193.745 477.89 193.152 477.445C192.558 477 191.857 476.719 191.12 476.63C189.429 475.784 187.738 478.321 186.892 479.167H175.053C174.207 476.63 170.824 476.63 170.824 473.247C170.625 469.561 170.909 465.865 171.67 462.253H172.516C187.519 462.229 202.499 461.098 217.336 458.871L233.404 456.334C265.407 450.387 296.819 441.615 327.273 430.118C336.84 426.829 346.165 422.872 355.179 418.279C353 425.45 350.46 432.506 347.568 439.42Z" fill="white"/>
<path d="M115.011 420.815C115.011 428.426 115.011 441.111 114.165 447.877C111.489 447.292 109.098 445.798 107.4 443.648C107.4 435.192 107.4 429.272 107.4 419.97L115.011 420.815Z" fill="white"/>
<path d="M124.313 422.507C125.159 429.273 126.004 439.421 126.85 452.106H125.159C123.467 441.112 123.467 432.655 122.622 422.507H124.313Z" fill="white"/>
<path d="M171.67 452.952C170.025 460.738 169.175 468.672 169.133 476.63C169.979 477.476 171.67 479.167 170.824 481.704C170.431 482.229 169.92 482.656 169.333 482.949C168.746 483.243 168.098 483.396 167.442 483.396C166.785 483.396 166.138 483.243 165.551 482.949C164.964 482.656 164.453 482.229 164.059 481.704C163.778 480.694 163.882 479.616 164.35 478.679C164.819 477.741 165.62 477.011 166.596 476.63V469.865C168.043 457.049 170.303 444.339 173.361 431.81L176.744 429.273C176.744 436.038 172.516 444.495 171.67 452.952Z" fill="white"/>
<path d="M89.6404 428.427C86.3348 440.088 83.7924 451.952 82.0294 463.944C81.1837 465.636 83.7207 468.173 82.0294 469.864C80.3381 471.555 79.4924 470.71 77.8011 470.71C77.1451 470.24 76.6372 469.592 76.3375 468.843C76.0378 468.094 75.9588 467.274 76.1097 466.481L77.8011 464.79C78.6467 464.79 79.4924 465.636 79.4924 463.944C80.8742 452.79 83.1364 441.762 86.2577 430.964L89.6404 428.427Z" fill="white"/>
<path d="M49.0489 446.186C48.2195 447.777 47.6486 449.49 47.3575 451.26V452.951L21.1419 443.649C20.4836 442.022 20.4836 440.202 21.1419 438.575L49.0489 446.186Z" fill="white"/>
<path d="M81.184 445.34C80.3383 449.569 80.3383 453.797 78.647 457.18C76.4125 452.433 75.8176 447.079 76.9556 441.958C77.8013 441.112 77.8013 439.421 78.647 438.575C79.4926 437.729 81.184 442.803 81.184 445.34Z" fill="white"/>
<path d="M167.442 450.414L164.905 448.723C164.456 446.713 164.757 444.608 165.751 442.803C169.133 445.34 167.442 447.877 167.442 450.414Z" fill="white"/>
<path d="M342.495 447.877C341.348 452.039 340.5 456.279 339.958 460.562H335.729L340.803 444.494H343.34L342.495 447.877Z" fill="white"/>
<path d="M60.8879 449.569L58.3509 460.563L50.7399 458.026C50.6176 453.932 51.4881 449.87 53.2769 446.186L60.8879 449.569Z" fill="white"/>
<path d="M336.575 447.877C335.729 450.414 334.884 454.643 334.884 455.488C326.734 484.165 311.961 510.525 291.755 532.444C290.909 534.135 290.063 534.981 290.909 534.981H292.6C307.89 520.108 319.977 502.265 328.118 482.549L331.501 474.093L338.266 472.402C343.34 478.321 339.112 487.624 337.421 493.543C331.921 511.153 320.586 526.365 305.285 536.672H278.224L247.78 474.093L262.156 470.71C274.43 468.237 286.567 465.133 298.52 461.408L332.347 449.569L336.575 447.877Z" fill="white"/>
<path d="M166.596 459.716V463.945C165.75 462.253 165.75 460.562 165.75 458.025C165.75 455.488 166.596 458.871 166.596 459.716Z" fill="white"/>
<path d="M345.878 465.637C342.295 468.632 337.852 470.409 333.193 470.711L334.884 465.637L343.341 463.1C345.032 463.1 345.878 464.791 345.878 465.637Z" fill="white"/>
<path d="M315.434 471.556C316.279 473.247 312.897 474.938 311.205 476.63L306.977 480.012C301.143 484.03 294.908 487.431 288.372 490.16C285.835 491.006 279.916 493.543 278.224 492.697L282.453 491.006C291.723 487.431 300.306 482.281 307.823 475.784C311.205 472.401 313.742 469.864 315.434 471.556Z" fill="black"/>
<path d="M114.165 472.402L140.381 537.518C141.223 539.84 142.685 541.888 144.609 543.438C148.837 545.975 151.374 555.277 153.911 559.505L159.831 574.727H153.911C148.451 566.214 143.915 557.143 140.381 547.666C139.535 545.129 139.535 541.746 138.689 538.364C128.541 514.685 121.776 495.235 111.628 471.556C110.782 469.865 113.319 469.865 114.165 472.402Z" fill="white"/>
<path d="M126.85 474.939H129.387C136.998 495.235 146.3 515.531 154.757 535.827H142.072L117.548 472.402L126.85 474.939Z" fill="white"/>
<path d="M96.4059 475.784C102.326 481.704 109.091 484.241 115.856 490.16C113.292 489.803 110.915 488.615 109.091 486.778L98.9429 481.704C96.4059 480.012 93.0233 478.321 93.0233 474.938H93.8689L96.4059 475.784Z" fill="black"/>
<path d="M245.243 474.938L276.533 539.209L282.453 545.129C288.05 554.877 292.857 565.057 296.829 575.573H290.909C284.99 565.425 278.224 554.431 276.533 550.203C274.842 545.974 275.687 544.283 273.996 539.209C263.848 518.067 254.546 496.926 243.552 476.63C242.706 474.938 244.398 474.093 245.243 474.938Z" fill="white"/>
<path d="M135.307 477.476C142.072 494.389 151.374 515.531 157.294 531.598L159.831 537.518C160.736 539.092 161.876 540.518 163.214 541.746C167.134 545.799 170.032 550.727 171.67 556.123L180.127 574.727H173.362C167.702 565.602 162.89 555.977 158.985 545.975C157.294 541.746 158.985 542.592 156.448 536.672C153.911 530.753 136.152 489.315 131.078 475.784C126.004 462.254 133.615 473.247 135.307 477.476Z" fill="white"/>
<path d="M241.015 475.785L269.768 537.518H260.465L231.713 477.476L241.015 475.785Z" fill="white"/>
<path d="M148.837 479.167L173.362 537.518H162.368C161.522 535.827 138.689 480.013 136.998 477.476L148.837 479.167Z" fill="white"/>
<path d="M228.33 477.476L258.774 540.055C260.465 542.592 262.157 543.438 263.848 545.975C269.505 555.82 274.587 565.985 279.07 576.419H273.15C268.479 568.771 264.244 560.866 260.465 552.74C257.928 548.512 258.774 543.438 256.237 539.209C246.089 518.913 236.787 498.617 226.639 478.321C225.793 476.63 228.33 475.784 228.33 477.476Z" fill="white"/>
<path d="M252.009 537.518H241.015L214.799 480.012L224.102 478.321L252.009 537.518Z" fill="white"/>
<path d="M153.911 478.321C163.213 498.617 180.127 539.209 180.127 539.209C180.127 539.209 185.201 545.129 186.892 548.511C191.421 557.266 195.375 566.305 198.731 575.573H192.812C187.715 566.566 183.196 557.245 179.281 547.666C178.728 544.118 177.585 540.688 175.898 537.518L150.528 479.167C150.528 477.475 153.065 477.475 153.911 478.321Z" fill="white"/>
<path d="M211.417 479.167C220.719 498.617 228.33 516.376 236.787 534.98L240.169 541.746C241.861 544.283 243.552 544.283 246.089 549.357C248.626 554.431 255.391 566.27 259.62 575.572H253.7C248.008 567.208 242.921 558.447 238.478 549.357C236.787 545.974 236.787 542.591 235.941 539.209C235.095 535.826 225.793 516.376 220.719 505.382L208.88 480.012C208.88 478.321 210.571 477.475 211.417 479.167Z" fill="white"/>
<path d="M160.677 480.012C160.943 481.029 161.474 481.956 162.218 482.699C162.961 483.443 163.888 483.974 164.905 484.24C166.596 485.086 168.288 484.24 169.979 483.395L193.658 536.672H180.973L156.448 479.167L160.677 480.012Z" fill="white"/>
<path d="M174.207 481.704C177.59 488.469 197.886 536.672 198.731 538.363C199.577 540.055 202.114 541.746 203.805 544.283C205.497 546.82 218.182 570.499 219.873 575.573H213.108C208.879 567.116 202.96 556.968 198.731 547.666C197.948 545.183 197.382 542.636 197.04 540.055C188.583 520.604 180.127 501.154 171.67 481.704C172.516 480.012 173.361 480.858 174.207 481.704Z" fill="white"/>
<path d="M187.738 480.858L213.953 537.518H200.423L175.898 480.858H187.738Z" fill="white"/>
<path d="M192.812 480.012L219.873 539.209C221.565 542.592 225.793 545.129 228.33 551.048L239.324 576.418H232.558C227.678 567.426 223.439 558.101 219.873 548.511C215.877 535.421 210.785 522.691 204.651 510.456L191.121 480.012C190.275 479.167 191.966 479.167 192.812 480.012Z" fill="white"/>
<path d="M204.651 480.013H205.497C214.799 499.463 222.41 517.222 231.712 536.673H221.564L195.349 480.013H204.651Z" fill="white"/>
<path d="M100.634 491.852C105.745 497.91 112.087 502.811 119.239 506.228C120.93 507.074 122.621 507.919 121.776 509.611H120.084C111.935 506.275 104.691 501.059 98.9428 494.389C98.0971 493.543 99.7885 491.852 100.634 491.852Z" fill="black"/>
<path d="M306.977 496.08C306.396 498.078 305.215 499.85 303.594 501.154C296.858 507.212 289.136 512.074 280.761 515.53C279.915 515.53 277.378 516.376 278.224 515.53L279.915 513.839L295.137 503.691L305.285 495.234C306.131 494.389 307.822 494.389 306.977 496.08Z" fill="black"/>
</g>
<defs>
<clipPath id="clip0">
<rect y="0.19043" width="400" height="637.54" fill="white"/>
</clipPath>
</defs>
</svg>
