<svg width="400" height="522" viewBox="0 0 400 522" fill="none" xmlns="http://www.w3.org/2000/svg">
<g clip-path="url(#clip0)">
<path d="M200.196 521.32C277.973 464.893 331.282 393.625 363.179 303.479C392.105 221.747 403.711 122.695 398.667 0.671827L398.646 0.19043H1.1607L1.13977 0.671827C-3.89393 122.695 7.71185 221.736 36.6269 303.479C68.5245 393.625 121.834 464.893 199.61 521.32L199.903 521.53L200.196 521.32Z" fill="white"/>
<path fill-rule="evenodd" clip-rule="evenodd" d="M400 64.3728H329.9V129.256H258.738V194.14H187.575V259.023H116.413V323.907H44.7416C79.5724 410.35 131.192 469.794 200.133 521.697C357.455 406.133 398.213 243.176 400 64.3728Z" fill="#0085CA"/>
<path d="M361.765 302.979L363.179 303.479L361.765 302.979C330.05 392.61 277.116 463.497 199.903 519.679C122.691 463.497 69.7563 392.61 38.041 302.979C9.28555 221.687 -2.32946 123.155 2.59935 1.69043H397.207C402.146 123.155 390.531 221.698 361.765 302.979Z" stroke="#0085CA" stroke-width="3"/>
</g>
<defs>
<clipPath id="clip0">
<rect y="0.19043" width="400" height="521.51" fill="white"/>
</clipPath>
</defs>
</svg>
