<svg width="400" height="522" viewBox="0 0 400 522" fill="none" xmlns="http://www.w3.org/2000/svg">
<g clip-path="url(#clip0)">
<path d="M38.0624 303.123L36.6483 303.623L38.0623 303.123C9.28278 221.803 -2.33777 123.213 2.60385 1.69043H397.4C402.331 123.213 390.711 221.792 361.942 303.123C330.211 392.797 277.251 463.717 200.002 519.926C122.753 463.717 69.7928 392.797 38.0624 303.123Z" fill="white" stroke="#1D1D1B" stroke-width="3"/>
<path d="M223.738 182.191C223.748 197.174 207.342 204.943 199.772 204.943C192.202 204.943 175.795 197.174 175.806 182.191C175.816 162.874 190.684 153.2 199.772 131.809C208.86 153.2 223.727 162.874 223.738 182.191Z" fill="#0085CA"/>
<path d="M349.378 182.191C349.389 197.174 332.982 204.943 325.412 204.943C317.842 204.943 301.436 197.174 301.446 182.191C301.457 162.874 316.324 153.2 325.412 131.809C334.5 153.2 349.368 162.874 349.378 182.191Z" fill="#0085CA"/>
<path d="M98.097 182.191C98.1075 197.174 81.7009 204.943 74.1311 204.943C66.5612 204.943 50.1546 197.174 50.1651 182.191C50.1756 162.874 65.043 153.2 74.1311 131.809C83.2191 153.2 98.0865 162.874 98.097 182.191Z" fill="#0085CA"/>
<path d="M160.917 274.328C160.928 289.31 144.521 297.079 136.951 297.079C129.382 297.079 112.975 289.31 112.985 274.328C112.996 255.01 127.863 245.336 136.951 223.946C146.039 245.336 160.907 255.01 160.917 274.328Z" fill="#0085CA"/>
<path d="M286.558 274.328C286.568 289.31 270.162 297.079 262.592 297.079C255.022 297.079 238.616 289.31 238.626 274.328C238.636 255.01 253.504 245.336 262.592 223.946C271.68 245.336 286.547 255.01 286.558 274.328Z" fill="#0085CA"/>
</g>
<defs>
<clipPath id="clip0">
<rect y="0.19043" width="400" height="521.59" fill="white"/>
</clipPath>
</defs>
</svg>
