<svg width="400" height="522" viewBox="0 0 400 522" fill="none" xmlns="http://www.w3.org/2000/svg">
<g clip-path="url(#clip0)">
<path d="M199.937 521.235C122.315 464.919 69.1122 393.794 37.2781 303.827C8.41006 222.257 -3.17265 123.402 1.86149 1.62131L1.88238 1.14087H398.577L398.598 1.62131C403.622 123.402 392.039 222.246 363.181 303.827C331.347 393.794 278.144 464.919 200.522 521.235L200.23 521.444L199.937 521.235Z" fill="#E53D42"/>
<path d="M397.877 1.18264C407.35 230.382 360.006 404.28 200 520.368C40.004 404.28 -7.32947 230.382 2.1435 1.18264H200.01H397.877ZM398.838 0.19043H397.877H200.01H2.1435H1.18262L1.14085 1.15131C-3.8933 122.994 7.69986 221.902 36.5783 303.534C68.4438 393.606 121.71 464.804 199.415 521.183L200 521.611L200.585 521.183C278.29 464.804 331.556 393.606 363.422 303.534C392.3 221.902 403.893 122.994 398.859 1.15131L398.817 0.19043H398.838Z" fill="#E53D42"/>
<path d="M164.072 79.9012C107.542 86.9115 118.84 48.4812 84.5907 58.5948C88.4551 33.9463 113.312 44.5995 121.563 54.7305C132.112 67.6814 135.454 71.5458 161.983 70.5013C163.445 73.8435 164.281 77.6034 164.072 79.9012Z" fill="#FFD400" stroke="#E53D42"/>
<path d="M143.601 82.7213C144.436 87.3168 148.092 91.9123 152.27 90.0323C160.103 86.4812 158.327 77.9169 157.387 72.5903C154.15 52.3284 135.559 60.3705 134.201 54.104C132.321 47.4196 135.141 42.4064 147.57 42.8241C151.225 42.9286 157.805 47.0018 165.116 48.5685C173.472 50.2396 182.662 49.2996 187.049 47.7329C204.387 41.5708 212.951 42.7197 224.126 44.8085C244.179 48.5685 247.521 47.8374 266.426 44.1819L295.043 37.4976C299.743 36.3487 328.882 55.4617 330.658 65.2793C318.751 64.6527 314.365 74.5748 284.39 70.6059C287.419 72.7992 296.714 78.5436 311.127 78.3347C323.765 78.2303 323.451 74.157 329.718 72.9037C337.029 75.2014 343.818 82.8257 346.951 91.4945C344.027 95.8811 327.211 99.1188 317.603 98.9099C324.809 106.221 335.045 105.699 343.922 102.67C351.233 112.801 353.218 124.812 351.442 133.063L335.253 130.974C339.745 140.478 352.8 141.314 353.218 146.327C356.664 186.433 346.011 267.69 268.306 269.152C233.213 269.883 212.429 253.068 201.462 242.31C198.956 241.057 194.882 238.341 178.903 240.221C178.903 240.221 164.907 226.748 164.385 222.257C163.967 218.184 175.665 219.646 181.722 217.766C181.722 217.766 178.485 210.246 151.539 210.977C151.539 210.977 125.95 191.551 130.65 187.477C147.57 172.96 175.247 187.686 187.885 197.086C181.305 181.942 169.92 166.484 144.959 166.171C125.428 165.858 97.7505 177.555 100.048 218.079C101.093 235.73 112.477 272.076 159.581 284.192C204.387 295.68 207.833 280.849 243.97 293.591C251.804 285.445 265.277 284.818 272.274 285.549C292.223 287.743 300.578 301.947 300.892 306.856C285.643 302.469 274.99 305.811 270.499 315.315C290.239 328.684 297.758 390.723 226.842 391.35C203.656 391.559 184.647 378.817 171.174 381.741C155.925 386.337 151.121 403.047 161.356 415.058C171.696 425.189 194.778 430.098 209.922 416.312C227.26 400.541 259.532 394.588 269.559 416.103C242.299 415.79 236.555 434.694 233.422 440.229C229.035 435.111 222.56 439.394 225.171 444.198C237.286 466.131 208.251 486.706 191.54 476.471C213.786 462.371 202.82 445.869 190.705 445.451C155.716 444.407 130.859 430.411 130.546 398.243C130.232 370.67 151.33 357.824 172.427 356.988C200.731 355.944 226.215 380.697 245.955 357.406C255.459 345.813 250.341 329.311 232.899 329.938C223.082 330.251 211.28 339.964 211.593 353.019C201.671 349.364 194.987 329.937 201.149 322.209C157.283 323.462 121.668 315.838 101.928 300.798C43.858 256.41 45.8424 189.357 64.3287 161.889C58.8977 164.082 53.1534 168.051 48.349 175.153C51.4823 140.06 75.2952 117.605 120.937 117.605C236.868 117.71 209.922 222.57 272.379 225.808C309.769 227.688 313.634 186.642 313.738 171.811C314.052 134.212 283.868 111.443 253.579 97.7611C266.426 108.205 283.659 128.572 289.925 148.311C277.705 144.238 263.188 142.985 250.341 142.985C243.344 122.201 233.213 109.041 216.92 101.521C192.271 106.848 193.107 100.059 177.858 100.685C168.772 100.163 168.563 103.923 151.747 103.192C132.008 101.625 135.004 85.2691 138.575 82.7381C141.092 80.9542 143.079 80.0058 143.601 82.7213Z" fill="#FFD400" stroke="#E53D42"/>
<path d="M226.55 67.2838C226.55 67.2838 225.074 72.9888 215.13 72.1251C207.026 71.4212 204.35 60.8514 205.84 59.9735C209.507 58.4306 215.157 59.0777 217.931 61.1187C221.452 63.7093 224.077 66.9258 226.55 67.2838Z" fill="#E53D42" stroke="#E53D42" stroke-linecap="round" stroke-linejoin="round"/>
<path d="M200.54 62.0491C201.849 60.706 208.916 57.3413 214.393 59.449C219.938 61.5825 222.691 66.1972 226.136 67.1705C232.915 69.0856 235.949 67.4922 235.949 67.4922" stroke="#E53D42" stroke-linecap="round" stroke-linejoin="round"/>
</g>
<defs>
<clipPath id="clip0">
<rect y="0.19043" width="400" height="521.42" fill="white"/>
</clipPath>
</defs>
</svg>
