<svg width="400" height="522" viewBox="0 0 400 522" fill="none" xmlns="http://www.w3.org/2000/svg">
<g clip-path="url(#clip0)">
<path d="M200.291 521.568C278.105 465.113 331.439 393.812 363.352 303.623C392.291 221.852 403.902 122.753 398.856 0.672051L398.835 0.19043H1.16126L1.14031 0.672051C-3.89578 122.753 7.71551 221.841 36.6443 303.623C68.557 393.812 121.891 465.113 199.705 521.568L199.998 521.777L200.291 521.568Z" fill="#FFE000"/>
<path fill-rule="evenodd" clip-rule="evenodd" d="M216.925 50.7513C220.226 63.8054 220.212 74.5525 225.695 82.3354C231.771 90.958 242.722 92.1548 252.686 102.85C259.241 109.886 262.082 128.938 251.885 136.871C241.735 144.768 231.151 152.435 230.794 159.614C230.22 171.147 239.499 181.416 251.435 178.147C261.937 175.271 266.315 165.928 271.431 160.409C286.169 174.727 306.559 196.642 305.941 230.073C305.505 253.682 296.152 268.814 272.076 288.772C257.207 301.098 232.393 319.446 231.494 336.245C230.161 361.156 228.914 382.585 244.503 383.271C252.941 383.642 257.943 381.723 266.271 374.885C272.574 389.614 266.293 412.266 256.517 420.494C249.357 426.521 240.821 425.896 234.341 423.586C226.824 435.982 214.412 446.729 200.239 446.729C186.066 446.729 173.653 435.982 166.136 423.586C159.657 425.896 151.121 426.521 143.96 420.494C134.185 412.266 127.903 389.614 134.207 374.885C142.535 381.723 147.536 383.642 155.975 383.271C171.564 382.585 170.317 361.156 168.984 336.245C168.084 319.446 143.271 301.098 128.401 288.772C104.325 268.814 94.973 253.682 94.5364 230.073C93.9182 196.642 114.308 174.727 129.046 160.409C134.162 165.928 138.541 175.271 149.043 178.147C160.978 181.416 170.258 171.147 169.684 159.614C169.327 152.435 158.743 144.768 148.593 136.871C138.396 128.938 141.237 109.886 147.792 102.85C157.755 92.1548 168.707 90.958 174.782 82.3354C180.266 74.5525 180.26 63.8075 183.552 50.7513C187.087 36.7345 194.547 25.3899 200.239 25.2721C205.831 25.1563 213.426 36.9109 216.925 50.7513Z" fill="black" stroke="black"/>
<path opacity="0.98" d="M200.239 123.12C195.81 123.12 192.22 119.53 192.22 115.101C192.22 110.673 195.81 107.083 200.239 107.083C204.667 107.083 208.257 110.673 208.257 115.101C208.257 119.53 204.667 123.12 200.239 123.12Z" fill="#FFE000" stroke="black" stroke-linecap="round" stroke-linejoin="round"/>
<path opacity="0.98" d="M200.239 420.469C195.81 420.469 192.22 416.879 192.22 412.451C192.22 408.022 195.81 404.432 200.239 404.432C204.667 404.432 208.257 408.022 208.257 412.451C208.257 416.879 204.667 420.469 200.239 420.469Z" fill="#FFE000" stroke="black" stroke-linecap="round" stroke-linejoin="round"/>
<path opacity="0.98" d="M127.667 243.534C123.238 243.534 119.648 239.944 119.648 235.515C119.648 231.087 123.238 227.497 127.667 227.497C132.096 227.497 135.686 231.087 135.686 235.515C135.686 239.944 132.096 243.534 127.667 243.534Z" fill="#FFE000" stroke="black" stroke-linecap="round" stroke-linejoin="round"/>
<path opacity="0.98" d="M272.482 243.534C268.054 243.534 264.464 239.944 264.464 235.515C264.464 231.087 268.054 227.497 272.482 227.497C276.911 227.497 280.501 231.087 280.501 235.515C280.501 239.944 276.911 243.534 272.482 243.534Z" fill="#FFE000" stroke="black" stroke-linecap="round" stroke-linejoin="round"/>
<path fill-rule="evenodd" clip-rule="evenodd" d="M221.083 217.089C221.129 227.355 215.608 232.7 208.933 235.515V261.474H222.703C222.926 270.083 212.66 279.779 200.239 279.779C187.817 279.779 177.552 270.083 177.775 261.474H191.544V235.515C184.869 232.7 179.348 227.355 179.395 217.089C179.437 207.739 187.293 197.65 200.239 197.65C213.184 197.65 221.04 207.739 221.083 217.089Z" fill="#FFE000" stroke="black"/>
</g>
<defs>
<clipPath id="clip0">
<rect y="0.19043" width="400" height="521.59" fill="white"/>
</clipPath>
</defs>
</svg>
