<svg width="400" height="522" viewBox="0 0 400 522" fill="none" xmlns="http://www.w3.org/2000/svg">
<g clip-path="url(#clip0)">
<path d="M200.291 521.568C278.105 465.113 331.439 393.812 363.352 303.623C392.291 221.852 403.902 122.753 398.856 0.672055L398.835 0.19043H1.16126L1.14031 0.672055C-3.89578 122.753 7.71551 221.841 36.6443 303.623C68.557 393.812 121.891 465.113 199.705 521.568L199.998 521.777L200.291 521.568Z" fill="#0085CA"/>
<path d="M56.9038 119.455C59.7314 119.455 62.0236 117.983 62.0236 116.167C62.0236 114.352 59.7314 112.88 56.9038 112.88C54.0762 112.88 51.7839 114.352 51.7839 116.167C51.7839 117.983 54.0762 119.455 56.9038 119.455Z" fill="#0085CA" stroke="#0085CA" stroke-width="0.97" stroke-linecap="round" stroke-linejoin="round"/>
<path d="M145.104 92.9762C148.14 92.5678 150.674 91.5627 157.155 92.5678C165.803 59.9955 204.511 50.7295 223.922 69.6594C222.927 49.6616 188.282 43.924 172.881 53.4936C161.447 58.2575 149.459 76.3707 145.009 92.9762H145.104Z" fill="white" stroke="#0085CA" stroke-width="3"/>
<path d="M208.228 36.9929C222.195 49.5465 240.559 57.6084 244.716 74.4128C261.677 87.9297 265.038 112.786 259.468 126.386C249.082 151.766 233.701 158.948 210.52 165.439C256.767 176.873 281.486 142.541 282.67 104.985C283.633 74.2453 250.014 35.6632 208.228 36.9824V36.9929Z" fill="white" stroke="#0085CA"/>
<path d="M48.8942 119.256C51.5222 117.633 55.1763 117.193 58.3173 117.11C60.4636 117.057 62.0237 117.12 61.6363 115.55C61.4269 114.691 60.3066 114.304 58.3906 114.618C55.9615 115.016 51.8363 117.434 48.9047 119.256C45.5648 111.561 49.7318 108.964 62.9032 105.415C65.5311 104.703 68.7769 102.881 71.9179 100.148C78.1999 94.5781 96.1979 93.6881 96.5853 90.8194C97.6951 82.5375 110.437 81.7628 120.31 76.3497C129.629 51.9441 153.825 27.2766 185.612 27.2766C216.09 27.2766 243.051 51.1169 249.301 79.7734C255.5 108.221 242.517 131.454 222.676 145.431C207.285 156.268 183.476 157.943 166.567 146.907C226.508 147.923 226.979 102.263 225.859 88.2647C224.027 65.3876 203.621 51.1902 186.408 52.0592C167.279 53.0225 154.631 65.0002 147.951 91.4266C164.892 91.479 164.149 98.0856 186.094 96.201C182.754 105.917 170.703 114.44 156.526 113.822C154.6 113.738 148.977 112.346 148.674 113.759C147.051 122.062 140.151 168.779 152.6 171.512C161.102 173.439 168.933 172.276 173.76 173.753C185.141 177.25 194.826 188.515 210.416 184.872C252.024 175.25 255.835 176.203 271.194 178.297C289.025 180.726 302.008 191.499 311.253 197.331C318.948 201.99 350.034 192.473 353.981 173.135C360.158 185.28 358.839 196.316 348.003 203.1C353.573 205.425 361.875 201.99 366.535 200.975C361.875 215.151 353.07 218.188 333.324 215.35C335.145 218.795 341.825 223.15 346.484 224.867C336.768 230.333 324.717 227.296 316.613 218.188C310.331 230.239 315.2 241.975 322.487 248.059C329.073 253.629 332.716 257.681 330.685 268.308C324.005 260.413 320.058 257.775 308.311 258.288C323.094 274.391 323.398 285.52 315.598 297.163C313.776 284.505 308.206 280.558 302.542 276.61C296.354 294.786 307.578 304.251 317.179 316.543C317.629 317.119 317.189 318.794 316.823 319.433C305.306 339.63 286.502 358.926 290.962 372.097C288.941 377.468 273.55 373.207 275.874 387.897C276.377 391.237 251.375 390.127 251.678 388.2C252.484 382.829 255.426 380.808 256.128 379.793C254.107 379.489 250.453 381.416 248.537 381.719C247.019 381.918 250.558 368.15 267.572 367.344C274.053 364.203 285.423 346.058 286.973 331.892C287.946 322.982 281.968 314.68 276.806 309.926C273.875 314.585 275.278 324.919 276.387 331.295C268.284 328.772 259.039 316.522 260.955 297.959C248.412 311.716 254.537 322.773 263.091 331.275C266.368 334.541 238.109 351.66 236.182 376.463C235.774 380.515 224.655 376.181 226.969 387.802C227.597 390.954 202.134 390.765 202.176 388.745C202.301 382.567 208.552 379.531 207.139 379.531C204.605 379.531 201.37 381.248 199.548 381.761C196.742 382.567 200.364 370.296 213.913 368.37C225.053 366.443 239.02 339.085 237.355 330.385C235.743 321.935 227.356 303.696 221.493 296.284C220.278 299.215 220.31 320.145 203.505 324.301C205.84 319.663 208.877 315.643 208.573 309.874C208.165 304 210.123 299.624 205.558 293.844C205.055 298.503 202.427 308.994 192.711 315.988C194.334 298.168 176.702 291.111 176.702 291.111C177.917 294.65 180 305.246 180.911 310.313C181.822 315.381 179.979 316.931 180.021 323.108C180.074 330.803 183.539 334.96 186.774 346.707C188.596 353.492 191.13 356.424 192.753 361.083C194.072 364.622 195.286 365.229 194.878 368.883C194.47 374.045 180.199 375.971 181.215 387.813C181.623 391.153 158.39 390.86 158.086 389.341C157.374 384.787 160.966 381.939 163.196 380.316C159.05 380.62 156.893 382.243 154.767 383.353C153.354 384.065 156.013 372.118 170.493 368.464C178.608 363.47 172.786 330.625 162.777 323.181C149.71 313.475 145.941 292.619 140.769 289.279C140.769 289.279 140.769 294.347 142.695 308.617C143.407 314.083 139.355 318.847 140.266 323.6C141.68 331.191 141.743 338.091 145.187 348.822C146.705 353.482 150.558 357.931 152.579 361.983C153.49 363.91 153.291 365.826 153.291 367.449C153.595 374.338 136.885 374.432 140.329 387.698C141.24 390.839 116.332 390.933 116.238 388.912C116.039 382.84 122.111 380.107 120.991 380.107C115.222 380.002 112.887 385.782 112.584 382.944C111.976 377.269 120.478 370.286 126.352 368.768C133.545 367.051 135.869 358.371 130.718 336.394C127.776 323.841 117.735 325.181 115.274 313.821C112.301 300.126 109.736 285.206 103.757 285.709C103.757 285.709 103.192 290.682 101.936 293.09C99.4018 297.927 100.784 302.67 105.652 313.706C94.7321 312.46 80.9745 294.472 91.2665 278.987C86.6074 281.165 80.3881 289.489 77.1529 298.095C72.2948 284.526 75.038 275.008 85.3405 266.727C80.7127 269.397 71.1745 272.035 61.05 267.48C72.9335 263.732 79.8646 258.026 81.0478 249.975C81.5503 247.546 80.7441 247.744 78.514 244.3C71.2269 233.16 77.802 216.052 83.0685 201.373C87.7277 188.515 92.3031 176.171 94.1039 167.858C95.7477 160.267 95.3184 155.001 88.4292 142.541C86.8063 153.074 84.7856 165.22 77.6973 172.004C70.9128 178.38 56.4327 185.573 63.0183 215.539C49.4492 208.147 49.4492 195.091 55.2182 181.113C52.2865 182.432 40.2355 188.704 41.7537 203.896C28.2892 189.007 44.4864 167.146 52.7891 163.199C38.6127 164.916 30.624 159.231 30.7182 150.237C40.6648 154.54 56.7887 156.77 64.5051 144.342C66.1803 141.641 67.0284 138.071 67.2378 135.663C64.7459 135.558 59.4376 133.841 55.7207 133.862C52.6844 133.359 47.5645 129.757 49.0618 128.093C47.1143 125.412 46.5908 120.743 48.9152 119.225L48.8942 119.256Z" fill="white" stroke="#0085CA" stroke-width="3" stroke-linecap="round" stroke-linejoin="round"/>
<path d="M102.333 100.546C106.301 98.7138 106.406 96.3371 112.521 96.023C115.997 95.8345 119.295 98.7138 122.75 100.054C123.221 100.232 122.97 100.965 122.467 101.206C120.625 102.085 117.316 103.509 112.28 103.467C109.359 103.446 104.511 102.274 102.804 101.666C102.166 101.436 101.956 100.735 102.344 100.557L102.333 100.546Z" fill="#0085CA"/>
<path d="M49.0303 128.124L60.5159 126.312" stroke="#0085CA" stroke-linecap="round"/>
</g>
<defs>
<clipPath id="clip0">
<rect y="0.19043" width="400" height="521.59" fill="white"/>
</clipPath>
</defs>
</svg>
