<svg width="401" height="462" viewBox="0 0 401 462" fill="none" xmlns="http://www.w3.org/2000/svg">
<g clip-path="url(#clip0)">
<path d="M0.583984 0.124146H400.584C400.134 194.458 377.732 341.287 200.659 461.663C22.6478 341.287 0.996742 194.946 0.583984 0.124146Z" fill="#006EB6"/>
<path d="M220.247 354.983C220.247 335.997 225.65 326.391 244.262 312.244L244.562 312.019L244.862 312.207C250.417 315.747 256.995 317.334 263.553 316.715C270.112 316.097 276.277 313.309 281.072 308.792C288.277 301.588 292.517 286.578 296.644 272.094C300.097 259.899 303.399 248.267 308.314 240.762C300.809 245.678 289.215 248.98 276.982 252.432C262.461 256.559 247.451 260.8 240.284 268.004C235.809 272.795 233.055 278.94 232.458 285.469C231.86 291.997 233.452 298.54 236.982 304.064L237.245 304.477L236.87 304.777C232.592 308.154 228.689 311.719 225.237 314.871C222.873 317.01 220.847 318.886 219.158 320.237L218.333 320.912V319.824C218.145 311.869 217.883 297.61 217.657 282.488L217.395 267.141C217.395 257.197 227.414 244.252 244.412 232.432L244.487 232.394H244.787C250.346 235.958 256.936 237.562 263.511 236.95C270.085 236.338 276.267 233.546 281.072 229.017C288.277 221.813 292.517 206.803 296.644 192.319C300.097 180.124 303.399 168.492 308.314 160.987C300.809 165.903 289.215 169.205 276.982 172.657C262.461 176.785 247.451 181.062 240.284 188.229C235.737 193.042 232.94 199.244 232.341 205.838C231.742 212.432 233.377 219.036 236.982 224.589L237.207 224.965L236.87 225.265C230.566 230.743 222.385 238.323 217.845 242.901L216.982 243.801L216.644 223.877C216.644 214.608 216.344 206.053 216.232 197.948C216.232 183.839 228.389 164.89 244.374 153.895L244.674 153.708H244.975C250.53 157.248 257.107 158.835 263.666 158.216C270.224 157.598 276.389 154.81 281.185 150.293C288.389 143.089 292.629 128.079 296.757 113.595C300.209 101.4 303.511 89.7677 308.427 82.263C300.922 87.1786 289.327 90.4806 277.095 93.9328C262.573 98.0604 247.564 102.338 240.397 109.505C235.832 114.305 233.014 120.5 232.395 127.094C231.776 133.688 233.391 140.3 236.982 145.865L237.207 146.24L236.87 146.541C229.898 153.139 223.308 160.13 217.132 167.479L216.307 168.454L215.931 167.929C205.275 153.97 205.65 117.235 205.838 109.993V109.58H206.25C212.703 108.159 218.495 104.62 222.704 99.5272C226.913 94.4343 229.297 88.0797 229.477 81.475C229.477 71.3061 221.973 57.6851 214.468 44.5144C208.277 33.2574 202.348 22.7883 200.547 13.9703C198.821 22.6382 192.93 33.3699 186.701 44.5144C179.196 57.6851 171.691 71.3061 171.691 81.475C171.888 88.0666 174.28 94.4039 178.488 99.4817C182.695 104.559 188.478 108.087 194.918 109.505H195.331V109.918C195.331 117.122 195.894 153.82 185.387 167.854L185.012 168.379L184.187 167.404C178.011 160.055 171.421 153.064 164.449 146.466L164.112 146.165L164.337 145.79C167.876 140.239 169.458 133.664 168.833 127.11C168.207 120.556 165.41 114.399 160.885 109.618C153.68 102.413 138.671 98.1729 124.187 94.0454C111.991 90.5932 100.359 87.2911 92.8545 82.3756C97.7701 89.8802 101.072 101.475 104.524 113.708C108.652 128.229 112.892 143.239 120.097 150.406C124.892 154.922 131.057 157.71 137.615 158.329C144.174 158.947 150.751 157.361 156.307 153.82H156.607L156.907 154.008C172.892 165.002 185.012 184.027 185.087 198.06C185.087 206.09 184.824 214.571 184.674 223.726L184.449 243.764L183.586 242.863C179.046 238.286 170.866 230.706 164.562 225.227L164.224 224.927L164.449 224.552C167.988 219 169.571 212.426 168.945 205.872C168.32 199.318 165.522 193.161 160.997 188.379C153.793 181.175 138.783 176.935 124.299 172.807C112.104 169.355 100.472 166.053 92.9671 161.137C97.8826 168.642 101.185 180.237 104.637 192.469C108.764 206.991 113.005 222 120.209 229.167C125.005 233.684 131.169 236.472 137.728 237.091C144.286 237.709 150.864 236.122 156.419 232.582H156.719L157.02 232.77C174.018 244.589 184.112 257.573 184.036 267.479L183.774 283.201C183.511 298.21 183.286 312.282 183.098 320.162V321.25L182.273 320.574C180.584 319.186 178.521 317.347 176.232 315.209C172.779 312.057 168.727 308.492 164.599 305.115L164.224 304.815L164.487 304.402C168.026 298.85 169.608 292.276 168.983 285.722C168.357 279.168 165.56 273.011 161.035 268.229C153.83 261.025 138.821 256.785 124.337 252.657C112.142 249.205 100.509 245.903 93.0046 240.987C97.9202 248.492 101.222 260.087 104.674 272.319C108.802 286.841 113.042 301.85 120.247 309.017C125.042 313.534 131.207 316.322 137.766 316.94C144.324 317.559 150.901 315.972 156.457 312.432L156.757 312.244L157.057 312.469C175.819 326.616 181.035 336.222 181.072 355.209C181.11 374.195 155.706 383.989 124.412 394.346C147.705 417.705 173.216 438.742 200.584 457.16C227.885 438.66 253.321 417.548 276.532 394.12C245.425 383.952 220.209 373.595 220.247 354.983Z" fill="white"/>
</g>
<defs>
<clipPath id="clip0">
<rect x="0.583984" y="0.124146" width="400" height="461.54" fill="white"/>
</clipPath>
</defs>
</svg>
