<svg width="401" height="493" viewBox="0 0 401 493" fill="none" xmlns="http://www.w3.org/2000/svg">
<g clip-path="url(#clip0)">
<path d="M114.463 15.5458C208.66 234.462 141.009 422.325 141.009 422.325C141.009 422.325 190.336 322.547 314.919 340.087C358.583 92.005 114.463 15.5458 114.463 15.5458Z" fill="white"/>
<path d="M400.744 0.115173L399.764 79.7531C398.377 147.176 386.05 213.926 363.266 277.398C327.943 361.838 271.819 435.962 200.124 492.863C124.098 438.593 66.1652 362.697 33.865 275.05L33.7969 274.893C12.6179 211.827 1.5406 145.809 0.975201 79.2834L0.743774 0.115173H400.744Z" fill="#3585C6"/>
<path d="M114.463 15.5458C208.66 234.462 141.009 422.325 141.009 422.325C141.009 422.325 190.336 322.547 314.919 340.087C358.583 92.005 114.463 15.5458 114.463 15.5458Z" fill="white"/>
</g>
<defs>
<clipPath id="clip0">
<rect x="0.743774" y="0.115173" width="400" height="492.75" fill="white"/>
</clipPath>
</defs>
</svg>
