<svg width="400" height="495" viewBox="0 0 400 495" fill="none" xmlns="http://www.w3.org/2000/svg">
<g clip-path="url(#clip0)">
<path fill-rule="evenodd" clip-rule="evenodd" d="M200.007 494.387C198.361 486.88 197.382 479.418 185.804 466.57C172.033 451.289 154.743 448.599 137.544 448.599H70.0114C17.0133 448.599 0.0139313 431.599 0.0139313 378.601V0.115173H200.007H399.999V378.601C399.999 431.599 383 448.599 330.002 448.599H262.469C245.27 448.599 227.98 451.289 214.209 466.57C202.631 479.418 201.652 486.88 200.007 494.387Z" fill="#0085CA"/>
<path fill-rule="evenodd" clip-rule="evenodd" d="M0.0139313 0.115173H200.007H399.999V378.601C399.999 406.512 395.285 424.439 383.08 435.156C384.506 434.087 0.0139313 0.115173 0.0139313 0.115173Z" fill="#E00E00"/>
<path fill-rule="evenodd" clip-rule="evenodd" d="M0 62.6804L0.0146346 0.115173H76.9544L399.925 384.486C398.657 432.866 380.987 448.599 330.003 448.599H323.824C323.836 448.566 0 62.6804 0 62.6804Z" fill="white"/>
<mask id="path-5-inside-1" fill="white">
<path fill-rule="evenodd" clip-rule="evenodd" d="M200.007 494.387C198.361 486.88 197.382 479.418 185.804 466.57C172.033 451.289 154.743 448.599 137.544 448.599H70.0114C17.0133 448.599 0.0139313 431.599 0.0139313 378.601V0.115173H200.007H399.999V378.601C399.999 431.599 383 448.599 330.002 448.599H262.469C245.27 448.599 227.98 451.289 214.209 466.57C202.631 479.418 201.652 486.88 200.007 494.387Z"/>
</mask>
<path d="M185.804 466.57L188.033 464.562L185.804 466.57ZM0.0139313 0.115173V-2.88483H-2.98607V0.115173H0.0139313ZM399.999 0.115173H402.999V-2.88483H399.999V0.115173ZM214.209 466.57L211.98 464.562L214.209 466.57ZM202.937 493.745C202.139 490.107 201.423 486.031 199.386 481.296C197.332 476.524 193.992 471.175 188.033 464.562L183.576 468.578C189.194 474.813 192.132 479.619 193.874 483.667C195.632 487.752 196.228 491.16 197.076 495.03L202.937 493.745ZM188.033 464.562C173.404 448.328 155.035 445.599 137.544 445.599V451.599C154.452 451.599 170.663 454.249 183.576 468.578L188.033 464.562ZM137.544 445.599H70.0114V451.599H137.544V445.599ZM70.0114 445.599C43.6521 445.599 27.2348 441.328 17.2597 431.353C7.28455 421.378 3.01393 404.961 3.01393 378.601H-2.98607C-2.98607 405.24 1.243 423.822 13.0171 435.596C24.7911 447.37 43.3725 451.599 70.0114 451.599V445.599ZM3.01393 378.601V0.115173H-2.98607V378.601H3.01393ZM0.0139313 3.11517H200.007V-2.88483H0.0139313V3.11517ZM200.007 3.11517H399.999V-2.88483H200.007V3.11517ZM396.999 0.115173V378.601H402.999V0.115173H396.999ZM396.999 378.601C396.999 404.961 392.729 421.378 382.754 431.353C372.778 441.328 356.361 445.599 330.002 445.599V451.599C356.641 451.599 375.222 447.37 386.996 435.596C398.77 423.822 402.999 405.24 402.999 378.601H396.999ZM330.002 445.599H262.469V451.599H330.002V445.599ZM262.469 445.599C244.978 445.599 226.609 448.328 211.98 464.562L216.438 468.578C229.35 454.249 245.561 451.599 262.469 451.599V445.599ZM211.98 464.562C206.021 471.175 202.681 476.524 200.628 481.296C198.59 486.031 197.874 490.107 197.076 493.745L202.937 495.03C203.785 491.16 204.381 487.752 206.139 483.667C207.881 479.619 210.819 474.813 216.438 468.578L211.98 464.562Z" fill="black" mask="url(#path-5-inside-1)"/>
<path d="M359.966 62.1312C363.43 60.7495 369.756 56.5651 368.71 60.2462C367.654 63.9668 369.43 68.5657 366.825 71.4573C364.585 73.9443 366.351 78.3853 363.095 80.0433C359.808 81.721 360.637 86.6653 357.528 88.1456C354.104 89.774 355.525 94.6295 350.462 95.419C348.173 95.7743 346.426 98.5672 343.258 100.61C336.32 104.38 336.833 122.401 339.646 117.289C341.186 114.871 344.314 111.959 345.715 110.045C347.995 106.946 351.637 108.485 354.765 105.683C356.897 103.768 359.719 105.495 363.213 102.88C366.519 100.393 372.697 99.2482 371.858 102.317C369.223 111.92 358.308 121.947 337.07 125.993C330.813 127.187 329.343 165.202 333.942 160.81C337.011 157.879 338.077 153.537 338.402 149.915C338.659 147.122 342.844 143.116 344.038 139.711C344.817 137.49 348.044 137.53 350.462 132.793C351.666 130.434 357.163 131.539 359.206 128.835C360.538 127.069 369.509 125.233 369.588 126.96C369.805 131.717 368.335 135.516 365.522 139.898C364.121 142.079 363.549 144.655 360.479 146.086C358.594 146.964 355.979 152.205 354.183 152.935C352.061 153.794 350.867 156.014 349.554 157.583C348.104 159.31 345.794 159.172 343.85 160.386C341.62 161.778 339.439 163.653 337.08 164.798C334.198 166.199 331.78 172.268 332.609 176.62C333.557 181.545 333.843 193.625 336.024 189.105C336.527 188.059 338.541 185.039 339.952 182.029C341.906 177.854 342.37 173.768 347.196 168.242C353.857 161.235 361.476 155.195 368.927 151.198C370.792 150.221 368.828 156.527 367.881 158.412C366.608 160.939 368.582 163.682 366.46 165.301C363.993 167.176 365.532 171.656 362.039 173.956C360.183 175.18 359.423 179.236 356.996 180.094C354.864 180.854 353.541 184.417 350.729 185.029C347.798 185.66 345.646 188.197 342.587 189.697C339.883 191.039 335.55 192.125 336.873 201.263C337.524 205.783 337.376 221.682 340.682 219.067C345.35 215.386 347.048 209.05 349.811 202.694C350.788 200.444 351.913 198.816 353.157 196.556C357.065 189.45 362.68 181.989 373.072 177.479C374.967 176.66 372.657 182.187 371.75 185.966C371.434 187.289 372.075 188.937 371.325 190.2C369.805 192.796 371.572 194.819 369.519 196.822C367.437 199.27 368.601 201.54 365.808 203.681C363.973 204.777 364.792 207.708 362.266 209.563C359.186 211.221 360.884 212.731 356.206 215.149C354.37 216.106 353.837 215.317 351.252 216.945C348.676 218.563 347.551 220.281 344.225 221.435C339.794 222.57 340.495 227.228 340.613 230.9C339.853 245.279 340.258 276.701 337.268 273.662C333.399 269.744 329.984 268.984 331.03 267.03C335.787 258.079 332.935 241.637 333.063 228.008C333.083 225.432 330.399 223.784 327.872 223.409C323.885 222.817 320.53 221.06 316.503 220.152C312.931 219.343 309.289 220.458 305.825 219.323C303.693 218.623 301.67 216.146 299.647 215.159C298.206 214.458 295.344 214.182 293.982 213.402C292.354 212.474 291.14 211.487 290.074 210.076C287.005 206.04 275.014 194.039 279.001 193.654C284.518 193.111 289.206 192.983 293.104 195.421C297.298 198.056 301.572 197.424 304.276 200.187C307.572 203.553 311.52 206.918 315.714 208.102C318.053 208.764 315.763 210.935 321.053 212.918C324.675 214.28 325.099 217.527 329.974 219.787C332.116 220.784 332.057 219.264 331.879 218.406L328.662 202.971C328.178 200.651 315.033 196.566 310.651 196.131C307.592 195.825 304.147 192.421 299.243 191.69C296.766 191.325 294.476 188.286 289.502 186.381C286.729 185.325 285.643 182.789 282.298 180.44C280.798 179.384 280.067 176.265 279.327 174.844C278.459 173.196 286.265 175.19 289.265 176.591C291.752 177.746 294.752 177.676 297.318 178.93C299.736 180.114 301.838 182.058 304.276 182.67C306.032 183.114 308.253 184.535 309.783 186.006C316.513 192.5 322.257 196.793 327.468 198.154C330.103 198.845 325.257 184.506 322.385 176.611C321.556 174.321 310.069 170.946 307.236 171.094C304.305 171.252 301.315 171.331 298.502 171.933C295.631 172.545 292.808 170.847 290.015 171.42C287.341 171.972 283.768 168.716 279.89 169.091C276.771 169.396 274.383 166.534 270.633 166.268C267.662 166.051 266.034 162.093 262.471 161.531C259.264 161.028 252.78 155.866 256.194 154.8C273.426 149.441 295.818 155.343 310.552 168.824C312.99 171.054 319.306 171.745 318.013 169.12C309.802 152.461 292.571 142.81 284.252 139.76C278.636 137.707 274.718 141.033 270.198 142.977C265.797 144.862 261.287 142.533 255.444 143.747C250.944 144.675 247.845 141.053 242.802 140.451C236.713 139.721 229.874 134.382 235.785 132.013C239.161 130.661 239.891 128.312 243.829 129.24C247.293 130.049 251.181 128.391 254.813 129.516C258.227 130.572 261.415 129.753 264.168 131.204C267.879 133.168 272.725 134.786 276.584 134.382C268.422 128.796 259.155 124.789 247.352 125.973C243.059 126.407 239.871 125.509 235.983 126.664C232.805 127.611 230.14 125.49 226.193 126.259C222.581 126.96 219.581 123.397 216.038 123.97C213.403 124.404 211.182 121.582 207.728 119.973C204.639 118.542 198.432 113.568 201.511 112.295C204.787 110.943 207.847 108.979 210.926 108.426C214.686 107.745 217.39 109.354 220.854 108.87C224.643 108.337 228.265 109.63 231.71 109.867C235.233 110.104 239.684 113.834 242.723 114.506C248.507 115.788 252.069 119.933 256.076 121.434L270.988 127.019C275.162 128.579 264.741 119.904 258.04 118.167C254.102 117.15 253.421 113.617 249.592 112.038C245.546 110.37 246.335 106.551 243.286 104.656C238.647 101.794 238.411 96.7415 241.361 96.8697C244.825 97.0178 247.233 97.8764 250.618 98.2021C254.043 98.5277 256.115 102.594 258.77 103.176C262.589 104.015 264.159 110.064 267.188 111.505C273.791 114.644 272.567 120.358 279.791 128.598C283.985 133.385 302.47 143.333 312.506 153.952C306.21 136.355 295.69 119.006 271.925 101.242C257.842 90.7115 241.213 81.7506 237.078 82.2045C229.677 83.0138 229.765 85.9251 225.887 87.6324C224.061 88.4318 222.305 88.4121 220.331 88.9944C218.88 89.4286 217.646 90.3267 216.067 90.6326C214.913 90.8596 212.041 90.149 210.886 90.3267C208.606 90.6918 206.583 91.58 204.304 91.6491C201.965 91.7281 199.764 90.8695 197.464 90.6425C195.718 90.4648 194.257 90.9681 192.55 90.5635C190.862 90.1589 189.471 88.5897 187.842 87.9581C185.217 86.9416 183.194 86.7541 180.737 84.9975C179.089 83.8132 184.546 82.6092 186.184 81.7703C187.763 80.9611 188.78 80.3689 190.704 79.9446C193.014 79.4413 196.122 78.9478 198.708 79.3524C201.007 79.7176 203.386 78.5037 205.725 78.5728C208.745 78.6616 211.745 78.9182 214.597 79.1945C216.393 79.3722 218.396 78.9182 220.054 79.1255C226.627 79.9544 232.085 81.2177 233.752 80.063C235.46 78.8787 216.511 67.4801 208.488 71.3981C204.619 70.7566 199.507 73.8949 196.951 72.76C194.435 71.5461 191.326 73.1646 189.717 72.0297C186.49 69.7302 183.628 69.4638 183.026 68.6348C180.135 64.6774 177.411 66.0689 175.97 65.0524C174.085 64.026 173.444 62.4865 172.19 61.3022C169.891 59.1113 167.729 57.1276 167.325 54.8775C167.147 53.9202 169.081 53.4564 171.134 52.8149C173.098 52.203 174.144 51.0879 175.664 51.5221C178.625 52.3708 180.904 50.1602 182.918 51.1569C186.253 52.805 188.01 51.2556 190.339 52.9333C192.767 54.69 194.563 53.2787 196.714 54.9565C199.152 56.8612 201.195 56.3776 203.366 58.2626C205.626 60.2265 208.33 60.7594 210.107 62.4865C212.051 64.3714 211.853 65.6248 214.261 66.7696C225.226 71.9705 234.098 73.9739 231.295 71.9902C214.765 60.2956 214.459 47.4561 200.257 41.2683C198.126 40.3406 200.859 37.222 206.573 36.699C208.093 36.5608 209.268 37.4983 211.143 37.8635C212.534 38.1398 213.965 37.676 215.534 37.9918C216.729 38.2286 218.495 40.1432 219.906 40.9821C220.745 41.4854 222.867 41.7222 223.578 42.1466C225.176 43.094 225.255 44.4954 226.449 45.5909C227.723 46.7554 229.548 47.5252 230.476 48.7983C231.611 50.3674 231.552 52.3708 232.223 54.0189C232.657 55.0946 233.772 57.1868 234.088 58.2527C234.641 60.0883 233.93 62.2693 234.128 63.9865C234.789 69.5723 235.272 72.4442 237.799 74.0726C247.895 80.6157 266.764 93.7315 268.55 88.8562C268.827 88.1062 267.652 85.8462 264.356 83.3987C261.701 81.4249 258.918 78.6123 257.546 75.0693C256.915 73.441 256.994 71.704 256.52 69.8487C256.155 68.4078 254.517 66.9077 254.25 65.3484C254.004 63.9372 254.704 62.4766 254.675 60.9666C254.655 59.812 253.915 58.5488 253.954 57.3447C254.023 55.519 254.941 53.7426 255.375 51.828C256.037 48.8969 255.592 42.5611 257.823 43.2815C260.053 44.002 260.981 48.6897 263.932 49.8937C265.807 50.6635 264.83 55.746 266.093 56.7625C267.859 58.1836 266.784 62.2299 269.093 64.6675C270.149 65.7728 270.623 67.6282 271.106 69.069C271.629 70.6184 270.8 72.158 271.195 73.6679C272.202 77.507 271.807 81.1881 272.044 84.4547C272.212 86.7443 273.396 88.8266 272.557 90.6227C271.215 93.5045 294.614 116.657 295.413 113.519C295.818 111.93 292.098 107.43 289.166 101.34C287.479 97.827 285.278 93.8795 286.275 89.4089C286.828 86.9219 285.258 82.3032 286.679 78.4445C287.568 76.0266 286.413 72.2369 287.943 69.3355C289.926 65.605 289.265 60.7495 291.111 55.9138C292.186 53.0912 294.654 54.5814 295.986 62.5358C296.262 64.2135 297.17 65.5458 298.493 67.411C299.943 69.4638 297.861 74.9312 300.111 76.6385C301.443 77.655 298.779 81.0795 301.147 85.1948C302.006 86.6851 299.124 93.7216 301.67 97.304C302.786 98.8732 299.134 106.433 298.828 107.933C298.039 111.861 297.989 115.611 299.154 117.289C306.457 127.858 318.892 149.471 323.826 159.32C326.214 164.087 326.895 163.811 326.412 159.695C324.507 143.461 329.925 120.18 331.139 118.838C332.511 117.328 327.27 112.206 321.99 106.867C318.201 103.018 312.122 97.2645 313.138 94.5703C314.016 92.2511 310.73 89.6161 311.46 88.3035C313.158 85.2639 309.082 82.7079 309.832 80.438C311.204 76.2832 303.565 64.6576 307.7 66.4044C312.289 68.3486 318.003 73.3916 318.892 75.622C319.908 78.1879 322.652 80.4972 323.145 83.4086C323.619 86.2311 326.056 88.422 325.918 91.0076C325.79 93.4749 327.566 96.6033 327.418 98.6067C326.767 107.459 331.178 112.512 332.461 110.815C334.021 108.742 336.517 101.735 338.353 98.1922C340.899 85.9646 345.656 67.7762 359.956 62.141L359.966 62.1312Z" fill="white" stroke="#E00E00"/>
<path d="M212.248 67.638C199.024 66.0688 191.829 59.9304 172.111 55.6078" stroke="#E00E00" stroke-linecap="round"/>
<path d="M177.401 54.3051L180.154 57.5224L175.407 59.8218" stroke="#E00E00" stroke-linecap="round" stroke-linejoin="round"/>
<path d="M180.924 62.0423L186.214 59.4369L183.53 55.2229" stroke="#E00E00" stroke-linecap="round" stroke-linejoin="round"/>
<path d="M188.967 56.9105L192.342 61.5884L186.905 64.1938" stroke="#E00E00" stroke-linecap="round" stroke-linejoin="round"/>
<path d="M194.938 58.825L198.767 63.7299L192.639 67.105" stroke="#E00E00" stroke-linecap="round" stroke-linejoin="round"/>
<path d="M202.142 61.8154L205.587 66.4143L199.073 68.7137" stroke="#E00E00" stroke-linecap="round" stroke-linejoin="round"/>
<path d="M189.777 84.7112C202.734 83.1223 217.153 83.8822 227.16 83.3296" stroke="#E00E00" stroke-linecap="round"/>
<path d="M193.053 82.0861L197.78 84.1191L194.04 87.8002" stroke="#E00E00" stroke-linecap="round"/>
<path d="M200.869 81.4249L204.807 83.7935L201.649 87.9976" stroke="#E00E00" stroke-linecap="round"/>
<path d="M208.952 87.2673L212.169 83.6553L207.965 81.0894" stroke="#E00E00" stroke-linecap="round"/>
<path d="M215.061 81.2966L219.137 83.7935L216.117 86.8824" stroke="#E00E00" stroke-linecap="round"/>
<path d="M206.771 41.8604C223.528 45.7092 224.377 61.7166 231.858 68.7137" stroke="#E00E00" stroke-linecap="round"/>
<path d="M214.952 41.2979L215.327 45.5711H211.054" stroke="#E00E00" stroke-linecap="round"/>
<path d="M214.301 49.3805L219.778 50.1207L220.617 45.1961" stroke="#E00E00" stroke-linecap="round"/>
<path d="M226.844 52.3511L223.963 55.973L219.225 55.1341" stroke="#E00E00" stroke-linecap="round"/>
<path d="M223.311 60.8975L227.397 62.0127L230.279 58.4796" stroke="#E00E00" stroke-linecap="round"/>
<path d="M283.778 196.911C299.746 204.609 310.76 211.724 322.731 218.919" stroke="#E00E00" stroke-linecap="round"/>
<path d="M289.62 197.177L292.384 201.184L287.854 201.905" stroke="#E00E00" stroke-linecap="round"/>
<path d="M292.255 205.122L298.956 204.856L296.854 200.523" stroke="#E00E00" stroke-linecap="round"/>
<path d="M304.009 204.461L305.786 208.537L299.874 208.665" stroke="#E00E00" stroke-linecap="round"/>
<path d="M305.125 213.264L311.302 212.208L310.059 207.737" stroke="#E00E00" stroke-linecap="round"/>
<path d="M316.158 212.287L318.063 215.899L313.464 216.225" stroke="#E00E00" stroke-linecap="round"/>
<path d="M286.077 178.259C294.979 184.713 305.578 188.424 314.589 193.634" stroke="#E00E00" stroke-linecap="round"/>
<path d="M293.173 180.529L295.601 183.874H290.874" stroke="#E00E00" stroke-linecap="round"/>
<path d="M297.091 187.565L302.075 187.368L300.516 183.953" stroke="#E00E00" stroke-linecap="round"/>
<path d="M306.773 186.924L308.618 190.467L303.684 190.536" stroke="#E00E00" stroke-linecap="round"/>
<path d="M239.368 134.046C252.069 135.161 264.06 138.98 276.416 137.727" stroke="#E00E00" stroke-linecap="round"/>
<path d="M246.395 137.332L249.286 135.359L247.51 132.793" stroke="#E00E00" stroke-linecap="round"/>
<path d="M253.757 133.256L256.648 136.74L252.375 139.701" stroke="#E00E00" stroke-linecap="round"/>
<path d="M260.191 133.849L263.211 137.066L260.053 139.958" stroke="#E00E00" stroke-linecap="round"/>
<path d="M258.198 49.7556C258.178 61.8351 263.566 73.2535 267.03 83.2112" stroke="#E00E00" stroke-linecap="round"/>
<path d="M261.237 53.8807L259.353 60.0389L256.234 57.3645" stroke="#E00E00" stroke-linecap="round"/>
<path d="M264.721 67.3518L263.053 72.2073L259.145 70.0362" stroke="#E00E00" stroke-linecap="round"/>
<path d="M266.596 73.283L265.224 78.4247L261.455 76.3226" stroke="#E00E00" stroke-linecap="round"/>
<path d="M263.053 60.8284L260.951 66.4044L257.616 64.2332" stroke="#E00E00" stroke-linecap="round"/>
<path d="M293.321 63.5819C291.644 79.8558 292.897 94.1657 295.275 105.436" stroke="#E00E00" stroke-linecap="round"/>
<path d="M295.423 71.8422L292.532 74.6647L289.926 72.3455" stroke="#E00E00" stroke-linecap="round"/>
<path d="M295.779 81.4742L292.66 84.2968L289.255 81.6914" stroke="#E00E00" stroke-linecap="round"/>
<path d="M297.081 90.228L293.39 92.7643L289.403 90.3069" stroke="#E00E00" stroke-linecap="round"/>
<path d="M297.446 96.9684L294.19 101.025L290.134 97.6889" stroke="#E00E00" stroke-linecap="round"/>
<path d="M312.506 74.5956C318.951 83.8329 319.8 98.8337 326.412 107.4" stroke="#E00E00" stroke-linecap="round"/>
<path d="M318.23 80.8229L316.928 83.5763L312.437 80.2406" stroke="#E00E00" stroke-linecap="round"/>
<path d="M320.905 87.2673L319.237 90.8892L314.243 88.5009" stroke="#E00E00" stroke-linecap="round"/>
<path d="M323.224 94.215L321.852 98.4192L316.059 95.0834" stroke="#E00E00" stroke-linecap="round"/>
<path d="M342.922 94.8664C346.643 84.5336 352.091 74.2009 364.141 63.878" stroke="#E00E00" stroke-linecap="round"/>
<path d="M344.965 83.1322L346.031 87.0304L352.416 86.1126" stroke="#E00E00" stroke-linecap="round"/>
<path d="M356.611 79.1551L349.515 80.6354L348.706 76.0464" stroke="#E00E00" stroke-linecap="round"/>
<path d="M353.403 69.8585L354.183 73.7074L359.996 72.8981" stroke="#E00E00" stroke-linecap="round"/>
<path d="M340.041 121.453C350.166 111.071 362.364 110.627 367.585 103.916" stroke="#E00E00" stroke-linecap="round"/>
<path d="M345.932 112.966L346.071 116.292L353.295 116.696" stroke="#E00E00" stroke-linecap="round"/>
<path d="M359.956 113.183L352.505 113.055L352.239 110.143" stroke="#E00E00" stroke-linecap="round"/>
<path d="M358.496 107.074L359.029 109.551L364.664 109.403" stroke="#E00E00" stroke-linecap="round"/>
<path d="M338.254 159.745C343.672 153.636 349.485 139.839 363.854 130.819" stroke="#E00E00" stroke-linecap="round"/>
<path d="M355.407 133.582L355.693 137.194L361.081 137.224" stroke="#E00E00" stroke-linecap="round"/>
<path d="M355.693 143.727L349.742 143.599L348.864 139.701" stroke="#E00E00" stroke-linecap="round"/>
<path d="M353.334 149.876L344.857 149.866L343.939 146.076" stroke="#E00E00" stroke-linecap="round"/>
<path d="M347.768 154.988L341.857 154.939L341.186 151.553" stroke="#E00E00" stroke-linecap="round"/>
<path d="M246.335 102.377C255.217 108.722 264.287 115.078 270.119 121.424" stroke="#E00E00" stroke-linecap="round"/>
<path d="M248.043 121.562C235.332 117.812 221.999 115.502 208.231 114.2" stroke="#E00E00" stroke-linecap="round"/>
<path d="M254.013 104.025L254.675 108.298L249.03 107.903" stroke="#E00E00" stroke-linecap="round"/>
<path d="M260.586 109.541L260.981 113.223L255.533 113.094" stroke="#E00E00" stroke-linecap="round"/>
<path d="M266.172 114.209L266.498 117.693L262.56 117.298" stroke="#E00E00" stroke-linecap="round"/>
<path d="M214.666 112.107L216.442 115.068L212.238 117.17" stroke="#E00E00" stroke-linecap="round"/>
<path d="M221.505 113.084L224.071 116.173L218.288 118.996" stroke="#E00E00" stroke-linecap="round"/>
<path d="M228.729 114.407L231.69 117.565L226.104 121.246" stroke="#E00E00" stroke-linecap="round"/>
<path d="M236.151 115.186L239.309 119.124L234.581 122.085" stroke="#E00E00" stroke-linecap="round"/>
<path d="M341.116 185.394C348.558 175.653 357.203 170.946 363.223 157.899" stroke="#E00E00" stroke-linecap="round"/>
<path d="M367.309 184.644C359.907 194 353.285 209.672 347.896 214.843" stroke="#E00E00" stroke-linecap="round"/>
<path d="M263.448 156.774C277.649 158.728 290.667 164.916 302.47 167.926" stroke="#E00E00" stroke-linecap="round"/>
<path d="M270.603 155.659L272.646 158.63L267.81 160.672" stroke="#E00E00" stroke-linecap="round"/>
<path d="M279.801 157.524L281.567 161.146L275.715 162.449" stroke="#E00E00" stroke-linecap="round"/>
<path d="M287.884 160.12L289.551 163.929L284.35 166.159" stroke="#E00E00" stroke-linecap="round"/>
<path d="M294.851 162.725L296.43 165.883L293.084 167.738" stroke="#E00E00" stroke-linecap="round"/>
<path d="M358.209 161.047L359.048 164.393L364.062 163.929" stroke="#E00E00" stroke-linecap="round"/>
<path d="M359.226 169.781L354.953 169.693C354.953 169.604 354.213 166.347 354.213 166.16" stroke="#E00E00" stroke-linecap="round"/>
<path d="M350.127 170.709V174.893H356.542" stroke="#E00E00" stroke-linecap="round"/>
<path d="M349.939 179.631L345.755 179.256L346.13 176.561" stroke="#E00E00" stroke-linecap="round"/>
<path d="M367.407 189.381L362.295 191.148L361.831 188.365" stroke="#E00E00" stroke-linecap="round"/>
<path d="M365.542 195.421L359.038 196.724L358.012 193.654" stroke="#E00E00" stroke-linecap="round"/>
<path d="M361.644 201.095L356.255 201.934L355.051 199.053" stroke="#E00E00" stroke-linecap="round"/>
<path d="M357.923 206.573L352.811 207.313L352.258 204.342" stroke="#E00E00" stroke-linecap="round"/>
<path d="M117.988 236.069C119.645 241.218 119.197 246.816 116.743 251.634C114.29 256.451 110.031 260.093 104.903 261.758C99.7759 263.424 94.1996 262.976 89.4006 260.514C84.6016 258.053 80.9729 253.778 79.3124 248.63C77.6519 243.483 78.0956 237.884 80.5458 233.065C82.9961 228.245 87.2523 224.601 92.3786 222.932C97.5049 221.262 103.082 221.706 107.882 224.164C112.683 226.623 116.315 230.895 117.979 236.041" fill="white"/>
<path d="M117.988 236.069C119.645 241.218 119.197 246.816 116.743 251.634C114.29 256.451 110.031 260.093 104.903 261.758C99.7759 263.424 94.1996 262.976 89.4006 260.514C84.6016 258.053 80.9729 253.778 79.3124 248.63C77.6519 243.483 78.0956 237.884 80.5458 233.065C82.9961 228.245 87.2523 224.601 92.3786 222.932C97.5049 221.262 103.082 221.706 107.882 224.164C112.683 226.623 116.315 230.895 117.979 236.041" stroke="#0085CA" stroke-linecap="round"/>
<path d="M109.721 237.636C110.819 240.609 110.697 243.899 109.381 246.782C108.064 249.665 105.661 251.905 102.7 253.01C99.7384 254.114 96.4616 253.992 93.5897 252.671C90.7178 251.35 88.486 248.938 87.385 245.966C86.284 242.993 86.4039 239.703 87.7185 236.819C89.033 233.935 91.4345 231.693 94.3949 230.587C97.3553 229.48 100.632 229.6 103.505 230.918C106.378 232.237 108.611 234.648 109.715 237.62" fill="#0085CA"/>
<path d="M109.721 237.636C110.819 240.609 110.697 243.899 109.381 246.782C108.064 249.665 105.661 251.905 102.7 253.01C99.7384 254.114 96.4616 253.992 93.5897 252.671C90.7178 251.35 88.486 248.938 87.385 245.966C86.284 242.993 86.4039 239.703 87.7185 236.819C89.033 233.935 91.4345 231.693 94.3949 230.587C97.3553 229.48 100.632 229.6 103.505 230.918C106.378 232.237 108.611 234.648 109.715 237.62" stroke="#0085CA" stroke-linecap="round"/>
<path d="M108.092 254.328C110.924 259.618 116.154 266.635 117.753 276.07L124.069 276.346C123.497 269.29 123.339 265.549 118.592 257.861C114.151 250.677 112.463 243.956 110.144 241.153C105.98 242.12 105.812 250.065 108.092 254.328Z" fill="white" stroke="#0085CA"/>
<path d="M64.7571 391.161C50.082 387.707 34.6865 378.371 21.926 365.541C18.3732 361.969 24.6597 359.926 27.1861 361.209C39.996 367.712 48.3845 365.275 59.2404 365.541C63.257 365.64 63.5728 369.262 61.6089 370.93C59.941 372.341 58.2831 373.545 56.6152 374.611C60.0299 379.15 66.6519 380.147 75.455 380.147C87.2681 380.147 94.7092 362.975 94.7092 347.146V286.837H62.1221V273.701H94.7092V246.641C94.7092 242.91 97.9956 241.38 100.492 241.38C102.989 241.38 106.276 242.91 106.276 246.641V273.701H138.863V286.837H106.276V347.146C106.276 362.975 113.717 380.147 125.53 380.147C134.333 380.147 140.965 379.15 144.38 374.611C142.712 373.545 141.054 372.351 139.386 370.93C137.422 369.262 137.738 365.64 141.754 365.541C152.61 365.275 161.009 367.712 173.809 361.209C176.335 359.926 182.622 361.969 179.069 365.541C166.318 378.371 150.913 387.707 136.238 391.161C110.213 397.28 109.819 412.705 100.502 412.705C91.1861 412.705 90.7913 397.28 64.7669 391.161H64.7571Z" fill="white" stroke="#0085CA"/>
<path d="M122.757 287.37C121.267 294.199 118.434 300.614 111.713 305.598C95.9824 317.282 77.7249 329.885 85.5114 347.965C87.3668 352.278 89.9525 354.962 93.1894 357.084C92.3802 361.258 90.969 364.564 89.7649 367.594C82.0475 361.16 75.3958 354.695 75.1096 340.168C74.8333 325.928 85.7483 314.667 98.5187 305.055C105.486 299.804 112.888 295.038 114.871 287.379L122.757 287.37Z" fill="white" stroke="#0085CA"/>
<path d="M108.97 256.49C108.999 253.332 112.454 250.825 113.302 246.838" stroke="#0085CA"/>
<path d="M111.269 260.635C114.22 258.444 113.431 256.036 116.391 254.062" stroke="#0085CA"/>
<path d="M114.417 265.885C117.22 264.108 117.131 261.858 120.26 259.845" stroke="#0085CA"/>
<path d="M122.5 265.885C119.569 266.477 119.303 269.339 116.589 270.217" stroke="#0085CA"/>
<path d="M113.894 290.32C116.727 290.38 119.312 290.982 121.444 292.62" stroke="#0085CA"/>
<path d="M111.595 294.268C113.371 294.663 117.852 297.031 118.424 298.462" stroke="#0085CA"/>
<path d="M106.67 298.926C108.664 299.577 111.773 300.357 113.894 303.397" stroke="#0085CA"/>
<path d="M100.867 303.347C103.345 303.604 106.878 305.637 107.934 308.163" stroke="#0085CA"/>
<path d="M96.0909 306.811C99.3674 307.917 102.466 309.732 102.989 312.397" stroke="#0085CA"/>
<path d="M90.7913 311.499C94.4132 312.052 96.7916 313.562 98.8542 315.417" stroke="#0085CA"/>
<path d="M86.4095 315.762C90.0314 316.019 92.844 317.282 94.7191 319.286" stroke="#0085CA"/>
<path d="M82.8271 319.75C84.7614 319.828 88.63 320.49 90.6531 323.085" stroke="#0085CA"/>
<path d="M79.4026 324.22C82.7876 324.191 85.3634 324.901 88.1267 326.391" stroke="#0085CA"/>
<path d="M85.5805 330.457C82.6692 328.947 79.8269 329.164 77.0439 329.401" stroke="#0085CA"/>
<path d="M84.0706 334.829C80.8928 334.395 78.1196 334.04 75.4649 335.263" stroke="#0085CA"/>
<path d="M83.2613 339.556C80.6757 339.3 77.6262 339.843 75.3267 342.912" stroke="#0085CA"/>
<path d="M84.1989 344.126C80.3993 344.511 77.8038 346.386 76.2741 348.695" stroke="#0085CA"/>
<path d="M85.6496 348.656C82.7185 348.744 79.4026 350.481 77.8235 353.383" stroke="#0085CA"/>
<path d="M88.403 352.573C82.7876 354.024 81.8797 356.403 80.6263 357.863" stroke="#0085CA"/>
<path d="M91.492 356.028C88.6596 357.478 85.9555 360.212 84.7219 362.916" stroke="#0085CA"/>
<path d="M129.862 410.178C128.836 413.376 134.333 417.047 137.422 413.208C140.817 408.974 140.264 403.892 139.939 398.05C139.593 391.852 138.123 387.046 136.336 383.029C132.428 374.216 120.576 365.591 109.789 365.709C110.292 368.186 111.901 371.137 113.431 373.2C119.47 378.568 124.819 379.851 127.869 384.815C130.681 389.395 132.132 403.122 129.862 410.178Z" fill="white" stroke="#0085CA"/>
<path d="M115.414 366.508C115.77 368.995 114.487 372.331 113.855 373.417" stroke="#0085CA"/>
<path d="M118.888 376.644C120.359 375.45 121.375 370.752 121.415 368.65" stroke="#0085CA"/>
<path d="M127.8 372.874C127.366 376.042 125.885 378.539 124.119 380.147" stroke="#0085CA"/>
<path d="M127.504 384.756C130.089 383.878 131.668 381.697 133.484 378.104" stroke="#0085CA"/>
<path d="M129.922 389.217C132.714 389.454 136.001 386.384 137.205 384.825" stroke="#0085CA"/>
<path d="M139.159 392.059C137.294 393.905 132.833 395.286 130.869 394.062" stroke="#0085CA"/>
<path d="M130.948 399.421C133.228 400.655 138.004 400.191 139.761 398.622" stroke="#0085CA"/>
<path d="M139.879 405.52C137.432 406.665 132.872 406.468 130.978 404.622" stroke="#0085CA"/>
</g>
<defs>
<clipPath id="clip0">
<rect y="0.115173" width="400" height="494.27" fill="white"/>
</clipPath>
</defs>
</svg>
