<svg width="401" height="625" viewBox="0 0 401 625" fill="none" xmlns="http://www.w3.org/2000/svg">
<g clip-path="url(#clip0)">
<path d="M384.444 43.258C378.093 39.8609 371.624 36.6573 365.07 33.6058L359.369 43.9201C361.12 44.7303 362.852 45.5766 364.593 46.4069L347.429 64.7556C346.923 64.566 346.42 64.3685 345.911 64.1816C325.552 56.7105 304.45 50.7812 282.755 46.5017L285.818 18.7304C288.409 19.3257 291.007 19.9077 293.576 20.5564L296.752 9.28508C280.638 5.20182 264.119 2.1397 247.275 0.136108L245.997 11.7692C248.864 12.1109 251.712 12.5234 254.562 12.9292L243.588 40.6858C229.515 39.2629 215.244 38.5087 200.798 38.5047V38.5033C200.78 38.5033 200.765 38.5047 200.746 38.5047C200.728 38.5047 200.713 38.5033 200.694 38.5033V38.5047C186.249 38.5087 171.976 39.2615 157.903 40.6858L146.93 12.9292C149.779 12.5234 152.627 12.1109 155.494 11.7692L154.216 0.136108C137.372 2.14103 120.854 5.20315 104.738 9.28508L107.914 20.5564C110.485 19.9077 113.081 19.3257 115.672 18.7304L118.735 46.5017C97.0401 50.7812 75.9376 56.7105 55.5787 64.1816C55.0701 64.3685 54.5669 64.566 54.0596 64.7556L36.895 46.4056C38.6356 45.5753 40.3669 44.729 42.1182 43.9188L36.4171 33.6045C29.863 36.6559 23.3931 39.8609 17.0419 43.2567C11.521 46.2094 6.11095 49.3382 0.752914 52.5445L7.76615 61.9845C9.76707 60.7951 11.7827 59.6271 13.8009 58.4658L25.398 76.6116L62.6854 134.949H338.799L376.086 76.6116L387.685 58.4658C389.703 59.6271 391.717 60.7951 393.718 61.9845L400.732 52.5445C395.379 49.3395 389.966 46.2107 384.444 43.258Z" fill="black"/>
<path d="M382.505 46.7904C377.515 44.1221 372.217 41.4511 366.708 38.8281L364.883 42.1292L371.205 45.1472L348.482 69.4373L344.48 67.9409C324.258 60.5219 303.21 54.6299 281.926 50.4319L278.318 49.7204L282.281 13.8213C282.281 13.8213 289.82 15.5526 290.717 15.7608L291.724 12.1781C278.323 8.94111 264.578 6.40225 250.76 4.6109L250.353 8.29906C251.652 8.47659 260.099 9.68061 260.099 9.68061L246.146 44.9724L243.132 44.668C230.322 43.3732 217.423 42.6538 200.798 42.527C200.78 42.527 200.765 42.527 200.746 42.527C200.728 42.527 200.713 42.527 200.694 42.527V42.5283C184.069 42.6551 171.169 43.3746 158.36 44.6694L155.346 44.9737L141.393 9.68195C141.393 9.68195 149.84 8.47792 151.139 8.30039L150.731 4.61224C136.913 6.40359 123.168 8.94245 109.767 12.1794L110.776 15.7621C111.673 15.5539 119.212 13.8226 119.212 13.8226L123.172 49.7217L119.564 50.4332C98.2803 54.6326 77.2339 60.5246 57.0111 67.9423L53.0093 69.4386L30.285 45.1459L36.6055 42.1278L34.7808 38.8268C29.2719 41.4497 23.9726 44.1208 18.9843 46.7891C15.132 48.8501 11.1488 51.0926 6.6691 53.7236L8.88893 56.7123C9.87671 56.1369 15.1707 53.0895 15.1707 53.0895L49.6242 106.996C94.8725 87.6244 144.51 76.6521 200.666 76.1115C256.823 76.6507 306.614 87.6244 351.865 106.996L386.316 53.0895C386.316 53.0895 391.611 56.1369 392.599 56.7123L394.82 53.7236C390.341 51.0926 386.358 48.8501 382.505 46.7904Z" fill="#FFDD00"/>
<path d="M387.685 58.4702C388.954 59.2044 393.731 61.9755 393.731 61.9755L400.744 52.5329L396.901 50.273C392.422 47.642 388.35 45.3488 384.444 43.2598C379.408 40.5647 374.036 37.8577 368.483 35.2134L365.078 33.5942L359.374 43.9112L364.588 46.4006L318.093 95.6521C303.957 91.0042 292.885 88.0249 278.286 85.0388L285.813 18.7295L293.584 20.5275L296.76 9.26281L292.717 8.28705C279.191 5.0207 265.267 2.44713 251.326 0.639764L247.28 0.115173L245.997 11.7389L249.863 12.2675C250.448 12.3476 252.489 12.6359 254.548 12.9283L228.41 78.4674C219.864 77.82 215.343 78.1671 206.759 78.0803H203.664L210.068 103.135L235.373 81.7018C247.032 82.7549 258.72 84.3554 270.202 86.4711L270.024 88.0529L322.668 102.755L324.558 100.742C333.245 103.731 341.908 107.069 350.342 110.68L353.462 112.016L387.685 58.4702Z" fill="black"/>
<path d="M232.653 78.7558L260.151 9.68061C260.151 9.68061 251.704 8.47659 250.405 8.29906L250.812 4.6109C264.63 6.40225 278.374 8.94111 291.776 12.1781L290.769 15.7608C289.872 15.5526 282.333 13.8213 282.333 13.8213L274.381 85.1109L321.408 98.2444L371.259 45.1472L364.937 42.1292L366.761 38.8281C372.27 41.4511 377.568 44.1221 382.558 46.7904C386.412 48.8514 390.395 51.0939 394.874 53.7249L392.653 56.7136C391.666 56.1383 386.37 53.0909 386.37 53.0909L351.919 106.997C306.655 87.6191 256.924 76.6921 204.699 76.1582L211.895 96.3369L232.653 78.7558Z" fill="#FFDD00"/>
<path d="M13.8051 58.4702C12.533 59.2031 7.75699 61.9755 7.75699 61.9755L0.743759 52.5329L4.58943 50.273C9.06647 47.642 13.1404 45.3488 17.0435 43.2598C22.0798 40.5647 27.4525 37.8577 33.0068 35.2134L36.4106 33.5942L42.1144 43.9112L36.9018 46.4006L83.3955 95.6521C97.5315 91.0042 108.604 88.0249 123.202 85.0388L115.676 18.7295L107.903 20.5275L104.73 9.26281L108.772 8.28705C122.298 5.0207 136.223 2.44713 150.164 0.639764L154.21 0.115173L155.493 11.7389L151.627 12.2675C151.042 12.3476 149.001 12.6359 146.942 12.9283L173.081 78.4674C181.626 77.82 186.147 78.1671 194.733 78.0803H197.827L191.424 103.135L166.117 81.7018C154.458 82.7549 142.77 84.3554 131.288 86.4711L131.466 88.0529L78.8237 102.752L76.9336 100.739C68.2451 103.728 59.5834 107.066 51.1499 110.677L48.0277 112.013L13.8051 58.4702Z" fill="black"/>
<path d="M168.837 78.7558L141.34 9.68061C141.34 9.68061 149.786 8.47659 151.085 8.29906L150.678 4.6109C136.86 6.40225 123.115 8.94111 109.713 12.1781L110.722 15.7608C111.619 15.5526 119.159 13.8213 119.159 13.8213L127.107 85.1109L80.0825 98.243L30.233 45.1459L36.5534 42.1278L34.7287 38.8268C29.2198 41.4497 23.9205 44.1208 18.9323 46.7891C15.0799 48.8501 11.0968 51.0926 6.61705 53.7236L8.83688 56.7123C9.82466 56.1369 15.1186 53.0895 15.1186 53.0895L49.5721 106.996C94.8351 87.6177 144.567 76.6908 196.793 76.1568L189.597 96.3356L168.837 78.7558Z" fill="#FFDD00"/>
<path d="M72.1522 130.613C72.8076 127.584 72.243 124.482 70.5664 121.878L45.1271 82.3852C42.9833 79.0535 39.3339 77.0659 35.3654 77.0659C33.1429 77.0659 30.9765 77.7053 29.0984 78.9147L26.9293 75.5495C29.4561 73.9224 32.3727 73.0627 35.3654 73.0627C40.7034 73.0627 45.6116 75.7378 48.4949 80.2188L73.9315 119.709C76.1888 123.213 76.9483 127.387 76.0673 131.459L72.1522 130.613Z" fill="black"/>
<path d="M69.3624 83.321C86.6605 77.1874 104.545 72.2431 122.622 68.5537V64.4584C103.473 68.3254 84.5328 73.598 66.2455 80.1801L69.3624 83.321Z" fill="black"/>
<path d="M76.2342 90.9135C91.3632 85.729 106.907 81.4468 122.622 78.1444V74.0518C105.833 77.5397 89.2301 82.1409 73.1013 87.7593L76.2342 90.9135Z" fill="black"/>
<path d="M60.168 72.3579L59.263 72.6969L62.3678 75.8258C81.8538 68.7271 102.097 63.0754 122.557 59.0402L122.622 59.0269V54.9449L121.783 55.1105C100.835 59.2431 80.1092 65.0443 60.168 72.3579Z" fill="black"/>
<path d="M325.422 131.459C324.541 127.387 325.301 123.213 327.56 119.709L352.995 80.2161C355.879 75.7351 360.788 73.0601 366.125 73.0601C369.117 73.0601 372.035 73.921 374.561 75.5469L372.392 78.912C370.512 77.704 368.349 77.0632 366.125 77.0632C362.154 77.0632 358.507 79.0508 356.362 82.3826L330.924 121.876C329.247 124.481 328.681 127.583 329.338 130.612L325.422 131.459Z" fill="black"/>
<path d="M341.322 72.3579L342.225 72.6969L339.122 75.8258C319.634 68.7271 299.392 63.0754 278.932 59.0402L278.866 59.0269V54.9449L279.706 55.1105C300.655 59.2431 321.381 65.0443 341.322 72.3579Z" fill="black"/>
<path d="M242.55 49.4734C228.616 48.1119 214.591 47.271 200.756 47.1628C200.753 47.1628 200.748 47.1628 200.745 47.1628C200.742 47.1628 200.737 47.1628 200.734 47.1628C186.899 47.271 172.872 48.1132 158.939 49.4734L160.704 53.3271C174.055 52.0564 187.379 51.2728 200.744 51.1687C214.108 51.2728 227.432 52.0564 240.784 53.3271L242.55 49.4734Z" fill="black"/>
<path d="M332.128 83.321C314.83 77.1874 296.945 72.2431 278.868 68.5537V64.4584C298.017 68.3254 316.957 73.598 335.243 80.1801L332.128 83.321Z" fill="black"/>
<path d="M238.686 58.3568C225.705 57.1368 212.791 56.3866 200.769 56.2838V56.2825C200.761 56.2825 200.753 56.2825 200.745 56.2825C200.737 56.2825 200.729 56.2825 200.721 56.2825V56.2838C188.699 56.3866 175.784 57.1368 162.804 58.3568L164.566 62.2105C176.962 61.0785 189.192 60.3884 200.745 60.2897C212.297 60.3884 224.527 61.0799 236.923 62.2105L238.686 58.3568Z" fill="black"/>
<path d="M325.255 90.9135C310.126 85.729 294.581 81.4468 278.866 78.1444V74.0518C295.656 77.5397 312.259 82.1409 328.389 87.7593L325.255 90.9135Z" fill="black"/>
<path d="M234.849 67.4056C223.041 66.3578 211.442 65.7131 200.749 65.7104L200.746 65.9613L200.744 65.7104C190.049 65.7131 178.451 66.3564 166.643 67.4056L168.41 71.2713C179.611 70.3062 190.526 69.7149 200.746 69.7149C210.967 69.7149 221.881 70.3062 233.082 71.2713L234.849 67.4056Z" fill="black"/>
<path fill-rule="evenodd" clip-rule="evenodd" d="M389.931 433.031V136.132H11.5546V433.031C11.5546 472.198 23.4293 508.585 43.7696 538.789H357.719C378.057 508.585 389.931 472.198 389.931 433.031Z" fill="#E2001A"/>
<path d="M358.712 540.657H42.7751L42.2198 539.833C20.9372 508.226 9.68585 471.295 9.68585 433.031V134.264H391.802V433.031C391.802 471.294 380.552 508.226 359.27 539.833L358.712 540.657ZM44.7667 536.919H356.721C377.231 506.116 388.063 470.215 388.063 433.031V138.002H13.4234V433.031C13.4234 470.217 24.2583 506.116 44.7667 536.919Z" fill="black"/>
<path fill-rule="evenodd" clip-rule="evenodd" d="M312.048 351.301H120.56C118.771 351.301 117.32 349.852 117.32 348.063C117.32 346.272 118.771 344.822 120.56 344.822H312.048V351.301Z" fill="#FFDD00"/>
<path d="M310.163 353.17H120.56C117.744 353.17 115.452 350.88 115.452 348.063C115.452 345.245 117.744 342.953 120.56 342.953H314.094V353.169H310.163V353.17ZM120.56 346.692C119.805 346.692 119.189 347.308 119.189 348.064C119.189 348.819 119.803 349.434 120.56 349.434H310.163V346.692H120.56Z" fill="black"/>
<path fill-rule="evenodd" clip-rule="evenodd" d="M204.245 528.073V217.415C204.245 214.951 202.328 212.954 199.962 212.954C197.599 212.954 195.678 214.951 195.678 217.415V528.073H204.245Z" fill="#FFDD00"/>
<path d="M206.112 529.943H193.808V217.415C193.808 213.924 196.567 211.085 199.96 211.085C203.353 211.085 206.112 213.924 206.112 217.415V529.943ZM197.547 526.204H202.376V217.415C202.376 215.985 201.292 214.823 199.962 214.823C198.631 214.823 197.547 215.985 197.547 217.415V526.204Z" fill="black"/>
<path fill-rule="evenodd" clip-rule="evenodd" d="M43.7696 538.789C77.7545 589.26 135.375 622.454 200.744 622.454C266.111 622.454 323.733 589.26 357.719 538.789H43.7696Z" fill="#FFDD00"/>
<path d="M200.744 624.322C137.104 624.322 77.844 592.737 42.2198 539.832L40.2576 536.918H361.23L359.269 539.832C323.644 592.737 264.382 624.322 200.744 624.322ZM47.3203 540.657C82.4412 590.772 139.525 620.583 200.744 620.583C261.961 620.583 319.045 590.772 354.169 540.657H47.3203Z" fill="black"/>
<path fill-rule="evenodd" clip-rule="evenodd" d="M192.473 335.159L199.929 314.811L207.375 335.158L228.722 331.443L214.826 348.065L228.714 364.687L207.383 360.975L199.927 381.315L192.465 360.974L171.126 364.691L185.025 348.062L171.126 331.443L192.473 335.159Z" fill="#FFDD00"/>
<path d="M199.927 386.743L191.248 363.081L166.42 367.406L182.589 348.061L166.417 328.725L191.254 333.049L199.928 309.376L208.591 333.048L233.426 328.725L217.26 348.063L233.417 367.401L208.601 363.083L199.927 386.743ZM193.682 358.865L199.927 375.888L206.166 358.866L224.011 361.972L212.392 348.065L224.015 334.158L206.158 337.267L199.93 320.245L193.69 337.268L175.834 334.16L187.459 348.062L175.832 361.975L193.682 358.865Z" fill="black"/>
<path fill-rule="evenodd" clip-rule="evenodd" d="M208.812 211.439C208.812 214.904 203.48 217.714 199.96 217.714C196.44 217.714 191.109 214.904 191.109 211.439L199.96 166.058L208.812 211.439Z" fill="#FFDD00"/>
<path d="M199.962 219.584C195.645 219.584 189.242 216.164 189.242 211.439L189.275 211.081L199.962 156.295L210.682 211.439C210.682 216.163 204.278 219.584 199.962 219.584ZM192.984 211.585C193.173 213.632 197.205 215.845 199.962 215.845C202.718 215.845 206.751 213.632 206.939 211.585L199.962 175.821L192.984 211.585Z" fill="black"/>
<path fill-rule="evenodd" clip-rule="evenodd" d="M70.9442 538.789V506.203C73.3642 507.726 77.7171 508.969 84.8305 506.336C98.7395 501.188 93.1305 481.584 91.7196 474.79C90.1752 467.35 91.5621 454.171 91.5621 454.171C91.5621 454.171 85.0774 458.807 82.3063 463.427C78.5207 469.739 79.2202 470.588 77.1165 479.001C75.9191 483.794 73.1266 485.72 70.9428 486.491V417.75C73.3629 419.274 77.7158 420.516 84.8278 417.883C98.7368 412.735 93.1278 393.131 91.7169 386.337C90.1725 378.897 91.5594 365.718 91.5594 365.718C91.5594 365.718 85.0748 370.354 82.3036 374.974C78.518 381.286 79.2175 382.135 77.1138 390.549C75.9164 395.341 73.1253 397.265 70.9415 398.038V332.711C73.3616 334.236 77.7145 335.477 84.8278 332.845C98.7368 327.696 93.1278 308.093 91.7169 301.299C90.1725 293.858 91.5594 280.679 91.5594 280.679C91.5594 280.679 85.0748 285.315 82.3036 289.935C78.518 296.248 79.2175 297.097 77.1138 305.51C75.9164 310.302 73.124 312.228 70.9402 313.001V273.621C70.9402 270.687 68.5615 268.308 65.6275 268.308C62.6935 268.308 60.3149 270.687 60.3149 273.621V313.001C58.1311 312.227 55.3399 310.302 54.1426 305.51C52.0389 297.097 52.7383 296.248 48.9527 289.935C46.1829 285.315 39.697 280.679 39.697 280.679C39.697 280.679 41.0839 293.858 39.5395 301.299C38.1285 308.093 32.5195 327.695 46.4286 332.845C53.5406 335.478 57.8935 334.236 60.3135 332.711V398.04C58.1297 397.267 55.3373 395.341 54.1399 390.549C52.0362 382.135 52.7357 381.286 48.9501 374.974C46.1803 370.354 39.6943 365.718 39.6943 365.718C39.6943 365.718 41.0812 378.897 39.5368 386.337C38.1259 393.131 32.5169 412.733 46.4259 417.883C53.5392 420.517 57.8921 419.274 60.3122 417.75V486.491C58.1284 485.72 55.3373 483.794 54.1399 479.001C52.0362 470.588 52.7357 469.739 48.9501 463.427C46.1803 458.807 39.6943 454.171 39.6943 454.171C39.6943 454.171 41.0812 467.35 39.5368 474.79C38.1259 481.584 32.5169 501.186 46.4259 506.336C53.5379 508.97 57.8908 507.726 60.3109 506.203V538.789H70.9442Z" fill="#FFDD00"/>
<path d="M72.8143 540.658H58.4487V509.098C54.9248 510.197 50.5972 509.87 45.7838 508.086C31.4063 502.764 35.5603 484.113 37.3343 476.148L37.7134 474.408C39.183 467.334 37.8562 454.493 37.8429 454.363L37.409 450.23L40.7889 452.648C41.0665 452.845 47.6232 457.565 50.5599 462.463C53.5032 467.371 53.9223 469.344 54.7579 473.276C55.0543 474.669 55.4093 476.345 55.9593 478.545C56.4572 480.541 57.2914 482.098 58.4487 483.204V420.644C54.9288 421.745 50.6012 421.417 45.7825 419.632C31.405 414.31 35.559 395.658 37.333 387.693L37.7121 385.954C39.1804 378.887 37.8549 366.038 37.8415 365.909L37.4077 361.777L40.7875 364.193C41.0652 364.391 47.6219 369.111 50.5585 374.008C53.5018 378.917 53.921 380.89 54.7566 384.822C55.0529 386.214 55.408 387.891 55.9579 390.091C56.4558 392.085 57.2901 393.643 58.4487 394.75V335.603C54.9288 336.702 50.5972 336.374 45.7838 334.591C31.4063 329.269 35.5603 310.617 37.3343 302.652L37.7134 300.913C39.183 293.838 37.8562 280.997 37.8429 280.868L37.409 276.735L40.7889 279.152C41.0665 279.35 47.6232 284.07 50.5599 288.967C53.5032 293.876 53.9223 295.848 54.7579 299.781C55.0543 301.173 55.4093 302.85 55.9593 305.049C56.4572 307.042 57.2914 308.6 58.4487 309.707V273.614C58.4487 269.654 61.671 266.431 65.6315 266.431C69.592 266.431 72.8143 269.654 72.8143 273.614V309.709C73.9729 308.603 74.8072 307.044 75.3051 305.049C75.855 302.85 76.2114 301.173 76.5064 299.781C77.342 295.85 77.7598 293.876 80.7058 288.967C83.6411 284.07 90.1979 279.351 90.4755 279.152L93.8553 276.736L93.4215 280.868C93.4068 280.997 92.0826 293.846 93.551 300.913L93.9301 302.652C95.7041 310.617 99.8567 329.267 85.4805 334.591C80.6618 336.373 76.3316 336.702 72.8143 335.603V394.748C73.9716 393.641 74.8058 392.085 75.3037 390.091C75.8537 387.891 76.2101 386.214 76.5051 384.822C77.3407 380.891 77.7585 378.917 80.7045 374.008C83.6398 369.111 90.1965 364.392 90.4742 364.193L93.854 361.777L93.4202 365.909C93.4055 366.038 92.0813 378.887 93.5496 385.954L93.9287 387.693C95.7027 395.658 99.8554 414.309 85.4792 419.632C80.6658 421.415 76.3329 421.746 72.8143 420.644V483.205C73.9729 482.098 74.8072 480.541 75.3051 478.545C75.855 476.345 76.2114 474.669 76.5064 473.276C77.342 469.345 77.7598 467.371 80.7058 462.463C83.6411 457.565 90.1979 452.847 90.4755 452.648L93.8553 450.232L93.4215 454.363C93.4068 454.493 92.0826 467.342 93.551 474.408L93.9301 476.148C95.7041 484.113 99.8567 502.763 85.4805 508.086C80.6644 509.87 76.3342 510.193 72.8143 509.098V540.658ZM62.1876 536.919H69.0754V502.819L71.9399 504.62C74.8606 506.458 79.1227 506.458 84.1831 504.584C95.5012 500.392 91.9772 484.568 90.2819 476.963L89.8908 475.169C88.859 470.196 89.0672 462.946 89.3542 458.342C87.4628 459.996 85.2109 462.219 83.9121 464.386C81.2892 468.759 80.9835 470.201 80.1639 474.055C79.8595 475.48 79.4951 477.198 78.9318 479.454C77.5262 485.071 74.1518 487.339 71.5675 488.253L69.0754 489.133V414.365L71.9399 416.168C74.8579 418.005 79.1227 418.003 84.1804 416.131C95.4985 411.939 91.9745 396.115 90.2793 388.51L89.8882 386.716C88.8563 381.743 89.0646 374.493 89.3516 369.889C87.4601 371.543 85.2082 373.766 83.9094 375.933C81.2851 380.306 80.9808 381.748 80.1612 385.602C79.8569 387.027 79.4925 388.745 78.9292 391.001C77.5249 396.615 74.1504 398.885 71.5662 399.799L69.0741 400.681V329.326L71.9386 331.129C74.8552 332.966 79.1187 332.965 84.1804 331.092C95.4985 326.901 91.9745 311.076 90.2793 303.472L89.8882 301.678C88.8563 296.704 89.0646 289.455 89.3516 284.851C87.4601 286.505 85.2082 288.727 83.9094 290.895C81.2865 295.268 80.9808 296.709 80.1612 300.563C79.8569 301.989 79.4925 303.707 78.9292 305.962C77.5249 311.578 74.1504 313.847 71.5649 314.762L69.0727 315.644V273.621C69.0727 271.721 67.5283 270.177 65.6288 270.177C63.7294 270.177 62.185 271.721 62.185 273.621V315.645L59.6915 314.762C57.1072 313.845 53.7341 311.575 52.3299 305.962C51.7666 303.708 51.4021 301.989 51.0978 300.563C50.2795 296.709 49.9739 295.268 47.3509 290.895C46.0494 288.727 43.7989 286.505 41.9074 284.851C42.1944 289.455 42.4027 296.705 41.3708 301.678L40.9797 303.472C39.2845 311.076 35.7605 326.902 47.0786 331.092C52.139 332.965 56.4011 332.966 59.3191 331.129L62.1836 329.326V400.683L59.6915 399.8C57.1059 398.886 53.7314 396.617 52.3272 391.001C51.7639 388.746 51.3995 387.027 51.0951 385.602C50.2769 381.748 49.9699 380.306 47.3482 375.933C46.0441 373.76 43.7949 371.539 41.9034 369.887C42.1918 374.492 42.4 381.743 41.3682 386.716L40.9771 388.51C39.2818 396.115 35.7579 411.941 47.0759 416.131C52.1376 418.003 56.3998 418.005 59.3177 416.168L62.1823 414.365V489.133L59.6901 488.253C57.1059 487.339 53.7328 485.072 52.3272 479.454C51.7639 477.199 51.3995 475.48 51.0951 474.055C50.2769 470.201 49.9712 468.759 47.3482 464.386C46.0468 462.219 43.7962 459.996 41.9048 458.342C42.1918 462.946 42.4 470.197 41.3682 475.169L40.9771 476.963C39.2818 484.568 35.7579 500.394 47.0759 504.584C52.131 506.456 56.3958 506.456 59.3177 504.62L62.1823 502.819V536.919H62.1876Z" fill="black"/>
<path d="M204.698 131.311V76.1581C256.923 76.6907 306.652 87.619 351.918 106.997L336.377 131.31L204.698 131.311Z" fill="black"/>
<path fill-rule="evenodd" clip-rule="evenodd" d="M103.283 161.551C103.283 161.551 135.524 181.301 135.524 221.249C135.524 244.333 135.524 515.132 135.524 515.132L150.795 528.389H159.844C159.844 528.389 159.844 263.405 159.844 226.341C159.844 170.059 104.977 158.157 104.977 158.157L103.283 161.551Z" fill="#FFDD00"/>
<path d="M161.714 530.258H150.097L133.655 515.984V221.248C133.655 182.792 102.621 163.337 102.308 163.144L100.846 162.25L103.956 156.023L105.375 156.33C105.938 156.453 161.714 169.211 161.714 226.34V530.258ZM151.495 526.519H157.976V226.34C157.976 176.565 114.589 162.605 105.984 160.326L105.686 160.92C112.038 165.42 137.392 185.62 137.392 221.247V514.277L151.495 526.519Z" fill="black"/>
<path d="M152.77 528.389H149.031C149.031 528.389 149.052 246.74 149.031 222.892C148.995 180.166 104.857 161.618 104.411 161.436L105.827 157.976C106.297 158.168 152.731 177.685 152.77 222.889C152.791 246.737 152.77 528.389 152.77 528.389Z" fill="black"/>
<path d="M100.479 162.107C102.629 162.107 104.373 160.364 104.373 158.213C104.373 156.063 102.629 154.32 100.479 154.32C98.3284 154.32 96.5851 156.063 96.5851 158.213C96.5851 160.364 98.3284 162.107 100.479 162.107Z" fill="#FFDD00"/>
<path d="M100.477 163.977C97.2992 163.977 94.715 161.392 94.715 158.215C94.715 155.038 97.3005 152.451 100.477 152.451C103.654 152.451 106.241 155.038 106.241 158.215C106.241 161.392 103.656 163.977 100.477 163.977ZM100.477 156.188C99.3602 156.188 98.4525 157.097 98.4525 158.215C98.4525 159.332 99.3602 160.24 100.477 160.24C101.595 160.24 102.504 159.332 102.504 158.215C102.504 157.097 101.595 156.188 100.477 156.188Z" fill="black"/>
<path fill-rule="evenodd" clip-rule="evenodd" d="M122.174 325.602H150.901V311.151H135.524L121.029 325.599L135.524 340.045V325.898" fill="#FFDD00"/>
<path d="M137.394 344.546L118.382 325.599L134.753 309.282H152.771V327.471H137.394V344.546ZM125.552 327.471L133.653 335.544V327.471H125.552ZM125.548 323.732H149.032V313.021H136.296L125.548 323.732Z" fill="black"/>
<path d="M91.2284 236.702C97.3085 233.151 99.3882 225.356 95.8642 219.247C92.3389 213.144 84.5488 211.045 78.4273 214.534C78.3912 207.495 72.6808 201.798 65.6315 201.798C58.5809 201.798 52.8705 207.495 52.8318 214.534C46.7129 211.051 38.9254 213.147 35.4028 219.25C31.8802 225.356 33.9532 233.148 40.0334 236.702C33.9585 240.258 31.8815 248.05 35.4028 254.153C38.9281 260.256 46.7129 262.357 52.8318 258.872C52.8678 265.911 58.5809 271.608 65.6315 271.608C72.6808 271.608 78.3912 265.908 78.4273 258.869C84.5448 262.357 92.3349 260.262 95.8642 254.153C99.3882 248.05 97.3072 240.252 91.2284 236.702Z" fill="#FFDD00"/>
<path d="M65.6302 273.478C58.5235 273.478 52.5608 268.371 51.2367 261.634C49.7136 262.154 48.1105 262.424 46.498 262.424C41.2694 262.424 36.3973 259.614 33.785 255.089C30.2357 248.94 31.6773 241.222 36.8458 236.704C31.676 232.189 30.2343 224.472 33.7837 218.318C36.3946 213.795 41.2654 210.985 46.4953 210.985C48.1091 210.985 49.7123 211.254 51.2367 211.776C52.5635 205.039 58.5262 199.931 65.6302 199.931C72.7342 199.931 78.6956 205.038 80.0198 211.775C81.5455 211.252 83.1513 210.982 84.7664 210.982C89.9977 210.982 94.8698 213.791 97.4808 218.314C101.033 224.469 99.5898 232.189 94.4173 236.703C99.5925 241.22 101.035 248.936 97.4808 255.089C94.8658 259.614 89.9937 262.425 84.7651 262.425C84.7651 262.425 84.7651 262.425 84.7638 262.425C83.15 262.425 81.5455 262.154 80.0198 261.631C78.6956 268.369 72.7342 273.478 65.6302 273.478ZM54.6832 255.667L54.7006 258.864C54.7299 264.86 59.6341 269.739 65.6302 269.739C71.6236 269.739 76.5265 264.859 76.5572 258.861L76.5745 255.663L79.3523 257.248C81.0049 258.189 82.8776 258.687 84.7664 258.687C88.6655 258.688 92.2976 256.592 94.2478 253.219C97.2458 248.027 95.4692 241.343 90.2873 238.316L87.5242 236.702L90.2873 235.088C95.4678 232.062 97.2445 225.376 94.2464 220.182C92.3003 216.811 88.6682 214.717 84.7678 214.717C82.879 214.717 81.0062 215.215 79.3523 216.157L76.5745 217.739L76.5572 214.542C76.5278 208.546 71.625 203.667 65.6302 203.667C59.6355 203.667 54.7326 208.546 54.7006 214.543L54.6819 217.738L51.9067 216.157C50.2542 215.216 48.3828 214.72 46.4953 214.72C42.5963 214.72 38.9655 216.813 37.0206 220.185C34.0253 225.377 35.7993 232.062 40.9744 235.088L43.7322 236.7L40.9758 238.314C35.8006 241.346 34.0253 248.031 37.0206 253.219C38.9682 256.591 42.6003 258.687 46.498 258.687C48.3841 258.687 50.2542 258.19 51.9054 257.249L54.6832 255.667Z" fill="black"/>
<path d="M65.6315 247.84C71.7821 247.84 76.7681 242.854 76.7681 236.703C76.7681 230.553 71.7821 225.567 65.6315 225.567C59.481 225.567 54.495 230.553 54.495 236.703C54.495 242.854 59.481 247.84 65.6315 247.84Z" fill="#FFDD00"/>
<path d="M65.6315 249.708C58.4608 249.708 52.6262 243.874 52.6262 236.703C52.6262 229.532 58.4608 223.698 65.6315 223.698C72.8023 223.698 78.6368 229.532 78.6368 236.703C78.6368 243.874 72.8023 249.708 65.6315 249.708ZM65.6315 227.437C60.5218 227.437 56.3651 231.593 56.3651 236.703C56.3651 241.813 60.5218 245.97 65.6315 245.97C70.7413 245.97 74.898 241.813 74.898 236.703C74.898 231.593 70.7413 227.437 65.6315 227.437Z" fill="black"/>
<path fill-rule="evenodd" clip-rule="evenodd" d="M328.994 538.789V506.203C326.575 507.726 322.221 508.968 315.109 506.336C301.197 501.188 306.807 481.584 308.218 474.79C309.764 467.35 308.377 454.171 308.377 454.171C308.377 454.171 314.86 458.807 317.633 463.426C321.418 469.739 320.718 470.588 322.821 479.001C324.02 483.793 326.81 485.72 328.995 486.491V417.75C326.576 419.274 322.222 420.515 315.11 417.883C301.201 412.735 306.809 393.131 308.222 386.337C309.765 378.897 308.378 365.718 308.378 365.718C308.378 365.718 314.864 370.354 317.634 374.974C321.42 381.286 320.72 382.135 322.823 390.548C324.021 395.34 326.811 397.265 328.996 398.038V332.711C326.577 334.236 322.223 335.477 315.111 332.845C301.2 327.696 306.81 308.093 308.221 301.298C309.767 293.858 308.38 280.679 308.38 280.679C308.38 280.679 314.863 285.315 317.635 289.935C321.421 296.247 320.72 297.096 322.824 305.51C324.023 310.302 326.812 312.228 328.998 313.001V273.621C328.998 270.687 331.375 268.308 334.31 268.308C337.245 268.308 339.623 270.687 339.623 273.621V313.001C341.808 312.227 344.598 310.302 345.796 305.51C347.897 297.096 347.199 296.247 350.985 289.935C353.753 285.315 360.241 280.679 360.241 280.679C360.241 280.679 358.854 293.858 360.397 301.298C361.81 308.093 367.415 327.695 353.509 332.845C346.397 335.478 342.043 334.236 339.624 332.711V398.039C341.809 397.267 344.599 395.34 345.798 390.548C347.899 382.135 347.201 381.286 350.986 374.974C353.755 370.354 360.242 365.718 360.242 365.718C360.242 365.718 358.855 378.897 360.398 386.337C361.812 393.131 367.422 412.733 353.51 417.883C346.398 420.517 342.044 419.274 339.625 417.75V486.491C341.811 485.72 344.6 483.793 345.799 479.001C347.9 470.588 347.202 469.739 350.988 463.426C353.756 458.807 360.243 454.171 360.243 454.171C360.243 454.171 358.856 467.35 360.4 474.79C361.813 481.584 367.418 501.186 353.512 506.336C346.4 508.97 342.046 507.726 339.627 506.203V538.789H328.994Z" fill="#FFDD00"/>
<path d="M341.489 540.658H327.124V509.098C323.606 510.194 319.273 509.87 314.459 508.086C300.081 502.764 304.234 484.114 306.006 476.149L306.387 474.408C307.855 467.342 306.53 454.493 306.518 454.363L306.085 450.232L309.464 452.648C309.74 452.845 316.297 457.565 319.235 462.463C322.178 467.37 322.596 469.341 323.43 473.274C323.728 474.666 324.081 476.344 324.631 478.545C325.132 480.541 325.966 482.098 327.124 483.205V420.644C323.606 421.745 319.273 421.417 314.459 419.632C300.076 414.309 304.236 395.652 306.012 387.684L306.389 385.953C307.858 378.879 306.53 366.038 306.518 365.909L306.082 361.777L309.464 364.193C309.74 364.391 316.299 369.111 319.235 374.008C322.178 378.919 322.598 380.894 323.434 384.829C323.729 386.218 324.083 387.893 324.63 390.091C325.131 392.084 325.965 393.641 327.122 394.748V335.601C323.605 336.702 319.272 336.373 314.457 334.589C300.08 329.267 304.232 310.617 306.005 302.652L306.385 300.911C307.856 293.837 306.528 280.996 306.516 280.866L306.081 276.734L309.462 279.151C309.739 279.348 316.295 284.068 319.233 288.966C322.177 293.873 322.594 295.844 323.429 299.777C323.726 301.169 324.08 302.847 324.63 305.048C325.131 307.044 325.965 308.601 327.122 309.708V273.613C327.122 269.652 330.344 266.43 334.305 266.43C338.265 266.43 341.488 269.652 341.488 273.613V309.707C342.645 308.599 343.479 307.042 343.98 305.048C344.527 302.851 344.882 301.177 345.176 299.788C346.013 295.852 346.432 293.877 349.375 288.967C352.311 284.07 358.87 279.351 359.146 279.152L362.525 276.736L362.092 280.868C362.079 280.997 360.755 293.846 362.22 300.913L362.598 302.641C364.373 310.608 368.532 329.265 354.151 334.591C349.339 336.375 345.005 336.704 341.486 335.603V394.751C342.644 393.644 343.478 392.085 343.978 390.091C344.526 387.893 344.881 386.22 345.175 384.83C346.011 380.895 346.431 378.919 349.374 374.01C352.309 369.112 358.869 364.394 359.145 364.195L362.523 361.779L362.091 365.91C362.078 366.04 360.753 378.889 362.219 385.955L362.597 387.688C364.375 395.654 368.533 414.309 354.15 419.633C349.338 421.415 345.004 421.746 341.485 420.645V483.206C342.642 482.1 343.477 480.542 343.977 478.546C344.524 476.349 344.879 474.675 345.173 473.286C346.01 469.351 346.429 467.375 349.373 462.465C352.308 457.568 358.867 452.849 359.144 452.65L362.522 450.234L362.09 454.366C362.076 454.495 360.752 467.344 362.218 474.411L362.595 476.14C364.371 484.106 368.529 502.763 354.149 508.089C349.334 509.874 345.002 510.199 341.484 509.101V540.658H341.489ZM330.864 536.919H337.751V502.818L340.616 504.621C343.531 506.455 347.796 506.458 352.857 504.584C364.179 500.391 360.649 484.56 358.951 476.951L358.563 475.17C357.531 470.196 357.742 462.946 358.029 458.342C356.136 459.996 353.884 462.217 352.586 464.386C349.96 468.762 349.656 470.205 348.836 474.061C348.533 475.486 348.169 477.202 347.605 479.453C346.2 485.074 342.827 487.34 340.242 488.253L337.75 489.133V414.363L340.615 416.168C343.533 418.005 347.795 418.003 352.855 416.131C364.177 411.938 360.651 396.111 358.953 388.503L358.562 386.717C357.53 381.743 357.741 374.493 358.028 369.889C356.135 371.543 353.883 373.764 352.584 375.933C349.959 380.309 349.654 381.752 348.835 385.608C348.532 387.032 348.167 388.749 347.604 391C346.198 396.618 342.825 398.886 340.241 399.8L337.749 400.683V329.325L340.613 331.13C343.531 332.966 347.793 332.965 352.854 331.092C364.176 326.899 360.647 311.068 358.949 303.46L358.56 301.679C357.528 296.704 357.739 289.455 358.026 284.851C356.134 286.505 353.882 288.726 352.583 290.895C349.957 295.27 349.653 296.713 348.833 300.57C348.53 301.994 348.166 303.711 347.603 305.961C346.197 311.577 342.824 313.846 340.24 314.762L337.747 315.645V273.621C337.747 271.721 336.204 270.177 334.304 270.177C332.403 270.177 330.86 271.721 330.86 273.621V315.644L328.368 314.762C325.783 313.847 322.41 311.579 321.005 305.962C320.439 303.707 320.074 301.986 319.771 300.559C318.953 296.707 318.647 295.266 316.024 290.895C314.72 288.722 312.471 286.502 310.581 284.848C310.868 289.453 311.076 296.704 310.044 301.679L309.653 303.473C307.958 311.078 304.434 326.902 315.753 331.092C320.811 332.965 325.079 332.966 327.994 331.13L330.858 329.325V400.681L328.366 399.799C325.782 398.885 322.409 396.617 321.003 391.001C320.44 388.748 320.076 387.032 319.773 385.608C318.954 381.752 318.649 380.309 316.023 375.933C314.724 373.764 312.472 371.543 310.58 369.889C310.866 374.493 311.077 381.744 310.046 386.716L309.654 388.501C307.959 396.108 304.43 411.939 315.752 416.131C320.81 418.003 325.077 418.005 327.992 416.168L330.857 414.363V489.133L328.365 488.253C325.781 487.34 322.408 485.074 321.002 479.454C320.436 477.198 320.072 475.478 319.769 474.051C318.95 470.198 318.645 468.758 316.022 464.386C314.718 462.213 312.468 459.993 310.578 458.34C310.865 462.945 311.073 470.197 310.042 475.17L309.65 476.965C307.955 484.569 304.431 500.394 315.751 504.584C320.819 506.459 325.081 506.455 327.991 504.621L330.856 502.818V536.919H330.864Z" fill="black"/>
<path fill-rule="evenodd" clip-rule="evenodd" d="M296.656 161.551C296.656 161.551 264.417 181.301 264.417 221.248C264.417 244.333 264.417 515.132 264.417 515.132L249.145 528.389H240.093C240.093 528.389 240.093 263.405 240.093 226.341C240.093 170.059 294.962 158.157 294.962 158.157L296.656 161.551Z" fill="#FFDD00"/>
<path d="M249.842 530.258H238.222V226.339C238.222 169.211 294.001 156.453 294.564 156.33L295.982 156.023L299.089 162.247L297.632 163.144C297.319 163.338 266.284 182.865 266.284 221.248V515.984L249.842 530.258ZM241.961 526.519H248.444L262.545 514.278V221.248C262.545 185.619 287.902 165.42 294.25 160.922L293.953 160.328C285.347 162.606 241.96 176.566 241.96 226.341V526.519H241.961Z" fill="black"/>
<path d="M247.169 528.389C247.169 528.389 247.148 246.737 247.169 222.889C247.205 177.685 293.643 158.168 294.113 157.976L295.529 161.436C295.083 161.618 250.943 180.222 250.908 222.892C250.887 246.74 250.908 528.389 250.908 528.389H247.169Z" fill="black"/>
<path d="M299.46 162.106C301.61 162.106 303.353 160.363 303.353 158.213C303.353 156.064 301.61 154.321 299.46 154.321C297.311 154.321 295.568 156.064 295.568 158.213C295.568 160.363 297.311 162.106 299.46 162.106Z" fill="#FFDD00"/>
<path d="M299.46 163.977C296.285 163.977 293.699 161.392 293.699 158.215C293.699 155.038 296.286 152.451 299.46 152.451C302.635 152.451 305.221 155.038 305.221 158.215C305.221 161.392 302.636 163.977 299.46 163.977ZM299.46 156.188C298.344 156.188 297.437 157.097 297.437 158.215C297.437 159.332 298.344 160.24 299.46 160.24C300.576 160.24 301.484 159.332 301.484 158.215C301.484 157.097 300.576 156.188 299.46 156.188Z" fill="black"/>
<path fill-rule="evenodd" clip-rule="evenodd" d="M277.764 325.602H249.04V311.151H264.415L278.912 325.599L264.415 340.045V325.898" fill="#FFDD00"/>
<path d="M262.547 344.546V327.471H247.169V309.282H265.187L281.558 325.599L262.547 344.546ZM266.286 327.471V335.544L274.385 327.471H266.286ZM250.908 323.732H274.391L263.644 313.021H250.908V323.732Z" fill="black"/>
<path d="M308.711 236.702C302.63 233.151 300.551 225.356 304.075 219.247C307.6 213.144 315.39 211.045 321.51 214.534C321.546 207.495 327.257 201.798 334.306 201.798C341.355 201.798 347.066 207.495 347.107 214.534C353.223 211.051 361.014 213.147 364.534 219.25C368.059 225.356 365.983 233.148 359.903 236.702C365.978 240.258 368.058 248.05 364.534 254.153C361.01 260.256 353.223 262.357 347.107 258.872C347.071 265.911 341.355 271.608 334.306 271.608C327.257 271.608 321.546 265.908 321.51 258.869C315.394 262.357 307.604 260.262 304.075 254.153C300.551 248.05 302.63 240.252 308.711 236.702Z" fill="#FFDD00"/>
<path d="M334.308 273.478C327.204 273.478 321.241 268.371 319.917 261.631C318.394 262.154 316.788 262.425 315.174 262.425C309.944 262.425 305.072 259.614 302.457 255.089C298.904 248.936 300.348 241.219 305.523 236.703C300.348 232.187 298.906 224.469 302.457 218.314C305.069 213.791 309.941 210.982 315.171 210.982C316.788 210.982 318.391 211.252 319.917 211.775C321.241 205.038 327.204 199.931 334.308 199.931C341.409 199.931 347.374 205.038 348.701 211.776C350.224 211.254 351.827 210.985 353.441 210.985C358.674 210.985 363.543 213.795 366.153 218.318C369.703 224.471 368.262 232.189 363.089 236.704C368.262 241.224 369.703 248.941 366.153 255.089C363.538 259.614 358.668 262.424 353.438 262.424C351.827 262.424 350.224 262.156 348.704 261.634C347.377 268.371 341.414 273.478 334.308 273.478ZM323.362 255.662L323.381 258.86C323.411 264.858 328.313 269.738 334.308 269.738C340.304 269.738 345.208 264.859 345.239 258.863L345.257 255.664L348.034 257.248C349.684 258.189 351.554 258.685 353.438 258.685C357.336 258.685 360.968 256.591 362.916 253.218C365.911 248.029 364.138 241.343 358.961 238.313L356.203 236.699L358.961 235.087C364.138 232.061 365.914 225.376 362.916 220.183C360.974 216.813 357.341 214.718 353.441 214.718C351.554 214.718 349.685 215.215 348.034 216.156L345.257 217.736L345.239 214.542C345.205 208.545 340.301 203.666 334.308 203.666C328.314 203.666 323.413 208.545 323.381 214.541L323.362 217.739L320.585 216.156C318.933 215.214 317.06 214.716 315.17 214.716C311.27 214.716 307.638 216.809 305.693 220.181C302.695 225.374 304.47 232.061 309.653 235.087L312.414 236.7L309.653 238.314C304.47 241.342 302.695 248.025 305.693 253.218C307.64 256.59 311.275 258.685 315.173 258.685C317.06 258.685 318.932 258.187 320.585 257.246L323.362 255.662Z" fill="black"/>
<path d="M334.308 247.841C340.459 247.841 345.445 242.854 345.445 236.703C345.445 230.552 340.459 225.565 334.308 225.565C328.156 225.565 323.17 230.552 323.17 236.703C323.17 242.854 328.156 247.841 334.308 247.841Z" fill="#FFDD00"/>
<path d="M334.308 249.708C327.135 249.708 321.301 243.874 321.301 236.703C321.301 229.532 327.135 223.698 334.308 223.698C341.48 223.698 347.314 229.532 347.314 236.703C347.314 243.874 341.48 249.708 334.308 249.708ZM334.308 227.437C329.198 227.437 325.04 231.593 325.04 236.703C325.04 241.813 329.198 245.97 334.308 245.97C339.417 245.97 343.575 241.813 343.575 236.703C343.575 231.593 339.417 227.437 334.308 227.437Z" fill="black"/>
<path fill-rule="evenodd" clip-rule="evenodd" d="M212.928 211.911C213.494 209.271 212.972 206.655 211.632 204.42H188.22C186.883 206.655 186.361 209.272 186.93 211.911C187.61 215.085 191.675 217.654 195.009 219.27H204.838C208.179 217.652 212.246 215.085 212.928 211.911Z" fill="#FFDD00"/>
<path d="M205.266 221.139H194.58L194.194 220.951C188.836 218.353 185.775 215.443 185.102 212.302C184.459 209.31 184.995 206.167 186.617 203.46L187.162 202.55H212.691L213.235 203.459C214.857 206.163 215.396 209.306 214.756 212.302C214.077 215.446 211.017 218.356 205.652 220.951L205.266 221.139ZM195.446 217.4H204.404C208.278 215.468 210.711 213.334 211.102 211.517C211.483 209.747 211.277 207.957 210.511 206.289H189.347C188.583 207.959 188.379 209.747 188.761 211.517C189.147 213.334 191.576 215.467 195.446 217.4Z" fill="black"/>
<path fill-rule="evenodd" clip-rule="evenodd" d="M185.653 211.999L175.136 202.822H224.788L214.271 211.999H185.653Z" fill="#FFDD00"/>
<path d="M214.973 213.869H184.953L170.152 200.953H229.774L214.973 213.869ZM186.354 210.131H213.57L219.803 204.692H180.121L186.354 210.131Z" fill="black"/>
<path fill-rule="evenodd" clip-rule="evenodd" d="M117.088 341.757C119.555 341.757 121.557 345.556 121.557 348.065C121.557 350.571 119.555 354.37 117.088 354.37L84.7531 348.065L117.088 341.757Z" fill="#FFDD00"/>
<path d="M117.088 356.239L116.73 356.204L74.9901 348.065L117.087 339.889C120.896 339.889 123.425 344.81 123.425 348.065C123.426 351.318 120.898 356.239 117.088 356.239ZM94.5147 348.065L117.208 352.488C118.2 352.303 119.686 349.944 119.686 348.065C119.686 346.184 118.2 343.824 117.208 343.64L94.5147 348.065Z" fill="black"/>
<path fill-rule="evenodd" clip-rule="evenodd" d="M117.543 336.982C115.289 336.501 113.053 336.945 111.141 338.089V358.096C113.053 359.24 115.287 359.684 117.543 359.2C120.257 358.618 122.454 355.145 123.834 352.295V343.895C122.454 341.041 120.258 337.566 117.543 336.982Z" fill="#FFDD00"/>
<path d="M115.728 361.397C113.783 361.397 111.842 360.85 110.114 359.814L109.141 359.229V336.953L110.114 336.369C112.503 334.936 115.313 334.455 117.961 335.021C120.783 335.629 123.365 338.32 125.638 343.02L125.837 343.434V352.751L125.636 353.166C123.361 357.865 120.779 360.552 117.964 361.155C117.228 361.316 116.476 361.397 115.728 361.397ZM113.145 356.868C114.423 357.395 115.799 357.523 117.123 357.242C118.544 356.937 120.25 354.972 121.832 351.828V344.36C120.25 341.213 118.546 339.244 117.122 338.937C115.808 338.658 114.424 338.789 113.145 339.316V356.868Z" fill="black"/>
<path fill-rule="evenodd" clip-rule="evenodd" d="M117.621 359.906L109.777 369.279V326.846L117.621 336.224V359.906Z" fill="#FFDD00"/>
<path d="M107.775 374.792V321.33L119.623 335.496V360.632L107.775 374.792ZM111.78 332.362V363.766L115.619 359.177V336.952L111.78 332.362Z" fill="black"/>
<path d="M147.597 97.9788C142.797 97.9788 138.65 94.7071 137.731 90.1994L130.307 53.5888C129.241 48.2922 132.878 43.0703 138.412 41.9463C139.118 41.8035 139.838 41.7301 140.553 41.7301C145.356 41.7301 149.503 45.0031 150.419 49.5135L157.842 86.1214C158.367 88.7084 157.798 91.3487 156.242 93.5565C154.712 95.7296 152.401 97.2233 149.737 97.7626C149.028 97.9067 148.309 97.9788 147.597 97.9788ZM140.553 45.7346C140.11 45.7346 139.662 45.7787 139.21 45.8708C135.835 46.5569 133.603 49.663 134.233 52.7959L141.657 89.4025C142.275 92.4512 145.511 94.5336 148.939 93.8395C150.594 93.5031 152.025 92.5834 152.967 91.2499C153.883 89.9511 154.219 88.4134 153.914 86.9183L146.491 50.3091C145.955 47.6594 143.458 45.7346 140.553 45.7346Z" fill="black"/>
<path d="M254.237 95.835C253.526 95.835 252.806 95.7629 252.102 95.6201C249.435 95.0808 247.124 93.5872 245.594 91.414C244.038 89.2062 243.469 86.5646 243.994 83.9777L251.417 47.3711C252.333 42.8607 256.48 39.5876 261.283 39.5876C261.997 39.5876 262.716 39.6611 263.424 39.8039C268.958 40.9278 272.595 46.1497 271.529 51.4437L264.104 88.0556C263.185 92.5633 259.037 95.835 254.237 95.835ZM261.283 43.5908C258.378 43.5908 255.881 45.5143 255.344 48.1653L247.921 84.7732C247.615 86.2696 247.952 87.8073 248.867 89.1061C249.808 90.4396 251.239 91.3593 252.899 91.6957C256.298 92.3871 259.559 90.3088 260.177 87.2574L267.602 50.6494C268.233 47.5179 266.001 44.4117 262.624 43.7256C262.174 43.6349 261.726 43.5908 261.283 43.5908Z" fill="black"/>
<path d="M196.794 131.311V76.1581C144.568 76.6907 94.8364 87.619 49.5734 106.997L65.1136 131.31L196.794 131.311Z" fill="black"/>
<path fill-rule="evenodd" clip-rule="evenodd" d="M131.767 104.024L124.004 105.615L121.261 94.4415L129.087 92.8036L131.767 104.024Z" fill="#FFDD00"/>
<path fill-rule="evenodd" clip-rule="evenodd" d="M118.811 106.738L111.191 108.583L107.943 97.577L115.627 95.6802L118.811 106.738Z" fill="#FFDD00"/>
<path fill-rule="evenodd" clip-rule="evenodd" d="M106.09 109.877L98.6274 111.975L94.8952 101.154L102.417 99.0039L106.09 109.877Z" fill="#FFDD00"/>
<path fill-rule="evenodd" clip-rule="evenodd" d="M93.6391 113.434L86.3429 115.771L82.1395 105.156L89.4931 102.763L93.6391 113.434Z" fill="#FFDD00"/>
<path fill-rule="evenodd" clip-rule="evenodd" d="M81.4761 117.393L74.3654 119.962L69.7121 109.572L76.8709 106.941L81.4761 117.393Z" fill="#FFDD00"/>
<path fill-rule="evenodd" clip-rule="evenodd" d="M69.624 121.735L62.7136 124.526L57.6332 114.373L64.5863 111.522L69.624 121.735Z" fill="#FFDD00"/>
<path fill-rule="evenodd" clip-rule="evenodd" d="M197.732 97.6637L189.663 97.8293V86.1681L197.823 85.9879L197.732 97.6637Z" fill="#FFDD00"/>
<path fill-rule="evenodd" clip-rule="evenodd" d="M184.225 97.9988L176.187 98.446L175.637 86.8329L183.761 86.3604L184.225 97.9988Z" fill="#FFDD00"/>
<path fill-rule="evenodd" clip-rule="evenodd" d="M170.779 98.8037L162.805 99.5339L161.714 87.9929L169.773 87.236L170.779 98.8037Z" fill="#FFDD00"/>
<path fill-rule="evenodd" clip-rule="evenodd" d="M157.439 100.084L149.534 101.088L147.91 89.6413L155.891 88.6015L157.439 100.084Z" fill="#FFDD00"/>
<path fill-rule="evenodd" clip-rule="evenodd" d="M144.232 101.822L136.426 103.101L134.276 91.7744L142.154 90.4556L144.232 101.822Z" fill="#FFDD00"/>
<path fill-rule="evenodd" clip-rule="evenodd" d="M269.623 104.024L277.394 105.615L280.14 94.4415L272.302 92.8036L269.623 104.024Z" fill="#FFDD00"/>
<path fill-rule="evenodd" clip-rule="evenodd" d="M282.592 106.738L290.223 108.583L293.478 97.577L285.781 95.6802L282.592 106.738Z" fill="#FFDD00"/>
<path fill-rule="evenodd" clip-rule="evenodd" d="M295.33 109.877L302.805 111.975L306.542 101.154L299.006 99.0039L295.33 109.877Z" fill="#FFDD00"/>
<path fill-rule="evenodd" clip-rule="evenodd" d="M307.8 113.434L315.103 115.771L319.313 105.156L311.949 102.763L307.8 113.434Z" fill="#FFDD00"/>
<path fill-rule="evenodd" clip-rule="evenodd" d="M319.975 117.393L327.098 119.962L331.754 109.572L324.59 106.941L319.975 117.393Z" fill="#FFDD00"/>
<path fill-rule="evenodd" clip-rule="evenodd" d="M331.849 121.735L338.765 124.526L343.852 114.373L336.891 111.522L331.849 121.735Z" fill="#FFDD00"/>
<path fill-rule="evenodd" clip-rule="evenodd" d="M203.567 97.6637L211.648 97.8293V86.1681L203.475 85.9879L203.567 97.6637Z" fill="#FFDD00"/>
<path fill-rule="evenodd" clip-rule="evenodd" d="M217.094 97.9988L225.139 98.446L225.689 86.8329L217.559 86.3604L217.094 97.9988Z" fill="#FFDD00"/>
<path fill-rule="evenodd" clip-rule="evenodd" d="M230.557 98.8037L238.542 99.5339L239.636 87.9929L231.561 87.236L230.557 98.8037Z" fill="#FFDD00"/>
<path fill-rule="evenodd" clip-rule="evenodd" d="M243.914 100.084L251.827 101.088L253.455 89.6413L245.465 88.6015L243.914 100.084Z" fill="#FFDD00"/>
<path fill-rule="evenodd" clip-rule="evenodd" d="M257.139 101.822L264.957 103.101L267.106 91.7744L259.22 90.4556L257.139 101.822Z" fill="#FFDD00"/>
</g>
<defs>
<clipPath id="clip0">
<rect x="0.743759" y="0.115173" width="400" height="624.21" fill="white"/>
</clipPath>
</defs>
</svg>
