<svg width="401" height="642" viewBox="0 0 401 642" fill="none" xmlns="http://www.w3.org/2000/svg">
<g clip-path="url(#clip0)">
<path fill-rule="evenodd" clip-rule="evenodd" d="M122.888 88.606C122.858 88.5145 122.811 88.4295 122.749 88.3555L122.707 88.3833L122.888 88.606ZM153.766 84.0966L151.886 68.9816C143.418 69.1764 136.705 69.5104 131.356 69.9558L138.264 84.8342C142.596 84.528 147.763 84.2775 153.766 84.0966ZM199.601 62.9133C198.789 63.5186 198.008 64.1642 197.261 64.8479C194.57 68.3958 192.399 72.309 190.813 76.4695C189.253 80.9232 187.777 91.6123 187.15 96.4001C196.528 96.2341 205.908 96.2666 215.284 96.4975C214.629 91.6262 213.278 82.2733 212.387 79.3227C210.047 71.6677 201.704 64.5974 199.601 62.8994V62.9133ZM155.437 97.6388L153.961 85.7946C147.874 85.9755 142.986 86.2121 139.03 86.4905L144.56 98.4182C148.111 98.112 151.746 97.8615 155.423 97.6388H155.437ZM168.919 68.8285C163.278 68.8285 158.195 68.8563 153.599 68.9537L155.451 84.0548C159.114 83.9574 163.014 83.8739 167.248 83.8321L168.919 68.8285ZM165.771 97.0682L167.053 85.5162C162.874 85.5719 159.086 85.6554 155.66 85.7389L157.122 97.5414C159.977 97.3605 162.86 97.2074 165.771 97.0682ZM129.546 70.095C114.824 71.4172 111.579 73.3379 110.994 73.7833L122.067 87.59C123.835 86.4765 128.654 85.5997 136.454 84.9734L129.56 70.095H129.546ZM142.777 98.5574L137.22 86.6157C126.732 87.4369 123.849 88.4251 123.083 88.8426L131.718 99.6152C135.298 99.2255 138.989 98.8775 142.763 98.5574H142.777ZM81.454 57.7914C80.7298 58.0002 74.546 59.9766 69.9359 61.438C69.1039 62.4792 68.4583 63.6564 68.0279 64.9175C67.6797 66.0866 67.9861 66.8103 68.3482 67.6872C69.156 68.8702 69.8524 69.8862 70.0613 70.2203L86.4122 65.4046L81.454 57.7914Z" fill="#FBD020"/>
<path fill-rule="evenodd" clip-rule="evenodd" d="M62.4431 62.0508L81.5378 55.9686L82.1645 55.7877L89.0865 66.3932L69.3651 72.197L62.4431 62.0508ZM90.4096 107.02C87.5684 103.067 83.1116 96.4423 81.8442 92.406C80.0107 86.4482 79.9382 80.088 81.6353 74.0899L81.8721 73.394L82.5684 73.5332C83.0698 73.6028 95.0614 75.593 105.326 86.4909C106.83 88.0775 113.446 97.1103 116.621 101.481C120.772 100.882 125.131 100.325 129.713 99.8104L90.2982 50.6519C87.5545 50.123 80.5768 49.6637 67.3735 53.8531C56.9418 57.1516 47.875 59.5595 45.5491 60.1858L78.7941 112.629C81.0643 110.597 85.0336 108.718 90.3957 107.02H90.4096ZM65.3819 51.5148L65.6883 51.4313L68.7941 50.471C79.6854 47.0332 86.9556 44.862 92.0252 42.9413C93.6687 41.3964 95.1868 39.3365 95.1868 36.9565C95.1841 36.094 94.989 35.2429 94.6158 34.4652C93.8497 32.8507 87.081 21.9668 83.3344 16.0099L61.51 21.7024L69.9779 35.0359L47.7357 41.4382L37.7636 27.4366L15.6049 33.3796C18.3904 38.5989 24.602 49.9142 26.4126 51.7236C31.0923 56.4001 36.4126 57.3326 39.8388 57.3465C41.2037 57.1656 43.5156 56.8176 46.705 56.1913C50.7579 55.1753 58.0281 53.3381 65.3679 51.5148" fill="#FBD020"/>
<path fill-rule="evenodd" clip-rule="evenodd" d="M83.0417 75.3564L83.0138 75.4677C83.0695 77.6111 83.4038 84.6536 85.3815 90.6662C87.0389 95.7602 91.9553 102.357 94.6851 105.781C100.354 104.292 107.122 102.942 114.741 101.787C111.426 97.2495 105.437 89.1074 104.1 87.6599C98.4105 81.6206 91.099 77.3488 83.0417 75.3564ZM151.69 67.2839L149.838 52.3777C139.392 52.9344 130.938 53.6721 124.17 54.4654L130.604 68.3278C136.092 67.8685 142.986 67.4927 151.677 67.2839H151.69ZM169.1 67.1308L170.827 51.6122C163.752 51.7653 157.345 52.0019 151.537 52.2803L153.39 67.2561C158.097 67.1586 163.306 67.1169 169.1 67.1308ZM128.808 68.4948L122.401 54.6742C107.916 56.4557 101.551 58.4738 99.3926 59.3089L109.95 72.4753C111.133 71.5985 115.2 69.7613 128.808 68.4948ZM246.091 69.5665C241.272 69.469 235.924 69.4273 229.963 69.4551L231.3 84.5562C235.966 84.6119 240.242 84.6954 244.197 84.8067L246.091 69.5665ZM245.91 84.8624C251.885 85.0433 256.997 85.3078 261.272 85.6418L268.292 70.5686C262.944 70.151 256.244 69.7892 247.79 69.5943L245.91 84.8624ZM242.623 97.6252L243.988 86.4908C239.811 86.3761 235.632 86.2973 231.453 86.2542L232.401 97.0685C235.841 97.2355 239.253 97.4165 242.623 97.6252ZM275.743 89.2744L275.618 89.1352C275.548 89.1968 275.496 89.2755 275.467 89.3634C275.438 89.4514 275.432 89.5455 275.451 89.6363L275.743 89.2744ZM289.044 72.6841L299.503 59.6429C296.76 58.6825 290.283 56.901 277.289 55.2866L270.854 69.1072C282.609 70.2067 287.233 71.7098 289.044 72.6841ZM287.999 73.9924C286.467 73.2408 282.052 71.7934 270.088 70.7217L263.069 85.8088C270.367 86.4491 274.824 87.3259 276.412 88.4393L287.999 73.9924ZM246.3 67.8824L248.139 52.9066C241.578 52.5837 235.013 52.3563 228.445 52.2246L229.81 67.7571C235.91 67.7293 241.37 67.785 246.3 67.8824ZM173.362 28.7588H174.406V28.7031L181.481 28.7588L225.604 28.7031H226.384V28.7727C229.907 28.7727 236.565 28.1046 238.208 24.8199C239.35 22.5374 239.657 16.9145 239.657 11.6952C239.657 7.40847 239.448 3.42791 239.35 1.81342H215.479V15.5088H182.011V1.81342C180.465 1.84125 159.211 2.06394 157.707 2.06394V2.62066C157.707 10.6931 159.072 27.7149 165.688 28.3969C169.448 28.7588 172.15 28.7866 173.376 28.7727V28.7588H173.362ZM197.763 42.9134C196.201 43.5158 194.793 44.4571 193.64 45.6692C192.442 47.0888 191.412 48.5502 190.729 49.6219L190.493 52.3916H210.604L210.075 42.8995H197.763" fill="#FBD020"/>
<path fill-rule="evenodd" clip-rule="evenodd" d="M189.74 41.2291L210.882 41.2013H211.69L212.387 54.1033L188.64 54.0755L189.754 41.2291H189.74ZM182.456 96.4838C182.972 91.8908 184.225 82.1203 185.91 77.9728C190.353 67.0471 198.793 61.3825 199.141 61.1319L199.657 60.8118L200.13 61.1737C200.59 61.5077 211.175 69.5663 214.016 78.8357C214.963 81.9812 216.356 91.696 217.01 96.5116C221.607 96.6508 226.175 96.8039 230.687 97.0127L225.242 35.133C223.097 33.5881 217.665 31.1803 204.699 31.3612C197.623 31.4447 178.974 32.1546 174.671 32.3355L167.484 97.0127C172.428 96.79 177.428 96.609 182.456 96.4977V96.4838ZM275.409 89.7057C274.879 89.2881 272.567 88.2582 262.317 87.4092L257.052 98.7107C260.59 99.0168 264.016 99.3509 267.359 99.7128L275.409 89.7057ZM260.506 87.2839C256.648 87.0056 251.788 86.7411 245.701 86.5602L244.308 97.7364C248.027 97.973 251.676 98.2514 255.255 98.5715L260.506 87.2839ZM269.044 68.9539L275.52 55.0776C266.983 54.111 258.418 53.4148 249.838 52.9899L247.999 67.91C256.69 68.1049 263.57 68.4946 269.044 68.9539ZM354.615 58.4318C354.712 58.4597 364.016 60.7283 371.62 53.143C373.431 51.3197 379.642 40.0183 382.428 34.7851L360.269 28.856L350.297 42.8575L328.055 36.4413L336.523 23.1078L314.712 17.4014C310.952 23.3862 304.183 34.2562 303.431 35.8707C302.99 36.7584 302.752 37.733 302.734 38.7239C302.734 39.5033 302.902 40.2688 303.222 41.0204C304.698 44.4581 309.197 46.6293 309.907 46.8659L354.615 58.4179V58.4318ZM315.52 57.7359L315.882 57.1792L335.603 63.4423L328.668 73.6025L308.974 67.7987L315.52 57.7359ZM282.08 101.578C285.436 97.124 291.314 89.3995 292.721 87.9242C302.971 77.0263 314.963 75.0221 315.464 74.9525L316.161 74.8273L316.411 75.5232C316.523 75.8711 319.197 84.1524 316.202 93.8393C314.935 97.8756 311.202 103.86 308.849 107.409C313.319 108.899 316.746 110.527 318.876 112.281L350.562 64.4027C347.985 59.3226 335.436 56.4694 335.436 56.4694L309.531 49.8444L301.342 60.0742L301.202 60.3247C301.202 60.3247 301.189 60.2968 301.161 60.2968L269.378 99.9354C273.807 100.436 278.055 100.979 282.08 101.592V101.578Z" fill="#FBD020"/>
<path fill-rule="evenodd" clip-rule="evenodd" d="M322.498 61.0765C321.342 61.2018 319.893 61.3967 318.069 61.7724C316.76 62.0151 315.474 62.369 314.225 62.8302C313.18 64.4308 312.08 66.101 311.634 66.8247C313.487 67.3675 326.941 71.3063 327.971 71.6264L332.915 64.389L322.498 61.0626V61.0765ZM315.06 77.0545C312.943 77.6668 307.01 79.7963 300.548 85.5862C290.381 94.6608 289.267 97.4722 286.203 102.232C294.392 103.554 301.523 105.113 307.177 106.881C309.434 103.485 313.347 97.3052 314.559 93.3386C316.156 88.0486 316.324 82.4304 315.046 77.0545" fill="#FBD020"/>
<path fill-rule="evenodd" clip-rule="evenodd" d="M190.493 52.3916L190.729 49.608C191.426 48.5502 192.443 47.0888 193.654 45.6692C194.803 44.4588 196.207 43.5176 197.763 42.9134H210.075L210.604 52.4055L190.493 52.3916ZM211.676 41.2015H210.883L189.741 41.2293L188.64 54.0757L212.401 54.1035L211.69 41.2015H211.676ZM68.3482 67.6875C67.9861 66.8107 67.6797 66.0869 68.0279 64.9039C68.4598 63.6477 69.1053 62.4753 69.9359 61.4383C74.532 59.9769 80.7298 58.0006 81.454 57.7918L86.4122 65.405C84.5459 65.9478 71.0919 69.9005 70.0752 70.2206L68.3482 67.6875ZM82.1643 55.7737L81.5376 55.9685L62.4429 62.0368L69.3649 72.1831L89.0863 66.3792L82.1643 55.7737ZM311.634 66.8246C312.08 66.1009 313.166 64.4307 314.225 62.8301C315.474 62.3689 316.76 62.015 318.069 61.7724C319.893 61.3966 321.342 61.2017 322.498 61.0765L332.916 64.375L327.971 71.6124L311.634 66.8246ZM335.59 63.4564L315.896 57.1794L315.534 57.7222L308.988 67.7849L328.682 73.5888L335.618 63.4286L335.59 63.4564Z" fill="#1A1919"/>
<path d="M98.5 118.75L86 123.75L88.5 137L103.75 132.25L125 129.5L158.25 126H242.75L263.25 127.75L285.75 131L311 137L314 122.5L291 116.5L269.25 113.5L240.25 111.5L207.25 110.25H171.5L125 113.5L98.5 118.75Z" fill="#FBD020"/>
<path fill-rule="evenodd" clip-rule="evenodd" d="M87.624 144.445C93.6686 137.166 136.955 129.984 199.184 129.984C261.412 129.984 304.699 137.166 310.743 144.445C309.545 145.893 306.843 147.34 302.777 148.732C283.459 142.149 240.367 138.669 199.184 138.669C158 138.669 114.922 142.149 95.5906 148.732C91.5376 147.34 88.8218 145.893 87.624 144.445ZM86.858 142.706C86.858 134.898 131.997 126.519 199.184 126.519C266.37 126.519 311.509 134.898 311.509 142.706L311.481 142.817C301.384 133.339 248.891 128.259 199.184 128.259C149.462 128.259 96.9833 133.339 86.8858 142.817L86.858 142.706ZM100.34 128.078C100.338 128.886 100.177 129.685 99.8659 130.431C99.5549 131.176 99.0999 131.854 98.527 132.424C97.3699 133.575 95.8026 134.219 94.1699 134.216C92.5373 134.212 90.973 133.56 89.8211 132.404C88.6692 131.248 88.0242 129.681 88.0279 128.05C88.0316 126.418 88.6837 124.855 89.8408 123.704C90.9979 122.553 92.5651 121.908 94.1978 121.912C95.8305 121.916 97.3948 122.567 98.5467 123.724C99.6985 124.88 100.344 126.446 100.34 128.078ZM115.298 124.069C115.295 124.879 115.133 125.68 114.82 126.427C114.508 127.174 114.051 127.852 113.476 128.423C112.901 128.994 112.22 129.445 111.47 129.753C110.72 130.06 109.917 130.217 109.107 130.214C108.297 130.211 107.495 130.049 106.748 129.737C106 129.424 105.322 128.968 104.751 128.393C104.18 127.819 103.727 127.138 103.42 126.389C103.112 125.64 102.955 124.837 102.958 124.028C102.964 122.392 103.619 120.826 104.78 119.674C105.941 118.521 107.513 117.877 109.149 117.883C110.785 117.888 112.353 118.543 113.506 119.703C114.659 120.864 115.304 122.434 115.298 124.069ZM130.702 121.174C130.702 122.811 130.051 124.381 128.893 125.539C127.734 126.697 126.163 127.347 124.525 127.347C122.887 127.347 121.316 126.697 120.157 125.539C118.999 124.381 118.348 122.811 118.348 121.174C118.348 119.537 118.999 117.967 120.157 116.81C121.316 115.652 122.887 115.002 124.525 115.002C126.163 115.002 127.734 115.652 128.893 116.81C130.051 117.967 130.702 119.537 130.702 121.174ZM146.315 119.504C146.315 121.139 145.665 122.708 144.508 123.864C143.35 125.02 141.781 125.67 140.145 125.67C138.508 125.67 136.939 125.02 135.782 123.864C134.625 122.708 133.975 121.139 133.975 119.504C133.975 117.869 134.625 116.301 135.782 115.144C136.939 113.988 138.508 113.338 140.145 113.338C141.781 113.338 143.35 113.988 144.508 115.144C145.665 116.301 146.315 117.869 146.315 119.504ZM162.095 118.572C162.095 120.209 161.444 121.779 160.285 122.936C159.127 124.094 157.556 124.744 155.918 124.744C154.279 124.744 152.708 124.094 151.55 122.936C150.392 121.779 149.741 120.209 149.741 118.572C149.741 116.936 150.391 115.368 151.548 114.212C152.705 113.056 154.274 112.406 155.911 112.406C157.547 112.406 159.116 113.056 160.273 114.212C161.431 115.368 162.081 116.936 162.081 118.572H162.095ZM177.136 117.723C177.136 119.358 176.486 120.926 175.329 122.082C174.172 123.239 172.603 123.888 170.966 123.888C169.33 123.888 167.761 123.239 166.604 122.082C165.447 120.926 164.796 119.358 164.796 117.723C164.796 116.087 165.447 114.519 166.604 113.363C167.761 112.207 169.33 111.557 170.966 111.557C172.603 111.557 174.172 112.207 175.329 113.363C176.486 114.519 177.136 116.087 177.136 117.723ZM192.094 117.277C192.094 118.913 191.444 120.481 190.287 121.637C189.13 122.793 187.561 123.443 185.925 123.443C184.288 123.443 182.719 122.793 181.562 121.637C180.405 120.481 179.755 118.913 179.755 117.277C179.755 115.642 180.405 114.074 181.562 112.917C182.719 111.761 184.288 111.112 185.925 111.112C187.561 111.112 189.13 111.761 190.287 112.917C191.444 114.074 192.094 115.642 192.094 117.277ZM207.094 117.096C207.093 117.905 206.931 118.706 206.62 119.452C206.309 120.199 205.853 120.877 205.279 121.447C204.706 122.018 204.025 122.47 203.277 122.778C202.529 123.085 201.727 123.243 200.918 123.241C200.108 123.239 199.307 123.078 198.56 122.767C197.813 122.456 197.135 122.001 196.564 121.427C195.993 120.854 195.54 120.174 195.232 119.426C194.924 118.678 194.767 117.877 194.769 117.069C194.772 115.435 195.425 113.87 196.583 112.718C197.742 111.565 199.311 110.92 200.945 110.924C202.58 110.927 204.146 111.58 205.299 112.737C206.452 113.895 207.098 115.463 207.094 117.096ZM221.955 117.403C221.955 119.038 221.305 120.606 220.148 121.762C218.991 122.919 217.422 123.568 215.785 123.568C214.149 123.568 212.579 122.919 211.422 121.762C210.265 120.606 209.615 119.038 209.615 117.403C209.615 115.767 210.265 114.199 211.422 113.043C212.579 111.886 214.149 111.237 215.785 111.237C217.422 111.237 218.991 111.886 220.148 113.043C221.305 114.199 221.955 115.767 221.955 117.403ZM237.178 118.182C237.176 118.992 237.015 119.793 236.703 120.54C236.391 121.288 235.935 121.966 235.361 122.538C234.201 123.691 232.63 124.337 230.994 124.334C229.358 124.33 227.79 123.677 226.635 122.518C225.481 121.359 224.834 119.789 224.838 118.154C224.842 116.519 225.495 114.952 226.655 113.798C227.815 112.645 229.386 111.999 231.022 112.002C232.658 112.006 234.226 112.659 235.381 113.818C236.535 114.977 237.182 116.547 237.178 118.182ZM252.387 118.641C252.386 119.451 252.225 120.253 251.914 121C251.603 121.748 251.148 122.427 250.575 122.999C250.001 123.571 249.32 124.024 248.571 124.333C247.823 124.642 247.02 124.801 246.21 124.8C245.4 124.799 244.597 124.639 243.849 124.328C243.101 124.017 242.421 123.562 241.849 122.989C241.277 122.416 240.823 121.736 240.514 120.987C240.205 120.239 240.046 119.437 240.047 118.627C240.049 116.992 240.701 115.425 241.859 114.27C243.017 113.115 244.587 112.467 246.224 112.469C247.86 112.47 249.429 113.122 250.585 114.279C251.74 115.437 252.389 117.006 252.387 118.641ZM267.247 119.908C267.242 121.543 266.586 123.109 265.425 124.261C264.264 125.414 262.693 126.058 261.057 126.053C259.42 126.047 257.853 125.392 256.7 124.232C255.547 123.072 254.902 121.501 254.908 119.866C254.91 119.056 255.073 118.255 255.385 117.508C255.698 116.761 256.155 116.083 256.729 115.512C257.304 114.942 257.986 114.49 258.736 114.183C259.485 113.875 260.288 113.718 261.098 113.721C261.909 113.724 262.71 113.886 263.458 114.199C264.205 114.511 264.884 114.967 265.455 115.542C266.026 116.116 266.478 116.798 266.786 117.547C267.093 118.296 267.25 119.098 267.247 119.908ZM282.651 121.856C282.648 122.664 282.487 123.464 282.175 124.209C281.863 124.954 281.407 125.631 280.833 126.2C280.26 126.769 279.58 127.22 278.832 127.527C278.084 127.834 277.283 127.99 276.474 127.987C275.666 127.984 274.866 127.823 274.12 127.511C273.374 127.199 272.697 126.744 272.128 126.171C271.558 125.597 271.107 124.918 270.8 124.17C270.493 123.423 270.337 122.622 270.339 121.815C270.343 120.183 270.995 118.62 272.152 117.469C273.309 116.318 274.877 115.673 276.509 115.677C278.142 115.68 279.706 116.332 280.858 117.488C282.01 118.645 282.655 120.211 282.651 121.842V121.856ZM297.944 124.181C297.944 125.818 297.293 127.388 296.134 128.545C294.976 129.703 293.405 130.353 291.767 130.353C290.129 130.353 288.557 129.703 287.399 128.545C286.241 127.388 285.59 125.818 285.59 124.181C285.59 122.544 286.241 120.973 287.399 119.816C288.557 118.658 290.129 118.008 291.767 118.008C293.405 118.008 294.976 118.658 296.134 119.816C297.293 120.973 297.944 122.544 297.944 124.181ZM84.0028 122.037C83.4347 121.771 82.8772 121.484 82.3315 121.174C93.8914 113.505 138.292 106.449 200.061 106.449C260.158 106.449 303.807 113.116 316.802 120.548C316.356 120.826 315.896 121.105 315.381 121.383C297.15 113.06 248.139 108.258 200.381 108.258C151.384 108.258 101.036 113.297 84.0028 122.037ZM78.2926 116.637C78.2926 107.618 126.816 97.9869 199.044 97.9869C271.272 97.9869 319.796 107.618 319.796 116.637C319.796 117.583 319.225 118.544 318.166 119.504C303.055 110.179 250.827 104.751 200.061 104.751C147.972 104.751 94.351 110.457 80.8692 120.242C79.1978 119.045 78.2926 117.834 78.2926 116.623V116.637ZM114.741 101.786C107.123 102.942 100.354 104.292 94.6853 105.781C91.9555 102.357 87.0251 95.76 85.3817 90.666C83.404 84.6534 83.0697 77.6108 83.014 75.4675L83.0418 75.3561C85.7159 75.9546 95.6184 78.6686 104.1 87.6597C105.437 89.1072 111.426 97.2492 114.741 101.786ZM45.5489 60.1994C47.8748 59.587 56.9417 57.1652 67.3734 53.8667C80.5767 49.6773 87.5544 50.1366 90.2981 50.6655L129.713 99.824C125.34 100.307 120.975 100.864 116.621 101.494C113.446 97.124 106.83 88.0911 105.326 86.5045C95.0613 75.6066 83.0697 73.6164 82.5683 73.5329L81.8719 73.4215L81.6352 74.1174C81.5237 74.4515 78.8357 82.7466 81.8441 92.4196C83.0976 96.4559 87.5683 103.081 90.4095 107.034C85.0335 108.732 81.0781 110.611 78.7939 112.643L45.5489 60.1994ZM39.8386 57.3462C37.3393 57.3463 34.8649 56.8491 32.5598 55.8837C30.2547 54.9184 28.165 53.5041 26.4125 51.7233C24.6019 49.9139 18.4042 38.5986 15.6047 33.3793L37.7495 27.4363L47.7355 41.4379L69.9778 35.0355L61.5099 21.7021L83.3343 15.9957C87.0808 21.9804 93.8496 32.8365 94.6156 34.4649C94.9909 35.2469 95.186 36.1029 95.1867 36.9702C95.1867 39.3362 93.6686 41.3961 92.0251 42.941C86.9555 44.8617 79.6853 47.0329 68.794 50.4707L65.6881 51.431L65.3817 51.5145C58.028 53.3378 50.7578 55.175 46.7188 56.191C43.5155 56.8173 41.2035 57.1652 39.8386 57.3462ZM122.387 54.6739L128.794 68.4945C115.201 69.7611 111.134 71.5983 109.95 72.4751L99.3928 59.3086C101.552 58.4735 107.93 56.4554 122.387 54.6739ZM149.824 52.3774L151.677 67.2837C142.986 67.4785 136.078 67.8682 130.604 68.3275L124.17 54.4512C130.939 53.6718 139.379 52.9202 149.838 52.3635L149.824 52.3774ZM170.827 51.6119L169.1 67.1306C163.306 67.1306 158.097 67.1584 153.39 67.2558L151.537 52.28C157.345 52.0016 163.752 51.765 170.827 51.6119ZM139.017 86.4906C142.972 86.2122 147.861 85.9756 153.947 85.7947L155.423 97.625C151.732 97.8616 148.111 98.1121 144.56 98.4183L139.017 86.4906ZM137.206 86.6297L142.763 98.5575C138.975 98.8776 135.284 99.2256 131.691 99.6153L123.07 88.8566C123.85 88.4391 126.719 87.437 137.22 86.6297H137.206ZM131.356 69.942C136.705 69.4966 143.418 69.1626 151.886 68.9677L153.766 84.0827C147.777 84.2637 142.596 84.5003 138.265 84.8204L131.356 69.9281V69.942ZM122.889 88.5922L122.707 88.3695L122.749 88.3417C122.811 88.4157 122.858 88.5007 122.889 88.5922ZM122.067 87.5762L110.994 73.7695C111.565 73.3241 114.824 71.4034 129.56 70.0812L136.454 84.9596C128.655 85.5859 123.85 86.4627 122.067 87.5762ZM167.053 85.5163L165.771 97.0683C162.861 97.1935 159.978 97.3466 157.136 97.5276L155.66 85.7251C159.086 85.6276 162.874 85.5581 167.053 85.5163ZM155.451 84.041L153.585 68.9399C158.181 68.8425 163.278 68.8007 168.905 68.8146L167.234 83.8183C163.014 83.86 159.114 83.9436 155.451 84.041ZM215.298 96.4837C205.921 96.2653 196.542 96.2328 187.164 96.3863C187.777 91.5985 189.253 80.9094 190.813 76.4557C192.415 71.8905 195.242 67.5759 197.262 64.8341C198.008 64.1457 198.789 63.4954 199.601 62.8856C201.704 64.5836 210.047 71.6539 212.387 79.3089C213.278 82.2595 214.629 91.6124 215.298 96.4837ZM174.671 32.3215C178.989 32.1406 197.624 31.4308 204.699 31.3473C217.665 31.1663 223.083 33.5742 225.242 35.1191L230.688 96.9987C226.13 96.796 221.571 96.6336 217.011 96.5116C216.356 91.682 214.963 81.9672 214.016 78.8217C211.175 69.5523 200.59 61.4938 200.145 61.1458L199.657 60.7979L199.156 61.118C198.794 61.3685 190.34 67.0331 185.911 77.9588C184.225 82.1064 182.986 91.8768 182.457 96.4698C177.429 96.609 172.429 96.776 167.484 96.9987L174.671 32.3076V32.3215ZM165.674 28.3827C159.058 27.7007 157.679 10.6929 157.679 2.6065L157.693 2.04978C159.198 2.04978 180.437 1.82709 181.997 1.79926V15.4946H215.465V1.79926H239.351C239.448 3.41375 239.657 7.39431 239.657 11.6811C239.657 16.9003 239.351 22.5232 238.208 24.8058C236.565 28.0904 229.908 28.7585 226.37 28.7585V28.6889H225.604L181.482 28.7446L174.42 28.6889V28.7446H173.362C170.795 28.7637 168.228 28.6429 165.674 28.3827ZM248.139 52.8924L246.3 67.8682C241.356 67.7708 235.91 67.729 229.81 67.743L228.445 52.2104C235.674 52.3496 242.234 52.6001 248.139 52.8924ZM275.52 55.0636L269.044 68.9399C263.57 68.4806 256.69 68.1048 248 67.896L249.838 52.9759C260.284 53.5326 268.724 54.2703 275.52 55.0636ZM299.504 59.6287L289.058 72.6699C287.247 71.6957 282.609 70.1925 270.855 69.093L277.289 55.2724C290.284 56.8869 296.76 58.6684 299.504 59.6287ZM262.317 87.3952C272.568 88.2442 274.88 89.2742 275.409 89.6917L267.373 99.7127C264.03 99.3369 260.59 99.0168 257.066 98.6967L262.317 87.3952ZM245.701 86.5462C251.788 86.7272 256.649 86.9777 260.506 87.27L255.256 98.5436C251.61 98.2249 247.961 97.9512 244.309 97.7224L245.701 86.5462ZM261.272 85.6276C256.159 85.2491 251.036 84.9892 245.91 84.8482L247.791 69.5941C256.245 69.775 262.944 70.1229 268.292 70.5544L261.272 85.6276ZM275.743 89.2603L275.465 89.6221C275.447 89.5346 275.452 89.444 275.479 89.3589C275.505 89.2737 275.553 89.1967 275.618 89.135L275.743 89.2603ZM263.069 85.7807L270.089 70.7075C282.052 71.7792 286.453 73.2127 287.999 73.9782L276.412 88.4252C274.824 87.3117 270.367 86.4349 263.069 85.7807ZM243.988 86.4766L242.624 97.6111C239.217 97.4001 235.81 97.2145 232.401 97.0544L231.44 86.24C236.105 86.2818 240.27 86.3792 243.988 86.4906V86.4766ZM231.3 84.5281L229.963 69.441C235.924 69.4131 241.273 69.4549 246.091 69.5523L244.197 84.7926C239.899 84.6806 235.6 84.5971 231.3 84.542V84.5281ZM307.178 106.867C300.3 104.843 293.292 103.29 286.203 102.218C289.267 97.458 290.381 94.6465 300.548 85.572C307.024 79.7821 312.944 77.6387 315.061 77.0402C316.339 82.4162 316.17 88.0343 314.573 93.3243C313.348 97.291 309.434 103.471 307.178 106.867ZM301.161 60.2829C301.189 60.2829 301.203 60.3107 301.203 60.3107L301.342 60.0602L309.545 49.8304L335.437 56.4415C335.437 56.4415 347.985 59.3086 350.562 64.3748L318.891 112.295C316.746 110.541 313.32 108.913 308.863 107.423C311.203 103.874 314.935 97.8755 316.203 93.8532C319.211 84.1663 316.523 75.885 316.412 75.5371L316.175 74.8412L315.464 74.9803C314.963 75.036 302.971 77.0402 292.707 87.9241C291.314 89.4134 285.437 97.1518 282.08 101.606C278.041 100.993 273.807 100.45 269.378 99.9354L301.161 60.3107V60.2829ZM303.222 41.0064C302.909 40.2812 302.748 39.4997 302.749 38.7099C302.757 37.7211 302.986 36.7466 303.417 35.8567C304.183 34.2422 310.952 23.3722 314.698 17.4014L336.523 23.0939L328.055 36.4274L350.297 42.8297L360.269 28.842L382.414 34.7711C379.629 40.0043 373.445 51.3057 371.62 53.1429C369.438 55.3475 366.747 56.9819 363.784 57.9018C360.821 58.8217 357.677 58.9989 354.629 58.4179L309.893 46.8659C309.197 46.6154 304.699 44.4441 303.208 41.0064H303.222ZM306.008 133.826C305.197 133.827 304.395 133.668 303.646 133.359C302.897 133.05 302.216 132.597 301.643 132.025C301.069 131.453 300.614 130.774 300.303 130.026C299.992 129.278 299.832 128.477 299.831 127.667C299.83 126.857 299.989 126.055 300.298 125.307C300.607 124.559 301.061 123.878 301.633 123.305C302.205 122.732 302.885 122.277 303.633 121.966C304.381 121.656 305.184 121.495 305.994 121.494C307.63 121.494 309.199 122.144 310.357 123.3C311.514 124.457 312.164 126.025 312.164 127.66C312.164 129.295 311.514 130.864 310.357 132.02C309.199 133.176 307.63 133.826 305.994 133.826H306.008ZM98.0279 149.776C98.1671 149.748 98.2925 149.692 98.4457 149.637C115.939 144.487 152.136 140.409 199.17 140.409C246.203 140.409 282.401 144.501 299.893 149.651C300.075 149.678 300.2 149.72 300.367 149.776C299.702 150.031 299.029 150.264 298.348 150.472H302.999C306.941 149.219 310.938 147.118 312.749 144.445C313.051 143.914 313.218 143.317 313.236 142.706C313.199 141.794 312.855 140.921 312.261 140.228C311.648 135.245 315.005 125.461 315.882 122.998C316.718 122.441 319.601 120.506 319.503 120.423C320.757 119.198 321.467 117.959 321.467 116.637C321.418 115.454 320.938 114.33 320.116 113.478L355.311 60.2968C358.18 60.7143 366.035 61.118 372.804 54.3538C375.311 51.8485 384.044 35.3278 384.406 34.6458L384.921 33.6855L359.559 26.9074L349.601 40.895L330.687 35.4392L339.183 22.05L313.919 15.4668L313.584 15.9817C313.153 16.6776 302.902 32.9896 301.885 35.1469C301.364 36.1491 301.071 37.2541 301.028 38.3826C300.985 39.5112 301.192 40.6353 301.634 41.6745C303.125 45.14 306.899 47.3809 308.668 48.202L300.632 58.223C296.05 56.4972 278.793 51.5841 228.292 50.5263L226.523 30.4843C229.685 30.4565 237.526 29.9555 239.713 25.5852C242.275 20.4634 241.05 1.71575 240.994 0.894584L240.938 0.129092H213.752V13.8105H183.668V0.115173H182.833L156.008 0.393534L155.994 1.2147C155.966 2.34206 155.479 29.0508 165.479 30.0807C169.184 30.4426 171.83 30.4843 173.167 30.4704L170.994 49.9139C117.345 51.0691 101.384 56.5668 98.2646 57.9029L89.4903 46.9494C92.8886 44.9869 99.0167 39.8512 96.1337 33.7412C95.117 31.57 84.8524 15.2719 84.4207 14.576L84.0864 14.0471L83.4875 14.2002L58.8219 20.6443L67.3177 34.0195L48.418 39.4754L38.4459 25.5017L13.0978 32.2798L13.5852 33.2262C13.9613 33.9221 22.6938 50.4289 25.2008 52.9202C31.9835 59.7122 39.8247 59.3225 42.6938 58.8772L77.5962 113.951C76.9802 114.714 76.6283 115.657 76.5934 116.637C76.5934 118.265 77.6519 119.824 79.6017 121.286C79.5739 121.314 82.5962 123.109 83.599 123.693C84.0028 124.96 86.9833 134.257 86.4123 139.63C85.507 140.604 85.0474 141.634 85.1031 142.706C85.3399 147.104 92.9583 149.971 95.0474 150.472H100.006C99.3359 150.271 98.6759 150.039 98.0279 149.776Z" fill="#1A1919"/>
<path fill-rule="evenodd" clip-rule="evenodd" d="M315.381 121.383C315.896 121.105 316.356 120.827 316.801 120.548C303.807 113.116 260.158 106.449 200.061 106.449C138.292 106.449 93.8913 113.506 82.3175 121.175C82.8328 121.453 83.3899 121.745 83.9888 122.037C101.036 113.297 151.398 108.259 200.381 108.259C248.139 108.259 297.15 113.06 315.381 121.383Z" fill="#FBD020"/>
<path fill-rule="evenodd" clip-rule="evenodd" d="M318.166 119.504C319.225 118.544 319.796 117.583 319.796 116.637C319.796 107.618 271.272 97.9866 199.044 97.9866C126.816 97.9866 78.2925 107.618 78.2925 116.637C78.2925 117.834 79.1978 119.045 80.8691 120.242C94.351 110.471 147.958 104.765 200.061 104.765C250.827 104.765 303.055 110.179 318.166 119.504Z" fill="#FBD020"/>
<path fill-rule="evenodd" clip-rule="evenodd" d="M299.907 149.651C282.414 144.501 246.217 140.409 199.183 140.409C152.15 140.409 115.952 144.501 98.4455 149.651L98.0277 149.79C98.6127 150.013 99.2812 150.249 100.019 150.486H298.347L300.381 149.776L299.907 149.637" fill="#1A1919"/>
<path fill-rule="evenodd" clip-rule="evenodd" d="M302.776 148.732C306.829 147.34 309.545 145.893 310.743 144.445C304.698 137.166 261.412 129.985 199.183 129.985C136.955 129.985 93.6684 137.166 87.6238 144.445C88.8355 145.893 91.5236 147.34 95.5904 148.732C114.908 142.149 158 138.669 199.183 138.669C240.367 138.669 283.445 142.149 302.776 148.732Z" fill="#FBD020"/>
<path fill-rule="evenodd" clip-rule="evenodd" d="M311.481 142.817L311.509 142.705C311.509 134.897 266.384 126.519 199.183 126.519C131.997 126.519 86.8577 134.897 86.8577 142.705L86.8855 142.817C96.983 133.338 149.462 128.258 199.183 128.258C248.891 128.258 301.383 133.338 311.481 142.817Z" fill="#FBD020"/>
<path fill-rule="evenodd" clip-rule="evenodd" d="M303.57 150.36H0.743774V441.512C0.743774 551.882 90.827 641.653 201.272 641.347C311.62 641.069 401.132 551.089 400.743 440.802V150.36H303.57Z" fill="#2A5898"/>
<path fill-rule="evenodd" clip-rule="evenodd" d="M243.891 373.049C243.891 362.75 241.718 356.946 239.963 349.5C238.433 343.057 237.685 336.455 237.735 329.834C237.735 303.083 245.047 311.559 245.047 281.357C245.047 267.495 239.42 258.114 239.42 242.052C239.42 225.991 250.451 195.023 242.902 169.818C240.492 161.717 240.228 162.789 237.986 152.142H155.646C155.646 152.142 161.287 171.056 162.359 182.497C164.365 204.154 156.328 224.209 156.328 236.61C156.328 254.384 163.626 263.055 163.459 284.405C163.25 309.179 156.301 314.329 157.164 336.681C157.303 340.244 157.554 343.125 157.902 345.575C158.181 347.496 158.487 349.152 158.821 350.641C160.604 358.435 163.069 361.859 163.069 377.057C163.069 379.41 162.902 381.609 162.651 383.78C162.375 386.022 161.999 388.251 161.523 390.461C159.504 399.869 156.231 408.401 156.328 419.688C156.495 439.452 162.874 442.486 162.874 461.276C162.874 476.53 155.688 490.629 155.688 502.932C155.688 520.594 162.958 538.688 162.958 557.352C162.958 574.29 153.947 575.069 153.947 603.657C153.947 624.158 161.523 636.225 161.523 636.225C161.523 636.225 174.866 639.802 197.401 640.067C223.376 640.373 242.136 635.613 242.136 635.613C242.136 635.613 235.799 623.713 235.799 608.528C235.799 593.386 243.083 591.173 243.459 567.651C243.835 544.13 237.442 541.416 237.442 513.538C237.442 485.757 245.785 490.921 244.002 461.262C243.292 449.264 238.013 441.317 238.013 417.434C238.013 404.114 240.562 396 242.303 387.412C242.582 386.064 242.828 384.709 243.041 383.348C243.543 380.175 243.877 376.835 243.877 373.049H243.891ZM154.685 346.744L117.22 289.123L141.788 290.668L85.7019 221.342L75.8133 238.1L41.9973 192.616L55.5905 187.995L22.8748 172.768L25.4374 207.563L33.3483 200.549L80.1726 256.054L89.2255 241.718L120.145 280.647L95.7854 276.569L134.351 332.979L103.78 326.883L105.423 342.847L67.9582 333.8C67.9582 333.8 80.5626 321.58 82.5264 319.701L37.9165 310.599L42.4429 296.848L21.7745 308.845C22.443 310.098 33.1951 330.418 35.1031 334.065L37.5544 319.868L65.3677 325.241L52.7772 337.433L123.25 357.336L121.691 343.752L154.671 346.744" fill="#FFFFFE"/>
<path fill-rule="evenodd" clip-rule="evenodd" d="M381.202 438.686L363.32 413.272L361.955 430.725L332.595 418.366L344.74 402.458L277.373 379.187L279.671 400.287L279.81 401.595C279.81 401.595 247.958 391.852 244.699 390.878L276.036 459.508L251.105 458.714L290.91 527.47L300.743 512.174L319.977 545.006L305.2 551.228L338.974 569.085L337.651 525.772L326.314 537.602L301.983 492.201L290.423 508.388L271.76 471.742H295.632L263.877 406.884L293.013 413.815L292.178 395.902L325.701 405.882L316.593 423.794L357.498 439.062L351.119 452.841L381.202 438.686ZM247.373 345.895L284.838 288.288L260.256 289.819L316.342 220.493L326.23 237.237L360.047 191.766L346.453 187.173L379.169 171.933L376.606 206.728L368.696 199.7L321.871 255.233L312.818 240.897L281.913 279.798L306.258 275.734L267.707 332.144L298.264 326.048L296.607 342.026L334.072 332.951L319.517 318.838L364.113 309.736C364.113 309.736 360.632 299.116 359.587 295.999L380.255 307.996L366.927 333.215L364.489 319.019L336.662 324.391L349.267 336.584L278.793 356.486L280.339 342.916L247.359 345.895H247.373ZM22.5546 437.837C23.5991 436.306 38.1534 415.624 40.4236 412.395L41.7885 429.862L71.1617 417.489L59.0029 401.581L126.37 378.31L124.072 399.41L123.933 400.718C123.933 400.718 155.785 390.975 159.058 390.001L127.707 458.631L152.638 457.852C151.203 460.301 114.156 524.324 112.833 526.593C111.579 524.602 103 511.297 103 511.297L83.7661 544.143L98.5571 550.351L64.7689 568.208C64.8525 565.619 65.9946 528.305 66.0781 524.895L77.4291 536.725L101.774 491.324L113.306 507.511L131.969 470.865H108.097L139.852 406.007C139.852 406.007 112.763 412.465 110.744 412.966L111.579 395.039L78.0419 405.005L87.1505 422.917L46.2453 438.185L52.6241 451.964L22.5406 437.823" fill="#FFFFFE"/>
</g>
<defs>
<clipPath id="clip0">
<rect x="0.743774" y="0.115173" width="400" height="641.23" fill="white"/>
</clipPath>
</defs>
</svg>
