<svg width="401" height="522" viewBox="0 0 401 522" fill="none" xmlns="http://www.w3.org/2000/svg">
<g clip-path="url(#clip0)">
<path d="M201.035 521.492C278.848 465.038 332.183 393.737 364.095 303.548C393.035 221.777 404.646 122.678 399.599 0.596799L399.579 0.115173H1.90503L1.88409 0.596799C-3.15201 122.678 8.45928 221.766 37.388 303.548C69.3007 393.737 122.635 465.038 200.449 521.492L200.742 521.702L201.035 521.492Z" fill="#32AC60"/>
<path d="M307.412 73.5087C306.237 63.8451 302.742 59.162 305.669 56.1117C311.079 50.4741 315.015 43.9729 316.529 41.7683C318.274 39.228 326.682 41.621 332.022 43.1774C334.687 43.9542 333.408 50.44 333.176 54.3148C333.006 57.16 327.996 67.4191 326.358 77.4363C322.119 103.361 327.413 126.999 328.786 152.003C331.633 203.837 333.558 269.129 314.093 312.513C309.106 323.63 303.241 334.371 298.176 342.16C293.958 348.647 283.446 332.522 284.96 326.9C288.139 315.1 294.667 313.984 293.622 306.387C292.89 301.071 291.908 293.95 293.889 289.95C297.897 281.861 299.673 277.027 289.999 276.472C286.533 276.273 290.354 269.878 295.72 261.215C298.3 257.051 285.158 261.038 286.93 257.711C290.136 251.694 291.941 247.928 294.605 243.687C296.642 240.443 284.282 244.726 285.945 242.175C290.971 234.465 292.217 231.562 295.258 226.957C297.818 223.08 283.659 228.891 286.36 225.03C291.102 218.251 293.427 215.032 295.823 211.547C300.113 205.308 284.603 211.146 286.526 208.406C291.891 200.762 293.689 195.011 296.12 191.416C298.501 187.894 285.548 192.436 286.982 190.189C290.278 185.025 293.013 180.191 295.306 176.4C297.765 172.334 285.83 175.457 287.205 173.433C292.247 166.005 293.727 161.766 296.104 158.177C298.131 155.116 287.126 158.974 288.259 156.978C292.878 148.839 294.904 144.426 296.913 141.301C299.42 137.402 286.558 141.666 288.53 139.17C294.269 131.909 296.323 127.822 298.655 124.249C300.451 121.497 288.933 124.838 290.215 123.004C295.225 115.837 297.225 113.807 300.176 109.191C302.476 105.593 286.041 109.243 291.004 104.849C301.638 95.4375 309.303 89.0663 307.412 73.5087Z" fill="white"/>
<path opacity="0.99" d="M326.425 54.0889C326.425 55.1907 325.978 56.2474 325.182 57.0265C324.387 57.8056 323.307 58.2433 322.182 58.2433C321.056 58.2433 319.977 57.8056 319.181 57.0265C318.385 56.2474 317.938 55.1907 317.938 54.0889C317.938 53.5433 318.048 53.003 318.261 52.499C318.474 51.995 318.787 51.537 319.181 51.1512C319.575 50.7654 320.043 50.4594 320.558 50.2506C321.072 50.0418 321.624 49.9344 322.182 49.9344C322.739 49.9344 323.291 50.0418 323.806 50.2506C324.32 50.4594 324.788 50.7654 325.182 51.1512C325.576 51.537 325.889 51.995 326.102 52.499C326.316 53.003 326.425 53.5433 326.425 54.0889Z" fill="#32AC60"/>
<path opacity="0.99" d="M300.548 328.019C300.548 329.121 300.101 330.177 299.305 330.956C298.509 331.735 297.43 332.173 296.304 332.173C295.179 332.173 294.1 331.735 293.304 330.956C292.508 330.177 292.061 329.121 292.061 328.019C292.061 326.917 292.508 325.86 293.304 325.081C294.1 324.302 295.179 323.864 296.304 323.864C297.43 323.864 298.509 324.302 299.305 325.081C300.101 325.86 300.548 326.917 300.548 328.019Z" fill="#32AC60"/>
<path d="M110.575 73.5087C109.4 63.8451 105.905 59.162 108.832 56.1117C114.242 50.4741 118.178 43.9729 119.692 41.7683C121.437 39.228 129.845 41.621 135.185 43.1774C137.85 43.9542 136.571 50.44 136.339 54.3148C136.169 57.16 131.159 67.4191 129.521 77.4363C125.283 103.361 130.576 126.999 131.95 152.003C134.796 203.837 136.721 269.129 117.256 312.513C112.269 323.63 106.404 334.371 101.339 342.16C97.1209 348.647 86.6089 332.522 88.1232 326.9C91.3018 315.1 97.8305 313.984 96.7848 306.387C96.0532 301.071 95.0707 293.95 97.0525 289.95C101.06 281.861 102.836 277.027 93.1619 276.472C89.6956 276.273 93.5173 269.878 98.8835 261.215C101.463 257.051 88.3215 261.038 90.0934 257.711C93.2986 251.694 95.1041 247.928 97.7678 243.687C99.8055 240.443 87.4453 244.726 89.1077 242.175C94.1339 234.465 95.3798 231.562 98.4206 226.957C100.981 223.08 86.8217 228.891 89.5228 225.03C94.2652 218.251 96.5903 215.032 98.9861 211.547C103.276 205.308 87.7658 211.146 89.6886 208.406C95.0544 200.762 96.8521 195.011 99.2827 191.416C101.664 187.894 88.711 192.436 90.1455 190.189C93.4412 185.025 96.1763 180.191 98.4689 176.4C100.928 172.334 88.9935 175.457 90.3677 173.433C95.41 166.005 96.8902 161.766 99.2667 158.177C101.294 155.116 90.2891 158.974 91.4217 156.978C96.0411 148.839 98.0667 144.426 100.076 141.301C102.583 137.402 89.7209 141.666 91.6931 139.17C97.432 131.909 99.4864 127.822 101.818 124.249C103.614 121.497 92.0958 124.838 93.3779 123.004C98.3885 115.837 100.388 113.807 103.34 109.191C105.64 105.593 89.2044 109.243 94.1674 104.849C104.801 95.4375 112.466 89.0663 110.575 73.5087Z" fill="white"/>
<path opacity="0.99" d="M129.588 54.0889C129.588 55.1907 129.141 56.2474 128.345 57.0265C127.55 57.8056 126.47 58.2433 125.345 58.2433C124.219 58.2433 123.14 57.8056 122.344 57.0265C121.548 56.2474 121.101 55.1907 121.101 54.0889C121.101 52.987 121.548 51.9303 122.344 51.1512C123.14 50.3721 124.219 49.9344 125.345 49.9344C126.47 49.9344 127.55 50.3721 128.345 51.1512C129.141 51.9303 129.588 52.987 129.588 54.0889Z" fill="#32AC60"/>
<path d="M207.073 78.6891C208.918 73.3006 209.432 72.0359 204.896 57.1763C203.627 53.0182 209.404 48.5133 216.327 41.0661C218.043 39.2205 224.166 40.3233 229.888 41.7399C233.563 42.6497 235.224 49.0404 235.382 51.4335C235.767 57.2655 230.789 66.9739 229.325 76.9372C221.301 131.565 234.266 226.28 231.249 298.47C229.656 336.597 221.977 365.786 214.145 388.005C209.54 401.067 203.895 413.063 198.794 420.221C196.572 423.339 195.178 427.56 188.061 421.319C184.51 418.204 181.342 413.459 184.894 405.665C188.758 397.189 193.829 390.387 194.963 372.142C195.749 359.496 183.956 365.436 187.068 361.076C192.021 354.137 191.617 353.447 194.782 348.378C196.655 345.379 184.939 347.701 186.529 344.982C191.838 335.908 193.337 332.517 195.164 329.089C196.751 326.109 185.164 329.853 186.536 327.848C191.38 320.766 192.615 317.347 194.889 313.106C196.139 310.773 184.426 314.979 185.603 312.924C189.497 306.126 192.791 299.487 193.933 297.179C195.162 294.695 182.822 299.827 185.067 295.582C190.417 285.463 191.009 283.201 192.872 279.258C194.945 274.871 182.966 280.249 185.692 276.167C191.603 267.316 193.971 263.155 194.542 261.748C195.616 259.1 183.449 264.137 186.169 259.786C191.803 250.776 193.993 247.328 195.256 243.025C195.81 241.139 185.21 244.78 186.807 242.112C192.194 233.117 194.555 226.967 194.853 225.221C195.246 222.917 185.043 226.889 186.922 223.726C191.43 216.138 192.737 213.662 194.551 208.95C195.156 207.376 184.878 210.211 186.378 207.923C191.693 199.818 194.443 196.199 195.547 194.058C197.029 191.184 185.517 194.473 187.862 191.232C194.081 182.638 194.514 181.448 197.289 176.67C199.777 172.386 185.75 176.957 188.636 172.455C192.963 165.706 195.038 163.611 197.101 160.21C199.795 155.769 187.235 159.341 189.405 156.243C193.882 149.852 194.589 147.647 196.675 144.137C198.93 140.342 186.914 143.343 188.888 140.774C195.143 132.634 196.2 131.136 198.518 127.659C200.838 124.177 187.608 126.483 188.932 124.862C195.097 117.312 197.462 114.171 199.141 111.61C201.699 107.706 190.83 109.354 191.909 107.519C196.714 99.3504 201.409 95.2324 207.073 78.6891Z" fill="white"/>
<path opacity="0.99" d="M226.697 52.0155C226.696 53.1276 226.244 54.1938 225.441 54.9799C224.637 55.7659 223.548 56.2075 222.412 56.2075C221.276 56.2075 220.187 55.7659 219.383 54.9799C218.58 54.1938 218.128 53.1276 218.127 52.0155C218.127 51.4644 218.237 50.9187 218.452 50.4094C218.668 49.9002 218.983 49.4374 219.381 49.0476C219.779 48.6578 220.252 48.3485 220.772 48.1376C221.292 47.9266 221.849 47.818 222.412 47.818C222.975 47.818 223.532 47.9266 224.052 48.1376C224.573 48.3485 225.045 48.6578 225.443 49.0476C225.841 49.4374 226.156 49.9002 226.372 50.4094C226.587 50.9187 226.697 51.4644 226.697 52.0155Z" fill="#32AC60"/>
<path opacity="0.99" d="M198.008 410.961C198.009 411.507 197.899 412.048 197.686 412.552C197.473 413.057 197.161 413.515 196.767 413.901C196.372 414.287 195.904 414.593 195.389 414.802C194.874 415.011 194.322 415.119 193.765 415.119C193.207 415.119 192.655 415.011 192.14 414.802C191.625 414.593 191.157 414.287 190.763 413.901C190.369 413.515 190.056 413.057 189.843 412.552C189.63 412.048 189.52 411.507 189.521 410.961C189.52 410.416 189.63 409.875 189.843 409.371C190.056 408.866 190.369 408.408 190.763 408.022C191.157 407.636 191.625 407.33 192.14 407.121C192.655 406.912 193.207 406.804 193.765 406.804C194.322 406.804 194.874 406.912 195.389 407.121C195.904 407.33 196.372 407.636 196.767 408.022C197.161 408.408 197.473 408.866 197.686 409.371C197.899 409.875 198.009 410.416 198.008 410.961Z" fill="#32AC60"/>
<path opacity="0.99" d="M103.711 328.019C103.711 329.121 103.264 330.177 102.469 330.956C101.673 331.735 100.593 332.173 99.4677 332.173C98.3422 332.173 97.2627 331.735 96.4669 330.956C95.671 330.177 95.2239 329.121 95.2239 328.019C95.2239 327.473 95.3336 326.933 95.5469 326.429C95.7602 325.925 96.0728 325.467 96.4669 325.081C96.8609 324.695 97.3288 324.389 97.8436 324.18C98.3585 323.972 98.9104 323.864 99.4677 323.864C100.025 323.864 100.577 323.972 101.092 324.18C101.607 324.389 102.074 324.695 102.469 325.081C102.863 325.467 103.175 325.925 103.388 326.429C103.602 326.933 103.711 327.473 103.711 328.019Z" fill="#32AC60"/>
</g>
<defs>
<clipPath id="clip0">
<rect x="0.743774" y="0.115173" width="400" height="521.59" fill="white"/>
</clipPath>
</defs>
</svg>
