<svg width="400" height="522" viewBox="0 0 400 522" fill="none" xmlns="http://www.w3.org/2000/svg">
<g clip-path="url(#clip0)">
<path d="M200.291 521.568C278.105 465.113 331.439 393.812 363.352 303.623C392.291 221.852 403.902 122.753 398.856 0.672055L398.835 0.19043H1.16126L1.14031 0.672055C-3.89578 122.753 7.71551 221.841 36.6443 303.623C68.557 393.812 121.891 465.113 199.705 521.568L199.998 521.777L200.291 521.568Z" fill="#32AC60"/>
<path fill-rule="evenodd" clip-rule="evenodd" d="M225.94 182.832C225.54 182.923 224.878 182.955 223.903 182.873C222.719 182.774 221.248 182.525 219.581 182.183C217.676 181.792 215.595 181.298 213.449 180.789C211.801 180.398 210.115 179.997 208.439 179.627C207.983 179.527 207.517 179.756 207.318 180.179C206.124 182.722 205.711 185.067 206.016 187.187C206.322 189.315 207.338 191.129 208.85 192.62C211.836 195.567 216.773 197.282 222.277 197.933L222.279 197.933C222.399 197.947 222.549 198.005 222.717 198.319C222.901 198.662 223.044 199.215 223.096 199.982C223.198 201.502 222.92 203.542 222.332 205.553C221.744 207.567 220.879 209.438 219.888 210.66C218.875 211.91 217.988 212.214 217.22 211.94L217.217 211.939C215.723 211.41 214.265 210.965 212.839 210.529C206.394 208.559 200.592 206.786 194.981 198.448L194.978 198.443C193.572 196.379 193.113 193.772 193.244 190.759C193.374 187.742 194.09 184.432 194.925 181.04C195.009 180.7 194.909 180.342 194.662 180.094C194.416 179.847 194.057 179.746 193.718 179.829L193.307 179.929C189.582 180.837 185.671 181.79 182.381 182.401C180.675 182.718 179.164 182.937 177.95 183.013C176.683 183.093 175.921 183.001 175.578 182.845C175.354 182.74 175.041 182.515 174.645 182.135C174.257 181.762 173.831 181.282 173.378 180.718C172.472 179.588 171.506 178.184 170.568 176.767C170.194 176.203 169.821 175.632 169.46 175.078C168.929 174.263 168.422 173.485 167.973 172.825C167.593 172.266 167.236 171.764 166.92 171.367C166.634 171.008 166.29 170.613 165.931 170.398C165.474 170.124 164.853 170.02 164.293 169.968C163.688 169.911 162.963 169.901 162.179 169.916C160.869 169.94 159.311 170.038 157.735 170.138C157.425 170.157 157.115 170.176 156.806 170.196C154.901 170.313 153.031 170.411 151.501 170.38C150.736 170.364 150.086 170.316 149.577 170.23C149.036 170.139 148.778 170.023 148.691 169.959C148.545 169.851 148.311 169.599 147.998 169.143C147.697 168.705 147.368 168.143 147.017 167.485C146.316 166.169 145.565 164.537 144.828 162.878C144.568 162.294 144.309 161.704 144.056 161.126C143.596 160.079 143.152 159.069 142.75 158.195C142.436 157.513 142.139 156.896 141.87 156.39C141.612 155.905 141.341 155.448 141.072 155.144L141.062 155.132C140.662 154.692 140.114 154.406 139.569 154.207C139.012 154.004 138.373 153.862 137.707 153.758C136.377 153.549 134.809 153.471 133.323 153.416C133.034 153.405 132.747 153.395 132.466 153.385C131.277 153.344 130.176 153.306 129.264 153.218C128.702 153.164 128.258 153.095 127.939 153.009C127.783 152.966 127.69 152.929 127.64 152.906C127.637 152.897 127.634 152.887 127.631 152.877C127.597 152.758 127.559 152.586 127.522 152.355C127.448 151.894 127.388 151.275 127.345 150.536C127.26 149.063 127.244 147.195 127.287 145.335C127.329 143.476 127.43 141.65 127.572 140.262C127.644 139.565 127.724 139.002 127.807 138.608C127.837 138.466 127.864 138.362 127.886 138.289C129.292 137.262 130.606 136.524 132.253 135.623C132.388 135.55 132.524 135.475 132.663 135.399C134.287 134.513 136.222 133.457 138.786 131.854C139.173 131.613 139.347 131.14 139.209 130.705C139.071 130.27 138.657 129.983 138.201 130.008C131.808 130.358 126.69 131.532 122.934 132.564C121.997 132.822 121.144 133.07 120.382 133.294L120.152 133.362C119.482 133.559 118.891 133.732 118.368 133.875C117.785 134.035 117.317 134.149 116.947 134.212C116.583 134.273 116.397 134.27 116.324 134.26C116.226 134.233 116.016 134.153 115.684 133.986C115.348 133.818 114.94 133.588 114.481 133.309C113.566 132.752 112.487 132.018 111.455 131.232C110.419 130.443 109.456 129.621 108.755 128.887C108.404 128.52 108.14 128.196 107.967 127.927C107.794 127.658 107.767 127.529 107.764 127.516C107.764 127.516 107.766 127.459 107.798 127.326C107.831 127.189 107.887 127.009 107.97 126.788C108.135 126.345 108.387 125.788 108.71 125.149C109.354 123.873 110.252 122.332 111.221 120.836C112.192 119.338 113.218 117.909 114.116 116.846C114.567 116.313 114.967 115.894 115.298 115.609C115.567 115.376 115.716 115.298 115.76 115.275C115.771 115.269 115.774 115.266 115.774 115.266C129.451 113.61 153.45 114.098 172.071 116.646C172.513 116.706 172.941 116.466 173.121 116.058C173.301 115.65 173.189 115.172 172.846 114.886C155.529 100.472 138.581 100.183 123.808 101.668L123.807 101.668C123.786 101.665 123.586 101.639 123.143 101.398C122.715 101.164 122.191 100.802 121.597 100.332C120.414 99.3933 119.048 98.0954 117.778 96.7409C116.508 95.3853 115.363 94.0047 114.61 92.9099C114.23 92.3558 113.978 91.9163 113.853 91.6125C113.848 91.6006 113.844 91.5892 113.839 91.5784C116.367 88.9108 118.85 86.3487 121.045 84.4688C122.179 83.498 123.204 82.737 124.093 82.2405C125.002 81.7329 125.637 81.5768 126.041 81.6156C137.066 82.9737 163.361 92.2409 184.976 109.063C185.347 109.353 185.871 109.343 186.232 109.041C186.593 108.739 186.694 108.225 186.475 107.808C175.743 87.4191 162.674 74.2097 147.714 73.5379C147.671 73.4614 147.624 73.3683 147.571 73.2574C147.394 72.8852 147.195 72.3775 146.983 71.7636C146.561 70.5397 146.118 68.9697 145.735 67.385C145.352 65.7997 145.037 64.2255 144.866 62.9939C144.78 62.3749 144.735 61.8678 144.73 61.4995C144.729 61.4306 144.73 61.3702 144.732 61.3178C145.835 60.7381 148.385 59.4267 150.975 58.2743C152.47 57.6096 153.951 57.0097 155.164 56.6317C155.773 56.4421 156.285 56.3177 156.681 56.2635C157.035 56.2152 157.192 56.2385 157.227 56.2437C157.235 56.2449 157.236 56.2451 157.233 56.2436L157.239 56.246C172.748 63.0854 186.586 81.5125 194.318 99.1306C194.513 99.5749 194.999 99.8151 195.47 99.7003C195.942 99.5855 196.263 99.1488 196.232 98.6646C195.968 94.5649 195.765 90.183 195.557 85.692C195.071 75.1832 194.557 64.0775 193.173 54.5961L193.172 54.5914C192.228 48.3345 190.814 42.7787 189.626 38.6568C189.048 36.651 188.522 34.9825 188.132 33.7424L188.1 33.6408C187.902 33.0128 187.744 32.5088 187.632 32.1281C187.575 31.9378 187.534 31.7878 187.505 31.6743C187.485 31.5941 187.477 31.5496 187.473 31.5313C187.474 31.3811 187.547 31.0551 187.831 30.5167C188.116 29.9774 188.553 29.337 189.116 28.6246C190.24 27.2027 191.797 25.5865 193.442 24.0562C195.086 22.528 196.793 21.109 198.205 20.0786C198.913 19.5621 199.53 19.1555 200.018 18.8828C200.262 18.7462 200.458 18.6527 200.604 18.5958C200.681 18.5659 200.729 18.5523 200.753 18.5463C200.779 18.552 200.836 18.5663 200.929 18.6012C201.083 18.6589 201.284 18.7531 201.534 18.8902C202.032 19.1642 202.656 19.5728 203.367 20.0922C204.786 21.1285 206.486 22.5552 208.117 24.0893C209.749 25.625 211.288 27.2444 212.398 28.6623C212.954 29.3727 213.384 30.0096 213.665 30.5433C213.946 31.0773 214.015 31.3935 214.016 31.5311C214.013 31.5493 214.004 31.5938 213.984 31.6743C213.955 31.7878 213.914 31.9378 213.858 32.1281C213.745 32.5088 213.587 33.0128 213.389 33.6408L213.357 33.7424C212.967 34.9825 212.441 36.651 211.863 38.6568C210.675 42.7784 209.261 48.3338 208.317 54.5902C206.869 64.0432 206.38 75.1135 205.918 85.592C205.718 90.1194 205.523 94.5363 205.257 98.6646C205.226 99.1488 205.547 99.5855 206.019 99.7003C206.49 99.8151 206.976 99.5749 207.171 99.1306C214.905 81.5099 228.644 63.0858 244.249 56.2469L244.257 56.243C244.252 56.2452 244.254 56.245 244.262 56.2437C244.298 56.2385 244.454 56.2152 244.808 56.2635C245.205 56.3177 245.716 56.4421 246.325 56.6317C247.539 57.0097 249.02 57.6096 250.514 58.2743C253.104 59.4267 255.654 60.7381 256.757 61.3178C256.759 61.3702 256.76 61.4306 256.759 61.4995C256.755 61.8678 256.709 62.3749 256.623 62.9939C256.452 64.2255 256.137 65.7997 255.754 67.385C255.372 68.9697 254.928 70.5397 254.506 71.7636C254.294 72.3775 254.095 72.8852 253.918 73.2574C253.866 73.3683 253.818 73.4614 253.775 73.5379C238.816 74.2076 225.747 87.3193 215.013 107.81C214.795 108.227 214.897 108.74 215.258 109.042C215.619 109.343 216.142 109.352 216.513 109.063C238.136 92.2354 264.44 82.9675 275.459 81.6143L275.479 81.6117C275.835 81.5608 276.442 81.6909 277.356 82.1998C278.239 82.691 279.266 83.4541 280.407 84.4316C282.614 86.3237 285.12 88.9095 287.65 91.5784C287.645 91.5892 287.641 91.6006 287.636 91.6125C287.511 91.9163 287.26 92.3558 286.879 92.9099C286.127 94.0047 284.982 95.3853 283.711 96.7409C282.441 98.0954 281.075 99.3933 279.892 100.332C279.298 100.802 278.774 101.164 278.346 101.398C277.893 101.645 277.694 101.666 277.681 101.668C262.81 100.183 245.96 100.472 228.643 114.886C228.3 115.172 228.188 115.65 228.368 116.058C228.548 116.466 228.976 116.706 229.418 116.646C248.049 114.096 272.064 113.61 285.738 115.269C285.75 115.274 285.775 115.285 285.816 115.308C285.908 115.36 286.036 115.449 286.199 115.587C286.526 115.864 286.924 116.276 287.374 116.806C288.271 117.862 289.297 119.293 290.267 120.798C291.236 122.3 292.134 123.849 292.779 125.133C293.102 125.776 293.353 126.337 293.519 126.782C293.602 127.005 293.658 127.186 293.691 127.324C293.724 127.461 293.725 127.517 293.725 127.515L293.725 127.516C293.722 127.529 293.695 127.658 293.522 127.927C293.349 128.196 293.085 128.52 292.734 128.887C292.033 129.621 291.07 130.443 290.034 131.232C289.002 132.018 287.924 132.752 287.008 133.309C286.55 133.588 286.141 133.818 285.805 133.986C285.45 134.164 285.235 134.243 285.146 134.264L285.133 134.268C285.085 134.28 284.914 134.296 284.532 134.237C284.171 134.182 283.711 134.073 283.133 133.916C282.571 133.764 281.928 133.573 281.188 133.354L281.136 133.338C280.378 133.114 279.53 132.863 278.595 132.602C274.852 131.557 269.732 130.358 263.288 130.008C262.832 129.983 262.418 130.27 262.28 130.705C262.142 131.14 262.317 131.613 262.703 131.854C265.412 133.547 267.392 134.652 269.064 135.585L269.192 135.656C270.821 136.565 272.142 137.307 273.598 138.295C273.622 138.374 273.65 138.486 273.681 138.636C273.765 139.041 273.845 139.613 273.917 140.317C274.059 141.717 274.16 143.55 274.202 145.409C274.245 147.268 274.229 149.131 274.144 150.591C274.101 151.324 274.042 151.934 273.968 152.384C273.931 152.611 273.894 152.775 273.86 152.886C273.858 152.892 273.857 152.898 273.855 152.903C273.807 152.926 273.713 152.965 273.55 153.009C273.231 153.095 272.787 153.164 272.225 153.218C271.313 153.306 270.212 153.344 269.023 153.385C268.742 153.395 268.456 153.405 268.166 153.416C266.68 153.471 265.112 153.549 263.783 153.758C263.117 153.862 262.477 154.004 261.92 154.207C261.375 154.406 260.828 154.692 260.427 155.132L260.417 155.144C260.147 155.45 259.877 155.909 259.621 156.393C259.354 156.9 259.061 157.518 258.751 158.199C258.371 159.035 257.953 159.998 257.519 160.998C257.249 161.618 256.973 162.253 256.697 162.881C255.966 164.539 255.22 166.169 254.515 167.483C254.163 168.139 253.83 168.699 253.525 169.135C253.208 169.588 252.967 169.839 252.815 169.947L252.798 169.959C252.709 170.025 252.449 170.141 251.908 170.235C251.398 170.323 250.748 170.374 249.983 170.394C248.454 170.433 246.583 170.343 244.68 170.232C244.298 170.21 243.915 170.187 243.533 170.164C242.033 170.073 240.559 169.984 239.313 169.957C238.53 169.94 237.809 169.946 237.208 169.995C236.652 170.041 236.041 170.132 235.591 170.379C235.58 170.385 235.569 170.391 235.558 170.398C235.198 170.614 234.854 171.012 234.571 171.37C234.257 171.768 233.904 172.27 233.527 172.829C233.1 173.464 232.618 174.211 232.111 174.995C231.735 175.576 231.346 176.178 230.957 176.77C230.025 178.186 229.063 179.588 228.154 180.716C227.221 181.873 226.461 182.587 225.94 182.832ZM256.733 61.0722C256.733 61.0722 256.734 61.0751 256.736 61.0834C256.733 61.0766 256.733 61.0722 256.733 61.0722Z" fill="#FFE100"/>
<path fill-rule="evenodd" clip-rule="evenodd" d="M225.939 394.327C225.54 394.418 224.878 394.45 223.903 394.368C222.719 394.269 221.248 394.02 219.581 393.678C217.676 393.287 215.595 392.793 213.449 392.284C211.801 391.893 210.115 391.492 208.439 391.122C207.983 391.022 207.517 391.251 207.318 391.674C206.124 394.217 205.711 396.562 206.016 398.682C206.322 400.81 207.338 402.624 208.85 404.115C211.836 407.062 216.773 408.777 222.277 409.428L222.279 409.428C222.399 409.442 222.549 409.5 222.717 409.814C222.901 410.157 223.044 410.71 223.096 411.477C223.198 412.997 222.92 415.037 222.332 417.048C221.744 419.062 220.879 420.932 219.888 422.155C218.875 423.405 217.988 423.709 217.22 423.435L217.217 423.434C215.723 422.905 214.265 422.46 212.839 422.024C206.394 420.054 200.592 418.281 194.981 409.943L194.978 409.938C193.572 407.874 193.113 405.267 193.244 402.254C193.374 399.237 194.09 395.927 194.925 392.535C195.009 392.195 194.909 391.837 194.662 391.59C194.416 391.342 194.057 391.241 193.718 391.324L193.307 391.424C189.582 392.332 185.671 393.285 182.381 393.896C180.675 394.213 179.164 394.432 177.95 394.508C176.683 394.588 175.921 394.496 175.578 394.34C175.354 394.235 175.041 394.01 174.645 393.63C174.257 393.257 173.831 392.777 173.378 392.213C172.472 391.083 171.506 389.679 170.568 388.262C170.194 387.698 169.822 387.127 169.461 386.573C168.929 385.758 168.422 384.98 167.973 384.32C167.593 383.761 167.236 383.259 166.92 382.862C166.634 382.503 166.29 382.108 165.931 381.893C165.474 381.619 164.853 381.516 164.293 381.463C163.688 381.406 162.963 381.396 162.179 381.411C160.869 381.435 159.311 381.533 157.735 381.633C157.425 381.652 157.115 381.672 156.806 381.691C154.901 381.808 153.031 381.906 151.501 381.875C150.736 381.859 150.086 381.811 149.577 381.725C149.036 381.634 148.778 381.518 148.691 381.454C148.545 381.346 148.311 381.094 147.998 380.638C147.697 380.2 147.368 379.638 147.017 378.98C146.316 377.664 145.565 376.032 144.828 374.373C144.568 373.789 144.309 373.199 144.056 372.621C143.596 371.574 143.152 370.564 142.75 369.69C142.436 369.008 142.139 368.391 141.87 367.885C141.612 367.4 141.341 366.943 141.072 366.639L141.062 366.628C140.662 366.187 140.114 365.901 139.569 365.702C139.012 365.499 138.373 365.357 137.707 365.253C136.377 365.044 134.809 364.966 133.323 364.911C133.034 364.9 132.747 364.89 132.466 364.88C131.277 364.839 130.176 364.801 129.264 364.713C128.702 364.659 128.258 364.59 127.939 364.504C127.783 364.461 127.69 364.424 127.64 364.401C127.637 364.392 127.634 364.382 127.631 364.372C127.597 364.253 127.559 364.081 127.522 363.85C127.448 363.389 127.388 362.77 127.345 362.031C127.26 360.558 127.244 358.69 127.287 356.83C127.329 354.971 127.43 353.145 127.572 351.757C127.644 351.06 127.724 350.497 127.807 350.103C127.837 349.961 127.864 349.857 127.886 349.784C129.292 348.757 130.606 348.019 132.253 347.118C132.388 347.045 132.524 346.97 132.663 346.894C134.287 346.008 136.222 344.952 138.786 343.349C139.173 343.108 139.347 342.635 139.209 342.2C139.071 341.765 138.657 341.478 138.201 341.503C131.808 341.853 126.69 343.027 122.934 344.059C121.997 344.317 121.144 344.565 120.382 344.789L120.152 344.857C119.482 345.054 118.891 345.227 118.368 345.37C117.785 345.53 117.317 345.644 116.947 345.706C116.583 345.768 116.397 345.765 116.324 345.755C116.226 345.728 116.016 345.648 115.684 345.481C115.348 345.313 114.94 345.083 114.481 344.804C113.566 344.246 112.487 343.513 111.455 342.727C110.419 341.938 109.456 341.116 108.755 340.382C108.404 340.015 108.14 339.691 107.967 339.422C107.794 339.153 107.767 339.024 107.764 339.011C107.764 339.011 107.766 338.954 107.798 338.821C107.831 338.684 107.887 338.505 107.97 338.283C108.135 337.84 108.387 337.283 108.71 336.644C109.354 335.368 110.252 333.827 111.221 332.331C112.192 330.833 113.218 329.404 114.116 328.341C114.567 327.808 114.967 327.389 115.298 327.104C115.567 326.871 115.716 326.793 115.76 326.77C115.771 326.764 115.774 326.761 115.774 326.761C129.451 325.105 153.45 325.593 172.071 328.141C172.513 328.201 172.941 327.961 173.121 327.553C173.301 327.145 173.189 326.667 172.846 326.381C155.529 311.967 138.581 311.678 123.808 313.163L123.807 313.163C123.786 313.16 123.586 313.134 123.143 312.893C122.715 312.659 122.191 312.297 121.597 311.827C120.414 310.888 119.048 309.59 117.778 308.236C116.508 306.88 115.363 305.5 114.61 304.405C114.23 303.851 113.978 303.411 113.853 303.108C113.848 303.096 113.844 303.084 113.839 303.073C116.367 300.406 118.85 297.844 121.045 295.964C122.179 294.993 123.204 294.232 124.093 293.736C125.002 293.228 125.637 293.072 126.041 293.111C137.066 294.469 163.361 303.736 184.976 320.558C185.347 320.848 185.871 320.838 186.232 320.536C186.593 320.234 186.694 319.72 186.475 319.303C175.743 298.914 162.674 285.705 147.714 285.033C147.671 284.956 147.624 284.863 147.571 284.752C147.394 284.38 147.195 283.873 146.983 283.259C146.561 282.035 146.118 280.465 145.735 278.88C145.352 277.295 145.037 275.721 144.866 274.489C144.78 273.87 144.735 273.363 144.73 272.994C144.729 272.926 144.73 272.865 144.732 272.813C145.835 272.233 148.385 270.922 150.975 269.769C152.47 269.105 153.951 268.505 155.164 268.127C155.773 267.937 156.285 267.813 156.681 267.759C157.035 267.71 157.192 267.734 157.227 267.739C157.234 267.74 157.236 267.74 157.233 267.739L157.239 267.741C172.748 274.58 186.586 293.008 194.318 310.626C194.513 311.07 194.999 311.31 195.47 311.195C195.942 311.081 196.263 310.644 196.232 310.16C195.968 306.06 195.765 301.678 195.557 297.187C195.071 286.678 194.557 275.572 193.173 266.091L193.172 266.086C192.228 259.829 190.814 254.274 189.626 250.152C189.048 248.146 188.522 246.477 188.132 245.237L188.1 245.136C187.902 244.508 187.744 244.004 187.632 243.623C187.575 243.433 187.534 243.283 187.505 243.169C187.485 243.089 187.477 243.045 187.473 243.026C187.474 242.876 187.547 242.55 187.831 242.012C188.116 241.472 188.553 240.832 189.116 240.12C190.24 238.698 191.797 237.082 193.442 235.551C195.086 234.023 196.793 232.604 198.205 231.574C198.913 231.057 199.53 230.65 200.018 230.378C200.262 230.241 200.458 230.148 200.604 230.091C200.681 230.061 200.729 230.047 200.753 230.041C200.779 230.047 200.836 230.061 200.929 230.096C201.083 230.154 201.284 230.248 201.534 230.385C202.032 230.659 202.656 231.068 203.367 231.587C204.786 232.624 206.486 234.05 208.117 235.584C209.749 237.12 211.288 238.739 212.398 240.157C212.954 240.868 213.384 241.505 213.665 242.038C213.946 242.572 214.015 242.888 214.016 243.026C214.013 243.044 214.004 243.089 213.984 243.169C213.955 243.283 213.914 243.433 213.858 243.623C213.745 244.004 213.587 244.508 213.389 245.136L213.357 245.237C212.967 246.477 212.441 248.146 211.863 250.152C210.675 254.273 209.261 259.829 208.317 266.085C206.869 275.538 206.38 286.609 205.918 297.087C205.718 301.614 205.523 306.031 205.257 310.16C205.226 310.644 205.547 311.081 206.019 311.195C206.49 311.31 206.976 311.07 207.171 310.626C214.905 293.005 228.644 274.581 244.249 267.742L244.257 267.738C244.252 267.74 244.254 267.74 244.262 267.739C244.298 267.734 244.455 267.71 244.808 267.759C245.205 267.813 245.716 267.937 246.325 268.127C247.539 268.505 249.02 269.105 250.514 269.769C253.104 270.922 255.654 272.233 256.757 272.813C256.759 272.865 256.76 272.926 256.759 272.994C256.755 273.363 256.709 273.87 256.623 274.489C256.452 275.721 256.137 277.295 255.754 278.88C255.372 280.465 254.928 282.035 254.506 283.259C254.294 283.873 254.095 284.38 253.918 284.752C253.866 284.863 253.818 284.956 253.775 285.033C238.816 285.703 225.747 298.814 215.013 319.305C214.795 319.722 214.897 320.235 215.258 320.537C215.619 320.838 216.142 320.847 216.513 320.558C238.136 303.73 264.44 294.463 275.459 293.109L275.479 293.107C275.835 293.056 276.442 293.186 277.356 293.695C278.239 294.186 279.266 294.949 280.407 295.927C282.614 297.819 285.12 300.404 287.65 303.073C287.645 303.084 287.641 303.096 287.636 303.108C287.511 303.411 287.26 303.851 286.879 304.405C286.127 305.5 284.982 306.88 283.711 308.236C282.441 309.59 281.075 310.888 279.892 311.827C279.298 312.297 278.774 312.659 278.346 312.893C277.903 313.134 277.703 313.16 277.682 313.163L277.681 313.163C262.81 311.678 245.96 311.967 228.643 326.381C228.3 326.667 228.188 327.145 228.368 327.553C228.548 327.961 228.976 328.201 229.418 328.141C248.049 325.591 272.064 325.105 285.738 326.764C285.75 326.769 285.775 326.78 285.816 326.803C285.908 326.855 286.036 326.944 286.199 327.082C286.526 327.359 286.924 327.771 287.374 328.301C288.271 329.357 289.297 330.788 290.267 332.293C291.236 333.795 292.134 335.344 292.779 336.628C293.102 337.271 293.353 337.832 293.519 338.277C293.602 338.5 293.658 338.681 293.691 338.819C293.724 338.956 293.725 339.012 293.725 339.01L293.725 339.011C293.722 339.024 293.695 339.153 293.522 339.422C293.349 339.691 293.085 340.015 292.734 340.382C292.033 341.116 291.07 341.938 290.034 342.727C289.002 343.513 287.924 344.246 287.008 344.804C286.55 345.083 286.141 345.313 285.805 345.481C285.45 345.659 285.235 345.738 285.146 345.759L285.133 345.763C285.085 345.775 284.914 345.791 284.532 345.732C284.171 345.677 283.711 345.568 283.133 345.411C282.571 345.259 281.928 345.068 281.188 344.849L281.136 344.833C280.378 344.609 279.53 344.358 278.595 344.097C274.852 343.052 269.732 341.853 263.288 341.503C262.832 341.478 262.418 341.765 262.28 342.2C262.142 342.635 262.317 343.108 262.703 343.349C265.412 345.042 267.392 346.147 269.064 347.08L269.192 347.151C270.821 348.06 272.142 348.802 273.598 349.79C273.622 349.869 273.65 349.981 273.681 350.131C273.765 350.536 273.845 351.108 273.917 351.812C274.059 353.212 274.16 355.045 274.202 356.904C274.245 358.763 274.229 360.626 274.144 362.086C274.101 362.819 274.042 363.429 273.968 363.879C273.931 364.106 273.894 364.27 273.86 364.381C273.858 364.387 273.857 364.393 273.855 364.398C273.807 364.421 273.713 364.46 273.55 364.504C273.231 364.59 272.787 364.659 272.225 364.713C271.313 364.801 270.212 364.839 269.023 364.88C268.742 364.89 268.456 364.9 268.166 364.911C266.68 364.966 265.112 365.044 263.783 365.253C263.117 365.357 262.477 365.499 261.92 365.702C261.375 365.901 260.828 366.187 260.427 366.628L260.417 366.639C260.147 366.945 259.877 367.404 259.621 367.888C259.354 368.395 259.061 369.013 258.751 369.694C258.371 370.53 257.953 371.493 257.519 372.493C257.249 373.113 256.973 373.748 256.697 374.376C255.966 376.034 255.22 377.664 254.515 378.978C254.163 379.634 253.83 380.194 253.525 380.63C253.208 381.083 252.967 381.334 252.815 381.442L252.798 381.454C252.709 381.52 252.449 381.636 251.908 381.73C251.398 381.818 250.748 381.869 249.983 381.889C248.454 381.928 246.583 381.838 244.68 381.727C244.299 381.705 243.915 381.682 243.534 381.659C242.033 381.568 240.559 381.479 239.313 381.452C238.53 381.435 237.809 381.441 237.208 381.49C236.652 381.536 236.041 381.627 235.591 381.874C235.58 381.88 235.569 381.886 235.558 381.893C235.198 382.109 234.854 382.507 234.571 382.865C234.257 383.263 233.904 383.765 233.527 384.324C233.1 384.959 232.618 385.706 232.111 386.49C231.735 387.071 231.346 387.673 230.957 388.265C230.025 389.681 229.063 391.083 228.154 392.211C227.221 393.368 226.461 394.082 225.939 394.327ZM256.733 272.567C256.733 272.567 256.734 272.57 256.736 272.578C256.733 272.572 256.733 272.567 256.733 272.567ZM144.757 272.567C144.757 272.567 144.756 272.571 144.754 272.578C144.755 272.57 144.757 272.567 144.757 272.567Z" fill="#FFE100"/>
</g>
<defs>
<clipPath id="clip0">
<rect y="0.19043" width="400" height="521.59" fill="white"/>
</clipPath>
</defs>
</svg>
