<svg width="400" height="490" viewBox="0 0 400 490" fill="none" xmlns="http://www.w3.org/2000/svg">
<g clip-path="url(#clip0)">
<path d="M200.304 489.81C95.9578 399.063 41.5564 324.022 16.2318 188.719C4.842 126.536 -0.577053 63.4055 0.0485749 0.19043H399.861C400.923 63.0603 395.896 125.885 384.853 187.787C357.648 323.787 304.892 398.593 200.304 489.81Z" fill="#0089CE"/>
<path d="M144.499 210.527C148.252 206.54 142.157 208.42 140.512 206.07C137.024 202.53 134.605 198.079 133.533 193.227C132.46 188.374 132.777 183.318 134.448 178.638C136.086 175.75 138.434 173.329 141.27 171.604H141.74C142.143 171.625 142.539 171.491 142.845 171.228C143.151 170.966 143.345 170.595 143.385 170.194C143.37 169.863 143.248 169.546 143.035 169.291C142.823 169.036 142.533 168.858 142.21 168.784C136.351 157.528 151.124 148.151 145.492 135.485C142.893 129.862 138.942 124.971 133.991 121.247C129.04 117.524 123.244 115.085 117.121 114.148L115.711 71.9425H118.288V72.8824C118.33 73.344 118.548 73.7719 118.896 74.0779C119.245 74.3839 119.697 74.5447 120.16 74.5272C120.16 74.5272 127.194 75.2322 128.134 72.185C128.369 71.2451 127.899 70.7751 127.899 70.3128C128.156 69.8051 128.239 69.2271 128.134 68.6679C127.899 65.1508 120.16 65.8557 120.16 65.8557C119.909 65.8338 119.656 65.8671 119.418 65.9534C119.181 66.0397 118.966 66.1769 118.788 66.3554C118.609 66.5338 118.472 66.7492 118.386 66.9863C118.299 67.2234 118.266 67.4766 118.288 67.728V68.9029H115.711V68.4329L115.476 60.9288H118.288V61.8687C118.33 62.3303 118.548 62.7582 118.896 63.0642C119.245 63.3702 119.697 63.531 120.16 63.5135C120.16 63.5135 127.194 64.2185 128.134 61.1713C128.369 60.2314 127.899 59.7615 127.899 59.2991C128.156 58.7914 128.239 58.2134 128.134 57.6542C127.899 54.1371 120.16 54.8421 120.16 54.8421C119.909 54.8201 119.656 54.8534 119.418 54.9397C119.181 55.026 118.966 55.1632 118.788 55.3417C118.609 55.5201 118.472 55.7355 118.386 55.9726C118.299 56.2098 118.266 56.4629 118.288 56.7143V57.8892H115.256V57.1843L115.021 50.1501V49.9151H118.303V50.855C118.345 51.3167 118.563 51.7445 118.911 52.0505C119.26 52.3565 119.712 52.5173 120.175 52.4999C120.175 52.4999 127.21 53.2048 128.149 50.1576C128.384 49.2177 127.914 48.7478 127.914 48.2854C128.171 47.7777 128.254 47.1998 128.149 46.6405C127.914 43.1234 120.175 43.8284 120.175 43.8284C119.924 43.8064 119.671 43.8397 119.434 43.926C119.196 44.0124 118.981 44.1496 118.803 44.328C118.624 44.5064 118.487 44.7218 118.401 44.9589C118.314 45.1961 118.281 45.4492 118.303 45.7006V46.8755H114.983L114.748 38.9014H118.5V39.7958C118.543 40.2575 118.76 40.6854 119.109 40.9914C119.457 41.2973 119.909 41.4581 120.372 41.4407C120.372 41.4407 127.407 42.1456 128.347 39.0985C128.582 38.1586 128.112 37.6886 128.112 37.2262C128.368 36.7186 128.451 36.1406 128.347 35.5814C128.112 32.0643 120.372 32.7692 120.372 32.7692C120.121 32.7472 119.868 32.7806 119.631 32.8669C119.394 32.9532 119.178 33.0904 119 33.2688C118.821 33.4473 118.684 33.6626 118.598 33.8998C118.511 34.1369 118.478 34.3901 118.5 34.6415V35.8164H114.748V35.5965V34.8916C114.959 34.0736 115.275 33.2864 115.688 32.5494C116.684 31.928 117.507 31.0651 118.081 30.0409C118.655 29.0166 118.96 27.8641 118.97 26.6901C118.881 25.2027 118.37 23.7714 117.498 22.5634C116.625 21.3555 115.427 20.4206 114.043 19.8681C113.909 19.603 113.859 19.3029 113.901 19.0086C113.943 18.7144 114.075 18.4402 114.278 18.2233C114.731 18.2026 115.163 18.0284 115.503 17.7295C115.843 17.4305 116.072 17.0245 116.15 16.5784C116.182 16.5795 116.213 16.5741 116.242 16.5627C116.271 16.5513 116.297 16.534 116.319 16.5119C116.341 16.4899 116.358 16.4636 116.37 16.4346C116.381 16.4056 116.386 16.3746 116.385 16.3434L116.15 16.1085C116.151 15.8315 116.098 15.557 115.992 15.3009C115.886 15.0448 115.731 14.8121 115.535 14.6162C115.34 14.4203 115.107 14.2651 114.851 14.1596C114.595 14.0541 114.32 14.0002 114.043 14.0012H102.294C101.734 14.0012 101.197 14.2236 100.801 14.6195C100.406 15.0154 100.183 15.5524 100.183 16.1123C100.183 16.6721 100.406 17.2091 100.801 17.605C101.197 18.0009 101.734 18.2233 102.294 18.2233H102.529C102.852 18.7935 103.014 19.4405 102.999 20.0955C101.868 20.6085 100.896 21.4178 100.187 22.4377C99.952 22.9077 99.717 23.1427 99.482 23.6126C99.3929 23.7052 99.3256 23.8166 99.2849 23.9385C99.2443 24.0605 99.2313 24.19 99.2471 24.3176C99.2471 24.5525 99.0121 24.7875 99.0121 25.0225C99.0121 25.2575 98.7771 25.4925 98.7771 25.7274C98.7771 26.1974 98.5421 26.4324 98.5421 26.9023C98.5186 28.2141 98.8429 29.5087 99.482 30.6544C99.717 31.3593 99.952 31.5943 100.187 31.5943L101.127 32.5342C101.911 33.2784 102.409 34.2732 102.537 35.3464L102.302 40.9707V41.2057H98.5497V40.0536C98.5161 39.5681 98.3081 39.1112 97.964 38.767C97.6199 38.423 97.1629 38.2149 96.6774 38.1813C96.6774 38.1813 88.9383 37.7114 88.7033 40.9935C88.7033 41.9334 89.1733 42.4033 88.9383 42.6383C88.9383 43.1083 88.4683 43.5782 88.7033 44.5106C89.4083 47.5426 96.6774 46.8528 96.6774 46.8528C96.9109 46.8805 97.1475 46.8587 97.372 46.7889C97.5964 46.7191 97.8037 46.6029 97.9803 46.4477C98.1569 46.2926 98.2988 46.102 98.3969 45.8884C98.495 45.6748 98.5471 45.443 98.5497 45.2079V44.268H102.302L102.067 52.2421H98.5497V51.0672C98.5161 50.5818 98.3081 50.1248 97.964 49.7807C97.6199 49.4366 97.1629 49.2286 96.6774 49.195C96.6774 49.195 88.9383 48.725 88.7033 52.0072C88.7033 52.9471 89.1733 53.417 88.9383 53.652C88.9383 54.122 88.4683 54.5919 88.7033 55.5243C89.4083 58.5562 96.6774 57.8665 96.6774 57.8665C96.9109 57.8941 97.1475 57.8724 97.372 57.8026C97.5964 57.7328 97.8037 57.6166 97.9803 57.4614C98.1569 57.3063 98.2988 57.1157 98.3969 56.9021C98.495 56.6885 98.5471 56.4567 98.5497 56.2216V55.2817H101.832L101.589 63.2937H98.5573V62.1188C98.5237 61.6334 98.3156 61.1764 97.9715 60.8323C97.6274 60.4882 97.1705 60.2802 96.685 60.2466C96.685 60.2466 88.9459 59.7766 88.7109 63.0587C88.7109 63.9987 89.1809 64.4686 88.9459 64.7036C88.9459 65.1736 88.4759 65.6435 88.7109 66.5758C89.4158 69.6078 96.685 68.918 96.685 68.918C96.9184 68.9457 97.1551 68.924 97.3795 68.8542C97.604 68.7844 97.8113 68.6681 97.9878 68.513C98.1644 68.3579 98.3064 68.1673 98.4045 67.9537C98.5026 67.7401 98.5547 67.5082 98.5573 67.2732V66.3257H101.339L101.104 74.5348H98.527V73.3599C98.4934 72.8744 98.2853 72.4175 97.9412 72.0734C97.5971 71.7293 97.1402 71.5213 96.6547 71.4877C96.6547 71.4877 88.9156 71.0177 88.6806 74.2998C88.6806 75.2397 89.1505 75.7097 88.9156 75.9447C88.9156 76.4146 88.4456 76.8846 88.6806 77.8169C89.3855 80.8489 96.6547 80.1591 96.6547 80.1591C96.8881 80.1868 97.1248 80.165 97.3492 80.0953C97.5737 80.0255 97.7809 79.9092 97.9575 79.7541C98.1341 79.599 98.2761 79.4084 98.3742 79.1948C98.4723 78.9812 98.5243 78.7493 98.527 78.5143V77.5744H100.869L100.634 82.2664L99.4593 112.988C93.0943 113.669 87.0384 116.084 81.9524 119.971C76.8663 123.858 72.9455 129.067 70.6175 135.03C66.3955 147.462 79.5316 157.308 73.4297 169.269C73.2136 169.379 73.0328 169.547 72.9081 169.755C72.7834 169.963 72.7199 170.202 72.7248 170.444C72.7651 170.845 72.9585 171.216 73.2648 171.478C73.5711 171.741 73.9668 171.875 74.3696 171.854C74.8396 171.854 75.0746 171.619 75.3095 171.619C78.5615 174.123 81.2069 177.328 83.0487 180.995C84.3855 187.969 83.2235 195.191 79.7666 201.393C77.4313 204.175 74.3324 206.212 70.8525 207.252C70.6618 207.375 70.5141 207.554 70.4299 207.765C70.3457 207.975 70.3291 208.207 70.3826 208.427C70.3826 209.132 71.0875 209.837 71.5575 210.299C74.3696 230.462 51.6222 250.632 70.6175 269.863C75.9237 275.603 82.449 280.08 89.7134 282.966C96.9779 285.852 104.797 287.073 112.595 286.539C120.183 285.848 127.525 283.49 134.096 279.634C140.667 275.778 146.306 270.518 150.609 264.231C161.153 244.531 142.862 229.052 144.499 210.527ZM98.3071 178.873C97.6188 179.604 96.7165 180.097 95.7299 180.283H95.495C94.9334 180.22 94.4056 179.983 93.9856 179.605C93.5655 179.227 93.2743 178.727 93.1528 178.176C91.0455 182.12 90.3044 186.651 91.0455 191.062C91.3476 194.352 91.1894 197.669 90.5756 200.915C89.2411 206.919 86.0349 212.344 81.419 216.409H81.184C80.714 216.409 80.4791 216.644 80.0091 216.644C79.2104 216.627 78.4493 216.301 77.8844 215.737C77.3195 215.172 76.9945 214.411 76.9771 213.612C76.8478 213.307 76.8014 212.973 76.8427 212.644C76.884 212.315 77.0114 212.003 77.2121 211.74C77.3834 211.389 77.6495 211.092 77.9804 210.885C78.3113 210.677 78.6937 210.566 79.0844 210.565H79.7893C80.2984 210.502 80.8151 210.555 81.3015 210.717C81.788 210.88 82.2321 211.149 82.6015 211.505C86.5519 205.814 88.4546 198.952 87.9984 192.039C87.8665 186.599 88.8226 181.187 90.8106 176.121C91.1171 175.457 91.6166 174.901 92.244 174.525C92.8714 174.149 93.5975 173.971 94.3277 174.014C95.2287 174.021 96.108 174.291 96.8579 174.791C97.6079 175.29 98.1958 175.998 98.5497 176.826C98.7183 177.515 98.6322 178.242 98.3071 178.873ZM138.405 213.582C138.388 214.38 138.063 215.141 137.498 215.706C136.933 216.271 136.172 216.596 135.373 216.614C134.967 216.65 134.559 216.569 134.198 216.379H133.933C129.255 212.389 126.051 206.943 124.837 200.915C124.34 197.656 124.183 194.354 124.367 191.062C125.09 186.651 124.35 182.126 122.26 178.176C122.025 179.116 121.79 179.82 119.918 180.283H119.683C119.242 180.31 118.801 180.231 118.397 180.052C117.993 179.873 117.639 179.6 117.363 179.255C117.087 178.91 116.898 178.504 116.813 178.07C116.727 177.637 116.747 177.19 116.87 176.766C117.222 175.946 117.804 175.244 118.545 174.747C119.286 174.249 120.155 173.976 121.047 173.961C121.772 173.947 122.486 174.137 123.108 174.51C123.73 174.883 124.234 175.423 124.564 176.068C126.441 181.165 127.393 186.555 127.376 191.986C126.92 198.899 128.823 205.761 132.773 211.452C133.143 211.096 133.587 210.827 134.073 210.664C134.56 210.501 135.076 210.449 135.585 210.512H136.525C137.192 210.704 137.772 211.118 138.17 211.687C138.374 211.952 138.503 212.267 138.544 212.598C138.585 212.93 138.537 213.267 138.405 213.574V213.582Z" fill="#F5D42C"/>
<path d="M326.926 210.527C330.678 206.54 324.584 208.42 322.939 206.07C319.451 202.53 317.032 198.079 315.959 193.227C314.887 188.374 315.204 183.318 316.875 178.638C318.513 175.75 320.861 173.329 323.697 171.604H324.167C324.57 171.625 324.965 171.491 325.272 171.228C325.578 170.966 325.771 170.595 325.812 170.194C325.797 169.863 325.674 169.546 325.462 169.291C325.25 169.036 324.96 168.858 324.637 168.784C318.778 157.528 333.551 148.151 327.919 135.485C325.32 129.862 321.368 124.971 316.417 121.247C311.467 117.524 305.671 115.085 299.547 114.148L298.137 71.9425H300.714V72.8824C300.757 73.344 300.975 73.7719 301.323 74.0779C301.671 74.3839 302.123 74.5447 302.587 74.5272C302.587 74.5272 309.621 75.2322 310.561 72.185C310.796 71.2451 310.326 70.7751 310.326 70.3128C310.583 69.8051 310.665 69.2271 310.561 68.6679C310.326 65.1508 302.587 65.8557 302.587 65.8557C302.335 65.8338 302.082 65.8671 301.845 65.9534C301.608 66.0397 301.393 66.1769 301.214 66.3554C301.036 66.5338 300.898 66.7492 300.812 66.9863C300.726 67.2234 300.692 67.4766 300.714 67.728V68.9029H298.137V68.4329L297.902 60.9288H300.714V61.8687C300.757 62.3303 300.975 62.7582 301.323 63.0642C301.671 63.3702 302.123 63.531 302.587 63.5135C302.587 63.5135 309.621 64.2185 310.561 61.1713C310.796 60.2314 310.326 59.7615 310.326 59.2991C310.583 58.7914 310.665 58.2134 310.561 57.6542C310.326 54.1371 302.587 54.8421 302.587 54.8421C302.335 54.8201 302.082 54.8534 301.845 54.9397C301.608 55.026 301.393 55.1632 301.214 55.3417C301.036 55.5201 300.898 55.7355 300.812 55.9726C300.726 56.2098 300.692 56.4629 300.714 56.7143V57.8892H297.902V57.1843L297.667 50.1501V49.9151H300.949V50.855C300.992 51.318 301.211 51.747 301.561 52.0532C301.91 52.3594 302.365 52.5193 302.829 52.4999C302.829 52.4999 309.863 53.2048 310.803 50.1576C311.038 49.2177 310.568 48.7478 310.568 48.2854C310.825 47.7777 310.908 47.1998 310.803 46.6405C310.568 43.1234 302.829 43.8284 302.829 43.8284C302.577 43.8052 302.323 43.8377 302.085 43.9235C301.847 44.0092 301.631 44.1463 301.451 44.3248C301.272 44.5034 301.134 44.7192 301.048 44.9569C300.961 45.1947 300.927 45.4485 300.949 45.7006V46.8755H297.41L297.175 38.9014H300.927V39.7958C300.969 40.2589 301.188 40.6879 301.538 40.994C301.888 41.3002 302.342 41.4601 302.807 41.4407C302.807 41.4407 309.841 42.1456 310.781 39.0985C311.016 38.1586 310.546 37.6886 310.546 37.2262C310.802 36.7186 310.885 36.1406 310.781 35.5814C310.546 32.0643 302.807 32.7692 302.807 32.7692C302.555 32.746 302.301 32.7785 302.062 32.8643C301.824 32.9501 301.608 33.0871 301.429 33.2657C301.249 33.4443 301.112 33.66 301.025 33.8978C300.938 34.1355 300.905 34.3894 300.927 34.6415V35.8164H297.175V35.5965V34.8916C297.386 34.0736 297.702 33.2864 298.115 32.5494C299.111 31.928 299.934 31.0651 300.507 30.0409C301.081 29.0166 301.387 27.8641 301.397 26.6901C301.307 25.2027 300.797 23.7714 299.924 22.5634C299.052 21.3555 297.854 20.4206 296.47 19.8681C296.335 19.603 296.286 19.3029 296.328 19.0086C296.37 18.7144 296.501 18.4402 296.705 18.2233C297.158 18.204 297.59 18.0303 297.931 17.7311C298.271 17.4319 298.499 17.0251 298.577 16.5784C298.608 16.5795 298.639 16.5741 298.668 16.5627C298.697 16.5513 298.723 16.534 298.745 16.5119C298.767 16.4899 298.785 16.4636 298.796 16.4346C298.808 16.4056 298.813 16.3746 298.812 16.3434L298.577 16.1085C298.578 15.8315 298.524 15.557 298.419 15.3009C298.313 15.0448 298.158 14.8121 297.962 14.6162C297.766 14.4203 297.533 14.2651 297.277 14.1596C297.021 14.0541 296.747 14.0002 296.47 14.0012H284.744C284.184 14.0012 283.647 14.2236 283.251 14.6195C282.855 15.0154 282.632 15.5524 282.632 16.1123C282.632 16.6721 282.855 17.2091 283.251 17.605C283.647 18.0009 284.184 18.2233 284.744 18.2233H284.978C285.301 18.7935 285.464 19.4405 285.448 20.0955C284.317 20.6088 283.346 21.418 282.636 22.4377C282.401 22.9077 282.166 23.1427 281.931 23.6126C281.842 23.7052 281.775 23.8166 281.734 23.9385C281.694 24.0605 281.681 24.19 281.696 24.3176C281.696 24.5525 281.461 24.7875 281.461 25.0225C281.461 25.2575 281.226 25.4925 281.226 25.7274C281.226 26.1974 280.991 26.4324 280.991 26.9023C280.968 28.2141 281.292 29.5088 281.931 30.6544C282.166 31.3593 282.401 31.5943 282.636 31.5943L283.576 32.5342C284.36 33.2784 284.859 34.2732 284.986 35.3464L284.751 40.9707V41.2057H280.999V40.0536C280.965 39.5681 280.757 39.1112 280.413 38.767C280.069 38.423 279.612 38.2149 279.127 38.1813C279.127 38.1813 271.388 37.7114 271.153 40.9935C271.153 41.9334 271.623 42.4033 271.388 42.6383C271.388 43.1083 270.918 43.5782 271.153 44.5106C271.858 47.5426 279.127 46.8528 279.127 46.8528C279.36 46.8805 279.597 46.8587 279.821 46.7889C280.046 46.7191 280.253 46.6029 280.43 46.4477C280.606 46.2926 280.748 46.102 280.846 45.8884C280.944 45.6748 280.996 45.443 280.999 45.2079V44.268H284.751L284.516 52.2421H280.999V51.0672C280.965 50.5818 280.757 50.1248 280.413 49.7807C280.069 49.4366 279.612 49.2286 279.127 49.195C279.127 49.195 271.388 48.725 271.153 52.0072C271.153 52.9471 271.623 53.417 271.388 53.652C271.388 54.122 270.918 54.5919 271.153 55.5243C271.858 58.5562 279.127 57.8665 279.127 57.8665C279.36 57.8941 279.597 57.8724 279.821 57.8026C280.046 57.7328 280.253 57.6166 280.43 57.4614C280.606 57.3063 280.748 57.1157 280.846 56.9021C280.944 56.6885 280.996 56.4567 280.999 56.2216V55.2817H284.281L284.046 63.2558H281.014V62.0809C280.981 61.5955 280.773 61.1385 280.428 60.7944C280.084 60.4503 279.627 60.2423 279.142 60.2087C279.142 60.2087 271.403 59.7387 271.168 63.0208C271.168 63.9608 271.638 64.4307 271.403 64.6657C271.403 65.1357 270.933 65.6056 271.168 66.5379C271.873 69.5699 279.142 68.8801 279.142 68.8801C279.375 68.9078 279.612 68.8861 279.836 68.8163C280.061 68.7465 280.268 68.6302 280.445 68.4751C280.621 68.32 280.763 68.1294 280.861 67.9158C280.959 67.7022 281.012 67.4703 281.014 67.2353V66.3257H283.826L283.591 74.5348H281.014V73.3599C280.981 72.8744 280.773 72.4175 280.428 72.0734C280.084 71.7293 279.627 71.5213 279.142 71.4877C279.142 71.4877 271.403 71.0177 271.168 74.2998C271.168 75.2397 271.638 75.7097 271.403 75.9447C271.403 76.4146 270.933 76.8846 271.168 77.8169C271.873 80.8489 279.142 80.1591 279.142 80.1591C279.375 80.1868 279.612 80.165 279.836 80.0953C280.061 80.0255 280.268 79.9092 280.445 79.7541C280.621 79.599 280.763 79.4084 280.861 79.1948C280.959 78.9812 281.012 78.7493 281.014 78.5143V77.5744H283.591L283.356 82.2664L282.181 112.988C275.816 113.669 269.761 116.084 264.675 119.971C259.588 123.858 255.668 129.067 253.34 135.03C249.118 147.462 262.254 157.308 256.152 169.269C255.936 169.379 255.755 169.547 255.63 169.755C255.506 169.963 255.442 170.202 255.447 170.444C255.487 170.845 255.681 171.216 255.987 171.478C256.293 171.741 256.689 171.875 257.092 171.854C257.562 171.854 257.797 171.619 258.032 171.619C261.284 174.123 263.929 177.328 265.771 180.995C267.108 187.969 265.946 195.191 262.489 201.393C260.153 204.175 257.055 206.212 253.575 207.252C253.378 207.384 253.213 207.558 253.091 207.761C252.97 207.964 252.894 208.192 252.87 208.427C252.87 209.132 253.575 209.837 254.045 210.299C256.857 230.462 234.109 250.632 253.105 269.863C258.411 275.603 264.936 280.08 272.201 282.966C279.465 285.852 287.284 287.073 295.083 286.539C302.664 285.848 309.999 283.494 316.566 279.643C323.133 275.792 328.769 270.54 333.073 264.261C343.572 244.531 325.281 229.295 326.926 210.527ZM280.734 179.108C280.045 179.839 279.143 180.332 278.156 180.518H277.922C277.36 180.455 276.832 180.218 276.412 179.84C275.992 179.462 275.701 178.962 275.579 178.411C273.472 182.355 272.731 186.886 273.472 191.297C273.774 194.587 273.616 197.904 273.002 201.15C271.669 207.147 268.468 212.566 263.861 216.629H263.626C263.156 216.629 262.921 216.864 262.451 216.864C261.652 216.846 260.891 216.521 260.326 215.956C259.761 215.392 259.436 214.63 259.419 213.832C259.29 213.527 259.243 213.193 259.284 212.864C259.326 212.535 259.453 212.223 259.654 211.96C259.825 211.608 260.091 211.312 260.422 211.105C260.753 210.897 261.135 210.786 261.526 210.785H262.231C262.74 210.722 263.257 210.774 263.743 210.937C264.23 211.1 264.674 211.369 265.043 211.725C268.994 206.034 270.896 199.171 270.44 192.259C270.308 186.819 271.264 181.407 273.252 176.341C273.559 175.677 274.058 175.121 274.686 174.745C275.313 174.369 276.039 174.191 276.769 174.234C277.67 174.241 278.55 174.511 279.3 175.011C280.05 175.51 280.638 176.218 280.991 177.046C281.159 177.742 281.068 178.475 280.734 179.108ZM320.832 213.817C320.814 214.615 320.489 215.376 319.924 215.941C319.36 216.506 318.598 216.831 317.8 216.849C317.394 216.885 316.986 216.804 316.625 216.614H316.36C311.661 212.627 308.441 207.175 307.218 201.135C306.721 197.876 306.564 194.573 306.748 191.281C307.472 186.871 306.731 182.345 304.641 178.395C304.406 179.335 304.171 180.04 302.299 180.503H302.064C301.623 180.53 301.182 180.451 300.778 180.272C300.374 180.093 300.02 179.82 299.744 179.475C299.468 179.13 299.279 178.724 299.194 178.29C299.108 177.857 299.128 177.41 299.252 176.986C299.605 176.157 300.193 175.45 300.943 174.95C301.693 174.451 302.573 174.181 303.474 174.173C304.198 174.16 304.913 174.35 305.534 174.722C306.156 175.095 306.661 175.635 306.991 176.281C308.867 181.377 309.819 186.768 309.803 192.199C309.347 199.111 311.249 205.973 315.2 211.664C315.569 211.308 316.013 211.039 316.5 210.876C316.986 210.714 317.503 210.662 318.012 210.724H318.952C319.618 210.916 320.199 211.331 320.597 211.899C320.816 212.161 320.954 212.48 320.996 212.819C321.037 213.158 320.98 213.502 320.832 213.809V213.817Z" fill="#F5D42C"/>
<path d="M235.944 359.427C239.696 355.44 233.602 357.32 231.957 354.97C228.469 351.431 226.05 346.979 224.977 342.127C223.904 337.275 224.222 332.219 225.893 327.538C227.53 324.651 229.879 322.23 232.715 320.504H233.185C233.588 320.526 233.983 320.391 234.289 320.129C234.596 319.866 234.789 319.496 234.829 319.094C234.815 318.763 234.692 318.446 234.48 318.191C234.267 317.937 233.978 317.759 233.655 317.685C227.795 306.428 242.569 297.052 236.937 284.386C234.338 278.763 230.386 273.871 225.435 270.148C220.484 266.424 214.688 263.985 208.565 263.048L207.155 220.843H209.732V221.783C209.775 222.245 209.992 222.672 210.341 222.978C210.689 223.284 211.141 223.445 211.605 223.428C211.605 223.428 218.639 224.133 219.579 221.086C219.814 220.146 219.344 219.676 219.344 219.213C219.6 218.706 219.683 218.128 219.579 217.568C219.344 214.051 211.605 214.756 211.605 214.756C211.353 214.734 211.1 214.768 210.863 214.854C210.626 214.94 210.41 215.077 210.232 215.256C210.053 215.434 209.916 215.65 209.83 215.887C209.744 216.124 209.71 216.377 209.732 216.628V217.803H207.155V217.333L206.92 209.829H209.732V210.769C209.775 211.231 209.992 211.659 210.341 211.965C210.689 212.271 211.141 212.431 211.605 212.414C211.605 212.414 218.639 213.119 219.579 210.072C219.814 209.132 219.344 208.662 219.344 208.2C219.6 207.692 219.683 207.114 219.579 206.555C219.344 203.038 211.605 203.743 211.605 203.743C211.353 203.721 211.1 203.754 210.863 203.84C210.626 203.927 210.41 204.064 210.232 204.242C210.053 204.421 209.916 204.636 209.83 204.873C209.744 205.11 209.71 205.363 209.732 205.615V206.79H206.7V206.085L206.465 199.051V198.816H209.747V199.756C209.79 200.217 210.007 200.645 210.356 200.951C210.704 201.257 211.156 201.418 211.62 201.4C211.62 201.4 218.654 202.105 219.594 199.058C219.829 198.118 219.359 197.648 219.359 197.186C219.615 196.678 219.698 196.1 219.594 195.541C219.359 192.024 211.62 192.729 211.62 192.729C211.368 192.707 211.115 192.74 210.878 192.827C210.641 192.913 210.425 193.05 210.247 193.229C210.069 193.407 209.931 193.622 209.845 193.859C209.759 194.097 209.725 194.35 209.747 194.601V195.776H206.465L206.192 187.779H209.944V188.696C209.987 189.158 210.205 189.586 210.553 189.892C210.901 190.198 211.353 190.359 211.817 190.341C211.817 190.341 218.851 191.046 219.791 187.999C220.026 187.059 219.556 186.589 219.556 186.127C219.813 185.619 219.895 185.041 219.791 184.482C219.556 180.965 211.817 181.67 211.817 181.67C211.565 181.648 211.312 181.681 211.075 181.767C210.838 181.854 210.623 181.991 210.444 182.169C210.266 182.348 210.128 182.563 210.042 182.8C209.956 183.037 209.922 183.291 209.944 183.542V184.717H206.192V184.482V183.777C206.403 182.959 206.719 182.172 207.132 181.435C208.128 180.813 208.951 179.95 209.525 178.926C210.099 177.902 210.405 176.749 210.414 175.575C210.325 174.088 209.814 172.657 208.942 171.449C208.069 170.241 206.871 169.306 205.487 168.753C205.353 168.488 205.303 168.188 205.346 167.894C205.388 167.6 205.519 167.326 205.722 167.109C206.175 167.089 206.608 166.916 206.949 166.616C207.289 166.317 207.517 165.91 207.595 165.464C207.626 165.465 207.657 165.459 207.686 165.448C207.715 165.437 207.741 165.419 207.763 165.397C207.785 165.375 207.803 165.349 207.814 165.32C207.825 165.291 207.831 165.26 207.83 165.229L207.595 164.994C207.591 164.715 207.532 164.441 207.42 164.185C207.309 163.93 207.149 163.7 206.948 163.507C206.747 163.314 206.509 163.164 206.25 163.064C205.99 162.964 205.713 162.916 205.434 162.924H193.739C193.179 162.924 192.642 163.147 192.246 163.543C191.85 163.939 191.627 164.476 191.627 165.036C191.627 165.595 191.85 166.132 192.246 166.528C192.642 166.924 193.179 167.146 193.739 167.146H193.973C194.296 167.717 194.459 168.364 194.443 169.019C193.312 169.532 192.34 170.341 191.631 171.361C191.396 171.831 191.161 172.066 190.926 172.536C190.837 172.628 190.77 172.74 190.729 172.862C190.689 172.984 190.676 173.113 190.691 173.241C190.691 173.476 190.456 173.711 190.456 173.946C190.456 174.181 190.221 174.416 190.221 174.651C190.221 175.121 189.986 175.356 189.986 175.826C189.963 177.137 190.287 178.432 190.926 179.578C191.161 180.283 191.396 180.518 191.631 180.518L192.571 181.457C193.355 182.202 193.854 183.196 193.981 184.27L193.746 189.894V190.129H189.994V188.954C189.96 188.469 189.752 188.012 189.408 187.668C189.064 187.323 188.607 187.115 188.122 187.082C188.122 187.082 180.383 186.612 180.148 189.894C180.148 190.834 180.618 191.304 180.383 191.539C180.383 192.009 179.913 192.479 180.148 193.411C180.853 196.443 188.122 195.753 188.122 195.753C188.355 195.781 188.592 195.759 188.816 195.689C189.041 195.62 189.248 195.503 189.425 195.348C189.601 195.193 189.743 195.003 189.841 194.789C189.939 194.575 189.991 194.343 189.994 194.108V193.168H193.746L193.511 201.143H189.994V199.968C189.96 199.482 189.752 199.025 189.408 198.681C189.064 198.337 188.607 198.129 188.122 198.095C188.122 198.095 180.383 197.626 180.148 200.908C180.148 201.848 180.618 202.318 180.383 202.553C180.383 203.022 179.913 203.492 180.148 204.425C180.853 207.457 188.122 206.767 188.122 206.767C188.355 206.795 188.592 206.773 188.816 206.703C189.041 206.633 189.248 206.517 189.425 206.362C189.601 206.207 189.743 206.016 189.841 205.803C189.939 205.589 189.991 205.357 189.994 205.122V204.182H193.276L193.034 212.194H190.002V211.019C189.968 210.534 189.76 210.077 189.416 209.733C189.072 209.389 188.615 209.181 188.129 209.147C188.129 209.147 180.39 208.677 180.155 211.959C180.155 212.899 180.625 213.369 180.39 213.604C180.39 214.074 179.92 214.544 180.155 215.476C180.86 218.508 188.129 217.819 188.129 217.819C188.363 217.846 188.599 217.824 188.824 217.755C189.048 217.685 189.256 217.569 189.432 217.414C189.609 217.258 189.751 217.068 189.849 216.854C189.947 216.641 189.999 216.409 190.002 216.174V215.226H192.814L192.548 223.42H189.971V222.245C189.938 221.76 189.73 221.303 189.386 220.959C189.041 220.615 188.584 220.407 188.099 220.373C188.099 220.373 180.36 219.903 180.125 223.185C180.125 224.125 180.595 224.595 180.36 224.83C180.36 225.3 179.89 225.77 180.125 226.702C180.83 229.734 188.099 229.044 188.099 229.044C188.332 229.072 188.569 229.05 188.794 228.981C189.018 228.911 189.225 228.795 189.402 228.639C189.578 228.484 189.72 228.294 189.818 228.08C189.917 227.867 189.969 227.635 189.971 227.4V226.46H192.313L192.078 231.152L190.904 261.873C184.539 262.554 178.483 264.97 173.397 268.857C168.311 272.744 164.39 277.953 162.062 283.916C157.84 296.347 170.976 306.193 164.874 318.155C164.658 318.264 164.477 318.433 164.352 318.64C164.228 318.848 164.164 319.087 164.169 319.329C164.209 319.731 164.403 320.101 164.709 320.364C165.015 320.626 165.411 320.761 165.814 320.739C166.284 320.739 166.519 320.739 166.754 320.504C170.006 323.008 172.651 326.213 174.493 329.881C175.83 336.854 174.668 344.076 171.211 350.278C168.876 353.06 165.777 355.097 162.297 356.138C162.1 356.27 161.935 356.444 161.814 356.647C161.692 356.85 161.616 357.077 161.592 357.313C161.592 358.018 162.297 358.722 162.767 359.185C165.579 379.347 142.832 399.518 161.827 418.748C167.133 424.488 173.658 428.965 180.923 431.851C188.187 434.737 196.006 435.958 203.805 435.424C211.386 434.734 218.721 432.379 225.288 428.528C231.855 424.678 237.491 419.426 241.795 413.147C252.589 393.431 234.299 377.953 235.944 359.427ZM189.751 327.773C189.063 328.504 188.161 328.998 187.174 329.183H186.939C186.378 329.121 185.85 328.884 185.43 328.506C185.01 328.128 184.719 327.628 184.597 327.076C182.49 331.02 181.749 335.552 182.49 339.962C182.792 343.253 182.634 346.569 182.02 349.816C180.679 355.823 177.465 361.248 172.841 365.309H172.606C172.136 365.309 171.901 365.544 171.431 365.544C170.632 365.527 169.871 365.202 169.306 364.637C168.741 364.072 168.416 363.311 168.399 362.512C168.269 362.207 168.223 361.873 168.264 361.545C168.306 361.216 168.433 360.904 168.634 360.64C168.805 360.289 169.071 359.993 169.402 359.785C169.733 359.578 170.115 359.467 170.506 359.465H171.211C171.72 359.403 172.237 359.455 172.723 359.618C173.21 359.78 173.654 360.049 174.023 360.405C177.973 354.715 179.876 347.852 179.42 340.94C179.288 335.5 180.244 330.088 182.232 325.022C182.529 324.352 183.022 323.787 183.645 323.401C184.269 323.016 184.994 322.828 185.727 322.862C186.628 322.869 187.507 323.139 188.257 323.638C189.007 324.138 189.595 324.845 189.949 325.674C190.145 326.374 190.074 327.122 189.751 327.773ZM229.849 362.475C229.832 363.273 229.507 364.034 228.942 364.599C228.377 365.164 227.616 365.489 226.817 365.506C226.411 365.543 226.003 365.461 225.643 365.271H225.408C220.709 361.284 217.489 355.833 216.266 349.793C215.769 346.534 215.612 343.231 215.796 339.939C216.52 335.529 215.779 331.003 213.689 327.053C213.454 327.993 213.219 328.698 211.347 329.161H211.112C210.67 329.19 210.229 329.112 209.824 328.934C209.419 328.755 209.064 328.482 208.788 328.136C208.511 327.791 208.323 327.384 208.238 326.95C208.153 326.516 208.174 326.068 208.3 325.643C208.654 324.815 209.241 324.107 209.991 323.608C210.741 323.108 211.621 322.839 212.522 322.831C213.246 322.817 213.961 323.008 214.583 323.38C215.205 323.753 215.709 324.293 216.039 324.939C217.915 330.035 218.867 335.425 218.851 340.856C218.395 347.769 220.297 354.631 224.248 360.322C224.617 359.966 225.061 359.697 225.548 359.534C226.034 359.372 226.551 359.32 227.06 359.382H228C228.666 359.574 229.247 359.989 229.645 360.557C229.849 360.828 229.976 361.15 230.012 361.487C230.048 361.825 229.992 362.166 229.849 362.475Z" fill="#F5D42C"/>
</g>
<defs>
<clipPath id="clip0">
<rect y="0.19043" width="400" height="489.62" fill="white"/>
</clipPath>
</defs>
</svg>
