<svg width="400" height="522" viewBox="0 0 400 522" fill="none" xmlns="http://www.w3.org/2000/svg">
<g clip-path="url(#clip0)">
<path d="M200.291 521.568C278.105 465.113 331.439 393.812 363.352 303.623C392.291 221.852 403.902 122.753 398.856 0.672055L398.835 0.19043H1.16126L1.14031 0.672055C-3.89578 122.753 7.71551 221.841 36.6443 303.623C68.557 393.812 121.891 465.113 199.705 521.568L199.998 521.777L200.291 521.568Z" fill="#32AC60"/>
<path d="M149.138 401.44C151.932 398.042 150.98 393.05 159.466 384.495C165.796 378.113 156.605 364.76 157.96 350.371C159.274 336.422 155.845 312.069 152.728 302.218C149.628 292.421 152.874 278.01 150.126 267.59C150.126 267.59 156.332 270.235 157.314 272.879C158.934 277.24 164.086 293.39 164.186 301.603C164.239 305.88 163.365 311.958 164.632 319.168C167.111 333.272 172.926 349.893 170.372 372.408C170.33 388.37 165.434 383.668 159.849 394.152C159.239 395.296 158.28 399.893 158 400.816C157.168 403.559 163.014 404.541 165.982 404.92C170.774 405.534 180.095 403.911 180.126 401.752C180.313 388.968 185.732 386.386 184.79 381.78C179.681 356.809 187.258 312.708 182.467 301.622C184.939 286.952 187.17 281.994 186.727 264.095C189.462 256.569 205.671 264.132 233.555 262.508C233.295 269.837 234.904 275.453 234.904 275.453C238.727 285.945 238.866 292.446 239.55 298.521C240.92 310.675 239.018 317.477 239.581 323.189C242.802 355.853 221.937 378.649 213.347 385.107C211.216 386.71 205.061 392.438 203.957 398.508C203.791 399.42 203.525 402.016 204.059 402.706C204.059 402.706 207.852 404.104 209.839 404.198C216.448 404.509 226.399 403.153 229.438 401.064C232.217 399.154 230.663 392.589 237.89 387.906C246.87 382.088 240.904 373.375 246.261 356.991C251.861 339.867 260.308 327.077 261.923 318.352C264.237 305.855 258.278 304.118 259.331 278.466C259.498 274.405 261.936 262.856 260.669 259.428C263.293 259.268 267.071 258.266 268.329 258.042C275.684 270.973 290.811 287.185 290.807 308.838C290.799 331.08 287.844 342.157 281.205 368.934C279.901 376.46 271.72 383.172 265.537 387.906C261.567 390.945 256.342 398.799 255.694 401.586C255.043 404.389 259.799 405.332 263.005 405.302C268.604 405.251 278.214 405.058 278.967 402.097C284.585 380.011 300.219 387.484 299.224 376.139C297.426 355.633 301.178 336.753 312.045 317.365C318.583 305.701 313.981 294.379 312.435 289.955C310.678 284.928 303.741 273.179 307.909 264.508C316.848 245.908 327.709 215.125 333.79 214.455C352.742 212.367 355.258 199.24 355.634 197.245C356.145 194.531 348.019 195.357 339.61 190.964C334.863 188.484 334.242 185.786 325.949 178.711C309.52 164.696 297.679 162.473 277.156 164.086C273.034 164.411 259.551 171.96 221.656 170.635C207.064 170.124 194.913 167.97 185.736 165.383C171.888 161.478 167.085 155.514 145.308 153.986C136.877 153.395 125.991 127.832 114.018 114.123C121.083 117.377 128.531 117.185 133.124 115.115C141.864 111.176 143.429 109.491 136.978 106.68C131.602 104.339 127.465 103.203 113.273 106.6C113.251 103.998 128.483 89.5303 162.755 111.002C170.052 115.573 225.199 139.466 247.784 134.105C264.762 130.075 298.114 107.956 298.072 91.2789C297.931 86.8689 295.25 85.6261 293.491 90.1837C290.916 96.8573 284.48 107.195 276.013 109.446C273.814 110.031 271.329 106.755 270.55 102.684C269.597 97.7088 266.753 93.8169 262.104 92.2703C259.902 91.5378 259.064 92.6331 261.708 95.0406C264.117 97.2337 264.63 100.626 264.133 106.129C263.871 109.032 266.336 111.732 265.285 113.922C263.114 118.443 251.083 128.774 243.145 125.534C231.073 120.607 245.515 106.646 242.059 97.8653C238.208 91.4376 233.818 88.4617 235.002 93.9619C237.559 105.842 233.836 106.594 231.64 114.456C230.675 117.906 228.946 126.419 221.793 123.979C212.822 120.918 192.347 117.146 191.062 111.993C189.177 104.43 212.182 104.165 216.275 92.2307C217.219 89.4807 215.408 88.1474 212.634 91.3562C209.762 94.6787 199.018 96.7767 194.949 96.931C183.505 97.3646 181.201 109.583 176.507 107.516C153.46 97.3655 148.834 93.1295 136.181 92.0963C148.692 89.6886 154.021 83.2602 165.427 81.2433C176.091 79.3577 186.607 81.1756 190.237 81.1601C213.505 81.0603 236.772 81.1152 257.972 72.1655C281.754 62.1259 285.749 60.8419 289.407 54.3714C294.149 45.9833 300.773 38.6648 301.049 31.9709C301.276 26.4496 298.63 24.466 297.378 29.7751C296.589 35.0569 287.761 40.7294 284.568 45.7946C277.785 56.557 270.209 56.2922 269.196 53.5622C266.485 46.2612 277.921 35.7273 278.464 26.9408C278.671 23.5951 276.022 25.0537 274.77 26.9814C271.617 31.8322 269.259 34.175 265.142 39.8003C261.98 44.1202 260.989 52.7823 257.957 59.5607C253.988 68.4361 215.403 73.1995 213.368 70.2229C210.531 64.2478 214.522 56.9517 217.377 48.8959C218.802 44.877 219.643 38.9504 218.366 35.3489C217.482 32.854 215.334 31.3141 215.22 32.5281C213.969 45.8653 204.579 50.9773 203.38 64.3388C203.133 67.0868 201.417 72.3856 192.386 72.0684C185.825 71.8378 168.802 72.9484 168.639 71.465C167.435 60.5434 183.709 51.0574 180.994 39.1427C180.337 36.2581 178.767 33.0541 178.015 36.4187C175.41 48.0696 165.527 52.2364 158.383 59.5445C154.132 63.8928 157.964 73.8236 145.387 76.3348C130.368 79.3334 118.05 92.7889 109.965 88.9031C100.127 84.1754 85.6534 63.9279 91.5978 43.3531C92.3156 40.8688 92.1808 36.4031 88.9933 39.9496C80.1618 49.7759 79.0786 68.4315 86.5927 82.0072C86.5927 82.0072 70.8204 65.5913 71.8643 46.9533C71.9731 45.0105 69.7739 45.3729 69.3622 45.9338C56.974 62.8115 85.513 96.6096 90.1364 98.8398C78.6475 98.3552 66.0911 100.415 62.4594 99.9028C52.2502 98.4624 48.0929 95.1367 43.441 97.5554C39.6646 99.5189 34.5226 104.007 35.9514 109.613C36.4463 111.554 40.2265 111.916 39.6981 113.493C39.2828 114.732 37.4143 115.677 36.4868 116.893C34.497 119.5 35.5627 123.131 37.8714 125.935C41.0087 129.745 44.6385 130.024 50.3444 131.729C55.6471 133.314 59.4113 140.569 70.9172 142.389C74.3275 144.289 68.4008 160.616 62.2316 171.437C59.4923 176.242 59.2819 186.615 60.1968 188.095C60.878 189.197 67.0673 189.588 67.8084 191.837C68.6208 194.302 65.5855 210.582 67.2004 212.158C68.6722 213.595 72.9734 215.361 73.3656 216.654C73.9475 218.573 76.5241 229.247 79.0102 230.367C80.6812 231.12 88.0868 226.971 88.8534 227.998C96.6612 238.463 109.091 265.587 125.832 265.977C127.128 287.193 128.969 287.882 132.752 294.591C141.918 310.845 135.765 319.355 142.295 337.406C143.713 341.326 147.261 357.584 144.967 371.878C144.141 377.029 136.196 383.987 133.376 388.581C124.864 402.447 127.853 404.129 133.94 404.542C138.033 404.82 146.679 404.431 149.138 401.44Z" fill="white" stroke="#32AC60" stroke-linecap="round" stroke-linejoin="round"/>
<path d="M87.3348 109.856C84.7093 113.656 77.7579 111.702 76.1448 107.891C74.6661 104.397 90.4193 105.391 87.3348 109.856Z" fill="#32AC60"/>
<path d="M86.5927 82.0071C90.3065 88.8558 94.2145 92.5422 98.7178 97.0225" stroke="#32AC60" stroke-linecap="round"/>
<path d="M133.94 404.542C134.84 400.72 136.069 398.505 138.252 395.539" stroke="#32AC60" stroke-linecap="round"/>
<path d="M165.982 404.92C165.777 401.785 166.201 399.39 167.541 396.141" stroke="#32AC60" stroke-linecap="round"/>
<path d="M209.839 404.198C210.493 401.18 211.579 397.785 213.435 394.803" stroke="#32AC60" stroke-linecap="round"/>
<path d="M263.809 405.784C264.711 402.546 266.428 398.533 268.246 396.141" stroke="#32AC60" stroke-linecap="round"/>
<path d="M233.555 262.508L241.829 261.761" stroke="#32AC60" stroke-linecap="round"/>
<path d="M260.669 259.428C258.875 259.679 257.031 259.829 255.13 259.865" stroke="#32AC60" stroke-linecap="round"/>
</g>
<defs>
<clipPath id="clip0">
<rect y="0.19043" width="400" height="521.59" fill="white"/>
</clipPath>
</defs>
</svg>
