<svg width="400" height="522" viewBox="0 0 400 522" fill="none" xmlns="http://www.w3.org/2000/svg">
<g clip-path="url(#clip0)">
<path d="M200.291 521.568C278.105 465.113 331.439 393.812 363.352 303.623C392.291 221.852 403.902 122.753 398.856 0.672051L398.835 0.19043H1.16126L1.14031 0.672051C-3.89578 122.753 7.71551 221.841 36.6443 303.623C68.557 393.812 121.891 465.113 199.705 521.568L199.998 521.777L200.291 521.568Z" fill="#FFE000"/>
<path d="M56.8664 176.202C46.1263 181.369 43.2113 194.265 47.5531 206.789C48.4974 209.513 52.924 211.516 56.4743 211.494L174.116 211.396C176.558 211.394 181.157 207.656 181.37 205.318C182.063 197.726 184.576 182.641 171.175 176.104C160.13 128.1 147.822 96.1195 152.156 85.0298C157.695 70.8573 165.438 76.0313 169.214 84.5395C170.633 87.7358 168.732 89.9347 169.877 91.0163C171.548 92.5948 174.244 94.533 171.959 96.5979C169.673 98.6646 168.629 101.301 169.116 103.754C170.138 108.903 172.794 120.055 175.39 125.322C177.459 129.52 194.281 123.523 194.899 120.322C195.625 116.565 193.548 105.982 190.292 98.5586C188.227 93.8516 185.665 93.6782 184.017 93.5588C180.952 93.3368 184.152 87.3335 182.944 86.0783C181.089 84.149 179.342 84.2148 178.176 81.7294C173.317 71.3719 168.814 60.5333 158.822 55.2273C111.482 30.0867 93.9905 75.453 84.7082 94.049C70.8489 121.815 67.5995 155.984 56.8664 176.202V176.202Z" fill="#E00E00"/>
<path d="M222.471 176.202C211.73 181.369 208.815 194.265 213.157 206.789C214.102 209.513 218.528 211.516 222.078 211.494L339.72 211.396C342.162 211.394 346.761 207.656 346.974 205.318C347.667 197.726 350.18 182.641 336.779 176.104C325.734 128.1 313.426 96.1195 317.76 85.0298C323.299 70.8573 331.042 76.0313 334.819 84.5395C336.237 87.7358 334.336 89.9347 335.481 91.0163C337.152 92.5948 339.848 94.533 337.563 96.5979C335.277 98.6646 334.233 101.301 334.72 103.754C335.742 108.903 338.398 120.055 340.994 125.322C343.063 129.52 359.885 123.523 360.503 120.322C361.229 116.565 359.152 105.982 355.896 98.5586C353.831 93.8516 351.27 93.6782 349.621 93.5588C346.556 93.3368 349.756 87.3335 348.548 86.0783C346.693 84.149 344.947 84.2148 343.781 81.7294C338.921 71.3719 334.418 60.5333 324.427 55.2273C277.086 30.0867 259.595 75.453 250.312 94.049C236.453 121.815 233.204 155.984 222.471 176.202V176.202Z" fill="#E00E00"/>
<path d="M140.158 362.678C129.132 367.983 126.139 381.222 130.597 394.08C131.566 396.877 136.111 398.933 139.756 398.911L260.533 398.811C263.04 398.809 267.762 394.971 267.981 392.571C268.692 384.776 271.272 369.289 257.513 362.578C246.174 313.294 233.538 280.461 237.988 269.076C243.674 254.526 251.624 259.838 255.501 268.573C256.957 271.854 255.006 274.112 256.181 275.222C257.896 276.843 260.664 278.833 258.318 280.953C255.971 283.074 254.9 285.781 255.4 288.3C256.449 293.585 259.176 305.035 261.841 310.442C263.965 314.752 281.235 308.596 281.87 305.309C282.615 301.452 280.483 290.587 277.14 282.966C275.02 278.133 272.39 277.955 270.698 277.833C267.551 277.605 270.836 271.441 269.597 270.153C267.691 268.172 265.899 268.239 264.701 265.688C259.712 255.054 255.089 243.927 244.832 238.479C196.229 212.669 178.272 259.244 168.742 278.336C154.513 306.842 151.177 341.921 140.158 362.678L140.158 362.678Z" fill="#E00E00"/>
</g>
<defs>
<clipPath id="clip0">
<rect y="0.19043" width="400" height="521.59" fill="white"/>
</clipPath>
</defs>
</svg>
