<svg width="400" height="522" viewBox="0 0 400 522" fill="none" xmlns="http://www.w3.org/2000/svg">
<g clip-path="url(#clip0)">
<path d="M200.291 521.568C278.105 465.113 331.439 393.812 363.352 303.623C392.291 221.852 403.902 122.753 398.856 0.672055L398.835 0.19043H1.16126L1.14031 0.672055C-3.89578 122.753 7.71551 221.841 36.6443 303.623C68.557 393.812 121.891 465.113 199.705 521.568L199.998 521.777L200.291 521.568Z" fill="#32AC60"/>
<path d="M345.376 208C314.419 147.104 255.795 113.027 245.781 105.089C237.778 98.1271 229.131 89.679 229.327 84.4301C229.563 78.14 225.596 71.541 217.25 61.6851C216.494 60.8209 221.199 54.9743 221.956 54.2182C223.9 51.9497 217.284 44.4691 209.722 33.451C203.889 24.9173 201.452 21.582 198.643 22.5542C195.078 23.8504 189.124 26.659 185.019 28.9274L178.187 23.1754C178.187 23.1754 177.403 23.2227 171.786 27.6515L165.15 34.9566L168.282 43.4902C150.459 58.6132 133.739 72.4447 111.638 92.8289C91.1919 111.688 73.2909 126.028 74.0337 128.712C79.4752 144.429 89.2935 153.803 104.719 167.654C121.052 182.32 138.423 189.678 146.003 190.467C149.448 190.825 152.998 183.384 162.612 169.45C171.685 156.271 182.845 139.055 181.07 135.693C168.601 108.521 169.941 88.5387 182.582 78.0843C184.351 76.6206 186.362 76.896 190.143 76.788C191.547 76.68 196.213 77.8614 198.697 81.7502C239.745 146.779 269.632 124.398 327.546 216.129C330.505 220.816 346.131 210.979 345.376 208Z" fill="white"/>
<path d="M319.723 342.344C289.136 289.778 260.187 278.821 250.139 270.857C242.11 263.871 230.114 255.394 230.311 250.128C230.548 243.817 226.567 237.195 218.193 227.306C217.434 226.439 222.156 220.573 222.914 219.814C224.865 217.538 218.227 210.032 210.64 198.977C204.787 190.414 202.341 187.068 199.523 188.043C195.947 189.344 189.972 192.162 185.853 194.438L178.998 188.667C178.998 188.667 178.212 188.714 172.576 193.158L165.917 200.487L169.06 209.05C151.176 224.224 134.4 238.102 112.225 258.555C91.7098 277.477 73.7484 291.866 74.4937 294.559C79.9536 310.329 89.8049 319.734 105.282 333.632C121.67 348.348 139.1 355.73 146.706 356.522C150.162 356.882 153.724 349.416 163.37 335.434C172.475 322.211 183.672 304.937 181.891 301.564C169.38 274.3 170.724 254.25 183.408 243.761C185.183 242.292 187.201 242.568 190.995 242.46C192.404 242.352 197.085 243.537 199.578 247.439C236.97 300.832 242.301 265.099 301.833 350.501C305.013 355.063 320.48 345.333 319.723 342.344Z" fill="white"/>
</g>
<defs>
<clipPath id="clip0">
<rect y="0.19043" width="400" height="521.59" fill="white"/>
</clipPath>
</defs>
</svg>
