<svg width="400" height="522" viewBox="0 0 400 522" fill="none" xmlns="http://www.w3.org/2000/svg">
<g clip-path="url(#clip0)">
<path d="M200.291 521.568C278.105 465.113 331.439 393.812 363.352 303.623C392.291 221.852 403.902 122.753 398.856 0.672051L398.835 0.19043H1.16126L1.14031 0.672051C-3.89578 122.753 7.71551 221.841 36.6443 303.623C68.557 393.812 121.891 465.113 199.705 521.568L199.998 521.777L200.291 521.568Z" fill="#FFE000"/>
<path d="M81.6776 175.047C90.8075 169.173 102.859 183.423 104.45 184.889C105.801 186.145 113.088 184.742 114.658 186.344C117.684 189.422 120.145 193.526 122.888 198.123C125.84 203.578 127.652 210.781 123.998 214.466C111.308 227.24 106.502 232.098 97.3408 239.909C90.0746 246.107 90.4306 259.435 90.3573 259.729C91.8336 269.047 91.4043 282.417 95.1212 287.694C96.8801 290.196 99.2254 290.605 101.738 291.317C104.46 292.081 103.832 288.71 102.628 288.532C98.0842 287.851 96.1472 282.417 97.4874 280.386C97.8015 279.915 99.5814 279.412 99.6233 280.177C99.8222 283.475 103.288 287.181 105.476 286.49C105.895 286.354 107.172 285.516 106.188 284.553C104.45 282.857 103.152 281.161 102.953 279.465C102.639 276.753 104.471 276.847 105.476 277.999C106.45 279.119 106.356 279.967 110.481 279.789C112.25 279.716 112.7 277.737 111.936 277.35C107.664 275.182 105.832 273.329 107.015 269.874C110.931 256.786 141.189 265.351 163.051 242.474C165.49 239.93 160.402 256.514 158.57 263.676C156.559 271.528 157.6 278.881 149.486 279.468C140.9 280.085 132.786 281.928 129.561 289.278C128.357 292.032 131.017 294.094 133.257 290.859C134.65 288.849 136.189 285.76 139.518 284.828C140.544 284.546 142.743 285.509 141.319 286.367C138.492 288.085 137.1 289.289 136.273 291.487C135.749 292.88 136.629 296.126 139.487 292.534C141.068 290.545 142.22 289.76 144.869 289.09C145.444 288.943 147.748 289.09 146.45 290.409C145.476 291.393 143.717 292.995 143.937 294.147C144.199 295.539 146.01 294.995 146.544 294.492L147.696 293.382C150.198 290.985 149.559 295.278 151.454 295.278H167.903C173.714 295.278 172.803 289.749 175.849 286.629C184.623 277.646 197.592 260.629 202.146 249.761C203.926 245.489 205.339 244.84 211.171 243.762C222.479 241.678 241.053 237.982 241.765 240.945C244.215 251.154 251.146 253.698 249.24 258.441C245.984 266.545 243.838 281.719 238.854 281.876C234.875 281.991 231.389 282.054 227.651 282.954C219.516 284.902 216.364 287.645 215.914 290.932C215.621 293.037 218.532 294.21 218.971 293.006C220.165 289.655 222.573 287.634 226.384 286.703C227.107 286.525 230.028 287.059 227.986 287.969C225.337 289.153 223.327 289.289 222.102 292.555C221.673 293.707 222.542 295.414 223.589 294.272C226.122 291.519 227.243 290.922 229.808 290.241C231.389 289.823 232.499 291.006 230.687 291.32C229.284 291.561 228.572 292.754 227.515 294.251C226.803 295.257 228.436 295.707 229.609 294.984C231.221 294 233.389 291.959 233.441 294.272C233.462 295.309 233.242 295.278 234.341 295.278H254.81C261.208 295.278 274.128 272.408 283.404 261.152C285.812 258.221 280.682 237.867 283.886 240.464C293.644 248.337 297.769 251.174 307.684 257.258C311.317 259.488 308.538 280.536 305.952 280.337C292.697 279.332 283.452 286.954 281.777 290.953C280.416 294.199 284.018 294.115 284.876 292.555C286.708 289.236 288.74 287.781 291.901 286.64C293.242 286.158 294.069 287.341 293.252 287.75C291.231 288.765 289.368 289.121 287.965 291.781C286.75 294.084 289.294 295.56 290.163 293.854C290.907 292.367 291.378 291.864 293.022 291.592C295.849 291.131 292.425 292.859 292.069 293.895C291.357 295.989 293.901 295.288 294.896 295.278H325.772C328.431 295.278 333.943 272.146 338.058 259.823C339.22 256.357 328.027 246.966 331.315 247.311C336.759 247.876 340.183 248.253 337.492 244.139C334.885 240.16 329.2 234.695 332.781 235.365C335.231 235.825 340.644 237.909 338.791 234.15C336.267 229.02 332.111 221.9 334.728 223.753C339.817 227.334 342.183 228.737 343.418 225.46C347.659 214.32 352.569 189.056 348.695 174.513C344.853 160.054 327.818 139.26 313.108 129.816C296.806 119.357 268.715 120.226 248.424 119.901C231.452 119.629 224.384 113.054 216.082 107.714C204.376 100.186 202.68 92.5951 177.646 94.3855C159.449 95.6838 149.052 105.85 136.352 103.055C112.187 97.7464 106.963 108.562 102.785 102.678C100.859 99.966 96.231 94.5635 88.6611 95.7361C83.4261 96.5423 77.9922 102.95 80.683 110.195C82.0127 113.776 63.7948 125.628 58.0991 132.58C54.8324 135.711 58.7273 139.941 56.8008 142.003C49.8277 148.84 42.1322 154.965 34.2064 160.86C37.0124 164.001 40.5722 166.461 43.1478 166.796C45.9015 167.152 48.2991 166.482 50.948 164.922C58.298 160.63 65.5642 158.012 75.1653 161.268C77.7932 162.158 79.0287 165.98 76.3798 167.686L58.7482 179.067C66.0458 183.842 75.0396 179.36 81.6776 175.099L81.6776 175.047Z" fill="black"/>
<path d="M61.8055 137.972C61.9835 139.553 63.9832 140.401 67.5221 139.312C69.4381 138.726 69.3858 133.167 66.1715 133.46C62.4651 133.805 61.4704 135.072 61.8055 137.962V137.972Z" fill="#FFE000"/>
<path d="M72.3278 167.707C64.7265 169.32 61.2819 170.231 56.4762 175.392C48.8644 183.569 38.4572 185.904 33.2012 179.455C53.0734 177.235 51.0631 167.456 61.6065 166.001C64.2868 165.634 67.8152 165.236 72.3383 167.697L72.3278 167.707Z" fill="black"/>
</g>
<defs>
<clipPath id="clip0">
<rect y="0.19043" width="400" height="521.59" fill="white"/>
</clipPath>
</defs>
</svg>
