<svg width="400" height="493" viewBox="0 0 400 493" fill="none" xmlns="http://www.w3.org/2000/svg">
<g clip-path="url(#clip0)">
<path fill-rule="evenodd" clip-rule="evenodd" d="M399.694 0C404.096 196.186 362.098 375.548 200 492.68C37.9016 375.548 -4.09565 196.186 0.305679 0H200H399.694Z" fill="#0085CA"/>
<path fill-rule="evenodd" clip-rule="evenodd" d="M171.385 108.713C171.672 106.915 180.53 105.514 192.295 102.669C206.911 99.1347 224.937 94.7758 237.583 91.8687C242.123 90.825 244.837 95.3765 248.451 97.1556L269.675 107.602C270.234 107.878 271.258 108.379 267.857 110.512C266.478 111.376 267.206 114.296 266.713 117C266.392 118.754 262.894 117.586 263.018 118.243L266.793 138.18L268.029 145.963C271.772 143.99 275.161 144.315 278.648 143.999C281.174 143.77 283.484 146.097 283.594 147.563C283.939 152.164 283.779 155.171 281.745 156.155C278.755 157.603 278.815 159.053 278.888 162.73C278.888 162.73 278.236 181.792 279.542 191.571C280.208 196.558 281.334 202.106 280.397 203.309L279.392 204.603C279.392 204.603 279.857 206.54 280.126 208.257C280.419 210.125 279.922 213.927 279.922 213.927C281.269 220.417 285.174 223.227 289.34 225.605C297.466 230.242 308.407 229.952 315.263 239.209C320.831 246.729 319.597 247.831 323.888 250.261C339.144 258.9 338.058 264.922 345.126 268.153C347.887 269.415 350.411 271.815 351.671 272.081C352.933 272.347 356.938 275.218 357.1 276.583L304.614 271.353L256.828 283.354L199.079 269.753L142.275 283.209L93.4711 270.408L48.377 279.208L42.8463 276.159C43.1922 272.862 44.3926 268.321 47.3213 265.804C55.3144 258.935 59.0499 259.324 63.2144 255.934C69.6766 250.675 68.1938 245.041 70.5443 239.578C73.4957 232.718 78.4256 232.419 83.0168 230.701C92.2204 227.257 94.8572 223.832 101.986 218.152C104.065 216.495 107.402 214.801 109.268 213.721C109.268 213.721 109.177 208.207 109.987 205.715C111.38 201.428 114.194 196.872 115.442 188.768L115.878 175.676C116.033 171.037 115.699 169.441 117.333 166.803C115.323 164.744 113.824 163.792 113.841 162.755C113.904 159.055 114.561 155.632 117.1 151.969C120.714 146.755 124.404 148.524 128.292 146.631C129.025 146.275 129.562 147.091 130.522 147.08C132.063 147.063 132.16 144.929 135.779 144.827C138.303 144.301 141.831 145.167 145.62 145.744C147.767 146.072 150.222 142.217 156.477 141.189C158.514 140.854 160.415 141.54 161.912 141.308C164.434 140.916 165.165 139.435 168.242 139.367C169.495 139.339 171.413 140.404 171.712 138.698L174.559 122.401C174.725 121.453 173.162 120.999 173.174 120.45L173.331 112.797C173.357 111.574 171.034 112.203 171.047 110.836L171.385 108.713Z" fill="black"/>
<path fill-rule="evenodd" clip-rule="evenodd" d="M83.5392 45.3453H108.637L89.2993 62.0085L98.6595 91.632L73.9304 74.4545L49.2012 91.632L58.5614 62.0085L39.2239 45.3453H64.3215L73.9304 22.0991L83.5392 45.3453Z" fill="white"/>
<path fill-rule="evenodd" clip-rule="evenodd" d="M335.678 45.3453H360.776L341.439 62.0085L350.799 91.632L326.07 74.4545L301.341 91.632L310.701 62.0085L291.363 45.3453H316.461L326.07 22.0991L335.678 45.3453Z" fill="white"/>
<path fill-rule="evenodd" clip-rule="evenodd" d="M223.314 214.072C219.886 215.475 214.276 213.238 209.713 214.579C204.703 216.051 200.079 216.038 195.29 216.693C191.952 217.149 193.229 215.081 192.33 215.247C190.218 215.639 187.635 216.64 186.316 216.064L184.564 215.299C183.344 214.766 180.482 217.792 180.81 216.379C181.213 214.64 192.509 212.951 198.604 211.082C201.991 210.043 202.959 208.167 205.136 206.71C208.32 204.579 221.499 205.013 222.108 204.087C222.47 203.536 219.282 203.215 215.225 203.461C212.002 203.657 207.936 204.251 205.444 205.167C199.618 207.309 195.569 209.995 188.37 210.979C178.151 212.375 173.815 212.385 167.695 214.63C163.986 215.991 162.889 215.137 162.604 214.116C162.464 213.617 164.559 213.49 166.43 212.895C168.651 212.189 170.947 211.428 172.427 210.773C176.018 209.182 178.294 207.267 180.141 205.064C178.519 205.501 176.104 206.361 176.49 204.756C176.72 203.795 179.073 204.099 181.17 203.004C183.44 201.818 186.463 198.684 188.524 199.356C192.995 200.812 192.51 197.553 196.29 198.739C199.247 199.666 199.786 198.056 207.039 192.053C209.905 189.68 218.993 186.687 228.948 186.961C233.164 187.077 234.772 187.937 238.359 190.047C239.235 190.562 239.256 192.988 236.611 191.744C233.715 190.383 230.897 188.95 231.262 189.944C232.038 192.056 243.392 195.587 249.777 197.504C251.228 197.94 252.882 199.16 252.554 200.281C252.312 201.108 246.819 199.323 247.72 200.076C252.649 204.195 260.826 201.901 265.103 203.47C262.519 200.825 257.951 201.051 254.817 198.327C253.459 196.651 252.816 193.963 250.497 193.698C248.533 193.474 246.635 193.86 244.84 191.898C242.187 189 239.614 185.118 237.228 184.338C234.894 183.575 232.336 184.33 229.874 184.441C228.249 184.515 227.222 182.267 224.422 182.59C223.897 182.65 222.83 182.846 221.182 183.567C219.796 184.173 218.307 181.868 216.965 182.487C207.154 187.011 199.959 193.96 191.456 196.681C191.456 196.681 186.98 198.59 184.513 198.533C183.611 198.512 181.838 197.504 181.838 197.504C178.401 196.628 175.374 203.402 172.272 205.836C168.582 208.732 167.413 208.793 165.689 210.002C164.331 210.954 161.714 212.338 159.876 211.858C150.173 209.327 150.034 212.821 145.817 212.548C141.909 212.295 138.472 214.009 135.197 213.765L129.237 213.322C126.398 213.11 120.843 217.524 115.364 215.931L110.65 214.593C106.199 213.33 99.0742 220.6 94.5871 224.736C88.6995 227.792 83.1124 230.913 76.8154 232.878C72.9085 235.074 69.6748 238.129 69.4518 243.736C68.7173 246.892 67.9549 250.02 66.4147 252.37C64.2135 255.859 60.3063 257.452 56.9792 259.69L49.7288 263.647C46.2838 265.88 43.87 268.904 43.7471 272.153C45.008 274.758 46.0093 271.918 47.1405 271.79C48.3309 271.655 47.6754 270.192 48.4497 269.971C50.5964 269.361 51.8572 268.416 52.3773 267.062C52.5787 266.538 50.5751 266.844 50.8338 266.044C51.5375 263.868 52.006 264.452 53.2501 263.644C55.4078 262.242 58.4011 263.51 60.0833 262.113C62.5891 260.03 63.4731 260.31 66.2251 258.973C67.9555 258.132 65.708 257.791 65.5206 257.261C65.2217 256.416 67.3445 256.165 68.233 255.716C69.5195 255.066 69.9699 253.878 70.3349 252.773C70.8981 251.067 73.4752 249.191 76.0704 249.175C80.4405 249.149 82.0161 244.048 85.7615 244.442C87.7055 244.647 87.4793 242.827 86.7797 242.624C84.4567 241.949 81.5494 242.818 80.4557 244.224C77.9921 247.392 73.4972 248.472 73.2515 247.316C72.5917 244.213 73.5145 241.129 73.9788 240.515C74.4646 239.872 74.7282 240.162 75.1103 240.13C75.3534 240.11 78.566 236.312 77.0336 236.296C76.3163 236.289 74.6316 237.156 75.0698 236.005C75.863 233.923 82.8366 232.829 86.7335 232.014C90.1241 231.305 87.5498 231.51 90.2709 230.041C92.6743 228.745 94.3265 226.749 97.3613 225.612C103.112 223.458 99.8724 221.407 101.768 220.842L104.09 220.15C105.144 219.836 105.066 217.732 107.556 217.678C112.276 217.576 115.911 220.347 120.018 218.913C124.837 217.232 128.88 216.454 132.892 215.713C134.297 216.502 135.353 217.279 137.765 216.949C141.385 216.456 144.246 215.014 147.366 213.895C147.125 214.734 146.48 216.147 147.366 215.931C149.257 215.471 151.87 214.585 153.913 214.344C156.231 214.069 157.983 213.747 159.076 214.84C159.535 215.3 157.879 217.562 156.429 216.572C155.575 215.989 152.865 221.168 150.768 222.944C147.134 226.022 143.443 227.838 142.566 227.787C141.751 227.739 140.602 227.382 140.238 229.023C139.12 234.064 135.624 239.122 131.767 243.376C127.677 247.889 112.931 250.128 103.641 253.298C103.217 253.443 104.324 254.573 104.324 254.573L94.986 256.986C93.1144 260.206 89.8213 263.208 86.0634 264.811L90.6346 266.408C94.8542 264.735 102.138 263.48 103.29 261.389C100.404 261.207 100.448 260.647 100.939 260.248C102.453 259.02 104.412 259.535 106.627 258.524C109.744 257.101 112.797 254.323 115.134 253.665C118.19 252.806 119.523 253.563 121.46 253.614C125.14 253.711 131.7 247.53 134.472 244.099L139.872 237.414C142.606 234.028 144.548 235.39 149.643 228.259C152.781 223.93 156.593 221.973 160.289 221.573C160.289 221.573 166.806 220.466 171.089 219.362C175.44 218.241 176.666 221.524 181.427 220.339C181.427 220.339 182.464 219.828 182.97 219.979C186.423 221.012 192.231 219.839 193.746 219.755C196.485 219.601 196.972 221.171 198.236 220.402C201.276 218.552 207.006 219.949 212.608 218.015C214.862 217.236 216.712 216.696 219.69 217.253C220.001 217.311 219.798 217.937 218.945 218.217C217.377 218.732 215.96 218.623 215.263 220.063C214.738 221.149 217.937 219.129 223.342 218.59C224.29 218.496 226.095 219.87 226.903 218.838C227.724 217.79 228.397 217.628 229.874 217.459C233.822 217.006 238.992 215.038 244.485 212.603C245.748 212.043 245.917 214.218 245.078 214.527C242.021 215.654 239.354 217.592 236.251 219.928C234.047 221.587 230.781 221.399 229.925 222.19C226.619 225.247 219.108 226.137 220.873 226.511C222.69 226.895 224.559 225.144 225.245 226.277C226.321 228.056 217.359 229.617 212.519 231.32C211.195 231.786 207.913 233.556 207.913 233.556C206.253 234.342 204.974 232.876 204.519 233.556C201.733 237.718 196.892 238.871 196.732 239.717C196.412 241.396 194.709 240.586 194.284 241.785L193.187 244.885C192.72 246.202 189.964 245.983 189.379 246.572C186.02 249.947 184.437 250.851 181.301 256.118C179.019 259.951 175.426 262.355 171.398 265.546C170.408 266.33 173.489 266.177 172.529 266.831C170.445 268.252 168.574 269.239 168.621 269.506C168.9 271.115 174.155 268.469 177.566 267.289C180.367 266.321 183.768 265.237 184.924 261.226C185.625 258.795 186.04 255.247 187.856 254.334C192.686 251.904 194.012 247.281 197.164 244.819C206.558 237.484 224.14 235.191 232.568 238.013C236.065 239.184 240.374 241.188 243.373 240.286C245.748 239.572 247.118 238.975 248.844 237.856C250.758 236.615 257.518 238.663 256.498 237.445C255.785 236.594 253.25 235.531 251.667 236.015C249.589 236.651 248.541 237.143 245.251 236.591C241.593 235.976 240.342 236.871 238.209 236.452C233.662 235.557 224.856 231.538 224.856 231.538C223.964 231.198 223.823 229.427 226.531 229.236C232.298 228.83 230.928 227.121 233.165 226.151C238.827 223.694 242.065 223.849 244.224 222.12L251.834 216.029C253.101 215.015 254.369 215.902 256.411 213.036C256.917 212.327 256.46 211.95 259.456 211.492C263.163 210.924 264.103 211.786 264.788 211.087C265.457 210.404 267.772 209.68 269.817 210.168C273.43 211.032 276.08 213.505 280.204 213.224C280.37 212.125 280.636 209.797 280.235 207.567C280.026 206.4 274.446 204.435 273.156 204.796C270.413 205.563 275.845 205.708 278.475 208.664C278.921 209.167 278.92 209.724 278.15 209.625C277.278 209.513 275.794 208.561 274.151 208.072C271.702 207.343 268.94 207.018 267.667 207.018C260.088 207.013 260.629 208.409 258.569 208.001C257.539 207.797 256.967 206.938 255.261 207.369C253.535 207.805 251.936 208.527 250.085 209.024C247.389 209.439 243.43 207.237 241.997 208.232C238.08 210.951 236.745 211.209 233.223 211.823" fill="white"/>
<path fill-rule="evenodd" clip-rule="evenodd" d="M178.959 114.534C180.824 115.399 180.943 115.24 181.332 113.105C181.651 111.358 181.913 109.546 181.696 107.887C181.545 106.741 178.513 107.731 178.633 108.402C179.282 112.023 177.044 113.646 178.959 114.534Z" fill="white"/>
<path fill-rule="evenodd" clip-rule="evenodd" d="M184.792 107.021C183.309 107.866 183.805 111.508 183.317 113.755C183.161 114.474 185.527 113.447 186.635 113.343C189.552 113.068 189.443 112.843 189.765 111.687C190.437 109.263 190.478 107.97 190.678 105.523C190.763 104.491 186.869 105.836 184.792 107.021Z" fill="white"/>
<path fill-rule="evenodd" clip-rule="evenodd" d="M196.995 104.455C196.829 106.298 196.656 108.071 196.497 109.778C196.427 110.531 198.95 110.551 199.523 108.899C200.16 107.064 200.032 105.229 200.17 103.393C200.218 102.757 197.101 103.276 196.995 104.455Z" fill="white"/>
<path fill-rule="evenodd" clip-rule="evenodd" d="M202.752 102.978C201.646 105.223 202.23 106.604 201.883 108.799C201.637 110.352 206.663 108.084 208.525 107.285C210.287 106.529 210.493 103.545 210.459 101.49C210.437 100.189 207.376 101.394 205.661 101.887C204.667 102.173 203.421 101.618 202.752 102.978Z" fill="white"/>
<path fill-rule="evenodd" clip-rule="evenodd" d="M216.791 99.3409C216.83 102.057 215.385 103.852 216.353 104.978C217.198 105.962 218.718 105.983 219.117 104.469C219.606 102.608 219.477 100.876 219.508 99.0144C219.518 98.3978 216.77 97.8925 216.791 99.3409Z" fill="white"/>
<path fill-rule="evenodd" clip-rule="evenodd" d="M221.726 98.7775C221.862 100.818 220.97 103.137 221.544 104.321C221.963 105.186 226.497 103.323 228.281 101.996C229.866 100.816 228.297 98.5003 228.816 96.561C228.999 95.8762 227.078 96.3244 225.205 96.87C223.552 97.3516 221.621 97.2037 221.726 98.7775Z" fill="white"/>
<path fill-rule="evenodd" clip-rule="evenodd" d="M242.173 101.705C244.067 101.898 243.6 99.0379 244.195 96.8167C244.444 95.8881 241.636 94.3963 241.518 95.9954C241.346 98.3501 240.915 101.576 242.173 101.705Z" fill="white"/>
<path fill-rule="evenodd" clip-rule="evenodd" d="M249.973 100.537C249.214 102.227 249.776 105.606 250.593 105.716C251.996 105.904 251.715 103.01 252.017 101.828C252.418 100.253 250.487 99.3902 249.973 100.537Z" fill="white"/>
<path fill-rule="evenodd" clip-rule="evenodd" d="M254.428 101.959C253.606 102.255 253.544 103.651 253.593 104.832C253.619 105.447 252.551 105.795 252.465 105.163C252.33 104.156 252.089 103.473 252.571 101.755C252.951 100.399 254.86 101.804 254.428 101.959Z" fill="white"/>
<path fill-rule="evenodd" clip-rule="evenodd" d="M244.844 97.7599C244.588 99.5109 244.017 101.643 244.635 102.131C245.152 102.539 246.005 99.8582 246.556 98.4472C246.796 97.8342 244.942 97.0939 244.844 97.7599Z" fill="white"/>
<path fill-rule="evenodd" clip-rule="evenodd" d="M124.288 159.703C125.723 159.609 128.381 159.664 128.512 159.104C128.928 157.338 131.046 151.02 130.522 147.08L128.292 146.631C125.702 147.439 122.301 147.877 120.538 149.064C115.959 153.292 117.924 157.838 117.703 160.734C117.553 162.692 120.46 159.957 124.288 159.703Z" fill="white"/>
<path fill-rule="evenodd" clip-rule="evenodd" d="M149.676 144.348C148.058 145.502 149.261 145.097 148.718 153.587C148.702 153.825 149.049 153.908 149.346 154.385C149.514 154.653 149.083 155.629 149.501 155.457C152.573 154.196 159.002 153.179 159.108 152.14L159.99 143.445C160.135 142.015 158.431 141.29 156.828 141.383C154.107 141.542 151.945 142.729 149.676 144.348Z" fill="white"/>
<path fill-rule="evenodd" clip-rule="evenodd" d="M180.553 138.602C178.436 142.071 179.116 145.438 179.524 148.595C179.822 150.901 182.578 150.713 183.381 149.469C184.496 147.742 189.864 147.571 189.993 146.033C190.235 143.154 190.339 142.141 191.287 139.835C191.761 138.684 189.377 136.577 187.847 136.736C185.495 136.98 181.185 137.565 180.553 138.602Z" fill="white"/>
<path fill-rule="evenodd" clip-rule="evenodd" d="M176.13 129C175.28 129.228 175.887 131.325 174.834 133.107C174.359 133.911 174.761 137.126 175.254 137.302C175.86 137.517 176.96 137.949 177.746 137.559C180.514 136.187 182.594 133.952 185.69 134.799C187.084 135.181 186.979 129.637 187.312 127.075C187.618 124.723 179.772 128.022 176.13 129L176.13 129Z" fill="white"/>
<path fill-rule="evenodd" clip-rule="evenodd" d="M176.85 126.531C176.948 127.666 177.851 126.728 179.829 126.061C181.496 125.498 183.845 125.2 184.204 123.6C184.522 122.182 185.176 119.866 184.29 119.797C180.793 119.525 180.019 121.95 177.661 123.09C176.478 123.662 176.747 125.345 176.85 126.531H176.85Z" fill="white"/>
<path fill-rule="evenodd" clip-rule="evenodd" d="M187.817 119.105C188.323 118.198 192.363 117.886 194.93 116.813C195.838 116.433 195.864 119.125 195.888 121.131C195.901 122.186 191.338 123.552 187.737 124.434C186.618 124.708 186.473 121.51 187.817 119.105H187.817Z" fill="white"/>
<path fill-rule="evenodd" clip-rule="evenodd" d="M192.397 124.884C189.689 125.006 189.26 128.534 189.272 130.416C189.278 131.41 188.88 132.263 188.306 133.505C187.682 134.853 191.983 135.38 194.13 136.2C196.085 136.946 197.562 131.992 200.096 131.931C201.175 131.906 201.601 129.485 201.8 127.748C202.005 125.949 202.275 122.45 201.022 122.52C197.889 122.694 195.408 124.749 192.397 124.884Z" fill="white"/>
<path fill-rule="evenodd" clip-rule="evenodd" d="M201.525 120.455C200.641 120.537 200.976 121.046 199.119 121.646C197.664 122.115 198.432 119.078 198.45 117.583C198.464 116.432 201.751 115.002 203.54 114.656C205.856 114.207 210.83 112.804 210.924 113.243C211.173 114.407 211.278 117.035 210.737 117.317L204.94 120.344C202.248 121.75 201.976 120.412 201.525 120.455Z" fill="white"/>
<path fill-rule="evenodd" clip-rule="evenodd" d="M138.485 154.807C139.665 154.522 142.199 154.584 145.22 154.972C145.669 155.03 145.25 156.134 144.529 156.164C142.977 156.229 140.776 156.992 138.643 156.939C137.893 156.92 137.748 154.985 138.485 154.807Z" fill="white"/>
<path fill-rule="evenodd" clip-rule="evenodd" d="M168.098 149.132C170.886 148.59 171.136 149.11 172.813 149.115C173.809 149.118 174.157 150.807 173.327 150.894C171.348 151.099 167.394 152.084 167.245 150.917C167.158 150.236 167.262 149.295 168.098 149.132V149.132Z" fill="white"/>
<path fill-rule="evenodd" clip-rule="evenodd" d="M201.32 142.953C200.188 142.96 199.368 146.242 201.32 145.15C203.905 143.705 209.899 143.855 208.582 142.989C206.192 142.067 203.846 142.937 201.32 142.953V142.953Z" fill="white"/>
<path fill-rule="evenodd" clip-rule="evenodd" d="M215.288 132.788C214.747 135.561 216.138 138.205 214.211 139.595C212.512 140.819 216.681 142.23 218.602 142.065C221.451 141.82 223.703 140.344 226.253 140.123C228.655 139.914 230.732 140.47 231.415 139.5C232.86 137.446 232.601 134.862 232.466 130.586C232.44 129.778 231.915 128.198 229.359 128.846C228.141 129.154 225.066 129.896 221.712 130.791C218.794 131.57 215.46 131.909 215.288 132.788Z" fill="white"/>
<path fill-rule="evenodd" clip-rule="evenodd" d="M236.288 128.102C236.167 126.425 242.608 129.542 245.79 130.439C246.548 130.652 246.733 136.435 245.884 140.954C245.722 141.815 239.954 141.253 237.125 139.235C235.071 137.769 236.571 132.013 236.288 128.102Z" fill="white"/>
<path fill-rule="evenodd" clip-rule="evenodd" d="M248.932 133.415C248.969 132.326 253.227 132.762 255.743 133.731C256.997 134.214 254.372 135.243 253.12 136.097C252.662 136.41 253.042 142.85 251.988 142.989C251.059 143.111 250.159 144.075 249.28 143.749C248.813 143.576 248.736 143.309 248.57 142.738C248.443 142.3 247.674 142.875 247.281 142.807C246.947 142.75 246.886 142.153 247.72 140.88C248.945 139.011 248.839 136.136 248.932 133.415V133.415Z" fill="white"/>
<path fill-rule="evenodd" clip-rule="evenodd" d="M204.262 123.554C203.762 126.329 203.329 129.105 203.747 131.88C204.029 133.746 207.813 133.628 211.217 132.051C212.781 131.327 215.234 129.9 217.263 129.317C219.69 128.619 221.959 128.676 223.645 128.239C225.614 127.73 226.76 126.761 226.001 126.373C223.856 125.277 225.55 121.835 225.188 119.333C224.861 117.073 224.193 117.429 222.982 117.428C219.201 117.424 219.487 118.988 218.25 120.051C217.672 120.549 216.77 120.498 217.174 123.01L217.688 126.656C217.995 128.838 215.288 128.528 215.216 127.508C215.01 124.577 216.129 118.573 214.599 118.714C212.101 118.944 212.613 120.706 210.981 120.178C209.568 119.72 204.554 121.932 204.262 123.554Z" fill="white"/>
<path fill-rule="evenodd" clip-rule="evenodd" d="M212.575 117.364C212.202 119.262 218.782 116.705 221.139 116.747C222.105 116.765 222.043 115.27 222.198 114.071C222.321 113.124 220.937 110.585 220.395 110.702L213.335 112.221C211.42 112.633 212.907 115.67 212.575 117.364Z" fill="white"/>
<path fill-rule="evenodd" clip-rule="evenodd" d="M222.747 110.729C225.367 108.618 229.059 108.3 232.471 107.785C233.915 107.568 235.115 109.284 234.708 111.462C234.514 112.502 234.908 113.906 231.619 114.487L225.524 115.563C224.14 116.034 224.367 114.584 223.775 113.55C223.054 112.292 222.243 111.135 222.747 110.729Z" fill="white"/>
<path fill-rule="evenodd" clip-rule="evenodd" d="M235.531 107.296C235.304 109.022 236.715 108.039 236.817 108.634L236.739 112.337C236.701 114.169 242.131 114.411 242.165 113.828C242.302 111.514 242.184 110.106 242.011 107.734C241.957 106.988 240.368 106.676 238.669 106.563C237.229 106.467 235.645 106.428 235.531 107.296H235.531Z" fill="white"/>
<path fill-rule="evenodd" clip-rule="evenodd" d="M245.251 109.2C247.822 109.776 251.481 111.358 251.154 112.454C250.935 113.19 250.613 113.308 250.64 113.92C250.666 114.515 251.779 116.715 250.974 116.646C248.748 116.453 246.963 116.889 244.274 114.702C243.564 114.125 243.921 108.902 245.251 109.2Z" fill="white"/>
<path fill-rule="evenodd" clip-rule="evenodd" d="M253.223 112.542C255.235 113.098 258.86 113.714 257.928 115.705C257.371 116.896 256.703 116.809 256.977 117.891C257.2 118.772 257.78 120.35 256.977 120.283C255.528 120.161 254.519 119.139 252.811 118.303C252.111 117.96 252.504 112.344 253.223 112.542Z" fill="white"/>
<path fill-rule="evenodd" clip-rule="evenodd" d="M228.067 126.932C226.964 127.074 227.671 125.996 227.97 124.901C228.124 124.336 227.104 123.458 227.226 122.688C227.522 120.828 227.191 118.772 228.244 117.16C229.064 115.908 232.494 114.804 233.918 114.978C234.558 115.057 234.994 116.343 235.59 116.36C236.188 116.378 235.808 113.989 237.481 114.688C238.854 115.261 240.028 116.204 241.202 116.414C241.944 116.547 244.144 115.662 244.391 116.968C245.085 120.629 244.831 123.025 244.027 126.761C243.84 127.633 242.293 127.159 241.206 125.961C240.734 125.44 238.661 126.656 237.481 126.325C236.264 125.983 237.039 123.289 237.063 121.906C237.074 121.31 235.772 120.556 235.648 121.751C235.442 123.733 234.696 125.236 233.684 126.086C232.347 127.209 230.078 126.674 228.067 126.932H228.067Z" fill="white"/>
<path fill-rule="evenodd" clip-rule="evenodd" d="M248.706 118.272C248.23 117.703 246.645 117.85 246.809 119.256C247.186 122.5 244.753 126.873 246.372 128.693L249.119 131.78C249.548 132.262 251.171 132.35 251.745 130.832C252.647 128.447 253.639 126.734 253.663 124.065C253.682 121.811 250.368 120.259 248.706 118.272Z" fill="white"/>
<path fill-rule="evenodd" clip-rule="evenodd" d="M255.712 121.418C255.675 120.997 257.992 121.391 258.138 122.615L259.374 133.016C259.596 134.888 256.201 132.432 254.371 131.907C252.658 131.415 256.069 125.576 255.712 121.418Z" fill="white"/>
<path fill-rule="evenodd" clip-rule="evenodd" d="M263.109 123.522C264.417 127.304 265.505 131.125 265.92 134.907C266.184 137.318 260.67 135.399 260.756 133.962L260.974 130.325L260.029 124.215C259.979 123.898 262.443 121.594 263.109 123.522Z" fill="white"/>
<path fill-rule="evenodd" clip-rule="evenodd" d="M261.629 135.998C262.61 136.372 263.921 136.982 264.829 137.744C265.171 138.031 266.17 137.791 266.17 137.791C267.188 141.76 266.605 147.666 265.915 147.596C263.903 147.393 258.106 147.593 259.602 144.578L260.494 142.781C261.55 140.652 260.231 135.465 261.629 135.998V135.998Z" fill="white"/>
<path fill-rule="evenodd" clip-rule="evenodd" d="M201.581 134.863C200.637 135.072 199.958 134.824 199.199 135.776C198.346 136.848 197.851 138.868 199.413 139.468C200.208 139.773 201.006 139.957 201.77 138.712C203.04 136.641 201.465 136.558 201.918 135.759C202.438 134.841 204.116 136.667 203.292 138.861C202.668 140.521 202.202 141.528 200 141.406C197.952 141.292 196.473 139.568 196.745 137.944C197.204 135.201 198.805 134.101 200.467 133.914C202.339 133.703 202.046 134.76 201.581 134.863Z" fill="white"/>
<path fill-rule="evenodd" clip-rule="evenodd" d="M164.7 146.676C166.469 148.151 169.351 148.289 170.3 146.381C170.853 145.27 171.949 143.911 171.435 141.645C171.123 140.269 169.363 139.454 167.694 139.584C165.031 139.792 163.505 141.717 163.453 143.498C163.416 144.763 163.965 146.063 164.7 146.676Z" fill="white"/>
<path fill-rule="evenodd" clip-rule="evenodd" d="M167.581 141.494C166.148 141.553 165.496 143.608 165.674 144.496C166.052 146.379 167.803 146.246 168.456 145.723C169.583 144.822 169.645 141.409 167.581 141.494Z" fill="black"/>
<path fill-rule="evenodd" clip-rule="evenodd" d="M135.603 145.175C132.906 145.613 132.894 147.273 132.877 149.031C132.865 150.156 133.321 151.793 134.313 152.615C136.659 154.558 139.213 153.463 140.733 152.267C141.881 151.364 141.818 148.641 141.281 147.224C140.751 145.827 138.845 144.523 135.603 145.175Z" fill="white"/>
<path fill-rule="evenodd" clip-rule="evenodd" d="M137.432 146.498C135.793 146.426 134.837 148.964 135.137 150.032C135.777 152.319 137.548 152.017 138.33 151.474C140.139 150.218 138.722 146.555 137.432 146.498Z" fill="black"/>
<path fill-rule="evenodd" clip-rule="evenodd" d="M268.393 146.668C268.518 148.225 269.096 148.965 270.258 150.051C271.252 150.981 270.695 148.311 270.762 146.276C270.799 145.135 268.288 145.366 268.393 146.668Z" fill="white"/>
<path fill-rule="evenodd" clip-rule="evenodd" d="M279.084 144.508L278.794 152.485C278.722 154.436 281.773 152.968 281.773 152.968L283.173 147.175C283.161 145.764 280.172 144.019 279.084 144.508Z" fill="white"/>
<path fill-rule="evenodd" clip-rule="evenodd" d="M114.2 204.585C111.416 204.524 112.108 206.885 112.163 208.076C112.248 209.889 112.635 211.629 113.182 213.386C113.643 214.868 118.4 214.492 118.6 212.84L119.582 204.731C119.64 204.252 116.028 204.625 114.2 204.585Z" fill="white"/>
<path fill-rule="evenodd" clip-rule="evenodd" d="M124.819 203.494C123.436 204.444 122.32 204.099 121.437 208.149C120.962 210.323 120.559 212 121.182 212.876C122.615 214.893 125.778 211.485 129.183 211.313C130.567 211.242 131.886 211.107 133.547 211.313C134.732 211.46 135.207 206.082 135.256 204.258C135.284 203.201 131.944 203.938 131.801 203.13C131.596 201.97 132.566 200.77 134.565 201.166C137.491 201.747 139.674 201.478 141.947 201.312C144.081 201.156 144.854 195.359 145.184 192.111C145.26 191.368 141.594 191.701 141.329 192.075C140.998 192.543 140.597 192.816 140.165 192.875C139.693 192.939 139.758 192.28 139.147 191.929C138.622 191.628 135.741 192.785 132.674 193.748C131.082 194.248 132.268 196.938 131.728 199.203C131.597 199.755 132.41 201.794 128.783 202.418C126.024 202.893 127.947 200.672 129.256 199.566C129.644 199.238 129.544 194.961 129.619 194.475C129.919 192.546 120.287 195.03 114.854 196.002C113.449 196.254 114.173 199.274 113.545 202.076C113.26 203.349 127.166 201.881 124.819 203.494Z" fill="white"/>
<path fill-rule="evenodd" clip-rule="evenodd" d="M144.384 201.567C142.483 204.058 137.442 202.486 137.365 204.185C137.164 208.619 135.317 211.658 136.529 211.567C140.625 211.259 142.213 210.171 145.038 209.458C147.223 208.907 151.741 209.425 151.584 207.785C151.374 205.578 152.363 201.789 151.003 201.967C146.512 202.554 144.92 200.864 144.384 201.567Z" fill="white"/>
<path fill-rule="evenodd" clip-rule="evenodd" d="M153.257 208.076C152.763 209.407 154.338 208.883 156.53 208.765C158.154 208.677 160.288 208.894 161.403 209.24C162.61 209.614 162.204 208.645 164.485 206.736C165.478 205.904 164.671 202.748 165.367 201.348C165.971 200.135 158.833 200.754 155.585 200.585C153.659 200.484 154.179 205.594 153.257 208.076Z" fill="white"/>
<path fill-rule="evenodd" clip-rule="evenodd" d="M162.64 190.257C162.553 194.192 160.347 199.021 158.203 199.203C154.761 199.494 152.452 199.601 147.439 199.857C145.499 199.956 146.406 195.69 147.111 193.348C147.449 192.226 151.097 190.994 150.893 189.529C150.83 189.074 144.094 190.129 140.565 190.511C139.67 190.608 139.978 184.433 141.984 181.747C142.629 180.882 147.841 180.854 150.421 179.056C151.314 178.433 154.495 179.971 157.039 179.783C158.006 179.712 157.298 181.865 156.706 183.912C156.218 185.603 155.937 187.222 155.621 187.456C151.333 190.641 153.407 191.061 154.057 190.984C156.635 190.677 162.667 189.015 162.64 190.257Z" fill="white"/>
<path fill-rule="evenodd" clip-rule="evenodd" d="M169.622 187.929C169.57 190.289 165.866 188.494 164.527 193.418C164.068 195.103 162.487 198.099 163.185 198.584C165.29 200.048 174.299 196.248 174.313 198.512C174.328 200.717 167.977 198.941 167.586 200.294C166.591 203.729 166.77 206.614 167.513 206.549C171.774 206.173 175.12 200.534 179.586 196.112C180.686 195.023 181.369 189.108 181.041 187.929C180.605 186.361 176.944 188.366 174.895 188.584C174.08 188.671 172.01 189.62 171.004 187.42C171.988 186.956 173.783 186.882 173.841 185.965C174.044 182.721 173.366 179.137 174.495 177.056C175.477 175.246 170.465 178.156 169.513 177.419C168.81 176.875 168.317 176.272 167.44 176.437C166.353 176.642 166.3 177.539 164.203 178.219C163.197 177.882 162.541 178.132 161.549 179.165C159.912 180.868 158.982 184.197 157.694 187.82C156.781 190.386 169.646 186.838 169.622 187.929Z" fill="white"/>
<path fill-rule="evenodd" clip-rule="evenodd" d="M137.438 190.875C134.137 191.517 125.911 193.943 125.764 191.675C125.572 188.69 125.79 185.721 127.946 182.983C128.737 181.98 130.056 182.56 131.11 182.365L135.209 182.122C136.003 182.075 137.683 181.35 137.547 180.547C136.807 176.182 138.165 172.024 139.183 171.783C140.519 171.467 142.975 172.353 141.911 170.619L133.91 171.783C132.59 171.975 130.617 172.273 130.71 169.31C130.781 167.059 131.126 163.766 132.383 163.382C135.978 162.285 139.195 161.642 142.711 160.873C144.803 160.415 145.231 162.285 145.002 163.091C144.366 165.331 144.562 168.1 142.784 169.164C142.071 169.591 143.193 171.236 143.947 171.201C146.905 171.061 145.9 169.719 145.802 168.801C145.541 166.342 145.274 164.569 146.493 163.2C145.511 160.042 147.156 160.467 148.093 160.327C150.198 160.014 149.453 159.454 150.613 159.142C155.135 157.925 161.328 156.525 161.621 157.891C162.176 160.466 160.947 162.406 160.53 164.582C160.262 165.984 153.244 167.257 149.548 168.437C145.934 169.59 147.445 171.882 149.766 170.255C150.515 169.73 152.446 168.551 152.166 169.673C151.872 170.855 152.021 173.504 151.948 175.419C151.833 178.458 147.333 179.487 143.657 179.419C141.897 179.387 140.492 179.729 139.147 180.656C138.624 181.016 138.459 181.215 138.488 181.641C138.516 182.054 139.107 182.702 138.893 183.565C138.214 186.3 138.422 190.684 137.438 190.875Z" fill="white"/>
<path fill-rule="evenodd" clip-rule="evenodd" d="M154.094 176.547C153.849 179.176 157.517 177.054 165.622 175.856C167.581 175.566 167.516 170.519 167.84 167.71C167.988 166.427 166.212 167.657 164.64 168.328C162.294 169.329 163.511 166.8 161.621 167.164C159.106 167.649 157.118 168.977 155.512 170.11C153.679 171.403 154.337 173.935 154.094 176.547Z" fill="white"/>
<path fill-rule="evenodd" clip-rule="evenodd" d="M170.786 175.492C168.716 176.018 168.673 173.349 169.404 171.928L170.131 168.728C170.329 167.857 171.906 166.917 173.905 166.044C175.29 165.44 176.078 164.735 178.35 164.655C179.026 164.631 179.115 165.685 179.768 165.382C181.064 164.78 183.952 164.033 183.95 164.836C183.948 166.142 183.985 167.498 184.423 168.619C184.924 169.901 184.871 171.537 184.605 173.019C184.398 174.173 178.045 173.558 175.659 174.546C173.494 175.443 170.786 175.492 170.786 175.492Z" fill="white"/>
<path fill-rule="evenodd" clip-rule="evenodd" d="M186.351 171.816C186.456 173.359 196.136 172.443 198.39 171.662C199.536 171.265 201.173 170.691 201.358 169.678C201.766 167.448 203.011 162.143 202.137 162.297C199.375 162.784 197.471 162.334 194.72 162.186C191.904 162.035 189.831 163.725 187.514 164.364C186.658 164.6 186.18 169.332 186.351 171.816Z" fill="white"/>
<path fill-rule="evenodd" clip-rule="evenodd" d="M189.987 174.255C185.23 173.573 183.646 174.299 180.75 174.801C179.779 174.969 179.583 176.701 178.823 177.056C178.238 177.328 177.494 177.615 177.114 177.892C176.08 178.644 176.082 179.379 175.295 186.147C175.206 186.917 177.115 186.163 179.983 186.02C182.799 185.879 184.641 185.228 186.132 184.547C186.523 184.369 187.251 186.826 186.278 186.693C184.205 186.408 183.153 188.223 182.678 189.893C182.106 191.899 180.686 194.628 182.714 195.566C186.71 197.415 189.66 194.727 194.569 193.348C195.356 193.127 197.13 192.299 197.006 191.202C196.784 189.247 196.518 188.179 197.551 186.365C197.956 185.655 192.799 185.208 192.946 186.048C193.182 187.392 192.278 186.318 188.823 186.765C187.595 186.925 187.432 184.448 188.314 184.293L189.551 184.074C190.437 183.918 189.799 181.568 190.27 179.214C190.835 176.396 192.133 174.563 189.987 174.255H189.987Z" fill="white"/>
<path fill-rule="evenodd" clip-rule="evenodd" d="M200.315 190.766C198.802 191.794 198.235 190.517 198.788 187.856C199.107 186.32 199.953 186.116 200.752 185.82C202.385 185.214 206.468 185.134 205.552 184.002C205.067 183.403 192.311 184.943 192.206 183.565C191.942 180.126 192.971 177.169 194.278 175.346C195.035 174.292 197.176 173.714 198.897 172.91C201.127 171.868 204.014 171.422 204.606 172.074L205.334 172.874C206.105 173.722 213.399 170.953 213.043 171.855C210.873 177.362 211.413 181.264 210.789 181.165C208.894 180.865 209.258 181.569 209.298 182.22C209.338 182.89 210.679 182.644 211.08 183.456C211.232 183.765 208.995 184.407 206.309 186.106C204.24 187.415 201.876 189.706 200.315 190.766Z" fill="white"/>
<path fill-rule="evenodd" clip-rule="evenodd" d="M213.11 181.811C214.382 182.794 215.392 181.607 216.927 180.932C218.377 180.294 220.632 180.944 221.325 180.849C223.003 180.62 223.826 179.907 225.572 179.998C227.384 180.092 228.15 181.744 230.462 181.824C232.981 181.911 236.043 180.743 236.1 179.856L236.703 170.382C236.785 169.103 234.483 169.856 232.341 169.454C231.915 169.374 231.249 170.134 230.388 170.13C228.709 170.122 226.434 169.425 224.753 169.455C221.749 169.51 218.744 169.676 215.744 170.195C215.035 170.318 214.855 173.481 214.09 175.175C212.449 178.813 211.858 180.842 213.11 181.811Z" fill="white"/>
<path fill-rule="evenodd" clip-rule="evenodd" d="M238.5 170.837L237.836 180.621C237.785 181.38 242.005 182.547 241.995 181.263L241.918 170.764C241.91 169.721 238.54 170.04 238.5 170.837V170.837Z" fill="white"/>
<path fill-rule="evenodd" clip-rule="evenodd" d="M163.185 166.001C163.981 167.434 164.693 165.004 173.659 164.691C177.201 164.568 176.776 158.595 177.077 154.945C177.17 153.814 168.481 154.732 163.876 157.491C163.438 157.753 164.292 158.93 164.313 159.564C164.406 162.438 162.104 164.053 163.185 166.001Z" fill="white"/>
<path fill-rule="evenodd" clip-rule="evenodd" d="M129.256 163.018C130.061 162.928 128.637 167.928 129.037 171.201C129.119 171.871 123.626 172.627 119.837 172.91C118.982 172.974 118.222 170.995 118.491 169.964C118.9 168.398 119.476 166.942 119.509 164.946C119.524 164.089 126.007 163.384 129.256 163.018Z" fill="white"/>
<path fill-rule="evenodd" clip-rule="evenodd" d="M136.056 173.31C136.58 172.03 123.036 174.052 118.855 174.983C118.41 175.082 118.18 176.66 117.785 177.502C117.168 178.82 116.656 180.132 117.182 181.383C116.313 183.674 121.759 179.829 131.874 180.406C133.214 180.482 135.997 180.175 135.874 179.601C135.426 177.504 135.253 175.271 136.056 173.31Z" fill="white"/>
<path fill-rule="evenodd" clip-rule="evenodd" d="M125.255 183.638L116.964 183.929L115.727 187.638L114.854 194.111L123.728 192.293L125.255 183.638Z" fill="white"/>
<path fill-rule="evenodd" clip-rule="evenodd" d="M178.168 162.655C178.036 163.266 179.987 162.742 182.556 162.489C185.806 162.17 189.355 162.752 192.315 160.836C193.561 160.03 194.145 159.561 195.188 153.018C195.367 151.889 194.413 152.235 194.206 151.163C193.878 149.471 191.374 152.174 186.569 152.436C183.459 152.605 182.915 153.086 180.896 153.745C179.402 154.232 178.824 159.608 178.168 162.655Z" fill="white"/>
<path fill-rule="evenodd" clip-rule="evenodd" d="M196.642 151.345C196.921 151.806 197.2 152.218 197.479 152.581C198.257 153.597 195.793 160.043 196.824 160.182C200.846 160.723 203.189 159.643 206.461 158.582C207.717 158.174 208.052 159.354 207.479 159.927C206.032 161.377 204.106 161.515 203.77 164.182C203.514 166.219 203.448 167.873 203.515 169.673C203.586 171.555 212.136 169.457 216.862 169.237C219.168 169.13 219.219 167.048 221.044 166.473C221.778 166.242 221.236 159.364 220.535 159.382C219.159 159.416 217.378 159.547 215.879 159.468C212.857 159.311 210.254 159.011 210.207 158.4C210.12 157.27 211.713 157.024 212.68 155.418L213.625 147.454C213.744 146.457 209.268 147.957 204.655 149.009C200.18 150.029 199.085 148.82 198.525 149.431C198.175 149.815 198.058 150.663 197.69 150.748C196.941 150.921 196.413 150.967 196.642 151.345Z" fill="white"/>
<path fill-rule="evenodd" clip-rule="evenodd" d="M214.716 156.145C215.585 154.126 215.486 150.834 215.734 147.999C215.831 146.892 215.737 146.01 218.353 145.672C223.139 145.052 227.667 144.264 232.923 142.579C234.222 142.163 233.559 143.79 234.355 143.562C235.49 143.238 235.549 143.359 235.445 144.072C234.893 147.86 235.974 154.024 234.756 154.332C231.65 155.117 231.024 156.378 223.371 156.291C220.486 156.258 213.871 158.109 214.716 156.145Z" fill="white"/>
<path fill-rule="evenodd" clip-rule="evenodd" d="M224.191 158.857C227.682 158.391 230.54 157.592 233.19 156.916C235.853 156.237 235.547 157.249 235.526 159.397L235.445 167.491C235.434 168.567 231.309 166.945 229.596 167.364C226.935 168.013 222.021 168.304 222.571 167.419C224.94 163.609 221.596 159.203 224.191 158.857L224.191 158.857Z" fill="white"/>
<path fill-rule="evenodd" clip-rule="evenodd" d="M237.772 167.564C237.474 168.288 239.302 168.879 241.387 169.4C243.988 170.05 247.002 170.477 246.949 169.595L246.791 166.982C246.709 165.627 247.16 164.281 247.388 162.93C247.646 161.408 245.428 160.254 246.5 160.145C248.955 159.896 251.646 159.186 252.545 161.827C253.038 163.274 250.586 160.56 249.337 162.473L249.919 172.073L246.937 172.146C245.642 172.178 243.902 174.509 243.877 175.221C243.787 177.867 243.559 181.584 244.9 183.711C245.808 185.15 242.309 183.934 241.02 183.697C239.789 183.472 239.039 184.478 240.283 185.106C241.869 185.906 243.146 187.124 244.104 188.498C247.07 192.755 250.686 191.09 254.21 193.384C255.256 194.065 256.498 196.589 257 195.878L257.855 194.669C258.195 194.187 259.206 195.243 259.21 194.253C259.21 194.253 258.681 191.062 259.306 189.696C260.044 188.081 259.121 187.27 258.659 186.744C258.264 186.294 259.556 186.122 260.61 185.965C262.405 185.699 267.351 186.218 265.993 185.165C265.202 184.553 264.235 183.905 264.267 183.201L264.479 178.686C264.521 177.801 263.63 177.133 262.734 176.434C262.287 176.086 262.54 175.226 262.443 174.62C262.353 174.063 257.941 173.981 257.175 174.627C254.84 176.598 255.632 178.9 255.732 180.81C255.889 183.809 253.907 181.918 253.673 181.267C253.221 180.012 253.674 179.498 254.214 176.799C254.596 174.887 255.493 173.563 251.459 172.586C250.854 172.44 250.876 170.899 251.664 171.273C255.602 173.139 254.966 171.57 258.107 172.578C259.42 173 258.191 167.271 258.339 164.386C258.372 163.736 257.441 162.486 256.769 162.588C255.969 162.709 254.867 162.639 254.111 162.194C253.628 161.909 253.776 161.678 253.602 160.818C253.512 160.371 255.073 160.538 255.155 160.072C255.513 158.064 255.363 155.378 255.216 152.885C255.167 152.06 257.099 151.597 257.08 152.029L256.764 159.413C256.665 161.703 258.266 162.199 258.865 162.314L262.056 162.926C262.709 163.052 263.753 162.945 263.802 161.981L264.08 156.467C264.136 155.366 266.161 156.115 266.065 156.945C265.84 158.892 265.768 160.869 265.629 162.545C265.513 163.95 267.036 163.95 268.502 164.002C269.887 164.051 271.331 164.051 271.212 163.397C270.756 160.884 270.46 158.526 270.027 155.957C269.814 154.688 270.092 154.037 270.418 153.065C270.863 151.74 266.781 151.889 265.047 152.072C263.837 152.2 264.668 153.054 263.169 153.175C262.682 153.215 262.555 151.385 262.613 150.891C262.751 149.717 258.489 149.322 257.291 149.112C256.467 148.967 257.046 151.249 255.429 151.088C254.421 150.988 254.132 149.297 253.862 148.731C253.126 147.185 248.798 146.413 244.669 146.048C243.844 145.975 243.513 147.916 243.432 148.803C243.115 152.295 242.878 155.345 244.13 158.373C244.965 160.392 241.193 158.665 239.741 158.579C238.691 158.517 236.801 158.507 237.336 161.309C237.739 163.419 238.752 166.098 237.772 167.564" fill="white"/>
<path fill-rule="evenodd" clip-rule="evenodd" d="M236.668 145.184L236.681 154.489C236.684 156.681 241.169 158.126 241.333 157.442C242.104 154.24 241.23 152.143 241.208 149.142C241.197 147.705 241.602 146.698 241.825 145.502C241.864 145.292 240.561 144.599 239.255 144.472C237.963 144.347 236.668 144.785 236.668 145.184H236.668Z" fill="white"/>
<path fill-rule="evenodd" clip-rule="evenodd" d="M275.736 154.461C275.56 157.579 277.536 155.239 277.249 158.169C277.034 160.365 277.883 163.743 277.339 164.073C276.463 164.604 274.873 165.546 274.138 165.485C273.291 164.69 272.462 161.09 272.32 158.4C272.278 157.597 272.072 155.966 272.547 154.838C273.13 153.455 275.799 153.338 275.736 154.461H275.736Z" fill="white"/>
<path fill-rule="evenodd" clip-rule="evenodd" d="M262.501 164.146C261.428 163.776 260.524 164.612 260.538 165.309L260.683 172.801C260.689 173.116 262.101 173.044 263.343 173.629C265.175 174.492 267.993 174.997 267.778 173.978C267.285 171.638 266.979 168.904 267.404 165.802C267.527 164.9 264.132 164.707 262.501 164.146Z" fill="white"/>
<path fill-rule="evenodd" clip-rule="evenodd" d="M272.15 165.219C270.639 164.779 269.762 165.779 269.522 167.157C268.267 174.359 270.722 172.123 269.889 175.214C269.512 176.613 267.799 176.412 266.574 177.092C265.643 177.609 265.843 178.908 266.065 180.147C266.356 181.602 266.323 184.733 266.681 184.845C267.39 185.067 268.384 188.019 269.176 187.651C270.18 187.184 270.758 186.395 272.311 186.373C272.841 186.366 272.561 181.8 272.675 178.033C272.704 177.084 271.833 176.791 272.072 175.566C272.233 174.741 273.932 176.301 275.186 176.554C275.762 176.67 277.161 176.838 277.403 176.397C277.874 175.539 277.75 175.149 277.779 174.333C277.819 173.199 278.345 171.417 278.259 170.357C278.13 168.784 276.707 168.076 276.688 167.132C276.662 165.829 273.918 165.734 272.15 165.219Z" fill="white"/>
<path fill-rule="evenodd" clip-rule="evenodd" d="M256.541 183.711C252.839 183.241 249.93 182.601 247.491 182.924C245.87 183.139 246.454 185.142 247.664 185.02C251.504 184.632 253.292 185.39 256.101 185.893C258.494 186.321 257.54 183.837 256.541 183.711Z" fill="black"/>
<path fill-rule="evenodd" clip-rule="evenodd" d="M264.465 187.065C262.75 186.281 262.1 187.42 261.629 187.869C259.92 189.495 261.673 192.669 261.701 195.202C261.706 195.67 262.518 196.098 263.819 196.546C264.524 196.789 264.548 196.897 264.453 197.452C264.257 198.597 267.719 197.63 267.845 196.81C268.128 194.966 267.673 192.115 267.751 189.564C267.769 188.964 265.577 187.574 264.465 187.065H264.465Z" fill="white"/>
<path fill-rule="evenodd" clip-rule="evenodd" d="M271.255 188.579C270.713 188.525 269.602 190.34 269.668 191.609C269.792 193.978 269.684 198.28 270.426 198.356C273.481 198.667 279.484 199.95 279.461 198.633C279.415 195.921 278.956 194.313 278.721 191.857C278.611 190.711 276.433 189.087 275.011 188.947L271.255 188.579Z" fill="white"/>
<path fill-rule="evenodd" clip-rule="evenodd" d="M277.989 187.72C275.87 187.059 273.131 187.441 273.775 185.674C274.728 183.055 273.964 178.018 274.865 177.712C275.913 177.356 277.483 179.117 278.533 180.215C278.42 182.7 278.919 188.01 277.989 187.72Z" fill="white"/>
<path fill-rule="evenodd" clip-rule="evenodd" d="M276.816 202.912C274.692 201.244 272.776 201.189 265.675 200.388C264.883 200.298 265.125 201.586 265.513 201.631C267.303 201.842 268.687 202.376 269.958 202.531C271.655 202.739 273.071 202.576 274.206 202.98C276.92 203.948 277.923 203.819 276.816 202.912V202.912Z" fill="white"/>
<path fill-rule="evenodd" clip-rule="evenodd" d="M260.101 203.93C257.879 203.744 256.92 203.862 255.025 204.422C254.173 204.674 257.601 205.82 260.949 205.748C261.787 205.731 262.367 204.12 260.101 203.93Z" fill="white"/>
<path fill-rule="evenodd" clip-rule="evenodd" d="M268.438 203.755C267.853 203.718 266.687 204.316 266.262 204.765C265.716 205.341 272.692 205.857 271.4 204.519C270.518 203.605 270.552 203.889 268.438 203.755Z" fill="white"/>
<path fill-rule="evenodd" clip-rule="evenodd" d="M325.199 256.511C325.237 257.539 326.457 258.516 327.659 258.574C329.84 259.281 332.157 259.301 333.81 261.674C338.865 268.931 348.151 272.984 351.89 272.881C354.319 272.814 350.28 271.693 347.598 269.535C345.832 268.114 343.306 267.309 340.689 265.026L335.889 258.625C332.585 254.22 327.33 252.491 323.888 250.261L313.269 236.733C307.548 230.841 297.63 229.949 289.34 225.605C285.55 223.253 281.529 220.44 280.175 214.913L277.775 214.549C278.2 216.513 277.674 218.477 279.303 220.441C282.097 222.522 285.785 224.067 287.667 226.696C290.07 230.053 291.748 229.984 293.922 231.569C294.626 232.082 295.945 231.542 296.54 232.005C300.554 235.13 304.007 235.47 307.959 237.096C308.714 237.407 311.152 239.865 308.978 239.278C308.978 239.278 306.121 237.971 304.541 237.896C303.534 237.849 301.413 238.551 301.413 238.551C297.565 239.208 291.915 232.6 288.612 233.605L283.594 235.133C277.441 237.005 270.234 234.747 263.52 231.278C262.525 230.764 258.574 230.77 269.193 235.424C274.492 237.745 277.665 238.631 280.539 238.624C283.617 238.616 287.477 237.742 290.649 239.06C295.066 240.895 299.905 242.249 303.741 241.897C305.485 241.736 307.183 241.874 308.905 243.06C310.865 244.412 314.207 247.396 317.342 247.715C317.904 247.773 317.653 250.381 319.16 250.625C321.102 250.938 321.854 252.112 322.567 253.041C323.321 254.023 326.765 253.5 326.215 255.134" fill="white"/>
<path fill-rule="evenodd" clip-rule="evenodd" d="M306.796 249.752C303.458 250.201 301.086 249.224 298.177 250.152C295.445 251.023 292.373 250.686 290.758 251.897C290.1 252.391 289.946 252.852 289.343 254.054C288.983 254.773 288.998 252.683 286.103 254.298C283.478 255.761 286.444 252.759 288.54 251.57C294.243 248.5 300.256 248.217 306.214 247.424C306.666 247.364 307.785 249.619 306.796 249.752Z" fill="white"/>
<path fill-rule="evenodd" clip-rule="evenodd" d="M278.284 257.025C276.059 256.818 273.823 257.537 271.593 258.262C270.946 258.472 270.972 260.165 271.593 259.934C276.975 257.94 281.849 258.654 279.103 257.662C278.516 257.45 278.878 257.08 278.284 257.025Z" fill="white"/>
<path fill-rule="evenodd" clip-rule="evenodd" d="M264.956 259.607C265.988 259.645 267.832 260.914 264.611 261.025C258.506 261.235 248.664 261.835 239.082 261.753C237.266 261.737 229.553 266.329 224.681 268.371C223.622 268.815 220.786 266.435 222.644 266.189C228.645 265.396 236.612 259.534 238.282 259.571L248.173 259.789C251.187 259.855 250.622 258.786 251.628 258.843C251.628 258.843 254.254 259.165 255.573 259.259C258.695 259.481 264.956 259.607 264.956 259.607Z" fill="white"/>
<path fill-rule="evenodd" clip-rule="evenodd" d="M216.425 250.079C220.496 249.476 222.333 249.414 224.753 248.297C226.291 247.587 228.251 245.698 229.081 246.188C230.504 247.029 231.772 247.725 233.118 248.006C233.707 248.129 234.053 249.439 232.499 249.279C230.93 249.117 229.804 247.193 227.408 247.824C225.562 248.311 227.186 250.334 224.281 251.097C223.346 251.343 220.534 252.089 218.704 251.809C216.447 251.464 214.961 250.296 216.425 250.079Z" fill="white"/>
<path fill-rule="evenodd" clip-rule="evenodd" d="M190.242 226.059C191.316 225.609 187.608 224.448 186.223 224.968C181.93 226.581 179.45 227.86 174.15 230.623C173.112 231.164 179.909 230.462 180.368 230.241C185.078 227.985 186.357 227.686 190.242 226.059Z" fill="white"/>
<path fill-rule="evenodd" clip-rule="evenodd" d="M166.876 234.296C167.469 235.091 165.141 235.643 164.622 235.623L161.785 235.514C161.091 235.488 165.935 233.033 166.876 234.296Z" fill="white"/>
<path fill-rule="evenodd" clip-rule="evenodd" d="M137.438 247.824C135.405 248.207 136.419 250.231 137.911 250.334C145.899 250.885 145.699 246.124 154.821 246.515C160.834 246.773 164.383 246.335 167.295 244.515C168.622 243.686 170.295 240.756 168.677 241.606C163.3 244.43 157.817 242.881 151.621 244.151C148.206 244.851 145.032 246.906 141.74 248.011C138.519 249.091 138.835 247.561 137.438 247.824Z" fill="white"/>
<path fill-rule="evenodd" clip-rule="evenodd" d="M172.24 242.479L175.804 245.243C176.177 245.531 175.076 246.199 171.804 244.115C168.744 242.166 171.301 241.75 172.24 242.479Z" fill="white"/>
<path fill-rule="evenodd" clip-rule="evenodd" d="M148.566 256.189C152.249 255.736 148.304 258.644 147.439 258.48C144.361 257.893 141.082 258.153 137.911 257.898C134.788 257.646 139.067 256.385 140.311 256.043C141.089 255.829 145.577 256.556 148.566 256.189Z" fill="white"/>
<path fill-rule="evenodd" clip-rule="evenodd" d="M131.219 239.351C133.161 239.139 132.023 241.246 130.467 241.204C127.773 241.13 124.334 242.815 124.798 242.307C126.973 239.927 129.206 239.571 131.219 239.351Z" fill="white"/>
<path fill-rule="evenodd" clip-rule="evenodd" d="M118.175 225.784C118.256 226.679 121.244 225.977 123.219 225.823C124.607 225.714 124.604 223.984 122.919 224.257C121.472 224.493 118.121 225.183 118.175 225.784Z" fill="white"/>
<path fill-rule="evenodd" clip-rule="evenodd" d="M71.2877 260.696C68.5759 261.374 65.8389 261.835 63.1887 263.147C62.1242 263.674 62.0062 265.64 62.8508 265.316C71.6248 261.959 73.0417 260.257 71.2877 260.696Z" fill="white"/>
<path fill-rule="evenodd" clip-rule="evenodd" d="M110.14 233.532C108.46 233.589 105.271 233.548 104.89 234.041C103.236 236.186 107.719 235.169 109.704 235.071C112.395 234.94 110.573 233.518 110.14 233.532Z" fill="white"/>
<path fill-rule="evenodd" clip-rule="evenodd" d="M113.764 233.46L118.2 232.805C119.438 232.623 119.216 234.398 117.64 234.464C112.946 234.661 112.1 233.705 113.764 233.46Z" fill="white"/>
<path fill-rule="evenodd" clip-rule="evenodd" d="M112.162 233.158C114.769 232.489 113.537 231.844 112.885 231.82C112.339 231.799 112.109 231.613 111.899 231.941C111.649 232.332 111.696 233.278 112.162 233.158V233.158Z" fill="white"/>
<path fill-rule="evenodd" clip-rule="evenodd" d="M223.102 190.659C222.968 190.598 222.415 189.582 223.671 189.983C225.304 190.506 229.24 191.043 232.245 192.366C233.775 193.04 233.055 195.562 232.172 194.984C229.166 193.017 226.077 192.025 223.102 190.659Z" fill="white"/>
<path fill-rule="evenodd" clip-rule="evenodd" d="M171.385 108.713C171.672 106.915 180.53 105.514 192.295 102.669C206.911 99.1347 224.937 94.7758 237.583 91.8687C242.123 90.825 244.837 95.3765 248.451 97.1556L269.675 107.602C270.234 107.878 271.258 108.379 267.857 110.512C266.478 111.376 267.206 114.296 266.713 117C266.392 118.754 262.894 117.586 263.018 118.243L266.793 138.18L268.029 145.963C271.772 143.99 275.161 144.315 278.648 143.999C281.174 143.77 283.484 146.097 283.594 147.563C283.939 152.164 283.779 155.171 281.745 156.155C278.755 157.603 278.815 159.053 278.888 162.73C278.888 162.73 278.236 181.792 279.542 191.571C280.208 196.558 281.334 202.106 280.397 203.309L279.392 204.603C279.392 204.603 279.857 206.54 280.126 208.257C280.419 210.125 279.922 213.927 279.922 213.927C281.269 220.418 285.174 223.227 289.34 225.605C297.466 230.242 308.407 229.952 315.263 239.209C318.905 244.127 320.364 245.864 321.635 247.459C322.308 248.302 323.272 249.932 324.797 250.697C339.617 258.137 338.058 264.922 345.126 268.153C347.887 269.415 350.411 271.815 351.671 272.081C352.933 272.347 356.938 275.218 357.1 276.583L304.614 271.353L256.828 283.354L199.079 269.753L142.275 283.209L93.4712 270.408L48.377 279.208L42.8463 276.159C43.1922 272.862 44.3926 268.321 47.3213 265.804C55.3144 258.935 59.0499 259.324 63.2144 255.934C69.6766 250.675 68.1938 245.041 70.5443 239.578C73.4957 232.718 78.4256 232.419 83.0168 230.701C92.2204 227.257 94.8572 223.832 101.986 218.152C104.065 216.495 107.402 214.801 109.268 213.721C109.268 213.721 109.177 208.207 109.987 205.715C111.38 201.428 114.194 196.872 115.442 188.768L115.878 175.676C116.033 171.037 115.699 169.441 117.333 166.803C115.323 164.744 113.824 163.792 113.841 162.755C113.904 159.055 114.561 155.632 117.1 151.969C120.714 146.755 124.404 148.524 128.292 146.631C129.025 146.275 129.562 147.091 130.522 147.08C132.063 147.063 132.16 144.929 135.779 144.827C138.303 144.301 141.831 145.167 145.62 145.744C147.767 146.072 150.222 142.217 156.477 141.189C158.514 140.854 160.415 141.54 161.912 141.308C164.434 140.916 165.165 139.435 168.242 139.367C169.495 139.339 171.413 140.404 171.712 138.698L174.559 122.401C174.725 121.453 173.162 120.999 173.174 120.45L173.331 112.797C173.357 111.574 171.034 112.203 171.047 110.836L171.385 108.713Z" stroke="black" stroke-width="0.5"/>
<path fill-rule="evenodd" clip-rule="evenodd" d="M144.529 418.249C132.923 418.249 122.987 414.242 112.799 410.839L127.966 427.877C133.226 429.328 138.664 430.351 144.529 430.351C164.7 430.351 179.829 418.249 200 418.249C220.171 418.249 235.299 430.351 255.471 430.351C261.336 430.351 266.774 429.328 272.034 427.877L287.201 410.839C277.013 414.242 267.077 418.249 255.471 418.249C235.299 418.249 220.171 406.146 200 406.146C179.829 406.146 164.7 418.249 144.529 418.249Z" fill="white"/>
<path fill-rule="evenodd" clip-rule="evenodd" d="M255.471 305.29C275.642 305.29 290.77 293.188 310.941 293.188C325.777 293.188 337.886 299.735 351.279 303.198L346.918 314.064C335.2 310.482 324.152 305.29 310.941 305.29C290.77 305.29 275.642 317.393 255.471 317.393C235.299 317.393 220.171 305.29 200 305.29C179.829 305.29 164.7 317.393 144.529 317.393C124.358 317.393 109.23 305.29 89.0587 305.29C75.8477 305.29 64.7998 310.482 53.0816 314.064L48.7213 303.198C62.1144 299.735 74.2225 293.188 89.0587 293.188C109.23 293.188 124.358 305.29 144.529 305.29C164.7 305.29 179.829 293.188 200 293.188C220.171 293.188 235.299 305.29 255.471 305.29Z" fill="white"/>
<path fill-rule="evenodd" clip-rule="evenodd" d="M255.471 334.034C275.642 334.034 290.77 321.931 310.941 321.931C321.56 321.931 330.781 325.286 340.077 328.462L335.062 338.855C327.421 336.291 319.651 334.034 310.941 334.034C290.77 334.034 275.642 346.137 255.471 346.137C235.299 346.137 220.171 334.034 200 334.034C179.829 334.034 164.7 346.137 144.529 346.137C124.358 346.137 109.23 334.034 89.0587 334.034C80.3488 334.034 72.5791 336.291 64.9376 338.855L59.9232 328.462C69.2185 325.286 78.4398 321.931 89.0587 321.931C109.23 321.931 124.358 334.034 144.529 334.034C164.7 334.034 179.829 321.931 200 321.931C220.171 321.931 235.299 334.034 255.471 334.034Z" fill="white"/>
<path fill-rule="evenodd" clip-rule="evenodd" d="M255.471 362.778C275.642 362.778 290.77 350.675 310.941 350.675C316.785 350.675 322.205 351.691 327.448 353.134L320.304 363.613C317.285 363.09 314.178 362.778 310.941 362.778C290.77 362.778 275.642 374.881 255.471 374.881C235.299 374.881 220.171 362.778 200 362.778C179.829 362.778 164.7 374.881 144.529 374.881C124.358 374.881 109.23 362.778 89.0587 362.778C85.8218 362.778 82.7147 363.09 79.6958 363.613L72.5523 353.134C77.7947 351.691 83.2151 350.675 89.0587 350.675C109.23 350.675 124.358 362.778 144.529 362.778C164.7 362.778 179.829 350.675 200 350.675C220.171 350.675 235.299 362.778 255.471 362.778Z" fill="white"/>
<path fill-rule="evenodd" clip-rule="evenodd" d="M255.471 391.522C275.642 391.522 290.77 379.419 310.941 379.419L302.23 392.247C286.151 394.859 272.637 403.624 255.471 403.624C235.299 403.624 220.171 391.522 200 391.522C179.829 391.522 164.7 403.624 144.529 403.624C127.363 403.624 113.849 394.859 97.7702 392.247L89.0587 379.419C109.23 379.419 124.358 391.522 144.529 391.522C164.7 391.522 179.829 379.419 200 379.419C220.171 379.419 235.299 391.522 255.471 391.522Z" fill="white"/>
<path fill-rule="evenodd" clip-rule="evenodd" d="M255.471 446.992L242.958 457.635C228.502 454.416 215.797 446.992 200 446.992C184.203 446.992 171.498 454.416 157.042 457.635L144.529 446.992C164.701 446.992 179.829 434.89 200 434.89C220.171 434.89 235.3 446.992 255.471 446.992Z" fill="white"/>
<path fill-rule="evenodd" clip-rule="evenodd" d="M218.593 478.793L228.87 470.074C219.665 466.924 210.518 463.634 200 463.634C189.482 463.634 180.335 466.924 171.13 470.074L181.407 478.793C187.299 477.041 193.378 475.736 200 475.736C206.622 475.736 212.701 477.041 218.593 478.793Z" fill="white"/>
<path fill-rule="evenodd" clip-rule="evenodd" d="M255.471 288.649C275.642 288.649 290.77 276.547 310.941 276.547C328.031 276.547 341.502 285.234 357.486 287.888L362.085 276.364C344.012 274.849 329.645 264.444 310.941 264.444C290.77 264.444 275.642 276.547 255.471 276.547C235.299 276.547 220.171 264.444 200 264.444C179.829 264.444 164.701 276.547 144.529 276.547C124.358 276.547 109.23 264.444 89.0587 264.444C70.3553 264.444 55.9875 274.849 37.915 276.364L42.5142 287.888C58.4985 285.234 71.9686 276.547 89.0587 276.547C109.23 276.547 124.358 288.649 144.529 288.649C164.701 288.649 179.829 276.547 200 276.547C220.171 276.547 235.299 288.649 255.471 288.649Z" fill="white"/>
<path d="M200 1.5H398.227C402.374 196.552 360.382 374.4 200 490.828C39.6183 374.4 -2.37383 196.552 1.77326 1.5H200Z" stroke="black" stroke-width="3"/>
</g>
<defs>
<clipPath id="clip0">
<rect width="400" height="492.68" fill="white"/>
</clipPath>
</defs>
</svg>
