<svg width="400" height="456" viewBox="0 0 400 456" fill="none" xmlns="http://www.w3.org/2000/svg">
<g clip-path="url(#clip0)">
<path fill-rule="evenodd" clip-rule="evenodd" d="M245.969 427.982H347.473C384.087 427.982 400 405.15 400 377.274V0H200H0V377.274C0 405.15 15.9133 427.982 52.5265 427.982H154.031C181.389 427.982 193.217 445.203 200 455.78C206.783 445.203 218.611 427.982 245.969 427.982Z" fill="#FDED5A"/>
<path fill-rule="evenodd" clip-rule="evenodd" d="M347.473 427.982H245.969C218.611 427.982 206.783 445.203 200 455.78C193.217 445.203 181.389 427.982 154.031 427.982H52.5265C30.2165 427.982 15.5923 419.504 7.57107 406.574C11.9031 407.233 17.5672 407.798 24.2292 407.798C38.9081 407.798 46.2475 405.734 53.587 403.67C60.9264 401.605 68.2659 399.541 82.9447 399.541C97.6236 399.541 104.963 401.605 112.303 403.67C119.642 405.734 126.981 407.798 141.66 407.798C156.339 407.798 163.679 405.734 171.018 403.67C178.358 401.605 185.697 399.541 200.376 399.541C215.055 399.541 222.394 401.605 229.734 403.67C237.073 405.734 244.413 407.798 259.092 407.798C273.77 407.798 281.11 405.734 288.449 403.67C295.789 401.605 303.128 399.541 317.807 399.541C332.486 399.541 339.825 401.605 347.165 403.67C354.504 405.734 361.844 407.798 376.523 407.798C383.005 407.798 388.056 407.395 392.308 406.768C384.261 419.589 369.672 427.982 347.473 427.982ZM398.991 388.978C393.408 390.283 386.745 391.284 376.523 391.284C361.844 391.284 354.504 389.22 347.165 387.156C339.825 385.092 332.486 383.027 317.807 383.027C303.128 383.027 295.789 385.092 288.449 387.156C281.11 389.22 273.77 391.284 259.092 391.284C244.413 391.284 237.073 389.22 229.734 387.156C222.394 385.092 215.055 383.027 200.376 383.027C185.697 383.027 178.358 385.092 171.018 387.156C163.679 389.22 156.339 391.284 141.66 391.284C126.981 391.284 119.642 389.22 112.303 387.156C104.963 385.092 97.6236 383.027 82.9447 383.027C68.2659 383.027 60.9264 385.092 53.587 387.156C46.2475 389.22 38.9081 391.284 24.2292 391.284C13.8867 391.284 6.6221 390.178 0.98624 388.849C0.324109 385.128 0 381.252 0 377.274V328.531C5.85436 329.986 13.46 331.651 24.4793 331.651C39.1582 331.651 46.4976 329.587 53.8371 327.523C61.1765 325.459 68.516 323.395 83.1949 323.395C97.8737 323.395 105.213 325.459 112.553 327.523C119.892 329.587 127.232 331.651 141.91 331.651C156.589 331.651 163.929 329.587 171.268 327.523C178.608 325.459 185.947 323.395 200.626 323.395C215.305 323.395 222.644 325.459 229.984 327.523C237.323 329.587 244.663 331.651 259.342 331.651C274.021 331.651 281.36 329.587 288.699 327.523C296.039 325.459 303.378 323.395 318.057 323.395C332.736 323.395 340.076 325.459 347.415 327.523C354.754 329.587 362.094 331.651 376.773 331.651C387.463 331.651 394.26 330.557 400 329.164V350.54C394.195 351.966 386.995 353.211 376.148 353.211C361.469 353.211 354.129 351.147 346.79 349.082C339.45 347.018 332.111 344.954 317.432 344.954C302.753 344.954 295.414 347.018 288.074 349.082C280.735 351.147 273.395 353.211 258.716 353.211C244.037 353.211 236.698 351.147 229.359 349.082C222.019 347.018 214.68 344.954 200.001 344.954C185.322 344.954 177.982 347.018 170.643 349.082C163.304 351.147 155.964 353.211 141.285 353.211C126.606 353.211 119.267 351.147 111.927 349.082C104.588 347.018 97.2485 344.954 82.5696 344.954C67.8907 344.954 60.5512 347.018 53.2118 349.082C45.8723 351.147 38.5329 353.211 23.854 353.211C12.8324 353.211 5.85343 351.988 0.000521787 350.534V367.083C5.87401 368.548 12.7726 369.725 23.854 369.725C38.5329 369.725 45.8723 367.66 53.2118 365.596C60.5512 363.532 67.8907 361.468 82.5696 361.468C97.2485 361.468 104.588 363.532 111.927 365.596C119.267 367.66 126.606 369.725 141.285 369.725C155.964 369.725 163.304 367.66 170.643 365.596C177.982 363.532 185.322 361.468 200.001 361.468C214.68 361.468 222.019 363.532 229.359 365.596C236.698 367.66 244.037 369.725 258.716 369.725C273.395 369.725 280.735 367.66 288.074 365.596C295.414 363.532 302.753 361.468 317.432 361.468C332.111 361.468 339.45 363.532 346.79 365.596C354.129 367.66 361.469 369.725 376.148 369.725C387.054 369.725 394.178 368.423 400 366.986V377.274C400 381.298 399.668 385.217 398.991 388.978ZM400 312.651C394.26 314.043 387.463 315.138 376.773 315.138C362.094 315.138 354.754 313.073 347.415 311.009C340.076 308.945 332.736 306.881 318.057 306.881C303.378 306.881 296.039 308.945 288.699 311.009C281.36 313.073 274.021 315.138 259.342 315.138C244.663 315.138 237.323 313.073 229.984 311.009C222.644 308.945 215.305 306.881 200.626 306.881C185.947 306.881 178.608 308.945 171.268 311.009C163.929 313.073 156.589 315.138 141.91 315.138C127.232 315.138 119.892 313.073 112.553 311.009C105.213 308.945 97.8737 306.881 83.1949 306.881C68.516 306.881 61.1765 308.945 53.8371 311.009C46.4976 313.073 39.1582 315.138 24.4793 315.138C13.3582 315.138 5.88894 313.746 0 312.274V0H200H400V312.651Z" fill="#009BE0"/>
<path fill-rule="evenodd" clip-rule="evenodd" d="M200.001 295.872C229.359 295.872 229.359 304.128 258.716 304.128C288.074 304.128 288.074 295.872 317.432 295.872C329.692 295.872 336.832 297.312 343.128 298.989C345.8 291.42 352.483 284.302 356.351 280.678C263.681 289.385 164.974 288.043 83.5707 278.266C87.463 284.006 90.7606 290.283 93.1894 296.299C112.485 297.991 115.974 304.128 141.285 304.128C170.643 304.128 170.643 295.872 200.001 295.872Z" fill="#FDED5A"/>
<path fill-rule="evenodd" clip-rule="evenodd" d="M357.005 277.905L295.75 281.767C256.986 283.231 218.211 284.115 179.458 282.604C145.374 281.274 111.748 278.718 79.3839 274.688L65.6759 264.262L33.2402 264.712L8.46297 244.183L134.988 80.5884C133.558 72.3707 133.675 67.4392 134.602 62.1135C135.741 55.571 137.734 53.4706 139.3 48.9894L135.465 48.0617L135.964 45.9913L170.963 52.8508L172.457 24.727L174.915 24.7913L173.988 53.43L210.8 62.3755L210.221 64.6768L205.78 63.6627C201.409 69.0032 197.738 75.5434 197.96 81.494C198.337 91.5987 199.537 100.754 205.458 111.415L211.25 112.702L210.607 114.826L206.102 113.732C202.482 120.22 199.287 126.178 199.091 135.407C198.75 151.394 202.429 169.127 214.468 184.202L220.196 185.039L219.745 187.356L214.597 186.519C213.27 196.447 211.642 206.426 211.701 216.123C211.798 232.037 214.07 248.085 229.914 264.712C239.94 265.163 248.856 264.919 257.523 264.519L261.963 180.727C262.048 179.121 259.807 177.284 257.33 176.608C253.751 175.632 251.815 175.552 249.542 174.292C248.187 173.54 247.483 172.027 246.839 170.494C241.125 172.212 237.37 171.432 233.582 169.722C229.979 168.096 228.367 164.866 226.117 162.192L220.904 161.291L221.161 158.91L229.013 160.069C226.573 150.308 225.773 140.547 225.859 130.787C226.022 112.469 230.869 101.099 235.127 91.5934L228.82 90.6281L229.27 88.1181L235.899 89.2766C234.714 78.8612 234.876 70.0702 236.478 62.4399C237.961 55.3794 240.476 49.1709 242.849 43.0042L237.25 41.7171L237.765 39.4003L267.047 45.5785L266.983 27.5587C260.376 29.2161 254.073 31.1259 247.547 30.4547C241.42 29.8244 236.121 25.9181 231.008 25.3062C226.699 24.7905 222.472 25.4088 217.622 26.2715C222.079 23.7597 226.304 20.9714 232.681 21.123C239.061 21.2747 240.331 24.3234 248.32 24.5983C255.338 24.8397 264.645 21.4877 270.008 19.6428L269.943 46.4151L318.854 56.9696L318.082 59.5549L312.934 58.3854C309.389 64.8151 306.54 71.3816 306.048 78.336C305.397 87.5262 307.329 95.8635 310.424 103.692L319.112 105.623L318.533 107.94L313.835 106.653C309.367 113.387 304.664 119.875 303.666 134.133C302.571 149.79 308.871 164.735 313.062 175.579L318.854 176.673L318.533 179.054L312.612 177.767C308.13 180.847 302.979 182.575 297.295 182.465C290.282 182.329 286.43 179.378 282.429 176.801C280.701 178.448 278.884 179.984 275.993 179.054C273.848 178.364 271.703 177.863 269.557 178.024C267.801 178.156 265.29 179 265.245 180.92L264.731 202.93L356.567 172.296C350.876 183.235 346.99 197.664 347.751 210.009C348.488 221.979 353.878 234.51 365.706 245.856L263.186 251.133L263.057 259.113L292.275 258.212V264.841L328.83 263.683L328.894 259.757L341.057 259.5L341.379 263.94L361.311 263.385C362.387 263.356 358.887 277.787 357.005 277.905Z" fill="#FDED5A"/>
<path fill-rule="evenodd" clip-rule="evenodd" d="M13.7293 245.91L33.2973 261.474L38.9401 252.463L13.7293 245.91Z" fill="#009BE0"/>
<path fill-rule="evenodd" clip-rule="evenodd" d="M35.2086 262.111L40.8514 253.101L62.0576 261.565L35.2086 262.111Z" fill="#009BE0"/>
<path fill-rule="evenodd" clip-rule="evenodd" d="M12.8192 242.452L53.9574 249.824C49.4584 245.48 42.8026 239.809 35.7546 238.448C27.2231 236.8 19.2716 240.065 12.8192 242.452Z" fill="#009BE0"/>
<path fill-rule="evenodd" clip-rule="evenodd" d="M58.2351 250.552L109.203 256.468C101.866 252.075 95.6922 246.358 84.9021 245.274C73.8618 244.164 66.2815 247.821 58.2351 250.552Z" fill="#009BE0"/>
<path fill-rule="evenodd" clip-rule="evenodd" d="M55.4136 248.459L127.133 153.44C122.866 142.516 124.934 128.615 126.495 122.223C128.058 115.824 131.236 104.954 139.875 97.1029L135.051 95.8287L135.688 93.7354L141.649 95.1688L135.46 81.7898C135.46 81.7898 122.634 98.0483 108.622 119.195C95.1616 139.508 80.6753 164.454 73.2523 182.11C63.3441 205.677 53.7453 228.627 55.4136 248.459Z" fill="#009BE0"/>
<path fill-rule="evenodd" clip-rule="evenodd" d="M136.871 258.289L112.115 256.65C106.277 242.602 105.077 227.727 106.563 214.966C109.102 193.173 118.281 173.812 127.77 154.715L133.868 170.824L128.134 170.005L127.679 172.19L133.321 173.191C126.331 184.312 124.022 197.854 125.13 212.327C126.33 227.993 129.776 243.402 136.871 258.289Z" fill="#009BE0"/>
<path fill-rule="evenodd" clip-rule="evenodd" d="M140.33 258.744L154.842 259.504L155.438 253.283L167.179 253.77L167.452 240.905C159.171 241.228 144.245 249.305 140.33 258.744Z" fill="#009BE0"/>
<path fill-rule="evenodd" clip-rule="evenodd" d="M170.573 240.814L170.546 253.92L192.754 255.74L192.348 261.812L222.424 263.931C212.206 252.602 188.862 241.692 170.573 240.814H170.573Z" fill="#009BE0"/>
<path fill-rule="evenodd" clip-rule="evenodd" d="M208.135 182.11L171.547 176.376V161.996C184.665 165.666 203.119 174.679 208.135 182.11Z" fill="#009BE0"/>
<path fill-rule="evenodd" clip-rule="evenodd" d="M168.726 175.921L168.817 161.632C156.305 161.983 142.776 166.194 136.234 171.188L168.726 175.921Z" fill="#009BE0"/>
<path fill-rule="evenodd" clip-rule="evenodd" d="M144.243 95.7378L171.82 102.291V91.1871C163.859 90.0166 151.7 92.6464 144.243 95.7378Z" fill="#009BE0"/>
<path fill-rule="evenodd" clip-rule="evenodd" d="M200.001 109.026L174.915 103.201V91.4602C182.533 93.51 195.396 102.359 200.001 109.026Z" fill="#009BE0"/>
<path fill-rule="evenodd" clip-rule="evenodd" d="M263.32 82.3916C257.563 82.0798 247.776 84.9659 240.466 89.516L263.391 93.8189L263.32 82.3916Z" fill="#009BE0"/>
<path fill-rule="evenodd" clip-rule="evenodd" d="M266.424 82.1799L266.565 94.5242L302.963 101.649C296.337 94.0114 279.168 82.4791 266.424 82.1799Z" fill="#009BE0"/>
<path fill-rule="evenodd" clip-rule="evenodd" d="M232.918 160.407L262.615 165.415L263.038 151.308C250.705 150.218 238.599 150.265 232.918 160.407Z" fill="#009BE0"/>
<path fill-rule="evenodd" clip-rule="evenodd" d="M266.565 151.66L266.424 166.473L307.76 174.444C298.466 165.949 279.241 152.541 266.565 151.66Z" fill="#009BE0"/>
<path d="M338.582 269.129L324.967 269.752L325.178 274.552L338.794 273.929L338.582 269.129Z" fill="#009BE0"/>
<path d="M312.492 270.285L298.868 270.665L298.994 275.468L312.618 275.089L312.492 270.285Z" fill="#009BE0"/>
<path d="M284.573 271.074L270.943 271.172L270.97 275.977L284.6 275.878L284.573 271.074Z" fill="#009BE0"/>
<path d="M257.115 271.365L243.485 271.38L243.482 276.184L257.112 276.17L257.115 271.365Z" fill="#009BE0"/>
<path d="M229.651 271.359L216.021 271.295L215.991 276.1L229.621 276.163L229.651 271.359Z" fill="#009BE0"/>
<path d="M201.561 270.839L187.935 270.543L187.823 275.346L201.449 275.642L201.561 270.839Z" fill="#009BE0"/>
<path d="M174.033 269.766L160.414 269.222L160.214 274.023L173.833 274.567L174.033 269.766Z" fill="#009BE0"/>
<path d="M147.287 268.417L133.686 267.545L133.37 272.339L146.972 273.212L147.287 268.417Z" fill="#009BE0"/>
<path d="M122.419 266.438L108.844 265.227L108.409 270.012L121.985 271.223L122.419 266.438Z" fill="#009BE0"/>
</g>
<defs>
<clipPath id="clip0">
<rect width="400" height="455.78" fill="white"/>
</clipPath>
</defs>
</svg>
