<svg width="400" height="492" viewBox="0 0 400 492" fill="none" xmlns="http://www.w3.org/2000/svg">
<g clip-path="url(#clip0)">
<path d="M3.00461 3.01632L396.995 3.00464C396.98 276.199 396.976 280.229 396.976 280.241C397.986 558.089 3.0113 558.095 3.00795 280.241L3.00461 3.01632Z" fill="#15B0EF"/>
<path d="M245.295 140.136C249.27 153.515 257.579 163.631 266.173 173.246" stroke="black"/>
<path d="M243.645 141.132C245.965 151.822 252.528 163.519 261.741 175.933" stroke="black"/>
<path d="M43.4475 152.515C54.842 146.203 64.3623 137.776 72.3993 128.283" stroke="black" stroke-width="0.695184"/>
<path d="M136.669 218.508C128.369 224.26 119.295 229.596 102.026 230.532" stroke="black" stroke-width="0.893"/>
<path d="M136.489 218.417C130.966 223.693 122.731 231.026 115.073 233.378" stroke="black" stroke-width="0.893"/>
<path d="M238.619 88.3564C243.619 98.424 253.872 110.253 266.478 117.225" stroke="black" stroke-width="0.993121"/>
<path d="M232.321 123.235C261.655 122.44 282.039 93.1816 286.49 81.5645" stroke="black" stroke-width="0.993121"/>
<path d="M288.534 85.2878C282.203 103.307 256.323 125.588 236.64 129.66" stroke="black" stroke-width="0.993121"/>
<path d="M218.643 57.333C194.491 77.4251 169.838 98.2054 149.97 105.861" stroke="black" stroke-width="0.993121"/>
<path d="M177.251 241.592L151.578 85.385" stroke="black" stroke-width="0.893808"/>
<path d="M149.748 91.043L171.897 241.547" stroke="black" stroke-width="0.893808"/>
<path d="M17.5841 171.361C17.7114 170.842 19.6202 169.349 19.6202 169.349C36.0599 178.183 44.7213 188.604 61.2642 198.101L55.156 199.918C39.6142 189.81 29.4425 181.693 17.5841 171.361Z" fill="url(#paint0_linear)" stroke="black" stroke-width="0.993121"/>
<path d="M103.963 230.647C85.0588 224.003 71.4648 207.003 65.2232 200.885L59.4643 204.832C67.2591 217.59 82.997 231.382 98.5167 237.141C101.231 234.892 102.177 232.896 103.963 230.647Z" fill="url(#paint1_linear)" stroke="black" stroke-width="0.993121"/>
<path d="M51.9957 200.335L91.2281 200.886C90.8714 206.071 77.8443 209.949 67.2028 210.064C54.1738 210.203 51.8603 200.357 51.9957 200.335Z" fill="url(#paint2_linear)" stroke="black" stroke-width="0.993121"/>
<path d="M104.935 198.626C110.95 198.765 110.733 202.392 105.137 202.259L52.0664 201.001C44.6729 200.825 41.8557 197.17 48.0022 197.312L104.935 198.626Z" fill="#ECECEC" stroke="black" stroke-width="1.09516"/>
<path d="M109.939 227.241C111.226 217.467 117.179 214.006 129.282 214.261C149.542 214.687 158.847 216.857 179.547 225.943C174.619 216.772 145.473 189.954 165.931 156.239L114.647 165.584C102.995 176.458 87.6074 200.387 109.939 227.241Z" fill="url(#paint3_linear)" stroke="black" stroke-width="0.794496"/>
<path d="M114.806 165.656C99.7855 184.95 102.272 213.702 110.304 226.769" stroke="black" stroke-width="0.595872"/>
<path d="M43.3575 145.815C74.359 128.587 111.129 102.795 140.898 77.8936" stroke="black" stroke-width="0.695184"/>
<path d="M127.883 118.629C128.383 114.833 130.795 109.383 137.014 108.524C145.674 107.327 148.14 113.336 154.107 113.153C150.204 109.281 145.123 97.6405 153.292 84.426L131.384 90.3152C124.528 93.0063 120.123 112.494 127.883 118.629Z" fill="url(#paint4_linear)" stroke="black" stroke-width="0.794496"/>
<path d="M121.041 162.714C121.7 157.707 125.327 149.429 133.558 148.539C143.673 147.445 149.062 149.318 159.305 154.523C155.7 148.448 144.371 133.702 154.67 115.79L124.353 121.862C119.464 128.074 108.433 149.418 121.041 162.714Z" fill="url(#paint5_linear)" stroke="black" stroke-width="0.794"/>
<path d="M85.9292 119.315C99.5529 115.515 114.018 108.805 126.051 97.3289" stroke="black" stroke-width="0.695184"/>
<path d="M124.139 105.084C118.099 113.797 52.977 157.289 43.7173 158.572" stroke="black" stroke-width="0.595872"/>
<path d="M241.859 195.379L241.094 144.53" stroke="black" stroke-width="0.993121"/>
<path d="M242.129 142.969L245.098 194.461" stroke="black" stroke-width="0.993121"/>
<path d="M117.053 82.3451C123.386 80.3631 125.889 81.0848 129.606 81.106C137.107 81.1487 136.684 76.5014 145.577 79.0408L145.263 73.6254C141.202 71.9771 136.972 72.9717 133.16 75.2776C126.509 79.3005 121.71 76.4318 117.053 82.3451Z" fill="url(#paint6_linear)" stroke="black" stroke-width="0.794496"/>
<path d="M121.794 120.853C117.878 121.558 118.27 124.193 121.897 123.443L156.008 116.393C157.959 115.989 161.542 112.58 157.577 113.405L121.795 120.853H121.794Z" fill="#ECECEC" stroke="black" stroke-width="0.724"/>
<path d="M129.172 88.581C125.255 89.2858 125.992 92.2422 129.589 91.3543L151.642 85.9101C153.853 85.3643 156.959 81.5634 153.031 82.5554L129.172 88.581Z" fill="#ECECEC" stroke="black" stroke-width="0.7"/>
<path d="M139.514 242.29C139.381 246.494 145.138 244.412 145.163 242.372L147.235 72.6203L144.952 70.6714L139.514 242.29V242.29Z" fill="#ECECEC" stroke="black" stroke-width="0.794496"/>
<path d="M139.145 217.557C136.047 217.272 136.425 223.48 138.548 223.995C141.22 224.644 145.174 224.46 147.952 223.566C149.374 223.108 149.915 217.112 147.305 217.312C144.218 217.548 141.679 217.79 139.145 217.557Z" fill="#ECECEC" stroke="black" stroke-width="1.20718"/>
<path d="M320.925 285.447C322.325 267.045 337.213 244.374 340.506 239.682C342.519 236.813 346.531 237.235 349.667 237.712C354.407 238.435 349.832 245.735 346.541 245.256C344.287 244.929 341.769 245.724 340.477 248.435C337.679 254.308 335.236 257.318 333.571 262.382C342.712 266.522 335.45 283.684 333.454 288.719L327.603 287.139C327.373 285.098 331.628 273.494 330.079 272.922C328.722 272.421 326.858 281.737 325.849 287.036L320.925 285.447Z" fill="#ECECEC" stroke="black" stroke-width="1.98624"/>
<path d="M241.409 233.011C241.859 233.011 246.538 232.735 246.538 232.735L245.908 193.726C241.905 192.454 238.128 196.032 239.249 201.345L241.859 202.354L241.409 233.011Z" fill="url(#paint7_linear)" stroke="black" stroke-width="0.993121"/>
<path d="M359.294 192.065C367.568 191.15 368.447 185.026 373.61 184.926C379.573 184.809 380.845 190.937 384.745 190.053C388.462 189.21 391.03 187.709 394.225 190.961C394.164 178.753 392.048 175.955 387.735 172.205C383.397 168.742 385.865 160.797 376.091 160.393C356.284 159.573 358.382 182.78 359.294 192.065Z" fill="url(#paint8_linear)" stroke="black" stroke-width="0.993121"/>
<path d="M202.891 473.371C241.03 473.937 264.918 458.854 298.749 464.65C239.432 497.871 156.877 497.868 103.222 464.65C151.574 458.956 153.399 472.636 202.891 473.371Z" fill="#F2F2F2"/>
<path d="M324.363 271.732C322.933 275.604 321.845 281.194 322.04 284.94C315.029 285.941 311.141 282.084 310.587 279.325C316.704 280.875 323.428 274.592 324.363 271.732Z" fill="#ECECEC" stroke="black" stroke-width="0.993121"/>
<path d="M203.073 349.415C235.773 348.66 245.613 337.552 279.817 337.326C318.484 337.071 329.502 362.182 387.371 353.496C384.699 364.483 378.847 377.806 374.997 384.87C324.235 389.386 317.986 367.159 278.026 367.243C239.935 367.323 239.097 380.359 199.84 380.086C160.582 379.812 153.737 368.938 113.923 368.871C72.2303 368.801 60.5316 387.635 25.3801 383.902C21.2284 376.297 15.9154 364.816 12.5679 350.902C56.2428 359.909 76.9994 338.65 116.58 338.201C160.644 337.704 156.428 350.493 203.073 349.415Z" fill="#F2F2F2"/>
<path d="M199.967 412.569C232.667 411.814 236.617 401.116 270.82 400.89C297.015 400.717 319.085 415.348 352.997 418.87C346.027 427.839 332.944 440.913 326.248 445.619C307.704 439.041 292.894 432.206 272.438 432.057C234.349 431.778 234.526 443.896 199.662 444.338C165.056 444.776 150.631 432.091 110.817 432.025C94.4603 431.997 80.5983 436.189 68.1603 440.119C58.6339 431.72 50.3904 423.098 45.6608 416.089C64.9903 407.438 89.4895 400.464 105.709 400.06C149.763 398.964 153.322 413.646 199.967 412.569Z" fill="#F2F2F2"/>
<path d="M353.527 191.983C348.738 193.558 351.342 199.134 355.641 198.316C358.291 197.812 360.593 194.85 358.476 192.212C360.774 178.104 368.159 159.906 375.055 144.977C368.637 144.641 372.603 145.233 370.354 144.897C364.398 162.008 357.067 179.773 353.527 191.983V191.983Z" fill="#E6E6E6" stroke="black" stroke-width="0.993121"/>
<path d="M372.108 143.979C372.563 143.228 372.934 142.132 372.828 141.271C369.948 138.348 373.978 132.443 377.732 134.846C383.337 138.435 375.75 142.507 374.673 145.815C366.469 145.199 368.059 151.081 372.693 152.01C374.719 152.417 373.978 156.396 371.253 155.498C366.085 153.796 362.193 160.786 369.431 161.189C368.801 163.124 366.676 164.426 366.304 165.434C365.562 167.445 365.237 168.867 365.18 171.744C365.132 174.117 363.43 174.541 361.456 175.135C357.613 176.291 353.575 181.164 359.736 182.942C361.434 183.432 360.672 186.247 358.926 185.833C352.576 184.331 351.898 195.205 351.75 201.093L331.391 204.489C314.13 185.096 326.949 137.912 372.108 143.979Z" fill="url(#paint9_linear)" stroke="black" stroke-width="0.993121"/>
<path d="M394.225 190.637C390.589 176.633 386.467 181.395 382.836 174.217C379.036 166.704 373.739 166.698 369.597 169.507C366.087 171.887 364.919 174.446 362.704 174.864C362.362 176.274 361.997 177.728 361.612 179.224C365.078 180.632 369.476 176.468 374.31 176.878C380.786 177.426 378.137 180.851 383.154 183.108C386.423 184.579 389.024 183.379 394.225 190.637Z" fill="#ECECEC" stroke="black" stroke-width="0.993121"/>
<path d="M344.484 173.809C349.227 170.559 358.128 170.867 365.045 172.042C365.182 170.287 365.343 166.565 366.867 164.653C362.272 162.344 349.797 163.383 344.843 165.089C346.069 156.285 352.178 148.769 357.984 143.89C352.497 145.033 346.839 146.761 344.06 148.424C340.335 152.521 337.882 160.681 337.87 167.292C332.332 168.94 327.162 172.52 324.68 175.869C324.305 179.148 323.81 183.005 324.133 186.03C328.338 181.222 331.728 179.229 335.62 177.526C332.875 186.178 334.024 199.45 336.273 202.744L346.283 201.023C341.409 193.398 342.14 182.253 344.484 173.809Z" fill="#E6E6E6" stroke="black" stroke-width="0.993121"/>
<path d="M191.918 146.732C191.552 141.462 195.054 135.417 199.657 133.056C211.406 127.03 230.161 131.893 242.309 135.718C224.506 116.156 231.035 102.328 236.55 89.366L192.458 102.858C181.421 117.494 179.254 136.541 191.918 146.732Z" fill="url(#paint10_linear)" stroke="black" stroke-width="0.993121"/>
<path d="M203.005 96.6605C204.355 90.7146 209.329 87.5728 213.693 86.7034C228.446 83.7641 230.188 86.9521 238.252 84.8679C235.689 78.8167 233.765 68.9889 235.614 62.5676L200.231 72.7542C197.469 77.2972 194.28 93.8246 203.005 96.6605Z" fill="url(#paint11_linear)" stroke="black" stroke-width="0.998421"/>
<path d="M148.851 70.0024C148.851 70.7512 148.539 71.4693 147.985 71.9988C147.43 72.5282 146.677 72.8257 145.892 72.8257C145.108 72.8257 144.355 72.5282 143.8 71.9988C143.246 71.4693 142.934 70.7512 142.934 70.0024C142.934 69.2537 143.246 68.5356 143.8 68.0061C144.355 67.4766 145.108 67.1792 145.892 67.1792C146.677 67.1792 147.43 67.4766 147.985 68.0061C148.539 68.5356 148.851 69.2537 148.851 70.0024Z" fill="#D9D9D9" stroke="black" stroke-width="0.794496" stroke-linecap="square"/>
<path d="M244.918 139.39L182.65 152.24C158.05 187.366 174.513 223.918 186.159 234.112C186.696 226.137 187.306 214.664 204.606 209.514C226.506 202.994 240.04 217.339 252.476 229.523C232.052 204.522 235.249 185.818 234.943 177.583C234.643 169.48 236.912 153.101 244.918 139.39Z" fill="url(#paint12_linear)" stroke="black" stroke-width="0.993121"/>
<path d="M268.134 142.602C270.968 137.949 272.904 132.395 283.431 129.293C290.482 127.216 304.756 128.437 310.425 131.863C297.704 118.823 300.658 107.335 304.582 98.4976L268.134 109.927C258.595 123.109 260.28 137.816 268.134 142.602Z" fill="url(#paint13_linear)" stroke="black" stroke-width="0.993121"/>
<path d="M267.293 107.505C261.501 109.449 262.69 112.357 268.004 110.574L305.076 98.1381C308.553 96.9718 308.025 93.8378 303.7 95.2891L267.293 107.505Z" fill="#ECECEC" stroke="black" stroke-width="0.7"/>
<path d="M191.716 146.273C185.523 134.504 187.888 111.344 191.131 104.74" stroke="black" stroke-width="0.695184"/>
<path d="M182.941 152.213C177.091 173.05 172.979 204.831 185.891 233.487" stroke="black" stroke-width="0.993121"/>
<path d="M183.446 149.423C174.177 151.371 175.79 154.599 184.57 152.736L244.241 140.08C250.545 138.744 251.471 134.948 244.083 136.501L183.446 149.423Z" fill="#ECECEC" stroke="black" stroke-width="0.8"/>
<path d="M122.075 158.916C117.897 151.941 118.028 139.395 119.409 130.213" stroke="black" stroke-width="0.595872"/>
<path d="M127.064 94.6711C124.772 102.713 126.909 110.588 129.585 113.483" stroke="black" stroke-width="0.595872"/>
<path d="M267.862 141.831C264.449 135.752 264.28 121.746 267.369 111.051" stroke="black" stroke-width="0.993121"/>
<path d="M202.071 55.4457C206.832 56.1389 208.224 53.7398 209.261 53.0443C211.159 51.771 213.556 50.846 218.423 52.1357L218.487 57.7822C210.3 55.6404 211.176 61.0825 204.616 59.9239C200.399 58.8035 197.817 58.1058 190.809 60.508C192.088 57.8005 196.531 54.639 202.071 55.4457H202.071Z" fill="url(#paint14_linear)" stroke="black" stroke-width="0.8"/>
<path d="M265.704 77.8929C274.387 78.5813 273.835 75.3875 277.987 76.3326C282.017 77.25 284.508 75.333 288.245 76.3785C288.432 78.2654 288.29 82.2069 288.29 82.2069C286.289 81.4867 284.834 80.214 281.901 81.4726C277.866 83.2042 276.706 80.6121 273.892 80.6006C271.078 80.5891 268.79 81.7429 265.704 77.8929V77.8929Z" fill="url(#paint15_linear)" stroke="black" stroke-width="0.8"/>
<path d="M50.556 200.152C50.2674 211.536 61.864 220.299 66.5729 224.383" stroke="black" stroke-width="0.596"/>
<path d="M88.7086 233.653C82.3356 233.046 72.208 228.785 68.8871 226.357C66.0117 224.255 67.6304 220.192 67.4727 210.248" stroke="black" stroke-width="0.596"/>
<path d="M88.2587 238.059C73.4693 236.021 70.4939 227.146 67.1129 225.209" stroke="black" stroke-width="0.696"/>
<path d="M89.7884 249.165C78.7801 243.931 72.3298 232.672 67.1129 224.658" stroke="black" stroke-width="0.793"/>
<path d="M69.4721 223.607C69.4721 224.864 69.0028 226.069 68.1676 226.957C67.3323 227.846 66.1994 228.345 65.0182 228.345C63.8369 228.345 62.7041 227.846 61.8688 226.957C61.0335 226.069 60.5643 224.864 60.5643 223.607C60.5643 222.35 61.0335 221.145 61.8688 220.257C62.7041 219.368 63.8369 218.869 65.0182 218.869C66.1994 218.869 67.3323 219.368 68.1676 220.257C69.0028 221.145 69.4721 222.35 69.4721 223.607Z" fill="#D9D9D9" stroke="black" stroke-width="0.595872" stroke-linecap="square"/>
<path d="M194.34 99.9037C187.47 101.922 188.12 104.651 194.627 102.727L238.848 89.6492C243.519 88.2677 244.005 85.3148 238.529 86.9233L194.34 99.9037Z" fill="#ECECEC" stroke="black" stroke-width="0.7"/>
<path d="M200.466 71.0972C195.675 72.5038 196.314 74.5254 200.616 73.253L234.203 63.3199C237.751 62.2706 238.121 60.0278 233.961 61.2495L200.466 71.0972Z" fill="#ECECEC" stroke="black" stroke-width="0.7"/>
<path d="M113.651 163.613C107.722 164.659 107.934 168.482 113.453 167.531L166.456 158.392C169.425 157.88 174.836 152.669 168.829 153.873L113.651 163.613Z" fill="#ECECEC" stroke="black" stroke-width="0.8"/>
<path d="M123.175 125.265C126.413 131.456 130.208 138.014 137.794 146.319" stroke="black" stroke-width="0.49656" stroke-linecap="round"/>
<path d="M139.909 141.134C135.184 140.882 131.304 137.769 127.626 133.561" stroke="black" stroke-width="0.49656" stroke-linecap="round"/>
<path d="M129.208 137.018C130.765 137.77 132.828 136.381 132.057 134.693C131.692 133.893 130.107 132.146 129.047 131.848C127.749 131.483 126.317 132.442 126.68 134.056C126.975 135.367 128.495 136.674 129.208 137.018Z" fill="#ECECEC" stroke="black" stroke-width="0.665901"/>
<path d="M129.333 91.6133C133.326 95.3967 134.399 101.229 139.909 106.484" stroke="black" stroke-width="0.49656" stroke-linecap="round"/>
<path d="M142.968 102.354C137.929 101.62 132.71 96.6177 132.71 96.6177" stroke="black" stroke-width="0.49656" stroke-linecap="round"/>
<path d="M133.3 98.6521C134.402 99.1627 135.734 97.9806 135.118 96.7023C134.826 96.0968 133.652 94.8119 132.913 94.6307C132.009 94.4092 131.084 95.2259 131.418 96.4659C131.689 97.4732 132.795 98.4183 133.3 98.6521Z" fill="#ECECEC" stroke="black" stroke-width="0.537024"/>
<path d="M216.209 240.538C216.149 244.744 221.87 242.66 221.859 240.62L220.781 49.9413L218.948 49.7363L216.209 240.538Z" fill="#ECECEC" stroke="black" stroke-width="0.9"/>
<path d="M152.956 238.15L153.046 243.199C162.444 244.394 179.665 244.846 190.659 243.474C191.369 239.247 192.274 235.259 197.947 235.305C227.852 235.548 281.374 236.222 325.003 219.059C325.104 215.622 326.766 211.295 331.841 203.823L354.877 200.243C357.468 201.938 355.363 212.62 352.267 213.644C348.902 214.756 346.628 231.559 342.999 236.498C335.03 247.344 328.924 259.387 323.563 273.763C322.219 277.366 313.978 280.141 310.245 280.555C242.815 288.036 177.778 301.324 109.045 279.087L91.498 252.928C87.6385 247.174 87.5177 235.348 89.3384 227.87C107.493 232.886 130.457 236.492 152.956 238.15H152.956Z" fill="url(#paint16_linear)" stroke="black" stroke-width="0.993121"/>
<path d="M222.591 49.2803C222.591 50.029 222.279 50.7472 221.724 51.2766C221.17 51.8061 220.417 52.1035 219.632 52.1035C218.848 52.1035 218.095 51.8061 217.54 51.2766C216.985 50.7472 216.674 50.029 216.674 49.2803C216.674 48.5315 216.985 47.8134 217.54 47.2839C218.095 46.7545 218.848 46.457 219.632 46.457C220.417 46.457 221.17 46.7545 221.724 47.2839C222.279 47.8134 222.591 48.5315 222.591 49.2803Z" fill="#D9D9D9" stroke="black" stroke-width="0.994114" stroke-linecap="square"/>
<path d="M154.733 239.443C158.759 241.557 185.25 242.385 189.346 240.676L190.427 244.505C180.327 245.948 163.958 245.453 154.796 243.337L154.732 239.703L154.732 239.443H154.733Z" fill="#E3DEDB" stroke="black" stroke-width="0.993121"/>
<path d="M324.379 214.003C324.379 214.327 321.945 219.973 321.945 219.973C267.198 241.416 211.552 231.587 194.818 237.626C192.518 238.456 193.73 241.763 192.654 243.792C189.615 249.521 183 245.742 183.556 240.936C184.293 234.565 188.554 232.478 194.802 230.845C208.376 227.296 262.533 237.411 324.379 214.003Z" fill="url(#paint17_linear)" stroke="black" stroke-width="0.993121"/>
<path d="M150.122 240.767C150.042 245.686 158.535 246.867 157.815 239.436C156.803 228.984 117.065 233.797 102.791 230.418C107.511 234.002 127.89 235.591 138.443 236.884C146.748 237.901 150.16 238.339 150.122 240.767Z" fill="url(#paint18_linear)" stroke="black" stroke-width="0.993121"/>
<path d="M90.497 223.442C90.0607 224.841 89.4872 226.806 89.0348 229.236" stroke="black" stroke-width="0.993121"/>
<path d="M41.4422 136.421C41.4476 135.113 44.7632 134.711 44.7344 136.292L43.8491 184.921C43.8162 186.731 41.2361 186.183 41.2404 185.158L41.4422 136.421Z" fill="#ECECEC" stroke="black" stroke-width="0.993121"/>
<path d="M13.5958 156.829C15.8539 151.357 21.1683 151.955 26.6026 148.298C31.8028 144.799 37.5292 138.726 43.2556 138.423C45.9786 138.279 45.8938 142.297 43.3192 142.285C40.4596 142.272 40.8851 145.214 43.5101 145.303C45.8065 145.381 45.958 149.256 43.5101 149.067C41.0005 148.873 39.2419 161.987 42.6511 161.95C45.1648 161.923 45.0646 165.871 42.4603 165.682C40.5754 165.546 40.4328 167.439 42.9056 169.284C45.9604 171.563 44.1872 176.754 41.7949 174.663C37.9189 171.275 32.7771 170.337 28.9634 171.019C16.9428 173.168 16.5547 167.26 6.26224 169.908C7.8743 161.305 10.316 164.777 13.5958 156.829Z" fill="url(#paint19_linear)" stroke="black" stroke-width="0.794496"/>
<path d="M46.4388 134.756C46.1539 135.639 45.5394 136.398 44.7306 136.865C43.9217 137.333 42.9847 137.471 42.1258 137.249C41.2668 137.027 40.5562 136.464 40.1503 135.682C39.7444 134.901 39.6764 133.966 39.9613 133.083C40.2462 132.2 40.8607 131.442 41.6695 130.974C42.4784 130.506 43.4153 130.368 44.2743 130.59C45.1333 130.812 45.8439 131.376 46.2498 132.157C46.6557 132.938 46.7237 133.873 46.4388 134.756Z" fill="#D9D9D9" stroke="black" stroke-width="1.03674" stroke-linecap="square"/>
<path d="M25.0582 149.359L30.7387 145.506C29.4629 149.778 29.283 152.506 29.3354 154.11C34.1131 152.693 37.3515 151.157 41.5377 150.982C41.7887 151.998 40.3185 153.723 42.7784 153.707C44.4255 153.697 44.1965 156.725 42.0785 157.017C38.7527 157.476 35.2347 158.308 29.7348 160.652C28.5753 164.029 28.6507 167.575 29.4167 170.971L23.9766 171.328C23.2945 169.018 23.1108 165.468 23.7221 161.485C20.8935 162.129 13.6225 165.122 6.27051 169.867C7.37547 165.16 22.7148 156.998 23.9425 156.399C23.9653 154.49 24.3283 151.389 25.0582 149.359Z" fill="#D9D9D9" stroke="black" stroke-width="0.794496"/>
<path d="M38.2402 187.311C37.1821 189.82 40.5194 192.372 42.1223 191C43.3429 189.955 44.2733 188.321 44.9744 186.942C45.9626 184.998 42.7067 182.464 40.8601 183.734C39.697 184.533 38.7654 186.066 38.2402 187.311Z" fill="#D9D9D9" stroke="black" stroke-width="0.794496"/>
<path d="M21.7441 168.115C21.9618 168.427 22.1067 168.796 22.1707 169.201C22.2346 169.605 22.2163 170.038 22.1168 170.474C22.0173 170.909 21.8385 171.339 21.5906 171.739C21.3427 172.139 21.0307 172.502 20.6722 172.805C20.3137 173.109 19.9159 173.348 19.5015 173.509C19.087 173.671 18.664 173.75 18.2567 173.744C17.8493 173.738 17.4656 173.646 17.1273 173.474C16.7891 173.302 16.503 173.052 16.2855 172.74C16.0678 172.428 15.9228 172.059 15.8588 171.654C15.7949 171.249 15.8132 170.817 15.9127 170.381C16.0123 169.946 16.1911 169.516 16.4389 169.116C16.6868 168.715 16.9989 168.353 17.3573 168.049C17.7158 167.746 18.1136 167.507 18.5281 167.345C18.9425 167.184 19.3655 167.105 19.7729 167.111C20.1802 167.117 20.564 167.208 20.9022 167.381C21.2404 167.553 21.5265 167.803 21.7441 168.115Z" fill="#D9D9D9" stroke="black" stroke-width="0.796265" stroke-linecap="square"/>
<path d="M111.744 169.679C125.256 185.938 133.257 200.829 148.907 197.536" stroke="black" stroke-width="0.595872"/>
<path d="M119.258 179.271C123.275 182.448 133.234 190.22 147.799 187.264C150.21 192.532 156.421 195.434 158.715 194.92" stroke="black" stroke-width="0.595872" stroke-linecap="round"/>
<path d="M148.367 197.077C150.989 199.664 154.853 201.617 162.719 201.529" stroke="black" stroke-width="0.595872" stroke-linecap="round"/>
<path d="M122.103 183.825C124.048 184.528 126.129 182.295 124.893 180.201C124.307 179.209 122.125 177.19 120.845 176.995C119.279 176.756 117.833 178.299 118.584 180.372C119.195 182.056 121.212 183.503 122.103 183.825Z" fill="#ECECEC" stroke="black" stroke-width="0.794496"/>
<path d="M192.368 104.236C197.213 114.845 204.925 122.951 214.144 130.211" stroke="black" stroke-width="0.595872" stroke-linecap="round"/>
<path d="M216.124 124.612C209.009 122.216 203.218 119.014 199.618 115.02" stroke="black" stroke-width="0.596" stroke-linecap="round"/>
<path d="M212.525 86.7969L208.115 79.0869" stroke="black" stroke-width="0.595872"/>
<path d="M203.526 73.4873L215.404 85.7866" stroke="black" stroke-width="0.595872"/>
<path d="M182.178 154.787C185.511 161.116 197.373 178.262 209.431 188.242" stroke="black" stroke-width="0.595872"/>
<path d="M210.399 181.06C201.669 178.543 196.568 173.274 191.515 168.814" stroke="black" stroke-width="0.595872"/>
<path d="M270.923 110.89C273.21 117.43 279.591 124.505 284.33 128.284" stroke="black" stroke-width="0.596" stroke-linecap="round"/>
<path d="M288.109 122.226C278.458 121.663 278.358 119.413 274.702 117.729" stroke="black" stroke-width="0.595872"/>
<path d="M174.552 92.395C174.878 102.961 179.846 113.841 183.954 120.15" stroke="black" stroke-width="0.993121"/>
<path d="M174.387 92.2009C176.169 98.6698 177.524 105.577 186.249 113.323" stroke="black" stroke-width="0.993121"/>
<path d="M328.782 200.703C311.363 198.006 302.352 188.091 296.928 179.959" stroke="black" stroke-width="0.993121"/>
<path d="M293.823 181.198C298.544 189.549 307.049 201.054 328.242 207.127" stroke="black" stroke-width="0.993121"/>
<path d="M290.883 85.9038C292.213 89.3479 295.674 94.5657 298.326 96.9849" stroke="black" stroke-width="0.993121"/>
<path d="M120.495 127.893C99.2684 150.216 74.7411 173.309 51.3659 191.248" stroke="black" stroke-width="0.595872"/>
<path d="M44.3473 185.098C61.9369 177.157 86.7997 162.871 115.408 142.898" stroke="black" stroke-width="0.595872"/>
<path d="M115.603 151.905C95.8475 166.212 74.5213 184.651 55.9859 195.07" stroke="black" stroke-width="0.595872"/>
<path d="M53.0756 192.717C58.6241 188.401 65.4561 186.791 72.6184 184.29" stroke="black" stroke-width="0.595872"/>
<path d="M230.459 211.546L313.71 109.055C316.286 105.883 320.794 105.716 316.274 111.028L233.654 208.113L230.459 211.546Z" fill="#ECECEC" stroke="black" stroke-width="0.993121"/>
<path d="M290.872 79.1023C292.405 83.8246 297.8 91.006 302.91 95.5881" stroke="black" stroke-width="0.993121"/>
<path d="M253.466 194.461C260.729 193.082 259.917 189.18 262.735 186.2C271.781 176.633 281.155 178.295 287.75 181.152C294.83 184.219 301.156 177.7 300.797 167.017C299.814 152.132 300.733 157.571 300.505 151.011C300.192 141.958 311.178 136.663 309.435 119.289L231.691 211.441C238.218 210.759 249.104 195.289 253.466 194.461Z" fill="url(#paint20_linear)" stroke="black" stroke-width="0.993121"/>
<path d="M134.19 245.707L140.421 156.216" stroke="black" stroke-width="0.993121"/>
<path d="M88.4836 240.72C175.144 271.284 252 253.674 317.534 239.068V235.03C251.827 251.164 169.351 267.002 89.4284 236.131C86.6493 235.058 86.7769 240.119 88.4836 240.72Z" fill="url(#paint21_linear)" stroke="black" stroke-width="0.993121"/>
<path d="M141.604 156.109L139.492 246.866" stroke="black" stroke-width="0.993121"/>
<path d="M144.41 248.16L144.469 155.178" stroke="black" stroke-width="0.993121"/>
<path d="M145.577 154.833L150.915 231.525" stroke="black" stroke-width="0.993121"/>
<path d="M151.042 230.357L149.897 249.049" stroke="black" stroke-width="0.993121"/>
<path d="M203.186 247.73L204.1 228.348" stroke="black" stroke-width="0.993121"/>
<path d="M210.066 228.638L209.161 247.33" stroke="black" stroke-width="0.993121"/>
<path d="M211.151 228.196L210.543 247.735" stroke="black" stroke-width="0.993121"/>
<path d="M216.797 228.44L215.934 247.896" stroke="black" stroke-width="0.993121"/>
<path d="M217.782 228.196L217.962 247.514" stroke="black" stroke-width="0.993121"/>
<path d="M224.13 228.71L221.744 247.779" stroke="black" stroke-width="0.993121"/>
<path d="M225.455 228.779L227.267 246.842" stroke="black" stroke-width="0.993121"/>
<path d="M230.71 227.234L228.755 246.467" stroke="black" stroke-width="0.993121"/>
<path d="M230.703 227.372L222.05 138.715" stroke="black" stroke-width="0.993121"/>
<path d="M221.668 137.417L224.699 228.677" stroke="black" stroke-width="0.993121"/>
<path d="M210.597 227.372L216.96 137.158" stroke="black" stroke-width="0.993121"/>
<path d="M216.069 136.638L204.489 227.891" stroke="black" stroke-width="0.993121"/>
<path d="M210.239 179.569C214.981 180.658 221.214 181.301 226.061 178.824" stroke="black" stroke-width="0.993121"/>
<path d="M211.946 170.343C215.939 171.284 221.784 170.895 225.613 170.128" stroke="black" stroke-width="0.993121"/>
<path d="M213.077 161.775C216.232 162.562 220.903 162.504 224.285 161.776" stroke="black" stroke-width="0.993121"/>
<path d="M209.808 187.584C214.887 188.812 221.035 188.786 226.504 187.132" stroke="black" stroke-width="0.993121"/>
<path d="M207.925 199.204C214.538 200.822 223.304 200.755 228.015 198.675" stroke="black" stroke-width="0.993121"/>
<path d="M206.677 210.84C213.167 213.095 222.058 213.226 229.232 210.974" stroke="black" stroke-width="0.993121"/>
<path d="M138.317 182.265C145.507 183.887 147.67 182.005 147.67 182.005" stroke="black" stroke-width="0.993121"/>
<path d="M138.317 188.495C139.282 189.798 148.046 189.748 148.243 189.079" stroke="black" stroke-width="0.993121"/>
<path d="M137.426 196.803C142.22 198.838 145.434 197.88 149.133 197.841" stroke="black" stroke-width="0.993121"/>
<path d="M137.108 205.305C141.213 206.332 145.261 206.588 149.197 205.37" stroke="black" stroke-width="0.993121"/>
<path d="M136.154 220.816C136.886 223.742 149.359 222.9 150.406 221.141" stroke="black" stroke-width="0.993121"/>
<path d="M136.917 213.093C139.939 213.843 143.127 214.52 149.642 213.742" stroke="black" stroke-width="0.993121"/>
<path d="M215.844 135.239C213.116 135.019 213.449 139.806 215.318 140.204C217.671 140.704 221.152 140.563 223.598 139.873C224.85 139.52 225.326 134.896 223.028 135.05C220.31 135.233 218.074 135.419 215.844 135.239Z" fill="#ECECEC" stroke="black" stroke-width="0.995"/>
<path d="M217.46 88.3994C215.469 88.2399 215.712 91.7118 217.077 92.0001C218.795 92.3631 221.337 92.2602 223.122 91.7601C224.036 91.504 224.384 88.1504 222.706 88.2623C220.722 88.3945 219.089 88.5299 217.46 88.3994Z" fill="#ECECEC" stroke="black" stroke-width="0.723866"/>
<path d="M142.367 111.527C140.315 111.361 140.565 114.989 141.972 115.29C143.743 115.67 146.363 115.562 148.203 115.039C149.145 114.772 149.504 111.267 147.775 111.384C145.729 111.522 144.046 111.664 142.367 111.527Z" fill="#ECECEC" stroke="black" stroke-width="0.751291"/>
<path d="M140.287 152.725C137.673 152.512 137.992 157.142 139.783 157.527C142.039 158.011 145.376 157.874 147.72 157.207C148.92 156.865 149.377 152.393 147.174 152.542C144.569 152.718 142.426 152.899 140.287 152.725Z" fill="#ECECEC" stroke="black" stroke-width="0.957761"/>
<path d="M215.425 215.344C212.596 215.085 212.941 220.715 214.88 221.183C217.32 221.772 220.931 221.605 223.467 220.794C224.765 220.378 225.259 214.94 222.876 215.121C220.057 215.336 217.739 215.555 215.425 215.344Z" fill="#ECECEC" stroke="black" stroke-width="1.09862"/>
<path d="M202.502 248.738L202.507 259.036" stroke="black" stroke-width="0.993121"/>
<path d="M203.44 248.812L204.171 259.109" stroke="black" stroke-width="0.993121"/>
<path d="M208.595 248.864C208.595 248.864 208.664 259.12 208.346 259.12" stroke="black" stroke-width="0.993121"/>
<path d="M210.189 248.35L210.976 259.193" stroke="black" stroke-width="0.993121"/>
<path d="M216.01 249.106L216.534 258.83" stroke="black" stroke-width="0.993121"/>
<path d="M217.981 248.653L219.089 258.541" stroke="black" stroke-width="0.993121"/>
<path d="M222.058 248.985C222.058 249.244 223.068 258.005 223.068 258.005" stroke="black" stroke-width="0.993121"/>
<path d="M226.695 247.881L227.077 257.292" stroke="black" stroke-width="0.993121"/>
<path d="M228.397 247.947L228.476 258.33" stroke="black" stroke-width="0.993121"/>
<path d="M133.948 247.417L132.855 253.997" stroke="black" stroke-width="0.993121"/>
<path d="M139.131 247.935L137.518 254.292" stroke="black" stroke-width="0.993121"/>
<path d="M144.015 249.187C143.888 250.809 143.014 255.382 143.014 255.382" stroke="black" stroke-width="0.993121"/>
<path d="M149.77 248.4L148.45 256.685" stroke="black" stroke-width="0.993121"/>
<path d="M278.01 241.682C278.074 242.136 278.805 251.255 278.805 251.255" stroke="black" stroke-width="0.993121"/>
<path d="M279.505 241.78L280.778 249.957" stroke="black" stroke-width="0.993121"/>
<path d="M284.946 240.319L285.868 249.568" stroke="black" stroke-width="0.993121"/>
<path d="M290.895 239.249L291.595 249.698" stroke="black" stroke-width="0.993121"/>
<path d="M297.289 238.535L296.939 248.984" stroke="black" stroke-width="0.993121"/>
<path d="M319.972 234.77C316.33 234.472 324.722 208.344 330.534 204.721C339.412 199.188 356.323 199.989 356.176 202.514C355.838 208.351 352.484 212.684 349.368 213.353C342.674 214.789 333.484 213.248 329.135 212.184L322.136 232.629L319.972 234.77Z" fill="#ECECEC" stroke="black" stroke-width="0.993121"/>
<path d="M329.58 221.595L327.639 225.262L347.682 225.522L348.732 221.562L329.58 221.595V221.595Z" fill="black"/>
<path d="M331.934 210.043L349.4 209.913L353.599 205.11C356.682 201.585 342.136 201.691 337.311 204.007C335.033 205.1 333.182 207.022 331.934 210.043Z" fill="black" stroke="black" stroke-width="0.993121"/>
<path d="M337.039 204.494C336.016 204.922 335.644 207.328 341.217 207.06C345.619 206.848 352.903 207.719 353.408 204.17C353.568 203.045 343.477 201.803 337.039 204.494Z" fill="url(#paint22_linear)"/>
<path d="M337.279 214.811L336.07 217.667H334.161L335.275 214.844L337.279 214.811V214.811Z" fill="black"/>
<path d="M333.275 214.811L332.066 217.667H330.157L331.27 214.844L333.275 214.811V214.811Z" fill="black"/>
<path d="M341.283 214.811L340.074 217.667H338.166L339.279 214.844L341.283 214.811V214.811Z" fill="black"/>
<path d="M345.288 214.811L344.079 217.667H342.17L343.283 214.844L345.288 214.811V214.811Z" fill="black"/>
<path d="M349.292 214.811L348.083 217.667H346.174L347.287 214.844L349.292 214.811V214.811Z" fill="black"/>
<path d="M154.129 145.869C163.615 144.554 173.909 139.588 183.635 130.692" stroke="black" stroke-width="0.993121"/>
<path d="M259.585 144.346C263.026 155.11 273.595 158.955 292.339 156.186C314.894 152.855 318.097 140.977 319.693 137.646L259.585 144.346Z" fill="url(#paint23_linear)" stroke="black" stroke-width="0.993121"/>
<path d="M262.365 142.597C253.885 143.522 255.163 145.786 263.198 144.899L317.801 138.87C323.569 138.233 324.615 135.692 317.855 136.429L262.365 142.597H262.365Z" fill="#ECECEC" stroke="black" stroke-width="0.8"/>
<path d="M260.395 147.375C273.383 159.097 297.331 160.026 315.824 142.969C317.178 143.79 310.157 161.938 289.009 162.06C270.899 162.165 258.735 154.782 260.395 147.375Z" fill="url(#paint24_radial)" stroke="black" stroke-width="0.993121"/>
<path d="M285.066 225.018L291.441 223.708L290.896 74.1018L288.668 73.9409L285.066 225.018Z" fill="#ECECEC" stroke="black" stroke-width="0.9"/>
<path d="M281.901 188.403C283.953 189.598 292.201 189.983 294.588 188.219" stroke="black" stroke-width="0.993121"/>
<path d="M282.306 180.051C285.175 181.625 290.541 182.182 293.823 181.336" stroke="black" stroke-width="0.993121"/>
<path d="M262.706 147.991C262.954 146.068 261.248 144.846 259.208 145.836C258.18 146.334 256.638 148.134 256.745 149.337C256.875 150.81 258.449 152.399 260.364 151.244C261.919 150.305 262.592 148.871 262.706 147.991Z" fill="#CCCCCC" stroke="black" stroke-width="0.904408"/>
<path d="M218.759 228.279C218.759 228.743 218.572 229.187 218.239 229.515C217.906 229.843 217.454 230.027 216.982 230.027C216.511 230.027 216.059 229.843 215.726 229.515C215.393 229.187 215.206 228.743 215.206 228.279C215.206 227.816 215.393 227.371 215.726 227.044C216.059 226.716 216.511 226.532 216.982 226.532C217.454 226.532 217.906 226.716 218.239 227.044C218.572 227.371 218.759 227.816 218.759 228.279Z" fill="#ECECEC" stroke="black" stroke-width="0.379564" stroke-linecap="square"/>
<path d="M230.163 247.42C230.163 247.983 229.923 248.523 229.498 248.921C229.072 249.318 228.494 249.542 227.892 249.542C227.29 249.542 226.712 249.318 226.286 248.921C225.86 248.523 225.621 247.983 225.621 247.42C225.621 246.858 225.86 246.318 226.286 245.92C226.712 245.522 227.29 245.299 227.892 245.299C228.494 245.299 229.072 245.522 229.498 245.92C229.923 246.318 230.163 246.858 230.163 247.42Z" fill="#ECECEC" stroke="black" stroke-width="0.472764" stroke-linecap="square"/>
<path d="M223.965 248.043C223.965 248.577 223.734 249.089 223.325 249.467C222.915 249.845 222.359 250.057 221.78 250.057C221.2 250.057 220.645 249.845 220.235 249.467C219.825 249.089 219.595 248.577 219.595 248.043C219.595 247.509 219.825 246.997 220.235 246.62C220.645 246.242 221.2 246.03 221.78 246.03C222.359 246.03 222.915 246.242 223.325 246.62C223.734 246.997 223.965 247.509 223.965 248.043Z" fill="#ECECEC" stroke="black" stroke-width="0.451762" stroke-linecap="square"/>
<path d="M219.119 248.692C219.119 249.32 218.875 249.921 218.44 250.365C218.005 250.808 217.416 251.057 216.801 251.057C216.186 251.057 215.596 250.808 215.161 250.365C214.727 249.921 214.482 249.32 214.482 248.692C214.482 248.065 214.727 247.464 215.161 247.02C215.596 246.577 216.186 246.327 216.801 246.327C217.416 246.327 218.005 246.577 218.44 247.02C218.875 247.464 219.119 248.065 219.119 248.692Z" fill="#ECECEC" stroke="black" stroke-width="0.504359" stroke-linecap="square"/>
<path d="M211.525 248.14C211.525 248.649 211.313 249.138 210.936 249.498C210.56 249.858 210.048 250.06 209.516 250.06C208.983 250.06 208.471 249.858 208.095 249.498C207.718 249.138 207.506 248.649 207.506 248.14C207.506 247.631 207.718 247.143 208.095 246.783C208.471 246.422 208.983 246.22 209.516 246.22C210.048 246.22 210.56 246.422 210.936 246.783C211.313 247.143 211.525 247.631 211.525 248.14Z" fill="#ECECEC" stroke="black" stroke-width="0.423075" stroke-linecap="square"/>
<path d="M205.016 248.14C205.016 248.73 204.8 249.296 204.414 249.713C204.029 250.131 203.507 250.365 202.962 250.365C202.417 250.365 201.895 250.131 201.509 249.713C201.124 249.296 200.908 248.73 200.908 248.14C200.908 247.55 201.124 246.984 201.509 246.567C201.895 246.149 202.417 245.915 202.962 245.915C203.507 245.915 204.029 246.149 204.414 246.567C204.8 246.984 205.016 247.55 205.016 248.14Z" fill="#ECECEC" stroke="black" stroke-width="0.460513" stroke-linecap="square"/>
<path d="M203.018 257.312C200.127 257.37 200.914 261.626 202.917 261.537C210.693 261.189 219.613 260.814 229.338 260.072C230.877 259.955 229.837 255.774 228.962 255.856C220.212 256.679 211.215 257.148 203.018 257.312H203.018Z" fill="url(#paint25_linear)" stroke="black" stroke-width="1.12196"/>
<path d="M206.589 228.215C206.589 228.783 206.327 229.328 205.862 229.729C205.397 230.131 204.765 230.357 204.107 230.357C203.449 230.357 202.818 230.131 202.353 229.729C201.887 229.328 201.626 228.783 201.626 228.215C201.626 227.647 201.887 227.102 202.353 226.701C202.818 226.299 203.449 226.073 204.107 226.073C204.765 226.073 205.397 226.299 205.862 226.701C206.327 227.102 206.589 227.647 206.589 228.215Z" fill="#ECECEC" stroke="black" stroke-width="0.49656" stroke-linecap="square"/>
<path d="M212.81 228.053C212.81 228.523 212.607 228.973 212.246 229.305C211.885 229.637 211.395 229.824 210.884 229.824C210.373 229.824 209.882 229.637 209.521 229.305C209.16 228.973 208.957 228.523 208.957 228.053C208.957 227.584 209.16 227.133 209.521 226.801C209.882 226.469 210.373 226.282 210.884 226.282C211.395 226.282 211.885 226.469 212.246 226.801C212.607 227.133 212.81 227.584 212.81 228.053Z" fill="#ECECEC" stroke="black" stroke-width="0.397844" stroke-linecap="square"/>
<path d="M226.669 228.248C226.669 228.731 226.447 229.195 226.052 229.537C225.657 229.879 225.122 230.071 224.563 230.071C224.005 230.071 223.469 229.879 223.075 229.537C222.68 229.195 222.458 228.731 222.458 228.248C222.458 227.764 222.68 227.301 223.075 226.959C223.469 226.617 224.005 226.425 224.563 226.425C225.122 226.425 225.657 226.617 226.052 226.959C226.447 227.301 226.669 227.764 226.669 228.248Z" fill="#ECECEC" stroke="black" stroke-width="0.422003" stroke-linecap="square"/>
<path d="M232.539 228.832C232.539 229.303 232.346 229.755 232.001 230.087C231.657 230.42 231.19 230.607 230.703 230.607C230.216 230.607 229.749 230.42 229.405 230.087C229.061 229.755 228.867 229.303 228.867 228.832C228.867 228.361 229.061 227.91 229.405 227.577C229.749 227.244 230.216 227.057 230.703 227.057C231.19 227.057 231.657 227.244 232.001 227.577C232.346 227.91 232.539 228.361 232.539 228.832Z" fill="#E6E6E6" stroke="black" stroke-width="0.388851" stroke-linecap="square"/>
<path d="M136.41 246.664C136.41 247.272 136.148 247.855 135.682 248.286C135.216 248.716 134.584 248.957 133.925 248.957C133.266 248.957 132.633 248.716 132.167 248.286C131.701 247.855 131.439 247.272 131.439 246.664C131.439 246.056 131.701 245.472 132.167 245.042C132.633 244.612 133.266 244.371 133.925 244.371C134.584 244.371 135.216 244.612 135.682 245.042C136.148 245.472 136.41 246.056 136.41 246.664Z" fill="#ECECEC" stroke="black" stroke-width="0.514222" stroke-linecap="square"/>
<path d="M141.321 248.21C141.075 248.751 140.638 249.174 140.106 249.387C139.574 249.6 138.991 249.585 138.485 249.345C137.979 249.105 137.592 248.66 137.408 248.108C137.225 247.556 137.26 246.943 137.506 246.402C137.753 245.861 138.19 245.438 138.722 245.225C139.254 245.012 139.837 245.028 140.342 245.267C140.848 245.507 141.236 245.952 141.419 246.504C141.603 247.056 141.568 247.67 141.321 248.21Z" fill="#ECECEC" stroke="black" stroke-width="0.468409" stroke-linecap="square"/>
<path d="M146.069 248.924C145.904 249.453 145.558 249.888 145.109 250.135C144.659 250.381 144.143 250.419 143.672 250.239C143.202 250.059 142.816 249.677 142.601 249.177C142.385 248.676 142.356 248.098 142.522 247.569C142.687 247.041 143.032 246.605 143.481 246.359C143.931 246.112 144.448 246.075 144.918 246.254C145.388 246.434 145.774 246.816 145.99 247.317C146.205 247.818 146.234 248.396 146.069 248.924Z" fill="#ECECEC" stroke="black" stroke-width="0.428797" stroke-linecap="square"/>
<path d="M151.354 248.867C151.354 249.398 151.163 249.907 150.822 250.282C150.481 250.658 150.019 250.869 149.537 250.869C149.055 250.869 148.592 250.658 148.252 250.282C147.911 249.907 147.719 249.398 147.719 248.867C147.719 248.335 147.911 247.826 148.252 247.451C148.592 247.075 149.055 246.864 149.537 246.864C150.019 246.864 150.481 247.075 150.822 247.451C151.163 247.826 151.354 248.335 151.354 248.867Z" fill="#E6E6E6" stroke="black" stroke-width="0.41089" stroke-linecap="square"/>
<path d="M130.649 252.651C129.535 252.434 128.449 256.236 129.854 256.707C135.506 258.601 141.921 259.157 149.388 259.466C151.413 259.549 151.565 255.053 149.833 255.15C142.847 255.539 136.911 253.871 130.649 252.651Z" fill="url(#paint26_linear)" stroke="black" stroke-width="0.993121"/>
<path d="M153.422 232.46C153.422 233.107 153.164 233.727 152.706 234.184C152.247 234.642 151.625 234.899 150.976 234.899C150.328 234.899 149.706 234.642 149.247 234.184C148.788 233.727 148.531 233.107 148.531 232.46C148.531 231.813 148.788 231.193 149.247 230.736C149.706 230.278 150.328 230.021 150.976 230.021C151.625 230.021 152.247 230.278 152.706 230.736C153.164 231.193 153.422 231.813 153.422 232.46Z" fill="#D9D9D9" stroke="black" stroke-width="0.526024" stroke-linecap="square"/>
<path d="M146.765 231.428C146.765 231.941 146.566 232.432 146.213 232.795C145.859 233.157 145.38 233.361 144.88 233.361C144.38 233.361 143.901 233.157 143.547 232.795C143.194 232.432 142.995 231.941 142.995 231.428C142.995 230.915 143.194 230.423 143.547 230.061C143.901 229.698 144.38 229.495 144.88 229.495C145.38 229.495 145.859 229.698 146.213 230.061C146.566 230.423 146.765 230.915 146.765 231.428Z" fill="#D9D9D9" stroke="black" stroke-width="0.411163" stroke-linecap="square"/>
<path d="M142.204 230.601C142.204 231.146 141.986 231.669 141.598 232.054C141.209 232.439 140.683 232.655 140.134 232.655C139.584 232.655 139.058 232.439 138.669 232.054C138.281 231.669 138.063 231.146 138.063 230.601C138.063 230.057 138.281 229.534 138.669 229.149C139.058 228.764 139.584 228.547 140.134 228.547C140.683 228.547 141.209 228.764 141.598 229.149C141.986 229.534 142.204 230.057 142.204 230.601Z" fill="#D9D9D9" stroke="black" stroke-width="0.444202" stroke-linecap="square"/>
<path d="M137.096 230.051C137.096 230.638 136.847 231.2 136.404 231.615C135.961 232.03 135.361 232.263 134.735 232.263C134.108 232.263 133.508 232.03 133.065 231.615C132.622 231.2 132.373 230.638 132.373 230.051C132.373 229.464 132.622 228.901 133.065 228.486C133.508 228.071 134.108 227.838 134.735 227.838C135.361 227.838 135.961 228.071 136.404 228.486C136.847 228.901 137.096 229.464 137.096 230.051Z" fill="#D9D9D9" stroke="black" stroke-width="0.492354" stroke-linecap="square"/>
<path d="M193.448 173.015C195.238 173.79 197.343 171.854 196.31 169.834C195.821 168.878 193.89 166.869 192.696 166.606C191.233 166.286 189.771 167.624 190.348 169.592C190.817 171.191 192.628 172.66 193.448 173.015Z" fill="#ECECEC" stroke="black" stroke-width="0.861122"/>
<path d="M200.23 119.051C202.09 119.724 204.087 117.605 202.909 115.61C202.351 114.665 200.267 112.739 199.042 112.55C197.544 112.319 196.156 113.784 196.871 115.758C197.451 117.361 199.379 118.742 200.23 119.051Z" fill="#ECECEC" stroke="black" stroke-width="0.595872"/>
<path d="M209.051 82.0239C210.418 82.7363 212.228 81.4205 211.551 79.8209C211.23 79.0633 209.84 77.4078 208.91 77.1252C207.771 76.7795 206.515 77.6882 206.833 79.2172C207.091 80.4592 208.425 81.6977 209.051 82.0239Z" fill="#ECECEC" stroke="black" stroke-width="0.670122"/>
<path d="M276.42 121.829C278.217 122.46 280.082 119.984 278.907 117.846C278.351 116.833 276.31 114.828 275.132 114.696C273.691 114.534 272.036 115.924 272.766 118.068C273.358 119.809 275.597 121.541 276.42 121.829Z" fill="#E6E6E6" stroke="black" stroke-width="0.904408"/>
<path d="M65.7394 184.852C64.276 186.596 65.6187 189.629 68.154 189.164C69.3547 188.944 72.1951 187.467 72.8974 186.215C73.7572 184.682 72.8316 182.577 70.5114 182.548C68.6266 182.523 66.4095 184.053 65.7394 184.852Z" fill="#ECECEC" stroke="black" stroke-width="0.595872"/>
<path d="M278.877 241.061V222.888" stroke="black" stroke-width="0.993121"/>
<path d="M281.129 240.789C281.129 241.478 280.864 242.138 280.393 242.625C279.922 243.112 279.283 243.385 278.616 243.385C277.95 243.385 277.311 243.112 276.84 242.625C276.369 242.138 276.104 241.478 276.104 240.789C276.104 240.101 276.369 239.44 276.84 238.954C277.311 238.467 277.95 238.193 278.616 238.193C279.283 238.193 279.922 238.467 280.393 238.954C280.864 239.44 281.129 240.101 281.129 240.789Z" fill="#ECECEC" stroke="black" stroke-width="0.595872" stroke-linecap="square"/>
<path d="M285.001 223.346C285.001 223.805 284.686 237.848 284.686 237.848" stroke="black" stroke-width="0.993121"/>
<path d="M287.046 238.702C287.046 239.366 286.817 240.004 286.409 240.474C286.001 240.944 285.447 241.208 284.87 241.208C284.293 241.208 283.74 240.944 283.332 240.474C282.924 240.004 282.694 239.366 282.694 238.702C282.694 238.037 282.924 237.4 283.332 236.93C283.74 236.46 284.293 236.196 284.87 236.196C285.447 236.196 286.001 236.46 286.409 236.93C286.817 237.4 287.046 238.037 287.046 238.702Z" fill="#ECECEC" stroke="black" stroke-width="0.595872" stroke-linecap="square"/>
<path d="M290.958 237.206C290.958 231.974 290.913 222.383 290.913 222.383" stroke="black" stroke-width="0.993121"/>
<path d="M293.219 238.472C293.219 239.042 292.97 239.588 292.526 239.991C292.083 240.394 291.481 240.62 290.854 240.62C290.227 240.62 289.625 240.394 289.182 239.991C288.738 239.588 288.489 239.042 288.489 238.472C288.489 237.903 288.738 237.357 289.182 236.954C289.625 236.551 290.227 236.325 290.854 236.325C291.481 236.325 292.083 236.551 292.526 236.954C292.97 237.357 293.219 237.903 293.219 238.472Z" fill="#ECECEC" stroke="black" stroke-width="0.595872" stroke-linecap="square"/>
<path d="M296.034 221.079L296.428 236.774" stroke="black" stroke-width="0.993121"/>
<path d="M297.25 220.896L298.085 236.682" stroke="black" stroke-width="0.993121"/>
<path d="M299.733 237.462C299.733 238.09 299.49 238.692 299.057 239.136C298.623 239.58 298.036 239.83 297.423 239.83C296.81 239.83 296.222 239.58 295.789 239.136C295.356 238.692 295.112 238.09 295.112 237.462C295.112 236.834 295.356 236.232 295.789 235.788C296.222 235.344 296.81 235.095 297.423 235.095C298.036 235.095 298.623 235.344 299.057 235.788C299.49 236.232 299.733 236.834 299.733 237.462Z" fill="#ECECEC" stroke="black" stroke-width="0.595872" stroke-linecap="square"/>
<path d="M279.307 254.741C285.426 253.922 291.801 252.79 300.051 250.396C301.996 249.832 300.192 245.659 299 246.052C291.291 248.597 284.824 249.21 278.701 250.523C277.124 251.147 278.658 254.775 279.307 254.741Z" fill="url(#paint27_linear)" stroke="black" stroke-width="1.04483"/>
<path d="M286.799 223.554C286.799 224.061 286.6 224.547 286.246 224.905C285.892 225.264 285.411 225.465 284.91 225.465C284.409 225.465 283.929 225.264 283.574 224.905C283.22 224.547 283.021 224.061 283.021 223.554C283.021 223.047 283.22 222.561 283.574 222.203C283.929 221.845 284.409 221.643 284.91 221.643C285.411 221.643 285.892 221.845 286.246 222.203C286.6 222.561 286.799 223.047 286.799 223.554Z" fill="#ECECEC" stroke="black" stroke-width="0.595872" stroke-linecap="square"/>
<path d="M293.05 222.683C293.05 223.216 292.836 223.728 292.454 224.105C292.072 224.482 291.555 224.694 291.015 224.694C290.475 224.694 289.958 224.482 289.576 224.105C289.195 223.728 288.98 223.216 288.98 222.683C288.98 222.15 289.195 221.638 289.576 221.261C289.958 220.884 290.475 220.672 291.015 220.672C291.555 220.672 292.072 220.884 292.454 221.261C292.836 221.638 293.05 222.15 293.05 222.683Z" fill="#ECECEC" stroke="black" stroke-width="0.595872" stroke-linecap="square"/>
<path d="M298.441 220.859C298.441 221.403 298.209 221.924 297.797 222.308C297.384 222.692 296.825 222.908 296.242 222.908C295.658 222.908 295.099 222.692 294.687 222.308C294.274 221.924 294.043 221.403 294.043 220.859C294.043 220.316 294.274 219.795 294.687 219.411C295.099 219.027 295.658 218.811 296.242 218.811C296.825 218.811 297.384 219.027 297.797 219.411C298.209 219.795 298.441 220.316 298.441 220.859Z" fill="#ECECEC" stroke="black" stroke-width="0.595872" stroke-linecap="square"/>
<path d="M296.568 218.876L290.629 135.535" stroke="black" stroke-width="0.993121"/>
<path d="M285.153 207.892C282.582 207.444 282.877 212.324 284.652 212.742C286.731 213.23 290.037 213.092 292.544 212.418C293.743 212.096 294.108 207.081 292.001 207.707C289.587 208.425 287.347 208.274 285.153 207.892Z" fill="#ECECEC" stroke="black" stroke-width="0.959805"/>
<path d="M282.981 173.717C285.67 174.861 290.076 175.096 293.599 174.13" stroke="black" stroke-width="0.993121"/>
<path d="M278.615 222.893L286.49 135.259" stroke="black" stroke-width="0.993121"/>
<path d="M283.611 167.339C286.798 168.252 289.96 168.168 293.059 167.247" stroke="black" stroke-width="0.993121"/>
<path d="M305.042 98.302C305.66 104.023 304.245 111.216 308.536 115.434" stroke="black" stroke-width="0.993121"/>
<path d="M324.103 179.959C314.871 170.477 317.218 155.409 315.644 144.438" stroke="black" stroke-width="0.993121"/>
<path d="M284.038 161.441C284.968 162.363 291.138 162.72 292.474 161.556" stroke="black" stroke-width="0.993121"/>
<path d="M284.33 156.37C285.518 156.445 289.733 157.416 291.799 156.186" stroke="black" stroke-width="0.993121"/>
<path d="M285.291 149.05C287.608 150.243 289.5 149.904 291.511 149.142" stroke="black" stroke-width="0.993121"/>
<path d="M285.549 143.612C286.87 144.545 290.857 144.332 291.393 143.956" stroke="black" stroke-width="0.993121"/>
<path d="M326.712 168.302C321.205 164.35 318.414 153.451 317.354 144.897" stroke="black" stroke-width="0.993121"/>
<path d="M309.75 118.829C309.88 125.422 316.297 130.392 317.444 136.292" stroke="black" stroke-width="0.993121"/>
<path d="M313.777 136.544C313.835 135.358 311.257 132.262 309.598 131.213" stroke="black" stroke-width="0.993121"/>
<path d="M318.301 144.578C319.87 143.506 319.621 140.578 317.387 140.175C316.329 139.984 313.33 140.193 312.499 141.074C311.481 142.153 312.067 144.564 313.849 144.975C315.513 145.358 317.583 145.069 318.301 144.578Z" fill="#CCCCCC" stroke="black" stroke-width="0.893173"/>
<path d="M286.345 131.725C284.262 131.532 284.516 135.728 285.943 136.076C287.74 136.515 290.038 136.299 291.905 135.695C292.861 135.385 293.584 131.424 291.83 131.559C289.755 131.719 288.048 131.882 286.345 131.725H286.345Z" fill="#ECECEC" stroke="black" stroke-width="0.813741"/>
<path d="M339.41 241.647L336.56 246.052C330.092 246.831 316.683 244.994 316.536 237.496C316.447 232.903 327.074 226.216 346.214 228.761L344.579 233.145C339.064 231.998 326.88 231.939 324.681 236.263C322.573 240.407 330.419 241.236 339.41 241.647Z" fill="url(#paint28_linear)" stroke="black" stroke-width="0.993121"/>
<path d="M279.921 210.615C283.467 212.334 289.803 213.791 295.983 210.707" stroke="black" stroke-width="0.993121"/>
<path d="M279.561 215.664C284.563 217.281 291.131 217.44 296.568 215.388" stroke="black" stroke-width="0.993121"/>
<path d="M281.001 195.471C283.769 196.928 291.504 196.552 295.128 195.654" stroke="black" stroke-width="0.993121"/>
<path d="M280.506 202.354C282.366 204.35 293.699 204.341 295.488 202.859" stroke="black" stroke-width="0.993121"/>
<path d="M292.005 74.0075C292.005 74.6427 291.74 75.2519 291.27 75.7011C290.799 76.1503 290.161 76.4026 289.495 76.4026C288.829 76.4026 288.191 76.1503 287.72 75.7011C287.249 75.2519 286.985 74.6427 286.985 74.0075C286.985 73.3722 287.249 72.763 287.72 72.3138C288.191 71.8647 288.829 71.6123 289.495 71.6123C290.161 71.6123 290.799 71.8647 291.27 72.3138C291.74 72.763 292.005 73.3722 292.005 74.0075Z" fill="#D9D9D9" stroke="black" stroke-width="0.843384" stroke-linecap="square"/>
<path d="M287.712 94.1519C286.131 93.8607 285.862 97.0229 287.213 97.4083C288.362 97.7358 290.223 97.64 292.062 97.189C293.138 96.9253 293.105 93.5804 291.506 93.9941C289.962 94.3936 289.112 94.4098 287.712 94.1519Z" fill="#ECECEC" stroke="black" stroke-width="0.619551"/>
<path d="M200.695 283.53C233.395 282.775 243.967 271.644 278.17 271.418C320.118 271.141 340.792 306.406 397.496 284.248C397.712 291.173 397.019 304.788 395.976 310.623C346.509 336.366 322.084 301.698 275.647 301.358C237.558 301.079 232.326 313.76 197.461 314.201C162.856 314.639 151.359 303.053 111.544 302.986C69.8518 302.916 50.7881 327.898 5.50551 317.56C3.87087 310.056 2.61947 293.138 3.00558 281.436C29.5427 301.76 81.0917 271.471 109.542 270.763C153.596 269.667 154.05 284.608 200.695 283.53Z" fill="#F2F2F2"/>
<path d="M280.801 224.192C280.801 224.764 280.57 225.312 280.158 225.717C279.747 226.121 279.189 226.348 278.607 226.348C278.026 226.348 277.468 226.121 277.056 225.717C276.645 225.312 276.414 224.764 276.414 224.192C276.414 223.62 276.645 223.072 277.056 222.667C277.468 222.263 278.026 222.036 278.607 222.036C279.189 222.036 279.747 222.263 280.158 222.667C280.57 223.072 280.801 223.62 280.801 224.192Z" fill="#ECECEC" stroke="black" stroke-width="0.595872" stroke-linecap="square"/>
<path d="M205.286 220.73C211.938 223.275 222.996 223.407 230.171 220.831" stroke="black" stroke-width="0.993121"/>
<path fill-rule="evenodd" clip-rule="evenodd" d="M0 0.0118577L400 0L400 3.00483C399.992 139.602 399.987 208.908 399.984 244.067C399.983 261.646 399.982 270.688 399.981 275.336L399.98 280.222L399.98 280.231C399.98 280.232 399.98 280.233 399.98 280.234C400.235 350.455 375.447 403.371 337.905 438.719C300.405 474.027 250.367 491.633 200.372 491.634C150.377 491.634 100.278 474.029 62.653 438.724C24.9853 403.379 0.00422501 350.465 0.00337853 280.241L0 0.0118577ZM396.995 6.00923C396.98 274.349 396.976 280.161 396.976 280.241C397.986 558.088 3.0113 558.095 3.00795 280.241L3.00461 3.01634L396.995 3.00466C396.995 4.00983 396.995 5.01135 396.995 6.00923Z" fill="black"/>
</g>
<defs>
<linearGradient id="paint0_linear" x1="17.0786" y1="184.634" x2="61.7697" y2="184.634" gradientUnits="userSpaceOnUse">
<stop stop-color="white"/>
<stop offset="1" stop-color="#CCCCCC"/>
</linearGradient>
<linearGradient id="paint1_linear" x1="58.9588" y1="219.013" x2="104.468" y2="219.013" gradientUnits="userSpaceOnUse">
<stop stop-color="#D9D9D9"/>
<stop offset="1" stop-color="#E6E6E6"/>
</linearGradient>
<linearGradient id="paint2_linear" x1="51.4848" y1="205.201" x2="91.7336" y2="205.201" gradientUnits="userSpaceOnUse">
<stop stop-color="white"/>
<stop offset="1" stop-color="#CCCCCC"/>
</linearGradient>
<linearGradient id="paint3_linear" x1="98.1416" y1="191.74" x2="179.948" y2="191.74" gradientUnits="userSpaceOnUse">
<stop stop-color="white"/>
<stop offset="1" stop-color="#CCCCCC"/>
</linearGradient>
<linearGradient id="paint4_linear" x1="123.372" y1="101.528" x2="154.508" y2="101.528" gradientUnits="userSpaceOnUse">
<stop stop-color="white"/>
<stop offset="1" stop-color="#CCCCCC"/>
</linearGradient>
<linearGradient id="paint5_linear" x1="114.808" y1="139.252" x2="159.705" y2="139.252" gradientUnits="userSpaceOnUse">
<stop stop-color="white"/>
<stop offset="1" stop-color="#CCCCCC"/>
</linearGradient>
<linearGradient id="paint6_linear" x1="116.649" y1="77.5767" x2="145.982" y2="77.5767" gradientUnits="userSpaceOnUse">
<stop stop-color="#D9D9D9"/>
<stop offset="1" stop-color="#E6E6E6"/>
</linearGradient>
<linearGradient id="paint7_linear" x1="238.543" y1="213.24" x2="247.043" y2="213.24" gradientUnits="userSpaceOnUse">
<stop stop-color="white"/>
<stop offset="1" stop-color="#CCCCCC"/>
</linearGradient>
<linearGradient id="paint8_linear" x1="358.247" y1="176.218" x2="394.726" y2="176.218" gradientUnits="userSpaceOnUse">
<stop stop-color="white"/>
<stop offset="1" stop-color="#CCCCCC"/>
</linearGradient>
<linearGradient id="paint9_linear" x1="323.514" y1="169.387" x2="380.276" y2="169.387" gradientUnits="userSpaceOnUse">
<stop stop-color="white"/>
<stop offset="1" stop-color="#CCCCCC"/>
</linearGradient>
<linearGradient id="paint10_linear" x1="182.771" y1="118.049" x2="242.809" y2="118.049" gradientUnits="userSpaceOnUse">
<stop stop-color="white"/>
<stop offset="1" stop-color="#CCCCCC"/>
</linearGradient>
<linearGradient id="paint11_linear" x1="196.806" y1="79.6141" x2="238.756" y2="79.6141" gradientUnits="userSpaceOnUse">
<stop stop-color="white"/>
<stop offset="1" stop-color="#CCCCCC"/>
</linearGradient>
<linearGradient id="paint12_linear" x1="169.376" y1="186.751" x2="252.977" y2="186.751" gradientUnits="userSpaceOnUse">
<stop stop-color="white"/>
<stop offset="1" stop-color="#CCCCCC"/>
</linearGradient>
<linearGradient id="paint13_linear" x1="261.096" y1="120.55" x2="310.926" y2="120.55" gradientUnits="userSpaceOnUse">
<stop stop-color="white"/>
<stop offset="1" stop-color="#CCCCCC"/>
</linearGradient>
<linearGradient id="paint14_linear" x1="190.304" y1="56.0115" x2="218.993" y2="56.0115" gradientUnits="userSpaceOnUse">
<stop stop-color="#D9D9D9"/>
<stop offset="1" stop-color="#E6E6E6"/>
</linearGradient>
<linearGradient id="paint15_linear" x1="265.199" y1="79.1317" x2="288.847" y2="79.1317" gradientUnits="userSpaceOnUse">
<stop stop-color="#D9D9D9"/>
<stop offset="1" stop-color="#E6E6E6"/>
</linearGradient>
<linearGradient id="paint16_linear" x1="87.6999" y1="245.808" x2="356.544" y2="245.808" gradientUnits="userSpaceOnUse">
<stop stop-color="#D9D9D9"/>
<stop offset="1" stop-color="#E6E6E6"/>
</linearGradient>
<linearGradient id="paint17_linear" x1="183.017" y1="230.341" x2="324.884" y2="230.341" gradientUnits="userSpaceOnUse">
<stop stop-color="white"/>
<stop offset="1" stop-color="#CCCCCC"/>
</linearGradient>
<linearGradient id="paint18_linear" x1="102.285" y1="237.575" x2="158.364" y2="237.575" gradientUnits="userSpaceOnUse">
<stop stop-color="#D9D9D9"/>
<stop offset="1" stop-color="#E6E6E6"/>
</linearGradient>
<linearGradient id="paint19_linear" x1="5.85782" y1="156.784" x2="45.6941" y2="156.784" gradientUnits="userSpaceOnUse">
<stop stop-color="white"/>
<stop offset="1" stop-color="#CCCCCC"/>
</linearGradient>
<linearGradient id="paint20_linear" x1="231.19" y1="165.365" x2="310.123" y2="165.365" gradientUnits="userSpaceOnUse">
<stop stop-color="white"/>
<stop offset="1" stop-color="#CCCCCC"/>
</linearGradient>
<linearGradient id="paint21_linear" x1="86.7542" y1="246.29" x2="318.039" y2="246.29" gradientUnits="userSpaceOnUse">
<stop stop-color="white"/>
<stop offset="1" stop-color="#CCCCCC"/>
</linearGradient>
<linearGradient id="paint22_linear" x1="336.429" y1="204.981" x2="353.41" y2="204.981" gradientUnits="userSpaceOnUse">
<stop stop-color="white"/>
<stop offset="1" stop-color="#CCCCCC"/>
</linearGradient>
<linearGradient id="paint23_linear" x1="259.085" y1="147.349" x2="320.194" y2="147.349" gradientUnits="userSpaceOnUse">
<stop stop-color="white"/>
<stop offset="1" stop-color="#CCCCCC"/>
</linearGradient>
<radialGradient id="paint24_radial" cx="0" cy="0" r="1" gradientUnits="userSpaceOnUse" gradientTransform="translate(288.115 152.515) scale(28.3714 10.0568)">
<stop stop-color="white"/>
<stop offset="1" stop-color="#CCCCCC"/>
</radialGradient>
<linearGradient id="paint25_linear" x1="200.553" y1="258.697" x2="230.697" y2="258.697" gradientUnits="userSpaceOnUse">
<stop stop-color="white"/>
<stop offset="1" stop-color="#CCCCCC"/>
</linearGradient>
<linearGradient id="paint26_linear" x1="128.682" y1="256.054" x2="151.534" y2="256.054" gradientUnits="userSpaceOnUse">
<stop stop-color="#D9D9D9"/>
<stop offset="1" stop-color="#E6E6E6"/>
</linearGradient>
<linearGradient id="paint27_linear" x1="277.48" y1="250.384" x2="301.441" y2="250.384" gradientUnits="userSpaceOnUse">
<stop stop-color="white"/>
<stop offset="1" stop-color="#CCCCCC"/>
</linearGradient>
<linearGradient id="paint28_linear" x1="316.03" y1="237.209" x2="346.719" y2="237.209" gradientUnits="userSpaceOnUse">
<stop stop-color="white"/>
<stop offset="1" stop-color="#CCCCCC"/>
</linearGradient>
<clipPath id="clip0">
<rect width="400" height="491.63" fill="white"/>
</clipPath>
</defs>
</svg>
