<svg width="400" height="485" viewBox="0 0 400 485" fill="none" xmlns="http://www.w3.org/2000/svg">
<g clip-path="url(#clip0)">
<path d="M400 279.579C400 322.443 392.93 360.568 379 392.924C366.85 421.084 349.496 444.986 327.411 463.989C320.863 469.612 307.044 479.646 297.552 484.99C297.281 475.004 287.4 458.165 270.589 458.444C251.787 458.757 245.288 475.937 244.398 480.668C239.555 465.694 225.123 445.431 199.934 445.431C174.877 445.431 160.417 465.666 155.574 480.641C154.712 476.18 148.101 458.416 129.383 458.416C112.391 458.416 103.123 474.274 102.427 484.969C91.8163 478.95 81.8144 471.917 72.5615 463.968C50.4758 445.007 33.1426 421.105 21.0003 392.924C7.06967 360.575 0 322.443 0 279.579V233.049C0 152.959 21.5221 91.774 63.9749 51.193C93.4992 23.0117 127.637 10.598 151.086 5.15662C175.552 -0.52834 193.477 -0.0273399 195.467 0.0422435H204.506C206.503 -0.0273399 224.42 -0.507465 248.886 5.15662C272.356 10.598 306.494 22.9908 335.997 51.193C378.478 91.767 400 152.959 400 233.049V279.579Z" fill="white"/>
<path d="M379 392.924C392.93 360.568 400 322.443 400 279.579V233.049C400 152.959 378.478 91.767 335.997 51.193C306.494 22.9908 272.356 10.598 248.886 5.15662C224.42 -0.507465 206.503 -0.0273399 204.506 0.0422435H195.467C193.477 -0.0273399 175.552 -0.52834 151.086 5.15662C127.637 10.598 93.4992 23.0117 63.9749 51.193C21.5221 91.774 0 152.959 0 233.049V279.579C0 322.443 7.06967 360.575 21.0003 392.924C33.1426 421.105 50.4758 445.007 72.5615 463.968C81.8144 471.917 91.8163 478.95 102.427 484.969C103.123 474.274 112.391 458.416 129.383 458.416C148.101 458.416 154.712 476.18 155.574 480.641C160.417 465.666 174.877 445.431 199.934 445.431C225.123 445.431 239.555 465.694 244.398 480.668C245.288 475.937 251.787 458.757 270.589 458.444C287.4 458.165 297.281 475.004 297.552 484.99C307.044 479.646 320.863 469.612 327.411 463.989C349.496 444.986 366.85 421.084 379 392.924ZM194.653 435.377C176.937 436.831 162.032 447.067 155.394 461.589C149.5 453.614 139.556 449.064 128.34 449.064C114.792 449.064 103.15 456.676 98.1891 467.503C88.2141 460.878 78.9436 453.249 70.5227 444.736C62.5902 435.446 62.458 423.805 70.1192 410.118C72.652 405.609 75.665 401.58 78.3439 398.358C79.3181 409.373 82.7555 418.023 88.6283 424.139C95.7606 431.598 106.504 435.356 120.498 435.356H120.915L129.683 435.307L124.443 428.265C117.832 419.359 115.383 407.557 117.582 394.984C119.231 385.492 123.497 376.335 128.924 370.038C130.789 381.505 135.43 390.475 142.75 396.772C155.888 408.03 172.699 406.27 173.402 406.173L180.541 405.358L176.617 399.332C170.98 390.683 167.557 374.122 172.358 360.526C175.914 350.401 183.394 343.012 194.604 338.531V435.377H194.653ZM194.653 329.102C179.358 334.314 168.781 344.146 164.043 357.631C159.353 370.922 161.079 386.174 165.608 397.182C160.738 396.57 154.099 394.823 148.526 390.001C141.366 383.815 137.497 373.983 136.975 360.776L136.655 352.913C136.655 352.913 114.068 365.828 108.877 393.487C106.685 405.177 108.223 416.485 112.802 426.046C105.078 425.05 99.2328 422.399 95.037 418.023C89.0528 411.774 86.3599 401.552 87.021 387.642L87.515 377.087C87.515 377.087 71.3438 388.958 62.3467 405.296C58.0882 413.02 55.8476 420.632 55.5762 427.514C50.0007 420.152 44.9836 412.383 40.5671 404.273C50.1696 337.89 94.2159 323.668 129.627 312.249C143.759 307.691 155.971 303.753 163.702 296.934C182.573 280.324 181.64 260.548 172.782 249.199C165.421 239.75 153.96 237.489 144.942 243.674C143.717 244.509 126.614 256.833 121.854 260.347L116.963 254.223C120.336 253.369 123.57 252.035 126.565 250.264C133.245 246.437 138.095 240.314 139.863 233.453C141.338 227.698 140.544 221.874 137.622 217.031C131.032 206.134 115.355 203.142 102.691 210.414C98.3464 212.917 94.7832 216.579 92.3998 220.99L76.6739 197.541C74.8926 194.263 77.6342 191.765 80.5706 189.977C86.0816 186.623 95.4127 182.754 107.103 179.672L146.57 179.512L133.252 188.057V183.339H125.772V202.349L161.433 179.442L161.385 170.675L112.885 170.883C112.495 167.641 113.226 163.271 115.376 159.959C117.116 157.245 119.496 155.679 122.446 155.248L178.669 155.318V146.46H131.283V111.911L147.475 128.876L173.868 95.6011L194.646 119.12V329.102H194.653ZM101.404 242.909L102.809 242.297C108.585 239.806 125.034 230.015 131.582 226.077C132.466 231.901 129.355 238.421 123.337 242.29C114.952 247.669 104.466 246.214 98.9545 243.974C99.8382 243.612 100.68 243.222 101.404 242.909ZM95.5588 236.271C96.8253 230.607 100.59 222.201 107.089 218.214C113.797 214.088 122.467 214.429 127.505 218.715C121.298 222.452 104.779 232.263 99.4346 234.594C99.4555 234.573 96.3521 235.937 95.5588 236.271ZM199.816 85.7759C196.691 82.6238 192.836 78.3166 191.396 75.0114C188.606 68.6654 186.657 58.04 200.094 37.9026C209.989 50.2466 212.257 62.0271 206.997 73.738C205.229 77.6625 202.105 82.4359 199.816 85.7759ZM319.165 454.373C313.48 459.244 307.725 463.565 301.943 467.42V467.462C301.874 467.51 301.811 467.531 301.811 467.531C296.85 456.704 285.201 449.092 271.653 449.092C260.423 449.092 250.5 453.642 244.606 461.617C237.968 447.122 223.084 436.88 205.389 435.405V394.531L216.536 386.195L232.262 390.454C233.96 392.632 237.537 397.022 240.8 399.764C246.235 404.384 252.038 406.061 257.591 406.061C264.25 406.061 270.589 403.619 275.641 400.849L280.268 398.337L277.046 394.19C266.379 380.413 256.547 374.756 246.123 376.363C241.976 376.996 236.792 379.967 234.092 381.665L225.673 379.397L250.632 360.728L270.679 367.728C272.447 369.857 277.707 375.932 282.279 379.508C288.555 384.379 295.033 386.237 301.268 386.237C309.876 386.237 317.989 382.702 324.328 378.764L328.747 376.022L325.393 372.056C311.615 355.745 299.452 349.337 287.059 351.877C282.168 352.872 276.142 356.768 272.969 359.009L259.33 354.249L273.198 343.875C276.935 343.534 287.922 342.337 295.583 339.867C315.067 333.59 326.256 317.301 328.886 291.45L329.449 285.988L323.987 286.538C295.263 289.391 278.452 298.158 271.09 314.107C267.917 320.996 267.242 332.296 267.103 337.236L236.883 359.823L241.12 342.379C243.883 340.089 249.728 335.107 253.283 330.647C263.477 317.913 263.477 302.619 253.304 285.174L250.66 280.644L246.603 283.977C228.86 298.499 221.727 311.525 224.198 324.934C225.262 330.737 229.973 338.12 232.144 341.286L225.603 368.277L205.459 383.342V271.494L237.878 247.571L252.33 252.713C254.209 254.905 260.172 261.683 265.356 265.579C272.106 270.673 279.022 272.607 285.661 272.607C295.263 272.607 304.309 268.544 311.302 264.062L315.7 261.251L312.276 257.334C296.94 239.687 283.504 232.84 270.025 235.812C264.612 236.994 257.952 241.476 254.529 243.967L246.576 241.156L277.004 218.771L292.751 224.302C295.173 227.135 300.266 232.861 304.775 236.354C311.594 241.657 318.664 243.647 325.441 243.647C334.884 243.647 343.791 239.75 350.749 235.45L355.16 232.708L351.786 228.742C336.7 210.887 323.354 203.887 309.827 206.677C304.031 207.874 296.738 212.793 293.565 215.104L285.723 212.362L296.759 204.276C300.767 203.887 311.914 202.669 319.729 200.15C339.803 193.693 351.354 176.93 354.054 150.308L354.618 144.852L349.162 145.395C319.506 148.338 302.173 157.356 294.581 173.757C291.255 180.938 290.573 192.788 290.462 197.77L268.578 213.858L271.473 197.569C273.177 195.961 278.431 190.861 281.444 186.47C291.074 172.331 285.341 157.809 278.841 148.13L275.87 143.718L272.022 147.385C258.203 160.571 253.123 171.948 255.955 183.186C257.041 187.486 260.576 192.607 262.754 195.481L258.133 221.561L229.764 242.422L232.617 229.445C235.47 226.905 240.188 222.465 243.18 218.499C252.762 205.765 252.4 190.701 242.136 173.736L239.395 169.179L235.387 172.672C218.534 187.305 211.937 200.261 214.637 213.447C215.924 219.724 221.546 227.768 223.286 230.168L218.847 250.466L205.389 260.368V161.288L223.015 143.474C226.055 143.182 233.779 142.319 239.235 140.573C253.938 135.883 262.371 123.81 264.34 104.647L264.904 99.1846L259.449 99.7274C238.059 101.836 225.506 108.356 219.932 120.275C217.65 125.195 217.079 132.988 216.919 136.857L205.389 148.526V93.2492C207.769 89.9648 212.549 83.0761 215.11 77.3424C222.451 60.9207 218.353 44.1998 202.968 27.6599L199.322 23.7215L196.149 28.0704C181.216 48.5071 177.138 64.546 183.276 78.5671C185.593 83.8484 191.187 89.7839 194.673 93.1587V105.732L173.52 81.7818L146.87 115.384L122.425 89.777V146.446C116.441 146.94 111.347 149.974 107.993 155.213C105 160.022 103.65 165.672 104.145 171.315C100.771 172.247 95.5171 173.813 90.0061 175.872C76.7157 180.834 69.2146 185.955 67.0575 191.55C65.8607 194.653 66.2921 197.937 68.2126 200.749L92.7268 237.419C84.8917 240.328 77.2097 241.211 71.4065 233.752L64.7682 238.922C70.0913 245.741 76.5765 247.898 82.7833 247.898C88.1273 247.898 93.2695 246.284 97.2567 244.697L119.843 272.969C119.843 272.969 148.073 252.372 150.07 250.995C155.888 246.959 162.234 249.93 165.901 254.641C174.988 266.31 168.148 281.291 157.954 290.281C151.608 295.848 140.19 299.543 127.004 303.801C93.3391 314.65 47.9429 329.311 34.0959 391.017C33.6227 389.974 33.1426 388.958 32.6903 387.893C19.4346 357.151 12.7338 320.696 12.7338 279.579V233.049C12.7338 156.633 32.9129 98.5653 72.6798 60.4824C120.233 14.8774 181.807 12.6786 193.198 12.6786C194.36 12.6786 194.993 12.7064 195.063 12.7064H204.937C205.619 12.6786 274.715 10.1458 327.251 60.371C367.101 98.4749 387.336 156.563 387.336 233.07V279.6C387.336 320.724 380.628 357.172 367.372 387.914C356.002 414.286 339.783 436.657 319.165 454.373ZM241.524 387.663C243.632 386.487 245.922 385.444 247.459 385.221C251.286 384.63 257.25 385.172 266.33 395.345C258.516 398.358 252.017 397.544 246.555 392.924C244.748 391.299 243.067 389.541 241.524 387.663ZM248.03 294.512C253.666 306.473 253.054 316.507 246.221 325.045C243.952 327.877 240.39 331.141 237.697 333.479C235.728 330.306 233.459 326.159 232.937 323.327C231.894 317.593 232.464 308.505 248.03 294.512ZM280.129 364.944C283.072 363.017 286.516 361.117 288.827 360.637C293.927 359.593 302.013 359.962 314.886 373.733C304.413 378.882 295.514 378.423 287.79 372.418C285.229 370.428 282.272 367.345 280.129 364.944ZM276.142 334.516C276.462 329.241 277.297 321.942 279.175 317.864C282.669 310.301 290.622 300.058 319.186 296.14C316.055 315.081 307.405 326.632 292.793 331.35C287.762 332.929 280.811 333.973 276.142 334.516ZM223.432 211.617C222.277 205.995 222.618 197.116 237.14 183.158C242.804 194.737 242.415 204.569 236.048 213.065C233.96 215.827 230.704 219.021 228.164 221.359C226.076 218.089 223.954 214.192 223.432 211.617ZM261.807 249.833C265.182 247.543 269.288 245.171 272.001 244.558C277.805 243.285 287.045 243.584 301.887 259.171C289.947 265.398 279.732 265.148 270.784 258.377C267.764 256.151 264.257 252.532 261.807 249.833ZM274.263 157.878C278.869 166.736 278.8 174.46 274.068 181.397C272.593 183.548 270.352 186.011 268.425 187.987C266.748 185.558 265.161 182.817 264.667 180.938C263.575 176.547 263.498 169.526 274.263 157.878ZM301.456 220.566C304.629 218.457 308.818 216.029 311.692 215.417C317.495 214.22 326.736 214.63 341.397 230.419C329.366 236.487 319.172 236.104 310.293 229.215C307.343 226.954 303.878 223.3 301.456 220.566ZM299.619 194.917C299.939 189.413 300.802 181.78 302.792 177.494C306.41 169.631 314.712 158.985 344.472 154.949C341.286 174.69 332.268 186.693 317.043 191.584C311.789 193.261 304.448 194.326 299.619 194.917ZM226.076 134.109C226.369 130.441 227.002 126.364 228.066 124.075C230.425 119.044 235.748 112.273 254.578 109.372C252.17 121.514 246.214 128.945 236.521 132.028C233.438 133.002 229.291 133.677 226.076 134.109Z" fill="black"/>
</g>
<defs>
<clipPath id="clip0">
<rect width="400" height="484.99" fill="white"/>
</clipPath>
</defs>
</svg>
