<svg width="400" height="612" viewBox="0 0 400 612" fill="none" xmlns="http://www.w3.org/2000/svg">
<path d="M309.912 125.044L334.6 23.096C317.08 16.724 299.16 11.948 281.24 7.964L275.268 33.448C259.316 30.648 243.232 28.656 227.08 27.476V0.796C217.52 0.396 208.364 0 199.6 0C190.84 0 180.884 0.4 171.328 0.8V27.876C155.4 29.076 139.86 31.064 124.336 33.848L117.964 7.968C99.644 11.548 82.124 16.728 64.6 23.096L89.292 125.044H1.67998C1.67998 125.044 -31.772 446.816 200 611.292C431.772 446.816 398.32 125.044 398.32 125.044H309.912ZM78.54 28.68C88.6421 25.4721 98.8721 22.6817 109.204 20.316V20.716L115.176 45.804L126.328 43.812C141.348 41.0406 156.502 39.0472 171.728 37.84L182.876 37.044V10.356C188.452 9.956 194.028 9.956 199.204 9.956C204.38 9.956 209.16 9.956 214.336 10.356V37.04L225.484 37.84C241.416 39.032 256.948 40.624 272.476 43.408L283.628 45.4L289.6 20.312C299.932 22.676 310.164 25.468 320.268 28.672L301.152 109.12H300.752C286.173 105.565 271.418 102.774 256.548 100.76C246.588 99.56 236.636 98.364 227.08 97.568C217.52 96.776 208.364 96.776 199.204 96.776C190.044 96.776 179.688 97.176 170.132 97.576C160.572 97.976 151.416 99.56 141.856 100.756C126.987 102.772 112.234 105.564 97.656 109.12L78.536 28.68H78.54ZM287.608 434.08C279.648 434.08 272.08 438.06 267.3 444.036C258.94 454.392 262.52 477.084 262.52 477.484L266.904 534.04C246.992 557.532 224.688 578.24 200 596.56C175.312 578.24 153.008 557.132 133.096 534.04L137.48 477.084C137.48 476.688 140.66 453.992 132.696 443.636C127.92 437.26 120.356 433.68 112.384 433.68V432.884C113.584 432.484 144.644 426.512 198.804 426.512H201.196C255.752 426.512 286.42 432.484 287.612 432.884V434.08H287.608ZM288.008 419.34H287.608C258.94 415.76 230.268 413.768 201.196 413.768H198.8C170.128 413.768 141.056 415.76 112.384 419.34H111.984V389.08H112.384C112.384 389.08 131.896 380.716 199.2 381.512H201.588C268.888 380.712 288.004 389.08 288.404 389.08H288.804L288.004 419.344V419.34H288.008ZM190.444 178.012V166.86L199.204 163.672V142.172H200.4V163.672L209.156 166.86V178.016L203.984 181.196V185.18L258.94 224.204L260.528 230.976L254.956 235.352L255.356 234.164C255.356 233.364 255.356 232.964 254.556 232.564C248.584 225.004 215.528 223.812 200 223.812C184.472 223.812 151.016 225.004 145.44 232.568C145.044 232.968 144.644 233.768 144.644 234.168L145.044 235.352L139.472 230.976L140.66 224.604L195.62 185.58V181.592L190.444 178.012ZM256.948 318.588H256.548C238.228 316.996 219.508 316.196 201.196 316.596H198.8C180.484 316.196 161.764 316.996 143.448 318.584H143.048V248.5C143.048 247.304 143.448 246.508 144.248 245.712C147.432 242.132 158.18 236.556 197.608 236.556H202.388C241.408 236.556 252.56 242.132 255.748 245.716C256.544 246.516 256.944 247.304 256.944 248.5V318.588H256.948ZM198.8 329.336H200.792C224.288 328.94 247.784 330.136 271.28 333.72H271.68V338.896L270.88 338.496C265.704 336.904 260.128 338.496 256.544 341.684C249.38 347.656 252.164 367.968 252.164 368.364V368.764H251.764C234.42 367.164 217.012 366.364 199.596 366.372C182.174 365.978 164.745 366.777 147.432 368.764V368.364C147.432 368.364 150.216 347.656 143.048 341.684C139.068 338.1 133.492 336.904 128.712 338.496L127.912 338.896V333.72H128.312C151.808 330.532 175.308 328.94 198.8 329.336ZM89.688 125.044C107.212 120.264 125.132 116.284 143.452 113.896C152.612 112.696 161.764 111.904 170.932 111.108C180.084 110.308 190.04 110.308 199.596 110.308C209.16 110.308 217.92 110.708 227.08 111.108C236.24 111.508 246.192 112.7 255.748 113.896C274.072 116.28 291.992 120.264 309.512 125.048H89.688V125.044Z" fill="#008FB4"/>
<path d="M287.612 434.08C279.644 434.08 272.08 438.06 267.3 444.036C258.94 454.392 262.52 477.084 262.52 477.484L266.904 534.04C246.992 557.532 224.688 578.24 200 596.56C175.312 578.24 153.008 557.132 133.096 534.04L137.48 477.084C137.48 476.688 140.66 453.992 132.696 443.636C127.92 437.26 120.356 433.68 112.384 433.68V432.884C113.584 432.484 144.644 426.512 198.804 426.512H201.196C255.752 426.512 286.42 432.484 287.612 432.884V434.08ZM288.012 419.34H287.612C258.94 415.76 230.268 413.768 201.196 413.768H198.8C170.128 413.768 141.056 415.76 112.384 419.34H111.984V389.08H112.384C112.384 389.08 131.896 380.716 199.2 381.512H201.588C268.888 380.712 288.004 389.08 288.404 389.08H288.804L288.004 419.344V419.34H288.012ZM190.44 178.012V166.86L199.2 163.672V142.172H200.396V163.672L209.152 166.86V178.016L203.98 181.196V185.18L258.936 224.204L260.524 230.976L254.952 235.352L255.352 234.164C255.352 233.364 255.352 232.964 254.552 232.564C248.58 225.004 215.524 223.812 199.996 223.812C184.468 223.812 151.012 225.004 145.436 232.568C145.04 232.968 144.64 233.768 144.64 234.168L145.04 235.352L139.468 230.976L140.656 224.604L195.616 185.58V181.592L190.44 178.012ZM256.944 318.588H256.544C238.224 316.996 219.504 316.196 201.192 316.596H198.8C180.484 316.196 161.764 316.996 143.448 318.584H143.048V248.5C143.048 247.304 143.448 246.508 144.248 245.712C147.432 242.132 158.18 236.556 197.608 236.556H202.388C241.408 236.556 252.56 242.132 255.748 245.716C256.544 246.516 256.944 247.304 256.944 248.5V318.588ZM198.8 329.336H200.792C224.288 328.94 247.784 330.136 271.28 333.72H271.68V338.896L270.88 338.496C265.704 336.904 260.128 338.496 256.544 341.684C249.38 347.656 252.164 367.968 252.164 368.364V368.764H251.764C234.42 367.164 217.012 366.364 199.596 366.372C182.174 365.978 164.745 366.777 147.432 368.764V368.364C147.432 368.364 150.216 347.656 143.048 341.684C139.068 338.1 133.492 336.904 128.712 338.496L127.912 338.896V333.72H128.312C151.808 330.532 175.308 328.94 198.8 329.336Z" fill="white"/>
</svg>
