<svg width="400" height="485" viewBox="0 0 400 485" fill="none" xmlns="http://www.w3.org/2000/svg">
<g clip-path="url(#clip0)">
<path d="M0 0H400V292.71C400 292.739 400 292.768 400 292.798C400 398.516 310.456 484.204 200.005 484.204C89.5537 484.204 0 398.506 0 292.798C0 292.769 0 292.74 0 292.71V0Z" fill="#FFE000"/>
<path d="M310.071 247.193C313.969 245.692 317.123 253.989 315.056 255.779C270.414 294.418 276.397 339.629 258.572 375.375C254.484 383.573 296.974 379.93 344.512 424.562C313.4 457.05 267.598 478.421 223.771 482.935C169.534 488.522 109.211 474.795 64.3989 433.176C78.5679 413.948 101.981 396.509 132.885 384.094C139.737 381.341 127.426 341.855 123.682 319.276C122.022 309.266 92.138 306.029 82.6921 262.406C82.1274 259.798 90.283 255.681 91.0943 258.778C94.322 271.101 100.065 279.337 107.073 287.101C130.208 312.733 136.309 287.752 137.229 280.247C140.328 254.962 141.229 247.688 137.307 232.216C136.491 228.997 142.385 225.793 143.475 227.647C157.439 251.389 148.62 283.689 146.432 295.599C143.469 311.722 150.275 320.827 152.285 331.302C155.264 346.83 154.794 348.376 163.111 366.108C169.539 379.815 179.008 379.036 180.702 363.824C184.39 330.709 181.401 320.36 177.209 292.584C175.54 281.525 158.641 243.349 149.036 226.76C148.177 225.277 157.963 222.252 158.91 224.572C165.162 239.882 161.169 234.645 173.097 251.502C181.872 263.903 186.846 269.05 193.201 248.075C199.84 226.163 208.887 219.515 216.732 206.912C204.105 174.961 234.385 173.883 244.376 157.794C253.792 176.671 268.951 179.629 264.363 197.118C259.627 214.868 242.03 222.552 231.613 211.98C230.609 210.961 227.366 208.967 225.414 211.824C223.566 214.527 219.852 219.508 222.901 220.162C226.812 221.003 227.295 225.419 227.364 227.868C227.593 236.072 227.531 241.719 230.44 253.974C232.616 263.142 236.944 266.562 243.462 251.69C249.156 238.698 261.942 215.371 265.851 219.02C268.074 209.892 263.47 205.114 268.308 196.442C275.862 182.906 293.39 186.124 308.115 176.527C318.02 188.222 321.629 197.854 321.823 208.054C322.172 226.433 294.238 242.494 287.088 231.005C279.018 218.038 276.063 223.605 268.592 220.391C269.914 225.254 243.323 259.848 244.866 273.72C248.227 303.924 240.641 322.155 230.966 366.114C228.906 375.473 231.944 372.999 239.154 365.095C260.936 341.217 256.135 300.529 267.145 282.23C279.736 261.699 267.675 249.677 271.051 229.23C271.644 225.64 281.877 226.487 282.242 231.734C283.345 247.587 288.948 244.241 286.323 262.977C285.268 270.507 289.242 273.709 295.005 265.356C304.935 250.964 306.192 248.687 310.071 247.193" fill="#00823C"/>
<path d="M217.641 225.531C204.331 239.744 198.109 262.415 199.42 275.395C200.261 283.716 199.181 290.602 199.842 300.699C201.667 328.584 204.045 331.982 203.14 362.941C202.838 373.26 206.092 373.222 208.446 364.47C215.294 339.014 221.773 326.661 226.039 303.764C228.007 293.198 226.918 283.951 226.362 274.686C224.907 250.435 218.73 232.94 217.641 225.531Z" fill="#FFE000"/>
<path d="M38.5354 252.147C43.8731 238.157 49.197 223.043 57.4974 209.432C61.4384 202.97 77.8196 197.749 83.5415 202.464C87.2605 205.529 89.7942 209.919 91.9945 213.423C97.1348 211.367 100.638 207.182 107.415 207.255C110.027 209.164 108.346 215.633 107.415 215.708C103.62 216.012 97.9076 217.257 93.4795 220.962C90.978 223.055 93.3831 227.28 94.64 228.201C99.9024 232.056 94.9922 247.588 91.1949 251.004C72.9897 268.042 67.4302 251.974 38.5354 252.147Z" fill="#00823C"/>
<path d="M43.1045 232.042C47.7804 220.486 49.0229 214.895 56.0196 205.162C61.3723 197.716 73.8753 196.21 79.4293 196.86C83.7124 197.361 83.5329 200.851 86.8542 197.774C89.0218 195.765 88.9423 182.661 82.4263 181.314C79.6862 180.747 78.4849 182.667 77.4184 184.141C71.9046 186.862 66.7543 190.117 59.4871 190.683C53.9215 191.117 48.9612 190.963 41.4749 186.079C34.4974 189.316 28.3633 197.132 23.1145 204.742L43.1045 232.042Z" fill="#00823C"/>
<path d="M23.6857 154.824C31.8486 151.236 38.2895 145.956 44.1326 140.088C48.7906 135.411 60.288 130.79 72.3471 135.747C79.4854 138.682 82.5289 140.364 82.5135 151.282C82.5012 159.946 83.8822 168.841 80.5002 174.264C72.8806 186.48 55.6923 191.134 45.2035 182.26C36.5418 174.931 27.8398 166.051 23.6857 154.824Z" fill="#00823C"/>
<path d="M40.2633 95.5342C50.2791 93.0034 58.0207 85.6009 71.7644 87.9417C70.1986 94.6999 70.8139 109.128 89.6453 109.977C89.9231 113.993 90.3984 129.631 84.4456 140.363C82.5552 136.44 73.0846 126.878 54.4792 130.993C53.9302 124.008 49.9917 108.842 40.2633 95.5342Z" fill="#00823C"/>
<path d="M75.9646 54.825C79.4354 68.3527 73.7754 82.7233 76.1261 96.1803C77.8795 106.218 87.9139 107.085 97.773 104.581C103.278 103.182 102.008 96.6205 105.366 93.7571L123.297 113.627L94.219 112.819C92.0387 126.164 95.6459 119.988 85.8187 159.344C84.3395 165.268 89.7066 172.835 99.2269 171.137C110.361 169.151 140.399 159.902 137.351 128.166C136.772 122.136 137.443 117.21 127.497 114.273C128.841 111.825 133.24 112.303 130.405 104.257C128.524 98.9203 124.824 95.1737 115.22 87.4569C118.965 87.8774 125.47 85.2828 127.659 77.6027C121.967 73.4257 117.293 67.8844 118.128 55.1481C109.041 47.4384 90.5195 51.4145 75.9646 54.825Z" fill="#00823C"/>
<path d="M119.42 164.594C121.617 183.322 112.602 185.12 110.535 203.769C108.654 220.739 115.592 235.19 126.528 231.069C131.443 229.218 134.693 225.742 138.805 221.7C142.948 217.628 143.779 224.679 156.413 219.923C164.091 217.032 165.621 200.376 159.321 190.36L151.244 182.687C155.538 181.176 154.728 179.663 154.636 177.76C153.957 163.649 149.292 151.247 140.097 141.251C138.446 139.456 135.716 149.374 137.028 151.751C142.082 160.91 145.741 169.473 148.336 181.152C140.951 173.413 131.664 165.607 119.42 164.594Z" fill="#00823C"/>
<path d="M183.068 154.982C172.291 162.865 163.777 178.175 161.26 189.876C168.001 194.733 169.091 204.133 168.045 208.13C172.857 217.406 213.443 210.65 208.592 196.176C205.351 186.504 206.062 187.753 207.461 183.899C209.642 177.891 188.453 169.467 183.068 154.982Z" fill="#00823C"/>
<path d="M151.244 70.8179C145.805 83.1491 136.784 92.2138 135.251 109.427C134.775 114.779 138.133 124.622 142.036 128.004C144.009 129.714 151.779 129.873 154.959 127.681C158.622 125.158 160.077 123.432 165.944 125.097C169.286 119.906 184.947 105.391 183.391 98.4419C179.793 82.3687 158.724 86.1327 151.244 70.8179Z" fill="#00823C"/>
<path d="M138.714 19.0055C132.657 34.4826 128.579 39.5631 123.522 49.0477C115.046 64.9418 129.335 83.3701 144.54 74.4065C147.332 72.7602 145.735 68.653 148.424 64.1259C149.566 66.5845 151.472 69.7258 154.592 71.8934C162.219 77.1935 171.303 71.7884 175.153 65.4966C168.187 58.0074 167.14 47.1996 170.127 39.4524C155.691 31.7377 154.782 24.1077 138.714 19.0055Z" fill="#00823C"/>
<path d="M195.714 89.9417C188.635 111.606 171.795 115.501 165.786 137.004C164.188 149.744 170.996 158.539 176.067 156.194C180.62 154.089 183.69 147.751 190.688 153.681C193.288 155.885 200.271 152.155 205.081 156.88C208.361 161.038 211.152 165.245 215.59 176.07C217.597 180.966 223.268 176.033 220.845 167.846C219.018 161.677 215.673 156.52 212.62 151.168C218.174 146.976 223.793 130.294 222.444 123.753C213.284 117.124 211.435 107.103 211.478 104.106C200.276 94.4865 200.41 94.2029 195.714 89.9417Z" fill="#00823C"/>
<path d="M237.347 156.598C243.164 159.166 248.354 150.59 248.493 148.359C247.223 140.868 245.89 133.541 248.817 123.966C249.676 127.918 254.195 128.384 257.298 128.489C265.908 128.779 269.164 118.375 273.533 112.658C276.792 108.393 272.547 94.3509 268.721 88.8387C263.246 80.9506 256.882 81.566 253.178 68.0716C235.364 71.7989 229.303 80.0469 222.323 87.9415C222.503 81.2981 217.696 78.2139 212.792 63.71C228.894 62.2807 233.025 44.6995 228.947 37.7014C214.366 12.6844 203.411 22.3163 189.691 9.26965C184.174 18.1378 179.585 27.3091 175.637 37.5398C170.835 49.9829 174.859 64.2934 185.976 70.4948C191.09 73.3478 201.153 70.9385 204.392 67.7485C211.08 72.8964 212.182 89.6995 219.9 92.3032C210.361 105.933 220.447 126.291 232.016 121.704C238.856 118.993 242.945 116.684 242.355 120.735C240.608 132.713 238.053 144.523 237.347 156.598Z" fill="#00823C"/>
<path d="M280.479 13.3082C273.533 17.8492 266.7 19.0935 259.64 20.9008C240.634 25.766 244.657 49.3312 252.532 63.5484C259.234 62.1054 261.151 67.4747 264.971 70.1717C277.67 79.1371 288.193 66.9595 288.233 60.3175C288.27 54.3059 291.309 54.9936 293.403 52.8865C300.962 45.278 279.93 27.6418 280.479 13.3082Z" fill="#00823C"/>
<path d="M330.396 42.7092C317.843 48.6498 304.259 48.6505 294.695 59.5098C288.838 66.1603 287.613 75.5972 289.364 82.7721L276.764 95.1302C277.597 97.9882 277.362 107.249 279.268 103.692C282.795 97.1097 286.8 91.7234 291.545 88.1838C296.474 86.3485 298.582 95.9904 301.833 100.679C304.411 104.397 310.196 103.981 314.398 102.735C318.868 93.1866 327.854 89.508 332.56 84.3444C334.745 81.9469 330.449 78.9062 331.141 71.7735C331.996 62.9512 333.37 50.8153 330.396 42.7092Z" fill="#00823C"/>
<path d="M318.603 248.678C319.181 244.03 317.955 224.081 326.519 217.338C344.164 203.446 355.488 222.292 357.051 229.131C359.203 238.546 360.198 247.212 359.474 258.693C341.61 257.899 328.708 261.309 318.603 248.678Z" fill="#00823C"/>
<path d="M339.281 199.084C337.931 198.896 336.007 207.59 339.12 207.969C346.174 208.827 357.688 213.397 363.19 230.423C364.339 233.981 381.532 230.822 379.021 225.092C375.007 215.936 370.422 203.74 369.328 195.368C368.975 192.663 363.275 191.593 361.897 193.914C359.171 198.507 351.111 200.727 339.281 199.084Z" fill="#00823C"/>
<path d="M312.99 161.525C310.913 160.231 314.72 155.627 317.069 155.83C324.326 156.458 322.518 164.711 331.365 164.594C330.615 159.83 330.417 155.372 333.223 151.671C334.715 149.703 336.855 148.571 340.008 148.359C346.981 152.247 350.603 149.495 353.174 147.551C355.675 145.66 361.398 146.165 364.644 150.136C370.034 156.731 376.059 161.125 381.767 165.16C377.005 177.468 365.859 186.145 359.313 191.007C347.633 199.68 329.428 198.847 324.742 190.199C323.193 187.339 326.39 185.368 325.388 180.183C324.71 176.671 327.216 175.549 328.135 173.237C321.023 172.772 318.469 164.937 312.99 161.525Z" fill="#00823C"/>
<path d="M270.625 187.614C267.818 184.908 267.949 180.344 269.171 178.002C272.209 172.181 276.066 164.784 277.41 157.325C266.432 152.601 262.401 138.454 265.94 130.589C270.811 119.766 281.92 111.457 289.687 110.881C296.067 110.408 301.208 110.238 305.518 107.327C307.784 105.797 316.892 107.078 315.696 110.396C313.851 115.512 313.543 120.857 314.624 125.857C317.024 136.96 316.935 154.52 302.772 163.867C298.287 166.828 292.943 168.077 289.526 165.483C287.198 163.716 283.986 158.08 282.741 162.252C279.704 172.423 275.974 181.812 270.625 187.614Z" fill="#00823C"/>
<path d="M319.652 127.523C320.18 119.743 321.568 112.933 319.86 105.391C318.71 100.313 325.156 89.1714 342.447 89.077C358.572 88.9889 354.285 97.0822 368.771 96.2242C369.722 109.17 359.02 117.672 358.262 135.062C357.778 146.159 337.104 149.839 329.819 139.974C328.515 138.209 328.922 134.056 319.652 127.523Z" fill="#00823C"/>
</g>
<defs>
<clipPath id="clip0">
<rect width="400" height="484.2" fill="white"/>
</clipPath>
</defs>
</svg>
