<svg width="400" height="456" viewBox="0 0 400 456" fill="none" xmlns="http://www.w3.org/2000/svg">
<g clip-path="url(#clip0)">
<path fill-rule="evenodd" clip-rule="evenodd" d="M245.969 429.144H347.473C384.087 429.144 400 406.251 400 378.299V0H200H0V378.299C0 406.251 15.9133 429.144 52.5265 429.144H154.031C181.389 429.144 193.217 446.412 200 457.018C206.783 446.412 218.611 429.144 245.969 429.144Z" fill="#FFE000"/>
<path fill-rule="evenodd" clip-rule="evenodd" d="M135.583 402.958C109.895 402.958 97.0506 414.917 71.3625 414.917C45.6744 414.917 32.8304 402.958 7.14234 402.958C6.39678 402.958 5.92238 402.968 5.19782 402.987C3.53444 399.29 2.07724 395.316 1.28727 391.194C3.23877 391.046 5.03167 390.999 7.14234 390.999C32.8304 390.999 45.6744 402.958 71.3625 402.958C97.0506 402.958 109.895 390.999 135.583 390.999C161.271 390.999 174.115 402.958 199.803 402.958C225.491 402.958 238.335 390.999 264.023 390.999C289.711 390.999 302.555 402.958 328.243 402.958C353.931 402.958 366.775 390.999 392.463 390.999C394.574 390.999 396.793 391.109 398.744 391.258C397.751 395.321 396.616 399.337 394.928 403.053C394.204 403.033 393.209 402.958 392.463 402.958C366.775 402.958 353.931 414.917 328.243 414.917C302.555 414.917 289.711 402.958 264.023 402.958C238.335 402.958 225.491 414.917 199.803 414.917C174.115 414.917 161.271 402.958 135.583 402.958Z" fill="#E00E00"/>
<path fill-rule="evenodd" clip-rule="evenodd" d="M135.656 367.969C109.968 367.969 97.124 379.928 71.4359 379.928C45.7479 379.928 32.9038 367.969 7.21576 367.969C4.65929 367.969 2.3847 368.055 0.0573349 368.268V356.346C2.41288 356.128 4.62534 356.01 7.21576 356.01C32.9038 356.01 45.7479 367.969 71.4359 367.969C97.124 367.969 109.968 356.01 135.656 356.01C161.344 356.01 174.188 367.969 199.876 367.969C225.564 367.969 238.408 356.01 264.097 356.01C289.785 356.01 302.629 367.969 328.317 367.969C354.005 367.969 366.849 356.01 392.537 356.01C395.127 356.01 397.463 356.112 399.819 356.331L399.943 368.316C397.615 368.102 395.093 367.969 392.537 367.969C366.849 367.969 354.005 379.928 328.317 379.928C302.629 379.928 289.785 367.969 264.097 367.969C238.408 367.969 225.564 379.928 199.876 379.928C174.188 379.928 161.344 367.969 135.656 367.969Z" fill="#E00E00"/>
<path fill-rule="evenodd" clip-rule="evenodd" d="M135.78 333.012C110.092 333.012 97.2477 344.971 71.5596 344.971C45.8716 344.971 33.0275 333.012 7.33945 333.012C4.78298 333.012 2.51085 332.938 0.183487 333.151V321.404C2.53903 321.185 4.74903 321.053 7.33945 321.053C33.0275 321.053 45.8716 333.012 71.5596 333.012C97.2477 333.012 110.092 321.053 135.78 321.053C161.468 321.053 174.312 333.012 200 333.012C225.688 333.012 238.532 321.053 264.22 321.053C289.908 321.053 302.752 333.012 328.44 333.012C354.128 333.012 366.972 321.053 392.661 321.053C395.251 321.053 397.587 321.138 399.943 321.356V333.357C397.615 333.144 395.217 333.012 392.661 333.012C366.972 333.012 354.128 344.971 328.44 344.971C302.752 344.971 289.908 333.012 264.22 333.012C238.532 333.012 225.688 344.971 200 344.971C174.312 344.971 161.468 333.012 135.78 333.012Z" fill="#E00E00"/>
<path fill-rule="evenodd" clip-rule="evenodd" d="M333.932 269.004L335.441 278.006L199.228 281.09L125.876 270.025C138.711 258.426 146.042 260.771 154.548 260.14L197.148 269.118C198.943 272.967 206.749 267.021 211.97 265.287L211.348 259.233L277.523 262.976L277.075 267.273L284.233 267.101L284.067 269.663L333.932 269.004Z" fill="#E00E00"/>
<path d="M23.5555 234.118L117.698 263.553" stroke="black" stroke-width="6" stroke-linecap="round"/>
<path fill-rule="evenodd" clip-rule="evenodd" d="M96.3369 258.936C99.292 265.269 98.4595 272.335 99.5347 280.676C100.765 290.218 105.225 292.998 108.297 298.889L143.344 296.259L183.444 304.211L220.219 305.43L257.441 296.86L299.715 298.889L330.862 304.083L345.763 299.017C346.786 295.119 347.633 286.729 347.426 278.88C347.167 269.059 347.174 266.164 344.932 261.052C342.994 256.632 333.193 262.337 334.175 268.658C334.444 270.39 335.855 275.489 335.403 275.546C291.7 277.786 247.828 280.577 207.62 278.56C187.319 277.495 169.642 277.666 146.926 272.596L128.251 268.427C117.469 266.021 107.06 262.539 96.3369 258.936Z" fill="#E00E00" stroke="black" stroke-width="1.5"/>
<path fill-rule="evenodd" clip-rule="evenodd" d="M100.28 256.421C114.531 230.851 131.144 204.096 146.679 177.882L194.525 98.0725C189.833 117.483 185.849 139.025 181.863 160.56C177.301 185.202 175.921 208.997 176.617 240.46C148.227 238.55 121.045 243.035 100.28 256.421Z" fill="#E00E00" stroke="black" stroke-width="1.3"/>
<path fill-rule="evenodd" clip-rule="evenodd" d="M158.821 157.74L177.624 189.42C181.158 159.627 187.724 130.268 193.485 100.793C183.015 116.513 170.512 138.35 158.821 157.74Z" fill="black"/>
<path fill-rule="evenodd" clip-rule="evenodd" d="M149.211 115.123L29.5502 232.479C44.6792 227.882 58.7968 224.955 71.5175 224.861C81.1954 224.789 90.8731 227.196 100.551 229.395C106.054 209.47 110.412 189.906 121.715 167.09C130.881 148.589 140.046 132.443 149.211 115.123Z" fill="#E00E00" stroke="black" stroke-width="1.3"/>
<path d="M100.551 229.395L133.202 264.13" stroke="black" stroke-width="1.8"/>
<path d="M176.617 240.46L197.148 269.119" stroke="black" stroke-width="1.8" stroke-linecap="round"/>
<path d="M217.589 59.0748L251.778 64.1536L218.132 43.4757L274.932 47.6476" stroke="black" stroke-width="1.7"/>
<path fill-rule="evenodd" clip-rule="evenodd" d="M201.8 242.134C217.329 236.501 247.788 225.551 279.186 224.05C291.502 223.461 311.571 223.387 327.28 230.206C313.553 213.381 296.001 184.662 289.035 149.66C281.856 113.592 279.245 76.2554 280.977 41.0249C261.636 53.1021 237.888 70.9123 216.254 84.3763C217.137 90.3151 222.889 102.033 214.527 104.32C217.715 104.859 219.628 107.163 219.515 110.284C219.412 113.147 216.739 113.836 213.759 113.876C216.326 116.116 217.95 118.429 217.916 123.88C217.902 126.153 216.258 129.874 212.032 132.73C214.954 137.244 216.78 140.843 216.445 147.223C216.14 153.052 213.493 157.63 209.091 161.588C214.195 164.277 215.782 170.14 213.823 177.171C211.799 184.435 208.852 188.012 205.893 191.344C207.354 195.031 209.602 201.526 209.73 208.274C209.884 216.426 206.843 218.506 203.974 220.843C206.445 223.019 208.406 225.713 208.195 230.078C207.959 234.97 204.327 238.908 201.8 242.134Z" fill="#E00E00" stroke="black" stroke-width="1.3"/>
<path fill-rule="evenodd" clip-rule="evenodd" d="M199.914 272.278L222.745 12.0961C222.848 10.913 220.211 10.8364 220.122 11.7333L194.525 268.756L199.914 272.278Z" fill="black" stroke="black"/>
<path d="M148.151 116.513C174.026 89.8536 194.805 69.5991 217.77 46.5592" stroke="black" stroke-width="1.8" stroke-linecap="round"/>
<path d="M194.163 98.8435L216.685 60.8887" stroke="black" stroke-width="1.8" stroke-linecap="round"/>
<path d="M284.158 38.7598C308.552 99.3714 326.607 162.102 329.381 229.939" stroke="black" stroke-width="1.8"/>
<path fill-rule="evenodd" clip-rule="evenodd" d="M299.896 80.0247C306.191 78.4299 313.903 78.737 319.884 81.9293C329.036 86.8139 335.442 91.0305 344.395 87.0987C337.316 77.4532 330.404 66.2136 329.472 53.4518C319.896 49.0327 315.982 50.2244 309.121 49.8241C299.589 49.268 300.319 39.654 285.786 42.6594L299.896 80.0247Z" fill="#E00E00" stroke="black" stroke-width="1.3" stroke-linecap="round" stroke-linejoin="round"/>
<path d="M292.208 60.4352C307.943 60.7903 323.724 68.3943 333.451 68.6882" stroke="black" stroke-width="2.4"/>
<path d="M310.772 50.1189C315.195 61.6391 317.843 71.1951 319.884 81.9293" stroke="black" stroke-width="2.4"/>
<path d="M290.127 55.175C297.51 55.5493 303.302 57.0624 309.031 58.6213L305.503 49.0759" stroke="black" stroke-width="1.8"/>
<path d="M315.452 50.1869L319.613 61.6141C323.532 62.7278 327.452 63.5224 331.371 64.1535" stroke="black" stroke-width="1.8" stroke-linecap="round" stroke-linejoin="round"/>
<path d="M336.278 74.5153C331.497 73.1894 326.535 72.1916 322.236 71.5905C324.36 76.6948 325.372 80.9625 326.577 85.3757" stroke="black" stroke-width="1.8"/>
<path d="M313.372 79.3899C313.055 76.5329 311.82 71.938 310.749 68.8696C306.498 66.7144 299.59 65.9677 294.559 65.9674" stroke="black" stroke-width="1.8" stroke-linejoin="round"/>
<path d="M201.927 243.673L332.653 229.565" stroke="black" stroke-width="2.2" stroke-linecap="round"/>
<path d="M225.463 259.449C221.531 199.651 231.104 139.979 216.254 84.3763" stroke="black" stroke-width="1.8"/>
<path fill-rule="evenodd" clip-rule="evenodd" d="M252.069 107.655L262.685 103.038C261.687 86.5139 261.875 69.9899 263.389 53.4659L251.493 61.3538C249.445 75.086 249.926 100.44 252.069 107.655Z" fill="black" stroke="black" stroke-linecap="round" stroke-linejoin="round"/>
<path fill-rule="evenodd" clip-rule="evenodd" d="M266.459 129.331C262.515 131.508 257.938 133.546 254.627 135.744C255.548 144.435 255.584 173.462 272.534 196.603C278.889 196.833 284.035 194.907 288.012 192.434C276.576 172.767 269.182 151.775 266.459 129.331Z" fill="black" stroke="black" stroke-linecap="round" stroke-linejoin="round"/>
<path d="M98.4474 266.76C173.155 291.056 276.003 287.081 335.595 280.74" stroke="black" stroke-width="1.5"/>
<path d="M335.467 287.153C278.75 293.531 173.186 300.76 99.4707 275.738" stroke="black" stroke-width="1.3"/>
<path d="M99.5986 282.792C137.536 293.079 167.091 294.675 200 299.337C244.594 297.999 288.251 299.133 333.804 293.951" stroke="black" stroke-width="1.2"/>
<path d="M101.453 288.436C111.163 291.58 116.668 291.77 122.303 292.925" stroke="black"/>
<path d="M322.676 229.95C321.689 243.599 318.798 256.4 314.745 268.684" stroke="black" stroke-width="1.8"/>
<path d="M349.665 268.812L298.884 267.786" stroke="black" stroke-width="4" stroke-linecap="round" stroke-linejoin="round"/>
<path d="M333.74 298.247C335.585 290.992 337.855 279.512 333.932 269.004" stroke="black" stroke-width="1.5"/>
<path d="M119.561 264.975L129.722 267.658" stroke="black" stroke-width="2" stroke-linecap="round"/>
<path fill-rule="evenodd" clip-rule="evenodd" d="M289.737 268.693L287.82 260.411C288.896 257.458 291.573 254.751 294.855 252.138C292.414 249.709 292.506 248.781 292.776 247.104C292.422 245.975 291.555 244.344 291.785 243.289C290.81 241.496 298.925 242.15 302.402 241.493L304.768 243.994L302.785 245.982L299.97 251.962L305.216 259.898C305.64 262.981 304.249 265.275 302.913 267.593C298.867 269.235 296.996 273.61 289.737 268.693Z" fill="#E00E00"/>
<path fill-rule="evenodd" clip-rule="evenodd" d="M135.906 298.087C110.218 298.087 97.3738 310.046 71.6858 310.046C45.9977 310.046 33.1537 298.087 7.46559 298.087C4.90912 298.087 2.43201 298.201 0.10464 298.414L0.0598221 286.468C2.41536 286.249 4.87517 286.128 7.46559 286.128C33.1537 286.128 45.9977 298.087 71.6858 298.087C97.3738 298.087 110.218 286.128 135.906 286.128C161.594 286.128 174.438 298.087 200.126 298.087C225.814 298.087 238.658 286.128 264.346 286.128C290.034 286.128 302.878 298.087 328.566 298.087C354.255 298.087 367.099 286.128 392.787 286.128C395.377 286.128 397.619 286.211 399.974 286.429V298.418C397.647 298.205 395.343 298.087 392.787 298.087C367.099 298.087 354.255 310.046 328.566 310.046C302.878 310.046 290.034 298.087 264.346 298.087C238.658 298.087 225.814 310.046 200.126 310.046C174.438 310.046 161.594 298.087 135.906 298.087Z" fill="#E00E00"/>
<path d="M216.254 84.3763L285.837 37.3054" stroke="black" stroke-width="2" stroke-linecap="round"/>
<path d="M223.92 129.634C228.469 131.717 228.457 157.311 228.804 170.536C228.948 176.006 230.659 184.401 229.709 186.226C228.596 188.364 226.693 188.318 225.006 188.946" stroke="black" stroke-width="1.8" stroke-linejoin="round"/>
<path d="M129.626 267.85C131.696 264.77 135.57 261.537 143.408 260.668C152.595 259.649 161.666 260.268 168.929 262.317C177.849 264.833 185.276 268.139 192.716 268.574C199.005 268.943 198.56 273.734 197.861 277.919" stroke="black" stroke-width="2"/>
<path d="M136.187 270.116C138.613 267.121 142.134 264.86 148.397 264.221C160.841 262.952 171.261 267.542 182.586 269.663C184.616 270.043 185.891 271.431 185.3 272.746L183.219 277.372" stroke="black" stroke-width="2" stroke-linejoin="round"/>
<path d="M188.646 278.097C190.182 272.487 190.617 267.832 195.804 269.349" stroke="black" stroke-width="2"/>
<path d="M199.228 277.916L199.914 272.278C200.228 269.703 207.02 267.186 211.97 265.287C210.714 261.262 209.937 258.148 212.8 258.359C223.315 259.135 229.67 259.784 238.03 260.593C252.363 261.981 265.519 262.792 277.523 262.976L277.075 267.273L284.233 267.101L283.163 277.371" stroke="black" stroke-width="2" stroke-linejoin="round"/>
<path d="M200.507 278.236C201.036 276.91 204.283 274.333 207.316 274.064C210.813 273.754 210.188 276.788 210.986 278.641" stroke="black" stroke-width="2" stroke-linejoin="round"/>
<path d="M225.01 278.977C225.18 277.165 224.772 273.892 217.86 273.562C210.157 273.195 211.04 277.385 210.986 278.641" stroke="black" stroke-width="2"/>
<path d="M232.061 279.276C231.484 277.863 232 274.035 234.713 273.146C239.465 271.587 240.15 273.328 256.791 272.383C264.847 271.926 265.824 275.962 265.888 278.369" stroke="black" stroke-width="2"/>
<path d="M273.304 278.006C273.224 276.191 273.917 271.075 278.05 271.034C281.234 271.002 282.675 275.494 282.939 278.077" stroke="black" stroke-width="2"/>
<path d="M283.796 272.111C289.705 272.7 295.641 272.598 301.524 273.925C304.576 274.614 305.977 276.982 307.974 276.731L312.985 276.102C317.5 275.535 313.033 271.013 311.295 270.473C307.773 269.38 305.036 269.101 299.55 268.843C297.058 268.726 293.967 263.144 298.002 259.042" stroke="black" stroke-width="1.9"/>
<path d="M298.002 259.042C296.221 261.147 295.339 267.767 301.403 267.419C302.442 267.359 305.326 266.068 305.524 261.954C305.663 259.074 304.408 256.296 301.524 253.701C300.273 252.625 298.869 252.33 297.182 252.25C294.255 252.11 292.164 253.425 290.074 255.979C286.97 259.772 286.355 267.444 292.473 268.988" stroke="black" stroke-width="1.9" stroke-linecap="round"/>
<path fill-rule="evenodd" clip-rule="evenodd" d="M299.172 245.811C296.997 245.855 295.147 245.736 293.135 245.699C290.997 245.659 291.13 242.358 294.275 242.471C297.472 242.587 298.493 241.382 300.835 241.108C302.362 240.93 304.648 242.423 304.544 244.058C304.391 246.468 301.895 245.755 299.172 245.811V245.811Z" stroke="black" stroke-width="1.9"/>
<path fill-rule="evenodd" clip-rule="evenodd" d="M293.045 248.088C292.97 249.686 294.768 251.89 297.31 251.769C300.433 251.62 302.051 249.813 302.001 248.242C301.947 246.559 300.584 245.473 297.209 246.016C295.492 246.292 293.145 245.943 293.045 248.088Z" stroke="black" stroke-width="1.9"/>
<path d="M211.97 265.287C227.178 267.504 258.172 268.439 277.075 267.273" stroke="black" stroke-width="2"/>
<path d="M292.473 268.987L285.017 268.71" stroke="black" stroke-width="2" stroke-linecap="round"/>
<path d="M297.423 267.133C299.721 267.658 302.071 267.761 304.463 267.531" stroke="black" stroke-width="2"/>
<path d="M343.977 259.815C340.133 257.721 331.951 264.76 333.932 269.004" stroke="black"/>
<path d="M30.319 232.003L26.6893 233.926" stroke="black" stroke-width="1.4"/>
<path fill-rule="evenodd" clip-rule="evenodd" d="M112.762 151.314L121.715 167.089C133.909 142.276 139.985 133.333 148.151 116.513C144.268 120.023 124.652 138.529 112.762 151.314Z" fill="black"/>
<path d="M347.473 427.644H245.969C219.444 427.644 207.06 443.486 200 454.255C192.94 443.486 180.556 427.644 154.031 427.644H52.5265C34.545 427.644 21.8468 422.033 13.6327 413.183C5.39937 404.312 1.5 392.002 1.5 378.299V1.5H200H398.5V378.299C398.5 392.002 394.601 404.312 386.367 413.183C378.153 422.033 365.455 427.644 347.473 427.644Z" stroke="#FFE000" stroke-width="3"/>
</g>
<defs>
<clipPath id="clip0">
<rect width="400" height="455.78" fill="white"/>
</clipPath>
</defs>
</svg>
