<svg width="400" height="522" viewBox="0 0 400 522" fill="none" xmlns="http://www.w3.org/2000/svg">
<g clip-path="url(#clip0)">
<path d="M199.709 521.377C121.895 464.923 68.561 393.622 36.6483 303.433C7.70906 221.661 -3.90223 122.562 1.14434 0.481621L1.16528 0H398.839L398.86 0.481621C403.896 122.562 392.284 221.651 363.356 303.433C331.443 393.622 278.109 464.923 200.295 521.377L200.002 521.587L199.709 521.377Z" fill="#E00E00"/>
<path fill-rule="evenodd" clip-rule="evenodd" d="M184.674 226.677L184.632 231.43C184.548 240.738 180.109 239.597 180.339 248.821L183.763 383.56C183.931 390.02 186.485 393.203 188.37 396.448C191.396 401.652 193.908 406.531 195.343 413.588C197.782 425.503 196.662 429.335 199.761 429.146C202.724 428.979 207.038 424.382 208.671 420.948C216.356 404.772 220.618 383.863 220.618 318.488V234.738C220.618 231.189 215.686 229.106 212.597 226.666C219.738 226.666 221.466 226.666 221.717 224.844C221.905 223.504 221.937 222.143 222.041 220.792C226.648 162.296 228.627 107.894 222.104 48.1203H205.185V38.0481H194.317V48.1203H177.397C170.895 107.643 172.696 163.354 177.282 221.661C177.408 223.253 177.376 223.159 177.586 224.75C177.837 226.677 181.721 226.677 184.653 226.677H184.674Z" fill="white" stroke="#E00E00" stroke-width="3" stroke-linejoin="round"/>
<path d="M184.674 226.677H212.608" stroke="#E00E00" stroke-width="3"/>
<path d="M176.455 213.086H222.837" stroke="#E00E00" stroke-width="3"/>
<path d="M175.596 65.1865H223.916" stroke="#E00E00" stroke-width="3"/>
<path d="M199.761 429.146C202.955 416.718 205.876 407.599 205.876 388.805V256.527C205.876 247.721 210.2 245.994 212.828 246.036L220.618 246.151" stroke="#E00E00" stroke-width="3"/>
<path fill-rule="evenodd" clip-rule="evenodd" d="M104.075 227.2L104.034 231.954C103.95 241.261 99.4372 240.131 99.7408 249.344L103.165 350.579C103.384 357.039 105.887 360.222 107.771 363.468C110.797 368.671 113.31 373.55 114.744 380.607C117.184 392.522 116.064 394.26 119.163 394.072C126.199 391.946 133.067 374.231 134.083 370.943C136.03 364.305 140.019 351.029 140.019 319.022V235.273C140.019 231.723 135.088 229.64 131.999 227.2C139.14 227.2 140.867 227.2 141.118 225.378C141.307 224.038 141.338 222.677 141.443 221.326C146.05 162.83 148.029 108.428 141.506 48.6543H124.586V38.5822H113.718V48.6543H96.7987C90.2968 108.177 92.0977 163.888 96.6836 222.195C96.8092 223.787 96.7778 223.693 96.9872 225.284C97.2385 227.211 101.123 227.211 104.054 227.211L104.075 227.2Z" fill="white" stroke="#E00E00" stroke-width="3" stroke-linejoin="round"/>
<path d="M104.075 227.2H132.009" stroke="#E00E00" stroke-width="3"/>
<path d="M95.8669 213.61H142.249" stroke="#E00E00" stroke-width="3"/>
<path d="M95.0084 65.7101H143.328" stroke="#E00E00" stroke-width="3"/>
<path d="M119.173 394.072C122.367 381.644 125.288 372.524 125.288 353.731V257.05C125.288 248.245 129.612 246.517 132.24 246.559L140.03 246.674" stroke="#E00E00" stroke-width="3"/>
<path fill-rule="evenodd" clip-rule="evenodd" d="M265.314 227.2L265.272 231.953C265.189 241.261 260.676 240.131 260.98 249.344L264.403 350.579C264.623 357.039 267.126 360.222 269.01 363.468C272.036 368.671 274.549 373.55 275.983 380.607C278.423 392.522 277.302 394.26 280.402 394.072C288.914 388.952 293.636 379.477 296.693 371.289C299.352 364.096 301.258 352.045 301.258 319.012V235.262C301.258 231.713 296.326 229.629 293.238 227.19C300.378 227.19 302.106 227.19 302.357 225.368C302.546 224.028 302.577 222.667 302.682 221.316C307.289 162.82 309.267 108.417 302.745 48.6438H285.825V38.5717H274.957V48.6438H258.038C251.536 108.166 253.336 163.877 257.922 222.185C258.048 223.776 258.017 223.682 258.226 225.274C258.477 227.2 262.362 227.2 265.293 227.2H265.314Z" fill="white" stroke="#E00E00" stroke-width="3" stroke-linejoin="round"/>
<path d="M265.314 227.2H293.248" stroke="#E00E00" stroke-width="3"/>
<path d="M257.106 213.61H303.488" stroke="#E00E00" stroke-width="3"/>
<path d="M256.247 65.7101H304.566" stroke="#E00E00" stroke-width="3"/>
<path d="M280.412 394.072C283.605 381.644 286.527 372.524 286.527 353.731V257.05C286.527 248.245 290.851 246.517 293.479 246.559L301.268 246.674" stroke="#E00E00" stroke-width="3"/>
</g>
<defs>
<clipPath id="clip0">
<rect width="400" height="521.59" fill="white"/>
</clipPath>
</defs>
</svg>
