<svg width="400" height="522" viewBox="0 0 400 522" fill="none" xmlns="http://www.w3.org/2000/svg">
<g clip-path="url(#clip0)">
<path d="M199.709 521.377C121.895 464.923 68.561 393.622 36.6483 303.433C7.70906 221.661 -3.90223 122.562 1.14434 0.481621L1.16528 0H398.839L398.86 0.481621C403.896 122.562 392.284 221.651 363.356 303.433C331.443 393.622 278.109 464.923 200.295 521.377L200.002 521.587L199.709 521.377Z" fill="#E00E00"/>
<path d="M152.489 38.7602L164.477 38.2367L172.508 25.725C171.565 24.479 169.482 20.9297 167.294 18.3226C161.252 24.9921 156.143 31.4521 152.384 38.645L152.489 38.7602Z" fill="white" stroke="#E00E00" stroke-width="3"/>
<path d="M187.511 305.579C186.464 307.976 175.628 307.348 176.047 304.846C178.235 294.522 185.009 287.445 191.888 284.209C194.809 282.859 224.094 285.047 240.982 287.026C222.115 267.332 193.971 249.397 201.269 222.928L211.069 225.535C210.964 244.926 228.47 264.515 258.184 294.638C239.317 293.8 215.037 291.926 201.698 293.078C200.348 285.78 183.355 310.28 187.417 305.485L187.511 305.579Z" fill="white" stroke="#E00E00" stroke-width="3"/>
<path d="M119.341 292.554C118.398 293.601 116.106 292.973 114.441 292.345C109.541 290.68 102.348 288.806 95.469 291.821C91.1973 293.695 87.1349 297.245 84.5278 306.626C83.7949 309.442 90.9879 310.793 91.5114 309.128L91.6161 309.338C91.5114 310.898 101.625 312.154 102.348 310.28L102.557 309.966C102.557 311.84 108.808 312.363 112.881 310.28C115.174 309.034 124.974 310.489 127.476 309.034C136.648 303.715 133.109 298.616 135.601 296.627C139.663 293.287 145.61 293.287 148.112 286.827C152.698 274.943 167.608 257.542 186.569 223.556C189.7 218.028 200.222 225.012 211.268 227.001C211.268 227.001 210.954 227.001 211.268 227.001C211.268 252.642 246.395 283.183 255.567 293.915C231.391 293.706 210.954 288.178 199.594 289.643C193.552 290.376 188.443 300.061 185.731 306.741C184.894 308.825 192.924 309.139 193.448 307.683V308.102C193.343 308.73 200.955 309.044 201.478 307.997V307.893C201.06 309.243 210.545 310.29 214.294 307.997C218.67 306.751 220.544 310.709 223.78 309.044C228.575 306.333 232.009 304.249 236.082 309.673C236.815 310.615 277.878 312.908 281.208 309.463C282.15 308.416 282.558 305.087 281.731 302.689C279.962 297.475 290.38 300.815 290.065 306.751C289.228 322.174 258.383 324.257 240.563 325.095C169.482 328.54 133.423 372.619 132.585 406.5C131.434 448.505 169.482 477.162 191.992 474.555C191.992 474.555 185.532 469.446 185.114 465.697C195.018 473.414 208.881 477.267 220.345 474.555C220.345 474.555 210.755 469.864 208.043 466.116C228.784 474.45 244.521 471.435 257.545 458.714C246.918 452.568 237.851 450.275 227.737 449.647C227.737 449.647 238.678 447.458 240.657 443.187C226.271 442.977 203.237 435.784 200.735 423.074C196.463 401.704 225.748 383.466 248.363 381.277C282.757 378.042 313.194 380.858 336.123 336.664C352.383 305.401 331.747 277.362 307.153 270.064C317.371 252.349 316.848 222.541 313.717 207.632C303.195 157.92 258.268 145.199 246.594 142.592C214.178 135.503 194.38 115.809 193.647 95.3821C193.019 78.5986 193.856 61.9303 185.93 48.2669C188.119 38.9904 188.014 34.6139 178.633 16.6892C170.403 28.1539 168.623 30.9704 166.435 35.0327C157.996 35.1374 144.961 36.2787 136.313 37.1163C129.329 37.8492 126.932 41.3881 124.743 44.6233L87.3233 45.8692C86.6951 45.8692 85.6586 46.3927 85.1351 46.9162C82.8422 49.628 84.7163 55.1457 87.5327 55.2504C89.0928 55.3551 89.3022 61.2916 97.4374 63.794C97.4374 63.794 98.3797 64.9457 98.275 65.1446C99.9398 73.6882 107.342 74.2117 115.676 75.667C121.613 76.714 134.753 77.9599 131.517 88.9011H131.308C127.35 101.716 97.5421 129.546 105.981 151.125C105.981 151.125 109.426 145.596 113.907 143.932C108.902 154.349 109.53 165.615 116.095 173.216C116.095 173.216 117.969 167.385 120.157 165.291C120.472 177.802 124.639 191.036 131.517 195.308C131.517 195.308 131.308 190.199 132.041 187.697C135.894 196.345 144.343 204.375 146.427 206.145C135.171 228.237 127.979 256.38 117.864 278.891C116.409 282.021 113.383 284.524 110.776 284.314C103.06 283.686 93.375 284.838 90.0351 286.188C84.6116 288.377 75.8586 298.386 76.9057 305.474C76.801 307.034 83.1458 308.165 84.4964 306.49" fill="white"/>
<path d="M119.341 292.554C118.398 293.601 116.106 292.973 114.441 292.345C109.541 290.68 102.348 288.806 95.469 291.821C91.1973 293.695 87.1349 297.245 84.5278 306.626C83.7949 309.442 90.9879 310.793 91.5114 309.128L91.6161 309.338C91.5114 310.898 101.625 312.154 102.348 310.28L102.557 309.966C102.557 311.84 108.808 312.363 112.881 310.28C115.174 309.034 124.974 310.489 127.476 309.034C136.648 303.715 133.109 298.616 135.601 296.627C139.663 293.287 145.61 293.287 148.112 286.827C152.698 274.943 167.608 257.542 186.569 223.556C189.7 218.028 200.222 225.012 211.268 227.001C211.268 227.001 210.954 227.001 211.268 227.001C211.268 252.642 246.395 283.183 255.567 293.915C231.391 293.706 210.954 288.178 199.594 289.643C193.552 290.376 188.443 300.061 185.731 306.741C184.894 308.825 192.924 309.139 193.448 307.683V308.102C193.343 308.73 200.955 309.044 201.478 307.997V307.893C201.06 309.243 210.545 310.29 214.294 307.997C218.67 306.751 220.544 310.709 223.78 309.044C228.575 306.333 232.009 304.249 236.082 309.673C236.815 310.615 277.878 312.908 281.208 309.463C282.15 308.416 282.558 305.087 281.731 302.689C279.962 297.475 290.38 300.815 290.065 306.751C289.228 322.174 258.383 324.257 240.563 325.095C169.482 328.54 133.423 372.619 132.585 406.5C131.434 448.506 169.482 477.162 191.992 474.555C191.992 474.555 185.532 469.446 185.114 465.697C195.018 473.414 208.881 477.267 220.345 474.555C220.345 474.555 210.755 469.864 208.043 466.116C228.784 474.45 244.521 471.435 257.545 458.714C246.918 452.568 237.851 450.275 227.737 449.647C227.737 449.647 238.678 447.459 240.657 443.187C226.271 442.977 203.237 435.784 200.735 423.074C196.463 401.704 225.748 383.466 248.363 381.277C282.757 378.042 313.194 380.858 336.123 336.664C352.383 305.401 331.747 277.362 307.153 270.064C317.371 252.349 316.848 222.541 313.717 207.632C303.195 157.92 258.268 145.199 246.594 142.592C214.178 135.503 194.38 115.809 193.647 95.3821C193.019 78.5986 193.856 61.9303 185.93 48.2669C188.119 38.9904 188.014 34.6139 178.633 16.6892C170.403 28.1539 168.623 30.9704 166.435 35.0327C157.996 35.1374 144.961 36.2787 136.313 37.1163C129.329 37.8492 126.932 41.3881 124.743 44.6233L87.3234 45.8692C86.6951 45.8692 85.6586 46.3927 85.1351 46.9162C82.8422 49.628 84.7163 55.1457 87.5327 55.2504C89.0928 55.3551 89.3022 61.2916 97.4374 63.794C97.4374 63.794 98.3797 64.9457 98.275 65.1446C99.9398 73.6882 107.342 74.2117 115.676 75.667C121.613 76.714 134.753 77.9599 131.517 88.9011H131.308C127.35 101.716 97.5421 129.546 105.981 151.125C105.981 151.125 109.426 145.596 113.907 143.932C108.902 154.349 109.53 165.615 116.095 173.216C116.095 173.216 117.969 167.385 120.157 165.291C120.472 177.802 124.639 191.036 131.517 195.308C131.517 195.308 131.308 190.199 132.041 187.697C135.894 196.345 144.343 204.375 146.427 206.145C135.171 228.237 127.979 256.38 117.864 278.891C116.409 282.021 113.383 284.524 110.776 284.314C103.06 283.686 93.375 284.838 90.0351 286.188C84.6116 288.377 75.8586 298.386 76.9057 305.474C76.801 307.034 83.1458 308.165 84.4964 306.49" stroke="#E00E00" stroke-width="3" stroke-linecap="round" stroke-linejoin="round"/>
<path d="M135.496 45.8483C135.81 45.3248 145.715 45.0107 146.856 45.6389C147.694 46.0577 145.809 48.5601 143.83 49.7013C142.061 50.7483 139.873 50.5389 138.407 49.806C136.637 48.9684 134.868 46.8849 135.59 45.7436L135.496 45.8483Z" fill="#E00E00"/>
<path d="M91.4695 309.359C92.4118 305.715 95.0502 300.888 99.4267 297.454" stroke="#E00E00" stroke-width="3" stroke-linecap="round"/>
<path d="M107.981 300.061C105.06 302.982 103.144 305.945 102.526 310.112" stroke="#E00E00" stroke-width="3" stroke-linecap="round"/>
<path d="M193.406 307.788C194.453 304.343 196.055 300.48 200.955 297.035" stroke="#E00E00" stroke-width="3" stroke-linecap="round"/>
<path d="M207.205 299.538C204.703 301.621 202.075 305.307 201.447 308.018" stroke="#E00E00" stroke-width="3" stroke-linecap="round"/>
<path d="M97.1652 63.6683C106.274 64.6316 112.431 65.5006 121.32 67.3224" stroke="#E00E00" stroke-width="3" stroke-linecap="round"/>
<path d="M211.477 226.677L223.884 211.464" stroke="#E00E00" stroke-width="3" stroke-linecap="round"/>
<path d="M143.935 203.747C146.856 206.982 152.897 209.893 156.447 210.94" stroke="#E00E00" stroke-width="3" stroke-linecap="round"/>
<path d="M155.4 217.924L119.341 292.554" stroke="#E00E00" stroke-width="3" stroke-linecap="round"/>
</g>
<defs>
<clipPath id="clip0">
<rect width="400" height="521.59" fill="white"/>
</clipPath>
</defs>
</svg>
