<svg width="400" height="522" viewBox="0 0 400 522" fill="none" xmlns="http://www.w3.org/2000/svg">
<g clip-path="url(#clip0)">
<path d="M200.291 521.377C278.105 464.923 331.439 393.622 363.352 303.433C392.291 221.661 403.902 122.562 398.856 0.481621L398.835 0H1.16126L1.14031 0.481621C-3.89578 122.562 7.71551 221.651 36.6443 303.433C68.557 393.622 121.891 464.923 199.705 521.377L199.998 521.587L200.291 521.377Z" fill="#0085CA"/>
<path d="M164.473 190.45C132.006 193.246 118.918 194.565 109.149 210.008C96.7006 229.629 93.7585 297.046 92.0728 333.209C60.6208 271.373 60.4952 201.622 74.2842 177.3C84.0528 159.972 111.966 150.685 109.809 148.601C100.805 139.534 93.0256 145.753 87.4765 147.429C84.0842 149.826 74.3784 154.266 66.662 158.234C74.4831 149.879 79.247 142.445 82.4299 139.304C92.6277 115.642 95.3395 119.097 126.519 119.62C139.481 119.83 143.596 111.265 142.874 103.235C142.256 96.2406 140.654 91.0056 138.905 81.0904C131.294 38.4669 268.053 27.6094 359.373 53.0831C288.041 56.1298 206.929 82.4201 208.646 116.354C210.625 155.491 274.702 195.643 354.023 225.598C311.221 217.117 269.75 200.522 261.51 209.076C253.689 217.222 273.613 264.379 291.004 297.569L219.504 201.014C217.431 198.208 176.995 189.372 164.484 190.45H164.473Z" fill="white" stroke="#0085CA" stroke-width="3" stroke-linecap="round" stroke-linejoin="round"/>
<path d="M95.5985 133.919C96.0665 133.461 96.3314 132.837 96.3314 132.184C96.3314 131.532 96.0665 130.908 95.5985 130.45C95.1309 129.992 94.4989 129.737 93.8421 129.737C93.1853 129.737 92.5533 129.992 92.0857 130.45C91.6177 130.908 91.3528 131.532 91.3528 132.184C91.3528 132.837 91.6177 133.461 92.0857 133.919C92.5533 134.376 93.1853 134.632 93.8421 134.632C94.4989 134.632 95.1309 134.376 95.5985 133.919Z" fill="#0085CA" stroke="#0085CA"/>
<path d="M109.903 148.717C126.247 162.684 143.334 182.001 166.944 190.335" stroke="#0085CA" stroke-width="3" stroke-linecap="round"/>
</g>
<defs>
<clipPath id="clip0">
<rect width="400" height="521.59" fill="white"/>
</clipPath>
</defs>
</svg>
