<svg width="400" height="522" viewBox="0 0 400 522" fill="none" xmlns="http://www.w3.org/2000/svg">
<g clip-path="url(#clip0)">
<path d="M200.291 521.377C278.105 464.923 331.439 393.622 363.352 303.433C392.291 221.661 403.902 122.562 398.856 0.481621L398.835 0H1.16126L1.14031 0.481621C-3.89578 122.562 7.71551 221.651 36.6443 303.433C68.557 393.622 121.891 464.923 199.705 521.377L199.998 521.587L200.291 521.377Z" fill="#32AC60"/>
<path d="M50.7474 193.602C49.5015 196.408 49.2921 200.261 52.0981 200.156C53.0299 200.051 52.2028 199.224 52.4122 200.679C52.5169 201.611 53.4487 204.323 56.9876 203.799C58.9664 203.485 57.8252 202.553 58.6523 204.009C60.2124 206.815 64.7878 204.941 66.976 203.381C72.389 199.528 71.2478 199.423 76.1373 198.91C85.6127 198.072 92.2717 202.03 95.7058 205.883C88.2093 205.674 89.361 204.742 80.3044 205.674C71.6666 206.511 69.0596 208.584 66.9865 211.715C64.6936 215.044 63.8664 220.038 67.3006 220.981C68.7559 221.4 68.1382 223.064 70.1066 223.891C73.1219 225.033 74.3783 222.75 76.0431 224.206C78.2313 226.289 82.2832 225.043 84.1574 223.473C88.4292 219.934 88.1151 217.641 95.2975 220.457C115.903 228.467 128.812 237.733 153.993 230.132C157.217 236.686 163.363 243.868 170.022 251.574C136.926 263.856 145.564 307.882 172.106 333.796C160.966 334.214 146.716 331.188 137.659 334.319C124.645 338.894 125.483 349.103 130.582 350.139C133.492 350.767 131.105 354.516 139.01 354.202C142.968 353.992 139.638 356.18 146.088 356.599C147.857 356.704 151.501 356.18 151.605 353.689C151.71 350.15 153.898 347.752 157.018 347.961L198.03 349.731C197.925 349.731 202.092 353.375 206.877 356.809C200.532 356.704 169.3 356.704 162.233 357.332C149.428 358.473 145.48 369.404 152.558 375.027C153.909 376.063 154.537 379.194 160.568 380.125C163.583 383.141 162.651 383.35 167.96 384.083C177.33 385.329 173.163 377.948 175.666 375.655C177.435 374.199 188.785 373.048 191.486 372.954C209.285 372.022 226.77 371.708 248.621 369.729C255.28 369.101 256.631 360.567 257.363 357.238C264.965 356.306 273.498 353.28 280.052 350.474C300.144 341.941 315.231 325.597 325.01 305.924C335.418 285.005 339.585 259.511 339.689 242.224C340.318 168.746 284.428 144.392 280.89 115.872C277.979 91.8327 320.33 82.8808 312.216 128.363C321.377 125.557 325.639 118.887 327.513 111.611L332.612 119.725C338.234 107.444 338.234 93.9162 328.036 84.1267L338.234 88.0844C334.067 68.9347 321.89 58.9462 311.902 54.4651C314.09 53.3238 319.084 51.5544 322.833 50.7168C255.395 9.40196 189.088 59.3546 195.653 107.548C199.401 135.126 216.363 153.868 234.476 170.515C253.94 188.419 252.066 187.477 252.066 187.477C238.947 184.357 208.981 176.232 193.266 159.794C161.625 126.803 169.017 104.009 177.655 77.9913C175.153 76.9547 172.347 77.9913 170.577 78.9231C174.325 75.5936 179.215 72.5782 181.822 68.9347C179.948 67.1652 176.828 66.7464 175.163 66.9558C176.723 62.8934 179.225 60.4016 181.508 57.5851C151.323 66.0135 153.616 90.2622 141.334 95.3611C117.504 105.35 98.1454 121.379 86.2723 141.576C84.817 144.078 86.377 146.884 87.5183 147.921C91.5806 151.774 90.2195 158.223 97.1926 161.343C110.312 167.175 117.484 171.227 118.426 180.912C88.4501 186.115 75.6452 185.288 66.0756 185.801C57.7519 186.22 53.0613 188.607 50.8836 193.403L50.7474 193.602Z" fill="white" stroke="#32AC60" stroke-width="3" stroke-linejoin="round"/>
<path d="M122.048 131.985C122.048 134.278 119.965 136.456 117.578 136.456C115.285 136.456 113.107 134.373 113.107 131.985C113.107 129.692 115.191 127.515 117.578 127.515C119.871 127.515 122.048 129.598 122.048 131.985Z" fill="#32AC60"/>
<path d="M117.997 178.483C123.703 199.371 109.757 207.129 93.5176 205.883" stroke="#32AC60" stroke-width="3" stroke-linecap="round"/>
<path d="M251.176 186.796C298.113 219.065 316.781 270.724 291.695 323.493" stroke="#32AC60" stroke-width="3" stroke-linecap="round"/>
<path d="M200.207 351.699C181.058 333.691 143.585 288.104 181.686 252.726" stroke="#32AC60" stroke-width="3" stroke-linecap="round"/>
<path d="M176.063 258.338L168.567 250.014" stroke="#32AC60" stroke-width="3" stroke-linecap="round"/>
<path d="M161.803 226.08C158.264 228.268 154.411 229.933 149.941 231.179" stroke="#32AC60" stroke-width="3" stroke-linecap="round"/>
<path d="M52.9357 202.051C51.962 199.947 53.0404 195.895 55.1239 193.811" stroke="#32AC60" stroke-width="3" stroke-linecap="round"/>
<path d="M60.1181 196.826C57.3121 199.842 57.7414 202.763 59.2491 204.731" stroke="#32AC60" stroke-width="3" stroke-linecap="round"/>
<path d="M70.8395 213.694C68.7559 215.568 67.5938 220.374 68.5256 222.248" stroke="#32AC60" stroke-width="3" stroke-linecap="round"/>
<path d="M76.3572 216.29C74.7971 218.992 74.1899 222.352 75.9593 224.122" stroke="#32AC60" stroke-width="3" stroke-linecap="round"/>
<path d="M134.948 342.329C132.142 343.365 130.267 349.616 132.864 352.631" stroke="#32AC60" stroke-width="3" stroke-linecap="round"/>
<path d="M141.921 346.182C139.219 348.37 139.314 352.422 141.292 354.924" stroke="#32AC60" stroke-width="3" stroke-linecap="round"/>
<path d="M157.531 366.169C152.747 368.148 151.804 374.074 153.888 376.576" stroke="#32AC60" stroke-width="3" stroke-linecap="round"/>
<path d="M162.735 371.477C158.777 374.179 159.803 381.256 164.023 383.308" stroke="#32AC60" stroke-width="3" stroke-linecap="round"/>
</g>
<defs>
<clipPath id="clip0">
<rect width="400" height="521.59" fill="white"/>
</clipPath>
</defs>
</svg>
