<svg width="400" height="522" viewBox="0 0 400 522" fill="none" xmlns="http://www.w3.org/2000/svg">
<g clip-path="url(#clip0)">
<path d="M200.291 521.377C278.105 464.923 331.439 393.622 363.352 303.433C392.291 221.661 403.902 122.562 398.856 0.481621L398.835 0H1.16126L1.14031 0.481621C-3.89578 122.562 7.71551 221.651 36.6443 303.433C68.557 393.622 121.891 464.923 199.705 521.377L199.998 521.587L200.291 521.377Z" fill="#0085CA"/>
<path fill-rule="evenodd" clip-rule="evenodd" d="M246.485 176.734L266.41 201.014C268.336 203.37 271.969 201.643 275.466 197.779C277.204 195.853 280.984 193.162 279.591 190.66C274.859 182.2 261.122 163.427 264.452 160.611L333.711 101.947C335.261 100.628 341.208 98.4812 342.098 103.779C345.825 126.059 350.84 146.895 347.73 148.036L340.035 149.23C336.925 149.711 335.815 151.512 336.894 154.768L349.238 192.094C350.18 194.931 352.348 195.225 354.452 192.638C363.823 181.121 370.712 169.521 376.722 157.323C377.758 155.218 375.853 152.36 373.445 151.428C371.424 150.643 370.136 149.983 367.697 148.936C368.555 129.776 369.759 87.6447 359.436 57.8365C330.696 44.8432 288.616 42.2257 269.456 41.3357C268.629 38.8019 268.095 37.4618 267.488 35.3782C266.776 32.8968 264.106 30.74 261.918 31.5776C249.228 36.4567 237.051 42.2675 224.728 50.5493C221.964 52.4025 222.058 54.5908 224.802 55.7844L260.86 71.4685C264.012 72.8401 265.896 71.8978 266.661 68.8405L268.545 61.2811C269.959 58.2867 290.25 65.176 312.101 70.9031C317.294 72.2642 314.614 77.9913 313.158 79.4153L248.453 143.063C245.344 146.12 227.901 130.75 219.902 125.264C217.535 123.641 214.52 127.159 212.436 128.719C208.259 131.849 206.217 135.304 208.384 137.44L230.749 159.49L221.462 168.756C207.463 160.181 192.261 159.982 177.665 169.521L169.436 159.762L192.857 138.833C195.129 136.802 193.255 133.252 189.245 129.923C187.245 128.258 184.408 124.604 181.958 126.101C173.708 131.19 155.532 145.691 152.569 142.487L91.0466 75.7508C89.6646 74.2535 87.2669 68.4008 92.5229 67.291C114.636 62.6318 135.23 56.7476 136.497 59.8049L138.015 67.448C138.633 70.5367 140.476 71.5732 143.68 70.3587L180.461 56.4545C183.256 55.397 183.455 53.2192 180.796 51.2299C168.891 42.3513 157.018 35.9541 144.58 30.4573C142.434 29.5045 139.659 31.5357 138.821 33.9753C138.12 36.0274 137.513 37.3361 136.57 39.828C117.389 39.7757 75.2369 40.341 45.8998 51.9104C34.1314 81.1742 33.2729 123.327 33.1891 142.497C30.6973 143.429 29.378 144.026 27.3259 144.706C24.8759 145.523 22.8343 148.277 23.7661 150.434C29.1686 162.914 35.4926 174.829 44.2874 186.796C46.2558 189.476 48.444 189.298 49.5119 186.503L63.6674 149.826C64.9029 146.623 63.8769 144.769 60.7987 144.141L53.166 142.571C50.1192 141.283 56.1395 120.72 60.9557 98.6488C62.0969 93.4033 67.9392 95.8428 69.4155 97.2353L135.722 159.218C138.905 162.191 124.279 180.273 119.138 188.492C117.62 190.921 121.263 193.79 122.907 195.8C126.216 199.842 129.754 201.737 131.796 199.475L152.883 176.2L165.384 185.781C155.479 206.721 167.876 231.66 188.638 237.105L187.005 246.004L151.427 244.13C147.983 243.952 146.653 248.297 147.218 254.192C147.501 257.123 146.862 262.348 150.024 263.091C160.735 265.594 186.952 268.452 186.774 273.394L182.953 376.283C182.869 378.586 180.126 385.225 175.006 381.906C153.49 367.98 132.204 356.254 133.628 352.778L138.518 345.417C140.497 342.444 139.837 340.14 136.277 338.549L95.5592 320.342C92.4601 318.96 90.5545 320.551 91.1199 324.289C93.6013 340.947 98.0511 355.594 103.674 369.959C104.647 372.441 108.49 373.027 111.118 371.729C113.316 370.64 114.856 370.064 117.609 368.818C133 384.188 167.384 417.43 200.249 431.575C233.115 417.43 267.498 384.188 282.889 368.818C285.643 370.064 287.172 370.64 289.381 371.729C292.009 373.027 295.851 372.441 296.825 369.959C302.447 355.594 306.897 340.947 309.379 324.289C309.934 320.561 308.038 318.96 304.939 320.342L264.221 338.549C260.661 340.14 260.012 342.444 261.981 345.417L266.87 352.778C268.294 356.254 247.009 367.98 225.493 381.906C220.383 385.214 217.63 378.586 217.546 376.283L213.724 273.394C213.536 268.452 239.763 265.604 250.474 263.091C253.636 262.348 252.997 257.134 253.28 254.192C253.845 248.297 252.516 243.942 249.071 244.13L213.494 246.004L211.861 237.105C230.55 231.273 245.03 212.06 235.397 184.597L246.485 176.734Z" fill="white" stroke="#0085CA"/>
<path d="M200.273 220.97C211.295 220.97 220.229 212.036 220.229 201.014C220.229 189.993 211.295 181.059 200.273 181.059C189.252 181.059 180.318 189.993 180.318 201.014C180.318 212.036 189.252 220.97 200.273 220.97Z" fill="#0085CA" stroke="#0085CA" stroke-linecap="round" stroke-linejoin="round"/>
</g>
<defs>
<clipPath id="clip0">
<rect width="400" height="521.59" fill="white"/>
</clipPath>
</defs>
</svg>
