<svg width="400" height="522" viewBox="0 0 400 522" fill="none" xmlns="http://www.w3.org/2000/svg">
<g clip-path="url(#clip0)">
<path d="M200.291 521.377C278.105 464.923 331.439 393.622 363.352 303.433C392.291 221.661 403.902 122.562 398.856 0.481621L398.835 0H1.16126L1.14031 0.481621C-3.89578 122.562 7.71551 221.651 36.6443 303.433C68.557 393.622 121.891 464.923 199.705 521.377L199.998 521.586L200.291 521.377Z" fill="#32AC60"/>
<path fill-rule="evenodd" clip-rule="evenodd" d="M214.248 510.248C213.106 484.051 211.41 459.949 208.72 427.995C207.913 418.425 218.813 411.578 223.796 404.657C251.542 366.127 280.471 337.282 297.233 300.176C309.944 272.054 323.157 257.961 324.079 255.019C326.413 247.575 324.728 244.497 316.362 250.747L312.896 253.333L314.718 209.118C316.132 203.412 319.733 201.999 323.471 201.664C355.059 198.837 370.22 194.67 373.497 184.032C371.456 183.341 371.874 183.226 368.964 183.058C371.518 180.294 374.46 171.437 376.596 165.553C374.597 164.945 370.984 163.668 368.178 163.448C370.974 158.391 372.984 146.958 373.361 137.21C370.126 137.231 365.257 138.435 362.022 139.796C362.326 133.158 361.75 123.61 361.048 118.751C356.975 118.668 353.039 119.003 349.385 120.207C349.343 116.061 349.772 110.721 348.736 102.879C343.93 103.099 341.616 103.633 337.721 104.659C337.48 99.0572 335.952 90.744 334.967 87.1737C332.256 87.3413 329.9 88.3569 326.874 89.2782C326.518 84.1793 326.288 77.2272 324.445 71.3011L317.964 73.0811C318.613 69.5422 316.99 58.2869 316.99 58.2869L313.095 59.2606C313.043 52.1514 311.075 47.9111 308.876 43.2833C306.677 47.9111 304.709 52.1514 304.657 59.2606L300.762 58.2869C300.762 58.2869 299.139 69.5422 299.788 73.0811L293.307 71.3011C291.464 77.2272 291.234 84.1793 290.878 89.2782C287.852 88.3569 285.496 87.3413 282.785 87.1737C281.8 90.7545 280.272 99.0572 280.031 104.659C276.126 103.633 273.822 103.099 269.017 102.879C267.98 110.71 268.42 116.061 268.367 120.207C264.839 119.61 260.871 119.128 256.704 118.751C255.165 125.62 257.562 134.446 259.164 137.974C255.929 136.613 251.06 135.409 247.825 135.388C248.202 145.136 249.071 158.402 251.867 163.448C249.144 162.862 246.747 162.192 244.59 161.668C244.789 168.107 245.124 176.085 250.39 180.776C247.48 180.933 247.898 181.048 245.857 181.75C249.134 192.387 264.787 198.847 296.375 201.674C300.102 202.009 305.41 203.161 305.442 209.129C305.913 281.268 273.969 322.614 261.185 339.293L260.829 331.744C260.421 323.242 257.123 321.368 253.51 327.828C248.464 336.853 248.694 342.926 249.385 352.883C238.58 369.53 227.157 380.126 210.887 397.087C208.646 399.422 205.16 397.674 205.086 391.821L204.123 314.437C204.05 308.469 209.463 307.317 213.19 306.982C244.778 304.155 259.709 298.156 262.986 287.518C260.944 286.827 261.363 286.712 258.452 286.544C261.007 283.78 265.551 277.216 267.687 271.321C265.687 270.714 262.075 269.436 259.269 269.217C262.064 264.159 264.075 252.726 264.452 242.979C261.216 242.999 256.348 244.204 253.113 245.565C253.416 238.927 252.84 229.378 252.139 224.52C248.066 224.436 244.129 224.771 240.475 225.975C240.433 221.829 240.863 216.489 239.826 208.647C235.02 208.867 232.706 209.401 228.812 210.427C228.571 204.826 227.042 196.512 226.058 192.942C223.346 193.11 220.99 194.125 217.965 195.047C217.609 189.948 217.378 182.996 215.536 177.07L209.055 178.85C209.704 175.311 208.081 164.055 208.081 164.055L204.186 165.029C204.134 157.92 202.165 153.68 199.967 149.052C197.768 153.68 195.799 157.92 195.747 165.029L191.852 164.055C191.852 164.055 190.229 175.311 190.879 178.85L184.398 177.07C182.555 182.996 182.325 189.948 181.969 195.047C178.943 194.125 176.587 193.11 173.875 192.942C172.891 196.523 171.362 204.826 171.122 210.427C167.216 209.401 164.913 208.867 160.107 208.647C159.071 216.479 159.51 221.829 159.458 225.975C155.814 224.771 151.878 224.436 147.794 224.52C147.093 229.378 146.517 238.927 146.821 245.565C143.585 244.204 139.366 244.612 136.131 244.591C136.508 254.339 137.869 264.16 140.675 269.206C137.869 269.426 134.246 270.703 132.257 271.311C134.393 277.205 138.926 283.77 141.491 286.534C138.581 286.691 138.999 286.806 136.958 287.508C140.235 298.145 153.333 303.464 184.921 306.28C188.648 306.616 194.061 307.767 193.988 313.735L193.025 393.213C192.952 399.056 189.465 400.815 187.225 398.48C170.944 381.518 161.353 369.52 150.548 352.872C152.851 340.654 151.469 332.655 146.423 323.629C142.811 317.169 138.989 316.039 137.01 324.31L135.356 331.21C124.603 313.243 90.2614 282.629 94.4912 209.118C94.8368 203.161 99.9462 200.69 103.673 200.292C135.199 197.005 149.438 190.848 152.935 181.739C152.15 181.163 150.862 181.498 149.197 181.341C151.752 178.577 153.553 172.41 155.689 166.516C153.574 164.987 151.679 163.26 148.527 162.349C151.323 153.292 152.872 144.403 153.26 134.687C150.024 134.708 145.156 135.912 141.921 137.273C142.224 130.635 143.931 123.599 143.24 118.741C139.167 118.657 135.23 118.992 131.576 120.196C131.534 116.05 131.964 110.71 130.927 102.868C126.121 103.088 123.807 103.622 119.913 104.648C119.672 99.0468 118.143 90.7336 117.159 87.1633C114.447 87.3308 112.091 88.3464 109.066 89.2677C108.71 84.1688 108.479 77.2167 106.637 71.2907L100.156 73.0706C100.805 69.5317 99.1818 58.2764 99.1818 58.2764L95.287 59.2501C95.2346 52.141 93.2663 47.9006 91.0676 43.2728C88.8688 47.9006 86.9005 52.141 86.8481 59.2501L82.9533 58.2764C82.9533 58.2764 81.3304 69.5317 81.9795 73.0706L75.4986 71.2907C73.6558 77.2167 73.4255 84.1688 73.0695 89.2677C70.0437 88.3464 67.6879 87.3308 64.9762 87.1633C63.992 90.744 62.4634 99.0468 62.2226 104.648C58.3172 103.622 56.0138 103.088 51.2081 102.868C50.1715 110.7 50.6113 116.05 50.5589 120.196C46.9153 118.992 42.9786 118.657 38.8953 118.741C38.1938 123.599 37.6179 133.148 37.9216 139.786C34.6863 138.425 29.8178 137.221 26.5825 137.2C26.9594 146.947 28.9697 158.381 31.7652 163.438C28.9592 163.657 25.3366 164.935 23.3473 165.542C25.4831 171.437 30.0167 178.001 32.5818 180.766C29.6712 180.923 30.09 181.038 28.0483 181.739C31.3254 192.377 45.2087 197.382 76.7969 200.208C80.5242 200.543 86.0315 201.695 85.8639 207.663L84.7332 248.088L81.2676 245.502C76.4723 241.921 73.8338 243.052 76.1791 250.496C77.1005 253.438 94.1667 280.022 103.349 300.176C120.53 337.89 148.485 369.383 175.153 404.312C180.681 411.557 191.601 421.116 191.517 425.712C190.973 454.809 193.779 487.465 193.151 515.943L199.946 520.99C205.076 517.158 209.421 513.985 214.195 510.258L214.248 510.248Z" fill="white" stroke="#32AC60"/>
<path d="M361.938 302.932L363.352 303.433L361.938 302.932C330.207 392.606 277.247 463.527 199.998 519.736C122.749 463.527 69.7888 392.606 38.0584 302.932C9.28919 221.602 -2.33132 123.023 2.5999 1.5H397.396C402.338 123.023 390.717 221.612 361.938 302.932Z" stroke="#32AC60" stroke-width="3"/>
</g>
<defs>
<clipPath id="clip0">
<rect width="400" height="521.59" fill="white"/>
</clipPath>
</defs>
</svg>
