<svg width="400" height="522" viewBox="0 0 400 522" fill="none" xmlns="http://www.w3.org/2000/svg">
<g clip-path="url(#clip0)">
<path d="M200.291 521.377C278.105 464.923 331.439 393.622 363.352 303.433C392.291 221.661 403.902 122.562 398.856 0.481621L398.835 0H1.16126L1.14031 0.481621C-3.89578 122.562 7.71551 221.651 36.6443 303.433C68.557 393.622 121.891 464.923 199.705 521.377L199.998 521.587L200.291 521.377Z" fill="#0085CA"/>
<path d="M262.871 48.738C261.206 53.7008 259.154 59.7106 256.411 60.2132C255.322 64.485 251.961 70.3796 250.422 72.3061C249.867 72.9971 243.899 72.4318 244.15 71.7198C245.093 69.1023 246.077 65.3749 246.548 61.6162C231.157 62.5166 231.534 77.6772 240.297 79.7398C241.344 80.368 242.779 75.2587 243.407 73.6986C243.564 73.3008 248.956 73.6777 248.883 74.3164C248.558 77.3631 245.48 82.5772 246.056 83.0798C248.097 84.8388 241.407 89.833 238.119 89.7492C227.388 89.477 210.814 102.617 217.064 112.836C235.418 158.265 311.41 157.585 291.998 254.506C287.255 278.2 276.272 297.224 267.729 319.179C266.671 321.912 267.352 325.011 268.064 328.173C275.906 362.892 284.093 415.828 256.578 442.873C242.716 456.526 216.268 468.032 206.573 467.624C198.26 467.331 181.812 426.613 187.664 411.19C192.554 398.312 199.506 391.978 206.657 386.135C218.561 376.419 241.774 347.396 236.413 331.702C233.513 323.221 224.645 319.724 221.933 331.743C221.001 335.89 222.268 340.036 217.787 341.282C151.626 362.159 155.919 373.781 149.92 381.141C145.585 386.46 145.889 374.001 144.538 369.624C143.805 367.227 137.607 368.556 132.885 371.278C129.137 373.467 127.933 369.373 132.184 360.023C133.607 356.882 134.539 354.432 127.608 354.84C122.404 355.144 118.792 356.191 120.415 352.903C123.284 347.093 133.136 341.973 146.789 338.947C163.908 336.863 194.26 336.958 185.089 325.639C183.571 323.765 185.11 321.985 163.499 322.006C146.13 322.017 139.711 319.535 110.406 338.465C105.275 341.774 106.061 339.9 106.396 334.256C106.605 330.77 108.322 326.32 108.49 324.205C108.636 322.446 106.815 321.786 103.569 322.446C95.2975 324.142 93.9888 330.916 92.7323 325.399C92.4915 322.635 92.8894 316.321 98.0721 309.369C100.313 306.364 97.6742 306.134 94.3657 306.197C89.5076 306.28 82.8486 307.359 85.0159 304.281C91.9471 294.376 105.579 291.088 126.341 297.192C133.356 299.255 141.973 301.265 151.658 303.726C156.882 305.055 145.334 289.8 142.235 282.712C132.581 260.652 129.514 232.906 163.897 213.306C145.386 186.021 147.899 169.552 141.334 169.552C118.3 169.447 114.07 160.527 96.9832 157.49C75.7499 153.711 78.6606 169.028 75.4358 166.421C69.2899 162.746 73.635 154.506 70.7138 155.438C65.1019 156.108 65.3846 161.019 63.0183 162.924C57.9718 161.846 58.2964 154.8 59.3224 152.046C59.113 150.13 53.9722 156.883 53.344 154.276C52.297 149.69 61.2594 134.257 80.43 135.399C97.758 136.425 115.044 133.116 119.808 125.892C102.197 120.856 86.9005 89.1524 75.1217 85.8229C71.52 84.8074 64.6307 92.1887 63.9188 92.2934C61.3327 92.6913 62.6519 85.3832 62.5053 84.242C62.1493 81.4674 55.0925 88.2415 53.7733 87.7076C49.4701 85.98 57.2284 77.1537 56.9457 76.023C56.6211 74.7666 49.8051 77.2584 51.1663 74.6514C51.3233 69.8561 64.7668 64.0034 78.1476 68.0343C97.7056 73.9394 105.443 85.8125 125.053 86.3255C150.768 86.9956 157.217 48.7799 177.32 32.7712C193.067 20.2385 206.646 18.5633 222.917 20.8353C235.544 22.5943 251.668 32.1744 260.63 39.0532C265.792 40.0165 266.064 46.4556 262.64 48.382L262.871 48.738Z" fill="white" stroke="#0085CA" stroke-width="3"/>
<path d="M231.063 37.8806C231.063 38.4276 230.845 38.9523 230.458 39.3391C230.072 39.7259 229.547 39.9432 229 39.9432C228.453 39.9432 227.928 39.7259 227.541 39.3391C227.155 38.9523 226.937 38.4276 226.937 37.8806C226.937 37.3336 227.155 36.8089 227.541 36.4221C227.928 36.0353 228.453 35.818 229 35.818C229.547 35.818 230.072 36.0353 230.458 36.4221C230.845 36.8089 231.063 37.3336 231.063 37.8806Z" fill="#0085CA" stroke="#0085CA" stroke-width="3"/>
<path d="M201.83 31.473C189.538 34.1638 188.324 39.8281 194.889 49.0208" stroke="#0085CA" stroke-width="3" stroke-linecap="round"/>
<path d="M174.566 220.101C163.667 228.634 149.742 240.591 149.522 261.751C149.333 279.99 173.017 307.945 186.178 327.241" stroke="#0085CA" stroke-width="3" stroke-linecap="round"/>
<path d="M256.411 60.2132C254.201 60.632 248.213 61.4801 246.548 61.6162" stroke="#0085CA" stroke-width="3"/>
<path d="M240.297 79.7399C243.051 81.0591 245.595 82.661 246.359 83.3416" stroke="#0085CA" stroke-width="3"/>
</g>
<defs>
<clipPath id="clip0">
<rect width="400" height="521.59" fill="white"/>
</clipPath>
</defs>
</svg>
