<svg width="400" height="522" viewBox="0 0 400 522" fill="none" xmlns="http://www.w3.org/2000/svg">
<g clip-path="url(#clip0)">
<rect width="400" height="521.59" fill="white"/>
<path d="M200.291 521.377C278.105 464.923 331.439 393.622 363.352 303.433C392.291 221.661 403.902 122.562 398.856 0.481621L398.835 0H1.16126L1.14031 0.481621C-3.89578 122.562 7.71551 221.651 36.6443 303.433C68.557 393.622 121.891 464.923 199.705 521.377L199.998 521.587L200.291 521.377Z" fill="#32AC60"/>
<path d="M349.112 41.8383C237.91 5.43388 161.039 30.1432 132.037 43.2308L120.289 31.4624L87.1623 51.0624L91.7167 60.967C83.5501 65.3644 32.5295 91.7071 24.9283 96.5862C19.6723 99.9575 29.3571 113.914 37.5866 128.551C45.9312 143.387 53.5639 157.072 58.0555 153.931C64.9553 149.104 120.342 110.291 120.342 110.291L188.91 233.283C214.834 283.089 236.978 334.853 252.254 378.461C254.557 384.848 279.173 376.168 295.6 364.745C314.059 351.919 323.932 336.821 320.571 333.817C304.636 318.216 280.377 291.183 261.185 263.824C248.118 245.209 238.172 226.038 227.011 209.15C191.831 155.648 157.029 89.9691 157.029 89.9691C196.187 63.8044 236.413 46.4032 349.112 41.8487V41.8383Z" fill="white"/>
</g>
<defs>
<clipPath id="clip0">
<rect width="400" height="521.59" fill="white"/>
</clipPath>
</defs>
</svg>
