<svg width="400" height="489" viewBox="0 0 400 489" fill="none" xmlns="http://www.w3.org/2000/svg">
<g clip-path="url(#clip0)">
<path d="M17.4706 187.742C43.8016 328.058 101.83 400.986 199.647 486.237C296.311 401.916 354.058 329.15 382.205 187.037C393.193 131.549 398.565 70.8316 398.596 1.40393H1.40375C1.43495 70.3012 6.55139 129.533 17.4706 187.742ZM163.021 357.022C148.177 357.022 136.135 344.979 136.135 330.136C136.135 315.285 148.177 303.249 163.021 303.249C177.871 303.249 189.914 315.285 189.914 330.136C189.914 344.979 177.871 357.022 163.021 357.022ZM234.027 357.022C219.177 357.022 207.135 344.979 207.135 330.136C207.135 315.285 219.177 303.249 234.027 303.249C248.878 303.249 260.92 315.285 260.92 330.136C260.92 344.979 248.878 357.022 234.027 357.022ZM94.6853 124.635L94.679 123.937L94.9162 124.635C96.4698 124.635 97.4182 124.966 98.5226 125.833L107.233 134.556L122.645 134.4L99.2339 106.116L99.0842 38.6542C100.189 35.89 102.684 34.3426 105.617 34.6483C107.657 34.8605 110.272 35.784 111.176 38.9661L111.32 50.1162L287.413 50.0476V40.1017C288.661 37.7557 290.807 36.6076 293.703 36.7636C296.173 36.8821 297.933 38.0863 299.087 40.4387L299.019 107.171L276.849 134.294L295.606 134.057L295.793 133.652C298.888 126.844 300.872 126.301 304.478 125.322C306.556 124.754 308.041 126.432 309.289 128.36L309.214 152.626C307.86 155.971 305.626 157.668 302.575 157.68C301.97 157.499 299.917 155.59 293.596 147.622L293.391 147.366L262.486 147.148C256.771 135.53 247.305 129.64 234.339 129.64C221.386 129.64 211.702 135.854 206.33 147.634L191.405 147.491C185.696 136.035 176.38 130.126 163.701 129.927L163.046 129.914C150.367 129.914 140.796 135.966 135.336 147.422L102.772 147.497L102.21 148.751C100.519 152.526 98.2044 157.686 94.0925 157.686C92.5326 157.686 91.7153 156.432 90.9291 154.398L90.7731 126.545C91.135 124.76 92.4952 124.66 94.6853 124.635ZM261.862 161.062C261.862 176.28 249.489 188.653 234.271 188.653C219.059 188.653 206.686 176.28 206.686 161.062C206.686 145.844 219.059 133.471 234.271 133.471C249.489 133.477 261.862 145.85 261.862 161.062ZM190.862 161.062C190.862 176.28 178.476 188.653 163.271 188.653C148.065 188.653 135.679 176.28 135.679 161.062C135.679 145.844 148.065 133.471 163.271 133.471C178.476 133.471 190.862 145.85 190.862 161.062ZM90.1242 294.62C90.6233 292.162 92.5763 292.274 94.5543 292.162C96.2764 292.068 97.412 292.467 98.7722 293.572L107.277 302.076L120.923 302.207L98.5663 274.585L98.4228 206.742C99.4398 203.635 102.179 202.093 105.455 202.181C108.531 202.262 110.79 204.134 111.638 207.098L111.507 217.642L286.477 217.568V208.146C287.856 205.344 290.377 204.121 293.503 204.283C296.373 204.433 298.264 205.931 299.549 208.508L299.48 275.645L278.11 301.789L294.907 301.864C298.07 294.907 300.179 293.921 304.048 292.867C306.656 292.162 308.309 294.208 309.744 296.38L309.95 320.982C308.678 324.464 306.001 326.61 302.294 326.61C301.234 326.61 297.371 321.756 292.804 315.99L261.793 316.059C256.259 304.541 246.875 298.563 234.102 298.551C221.33 298.538 211.902 304.666 206.542 316.277L190.725 316.415C185.234 305.009 176.099 299.05 163.445 298.838C150.604 298.607 140.92 304.684 135.542 316.346L102.99 316.421C101.237 320.283 98.7785 326.616 93.8492 326.616C91.7215 326.616 90.7356 324.738 89.9807 322.742L90.1242 294.62Z" fill="#FFD600"/>
<path d="M0 0V0.698832C0 69.983 5.11021 129.502 16.0856 188.004C28.5398 254.35 48.2943 307.268 78.2567 354.551C105.499 397.535 142.799 438.598 199.186 487.703L199.647 488.109L200.109 487.703C297.29 403.001 355.306 330.042 383.59 187.312C394.634 131.549 400 70.5071 400 0.705071V0H0ZM382.205 187.037C354.052 329.15 296.311 401.916 199.647 486.237C101.83 400.986 43.8018 328.058 17.4708 187.742C6.55155 129.533 1.4351 70.3012 1.4039 1.4039H398.602C398.565 70.8316 393.199 131.549 382.205 187.037Z" fill="#FFD600"/>
<path d="M93.8495 326.616C98.7788 326.616 101.237 320.283 102.99 316.421L135.542 316.346C140.921 304.684 150.605 298.607 163.446 298.838C176.099 299.05 185.234 305.009 190.725 316.415L206.542 316.277C211.896 304.672 221.324 298.538 234.103 298.551C246.881 298.563 256.265 304.541 261.794 316.059L292.804 315.99C297.372 321.756 301.234 326.61 302.295 326.61C306.001 326.61 308.678 324.458 309.951 320.982L309.745 296.379C308.31 294.202 306.656 292.155 304.048 292.867C300.18 293.921 298.071 294.907 294.907 301.864L278.11 301.789L299.481 275.645L299.549 208.508C298.264 205.931 296.373 204.439 293.503 204.283C290.377 204.127 287.856 205.344 286.477 208.146V217.567L111.501 217.642L111.632 207.098C110.79 204.134 108.531 202.262 105.449 202.181C102.179 202.093 99.4339 203.635 98.4169 206.742L98.5604 274.585L120.917 302.207L107.271 302.076L98.7725 293.572C97.4185 292.467 96.2829 292.074 94.5546 292.162C92.5766 292.274 90.6174 292.162 90.1245 294.62L89.981 322.742C90.7359 324.738 91.7218 326.616 93.8495 326.616Z" fill="black"/>
<path d="M163.021 303.255C148.177 303.255 136.135 315.292 136.135 330.142C136.135 344.986 148.177 357.028 163.021 357.028C177.871 357.028 189.914 344.986 189.914 330.142C189.914 315.285 177.871 303.255 163.021 303.255ZM179.849 335.42H177.89C176.336 339.495 173.142 342.771 169.105 344.418V346.527H157.861V344.711C153.437 343.164 149.918 339.713 148.271 335.333H146.349L146.374 324.077L148.308 324.083C149.968 319.753 153.468 316.346 157.855 314.817V313.139H169.098V315.086C173.148 316.758 176.349 320.052 177.909 324.158H179.868L179.849 335.42Z" fill="black"/>
<path d="M172.836 324.152L177.921 324.164C176.361 320.059 173.16 316.758 169.111 315.092V320.258C170.652 321.225 171.919 322.561 172.836 324.152Z" fill="#FFD600"/>
<path d="M157.861 319.872V314.818C153.475 316.346 149.974 319.753 148.314 324.083L153.462 324.09C154.504 322.305 156.027 320.851 157.861 319.872Z" fill="#FFD600"/>
<path d="M153.431 335.346L148.271 335.333C149.918 339.713 153.437 343.164 157.861 344.711V339.626C156.002 338.634 154.479 337.161 153.431 335.346Z" fill="#FFD600"/>
<path d="M169.105 339.245V344.418C173.142 342.764 176.336 339.495 177.89 335.42L172.805 335.402C171.888 336.962 170.64 338.284 169.105 339.245Z" fill="#FFD600"/>
<path d="M163.127 318.499C165.33 318.499 167.37 319.154 169.105 320.258V315.092V313.145H157.861V314.824V319.878C159.433 319.029 161.218 318.499 163.127 318.499Z" fill="black"/>
<path d="M163.127 340.999C161.218 340.999 159.433 340.468 157.861 339.62V344.705V346.521H169.105V344.412V339.245C167.37 340.343 165.336 340.999 163.127 340.999Z" fill="black"/>
<path d="M151.884 329.749C151.884 327.677 152.483 325.768 153.462 324.096L148.315 324.083L146.38 324.077L146.355 335.333H148.277L153.437 335.346C152.47 333.692 151.884 331.795 151.884 329.749Z" fill="black"/>
<path d="M172.836 324.152C173.784 325.805 174.383 327.696 174.383 329.742C174.383 331.814 173.784 333.729 172.811 335.395L177.896 335.414H179.855L179.887 324.158H177.927L172.836 324.152Z" fill="black"/>
<path d="M169.105 320.258C167.37 319.154 165.336 318.499 163.127 318.499C161.218 318.499 159.434 319.029 157.861 319.871C156.027 320.851 154.504 322.311 153.462 324.096C152.489 325.774 151.884 327.677 151.884 329.749C151.884 331.795 152.47 333.698 153.431 335.345C154.479 337.161 156.008 338.634 157.861 339.626C159.44 340.474 161.218 341.005 163.127 341.005C165.33 341.005 167.37 340.343 169.105 339.251C170.64 338.291 171.888 336.968 172.805 335.408C173.778 333.742 174.377 331.826 174.377 329.755C174.377 327.708 173.785 325.811 172.83 324.164C171.919 322.561 170.652 321.225 169.105 320.258Z" fill="black"/>
<path d="M234.027 303.255C219.177 303.255 207.135 315.292 207.135 330.142C207.135 344.986 219.177 357.028 234.027 357.028C248.878 357.028 260.92 344.986 260.92 330.142C260.92 315.285 248.878 303.255 234.027 303.255ZM250.849 335.42H248.896C247.336 339.495 244.142 342.771 240.111 344.418V346.527H228.861V344.711C224.437 343.164 220.918 339.713 219.277 335.333H217.349L217.374 324.077L219.308 324.083C220.968 319.753 224.468 316.346 228.855 314.817V313.139H240.105V315.086C244.154 316.758 247.355 320.052 248.909 324.158H250.868L250.849 335.42Z" fill="black"/>
<path d="M224.425 335.346L219.271 335.333C220.912 339.713 224.431 343.164 228.855 344.711V339.626C227.002 338.634 225.479 337.161 224.425 335.346Z" fill="#FFD600"/>
<path d="M240.111 339.245V344.418C244.142 342.764 247.33 339.495 248.896 335.42L243.805 335.402C242.894 336.962 241.633 338.284 240.111 339.245Z" fill="#FFD600"/>
<path d="M243.836 324.152L248.921 324.164C247.368 320.059 244.167 316.758 240.117 315.092V320.258C241.652 321.225 242.919 322.561 243.836 324.152Z" fill="#FFD600"/>
<path d="M228.861 319.872V314.818C224.468 316.346 220.974 319.753 219.315 324.083L224.462 324.09C225.51 322.305 227.027 320.851 228.861 319.872Z" fill="#FFD600"/>
<path d="M234.134 340.999C232.218 340.999 230.44 340.468 228.861 339.62V344.705V346.521H240.111V344.412V339.245C238.377 340.343 236.336 340.999 234.134 340.999Z" fill="black"/>
<path d="M234.134 318.499C236.342 318.499 238.377 319.154 240.111 320.258V315.092V313.145H228.861V314.824V319.878C230.44 319.029 232.218 318.499 234.134 318.499Z" fill="black"/>
<path d="M243.836 324.152C244.791 325.805 245.384 327.696 245.384 329.742C245.384 331.814 244.791 333.729 243.811 335.395L248.903 335.414H250.856L250.881 324.158H248.921L243.836 324.152Z" fill="black"/>
<path d="M222.884 329.749C222.884 327.677 223.483 325.768 224.462 324.096L219.315 324.089L217.38 324.083L217.355 335.339H219.283L224.437 335.352C223.476 333.692 222.884 331.795 222.884 329.749Z" fill="black"/>
<path d="M240.111 320.258C238.377 319.154 236.342 318.499 234.134 318.499C232.218 318.499 230.44 319.029 228.861 319.871C227.027 320.851 225.511 322.311 224.462 324.096C223.489 325.774 222.884 327.677 222.884 329.749C222.884 331.795 223.476 333.698 224.431 335.345C225.486 337.161 227.008 338.634 228.861 339.626C230.446 340.474 232.218 341.005 234.134 341.005C236.342 341.005 238.377 340.343 240.111 339.251C241.634 338.291 242.894 336.968 243.805 335.408C244.785 333.742 245.377 331.826 245.377 329.755C245.377 327.708 244.791 325.811 243.83 324.164C242.919 322.561 241.652 321.225 240.111 320.258Z" fill="black"/>
<path d="M94.099 157.674C98.2171 157.674 100.526 152.52 102.217 148.739L102.778 147.485L135.343 147.41C140.802 135.954 150.374 129.902 163.052 129.902L163.708 129.914C176.386 130.114 185.702 136.023 191.411 147.478L206.336 147.622C211.709 135.842 221.392 129.627 234.346 129.627C247.312 129.627 256.777 135.511 262.492 147.135L293.397 147.354L293.603 147.609C299.924 155.577 301.976 157.487 302.582 157.668C305.639 157.655 307.873 155.958 309.221 152.614L309.295 128.348C308.048 126.414 306.563 124.741 304.485 125.309C300.885 126.289 298.894 126.832 295.799 133.639L295.612 134.045L276.856 134.282L299.025 107.158L299.094 40.4261C297.939 38.0738 296.18 36.8696 293.709 36.751C290.814 36.6013 288.661 37.7431 287.42 40.0892V50.0413L111.326 50.1162L111.183 38.9661C110.272 35.7777 107.664 34.8604 105.623 34.6483C102.691 34.3426 100.189 35.89 99.0906 38.6541L99.2342 106.11L122.645 134.394L107.233 134.55L98.5228 125.827C97.4184 124.954 96.47 124.629 94.9164 124.629L94.6793 123.93L94.6855 124.629C92.4954 124.66 91.1352 124.76 90.7795 126.526L90.9355 154.379C91.7217 156.413 92.5391 157.674 94.099 157.674Z" fill="black"/>
<path d="M163.271 134.881C148.832 134.881 137.09 146.624 137.09 161.062C137.09 175.507 148.832 187.243 163.271 187.243C177.709 187.243 189.452 175.5 189.452 161.062C189.452 146.624 177.709 134.881 163.271 134.881ZM181.21 160.769L179.812 166.353H178.882C177.247 170.814 173.766 174.371 169.348 176.099V177.46H158.104V176.386C153.3 174.777 149.481 171.02 147.765 166.266H146.879L145.001 162.89L145.014 159.253L146.898 155.016H147.809C149.538 150.299 153.337 146.592 158.104 145.001V144.072H169.348V145.282C173.785 147.023 177.285 150.611 178.901 155.103H179.837L181.21 157.948V160.769Z" fill="black"/>
<path d="M163.271 133.477C148.059 133.477 135.679 145.85 135.679 161.068C135.679 176.286 148.065 188.66 163.271 188.66C178.477 188.66 190.862 176.286 190.862 161.068C190.862 145.85 178.477 133.477 163.271 133.477ZM163.271 187.249C148.832 187.249 137.09 175.507 137.09 161.068C137.09 146.63 148.832 134.887 163.271 134.887C177.709 134.887 189.452 146.63 189.452 161.068C189.452 175.507 177.709 187.249 163.271 187.249Z" fill="black"/>
<path d="M177.372 166.341L173.847 166.334C172.799 168.269 171.245 169.86 169.354 170.964V174.577V175.351V176.093C173.772 174.365 177.254 170.802 178.888 166.347L178.146 166.341H177.372Z" fill="#FFD600"/>
<path d="M158.105 174.858V171.351C155.871 170.247 154.055 168.475 152.888 166.285L149.288 166.272H148.521H147.772C149.481 171.027 153.306 174.783 158.111 176.393V175.65V174.858H158.105Z" fill="#FFD600"/>
<path d="M149.313 155.016L152.913 155.028C154.086 152.863 155.896 151.104 158.104 150.005V146.524V145.738V144.995C153.337 146.592 149.537 150.299 147.809 155.01H148.558H149.313V155.016Z" fill="#FFD600"/>
<path d="M169.348 146.792V150.386C171.264 151.503 172.823 153.119 173.872 155.078L177.391 155.097H178.158H178.901C177.285 150.604 173.784 147.017 169.348 145.276V146.018V146.792Z" fill="#FFD600"/>
<path d="M178.901 155.103H178.158H177.391L173.872 155.084C172.824 153.125 171.264 151.509 169.348 150.392V146.798V146.025V145.282V144.072H158.104V145.001V145.744V146.53V150.012C155.896 151.11 154.086 152.869 152.913 155.035L149.313 155.022H148.552H147.803H146.892L145.008 159.259L144.995 162.896L146.873 166.272H147.759H148.508H149.275L152.876 166.284C154.042 168.475 155.864 170.253 158.092 171.351V174.858V175.644V176.386V177.46H169.336V176.099V175.357V174.583V170.964C171.232 169.853 172.78 168.262 173.828 166.334L177.354 166.341H178.121L178.863 166.347H179.793L181.191 160.762L181.197 157.942L179.824 155.097H178.901V155.103ZM172.243 166.328C171.482 167.514 170.502 168.543 169.348 169.354C167.651 170.527 165.598 171.22 163.371 171.22C161.443 171.22 159.664 170.665 158.104 169.754C156.632 168.893 155.384 167.72 154.479 166.272C153.45 164.65 152.826 162.74 152.826 160.681C152.826 158.597 153.456 156.663 154.504 155.035C155.415 153.606 156.651 152.451 158.104 151.603C159.664 150.692 161.449 150.13 163.371 150.13C165.598 150.13 167.651 150.829 169.348 152.008C170.527 152.826 171.52 153.874 172.275 155.084C173.304 156.713 173.922 158.622 173.922 160.688C173.922 162.753 173.292 164.693 172.243 166.328Z" fill="black"/>
<path d="M169.348 152.002C167.651 150.823 165.598 150.124 163.371 150.124C161.443 150.124 159.664 150.686 158.104 151.597C156.651 152.445 155.409 153.599 154.504 155.028C153.462 156.663 152.826 158.591 152.826 160.675C152.826 162.734 153.45 164.65 154.479 166.266C155.384 167.707 156.626 168.886 158.104 169.747C159.664 170.658 161.449 171.214 163.371 171.214C165.598 171.214 167.651 170.521 169.348 169.348C170.509 168.537 171.488 167.507 172.243 166.322C173.285 164.681 173.922 162.747 173.922 160.675C173.922 158.616 173.304 156.701 172.275 155.072C171.52 153.868 170.527 152.819 169.348 152.002Z" fill="black"/>
<path d="M234.271 134.881C219.833 134.881 208.09 146.624 208.09 161.062C208.09 175.507 219.833 187.243 234.271 187.243C248.715 187.243 260.458 175.5 260.458 161.062C260.458 146.624 248.715 134.881 234.271 134.881ZM254.256 162.478L250.812 166.347H249.882C248.26 170.808 244.772 174.365 240.354 176.093V177.453H229.104V176.38C224.3 174.77 220.475 171.014 218.772 166.26H217.88L216.045 162.884L216.051 159.246L217.904 155.01H218.809C220.538 150.293 224.331 146.586 229.098 144.995V144.065H240.348V145.276C244.778 147.017 248.279 150.604 249.895 155.097H250.831L254.25 159.646L254.256 162.478Z" fill="black"/>
<path d="M234.271 133.477C219.059 133.477 206.686 145.85 206.686 161.068C206.686 176.286 219.059 188.66 234.271 188.66C249.489 188.66 261.862 176.286 261.862 161.068C261.862 145.85 249.489 133.477 234.271 133.477ZM234.271 187.249C219.832 187.249 208.09 175.507 208.09 161.068C208.09 146.63 219.832 134.887 234.271 134.887C248.715 134.887 260.458 146.63 260.458 161.068C260.458 175.507 248.715 187.249 234.271 187.249Z" fill="black"/>
<path d="M220.319 155.016L223.913 155.028C225.092 152.863 226.896 151.104 229.104 150.005V146.524V145.738V144.995C224.337 146.592 220.544 150.299 218.815 155.01H219.552H220.319V155.016Z" fill="#FFD600"/>
<path d="M240.354 146.792V150.386C242.27 151.503 243.824 153.119 244.872 155.078L248.391 155.097H249.165H249.901C248.285 150.604 244.784 147.017 240.354 145.276V146.018V146.792Z" fill="#FFD600"/>
<path d="M229.105 174.858V171.351C226.877 170.247 225.061 168.475 223.888 166.285L220.294 166.272H219.521H218.772C220.475 171.027 224.3 174.783 229.105 176.393V175.65V174.858Z" fill="#FFD600"/>
<path d="M248.379 166.341L244.847 166.334C243.805 168.269 242.251 169.86 240.361 170.964V174.577V175.351V176.093C244.778 174.365 248.266 170.802 249.888 166.347L249.146 166.341H248.379Z" fill="#FFD600"/>
<path d="M249.901 155.103H249.165H248.391L244.872 155.084C243.83 153.125 242.276 151.509 240.354 150.392V146.798V146.025V145.282V144.072H229.105V145.001V145.744V146.53V150.012C226.896 151.11 225.092 152.869 223.913 155.035L220.319 155.022H219.552H218.815H217.911L216.058 159.259L216.051 162.896L217.886 166.272H218.778H219.527H220.3L223.894 166.284C225.068 168.475 226.889 170.253 229.111 171.351V174.858V175.644V176.386V177.46H240.361V176.099V175.357V174.583V170.964C242.258 169.853 243.805 168.262 244.847 166.334L248.379 166.341H249.14L249.882 166.347H250.812L254.256 162.478L254.262 159.652L250.843 155.103H249.901ZM243.25 166.328C242.488 167.514 241.509 168.543 240.354 169.354C238.651 170.527 236.592 171.22 234.377 171.22C232.449 171.22 230.664 170.665 229.105 169.754C227.638 168.893 226.39 167.72 225.479 166.272C224.456 164.65 223.832 162.74 223.832 160.681C223.832 158.597 224.456 156.663 225.504 155.035C226.415 153.606 227.651 152.451 229.105 151.603C230.664 150.692 232.455 150.13 234.377 150.13C236.592 150.13 238.651 150.829 240.354 152.008C241.527 152.826 242.513 153.874 243.281 155.084C244.304 156.713 244.922 158.622 244.922 160.688C244.922 162.753 244.298 164.693 243.25 166.328Z" fill="black"/>
<path d="M240.354 152.002C238.651 150.823 236.592 150.124 234.377 150.124C232.449 150.124 230.664 150.686 229.104 151.597C227.651 152.445 226.409 153.599 225.504 155.028C224.462 156.663 223.832 158.591 223.832 160.675C223.832 162.734 224.456 164.65 225.479 166.266C226.384 167.707 227.632 168.886 229.104 169.747C230.664 170.658 232.455 171.214 234.377 171.214C236.592 171.214 238.651 170.521 240.354 169.348C241.515 168.537 242.494 167.507 243.249 166.322C244.298 164.681 244.922 162.747 244.922 160.675C244.922 158.616 244.304 156.701 243.281 155.072C242.513 153.868 241.527 152.819 240.354 152.002Z" fill="black"/>
</g>
<defs>
<clipPath id="clip0">
<rect y="3.05176e-05" width="400" height="488.11" fill="white"/>
</clipPath>
</defs>
</svg>
