<svg width="400" height="522" viewBox="0 0 400 522" fill="none" xmlns="http://www.w3.org/2000/svg">
<g clip-path="url(#clip0)">
<path d="M200.291 521.377C278.105 464.923 331.439 393.622 363.352 303.433C392.291 221.661 403.902 122.562 398.856 0.481652L398.835 3.05176e-05H1.16126L1.14031 0.481652C-3.89578 122.562 7.71551 221.651 36.6443 303.433C68.557 393.622 121.891 464.923 199.705 521.377L199.998 521.587L200.291 521.377Z" fill="#32AC60"/>
<path d="M197.307 70.61C194.826 74.4316 196.993 77.3213 196.48 81.8653C196.072 85.3728 193.894 88.5766 194.616 96.1151C205.045 97.7693 211.965 88.6813 221.252 83.9279C214.331 75.2587 207.934 69.6782 197.297 70.7147L197.307 70.61Z" fill="#FFE000" stroke="black" stroke-width="0.99"/>
<path d="M227.66 44.2779C232.413 40.048 236.538 36.1217 247.584 34.3627C256.672 32.9179 259.97 24.7617 271.435 23.5157C274.22 25.2747 275.56 27.1279 274.43 29.2952C268.231 31.2531 259.457 32.698 258.222 36.7289C256.882 41.0636 255.018 42.7178 252.547 46.0264" fill="#FFE000"/>
<path d="M227.66 44.2779C232.413 40.048 236.538 36.1217 247.584 34.3627C256.672 32.9179 259.97 24.7617 271.435 23.5157C274.22 25.2747 275.56 27.1279 274.43 29.2952C268.231 31.2531 259.457 32.698 258.222 36.7289C256.882 41.0636 255.018 42.7178 252.547 46.0264" stroke="black" stroke-width="0.99" stroke-linecap="round" stroke-linejoin="round"/>
<path d="M61.7828 99.1514C66.7352 100.387 69.8553 101.696 72.1273 104.072C73.8862 105.936 78.6815 104.303 77.3413 101.518C75.4777 97.3925 65.9081 94.9215 61.6782 99.2561L61.7828 99.1514Z" fill="#FFE000" stroke="black" stroke-width="0.99" stroke-linejoin="round"/>
<path d="M132.456 150.737L95.8 131.64C91.6748 129.473 90.4289 124.615 91.0466 120.071C91.9785 113.359 89.2877 109.956 86.8167 106.753C84.8588 104.271 77.111 97.2563 72.6717 102.313C69.1642 106.24 70.6091 108.093 70.0856 112.229C66.1593 120.699 74.5249 123.589 69.7715 126.583C64.5051 128.96 68.9444 148.685 72.8706 151.47C112.311 178.106 147.731 189.162 172.305 208.26C162.086 187.194 158.673 164.579 132.655 150.853L132.456 150.737Z" fill="#FFE000" stroke="black" stroke-width="0.99"/>
<path d="M188.732 75.2587C187.078 72.9867 183.57 75.3634 184.188 78.2532C186.356 90.1262 204.835 82.0538 211.243 91.7596L211.557 81.1429C201.537 74.8399 194.627 83.6243 188.732 75.2587Z" fill="#E00E00" stroke="black" stroke-width="0.99"/>
<path d="M75.6033 258.767C78.2104 255.961 83.2883 253.647 90.031 258.034C93.9783 260.558 87.3298 264.861 85.2358 262.788C84.2621 261.898 81.6131 259.092 75.6243 258.872L75.6033 258.767Z" fill="#FFE000" stroke="black" stroke-width="0.99" stroke-linejoin="round"/>
<path d="M202.574 312.238C208.667 290.345 219.305 266.808 218.677 243.156C202.26 246.046 185.036 244.266 169.111 251.103C159.29 255.323 158.547 257.281 152.485 268.557C145.156 280.639 134.414 308.929 131.932 307.694C126.352 305.014 116.238 296.124 114.175 291.277C109.317 279.707 111.39 258.851 90.8372 258.338C86.712 258.233 83.0894 258.746 84.2306 268.662C84.8484 273.614 85.6755 278.472 84.8484 283.634C84.1259 288.282 85.9791 293.025 87.8428 295.611C99.9252 313.578 113.966 328.446 130.487 340.842C133.586 343.219 137.712 343.627 140.402 340.737C151.145 329.074 175.1 308.008 202.563 312.133L202.574 312.238Z" fill="#FFE000" stroke="black" stroke-width="0.99"/>
<path d="M71.9493 20.2177C76.6189 21.6626 78.6501 24.0811 80.6185 26.2484C82.2727 27.798 85.1625 25.9762 84.9531 23.4948C84.639 19.6733 74.8076 17.4641 71.9388 20.2177H71.9493Z" fill="#FFE000" stroke="black" stroke-width="0.99"/>
<path d="M99.7263 56.9781C99.318 64.5165 139.062 98.4918 158.17 117.589C162.924 122.238 176.346 108.198 200.815 110.365L212.384 105.611L199.474 104.575C189.36 104.575 189.319 89.2782 193.758 89.2782C197.37 89.2782 198.92 92.2726 203.673 91.1418C205.327 90.7335 210.834 90.3356 211.452 80.5252C211.662 77.0177 208.049 74.4316 201.024 74.4316C196.166 74.3269 193.486 71.7304 193.695 68.5265L193.894 62.6319C192.763 60.7682 192.962 59.5642 193.486 57.7005C194.522 53.8789 200.919 54.2977 204.846 51.0939C208.049 48.5078 211.662 44.2779 217.137 43.1471C224.571 41.5976 240.266 42.9377 240.266 42.9377C250.181 46.5499 264.839 52.1304 270.001 68.9558C274.859 84.7551 270.723 94.6702 266.598 108.093C261.122 126.059 248.422 143.094 248.223 156.004C247.815 182.64 258.138 213.212 277.958 236.958C297.788 260.809 286.324 282.283 309.766 292.303C314.928 294.47 318.236 291.371 322.257 288.9L330.622 305.003C315.441 317.389 295.485 313.986 287.632 299.119C286.596 297.161 287.297 293.392 287.768 289.099C286.428 297.569 287.559 298.7 278.785 306.134C264.127 318.52 249.563 334.947 246.16 352.809C243.061 369.122 246.265 378.524 255.353 394.114C260.107 402.27 257.625 409.086 254.631 415.692C249.155 427.984 244.925 437.889 237.596 447.804C233.471 453.385 229.743 461.017 217.87 461.541C207.128 461.949 206.929 460.714 203.108 458.651C198.354 456.17 192.575 459.887 188.031 458.337C182.66 456.473 182.042 458.128 179.56 455.028C175.529 450.076 178.43 444.496 182.241 439.847C184.827 436.748 186.167 434.79 193.81 433.963C198.972 433.345 208.468 434.371 213.326 431.377C218.184 428.277 227.723 407.536 225.199 403.6C212.374 383.623 197.841 366.525 188.125 344.433C186.471 340.821 183.686 323.985 187.916 313.871C196.176 294.25 205.16 274.944 216.007 256.464C217.766 253.574 215.598 250.37 211.881 246.758C188.24 222.907 174.294 223.933 164.285 201.119L150.422 169.741C146.088 159.825 133.073 160.652 130.906 157.145C112.112 126.688 92.9103 96.3245 76.6922 65.7624C75.4567 63.3857 72.3576 54.8212 76.7969 50.1725C77.9277 45.1155 75.4567 39.6396 78.8595 36.5405C80.5138 35.0956 80.9221 33.6508 79.7913 31.1694C77.9277 27.3478 81.0268 21.5683 86.3979 22.1861C93.6223 23.1179 95.4859 26.9395 98.9934 32.1012C102.71 38.4042 100.03 48.0052 99.8205 56.8838L99.7263 56.9781Z" fill="#FFE000" stroke="black" stroke-linejoin="round"/>
<path d="M236.643 47.6911C242.014 44.4873 245.312 42.6341 259.468 40.7704C266.284 39.8386 271.655 33.4414 281.151 30.8553L288.292 37.9121C288.292 37.9121 266.389 37.8807 265.561 46.2463C264.63 56.7791 261.122 66.0765 261.122 66.0765" fill="#FFE000"/>
<path d="M236.643 47.6911C242.014 44.4873 245.312 42.6341 259.468 40.7704C266.284 39.8386 271.655 33.4414 281.151 30.8553L288.292 37.9121C288.292 37.9121 266.389 37.8807 265.561 46.2463C264.63 56.7791 261.122 66.0765 261.122 66.0765" stroke="black" stroke-width="0.99" stroke-linecap="round" stroke-linejoin="round"/>
<path d="M318.446 291.382C324.183 291.622 326.926 300.857 326.204 307.987C333.742 304.375 336.192 298.564 335.973 290.533C334.528 292.397 332.381 293.235 330.936 293.538C332.067 290.753 333.03 287.518 332.099 284.21C330.758 286.89 328.748 288.701 326.476 289.623C327.408 286.314 326.874 284.283 326.256 280.985C323.88 285.853 320.917 290.062 318.404 291.35L318.446 291.382Z" fill="black" stroke="black" stroke-width="0.99"/>
<path d="M270.514 23.6309C273.1 25.4946 273.822 27.3478 274.231 29.4104C276.189 29.0963 277.948 28.3738 280.22 27.8608C278.775 26.2065 277.225 25.9971 275.675 25.3794L278.67 23.1074C276.084 22.5944 273.089 22.898 270.409 23.6204L270.514 23.6309Z" fill="black" stroke="black" stroke-width="0.99"/>
<path d="M280.942 30.96C283.622 30.1328 285.067 30.4469 287.863 30.7506L285.695 32.7085L291.475 33.1168C290.135 34.1533 289.517 34.8758 288.69 35.5982C290.553 36.2159 292.302 36.9384 293.548 37.7655L284.565 38.0796C285.392 35.9123 283.12 33.4309 281.057 30.96H280.942Z" fill="black" stroke="black" stroke-width="0.99"/>
<path d="M213.41 88.5767C211.452 103.549 203.704 110.773 194.826 117.694C202.155 116.867 209.39 113.045 213.62 106.543C213.724 110.668 210.834 113.768 207.945 116.867C213.316 115.527 221.158 110.878 223.126 102.408C223.639 106.533 221.577 110.459 220.132 112.731C225.294 111.181 232.214 103.434 231.387 95.801" fill="#FFE000"/>
<path d="M213.41 88.5767C211.452 103.549 203.704 110.773 194.826 117.694C202.155 116.867 209.39 113.045 213.62 106.543C213.724 110.668 210.834 113.768 207.945 116.867C213.316 115.527 221.158 110.878 223.126 102.408C223.639 106.533 221.577 110.459 220.132 112.731C225.294 111.181 232.214 103.434 231.387 95.801" stroke="black" stroke-width="0.99" stroke-linecap="round" stroke-linejoin="round"/>
<path d="M81.0582 48.6544C80.7441 46.6965 78.2418 44.8851 76.6922 44.1732C74.2213 43.0319 69.939 43.4193 67.9811 44.3512C71.7922 46.4033 74.3364 48.8009 75.3625 50.4133C77.0168 51.9105 81.2676 51.1253 81.0582 48.6544Z" fill="#FFE000" stroke="black" stroke-width="0.99"/>
<path d="M69.3632 30.4469C73.1114 32.7189 76.0849 34.8025 78.5663 37.3886C80.1159 39.0428 83.1103 36.0275 82.2832 33.7555C81.0477 30.1433 73.08 28.2796 69.3632 30.4574V30.4469Z" fill="#FFE000" stroke="black" stroke-width="0.99"/>
<path d="M211.19 52.7377C212.824 52.5283 219.493 51.8687 220.614 51.921C221.221 51.9419 220.153 52.2037 218.038 52.6644C216.206 53.0622 217.86 55.6169 214.195 55.8159C212.007 55.931 210.929 53.1355 211.756 53.5439C210.311 53.2298 210.782 52.8005 211.19 52.7481V52.7377Z" stroke="black" stroke-width="0.99"/>
<path d="M254.505 44.8014C244.799 49.7537 244.799 53.7847 246.967 56.9885" stroke="black" stroke-width="0.99" stroke-linecap="round"/>
<path d="M60.2961 121.924C66.5991 124.3 66.4839 124.311 69.1642 126.583C73.1952 129.682 76.2315 124.018 70.6196 120.531C66.0965 117.715 62.8508 119.39 60.2333 121.861L60.2961 121.924Z" fill="#FFE000" stroke="black" stroke-width="0.99" stroke-linejoin="round"/>
<path d="M60.2752 109.758C64.4004 110.888 66.6828 111.496 69.4783 113.255C71.2373 114.385 76.399 114.438 75.4672 111.653C75.0589 110.208 72.902 107.915 68.9758 107.192C65.6672 106.575 62.0341 107.381 60.2752 109.758Z" fill="#FFE000" stroke="black" stroke-width="0.99" stroke-linejoin="round"/>
<path d="M83.414 118.322C82.0738 114.291 77.9381 112.019 74.0223 112.229C69.0176 112.438 69.0072 114.867 69.0386 117.348" fill="#FFE000"/>
<path d="M83.414 118.322C82.0738 114.291 77.9381 112.019 74.0223 112.229C69.0176 112.438 69.0072 114.867 69.0386 117.348" stroke="black" stroke-width="0.99" stroke-linecap="round" stroke-linejoin="round"/>
<path d="M74.8599 270.483C77.446 267.594 82.6078 265.238 88.4919 267.813C92.6171 269.572 89.0992 274.137 86.3142 273.206C82.346 271.248 78.6396 270.661 74.8704 270.483H74.8599Z" fill="#FFE000" stroke="black" stroke-width="0.99"/>
<path d="M76.3572 285.079C80.0217 281.414 85.6022 280.671 90.6907 283.634C94.5646 285.885 89.4028 289.78 86.9005 288.199C84.6076 286.754 81.5398 286.01 76.3572 285.079Z" fill="#FFE000" stroke="black" stroke-width="0.99"/>
<path d="M198.166 466.294C201.265 460.096 204.825 458.892 205.024 457.039C205.338 454.767 205.736 453.217 205.118 450.945C202.019 452.181 201.872 452.547 199.705 455.133C196.7 458.735 196.093 463.195 198.155 466.294H198.166Z" fill="#FFE000" stroke="black" stroke-width="0.99" stroke-linejoin="round"/>
<path d="M182.848 465.676C179.958 461.75 181.874 458.243 183.319 455.761C184.356 453.898 186.314 452.453 190.03 450.704C191.161 450.191 191.528 455.971 189.455 457.625C185.424 460.829 184.597 462.682 182.848 465.676Z" fill="#FFE000" stroke="black" stroke-width="0.99" stroke-linejoin="round"/>
<path d="M171.75 462.096C171.289 456.63 172.744 452.191 177.76 448.076C177.1 451.573 178.231 453.322 179.529 455.248C176.325 456.798 173.498 459.824 171.75 462.096Z" fill="#FFE000" stroke="black" stroke-width="0.99" stroke-linejoin="round"/>
<path d="M194.417 442.653C188.429 447.302 185.445 459.279 191.947 458.662L197.893 457.562" fill="#FFE000"/>
<path d="M194.417 442.653C188.429 447.302 185.445 459.279 191.947 458.662L197.893 457.562" stroke="black" stroke-width="0.99" stroke-linecap="round"/>
<path d="M208.667 445.333C205.055 449.458 202.27 454.002 203.61 458.965C204.542 462.577 211.295 461.363 214.29 461.572" fill="#FFE000"/>
<path d="M208.667 445.333C205.055 449.458 202.27 454.002 203.61 458.965C204.542 462.577 211.295 461.363 214.29 461.572" stroke="black" stroke-width="0.99" stroke-linecap="round"/>
<path d="M85.1939 279.079C85.1415 277.142 84.6494 273.865 85.1625 272.525C86.9214 268.086 96.7319 270.316 99.9357 273.928" fill="#FFE000"/>
<path d="M85.1939 279.079C85.1415 277.142 84.6494 273.865 85.1625 272.525C86.9214 268.086 96.7319 270.316 99.9357 273.928" stroke="black" stroke-width="0.99" stroke-linecap="round"/>
<path d="M87.602 295.193C86.6702 293.643 85.1729 290.753 85.4766 288.691C86.0943 284.566 96.4178 283.32 100.962 288.073" fill="#FFE000"/>
<path d="M87.602 295.193C86.6702 293.643 85.1729 290.753 85.4766 288.691C86.0943 284.566 96.4178 283.32 100.962 288.073" stroke="black" stroke-width="0.99" stroke-linecap="round"/>
<path d="M91.8738 41.1892C89.3924 39.1266 86.3979 34.8862 81.655 35.6087C78.0428 36.1217 76.9016 38.6031 77.0063 42.1106" fill="#FFE000"/>
<path d="M91.8738 41.1892C89.3924 39.1266 86.3979 34.8862 81.655 35.6087C78.0428 36.1217 76.9016 38.6031 77.0063 42.1106" stroke="black" stroke-width="0.99" stroke-linecap="round"/>
<path d="M86.6073 53.68C85.6755 50.6855 82.8905 49.7537 79.2783 49.9631C74.2213 50.1725 74.6296 53.9941 74.5249 56.2661" fill="#FFE000"/>
<path d="M86.6073 53.68C85.6755 50.6855 82.8905 49.7537 79.2783 49.9631C74.2213 50.1725 74.6296 53.9941 74.5249 56.2661" stroke="black" stroke-width="0.99" stroke-linecap="round"/>
<path d="M83.0999 131.745C81.9691 127.41 77.4461 123.798 70.3159 125.546C66.3897 126.478 67.4262 135.462 67.4262 135.462" fill="#FFE000"/>
<path d="M83.0999 131.745C81.9691 127.41 77.4461 123.798 70.3159 125.546C66.3897 126.478 67.4262 135.462 67.4262 135.462" stroke="black" stroke-width="0.99" stroke-linecap="round" stroke-linejoin="round"/>
<path d="M199.087 60.6949L193.894 62.6423" stroke="black" stroke-width="0.99" stroke-linecap="round"/>
<path d="M212.3 52.6539C212.185 54.2977 212.499 55.397 213.975 55.2714C215.933 55.1039 216.227 54.0569 215.933 52.1723L219.389 51.5441C216.425 52.8214 217.923 56.5278 214.174 56.4022C211.222 56.3079 211.002 53.4496 210.855 52.6644L212.3 52.6539Z" fill="black"/>
</g>
<defs>
<clipPath id="clip0">
<rect y="3.05176e-05" width="400" height="521.59" fill="white"/>
</clipPath>
</defs>
</svg>
