<svg width="400" height="488" viewBox="0 0 400 488" fill="none" xmlns="http://www.w3.org/2000/svg">
<g clip-path="url(#clip0)">
<path d="M0.0309215 0V1.60774C-0.481126 63.9633 4.90197 126.228 16.1084 187.57C42.3682 328.784 100.515 401.936 198.587 487.013L199.525 487.951L200.597 487.013C297.598 401.936 355.343 329.856 383.612 187.57C395.051 126.256 400.525 63.9776 399.957 1.60774V0H0.0309215Z" fill="#D0342F"/>
<path d="M183.582 187.704L158.26 162.382L175.141 145.635L200.329 170.823L225.517 145.635L242.399 162.382L217.077 187.704L242.399 212.892L225.517 229.639L200.329 204.451L175.141 229.639L158.26 212.892L183.582 187.704Z" fill="#FFED42"/>
<path d="M103.864 108.657L78.6757 83.4689L95.557 66.7216L120.745 91.9096L145.933 66.7216L162.68 83.4689L137.492 108.657L162.68 133.845L145.933 150.726L120.745 125.538L95.557 150.726L78.6757 133.845L103.864 108.657Z" fill="#FFED42"/>
<path d="M263.031 108.657L237.843 83.4689L254.59 66.7216L279.778 91.9096L304.966 66.7216L321.847 83.4689L296.659 108.657L321.847 133.845L304.966 150.726L279.778 125.538L254.59 150.726L237.843 133.845L263.031 108.657Z" fill="#FFED42"/>
<path d="M262.896 268.092L237.574 242.904L254.456 226.156L279.644 251.344L304.832 226.156L321.713 242.904L296.525 268.092L321.713 293.28L304.832 310.161L279.644 284.973L254.456 310.161L237.574 293.28L262.896 268.092Z" fill="#FFED42"/>
<path d="M103.998 267.824L78.8098 242.636L95.6912 225.754L120.879 251.076L146.067 225.754L162.815 242.636L137.627 267.824L162.815 293.012L146.067 309.893L120.879 284.571L95.6912 309.893L78.8098 293.012L103.998 267.824Z" fill="#FFED42"/>
</g>
<defs>
<clipPath id="clip0">
<rect y="3.05176e-05" width="400" height="487.95" fill="white"/>
</clipPath>
</defs>
</svg>
