<svg width="400" height="522" viewBox="0 0 400 522" fill="none" xmlns="http://www.w3.org/2000/svg">
<g clip-path="url(#clip0)">
<path d="M200.291 521.377C278.105 464.923 331.439 393.622 363.352 303.433C392.291 221.661 403.902 122.562 398.856 0.481652L398.835 3.05176e-05H1.16126L1.14031 0.481652C-3.89578 122.562 7.71551 221.651 36.6443 303.433C68.557 393.622 121.891 464.923 199.705 521.377L199.998 521.587L200.291 521.377Z" fill="#32AC60"/>
<path d="M225.608 248.528C225.409 231.608 205.84 216.322 200.239 198.596C194.637 216.332 175.069 231.608 174.87 248.528C174.671 262.893 183.434 272.682 200.239 272.682C217.054 272.682 225.817 262.798 225.608 248.528Z" fill="white"/>
<path d="M97.8731 248.528C97.6742 231.608 78.1057 216.322 72.5042 198.596C66.9027 216.332 47.3342 231.608 47.1353 248.528C46.9363 262.893 55.6998 272.682 72.5042 272.682C89.3191 272.682 98.0825 262.798 97.8731 248.528Z" fill="white"/>
<path d="M353.342 248.528C353.143 231.608 333.575 216.322 327.973 198.596C322.372 216.332 302.803 231.608 302.605 248.528C302.406 262.893 311.169 272.682 327.973 272.682C344.788 272.682 353.552 262.798 353.342 248.528Z" fill="white"/>
<path d="M288.428 164.767C288.229 147.848 268.661 132.561 263.059 114.836C257.458 132.572 237.889 147.848 237.69 164.767C237.491 179.132 246.255 188.922 263.059 188.922C279.874 188.922 288.637 179.038 288.428 164.767Z" fill="white"/>
<path d="M162.787 164.767C162.589 147.848 143.02 132.561 137.419 114.836C131.817 132.572 112.249 147.848 112.05 164.767C111.851 179.132 120.614 188.922 137.419 188.922C154.233 188.922 162.997 179.038 162.787 164.767Z" fill="white"/>
<path d="M97.8731 81.0068C97.6742 64.0872 78.1057 48.8009 72.5042 31.0751C66.9027 48.8009 47.3342 64.0872 47.1353 81.0068C46.9363 95.3717 55.6998 105.161 72.5042 105.161C89.3191 105.161 98.0825 95.2775 97.8731 81.0068Z" fill="white"/>
<path d="M225.608 81.0068C225.409 64.0872 205.84 48.8009 200.239 31.0751C194.637 48.8114 175.069 64.0872 174.87 81.0068C174.671 95.3717 183.434 105.161 200.239 105.161C217.054 105.161 225.817 95.2775 225.608 81.0068Z" fill="white"/>
<path d="M353.342 81.0068C353.143 64.0872 333.575 48.8009 327.973 31.0751C322.372 48.8114 302.803 64.0872 302.605 81.0068C302.406 95.3717 311.169 105.161 327.973 105.161C344.788 105.161 353.552 95.2775 353.342 81.0068Z" fill="white"/>
<path d="M288.428 332.288C288.229 315.368 268.661 300.082 263.059 282.356C257.458 300.093 237.889 315.368 237.69 332.288C237.491 346.653 246.255 356.442 263.059 356.442C279.874 356.442 288.637 346.559 288.428 332.288Z" fill="white"/>
<path d="M162.787 332.288C162.589 315.368 143.02 300.082 137.419 282.356C131.817 300.093 112.249 315.368 112.05 332.288C111.851 346.653 120.614 356.442 137.419 356.442C154.233 356.442 162.997 346.559 162.787 332.288Z" fill="white"/>
<path d="M226.309 416.415C226.1 399.035 205.997 383.33 200.239 365.112C194.48 383.33 174.378 399.035 174.168 416.415C173.959 431.178 182.963 441.229 200.239 441.229C217.514 441.229 226.519 431.073 226.309 416.415Z" fill="white"/>
</g>
<defs>
<clipPath id="clip0">
<rect y="3.05176e-05" width="400" height="521.59" fill="white"/>
</clipPath>
</defs>
</svg>
