<svg width="400" height="466" viewBox="0 0 400 466" fill="none" xmlns="http://www.w3.org/2000/svg">
<g clip-path="url(#clip0)">
<path fill-rule="evenodd" clip-rule="evenodd" d="M399.998 0.0807495V260.874C399.998 345.408 400.921 389.349 360.862 426.446C321.488 462.909 289.163 465.435 240.013 465.435H200.093H160.172C111.023 465.435 78.6974 462.909 39.323 426.446C-0.735882 389.349 0.187094 345.408 0.187094 260.874V0.0807495C133.457 0.0807495 266.728 0.0807495 399.998 0.0807495Z" fill="#D0342F"/>
<path fill-rule="evenodd" clip-rule="evenodd" d="M139.361 230.716C165.137 212.58 186.773 192.209 205.697 168.504C239.374 126.321 263.81 79.5837 282.496 58.0625C310.14 26.225 333.922 8.2316 342.964 0.248728L323.789 3.05176e-05C309.959 10.1099 279.193 40.792 279.193 40.792C279.193 40.792 278.528 22.3438 277.356 0.102952L261.756 0.174627L261.44 9.8586L242.397 32.5125L241.859 0.383417L221.517 0.679155C221.517 0.679155 202.677 13.7595 197.446 16.7465L196.807 0.642097L181.96 0.571554L182.548 36.6624L156.28 15.656L155.855 0.665639L140.243 0.329636L107.894 20.5095L107.608 0.111221L94.2026 0.25909L94.1927 5.17463L47.8959 33.7069L48.2682 0.178185L25.1335 0.100852L23.1938 85.2524L0 64.5784V94.1632L24.0867 125.597L18.7065 305.694L0.906401 324.47C0.975596 338.172 5.30064 368.565 6.10914 368.985C48.6428 304.526 88.3687 266.595 139.361 230.716Z" fill="#FFED42"/>
<path fill-rule="evenodd" clip-rule="evenodd" d="M23.8467 409.295C51.4756 355.745 69.3438 333.596 96.5712 307.224C131.992 272.915 169.486 249.028 202.729 217.734C231.729 190.434 258.474 142.025 290.529 91.9125C316.164 51.8376 347.253 25.4459 376.424 0.146173L356.438 0.106415C340.66 13.2824 312.648 36.6787 288.733 67.1136C255.366 109.576 233.475 157.446 192.721 199.435C152.928 240.436 123.251 250.816 71.6977 303.562C48.4371 327.361 26.3672 357.847 11.7531 386.884C14.8551 395.152 18.9145 402.385 23.8467 409.295Z" fill="#FFED42"/>
<path fill-rule="evenodd" clip-rule="evenodd" d="M312.735 289.754C314.078 289.145 315.757 291.329 319.449 297.683C323.142 304.037 324.366 306.412 323.176 307.282L311.553 315.784C314.162 322.905 315.625 331.673 315.09 340.152L328.566 345.135C329.948 345.646 329.604 348.381 327.755 355.493C325.906 362.606 325.104 365.155 323.646 364.936L309.406 362.794C306.247 369.689 301.077 376.834 294.73 382.457L300.68 395.643C301.285 396.987 299.097 398.661 292.734 402.338C286.371 406.014 283.993 407.233 283.125 406.041L274.652 394.397C267.525 396.989 258.807 398.323 250.554 397.793L245.78 411.416C245.271 412.8 242.536 412.463 235.419 410.634C228.302 408.805 225.75 408.01 225.965 406.552L228.066 392.305C221.163 388.844 214.003 384.016 208.41 377.628L195.344 383.677C194.007 384.298 192.307 382.13 188.555 375.81C184.804 369.491 183.558 367.127 184.739 366.246L196.283 357.636C193.607 350.541 192.17 341.838 192.626 333.355L179.021 328.378C177.637 327.871 177.969 325.136 179.787 318.016C181.605 310.895 182.397 308.342 183.855 308.556L198.427 310.689C201.556 303.781 206.643 296.783 212.965 291.109L206.817 278.718C206.162 277.397 208.339 275.668 214.626 271.864C220.913 268.059 223.266 266.793 224.158 267.967L232.703 279.222C239.776 276.487 248.681 275.084 257.168 275.468L262.121 261.981C262.629 260.598 265.365 260.936 272.481 262.769C279.597 264.603 282.148 265.4 281.932 266.858L279.822 281.103C286.724 284.246 293.881 289.401 299.541 295.736L312.735 289.754Z" fill="#FFED42"/>
<path opacity="0.99" d="M253.935 380.571C278.196 380.571 297.863 360.903 297.863 336.643C297.863 312.382 278.196 292.715 253.935 292.715C229.675 292.715 210.008 312.382 210.008 336.643C210.008 360.903 229.675 380.571 253.935 380.571Z" fill="#D0342F"/>
<path opacity="0.99" d="M253.935 368.527C271.544 368.527 285.819 354.252 285.819 336.643C285.819 319.034 271.544 304.759 253.935 304.759C236.326 304.759 222.051 319.034 222.051 336.643C222.051 354.252 236.326 368.527 253.935 368.527Z" fill="#FFED42"/>
<path fill-rule="evenodd" clip-rule="evenodd" d="M356.328 188.775C357.084 187.986 358.841 189.026 363.131 192.382C367.42 195.738 368.917 197.035 368.338 197.961L362.681 207.011C366.436 211.192 369.857 216.823 371.823 222.805L382.467 222.523C383.56 222.494 384.076 224.471 384.761 229.874C385.447 235.277 385.597 237.252 384.533 237.503L374.145 239.95C373.87 245.563 372.28 251.903 369.46 257.52L377.185 264.955C377.971 265.713 376.926 267.467 373.56 271.749C370.194 276.031 368.893 277.524 367.968 276.942L358.932 271.263C354.742 275.008 349.11 278.327 343.286 280.234L343.751 290.922C343.782 292.014 341.808 292.536 336.407 293.237C331.006 293.938 329.031 294.093 328.778 293.031L326.301 282.649C320.598 282.168 314.342 280.817 308.735 277.962L301.41 285.721C300.661 286.516 298.894 285.492 294.573 282.177C290.252 278.862 288.744 277.578 289.314 276.646L294.887 267.544C291.092 263.398 287.707 257.806 285.686 251.843L274.954 252.164C273.862 252.197 273.337 250.223 272.628 244.823C271.919 239.423 271.761 237.448 272.823 237.194L283.437 234.65C283.688 229.035 285.262 222.82 288.05 217.175L280.409 210.341C279.594 209.613 280.616 207.824 283.895 203.475C287.173 199.126 288.444 197.607 289.38 198.169L298.359 203.561C302.473 199.732 308.214 196.315 314.159 194.243L313.854 183.599C313.824 182.507 315.799 181.987 321.2 181.289C326.602 180.592 328.576 180.438 328.829 181.5L331.299 191.883C336.913 192.146 343.257 193.723 348.896 196.523L356.328 188.775Z" fill="#FFED42"/>
<path opacity="0.99" d="M328.76 267.503C345.519 267.503 359.105 253.917 359.105 237.158C359.105 220.4 345.519 206.814 328.76 206.814C312.001 206.814 298.415 220.4 298.415 237.158C298.415 253.917 312.001 267.503 328.76 267.503Z" fill="#D0342F"/>
<path opacity="0.99" d="M328.76 255.845C339.08 255.845 347.447 247.479 347.447 237.158C347.447 226.838 339.08 218.472 328.76 218.472C318.44 218.472 310.073 226.838 310.073 237.158C310.073 247.479 318.44 255.845 328.76 255.845Z" fill="#FFED42"/>
<path opacity="0.99" d="M328.76 247.774C334.623 247.774 339.376 243.021 339.376 237.158C339.376 231.296 334.623 226.543 328.76 226.543C322.897 226.543 318.145 231.296 318.145 237.158C318.145 243.021 322.897 247.774 328.76 247.774Z" fill="#D0342F"/>
<path fill-rule="evenodd" clip-rule="evenodd" d="M395.6 0.0869073C355.659 24.9788 330.182 61.3127 312.802 84.661C280.769 127.693 264.69 164.23 235.547 200.331C198.607 246.09 151.144 274.286 111.521 311.985C74.1615 347.531 53.017 382.317 38.4198 425.547C40.2978 427.873 58.5365 442.986 59.423 442.542C67.7346 398.919 95.4559 362.844 120.495 333.564C152.558 296.07 182.439 278.264 218.622 244.904C239.273 225.865 255.052 209.409 270.258 183.98C288.891 153.989 307.871 119.621 333.146 86.697C355.822 57.1585 377.019 30.8465 399.988 18.3135L399.998 0.0807495L395.6 0.0869073Z" fill="#FFED42"/>
<path fill-rule="evenodd" clip-rule="evenodd" d="M49.1158 93.79L49.3169 133.023L67.0423 113.74L49.1158 93.79Z" fill="#D0342F"/>
<path fill-rule="evenodd" clip-rule="evenodd" d="M86.8837 112.467L93.5173 118.619L93.6412 102.348L86.8837 112.467Z" fill="#D0342F"/>
<path fill-rule="evenodd" clip-rule="evenodd" d="M94.0586 14.1037C74.4335 28.9531 48.1241 51.6851 48.1241 51.6851L48.385 76.1368L77.0425 103.187L93.7657 84.8201L94.0586 14.1037Z" fill="#D0342F"/>
<path fill-rule="evenodd" clip-rule="evenodd" d="M109.702 32.8977L110.18 62.1626L140.891 82.9833L140.338 10.3361L109.702 32.8977Z" fill="#D0342F"/>
<path fill-rule="evenodd" clip-rule="evenodd" d="M110.371 74.2463L113.788 226.651L140.158 207.766C139.448 87.8043 139.817 100.596 139.817 100.596L110.371 74.2463Z" fill="#D0342F"/>
<path fill-rule="evenodd" clip-rule="evenodd" d="M181.607 81.2965L159.84 102.678L162.46 187.871C170.126 181.755 177.492 175.139 183.981 167.062L181.607 81.2965Z" fill="#D0342F"/>
<path fill-rule="evenodd" clip-rule="evenodd" d="M203.411 142.227L200.08 77.2281L223.993 94.878L224.359 114.23C218.31 124.495 211.025 133.526 203.411 142.227Z" fill="#D0342F"/>
<path fill-rule="evenodd" clip-rule="evenodd" d="M221.808 14.5131L199.156 33.1408L199.702 70.1782L223.606 81.1113L221.808 14.5131Z" fill="#D0342F"/>
<path fill-rule="evenodd" clip-rule="evenodd" d="M261.26 23.3979L242.737 48.4471L243.487 84.1586L261.163 63.0049L261.26 23.3979Z" fill="#D0342F"/>
<path fill-rule="evenodd" clip-rule="evenodd" d="M156.873 27.0065L181.699 55.2473L181.644 68.7602L159.018 85.0134L156.873 27.0065Z" fill="#D0342F"/>
<path fill-rule="evenodd" clip-rule="evenodd" d="M78.0019 125.636L50.1833 166.896L49.7261 276.21C63.3837 264.024 76.8322 251.209 90.4899 240.203L92.534 141.953L78.0019 125.636Z" fill="#D0342F"/>
<path opacity="0.99" d="M253.935 350.071C261.352 350.071 267.364 344.059 267.364 336.643C267.364 329.226 261.352 323.214 253.935 323.214C246.519 323.214 240.507 329.226 240.507 336.643C240.507 344.059 246.519 350.071 253.935 350.071Z" fill="#D0342F"/>
<path opacity="0.99" d="M253.935 341.023C256.355 341.023 258.316 339.062 258.316 336.643C258.316 334.223 256.355 332.262 253.935 332.262C251.516 332.262 249.555 334.223 249.555 336.643C249.555 339.062 251.516 341.023 253.935 341.023Z" fill="#FFED42"/>
<path opacity="0.99" d="M328.76 241.497C331.156 241.497 333.098 239.554 333.098 237.158C333.098 234.763 331.156 232.82 328.76 232.82C326.364 232.82 324.422 234.763 324.422 237.158C324.422 239.554 326.364 241.497 328.76 241.497Z" fill="#FFED42"/>
<path d="M397.498 2.58075V260.874C397.498 262.703 397.499 264.513 397.499 266.303C397.508 305.983 397.515 336.207 392.993 361C388.299 386.736 378.741 406.482 359.164 424.612C339.732 442.607 322.156 452.131 303.449 457.201C284.659 462.294 264.595 462.935 240.013 462.935H200.093H160.172C135.59 462.935 115.526 462.294 96.7359 457.201C78.0293 452.131 60.4533 442.607 41.0217 424.612C21.4443 406.482 11.8864 386.736 7.1924 361C2.67038 336.207 2.67725 305.983 2.68628 266.303C2.68668 264.513 2.68709 262.703 2.68709 260.874V2.58075H3.31062H4.0915H4.87238H5.65326H6.43414H7.21502H7.9959H8.77679H9.55767H10.3385H11.1194H11.9003H12.6812H13.4621H14.243H15.0238H15.8047H16.5856H17.3665H18.1474H18.9282H19.7091H20.49H21.2709H22.0518H22.8326H23.6135H24.3944H25.1753H25.9562H26.7371H27.5179H28.2988H29.0797H29.8606H30.6415H31.4223H32.2032H32.9841H33.765H34.5459H35.3267H36.1076H36.8885H37.6694H38.4503H39.2312H40.012H40.7929H41.5738H42.3547H43.1356H43.9164H44.6973H45.4782H46.2591H47.04H47.8208H48.6017H49.3826H50.1635H50.9444H51.7253H52.5061H53.287H54.0679H54.8488H55.6297H56.4105H57.1914H57.9723H58.7532H59.5341H60.3149H61.0958H61.8767H62.6576H63.4385H64.2193H65.0002H65.7811H66.562H67.3429H68.1238H68.9046H69.6855H70.4664H71.2473H72.0282H72.809H73.5899H74.3708H75.1517H75.9326H76.7134H77.4943H78.2752H79.0561H79.837H80.6179H81.3987H82.1796H82.9605H83.7414H84.5223H85.3031H86.084H86.8649H87.6458H88.4267H89.2075H89.9884H90.7693H91.5502H92.3311H93.112H93.8928H94.6737H95.4546H96.2355H97.0164H97.7972H98.5781H99.359H100.14H100.921H101.702H102.483H103.263H104.044H104.825H105.606H106.387H107.168H107.949H108.73H109.51H110.291H111.072H111.853H112.634H113.415H114.196H114.977H115.758H116.538H117.319H118.1H118.881H119.662H120.443H121.224H122.005H122.785H123.566H124.347H125.128H125.909H126.69H127.471H128.252H129.032H129.813H130.594H131.375H132.156H132.937H133.718H134.499H135.28H136.06H136.841H137.622H138.403H139.184H139.965H140.746H141.527H142.307H143.088H143.869H144.65H145.431H146.212H146.993H147.774H148.555H149.335H150.116H150.897H151.678H152.459H153.24H154.021H154.802H155.582H156.363H157.144H157.925H158.706H159.487H160.268H161.049H161.829H162.61H163.391H164.172H164.953H165.734H166.515H167.296H168.077H168.857H169.638H170.419H171.2H171.981H172.762H173.543H174.324H175.104H175.885H176.666H177.447H178.228H179.009H179.79H180.571H181.352H182.132H182.913H183.694H184.475H185.256H186.037H186.818H187.599H188.379H189.16H189.941H190.722H191.503H192.284H193.065H193.846H194.627H195.407H196.188H196.969H197.75H198.531H199.312H200.093H200.874H201.654H202.435H203.216H203.997H204.778H205.559H206.34H207.121H207.901H208.682H209.463H210.244H211.025H211.806H212.587H213.368H214.149H214.929H215.71H216.491H217.272H218.053H218.834H219.615H220.396H221.176H221.957H222.738H223.519H224.3H225.081H225.862H226.643H227.424H228.204H228.985H229.766H230.547H231.328H232.109H232.89H233.671H234.451H235.232H236.013H236.794H237.575H238.356H239.137H239.918H240.698H241.479H242.26H243.041H243.822H244.603H245.384H246.165H246.946H247.726H248.507H249.288H250.069H250.85H251.631H252.412H253.193H253.973H254.754H255.535H256.316H257.097H257.878H258.659H259.44H260.221H261.001H261.782H262.563H263.344H264.125H264.906H265.687H266.468H267.248H268.029H268.81H269.591H270.372H271.153H271.934H272.715H273.495H274.276H275.057H275.838H276.619H277.4H278.181H278.962H279.743H280.523H281.304H282.085H282.866H283.647H284.428H285.209H285.99H286.77H287.551H288.332H289.113H289.894H290.675H291.456H292.237H293.018H293.798H294.579H295.36H296.141H296.922H297.703H298.484H299.265H300.045H300.826H301.607H302.388H303.169H303.95H304.731H305.512H306.293H307.073H307.854H308.635H309.416H310.197H310.978H311.759H312.54H313.32H314.101H314.882H315.663H316.444H317.225H318.006H318.787H319.567H320.348H321.129H321.91H322.691H323.472H324.253H325.034H325.815H326.595H327.376H328.157H328.938H329.719H330.5H331.281H332.062H332.842H333.623H334.404H335.185H335.966H336.747H337.528H338.309H339.09H339.87H340.651H341.432H342.213H342.994H343.775H344.556H345.337H346.117H346.898H347.679H348.46H349.241H350.022H350.803H351.584H352.365H353.145H353.926H354.707H355.488H356.269H357.05H357.831H358.612H359.392H360.173H360.954H361.735H362.516H363.297H364.078H364.859H365.639H366.42H367.201H367.982H368.763H369.544H370.325H371.106H371.887H372.667H373.448H374.229H375.01H375.791H376.572H377.353H378.134H378.914H379.695H380.476H381.257H382.038H382.819H383.6H384.381H385.161H385.942H386.723H387.504H388.285H389.066H389.847H390.628H391.409H392.189H392.97H393.751H394.532H395.313H396.094H396.875H397.498Z" stroke="#FFED42" stroke-width="5"/>
</g>
<defs>
<clipPath id="clip0">
<rect y="3.05176e-05" width="400" height="465.43" fill="white"/>
</clipPath>
</defs>
</svg>
