<svg width="400" height="522" viewBox="0 0 400 522" fill="none" xmlns="http://www.w3.org/2000/svg">
<g clip-path="url(#clip0)">
<path d="M199.709 521.377C121.895 464.923 68.561 393.622 36.6483 303.433C7.70906 221.661 -3.90223 122.562 1.14434 0.481667L1.16528 4.57764e-05H398.839L398.86 0.481667C403.896 122.562 392.284 221.651 363.356 303.433C331.443 393.622 278.109 464.923 200.295 521.377L200.002 521.587L199.709 521.377Z" fill="#32AC60"/>
<path fill-rule="evenodd" clip-rule="evenodd" d="M228.554 58.2973C239.663 59.5432 237.432 74.8504 240.814 76.0335C268.801 85.844 332.856 134.163 333.516 208.113C333.977 260.118 321.025 285.623 287.416 343.721L252.583 330.822L258.383 312.761C259.461 309.411 262.267 305.736 266.927 305.987C274.308 306.385 278.663 303.715 279.501 299.862C287.469 263.395 295.039 234.801 289.175 201.496C281.784 159.543 251.724 125.379 199.751 125.379C147.777 125.379 117.718 159.543 110.326 201.496C104.463 234.801 112.043 263.395 120 299.862C120.838 303.715 125.193 306.385 132.575 305.987C137.234 305.736 140.04 309.411 141.118 312.761L146.919 330.822L112.085 343.721C78.4761 285.623 65.5247 260.118 65.9853 208.113C66.645 134.163 130.701 85.844 158.687 76.0335C162.059 74.8504 159.839 59.5432 170.948 58.2973C170.948 58.2973 184.035 55.062 199.74 55.0725C215.445 55.083 228.533 58.2973 228.533 58.2973H228.554Z" fill="white"/>
<path fill-rule="evenodd" clip-rule="evenodd" d="M90.056 222.206C95.846 222.206 96.8092 220.541 96.8092 215.17C96.8092 210.574 96.8092 205.967 96.8092 201.371C96.8092 195.999 95.846 194.335 90.056 194.335C88.7368 194.335 87.428 194.335 86.1088 194.335C80.3189 194.335 79.3556 195.999 79.3556 201.371C79.3556 205.967 79.3556 210.574 79.3556 215.17C79.3556 220.541 80.3189 222.206 86.1088 222.206C87.428 222.206 88.7368 222.206 90.056 222.206Z" fill="#32AC60"/>
<path fill-rule="evenodd" clip-rule="evenodd" d="M99.0603 171.363C104.41 173.677 105.97 172.526 108.117 167.563C109.96 163.312 111.802 159.061 113.635 154.8C115.781 149.837 115.561 147.91 110.2 145.586C108.986 145.063 107.771 144.529 106.557 144.005C101.207 141.691 99.6466 142.843 97.5002 147.806C95.6575 152.057 93.8148 156.307 91.9825 160.569C89.8361 165.532 90.056 167.458 95.4167 169.782C96.6312 170.306 97.8457 170.84 99.0603 171.363Z" fill="#32AC60"/>
<path fill-rule="evenodd" clip-rule="evenodd" d="M125.413 127.724C129.162 132.184 131.067 131.86 135.203 128.384C138.752 125.41 142.291 122.437 145.84 119.463C149.987 115.987 150.646 114.176 146.898 109.705C146.05 108.69 145.202 107.674 144.343 106.658C140.595 102.198 138.689 102.523 134.554 105.999C131.004 108.972 127.466 111.946 123.916 114.919C119.77 118.395 119.11 120.207 122.859 124.677C123.707 125.693 124.555 126.709 125.413 127.724Z" fill="#32AC60"/>
<path fill-rule="evenodd" clip-rule="evenodd" d="M99.5733 277.456C105.227 276.106 105.772 274.263 104.526 269.018C103.458 264.526 102.39 260.045 101.311 255.553C100.065 250.308 98.7357 248.915 93.0819 250.266C91.7941 250.569 90.5167 250.873 89.2289 251.187C83.5751 252.538 83.0306 254.38 84.2766 259.626C85.3445 264.118 86.4124 268.599 87.4909 273.09C88.7368 278.336 90.0665 279.728 95.7203 278.378C97.0081 278.074 98.2855 277.77 99.5733 277.456Z" fill="#32AC60"/>
<path fill-rule="evenodd" clip-rule="evenodd" d="M309.466 222.206C303.676 222.206 302.713 220.541 302.713 215.17C302.713 210.574 302.713 205.967 302.713 201.371C302.713 195.999 303.676 194.335 309.466 194.335C310.786 194.335 312.094 194.335 313.414 194.335C319.204 194.335 320.167 195.999 320.167 201.371C320.167 205.967 320.167 210.574 320.167 215.17C320.167 220.541 319.204 222.206 313.414 222.206C312.094 222.206 310.786 222.206 309.466 222.206Z" fill="#32AC60"/>
<path fill-rule="evenodd" clip-rule="evenodd" d="M300.462 171.363C295.112 173.677 293.552 172.526 291.406 167.563C289.563 163.312 287.72 159.061 285.888 154.8C283.742 149.837 283.961 147.91 289.322 145.586C290.537 145.063 291.751 144.529 292.966 144.005C298.316 141.691 299.876 142.843 302.022 147.806C303.865 152.057 305.708 156.307 307.54 160.569C309.686 165.532 309.466 167.458 304.106 169.782C302.891 170.306 301.677 170.84 300.462 171.363Z" fill="#32AC60"/>
<path fill-rule="evenodd" clip-rule="evenodd" d="M274.109 127.724C270.361 132.184 268.455 131.86 264.32 128.384C260.77 125.41 257.231 122.437 253.682 119.463C249.536 115.987 248.876 114.176 252.624 109.705C253.473 108.69 254.321 107.674 255.179 106.658C258.927 102.198 260.833 102.523 264.969 105.999C268.518 108.972 272.057 111.946 275.606 114.919C279.752 118.395 280.412 120.207 276.664 124.677C275.816 125.693 274.968 126.709 274.109 127.724Z" fill="#32AC60"/>
<path fill-rule="evenodd" clip-rule="evenodd" d="M299.949 277.456C294.295 276.106 293.751 274.263 294.997 269.018C296.065 264.526 297.133 260.045 298.211 255.553C299.457 250.308 300.787 248.915 306.441 250.266C307.728 250.569 309.006 250.873 310.294 251.187C315.947 252.538 316.492 254.38 315.246 259.626C314.178 264.118 313.11 268.599 312.032 273.09C310.786 278.336 309.456 279.728 303.802 278.378C302.514 278.074 301.237 277.77 299.949 277.456Z" fill="#32AC60"/>
</g>
<defs>
<clipPath id="clip0">
<rect y="4.57764e-05" width="400" height="521.59" fill="white"/>
</clipPath>
</defs>
</svg>
