<svg width="400" height="495" viewBox="0 0 400 495" fill="none" xmlns="http://www.w3.org/2000/svg">
<g clip-path="url(#clip0)">
<path d="M151.576 259.286C152.131 259.442 152.658 259.587 153.147 259.719C160.988 261.85 168.307 263.336 174.723 264.38C177.677 264.559 179.963 264.348 181.096 263.534C185.419 260.439 184.967 242.56 184.901 241.982C184.836 241.403 185.094 221.399 166.383 207.975C147.672 194.551 147.414 190.553 147.607 189.777C147.799 189 149.606 185.905 162.837 184.809C176.063 183.714 200.005 206.032 200.005 206.032V206.122C200.282 205.863 224.012 183.812 237.163 184.904C250.39 186 252.201 189.099 252.394 189.871C252.586 190.647 252.328 194.645 233.617 208.069C214.901 221.493 215.16 241.493 215.099 242.076C215.037 242.659 214.581 260.533 218.904 263.628C219.924 264.362 221.886 264.606 224.426 264.517C231.039 263.468 238.659 261.944 246.853 259.719C247.342 259.587 247.869 259.442 248.424 259.286C256.439 257.052 271.358 252.899 294.213 255.453C313.456 257.607 334.561 264.141 357.218 274.931C409.033 134.401 399.268 4.57764e-05 399.268 4.57764e-05H200H199.995H0.731673C0.731673 4.57764e-05 -9.03302 134.401 42.7819 274.931C65.4392 264.136 86.5443 257.603 105.787 255.453C128.642 252.899 143.561 257.057 151.576 259.286ZM213.866 167.571C212.084 180.379 209.186 185.426 207.342 187.81C205.499 190.195 202.738 191.145 198.739 188.455C194.746 185.764 175.184 177.876 182.568 151.55C182.568 151.55 184.779 144.471 185.814 141.771C187.916 136.282 190.24 135.774 191.524 136.264C192.808 136.757 215.649 154.763 213.866 167.571ZM242.92 163.173C230.95 166.23 225.437 165.496 222.662 164.73C219.887 163.963 218.043 161.865 218.979 157.355C219.915 152.844 219.807 132.694 245.761 129.697C245.761 129.697 252.822 129.091 255.583 129.029C261.199 128.902 262.487 130.774 262.52 132.082C262.549 133.399 254.891 160.111 242.92 163.173ZM287.525 157.359C287.525 157.359 292.976 160.017 295.027 161.183C299.204 163.559 299.331 165.496 298.776 166.47C298.221 167.444 280.869 183.695 270.738 180.68C260.606 177.669 256.881 174.711 255.183 172.928C253.48 171.146 253.052 168.798 255.719 165.896C258.386 162.999 267.158 148.159 287.525 157.359ZM244.402 116.96C244.905 113.992 244.346 100.822 261.236 98.2349C261.236 98.2349 265.836 97.6658 267.638 97.5623C271.302 97.3459 272.196 98.5359 272.243 99.392C272.29 100.248 267.939 117.891 260.187 120.182C252.436 122.473 248.819 122.125 246.984 121.692C245.155 121.254 243.904 119.928 244.402 116.96ZM226.434 86.6969C231.858 84.0018 233.979 85.2341 234.604 86.4994C235.235 87.7647 240.004 117.355 229.717 125.831C219.431 134.307 213.716 136.113 210.654 136.64C207.592 137.162 204.831 135.958 203.678 131.132C202.526 126.306 193.184 106.678 217.149 91.8568C217.154 91.8474 223.767 88.0187 226.434 86.6969ZM189.539 50.8225C189.539 50.8225 194.558 45.1265 196.646 43.0334C200.898 38.7813 203.283 39.2705 204.276 40.2629C205.268 41.2554 219.12 67.605 212.117 78.8372C205.113 90.0694 200.306 93.5783 197.587 95.0411C194.868 96.504 191.891 96.2406 189.276 92.0591C186.665 87.8822 171.661 72.3556 189.539 50.8225ZM151.228 85.7703C152.526 85.601 179.906 90.3752 184.219 101.955C188.533 113.536 188.387 119.091 187.921 121.936C187.451 124.777 185.56 126.833 180.979 126.381C176.397 125.93 156.369 128.173 150.636 102.685C150.636 102.685 149.281 95.7279 148.928 92.9904C148.204 87.4213 149.925 85.9397 151.228 85.7703ZM138.942 129.589C139.248 123.982 141.21 122.835 142.517 122.905C143.825 122.976 169.878 132.651 172.014 144.824C174.149 156.997 172.997 162.434 172.018 165.144C171.04 167.853 168.806 169.527 164.384 168.253C159.963 166.978 139.86 165.539 138.858 139.434C138.858 139.429 138.797 132.345 138.942 129.589ZM101.154 174.786C101.685 173.841 118.355 158.065 128.157 160.925C137.955 163.784 141.562 166.621 143.218 168.333C144.869 170.045 145.297 172.312 142.738 175.125C140.18 177.938 131.784 192.307 112.071 183.525C112.071 183.525 106.793 180.99 104.808 179.871C100.754 177.604 100.622 175.732 101.154 174.786Z" fill="#1A953C"/>
<path d="M291.184 383.687C275.187 381.895 265.39 384.628 258.908 386.434C258.273 386.613 257.671 386.778 257.107 386.933C226.839 395.15 203.354 395.254 200.96 395.268C200.908 395.268 200.851 395.268 200.795 395.268C196.562 395.268 173.975 394.868 144.761 386.938C144.192 386.782 143.59 386.618 142.95 386.439C136.464 384.633 126.666 381.9 110.683 383.692C106.737 384.134 102.645 384.826 98.4256 385.766C124.733 425.352 157.987 462.525 200 494.039C242.14 462.435 275.46 425.136 301.805 385.423C298.164 384.656 294.618 384.073 291.184 383.687Z" fill="#1A953C"/>
<path d="M251.575 282.856C251.001 283.016 250.46 283.167 249.957 283.303C222.29 290.815 201.284 290.683 201.072 290.683L200.837 290.678L200.729 290.683C198.203 290.678 178.086 290.41 151.91 283.303C151.402 283.167 150.866 283.016 150.273 282.851C142.799 280.772 128.896 276.897 107.649 279.272C90.4248 281.2 71.4222 286.901 51.1073 296.214C54.5504 304.544 58.2192 312.87 62.1326 321.167C79.9263 312.973 96.2431 307.997 110.683 306.384C126.666 304.592 136.468 307.324 142.95 309.131C143.59 309.309 144.192 309.479 144.761 309.629C173.975 317.559 196.566 317.959 200.795 317.959C200.851 317.959 200.908 317.959 200.96 317.959C203.354 317.959 226.839 317.842 257.107 309.624C257.671 309.469 258.273 309.305 258.908 309.126C265.39 307.32 275.187 304.587 291.184 306.379C305.206 307.945 321 312.686 338.201 320.466C342.101 312.16 345.76 303.83 349.194 295.499C329.467 286.61 311 281.144 294.218 279.267C272.958 276.897 259.049 280.772 251.575 282.856Z" fill="#1A953C"/>
<path d="M251.575 282.856C251.001 283.016 250.46 283.167 249.957 283.303C222.29 290.815 201.284 290.683 201.072 290.683L200.837 290.678L200.729 290.683C198.203 290.678 178.086 290.41 151.91 283.303C151.402 283.167 150.866 283.016 150.273 282.851C142.799 280.772 128.896 276.897 107.649 279.272C90.4248 281.2 71.4222 286.901 51.1073 296.214C54.5504 304.544 58.2192 312.87 62.1326 321.167C79.9263 312.973 96.2431 307.997 110.683 306.384C126.666 304.592 136.468 307.324 142.95 309.131C143.59 309.309 144.192 309.479 144.761 309.629C173.975 317.559 196.566 317.959 200.795 317.959C200.851 317.959 200.908 317.959 200.96 317.959C203.354 317.959 226.839 317.842 257.107 309.624C257.671 309.469 258.273 309.305 258.908 309.126C265.39 307.32 275.187 304.587 291.184 306.379C305.206 307.945 321 312.686 338.201 320.466C342.101 312.16 345.76 303.83 349.194 295.499C329.467 286.61 311 281.144 294.218 279.267C272.958 276.897 259.049 280.772 251.575 282.856Z" fill="#1A953C"/>
<path d="M294.213 331.562C272.953 329.187 259.049 333.062 251.57 335.146C250.997 335.306 250.456 335.457 249.952 335.593C222.286 343.105 201.279 342.973 201.068 342.973L200.833 342.968L200.724 342.973C198.199 342.968 178.081 342.7 151.906 335.593C151.398 335.457 150.861 335.306 150.269 335.141C142.795 333.062 128.891 329.187 107.645 331.562C96.3372 332.827 84.263 335.725 71.5586 340.193C75.7965 348.326 80.2791 356.411 85.025 364.426C94.103 361.496 102.678 359.567 110.679 358.674C126.661 356.882 136.464 359.614 142.945 361.42C143.585 361.599 144.187 361.769 144.756 361.919C173.97 369.849 196.562 370.249 200.79 370.249C200.847 370.249 200.903 370.249 200.955 370.249C203.349 370.24 226.834 370.132 257.102 361.914C257.666 361.759 258.268 361.595 258.903 361.416C265.385 359.61 275.182 356.877 291.179 358.669C298.715 359.511 306.762 361.275 315.262 363.928C320.008 355.894 324.486 347.789 328.724 339.638C316.593 335.485 305.05 332.776 294.213 331.562Z" fill="#1A953C"/>
<path d="M258.903 309.135C258.268 309.314 257.666 309.479 257.102 309.634C226.834 317.851 203.349 317.969 200.955 317.969C200.903 317.969 200.847 317.969 200.79 317.969C196.557 317.969 173.97 317.569 144.756 309.639C144.187 309.483 143.585 309.319 142.945 309.14C136.459 307.334 126.661 304.601 110.678 306.393C96.2384 308.006 79.9216 312.983 62.1279 321.176C65.1288 327.536 68.2708 333.881 71.5586 340.198C84.263 335.729 96.3372 332.832 107.645 331.567C128.891 329.191 142.795 333.063 150.269 335.146C150.861 335.311 151.402 335.461 151.906 335.598C178.086 342.705 198.199 342.973 200.724 342.978L200.833 342.973L201.068 342.978C201.279 342.978 222.286 343.109 249.952 335.598C250.456 335.461 250.997 335.311 251.57 335.151C259.049 333.067 272.953 329.191 294.213 331.567C305.05 332.78 316.593 335.49 328.719 339.648C332.026 333.284 335.182 326.887 338.197 320.476C320.996 312.696 305.206 307.959 291.179 306.388C275.182 304.596 265.39 307.329 258.903 309.135Z" fill="white"/>
<path d="M104.799 179.875C106.789 180.99 112.061 183.53 112.061 183.53C131.774 192.312 140.17 177.938 142.729 175.129C145.288 172.317 144.86 170.05 143.209 168.337C141.558 166.625 137.95 163.784 128.148 160.929C118.35 158.069 101.676 173.845 101.144 174.791C100.622 175.732 100.754 177.604 104.799 179.875Z" fill="white"/>
<path d="M164.389 168.253C168.81 169.527 171.045 167.853 172.023 165.144C173.001 162.434 174.154 156.997 172.018 144.824C169.883 132.651 143.83 122.976 142.522 122.905C141.214 122.835 139.248 123.978 138.947 129.589C138.797 132.345 138.863 139.434 138.863 139.434C139.864 165.539 159.963 166.973 164.389 168.253Z" fill="white"/>
<path d="M294.209 255.453C271.354 252.899 256.434 257.052 248.419 259.286C247.864 259.442 247.337 259.587 246.848 259.719C238.659 261.944 231.034 263.468 224.421 264.517C221.881 264.606 219.924 264.362 218.899 263.628C214.576 260.528 215.028 242.654 215.094 242.076C215.16 241.497 214.901 221.493 233.612 208.069C252.328 194.645 252.582 190.647 252.389 189.871C252.196 189.094 250.39 185.999 237.159 184.904C224.007 183.812 200.278 205.863 200 206.122V206.032C200 206.032 176.063 183.714 162.832 184.809C149.606 185.905 147.795 189.005 147.602 189.776C147.409 190.548 147.668 194.551 166.379 207.975C185.09 221.399 184.836 241.399 184.897 241.982C184.963 242.56 185.414 260.439 181.091 263.534C179.958 264.347 177.672 264.559 174.718 264.38C168.302 263.336 160.984 261.85 153.143 259.719C152.653 259.587 152.127 259.442 151.572 259.286C143.557 257.052 128.637 252.894 105.782 255.453C86.5396 257.607 65.4345 264.136 42.7819 274.931C45.3924 282.014 48.1628 289.117 51.0979 296.219C71.4175 286.906 90.4154 281.205 107.64 279.277C128.886 276.901 142.79 280.772 150.264 282.856C150.857 283.021 151.398 283.171 151.901 283.308C178.081 290.415 198.194 290.683 200.72 290.688L200.828 290.683L201.063 290.688C201.275 290.688 222.281 290.819 249.948 283.308C250.451 283.171 250.992 283.021 251.566 282.861C259.044 280.777 272.948 276.901 294.209 279.277C310.991 281.153 329.457 286.614 349.184 295.509L357.209 274.935C334.556 264.141 313.451 257.607 294.209 255.453Z" fill="white"/>
<path d="M258.903 361.421C258.268 361.599 257.666 361.764 257.102 361.919C226.834 370.136 203.349 370.24 200.955 370.254C200.903 370.254 200.847 370.254 200.79 370.254C196.557 370.254 173.97 369.854 144.756 361.924C144.187 361.769 143.585 361.604 142.945 361.425C136.459 359.619 126.661 356.886 110.678 358.678C102.682 359.572 94.1077 361.5 85.025 364.431L98.4209 385.766C102.64 384.826 106.732 384.134 110.678 383.692C126.661 381.9 136.464 384.633 142.945 386.439C143.585 386.618 144.187 386.787 144.756 386.938C173.97 394.868 196.562 395.268 200.79 395.268C200.847 395.268 200.903 395.268 200.955 395.268C203.349 395.258 226.834 395.15 257.102 386.933C257.666 386.778 258.268 386.613 258.903 386.434C265.385 384.628 275.182 381.895 291.179 383.687C294.613 384.073 298.16 384.656 301.8 385.418L315.257 363.932C306.758 361.284 298.71 359.52 291.179 358.674C275.182 356.886 265.39 359.614 258.903 361.421Z" fill="white"/>
<path d="M315.262 363.932C315.332 363.815 315.398 363.692 315.469 363.575C315.403 363.692 315.332 363.81 315.262 363.932Z" fill="white"/>
<path d="M246.989 121.692C248.823 122.124 252.441 122.473 260.192 120.182C267.944 117.891 272.299 100.248 272.247 99.392C272.196 98.5359 271.307 97.3459 267.643 97.5623C265.841 97.6704 261.241 98.2349 261.241 98.2349C244.35 100.822 244.91 113.992 244.407 116.96C243.903 119.928 245.155 121.254 246.989 121.692Z" fill="white"/>
<path d="M255.719 165.896C253.052 168.794 253.485 171.146 255.183 172.928C256.885 174.711 260.606 177.669 270.738 180.68C280.869 183.69 298.221 167.444 298.776 166.47C299.331 165.497 299.204 163.554 295.027 161.183C292.976 160.017 287.525 157.359 287.525 157.359C267.158 148.159 258.386 162.999 255.719 165.896Z" fill="white"/>
<path d="M197.587 95.0411C200.306 93.5783 205.113 90.0694 212.117 78.8372C219.12 67.605 205.268 41.2601 204.276 40.2629C203.283 39.2658 200.898 38.7813 196.646 43.0334C194.558 45.1218 189.539 50.8225 189.539 50.8225C171.665 72.3556 186.665 87.8775 189.276 92.0591C191.891 96.2453 194.868 96.504 197.587 95.0411Z" fill="white"/>
<path d="M150.631 102.684C156.365 128.173 176.393 125.93 180.974 126.381C185.555 126.833 187.446 124.777 187.916 121.936C188.387 119.095 188.528 113.536 184.215 101.955C179.901 90.3752 152.526 85.601 151.224 85.7703C149.925 85.9397 148.204 87.4213 148.924 92.9904C149.281 95.7279 150.631 102.684 150.631 102.684Z" fill="white"/>
<path d="M203.678 131.127C204.831 135.958 207.592 137.162 210.654 136.635C213.716 136.113 219.431 134.302 229.717 125.826C240.004 117.35 235.23 87.76 234.604 86.4947C233.974 85.2294 231.858 83.9971 226.434 86.6922C223.767 88.0186 217.154 91.8474 217.154 91.8474C193.189 106.668 202.526 126.297 203.678 131.127Z" fill="white"/>
<path d="M255.583 129.029C252.822 129.091 245.761 129.697 245.761 129.697C219.807 132.693 219.91 152.844 218.979 157.355C218.048 161.865 219.887 163.958 222.662 164.73C225.437 165.496 230.95 166.23 242.92 163.173C254.891 160.116 262.549 133.399 262.52 132.087C262.487 130.774 261.199 128.907 255.583 129.029Z" fill="white"/>
<path d="M191.524 136.268C190.245 135.779 187.921 136.287 185.814 141.776C184.779 144.471 182.568 151.555 182.568 151.555C175.179 177.881 194.741 185.769 198.739 188.459C202.733 191.15 205.499 190.2 207.342 187.815C209.186 185.43 212.084 180.383 213.866 167.575C215.649 154.763 192.808 136.757 191.524 136.268Z" fill="white"/>
</g>
<defs>
<clipPath id="clip0">
<rect y="4.57764e-05" width="400" height="494.04" fill="white"/>
</clipPath>
</defs>
</svg>
