<svg width="400" height="522" viewBox="0 0 400 522" fill="none" xmlns="http://www.w3.org/2000/svg">
<g clip-path="url(#clip0)">
<path d="M199.709 521.377C121.895 464.923 68.561 393.622 36.6483 303.433C7.70906 221.661 -3.90223 122.562 1.14434 0.481667L1.16528 4.57764e-05H398.839L398.86 0.481667C403.896 122.562 392.284 221.651 363.356 303.433C331.443 393.622 278.109 464.923 200.295 521.377L200.002 521.587L199.709 521.377Z" fill="#D0342F"/>
<path fill-rule="evenodd" clip-rule="evenodd" d="M126.356 381.843C124.597 376.922 123.403 370.849 123.403 364.588L123.55 125.578C106.243 125.578 98.4007 128.436 89.1451 133.074C86.9883 134.153 86.758 134.676 85.5225 132.624C82.1197 126.949 81.0308 116.437 85.0618 108.124C86.1612 105.852 86.8941 106.91 89.6163 108.428C99.3116 113.862 109.028 115.987 123.969 115.987C121.215 94.4818 118.734 75.5415 128.638 47.7958C128.638 47.7958 126.104 46.9268 125.351 45.482C124.241 43.3775 123.969 42.4456 124.325 38.0378C130.638 38.0378 136.951 38.0378 143.265 38.0378C143.621 42.4456 143.349 43.3775 142.239 45.482C141.485 46.9268 138.951 47.7958 138.951 47.7958C148.856 75.5415 146.374 94.4818 143.621 115.987C158.562 115.987 168.267 113.862 177.973 108.428C180.695 106.899 181.428 105.852 182.528 108.124C186.558 116.437 185.47 126.949 182.067 132.624C180.842 134.676 180.601 134.153 178.444 133.074C169.189 128.436 161.347 125.578 144.04 125.578L144.186 364.588C144.186 370.849 142.993 376.922 141.234 381.843C139.768 385.958 133.8 396.124 133.8 396.124C133.8 396.124 127.832 385.958 126.356 381.843Z" fill="#FFED42"/>
<path fill-rule="evenodd" clip-rule="evenodd" d="M258.278 381.843C256.519 376.922 255.326 370.849 255.326 364.588L255.472 125.578C238.165 125.578 230.323 128.436 221.068 133.074C218.911 134.153 218.681 134.676 217.445 132.624C214.042 126.949 212.953 116.437 216.984 108.124C218.084 105.852 218.817 106.91 221.539 108.428C231.234 113.862 240.95 115.987 255.891 115.987C253.137 94.4818 250.656 75.5415 260.561 47.7958C260.561 47.7958 258.027 46.9268 257.273 45.482C256.163 43.3775 255.891 42.4456 256.247 38.0378C262.561 38.0378 268.874 38.0378 275.187 38.0378C275.543 42.4456 275.271 43.3775 274.161 45.482C273.408 46.9268 270.874 47.7958 270.874 47.7958C280.778 75.5415 278.297 94.4818 275.543 115.987C290.484 115.987 300.19 113.862 309.896 108.428C312.618 106.899 313.351 105.852 314.45 108.124C318.481 116.437 317.392 126.949 313.989 132.624C312.764 134.676 312.524 134.153 310.367 133.074C301.111 128.436 293.269 125.578 275.962 125.578L276.109 364.588C276.109 370.849 274.915 376.922 273.156 381.843C271.69 385.958 265.723 396.124 265.723 396.124C265.723 396.124 259.755 385.958 258.278 381.843Z" fill="#FFED42"/>
</g>
<defs>
<clipPath id="clip0">
<rect y="4.57764e-05" width="400" height="521.59" fill="white"/>
</clipPath>
</defs>
</svg>
