<svg width="400" height="523" viewBox="0 0 400 523" fill="none" xmlns="http://www.w3.org/2000/svg">
<g clip-path="url(#clip0)">
<path d="M200.292 521.867C278.105 465.413 331.439 394.112 363.352 303.923C392.291 222.153 403.902 123.054 398.856 0.973761L398.835 0.492142H1.16308L1.14214 0.973761C-3.89393 123.054 7.7173 222.142 36.6459 303.923C68.5585 394.112 121.893 465.413 199.706 521.867L199.999 522.076L200.292 521.867Z" fill="#0085CA"/>
<path fill-rule="evenodd" clip-rule="evenodd" d="M399.494 61.4694C400.091 42.2465 399.494 21.5787 398.583 0.544486L337.303 4.57764e-05C339.637 15.1501 328.539 28.0701 313.525 27.6094C316.268 42.77 305.16 55.69 289.748 55.2188C292.083 70.3689 280.984 83.2889 265.562 82.8178C267.897 97.9679 256.799 110.888 241.376 110.417C243.711 125.567 232.613 138.487 217.599 138.026C222.3 150.559 213.62 164.756 200.261 164.756C186.901 164.756 178.211 150.559 182.922 138.026C167.908 138.487 156.81 125.567 159.145 110.417C143.691 110.888 132.593 97.9679 134.928 82.8178C119.506 83.2785 108.407 70.3689 110.732 55.2188C95.3198 55.6795 84.2112 42.77 86.9543 27.6094C71.9403 28.0701 60.8421 15.1501 63.1769 4.57764e-05L1.65522 0.586367C0.660572 21.9347 -0.65865 43.5553 0.37788 62.5583C1.95885 62.4327 4.04238 62.5583 4.35648 62.5688C17.1718 63.0504 25.3488 77.0488 20.7525 89.2882C35.7665 88.8276 46.8647 101.748 44.5299 116.898C59.9522 116.426 71.0504 129.346 68.7156 144.497C84.1379 144.025 95.2361 156.945 92.9013 172.095C108.324 171.624 119.422 184.544 116.679 199.705C131.693 199.244 142.791 212.164 140.456 227.314C166.149 226.822 168.537 257.573 152.057 266.095C164.087 274.89 165.144 294.092 152.057 302.185C164.087 310.98 165.144 330.182 152.057 338.275C164.087 347.07 165.144 366.272 152.057 374.365C164.087 383.16 165.144 402.362 152.057 410.456C164.087 419.25 165.144 438.452 152.057 446.546C164.087 455.34 165.144 474.542 152.057 482.636C167.762 496.257 183.749 509.376 200.041 521.93C216.458 509.209 232.812 496.383 248.381 482.175C235.293 474.071 236.351 454.848 248.381 446.043C235.293 437.939 236.351 418.716 248.381 409.911C235.293 401.807 236.351 382.584 248.381 373.779C235.293 365.675 236.351 346.452 248.381 337.647C235.293 329.543 236.351 310.32 248.381 301.515C235.293 293.411 236.351 274.188 248.381 265.383C231.901 256.85 234.288 226.058 259.982 226.56C257.647 211.389 268.745 198.459 283.759 198.92C281.016 183.749 292.124 170.808 307.536 171.279C305.202 156.108 316.3 143.177 331.722 143.648C329.387 128.477 340.485 115.547 355.908 116.018C353.573 100.847 364.671 87.9167 379.685 88.3773C375.099 76.1274 383.318 62.9876 396.071 61.6265" fill="white"/>
<path d="M361.938 303.423L363.352 303.923L361.938 303.423C330.207 393.096 277.248 464.017 199.999 520.226C122.75 464.017 69.7903 393.096 38.0601 303.423C9.29098 222.093 -2.32947 123.514 2.60173 1.99214H397.396C402.338 123.514 390.717 222.103 361.938 303.423Z" stroke="#0085CA" stroke-width="3"/>
</g>
<defs>
<clipPath id="clip0">
<rect y="4.57764e-05" width="400" height="522.08" fill="white"/>
</clipPath>
</defs>
</svg>
