<svg width="400" height="522" viewBox="0 0 400 522" fill="none" xmlns="http://www.w3.org/2000/svg">
<g clip-path="url(#clip0)">
<path d="M199.709 521.377C121.895 464.923 68.561 393.622 36.6483 303.433C7.70906 221.661 -3.90223 122.562 1.14434 0.481667L1.16528 4.57764e-05H398.839L398.86 0.481667C403.896 122.562 392.284 221.651 363.356 303.433C331.443 393.622 278.109 464.923 200.295 521.377L200.002 521.587L199.709 521.377Z" fill="#32AC60"/>
<path fill-rule="evenodd" clip-rule="evenodd" d="M202.724 151.68C201.154 178.598 200.17 200.669 154.824 219.693C149.233 207.506 141.747 184.859 138.061 183.132L125.131 177.07C116.283 185.372 111.53 191.016 97.3536 199.737C90.768 203.789 88.2133 212.95 75.1571 220.018L76.0366 213.066C73.3563 217.138 68.6552 220.499 64.2997 222.897L68.2888 212.521C64.7394 217.861 60.8969 220.457 53.5155 223.222L57.2743 213.484C51.9869 220.531 48.3329 222.593 41.2342 224.174L44.9824 214.123C42.5325 215.788 40.0929 216.709 37.6429 217.306C43.4119 204.93 51.3901 192.67 53.4422 181.069C55.9341 167.06 64.3834 159.459 83.4599 147.544L81.2298 127.431C80.3084 119.097 62.8444 117.977 55.7666 107.548L47.2335 107.632C46.7205 104.962 49.9767 103.35 52.4162 101.329C57.0021 97.5076 54.5625 92.7647 70.0477 87.8438C74.3823 86.4617 81.7742 87.5192 88.14 92.4087C92.862 96.0313 94.0975 103.329 101.343 107.967C106.86 111.496 111.268 112.386 118.262 112.113C121.937 108.187 125.078 100.659 125.602 90.2414C126.921 64.3909 131.402 65.6054 143.485 50.005L170.634 16.616C171.576 20.6051 171.503 25.4004 170.319 29.3895C174.455 26.0705 178.538 21.0972 183.093 16.459C184.349 21.5055 184.59 24.8769 183.889 29.1487L190.589 22.7619C192.223 27.7876 192.725 33.4623 191.626 38.5717L197.29 31.7871C197.521 39.2313 197.112 42.6969 193.94 48.8742L199.688 43.7649C199.007 49.0208 197.489 54.4967 194.736 58.936L201.206 55.3447C199.259 70.1703 190.432 86.0639 176.057 106.041C174.026 108.868 177.837 124.437 161.368 142.602C164.079 145.953 168.121 152.517 172.225 152.664C183.47 153.062 192.286 152.57 202.724 151.711V151.68Z" fill="white" stroke="#32AC60" stroke-width="3" stroke-linecap="round" stroke-linejoin="round"/>
<path d="M83.46 147.534C94.2232 160.925 109.667 170.044 125.131 177.07" stroke="#32AC60" stroke-width="3"/>
<path d="M174.256 176.902L166.184 186.105C157.839 186.273 144.668 186.377 137.36 182.797" stroke="#32AC60" stroke-width="3"/>
<path fill-rule="evenodd" clip-rule="evenodd" d="M61.4622 98.3766C61.6193 97.5495 61.8391 96.9213 63.4515 95.801C64.4671 95.0995 66.5716 95.267 66.8962 96.2617C67.2207 97.2668 66.7601 97.8322 64.3834 98.5651C63.284 98.9106 61.2424 99.5388 61.4622 98.3662V98.3766Z" fill="#32AC60" stroke="#32AC60"/>
<path fill-rule="evenodd" clip-rule="evenodd" d="M359.775 147.492C358.204 174.41 357.22 196.481 311.875 215.505C306.284 203.318 298.797 180.671 295.112 178.944L282.181 172.882C273.334 181.184 268.581 186.828 254.404 195.549C247.819 199.601 245.264 208.762 232.208 215.83L233.087 208.878C230.407 212.95 225.706 216.311 221.35 218.709L225.34 208.333C221.79 213.673 217.948 216.269 210.566 219.034L214.325 209.296C209.038 216.343 205.384 218.405 198.285 219.986L202.033 209.935C199.583 211.6 197.144 212.521 194.694 213.118C200.463 200.742 208.441 188.482 210.493 176.881C212.985 162.872 221.434 155.271 240.511 143.356L238.281 123.243C237.359 114.909 219.895 113.789 212.817 103.36L204.284 103.444C203.771 100.774 207.027 99.1619 209.467 97.1412C214.053 93.3196 211.613 88.5767 227.099 83.6557C231.433 82.2737 238.825 83.3312 245.191 88.2207C249.913 91.8433 251.148 99.141 258.394 103.779C263.911 107.308 268.319 108.198 275.313 107.925C278.988 103.999 282.129 96.4711 282.653 86.0534C283.972 60.2028 288.453 61.4174 300.535 45.817L327.684 12.428C328.627 16.4171 328.553 21.2124 327.37 25.2015C331.506 21.8825 335.589 16.9092 340.144 12.271C341.4 17.3175 341.641 20.6889 340.939 24.9607L347.64 18.5739C349.274 23.5995 349.776 29.2743 348.677 34.3837L354.341 27.5991C354.571 35.0433 354.163 38.5089 350.991 44.6862L356.739 39.5768C356.058 44.8328 354.54 50.3086 351.786 54.7479L358.257 51.1567C356.309 65.9823 347.483 81.8758 333.108 101.853C331.077 104.68 334.888 120.249 318.418 138.414C321.13 141.765 325.172 148.329 329.276 148.476C340.521 148.874 349.336 148.382 359.775 147.523V147.492Z" fill="white" stroke="#32AC60" stroke-width="3" stroke-linecap="round" stroke-linejoin="round"/>
<path d="M240.511 143.346C251.274 156.737 266.717 165.856 282.182 172.882" stroke="#32AC60" stroke-width="3"/>
<path d="M331.307 172.714L323.235 181.917C314.89 182.085 301.719 182.189 294.411 178.609" stroke="#32AC60" stroke-width="3"/>
<path fill-rule="evenodd" clip-rule="evenodd" d="M218.513 94.1886C218.67 93.3615 218.89 92.7333 220.502 91.613C221.518 90.9115 223.622 91.079 223.947 92.0737C224.272 93.0788 223.811 93.6442 221.434 94.3771C220.335 94.7226 218.293 95.3508 218.513 94.1781V94.1886Z" fill="#32AC60" stroke="#32AC60"/>
<path fill-rule="evenodd" clip-rule="evenodd" d="M284.244 343.522C282.673 370.441 281.689 392.512 236.344 411.536C230.753 399.349 223.266 376.702 219.581 374.974L206.65 368.912C197.803 377.215 193.05 382.858 178.873 391.58C172.288 395.632 169.733 404.793 156.677 411.86L157.556 404.908C154.876 408.981 150.175 412.342 145.819 414.74L149.809 404.364C146.259 409.704 142.417 412.3 135.035 415.064L138.794 405.327C133.507 412.373 129.853 414.436 122.754 416.017L126.502 405.966C124.052 407.631 121.613 408.552 119.163 409.149C124.932 396.773 132.91 384.513 134.962 372.912C137.454 358.903 145.903 351.302 164.98 339.387L162.75 319.274C161.828 310.94 144.364 309.819 137.286 299.391L128.753 299.475C128.24 296.805 131.496 295.193 133.936 293.172C138.522 289.35 136.082 284.607 151.568 279.687C155.902 278.304 163.294 279.362 169.66 284.251C174.382 287.874 175.617 295.172 182.863 299.81C188.38 303.338 192.788 304.228 199.782 303.956C203.457 300.03 206.598 292.502 207.122 282.084C208.441 256.234 212.922 257.448 225.004 241.848L252.143 208.48C253.085 212.469 253.012 217.264 251.829 221.253C255.964 217.934 260.048 212.961 264.602 208.323C265.859 213.369 266.099 216.741 265.398 221.012L272.099 214.626C273.732 219.651 274.235 225.326 273.135 230.435L278.8 223.651C279.03 231.095 278.622 234.561 275.449 240.738L281.197 235.629C280.517 240.885 278.998 246.36 276.245 250.8L282.715 247.208C280.768 262.034 271.942 277.928 257.566 297.904C255.535 300.731 259.346 316.3 242.877 334.466C245.589 337.816 249.63 344.381 253.734 344.528C264.979 344.925 273.795 344.433 284.234 343.575L284.244 343.522Z" fill="white" stroke="#32AC60" stroke-width="3" stroke-linecap="round" stroke-linejoin="round"/>
<path d="M164.98 339.366C175.743 352.757 191.186 361.876 206.651 368.902" stroke="#32AC60" stroke-width="3"/>
<path d="M255.765 368.734L247.693 377.937C239.348 378.105 226.177 378.21 218.869 374.629" stroke="#32AC60" stroke-width="3"/>
<path fill-rule="evenodd" clip-rule="evenodd" d="M142.972 290.219C143.129 289.392 143.349 288.764 144.961 287.644C145.977 286.942 148.081 287.11 148.406 288.104C148.73 289.11 148.269 289.675 145.893 290.408C144.793 290.753 142.752 291.382 142.972 290.209V290.219Z" fill="black"/>
</g>
<defs>
<clipPath id="clip0">
<rect y="4.57764e-05" width="400" height="521.59" fill="white"/>
</clipPath>
</defs>
</svg>
