<svg width="400" height="526" viewBox="0 0 400 526" fill="none" xmlns="http://www.w3.org/2000/svg">
<g clip-path="url(#clip0)">
<path d="M33.7272 280.221C68.9098 365.499 109.575 428.183 178.238 502.977C189.863 515.641 199.748 525.997 200.203 525.992C201.69 525.974 239.892 488.039 251.14 475.411C329.207 387.767 373.74 292.927 391.095 177.36C397.554 134.346 398.96 118.252 399.733 78.4667C400.156 56.7061 400.066 30.2053 399.533 19.5761L398.565 0.250179L1.44001 0.25C0.127699 1.56661 0.287255 108.28 1.7906 127.112C6.91638 191.322 17.0048 239.687 33.7272 280.221Z" fill="white"/>
<path d="M178.238 502.977C109.575 428.183 68.9098 365.499 33.7273 280.221C17.0048 239.687 6.91642 191.322 1.79065 127.112C0.2873 108.28 0.127665 1.56703 1.43998 0.250429C1.79671 -0.107464 85.9341 0.772815 195.193 0.250173L398.565 0.250224L399.534 19.5761C400.066 30.2054 400.156 56.7061 399.733 78.4668C398.96 118.252 397.554 134.346 391.095 177.36C373.74 292.927 329.207 387.767 251.14 475.411C239.892 488.039 201.69 525.974 200.203 525.992C199.748 525.997 189.863 515.641 178.238 502.977ZM189.142 494.869L195.112 490.329L195.153 461.312L195.193 432.296L190.861 435.599C178.274 445.2 164.969 454.208 156.524 458.847C147.072 464.039 147.05 464.063 149.446 466.814C150.768 468.332 155.909 474.244 160.87 479.952C176.784 498.258 179.904 501.331 181.577 500.347C182.454 499.832 185.858 497.366 189.142 494.869ZM141.063 440.607C154.495 434.503 188.926 411.998 193.78 406.15C194.793 404.929 195.136 395.72 194.894 376.26L194.544 348.134L184.905 355.438C160.719 373.764 130.026 391.456 110.615 398.26L100.627 401.761L102.822 405.183C105.478 409.323 124.429 435.748 128.25 440.639C129.752 442.562 131.432 444.167 131.982 444.207C132.533 444.246 136.619 442.626 141.063 440.607ZM100.858 375.633C126.544 366.104 152.224 351.451 181.248 329.763L195.193 319.342V290.247V261.152L188.382 266.636C148.258 298.946 109.215 321.486 71.634 334.036C66.8181 335.645 62.8778 337.221 62.8778 337.54C62.8778 338.622 86.4004 380.715 87.0049 380.715C87.0892 380.715 93.323 378.428 100.858 375.633ZM77.7957 306.415C109.948 293.298 146.539 271.165 180.409 244.347L195.193 232.642V205.573C195.193 188.196 195.469 176.572 194.601 176.036C193.858 175.576 188.865 179.979 184.436 183.823C143.402 219.437 93.7015 250.502 49.9058 267.912C42.4144 270.89 35.8588 273.719 35.3378 274.199C34.3219 275.135 38.6384 286.248 47.0902 304.455L52.336 315.756L61.1742 312.673C66.0352 310.977 73.5149 308.161 77.7957 306.415ZM366.019 274.912C379.421 234.71 392.947 162.488 396.25 113.491C397.695 92.0632 397.974 32.8521 396.714 15.103L395.871 3.22888H295.532H195.193V89.3579V175.487L207.84 186.375C265.491 236.004 302.628 260.55 349.56 280.046C355.624 282.565 361.134 284.465 361.802 284.269C362.471 284.072 364.369 279.862 366.019 274.912Z" fill="#0074BD"/>
</g>
<defs>
<clipPath id="clip0">
<rect y="0.25" width="400" height="525.742" fill="white"/>
</clipPath>
</defs>
</svg>
