<svg width="400" height="522" viewBox="0 0 400 522" fill="none" xmlns="http://www.w3.org/2000/svg">
<g clip-path="url(#clip0)">
<path d="M199.709 521.795C121.895 465.34 68.561 394.039 36.6483 303.85C7.70906 222.079 -3.90223 122.98 1.14434 0.899102L1.16528 0.41748H398.839L398.86 0.899102C403.896 122.98 392.284 222.068 363.356 303.85C331.443 394.039 278.109 465.34 200.295 521.795L200.002 522.004L199.709 521.795Z" fill="#0085CA"/>
<path fill-rule="evenodd" clip-rule="evenodd" d="M173.586 501.525L199.761 521.837C366.518 400.761 407.665 220.006 398.127 0.469933L225.936 0.365234V40.5702L173.586 30.1002V82.4504L225.936 71.9804V124.331L173.586 113.861V166.211L225.936 155.741V208.091L173.586 197.621V249.971L225.936 239.501V291.851L173.586 281.381V333.732L225.936 323.262V375.612L173.586 365.142V417.492L225.936 407.022V465.654L173.586 450.996V501.535" fill="white"/>
<path d="M38.0624 303.35L36.6483 303.85L38.0623 303.35C9.28278 222.03 -2.33777 123.44 2.60385 1.91748H397.4C402.331 123.44 390.711 222.019 361.942 303.35C330.211 393.024 277.251 463.944 200.002 520.154C122.753 463.944 69.7928 393.024 38.0624 303.35Z" stroke="#0085CA" stroke-width="3"/>
</g>
<defs>
<clipPath id="clip0">
<rect y="0.25" width="400" height="521.75" fill="white"/>
</clipPath>
</defs>
</svg>
