<svg width="400" height="522" viewBox="0 0 400 522" fill="none" xmlns="http://www.w3.org/2000/svg">
<g clip-path="url(#clip0)">
<path d="M199.709 521.627C121.895 465.173 68.561 393.872 36.6483 303.683C7.70906 221.911 -3.90223 122.812 1.14434 0.731621L1.16528 0.25H398.839L398.86 0.731621C403.896 122.812 392.284 221.901 363.356 303.683C331.443 393.872 278.109 465.173 200.295 521.627L200.002 521.837L199.709 521.627Z" fill="#E00E00"/>
<path d="M9.86587 18.8763C96.7778 9.78826 150.918 67.8447 180.098 154.495C187.899 180.492 195.468 203.327 198.599 230.989C201.133 258.651 200.714 276.408 200.641 291.81L188.778 292.009C171.701 222.99 156.426 166.661 82.1616 124.488C60.7503 112.342 43.3805 104.877 30.9316 86.2406C25.0265 77.3934 29.1726 67.4992 28.1989 57.4061C25.9374 33.9322 5.9396 19.2846 9.86587 18.8763Z" fill="white" stroke="#E00E00"/>
<path d="M54.4265 304.698C80.1828 310.791 105.719 288.815 106.211 263.833C106.62 243.239 102.149 228.79 110.42 220.403C133.528 196.982 173.283 268.618 179.093 296.72L190.6 295.149C187.668 261.415 164.676 206.981 152.929 192.071C139.087 174.503 123.937 157.625 102.756 150.275C65.5771 137.376 41.9253 159.384 35.6013 174.084C32.408 181.528 30.6804 201.85 34.5543 214.896C39.8103 232.57 61.5566 233.334 67.891 260.095C70.1839 269.791 62.9177 297.285 54.416 304.698H54.4265Z" fill="white" stroke="#E00E00" stroke-width="0.99"/>
<path d="M383.856 18.8656C247.201 28.5085 198.557 137.837 201.07 243.155C200.861 268.44 200.693 276.481 200.473 291.097L211.069 292.008C228.145 222.99 242.416 162.63 318.335 123.524C348.74 107.861 373.459 101.966 371.648 49.6266C370.831 26.0585 387.793 18.5829 383.856 18.8656Z" fill="white" stroke="#E00E00" stroke-linecap="round" stroke-linejoin="round"/>
<path d="M338.573 300.07C316.513 304.132 293.248 284.93 292.756 259.938C292.348 239.344 301.028 228.779 292.756 220.393C269.649 196.971 228.596 268.608 222.785 296.709L211.278 295.139C214.21 261.404 233.789 208.091 247.253 191.663C260.718 175.246 287.113 157.185 309.09 152.777C347.567 145.061 363.754 166.273 370.067 180.973C373.26 188.417 374.014 201.39 366.947 215.336C354.435 240.014 336.416 248.746 333.506 262.294C330.595 275.842 335.579 295.233 338.573 300.06V300.07Z" fill="white" stroke="#E00E00"/>
<path d="M78.2457 323.429C95.8878 308.938 115.236 318.016 123.508 336.37C129.884 350.525 128.492 368.743 139.087 364.105C162.142 354.022 170.602 320.309 172.989 306.425L190.568 306.792C191.448 359.048 168.466 380.292 154.761 394.081C136.564 412.393 105.667 415.23 99.2172 388.008C93.5425 364.021 105.688 343.112 78.2457 323.408V323.429Z" fill="white" stroke="#E00E00"/>
<path d="M212.681 307.64C213.843 338.788 228.753 387.547 249.588 395.882C261.712 400.729 270.811 404.771 285.019 394.405C315.686 372.02 292.599 337.302 326.051 317.534C302.514 302.206 285.657 323.104 275.857 345.018C270.204 357.655 244.908 368.01 229.433 304.216L212.681 307.64Z" fill="white" stroke="#E00E00"/>
<path d="M199.604 485.715C214.974 451.97 246.426 445.332 242.835 422.581C240.207 405.912 229.716 406.383 222.052 363.467C218.911 345.877 213.414 315.954 212.063 300.112L192.443 299.851C186.956 347.374 182.611 361.32 175.973 379.884C168.508 400.771 158.75 416.141 161.357 434.443C164.163 454.137 176.005 454.033 199.604 485.715Z" fill="white" stroke="#E00E00"/>
<path d="M175.921 288.459C163.943 287.537 160.362 307.766 170.707 312.205C179.146 315.827 220.178 316.456 230.972 311.66C240.092 307.619 239.987 282.512 227.371 285.936C207.907 291.212 192.254 289.705 175.921 288.459Z" fill="white" stroke="#E00E00" stroke-width="0.97"/>
</g>
<defs>
<clipPath id="clip0">
<rect y="0.25" width="400" height="521.59" fill="white"/>
</clipPath>
</defs>
</svg>
