<svg width="400" height="522" viewBox="0 0 400 522" fill="none" xmlns="http://www.w3.org/2000/svg">
<g clip-path="url(#clip0)">
<path d="M200.291 521.627C278.105 465.173 331.439 393.872 363.352 303.683C392.291 221.911 403.902 122.812 398.856 0.731621L398.835 0.25H1.16126L1.14031 0.731621C-3.89578 122.812 7.71551 221.901 36.6443 303.683C68.557 393.872 121.891 465.173 199.705 521.627L199.998 521.837L200.291 521.627Z" fill="#E00E00"/>
<path fill-rule="evenodd" clip-rule="evenodd" d="M230.173 182.92C264.923 188.606 284.502 161.562 283.685 138.684C282.68 110.426 249.26 82.5336 213.85 105.149C210.887 82.3032 230.487 55.479 264.295 57.217C330.549 60.6407 356.462 139.805 353.96 186.972C348.516 289.799 294.469 354.493 200.239 412.078C106.008 354.493 51.962 289.799 46.5175 186.972C44.0152 139.805 69.9286 60.6407 136.183 57.217C169.991 55.479 189.591 82.3032 186.628 105.149C151.218 82.5336 117.798 110.426 116.793 138.684C115.986 161.562 135.555 188.606 170.305 182.92C143.973 224.172 167.059 259.404 200.239 259.404C233.418 259.404 256.505 224.183 230.173 182.92Z" fill="white"/>
</g>
<defs>
<clipPath id="clip0">
<rect y="0.25" width="400" height="521.59" fill="white"/>
</clipPath>
</defs>
</svg>
