<svg width="400" height="523" viewBox="0 0 400 523" fill="none" xmlns="http://www.w3.org/2000/svg">
<g clip-path="url(#clip0)">
<path d="M200.291 522.372C278.105 465.918 331.439 394.617 363.352 304.428C392.291 222.657 403.902 123.558 398.856 1.47674L398.835 0.995117H1.16126L1.14031 1.47674C-3.89578 123.558 7.71551 222.646 36.6443 304.428C68.557 394.617 121.891 465.918 199.705 522.372L199.998 522.582L200.291 522.372Z" fill="#D0342F"/>
<path d="M169.687 444.444C176.21 448.454 196.302 445.292 201.684 439.952C217.137 424.613 223.367 409.945 232.183 395.297C241.91 379.142 242.15 374.242 247.836 361.898C252.264 352.276 258.274 343.104 269.184 332.854C277.916 324.656 301.84 317.463 321.817 318.039C321.335 316.06 309.012 307.883 304.531 308.972C285.099 313.714 258.41 324.007 243.93 351.187C243.627 330.142 242.203 314.667 238.025 296.072C234.371 279.781 227.325 266.044 220.561 249.659C219.368 246.758 222.53 243.806 221.933 240.508C221.179 236.309 220.593 231.86 220.226 227.096C218.834 208.941 225.388 185.823 233.471 174.756C244.339 159.868 254.39 144.466 264.357 148.141C268.65 149.722 272.398 143.356 274.681 145.011C276.084 146.026 279.518 152.549 279.56 154.004C279.843 163.532 254.4 169.029 254.16 194.796C257.939 194.921 261.269 193.707 262.096 199.612C262.755 204.313 261.248 215.359 261.342 221.924C278.45 215.987 289.182 231.43 291.841 263.689C303.568 247.512 312.321 238.717 330.162 269.866C330.392 256.182 325.555 235.011 344.495 237.65C345.835 233.472 342.872 229.273 339.92 226.928C309.703 203.004 330.046 197.445 342.558 197.465C335.439 192.963 325.68 187.665 320.665 179.614C317.304 174.201 327.46 173.06 333.92 165.459C329.052 163.522 317.912 165.354 305.117 164.045C295.192 163.029 290.03 160.59 284.491 153.114C278.283 144.728 277.728 139.88 278.251 136.802C278.691 134.195 280.764 129.996 280.052 129.169C279.392 128.405 273.707 132.017 271.655 134.499C267.425 139.629 257.143 144.728 254.18 137.441C253.688 136.237 254.338 134.708 255.468 132.164C261.373 118.898 281.068 106.209 297.328 120.856C302.584 107.496 307.463 105.538 324.738 110.91C319.032 96.8378 326.382 92.0321 352.976 86.5039C344.809 70.9768 353.049 58.308 369.958 46.4455C334.622 46.4036 331.031 40.4461 329.125 29.9761C312.247 39.5352 281.717 68.3802 276.189 37.3889C271.634 52.7066 260.169 80.0962 239.449 72.4112C235.649 87.5195 236.999 103.978 238.57 111.098C240.569 120.123 245.93 123.892 251.699 128.007C254.756 130.185 248.087 136.331 248.82 144.445C249.239 149.083 246.904 152.036 241.103 158.622C234.266 166.39 225.932 177.007 223.252 183.98C223.252 183.98 218.708 183.687 217.357 181.185C213.64 174.306 214.52 171.856 212.887 168.484C211.892 166.432 223.409 158.821 221.702 130.698C204.207 134.509 215.504 121.411 208.73 95.6128C196.689 110.417 193.611 90.8699 192.763 78.5781C181.173 94.7019 170.535 76.6306 163.95 45.9848C154.935 65.0717 166.829 103.329 149.218 99.1936C153.207 104.104 156.443 106.093 158.882 108.931C168.808 120.479 167.844 135.263 154.935 132.436C173.645 151.45 197.873 163.951 209.212 168.411C210.28 168.83 211.902 175.018 214.342 180.169C219.033 190.115 207.327 205.182 209.672 231.65C208.238 231.734 173.362 186.692 143.523 161.606C135.492 154.852 130.089 148.832 126.362 145.649C124.729 144.257 121.567 141.922 120.478 141.974C119.263 142.037 121.305 146.769 121.797 148.769C118.897 153.585 110.877 147.911 105.349 142.529C108.992 131.808 113.348 128.028 108.898 81.0804C90.2614 102.91 80.8697 90.2626 84.2411 57.795C69.3003 66.2443 55.4485 54.8424 52.9147 39.1478C43.3346 58.0777 33.6184 55.9627 14.186 38.7081C30.6658 82.2112 28.9697 91.9169 15.9764 87.6242C18.6881 93.7387 24.6246 98.2199 27.8913 101.246C44.8214 116.909 44.6015 125.662 29.1896 127.567C40.1203 138.582 69.8552 143.649 102.721 144.812C110.647 148.947 110.05 153.952 128.173 154.381C142.256 165.647 162.662 183.289 155.5 186.587C138.874 194.251 120.981 161.312 91.099 164.453C108.375 178.431 81.2257 184.441 66.6514 176.881C65.573 180.713 71.0174 187.875 70.1484 193.738C69.1956 200.167 63.3952 199.853 55.8673 211.558C74.2003 209.653 80.3567 211.705 84.5657 222.122C91.7167 205.255 102.972 202.439 111.432 216.552C123.724 203.653 128.142 190.346 136.727 187.257C140.172 186.022 140.56 191.571 150.726 192.628C158.222 193.403 164.892 191.089 165.981 192.052C196.553 219.044 234.214 284.838 226.55 308.05C225.974 309.799 219.043 299.308 206.992 295.245C191.067 289.874 185.235 290.911 183.319 281.006C182.461 276.588 193.842 262.704 185.403 244.172C175.781 254.538 176.639 238.937 167.185 225.337C162.85 242.675 154.778 228.666 145.02 218.458C144.611 221.986 140.915 227.965 136.466 228.75C129.503 229.975 126.017 227.933 115.913 233.975C132.131 241.356 130.089 250.308 129.168 261.888C139.115 257.773 147.491 260.6 151.04 265.741C153.825 269.772 157.511 278.137 148.936 279.875C153.972 284.283 170.661 281.31 177.623 283.194C180.293 283.917 182.199 288.953 179.916 289.204C176.828 289.539 173.111 292.858 173.435 293.853C173.76 294.826 177.582 295.12 181.801 295.769C191.454 297.256 206.95 299.109 206.144 305.475C205.338 311.83 183.508 307.621 169.582 303.956C148.056 298.292 125.65 297.57 112.091 315.4C141.554 316.342 119.818 338.35 101.904 343.774C119.441 353.94 104.459 368.944 109.568 388.261C129.074 370.431 143.041 368.504 156.851 375.865C151.061 354.412 173.331 327.671 180.241 349.962C195.747 336.728 191.988 317.295 195.695 314.008C200.343 309.893 202.992 310.228 215.546 309.673C221.975 309.39 225.158 318.363 227.869 326.488C230.194 333.461 235.607 336.696 234.937 341.942C230.937 385.068 201.045 421.42 169.719 444.444H169.687Z" fill="#FFED42"/>
<path d="M198.48 205.234C203.036 205.234 206.73 201.541 206.73 196.984C206.73 192.427 203.036 188.734 198.48 188.734C193.923 188.734 190.229 192.427 190.229 196.984C190.229 201.541 193.923 205.234 198.48 205.234Z" fill="#FFED42"/>
<path d="M236.8 227.347C241.357 227.347 245.051 223.653 245.051 219.097C245.051 214.54 241.357 210.846 236.8 210.846C232.244 210.846 228.55 214.54 228.55 219.097C228.55 223.653 232.244 227.347 236.8 227.347Z" fill="#FFED42"/>
<path d="M235.429 250.381C239.985 250.381 243.679 246.687 243.679 242.131C243.679 237.574 239.985 233.88 235.429 233.88C230.872 233.88 227.178 237.574 227.178 242.131C227.178 246.687 230.872 250.381 235.429 250.381Z" fill="#FFED42"/>
<path d="M211.944 337.272C216.501 337.272 220.195 333.578 220.195 329.022C220.195 324.465 216.501 320.771 211.944 320.771C207.388 320.771 203.694 324.465 203.694 329.022C203.694 333.578 207.388 337.272 211.944 337.272Z" fill="#FFED42"/>
<path d="M262.797 378.325C267.354 378.325 271.048 374.631 271.048 370.075C271.048 365.518 267.354 361.824 262.797 361.824C258.241 361.824 254.547 365.518 254.547 370.075C254.547 374.631 258.241 378.325 262.797 378.325Z" fill="#FFED42"/>
<path d="M271.236 399.768C275.793 399.768 279.487 396.074 279.487 391.517C279.487 386.961 275.793 383.267 271.236 383.267C266.68 383.267 262.986 386.961 262.986 391.517C262.986 396.074 266.68 399.768 271.236 399.768Z" fill="#FFED42"/>
<path d="M246.6 399.076C251.157 399.076 254.851 395.383 254.851 390.826C254.851 386.27 251.157 382.576 246.6 382.576C242.044 382.576 238.35 386.27 238.35 390.826C238.35 395.383 242.044 399.076 246.6 399.076Z" fill="#FFED42"/>
</g>
<defs>
<clipPath id="clip0">
<rect y="0.995117" width="400" height="521.59" fill="white"/>
</clipPath>
</defs>
</svg>
