<svg width="400" height="486" viewBox="0 0 400 486" fill="none" xmlns="http://www.w3.org/2000/svg">
<g clip-path="url(#clip0)">
<path d="M0 0.992188H400V293.702C400 293.731 400 293.76 400 293.79C400 399.508 310.456 485.197 200.005 485.197C89.5537 485.197 0 399.498 0 293.79C0 293.761 0 293.732 0 293.702V0.992188Z" fill="#004899"/>
<path d="M20.0933 25.3149H379.907V288.617C379.907 288.644 379.907 288.671 379.907 288.696C379.907 383.792 299.359 460.872 200.005 460.872C100.65 460.872 20.0933 383.784 20.0933 288.696C20.0933 288.669 20.0933 288.643 20.0933 288.617V25.3149Z" stroke="#FFE000" stroke-width="12.1053"/>
<path fill-rule="evenodd" clip-rule="evenodd" d="M202.744 45.4097C196.461 45.052 188.102 49.7685 189.813 55.868C190.386 61.2571 190.73 68.4576 188.567 68.7325C168.93 71.2279 143.029 84.3738 123.641 108.159C97.8648 139.782 92.1569 172.127 81.9981 212.552C78.9399 224.722 78.5522 232.708 77.7344 244.862C77.326 250.931 90.6311 242.978 104.826 236.887C119.405 230.631 135.894 225.209 156.537 223.01C159.306 222.716 158.377 236.176 156.047 236.233C130.087 236.869 63.8261 264.271 61.8421 275.302C59.5649 287.962 59.4074 308.635 66.0254 319.607C89.2795 358.158 131.85 372.558 177.644 377.793C179.34 386.888 193.962 402.541 199.886 402.629C206.118 402.721 219.156 389.838 221.949 377.223C257.012 377.22 287.65 362.295 303.333 353.454C324.96 341.263 335.907 323.246 338.511 304.015C340.16 291.838 342.647 275.023 337.077 271.792C319.543 261.623 297.574 251.298 276.03 244.791C270.469 243.112 255.797 238.244 246.859 235.962C244.142 235.269 244.889 223.575 248.109 224.261C275.835 230.171 296.803 238.975 320.954 251.154C326.348 253.874 326.65 233.807 325.519 224.344C320.717 184.194 308.868 154.183 291.733 122.545C281.262 103.209 260.205 84.06 231.903 72.5793C221.685 68.4349 215.548 67.295 209.889 67.4304C208.347 67.4673 207.578 65.6757 209.65 65.558C216.315 65.179 217.6 65.2584 217.195 54.9172C216.99 49.6678 208.968 45.7641 202.744 45.4097Z" fill="#FFE000" stroke="#004899"/>
<path fill-rule="evenodd" clip-rule="evenodd" d="M183.318 291.32C183.921 282.301 174.239 272.301 161.54 275.872C130.107 284.712 112.154 290.003 81.5171 307.02C76.0821 310.039 83.1512 317.308 86.5818 323.227C92.3786 333.229 112.441 346.331 132.656 355.262C155.352 365.288 178.103 369.333 178.507 363.298L183.318 291.32Z" fill="#004899" stroke="#004899"/>
<path fill-rule="evenodd" clip-rule="evenodd" d="M219.441 292.079C218.846 275.428 238.489 275.29 242.232 276.125C269.63 282.243 292.965 293.681 317.443 305.501C322.406 307.897 318.632 320.383 314.405 324.494C282.471 355.545 222.152 368.013 221.973 362.986L219.441 292.079Z" fill="#004899" stroke="#004899"/>
<path d="M178.507 363.192L177.644 377.793" stroke="#004899"/>
<path d="M221.973 362.986L221.949 377.223" stroke="#004899"/>
<path fill-rule="evenodd" clip-rule="evenodd" d="M198.945 341.863C195.855 337.906 197.654 338.151 198.945 338.282C204.472 338.842 212.096 341.099 211.906 352.875C211.755 362.17 201.654 367.374 196.327 366.395C194.564 366.071 197.246 364.015 198.676 361.918C200.88 358.688 203.375 347.535 198.945 341.863Z" fill="#004899" stroke="#004899"/>
<path fill-rule="evenodd" clip-rule="evenodd" d="M199.435 245.315C195.955 241.697 198.457 241.904 199.754 241.945C205.281 242.12 212.269 244.909 212.078 255.161C211.905 264.455 202.126 268.156 195.863 268.68C193.905 268.844 194.937 266.398 197.47 264.31C200.383 261.908 204.078 250.139 199.435 245.315Z" fill="#004899" stroke="#004899"/>
<path fill-rule="evenodd" clip-rule="evenodd" d="M259.995 250.446C256.304 247.043 258.704 246.734 259.995 246.865C265.522 247.425 271.768 251.379 271.365 261.458C270.994 270.747 258.887 274.367 253.242 272.539C251.536 271.987 253.256 270.955 256.651 269.865C262.261 268.063 265.804 255.8 259.995 250.446Z" fill="#004899" stroke="#004899"/>
<path fill-rule="evenodd" clip-rule="evenodd" d="M314.347 274.087C311.779 269.773 311.685 269.891 312.968 270.081C318.178 270.854 323.338 279.787 320.097 285.523C317.062 290.898 311.484 292.133 307.806 290.666C304.806 289.47 304.799 288.77 308.14 288.735C313.614 288.677 317.545 279.46 314.347 274.087Z" fill="#004899" stroke="#004899"/>
<path fill-rule="evenodd" clip-rule="evenodd" d="M140.371 253.836C136.372 250.801 139.605 250.958 140.901 250.891C146.428 250.603 151.614 251.588 152.908 261.774C154.079 270.996 147.427 274.364 141.57 274.233C139.778 274.193 139.933 273.368 141.905 271.771C146.547 268.01 145.331 257.6 140.371 253.836Z" fill="#004899" stroke="#004899"/>
<path fill-rule="evenodd" clip-rule="evenodd" d="M84.1619 274.917C80.1308 271.925 82.8644 271.328 84.1619 271.336C89.3713 271.366 94.3781 271.689 96.8047 278.825C98.9642 285.176 92.5967 291.966 87.2697 293.087C85.5154 293.456 86.827 291.673 88.2406 289.565C90.7623 285.804 88.8042 278.363 84.1619 274.917Z" fill="#004899" stroke="#004899"/>
<path fill-rule="evenodd" clip-rule="evenodd" d="M198.096 169.634C194.84 165.813 197.819 166.385 199.11 166.516C204.637 167.077 211.268 172.538 210.951 179.374C210.587 187.234 200.005 192.07 195.479 191.621C193.695 191.444 195.964 189.558 198.04 188.098C201.277 185.822 202.209 174.458 198.096 169.634Z" fill="#004899" stroke="#004899"/>
<path fill-rule="evenodd" clip-rule="evenodd" d="M200.005 96.2302C196.097 93.079 198.708 93.3081 200.005 93.2851C204.26 93.2097 211.049 96.1074 210.739 105.228C210.445 113.887 202.926 118.455 197.599 117.475C195.836 117.151 198.575 116.262 200.005 114.165C202.209 110.935 204.541 99.8882 200.005 96.2302Z" fill="#004899" stroke="#004899"/>
<path fill-rule="evenodd" clip-rule="evenodd" d="M180.824 226.873C180.86 228.809 173.054 229.649 172.945 227.589C170.614 183.778 175.381 138.41 178.887 94.7344C179.032 92.9266 186.709 93.4949 186.554 95.2787C182.857 137.855 179.958 180.931 180.824 226.873Z" fill="#004899" stroke="#004899"/>
<path fill-rule="evenodd" clip-rule="evenodd" d="M223.62 225.547C223.561 227.693 231.684 228.099 231.857 226.084C235.387 185.158 229.528 141.667 226.891 95.1069C226.765 92.8964 218.501 92.9126 218.606 94.8949C220.942 138.621 224.837 181.329 223.62 225.547Z" fill="#004899" stroke="#004899"/>
<path fill-rule="evenodd" clip-rule="evenodd" d="M113.137 326.069C111.218 324.931 105.13 330.264 106.69 331.799C124.847 349.647 159.084 361.613 173.188 362.234C175.942 362.355 177.644 351.584 175.328 351.295C151.269 348.294 132.882 337.779 113.137 326.069Z" fill="#FFE000" stroke="#004899"/>
<path fill-rule="evenodd" clip-rule="evenodd" d="M124.687 324.457C136.319 333.845 158.302 343.133 174.024 345.02C177.257 345.409 178.289 335.296 176.441 335.082C156.522 332.777 142.262 325.369 130.954 317.831C128.969 316.508 123.143 323.211 124.687 324.457Z" fill="#FFE000" stroke="#004899"/>
<path fill-rule="evenodd" clip-rule="evenodd" d="M146.264 308.699C157.138 315.443 165.747 318.464 176.56 318.791C179.437 318.878 178.792 328.615 176.83 328.575C162.594 328.288 146.612 320.951 141.25 316.041C139.567 314.499 144.309 307.487 146.264 308.699Z" fill="#FFE000" stroke="#004899"/>
<path fill-rule="evenodd" clip-rule="evenodd" d="M287.43 326.255C288.634 325.483 296.076 332.151 294.659 333.181C276.833 346.142 249.058 356.818 227.244 360.67C224.529 361.149 223.689 351.193 225.994 350.828C250.165 346.998 265.967 340.002 287.43 326.255Z" fill="#FFE000" stroke="#004899"/>
<path fill-rule="evenodd" clip-rule="evenodd" d="M277.489 324.559C264.763 335.511 240.233 343.83 226.983 344.928C223.737 345.197 222.479 333.858 225.859 333.617C240.253 332.594 256.641 327.54 270.077 317.047C271.958 315.578 278.906 323.339 277.489 324.559Z" fill="#FFE000" stroke="#004899"/>
<path fill-rule="evenodd" clip-rule="evenodd" d="M257.781 308.653C248.473 313.336 238.256 316.795 226.066 316.695C222.93 316.669 223.315 326.976 225.555 327.136C236.812 327.939 254.066 322.064 263.137 315.697C264.745 314.569 259.533 307.771 257.781 308.653Z" fill="#FFE000" stroke="#004899"/>
<path fill-rule="evenodd" clip-rule="evenodd" d="M285.488 217.823C284.357 217.715 283.338 219.659 285.488 220.509C292.249 223.185 299.379 227.069 305.543 231.164C307.705 232.6 308.063 228.753 306.17 226.956C301.361 222.389 293.821 218.623 285.488 217.823Z" fill="#004899" stroke="#004899"/>
<path fill-rule="evenodd" clip-rule="evenodd" d="M282.802 202.066C281.671 202.175 280.656 203.892 282.802 204.752C291.264 208.144 295.708 210.685 302.857 215.406C305.023 216.836 304.257 211.832 302.141 210.303C294.962 205.115 286.933 201.666 282.802 202.066Z" fill="#004899" stroke="#004899"/>
<path fill-rule="evenodd" clip-rule="evenodd" d="M280.855 186.497C279.722 186.422 278.628 188.567 280.855 189.183C287.617 191.053 292.598 192.341 299.747 197.062C301.913 198.493 303.548 194.854 301.448 193.302C295.027 188.556 287.488 186.939 280.855 186.497Z" fill="#004899" stroke="#004899"/>
<path fill-rule="evenodd" clip-rule="evenodd" d="M276.784 170.75C275.649 170.743 274.704 173.664 276.963 174.152C283.545 175.574 289.333 175.519 296.482 180.24C298.648 181.67 299.082 178.08 297.019 176.48C290.946 171.768 284.839 170.798 276.784 170.75Z" fill="#004899" stroke="#004899"/>
<path fill-rule="evenodd" clip-rule="evenodd" d="M270.767 156.882C269.639 157.014 268.463 159.39 270.767 159.568C277.085 160.058 284.011 162.045 290.375 165.567C292.702 166.855 294.597 162.5 292.345 161.18C284.2 156.405 275.885 156.285 270.767 156.882Z" fill="#004899" stroke="#004899"/>
<path fill-rule="evenodd" clip-rule="evenodd" d="M265.108 143.171C263.973 143.197 262.799 145.748 265.108 145.857C272.496 146.205 279.268 146.955 286.506 150.602C288.824 151.77 290.257 148.132 287.939 146.931C279.817 142.723 273.173 142.985 265.108 143.171Z" fill="#004899" stroke="#004899"/>
<path fill-rule="evenodd" clip-rule="evenodd" d="M261.395 130.354C260.261 130.419 259.101 132.756 261.395 133.04C266.366 133.657 271.168 133.065 277.869 136.621C280.162 137.838 281.525 134.24 279.122 133.219C271.538 129.996 266.237 130.079 261.395 130.354Z" fill="#004899" stroke="#004899"/>
<path fill-rule="evenodd" clip-rule="evenodd" d="M119.298 217.144C120.432 217.098 121.536 219.256 119.298 219.83C111.258 221.893 107.303 222.59 98.5631 228.225C96.3815 229.631 94.4528 226.091 96.6829 224.733C106.663 218.656 111.184 217.479 119.298 217.144Z" fill="#004899" stroke="#004899"/>
<path fill-rule="evenodd" clip-rule="evenodd" d="M120.798 201.897C121.933 201.944 123.092 204.302 120.798 204.583C111.705 205.696 108.49 206.77 100.443 212.471C98.3252 213.971 96.3867 210.421 98.563 208.979C107.297 203.191 111.976 201.527 120.798 201.897Z" fill="#004899" stroke="#004899"/>
<path fill-rule="evenodd" clip-rule="evenodd" d="M125.185 184.268C126.321 184.287 127.413 186.34 125.185 186.954C116.918 189.231 114.89 188.741 104.071 195.728C101.89 197.136 99.9918 193.645 102.19 192.237C112.494 185.638 118.997 184.165 125.185 184.268Z" fill="#004899" stroke="#004899"/>
<path fill-rule="evenodd" clip-rule="evenodd" d="M127.902 170.641C129.027 170.792 130.466 174.136 128.155 174.087C121.564 173.946 116.695 175.363 108.18 179.569C105.853 180.718 105.84 176.417 108.073 175.064C114.416 171.218 121.962 169.843 127.902 170.641Z" fill="#004899" stroke="#004899"/>
<path fill-rule="evenodd" clip-rule="evenodd" d="M133.505 155.896C134.612 156.148 135.816 158.527 133.505 158.582C126.419 158.75 120.351 159.94 113.91 163.304C111.61 164.506 110.676 160.646 112.916 159.306C119.803 155.187 127.808 154.595 133.505 155.896Z" fill="#004899" stroke="#004899"/>
<path fill-rule="evenodd" clip-rule="evenodd" d="M139.257 141.886C140.374 142.091 141.441 143.888 139.13 143.939C132.62 144.082 128.735 144.901 120.802 148.661C118.456 149.773 117.893 146.035 120.188 144.79C127.581 140.775 132.067 140.562 139.257 141.886Z" fill="#004899" stroke="#004899"/>
<path fill-rule="evenodd" clip-rule="evenodd" d="M144.029 130.688C145.052 131.182 145.773 134.411 143.523 133.881C139.291 132.885 133.76 132.437 128.866 134.172C126.419 135.039 126.935 132.112 129.265 130.933C134.404 128.334 140.023 128.755 144.029 130.688Z" fill="#004899" stroke="#004899"/>
</g>
<defs>
<clipPath id="clip0">
<rect y="0.992188" width="400" height="484.2" fill="white"/>
</clipPath>
</defs>
</svg>
