<svg width="400" height="496" viewBox="0 0 400 496" fill="none" xmlns="http://www.w3.org/2000/svg">
<g clip-path="url(#clip0)">
<path fill-rule="evenodd" clip-rule="evenodd" d="M0 26.9351C8.44 54.7051 15 93.5451 15 136.075V261.815C15 328.615 39.73 388.535 85.47 429.675C113.07 454.495 158.17 484.855 200 495.995C241.83 484.855 286.93 454.495 314.53 429.665C360.27 388.525 385 328.615 385 261.815V136.075C385 93.5451 391.56 54.7051 400 26.9351C350.56 7.59512 272.28 0.995117 200 0.995117C127.72 0.995117 49.44 7.59512 0 26.9351Z" fill="#0085CA"/>
<mask id="path-3-outside-1" maskUnits="userSpaceOnUse" x="96.89" y="197.325" width="166" height="179" fill="black">
<rect fill="white" x="96.89" y="197.325" width="166" height="179"/>
<path fill-rule="evenodd" clip-rule="evenodd" d="M107.73 373.295L258.1 208.165L252.26 202.325L101.89 367.455L107.73 373.295Z"/>
</mask>
<path fill-rule="evenodd" clip-rule="evenodd" d="M107.73 373.295L258.1 208.165L252.26 202.325L101.89 367.455L107.73 373.295Z" fill="white"/>
<path d="M258.1 208.165L260.318 210.185L262.246 208.068L260.221 206.044L258.1 208.165ZM252.26 202.325L254.381 200.204L252.158 197.981L250.042 200.305L252.26 202.325ZM101.89 367.455L99.6719 365.435L97.7443 367.552L99.7687 369.577L101.89 367.455ZM109.948 375.315L260.318 210.185L255.882 206.145L105.512 371.275L109.948 375.315ZM260.221 206.044L254.381 200.204L250.139 204.447L255.979 210.287L260.221 206.044ZM250.042 200.305L99.6719 365.435L104.108 369.475L254.478 204.345L250.042 200.305ZM99.7687 369.577L105.609 375.417L109.851 371.174L104.011 365.334L99.7687 369.577Z" fill="#0085CA" mask="url(#path-3-outside-1)"/>
<mask id="path-5-outside-2" maskUnits="userSpaceOnUse" x="229.888" y="204.143" width="81" height="81" fill="black">
<rect fill="white" x="229.888" y="204.143" width="81" height="81"/>
<path fill-rule="evenodd" clip-rule="evenodd" d="M307.03 225.915C312.63 263.785 279.37 283.905 251.95 280.995C261.86 271.985 264.21 253.205 256.13 240.335C251.02 232.195 240.41 229.925 236.27 225.155C231.6 219.765 232.36 212.025 234.98 209.395C237.43 206.935 245.8 205.575 251.19 210.245C255.96 214.375 258.18 225.295 265.95 230.945C278.81 240.285 296.34 235.615 307.03 225.925"/>
</mask>
<path fill-rule="evenodd" clip-rule="evenodd" d="M307.03 225.915C312.63 263.785 279.37 283.905 251.95 280.995C261.86 271.985 264.21 253.205 256.13 240.335C251.02 232.195 240.41 229.925 236.27 225.155C231.6 219.765 232.36 212.025 234.98 209.395C237.43 206.935 245.8 205.575 251.19 210.245C255.96 214.375 258.18 225.295 265.95 230.945C278.81 240.285 296.34 235.615 307.03 225.925" fill="white"/>
<path d="M251.95 280.995L249.932 278.775L244.985 283.273L251.633 283.978L251.95 280.995ZM256.13 240.335L253.589 241.93L253.589 241.93L256.13 240.335ZM236.27 225.155L234.003 227.12L234.004 227.122L236.27 225.155ZM234.98 209.395L237.105 211.512L237.106 211.512L234.98 209.395ZM251.19 210.245L249.225 212.513L249.226 212.513L251.19 210.245ZM265.95 230.945L264.186 233.372L264.187 233.373L265.95 230.945ZM304.062 226.354C306.705 244.229 300.211 257.71 289.928 266.463C279.537 275.308 265.194 279.384 252.267 278.012L251.633 283.978C266.126 285.517 282.122 280.987 293.817 271.032C305.619 260.986 312.954 245.471 309.998 225.476L304.062 226.354ZM253.968 283.215C259.583 278.11 262.892 270.421 263.768 262.44C264.647 254.439 263.121 245.829 258.671 238.74L253.589 241.93C257.219 247.712 258.558 254.926 257.804 261.785C257.048 268.664 254.227 274.87 249.932 278.775L253.968 283.215ZM258.671 238.74C255.696 234.002 251.198 231.095 247.327 228.878C245.275 227.703 243.59 226.826 241.964 225.834C240.382 224.869 239.262 224.026 238.536 223.189L234.004 227.122C235.348 228.67 237.106 229.899 238.839 230.956C240.525 231.985 242.589 233.079 244.345 234.085C248.092 236.231 251.454 238.528 253.589 241.93L258.671 238.74ZM238.537 223.191C236.727 221.102 235.943 218.523 235.89 216.173C235.834 213.677 236.592 212.028 237.105 211.512L232.855 207.278C230.748 209.393 229.816 212.929 229.892 216.308C229.971 219.833 231.143 223.819 234.003 227.12L238.537 223.191ZM237.106 211.512C237.266 211.351 237.767 211 238.729 210.682C239.642 210.381 240.789 210.172 242.045 210.146C244.581 210.093 247.231 210.784 249.225 212.513L253.154 207.978C249.759 205.036 245.529 204.072 241.92 204.147C240.103 204.185 238.361 204.485 236.848 204.985C235.383 205.468 233.919 206.209 232.854 207.278L237.106 211.512ZM249.226 212.513C250.047 213.224 250.883 214.345 251.833 215.954C252.793 217.578 253.683 219.361 254.802 221.445C256.938 225.423 259.703 230.112 264.186 233.372L267.714 228.519C264.427 226.128 262.197 222.533 260.088 218.606C259.084 216.737 258.04 214.663 256.999 212.901C255.948 211.124 254.718 209.332 253.154 207.977L249.226 212.513ZM264.187 233.373C278.622 243.856 297.749 238.387 309.045 228.148L305.015 223.702C294.931 232.843 278.998 236.714 267.713 228.518L264.187 233.373Z" fill="#0085CA" mask="url(#path-5-outside-2)"/>
<mask id="path-7-outside-3" maskUnits="userSpaceOnUse" x="136.9" y="197.325" width="166" height="179" fill="black">
<rect fill="white" x="136.9" y="197.325" width="166" height="179"/>
<path fill-rule="evenodd" clip-rule="evenodd" d="M292.27 373.295L141.9 208.165L147.74 202.325L298.11 367.455L292.27 373.295Z"/>
</mask>
<path fill-rule="evenodd" clip-rule="evenodd" d="M292.27 373.295L141.9 208.165L147.74 202.325L298.11 367.455L292.27 373.295Z" fill="white"/>
<path d="M141.9 208.165L139.779 206.044L137.754 208.068L139.682 210.185L141.9 208.165ZM147.74 202.325L149.958 200.305L147.842 197.981L145.619 200.204L147.74 202.325ZM298.11 367.455L300.231 369.577L302.256 367.552L300.328 365.435L298.11 367.455ZM294.488 371.275L144.118 206.145L139.682 210.185L290.052 375.315L294.488 371.275ZM144.021 210.287L149.861 204.447L145.619 200.204L139.779 206.044L144.021 210.287ZM145.522 204.345L295.892 369.475L300.328 365.435L149.958 200.305L145.522 204.345ZM295.989 365.334L290.149 371.174L294.391 375.417L300.231 369.577L295.989 365.334Z" fill="#0085CA" mask="url(#path-7-outside-3)"/>
<mask id="path-9-outside-4" maskUnits="userSpaceOnUse" x="89.3469" y="204.143" width="81" height="81" fill="black">
<rect fill="white" x="89.3469" y="204.143" width="81" height="81"/>
<path fill-rule="evenodd" clip-rule="evenodd" d="M92.97 225.915C87.37 263.785 120.63 283.905 148.05 280.995C138.14 271.985 135.79 253.205 143.87 240.335C148.98 232.195 159.59 229.925 163.73 225.155C168.4 219.765 167.64 212.025 165.02 209.395C162.57 206.935 154.2 205.575 148.81 210.245C144.04 214.375 141.82 225.295 134.05 230.945C121.19 240.285 103.66 235.615 92.97 225.925"/>
</mask>
<path fill-rule="evenodd" clip-rule="evenodd" d="M92.97 225.915C87.37 263.785 120.63 283.905 148.05 280.995C138.14 271.985 135.79 253.205 143.87 240.335C148.98 232.195 159.59 229.925 163.73 225.155C168.4 219.765 167.64 212.025 165.02 209.395C162.57 206.935 154.2 205.575 148.81 210.245C144.04 214.375 141.82 225.295 134.05 230.945C121.19 240.285 103.66 235.615 92.97 225.925" fill="white"/>
<path d="M148.05 280.995L148.367 283.978L155.015 283.273L150.068 278.775L148.05 280.995ZM143.87 240.335L146.411 241.93L146.411 241.93L143.87 240.335ZM163.73 225.155L165.996 227.122L165.997 227.12L163.73 225.155ZM165.02 209.395L162.894 211.512L162.895 211.512L165.02 209.395ZM148.81 210.245L150.774 212.513L150.774 212.513L148.81 210.245ZM134.05 230.945L135.813 233.373L135.814 233.372L134.05 230.945ZM90.0023 225.476C87.0456 245.471 94.3812 260.986 106.183 271.032C117.878 280.987 133.874 285.517 148.367 283.978L147.733 278.012C134.806 279.384 120.463 275.308 110.072 266.463C99.7889 257.71 93.2945 244.229 95.9378 226.354L90.0023 225.476ZM150.068 278.775C145.773 274.87 142.952 268.664 142.196 261.785C141.442 254.926 142.781 247.712 146.411 241.93L141.329 238.74C136.879 245.829 135.353 254.439 136.232 262.44C137.108 270.421 140.417 278.11 146.032 283.215L150.068 278.775ZM146.411 241.93C148.546 238.528 151.908 236.231 155.655 234.085C157.411 233.079 159.475 231.985 161.161 230.956C162.894 229.899 164.652 228.67 165.996 227.122L161.464 223.189C160.738 224.026 159.618 224.869 158.036 225.834C156.41 226.826 154.725 227.703 152.673 228.878C148.802 231.095 144.304 234.002 141.329 238.74L146.411 241.93ZM165.997 227.12C168.857 223.819 170.029 219.833 170.108 216.308C170.184 212.929 169.252 209.393 167.145 207.278L162.895 211.512C163.408 212.028 164.166 213.677 164.11 216.173C164.057 218.523 163.273 221.102 161.463 223.191L165.997 227.12ZM167.146 207.278C166.081 206.209 164.617 205.468 163.152 204.985C161.639 204.485 159.897 204.185 158.08 204.147C154.471 204.072 150.241 205.036 146.846 207.978L150.774 212.513C152.769 210.784 155.419 210.093 157.955 210.146C159.211 210.172 160.358 210.381 161.271 210.682C162.233 211 162.734 211.351 162.894 211.512L167.146 207.278ZM146.846 207.977C145.282 209.332 144.052 211.124 143.001 212.901C141.96 214.663 140.916 216.737 139.912 218.606C137.803 222.533 135.573 226.128 132.286 228.519L135.814 233.372C140.297 230.112 143.062 225.423 145.198 221.445C146.317 219.361 147.207 217.578 148.167 215.954C149.117 214.345 149.953 213.224 150.774 212.513L146.846 207.977ZM132.287 228.518C121.002 236.714 105.069 232.843 94.9848 223.702L90.9552 228.148C102.251 238.387 121.378 243.856 135.813 233.373L132.287 228.518Z" fill="#0085CA" mask="url(#path-9-outside-4)"/>
<path fill-rule="evenodd" clip-rule="evenodd" d="M17.1901 295.955C13.6901 271.015 15.2801 244.355 15.1001 217.395L200 0.995117L384.9 217.395C384.72 244.345 386.31 271.015 382.81 295.955L200 81.9951L17.1901 295.955Z" fill="white"/>
<path d="M313.527 428.55L314.53 429.665L313.527 428.55C286.107 453.217 241.407 483.303 200 494.442C158.593 483.303 113.893 453.217 86.4731 428.56C41.0863 387.737 16.5 328.242 16.5 261.815V136.075C16.5 94.0785 10.1265 55.6509 1.8366 27.8328C51.0623 8.98789 128.367 2.49512 200 2.49512C271.633 2.49512 348.938 8.98789 398.163 27.8328C389.874 55.6509 383.5 94.0785 383.5 136.075V261.815C383.5 328.242 358.914 387.728 313.527 428.55Z" stroke="#0085CA" stroke-width="3"/>
</g>
<defs>
<clipPath id="clip0">
<rect y="0.995117" width="400" height="495" fill="white"/>
</clipPath>
</defs>
</svg>
