<svg width="400" height="523" viewBox="0 0 400 523" fill="none" xmlns="http://www.w3.org/2000/svg">
<g clip-path="url(#clip0)">
<path d="M199.709 522.788C121.895 466.334 68.561 395.033 36.6483 304.844C7.70906 223.073 -3.90222 123.974 1.14434 1.89276L1.16528 1.41113H398.839L398.86 1.89276C403.896 123.974 392.284 223.062 363.356 304.844C331.443 395.033 278.109 466.334 200.295 522.788L200.002 522.998L199.709 522.788Z" fill="white"/>
<path fill-rule="evenodd" clip-rule="evenodd" d="M387.429 82.1875C381.701 95.5337 374.462 101.08 360.937 108.859C346.671 117.065 345.779 129.588 340.884 138.661C338.047 143.92 329.064 152.734 316.704 159.048C308.13 163.428 304.325 169.635 298.444 182.199C294.092 191.493 286.053 199.262 274.758 204.728C266.91 208.525 259.585 215.088 258.137 224.676C256.805 233.494 252.159 238.272 244.538 241.747C240.036 243.8 231.6 246.531 235.309 264.734C237.748 276.702 244.829 285.703 235.5 305.795C231.976 313.384 231.682 319.734 237.356 335.702C239.148 340.743 242.635 357.292 236.768 367.704C232.476 375.32 230.159 382.624 234.37 395.728C237.086 404.179 241.281 413.491 233.697 431.842C229.961 440.882 230.474 453.721 232.412 460.539C234.193 466.804 238.263 478.873 245.321 485.1C230.706 498.157 215.776 510.967 199.669 522.532C184.904 511.779 170.339 500.151 156.471 487.31C152.782 478.326 142.467 454.525 148.881 439.511C153.429 428.865 158.663 418.229 157.569 404.954C156.592 393.113 147.471 383.259 152.859 364.391C154.576 358.376 157.373 354.416 157.113 342.463C156.788 327.549 145.081 320.932 154.737 299.315C163.418 279.881 151.334 276.782 154.031 258.772C156.747 240.636 142.85 242.376 134.46 227.874C129.94 220.062 128.773 211.099 123.933 204.203C119.894 198.447 112.618 194.412 103.402 190.033C93.7905 185.466 87.5139 176.475 85.6985 168.564C83.5489 159.196 78.2833 151.784 66.7659 147.106C59.08 143.984 48.8242 138.033 44.8118 128.774C39.5889 116.722 34.8471 103.582 23.813 98.1408C10.6951 91.6719 0.216811 89.2714 0.177119 79.3663C0.0778632 54.6005 -0.280305 30.7148 1.04838 1.09394L64.2051 0.995117C64.5505 8.68266 62.4301 27.1721 82.4896 37.817V37.817C95.6227 44.7863 102.519 49.2376 110.207 65.7835C114.611 75.2636 117.039 83.9659 130.822 90.6203C144.483 97.2158 150.533 103.559 153.855 114.794C158.693 131.154 171.231 135.826 178.333 138.974C191.242 144.695 197.529 161.039 198.951 166.414C199.457 168.329 200.549 168.866 200.939 167.991C209.154 149.548 217.864 141.656 224.864 138.724C237.93 133.251 243.16 127.417 246.859 119.466C254.68 102.654 258.342 97.2061 267.185 93.0652C280.279 86.9331 290.142 76.6512 292.977 70.4084C301.545 51.5406 306.157 45.222 316.599 40.5669C329.554 34.792 336.915 27.0567 339.147 22.2601C341.356 17.5131 342.198 8.60349 341.874 1.55912L398.382 1.11316L399.708 64.7293C393.23 68.4465 390.259 75.593 387.429 82.1875Z" fill="#0085CA"/>
<path d="M38.0624 304.343L36.6483 304.844L38.0623 304.343C9.28278 223.023 -2.33777 124.434 2.60385 2.91113H397.4C402.331 124.434 390.711 223.013 361.942 304.343C330.211 394.017 277.251 464.938 200.002 521.147C122.753 464.938 69.7928 394.017 38.0624 304.343Z" stroke="#0085CA" stroke-width="3"/>
</g>
<defs>
<clipPath id="clip0">
<rect y="0.995117" width="400" height="522" fill="white"/>
</clipPath>
</defs>
</svg>
