<svg width="400" height="522" viewBox="0 0 400 522" fill="none" xmlns="http://www.w3.org/2000/svg">
<g clip-path="url(#clip0)">
<path d="M38.0621 302.815L36.6483 303.316L38.0621 302.815C9.28295 221.638 -2.3376 123.221 2.60374 1.91113H397.4C402.331 123.221 390.711 221.627 361.942 302.815C330.212 392.333 277.252 463.13 200.002 519.242C122.752 463.13 69.7924 392.333 38.0621 302.815Z" fill="white" stroke="#008ED3" stroke-width="3"/>
<path d="M29.3402 280.721C30.2729 283.842 31.2055 286.962 32.2099 290.083C36.4787 303.607 41.3214 316.987 46.7738 330.08C99.8281 456.958 199.982 521.671 199.982 521.671C199.982 521.671 300.171 457.102 353.226 330.08C358.678 316.987 363.521 303.607 367.79 290.083C368.794 286.962 369.727 283.842 370.659 280.721H29.3402ZM200.018 314.368C211.569 326.863 218.075 343.198 218.276 360.212C218.276 375.458 203.928 392.102 200.628 407.527H199.408C196.251 392.856 181.723 375.243 181.723 360.212C181.921 343.19 188.442 326.85 200.018 314.368ZM215.227 415.706C215.227 417.966 208.412 419.795 199.982 419.795C191.552 419.795 184.772 417.966 184.772 415.706C184.772 413.446 191.588 411.616 199.982 411.616C208.376 411.616 215.227 413.446 215.227 415.706ZM152.237 400.64C148.839 400.022 145.753 398.263 143.49 395.654C141.227 393.045 139.921 389.742 139.789 386.291C139.885 382.375 141.465 378.641 144.208 375.844C146.952 373.047 150.654 371.396 154.568 371.225C159.834 371.1 165.041 372.36 169.668 374.878C174.294 377.396 178.179 381.084 180.934 385.574C185.931 392.413 189.227 400.344 190.548 408.711L188.933 409.105C185.858 405.618 182.511 402.38 178.925 399.42C176.026 397.15 172.827 395.291 169.419 393.896C167.836 393.303 166.159 392.999 164.469 392.999C161.923 393.018 159.432 393.742 157.273 395.091C155.114 396.439 153.37 398.36 152.237 400.64ZM189.113 435.256C188.351 437.801 186.968 440.116 185.09 441.995C183.212 443.873 180.896 445.255 178.351 446.017C175.883 446.699 173.248 446.404 170.99 445.196C168.733 443.987 167.028 441.956 166.227 439.525C165.614 437.199 165.95 434.725 167.161 432.646C168.372 430.568 170.358 429.055 172.683 428.44C173.214 429.655 174.086 430.689 175.195 431.415C176.304 432.141 177.6 432.529 178.925 432.53C180.452 432.537 181.934 432.017 183.122 431.059C184.408 429.957 185.607 428.758 186.709 427.472C188.004 425.919 189.134 424.236 190.081 422.45L191.337 422.737C191.381 427.012 190.627 431.258 189.113 435.256ZM199.874 455.201C195.713 450.848 193.354 445.08 193.274 439.058C193.274 434.323 197.399 428.942 199.121 424.172H200.663C202.421 429.086 206.51 434.252 206.51 439.058C206.46 445.072 204.126 450.843 199.982 455.201H199.874ZM233.809 439.525C233.008 441.956 231.302 443.987 229.045 445.196C226.788 446.404 224.152 446.699 221.684 446.017C219.139 445.255 216.824 443.873 214.945 441.995C213.067 440.116 211.685 437.801 210.923 435.256C209.47 431.282 208.765 427.074 208.842 422.844L210.098 422.557C211.043 424.336 212.161 426.018 213.434 427.579C214.546 428.855 215.745 430.054 217.021 431.167C218.209 432.125 219.691 432.644 221.218 432.637C222.543 432.636 223.839 432.249 224.948 431.523C226.057 430.796 226.929 429.763 227.46 428.548C229.761 429.164 231.728 430.66 232.936 432.714C234.145 434.767 234.497 437.214 233.916 439.525H233.809ZM247.835 400.64C246.689 398.346 244.929 396.417 242.749 395.068C240.57 393.718 238.058 393.002 235.495 392.999C233.804 392.999 232.127 393.303 230.544 393.896C227.137 395.291 223.938 397.15 221.038 399.42C217.444 402.37 214.096 405.609 211.03 409.105L209.416 408.711C210.769 400.335 214.102 392.402 219.137 385.574C221.892 381.084 225.777 377.396 230.404 374.878C235.03 372.36 240.237 371.1 245.503 371.225C249.412 371.358 253.125 372.969 255.894 375.731C258.664 378.494 260.283 382.203 260.426 386.112C260.327 389.615 259.02 392.976 256.724 395.624C254.429 398.272 251.288 400.045 247.835 400.64Z" fill="#008ED3"/>
<path d="M398.245 0.995117H1.75513C-2.28769 66.1697 0.658617 131.59 10.5437 196.137C11.0818 199.724 11.6557 203.06 12.2655 206.54H387.734C388.344 202.953 388.918 199.581 389.456 196.137C399.341 131.59 402.288 66.1697 398.245 0.995117ZM286.469 31.486C298.038 43.9544 304.548 60.2858 304.727 77.2942C304.727 92.5755 290.379 109.22 287.114 124.609H285.859C282.738 109.937 268.21 92.3244 268.21 77.2942C268.403 60.2886 274.911 43.9619 286.469 31.486ZM301.642 132.824C301.642 135.048 294.827 136.913 286.397 136.913C277.967 136.913 271.187 135.048 271.187 132.824C271.187 130.6 278.003 128.734 286.397 128.734C294.791 128.734 301.642 130.564 301.642 132.824ZM113.531 31.486C125.089 43.9619 131.597 60.2886 131.79 77.2942C131.79 92.5755 117.441 109.22 114.177 124.609H112.921C109.765 109.937 95.2726 92.3244 95.2726 77.2942C95.4521 60.2858 101.962 43.9544 113.531 31.486ZM128.741 132.824C128.741 135.048 121.925 136.913 113.531 136.913C105.137 136.913 98.2858 135.048 98.2858 132.824C98.2858 130.6 105.101 128.734 113.531 128.734C121.961 128.734 128.741 130.564 128.741 132.824ZM65.7502 117.757C62.3296 117.125 59.2299 115.337 56.9704 112.692C54.7109 110.048 53.4287 106.707 53.3386 103.229C53.4642 99.3211 55.0729 95.6071 57.838 92.8421C60.603 90.077 64.317 88.4683 68.2254 88.3427C73.4914 88.2179 78.698 89.4774 83.3247 91.9954C87.9515 94.5134 91.8363 98.2015 94.5911 102.691C99.6666 109.555 103.013 117.541 104.348 125.972L102.734 126.367C99.6818 122.869 96.3464 119.63 92.7616 116.681C89.8447 114.418 86.6349 112.56 83.2197 111.157C81.6414 110.547 79.9615 110.243 78.2694 110.26C75.69 110.212 73.1489 110.889 70.9355 112.215C68.7221 113.54 66.9255 115.461 65.7502 117.757ZM102.626 152.374C101.856 154.914 100.471 157.225 98.5934 159.102C96.7163 160.979 94.4052 162.365 91.8648 163.135C89.3967 163.816 86.7612 163.522 84.5041 162.313C82.247 161.105 80.5413 159.074 79.7402 156.642C79.1279 154.316 79.464 151.842 80.6747 149.764C81.8854 147.686 83.8717 146.173 86.1971 145.558C86.6101 146.513 87.2374 147.36 88.0305 148.034C88.8235 148.708 89.761 149.19 90.7703 149.443C91.7796 149.696 92.8336 149.714 93.8507 149.494C94.8679 149.274 95.8208 148.824 96.6357 148.177C97.9211 147.074 99.1203 145.875 100.223 144.589C101.496 143.028 102.613 141.346 103.559 139.567L104.814 139.819C104.892 144.105 104.15 148.366 102.626 152.374ZM113.388 172.318C109.202 167.964 106.829 162.18 106.752 156.14C106.752 151.405 110.877 146.06 112.599 141.289H114.141C115.899 146.204 119.988 151.369 119.988 156.14C119.945 162.153 117.64 167.928 113.531 172.318H113.388ZM147.394 156.642C146.593 159.066 144.893 161.091 142.644 162.299C140.395 163.506 137.769 163.806 135.305 163.135C132.768 162.359 130.46 160.972 128.584 159.095C126.707 157.219 125.32 154.911 124.544 152.374C123.028 148.4 122.261 144.179 122.284 139.926L123.539 139.675C124.486 141.461 125.616 143.144 126.911 144.697C128.013 145.984 129.212 147.183 130.499 148.284C131.317 148.931 132.272 149.382 133.292 149.602C134.312 149.821 135.368 149.804 136.38 149.551C137.392 149.298 138.332 148.816 139.128 148.142C139.925 147.469 140.556 146.622 140.973 145.666C143.263 146.297 145.216 147.798 146.415 149.849C147.615 151.899 147.966 154.337 147.394 156.642ZM161.241 117.757C160.102 115.459 158.343 113.525 156.162 112.175C153.981 110.824 151.466 110.111 148.901 110.117C147.209 110.102 145.53 110.406 143.95 111.014C140.543 112.409 137.344 114.268 134.444 116.538C130.858 119.497 127.512 122.736 124.436 126.223L122.894 125.972C124.171 117.599 127.458 109.661 132.472 102.835C135.226 98.345 139.111 94.6568 143.738 92.1389C148.365 89.6209 153.571 88.3614 158.837 88.4862C162.749 88.6113 166.467 90.2188 169.238 92.983C172.009 95.7472 173.625 99.4613 173.76 103.373C173.628 106.834 172.318 110.145 170.048 112.761C167.779 115.377 164.684 117.139 161.277 117.757H161.241ZM238.688 117.757C235.276 117.112 232.189 115.319 229.938 112.676C227.686 110.033 226.407 106.7 226.312 103.229C226.446 99.3179 228.063 95.6037 230.834 92.8395C233.605 90.0753 237.323 88.4678 241.235 88.3427C246.501 88.2179 251.707 89.4774 256.334 91.9954C260.961 94.5134 264.845 98.2015 267.6 102.691C272.61 109.566 275.872 117.556 277.106 125.972L275.528 126.367C272.452 122.879 269.106 119.641 265.52 116.681C262.608 114.411 259.397 112.552 255.978 111.157C254.412 110.546 252.744 110.242 251.063 110.26C248.513 110.242 246.008 110.933 243.829 112.257C241.65 113.581 239.882 115.486 238.723 117.757H238.688ZM275.564 152.374C274.787 154.911 273.4 157.219 271.524 159.095C269.648 160.972 267.34 162.359 264.802 163.135C262.339 163.806 259.713 163.506 257.464 162.299C255.215 161.091 253.514 159.066 252.713 156.642C252.11 154.322 252.445 151.856 253.647 149.781C254.849 147.706 256.821 146.189 259.134 145.558C259.552 146.514 260.183 147.361 260.979 148.035C261.776 148.708 262.716 149.19 263.728 149.443C264.74 149.696 265.796 149.714 266.816 149.494C267.835 149.274 268.791 148.824 269.609 148.177C270.896 147.075 272.095 145.876 273.196 144.589C274.491 143.037 275.621 141.354 276.568 139.567L277.824 139.819C277.852 144.104 277.098 148.359 275.6 152.374H275.564ZM286.325 172.318C282.164 167.95 279.807 162.172 279.725 156.14C279.725 151.405 283.814 146.06 285.572 141.289H287.294C289.016 146.204 293.141 151.369 293.141 156.14C293.036 162.181 290.653 167.96 286.469 172.318H286.325ZM320.224 156.642C319.43 159.071 317.732 161.101 315.48 162.311C313.229 163.52 310.598 163.815 308.135 163.135C305.595 162.365 303.284 160.979 301.407 159.102C299.529 157.225 298.144 154.914 297.374 152.374C295.9 148.393 295.195 144.169 295.293 139.926L296.549 139.675C297.494 141.454 298.612 143.136 299.885 144.697C300.987 145.982 302.187 147.182 303.472 148.284C304.287 148.931 305.24 149.382 306.257 149.602C307.274 149.821 308.328 149.804 309.337 149.551C310.347 149.297 311.284 148.815 312.077 148.142C312.87 147.468 313.497 146.621 313.911 145.666C316.217 146.273 318.191 147.768 319.4 149.824C320.61 151.88 320.957 154.331 320.367 156.642H320.224ZM334.106 117.757C332.964 115.462 331.204 113.53 329.024 112.18C326.844 110.83 324.331 110.116 321.766 110.117C320.074 110.099 318.394 110.403 316.816 111.014C313.401 112.416 310.191 114.274 307.274 116.538C303.689 119.487 300.354 122.726 297.302 126.223L295.831 125.972C297.126 117.604 300.411 109.67 305.409 102.835C308.166 98.3475 312.052 94.6613 316.678 92.1437C321.304 89.6261 326.509 88.365 331.775 88.4862C335.683 88.6117 339.397 90.2205 342.162 92.9855C344.927 95.7506 346.536 99.4646 346.661 103.373C346.533 106.823 345.234 110.127 342.978 112.742C340.722 115.356 337.644 117.125 334.25 117.757H334.106Z" fill="#008ED3"/>
</g>
<defs>
<clipPath id="clip0">
<rect y="0.995117" width="400" height="520.68" fill="white"/>
</clipPath>
</defs>
</svg>
