<svg width="400" height="503" viewBox="0 0 400 503" fill="none" xmlns="http://www.w3.org/2000/svg">
<g clip-path="url(#clip0)">
<path d="M400 0.0112305C400 366.729 231.789 471.785 200 502.654C168.173 471.785 0 366.729 0 0.0112305H400Z" fill="#00A7E1"/>
<path d="M217.924 153.209C225.584 165.35 231.789 172.014 235.695 167.572C237.955 165.006 240.636 155.546 240.061 146.086C239.487 136.626 236.997 126.936 241.364 125.021C245.73 123.106 257.526 125.71 257.028 130.038C256.109 137.698 255.19 135.324 254.079 142.294C252.968 149.265 255.534 151.141 265.569 149.954C272.233 149.265 278.054 162.899 268.939 164.929C260.666 166.806 252.011 167.802 243.968 175.002C238.529 179.866 237.84 183.045 239.717 201.467C242.535 223.772 240.948 246.414 235.044 268.108C232.057 279.828 224.473 291.471 225.469 293.615C226.465 295.76 235.351 291.317 244.198 283.887C272.118 260.448 309.613 230.383 317.886 192.811C323.784 165.274 309.843 127.932 277.212 94.8793C242.13 59.3757 215.933 60.4097 204.443 57.1926C195.328 54.5882 192.685 54.3967 192.953 50.1455C193.221 45.8942 196.783 45.4729 198.123 43.4814C199.77 40.8004 199.119 38.3109 200.536 36.8938C203.907 33.5618 205.247 35.6683 210.839 38.6939C226.396 48.3452 242.611 56.8942 259.364 64.278C264.42 66.5377 270.203 65.1206 269.284 59.5672C267.56 49.6476 256.3 45.1665 253.543 41.1451C250.785 37.1236 252.662 33.4852 255.458 33.4852C258.254 33.4852 260.781 33.4852 263.769 33.2937C266.756 33.1022 266.373 29.119 270.395 29.0042C273.535 29.0042 276.408 40.7238 277.786 48.9199C278.935 55.8138 285.446 59.3757 285.446 54.6265C285.446 47.8858 285.982 41.5664 288.893 40.877C293.527 39.7663 304.213 44.3622 303.026 47.5794C298.736 58.7629 289.621 60.3714 287.476 68.4909C286.097 73.4699 284.412 77.4147 291.306 86.3768C302.26 100.318 319.456 119.889 327.537 142.869C332.478 156.848 333.167 160.103 338.376 152.558C349.866 135.745 344.045 121.919 345.347 109.471C345.959 103.956 360.169 101.812 360.667 106.676C361.356 112.152 358.215 115.676 359.058 119.621C359.709 122.646 362.16 124.715 365.109 123.451C368.058 122.187 371.735 118.74 374.186 118.74C379.395 118.74 381.846 131.532 377.097 135.707C372.348 139.881 363.041 140.839 349.138 160.371C341.095 171.67 338.989 176.61 337.649 192.773C334.01 234.021 287.629 274.887 264.267 296.679C251.666 308.399 246.266 318.702 248.564 322.646C250.287 325.634 252.087 326.208 253.887 330.306C256.147 335.285 251.704 337.047 248.755 334.979C245.806 332.911 244.045 332.834 242.742 335.4C241.44 337.966 241.134 339.23 238.07 336.013C236.423 334.289 233.933 336.013 232.631 338.387C231.904 339.766 231.482 341.03 228.801 338.387C226.848 336.511 224.971 336.281 223.516 339.46C222.061 342.639 220.375 340.226 217.426 338.694C216.162 338.005 214.745 337.966 212.716 339.958C210.035 342.6 207.545 342.869 208.503 338.234C208.924 336.204 209.996 329.464 191.344 338.043C169.705 348.001 151.436 364.852 133.129 386.798C127.997 393.003 125.469 392.811 122.865 386.798C120.261 380.785 110.647 366.001 97.5872 360.333C96.1082 359.731 94.8759 358.647 94.0904 357.256C93.3048 355.866 93.012 354.251 93.2594 352.673C93.657 341.915 91.2132 331.241 86.174 321.727C80.7737 313.569 85.9442 308.705 93.8339 312.689C114.018 322.991 131.099 329.808 155.113 329.617C170.012 329.617 177.71 328.238 186.787 324.293C198.813 319.046 208.043 310.122 207.43 308.667C206.358 306.101 197.855 306.024 189.697 304.148C179.033 301.543 168.739 297.605 159.058 292.428C149.215 287.717 144.964 290.207 142.053 295.186C139.793 299.016 135.695 309.05 133.091 312.765C129.261 318.357 116.66 311.195 120.988 301.965C125.316 292.734 131.252 283.543 130.525 273.47C128.878 250.49 120.107 239 106.588 208.59C101.341 196.871 124.397 194.343 128.15 206.254C131.904 218.165 137.074 249.762 146.419 262.171C156.965 273.862 170.839 282.043 186.174 285.611C200.153 288.943 204.979 287.985 212.677 270.291C231.482 227.281 227.997 189.173 190.617 144.898C144.274 90.2068 98.0851 90.7429 50.4022 93.5771C44.4275 93.9218 39.8316 93.5771 39.7933 89.3259C39.755 85.0746 44.0445 81.666 45.0786 78.5637C46.1127 75.4614 45.5382 70.4825 46.7638 67.61C47.9893 64.7376 50.5937 64.4312 58.56 66.2696C70.6627 69.0271 86.7101 78.4488 110.379 79.9425C123.707 80.7851 130.678 81.2064 123.976 70.4059C117.656 60.2182 98.3532 57.4224 90.9231 48.4986C88.1272 45.1282 89.3528 42.026 91.2678 41.3749C93.1828 40.7238 96.5531 40.9153 98.0851 39.8812C102.298 36.9321 104.941 31.7617 108.694 33.1788C115.052 35.5917 115.128 42.9452 118.039 47.6943C121.563 53.4775 127.384 53.2477 127.04 49.8008C126.657 45.5112 127.806 40.8004 130.869 40.0344C137.189 38.4641 141.976 36.2045 144.351 46.2006C145.73 52.0987 143.24 65.7334 144.351 74.0827C144.96 77.9543 146.402 81.6477 148.577 84.9076C150.753 88.1676 153.61 90.9165 156.951 92.9643C175.795 105.833 203.562 130.804 217.924 153.209Z" fill="#EBEBEA"/>
</g>
<defs>
<clipPath id="clip0">
<rect y="0.0112305" width="400" height="502.64" fill="white"/>
</clipPath>
</defs>
</svg>
