<svg width="400" height="522" viewBox="0 0 400 522" fill="none" xmlns="http://www.w3.org/2000/svg">
<g clip-path="url(#clip0)">
<path d="M199.709 521.388C121.895 464.934 68.561 393.633 36.6483 303.444C7.70906 221.673 -3.90223 122.574 1.14434 0.492852L1.16528 0.0112305H398.839L398.86 0.492852C403.896 122.574 392.284 221.662 363.356 303.444C331.443 393.633 278.109 464.934 200.295 521.388L200.002 521.598L199.709 521.388Z" fill="#E00E00"/>
<path fill-rule="evenodd" clip-rule="evenodd" d="M294.002 105.811L286.233 98.0109C283.731 99.2568 280.59 98.3878 279.208 96.1262C277.763 93.76 278.36 90.9854 279.585 89.5929C281.449 87.457 285.343 86.6299 287.793 89.3626C288.851 90.5457 289.688 93.0899 288.956 95.0583L296.808 102.649" fill="white"/>
<path fill-rule="evenodd" clip-rule="evenodd" d="M307.069 91.3416L298.787 83.4053C296.274 84.6617 293.123 83.7822 291.73 81.5102C290.275 79.1335 290.882 76.3484 292.107 74.9559C293.981 72.8096 297.897 71.9824 300.357 74.7256C301.425 75.9192 302.263 78.4634 301.53 80.4527L309.875 88.2738" fill="white"/>
<path fill-rule="evenodd" clip-rule="evenodd" d="M319.57 77.5315L310.848 69.1973C308.325 70.4537 305.163 69.5743 303.771 67.3022C302.315 64.9151 302.923 62.13 304.148 60.7271C306.022 58.5807 309.958 57.7431 312.419 60.4967C313.487 61.6903 314.335 64.245 313.592 66.2343L322.324 74.4847" fill="white"/>
<path fill-rule="evenodd" clip-rule="evenodd" d="M332.008 63.8052L322.826 54.9999C320.292 56.2668 317.12 55.3873 315.728 53.0944C314.262 50.6967 314.879 47.9012 316.104 46.4878C317.989 44.3309 321.936 43.4933 324.407 46.2574C325.486 47.4615 326.323 50.0266 325.58 52.0264L334.814 60.7061" fill="white"/>
<path fill-rule="evenodd" clip-rule="evenodd" d="M354.592 68.7578L362.803 75.5998C361.997 78.2906 363.167 81.6045 365.638 82.5887C368.224 83.6148 370.852 82.5468 372.025 81.102C373.815 78.8928 373.618 74.9931 370.912 72.8969C369.74 71.989 367.506 71.7208 365.506 72.6595L357.126 65.554" fill="white"/>
<path fill-rule="evenodd" clip-rule="evenodd" d="M343.316 83.1645L351.106 90.2527C350.3 92.933 351.692 95.8751 354.163 96.8488C356.739 97.8749 359.367 96.8069 360.539 95.3726C362.319 93.1738 362.476 89.1848 359.367 87.2373C358.016 86.3892 355.378 86.0019 353.556 87.0593L345.892 79.9397" fill="white"/>
<path fill-rule="evenodd" clip-rule="evenodd" d="M331.569 98.2203L338.961 104.984C338.165 107.654 339.547 110.585 342.007 111.559C344.572 112.575 347.19 111.517 348.352 110.083C350.132 107.895 350.289 103.916 347.19 101.979C345.85 101.141 343.211 100.744 341.4 101.801L334.155 94.8909" fill="white"/>
<path fill-rule="evenodd" clip-rule="evenodd" d="M320.334 112.533L327.475 119.035C326.679 121.705 328.061 124.626 330.511 125.6C333.076 126.615 335.683 125.558 336.846 124.123C338.615 121.935 338.772 117.977 335.683 116.04C334.343 115.203 331.715 114.805 329.904 115.863L322.899 109.277" fill="white"/>
<path fill-rule="evenodd" clip-rule="evenodd" d="M344.395 50.1208L334.877 40.792C332.333 42.0589 329.161 41.1794 327.758 38.876C326.292 36.4784 326.899 33.6724 328.135 32.2589C330.019 30.0916 333.977 29.254 336.458 32.0286C337.537 33.2327 338.385 35.7978 337.641 37.8081L347.18 47.0427" fill="white"/>
<path d="M368.853 18.0405L363.827 24.0085C353.357 18.6687 343.724 30.4999 350.006 40.4464L251.316 154.141C249.19 156.591 246.646 158.046 244.196 156.612C229.423 147.953 204.933 142.111 190.108 156.14C180.999 164.726 172.225 176.023 169.189 186.074C166.152 196.44 160.917 191.833 157.253 194.45C154.74 196.23 156.52 197.906 158.3 198.534C169.922 202.826 163.43 216.333 157.148 223.976C139.454 245.44 124.377 242.927 123.016 233.19C122.597 230.049 118.828 229.734 116.524 233.818C115.791 235.179 117.048 239.472 112.336 242.717C93.909 255.491 92.5479 250.779 81.345 265.333C69.9326 280.095 63.5459 289.833 66.4775 311.401C68.4668 325.221 82.1826 344.696 97.1547 357.364C112.127 369.928 133.381 379.142 147.411 378.723C169.189 377.99 177.984 370.871 190.548 357.155C202.902 343.649 192.851 346.476 202.169 325.954C204.473 320.824 208.975 321.243 210.127 320.3C213.791 317.369 212.953 313.809 209.708 313.809C199.971 314.123 198.191 294.963 216.409 273.813C223.005 266.17 236.302 259.26 242.688 270.149C243.735 271.824 245.62 273.185 246.876 270.463C248.866 266.484 243.421 262.087 253.158 257.271C262.582 252.559 269.387 241.042 276.297 230.677C285.888 215.862 287.113 198.638 274.381 180.075C272.57 177.426 271.188 174.735 273.648 171.709L368.748 54.581C379.637 59.0831 389.688 47.5661 382.568 38.143L387.594 32.1751C382.778 28.3012 373.773 22.1238 368.853 18.0405Z" fill="white"/>
<path d="M175.575 233.41C177.251 237.284 172.434 234.98 171.597 238.645C170.969 241.367 174.633 244.613 177.774 240.425C179.659 237.912 180.496 234.038 177.251 231.106C168.56 223.149 156.939 236.76 147.516 246.707C131.915 263.564 126.68 264.715 123.644 264.401C119.246 264.087 119.142 255.92 121.864 256.653C123.016 256.758 124.796 256.863 125.947 254.664C127.518 252.151 122.911 246.393 117.885 251.942C115.058 255.083 115.373 260.527 119.142 264.401C123.225 268.484 130.764 266.705 137.36 261.47C143.537 256.758 146.992 253.093 151.285 248.591C160.289 239.064 163.744 235.923 166.257 233.724C170.34 230.059 174.319 230.897 175.261 233.2L175.575 233.41Z" fill="#E00E00"/>
<path d="M204.473 257.595C200.389 256.653 203.426 260.946 200.075 262.412C197.562 263.563 193.584 260.422 197.248 256.548C199.342 254.245 203.112 252.779 206.567 255.397C215.885 262.621 204.473 276.441 196.306 287.33C182.381 305.653 182.172 310.888 182.904 313.82C183.951 318.112 192.013 316.751 190.862 314.238C190.548 313.191 190.129 311.411 192.118 309.841C194.421 307.852 200.704 311.411 196.201 317.275C193.584 320.625 188.139 321.253 183.742 318.112C179.031 314.762 179.449 307.014 183.428 299.58C186.988 292.67 190.024 288.691 193.689 283.666C201.541 273.196 204.054 269.217 205.729 266.39C208.661 261.679 207.09 258.014 204.787 257.386L204.473 257.595Z" fill="#E00E00"/>
</g>
<defs>
<clipPath id="clip0">
<rect y="0.0112305" width="400" height="521.59" fill="white"/>
</clipPath>
</defs>
</svg>
