<svg width="400" height="523" viewBox="0 0 400 523" fill="none" xmlns="http://www.w3.org/2000/svg">
<g clip-path="url(#clip0)">
<path d="M199.709 522.372C121.895 465.918 68.561 394.617 36.6483 304.428C7.70906 222.657 -3.90223 123.558 1.14434 1.47674L1.16528 0.995117H398.839L398.86 1.47674C403.896 123.558 392.284 222.646 363.356 304.428C331.443 394.617 278.109 465.918 200.295 522.372L200.002 522.582L199.709 522.372Z" fill="#E00E00"/>
<path fill-rule="evenodd" clip-rule="evenodd" d="M199.761 284.042C204.975 297.339 223.874 310.636 223.874 327.315C223.874 341.554 210.744 353.281 199.761 353.281C188.778 353.281 175.649 341.554 175.649 327.315C175.649 310.647 194.547 297.339 199.761 284.042Z" fill="#FFE000"/>
<path fill-rule="evenodd" clip-rule="evenodd" d="M199.761 62.0774C204.975 75.3744 223.874 88.6713 223.874 105.35C223.874 119.589 210.744 131.316 199.761 131.316C188.778 131.316 175.649 119.589 175.649 105.35C175.649 88.6818 194.547 75.3744 199.761 62.0774Z" fill="#FFE000"/>
<path fill-rule="evenodd" clip-rule="evenodd" d="M112.86 126.992C118.074 140.289 136.972 153.586 136.972 170.264C136.972 184.504 123.843 196.23 112.86 196.23C101.877 196.23 88.7473 184.504 88.7473 170.264C88.7473 153.596 107.646 140.289 112.86 126.992Z" fill="#FFE000"/>
<path fill-rule="evenodd" clip-rule="evenodd" d="M112.86 229.598C118.074 242.895 136.972 256.192 136.972 272.871C136.972 287.11 123.843 298.837 112.86 298.837C101.877 298.837 88.7473 287.11 88.7473 272.871C88.7473 256.203 107.646 242.895 112.86 229.598Z" fill="#FFE000"/>
<path fill-rule="evenodd" clip-rule="evenodd" d="M286.663 126.992C291.877 140.289 310.775 153.586 310.775 170.264C310.775 184.504 297.646 196.23 286.663 196.23C275.679 196.23 262.55 184.504 262.55 170.264C262.55 153.596 281.448 140.289 286.663 126.992Z" fill="#FFE000"/>
<path fill-rule="evenodd" clip-rule="evenodd" d="M286.663 229.598C291.877 242.895 310.775 256.192 310.775 272.871C310.775 287.11 297.646 298.837 286.663 298.837C275.679 298.837 262.55 287.11 262.55 272.871C262.55 256.203 281.448 242.895 286.663 229.598Z" fill="#FFE000"/>
</g>
<defs>
<clipPath id="clip0">
<rect y="0.995117" width="400" height="521.59" fill="white"/>
</clipPath>
</defs>
</svg>
