<svg width="400" height="471" viewBox="0 0 400 471" fill="none" xmlns="http://www.w3.org/2000/svg">
<g clip-path="url(#clip0)">
<path d="M206.12 314.883C204.835 225.47 319.4 228.653 318.054 292.361C317.075 340.342 251.163 339.118 251.163 303.5C251.163 275.287 282.68 279.754 282.68 294.626C282.926 296.62 282.539 298.641 281.576 300.404C280.613 302.167 279.122 303.584 277.311 304.455C275.501 305.327 273.463 305.609 271.484 305.262C269.505 304.914 267.685 303.956 266.279 302.52C266.279 317.759 299.266 317.453 299.266 292.361C299.266 253.989 231.395 253.683 231.395 304.112C231.395 348.665 286.965 364.454 326.561 339.607C370.318 263.169 400 154.234 400 0.0112305H0C0 154.234 29.743 263.169 73.4394 339.607C112.913 364.454 168.36 348.848 168.36 304.112C168.36 253.683 100.428 253.989 100.428 292.361C100.428 317.453 133.415 317.759 133.415 302.52C131.997 303.883 130.195 304.778 128.252 305.084C126.309 305.391 124.32 305.093 122.551 304.232C120.783 303.371 119.321 301.989 118.364 300.271C117.406 298.553 116.999 296.582 117.197 294.626C117.197 279.754 148.654 275.287 148.654 303.5C148.654 339.118 82.7418 340.219 81.7626 292.361C80.4162 228.653 194.982 225.47 193.697 314.883C193.023 361.272 150.061 391.26 108.017 390.709C133.426 422.685 164.554 449.662 199.816 470.268C235.079 449.662 266.207 422.685 291.616 390.709C249.755 391.26 206.793 361.088 206.12 314.883ZM213.892 63.1691C306.671 96.6452 354.039 120.635 365.728 136.609C366.226 137.339 366.491 138.203 366.491 139.087C366.491 139.971 366.226 140.835 365.728 141.566L332.069 189.73C311.261 162.679 260.037 127.918 213.892 104.05V63.1691ZM213.892 112.129C257.589 135.385 304.835 167.514 324.908 192.667L283.598 219.105L213.892 191.566V112.129ZM213.892 199.583L269.829 221.737L213.892 237.588V199.583ZM186.169 237.588L130.171 221.737L186.169 199.583V237.588ZM186.169 191.566L116.402 219.105L75.0919 192.667C95.1653 167.514 142.411 135.385 186.169 112.129V191.566ZM186.169 103.683C139.963 127.918 88.8005 162.679 67.9315 189.73L34.2105 141.26C33.7051 140.532 33.4343 139.667 33.4343 138.781C33.4343 137.895 33.7051 137.03 34.2105 136.303C45.8996 120.635 93.2681 96.6452 186.108 63.1691L186.169 103.683ZM205.08 239.546C204.223 257.049 203.672 257.049 200.184 257.049C196.695 257.049 196.144 257.049 195.349 239.546V31.4678C195.349 23.0222 195.349 19.2279 200.184 19.2279C205.018 19.2279 205.08 22.8998 205.08 31.4678V239.546Z" fill="#0067B2"/>
<path d="M213.892 199.645V237.65L269.829 221.799L213.892 199.645Z" fill="#F6BE00"/>
<path d="M332.068 189.73L365.85 141.26C366.348 140.529 366.614 139.665 366.614 138.781C366.614 137.897 366.348 137.034 365.85 136.303C354.161 120.636 306.793 96.6456 214.014 63.1694V104.051C260.159 127.919 311.261 162.68 332.068 189.73Z" fill="#F6BE00"/>
<path d="M324.908 192.729C304.835 167.576 257.589 135.446 213.892 112.19V191.75L283.598 219.29L324.908 192.729Z" fill="#F6BE00"/>
<path d="M186.108 237.65V199.645L130.171 221.799L186.108 237.65Z" fill="#F6BE00"/>
<path d="M75.0919 192.729L116.402 219.167L186.169 191.627V112.068C142.411 135.446 94.9205 167.576 75.0919 192.729Z" fill="#F6BE00"/>
<path d="M200 19.5947C195.165 19.5947 195.165 23.2667 195.165 31.8346V239.913C195.961 257.416 196.512 257.416 200 257.416C203.488 257.416 204.039 257.416 204.896 239.913V31.8346C205.08 23.2667 205.08 19.5947 200 19.5947Z" fill="#F6BE00"/>
<path d="M34.2716 136.303C33.7662 137.031 33.4954 137.895 33.4954 138.781C33.4954 139.667 33.7662 140.532 34.2716 141.26L67.9313 189.73C88.7391 162.68 139.963 127.919 186.169 104.051V63.1694C93.3291 96.6456 45.9607 120.636 34.2716 136.303Z" fill="#F6BE00"/>
<path d="M193.88 314.883C195.165 225.47 80.5996 228.653 81.946 292.361C82.9252 340.342 148.837 339.118 148.837 303.5C148.837 275.287 117.381 279.754 117.381 294.626C117.183 296.583 117.59 298.553 118.547 300.271C119.505 301.989 120.966 303.372 122.735 304.232C124.503 305.093 126.493 305.391 128.436 305.085C130.378 304.778 132.18 303.883 133.598 302.521C133.598 317.759 100.612 317.453 100.612 292.361C100.612 253.989 168.543 253.683 168.543 304.112C168.543 348.665 112.913 364.454 73.3169 339.607C83.4733 357.543 95.0571 374.632 107.956 390.709C150 391.26 193.207 361.088 193.88 314.883Z" fill="#F6BE00"/>
<path d="M231.518 304.112C231.518 253.683 299.388 253.989 299.388 292.361C299.388 317.453 266.401 317.759 266.401 302.521C267.816 303.907 269.624 304.823 271.578 305.142C273.533 305.461 275.539 305.169 277.321 304.305C279.103 303.441 280.574 302.047 281.534 300.314C282.493 298.582 282.894 296.595 282.681 294.626C282.681 279.754 251.163 275.287 251.163 303.5C251.163 339.118 317.075 340.219 318.054 292.361C319.4 228.653 204.835 225.47 206.12 314.883C206.793 361.272 249.755 391.26 291.799 390.709C304.698 374.632 316.282 357.543 326.438 339.607C287.087 364.454 231.518 348.849 231.518 304.112Z" fill="#F6BE00"/>
</g>
<defs>
<clipPath id="clip0">
<rect y="0.0112305" width="400" height="470.26" fill="white"/>
</clipPath>
</defs>
</svg>
