<svg width="400" height="493" viewBox="0 0 400 493" fill="none" xmlns="http://www.w3.org/2000/svg">
<g clip-path="url(#clip0)">
<path d="M398.718 0.0112305H1.34982C1.34982 0.0112305 -29.1697 285.053 200.032 492.179C428.585 285.053 398.718 0.0112305 398.718 0.0112305Z" fill="#00ADE9"/>
<path d="M192.497 45.4614C192.497 45.4614 204.184 62.3434 195.743 47.4096C195.743 47.4096 194.444 44.1626 201.586 46.1105C201.586 46.1105 253.53 68.8359 275.606 94.8078L285.345 90.9122L302.877 112.988L297.034 114.936C297.034 114.936 307.421 129.87 308.07 131.818C308.07 131.818 328.2 160.387 358.068 159.088C356.769 160.387 355.469 161.686 353.521 161.686C353.521 161.686 348.329 162.335 352.225 164.932C352.225 164.932 337.938 162.335 343.132 168.828C343.132 168.828 327.55 163.633 334.692 173.373C334.692 173.373 330.148 170.776 332.746 178.567C332.746 178.567 329.499 175.97 332.746 188.956C332.746 188.956 330.148 181.813 328.849 196.098C328.849 196.098 321.057 156.491 292.488 150.647L293.788 157.79L278.202 151.297L276.256 144.804L260.673 138.311C260.673 138.311 252.882 133.766 263.92 149.998H259.373L254.18 135.714C230.156 123.377 211.326 101.951 201.586 76.628C201.586 76.628 216.521 82.4712 218.469 68.8359C218.469 68.8359 217.818 64.2908 216.519 68.8359C216.519 68.8359 213.922 83.1205 200.287 72.0824C200.287 72.0824 191.197 53.9019 191.197 46.7597C191.846 46.7597 191.198 44.8121 192.497 45.4614Z" fill="white"/>
<path d="M207.431 61.0457C205.483 61.695 202.887 61.0455 202.238 58.4484C200.939 56.5005 200.94 53.9031 202.888 52.6045C204.835 51.9552 207.431 52.6047 208.081 55.2019C209.379 56.5005 209.379 59.0978 207.431 61.0457Z" fill="#00ADE9"/>
<path d="M214.572 78.5759L220.415 95.4575H228.858L217.169 77.9268" stroke="#00ADE9"/>
<path d="M19.7833 17.5429C19.7833 17.5429 31.4706 34.4249 23.0297 19.4911C23.0297 19.4911 21.7305 16.2449 28.8728 18.1928C28.8728 18.1928 80.8159 40.9182 102.892 66.8901L112.631 62.9937L130.164 85.0699L124.321 87.0181C124.321 87.0181 134.708 101.952 135.357 103.9C135.357 103.9 155.486 132.468 185.354 131.17C184.055 132.468 182.756 133.767 180.808 133.767C180.808 133.767 175.615 134.417 179.511 137.014C179.511 137.014 165.227 134.416 170.421 140.909C170.421 140.909 154.836 135.715 161.979 145.455C161.979 145.455 157.435 142.857 160.032 150.649C160.032 150.649 156.786 148.052 160.032 161.038C160.032 161.038 157.434 153.896 156.136 168.18C156.136 168.18 148.343 128.573 119.774 122.729L121.074 129.872L105.492 123.379L103.542 116.886L87.3095 110.393C87.3095 110.393 79.518 105.848 90.556 122.08H86.6596L81.4665 107.795C57.4425 95.4587 38.6122 74.032 28.8728 48.7095C28.8728 48.7095 43.8073 54.5534 45.7551 40.9182C45.7551 40.9182 45.1071 36.3731 43.8085 40.9182C43.8085 40.9182 41.2113 55.2027 27.5761 44.1647C27.5761 44.1647 18.4834 25.9842 18.4834 18.842C19.1327 18.842 18.4847 16.8936 19.7833 17.5429Z" fill="white"/>
<path d="M34.717 32.4771C32.7691 33.1264 30.1732 32.4769 29.5239 29.8798C28.2253 27.9319 28.226 25.3345 30.1738 24.0359C32.1217 23.3866 34.7177 24.0361 35.367 26.6333C36.6655 28.5812 36.6649 31.1785 34.717 32.4771Z" fill="#00ADE9"/>
<path d="M42.5087 50.6568L48.3517 67.5383H56.7945L45.1052 50.0068" stroke="#00ADE9"/>
<path d="M174.315 161.687C174.315 161.687 186.002 178.568 177.561 163.634C177.561 163.634 176.265 160.388 183.407 162.336C183.407 162.336 235.351 185.062 257.427 211.033L267.166 207.138L284.695 229.214L278.852 231.161C278.852 231.161 289.242 246.095 289.891 248.043C289.891 248.043 310.018 276.613 339.885 275.314C338.587 276.613 337.29 277.911 335.342 277.911C335.342 277.911 330.147 278.561 334.042 281.158C334.042 281.158 319.758 278.56 324.953 285.053C324.953 285.053 309.371 279.859 316.513 289.598C316.513 289.598 311.966 287.001 314.563 294.793C314.563 294.793 311.317 292.196 314.563 305.181C314.563 305.181 311.966 298.039 310.667 312.324C310.667 312.324 302.878 272.716 274.309 266.873L275.606 274.015L260.023 267.522L258.077 261.029L242.491 254.536C242.491 254.536 234.699 249.991 245.737 266.224H241.194L235.998 251.289C211.974 238.953 193.147 217.526 183.407 192.204C183.407 192.204 198.339 198.048 200.287 184.412C200.287 184.412 199.639 179.867 198.34 184.412C198.34 184.412 195.743 198.697 182.108 187.659C182.108 187.659 173.018 169.478 173.018 162.336C173.667 162.985 173.016 161.038 174.315 161.687Z" fill="white"/>
<path d="M189.252 177.269C187.304 177.918 184.705 177.269 184.055 174.672C182.757 172.724 182.757 170.127 184.705 168.828C186.653 168.179 189.252 168.828 189.902 171.425C191.2 173.373 190.55 175.97 189.252 177.269Z" fill="#00ADE9"/>
<path d="M196.393 194.8L202.236 211.681L210.676 211.032L198.99 194.15" stroke="#00ADE9"/>
<path d="M61.9876 191.553C61.9876 191.553 73.675 208.435 65.2341 193.501C65.2341 193.501 63.9349 190.254 71.0771 192.202C71.0771 192.202 123.02 214.927 145.096 240.899L154.836 237.004L172.368 259.08L166.525 261.027C166.525 261.027 176.912 275.962 177.561 277.91C177.561 277.91 197.691 306.478 227.558 305.18C226.26 306.478 224.96 307.777 223.012 307.777C223.012 307.777 217.82 308.426 221.715 311.024C221.715 311.024 207.431 308.426 212.626 314.919C212.626 314.919 197.041 309.725 204.183 319.464C204.183 319.464 199.639 316.867 202.236 324.659C202.236 324.659 198.99 322.061 202.236 335.047C202.236 335.047 199.639 327.905 198.34 342.189C198.34 342.189 190.548 302.582 161.979 296.739L163.279 303.882L147.696 297.389L145.746 290.896L130.164 284.403C130.164 284.403 122.372 279.857 133.41 296.09H128.864L123.671 281.805C99.6468 269.469 80.8166 248.042 71.0771 222.719C71.0771 222.719 86.0116 228.563 87.9595 214.927C87.9595 214.927 87.3115 210.382 86.0129 214.927C86.0129 214.927 83.4157 229.212 69.7804 218.174C69.7804 218.174 60.6877 199.993 60.6877 192.851C61.337 192.851 60.689 190.254 61.9876 191.553Z" fill="white"/>
<path d="M76.9214 206.488C74.9735 207.137 72.3776 206.487 71.7283 203.89C70.4297 201.942 70.4303 199.345 72.3782 198.046C74.3261 197.397 76.922 198.047 77.5713 200.644C78.8699 202.592 78.8693 205.189 76.9214 206.488Z" fill="#00ADE9"/>
<path d="M84.063 224.668L89.9061 241.55L98.3489 240.9L86.6596 224.019" stroke="#00ADE9"/>
</g>
<defs>
<clipPath id="clip0">
<rect y="0.0112305" width="400" height="492.17" fill="white"/>
</clipPath>
</defs>
</svg>
