<svg width="400" height="513" viewBox="0 0 400 513" fill="none" xmlns="http://www.w3.org/2000/svg">
<g clip-path="url(#clip0)">
<path d="M199.635 506.888C199.365 506.708 198.972 506.442 198.46 506.09C197.411 505.367 195.867 504.28 193.889 502.824L191.222 506.448L193.889 502.824C189.934 499.913 184.244 495.528 177.308 489.634C163.437 477.845 144.583 460.018 124.654 435.867C84.8039 387.578 40.6537 314.009 23.4347 212.874L23.4222 212.801L23.4071 212.727L23.367 212.531C23.3669 212.531 23.3668 212.53 23.3667 212.53C23.3309 212.354 23.2779 212.092 23.2089 211.746L18.7958 212.626L23.2089 211.746C23.0703 211.051 22.8671 210.017 22.6084 208.659C22.0911 205.943 21.352 201.931 20.4651 196.75C18.6913 186.388 16.3261 171.348 13.9609 152.639C9.23308 115.241 4.50532 63.1824 4.5 4.51123H395.5C395.495 63.1824 390.767 115.241 386.039 152.639C383.674 171.348 381.309 186.388 379.535 196.75C378.648 201.931 377.909 205.943 377.392 208.659C377.133 210.017 376.93 211.051 376.791 211.746C376.735 212.026 376.69 212.251 376.656 212.42L376.634 212.527L376.633 212.531L376.593 212.727L376.578 212.801L376.565 212.875C359.346 314.009 315.201 387.578 275.357 435.867C255.429 460.018 236.578 477.845 222.709 489.634C215.774 495.528 210.086 499.913 206.131 502.824L208.798 506.448L206.131 502.824C204.153 504.28 202.609 505.367 201.56 506.09C201.048 506.442 200.654 506.708 200.384 506.888C200.378 506.893 200.371 506.897 200.364 506.902L200.01 507.132L199.656 506.902C199.649 506.897 199.642 506.892 199.635 506.888Z" fill="white" stroke="black" stroke-width="9" stroke-miterlimit="10"/>
<path d="M84.4927 178.708L109.329 227.361H288.971L315.507 178.708H84.4927Z" fill="white"/>
<path d="M316.64 185.394C316.913 184.943 317.293 184.565 317.745 184.294C318.198 184.023 318.709 183.866 319.236 183.838H326.808C327.776 183.838 327.982 183.292 327.261 182.643L213.062 78.6015C212.28 77.8044 211.815 76.7498 211.754 75.6347V62.9951C211.756 62.527 211.944 62.079 212.276 61.749C212.608 61.4189 213.057 61.2336 213.525 61.2336H214.792C215.007 61.246 215.222 61.2063 215.418 61.1182C215.614 61.03 215.786 60.8959 215.92 60.7271C216.053 60.5583 216.144 60.3599 216.184 60.1486C216.225 59.9374 216.214 59.7195 216.152 59.5133C216.152 59.5133 213.906 50.1702 199.732 50.1702C185.558 50.1702 183.765 59.4412 183.765 59.4412C183.716 59.6544 183.716 59.876 183.767 60.0889C183.817 60.3018 183.916 60.5001 184.055 60.6686C184.195 60.8371 184.372 60.971 184.571 61.0601C184.771 61.1492 184.989 61.1909 185.207 61.1821H186.474C186.711 61.1821 186.944 61.2292 187.162 61.3208C187.38 61.4124 187.577 61.5467 187.742 61.7156C187.907 61.8845 188.037 62.0847 188.123 62.3044C188.21 62.5242 188.252 62.759 188.246 62.9951V75.6656C188.185 76.7807 187.72 77.8353 186.938 78.6324L72.739 182.674C72.0179 183.323 72.2239 183.869 73.1922 183.869H80.7636C81.2903 183.897 81.8022 184.054 82.2547 184.325C82.7071 184.596 83.0864 184.974 83.3595 185.425L103.117 222.756C103.616 223.803 103.907 224.936 103.972 226.094L105.631 327.55C105.596 328.683 105.182 329.771 104.456 330.641L97.1528 338.49C96.4293 339.357 96.0353 340.452 96.0403 341.581L96.3287 347.143C96.3597 347.619 96.5689 348.065 96.9144 348.394C97.26 348.722 97.7166 348.908 98.1932 348.915H301.807C302.283 348.908 302.74 348.722 303.085 348.394C303.431 348.065 303.64 347.619 303.671 347.143L303.96 341.581C303.964 340.452 303.57 339.357 302.847 338.49L295.543 330.641C294.818 329.771 294.404 328.683 294.369 327.55L296.028 226.094C296.093 224.936 296.384 223.803 296.883 222.756L316.64 185.394ZM113.593 224.291C113.066 224.261 112.553 224.104 112.099 223.833C111.646 223.563 111.264 223.186 110.987 222.736L90.9103 185.394C90.4467 184.539 90.9103 183.838 91.8477 183.838H147.814C148.323 183.861 148.815 184.03 149.23 184.326C149.645 184.623 149.966 185.033 150.152 185.507L162.586 222.591C162.672 222.782 162.706 222.992 162.685 223.201C162.664 223.409 162.589 223.608 162.467 223.778C162.345 223.948 162.18 224.083 161.99 224.169C161.799 224.256 161.589 224.291 161.381 224.271L113.593 224.291ZM173.907 224.291C173.396 224.268 172.904 224.097 172.488 223.799C172.073 223.501 171.754 223.088 171.569 222.612L159.084 185.528C159 185.337 158.968 185.128 158.99 184.922C159.012 184.715 159.088 184.518 159.21 184.349C159.331 184.181 159.495 184.047 159.684 183.961C159.873 183.875 160.082 183.84 160.289 183.859H242.966C243.173 183.839 243.382 183.873 243.572 183.959C243.761 184.045 243.925 184.179 244.046 184.348C244.167 184.517 244.241 184.715 244.262 184.923C244.282 185.13 244.247 185.338 244.161 185.528L231.676 222.612C231.492 223.089 231.173 223.502 230.757 223.8C230.342 224.099 229.849 224.269 229.338 224.291H173.907ZM289.095 222.736C288.819 223.187 288.437 223.564 287.984 223.835C287.53 224.106 287.017 224.262 286.489 224.291H241.864C241.656 224.311 241.446 224.277 241.255 224.19C241.065 224.104 240.9 223.969 240.778 223.799C240.656 223.629 240.581 223.43 240.56 223.221C240.539 223.013 240.573 222.803 240.659 222.612L253.103 185.528C253.289 185.055 253.607 184.646 254.02 184.35C254.433 184.054 254.923 183.883 255.431 183.859H308.173C308.366 183.825 308.566 183.85 308.744 183.932C308.923 184.014 309.073 184.148 309.173 184.317C309.274 184.486 309.321 184.681 309.308 184.877C309.294 185.073 309.222 185.261 309.1 185.414L289.095 222.736Z" fill="#2B568E"/>
</g>
<defs>
<clipPath id="clip0">
<rect y="0.0112305" width="400" height="512.49" fill="white"/>
</clipPath>
</defs>
</svg>
