<svg width="400" height="499" viewBox="0 0 400 499" fill="none" xmlns="http://www.w3.org/2000/svg">
<g clip-path="url(#clip0)">
<path fill-rule="evenodd" clip-rule="evenodd" d="M399.621 0.0625C401.711 102.567 396.239 187.633 355.672 296.78C327.61 372.293 281.43 441.613 200.035 498.457C118.64 441.613 72.4598 372.293 44.3977 296.78C3.83022 187.633 -1.64214 102.567 0.448763 0.0625C133.506 0.352625 266.563 0.0625 399.621 0.0625Z" fill="#008175"/>
<path d="M103.642 325.456C92.0262 332.699 76.7482 338.783 63.1412 340.418C60.7349 335.448 56.7781 327.784 54.9445 322.752C66.9082 321.193 93.2291 313.019 104.604 300.855C128.503 320.035 169.258 320.109 200.035 298.733C230.812 320.109 271.566 320.035 295.466 300.855C306.84 313.019 333.161 321.193 345.125 322.752C343.291 327.784 339.335 335.448 336.928 340.418C323.321 338.783 308.043 332.699 296.427 325.456C262.135 341.973 230.328 340.782 200.035 325.387C169.742 340.782 137.934 341.973 103.642 325.456Z" fill="white"/>
<path d="M98.1306 353.059C91.0732 357.222 81.9135 361.663 74.4927 361.893C76.9997 366.454 79.825 370.955 82.3927 375.211C87.9545 374.908 95.3587 371.026 98.5266 368.701C129.489 378.303 161.638 380.842 200.035 369.351C238.431 380.842 270.58 378.303 301.543 368.701C304.711 371.026 312.115 374.908 317.677 375.211C320.244 370.955 323.07 366.454 325.577 361.893C318.156 361.663 308.996 357.222 301.939 353.059C262.437 365.898 229.452 362.996 200.035 351.474C170.617 362.996 137.632 365.898 98.1306 353.059Z" fill="white"/>
<path d="M189.256 241.706L188.2 207.915C187.916 198.802 157.799 168.336 149.133 173.063C138.957 178.614 141.437 219.852 100.914 211.276C114.312 197.704 101.56 182.935 140.158 168.64C135.448 164.738 119.448 152.015 115.675 155.497C99.5043 170.423 98.8191 199.445 62.903 191.816C74.4128 185.73 75.7699 155.09 106.898 150.24C98.6808 148.17 86.7423 140.208 82.2478 144.028C65.9187 157.904 63.8551 184.761 29.9972 180.493C53.369 156.422 45.5821 148.905 69.4139 140.334C62.5782 139.105 52.3835 134.008 48.7728 136.661C36.4381 145.723 39.384 165.817 9.72241 168.071C14.5176 197.784 21.7372 226.771 29.9575 254.023C41.1827 266.714 81.7373 282.945 107.602 283.988C135.223 285.102 161.229 250.105 189.256 241.706Z" fill="white"/>
<path d="M7.28549 150.054C12.6814 145.036 24.0528 137.616 32.7337 134.019C25.2409 133.289 11.2078 133.329 5.31689 134.058C5.91416 139.016 6.59883 145.055 7.28549 150.054V150.054Z" fill="white"/>
<path d="M370.127 129.231C374.344 135.695 386.214 143.913 393.263 146.957C394.242 139.781 395.156 132.737 395.946 125.54C387.757 123.949 374.277 126.624 370.127 129.231Z" fill="white"/>
<path d="M337.581 136.092C338.12 136.114 355.69 130.888 357.123 134.085C362.334 145.715 363.368 155.717 390.732 165.062C386.452 196.342 378.903 226.249 368.469 259.579C350.263 275.83 335.682 284.252 301.406 285.842C249.182 288.264 250.751 246.889 218.556 240.983L218.662 207.48C218.751 179.296 242.311 174.471 244.908 174.921C256.692 176.966 268.751 223.818 300.588 209.684C279.046 195.915 294.704 165.569 249.931 168.11C260.515 160.357 269.795 155.751 279.481 155.372C295.027 154.763 293.377 195.177 331.721 184.563C312.92 172.437 329.309 155.053 296.542 146.702C304.868 144.521 320.312 137.584 321.661 140.161C329.551 155.235 334.918 176.468 364.931 172.979C351.911 155.414 362.384 152.46 337.579 136.092H337.58H337.581Z" fill="white"/>
<path d="M232.158 166.694C232.954 165.19 245.249 157.052 245.249 157.052C244.373 140.455 249.44 118.418 265.771 96.1053C275.036 107.979 280.959 127.816 254.625 152.806L279.925 139.626C274.723 114.906 291.187 109.886 293.812 96.1938L266.037 91.2405C246.298 110.962 236.783 131.645 232.158 166.694Z" fill="white"/>
<path d="M293.576 134.407L315.502 128.59C303.968 107.787 329.53 90.1131 331.262 76.9246C338.606 93.4946 344.834 108.524 324.067 126.745L338.954 123.868C347.106 122.292 338.48 111.163 343.983 96.0929C346.568 89.016 355.959 83.7878 358.733 74.486C367.584 92.4853 361.695 110.375 348.338 122.727C374.924 123.158 354.849 91.2509 382.582 75.0815C384.573 92.6211 382.103 106.744 372.024 117.959L396.735 114.446C399.507 86.297 399.306 60.7717 399.951 33.1534C377.808 35.7141 361.234 21.9409 345.367 22.2644C338.354 22.4083 327.622 29.2537 320.004 34.2885C367.425 24.4355 353.104 48.1158 370.811 55.2706C349.225 61.3598 329.139 46.1351 319.906 42.0741C310.671 38.0131 295.243 53.7784 296.14 55.6693C301.02 53.6398 305.121 52.6246 308.695 52.3469C324.02 51.1572 329.652 63.5384 345.392 67.7987C324.413 88.5043 304.774 62.0463 287.69 64.6145C282.617 65.3774 278.157 69.1018 274.3 76.8212C291.199 74.5247 307.679 74.2541 322.928 79.9179C319.148 86.1781 309.921 93.5474 299.88 95.2363C303.66 99.6581 315.271 112.289 293.576 134.407Z" fill="white"/>
<path d="M367.179 12.624C367.653 9.9686 392.179 3.6549 399.775 5.10286C399.773 10.0605 399.669 15.4027 399.633 20.4702C389.531 14.1425 372.572 12.5284 367.179 12.624H367.179Z" fill="white"/>
<path d="M372.718 0.22957C367.455 2.1508 362.107 4.16772 353.893 8.50455C353.801 5.92486 353.781 3.42148 352.937 0.22583L372.718 0.229532V0.22957Z" fill="white"/>
<path d="M322.393 24.9619C323.144 24.9015 338.406 15.7155 338.406 15.7155C336.623 10.8331 337.187 5.37007 338.727 0.168835L329.173 0.167236C332.61 15.3235 327.407 20.0998 322.393 24.9619V24.9619Z" fill="white"/>
<path d="M300.512 0.171631L313.062 0.175031C315.542 5.92979 302.696 26.303 308.751 33.68L292.364 45.6657C298.963 35.0949 304.505 16.2855 300.512 0.171658V0.171631Z" fill="white"/>
<path d="M251.075 91.7012L259.894 80.4451C249.793 46.7241 262.786 47.8818 264.522 19.8356C287.855 49.3055 270.52 58.5252 265.774 73.1475C272.853 66.7764 278.908 59.1382 284.663 51.1298C275.199 27.9295 290.711 13.6942 291.35 0.17042L257.65 0.166016C256.997 31.2714 252.311 60.389 251.075 91.7012V91.7012Z" fill="white"/>
<path d="M240.819 0.169922H245.197C244.594 33.7738 241.349 66.3292 236.75 97.9556L223.74 47.1952C244.066 32.9551 241.006 16.3132 240.819 0.169922Z" fill="white"/>
<path d="M235.004 0.172119C229.018 6.86852 223.407 16.9248 220.752 24.8996L219.376 0.181591L235.004 0.172188V0.172119Z" fill="white"/>
<path d="M178.65 171.623C167.692 172.061 156.174 161.491 147.626 155.986C158.522 138.93 153.079 122.338 141.622 104.071C121.901 131.584 138.388 139.651 138.744 151.107L121.23 141.35C130.729 125.536 128.264 103.161 118.5 88.4935C121.821 86.8448 125.331 84.4412 127.425 83.1104C163.755 110.755 160.177 142.934 178.65 171.623Z" fill="white"/>
<path d="M95.0848 92.9282C100.016 93.6593 108.029 91.8339 112.724 90.2073C105.801 101.59 103.603 113.798 112.974 140.224L97.3367 134.095C102.762 122.449 101.767 105.153 95.0848 92.9282Z" fill="white"/>
<path d="M62.7156 72.0473C89.4765 70.0031 90.5342 64.1673 101.09 60.7873C105.515 59.3703 117.589 64.4285 117.477 72.0464C103.521 74.4692 90.4057 82.2877 76.9456 82.6797C79.4225 85.9004 81.7332 89.1151 84.1135 90.2413C77.5416 104.761 82.5327 116.617 86.2033 130.717C83.7913 129.72 71.6413 128.32 68.2352 127.531C69.7565 102.289 78.0062 95.5115 62.7156 72.0473Z" fill="white"/>
<path d="M62.1114 125.963L37.0451 122.586C39.8958 112.476 50.0864 97.7083 30.794 63.5394C14.9275 86.0941 19.5913 103.487 28.1325 121.46L4.04129 122.431C1.26131 96.3926 0.88869 69.5884 0 43.3767C26.0632 38.0325 34.704 25.8125 47.7525 21.8823C56.4179 24.467 62.4515 30.1547 69.2909 34.8924C38.5465 32.1993 21.0572 47.4849 15.816 56.6591C50.7612 69.2168 56.2017 45.1759 76.2225 41.6478C83.0454 40.4449 88.0912 45.6961 90.5813 50.1542C57.4391 50.9915 67.046 57.5633 41.8107 65.4159C46.2491 70.6214 53.2348 69.6481 59.1406 71.2959C38.7984 93.5643 64.1843 112.293 62.1114 125.963Z" fill="white"/>
<path d="M202.474 190.486C213.526 179.743 221.301 158.297 223.991 140.624C226.273 125.627 197.961 127.421 206.728 88.517C213.478 91.7963 221.686 100.474 226.868 118.684C233.277 114.875 209.128 59.6308 207.728 0.0112305H196.719C194.507 25.6851 194.463 51.8396 189.589 76.9245C194.571 64.9766 198.741 59.0765 213.233 56.7296C203.142 71.1069 221.846 80.2937 186.963 95.747C185.512 100.527 175.478 116.084 177.205 128.158C179.909 147.068 188.82 172.689 202.474 190.486Z" fill="white"/>
<path d="M169.393 104.781C174.591 101.763 177.773 72.351 181.653 56.478C164.45 41.1945 155.167 23.9092 169.143 0.744292C177.512 9.72437 179 17.5898 182.903 43.5975C184.189 29.2707 185.685 15.0951 182.432 0.126221L154.881 0.127923C159.582 35.3096 163.498 72.5564 169.393 104.781V104.781Z" fill="white"/>
<path d="M155.743 96.08L142.996 0.194336L115.001 0.196038C122.823 31.2233 118.143 43.0315 110.083 49.1879L124.094 60.8181C123.803 52.08 121.03 33.1135 136.479 18.2567C150.299 63.058 135.784 60.6543 134.337 67.2974C132.158 77.2968 148.146 87.8679 155.743 96.08V96.08Z" fill="white"/>
<path d="M85.5775 28.6352C91.3632 23.2751 91.4154 8.07324 89.9563 0.145752H107.97C101.309 10.8395 96.1541 26.9837 100.339 39.5356L85.5775 28.6352Z" fill="white"/>
<path d="M72.9905 0.173749C72.0318 7.68815 70.5535 15.4986 74.4305 22.3974L61.4199 14.272C62.9888 9.61191 62.2039 4.83075 60.7948 0.170654L72.9905 0.173757V0.173749Z" fill="white"/>
<path d="M44.9455 0.15112C44.6026 1.49969 45.2462 5.88022 45.5685 7.22877C38.9509 3.35443 32.4808 1.23843 29.5272 0.149658L44.9455 0.151158V0.15112Z" fill="white"/>
<path d="M0.44876 0.0625C0.434784 8.46745 0.385482 16.555 0.506895 24.9443C8.2997 20.6132 26.6344 17.5063 37.1752 17.7358C28.8586 10.6907 15.4506 1.53518 0.44876 0.0625Z" fill="white"/>
<path d="M287.371 417.898C292.457 411.438 297.794 404.736 302.43 398.038C261.326 406.552 232.024 403.971 200.035 391.17C168.046 403.971 138.743 406.552 97.6388 398.038C102.275 404.736 107.613 411.438 112.698 417.898C138.912 421.169 176.393 420.809 200.035 409.971C223.676 420.809 261.157 421.169 287.371 417.898Z" fill="white"/>
<path d="M266.567 1.62697C310.429 1.59509 354.29 1.56321 398.15 1.56251C400.157 103.309 394.549 187.876 354.266 296.258C326.395 371.255 280.615 440.091 200.035 496.626C119.454 440.091 73.6745 371.255 45.8037 296.258L44.3977 296.78L45.8037 296.258C5.52098 187.877 -0.0871231 103.311 1.91891 1.56569C90.1347 1.7552 178.352 1.69109 266.567 1.62697Z" stroke="#008175" stroke-width="3"/>
</g>
<defs>
<clipPath id="clip0">
<rect y="0.0112305" width="400" height="498.45" fill="white"/>
</clipPath>
</defs>
</svg>
