<svg width="400" height="522" viewBox="0 0 400 522" fill="none" xmlns="http://www.w3.org/2000/svg">
<g clip-path="url(#clip0)">
<path d="M199.709 521.388C121.895 464.934 68.561 393.633 36.6483 303.444C7.70906 221.673 -3.90223 122.574 1.14434 0.492852L1.16528 0.0112305H398.839L398.86 0.492852C403.896 122.574 392.284 221.662 363.356 303.444C331.443 393.633 278.109 464.934 200.295 521.388L200.002 521.598L199.709 521.388Z" fill="#FFE000" fill-opacity="0.988235"/>
<path fill-rule="evenodd" clip-rule="evenodd" d="M230.711 313.137C230.711 337.265 228.97 361.95 225.404 371.581C218.874 389.216 205.738 415.537 199.761 422.31C193.785 415.537 180.649 389.216 174.119 371.581C170.553 361.95 168.812 337.265 168.812 313.137V260.025V206.912C168.812 182.784 170.553 158.099 174.119 148.468C180.649 130.833 193.785 104.512 199.761 97.7388C205.738 104.512 218.874 130.833 225.404 148.468C228.97 158.099 230.711 182.784 230.711 206.912V260.025V313.137Z" fill="black" fill-opacity="0.988235" stroke="black"/>
<path fill-rule="evenodd" clip-rule="evenodd" d="M340.645 252.055C340.645 275.205 338.903 298.889 335.338 308.129C328.808 325.05 315.673 350.303 309.697 356.802C303.721 350.303 290.585 325.05 284.056 308.129C280.49 298.889 278.749 275.205 278.749 252.055V201.096V150.138C278.749 126.988 280.49 103.304 284.056 94.0635C290.585 77.1432 303.721 51.8894 309.697 45.3911C315.673 51.8894 328.808 77.1432 335.338 94.0635C338.903 103.304 340.645 126.988 340.645 150.138V201.096V252.055Z" fill="black" fill-opacity="0.988235" stroke="black"/>
<path fill-rule="evenodd" clip-rule="evenodd" d="M190.721 221.768C190.748 215.424 191.009 211.585 193.014 208.736C195.332 205.444 196.485 203.559 195.272 202.76C192.915 201.206 191.54 199.161 191.506 197.289C191.406 191.949 197.661 189.824 197.661 189.824V182.24C197.661 178.87 180.604 186.264 180.604 208.633V260.024V311.416C180.604 333.785 197.661 341.179 197.661 337.809V330.225C197.661 330.225 191.406 328.1 191.506 322.76C191.54 320.888 192.915 318.843 195.272 317.289C196.485 316.49 195.332 314.605 193.014 311.312C191.009 308.464 190.748 304.625 190.721 298.281L190.56 260.024L190.721 221.768Z" fill="#FFE000" fill-opacity="0.988235" stroke="black"/>
<path fill-rule="evenodd" clip-rule="evenodd" d="M120.774 252.052C120.774 275.202 119.032 298.886 115.467 308.127C108.937 325.047 95.8018 350.301 89.8257 356.799C83.8496 350.301 70.7143 325.047 64.1848 308.127C60.619 298.886 58.8778 275.202 58.8778 252.052V201.094V150.135C58.8778 126.985 60.619 103.301 64.1848 94.0608C70.7143 77.1405 83.8496 51.8867 89.8257 45.3884C95.8018 51.8867 108.937 77.1405 115.467 94.0608C119.032 103.301 120.774 126.985 120.774 150.135V201.094V252.052Z" fill="black" fill-opacity="0.988235" stroke="black"/>
<path fill-rule="evenodd" clip-rule="evenodd" d="M218.919 208.633C218.919 186.264 201.862 178.87 201.862 182.24V189.824C201.862 189.824 208.116 191.949 208.017 197.289C207.982 199.161 206.608 201.206 204.251 202.76C203.037 203.559 204.19 205.444 206.508 208.736C208.514 211.585 208.774 215.424 208.801 221.768L208.962 260.024L208.801 298.281C208.775 304.625 208.514 308.464 206.508 311.312C204.19 314.605 203.037 316.49 204.251 317.289C206.608 318.843 207.982 320.888 208.017 322.76C208.116 328.1 201.862 330.225 201.862 330.225V337.809C201.862 341.179 218.919 333.785 218.919 311.416V260.024V208.633Z" fill="#FFE000" fill-opacity="0.988235" stroke="black"/>
<path fill-rule="evenodd" clip-rule="evenodd" d="M300.657 164.391C300.684 158.305 300.945 154.621 302.95 151.888C305.268 148.729 306.421 146.921 305.208 146.154C302.85 144.663 301.476 142.701 301.442 140.904C301.342 135.781 307.596 133.742 307.596 133.742V126.466C307.596 123.232 290.54 130.327 290.54 151.789V201.096V250.404C290.54 271.866 307.596 278.961 307.596 275.727V268.451C307.596 268.451 301.342 266.412 301.442 261.288C301.476 259.492 302.85 257.53 305.208 256.039C306.421 255.272 305.268 253.464 302.95 250.305C300.945 247.572 300.684 243.888 300.657 237.802L300.496 201.096L300.657 164.391Z" fill="#FFE000" fill-opacity="0.988235" stroke="black"/>
<path fill-rule="evenodd" clip-rule="evenodd" d="M328.853 151.789C328.853 130.327 311.797 123.232 311.797 126.466V133.742C311.797 133.742 318.051 135.781 317.952 140.904C317.917 142.701 316.543 144.663 314.186 146.154C312.973 146.921 314.126 148.729 316.443 151.888C318.449 154.621 318.709 158.305 318.736 164.391L318.897 201.096L318.736 237.802C318.71 243.888 318.449 247.572 316.443 250.305C314.126 253.464 312.973 255.272 314.186 256.039C316.543 257.53 317.917 259.492 317.952 261.288C318.051 266.412 311.797 268.451 311.797 268.451V275.727C311.797 278.961 328.853 271.866 328.853 250.404V201.096V151.789Z" fill="#FFE000" fill-opacity="0.988235" stroke="black"/>
<path fill-rule="evenodd" clip-rule="evenodd" d="M80.7861 164.389C80.8127 158.302 81.0736 154.619 83.079 151.885C85.3966 148.727 86.5497 146.918 85.3365 146.151C82.9793 144.66 81.6052 142.698 81.5704 140.902C81.4713 135.779 87.7254 133.74 87.7254 133.74V126.464C87.7254 123.23 70.6692 130.324 70.6692 151.786V201.094V250.402C70.6692 271.863 87.7254 278.958 87.7254 275.724V268.448C87.7254 268.448 81.4713 266.409 81.5704 261.286C81.6052 259.489 82.9793 257.527 85.3365 256.037C86.5497 255.269 85.3966 253.461 83.079 250.302C81.0736 247.569 80.8128 243.885 80.7861 237.799L80.6249 201.094L80.7861 164.389Z" fill="#FFE000" fill-opacity="0.988235" stroke="black"/>
<path fill-rule="evenodd" clip-rule="evenodd" d="M108.982 151.786C108.982 130.324 91.9258 123.23 91.9258 126.464V133.74C91.9258 133.74 98.1799 135.779 98.0807 140.902C98.046 142.698 96.6718 144.66 94.3146 146.151C93.1015 146.918 94.2545 148.727 96.5721 151.885C98.5776 154.619 98.8383 158.302 98.865 164.389L99.0263 201.094L98.865 237.799C98.8384 243.885 98.5776 247.569 96.5721 250.302C94.2545 253.461 93.1015 255.269 94.3146 256.037C96.6718 257.527 98.046 259.489 98.0807 261.286C98.1799 266.409 91.9258 268.448 91.9258 268.448V275.724C91.9258 278.958 108.982 271.863 108.982 250.402V201.094V151.786Z" fill="#FFE000" fill-opacity="0.988235" stroke="black"/>
</g>
<defs>
<clipPath id="clip0">
<rect y="0.0112305" width="400" height="521.59" fill="white"/>
</clipPath>
</defs>
</svg>
