<svg width="400" height="522" viewBox="0 0 400 522" fill="none" xmlns="http://www.w3.org/2000/svg">
<g clip-path="url(#clip0)">
<path d="M199.709 521.397C121.895 464.942 68.561 393.641 36.6483 303.452C7.70906 221.681 -3.90223 122.582 1.14434 0.501397L1.16528 0.0197754H398.839L398.86 0.501397C403.896 122.582 392.284 221.671 363.356 303.452C331.443 393.641 278.109 464.942 200.295 521.397L200.002 521.606L199.709 521.397Z" fill="#32AC60"/>
<path fill-rule="evenodd" clip-rule="evenodd" d="M274.989 296.856L209.676 296.532L209.027 166.881C223.099 161.196 228.156 153.668 232.899 146.559C240.039 135.848 241.662 114.301 235.317 114.301H164.184C157.839 114.301 159.472 135.848 166.603 146.559C171.335 153.668 176.403 161.185 190.474 166.881L189.825 296.532L124.513 296.856C125.633 347.657 155.41 400.698 199.74 424.413C244.07 400.688 273.847 347.657 274.968 296.856H274.989Z" fill="white"/>
<path fill-rule="evenodd" clip-rule="evenodd" d="M225.486 131.702C225.716 129.063 223.497 127.367 221.298 127.346C206.881 127.105 192.474 127.241 178.067 127.346C175.869 127.367 173.649 129.063 173.879 131.702C175.24 147.48 188.789 154.286 199.688 154.286C210.587 154.286 224.135 147.48 225.497 131.702H225.486Z" fill="#32AC60"/>
<path fill-rule="evenodd" clip-rule="evenodd" d="M368.559 174.933L312.922 174.66L312.367 64.2012C324.355 59.3536 328.668 52.9459 332.699 46.8838C338.783 37.7539 340.175 19.3999 334.762 19.3999H274.161C268.759 19.3999 270.151 37.7539 276.224 46.8838C280.255 52.9355 284.569 59.3536 296.557 64.2012L296.002 174.66L240.364 174.933C241.317 218.216 266.686 263.404 304.462 283.612C342.227 263.404 367.607 218.216 368.559 174.933Z" fill="white"/>
<path fill-rule="evenodd" clip-rule="evenodd" d="M326.376 34.5396C326.574 32.2885 324.679 30.8437 322.805 30.8332C310.524 30.6343 298.253 30.739 285.972 30.8332C284.097 30.8437 282.202 32.2885 282.401 34.5396C283.563 47.9832 295.101 53.4695 304.388 53.4695C313.675 53.4695 325.213 47.9832 326.376 34.5396Z" fill="#32AC60"/>
<path fill-rule="evenodd" clip-rule="evenodd" d="M159.158 174.933L103.521 174.66L102.966 64.2012C114.954 59.3536 119.267 52.9459 123.298 46.8838C129.382 37.7539 130.774 19.3999 125.361 19.3999H64.7604C59.3578 19.3999 60.7503 37.7539 66.823 46.8838C70.8539 52.9355 75.1676 59.3536 87.1558 64.2012L86.6009 174.66L30.963 174.933C31.9158 218.216 57.2847 263.404 95.0607 283.612C132.826 263.404 158.206 218.216 159.158 174.933Z" fill="white"/>
<path fill-rule="evenodd" clip-rule="evenodd" d="M116.974 34.5396C117.173 32.2885 115.278 30.8437 113.404 30.8332C101.123 30.6343 88.8519 30.739 76.5706 30.8332C74.6964 30.8437 72.8014 32.2885 73.0003 34.5396C74.1625 47.9832 85.7005 53.4695 94.9874 53.4695C104.274 53.4695 115.812 47.9832 116.974 34.5396Z" fill="#32AC60"/>
</g>
<defs>
<clipPath id="clip0">
<rect y="0.0197754" width="400" height="521.59" fill="white"/>
</clipPath>
</defs>
</svg>
