<svg width="400" height="523" viewBox="0 0 400 523" fill="none" xmlns="http://www.w3.org/2000/svg">
<g clip-path="url(#clip0)">
<path d="M38.0624 303.451L36.6483 303.952L38.0623 303.451C9.28278 222.131 -2.33777 123.542 2.60385 2.01929H397.4C402.331 123.542 390.711 222.121 361.942 303.452C330.211 393.125 277.251 464.046 200.002 520.255C122.753 464.046 69.7928 393.125 38.0624 303.451Z" fill="white" fill-opacity="0.988235" stroke="#1D1D1B" stroke-width="3"/>
<path d="M37.5917 167.694C62.9753 180.764 119.359 180.028 145.32 163.685L133.024 128.413C113.126 132.005 104.809 121.237 105.356 116.771C105.955 111.886 111.736 113.275 114.712 117.439C116.865 117.097 117.917 115.653 118.054 113.296C142.832 115.198 145.949 106.805 162.475 104.346C170.935 103.088 181.709 103.385 203.194 107.415C207.149 108.156 204.503 87.7022 201.056 82.0196C198.837 78.3627 186.018 77.8812 180.503 78.8118C159.164 82.412 151.548 88.9149 133.461 88.3015C125.946 88.0466 119.581 85.1948 119.342 80.683C113.959 80.3443 102.795 72.7489 104.044 67.042L62.5582 67.2546C59.244 67.2716 63.2672 75.0359 61.8578 75.0218C59.3676 74.997 55.6179 73.7813 55.5847 75.1045L54.8037 106.204C54.8059 108.316 61.9322 106.154 62.1156 107.643C65.1928 125.022 46.5327 155.41 37.5918 167.694L37.5917 167.694Z" fill="#0085CA"/>
<path d="M211.395 167.694C236.778 180.764 293.161 180.028 319.123 163.685L306.826 128.413C286.929 132.005 278.612 121.237 279.159 116.771C279.757 111.886 285.539 113.275 288.515 117.439C290.668 117.097 291.72 115.653 291.857 113.296C315.19 115.087 320.801 107.749 334.834 104.834C343.332 103.069 353.064 102.926 376.997 107.415C380.952 108.156 378.306 87.7022 374.858 82.0196C372.64 78.3627 359.821 77.8812 354.306 78.8118C332.967 82.412 325.35 88.9149 307.264 88.3015C299.749 88.0466 293.384 85.1948 293.145 80.683C287.761 80.3443 276.597 72.7489 277.846 67.042L236.361 67.2546C233.047 67.2716 237.07 75.0359 235.661 75.0218C233.17 74.997 229.421 73.7813 229.387 75.1045L228.606 106.204C228.609 108.316 235.735 106.154 235.918 107.643C238.996 125.022 220.336 155.41 211.395 167.694L211.395 167.694Z" fill="#0085CA"/>
<path d="M125.59 353.555C147.894 368.927 211.853 373.146 242.862 352.036L227.926 305.357C213.018 310.998 201.348 302.914 201.992 295.825C202.515 290.059 209.496 291.713 212.996 296.611C212.996 296.611 215.893 293.056 216.927 291.737C244.976 294.814 253.368 287.464 266.974 283.168C276.469 280.171 289.84 278.995 308.559 282.479C313.213 283.344 310.432 264.299 306.378 257.615C303.768 253.314 282.85 253.915 276.362 255.01C251.264 259.245 254.153 261.182 232.379 263.669C223.591 264.672 218.723 263.018 218.442 257.711C211.943 255.811 203.317 250.716 200.448 241.667L151.652 241.917C148.922 241.931 152.486 251.069 150.828 251.053C147.899 251.024 143.491 249.594 143.449 251.15L142.531 285.562C142.486 287.246 150.915 285.504 151.131 287.255C149.558 308.641 136.106 339.106 125.59 353.555L125.59 353.555Z" fill="#0085CA"/>
</g>
<defs>
<clipPath id="clip0">
<rect y="0.519287" width="400" height="521.59" fill="white"/>
</clipPath>
</defs>
</svg>
