<svg width="400" height="499" viewBox="0 0 400 499" fill="none" xmlns="http://www.w3.org/2000/svg">
<g clip-path="url(#clip0)">
<path fill-rule="evenodd" clip-rule="evenodd" d="M399.621 0.519287C401.712 103.041 396.238 188.123 355.664 297.288C327.597 372.814 281.409 442.146 200 499C118.591 442.146 72.403 372.814 44.336 297.288C3.76154 188.123 -1.71177 103.041 0.379493 0.519287C133.46 0.809462 266.54 0.519287 399.621 0.519287Z" fill="#0085CA"/>
<path fill-rule="evenodd" clip-rule="evenodd" d="M1.85767 98.9469C4.1109 129.719 6.3897 149.914 10.4466 173.926C73.2035 146.47 140.089 134.4 200 134.4C259.91 134.4 326.796 146.47 389.553 173.926C393.61 149.914 395.889 129.719 398.142 98.9469C330.438 72.7357 262.009 61.8564 200 61.8564C137.991 61.8564 69.562 72.7357 1.85767 98.9469Z" fill="white"/>
<path fill-rule="evenodd" clip-rule="evenodd" d="M352.282 306.059C360.603 284.5 368.187 262.413 375.529 236.427C321.628 208.123 258.182 194.437 200 194.437C141.818 194.437 78.3725 208.123 24.4708 236.427C31.8133 262.413 39.3974 284.5 47.7178 306.059C61.0068 299.199 117.238 266.98 200 266.98C282.762 266.98 338.993 299.199 352.282 306.059Z" fill="white"/>
<path fill-rule="evenodd" clip-rule="evenodd" d="M284.124 422.446C301.762 401.252 314.698 381.59 325.071 363.288C299.954 347.249 255.855 327.289 199.864 327.153C143.872 327.016 99.773 346.977 74.6558 363.015C85.0297 381.317 97.9657 400.98 115.603 422.173C136.828 409.464 163.95 399.287 199.864 399.424C235.78 399.56 262.899 409.737 284.124 422.446Z" fill="white"/>
<path d="M266.544 2.08377C310.414 2.05188 354.283 2.02 398.15 2.0193C400.157 103.784 394.548 188.365 354.258 296.766C326.382 371.777 280.595 440.624 200 497.169C119.405 440.624 73.6177 371.777 45.7421 296.766L44.336 297.288L45.7421 296.766C5.4523 188.366 -0.156756 103.785 1.84964 2.02247C90.0808 2.21202 178.314 2.1479 266.544 2.08377Z" stroke="#0085CA" stroke-width="3"/>
</g>
<defs>
<clipPath id="clip0">
<rect y="0.519287" width="400" height="498.48" fill="white"/>
</clipPath>
</defs>
</svg>
