<svg width="400" height="522" viewBox="0 0 400 522" fill="none" xmlns="http://www.w3.org/2000/svg">
<g clip-path="url(#clip0)">
<path d="M199.709 521.388C121.895 464.934 68.561 393.633 36.6483 303.444C7.70906 221.673 -3.90222 122.574 1.14434 0.492856L1.16528 0.0112305H398.839L398.86 0.492856C403.896 122.574 392.284 221.662 363.356 303.444C331.443 393.633 278.109 464.934 200.295 521.388L200.002 521.598L199.709 521.388Z" fill="white"/>
<path fill-rule="evenodd" clip-rule="evenodd" d="M199.709 521.388C121.895 464.934 68.561 393.633 36.6483 303.444C7.70906 221.673 -3.90222 122.574 1.14434 0.492856L1.16528 0.0112305H398.839L398.86 0.492856C403.768 119.485 392.861 216.633 365.518 297.202L314.873 239.824C299.646 222.558 294.773 211.697 284.356 188.484L284.221 188.185C281.149 181.338 273.043 168.696 264.431 159.116C264.431 159.116 238.665 128.929 225.245 114.322C202.585 89.657 155.874 41.6056 155.874 41.6056C150.257 35.5259 142.181 36.7992 139.621 37.8294C130.584 41.4665 121.26 47.2283 121.26 47.2283C121.26 47.2283 114.602 55.935 110.087 64.5669C108.808 67.0118 106.74 74.9223 112.233 81.1139C112.233 81.1139 155.415 132.36 177.712 157.354C190.916 172.156 218.399 200.788 218.399 200.788C227.077 210.308 238.854 219.628 245.362 223.364L245.646 223.527C267.712 236.195 278.037 242.122 293.707 258.985L355.15 325.059C345.737 348.221 334.794 370.071 322.262 390.687L259.781 320.222C244.555 302.956 239.681 292.095 229.264 268.882L229.129 268.583C226.057 261.736 217.951 249.094 209.339 239.514C209.339 239.514 183.573 209.327 170.153 194.72C147.493 170.055 100.782 122.004 100.782 122.004C95.1653 115.924 87.0888 117.197 84.5291 118.227C75.492 121.865 66.168 127.626 66.168 127.626C66.168 127.626 59.51 136.333 54.9947 144.965C53.7158 147.41 51.6479 155.32 57.1407 161.512C57.1407 161.512 100.323 212.758 122.62 237.752C135.824 252.554 163.307 281.186 163.307 281.186C171.985 290.706 183.762 300.026 190.27 303.762L190.554 303.925C212.621 316.593 222.945 322.52 238.615 339.383L307.377 413.527C278.813 454.468 243.291 490.194 200.295 521.388L200.002 521.598L199.709 521.388Z" fill="#0085CA"/>
</g>
<defs>
<clipPath id="clip0">
<rect y="0.0112305" width="400" height="521.59" fill="white"/>
</clipPath>
</defs>
</svg>
