<svg width="400" height="522" viewBox="0 0 400 522" fill="none" xmlns="http://www.w3.org/2000/svg">
<g clip-path="url(#clip0)">
<path d="M199.709 521.397C121.895 464.942 68.561 393.641 36.6483 303.452C7.70906 221.681 -3.90222 122.582 1.14434 0.501401L1.16528 0.0197754H398.839L398.86 0.501401C403.896 122.582 392.284 221.671 363.356 303.452C331.443 393.641 278.109 464.942 200.295 521.397L200.002 521.606L199.709 521.397Z" fill="#E00E00"/>
<path fill-rule="evenodd" clip-rule="evenodd" d="M251.075 342.774C251.075 323.309 245.363 315.56 233.276 303.473L213.383 283.58C213.383 283.58 221.899 274.647 225.947 270.493C237.249 258.892 252.494 238.465 254.216 235.213C256.604 230.704 251.892 226.155 247.934 228.612C245.611 230.055 227.776 241.441 213.383 255.834L199.772 269.446L186.161 255.834C171.767 241.441 153.933 230.055 151.609 228.612C147.651 226.155 142.94 230.704 145.327 235.213C147.049 238.465 162.294 258.892 173.597 270.493C177.644 274.647 186.161 283.58 186.161 283.58L166.267 303.473C154.181 315.56 148.468 323.309 148.468 342.774C148.468 369.855 167.942 396.133 199.772 396.133C231.601 396.133 251.075 369.855 251.075 342.774ZM199.772 283.057L201.866 285.151C204.563 287.848 205.314 290.974 205.314 293.013C205.314 294.401 205.314 296.941 202.913 299.809L221.871 319.873C228.968 327.141 232.643 334.682 232.584 344.064C232.503 356.984 222.199 375.129 199.772 376.24C177.344 375.129 167.04 356.984 166.959 344.064C166.9 334.682 170.575 327.141 177.673 319.873L196.631 299.809C194.229 296.941 194.229 294.401 194.229 293.013C194.229 290.974 194.98 287.848 197.678 285.151L199.772 283.057Z" fill="#FFE000" stroke="#E00E00" stroke-linecap="round" stroke-linejoin="round"/>
<path d="M199.772 269.446L213.383 283.58" stroke="#E00E00"/>
<path d="M186.161 283.58L193.343 276.121L199.772 283.057" stroke="#E00E00" stroke-linejoin="round"/>
<path fill-rule="evenodd" clip-rule="evenodd" d="M305.5 70.9921C288.565 80.5884 284.639 89.3785 280.082 105.853L272.581 132.968C272.581 132.968 260.611 129.962 255 128.489C239.336 124.375 214.047 121.181 210.37 121.286C205.269 121.432 203.635 127.774 207.724 130.006C210.124 131.317 228.823 141.22 248.441 146.647L266.994 151.778L261.862 170.331C256.435 189.949 255.321 211.079 255.211 213.812C255.025 218.467 261.305 220.324 264.052 216.023C266.032 212.922 276.288 189.588 280.809 174.035C282.428 168.465 286.001 156.652 286.001 156.652L313.116 164.153C329.591 168.71 339.149 169.859 356.084 160.263C379.645 146.913 392.908 117.015 377.216 89.322C361.524 61.6293 329.061 57.6417 305.5 70.9921ZM278.836 145.068L279.625 142.214C280.642 138.538 282.992 136.343 284.766 135.337C285.973 134.653 288.183 133.401 291.862 134.077L299.972 107.691C302.797 97.9331 307.546 91.0182 315.738 86.4436C327.019 80.1445 347.886 80.1644 359.908 99.1292C369.999 119.189 359.292 137.1 348.091 143.54C339.957 148.216 331.584 148.736 321.762 146.145L294.959 139.542C293.648 143.046 291.438 144.298 290.231 144.982C288.457 145.987 285.366 146.875 281.69 145.858L278.836 145.068Z" fill="#FFE000"/>
<path d="M278.836 145.068L279.625 142.214C280.642 138.538 282.992 136.343 284.766 135.337C285.973 134.653 288.183 133.401 291.862 134.077L299.972 107.691C302.797 97.9331 307.546 91.0182 315.738 86.4436C327.019 80.1445 347.886 80.1644 359.908 99.1292C369.999 119.189 359.292 137.1 348.091 143.54C339.957 148.216 331.584 148.736 321.762 146.145L294.959 139.542C293.648 143.046 291.438 144.298 290.231 144.982C288.457 145.987 285.366 146.875 281.69 145.858L278.836 145.068M305.5 70.9921C288.565 80.5884 284.639 89.3785 280.082 105.853L272.581 132.968C272.581 132.968 260.611 129.962 255 128.489C239.336 124.375 214.047 121.181 210.37 121.286C205.269 121.432 203.635 127.774 207.724 130.006C210.124 131.317 228.823 141.22 248.441 146.647L266.994 151.778L261.862 170.331C256.435 189.949 255.321 211.079 255.211 213.812C255.025 218.467 261.305 220.324 264.052 216.023C266.032 212.922 276.288 189.588 280.809 174.035C282.428 168.465 286.001 156.652 286.001 156.652L313.116 164.153C329.591 168.71 339.149 169.859 356.084 160.263C379.645 146.913 392.908 117.015 377.216 89.322C361.524 61.6293 329.061 57.6417 305.5 70.9921V70.9921Z" stroke="#E00E00" stroke-linecap="round" stroke-linejoin="round"/>
<path d="M266.994 151.778L272.581 132.968" stroke="#E00E00"/>
<path d="M286.001 156.652L275.971 154.08L278.836 145.068" stroke="#E00E00" stroke-linejoin="round"/>
<path fill-rule="evenodd" clip-rule="evenodd" d="M93.9975 70.9921C110.933 80.5884 114.859 89.3785 119.416 105.853L126.916 132.968C126.916 132.968 138.886 129.962 144.497 128.489C160.162 124.375 185.45 121.181 189.127 121.286C194.228 121.432 195.863 127.774 191.774 130.006C189.373 131.317 170.674 141.22 151.056 146.647L132.504 151.778L137.635 170.331C143.062 189.949 144.177 211.079 144.286 213.812C144.472 218.467 138.192 220.324 135.446 216.023C133.466 212.922 123.21 189.588 118.688 174.035C117.069 168.465 113.496 156.652 113.496 156.652L86.3811 164.153C69.9063 168.71 60.3483 169.859 43.4129 160.263C19.8522 146.913 6.58953 117.015 22.2813 89.322C37.9732 61.6293 70.4368 57.6417 93.9975 70.9921ZM120.662 145.068L119.872 142.214C118.855 138.538 116.506 136.343 114.731 135.337C113.524 134.653 111.314 133.401 107.635 134.077L99.5251 107.691C96.7003 97.9331 91.9512 91.0182 83.7592 86.4436C72.4788 80.1445 51.6119 80.1644 39.589 99.1292C29.4988 119.189 40.2055 137.1 51.4063 143.54C59.5405 148.216 67.9131 148.736 77.7356 146.145L104.538 139.542C105.849 143.046 108.059 144.298 109.266 144.982C111.041 145.987 114.131 146.875 117.807 145.858L120.662 145.068Z" fill="#FFE000"/>
<path d="M120.662 145.068L119.872 142.214C118.855 138.538 116.506 136.343 114.731 135.337C113.524 134.653 111.314 133.401 107.635 134.077L99.5251 107.691C96.7003 97.9331 91.9512 91.0182 83.7592 86.4436C72.4788 80.1445 51.6119 80.1644 39.589 99.1292C29.4988 119.189 40.2055 137.1 51.4063 143.54C59.5405 148.216 67.9131 148.736 77.7356 146.145L104.538 139.542C105.849 143.046 108.059 144.298 109.266 144.982C111.041 145.987 114.131 146.875 117.807 145.858L120.662 145.068M93.9975 70.9921C110.933 80.5884 114.859 89.3785 119.416 105.853L126.916 132.968C126.916 132.968 138.886 129.962 144.497 128.489C160.162 124.375 185.45 121.181 189.127 121.286C194.228 121.432 195.863 127.774 191.774 130.006C189.373 131.317 170.674 141.22 151.056 146.647L132.504 151.778L137.635 170.331C143.062 189.949 144.177 211.079 144.286 213.812C144.472 218.467 138.192 220.324 135.446 216.023C133.466 212.922 123.21 189.588 118.688 174.035C117.069 168.465 113.496 156.652 113.496 156.652L86.3811 164.153C69.9064 168.71 60.3483 169.859 43.4129 160.263C19.8522 146.913 6.58953 117.015 22.2813 89.322C37.9732 61.6293 70.4368 57.6417 93.9975 70.9921Z" stroke="#E00E00" stroke-linecap="round" stroke-linejoin="round"/>
<path d="M132.504 151.778L126.916 132.968" stroke="#E00E00"/>
<path d="M113.496 156.652L123.526 154.08L120.662 145.068" stroke="#E00E00" stroke-linejoin="round"/>
</g>
<defs>
<clipPath id="clip0">
<rect y="0.0197754" width="400" height="521.59" fill="white"/>
</clipPath>
</defs>
</svg>
