<svg width="400" height="522" viewBox="0 0 400 522" fill="none" xmlns="http://www.w3.org/2000/svg">
<g clip-path="url(#clip0)">
<path d="M199.709 521.397C121.895 464.942 68.561 393.641 36.6483 303.452C7.70906 221.681 -3.90222 122.582 1.14434 0.501401L1.16528 0.0197754H398.839L398.86 0.501401C403.896 122.582 392.284 221.671 363.356 303.452C331.443 393.641 278.109 464.942 200.295 521.397L200.002 521.606L199.709 521.397Z" fill="#0085CA"/>
<path fill-rule="evenodd" clip-rule="evenodd" d="M86.7998 67.8656L94.8618 117.86C95.3643 120.959 96.9453 126.676 91.3124 126.571C67.9956 126.142 54.9185 123.43 38.7423 121.409V168.818C55.3583 165.928 67.3884 162.808 89.3755 161.719C92.0453 161.583 95.7099 165.384 95.825 168.818C97.7306 222.875 92.349 278.806 89.0509 329.428C104.924 329.428 120.796 329.428 136.669 329.428C133.371 278.806 127.999 222.875 129.895 168.818C130.02 165.384 133.674 161.593 136.344 161.719C158.331 162.808 170.361 165.928 186.977 168.818V121.409C170.801 123.43 157.724 126.142 134.407 126.571C128.785 126.676 130.355 120.959 130.858 117.86L138.92 67.8656H112.849H86.7998Z" fill="white"/>
<path fill-rule="evenodd" clip-rule="evenodd" d="M260.603 67.8656L268.665 117.86C269.167 120.959 270.748 126.676 265.115 126.571C241.798 126.142 228.721 123.43 212.545 121.409V168.818C229.161 165.928 241.191 162.808 263.178 161.719C265.848 161.583 269.513 165.384 269.628 168.818C271.533 222.875 266.152 278.806 262.854 329.428C278.726 329.428 294.599 329.428 310.472 329.428C307.174 278.806 301.802 222.875 303.697 168.818C303.823 165.384 307.477 161.593 310.147 161.719C332.134 162.808 344.164 165.928 360.78 168.818V121.409C344.604 123.43 331.527 126.142 308.21 126.571C302.588 126.676 304.158 120.959 304.661 117.86L312.723 67.8656H286.652H260.603Z" fill="white"/>
</g>
<defs>
<clipPath id="clip0">
<rect y="0.0197754" width="400" height="521.59" fill="white"/>
</clipPath>
</defs>
</svg>
