<svg width="400" height="522" viewBox="0 0 400 522" fill="none" xmlns="http://www.w3.org/2000/svg">
<g clip-path="url(#clip0)">
<path d="M38.0624 302.952L36.6483 303.452L38.0623 302.952C9.28278 221.632 -2.33777 123.042 2.60385 1.51978H397.4C402.331 123.042 390.711 221.622 361.942 302.952C330.211 392.626 277.251 463.547 200.002 519.756C122.753 463.547 69.7928 392.626 38.0624 302.952Z" fill="white" stroke="#1D1D1B" stroke-width="3"/>
<path d="M61.5355 122.928L96.0867 201.914L61.5355 278.586L26.9844 201.914L61.5355 122.928Z" fill="#0085CA"/>
<path d="M130.638 122.928L165.189 201.914L130.638 278.586L96.0868 201.914L130.638 122.928Z" fill="#0085CA"/>
<path d="M199.761 122.928L234.312 201.914L199.761 278.586L165.21 201.914L199.761 122.928Z" fill="#0085CA"/>
<path d="M337.987 122.928L372.538 201.914L337.987 278.586L303.436 201.914L337.987 122.928Z" fill="#0085CA"/>
<path d="M268.885 122.928L303.436 201.914L268.885 278.586L234.333 201.914L268.885 122.928Z" fill="#0085CA"/>
</g>
<defs>
<clipPath id="clip0">
<rect y="0.0197754" width="400" height="521.59" fill="white"/>
</clipPath>
</defs>
</svg>
