<svg width="400" height="522" viewBox="0 0 400 522" fill="none" xmlns="http://www.w3.org/2000/svg">
<g clip-path="url(#clip0)">
<path d="M199.709 521.397C121.895 464.942 68.561 393.641 36.6483 303.452C7.70906 221.681 -3.90222 122.582 1.14434 0.501401L1.16528 0.0197754H398.839L398.86 0.501401C403.896 122.582 392.284 221.671 363.356 303.452C331.443 393.641 278.109 464.942 200.295 521.397L200.002 521.606L199.709 521.397Z" fill="#0085CA"/>
<path d="M95.0712 150.181C125.77 150.181 150.657 125.295 150.657 94.5957C150.657 63.8967 125.77 39.0103 95.0712 39.0103C64.3722 39.0103 39.4857 63.8967 39.4857 94.5957C39.4857 125.295 64.3722 150.181 95.0712 150.181Z" fill="white"/>
<path d="M80.5178 102.333C84.791 102.333 88.2551 98.8689 88.2551 94.5956C88.2551 90.3224 84.791 86.8583 80.5178 86.8583C76.2445 86.8583 72.7804 90.3224 72.7804 94.5956C72.7804 98.8689 76.2445 102.333 80.5178 102.333Z" fill="#0085CA"/>
<path d="M109.625 102.333C113.898 102.333 117.362 98.8689 117.362 94.5956C117.362 90.3224 113.898 86.8583 109.625 86.8583C105.351 86.8583 101.887 90.3224 101.887 94.5956C101.887 98.8689 105.351 102.333 109.625 102.333Z" fill="#0085CA"/>
<path d="M95.0712 109.149C103.109 109.149 109.625 102.633 109.625 94.5957C109.625 86.5581 103.109 80.0424 95.0712 80.0424C87.0336 80.0424 80.5178 86.5581 80.5178 94.5957C80.5178 102.633 87.0336 109.149 95.0712 109.149Z" fill="#0085CA"/>
<path d="M179.879 249.647C210.578 249.647 235.464 224.76 235.464 194.061C235.464 163.362 210.578 138.476 179.879 138.476C149.18 138.476 124.293 163.362 124.293 194.061C124.293 224.76 149.18 249.647 179.879 249.647Z" fill="white"/>
<path d="M165.325 201.798C169.598 201.798 173.063 198.334 173.063 194.061C173.063 189.788 169.598 186.324 165.325 186.324C161.052 186.324 157.588 189.788 157.588 194.061C157.588 198.334 161.052 201.798 165.325 201.798Z" fill="#0085CA"/>
<path d="M194.432 201.798C198.705 201.798 202.169 198.334 202.169 194.061C202.169 189.788 198.705 186.324 194.432 186.324C190.159 186.324 186.695 189.788 186.695 194.061C186.695 198.334 190.159 201.798 194.432 201.798Z" fill="#0085CA"/>
<path d="M179.879 208.615C187.916 208.615 194.432 202.099 194.432 194.061C194.432 186.024 187.916 179.508 179.879 179.508C171.841 179.508 165.325 186.024 165.325 194.061C165.325 202.099 171.841 208.615 179.879 208.615Z" fill="#0085CA"/>
<path d="M264.686 349.112C295.385 349.112 320.272 324.226 320.272 293.527C320.272 262.828 295.385 237.941 264.686 237.941C233.987 237.941 209.101 262.828 209.101 293.527C209.101 324.226 233.987 349.112 264.686 349.112Z" fill="white"/>
<path d="M250.133 301.264C254.406 301.264 257.87 297.8 257.87 293.527C257.87 289.253 254.406 285.789 250.133 285.789C245.859 285.789 242.395 289.253 242.395 293.527C242.395 297.8 245.859 301.264 250.133 301.264Z" fill="#0085CA"/>
<path d="M279.239 301.264C283.513 301.264 286.977 297.8 286.977 293.527C286.977 289.253 283.513 285.789 279.239 285.789C274.966 285.789 271.502 289.253 271.502 293.527C271.502 297.8 274.966 301.264 279.239 301.264Z" fill="#0085CA"/>
<path d="M264.686 308.08C272.724 308.08 279.239 301.564 279.239 293.527C279.239 285.489 272.724 278.973 264.686 278.973C256.648 278.973 250.133 285.489 250.133 293.527C250.133 301.564 256.648 308.08 264.686 308.08Z" fill="#0085CA"/>
</g>
<defs>
<clipPath id="clip0">
<rect y="0.0197754" width="400" height="521.59" fill="white"/>
</clipPath>
</defs>
</svg>
