<svg width="400" height="522" viewBox="0 0 400 522" fill="none" xmlns="http://www.w3.org/2000/svg">
<g clip-path="url(#clip0)">
<path d="M199.709 521.397C121.895 464.942 68.561 393.641 36.6483 303.452C7.70906 221.681 -3.90222 122.582 1.14434 0.501401L1.16528 0.0197754H398.839L398.86 0.501401C403.896 122.582 392.284 221.671 363.356 303.452C331.443 393.641 278.109 464.942 200.295 521.397L200.002 521.606L199.709 521.397Z" fill="#0085CA"/>
<path fill-rule="evenodd" clip-rule="evenodd" d="M137.443 79.4351C138.134 71.2265 134.847 65.3528 129.863 57.1862C125.005 76.5244 114.828 75.8648 110.347 88.3137C108.379 93.7895 111.959 98.6267 114.702 101.056C116.849 102.961 112.242 109.652 108.735 112.992C104.892 116.656 99.8978 118.206 96.139 117.64C91.9091 117.002 89.0089 113.724 91.4066 108.835C93.0294 105.558 96.4741 101.747 96.9662 98.3126C97.8247 92.3028 93.4692 89.7585 93.5843 86.3767C93.9089 76.3883 104.389 72.5353 105.52 62.8296C107.583 45.0724 96.7254 35.8587 84.7162 31.8696C86.9568 41.544 86.2867 51.0298 79.2299 57.1862C68.4353 66.5988 62.4569 75.4774 61.4936 86.3767C60.9387 92.6692 64.4357 93.4335 69.1891 95.5171C72.9897 97.1818 65.6398 114.3 50.6885 108.311C47.3905 106.992 47.0554 101.789 51.0131 98.9617C55.2744 95.9045 57.0229 91.528 53.9866 89.6434C48.3642 86.1568 46.5424 81.215 46.3958 75.7601C46.2492 69.9492 54.0704 67.3631 55.6828 59.2907C57.0124 52.6213 56.3319 45.9833 51.4424 37.3036C48.8772 49.3232 44.6159 56.1287 37.2136 62.5992C28.6177 70.0958 18.9015 72.3573 18.4408 84.7748C18.0848 94.3549 26.7749 94.1245 25.351 97.297C24.3773 99.4643 23.0895 100.522 21.9692 102.207C11.7295 117.619 17.4147 126.875 21.341 132.665C31.6331 147.878 41.2341 147.134 62.6349 151.584C69.8278 153.081 70.8015 158.809 73.9111 164.274C78.9367 160.683 83.0619 157.029 88.8414 156.955C106.672 156.746 113.771 152.767 120.911 145.941C128.313 138.853 133.81 127.053 136.805 119.923C139.098 114.531 135.569 112.311 131.643 110.081C128.994 108.584 127.863 104.249 130.994 99.035C135.129 92.1352 136.847 86.5338 137.443 79.4455V79.4351Z" fill="white"/>
<path fill-rule="evenodd" clip-rule="evenodd" d="M236.134 173.613C236.825 165.405 233.538 159.531 228.554 151.364C223.696 170.703 213.519 170.043 209.038 182.492C207.069 187.968 210.65 192.805 213.393 195.234C215.54 197.139 210.933 203.83 207.425 207.17C203.583 210.834 198.589 212.384 194.83 211.818C190.6 211.18 187.7 207.903 190.097 203.013C191.72 199.736 195.165 195.925 195.657 192.491C196.516 186.481 192.16 183.937 192.275 180.555C192.6 170.566 203.08 166.713 204.211 157.008C206.274 139.25 195.416 130.037 183.407 126.048C185.648 135.722 184.978 145.208 177.921 151.364C167.126 160.777 161.148 169.656 160.184 180.555C159.63 186.847 163.127 187.612 167.88 189.695C171.681 191.36 164.331 208.478 149.379 202.49C146.081 201.17 145.746 195.967 149.704 193.14C153.965 190.083 155.714 185.706 152.677 183.821C147.055 180.335 145.233 175.393 145.087 169.938C144.94 164.127 152.761 161.541 154.374 153.469C155.703 146.799 155.023 140.161 150.133 131.482C147.568 143.501 143.307 150.307 135.904 156.777C127.308 164.274 117.592 166.535 117.132 178.953C116.776 188.533 125.466 188.303 124.042 191.475C123.068 193.642 121.78 194.7 120.66 196.386C110.42 211.797 116.106 221.053 120.032 226.843C130.324 242.056 139.925 241.313 161.326 245.762C168.519 247.26 169.492 252.987 172.602 258.452C177.628 254.861 181.753 251.207 187.532 251.133C205.363 250.924 212.461 246.945 219.602 240.119C227.004 233.031 232.501 221.231 235.495 214.101C237.788 208.709 234.26 206.489 230.334 204.259C227.685 202.762 226.554 198.427 229.685 193.213C233.82 186.313 235.537 180.712 236.134 173.624V173.613Z" fill="white"/>
<path fill-rule="evenodd" clip-rule="evenodd" d="M333.537 271.655C334.228 263.446 330.941 257.572 325.957 249.406C321.099 268.744 310.922 268.084 306.441 280.533C304.472 286.009 308.053 290.846 310.796 293.275C312.943 295.181 308.336 301.871 304.828 305.211C300.986 308.876 295.992 310.425 292.233 309.86C288.003 309.221 285.103 305.944 287.5 301.055C289.123 297.777 292.568 293.966 293.06 290.532C293.919 284.522 289.563 281.978 289.678 278.596C290.003 268.608 300.483 264.755 301.614 255.049C303.677 237.292 292.819 228.078 280.81 224.089C283.051 233.764 282.381 243.249 275.324 249.406C264.529 258.818 258.551 267.697 257.588 278.596C257.033 284.889 260.53 285.653 265.283 287.737C269.084 289.401 261.734 306.52 246.782 300.531C243.484 299.212 243.149 294.008 247.107 291.181C251.368 288.124 253.117 283.748 250.08 281.863C244.458 278.376 242.636 273.435 242.49 267.98C242.343 262.169 250.164 259.583 251.777 251.51C253.106 244.841 252.426 238.203 247.536 229.523C244.971 241.543 240.71 248.348 233.307 254.819C224.712 262.315 214.995 264.577 214.535 276.994C214.179 286.574 222.869 286.344 221.445 289.517C220.471 291.684 219.183 292.741 218.063 294.427C207.823 309.839 213.509 319.094 217.435 324.884C227.727 340.097 237.328 339.354 258.729 343.804C265.922 345.301 266.895 351.028 270.005 356.494C275.031 352.902 279.156 349.248 284.935 349.175C302.766 348.966 309.864 344.987 317.005 338.16C324.407 331.072 329.904 319.272 332.899 312.142C335.192 306.75 331.663 304.531 327.737 302.301C325.088 300.803 323.957 296.469 327.088 291.255C331.223 284.355 332.94 278.753 333.537 271.665V271.655Z" fill="white"/>
</g>
<defs>
<clipPath id="clip0">
<rect y="0.0197754" width="400" height="521.59" fill="white"/>
</clipPath>
</defs>
</svg>
