<svg width="400" height="522" viewBox="0 0 400 522" fill="none" xmlns="http://www.w3.org/2000/svg">
<g clip-path="url(#clip0)">
<path d="M199.709 521.397C121.895 464.942 68.561 393.641 36.6483 303.452C7.70906 221.681 -3.90222 122.582 1.14434 0.501401L1.16528 0.0197754H398.839L398.86 0.501401C403.896 122.582 392.284 221.671 363.356 303.452C331.443 393.641 278.109 464.942 200.295 521.397L200.002 521.606L199.709 521.397Z" fill="#32AC60"/>
<path fill-rule="evenodd" clip-rule="evenodd" d="M40.6132 147.547C67.2302 133.971 103.18 146.352 124.709 159.101C155.846 177.54 165.854 186.259 195.569 210.242C197.73 213.577 203.173 204.889 207.828 202.194C212.67 199.391 227.252 216.578 224.947 219.006L217.854 226.478C215.494 228.965 222.711 231.439 228.629 231.243C232.964 231.099 238.709 235.556 240.361 240.467C244.322 252.235 253.231 256.687 262.039 265.688C267.886 271.662 281.782 281.15 281.782 281.15C284.657 283.401 287.041 286.576 286.202 289.841C285.293 293.378 283.62 297.332 283.997 299.7C284.62 303.605 289.176 306.185 295.759 301.246C303.643 295.331 319.545 283.866 315.342 278.313C295.9 252.627 271.517 226.885 248.5 202.731C245.898 200.001 243.768 199.88 235.637 203.907C212.962 180.547 191.493 163.2 171.085 145.621C147.465 125.277 115.118 102.946 84.4065 102.026C54.1923 101.122 38.0256 118.449 40.6132 147.547Z" fill="#FFE000"/>
<path fill-rule="evenodd" clip-rule="evenodd" d="M55.3278 243.841C77.2733 233.585 106.056 244.621 123.143 255.552C147.857 271.362 155.722 278.706 179.128 298.968C180.786 301.73 185.438 294.843 189.285 292.79C193.287 290.654 204.621 304.987 202.686 306.89L196.731 312.746C194.749 314.695 200.527 316.901 205.328 316.907C208.844 316.913 213.374 320.684 214.576 324.709C217.456 334.355 224.55 338.211 231.436 345.75C236.006 350.753 247 358.829 247 358.829C249.267 360.734 251.11 363.373 250.339 365.995C249.503 368.835 248.037 371.992 248.277 373.921C248.672 377.103 252.292 379.32 257.764 375.503C264.317 370.93 277.521 362.085 274.271 357.469C259.236 336.113 240.199 314.575 222.224 294.362C220.193 292.077 218.47 291.919 211.77 294.955C194.05 275.394 177.14 260.739 161.095 245.926C142.526 228.782 116.941 209.785 92.0826 208.182C67.6271 206.605 54.0441 220.192 55.3278 243.841Z" fill="#FFE000"/>
<path fill-rule="evenodd" clip-rule="evenodd" d="M130.242 81.9202C152.472 72.295 180.927 84.148 197.695 95.5625C221.947 112.072 229.6 119.638 252.418 140.56C253.996 143.368 258.843 136.617 262.747 134.674C266.808 132.653 277.729 147.305 275.74 149.151L269.62 154.835C267.583 156.727 273.296 159.097 278.095 159.24C281.609 159.346 286.03 163.245 287.116 167.302C289.719 177.027 296.701 181.084 303.368 188.816C307.794 193.948 318.553 202.335 318.553 202.335C320.764 204.303 322.531 206.994 321.685 209.593C320.769 212.408 319.213 215.522 319.398 217.457C319.702 220.649 323.257 222.969 328.836 219.309C335.517 214.925 348.968 206.461 345.851 201.753C331.433 179.977 313.018 157.904 295.628 137.186C293.663 134.844 291.945 134.637 285.161 137.48C268.007 117.421 251.522 102.289 235.907 87.0244C217.835 69.3576 192.803 49.6372 168 47.3249C143.6 45.0502 129.634 58.2443 130.242 81.9202Z" fill="#FFE000"/>
</g>
<defs>
<clipPath id="clip0">
<rect y="0.0197754" width="400" height="521.59" fill="white"/>
</clipPath>
</defs>
</svg>
