<svg width="400" height="451" viewBox="0 0 400 451" fill="none" xmlns="http://www.w3.org/2000/svg">
<g clip-path="url(#clip0)">
<path d="M1.13412 0.186443C1.59823 0.0746735 52.3135 0.0127717 123.764 0.0204076C147.58 0.0229529 173.701 0.032909 201.033 0.0516612L399.806 0.188396L399.965 53.1946C400.136 110.17 399.737 125.408 397.488 147.706C397.183 150.731 396.744 155.119 396.512 157.457C395.647 166.188 395.528 167.305 395.018 171.458C394.731 173.796 394.295 176.947 394.048 178.459C393.031 184.706 391.989 190.862 391.551 193.211C391.295 194.586 390.833 197.286 390.525 199.212C389.871 203.306 389.553 204.827 387.81 212.213C386.175 219.147 385.667 221.394 385.381 222.964C385.136 224.315 384.012 228.567 382.738 232.966C382.3 234.478 381.495 237.291 380.949 239.216C376.593 254.574 368.99 275.436 362.909 288.722C359.747 295.63 351.912 311.179 349.752 314.833C348.541 316.882 347.55 318.654 347.55 318.77C347.55 319.279 339.012 332.851 334.679 339.228C323.469 355.728 312.05 369.383 296.969 384.32C278.424 402.689 261.979 415.61 239.037 429.837C226.029 437.905 202.036 450.512 199.782 450.464C199.232 450.452 193.382 447.693 186.781 444.333C180.18 440.973 171.967 436.54 168.529 434.481C165.091 432.423 161.93 430.594 161.503 430.417C161.077 430.239 156.464 427.23 151.252 423.729C140.611 416.581 128.371 407.494 123.21 402.911C121.32 401.233 117.86 398.268 115.523 396.322C107.104 389.314 87.6454 369.124 80.9931 360.493C80.0444 359.262 78.9455 357.912 78.5514 357.493C77.1917 356.046 66.7269 341.714 63.2068 336.478C51.6979 319.358 40.3038 297.67 32.2061 277.471C31.2689 275.133 30.2062 272.658 29.8445 271.97C29.4828 271.283 28.8831 269.707 28.5123 268.47C28.1416 267.232 27.6525 266.006 27.4253 265.745C27.1981 265.484 27.0122 264.797 27.0122 264.219C27.0122 263.642 26.815 262.955 26.5736 262.694C26.3323 262.432 25.5138 260.306 24.7551 257.969C23.9963 255.631 23.2087 253.268 23.0048 252.718C22.801 252.168 22.0548 249.918 21.3464 247.717C20.2048 244.171 19.5678 241.967 17.4427 234.216C17.1411 233.116 16.5899 231.203 16.2189 229.965C15.6009 227.903 14.0907 221.643 13.0222 216.714C12.7838 215.614 12.2206 213.138 11.7701 211.213C10.6277 206.331 10.1193 203.993 9.76013 201.962C9.58984 200.999 9.22783 198.974 8.95535 197.462C8.44399 194.623 8.26287 193.529 6.55565 182.96C4.93614 172.934 4.55671 170.375 4.25363 167.458C4.09657 165.945 3.74487 162.682 3.47326 160.207C3.20165 157.732 2.77708 153.119 2.52882 149.956C2.28057 146.793 1.84413 141.617 1.55995 138.455C0.271851 124.117 -0.00860265 109.315 0.000198379 56.3297L0.00898847 0.456982L1.13412 0.186443Z" fill="white"/>
<path d="M123.764 0.0204076C52.3134 0.0127717 1.59823 0.0746735 1.13412 0.186443L0.00898847 0.456982L0.000198379 56.3297C-0.00860265 109.315 0.271851 124.117 1.55995 138.455C1.84413 141.617 2.28057 146.793 2.52882 149.956C2.77708 153.119 3.20165 157.732 3.47326 160.207C3.74487 162.682 4.09657 165.945 4.25363 167.458C4.55671 170.375 4.93614 172.934 6.55565 182.96C8.26287 193.529 8.44399 194.623 8.95535 197.462C9.22783 198.974 9.58984 200.999 9.76013 201.962C10.1193 203.993 10.6277 206.331 11.7701 211.213C12.2206 213.138 12.7838 215.614 13.0222 216.714C14.0907 221.643 15.6009 227.903 16.2189 229.965C16.5899 231.203 17.1411 233.116 17.4427 234.216C19.5678 241.967 20.2048 244.171 21.3464 247.717C22.0548 249.918 22.801 252.168 23.0048 252.718C23.2087 253.268 23.9963 255.631 24.7551 257.969C25.5138 260.306 26.3323 262.432 26.5736 262.694C26.815 262.955 27.0122 263.642 27.0122 264.219C27.0122 264.797 27.1981 265.484 27.4253 265.745C27.6525 266.006 28.1416 267.232 28.5123 268.47C28.8831 269.707 29.4828 271.283 29.8445 271.97C30.2062 272.658 31.2689 275.133 32.2061 277.471C40.3038 297.67 51.6979 319.358 63.2068 336.478C66.7269 341.714 77.1917 356.046 78.5514 357.493C78.9455 357.912 80.0444 359.262 80.9931 360.493C87.6454 369.124 107.104 389.314 115.523 396.322C117.86 398.268 121.32 401.233 123.21 402.911C128.371 407.494 140.611 416.581 151.252 423.729C156.464 427.23 161.077 430.239 161.503 430.417C161.93 430.594 165.091 432.423 168.529 434.481C171.967 436.54 180.18 440.973 186.781 444.333C193.382 447.693 199.232 450.452 199.782 450.464C202.036 450.512 226.029 437.905 239.037 429.837C261.979 415.61 278.424 402.689 296.969 384.32C312.05 369.383 323.469 355.728 334.679 339.228C339.012 332.851 347.55 319.279 347.55 318.77C347.55 318.654 348.541 316.882 349.752 314.833C351.912 311.179 359.747 295.63 362.909 288.722C368.99 275.436 376.593 254.574 380.949 239.216C381.495 237.291 382.3 234.478 382.738 232.966C384.012 228.567 385.136 224.315 385.381 222.964C385.667 221.394 386.175 219.147 387.81 212.213C389.553 204.827 389.871 203.306 390.525 199.212C390.833 197.286 391.295 194.586 391.551 193.211C391.989 190.862 393.031 184.706 394.048 178.459C394.295 176.947 394.731 173.796 395.018 171.458C395.528 167.305 395.647 166.188 396.512 157.457C396.744 155.119 397.183 150.731 397.488 147.706C399.737 125.408 400.136 110.17 399.965 53.1946L399.806 0.188396L201.033 0.0516612C173.701 0.032909 147.58 0.0229529 123.764 0.0204076ZM224.028 18.295C228.969 18.2945 230.331 18.4292 229.566 18.7501C227.303 19.6996 218.339 27.2125 213.365 32.3289C204.716 41.2252 200.498 46.9823 196.249 55.6949C189.797 68.9242 187.203 82.4303 188.501 96.0229C189.967 111.376 194.354 123.174 203.546 136.473C209.902 145.67 214.989 151.384 233.578 170.208C254.258 191.15 258.662 196.032 266.51 206.713C292.359 241.893 302.485 288.38 292.87 327.727C288.146 347.064 278.219 366.465 264.344 383.477C259.963 388.849 252.073 396.931 247.351 400.884C238.808 408.037 223.285 417.64 204.61 427.324C202.315 428.515 200.177 429.483 199.86 429.475C199.542 429.467 197.032 428.276 194.282 426.828C191.531 425.38 187.593 423.305 185.531 422.217C176.49 417.449 162.944 408.876 151.277 400.538C124.873 381.669 98.1429 354.361 81.2734 329.021C79.4565 326.292 77.6325 323.778 77.2202 323.436C76.1687 322.564 77.1939 321.993 79.8308 321.984C83.0241 321.972 93.7237 320.042 99.2706 318.478C122.903 311.812 143.654 297.361 155.585 279.26C163.879 266.677 167.707 253.934 168.367 236.716C168.918 222.329 166.244 210.529 157.319 187.96C149.882 169.154 144.315 150.361 143.022 139.705C142.822 138.055 142.363 134.342 142.004 131.454C141.645 128.566 141.351 122.04 141.352 116.952C141.353 101.795 143.56 91.606 150.018 76.9474C158.849 56.9021 176.269 36.5965 195.599 23.8162C204.031 18.2414 202.945 18.5083 217.841 18.339C220.337 18.3106 222.382 18.2952 224.028 18.295Z" fill="#2471B5"/>
</g>
<defs>
<clipPath id="clip0">
<rect y="0.0197754" width="400" height="450.444" fill="white"/>
</clipPath>
</defs>
</svg>
