<svg width="400" height="522" viewBox="0 0 400 522" fill="none" xmlns="http://www.w3.org/2000/svg">
<g clip-path="url(#clip0)">
<path d="M199.709 521.397C121.895 464.942 68.561 393.641 36.6483 303.452C7.70906 221.681 -3.90222 122.582 1.14434 0.501401L1.16528 0.0197754H398.839L398.86 0.501401C403.896 122.582 392.284 221.671 363.356 303.452C331.443 393.641 278.109 464.942 200.295 521.397L200.002 521.606L199.709 521.397Z" fill="#0085CA"/>
<path d="M119.247 117.588C128.198 109.432 139.589 100.28 152.321 91.3804C145.016 83.8576 146.082 78.2411 145.921 70.8391C145.796 65.1013 147.508 62.0067 146.691 43.8177C166.522 46.8878 178.434 60.3112 187.187 73.6174C236.417 40.702 254.152 21.3982 282.788 25.4152C312.743 29.6172 325.831 55.5454 328.185 81.2181C330.207 103.268 321.167 127.08 315.607 149.03C306.27 185.888 300.574 212.525 332.713 235.807C333.867 236.642 331.81 238.41 330.98 238.054C275.82 214.429 304.104 142.538 305.561 106.124C306.575 80.7797 299.124 62.0808 279.249 62.6088C265.378 62.9774 249.766 78.8262 230.002 92.2181C259.175 111.871 262.154 148.358 267.539 188.362C272.56 225.66 276.36 259.334 277.62 271.206C281.012 266.795 286.992 266.022 291.781 267.257C319.193 274.327 304.15 304.988 323.992 309.945C318.967 315.651 306.477 319.237 300.332 313.537C301.674 319.728 301.355 324.585 300.095 331.518C298.726 339.05 289.266 342.369 295.482 353.44C282.311 352.76 284.79 336.491 282.188 332.204C282.614 347.234 278.845 354.688 274.671 358.888C268.902 364.693 267.117 370.258 270.564 379.468C257.668 381.585 256.393 368.872 258.506 363.844C250.406 369.269 250.661 378.988 250.764 387.897C250.907 400.262 245.665 412.98 229.953 416.469C232.071 411.063 230.902 407.761 231.453 401.551C225.55 404.568 220.665 420.682 222.2 433.384C223.989 448.192 220.535 466.671 200.016 471.931C206.162 452.988 197.201 450.378 194.742 440.752C191.615 428.516 189.606 413.874 199.636 400.049C181.393 399.282 192.962 430.753 166.638 442.105C173.102 429.396 167.108 424.914 164.894 417.825C158.708 398.018 174.606 379.255 177.471 378.256C170.994 378.266 165.102 379.631 160.706 388.183C155.666 397.989 157.846 416.915 135.685 415.221C146.02 407.758 136.407 399.01 135.375 388.775C134.852 383.585 135.907 377.356 139.991 373.861C142.752 371.498 144.388 369.728 145.478 367.797C146.673 365.681 145.351 363.664 147.412 359.654C142.818 361.136 140.974 369.826 134.868 374.704C128.913 379.46 117.377 378.836 110.414 375.702C127.496 374.202 125.672 359.374 127.99 353.628C130.216 348.111 131.13 341.42 143.429 334.282C146.33 332.598 147.219 328.938 146.639 326.487C140.924 334.003 127.95 341.171 117.279 334.768C132.452 332.947 132.831 323.453 136.742 317.817C142.436 309.613 148.37 309.596 149.006 303.173C145.334 307.226 134.518 312.64 127.458 305.424C131.791 305.464 134.133 304.769 137.08 302.975C139.388 301.57 139.8 298.353 141.39 296.012C142.86 293.849 147.495 293.059 148.526 290.759C149.247 276.455 157.467 258.815 157.635 221.635C157.23 220.944 149.875 219.847 150.078 221.092C148.927 254.002 110.907 247.614 105.349 274.863C99.9212 258.325 117.109 249.858 124.356 236.604C126.882 231.983 128.2 226.781 126.931 220.452C126.47 219.595 116.733 218.724 116.461 220.788C114.487 237.968 96.4961 228.861 88.4029 254.097C81.2379 237.304 101.901 227.976 97.7833 217.981C74.0864 217.452 62.5186 208.208 61.7053 200.839C61.3102 197.259 73.3195 192.905 73.3052 190.869C72.8864 189.002 57.2857 192.836 57.8798 188.452C58.1239 186.651 59.017 182.217 62.7676 178.355C73.8026 166.99 119.899 130.527 119.899 130.527C119.899 130.527 115.54 120.97 119.247 117.588Z" fill="white"/>
<path d="M147.008 114.521C134.514 123.83 131.122 127.416 131.285 128.654" stroke="#0085CA" stroke-linecap="round"/>
<path d="M139.525 130.329C139.536 136.59 130.982 136.59 130.992 130.329C130.982 124.068 139.536 124.068 139.525 130.329Z" fill="#0085CA" stroke="#0085CA" stroke-width="1.07"/>
<path d="M282.188 332.204C281.895 331.471 281.264 330.411 280.13 329.08" stroke="black" stroke-linecap="round"/>
<path d="M300.332 313.537L299.135 312.049" stroke="black" stroke-linecap="round"/>
</g>
<defs>
<clipPath id="clip0">
<rect y="0.0197754" width="400" height="521.59" fill="white"/>
</clipPath>
</defs>
</svg>
