<svg width="400" height="522" viewBox="0 0 400 522" fill="none" xmlns="http://www.w3.org/2000/svg">
<g clip-path="url(#clip0)">
<path d="M199.709 521.397C121.895 464.942 68.561 393.641 36.6483 303.452C7.70906 221.681 -3.90222 122.582 1.14434 0.501401L1.16528 0.0197754H398.839L398.86 0.501401C403.896 122.582 392.284 221.671 363.356 303.452C331.443 393.641 278.109 464.942 200.295 521.397L200.002 521.606L199.709 521.397Z" fill="#E00E00"/>
<path fill-rule="evenodd" clip-rule="evenodd" d="M157.117 278.272L150.186 278.753C147.202 278.963 144.458 276.994 146.155 274.722C148.961 270.964 154.07 266.221 148.73 263.76C132.041 256.075 108.567 234.465 106.316 241.344L105.102 245.05C100.662 254.756 90.7052 248.882 90.0246 242.15C89.5744 237.711 94.8932 234.277 92.1187 232.151L81.6381 224.089C79.429 222.393 77.1884 215.902 83.4076 218.603L95.668 223.922C95.9612 220.938 97.605 205.536 97.605 205.536C73.1155 195.621 48.3538 183.12 32.4603 163.122C29.9056 159.908 33.3084 157.521 42.3126 162.682C45.7887 164.672 50.7934 163.551 51.1703 166.19C53.0863 179.613 75.6179 191.433 98.9033 199.244L101.479 189.088C97.0186 182.932 92.9563 175.77 90.9984 169.258C90.611 167.97 92.3176 164.358 94.5477 167.321C103.06 178.639 112.923 193.14 128.251 198.762C163.378 211.661 196.861 217.996 225.654 236.172C231.328 239.753 233.684 245.867 230.009 251.008C227.193 254.945 222.848 259.352 222.753 262.944C222.628 267.865 224.785 268.064 229.946 269.142C234.082 270.011 241.118 269.812 245.651 277.78C248.772 283.245 245.809 291.16 245.809 291.16C245.809 291.16 254.017 293.432 257.032 299.704C259.713 305.305 256.289 313.577 256.289 313.577C265.346 317.241 270.602 323.733 271.094 329.387C271.732 336.799 266.571 345.416 257.744 345.186L263.231 358.891C263.911 360.598 263.524 362.744 260.969 363.079C223.329 368.168 233.004 400.928 220.649 420.487L199.688 453.708C197.667 456.901 189.626 448.996 191.144 446.452L199.206 432.904C201.887 428.402 190.956 418.225 186.632 404.844C183.711 395.83 182.391 381.098 192.924 376.627C197.081 374.858 195.395 371.131 194.694 368.566L179.376 312.446C178.8 310.331 175.513 305.923 173.89 309.87L170.99 316.969C169.335 321.011 165.995 318.76 165.189 316.32C163.503 311.242 162.404 307.892 165.346 297.453C167.671 289.223 162.739 277.874 157.117 278.261V278.272Z" fill="#FFE000"/>
<path fill-rule="evenodd" clip-rule="evenodd" d="M105.991 201.83C121.644 210.154 133.329 220.917 144.689 235.051C147.704 238.81 153.546 238.172 156.949 236.182C161.776 233.366 156.907 225.346 154.049 223.765C137.401 214.593 122.88 205.683 108.012 194.25L105.991 201.83Z" fill="#E00E00"/>
<path fill-rule="evenodd" clip-rule="evenodd" d="M104.379 208.122L104.861 227.639L131.957 240.862C140.365 244.967 140.658 243.993 136.794 238.287C131.811 230.905 122.136 217.734 104.379 208.133V208.122Z" fill="#E00E00"/>
<path fill-rule="evenodd" clip-rule="evenodd" d="M172.215 221.754C169.325 220.99 168.665 222.686 171.366 224.362C181.009 230.329 187.218 243.134 191.616 248.6C195.175 253.029 203.991 251.207 202.473 243.249C199.583 228.11 181.093 224.11 172.204 221.754H172.215Z" fill="#E00E00"/>
<path fill-rule="evenodd" clip-rule="evenodd" d="M228.334 277.319C227.779 276.324 228.91 274.806 231.14 275.047C236.019 275.55 239.233 276.984 241.254 281.361C243.17 285.496 237.506 292.176 235.422 289.035C232.354 284.428 230.711 281.612 228.334 277.319Z" fill="#E00E00"/>
<path fill-rule="evenodd" clip-rule="evenodd" d="M240.427 299.107C239.945 298.039 241.265 296.573 243.474 297.045C248.3 298.071 249.986 298.929 251.923 303.107C253.902 307.368 248.405 314.833 246.29 311.608C244.008 308.122 242.374 303.41 240.416 299.107H240.427Z" fill="#E00E00"/>
<path fill-rule="evenodd" clip-rule="evenodd" d="M250.928 322.696C250.478 321.607 251.504 320.11 253.745 320.33C258.687 320.833 264.11 324.843 264.822 330.182C265.44 334.841 260.299 340.432 257.839 337.459C255.148 334.213 252.635 326.79 250.939 322.686L250.928 322.696Z" fill="#E00E00"/>
<path fill-rule="evenodd" clip-rule="evenodd" d="M207.572 421.335C210.64 415.639 216.943 406.792 215.613 389.987C214.733 378.91 197.573 377.298 197.186 389.903C196.903 398.897 201.499 404.268 201.646 418.822C201.719 426.318 205.53 425.114 207.572 421.335Z" fill="#E00E00"/>
<path fill-rule="evenodd" clip-rule="evenodd" d="M219.78 158.233C217.121 159.615 213.875 157.207 215.278 154.736C217.592 150.652 226.261 140.926 220.649 139.177C205.216 134.371 179.135 118.823 177.366 125.179C174.759 134.539 161.525 131.094 159.535 125.126C158.122 120.896 160.205 117.085 157.127 115.431L142.972 107.788C140.522 106.458 137.485 100.386 144.04 102.124L160.582 106.511C160.488 103.516 161.179 91.9991 161.179 91.9991C135.632 85.246 98.987 68.4415 80.6958 50.6006C77.7537 47.7318 83.5751 47.1978 93.1552 51.1869C96.8511 52.726 104.17 53.1553 105.447 55.4796C112.263 67.9076 141.642 78.3881 163.168 83.5812L166.624 73.1531C160.656 69.5304 151.473 55.2388 148.73 48.9882C148.186 47.7527 149.515 43.8788 152.007 46.622C164.781 60.6518 178.486 70.7345 194.401 74.3885C230.868 82.7646 260.791 90.6066 289.762 105.38C298.954 110.07 299.75 113.829 295.3 119.87C292.432 123.776 288.275 126.624 288.631 130.204C289.123 135.104 291.29 135.031 296.546 135.45C300.755 135.785 311.424 135.199 316.932 142.517C320.711 147.543 317.968 155.772 317.968 155.772C317.968 155.772 329.946 157.96 333.401 164.127C336.437 169.54 334.731 178.304 334.731 178.304C344.175 180.806 348.907 187.706 350.122 193.255C351.849 201.17 347.483 206.657 337.568 206.897L344.897 222.55C345.672 224.215 345.274 225.503 343.18 226.99C314.523 247.511 322.543 261.834 319.779 283.643C317.937 298.134 313.414 310.3 304.294 320.529C301.781 323.345 299.394 318.749 300.87 316.184C302.734 312.959 303.98 306.541 304.095 299.474C304.21 292.658 292.568 282.491 284.056 272.409C277.941 265.163 276.538 254.714 280.778 247.49C283.061 243.595 277.114 231.115 276.203 228.623L259.901 184.282C259.147 182.22 256.446 178.827 254.132 182.408L249.567 189.486C247.201 193.15 244.51 193.349 243.4 191.025C241.097 186.198 238.123 182.848 239.736 172.126C241.003 163.667 229.182 153.322 225.957 154.997L219.78 158.233Z" fill="#FFE000"/>
<path fill-rule="evenodd" clip-rule="evenodd" d="M172.078 85.5495C193.856 90.4181 207.666 98.2078 217.99 109.683C221.214 113.264 224.795 111.903 227.915 109.505C232.355 106.102 226.879 98.658 224.387 97.8204C210.545 93.1822 196.243 86.7536 175.052 76.6395L172.078 85.5495Z" fill="#E00E00"/>
<path fill-rule="evenodd" clip-rule="evenodd" d="M171.366 93.5906L171.136 109.348C187.009 110.405 196.023 114.771 208.221 119.703C216.723 123.148 217.456 122.99 212.692 116.53C207.289 109.212 194.976 99.035 171.356 93.5906H171.366Z" fill="#E00E00"/>
<path fill-rule="evenodd" clip-rule="evenodd" d="M238.825 94.8785C235.454 95.2763 234.836 95.7789 238.312 97.5693C249.264 103.202 254.74 110.751 260.268 117.431C265.115 123.284 273.01 118.646 272.026 110.615C270.644 99.3806 250.374 93.5174 238.825 94.8785Z" fill="#E00E00"/>
<path fill-rule="evenodd" clip-rule="evenodd" d="M295.039 143.92C294.369 142.999 295.29 141.355 297.531 141.313C302.431 141.198 309.184 142.695 311.749 146.789C314.167 150.652 308.262 158.631 305.802 155.783C302.179 151.595 297.939 147.888 295.039 143.92Z" fill="#E00E00"/>
<path fill-rule="evenodd" clip-rule="evenodd" d="M312.356 165.132C311.738 164.138 312.869 162.515 315.12 162.703C320.041 163.112 324.721 164.714 327.171 168.619C329.673 172.598 323.067 179.246 320.565 176.304C317.863 173.132 314.837 169.142 312.356 165.132Z" fill="#E00E00"/>
<path fill-rule="evenodd" clip-rule="evenodd" d="M325.904 184.795C325.318 183.78 327.119 182.314 329.37 182.261C334.343 182.136 341.191 188.177 342.562 193.391C343.766 197.935 338.877 203.317 336.06 200.689C332.982 197.809 328.103 188.669 325.904 184.806V184.795Z" fill="#E00E00"/>
<path fill-rule="evenodd" clip-rule="evenodd" d="M310.953 281.716C313.277 275.675 312.367 262.41 306.849 251.102C303.122 243.469 288.024 245.029 289.008 256.693C289.772 265.655 303.017 274.827 304.682 281.444C306.325 287.998 309.414 285.726 310.953 281.716Z" fill="#E00E00"/>
</g>
<defs>
<clipPath id="clip0">
<rect y="0.0197754" width="400" height="521.59" fill="white"/>
</clipPath>
</defs>
</svg>
