<svg width="400" height="482" viewBox="0 0 400 482" fill="none" xmlns="http://www.w3.org/2000/svg">
<g clip-path="url(#clip0)">
<path fill-rule="evenodd" clip-rule="evenodd" d="M70.6921 403.386C38.0458 378.617 0 343.401 0 272.523L0.00290358 0.0197754H399.991L399.994 272.523C399.994 343.401 361.948 378.617 329.302 403.386C286.42 435.923 199.997 481.848 199.997 481.848C199.997 481.848 113.575 435.923 70.6921 403.386Z" fill="#E00E00"/>
<path fill-rule="evenodd" clip-rule="evenodd" d="M146.832 233.153L93.66 140.472L40.4885 233.153L0.00292969 162.654V137.925L40.4885 208.276L93.66 115.594L146.832 208.276L200.003 115.594L253.175 208.276L306.346 115.594L359.518 208.276L400.003 137.925V162.654L359.518 233.153L306.346 140.472L253.175 233.153L200.003 140.472L146.832 233.153Z" fill="#FFE000"/>
<path fill-rule="evenodd" clip-rule="evenodd" d="M146.828 332.664L93.658 239.983L40.4876 332.664L0.00292969 261.869V237.139L40.4876 307.787L93.658 215.105L146.828 307.787L199.999 215.105L253.169 307.787L306.34 215.105L359.51 307.787L399.994 237.139L400.003 262.08L359.51 332.664L306.339 239.983L253.169 332.664L199.999 239.983L146.828 332.664Z" fill="#FFE000"/>
<path fill-rule="evenodd" clip-rule="evenodd" d="M146.832 282.909L93.66 190.227L40.4884 282.909L0.00292969 212.112V187.681L40.4884 258.031L93.66 165.349L146.832 258.031L200.003 165.349L253.175 258.031L306.346 165.349L359.518 258.031L400.003 187.681V212.112L359.518 282.909L306.346 190.227L253.175 282.909L200.003 190.227L146.832 282.909Z" fill="#FFE000"/>
</g>
<defs>
<clipPath id="clip0">
<rect y="0.0197754" width="400" height="481.83" fill="white"/>
</clipPath>
</defs>
</svg>
