<svg width="400" height="506" viewBox="0 0 400 506" fill="none" xmlns="http://www.w3.org/2000/svg">
<g clip-path="url(#clip0)">
<path d="M400 0.0197754H0V305.864C0 305.894 0 305.925 0 305.955C0 416.417 89.5436 505.95 199.995 505.95C310.446 505.95 400 416.407 400 305.955C400 305.925 400 305.894 400 305.864V0.0197754Z" fill="#0085CA"/>
<path d="M197.272 367.277C194.468 367.612 192.223 370.731 194.417 372.407C200.462 377.04 204.181 385.604 203.063 392.857C202.616 395.783 206.344 394.727 210.439 395.397C223.554 397.541 225.871 407.954 224.55 418.144C221.299 443.308 201.671 446.336 193.523 468.402C143.692 437.365 146.313 414.131 158.027 399.878C165.85 390.358 178.325 386.02 188.911 392.136C194.824 395.56 194.529 385.675 192.751 383.023C171.894 351.804 133.056 356.061 114.017 334.32C111.234 331.15 105.301 333.812 105.727 338.658C106.256 344.703 101.369 347.1 99.8044 352.22C97.6913 359.19 116.709 359.23 106.113 387.189C100.323 402.488 72.0595 390.307 52.9195 401.615C34.3382 368.861 47.2913 339.775 68.8289 332.928C76.9157 330.358 85.8253 334.482 88.5581 343.382C90.651 350.199 95.9134 342.904 96.4519 338.059C97.224 331.12 96.1674 326.914 93.2416 321.113C82.7166 300.215 60.3662 283.93 59.3605 231.539C58.0093 160.302 122.267 90.1424 203.388 94.4195C206.934 94.6024 206.456 89.0757 204.374 88.8929C145.907 83.7624 116.974 117.644 75.1479 94.8462C70.1394 92.2556 67.1933 96.8882 63.3124 102.506C52.8078 117.684 27.1557 93.9928 29.9495 70.5351C31.3006 59.2482 32.9769 35.7397 28.2325 30.1013C50.8369 29.9794 72.852 30.0708 87.4 45.7567C99.1949 58.7199 96.8481 76.8034 86.5364 81.1109C76.9766 85.1035 82.0765 89.2281 85.7948 90.8739C123.201 107.342 151.434 73.7353 220.354 78.0529C243.67 79.5159 265.735 87.4401 290.595 105.869C295.868 109.78 298.316 105.696 299.048 103.807C301.75 96.8069 304.534 89.2992 309.979 83.3764C313.921 79.0993 306.271 76.4275 304.909 71.551C297.564 45.1675 311.96 35.0793 332.512 33.4539C346.146 32.377 356.803 42.3838 375.628 34.4596C374.429 59.9593 370.426 79.841 363.945 92.1641C351.459 115.916 324.994 112.208 321.56 92.2759C321.845 88.8929 318.584 83.0208 314.937 87.816C303.345 103.024 310.853 127.915 314.215 134.355C328.205 161.064 336.769 195.484 336.159 225.057C335.265 268.275 316.664 308.495 280.507 336.646C276.636 339.654 279.501 343.9 286.227 343.158C293.948 342.305 294.638 347.131 297.138 350.087C303.843 358.032 306.576 341.116 320.423 343.636C342.996 347.74 330.084 379.935 330.125 400.761C330.135 404.795 333.101 405.932 332.807 411.906C290.9 418.642 273.467 400.274 273.842 381.022C274.168 364.371 279.786 361.79 285.343 356.122C292.414 348.898 263.094 346.247 252.031 352.525C232.952 363.345 215.508 365.123 197.252 367.327L197.272 367.277Z" fill="white"/>
<path d="M296.244 216.076C277.043 223.99 246.606 200.035 241.231 236.314C240.916 238.467 232.251 238.254 228.227 238.345C224.519 238.427 223.473 237.401 224.783 235.054C229.101 227.302 228.583 218.017 227.313 208.498C244.797 194.62 244.147 179.209 237.32 171.122C228.725 160.932 210.794 160.495 203.906 148.111C165.006 187.631 189.104 228.745 209.91 216.727C221.157 210.235 221.654 215.182 221.614 220.516C221.461 238.213 204.749 248.484 183.669 240.123C121.312 215.375 150.865 128.961 224.143 130.729C286.714 132.232 313.9 188.25 314.886 234.119C316.339 301.241 255.302 348.665 199.477 346.369C125.964 343.321 75.0463 300.784 75.8692 231.884C76.7836 154.836 151.322 118.649 178.305 114.586C184.533 113.651 189.064 117.156 182.094 120.59C156.087 133.411 139.07 163.025 136.063 202.016C135.545 208.68 127.824 214.593 126.594 223.442C126.036 227.495 116.75 217.712 112.219 217.661C89.889 217.407 84.7789 266.761 117.593 280.903C123.963 258.989 139.537 262.951 141.935 243.273C143.347 231.722 139.202 228.491 130.556 227.729C128.067 227.506 133.32 216.3 136.225 212.053C138.135 209.249 145.044 209.331 145.369 212.988C146.842 229.67 168.887 250.567 186.209 255.769C190.394 258.562 192.335 266.283 190.638 271.231C161.695 264.749 145.704 309.044 197.536 331.506C199.263 325.502 204.993 319.274 212.999 310.1C223.483 298.092 224.529 266.263 196.642 271.079C196.764 266.984 195.311 260.97 192.609 256.541C202.017 255.992 209.27 252.121 215.569 247.875C220.385 244.634 237.411 240.692 244.391 243.578C249.572 250.587 236.345 247.093 241.546 260.808C248.058 277.977 302.756 286.094 296.244 216.066V216.076Z" fill="#0085CA"/>
</g>
<defs>
<clipPath id="clip0">
<rect y="0.0197754" width="400" height="505.93" fill="white"/>
</clipPath>
</defs>
</svg>
