<svg width="400" height="522" viewBox="0 0 400 522" fill="none" xmlns="http://www.w3.org/2000/svg">
<g clip-path="url(#clip0)">
<path d="M199.709 521.397C121.895 464.942 68.561 393.641 36.6483 303.452C7.70906 221.681 -3.90222 122.582 1.14434 0.501401L1.16528 0.0197754H398.839L398.86 0.501401C403.896 122.582 392.284 221.671 363.356 303.452C331.443 393.641 278.109 464.942 200.295 521.397L200.002 521.606L199.709 521.397Z" fill="#32AC60"/>
<path fill-rule="evenodd" clip-rule="evenodd" d="M147.421 390.898L165.744 223.377L66.2786 239.082V144.852L165.744 160.557L147.421 45.3865C182.322 45.3865 217.222 45.3865 252.122 45.3865L233.799 160.557L333.265 144.852V239.082L233.799 223.377L252.122 390.898C217.222 390.898 182.322 390.898 147.421 390.898Z" fill="white"/>
<path d="M199.772 218.593C213.898 218.593 225.35 207.141 225.35 193.014C225.35 178.888 213.898 167.436 199.772 167.436C185.645 167.436 174.193 178.888 174.193 193.014C174.193 207.141 185.645 218.593 199.772 218.593Z" fill="#32AC60"/>
</g>
<defs>
<clipPath id="clip0">
<rect y="0.0197754" width="400" height="521.59" fill="white"/>
</clipPath>
</defs>
</svg>
