<svg width="400" height="522" viewBox="0 0 400 522" fill="none" xmlns="http://www.w3.org/2000/svg">
<g clip-path="url(#clip0)">
<path d="M200.291 521.397C278.105 464.942 331.439 393.641 363.352 303.452C392.291 221.681 403.902 122.582 398.856 0.501401L398.835 0.0197754H1.16126L1.14031 0.501401C-3.89578 122.582 7.71551 221.671 36.6443 303.452C68.557 393.641 121.891 464.942 199.705 521.397L199.998 521.606L200.291 521.397Z" fill="#CECED0"/>
<path fill-rule="evenodd" clip-rule="evenodd" d="M348.497 340.642H314.017C313.985 312.446 286.365 299.359 267.331 299.715C240.726 300.207 220.184 317.325 220.456 340.642H180C180.272 317.325 159.73 300.207 133.126 299.715C114.091 299.369 86.4712 312.457 86.4398 340.642H51.4989C84.153 413.537 132.91 472.937 199.705 521.397L199.998 521.606L200.291 521.397C267.086 472.937 315.843 413.537 348.497 340.642ZM44.483 324.161C43.3189 321.28 42.1783 318.379 41.0613 315.457L44.483 324.161ZM34.5878 297.524C24.6916 268.424 16.9418 237.16 11.3091 203.484H54.0559C52.9984 178.429 76.2733 151.239 111.934 150.443C150.244 149.595 175.184 176.576 174.765 203.484H225.702C225.283 176.576 250.223 149.595 288.533 150.443C324.194 151.239 347.469 178.429 346.411 203.484H388.695C383.065 237.139 375.32 268.384 365.43 297.464C321.167 269.854 274.954 257.929 200.228 257.929C125.617 257.929 78.7922 270.003 34.5878 297.524ZM398.856 0.501401C400.929 50.6687 400.19 96.955 396.592 139.753C343.679 110.358 280.594 97.7368 200.228 97.7368C119.987 97.7368 56.2703 110.49 3.41521 139.789C-0.187042 96.9817 -0.929827 50.684 1.14031 0.501401L1.16126 0.0197754H398.835L398.856 0.501401Z" fill="#F94E00"/>
</g>
<defs>
<clipPath id="clip0">
<rect y="0.0197754" width="400" height="521.59" fill="white"/>
</clipPath>
</defs>
</svg>
