<svg width="400" height="475" viewBox="0 0 400 475" fill="none" xmlns="http://www.w3.org/2000/svg">
<g clip-path="url(#clip0)">
<path d="M399.235 2.93987L399.03 0.0197754H1.16928L0.950284 2.93987C0.833481 4.57511 -10.4891 167.194 48.2264 282.428C86.0335 354.553 136.844 419.071 198.099 472.73L200.012 474.292L201.983 472.832C265.601 421.027 317.216 356.031 353.265 282.333C409.418 164.026 399.337 4.53861 399.235 2.93987Z" fill="#005850"/>
<path d="M212.838 181.905C212.159 182.299 209.918 184.504 203.918 190.074C197.391 196.148 180.44 213.011 168.147 226.436C153.21 242.781 132.952 265.857 132.952 299.511V400.254C132.952 400.254 148.677 419.03 167.621 437.974C187.623 457.984 200.056 468.292 200.056 468.292V231.889C199.989 217.831 202.639 203.893 207.86 190.84C210.05 186.541 212.028 183.912 212.868 182.489C212.947 182.361 213.015 182.227 213.072 182.087C213.181 181.876 213.087 181.759 212.838 181.905Z" fill="white"/>
<path d="M233.381 4.61981V136.104C233.709 144.541 232.792 152.981 230.658 161.151C228.949 166.646 226.352 171.825 222.971 176.481C222.416 177.16 222.628 177.467 223.285 176.875C224.92 175.415 228.76 171.429 233.972 166.086C240.769 159.121 243.462 154.624 243.462 129.285V4.61981H233.381Z" fill="white"/>
<path d="M293.893 4.61981V80.739C294.549 90.1684 293.275 99.6327 290.148 108.553C290.279 108.429 293.885 104.713 296.506 101.983C301.39 96.9235 303.967 92.4923 303.967 73.3804V4.61981H293.893Z" fill="white"/>
<path d="M273.737 4.61981V101.369C274.394 110.799 273.118 120.264 269.984 129.183C270.123 129.059 273.729 125.336 276.343 122.613C281.234 117.554 283.811 113.123 283.811 94.0107V4.61981H273.737Z" fill="white"/>
<path d="M253.581 4.61981V121.971C254.231 131.4 252.954 140.864 249.828 149.784C249.967 149.653 253.573 145.937 256.187 143.214C261.071 138.155 263.648 133.724 263.648 114.605V4.61981H253.581Z" fill="white"/>
</g>
<defs>
<clipPath id="clip0">
<rect y="0.0197754" width="400" height="474.27" fill="white"/>
</clipPath>
</defs>
</svg>
