<svg width="400" height="522" viewBox="0 0 400 522" fill="none" xmlns="http://www.w3.org/2000/svg">
<g clip-path="url(#clip0)">
<path d="M199.709 521.397C121.895 464.942 68.561 393.641 36.6483 303.452C7.70906 221.681 -3.90222 122.582 1.14434 0.501401L1.16528 0.0197754H398.839L398.86 0.501401C403.896 122.582 392.284 221.671 363.356 303.452C331.443 393.641 278.109 464.942 200.295 521.397L200.002 521.606L199.709 521.397Z" fill="#0085CA"/>
<path fill-rule="evenodd" clip-rule="evenodd" d="M0.70459 99.6737C36.732 56.1602 75.7749 40.319 124.23 37.8376C150.049 36.5184 197.165 45.8053 225.486 66.4941C252.761 86.4186 269.136 118.467 270.413 146.841C271.931 180.67 264.613 223.953 199.761 219.818C166.969 216.237 136.491 234.402 136.773 276.146C137.14 332.004 179.062 379.947 251.033 385.841C278.276 388.071 323.036 376.135 334.5 367.592C361.314 318.466 392.054 236.046 398.169 113.766C384.327 185.298 336.762 277.905 271.785 289.6C233.59 296.479 185.826 276.073 199.761 219.818C215.665 174.283 180.538 152.108 136.773 151.856C79.8058 151.532 32.2299 235.407 39.5694 311.577C14.4308 243.878 3.5315 172.744 0.70459 99.6737Z" fill="white"/>
<path fill-rule="evenodd" clip-rule="evenodd" d="M397.582 113.777C397.697 113.211 397.75 112.814 397.781 112.185L397.97 113.662L397.582 113.777Z" fill="black"/>
<path d="M38.0624 302.952L36.6483 303.452L38.0623 302.952C9.28278 221.632 -2.33777 123.042 2.60385 1.51978H397.4C402.331 123.042 390.711 221.622 361.942 302.952C330.211 392.626 277.251 463.547 200.002 519.756C122.753 463.547 69.7928 392.626 38.0624 302.952Z" stroke="#0085CA" stroke-width="3"/>
</g>
<defs>
<clipPath id="clip0">
<rect y="0.0197754" width="400" height="521.59" fill="white"/>
</clipPath>
</defs>
</svg>
