<svg width="400" height="524" viewBox="0 0 400 524" fill="none" xmlns="http://www.w3.org/2000/svg">
<g clip-path="url(#clip0)">
<path d="M199.839 0.0197754H1.94969C0.412955 15.6738 0.14447 32.9712 0 48.7485C0.672673 78.8584 0.0620201 109.064 3.43576 139.041C8.0663 190.087 17.6284 241.27 38.4541 288.377C62.7422 344.992 93.983 398.729 132.572 446.815C153.915 473.556 176.859 499.098 201.022 523.271C211.45 514.977 220.581 505.054 230.187 495.807C293.456 432.424 343.455 354.937 370.654 269.34C385.301 223.234 393.538 175.289 398.311 127.218C400.892 98.1802 399.79 68.9766 399.63 39.8647C399.144 26.6077 399.585 13.1096 397.728 0.0197754H199.839Z" fill="white"/>
<path d="M199.839 0.0197754L1.94969 0.0197791C0.412955 15.6738 0.14447 32.9712 0 48.7485C0.672672 78.8584 0.0620192 109.064 3.43576 139.041C8.0663 190.087 17.6284 241.27 38.4541 288.377C62.7422 344.992 93.983 398.729 132.573 446.815C153.915 473.556 176.859 499.098 201.023 523.271C211.45 514.977 220.582 505.054 230.187 495.807C293.456 432.424 343.455 354.937 370.654 269.34C385.301 223.234 393.539 175.289 398.311 127.218C400.892 98.1802 399.79 68.9766 399.63 39.8647C399.145 26.6077 399.585 13.1096 397.729 0.0197754H199.839ZM137.165 59.9394C139.15 69.2411 137.958 79.1182 139.598 88.45C148.589 90.5897 158.361 90.2202 167.157 92.3324C163.379 101.76 157.179 110.186 153.28 119.467C160.319 124.89 169.043 127.966 176.213 133.201C163.915 139.62 150.819 144.879 137.762 149.671C135.311 151.162 132.793 150.07 131.003 148.14C117.019 134.509 108.412 114.882 109.487 95.232C109.629 93.7423 109.69 90.7327 111.703 91.4152C111.478 88.8199 114.604 86.7855 115.78 84.6015C122.732 76.2624 129.579 67.6587 137.165 59.9394ZM304.743 89.9271C309.701 89.3167 310.309 95.3333 312.098 98.5544C313.563 101.228 315.36 104.509 318.198 105.643C330.085 106.217 342.089 105.6 353.907 107.031C356.763 107.824 355.944 111.483 354.143 113.025C351.839 116.525 346.749 119.857 348.555 124.646C350.918 131.931 352.844 139.712 352.011 147.324C350.309 146.758 348.79 143.952 346.946 144.628C345.149 157.711 345.806 171.053 345.476 184.244C344.887 189.275 347.073 195.194 343.092 199.158C340.247 203.032 335.152 206.138 330.308 204.05C325.144 202.406 317.162 202.393 315.382 196.022C313.487 187.895 314.16 178.749 308.804 171.727C306.291 168.245 304.573 163.566 300.885 161.227C298.824 164.295 298.968 168.663 297.801 172.187C295.699 184.048 291.34 195.399 289.334 207.258C290.207 219.325 291.47 231.394 292.96 243.397C293.16 245.764 294.547 248.004 297.209 248.033C308.267 252.244 319.765 255.628 330.386 260.813C334.604 264.09 332.725 270.294 333.221 274.872C332.936 279.201 333.819 283.895 330.736 287.355C324.72 296.044 319.16 305.127 312.711 313.47C302.762 317.681 292.469 321.348 281.99 323.987C278.13 323.58 277.573 318.336 279.408 315.618C281.089 312.338 282.168 308.118 285.239 305.886C290.262 304.802 295.472 305.345 300.552 305.022C308.243 297.636 313.237 287.349 315.015 277.028C303.551 276.729 291.832 278.463 280.528 276.21C276.115 274.491 271.472 271.774 266.585 273.594C262.117 274.667 261.864 280.326 260.135 283.769C252.993 305.721 247.466 328.207 243.479 350.943C245.048 357.138 245.655 363.837 247.772 369.745C252.841 375.474 259.215 380.249 263.258 386.802C264.055 389.528 259.654 389.355 258.068 389.671C252.665 389.883 247.046 390.973 241.737 389.743C237.637 386.959 239.702 380.85 237.517 377.013C234.227 375.111 229.437 373.367 229.601 368.74C228.525 349.193 229.662 329.572 229.247 309.996C228.79 294.311 229.554 278.415 226.727 262.916C221.162 238.239 203.37 218.695 185.235 202.084C173.801 191.41 159.932 183.854 148.067 173.764C146 172.109 149.362 170.331 150.907 170.765C170.651 167.699 192.368 167.82 209.272 155.68C213.288 150.748 214.212 144.008 217.686 138.68C228.802 118.898 247.869 104.122 268.986 96.2901C280.43 92.153 292.6 90.2405 304.743 89.9271ZM95.8431 104.311C95.5829 111.243 94.936 118.475 95.0892 125.538C94.7292 135.198 95.5523 144.962 99.1315 154.025C104.721 170.337 115.466 185.036 130.307 194.069C152.727 207.973 174.171 224.431 190.022 245.751C198.368 257.546 204.04 271.458 204.028 286.055C204.469 308.989 199.182 331.992 189.757 352.845C182.74 367.086 171.374 378.703 159.323 388.796C158.288 389.958 156.234 388.889 157.633 387.414C163.598 371.824 167.488 355.343 167.427 338.579C167.754 326.804 167.417 314.636 162.305 303.767C157.327 292.417 149.276 282.275 139.264 274.965C132.795 270.436 124.53 269.931 117.034 271.688C105.241 273.306 93.5119 276.203 81.6145 276.607C74.4685 276.619 65.907 271.457 66.3328 263.494C65.7983 256.057 68.1438 247.69 63.223 241.231C61.9019 238.38 57.2936 234.994 60.3913 231.782C63.3192 229.713 62.4293 228.345 59.5264 227.322C56.5818 225.524 55.2557 221.641 57.078 218.528C57.3697 215.995 60.615 211.858 57.5354 209.956C53.8236 208.26 47.5498 207.51 47.1431 202.401C46.9038 197.106 51.8975 193.422 54.2927 189.148C58.9856 181.99 65.1747 175.488 68.1331 167.359C69.6141 156.824 66.6842 145.596 71.5896 135.657C76.2886 123.219 85.0859 112.511 95.492 104.405C95.6014 104.364 95.7203 104.29 95.8431 104.311Z" fill="#128A9C"/>
</g>
<defs>
<clipPath id="clip0">
<rect y="0.0197754" width="400" height="523.25" fill="white"/>
</clipPath>
</defs>
</svg>
