<svg width="400" height="522" viewBox="0 0 400 522" fill="none" xmlns="http://www.w3.org/2000/svg">
<g clip-path="url(#clip0)">
<path d="M199.709 521.397C121.895 464.942 68.561 393.641 36.6483 303.452C7.70906 221.681 -3.90223 122.582 1.14434 0.501397L1.16528 0.0197754H398.839L398.86 0.501397C403.896 122.582 392.284 221.671 363.356 303.452C331.443 393.641 278.109 464.942 200.295 521.397L200.002 521.606L199.709 521.397Z" fill="#0085CA"/>
<path d="M74.686 279.57L74.6127 261.541C74.6023 258.358 70.3095 260.577 66.5403 261.949C65.5876 262.295 58.7401 254.641 59.2532 253.814C60.8027 251.311 66.6241 249.762 64.8442 248.432C60.7923 245.406 59.3369 247.155 55.5468 247.5C54.8662 237.135 47.3173 218.718 52.9293 216.279C65.9854 210.604 82.57 219.399 100.746 223.22L88.0039 196.124C69.5452 197.558 42.6686 195.485 38.1351 202.552C29.2565 216.404 45.3385 236.256 49.715 262.923C51.1912 271.927 74.6965 283.842 74.6756 279.56L74.686 279.57Z" fill="white" stroke="#0085CA"/>
<path d="M223.968 230.926C236.982 221.953 247.4 225.838 252.823 235.596C244.018 245.637 232.176 267.446 227.193 269.236L200.525 277.56L198.85 282.502C198.609 283.203 196.348 282.763 195.981 283.852C195.123 286.376 194.568 289.391 193.155 287.109C191.176 283.936 192.474 282.502 190.485 283.057C186.684 284.125 183.627 286.428 185.941 296.668L167.545 309.399C166.362 303.913 170.78 299.39 169.817 294.197C168.498 287.088 175.073 277.874 184.119 273.738C200.63 266.179 224.156 260.787 223.978 230.947L223.968 230.926Z" fill="white" stroke="#0085CA"/>
<path d="M276.999 340.506C284.338 340.694 300.242 340.506 300.242 340.506C304.493 331.763 299.227 328.088 301.593 324.194C303.08 321.733 307.111 323.188 309.068 325.282C310.943 324.884 312.555 321.063 310.89 318.676C312.597 318.404 314.89 319.545 315.947 317.786C304.65 290.668 310.922 280.565 311.874 262.797C312.377 253.489 298.902 248.307 298.693 234.978C298.399 215.881 306.974 206.856 308.786 191.59C309.435 186.125 311.34 174.472 310.252 168.912C307.791 156.285 321.109 152.809 329.14 155.458C344.677 160.578 345.975 178.712 339.149 191.894C334.416 201.055 326.135 210.415 328.26 232.581C329.045 240.8 331.234 249.437 330.176 262.671C331.998 258.787 333.725 255.562 333.464 249.626C332.72 232.999 333.129 216.97 339.055 213.075C335.495 230.738 339.013 238.747 340.698 249.751C341.295 253.678 341.557 257.269 340.583 261.164C347.598 252.338 342.583 242.852 342.939 234.486C343.368 224.487 348.069 215.462 352.278 213.19C348.09 228.183 349.493 233.313 350.959 237.418C352.865 242.736 352.886 246.705 354.833 249.762C352.896 206.521 374.37 202.825 374.611 180.241C375.187 126.121 320.889 123.169 301.823 156.034C255.378 121.891 228.512 163.353 178.444 145.365C172.832 143.355 167.377 134.455 168.99 129.744C171.031 123.776 176.025 116.195 177.146 109.296C180.538 88.5336 175.963 61.2172 156.886 51.3021C144.27 44.7478 112.347 46.8 76.9055 53.7521C68.2154 55.4587 55.5362 56.3905 44.7939 58.7986C37.58 60.4215 37.0251 68.8499 38.3234 74.6817C55.243 73.1112 54.1332 77.739 53.9238 80.6078C53.5887 85.3612 47.9872 84.021 41.9356 83.9791C42.3125 87.4028 43.4223 89.9994 46.8146 90.8265C55.599 90.7218 63.284 88.4917 72.2568 90.125C77.2824 97.7368 86.0563 101.872 94.8198 99.6947C86.8625 114.489 85.0093 136.706 86.9463 155.291C89.8779 183.329 80.0884 215.839 106.19 228.12C108.295 243.48 116.105 255.206 120.88 276.9C121.456 279.497 123.749 280.994 124.063 284.02C124.806 291.359 126.848 303.85 125.309 309.85C123.089 318.571 115.32 323.523 113.551 326.151C112.587 327.575 113.708 328.926 112.074 330.465C108.651 333.69 106.787 337.595 106.389 340.527H132.303C131.894 337.386 131.831 333.041 130.491 329.69C129.078 326.13 134.92 320.655 136.449 322.34C136.836 322.77 139.799 325.774 140.396 325.439C141.307 324.926 138.606 321.796 138.972 320.11C139.433 318.006 143.631 318.739 142.417 316.268C141.045 313.462 138.784 310.153 136.658 308.447C132.899 267.53 139.694 269.655 139.003 239.271C138.972 237.962 140.333 234.675 141.558 235.072C169.984 244.202 197.866 235.9 222.952 230.78C226.282 230.099 229.957 233.826 233.171 233.125C235.778 232.56 238.333 228.539 240.846 228.068C261.032 244.307 288.61 257.635 291.447 265.331C297.562 281.895 299.907 298.228 296.368 310.792C294.714 316.676 291.458 318.383 287.5 322.382C285.333 324.581 285.123 328.193 283.867 330.58C282.014 334.088 278.056 334.36 277.009 340.537L276.999 340.506Z" fill="white" stroke="#0085CA" stroke-linejoin="round"/>
<path d="M116.043 51.1241C117.016 45.9519 117.058 40.7273 120.545 37.0523C124.649 38.9474 127.79 44.9258 128.659 49.3756" fill="white"/>
<path d="M116.043 51.1241C117.016 45.9519 117.058 40.7273 120.545 37.0523C124.649 38.9474 127.79 44.9258 128.659 49.3756" stroke="#0085CA"/>
<path d="M115.854 47.7004C110.787 39.3034 83.2714 37.1361 75.9528 49.3442C80.6434 49.4698 83.3552 49.7734 86.6951 49.8363C80.3607 53.417 78.7379 53.4798 74.6127 64.8713C80.1932 61.1439 86.3601 58.1914 91.9092 55.9822C90.2968 60.4215 88.496 70.7973 90.3596 75.0691C99.0184 60.6518 120 54.5897 115.854 47.7004Z" fill="white" stroke="#0085CA" stroke-linejoin="round"/>
<path d="M46.532 68.5672C45.9318 69.2303 45.2248 69.7184 44.5541 69.9327C43.8834 70.147 43.2992 70.0714 42.9198 69.7213C42.5405 69.3713 42.3943 68.7728 42.511 68.0472C42.6276 67.3217 42.9983 66.5232 43.5481 65.8136C43.8447 65.4306 44.1845 65.0853 44.5462 64.7992C44.9079 64.5131 45.2839 64.2922 45.6508 64.1501C46.0178 64.0081 46.3679 63.948 46.6795 63.9736C46.9911 63.9992 47.2576 64.1099 47.4623 64.2988C47.6671 64.4878 47.8058 64.7509 47.8698 65.072C47.9339 65.3931 47.9219 65.7652 47.8347 66.1654C47.7475 66.5656 47.5868 66.9852 47.3628 67.3984C47.1387 67.8115 46.8559 68.2093 46.532 68.5672V68.5672Z" stroke="#0085CA"/>
<path d="M128.282 49.0091C146.626 54.1395 157.504 72.2945 162.823 91.6327C166.466 104.888 166.917 118.855 168.78 130.121" stroke="#0085CA"/>
</g>
<defs>
<clipPath id="clip0">
<rect y="0.0197754" width="400" height="521.59" fill="white"/>
</clipPath>
</defs>
</svg>
