<svg width="400" height="490" viewBox="0 0 400 490" fill="none" xmlns="http://www.w3.org/2000/svg">
<g clip-path="url(#clip0)">
<path d="M399.49 0.303199L400 3.59091C396.712 171.944 367.01 329.131 242.7 445.731L195.822 489.662C101.669 407.016 33.307 304.586 15.2812 186.569C3.52743 125.115 -1.47164 62.5603 0.373181 0.0197754L399.49 0.303199Z" fill="#00A651"/>
<path d="M49.1788 115.543C82.7928 114.466 121.565 113.956 136.076 147.4C136.927 158.283 136.076 168.203 128.197 175.742L112.949 183.168C126.963 207.797 133.391 236.015 131.428 264.284H134.773C151.778 243.707 179.667 227.439 186.526 202.441C193.611 203.008 202.624 201.704 202.737 193.655C203.928 169.053 217.079 140.371 201.207 118.434C193.256 126.215 182.822 130.95 171.731 131.812C166.647 130.582 161.977 128.032 158.195 124.419C154.413 120.806 151.651 116.258 150.191 111.235C139.477 78.2446 164.419 55.344 172.695 28.3621C197.126 42.8167 237.825 41.3996 242.587 78.8114C241.907 96.327 228.076 108.458 212.374 113.956C221.047 143.375 210.277 173.531 207.159 202.327L208.973 204.708C231.253 189.11 255.597 176.69 281.302 167.806C269.625 158.227 261.236 143.489 266.621 126.993C270.448 117.443 277.376 109.457 286.291 104.32C315.2 98.9912 337.76 114.353 365.649 114.183C354.312 145.756 353.462 186.456 316.9 202.101C307.377 204.821 300.859 198.643 294.227 192.861C289.068 187.589 290.599 180.05 285.44 174.779C258.969 174.779 238.902 190.82 218.382 205.728C220.99 224.661 200.3 217.802 193.044 229.082C186.809 237.528 177.286 244.047 174.338 253.967C190.026 256.002 204.669 262.947 216.172 273.807C221.5 265.814 227.509 253.627 238.846 252.323C248.331 251.976 257.637 254.965 265.147 260.769C295.587 288.091 270.022 328.791 265.147 359.627C238.846 344.209 193.214 359.627 184.712 318.984C184.124 309.97 186.089 300.972 190.38 293.023C195.255 283.16 209.823 289.962 211.354 278.625C200.017 268.082 186.979 259.862 171.674 263.037C167.253 276.698 155.462 269.952 145.033 273.126C128.027 288.998 116.293 307.137 103.766 324.709C97.134 326.977 89.5949 325.503 81.9992 325.843C86.4206 312.692 102.179 301.525 108.924 287.411C113.232 281.743 108.187 267.968 120.261 269.555C125.93 241.723 122.812 210.433 104.106 192.237C103.606 196.484 102.073 200.543 99.6427 204.061C97.2119 207.578 93.9569 210.447 90.1618 212.417C78.3147 216.102 67.9414 210.773 59.4954 204.028C41.8098 180.22 51.6729 144.849 48.1584 115.486L49.1788 115.543Z" fill="#AA822C"/>
</g>
<defs>
<clipPath id="clip0">
<rect y="0.0197754" width="400" height="489.64" fill="white"/>
</clipPath>
</defs>
</svg>
