<svg width="400" height="486" viewBox="0 0 400 486" fill="none" xmlns="http://www.w3.org/2000/svg">
<g clip-path="url(#clip0)">
<path d="M210.487 24.8236C211.152 18.9329 211.256 12.9922 210.798 7.08183C211.936 5.21428 210.591 2.62045 211.936 0.752903C220.686 0.231884 229.467 0.684238 238.118 2.10169C239.463 9.98691 236.772 18.4946 238.118 26.1724L260.781 28.6624C260.982 28.7336 261.201 28.7336 261.402 28.6624C262.107 20.5899 263.562 12.6009 265.748 4.79926C274.753 5.33533 283.653 7.00859 292.24 9.7794C291.412 17.5609 289.032 25.4461 289.032 33.1238L310.867 37.2739C313.558 29.8037 313.558 20.4659 316.559 13.9295C323.189 14.9212 329.755 16.307 336.221 18.0796L342.223 19.9472C343.361 27.6249 338.084 36.0289 338.084 44.0178C338.252 43.9624 338.433 43.9624 338.601 44.0178C346.259 45.8854 353.917 49.2055 361.264 50.243C364.034 42.9285 367.319 35.8208 371.095 28.9737C380.961 31.7147 390.611 35.1825 399.967 39.349C400.081 40.1149 399.896 40.8953 399.45 41.5278C384.859 60.6183 372.233 80.5389 358.056 100.044C355.055 101.497 351.019 98.3843 347.708 98.3843V333.488C348.42 348.656 347.866 363.857 346.052 378.932C331.047 424.687 277.856 432.884 240.394 453.634C224.442 460.661 210.575 471.705 200.139 485.694H199.001L198.69 485.383L197.034 483.005C186.4 469.532 172.14 458.401 156.355 451.516L152.95 450.107L89.1001 418.981C70.1139 407.855 56.641 389.268 51.9492 367.727C46.9819 338.676 50.5004 309.106 49.4656 279.848V99.3181C46.4645 99.6294 43.153 100.771 40.152 101.289C34.4603 97.9693 33.0115 91.9517 29.8035 87.594C19.9725 71.4086 8.48572 55.8457 0 39.1415C4.23577 36.6888 8.70843 34.6727 13.3495 33.1238C19.3711 30.5883 25.5604 28.4736 31.8732 26.7949C33.2185 27.3136 33.2185 28.3512 33.7359 29.4924C35.0812 34.2651 37.2544 39.4527 38.5997 44.6404C39.1171 45.5741 39.4276 46.7154 39.945 47.5454L58.7792 42.3578C57.7443 34.7838 54.4328 27.3136 53.9154 19.9472C62.9083 16.9295 72.1082 14.5715 81.4422 12.892C85.5816 19.2209 84.7538 27.6249 87.2374 34.7838C88.0653 35.6139 88.0653 35.6139 88.0653 35.6139L101.725 33.2275L109.073 31.8788C108.762 24.5123 105.761 16.6271 105.761 8.63812C106.485 7.60059 107.934 7.60059 109.28 7.60059C117.455 6.14805 125.423 4.90302 133.598 4.2805C137.427 10.8169 135.254 20.9847 138.255 28.0399L158.228 25.8611V1.79043C167.586 0.957035 176.985 0.679876 186.375 0.960408C187.514 8.94938 186.375 17.1459 187.514 24.8236H210.487ZM332.702 98.3843C289.815 86.7889 245.593 80.8937 201.174 80.8501L197.034 80.854C185.806 80.854 160.297 82.5102 147.672 83.5477C132.977 85.0002 119.111 86.5565 104.623 89.0466C90.0709 91.3227 75.6626 94.4405 61.4698 98.3843H332.702Z" fill="#1D1D1B"/>
<path d="M160.298 417.528C160.298 417.528 160.298 416.387 160.298 416.179C160.298 415.972 160.919 416.179 161.126 415.349C161.126 413.171 160.298 410.162 161.954 408.19C162.66 406.147 164.262 404.541 166.3 403.833C169.454 403.055 172.678 402.603 175.924 402.484C177.569 402.217 179.246 402.217 180.891 402.484C181.719 401.965 180.891 401.135 180.891 400.305C180.891 399.475 179.339 400.305 178.511 400.305C176.931 400.063 175.316 400.279 173.854 400.928C173.337 400.928 172.509 400.928 171.681 400.928C169.562 401.436 167.537 402.276 165.679 403.418C164.334 403.418 163.506 404.767 162.368 405.908C161.229 407.049 161.85 407.257 161.54 407.879C161.229 408.502 161.54 407.879 160.712 408.398L159.366 411.199C158.539 413.378 159.366 415.349 159.366 417.528L159.884 418.047L160.298 417.528Z" fill="#DADADA"/>
<path d="M200.139 468.159C228.7 439.212 272.578 429.771 309.211 409.539C309.38 409.49 309.56 409.49 309.729 409.539C308.556 407.587 306.966 405.921 305.072 404.663C279.701 383.041 247.51 371.131 214.212 371.047C210.938 370.859 207.656 370.859 204.381 371.047C203.333 370.749 202.222 370.749 201.173 371.047L188.341 370.424C186.996 371.254 185.651 370.424 184.202 370.424C176.39 370.521 168.601 371.285 160.918 372.707C154.484 373.968 148.126 375.596 141.877 377.583C137.737 379.243 133.391 381.111 129.045 382.771C124.577 384.756 120.284 387.116 116.213 389.826C108.404 394.542 101.089 400.034 94.3774 406.219C93.0321 406.841 93.0321 407.049 92.7217 407.879C120.559 422.923 150.88 436.618 178.407 452.181C185.99 456.758 192.947 462.303 199.104 468.678L200.139 468.159Z" fill="#009BDF"/>
<path d="M199 445.127C203.45 445.127 206.348 442.118 209.349 441.495C211.315 443.674 214.006 443.155 216.386 443.467C218.766 443.778 221.663 442.429 224.044 441.495C226.901 439.787 229.484 437.653 231.701 435.166C232.84 433.195 235.013 433.818 236.669 432.78C239.359 434.129 242.671 431.639 245.154 430.601C251.484 426.906 255.874 420.608 257.159 413.378C258.587 405.405 255.901 397.248 250.018 391.694C242.622 386.064 233.878 382.485 224.664 381.319C219.983 380.486 215.241 380.035 210.487 379.97C190.515 378.932 156.468 384.743 150.156 391.487C147.465 392.628 146.844 394.495 145.292 396.674C142.352 402.909 141.378 409.894 142.498 416.698C144.682 423.669 149.893 429.276 156.675 431.95C158.779 432.812 161.026 433.27 163.298 433.299C163.298 433.299 163.816 433.818 163.816 434.129C163.816 434.44 163.816 434.129 164.333 434.129L167.334 436.515C169.714 437.345 171.68 438.694 174.371 439.524C178.733 441.726 183.876 441.726 188.238 439.524C189.891 440.954 191.737 442.142 193.723 443.052C195.068 444.712 197.034 443.882 198.586 444.712" fill="#1D1D1B"/>
<path d="M200.138 443.259C203.426 442.998 206.511 441.562 208.831 439.213C210.319 439.242 211.719 439.925 212.66 441.08C215.464 441.614 218.342 441.614 221.146 441.08C225.272 440.169 228.94 437.815 231.494 434.44C232.565 432.988 234.164 432.018 235.944 431.743C239.208 431.484 242.365 430.453 245.154 428.734C250.348 425.417 254.057 420.21 255.503 414.208C257.111 407.035 255.055 399.529 250.018 394.184C229.321 380.178 201.173 380.8 177.579 384.328C167.23 387.129 155.226 389.308 149.741 396.882C147.069 399.687 145.522 403.38 145.395 407.257C144.547 413.348 146.357 419.511 150.362 424.169C150.801 424.914 151.361 425.58 152.018 426.14C155.704 428.994 159.984 430.98 164.54 431.95C165.955 432.178 167.222 432.962 168.058 434.129L169.921 435.478C174.785 438.175 182.236 442.014 187.927 439.005C187.927 438.487 187.927 437.864 188.755 437.864H189.893C190.721 437.864 190.928 439.317 192.067 439.524C193.205 439.732 195.585 441.184 196.93 442.533C198.276 443.882 199.104 442.533 200.449 443.363" fill="#009BDF"/>
<path d="M198.172 439.213C200.191 439.083 202.197 438.806 204.174 438.382C205.73 437.893 207.197 437.157 208.521 436.204L210.384 437.552C213.178 437.552 215.351 439.731 218.248 438.486C222.61 437.288 226.507 434.792 229.425 431.327C231.166 431.631 232.951 431.136 234.288 429.979L236.151 427.177C238.324 421.16 244.637 414.934 240.498 408.087C240.1 407.229 239.822 406.322 239.67 405.389C237.771 403.128 235.451 401.26 232.84 399.89C228.094 397.096 222.434 396.312 217.11 397.711L212.971 393.042C206.084 389.803 198.278 389.104 190.928 391.071C188.116 391.969 185.773 393.946 184.409 396.57C184.677 397.343 184.677 398.184 184.409 398.956C183.54 397.475 182.187 396.339 180.58 395.74C179.093 395.053 177.433 394.836 175.82 395.118C172.685 394.931 169.553 395.537 166.713 396.881C162.404 399.025 158.809 402.377 156.365 406.53C154.636 411.99 155.236 417.922 158.02 422.923C161.021 428.111 166.506 429.771 170.852 432.261C171.68 434.44 174.164 434.959 176.027 435.789C179.705 436.943 183.565 437.4 187.41 437.137L189.79 436.1C192.272 437.594 194.909 438.812 197.655 439.731L198.172 439.213Z" fill="#1D1D1B"/>
<path d="M218.87 436.722L220.733 434.855L228.08 429.045C228.908 428.215 230.15 429.045 231.598 428.215C233.047 427.385 232.426 428.215 232.737 428.215C235.427 426.555 235.427 422.716 237.6 420.226C237.6 420.226 237.083 420.745 236.773 420.745C236.466 420.749 236.203 420.529 236.152 420.226C237.249 416.61 237.066 412.724 235.634 409.228C235.634 409.228 234.599 409.228 234.599 408.19V407.36C232.703 406.103 230.694 405.026 228.597 404.144C225.331 402.773 221.757 402.307 218.249 402.795C218.249 402.795 218.249 402.795 217.731 402.795C217.214 402.795 217.731 402.795 217.731 402.173C217.731 401.55 218.249 401.135 218.766 400.824C224.513 400.323 230.263 401.746 235.117 404.87C238.52 407.775 240.068 412.312 239.153 416.698C239.288 417.137 239.288 417.608 239.153 418.047C240.498 416.491 239.981 413.689 239.67 411.511C239.67 411.511 239.67 410.68 239.67 410.473C239.67 410.265 237.187 407.983 237.807 406.012C232.838 400.982 225.715 398.731 218.766 399.994C218.506 400.124 218.199 400.124 217.938 399.994C217.134 400.647 216.708 401.658 216.8 402.692C217.155 412.905 214.722 423.021 209.763 431.95V432.78C210.798 433.817 212.454 434.44 213.903 435.685C215.351 436.93 217.731 435.685 219.077 436.515" fill="#DADADA"/>
<path d="M198.69 435.27C201.979 435.575 205.244 434.484 207.693 432.261V429.771L209.349 427.074C211.56 423.1 212.967 418.728 213.488 414.208C214.614 409.097 214.79 403.821 214.006 398.645C213.488 397.815 213.178 396.155 212.143 395.844C206.105 392.907 199.294 391.963 192.688 393.147C191.585 393.379 190.51 393.726 189.48 394.184C187.609 395.479 186.311 397.45 185.858 399.683C185.608 404.816 185.886 409.962 186.686 415.038C186.965 420.248 188.685 425.278 191.653 429.564C191.604 426.516 191.987 423.477 192.791 420.537C192.791 420.537 193.826 420.537 194.137 420.537V423.546C197.759 424.169 201.795 422.509 204.485 424.376C204.441 424.546 204.441 424.725 204.485 424.895C204.229 425.437 203.728 425.823 203.14 425.932C200.76 424.376 197.655 425.932 194.965 425.414C194.137 425.414 193.93 425.414 193.309 425.414C192.274 427.385 193.309 429.564 193.309 431.743C193.143 432.213 193.143 432.725 193.309 433.195L194.447 433.714V428.838C194.615 428.893 194.796 428.893 194.965 428.838C195.716 430.457 195.933 432.274 195.585 434.025L198.69 435.27Z" fill="#DADADA"/>
<path d="M182.133 434.544C185.065 434.789 187.963 433.77 190.101 431.743C190.619 431.743 191.24 431.743 191.24 432.573C191.134 433.016 191.134 433.478 191.24 433.922H191.757C191.662 433.653 191.662 433.36 191.757 433.092C189.714 430.945 188.129 428.403 187.1 425.621C186.247 425.242 185.247 425.45 184.617 426.14C183.957 427.163 182.83 427.786 181.615 427.8C181.615 427.8 181.098 427.8 180.788 426.97L185.444 423.65C185.444 423.65 185.962 423.65 186.272 423.65L184.099 410.785C183.271 410.785 182.443 412.133 181.409 411.615C180.374 411.096 181.409 410.577 181.409 410.266C182.145 409.586 182.983 409.026 183.892 408.606C184.408 405.968 184.408 403.255 183.892 400.617C183.064 399.787 182.547 398.957 181.719 398.646L181.098 398.127C175.615 395.863 169.368 396.486 164.437 399.787C161.287 401.563 158.812 404.336 157.4 407.672C156.707 410.29 156.707 413.043 157.4 415.661C157.835 419.021 159.279 422.169 161.54 424.688C161.837 425.003 162.245 425.189 162.678 425.206L165.679 427.074C165.679 426.555 165.161 426.244 164.851 425.725C164.541 425.206 164.851 424.895 165.679 424.688L171.371 429.045V429.875C171.371 429.875 171.371 429.875 171.991 430.498C172.612 431.12 173.854 429.668 174.682 430.498C177.067 432.406 179.868 433.721 182.857 434.337" fill="#DADADA"/>
<path d="M200.138 434.128V430.912V430.082H199.311L198.793 432.261V433.921L200.138 434.128Z" fill="#1D1D1B"/>
<path d="M203.658 433.61C204.306 433.317 204.714 432.662 204.693 431.95V429.563C204.693 429.563 204.693 429.563 204.693 429.045L203.865 429.563C203.865 429.563 203.865 429.563 203.865 430.393V432.884V433.402L203.658 433.61Z" fill="#1D1D1B"/>
<path d="M214.834 432.572C215.662 432.572 215.869 431.431 216.179 430.705C216.21 430.55 216.17 430.39 216.07 430.269C215.969 430.147 215.819 430.079 215.662 430.082L214.834 432.053V432.676V432.572Z" fill="#1D1D1B"/>
<path d="M212.661 431.431C213.488 431.431 213.799 430.393 214.316 429.46C214.272 429.289 214.272 429.111 214.316 428.941C214.148 428.996 213.967 428.996 213.799 428.941L212.454 431.12C212.398 431.288 212.398 431.47 212.454 431.638L212.661 431.431Z" fill="#1D1D1B"/>
<path d="M207.486 428.837C208.314 427.696 207.486 425.724 207.486 424.479C206.853 423.477 206.463 422.34 206.348 421.159H205.52L207.486 428.837Z" fill="#1D1D1B"/>
<path d="M218.145 428.111C218.314 428.062 218.493 428.062 218.662 428.111V426.451C217.738 426.105 216.894 425.575 216.178 424.895C215.682 424.561 215.115 424.347 214.523 424.272C214.247 424.791 214.247 425.414 214.523 425.932C215.551 426.858 216.659 427.692 217.834 428.422" fill="#1D1D1B"/>
<path d="M232.219 427.074C232.84 426.244 234.392 425.413 233.875 424.065C232.866 424.512 232.031 425.277 231.495 426.244V427.074H232.219Z" fill="#1D1D1B"/>
<path d="M219.802 423.027C219.802 423.027 219.802 422.509 220.319 422.509L219.802 421.679L217.628 420.019C219.738 417.599 221.578 414.955 223.113 412.133C221.612 410.473 219.615 409.345 217.421 408.917H216.904C216.904 408.917 216.904 409.747 216.904 409.955C216.904 410.162 220.422 410.785 221.25 412.756C222.078 414.727 218.249 416.595 216.594 419.085L217.214 420.122V420.745V421.575L219.802 423.027Z" fill="#1D1D1B"/>
<path d="M180.684 422.509L183.685 421.367C183.949 420.957 183.949 420.429 183.685 420.019C183.685 420.019 183.685 420.019 183.685 419.189V418.462L179.442 412.652C179.442 412.652 178.925 412.652 178.615 412.652C178.304 412.652 178.615 414.001 178.615 414.52L183.271 420.019L180.788 421.679C180.788 421.679 180.788 421.679 180.27 421.679V422.509H180.684Z" fill="#1D1D1B"/>
<path d="M228.183 419.396H229.011V418.462C229.011 417.321 227.148 417.01 226.32 416.491C226.32 416.491 226.32 416.491 226.32 417.321L228.183 419.396Z" fill="#1D1D1B"/>
<path d="M198.484 419.188H202.52C202.52 419.188 202.52 419.188 203.14 418.358C203.761 417.528 203.14 418.358 203.14 418.358H199.001C198.484 415.349 200.139 411.51 199.001 407.983H198.484C197.839 411.401 197.665 414.892 197.966 418.358V418.462C197.966 418.462 198.484 418.462 198.794 418.462" fill="#1D1D1B"/>
<path d="M171.681 418.462L172.508 417.84C172.508 417.84 172.508 417.84 172.508 417.321L174.164 416.491C174.164 416.491 174.164 415.869 174.164 415.661C174.164 415.454 173.336 415.661 172.819 415.661L170.646 417.632V418.462C170.698 418.667 170.698 418.881 170.646 419.085L171.681 418.462Z" fill="#1D1D1B"/>
<path d="M231.184 418.462C231.313 418.201 231.313 417.894 231.184 417.632C229.883 416.111 228.255 414.906 226.423 414.105C226.183 414.522 226.183 415.036 226.423 415.453L231.184 418.462Z" fill="#1D1D1B"/>
<path d="M167.956 417.529C169.975 416.06 172.164 414.841 174.475 413.897C174.717 413.594 174.717 413.163 174.475 412.86C172.612 412.86 170.646 414.209 168.99 415.35C167.335 416.491 167.645 416.18 167.438 416.699L167.956 417.529Z" fill="#1D1D1B"/>
<path d="M219.283 413.896C219.452 413.945 219.632 413.945 219.801 413.896C219.801 413.896 219.801 413.377 219.801 413.066C219.801 412.755 218.145 411.406 216.8 411.925C215.455 412.444 216.8 412.547 216.8 412.755L219.283 413.896Z" fill="#1D1D1B"/>
<path d="M179.442 409.85L183.891 407.671C184.133 407.368 184.133 406.937 183.891 406.633C182.236 406.011 180.89 407.671 179.442 408.501C177.993 409.331 178.924 408.501 178.924 409.331V409.85H179.442Z" fill="#1D1D1B"/>
<path d="M206.141 408.813L208.315 408.19C208.363 408.021 208.363 407.841 208.315 407.671L207.797 406.841L210.281 406.219C210.281 406.219 210.281 406.219 210.281 405.389H202.312C202.312 405.389 202.312 405.907 202.312 406.219H206.659H205.624V407.049L206.141 407.671V408.813Z" fill="#1D1D1B"/>
<path d="M191.963 408.087H194.654L195.482 407.257V406.427C196.183 406.164 196.954 406.164 197.655 406.427V404.767H189.79C189.79 404.767 189.79 405.285 189.79 405.493C189.79 405.701 191.343 405.493 191.963 406.116C192.584 406.738 191.963 406.116 191.963 406.946V407.776V408.087Z" fill="#1D1D1B"/>
<path d="M311.695 406.841C316.054 404.605 319.521 400.945 321.526 396.466C322.664 391.278 324.01 386.091 325.148 380.903H316.352C313.661 388.373 312.833 397.296 310.35 404.974L311.695 406.841Z" fill="#DADADA"/>
<path d="M90.342 406.531L97.172 400.202C97.172 400.202 95.8267 399.683 95.8267 398.853C95.3099 395.666 94.4779 392.538 93.3431 389.515H82.9946L86.8236 404.871L90.342 406.531Z" fill="#DADADA"/>
<path d="M307.866 403.211C309.004 398.853 310.039 394.184 311.384 389.515H301.864L299.483 396.882L307.866 403.211Z" fill="#DADADA"/>
<path d="M83.2013 401.135L81.3386 394.806L69.9553 351.022H60.6417C61.2176 363.541 64.7654 375.742 70.9902 386.61C73.8801 391.021 77.1711 395.154 80.8212 398.956C81.3386 399.994 82.4769 400.305 83.2013 401.135Z" fill="#DADADA"/>
<path d="M195.793 401.135L198.277 400.616C198.117 400.524 197.919 400.524 197.759 400.616H194.448C194.448 401.239 195.276 401.239 195.793 401.446" fill="#1D1D1B"/>
<path d="M202.001 401.135L206.141 400.616V399.993H202.001C202.001 399.993 202.001 399.993 201.484 399.993L202.001 400.512" fill="#1D1D1B"/>
<path d="M200.139 399.994V397.711C200.139 397.192 199.104 397.711 198.793 397.711L200.449 400.201L200.139 399.994Z" fill="#1D1D1B"/>
<path d="M98.8277 398.956L107.003 392.835L104.519 382.46L94.4813 382.771L98.5172 399.164L98.8277 398.956Z" fill="#DADADA"/>
<path d="M297.725 395.014V394.806L301.037 381.63L300.83 381.318L292.344 381.63L290.378 389.826L297.518 395.014H297.725Z" fill="#DADADA"/>
<path d="M325.355 393.146C327.189 391.693 328.763 389.939 330.012 387.958C336.445 376.367 339.189 363.081 337.877 349.881H334.669C331.047 364.095 327.839 378.932 324.838 393.457L325.355 393.146Z" fill="#DADADA"/>
<path d="M109.797 391.486L115.178 387.958L108.659 387.336L109.797 391.486Z" fill="#DADADA"/>
<path d="M287.894 389.099C288.433 388.054 288.816 386.936 289.032 385.779H282.926L287.894 389.099Z" fill="#DADADA"/>
<path d="M92.8256 386.61L90.3419 377.064L80.304 377.272L82.4771 386.817L92.8256 386.61Z" fill="#DADADA"/>
<path d="M303.624 386.61L312.627 385.988C313.901 382.473 314.735 378.814 315.11 375.094H305.59L303.106 385.469C303.102 385.776 303.322 386.04 303.624 386.091" fill="#DADADA"/>
<path d="M117.455 384.639L115.799 376.442L106.175 376.131L108.141 384.95L117.455 384.639Z" fill="#DADADA"/>
<path d="M120.869 384.431L129.148 380.281L126.664 371.255H117.144L120.662 384.431H120.869Z" fill="#DADADA"/>
<path d="M280.029 384.119L289.55 383.082L291.413 375.404H280.443L278.581 382.874L280.029 384.119Z" fill="#DADADA"/>
<path d="M275.994 381.941C276.162 381.996 276.343 381.996 276.511 381.941L279.305 370.735C276.216 370.298 273.081 370.298 269.991 370.735L268.957 375.197V375.716L268.336 379.036L275.994 381.941Z" fill="#DADADA"/>
<path d="M103.794 379.969L101.621 371.461H91.2727L93.7563 379.969C96.7574 379.969 100.586 379.969 104.105 379.969" fill="#DADADA"/>
<path d="M139.497 374.782L131.011 375.612C130.183 376.131 131.632 378.102 131.839 378.932C134.493 377.785 137.053 376.432 139.497 374.886" fill="#DADADA"/>
<path d="M325.665 378.932L327.838 369.906H318.835C317.736 372.647 316.938 375.499 316.455 378.414C318.939 379.451 322.457 377.791 325.148 378.414" fill="#DADADA"/>
<path d="M293.274 378.621H301.243L303.933 370.321C300.945 369.928 297.918 369.928 294.93 370.321C293.755 373.005 293.122 375.897 293.067 378.828L293.274 378.621Z" fill="#DADADA"/>
<path d="M266.99 376.961V374.263L257.987 373.641C260.842 374.944 263.781 376.053 266.783 376.961" fill="#DADADA"/>
<path d="M143.636 374.574L143.843 373.951L152.639 370.942L152.329 370.424L141.98 370.112L143.636 374.574Z" fill="#DADADA"/>
<path d="M89.6175 374.159L84.1329 351.23H73.7844L78.6482 374.159H89.6175Z" fill="#DADADA"/>
<path d="M104.83 373.952H114.661L109.176 352.268C105.747 351.816 102.286 351.643 98.828 351.749C100.284 359.355 102.29 366.845 104.83 374.16" fill="#DADADA"/>
<path d="M140.636 373.433L135.668 352.89L124.699 352.371L129.977 373.122L140.636 373.433Z" fill="#DADADA"/>
<path d="M247.327 370.112L247.017 370.424L246.707 371.254L247.017 371.565L253.847 373.433H254.364L255.503 370.112H247.327Z" fill="#DADADA"/>
<path d="M292.033 372.604L296.689 351.853H286.341L281.684 372.604C285.129 372.868 288.588 372.868 292.033 372.604Z" fill="#DADADA"/>
<path d="M305.901 372.603L316.249 371.981L321.216 350.4H311.696L306.729 372.292L305.901 372.603Z" fill="#DADADA"/>
<path d="M259.022 372.396H266.576C268.642 365.584 270.301 358.655 271.543 351.645H262.23C260.41 358.023 258.958 364.501 257.884 371.047L259.022 372.396Z" fill="#DADADA"/>
<path d="M162.471 369.802L158.331 352.682L150.156 352.371L153.985 371.565L162.471 369.802Z" fill="#DADADA"/>
<path d="M243.499 370.736H244.326L245.154 368.246C245.154 368.246 245.154 368.246 245.154 367.727C246.597 362.899 247.704 357.976 248.466 352.994H240.808C238.826 358.231 237.37 363.653 236.462 369.18L243.499 370.736Z" fill="#DADADA"/>
<path d="M165.678 369.387L174.371 367.934L170.025 352.89H161.332C162.072 358.598 163.461 364.203 165.471 369.594L165.678 369.387Z" fill="#DADADA"/>
<path d="M231.184 369.075H232.529C234.312 364.075 235.696 358.94 236.668 353.72H227.976C226.445 358.348 225.337 363.105 224.664 367.934C226.32 369.075 229.011 368.557 231.184 369.075Z" fill="#DADADA"/>
<path d="M126.148 367.934L121.491 352.372L111.66 351.542L116.317 367.623L126.148 367.934Z" fill="#DADADA"/>
<path d="M100.484 368.245L95.6198 351.541L86.8236 351.23L90.3421 368.245H100.484Z" fill="#DADADA"/>
<path d="M150.984 368.245L147.155 352.371L138.151 352.682L141.67 367.934L150.984 368.245Z" fill="#DADADA"/>
<path d="M216.179 368.246H221.353C222.838 363.873 224.014 359.4 224.872 354.861V354.031H216.696C215.467 356.842 214.631 359.81 214.213 362.85C213.663 364.237 213.382 365.716 213.385 367.208L216.179 368.246Z" fill="#DADADA"/>
<path d="M201.278 367.934H210.281C216.283 353.201 212.765 337.846 213.592 322.491V290.223C209.897 289.638 206.149 289.464 202.416 289.705C202.152 289.589 201.852 289.589 201.588 289.705C201.235 290.191 201.02 290.765 200.967 291.365C205.935 304.541 208.832 319.793 212.972 332.866C210.262 336.366 206.202 338.552 201.795 338.884C199.173 339.038 196.55 338.576 194.137 337.535C192.305 336.683 190.654 335.485 189.274 334.007C188.101 333.615 187.182 332.692 186.79 331.517C187.618 327.16 188.963 323.321 190.101 318.963C192.792 310.767 194.965 301.429 197.449 292.921C197.449 291.572 198.277 289.912 197.449 288.875C196.621 287.837 197.966 286.696 198.484 285.555C199.009 285.31 199.614 285.31 200.139 285.555L201.485 286.385H213.178C213.823 284.737 214.037 282.951 213.799 281.197C213.674 279.747 213.674 278.289 213.799 276.839C213.799 269.473 213.799 262.418 213.799 254.948C213.799 245.091 213.799 235.027 213.799 225.17C213.178 220.502 213.799 215.936 213.178 211.786C213.799 209.296 213.178 206.599 213.799 204.627C214.084 202 215.478 199.62 217.628 198.091L220.112 196.223L223.423 195.601C224.458 192.073 222.803 187.612 224.251 184.188C226.424 183.358 229.633 184.188 232.116 184.188C236.462 184.188 241.43 182.839 245.155 184.707C245.918 184.864 246.421 185.597 246.294 186.367C246.294 187.716 246.294 189.064 246.294 190.413C251.281 190.946 256.311 190.946 261.299 190.413C262.334 189.272 261.299 187.404 261.816 185.744C261.877 184.862 262.287 184.04 262.955 183.462H263.472C269.784 185.122 276.821 183.462 283.341 184.603C283.858 184.603 284.686 184.603 284.686 185.433C284.686 186.263 284.686 189.272 285.514 190.621H293.172L302.693 190.102V184.603C305.073 182.424 309.212 183.773 312.42 183.254C315.628 182.736 321.423 182.217 325.045 184.084C325.665 184.232 326.097 184.795 326.08 185.433C325.646 186.888 325.646 188.439 326.08 189.894C329.691 190.287 333.335 190.287 336.946 189.894V105.025H268.75H60.125V195.082L105.658 190.413L110.315 183.254C110.315 183.254 110.315 183.254 111.35 182.736C113.523 184.396 114.351 187.612 116.524 189.583C127.177 189.095 137.77 187.706 148.19 185.433C148.65 185.225 149.018 184.856 149.225 184.396C150.051 183.625 150.472 182.513 150.363 181.387C150.363 180.038 151.088 178.689 151.088 177.237L147.569 176.718C147.569 174.02 149.122 171.219 148.397 168.314L143.533 168.833L139.705 169.974C138.877 169.974 138.566 169.351 138.359 168.625C137.96 166.186 137.96 163.698 138.359 161.259C138.864 160.961 139.431 160.784 140.015 160.74C142.323 161.014 144.606 161.465 146.845 162.089C147.673 159.08 145.81 155.76 146.017 152.751C146.278 152.029 146.915 151.51 147.673 151.402C149.977 151.354 152.277 151.634 154.503 152.232V161.466C156.883 162.296 159.16 158.976 161.333 160.117C161.502 160.068 161.681 160.068 161.85 160.117C162.368 160.117 162.678 160.117 162.885 160.947V167.484C160.401 169.455 157.504 167.484 154.71 167.484C153.675 170.285 156.883 173.813 155.331 176.51H152.847V183.877L153.675 184.396L172.509 217.804C173.027 212.305 172.509 206.806 172.509 200.789C172.37 198.889 172.37 196.982 172.509 195.082C172.509 195.082 171.681 195.082 171.474 195.082C171.267 195.082 170.853 194.563 170.646 194.045C171.785 190.725 173.958 188.234 174.993 184.707C176.131 183.566 176.648 182.736 177.994 183.047C180.477 185.226 180.995 187.716 183.168 189.583C184.64 202.844 185.158 216.193 184.72 229.528V252.769L185.341 253.91C186.213 254.267 186.756 255.147 186.686 256.089C186.686 256.089 186.686 256.919 186.686 257.438L188.032 254.948C188.233 254.876 188.452 254.876 188.653 254.948L190.205 259.305C190.826 260.343 190.205 262.003 190.205 263.352C190.205 264.7 190.205 267.709 189.067 269.888C188.762 272.413 188.136 274.889 187.204 277.254C184.661 282.017 183.717 287.475 184.513 292.817C184.513 311.908 184.513 331.102 185.341 350.608C186.997 354.758 186.686 360.464 188.653 365.341C192.171 366.171 196.311 365.341 200.346 366.171" fill="#009BDF"/>
<path d="M176.855 367.623H186.169L183.996 353.928L173.647 353.098C173.647 357.974 176.648 363.473 176.855 367.831V367.623Z" fill="#DADADA"/>
<path d="M248.363 367.623H255.71C257.424 362.837 258.706 357.906 259.539 352.89H251.054L247.535 367.104C247.535 367.104 248.053 367.623 248.363 367.623Z" fill="#DADADA"/>
<path d="M272.578 367.623H279.925C281.637 362.553 282.918 357.347 283.754 352.06C280.94 351.659 278.083 351.659 275.268 352.06C273.272 356.992 271.882 362.148 271.129 367.416L272.578 367.623Z" fill="#DADADA"/>
<path d="M304.347 366.585L308.176 350.711H299.691L295.862 366.585C296.379 367.622 303.519 366.585 304.347 366.585Z" fill="#DADADA"/>
<path d="M328.356 366.585C329.943 361.549 331.221 356.421 332.185 351.23C332.185 350.4 332.185 350.192 332.185 349.57H323.699C321.666 355.075 320.209 360.777 319.353 366.585H328.356Z" fill="#DADADA"/>
<path d="M216.696 351.541H229.218V345.212C227.873 344.382 226.217 345.212 224.872 345.212C221.995 345.639 219.086 345.813 216.179 345.731V351.748L216.696 351.541Z" fill="#DADADA"/>
<path d="M232.219 351.022H236.048L231.702 321.141L232.219 351.022Z" fill="#DADADA"/>
<path d="M240.705 350.711L277.028 349.363C277.731 343.754 277.904 338.092 277.546 332.451C277.435 327.939 277.712 323.427 278.374 318.963C278.374 316.577 279.512 313.983 278.374 311.804C278.374 311.804 278.374 310.766 278.374 310.144C278.374 309.521 278.374 310.144 279.202 310.144V307.446C277.235 305.786 274.027 305.786 271.544 304.126C269.06 302.466 266.059 304.126 264.403 301.948C264.403 301.948 264.403 301.947 264.403 301.429C265.542 310.766 270.405 320.934 271.233 330.48V331.517C271.233 332.658 269.888 332.866 269.371 333.696C265.652 337.778 260.102 339.659 254.676 338.676C253.904 338.253 253.063 337.971 252.192 337.846C250.543 337.077 249.065 335.983 247.846 334.63C247.018 332.97 245.673 331.828 246.19 330.168C250.754 317.668 254.487 304.878 257.366 291.883C257.366 291.053 257.884 290.846 257.366 290.535L245.673 289.912L246.811 297.071C247.639 300.91 248.984 304.749 249.812 307.446C249.812 308.588 250.64 309.418 249.812 310.248H248.984C247.455 308.083 246.333 305.657 245.673 303.089C245.009 298.438 243.935 293.855 242.465 289.393H236.152C235.877 289.383 235.621 289.53 235.489 289.771C235.358 290.013 235.374 290.309 235.531 290.535C235.531 299.25 237.187 307.758 238.325 316.577V317.407C238.652 319.438 239.102 321.447 239.67 323.424C240.629 327.531 241.909 331.555 243.499 335.46C245.155 338.157 245.155 341.996 247.639 344.175C247.639 344.797 247.639 344.797 247.639 345.005V346.042C247.47 346.091 247.29 346.091 247.121 346.042C246.2 345.879 245.402 345.307 244.948 344.486C242.555 339.675 240.648 334.635 239.257 329.442C235.903 317.012 233.993 304.235 233.565 291.365V290.742C233.047 290.742 232.737 290.742 232.737 289.912C232.402 289.794 232.037 289.794 231.702 289.912C230.874 294.27 231.702 299.25 231.702 303.608C232.545 307.88 232.996 312.221 233.047 316.577C233.565 320.104 234.6 323.943 235.221 326.952C235.606 327.846 235.606 328.86 235.221 329.753C235.738 331.932 235.738 334.941 236.359 337.12C236.505 337.638 236.792 338.104 237.187 338.469C237.187 338.469 237.187 338.987 237.187 338.469C237.187 340.129 237.187 341.477 237.187 343.034C237.187 344.59 238.325 345.524 238.843 347.184L240.705 350.711Z" fill="#DADADA"/>
<path d="M173.026 350.503H175.51C176.588 341.691 177.141 332.821 177.165 323.943C177.165 322.594 177.165 321.556 176.545 320.415C175.924 319.274 175.717 319.066 175.717 318.236C175.717 317.406 175.717 316.888 175.717 316.68C175.717 316.473 175.717 316.058 175.717 316.058C175.717 316.058 175.717 313.879 175.199 313.36C174.682 312.841 175.199 313.36 175.199 313.36C174.371 316.369 175.199 319.378 174.164 322.386C174.072 324.776 173.69 327.145 173.026 329.442C171.06 336.289 171.474 343.137 169.508 350.192L173.026 350.503Z" fill="#DADADA"/>
<path d="M161.332 350.504H165.058C166.942 347.302 168.238 343.788 168.886 340.128C171.612 330.2 173.277 320.01 173.854 309.729C171.681 314.398 171.681 320.934 168.886 325.914C166.092 330.894 164.23 337.431 162.367 342.826C160.964 345.245 159.853 347.822 159.055 350.504H161.332Z" fill="#DADADA"/>
<path d="M179.442 350.503L182.65 349.881C183.271 347.391 181.616 344.901 182.133 341.892C181.305 337.016 180.995 332.347 179.96 327.678C179.96 327.159 179.132 326.848 178.615 326.225C177.787 327.678 178.615 329.545 178.615 330.998C178.574 335.956 178.85 340.912 179.442 345.835C179.063 346.59 178.785 347.392 178.615 348.221C178.615 349.051 178.615 349.362 178.615 350.192C178.615 351.022 178.615 350.815 179.442 350.815" fill="#DADADA"/>
<path d="M152.019 350.089H155.02C159.875 341.54 163.895 332.541 167.024 323.217C169.818 317.199 170.853 310.663 173.026 305.164V302.674V302.051L171.991 294.374V293.336C167.982 296.183 164.482 299.691 161.643 303.711C161.125 305.06 160.815 306.513 159.78 307.032C158.39 310.382 157.316 313.856 156.572 317.407C156.055 321.038 156.055 324.566 155.227 327.782C155.227 328.405 154.399 327.782 154.192 327.782C154.081 322.733 154.532 317.687 155.537 312.738H155.02C154.502 312.738 154.502 313.776 154.192 314.191H153.571C152.081 318.602 150.066 322.817 147.569 326.745C145.913 330.272 144.361 334.111 142.395 337.12C142.395 337.12 142.395 337.95 142.395 338.157L141.567 338.676C141.281 338.676 141.049 338.444 141.049 338.157C143.533 329.961 148.397 323.113 151.398 315.228C151.398 315.228 151.398 315.228 150.88 315.228L146.43 319.067V319.897C146.43 320.416 145.396 320.416 145.396 320.934C145.396 321.453 145.396 321.557 145.396 321.764C143.429 323.113 142.602 325.603 140.739 326.952C139.187 329.961 136.91 332.14 135.565 335.149C134.098 338.179 132.82 341.298 131.736 344.486C132.564 346.146 130.908 347.184 131.736 348.636H140.221L152.019 350.089Z" fill="#DADADA"/>
<path d="M60.125 348.221L103.175 349.673L105.348 349.362V344.486L60.332 343.033L60.125 348.221Z" fill="#DADADA"/>
<path d="M108.659 349.57H114.661V313.672C114.661 283.065 114.661 252.665 114.661 222.058C114.661 215.21 113.626 203.694 114.144 196.016H108.142C106.796 197.365 108.142 199.855 107.521 201.826C107.521 209.711 107.521 217.7 107.521 225.378C107.521 230.254 107.521 235.753 107.521 240.422V278.5L106.382 288.875L107.831 335.46C107.272 339.834 107.272 344.262 107.831 348.636H108.349" fill="#DADADA"/>
<path d="M120.352 349.57H127.7C128.111 346.752 129.06 344.039 130.494 341.581C130.928 339.874 131.589 338.234 132.46 336.704C129.751 338.409 127.339 340.547 125.32 343.033C125.32 343.033 125.32 343.863 124.802 343.863L120.766 347.183C120.766 347.183 120.766 348.013 120.766 348.221L120.249 349.051C120.249 349.051 120.766 349.051 121.077 349.051" fill="#DADADA"/>
<path d="M279.512 349.362H279.822L281.685 349.051L279.822 332.658L279.512 349.362Z" fill="#DADADA"/>
<path d="M284.685 349.051H289.135C289.458 347.437 289.979 345.869 290.687 344.383C291.338 340.854 292.273 337.385 293.481 334.007C293.481 332.97 293.481 331.828 294.516 330.791C296.559 324.432 297.401 317.747 297 311.078C297.517 309.729 297 308.588 297 307.55C296.648 306.407 296.198 305.296 295.655 304.23C293.792 302.881 291.515 303.193 289.342 302.363H288.825C289.724 311.261 288.701 320.25 285.824 328.716C285.926 330.405 285.568 332.091 284.789 333.592H284.168C283.617 333.544 283.181 333.107 283.133 332.555L285.099 325.603C281.788 321.038 285.099 314.087 281.788 309.21C281.347 313.484 281.174 317.781 281.27 322.076C281.713 330.036 282.576 337.967 283.857 345.835C284.375 346.976 283.857 348.014 284.375 348.948L284.685 349.051Z" fill="#DADADA"/>
<path d="M294.516 348.844H304.865C304.374 338.596 302.919 328.418 300.519 318.444C300.519 318.444 300.519 318.444 301.139 317.926C301.258 317.59 301.258 317.224 301.139 316.888C300.723 316.647 300.21 316.647 299.794 316.888C299.751 318.409 299.472 319.915 298.966 321.349C298.818 325.031 298.263 328.685 297.311 332.244C296.316 336.668 294.966 341.006 293.275 345.213C293.275 345.213 293.275 345.213 294.103 345.213V346.043C293.819 346.669 293.819 347.388 294.103 348.014L294.516 348.844Z" fill="#DADADA"/>
<path d="M308.177 348.221H310.66C311.281 345.523 310.66 342.515 310.66 339.506C310.66 336.497 310.66 330.479 310.66 326.329C310.66 326.329 309.832 326.329 309.522 326.329C308.587 328.604 307.092 330.603 305.176 332.139L307.142 347.702C307.142 347.702 307.659 348.221 307.97 348.221" fill="#009BDF"/>
<path d="M313.972 347.91L337.463 346.562V344.072C335.807 344.072 334.255 344.072 332.599 344.072C327.774 344.351 322.937 344.351 318.111 344.072C316.249 344.59 314.903 344.072 313.248 344.59V348.118L313.972 347.91Z" fill="#DADADA"/>
<path d="M118.49 345.835C122.545 342.341 126.382 338.598 129.977 334.63C130.494 334.63 130.494 333.8 130.805 333.8C133.599 330.272 137.428 326.433 140.118 322.906C144.812 316.609 148.48 309.605 150.984 302.155C151.518 300.382 152.175 298.649 152.95 296.968H150.984C150.74 298.957 149.992 300.85 148.811 302.466C147.155 305.994 145.292 309.003 143.43 312.842C136.338 322.375 127.739 330.681 117.973 337.431C117.594 340.22 117.594 343.047 117.973 345.835H118.49Z" fill="#DADADA"/>
<path d="M216.49 342.203H222.285V334.837C220.629 333.696 218.145 334.837 216.283 334.837V341.892C216.283 341.892 216.283 341.892 216.8 341.892" fill="#DADADA"/>
<path d="M225.493 342.203H229.012C229.42 339.556 229.42 336.862 229.012 334.214H225.286C224.524 336.823 224.524 339.595 225.286 342.203H225.493Z" fill="#DADADA"/>
<path d="M87.9622 341.477L105.348 341.166V334.007L74.3022 334.214V341.477H87.9622Z" fill="#DADADA"/>
<path d="M60.3309 334.214V341.166H60.6414H71.5073V334.214H60.3309Z" fill="#DADADA"/>
<path d="M313.971 341.166H324.32C325.148 339.817 324.32 337.327 324.32 335.46C324.32 333.592 324.32 334.63 324.32 334.111C320.717 333.577 317.056 333.577 313.454 334.111C312.316 336.29 313.454 338.987 313.454 341.477C313.454 341.477 314.282 341.996 314.489 341.996" fill="#DADADA"/>
<path d="M337.669 340.855V333.488C334.397 333.223 331.11 333.223 327.838 333.488C326.803 335.667 327.838 338.157 327.838 340.647C331.109 340.92 334.398 340.92 337.669 340.647" fill="#DADADA"/>
<path d="M200.139 337.327C202.477 337.253 204.743 336.496 206.658 335.148H193.826C195.672 336.442 197.888 337.098 200.139 337.015" fill="#DADADA"/>
<path d="M257.883 336.808C260.759 336.876 263.559 335.879 265.748 334.007C261.401 334.007 256.434 334.629 251.881 334.007C251.881 334.007 251.881 334.007 251.881 334.525C251.881 335.044 255.71 336.497 258.193 337.016" fill="#DADADA"/>
<path d="M183.168 335.459V300.495C181.893 305.275 180.891 310.125 180.167 315.02C180.684 317.406 180.995 320.208 181.512 322.698C182.317 326.915 182.87 331.176 183.168 335.459Z" fill="#DADADA"/>
<path d="M117.972 335.46C119.938 334.111 122.111 332.14 124.285 330.791C135.206 321.935 143.537 310.285 148.396 297.071C145.913 296.241 143.533 295.93 140.739 294.893C137.944 293.855 138.565 293.751 137.013 293.544C132.702 291.656 128.8 288.942 125.526 285.555C123.353 286.904 123.043 289.394 121.387 291.054C119.731 292.714 119.731 295.1 117.351 295.619V303.608C117.694 301.742 118.436 299.972 119.524 298.42C119.689 297.908 120.066 297.492 120.559 297.279H121.387C120.067 300.664 118.961 304.129 118.075 307.654C121.077 304.645 122.215 300.599 125.733 297.279C125.956 296.792 126.367 296.418 126.872 296.241C126.872 296.241 127.389 295.1 128.217 295.1C129.045 295.1 128.217 295.1 128.217 295.1L125.423 299.25C122.42 304.062 120.087 309.263 118.489 314.709C118.489 314.709 118.489 314.709 117.972 315.539V320.727C117.972 320.727 119.007 319.586 119.317 319.067C121.76 314.196 124.562 309.514 127.7 305.06C128.845 304.095 129.854 302.978 130.701 301.74C130.701 301.74 130.701 301.74 131.321 301.74L132.667 300.91C132.716 301.08 132.716 301.26 132.667 301.429C130.72 304.694 128.541 307.815 126.147 310.767C123.215 314.87 120.751 319.29 118.8 323.943C118.8 324.67 117.972 324.67 117.972 325.292V326.952C122.318 323.425 126.147 316.577 131.632 314.087L133.184 312.116C136.957 309.159 140.031 305.404 142.187 301.118L144.671 300.08C144.671 302.57 142.187 304.438 141.152 306.617C140.322 307.58 139.422 308.481 138.462 309.314C137.117 312.116 133.288 314.294 131.632 316.681C129.976 319.067 128.631 320.001 126.665 321.038C124.698 322.076 122.525 324.358 121.49 326.537L117.662 330.687L117.972 335.46Z" fill="#DADADA"/>
<path d="M200.139 333.488L209.142 332.97C208.625 332.97 208.314 331.828 208.314 331.828H192.792C192.792 331.828 191.757 332.658 191.964 332.97L200.139 333.488Z" fill="#DADADA"/>
<path d="M60.3318 331.828H82.6844C83.8227 329.649 82.6844 326.952 82.6844 324.773L59.8143 323.943V332.139L60.3318 331.828Z" fill="#DADADA"/>
<path d="M255.711 331.828C257.813 331.962 259.921 331.962 262.023 331.828H265.542C266.37 331.828 268.232 330.479 266.577 330.479C261.135 330.054 255.668 330.054 250.226 330.479L251.675 332.139L255.711 331.828Z" fill="#DADADA"/>
<path d="M216.489 331.517H229.011C229.233 328.686 229.233 325.841 229.011 323.009C224.684 322.425 220.299 322.425 215.972 323.009V332.243L216.489 331.517Z" fill="#DADADA"/>
<path d="M105.037 331.309V324.462L86.3065 323.839L85.9961 331.517L105.037 331.309Z" fill="#DADADA"/>
<path d="M316.663 330.791H337.359V322.49C329.193 321.962 321 321.962 312.834 322.49C312.404 325.206 312.404 327.972 312.834 330.687L316.663 330.791Z" fill="#DADADA"/>
<path d="M189.79 330.168L197.448 329.338C198.257 319.4 198.534 309.425 198.276 299.457L189.583 330.583L189.79 330.168Z" fill="#009BDF"/>
<path d="M207.797 330.168H209.452C207.181 319.648 204.348 309.258 200.967 299.042C200.139 308.899 200.449 319.793 200.139 329.442C202.312 330.79 205.313 329.442 207.797 330.479" fill="#009BDF"/>
<path d="M304.865 329.65C307.47 327.277 309.429 324.277 310.556 320.934C310.039 310.559 313.04 297.901 308.073 288.667C305.893 284.424 302.945 280.624 299.38 277.462C298.552 279.122 297.931 280.782 297.207 282.027C294.431 287.339 291.32 292.468 287.893 297.382C287.376 298.109 286.858 298.109 286.548 298.731C287.893 299.769 290.066 298.731 291.722 299.976C292.977 300.299 294.259 300.507 295.551 300.599C295.551 299.769 294.723 298.731 294.413 297.59C292.903 296.463 292.177 294.563 292.55 292.714L293.171 292.091C293.171 292.091 293.171 292.091 293.688 292.091C295.34 294.42 296.794 296.885 298.035 299.458C300.001 297.279 299.483 293.129 302.174 291.572C302.611 291.619 302.956 291.965 303.002 292.402L300.518 299.458H301.864C303.002 299.458 303.83 300.599 305.692 300.599C305.692 301.118 305.692 301.118 306.52 301.636C306.942 302.109 306.942 302.824 306.52 303.296C305.397 302.477 304.074 301.976 302.691 301.844L301.346 302.674V303.504C303.312 303.504 303.83 305.164 305.175 306.201C306.52 309.003 309.314 311.182 308.694 314.709C308.484 315.103 308.203 315.455 307.866 315.747C307.038 315.747 306.727 314.398 306.727 313.568C305.636 311.402 304.28 309.381 302.691 307.55C302.174 306.72 301.346 306.201 300.829 306.513C300.311 306.824 300.829 306.513 300.829 307.031L304.865 329.65Z" fill="#DADADA"/>
<path d="M249.707 329.131L258.4 328.301C259.097 319.219 259.097 310.096 258.4 301.014C256.911 304.378 255.666 307.846 254.675 311.389C253.019 317.407 250.846 323.217 249.19 329.235L249.707 329.131Z" fill="#DADADA"/>
<path d="M267.197 328.612H268.025C268.853 326.64 267.197 323.839 267.197 321.764C265.334 314.916 263.886 308.38 261.712 301.74V327.47C263.058 328.612 265.541 327.47 267.197 328.612Z" fill="#DADADA"/>
<path d="M104.83 321.452V313.463C94.8331 312.934 84.8156 312.934 74.8191 313.463V321.66L104.83 321.452Z" fill="#DADADA"/>
<path d="M60.3318 321.453H71.8186L72.336 313.256H60.3318L60.0214 321.453H60.3318Z" fill="#DADADA"/>
<path d="M216.179 319.482H221.353C221.942 316.862 222.117 314.166 221.871 311.493C220.215 310.663 217.731 311.493 216.075 310.974L216.179 319.482Z" fill="#DADADA"/>
<path d="M224.975 319.482H228.7C228.97 316.756 228.97 314.011 228.7 311.285H224.975C224.249 313.969 224.249 316.798 224.975 319.482Z" fill="#DADADA"/>
<path d="M315.007 319.482H324.217V311.285C320.504 310.853 316.753 310.853 313.041 311.285V319.482C313.558 320.001 314.386 319.482 315.007 320.001" fill="#DADADA"/>
<path d="M327.528 319.274H337.877V311.285H327.528C326.875 314.036 326.7 316.879 327.011 319.689" fill="#DADADA"/>
<path d="M286.238 318.132C286.731 317.012 287.045 315.822 287.17 314.605C287.17 313.775 287.687 313.256 287.17 312.633L284.997 311.803V317.302C284.997 317.302 284.997 317.302 285.514 317.302L286.031 318.444L286.238 318.132Z" fill="#DADADA"/>
<path d="M148.396 314.709C149.742 314.087 150.88 312.219 152.743 311.701C156.497 308.705 158.289 303.873 157.4 299.146C157.4 298.316 157.4 297.798 157.4 297.279C157.4 296.76 156.572 297.279 156.054 297.279C154.398 299.146 154.398 302.467 153.26 304.334C152.142 308.008 150.504 311.502 148.396 314.709Z" fill="#DADADA"/>
<path d="M70.6802 310.766H82.3739C83.7192 308.899 82.3739 305.579 82.8914 303.089C82.955 302.711 82.955 302.325 82.8914 301.947H59.8143V310.455L70.6802 310.766Z" fill="#DADADA"/>
<path d="M104.83 310.767L105.14 302.57L85.7888 302.259L86.3062 310.767H104.83Z" fill="#DADADA"/>
<path d="M287.376 309.625C287.996 306.781 287.395 303.807 285.72 301.429C283.471 300.405 281.352 299.116 279.408 297.59C277.303 296.08 275.006 294.859 272.578 293.958C272.578 293.958 273.199 294.477 273.406 295.1V295.93C270.612 295.93 267.921 294.27 265.231 294.788H264.092C263.575 294.542 263.25 294.014 263.264 293.44C263.264 293.44 263.264 292.61 264.092 292.61L265.231 292.091C265.231 292.091 265.748 291.053 266.265 291.053C272.785 289.393 277.235 294.27 282.099 296.76C284.065 295.411 284.582 293.232 286.445 291.572C286.445 291.053 286.445 291.053 286.445 290.742C289.291 287.042 290.919 282.546 291.102 277.877C291.09 275.68 290.322 273.554 288.928 271.859C288.101 271.029 287.79 270.199 287.273 269.991C286.755 269.784 286.445 269.991 286.134 269.991L287.066 274.038C286.904 274.685 286.904 275.362 287.066 276.009C286.73 276.995 286.454 277.999 286.238 279.018C285.2 282.205 283.301 285.042 280.753 287.214C280.364 287.43 280.014 287.711 279.718 288.044L275.372 290.431H274.544V289.912C275.682 288.252 278.063 287.941 279.718 286.384C281.315 285.177 282.448 283.455 282.926 281.508C281.788 281.508 281.581 283.479 279.925 283.479C278.27 283.479 276.407 284.621 274.441 285.347C274.441 285.347 274.441 285.347 273.923 285.347C273.406 285.347 271.543 285.347 270.094 284.517C268.646 283.687 268.439 283.168 268.232 282.649C268.025 282.131 268.232 281.612 269.059 281.612C269.887 281.612 270.612 282.131 271.233 282.961L272.578 283.583C274.544 283.064 277.235 283.583 278.27 281.612C281.137 279.745 283.119 276.784 283.754 273.415C284.158 271.78 284.158 270.071 283.754 268.435C283.165 267.786 282.866 266.924 282.926 266.049C282.926 268.02 281.271 269.369 281.581 271.029L280.236 271.859C279.982 272.765 279.276 273.472 278.373 273.727L275.889 274.868C275.269 274.868 275.269 274.868 275.062 274.868C274.855 274.868 274.234 274.868 274.234 274.038C274.234 273.208 274.234 273 275.062 272.689C277.247 272.172 279.077 270.682 280.029 268.643C280.463 266.227 280.175 263.736 279.201 261.484L279.822 260.342C279.822 260.342 278.27 261.172 277.959 262.314L274.958 264.596C271.913 264.753 268.865 264.366 265.955 263.455C265.438 263.455 265.438 263.455 265.127 263.455C264.817 263.455 264.299 266.671 264.299 268.331C264.299 269.991 266.265 271.34 266.99 273C267.714 274.66 270.301 274.038 270.819 276.009C270.819 276.528 270.301 276.943 269.68 277.15C269.059 277.358 265.334 276.009 263.989 273.83C262.643 271.651 262.23 272.17 262.23 271.34C261.916 270.28 261.536 269.24 261.091 268.228C259.125 269.369 260.056 272.378 259.746 274.245C260.607 278.325 262.834 281.986 266.058 284.621V285.658C264.713 285.658 263.575 284.621 262.747 284.102C260.876 281.71 259.247 279.139 257.883 276.424C257.883 275.594 256.745 274.557 257.366 273.623L258.194 273.104V270.718C257.722 270.768 257.268 270.52 257.055 270.095C255.594 273.687 255.594 277.709 257.055 281.3C257.852 281.894 258.433 282.732 258.711 283.687V284.517C258.189 284.776 257.577 284.776 257.055 284.517C255.193 283.376 255.4 281.197 254.365 279.848C254.078 277.331 254.078 274.79 254.365 272.274C253.537 272.274 252.709 273.312 252.192 273.83C252.192 276.632 251.571 279.64 253.226 282.027C251.881 283.583 251.881 283.583 251.881 283.583C251.62 283.713 251.314 283.713 251.053 283.583C249.708 283.064 249.397 281.404 249.19 280.055C248.983 278.707 249.19 278.084 249.19 277.047H248.57L246.914 279.744L248.777 282.753C248.875 283.937 249.266 285.078 249.915 286.073C250.083 286.129 250.264 286.129 250.432 286.073H259.228C259.228 286.073 260.056 284.724 260.781 284.413H261.919C262.436 285.554 263.575 286.799 263.057 288.252C262.54 289.704 262.229 289.393 261.919 289.601L263.575 296.967C263.743 297.023 263.924 297.023 264.092 296.967L263.264 295.307L264.092 294.477C266.486 294.301 268.874 294.882 270.922 296.137C271.216 296.539 271.216 297.084 270.922 297.486C270.922 297.486 272.061 297.486 272.267 298.523C272.474 299.561 272.267 299.665 271.44 299.665H269.473C269.473 299.665 269.473 299.665 269.473 299.042H266.472C266.472 299.042 265.955 299.042 266.472 299.042C271.957 301.221 278.994 301.221 282.823 305.371C284.686 306.409 286.134 307.55 287.997 308.587L287.376 309.625Z" fill="#DADADA"/>
<path d="M228.7 308.588V301.222H215.972V308.277C217.317 309.211 219.801 308.277 221.767 308.277C224.075 308.111 226.392 308.111 228.7 308.277" fill="#DADADA"/>
<path d="M177.993 308.276C179.856 300.391 181.822 292.402 183.167 284.517L184.202 279.329C187.514 276.839 187.203 271.963 188.548 267.813C189.019 265.387 189.227 262.917 189.169 260.446H188.548L187.203 265.426L186.582 265.945L186.065 266.775L186.582 260.757L185.547 264.596H184.719C183.892 262.106 185.858 259.409 185.34 256.4L183.995 260.55C183.995 260.55 183.478 260.55 183.167 260.55L182.546 263.87C182.546 263.87 182.546 263.87 182.029 263.87C181.511 263.87 181.511 262.21 181.511 261.38C181.511 260.55 182.857 258.89 182.339 257.852C179.649 262.21 181.511 268.228 179.856 272.896C179.049 276.71 177.762 280.406 176.027 283.894C175.543 284.108 175.09 284.387 174.681 284.724C174.391 285.308 174.215 285.942 174.164 286.592V289.912L174.681 290.431C174.164 293.44 175.82 296.241 174.681 299.457C175.403 302.184 176.409 304.827 177.683 307.342L177.993 308.276Z" fill="#DADADA"/>
<path d="M324.32 308.277H337.669V300.91H313.143C312.575 303.333 312.575 305.854 313.143 308.277H324.32Z" fill="#DADADA"/>
<path d="M159.469 301.74L162.677 297.694C161.432 293.685 159.62 289.877 157.296 286.385L158.745 301.74H159.469Z" fill="#DADADA"/>
<path d="M72.1292 299.25L72.3362 290.535L60.332 291.054L60.125 299.25H72.1292Z" fill="#DADADA"/>
<path d="M104.83 299.25L105.14 291.054L104.83 290.742L75.0261 290.535V299.25H104.83Z" fill="#DADADA"/>
<path d="M215.972 298.42H221.767V290.846V290.223H215.972V298.42Z" fill="#DADADA"/>
<path d="M228.7 298.108V290.534C227.665 289.393 225.699 290.534 224.664 289.704V297.693L228.7 298.108Z" fill="#DADADA"/>
<path d="M268.024 298.108C268.024 298.108 268.024 298.108 268.542 298.108H269.37C268.472 297.467 267.267 297.467 266.369 298.108C266.912 298.249 267.481 298.249 268.024 298.108Z" fill="#DADADA"/>
<path d="M313.972 297.901H324.321V290.431L312.317 289.912V297.589C312.317 298.108 313.351 297.589 313.869 298.108" fill="#DADADA"/>
<path d="M330.012 297.901H337.67V290.846C334.264 290.175 330.783 289.966 327.322 290.224C326.287 292.402 327.322 295.204 327.322 297.694L330.012 297.901Z" fill="#DADADA"/>
<path d="M164.334 296.241L165.679 294.892C165.679 292.713 163.506 291.883 162.367 290.223C161.78 289.744 161.227 289.224 160.712 288.667L164.023 296.033" fill="#DADADA"/>
<path d="M285.72 295.722H286.858L289.031 292.713L286.237 294.062L285.409 295.722" fill="#DADADA"/>
<path d="M152.847 295.204C152.847 294.685 153.468 295.204 152.847 294.685C149.039 293.576 145.306 292.224 141.671 290.638C140.015 290.638 139.187 289.29 137.324 288.978C134.463 287.553 131.728 285.887 129.149 283.998C128.528 283.998 128.528 283.998 128.528 283.998C135.286 289.94 143.633 293.763 152.536 294.996" fill="#DADADA"/>
<path d="M155.951 293.959V293.129L153.467 291.469H152.122C152.122 291.469 152.122 291.469 151.605 291.469C142.291 287.937 134.053 282.037 127.7 274.35C126.564 273.759 125.213 273.759 124.078 274.35C124.906 276.01 126.251 277.047 127.079 278.707C130.777 281.458 134.611 284.02 138.566 286.385C142.334 288.25 146.288 289.711 150.363 290.743C151.708 290.743 152.536 291.573 153.674 291.884L154.709 291.261C154.709 291.261 154.709 291.261 155.227 291.261L156.054 292.61L155.951 293.959Z" fill="#DADADA"/>
<path d="M167.335 293.232C169.765 290.896 171.609 288.016 172.716 284.828C173 281.099 173 277.353 172.716 273.623L166.196 291.987L166.714 293.336L167.335 293.232Z" fill="#009BDF"/>
<path d="M117.972 291.053H118.8C120.663 289.186 121.594 286.385 123.457 284.206H123.974V282.961C123.974 282.961 123.974 282.961 123.353 282.961C121.711 280.142 121.228 276.792 122.008 273.623C123.043 272.274 125.216 272.274 126.872 272.274C126.872 272.274 126.872 272.274 126.872 271.755C125.139 268.197 122.947 264.883 120.352 261.899C119.021 260.346 118.002 258.549 117.351 256.607C116.884 261.681 116.884 266.786 117.351 271.859V291.053H117.972Z" fill="#009BDF"/>
<path d="M155.33 290.534C155.207 286.434 153.875 282.463 151.501 279.122C151.398 278.855 151.398 278.559 151.501 278.292H152.019C154.502 280.782 155.848 284.621 159.677 286.281C161.022 287.111 161.332 288.252 162.16 288.978L169.094 270.821C168.808 270.478 168.456 270.195 168.059 269.991C167.787 269.291 167.787 268.513 168.059 267.813C168.576 266.775 170.232 266.983 171.06 265.841C172.198 262.936 172.923 259.824 174.061 256.607C175.199 253.391 175.924 251.627 175.096 249.448C174.66 247.593 173.6 245.944 172.095 244.779C169.81 243.364 166.855 243.707 164.954 245.609C163.505 247.455 162.903 249.83 163.299 252.146C163.92 254.117 165.161 254.636 166.817 255.466L169.301 254.947C167.894 254.683 166.7 253.756 166.093 252.457C165.976 251.562 165.976 250.655 166.093 249.76C166.857 248.903 167.948 248.413 169.094 248.411C170.448 249.076 171.462 250.281 171.888 251.731C172.716 252.872 171.888 254.221 172.405 255.259C171.764 256.942 170.505 258.315 168.887 259.097C166.787 259.983 164.375 259.666 162.574 258.267C160.036 256.309 158.546 253.282 158.538 250.071C158.802 247.351 160.191 244.867 162.367 243.223C163.688 242.537 164.879 241.624 165.886 240.526C166.971 240.477 168.048 240.303 169.094 240.007H172.612C172.898 240.007 173.13 239.775 173.13 239.488V237.932C164.771 236.393 156.245 235.974 147.776 236.687C150.701 239.344 152.389 243.104 152.433 247.062C151.398 249.76 153.261 252.042 152.433 254.74C151.605 257.437 154.295 258.06 154.916 259.927L156.262 263.766C156.262 264.596 155.744 264.908 154.916 264.908C154.089 264.908 153.571 264.908 153.054 264.908L152.536 270.925L151.398 274.764L150.363 276.113C150.363 276.113 149.225 276.113 148.5 276.113C146.845 278.603 148.5 281.612 148.5 284.102L147.672 285.139C148.603 286.323 150 287.042 151.501 287.111L149.846 279.744C149.846 279.122 150.674 278.914 150.984 279.122H151.812L153.468 287.629L155.33 290.534Z" fill="#009BDF"/>
<path d="M60.8492 288.045H82.6844V279.848H60.3318L60.0214 288.045H60.8492Z" fill="#DADADA"/>
<path d="M104.519 288.045L104.83 280.056L85.3748 279.848L85.7887 288.045H104.519Z" fill="#DADADA"/>
<path d="M310.35 287.525C310.35 275.801 310.35 264.181 309.833 252.457C309.005 250.486 309.833 248.826 308.384 246.958C307.829 244.751 306.994 242.624 305.9 240.629C303.006 234.846 299.037 229.669 294.206 225.378C290.007 222.976 285.651 220.862 281.167 219.049C279.512 219.049 277.338 217.907 275.683 217.907C274.177 217.369 272.532 217.369 271.026 217.907L269.37 217.389H268.542C265.179 217.937 261.884 218.841 258.711 220.086C248.613 223.73 240.115 230.818 234.703 240.11C233.668 242.808 231.495 244.987 231.495 247.996C231.495 247.996 232.53 248.826 233.151 248.618C235.095 248.406 236.988 249.335 238.014 251.004C239.881 256.331 241.063 261.875 241.533 267.501L241.015 268.227C241.015 268.227 241.843 268.85 242.05 269.369C242.257 269.888 242.671 271.755 242.878 273.208C243.354 274.553 243.979 275.841 244.741 277.046C244.91 277.095 245.089 277.095 245.258 277.046L246.293 276.216C247.733 273.798 249.59 271.655 251.778 269.888C254.572 267.19 258.918 265.011 260.781 262.002L262.23 261.795L259.229 260.965C258.194 260.965 258.194 259.616 257.366 258.786C256.798 256.153 256.798 253.429 257.366 250.797C259.022 246.751 257.366 242.6 258.401 238.554C258.401 238.554 258.401 238.554 258.401 237.932L251.881 229.009L251.053 226.208C251.201 225.415 251.694 224.73 252.399 224.34C255.378 225.344 258.227 226.702 260.884 228.386C260.884 229.009 260.884 229.216 260.884 229.735H265.541C265.541 229.216 265.024 228.905 265.024 228.283L264.403 226.726L268.232 221.02L270.095 220.19C272.268 221.331 272.578 224.029 274.544 225.378C274.544 225.896 274.544 226.208 275.062 226.415C275.062 227.045 274.552 227.556 273.923 227.556V228.905L278.27 229.943V228.594C280.133 226.415 283.962 226.726 286.445 224.859C286.912 224.934 287.304 225.249 287.48 225.689C286.311 229.343 284.676 232.83 282.616 236.064C282.37 236.564 282.093 237.05 281.788 237.517C283.493 240.2 284.257 243.376 283.962 246.543C283.962 249.448 286.756 251.108 285.617 254.117C285.495 254.786 285.322 255.445 285.1 256.088C284.311 256.785 283.584 257.548 282.927 258.371C282.224 258.376 281.583 258.777 281.271 259.408C282.409 260.238 283.755 261.069 283.962 262.729C286.065 263.511 288.077 264.52 289.964 265.737C294.193 268.962 298.235 272.426 302.071 276.113C305.072 279.64 306.728 283.479 309.626 287.318L310.35 287.525Z" fill="#009BDF"/>
<path d="M215.973 287.215H228.494C228.872 284.948 228.872 282.634 228.494 280.367C224.266 279.931 220.015 279.758 215.766 279.849C215.376 282.219 215.376 284.637 215.766 287.007L215.973 287.215Z" fill="#DADADA"/>
<path d="M236.98 287.215H242.154C242.083 282.127 241.352 277.07 239.981 272.17C237.888 276.903 236.864 282.04 236.98 287.215Z" fill="#DADADA"/>
<path d="M292.343 286.903L294.516 283.583L296.793 277.047L297.31 276.528C297.57 276.193 297.747 275.802 297.828 275.387C296.482 272.689 293.688 271.859 291.515 270.199C291.515 270.199 290.998 270.199 290.687 269.369C291.826 271.236 292.55 272.378 293.481 273.934C293.903 278.277 293.41 282.66 292.033 286.799H292.86L292.343 286.903Z" fill="#DADADA"/>
<path d="M315.834 287.215H337.669V280.367H312.833C312.402 282.629 312.402 284.953 312.833 287.215H315.834Z" fill="#DADADA"/>
<path d="M232.219 286.903L232.736 285.555H233.874C234.732 283.089 234.911 280.436 234.392 277.877C233.874 277.877 233.874 277.877 233.564 278.396V275.906C233.834 275.277 233.834 274.563 233.564 273.934V271.029C232.219 274.246 233.564 278.084 231.908 281.405C231.783 283.512 231.783 285.626 231.908 287.734L232.219 286.903Z" fill="#DADADA"/>
<path d="M245.671 286.904H246.706C246.706 286.074 245.671 285.555 245.154 284.932C244.637 284.31 245.154 285.97 245.154 286.904H245.671Z" fill="#DADADA"/>
<path d="M145.499 285.865L144.671 278.499L137.323 274.66L134.84 270.51C134.322 270.51 134.84 271.029 134.012 271.34C133.184 271.651 134.012 270.51 133.495 270.199C132.977 269.887 132.356 270.199 132.149 270.199C132.031 270.534 132.031 270.901 132.149 271.236L131.632 275.075C135.424 279.528 140.162 283.073 145.499 285.45" fill="#DADADA"/>
<path d="M245.878 283.583C245.949 283.133 245.745 282.685 245.361 282.442C245.361 282.442 245.361 283.272 245.361 283.583H245.878Z" fill="#DADADA"/>
<path d="M244.533 280.678C244.533 280.678 244.533 280.678 245.154 280.678C245.775 280.678 245.154 280.678 245.154 280.678L244.326 280.16C244.214 280.532 244.214 280.929 244.326 281.301L244.533 280.678Z" fill="#DADADA"/>
<path d="M284.065 279.018C284.065 279.018 284.065 279.018 284.686 278.188C285.307 277.358 284.686 278.188 284.686 278.188H284.169C284.169 278.188 284.169 278.707 283.651 279.018C283.693 279.285 283.902 279.495 284.169 279.537" fill="#DADADA"/>
<path d="M175.82 278.499C176.775 276.814 177.341 274.935 177.476 273.001C177.379 266.803 178.577 260.653 180.994 254.948C183.788 250.59 182.132 244.572 182.339 239.903L176.337 238.555C175.509 239.592 176.337 241.252 175.82 242.601C179.338 244.78 177.683 250.175 180.166 252.976C180.284 253.523 180.284 254.089 180.166 254.636C180.166 255.155 179.649 255.466 179.131 255.466L177.165 258.475C176.79 260.717 176.165 262.909 175.302 265.012C174.976 265.61 174.699 266.235 174.475 266.879C174.475 266.879 174.475 266.879 175.302 267.398L176.13 269.577C175.298 272.511 175.122 275.593 175.613 278.603L175.82 278.499Z" fill="#DADADA"/>
<path d="M104.52 277.047L105.037 269.473H74.3022V277.047H104.52Z" fill="#DADADA"/>
<path d="M60.3309 276.839L71.1968 277.15L71.5073 269.68L60.3309 269.473V276.839Z" fill="#DADADA"/>
<path d="M228.183 277.358V269.68H224.044C223.914 272.134 223.914 274.593 224.044 277.047C224.212 277.102 224.393 277.102 224.561 277.047L228.183 277.358Z" fill="#DADADA"/>
<path d="M215.972 277.047H221.456L221.974 269.888C219.955 269.147 217.774 268.967 215.661 269.369V277.047H215.972Z" fill="#DADADA"/>
<path d="M313.041 277.046H324.32C325.666 274.867 324.32 271.547 324.32 269.057H313.041C312.43 271.58 312.43 274.212 313.041 276.735V277.046Z" fill="#DADADA"/>
<path d="M328.046 277.046H337.567V269.057H327.218C326.08 271.236 327.218 273.934 327.218 276.527C327.218 276.527 327.218 276.527 328.046 276.527" fill="#DADADA"/>
<path d="M143.637 275.179H147.155C147.155 274.66 147.983 275.179 148.501 275.179C149.018 275.179 148.501 275.179 148.501 274.556H149.122L149.949 271.859H147.259C147.259 271.859 146.431 271.236 146.431 271.029V270.199H149.432C150.061 269.107 150.061 267.763 149.432 266.671C149.432 266.671 149.432 266.152 148.915 265.841C148.397 265.53 148.915 265.841 148.915 265.219L152.123 264.389L149.122 257.022C147.776 256.503 146.431 257.022 144.982 257.022C143.533 257.022 142.499 257.852 141.981 258.371C141.464 258.89 141.153 258.371 140.946 257.541C140.739 256.711 141.464 256.4 142.292 256.192C144.34 255.367 146.451 254.708 148.604 254.221V250.901C147.259 249.863 145.086 250.901 143.119 251.523C141.19 252.487 139.182 253.285 137.117 253.91L136.29 258.267H135.462L134.634 262.106H134.013L132.668 261.276C132.668 261.276 132.668 261.276 132.047 261.276C131.519 262.097 131.519 263.152 132.047 263.974C132.668 264.804 133.392 265.115 133.909 265.841H135.565L136.186 266.671L135.358 267.709L134.841 268.539C137.014 270.199 136.807 273.726 140.325 274.038L142.499 274.556" fill="#DADADA"/>
<path d="M231.184 273.208L232.736 267.709C232.736 267.19 231.702 266.567 231.184 266.567V273.208Z" fill="#DADADA"/>
<path d="M236.98 273.208C237.923 271.906 238.462 270.354 238.532 268.747V267.917V266.775C238.532 264.078 237.186 261.38 237.186 258.268C236.813 256.318 236.259 254.407 235.531 252.561L233.875 251.731C233.047 252.769 235.013 253.91 235.324 254.948C235.634 255.985 233.875 258.268 234.806 259.616C235.738 260.965 235.634 260.135 235.634 260.654C235.634 261.173 235.634 261.484 234.806 261.484C233.668 261.484 232.944 259.824 232.53 258.475V257.956C231.1 257.028 229.983 255.691 229.322 254.118L230.874 257.126C230.874 257.645 232.012 258.164 232.219 259.098C232.426 260.031 232.219 259.098 232.219 259.928C232.219 260.758 229.736 257.956 229.011 256.608L230.874 260.758L230.357 261.588V262.107C230.601 262.383 230.879 262.627 231.184 262.833C232.058 262.821 232.845 263.361 233.151 264.182C234.289 266.044 235.127 268.075 235.634 270.199C236.13 270.971 236.513 271.809 236.773 272.689" fill="#DADADA"/>
<path d="M129.459 268.85H129.977L130.805 268.228H131.943C132.385 268.264 132.802 268.014 132.978 267.605C132.978 266.568 131.633 265.945 131.633 264.597C130.424 263.032 130.111 260.951 130.805 259.098C131.633 257.438 132.978 257.126 134.634 256.608L135.151 255.259L135.979 254.74V254.221C131.837 255.657 128.007 257.875 124.699 260.758C124.995 261.507 125.455 262.181 126.044 262.729V264.389L127.183 267.398L129.459 268.85Z" fill="#DADADA"/>
<path d="M227.977 267.502V265.323L226.114 259.305H215.972C215.707 261.753 215.707 264.223 215.972 266.672C219.801 268.02 224.148 266.672 228.287 267.813" fill="#DADADA"/>
<path d="M82.4775 266.671L83.2019 259.616L60.3318 258.994L60.0214 266.671H82.4775Z" fill="#DADADA"/>
<path d="M104.83 266.153V257.956C103.795 258.579 104.312 259.098 104.83 259.098C103.05 259.412 101.229 259.412 99.4486 259.098L85.4781 259.616V266.153H104.83Z" fill="#DADADA"/>
<path d="M313.04 266.36H337.566V258.786H312.73C312.128 261.275 312.128 263.871 312.73 266.36H313.04Z" fill="#DADADA"/>
<path d="M281.892 263.662V262.832C281.892 262.832 281.892 262.832 281.064 262.832V263.87L281.892 263.662Z" fill="#DADADA"/>
<path d="M269.369 262.314L274.233 261.795C274.854 261.795 274.233 260.965 274.854 260.446C275.475 259.927 274.854 260.446 275.372 259.927C275.889 259.409 277.545 257.541 279.2 258.267L280.028 257.749C281.167 257.749 281.374 256.4 282.409 256.4C283.593 255.546 284.226 254.118 284.064 252.665C283.789 251.592 283.334 250.575 282.719 249.656C282.303 247.847 282.303 245.966 282.719 244.157C282.719 243.638 282.202 243.327 282.202 243.119C281.374 246.128 283.34 249.967 281.374 252.768C281.517 254.154 281.022 255.529 280.028 256.504C278.373 252.976 281.374 249.137 280.028 246.128H279.2C277.338 244.468 274.854 246.128 272.681 245.298C272.681 245.298 272.164 245.298 272.164 244.468C272.212 243.916 272.648 243.479 273.198 243.431C275.422 242.736 277.804 242.736 280.028 243.431C280.385 241.895 280.203 240.282 279.511 238.866C275.47 237.966 271.307 237.755 267.196 238.243C265.263 237.779 263.226 238.076 261.505 239.073C261.21 240.479 261.51 241.944 262.333 243.119C264.274 242.733 266.285 242.913 268.128 243.638C268.128 243.638 269.783 244.468 269.783 244.987V251.316C269.783 252.146 271.129 251.316 271.646 251.835C271.955 252.017 272.179 252.316 272.267 252.665V253.183C271.439 254.221 270.094 253.183 268.956 253.183C267.817 253.183 268.128 253.183 267.921 253.183C267.093 251.523 267.921 249.345 267.3 247.477H264.299L263.781 246.647L264.299 245.506H263.16C263.16 246.024 263.16 246.854 263.16 247.477C263.132 251.678 264.164 255.819 266.161 259.512C266.564 260.167 267.014 260.791 267.507 261.38L268.645 261.899L269.369 262.314Z" fill="#DADADA"/>
<path d="M122.526 260.031C124.492 257.645 127.493 256.815 129.666 254.636C135.878 251.063 142.474 248.209 149.328 246.128C149.593 244.708 149.256 243.242 148.397 242.082C147.735 241.231 147.009 240.433 146.224 239.696C142.188 242.082 139.083 246.44 134.737 248.1C133.081 249.241 131.529 249.241 130.391 249.967C128.745 250.21 127.163 250.774 125.734 251.627C123.632 251.769 121.523 251.769 119.421 251.627C119.489 253.533 119.947 255.405 120.767 257.126C122.112 257.956 121.594 259.616 122.422 260.342L122.526 260.031Z" fill="#DADADA"/>
<path d="M146.016 259.616L149.535 258.786C149.535 258.786 149.535 257.956 149.535 257.645L145.085 258.164C144.981 258.43 144.981 258.727 145.085 258.994C145.085 258.994 145.706 258.994 146.223 259.512" fill="#1D1D1B"/>
<path d="M262.23 259.616L260.367 254.118C260.367 254.118 259.85 253.599 259.332 254.118L258.711 257.438L259.539 258.786L262.23 259.616Z" fill="#DADADA"/>
<path d="M273.199 258.475H273.717C273.717 258.475 273.717 258.475 274.234 257.853L273.406 255.674H267.094L265.749 257.334C265.749 257.853 266.887 257.853 267.715 257.334C268.543 256.815 267.715 257.334 268.543 256.815L272.992 257.645C272.992 257.645 272.992 258.268 272.992 257.645" fill="#1D1D1B"/>
<path d="M60.3309 256.815H71.1968V247.477C67.5799 247.748 63.9479 247.748 60.3309 247.477V256.815Z" fill="#DADADA"/>
<path d="M73.3701 255.985C83.7186 255.985 94.9984 255.985 104.415 255.985V244.572C95.2053 246.439 83.7186 245.921 74.405 247.062H73.8875L73.3701 255.985Z" fill="#DADADA"/>
<path d="M226.32 256.296L228.493 250.279V247.581H224.664C224.011 250.274 224.011 253.085 224.664 255.777C224.664 256.296 224.664 255.778 224.664 256.296H226.32Z" fill="#DADADA"/>
<path d="M219.801 256.296C219.801 256.296 220.629 256.296 220.836 256.296C222.284 253.806 220.836 250.589 221.457 247.892C219.801 247.062 217.628 247.892 215.765 247.892V256.088C216.593 256.918 218.455 256.088 219.904 256.607" fill="#DADADA"/>
<path d="M336.014 256.296L337.669 255.673L337.876 246.958H327.01L327.321 255.673L336.014 256.296Z" fill="#DADADA"/>
<path d="M313.971 255.154L323.802 255.673V246.958H312.522V251.834V255.154C312.522 255.673 313.868 255.154 314.178 255.154" fill="#DADADA"/>
<path d="M233.668 254.947L231.805 250.797C231.805 250.797 231.288 250.797 230.977 250.797C230.667 250.797 231.598 253.598 232.323 254.843C233.047 256.088 232.84 254.843 233.461 255.673L233.668 254.947Z" fill="#DADADA"/>
<path d="M117.352 249.137C117.794 248.385 118.696 248.041 119.525 248.307C122.396 248.864 125.347 248.864 128.217 248.307C128.535 247.954 128.923 247.671 129.356 247.477C129.356 247.477 129.356 247.477 129.873 247.477C134.321 246.029 138.032 242.904 140.222 238.762V238.243C135.458 238.401 130.716 238.956 126.044 239.903C123.106 240.454 120.203 241.181 117.352 242.082C117.15 242.146 116.933 242.146 116.731 242.082V243.223V249.552L117.352 249.137Z" fill="#009BDF"/>
<path d="M274.855 247.478H277.028C277.099 247.276 277.099 247.057 277.028 246.855C277.028 246.855 277.028 246.855 276.511 246.855H273.199C272.936 247.001 272.772 247.28 272.772 247.582C272.772 247.883 272.936 248.162 273.199 248.308L274.855 247.478Z" fill="#1D1D1B"/>
<path d="M263.885 245.609L266.058 245.92L265.851 245.609H263.885Z" fill="#DADADA"/>
<path d="M229.321 245.609L233.668 237.516C227.973 236.772 222.218 236.599 216.489 236.998C215.972 236.998 215.972 236.998 215.661 236.998V244.572C220.008 245.609 224.871 243.43 229.321 245.402" fill="#DADADA"/>
<path d="M311.488 244.78L337.669 244.157V236.272H307.348C306.831 236.272 307.348 236.272 307.348 237.102C308.794 239.465 310.074 241.927 311.177 244.469L311.488 244.78Z" fill="#DADADA"/>
<path d="M60.3318 243.949H65.1956L66.8513 242.082L68.5071 241.044L63.0224 233.159L60.8492 233.989C60.8492 233.989 60.3318 233.989 60.0214 234.819V244.364L60.3318 243.949Z" fill="#DADADA"/>
<path d="M67.9889 243.949C67.9889 243.949 68.8168 243.949 69.1273 243.949C69.4377 243.949 69.1273 243.949 69.6447 243.949C70.1621 243.949 69.6447 243.43 68.8168 243.119L66.9541 244.779L67.9889 243.949Z" fill="#DADADA"/>
<path d="M74.5084 243.119H83.5116C83.5116 240.941 81.028 239.073 79.9931 236.894C78.0269 236.894 76.9921 239.177 75.0259 240.214C73.0597 241.252 73.991 241.044 73.3701 241.563L74.5084 243.742V243.119Z" fill="#DADADA"/>
<path d="M87.3408 242.082H89.6174C90.6523 239.696 93.3428 239.177 94.9986 237.206C94.1707 235.546 92.8254 233.679 91.7906 231.707C90.7557 229.736 90.4453 229.321 89.307 228.698L81.4421 234.094L87.1338 241.979L87.3408 242.082Z" fill="#DADADA"/>
<path d="M93.9635 241.771H94.1705L97.9994 241.459L96.6541 239.696L93.9635 241.771Z" fill="#DADADA"/>
<path d="M101 241.46H104.829V233.886L99.3447 238.244C100.173 239.385 101.207 240.423 100.69 241.771L101 241.46Z" fill="#DADADA"/>
<path d="M71.611 238.866L77.9236 234.197C77.9236 234.197 77.9236 234.197 77.3027 233.678L72.4389 227.142L65.8159 231.811C67.1908 234.811 69.1223 237.523 71.5076 239.8L71.611 238.866Z" fill="#DADADA"/>
<path d="M117.351 238.244L121.491 231.707L116.316 226.001C116.909 230.057 117.254 234.145 117.351 238.244Z" fill="#DADADA"/>
<path d="M122.525 237.205C124.676 237.156 126.806 236.771 128.838 236.064C145.101 233.228 161.73 233.228 177.993 236.064C170.025 219.671 160.504 204.005 151.501 188.13C151.55 187.961 151.55 187.781 151.501 187.612H150.88C150.052 188.753 149.224 190.102 148.396 191.45C142.084 202.344 136.082 213.342 129.873 224.029C127.206 228.151 124.821 232.449 122.732 236.894L122.525 237.205Z" fill="#DADADA"/>
<path d="M182.133 236.065C182.65 222.68 182.133 209.296 182.133 195.808H176.338C175.588 199.949 175.413 204.174 175.82 208.363C175.82 210.334 175.82 211.994 175.82 213.55C175.82 218.738 174.992 225.067 177.994 229.217L182.133 236.065Z" fill="#DADADA"/>
<path d="M259.849 235.857C263.269 235.263 266.728 234.916 270.197 234.819C270.458 234.949 270.765 234.949 271.025 234.819H274.854H275.889H280.856C282.627 232.585 283.993 230.057 284.892 227.349L281.581 228.179C281.285 228.693 281.285 229.326 281.581 229.839C279.097 231.188 276.303 228.802 273.923 229.839C273.095 229.839 272.267 229.839 271.75 229.321L271.232 228.698L272.267 223.822L270.611 221.643L269.059 222.68L267.403 224.963C268.397 225.937 268.892 227.312 268.749 228.698C266.886 231.188 263.057 230.047 260.056 231.188C259.539 231.188 259.228 231.188 258.918 230.358L259.539 228.179L254.571 226.208L260.056 234.404L259.849 235.857Z" fill="#DADADA"/>
<path d="M97.7924 235.546L104.829 229.84L99.3447 222.162C99.0422 221.919 98.6123 221.919 98.3098 222.162C96.1367 224.133 93.3426 225.482 91.4799 227.349C93.105 230.339 95.1238 233.096 97.482 235.546H97.7924Z" fill="#DADADA"/>
<path d="M235.324 234.716L241.844 227.35H224.355C224.355 227.35 224.355 227.35 224.355 227.868V233.886C227.526 234.058 230.704 234.058 233.876 233.886C234.418 233.741 234.989 233.741 235.531 233.886" fill="#DADADA"/>
<path d="M215.972 234.404H220.836C221.974 232.848 220.836 229.839 220.836 227.556H215.972V234.611V234.404Z" fill="#DADADA"/>
<path d="M305.692 234.197L324.32 233.574C324.584 231.299 324.584 229.001 324.32 226.726C316.051 226.159 307.752 226.159 299.483 226.726C301.726 229.059 303.834 231.519 305.796 234.093L305.692 234.197Z" fill="#DADADA"/>
<path d="M327.321 233.574C330.776 233.95 334.269 233.775 337.669 233.055V226.519C334.053 226.222 330.419 226.222 326.803 226.519L327.321 233.574Z" fill="#DADADA"/>
<path d="M79.9939 232.537L87.6517 227.038L81.8566 219.153L74.3022 224.859L79.9939 232.848V232.537Z" fill="#DADADA"/>
<path d="M60.332 231.707L61.1598 231.188C61.1598 231.188 61.1598 231.188 61.1598 230.566C60.8723 230.224 60.5207 229.942 60.125 229.736C60.125 229.736 60.125 231.085 60.125 231.603L60.332 231.707Z" fill="#DADADA"/>
<path d="M150.156 230.358C151.01 230.41 151.831 230.018 152.329 229.32C152.665 228.624 153.121 227.992 153.674 227.452C153.674 227.452 153.674 226.934 154.192 226.934C154.709 226.934 154.192 226.104 154.709 225.792C155.227 225.481 157.193 227.452 158.848 226.622C160.504 225.792 160.194 224.651 160.194 223.302C160.113 223.032 160.113 222.743 160.194 222.472L160.815 221.331V220.501C161.081 220.397 161.376 220.397 161.643 220.501C162.239 220.409 162.746 220.018 162.988 219.464L161.953 216.455L160.09 213.965C160.09 212.823 161.436 211.267 160.09 209.918L157.4 208.777C156.261 208.777 154.916 210.437 153.571 209.918L152.432 206.806C151.605 206.287 151.087 204.938 149.742 205.457C148.397 205.976 148.604 207.117 148.397 207.636L147.569 209.296C146.574 209.442 145.563 209.442 144.568 209.296C143.74 209.296 142.705 208.777 142.084 209.296C141.463 209.815 142.084 213.135 140.739 214.795C139.754 215.041 138.836 215.502 138.048 216.143C138.048 216.662 137.22 218.115 138.048 218.841C138.876 219.567 139.083 220.19 140.221 220.501L141.256 222.161C141.256 223.199 139.911 224.34 140.428 225.689C140.785 226.563 141.662 227.108 142.601 227.037C143.56 227.447 144.644 227.447 145.602 227.037L147.776 228.386L149.949 231.603L150.156 230.358Z" fill="#1D1D1B"/>
<path d="M63.6424 229.217L70.4724 224.237L65.6086 217.804C63.4928 218.658 61.6373 220.053 60.2274 221.85V224.859L63.6424 229.217Z" fill="#DADADA"/>
<path d="M123.146 229.01L127.699 221.332L125.836 218.323C124.698 218.323 124.181 219.464 123.353 219.672C122.525 219.879 119.834 221.851 118.385 223.822L122.421 229.321L123.146 229.01Z" fill="#DADADA"/>
<path d="M150.673 227.868H151.294C152.123 226.238 152.123 224.309 151.294 222.68C150.387 224.247 150.023 226.071 150.259 227.868H150.673Z" fill="#DADADA"/>
<path d="M90.1347 225.481L97.4821 219.671L91.7904 211.993L83.8221 217.492L89.8242 225.481H90.1347Z" fill="#DADADA"/>
<path d="M244.224 225.17C248.471 222.042 253.052 219.397 257.884 217.285C256.849 216.455 254.572 217.285 253.02 217.285C246.19 217.285 239.567 217.285 233.047 217.285V223.614C233.565 224.444 234.6 223.614 235.221 224.444C238.429 224.444 241.533 223.821 244.224 224.444" fill="#DADADA"/>
<path d="M104.829 224.652V217.804L101.621 219.672L104.933 224.34L104.829 224.652Z" fill="#DADADA"/>
<path d="M157.814 224.652C158.086 224.397 158.241 224.04 158.241 223.666C158.241 223.292 158.086 222.935 157.814 222.68C157.257 221.668 156.385 220.866 155.33 220.398H153.985C154.368 222.138 155.455 223.641 156.986 224.548C156.986 224.548 157.607 224.548 157.814 224.548" fill="#DADADA"/>
<path d="M228.183 224.652H230.046V217.596C225.286 217.596 219.698 217.596 214.834 217.596V223.925C218.985 224.474 223.168 224.752 227.355 224.755" fill="#DADADA"/>
<path d="M297 224.341C300.829 223.511 305.176 224.341 309.211 224.341C309.484 222.066 309.484 219.767 309.211 217.493C309.211 216.974 309.211 217.493 309.211 216.974H285.927C288.101 219.153 292.24 219.361 293.792 222.369C294.788 223.194 295.905 223.859 297.104 224.341" fill="#DADADA"/>
<path d="M143.015 224.341L146.016 223.511L147.362 220.398C145.831 220.214 144.333 220.944 143.533 222.266L142.394 223.718C142.339 223.887 142.339 224.068 142.394 224.237L143.015 224.341Z" fill="#DADADA"/>
<path d="M312.523 224.029H337.67V216.974H312.523L312.006 223.822L312.523 224.029Z" fill="#DADADA"/>
<path d="M72.3353 222.681L79.9931 217.182L75.9572 210.334L68.0924 215.522L72.3353 222.681Z" fill="#DADADA"/>
<path d="M117.351 220.191L123.354 215.833C123.354 215.833 123.354 215.833 123.871 215.003C122.449 212.33 120.595 209.911 118.386 207.844H117.351C116.656 211.921 116.482 216.07 116.834 220.191H117.351Z" fill="#DADADA"/>
<path d="M150.156 219.672H151.295C151.431 218.778 151.431 217.868 151.295 216.974C150.674 217.493 149.432 216.352 149.121 216.974V219.153L150.156 219.672Z" fill="#DADADA"/>
<path d="M158.745 218.841C159.46 218.737 160.137 218.451 160.711 218.011V217.181C160.259 216.535 159.603 216.06 158.849 215.832L156.365 216.351C156.365 216.351 155.227 216.973 155.227 217.492L158.745 218.841Z" fill="#DADADA"/>
<path d="M60.1244 218.011L63.3325 215.833C64.1603 215.003 63.3325 214.173 62.5046 213.342C61.6431 212.441 60.6265 211.703 59.5035 211.164L60.1244 218.011Z" fill="#DADADA"/>
<path d="M99.6559 218.011C101.482 216.889 103.122 215.489 104.52 213.861V210.956C104.52 208.155 102.346 206.806 101.829 204.939C101.661 204.883 101.48 204.883 101.312 204.939L93.6538 210.334L99.035 218.011H99.6559Z" fill="#DADADA"/>
<path d="M142.291 218.634L146.638 218.011C146.638 217.492 145.81 216.974 145.603 216.974C144.01 216.402 142.327 216.121 140.636 216.144C140.636 216.144 140.636 216.144 140.118 216.766V217.285L142.291 218.634Z" fill="#DADADA"/>
<path d="M129.459 217.804C129.459 217.804 129.459 217.804 129.977 217.804L132.15 213.757L128.321 216.455C128.345 217.184 128.789 217.832 129.459 218.115" fill="#DADADA"/>
<path d="M147.155 215.314C147.741 214.511 147.741 213.419 147.155 212.616C146.4 211.444 145.268 210.565 143.947 210.126C143.326 210.749 143.947 211.786 143.947 212.409C144.819 213.604 145.907 214.625 147.155 215.418V215.314Z" fill="#DADADA"/>
<path d="M82.1666 215.314C85.025 213.794 87.6988 211.949 90.1349 209.815L85.4781 203.278L77.6133 208.777L81.9596 215.314H82.1666Z" fill="#DADADA"/>
<path d="M153.674 213.861C154.933 213.948 156.182 213.58 157.193 212.823C157.645 212.255 157.931 211.573 158.021 210.852C158.021 210.852 158.538 210.852 158.021 210.852C157.503 210.852 154.192 210.852 153.674 212.823C153.157 214.795 153.157 214.172 153.674 214.172" fill="#DADADA"/>
<path d="M66.3337 213.654L73.9916 208.466C72.9299 206.206 71.4558 204.165 69.6452 202.449L62.2979 207.636L66.4372 213.343L66.3337 213.654Z" fill="#DADADA"/>
<path d="M229.011 213.862H337.669V206.184C333.323 205.354 328.459 206.184 324.01 205.354L323.492 199.855C317.697 199.855 312.212 199.855 306.314 199.855L304.968 206.391C304.968 206.85 304.598 207.221 304.14 207.221C300.932 207.221 297.311 207.221 293.792 207.221C290.035 207.599 286.24 207.246 282.616 206.184L281.995 200.996C276.325 200.005 270.555 199.726 264.816 200.166C263.989 201.204 264.816 203.382 264.816 205.043V205.665C264.76 206.494 264.238 207.218 263.471 207.533C257 208.123 250.477 207.738 244.12 206.391C243.41 204.649 243.23 202.736 243.602 200.892C238.117 200.062 232.115 200.892 226.734 200.374C225.389 202.345 227.355 205.25 225.699 207.533C222.512 207.984 219.292 208.158 216.075 208.051C215.808 209.874 215.808 211.727 216.075 213.55C220.45 214.563 224.936 215.016 229.425 214.899" fill="#DADADA"/>
<path d="M126.355 213.343L134.013 207.636C132.584 204.812 130.735 202.223 128.528 199.959C125.753 201.914 123.093 204.027 120.56 206.288C122.094 208.971 124.051 211.388 126.355 213.446" fill="#DADADA"/>
<path d="M150.466 213.342H151.604C152.639 212.201 151.604 209.814 151.604 208.154C150.485 209.186 149.91 210.683 150.052 212.201C150.123 212.402 150.123 212.622 150.052 212.823L150.466 213.342Z" fill="#DADADA"/>
<path d="M91.9981 208.155L99.8629 202.76C98.6701 200.234 96.9805 197.975 94.8956 196.12L87.2378 201.93L91.6876 208.155H91.9981Z" fill="#DADADA"/>
<path d="M75.9579 206.599L83.6158 201.1C82.6932 199.195 81.39 197.499 79.7868 196.12L75.9579 196.742C75.337 196.742 75.9579 198.299 74.8196 198.61C73.6813 198.921 72.336 199.647 71.6116 201.1L75.9579 206.599Z" fill="#DADADA"/>
<path d="M104.83 206.599L104.313 202.241C104.313 202.241 102.657 202.241 102.657 203.59L104.83 206.599Z" fill="#DADADA"/>
<path d="M60.1248 205.976L67.9896 200.269L66.3339 197.987L59.8143 199.439V205.976H60.1248Z" fill="#DADADA"/>
<path d="M136.496 205.664L140.532 198.817L137.013 193.836C134.737 194.355 132.874 196.845 130.701 198.194C131.879 201.084 133.64 203.698 135.875 205.872L136.496 205.664Z" fill="#DADADA"/>
<path d="M217.835 204.109H223.009C223.733 203.071 223.009 201.1 223.009 199.44C223.009 197.78 223.009 199.44 222.181 199.44C220.303 199.952 218.725 201.232 217.835 202.968L217.317 204.005" fill="#DADADA"/>
<path d="M246.707 203.797H261.195C262.023 201.93 261.195 199.128 262.85 197.78C268.853 195.082 275.889 197.78 282.409 196.431C283.405 196.455 284.328 196.957 284.893 197.78C284.893 199.751 284.893 201.411 284.893 202.967C290.703 203.642 296.571 203.642 302.381 202.967V197.987C302.381 197.987 302.899 197.157 303.416 196.95C308.575 196.453 313.757 196.245 318.939 196.327C321.112 196.327 323.906 196.327 325.252 197.157C326.597 197.987 325.252 200.685 326.079 202.345H336.428V194.667L324.32 193.63C323.758 193.436 323.411 192.871 323.492 192.281C323.626 190.658 323.626 189.027 323.492 187.404C317.684 186.792 311.838 186.619 306.003 186.886C305.726 187.367 305.726 187.96 306.003 188.442C306.26 190.215 305.971 192.025 305.176 193.63C298.744 194.235 292.279 194.408 285.824 194.148C284.739 193.919 283.716 193.459 282.823 192.799L282.306 187.819C276.606 187.136 270.866 186.859 265.127 186.989L264.61 192.696C264.092 193.733 262.643 193.733 262.126 194.252C256.682 193.872 251.219 193.872 245.776 194.252L243.913 192.592V187.923C238.428 187.197 232.736 187.923 227.252 187.923C226.672 190.965 226.498 194.07 226.734 197.157C232.943 198.817 240.291 195.808 246.293 198.298L246.81 204.109C246.97 204.201 247.168 204.201 247.328 204.109" fill="#DADADA"/>
<path d="M119.007 203.485C120.662 203.485 121.801 201.618 123.456 200.788C125.112 199.958 126.147 199.128 126.975 197.675L123.456 192.488L117.972 193.318L117.144 195.497C117.144 198.194 117.144 201.514 119.007 203.485Z" fill="#DADADA"/>
<path d="M102.346 200.581L104.209 199.543V197.364C104.209 196.846 103.174 197.364 102.864 197.364C102.553 197.364 101.829 196.742 101.829 196.223V194.252L97.172 194.771C97.6894 197.261 99.8626 198.921 101.518 201.1L102.346 200.581Z" fill="#DADADA"/>
<path d="M83.5122 195.911L83.2018 196.119L85.7889 199.647H85.9959L91.998 195.081L83.5122 195.911Z" fill="#DADADA"/>
<path d="M70.1623 198.92L71.8181 197.779C71.1972 197.779 70.4728 197.779 69.6449 197.779V198.609L70.1623 198.92Z" fill="#DADADA"/>
<path d="M129.459 196.119L135.979 191.243L126.976 192.28C126.976 193.733 128.321 195.082 129.77 196.43" fill="#DADADA"/>
<path d="M142.808 195.082L145.292 190.413C143.979 189.992 142.568 189.992 141.256 190.413L140.428 191.243V192.073L142.911 195.082H142.808Z" fill="#DADADA"/>
<path d="M108.659 193.111H113.626L111.453 188.442C109.797 189.065 108.969 191.244 107.935 192.489V193.111H108.659Z" fill="#DADADA"/>
<path d="M174.992 192.903L180.477 192.28C180.116 190.47 179.17 188.829 177.786 187.612C176.347 189.045 175.311 190.835 174.785 192.799L174.992 192.903Z" fill="#DADADA"/>
<path d="M151.294 176.095L153.157 175.576C153.299 172.659 152.768 169.747 151.605 167.069C151.605 167.069 151.605 167.899 150.984 167.899C150.984 170.7 149.431 173.916 150.984 176.095H151.294Z" fill="#DADADA"/>
<path d="M158.745 167.173C158.745 167.173 160.09 168.21 160.711 168.003C161.156 166.584 161.156 165.063 160.711 163.645L153.363 165.305C153.406 165.58 153.406 165.86 153.363 166.135L158.745 167.173Z" fill="#DADADA"/>
<path d="M140.635 167.898L147.775 166.549L148.81 165.927L147.775 164.578L141.152 163.956V166.238V167.587" fill="#DADADA"/>
<path d="M151.295 163.541C151.686 163.482 152.048 163.3 152.329 163.022L153.157 155.344V154.825H149.121C148.604 154.825 149.121 156.174 149.121 156.693C150.083 158.854 150.913 161.071 151.605 163.333L151.295 163.541Z" fill="#DADADA"/>
<path d="M41.1862 96.8275L59.503 91.9511L57.6403 86.141C50.9518 87.5608 44.4309 89.6821 38.1852 92.4699L41.1862 96.8275Z" fill="#DADADA"/>
<path d="M355.365 95.4793C357.228 94.338 358.056 92.1592 359.505 90.4991C360.954 88.8391 359.505 89.9804 359.505 89.9804C357.332 88.1128 353.813 88.1128 351.019 86.764C351.019 86.764 351.019 86.764 350.502 86.764L348.018 93.093L355.365 95.4793Z" fill="#DADADA"/>
<path d="M345.534 92.6784C345.534 92.6784 345.534 92.6784 346.052 92.6784L348.225 86.3495C341.863 83.9949 335.322 82.1561 328.667 80.8506C327.566 83.1858 327 85.7381 327.011 88.3208L345.534 92.6784Z" fill="#DADADA"/>
<path d="M62.5041 91.018L84.8567 85.8304L83.5114 78.9827C76.6815 80.3315 68.5062 82.199 60.8484 84.1703C60.8484 84.1703 60.8484 84.1703 60.3309 84.1703L62.5041 91.018Z" fill="#DADADA"/>
<path d="M36.0125 89.1506L46.361 86.1418C46.361 84.793 45.0157 79.8128 43.6704 79.2941L31.0453 82.1991L36.0125 89.1506Z" fill="#DADADA"/>
<path d="M322.665 87.4903H324.32L325.976 80.1238C322.258 79.671 318.609 78.7651 315.11 77.4262C311.139 76.8399 307.201 76.0434 303.313 75.0399L301.45 82.9251V83.4439L322.665 87.4903Z" fill="#DADADA"/>
<path d="M361.367 87.1788L364.368 83.6512C364.368 83.6512 364.368 83.6512 364.368 83.1325C357.55 79.8033 350.307 77.4294 342.843 76.0773L341.188 81.0574L361.367 87.1788Z" fill="#DADADA"/>
<path d="M88.1686 85.3112L110.521 81.1611C111.349 79.2936 109.693 75.9735 109.486 73.4834C102.139 75.3509 94.6881 76.4922 86.5128 77.841L87.6511 84.6887V85.2075L88.1686 85.3112Z" fill="#DADADA"/>
<path d="M49.9828 85.0001L70.6797 79.5012L69.024 72.3423L47.7062 78.0487C47.8281 80.5298 48.6937 82.9163 50.1898 84.8964L49.9828 85.0001Z" fill="#DADADA"/>
<path d="M297.518 82.821H298.035C299.38 81.1609 299.173 78.6709 299.691 76.8033C300.208 74.9357 300.208 75.1433 300.208 74.5207L277.545 70.6819L276.407 79.1896C283.237 80.7459 290.584 81.3684 297.725 83.0285" fill="#DADADA"/>
<path d="M114.143 80.5388L135.771 77.8413L134.943 69.8523C127.441 70.4295 119.978 71.434 112.59 72.8611C112.54 75.5341 112.924 78.1975 113.729 80.7463L114.143 80.5388Z" fill="#DADADA"/>
<path d="M337.877 80.5391C338.046 80.5881 338.226 80.5881 338.395 80.5391L340.05 75.3515C332.676 72.9085 325.088 71.1715 317.387 70.1638L316.042 75.144C322.665 77.5303 330.53 78.6716 337.877 80.8504" fill="#DADADA"/>
<path d="M367.162 79.8129C368.815 78.2743 370.12 76.3995 370.991 74.314C360.863 70.2239 350.496 66.759 339.946 63.9387C299.6 53.1483 258.205 46.7821 216.489 44.952C206.14 44.3295 196.309 44.952 186.168 44.952C178.303 44.952 171.163 44.952 163.505 45.4707C144.925 46.5196 126.411 48.5281 108.037 51.4884C84.4824 55.3836 61.215 60.8602 38.3922 67.8813C34.0458 69.5414 29.389 71.4089 25.2496 72.8615L29.389 79.1904C52.1002 72.3246 75.1793 66.7476 98.5166 62.4862C124.779 57.7997 151.335 54.9568 177.993 53.9785C225.178 51.6864 272.456 55.84 318.525 66.3251C324.32 67.4663 329.804 69.1264 335.186 70.3714C345.701 72.897 356.066 76.0145 366.231 79.7092L367.162 79.8129Z" fill="#DADADA"/>
<path d="M272.578 78.9828H273.406C274.44 76.8039 273.923 73.7951 274.751 71.305C274.751 70.7863 274.751 70.7863 274.751 70.475C267.093 69.4375 259.746 68.0887 252.088 67.4662L251.881 76.0777C258.193 77.7377 266.058 77.4265 272.578 78.879" fill="#DADADA"/>
<path d="M73.1639 78.7752L96.1375 73.4838L94.4817 66.1173L71.5082 71.6162L72.8535 78.4639L73.1639 78.7752Z" fill="#DADADA"/>
<path d="M138.979 77.3226L158.641 75.455L158.331 67.2585L137.841 69.6449L138.979 77.3226Z" fill="#DADADA"/>
<path d="M247.845 76.0769H248.362C249.246 73.2563 249.699 70.3181 249.707 67.3617C242.876 66.1213 235.953 65.4619 229.011 65.3904C228.67 68.2135 228.497 71.0544 228.493 73.8981L247.845 76.0769Z" fill="#DADADA"/>
<path d="M161.643 75.4547L182.34 74.3134V65.5981L161.643 66.9469L162.264 75.1434" fill="#DADADA"/>
<path d="M224.147 74.5209H225.803C226.838 72.6533 225.803 69.6445 225.803 66.9469C225.803 66.3244 225.803 66.3244 225.803 65.8057V65.7019C225.803 65.7019 225.803 65.7019 225.285 65.7019H206.141C205.313 67.5695 206.141 69.7483 205.623 71.9271C205.106 74.1059 205.623 73.5871 206.141 74.4171L224.147 74.5209Z" fill="#DADADA"/>
<path d="M313.35 74.5207L314.696 69.333C306.895 66.6406 298.8 64.8989 290.584 64.1454L289.239 69.8518L313.35 74.5207Z" fill="#DADADA"/>
<path d="M185.031 74.3134H202.519C203.251 71.4546 203.251 68.4569 202.519 65.5981H184.513C184.12 68.3161 184.12 71.0767 184.513 73.7946C184.384 74.0561 184.384 74.3632 184.513 74.6246L185.031 74.3134Z" fill="#DADADA"/>
<path d="M99.3445 72.9651L121.18 68.5037L120.145 62.2786C112.626 62.9723 105.16 64.1506 97.7922 65.8062L99.1375 72.6538L99.3445 72.9651Z" fill="#DADADA"/>
<path d="M372.337 72.1353L374.511 69.4378C369.854 67.259 364.162 65.9102 359.505 63.7314C308.801 47.6882 255.998 39.2962 202.83 38.8307C197.138 38.8307 191.964 38.8307 186.479 38.8307C179.014 38.8149 171.552 39.1959 164.127 39.972C144.175 41.2454 124.309 43.6355 104.623 47.1309C79.7081 51.4509 55.0967 57.3771 30.9423 64.8726C28.2517 66.2214 25.2507 67.3627 22.5601 68.7115L23.5949 70.3715C41.8082 65.7027 60.6423 58.7512 79.373 55.3274C83.5124 54.1861 87.6518 53.6673 91.9981 52.526C129.49 45.2535 167.655 42.0533 205.831 42.9808C241.986 43.5865 277.996 47.7215 313.351 55.3274C323.7 58.3362 335.186 60.7225 346.052 63.5239C355.056 66.0139 363.748 69.334 372.234 72.2391" fill="#DADADA"/>
<path d="M286.031 69.6447H286.858L287.893 63.9383C280.786 62.4288 273.6 61.3204 266.368 60.6182L265.851 66.3246L286.031 69.6447Z" fill="#DADADA"/>
<path d="M124.182 68.5032L145.81 65.7018L145.189 59.1654C137.849 59.3161 130.54 60.1497 123.354 61.6555L123.871 68.5032H124.182Z" fill="#DADADA"/>
<path d="M376.062 67.2589C376.264 67.3227 376.481 67.3227 376.683 67.2589C378.2 65.1348 379.583 62.9171 380.822 60.6188C375.022 58.3219 369.076 56.4156 363.023 54.9124L360.539 60.93V62.0713L376.062 67.2589Z" fill="#DADADA"/>
<path d="M261.195 65.7021H262.23C263.575 64.3533 263.058 61.8633 263.368 60.2032C256.142 59.0437 248.848 58.3506 241.533 58.1282L240.912 63.8346C247.856 64.0412 254.774 64.7696 261.609 66.0134" fill="#DADADA"/>
<path d="M21.0076 65.7024L37.1512 60.5148C37.0959 60.3463 37.0959 60.1645 37.1512 59.996L34.564 53.2521L17.2821 59.0622C17.0415 59.553 17.0415 60.1278 17.2821 60.6185C18.9379 62.2786 19.1449 64.1461 20.8006 65.8062L21.0076 65.7024Z" fill="#DADADA"/>
<path d="M149.018 65.7027L167.852 64.0427C169.508 62.3826 167.852 59.685 168.369 57.5062L148.397 58.44C147.994 60.844 147.994 63.2987 148.397 65.7027H149.018Z" fill="#DADADA"/>
<path d="M171.681 63.9385L191.653 62.9009V56.572C184.748 56.3626 177.837 56.5705 170.956 57.1945L171.681 63.9385Z" fill="#DADADA"/>
<path d="M235.013 63.9386H237.497C238.532 61.9673 237.497 60.0998 238.325 58.1285L219.594 57.0909C219.159 59.0731 219.159 61.1264 219.594 63.1086L235.013 63.9386Z" fill="#DADADA"/>
<path d="M194.861 63.108H215.558C216.593 61.7592 216.075 58.9578 216.075 57.0903C209.245 56.2603 201.898 57.0903 194.757 56.4678C194.626 58.5754 194.626 60.6891 194.757 62.7967C194.753 63.1037 194.973 63.3681 195.275 63.4192" fill="#DADADA"/>
<path d="M357.331 60.618C358.596 58.4244 359.504 56.0429 360.022 53.5628C353.821 51.1172 347.459 49.1065 340.981 47.5452L339.635 55.2229L357.124 60.618H357.331Z" fill="#DADADA"/>
<path d="M40.4624 59.2698L58.4686 54.2897L56.6059 46.9232C50.0966 48.138 43.6947 49.8727 37.4613 52.1109L40.2554 59.2698H40.4624Z" fill="#DADADA"/>
<path d="M381.547 57.4023C382.246 57.665 383.034 57.4571 383.514 56.8836C385.418 54.5562 386.985 51.9716 388.17 49.2058C383.954 47.2213 379.596 45.5565 375.131 44.2257L370.475 53.5635L381.547 57.4023Z" fill="#DADADA"/>
<path d="M15.005 56.2604L17.7991 55.2229L13.9702 47.5452L10.1412 48.894L15.005 56.2604Z" fill="#DADADA"/>
<path d="M335.703 53.7703C335.703 53.7703 335.703 54.2891 336.221 53.7703L337.877 46.4039C329.097 43.7291 320.186 41.5127 311.178 39.7637C310.137 42.33 309.408 45.0121 309.004 47.7526L335.703 53.7703Z" fill="#DADADA"/>
<path d="M38.4961 48.2711L34.9776 40.6971L16.6609 46.4035L20.4898 54.0813L38.4961 48.2711Z" fill="#DADADA"/>
<path d="M61.3662 53.5625L82.0631 48.8936C81.9162 46.0635 81.2497 43.2848 80.0969 40.6971L59.4 45.8848L61.5732 53.8738L61.3662 53.5625Z" fill="#DADADA"/>
<path d="M367.68 53.0438C367.623 52.8403 367.623 52.6248 367.68 52.4213L372.027 43.3948L367.991 42.046C366.215 44.9665 364.824 48.1052 363.852 51.3838L367.68 53.0438Z" fill="#DADADA"/>
<path d="M106.485 44.2257L105.14 36.548C97.7968 37.1785 90.5242 38.4632 83.4083 40.3868C82.7874 41.5281 83.4083 42.5656 83.4083 44.0182C83.8863 45.5418 84.2326 47.1039 84.4431 48.6871C91.742 47.9798 98.9739 46.6962 106.071 44.8482" fill="#DADADA"/>
<path d="M304.555 47.2339H306.211L308.073 39.2449C308.073 38.4149 306.211 39.2449 305.383 38.4149C298.357 36.7197 291.239 35.4379 284.065 34.576C283.245 37.2964 282.964 40.1514 283.237 42.98L304.555 47.2339Z" fill="#DADADA"/>
<path d="M389.515 47.0272C391.377 45.6784 391.998 43.1883 393.344 41.5283V41.0095L387.342 39.3495L384.858 45.0559L389.515 47.0272Z" fill="#DADADA"/>
<path d="M9.00263 46.4039L19.3511 42.8763L16.8675 37.1699C12.9741 37.8185 9.26708 39.3052 6.00159 41.5275L8.69218 46.4039H9.00263Z" fill="#DADADA"/>
<path d="M381.341 43.9138L382.789 42.8763L384.963 37.5849C381.007 35.3126 376.649 33.8327 372.13 33.2273C370.718 35.1145 369.697 37.2666 369.129 39.5562L381.341 43.9138Z" fill="#DADADA"/>
<path d="M109.797 43.7062L131.632 40.3861L130.493 31.8784L108.141 35.1985L109.486 43.7062H109.797Z" fill="#DADADA"/>
<path d="M279.511 42.8767H280.028L281.684 34.5764C273.489 32.867 265.193 31.6887 256.848 31.0488C255.502 33.2276 256.02 36.7552 255.502 39.4528C263.16 40.8016 271.646 41.4241 279.511 42.7729" fill="#DADADA"/>
<path d="M333.323 42.2544H333.841C335.115 39.2726 336.119 36.1822 336.842 33.0204C333.608 31.3844 330.099 30.3642 326.494 30.0116L323.699 39.5569L333.323 42.2544Z" fill="#DADADA"/>
<path d="M33.8396 37.3779L31.9769 31.3602L19.6622 35.7178L21.8354 41.2167L33.8396 37.3779Z" fill="#DADADA"/>
<path d="M60.8489 32.1894L63.0221 41.5272H63.3325L66.3336 40.3859L64.1604 31.6707L60.8489 32.1894Z" fill="#DADADA"/>
<path d="M69.0235 39.8677L84.6496 36.5476L82.6834 27.0023L66.6433 30.8412L68.8165 39.8677H69.0235Z" fill="#DADADA"/>
<path d="M134.53 39.8676L152.847 38.2076C153.096 35.2927 152.922 32.3569 152.329 29.4923L133.495 31.4636L134.323 39.8676H134.53Z" fill="#DADADA"/>
<path d="M251.881 39.5566H252.916C253.8 36.736 254.253 33.7978 254.261 30.8414C246.476 29.6677 238.635 28.9058 230.77 28.5588L230.253 37.3778L251.881 39.5566Z" fill="#DADADA"/>
<path d="M321.215 39.3485L323.906 29.8032C321.65 28.565 319.13 27.8889 316.558 27.8319C315.213 30.8407 314.902 34.3683 313.764 38.2072L321.215 39.3485Z" fill="#DADADA"/>
<path d="M156.158 38.2079L180.477 36.8591V28.3514C172.124 28.1354 163.766 28.3431 155.434 28.9739L155.951 38.0004" fill="#DADADA"/>
<path d="M225.493 37.3776H227.148C228.183 34.8876 227.148 31.5675 227.976 28.8699C220.57 27.8533 213.098 27.4024 205.624 27.5211V36.2363C211.936 37.0664 219.18 36.2364 226.32 37.3776" fill="#DADADA"/>
<path d="M183.479 36.8583L202.52 36.2358V27.728H187.515H183.375C182.938 30.7209 182.938 33.7617 183.375 36.7545L183.479 36.8583Z" fill="#DADADA"/>
<path d="M282.926 31.6717H283.754L285.927 22.1265C279.136 20.384 272.214 19.2042 265.23 18.5989L263.574 28.9742L282.926 31.6717Z" fill="#DADADA"/>
<path d="M113.626 31.1529L117.973 30.3228L117.352 20.6738C116.006 19.8438 114.144 20.6738 112.488 20.6738C112.333 24.1642 112.682 27.6586 113.523 31.0491L113.626 31.1529Z" fill="#DADADA"/>
<path d="M121.18 30.0112L134.322 28.3511C135.668 25.1348 133.805 21.2959 133.805 17.9758L120.145 19.6359C119.573 23.1102 119.857 26.6723 120.973 30.0112" fill="#DADADA"/>
<path d="M336.22 30.0116H337.048L339.221 22.6451L318.525 17.25C317.383 19.6588 316.716 22.2656 316.558 24.9277L336.22 30.0116Z" fill="#DADADA"/>
<path d="M60.1248 29.4926L73.7847 25.965L72.1289 19.4286L59.2969 22.6449C58.469 24.5125 59.9178 27.3138 60.1248 29.4926Z" fill="#DADADA"/>
<path d="M162.677 25.8616L174.681 25.0315L174.164 14.6562C172.818 14.6562 162.366 15.2788 162.366 15.4863V25.8616" fill="#DADADA"/>
<path d="M231.184 25.8607H234.185L235.013 16.2117C230.064 15.3205 225.033 14.9726 220.008 15.1741V25.5494L231.184 25.8607Z" fill="#DADADA"/>
<path d="M76.6822 25.3426L82.3739 24.5126L80.2007 16.9386L75.2334 18.2874C75.1051 20.7275 75.4931 23.1672 76.3718 25.4463L76.6822 25.3426Z" fill="#DADADA"/>
<path d="M183.789 24.8232V14.4479C182.133 13.8254 179.649 14.4479 177.476 14.4479V24.8232H183.478" fill="#DADADA"/>
<path d="M214.834 25.135H217.111C217.862 21.7301 218.037 18.2228 217.628 14.7597C216.459 14.3314 215.176 14.3314 214.006 14.7597V23.9937C214.006 23.9937 214.834 23.9937 215.041 24.6163" fill="#DADADA"/>
<path d="M285.203 19.1171H286.548C287.567 16.8747 288.028 14.4184 287.894 11.9581C284.5 11.0551 281.039 10.4305 277.545 10.0906L276.51 17.7683L285.203 19.1171Z" fill="#DADADA"/>
<path d="M111.453 18.4943L124.803 16.3155L123.975 9.77905C119.371 10.1434 114.804 10.872 110.315 11.9579L110.832 18.2868" fill="#DADADA"/>
<path d="M272.579 17.4568H273.924C274.756 15.0576 275.142 12.5255 275.062 9.9866C273.199 8.63782 269.888 9.15658 267.404 8.63782C266.266 9.9866 266.576 12.1654 265.749 14.1367V16.108C267.404 17.5606 270.405 16.938 272.579 17.5606" fill="#DADADA"/>
<path d="M128.32 16.0043L133.495 15.1742L132.356 8.53406L127.493 9.15657C126.956 11.3342 127.137 13.6276 128.01 15.693L128.32 16.0043Z" fill="#DADADA"/>
<path d="M230.563 13.3068H235.324L235.841 5.94035L230.356 4.79907L230.563 13.3068Z" fill="#DADADA"/>
<path d="M227.666 12.4773V5.62963C223.244 4.28595 218.589 3.89698 214.006 4.48835L213.489 11.8548L227.666 12.4773Z" fill="#DADADA"/>
<path d="M162.471 13.099H165.782C166.296 10.6706 166.296 8.16099 165.782 5.73254H162.16V13.4103L162.471 13.099Z" fill="#DADADA"/>
<path d="M168.68 12.4768L183.478 12.1655L183.271 4.79907L168.473 5.11033V12.4768H168.68Z" fill="#DADADA"/>
<path d="M164.954 403.625H164.022C163.504 404.567 162.916 405.468 162.263 406.322C161.297 407.466 160.527 408.764 159.987 410.161H160.814C161.348 408.846 162.081 407.621 162.988 406.53C163.639 405.675 164.227 404.773 164.747 403.832H165.471C169.617 401.811 174.051 400.446 178.614 399.786V398.852C173.943 399.531 169.405 400.931 165.161 403.002" fill="#1D1D1B"/>
</g>
<defs>
<clipPath id="clip0">
<rect y="0.543579" width="400" height="485.15" fill="white"/>
</clipPath>
</defs>
</svg>
