<svg width="400" height="523" viewBox="0 0 400 523" fill="none" xmlns="http://www.w3.org/2000/svg">
<g clip-path="url(#clip0)">
<path d="M200.291 521.921C278.105 465.466 331.439 394.165 363.352 303.976C392.291 222.205 403.902 123.106 398.856 1.0252L398.835 0.543579H1.16126L1.14031 1.0252C-3.89578 123.106 7.71551 222.195 36.6443 303.976C68.557 394.165 121.891 465.466 199.705 521.921L199.998 522.13L200.291 521.921Z" fill="#0085CA"/>
<path fill-rule="evenodd" clip-rule="evenodd" d="M157.793 38.686H208.573V15.3483H214.551V38.686H283.256C273.655 47.5751 270.032 77.9696 272.618 87.0367C263.342 79.0376 230.581 74.0853 214.551 74.7135V95.4337H274.67C233.219 212.227 275.99 264.117 303.159 325.628C275.686 314.896 247.427 306.667 217.273 301.914V333.837C255.877 335.439 289.234 337.187 324.434 334.957C314.226 354.442 302.248 372.88 285.036 388.166C216.08 389.181 140.141 392.406 84.1782 371.759C77.09 346.254 85.5393 283.581 93.8944 268.158C95.9884 264.284 99.8938 265.384 102.658 268.326C97.4438 280.021 98.1243 298.553 100.04 314.069C138.172 333.585 167.153 331.429 205.306 333.324V300.647C188.973 298.93 172.88 296.804 156.024 315.158C130.278 247.134 95.2451 172.786 143.983 95.4442H208.583V74.7239C181.55 73.6665 154.841 75.8233 147.92 81.9901C142.591 71.6353 152.024 44.298 157.804 38.686H157.793Z" fill="white"/>
</g>
<defs>
<clipPath id="clip0">
<rect y="0.543579" width="400" height="521.59" fill="white"/>
</clipPath>
</defs>
</svg>
