<svg width="400" height="470" viewBox="0 0 400 470" fill="none" xmlns="http://www.w3.org/2000/svg">
<g clip-path="url(#clip0)">
<path fill-rule="evenodd" clip-rule="evenodd" d="M200 469.845C121.084 432.618 57.044 369.888 18.1553 291.777C6.7831 269.063 0.582861 244.112 0 218.717V0.543579H200H400V218.717C399.417 244.112 393.217 269.063 381.845 291.777C342.956 369.888 278.916 432.618 200 469.845Z" fill="#D1000F"/>
<path d="M345.253 148.818C338.498 141.688 343.532 128.545 347.932 122.121C353.634 114.202 360.495 107.186 368.284 101.308C386.547 85.4073 382.09 80.1069 380.282 79.3651C377.689 78.2921 376.076 82.6418 367.477 88.1871C363.877 90.5132 353.413 95.9216 348.58 92.5801C340.659 87.1068 343.943 81.2591 365.144 55.6141C377.387 40.822 385.726 16.5957 380.023 14.8241C375.507 13.4198 369.724 30.0988 356.373 44.4444C346.529 55.5714 332.992 62.7618 318.262 64.6882C310.7 65.0771 295.836 62.6573 297.161 47.714C299.653 19.6708 291.479 14.2768 289.498 14.9033C286.02 16.0196 289.851 27.1461 286.618 37.6821C281.937 53.036 273.655 64.8754 253.958 65.6964C236.365 66.4166 225.987 54.2386 219.614 41.3909C212.967 28.0247 217.547 15.7603 213.701 14.9033C211.879 14.4928 205.952 24.6831 204.764 46.0288C203.252 73.1789 213.903 85.8322 221.717 109.317C227.226 125.88 208.826 146.679 196.64 154.745C195.925 155.229 195.081 155.488 194.217 155.488C193.353 155.488 192.509 155.229 191.794 154.745C170.657 140.572 167.308 123.432 174.992 110.094C183.008 96.2745 202.467 79.8116 188.366 21.7737C187.581 18.5258 185.838 14.212 183.699 14.9105C182.453 15.3066 182.792 19.2315 183.245 23.4733C185.298 43.2633 169.627 64.3209 155.159 64.8826C148.023 64.7501 141.07 62.5983 135.106 58.6764C129.142 54.7546 124.412 49.2232 121.463 42.7232C115.644 27.9095 121.463 15.4147 117.631 14.9105C113.44 14.356 106.735 27.7438 106.217 42.8024C105.785 55.5637 105.554 60.6265 97.186 63.5863C87.7158 66.9279 75.4299 61.4258 58.542 50.4002C29.0082 31.0638 24.8816 12.2531 19.0987 15.213C14.252 17.6832 27.0925 45.3662 45.9176 63.5791C57.3826 74.6696 63.0143 83.9741 59.3198 94.0852C55.6254 104.196 40.5956 102.41 28.6337 94.042C24.7592 91.3414 20.7119 87.2005 18.7026 88.6552C16.2829 90.4196 19.3292 98.7015 24.1759 103.699C39.0616 119.06 60.9906 137.425 58.7941 152.13C56.7992 165.504 39.9618 171.323 21.5545 168.543C16.0668 167.715 16.7438 172.072 21.929 175.356C30.2007 180.543 39.4881 183.898 49.1655 185.193C60.897 186.518 79.6284 184.819 107.628 161.925C119.979 151.842 143.766 142.811 153.798 145.843C162.237 148.498 169.9 153.173 176.123 159.462C177.952 161.701 176.253 162.097 174.459 162.09C167.56 162.025 142.729 156.927 109.861 184.66C71.8146 216.779 47.79 205.941 35.9217 228.468C28.6502 242.715 25.5616 258.729 27.0133 274.659C30.1892 293.974 49.0431 287.658 52.1254 286.556C53.6954 286.073 57.5194 279.959 59.327 280.737C61.7108 281.774 56.1295 286.786 58.1892 288.263C58.5407 288.487 58.9279 288.651 59.3342 288.745C62.582 289.104 65.869 288.793 68.9916 287.831C78.6634 285.224 77.1366 282.667 84.115 274.565C88.9068 270.032 95.0347 267.167 101.586 266.399C111.668 264.353 114.96 258.045 130.551 258.333C141.21 258.534 143.997 263.374 142.679 270.41C141.804 274.385 142.476 278.544 144.558 282.041C144.886 281.043 145.468 280.148 146.245 279.442C147.023 278.737 147.97 278.245 148.994 278.015C148.837 280.208 149.222 282.406 150.115 284.416C151.008 286.425 152.382 288.184 154.115 289.537C153.874 288.023 153.966 286.474 154.385 284.999C154.804 283.524 155.54 282.158 156.542 280.996C157.623 283.314 159.25 285.336 161.283 286.889C163.316 288.441 165.695 289.479 168.216 289.912C163.34 276.049 168.216 270.684 173.545 270.583C182.571 270.434 191.498 268.68 199.91 265.405C199.91 265.405 193.529 322.334 193.529 381.927C193.471 405.127 195.642 428.278 200.011 451.063C238.942 431.12 274.281 404.835 304.578 373.285C327.483 349.201 346.861 321.995 362.134 292.476C362.134 292.476 330.346 232.645 244.574 190.515C244.574 190.515 233.009 185.121 234.492 181.916C235.861 178.935 245.086 181.419 251.834 186.122C272.934 200.835 295.043 198.451 298.313 191.307C301.583 184.163 282.786 170.811 263.104 168.161C251.402 166.584 232.857 170.012 221.335 168.406C213.003 167.239 205.952 164.64 208.509 162.292C226.513 145.771 236.336 140.745 265.15 153.65C283.24 161.716 291.075 168.485 309.497 172.72C357.194 183.652 382.55 166.872 381.679 159.03C380.872 151.828 361.514 165.979 345.253 148.818Z" fill="#FFD400"/>
<path d="M151.076 191.682C151.076 191.286 150.104 191.099 148.591 190.962L147.972 190.508C146.202 189.109 143.99 188.388 141.735 188.477C137.753 188.477 136.118 190.285 135.794 191.257C135.484 191.365 135.254 191.48 135.254 191.646C135.254 191.812 135.484 191.963 135.852 192.078C136.488 193.027 137.374 193.782 138.413 194.258C139.451 194.735 140.601 194.915 141.735 194.779C143.992 194.864 146.204 194.138 147.972 192.733L148.591 192.28C150.104 192.208 151.076 192.049 151.076 191.682Z" fill="#D1000F"/>
</g>
<defs>
<clipPath id="clip0">
<rect y="0.543579" width="400" height="469.3" fill="white"/>
</clipPath>
</defs>
</svg>
