<svg width="400" height="478" viewBox="0 0 400 478" fill="none" xmlns="http://www.w3.org/2000/svg">
<g clip-path="url(#clip0)">
<path d="M0.0599411 0.543579H399.596C399.596 0.543579 418.493 348.113 197.803 477.692C198.478 477.692 -3.98941 375.109 0.0599411 0.543579Z" fill="#008FD2"/>
<path d="M46.6266 87.6041C46.6266 87.6041 54.0505 82.205 57.4249 102.452C60.1245 122.699 65.5236 133.497 75.647 139.571C85.7704 145.645 82.3959 153.069 69.573 148.344C69.573 148.344 63.4989 194.912 80.3712 179.389C97.2435 163.867 112.766 140.921 99.9431 82.8799C99.9431 82.8799 94.544 66.6825 77.6717 57.234C77.6717 57.234 66.8734 50.4851 76.9968 43.7362C76.9968 43.7362 100.618 46.4357 78.3466 34.2877V26.189C78.3466 26.189 106.692 34.9626 114.116 38.337C121.54 41.7115 115.466 47.7855 106.692 45.7608V51.8349C106.692 51.8349 125.589 64.6578 125.589 119.999C125.589 176.015 106.692 213.134 76.9968 232.706C47.3015 252.278 45.2769 192.212 45.2769 184.114C45.9517 175.34 46.6266 87.6041 46.6266 87.6041Z" fill="white"/>
<path d="M140.437 154.419C140.437 154.419 147.861 149.019 151.236 169.266C153.935 189.513 159.334 200.311 169.458 206.385C179.581 212.459 176.207 219.883 163.384 215.159C163.384 215.159 157.31 261.726 174.182 246.204C191.054 230.681 206.577 207.735 193.754 149.694C193.754 149.694 188.355 133.497 171.482 124.048C171.482 124.048 160.684 117.3 170.808 110.551C170.808 110.551 194.429 113.25 172.157 101.102V93.0034C172.157 93.0034 200.503 101.777 207.927 105.151C215.35 108.526 209.276 114.6 200.503 112.575V118.649C200.503 118.649 219.4 131.472 219.4 186.813C219.4 242.829 200.503 279.949 170.808 299.52C141.112 319.092 139.088 259.027 139.088 250.928C140.437 242.155 140.437 154.419 140.437 154.419Z" fill="white"/>
<path d="M238.971 214.484C238.971 214.484 246.395 209.085 249.769 229.332C252.469 249.579 257.868 260.377 267.991 266.451C278.115 272.525 274.74 279.949 261.917 275.224C261.917 275.224 255.843 321.792 272.715 306.269C289.588 290.747 305.11 267.801 292.287 209.76C292.287 209.76 286.888 193.562 270.016 184.114C270.016 184.114 259.218 177.365 269.341 170.616C269.341 170.616 292.962 173.316 270.691 161.168V153.069C270.691 153.069 299.036 161.843 306.46 165.217C313.884 168.591 307.81 174.666 299.036 172.641V178.715C299.036 178.715 317.933 191.538 317.933 246.879C317.933 302.895 299.036 340.014 269.341 359.586C239.646 379.158 237.621 319.092 237.621 310.994C238.296 302.895 238.971 214.484 238.971 214.484Z" fill="white"/>
</g>
<defs>
<clipPath id="clip0">
<rect y="0.543579" width="400" height="477.15" fill="white"/>
</clipPath>
</defs>
</svg>
