<svg width="400" height="460" viewBox="0 0 400 460" fill="none" xmlns="http://www.w3.org/2000/svg">
<g clip-path="url(#clip0)">
<path d="M400 0H0C0 365 200 460 200 460C200 460 400 365 400 0Z" fill="white"/>
<path fill-rule="evenodd" clip-rule="evenodd" d="M23.9999 0C23.9999 5.20809 21.5116 9.835 17.6589 12.7567L54.1191 100.109C54.736 100.037 55.3636 100 55.9999 100C56.6362 100 57.2638 100.037 57.8807 100.109L94.3409 12.7567C90.4883 9.835 87.9999 5.20809 87.9999 0H23.9999ZM120 0C120 5.20809 117.512 9.835 113.659 12.7567L150.119 100.109C150.736 100.037 151.364 100 152 100C152.636 100 153.264 100.037 153.881 100.109L190.341 12.7567C186.488 9.835 184 5.20809 184 0H120ZM216 0C216 5.20809 213.512 9.835 209.659 12.7567L246.119 100.109C246.736 100.037 247.364 100 248 100C248.636 100 249.264 100.037 249.881 100.109L286.341 12.7567C282.488 9.83499 280 5.20809 280 0H216ZM312 0C312 5.20809 309.512 9.83498 305.659 12.7567L342.119 100.109C342.736 100.037 343.364 100 344 100C344.636 100 345.264 100.037 345.881 100.109L382.341 12.7567C378.488 9.83498 376 5.20809 376 0H312ZM399.902 13.9156C397.571 15.2422 394.874 16 392 16C391.227 16 390.467 15.9452 389.723 15.8393L353.34 103.008C357.374 105.912 360 110.65 360 116C360 121.065 357.647 125.58 353.974 128.511L379.054 188.6C391.116 139.054 398.95 81.2128 399.902 13.9156ZM375.77 201.501L346.669 131.778C345.801 131.924 344.909 132 344 132C343.091 132 342.199 131.924 341.331 131.778L305.017 218.781C309.233 221.662 312 226.508 312 232C312 236.92 309.779 241.322 306.285 244.257L334.146 311.007C349.929 280.417 364.422 244.186 375.77 201.501ZM329.297 320.158L299.057 247.708C298.067 247.9 297.045 248 296 248C294.955 248 293.933 247.9 292.943 247.708L256.69 334.564C261.089 337.415 264 342.367 264 348C264 352.775 261.909 357.061 258.592 359.992L274.664 398.499C292.551 378.438 311.596 352.689 329.297 320.158ZM268.715 405.014L251.441 363.629C250.333 363.872 249.181 364 248 364C246.819 364 245.667 363.872 244.559 363.629L209.659 447.243C211.333 448.513 212.75 450.105 213.816 451.926C226.409 443.746 246.407 428.852 268.715 405.014ZM186.184 451.926C187.25 450.105 188.667 448.513 190.341 447.243L155.441 363.629C154.333 363.872 153.181 364 152 364C150.819 364 149.667 363.872 148.559 363.629L131.285 405.014C153.593 428.852 173.591 443.746 186.184 451.926ZM125.335 398.499L141.408 359.992C138.091 357.061 136 352.775 136 348C136 342.367 138.91 337.415 143.309 334.564L107.057 247.708C106.067 247.9 105.045 248 104 248C102.955 248 101.933 247.9 100.943 247.708L70.7031 320.158C88.4043 352.689 107.449 378.438 125.335 398.499ZM65.8539 311.007L93.7148 244.257C90.2208 241.322 87.9999 236.92 87.9999 232C87.9999 226.508 90.7669 221.662 94.9828 218.781L58.6686 131.778C57.8008 131.924 56.9092 132 55.9999 132C55.0906 132 54.1991 131.924 53.3312 131.778L24.2297 201.501C35.5774 244.185 50.0708 280.417 65.8539 311.007ZM20.9456 188.6L46.0259 128.512C42.3531 125.58 39.9999 121.065 39.9999 116C39.9999 110.65 42.6262 105.912 46.6599 103.008L10.2766 15.8393C9.53297 15.9452 8.77284 16 7.99991 16C5.12597 16 2.42901 15.2423 0.0979004 13.9157C1.04996 81.2128 8.88414 139.054 20.9456 188.6ZM237.408 359.992L202.277 444.161C201.533 444.055 200.773 444 200 444C199.227 444 198.467 444.055 197.723 444.161L162.592 359.992C165.909 357.061 168 352.775 168 348C168 342.367 165.089 337.415 160.69 334.564L196.943 247.708C197.933 247.9 198.955 248 200 248C201.045 248 202.067 247.9 203.057 247.708L239.309 334.564C234.91 337.415 232 342.367 232 348C232 352.775 234.091 357.061 237.408 359.992ZM249.077 332.036C248.721 332.012 248.362 332 248 332C247.638 332 247.279 332.012 246.923 332.036L210.285 244.257C213.779 241.322 216 236.92 216 232C216 226.508 213.233 221.662 209.017 218.781L245.331 131.778C246.199 131.924 247.091 132 248 132C248.909 132 249.801 131.924 250.669 131.778L286.983 218.781C282.767 221.662 280 226.508 280 232C280 236.92 282.221 241.322 285.715 244.257L249.077 332.036ZM189.715 244.257L153.077 332.036C152.721 332.012 152.362 332 152 332C151.638 332 151.279 332.012 150.923 332.036L114.285 244.257C117.779 241.322 120 236.92 120 232C120 226.508 117.233 221.662 113.017 218.781L149.331 131.778C150.199 131.924 151.091 132 152 132C152.909 132 153.801 131.924 154.669 131.778L190.983 218.781C186.767 221.662 184 226.508 184 232C184 236.92 186.221 241.322 189.715 244.257ZM297.481 216.068C296.993 216.023 296.499 216 296 216C295.501 216 295.007 216.023 294.519 216.068L257.974 128.512C261.647 125.58 264 121.065 264 116C264 110.65 261.374 105.912 257.34 103.008L293.723 15.8393C294.467 15.9452 295.227 16 296 16C296.773 16 297.533 15.9452 298.277 15.8393L334.66 103.008C330.626 105.912 328 110.65 328 116C328 121.065 330.353 125.58 334.026 128.512L297.481 216.068ZM105.481 216.068C104.993 216.023 104.499 216 104 216C103.501 216 103.007 216.023 102.519 216.068L65.9739 128.512C69.6467 125.58 71.9999 121.065 71.9999 116C71.9999 110.65 69.3737 105.912 65.3399 103.008L101.723 15.8393C102.467 15.9452 103.227 16 104 16C104.773 16 105.533 15.9452 106.277 15.8393L142.66 103.008C138.626 105.912 136 110.65 136 116C136 121.065 138.353 125.58 142.026 128.512L105.481 216.068ZM200 216C200.499 216 200.993 216.023 201.481 216.068L238.026 128.512C234.353 125.58 232 121.065 232 116C232 110.65 234.626 105.912 238.66 103.008L202.277 15.8393C201.533 15.9452 200.773 16 200 16C199.227 16 198.467 15.9452 197.723 15.8393L161.34 103.008C165.374 105.912 168 110.65 168 116C168 121.065 165.647 125.58 161.974 128.512L198.519 216.068C199.007 216.023 199.501 216 200 216Z" fill="#2AAAE1"/>
</g>
<defs>
<clipPath id="clip0">
<rect width="400" height="460" fill="white"/>
</clipPath>
</defs>
</svg>
