<svg width="400" height="523" viewBox="0 0 400 523" fill="none" xmlns="http://www.w3.org/2000/svg">
<g clip-path="url(#clip0)">
<path d="M200.291 522.36C278.105 465.906 331.439 394.605 363.352 304.416C392.291 222.644 403.902 123.545 398.856 1.46466L398.835 0.983032H1.16126L1.14031 1.46466C-3.89578 123.545 7.71551 222.634 36.6443 304.416C68.557 394.605 121.891 465.906 199.705 522.36L199.998 522.57L200.291 522.36Z" fill="white"/>
<path fill-rule="evenodd" clip-rule="evenodd" d="M328.877 0.983032H71.123L199.996 162.309L0.170044 74.9902C1.71208 164.099 13.752 239.574 36.6213 304.225C59.057 367.631 92.0872 421.696 136.776 467.825L200 162.309L263.183 467.605C307.763 421.523 340.724 367.53 363.124 304.225C385.992 239.608 398.033 164.164 399.578 75.1001L200.004 162.309L328.877 0.983032Z" fill="#0085CA"/>
<path d="M361.938 303.915L363.352 304.416L361.938 303.915C330.207 393.589 277.247 464.51 199.998 520.719C122.749 464.51 69.7888 393.589 38.0584 303.915C9.28919 222.585 -2.33132 124.006 2.5999 2.48303H397.396C402.338 124.006 390.717 222.595 361.938 303.915Z" stroke="#0085CA" stroke-width="3"/>
</g>
<defs>
<clipPath id="clip0">
<rect y="0.543579" width="400" height="521.59" fill="white"/>
</clipPath>
</defs>
</svg>
