<svg width="400" height="523" viewBox="0 0 400 523" fill="none" xmlns="http://www.w3.org/2000/svg">
<g clip-path="url(#clip0)">
<path fill-rule="evenodd" clip-rule="evenodd" d="M-34.9119 159.22V166H-38.1399V148.648H-32.8479C-31.6639 148.648 -30.6499 148.77 -29.8059 149.014C-28.9619 149.258 -28.2699 149.6 -27.7299 150.04C-27.1899 150.48 -26.7939 151.006 -26.5419 151.618C-26.2899 152.23 -26.1639 152.904 -26.1639 153.64C-26.1605 154.202 -26.2476 154.761 -26.4219 155.296C-26.5939 155.816 -26.8419 156.288 -27.1659 156.712C-27.502 157.147 -27.9074 157.524 -28.3659 157.828C-28.8683 158.161 -29.4159 158.419 -29.9919 158.596C-29.5839 158.828 -29.2319 159.16 -28.9359 159.592L-24.5919 166H-27.4959C-27.7759 166 -28.0139 165.944 -28.2099 165.832C-28.4119 165.714 -28.5827 165.55 -28.7079 165.352L-32.3559 159.796C-32.4664 159.613 -32.6211 159.46 -32.8059 159.352C-32.9699 159.264 -33.2119 159.22 -33.5319 159.22H-34.9119ZM-34.9119 156.904H-32.8959C-32.2879 156.904 -31.7579 156.828 -31.3059 156.676C-30.8539 156.524 -30.4819 156.314 -30.1899 156.046C-29.9012 155.783 -29.6773 155.456 -29.5359 155.092C-29.3919 154.724 -29.3199 154.32 -29.3199 153.88C-29.3199 153 -29.6099 152.324 -30.1899 151.852C-30.7699 151.38 -31.6559 151.144 -32.8479 151.144H-34.9119V156.904ZM-11.0389 148.648V151.216H-18.7299V156.028H-12.6699V158.512H-18.7299V163.42H-11.0379V166H-21.9829V148.648H-11.0389ZM-6.00489 148.648C-5.86089 148.648 -5.74089 148.654 -5.64489 148.666C-5.55561 148.676 -5.46851 148.7 -5.38689 148.738C-5.31089 148.774 -5.23689 148.826 -5.16489 148.894C-5.0929 148.962 -5.0129 149.052 -4.9249 149.164L4.18311 160.768C4.1511 160.488 4.1291 160.214 4.1171 159.946C4.10553 159.696 4.09953 159.446 4.09911 159.196V148.648H6.94311V166H5.27511C5.01911 166 4.80711 165.96 4.63911 165.88C4.47111 165.8 4.30711 165.656 4.14711 165.448L-4.9249 153.892C-4.87976 154.375 -4.85573 154.859 -4.85289 155.344V166H-7.69689V148.648H-6.00489ZM12.6851 148.648C12.8281 148.648 12.9481 148.654 13.0451 148.666C13.134 148.676 13.2208 148.701 13.3021 148.738C13.3781 148.774 13.4521 148.826 13.5241 148.894C13.5961 148.962 13.6761 149.052 13.7641 149.164L22.8721 160.768C22.8401 160.488 22.8181 160.214 22.8061 159.946C22.7945 159.696 22.7885 159.446 22.7881 159.196V148.648H25.6321V166H23.9641C23.7081 166 23.4961 165.96 23.3281 165.88C23.1601 165.8 22.9961 165.656 22.8361 165.448L13.7641 153.892C13.8092 154.375 13.8333 154.859 13.8361 155.344V166H10.9921V148.648H12.6841H12.6851ZM40.6251 148.648V151.216H32.9341V156.028H38.9941V158.512H32.9341V163.42H40.6261V166H29.6821V148.648H40.6261H40.6251ZM43.9681 166V148.648H49.9561C51.0921 148.648 52.0621 148.756 52.8661 148.972C53.6701 149.188 54.3301 149.496 54.8461 149.896C55.3621 150.296 55.7401 150.78 55.9801 151.348C56.2201 151.916 56.3401 152.556 56.3401 153.268C56.3401 153.676 56.2801 154.066 56.1601 154.438C56.0401 154.81 55.8541 155.158 55.6021 155.482C55.3302 155.824 55.0063 156.122 54.6421 156.364C54.2541 156.628 53.7921 156.852 53.2561 157.036C55.6401 157.572 56.8321 158.86 56.8321 160.9C56.8321 161.636 56.6921 162.316 56.4121 162.94C56.1321 163.564 55.7135 164.116 55.1881 164.554C54.6521 165.006 53.9921 165.36 53.2081 165.616C52.4241 165.872 51.5281 166 50.5201 166H43.9681ZM47.1961 158.392V163.48H50.4721C51.0721 163.48 51.5741 163.408 51.9781 163.264C52.3821 163.12 52.7061 162.928 52.9501 162.688C53.1941 162.448 53.3701 162.168 53.4781 161.848C53.5861 161.528 53.6401 161.188 53.6401 160.828C53.6401 160.452 53.5801 160.114 53.4601 159.814C53.3401 159.514 53.1521 159.258 52.8961 159.046C52.6401 158.834 52.3121 158.672 51.9121 158.56C51.5121 158.448 51.0281 158.392 50.4601 158.392H47.1961ZM47.1961 156.16H49.7761C50.8721 156.16 51.7041 155.96 52.2721 155.56C52.8401 155.16 53.1241 154.524 53.1241 153.652C53.1241 152.748 52.8681 152.104 52.3561 151.72C51.8441 151.336 51.0441 151.144 49.9561 151.144H47.1961V156.16ZM67.1341 163.396C67.7581 163.396 68.3161 163.292 68.8081 163.084C69.3001 162.876 69.7161 162.584 70.0561 162.208C70.3961 161.832 70.6561 161.376 70.8361 160.84C71.0161 160.304 71.1061 159.704 71.1061 159.04V148.648H74.3341V159.04C74.3341 160.072 74.1681 161.026 73.8361 161.902C73.5219 162.75 73.0334 163.523 72.4021 164.17C71.7584 164.819 70.9858 165.326 70.1341 165.658C69.2461 166.014 68.2461 166.192 67.1341 166.192C66.0221 166.192 65.0221 166.014 64.1341 165.658C63.2837 165.327 62.5129 164.82 61.8721 164.17C61.244 163.521 60.7577 162.749 60.4441 161.902C60.1121 161.026 59.9461 160.072 59.9461 159.04V148.648H63.1741V159.028C63.1741 159.692 63.2641 160.292 63.4441 160.828C63.6241 161.364 63.8821 161.822 64.2181 162.202C64.5541 162.582 64.9681 162.876 65.4601 163.084C65.9521 163.292 66.5101 163.396 67.1341 163.396ZM85.6971 156.856H86.7051C86.8571 156.856 86.9891 156.85 87.1011 156.838C87.3041 156.818 87.4983 156.745 87.6651 156.628C87.7552 156.563 87.8395 156.491 87.9171 156.412L94.7691 149.368C94.8971 149.24 95.0151 149.15 95.1231 149.098C95.2496 149.042 95.3869 149.016 95.5251 149.02H96.5211L89.1051 156.64C88.9811 156.774 88.8466 156.899 88.7031 157.012C88.5871 157.1 88.4571 157.172 88.3131 157.228C88.4811 157.276 88.6311 157.35 88.7631 157.45C88.8951 157.55 89.0291 157.68 89.1651 157.84L96.9891 166H95.9931C95.7851 166 95.6371 165.97 95.5491 165.91C95.4501 165.841 95.3577 165.762 95.2731 165.676L88.0851 158.332C88.0073 158.254 87.9273 158.178 87.8451 158.104C87.6841 157.961 87.483 157.871 87.2691 157.846C87.1101 157.824 86.9496 157.814 86.7891 157.816H85.6971V166H84.4731V148.996H85.6971V156.856ZM115.282 157.504C115.282 158.816 115.086 160.006 114.694 161.074C114.302 162.142 113.75 163.054 113.038 163.81C112.321 164.57 111.449 165.167 110.482 165.562C109.49 165.974 108.39 166.18 107.182 166.18C105.99 166.18 104.898 165.974 103.906 165.562C102.939 165.167 102.067 164.57 101.35 163.81C100.638 163.054 100.084 162.142 99.6881 161.074C99.2921 160.006 99.0941 158.816 99.0941 157.504C99.0941 156.2 99.2921 155.014 99.6881 153.946C100.084 152.878 100.638 151.966 101.35 151.21C102.068 150.45 102.939 149.851 103.906 149.452C104.898 149.036 105.99 148.828 107.182 148.828C108.39 148.828 109.49 149.034 110.482 149.446C111.45 149.842 112.322 150.441 113.038 151.204C113.75 151.964 114.302 152.878 114.694 153.946C115.086 155.014 115.282 156.2 115.282 157.504ZM114.01 157.504C114.01 156.32 113.846 155.256 113.518 154.312C113.19 153.368 112.728 152.568 112.132 151.912C111.535 151.256 110.799 150.741 109.978 150.406C109.138 150.058 108.206 149.884 107.182 149.884C106.174 149.884 105.252 150.058 104.416 150.406C103.595 150.744 102.857 151.258 102.256 151.912C101.652 152.568 101.184 153.368 100.852 154.312C100.52 155.256 100.354 156.32 100.354 157.504C100.354 158.696 100.52 159.762 100.852 160.702C101.184 161.642 101.652 162.44 102.256 163.096C102.856 163.749 103.594 164.262 104.416 164.596C105.252 164.94 106.174 165.112 107.182 165.112C108.206 165.112 109.138 164.94 109.978 164.596C110.8 164.265 111.536 163.752 112.132 163.096C112.728 162.44 113.19 161.642 113.518 160.702C113.846 159.762 114.01 158.696 114.01 157.504ZM127.984 161.056C128.104 161.28 128.208 161.52 128.296 161.776C128.344 161.648 128.394 161.522 128.446 161.398C128.498 161.274 128.556 161.156 128.62 161.044L135.292 149.248C135.356 149.144 135.42 149.08 135.484 149.056C135.569 149.029 135.659 149.017 135.748 149.02H136.6V166H135.52V151.528C135.52 151.32 135.532 151.1 135.556 150.868L128.872 162.736C128.76 162.944 128.6 163.048 128.392 163.048H128.2C128 163.048 127.84 162.944 127.72 162.736L120.856 150.856C120.88 151.088 120.892 151.312 120.892 151.528V166H119.824V149.02H120.664C120.755 149.017 120.847 149.029 120.934 149.056C121.002 149.08 121.068 149.144 121.132 149.248L127.984 161.056ZM150.345 161.056C150.465 161.28 150.569 161.52 150.657 161.776C150.705 161.648 150.755 161.522 150.807 161.398C150.859 161.274 150.917 161.156 150.981 161.044L157.653 149.248C157.717 149.144 157.781 149.08 157.845 149.056C157.93 149.029 158.02 149.017 158.109 149.02H158.961V166H157.881V151.528C157.881 151.32 157.893 151.1 157.917 150.868L151.233 162.736C151.121 162.944 150.961 163.048 150.753 163.048H150.561C150.361 163.048 150.201 162.944 150.081 162.736L143.217 150.856C143.241 151.088 143.253 151.312 143.253 151.528V166H142.185V149.02H143.025C143.116 149.017 143.208 149.029 143.295 149.056C143.363 149.08 143.429 149.144 143.493 149.248L150.345 161.056ZM170.822 165.124C171.638 165.124 172.368 164.982 173.012 164.698C173.637 164.428 174.196 164.024 174.65 163.516C175.107 162.996 175.456 162.39 175.676 161.734C175.917 161.021 176.036 160.273 176.03 159.52V149.02H177.254V159.52C177.254 160.456 177.106 161.33 176.81 162.142C176.53 162.928 176.095 163.65 175.532 164.266C174.964 164.878 174.273 165.363 173.504 165.688C172.708 166.032 171.814 166.204 170.822 166.204C169.83 166.204 168.936 166.032 168.14 165.688C167.371 165.363 166.68 164.878 166.112 164.266C165.549 163.65 165.114 162.928 164.834 162.142C164.533 161.301 164.383 160.413 164.39 159.52V149.02H165.626V159.508C165.626 160.3 165.744 161.038 165.98 161.722C166.2 162.377 166.546 162.983 167 163.504C167.452 164.014 168.008 164.419 168.632 164.692C169.276 164.98 170.006 165.124 170.822 165.124ZM183.296 149.02C183.408 149.02 183.496 149.034 183.56 149.062C183.624 149.09 183.692 149.152 183.764 149.248L194.756 163.96C194.733 163.729 194.721 163.496 194.72 163.264V149.02H195.8V166H195.212C195.124 166.001 195.037 165.98 194.959 165.938C194.881 165.896 194.816 165.835 194.768 165.76L183.728 151.024C183.752 151.264 183.764 151.492 183.764 151.708V166H182.696V149.02H183.296ZM211.561 149.02V150.04H202.621V156.904H210.061V157.9H202.621V164.98H211.561V166H201.385V149.02H211.561Z" fill="#1E1E1E"/>
<path d="M199.709 521.921C121.895 465.466 68.561 394.165 36.6483 303.976C7.70906 222.205 -3.90222 123.106 1.14434 1.0252L1.16528 0.543579H398.839L398.86 1.0252C403.896 123.106 392.284 222.195 363.356 303.976C331.443 394.165 278.109 465.466 200.295 521.921L200.002 522.13L199.709 521.921Z" fill="#FCE300"/>
<path fill-rule="evenodd" clip-rule="evenodd" d="M117.058 362.106L45.8621 290.909L149.516 187.256V23.9231C183.02 23.9231 216.524 23.9231 250.028 23.9231V187.256L353.682 290.909L282.485 362.106L199.772 279.392L117.058 362.106Z" fill="#E00E00"/>
</g>
<defs>
<clipPath id="clip0">
<rect y="0.543579" width="400" height="521.59" fill="white"/>
</clipPath>
</defs>
</svg>
