<svg width="400" height="500" viewBox="0 0 400 500" fill="none" xmlns="http://www.w3.org/2000/svg">
<g clip-path="url(#clip0)">
<path fill-rule="evenodd" clip-rule="evenodd" d="M399.621 0.543579C401.712 103.065 396.238 188.147 355.664 297.313C327.597 372.838 281.409 442.17 200 499.025C118.591 442.17 72.403 372.838 44.336 297.313C3.76154 188.147 -1.71177 103.065 0.379493 0.543579C133.46 0.833754 266.54 0.543579 399.621 0.543579Z" fill="#E00E00"/>
<path d="M280.749 179.892L267.041 193.6L296.859 226.12L200 317.675L103.342 226.32L133.16 193.8L119.452 180.092L80.6282 204.907L75.5251 200.104L63.6179 212.011L68.4208 217.114L49.8096 263.442L89.8337 239.828L180.689 335.986L121.053 392.32L144.066 415.334L199.9 356.298L255.834 415.534L278.848 392.52L219.112 335.986L310.167 239.628L342.686 269.446L356.395 255.738L331.58 216.914L336.383 211.811L324.475 199.904L319.372 204.707L280.549 179.892H280.749Z" fill="#FFE000"/>
<path d="M200 16.093C177.186 16.093 111.247 24.1979 111.247 90.638C111.247 164.783 192.696 165.984 192.696 165.984V189.598L155.273 186.396L163.378 213.212L189.394 208.709L182.89 247.433H217.111L210.607 208.709L236.622 213.212L244.727 186.396L207.305 189.598V165.984C207.305 165.984 288.754 164.783 288.754 90.638C288.754 24.1979 222.814 16.093 200 16.093ZM200 34.8043C222.614 34.8043 258.636 50.814 258.636 91.4385C258.636 136.866 221.613 148.073 200 148.073C178.387 148.073 141.365 136.966 141.365 91.4385C141.365 50.814 177.286 34.8043 200 34.8043Z" fill="#FFE000"/>
</g>
<defs>
<clipPath id="clip0">
<rect y="0.543579" width="400" height="498.48" fill="white"/>
</clipPath>
</defs>
</svg>
