<svg width="400" height="500" viewBox="0 0 400 500" fill="none" xmlns="http://www.w3.org/2000/svg">
<g clip-path="url(#clip0)">
<path fill-rule="evenodd" clip-rule="evenodd" d="M399.621 0.543579C401.712 103.065 396.238 188.147 355.664 297.313C327.597 372.838 281.409 442.17 200 499.025C118.591 442.17 72.403 372.838 44.336 297.313C3.76154 188.147 -1.71177 103.065 0.379493 0.543579C133.46 0.833754 266.54 0.543579 399.621 0.543579Z" fill="#E00E00"/>
<path d="M156.134 317.596L177.249 309.965L181.446 285.416C165.819 280.469 137.576 254.775 137.576 254.775C123.301 241.54 108.504 205.197 113.141 183.374L121.609 143.517C121.609 143.517 112.427 138.459 109.156 134.518C105.467 130.073 101.767 118.841 101.767 118.841L89.3018 114.007C104.919 91.2938 128.89 84.6048 143.105 100.016C152.993 110.735 154.534 122.555 163.477 134.278C170.027 142.866 177.865 148.437 201.234 159.416C214.595 165.694 243.636 186.894 259.569 210.377C277.11 236.231 290.828 268.193 302.155 300.425L284.856 308.947L253.439 281.982L233.088 287.324L225.074 326.119L203.96 331.715L207.267 325.61L198.745 325.228L206.027 316.515L197.664 314.735L214.517 308.184L208.285 292.157C196.519 302.827 186.961 318.673 178.648 331.461L159.569 337.185L165.293 329.934L152.7 326.373L161.477 321.285L156.134 317.596Z" fill="white"/>
<path d="M119.002 105.517C116.401 105.089 115.14 110.099 112.006 106.566C111.384 100.342 117.522 99.0545 120.656 100.239C125.106 101.92 122.957 106.167 119.002 105.517Z" fill="#E00E00"/>
</g>
<defs>
<clipPath id="clip0">
<rect y="0.543579" width="400" height="498.48" fill="white"/>
</clipPath>
</defs>
</svg>
