<svg width="400" height="499" viewBox="0 0 400 499" fill="none" xmlns="http://www.w3.org/2000/svg">
<g clip-path="url(#clip0)">
<path fill-rule="evenodd" clip-rule="evenodd" d="M399.921 0.574146C399.921 0.574146 404.093 172.891 351.745 293.201C299.366 413.511 200.202 498.355 200.202 498.355L199.847 498.243C199.847 498.243 100.652 412.492 48.2839 292.264C-4.06427 171.944 0.0772965 0.543579 0.0772965 0.543579L399.921 0.574146Z" fill="#00A756"/>
<path fill-rule="evenodd" clip-rule="evenodd" d="M358.13 149.575L321.536 112.877L356.587 77.6866L320.034 41.0498L284.851 76.3627L248.48 39.8582L211.906 76.5256L248.348 113.01L199.878 161.676L151.6 113.193L187.961 76.6885L151.427 40.0007L115.047 76.5256L79.8941 41.2433L43.3305 77.9209L78.3511 113.03L41.7876 149.748L78.3105 186.467L114.905 149.728L173.78 208.752V286.477H122.02V338.382H173.78V388.077H225.417V338.199H276.903V286.335H225.417V209.353L284.973 149.575L321.536 186.263L358.13 149.575Z" fill="#B4B5B4"/>
</g>
<defs>
<clipPath id="clip0">
<rect y="0.543579" width="400" height="497.81" fill="white"/>
</clipPath>
</defs>
</svg>
