<svg width="400" height="510" viewBox="0 0 400 510" fill="none" xmlns="http://www.w3.org/2000/svg">
<g clip-path="url(#clip0)">
<path d="M0 0.543579V298.633V309.483C0 335.245 4.88183 359.867 13.7472 382.481C42.9138 456.821 115.306 509.479 200.002 509.479C284.689 509.479 357.085 456.822 386.249 382.481C395.118 359.867 400 335.245 400 309.483V298.633V0.543579H0Z" fill="#E4032C"/>
<path d="M65.8636 243.49C67.9974 245.775 70.1495 248.049 72.5225 250.094C73.2432 250.711 73.9759 251.324 74.7519 251.885C75.476 252.404 76.2384 252.884 76.833 253.557C77.544 254.349 77.9399 255.6 78.8573 256.183C79.2893 256.441 79.6537 256.58 80.1077 256.689C80.6454 256.817 81.5174 256.668 81.8954 257.165C82.5639 258.026 81.4329 258.771 80.6361 258.759C79.9675 258.734 78.6968 258.314 78.275 257.747C78.3387 257.829 77.9858 258.488 77.9522 258.595C77.6524 259.534 77.5759 260.62 77.9611 261.548C78.2308 262.169 78.715 262.52 79.3198 262.766C80.0648 263.056 80.721 263.357 81.0332 264.158C81.3471 264.984 81.26 265.956 81.184 266.819C81.0986 267.937 80.9809 269.102 80.5061 270.136C80.0644 271.138 79.2557 271.987 79.1257 273.11C78.986 274.198 79.3525 275.406 80.0521 276.243C80.893 277.258 82.349 277.482 83.4682 276.924C85.7936 275.784 87.5825 273.1 88.0476 270.569C88.1759 269.855 88.014 269.16 87.8514 268.466C87.7567 267.993 87.6365 267.56 87.6275 267.129V266.687C87.6275 265.708 87.4007 264.737 86.9807 263.842C86.7645 263.394 86.5054 262.95 86.2047 262.53C85.8284 262.011 85.5026 261.617 85.481 260.945C85.4172 259.74 85.8284 258.628 85.4504 257.434C85.2873 256.886 84.9751 256.441 84.654 256.063C84.5975 255.978 84.5334 255.905 84.4697 255.828C84.2127 255.557 83.9651 255.279 83.9982 254.987C84.0071 254.825 84.0713 254.653 84.1261 254.482C84.234 254.19 84.3499 253.856 84.2764 253.478C84.2429 253.317 84.1567 253.154 84.0802 253.006C83.9987 252.846 83.9086 252.682 83.9086 252.573C83.9086 252.573 83.9086 159.992 83.8653 160.005L83.6818 159.971L79.9238 159.465V249.849C79.8919 249.794 79.8495 249.761 79.8036 249.707C79.7216 249.631 79.6651 249.558 79.6316 249.515C79.3742 249.19 79.1172 248.856 78.8565 248.511C77.4336 246.701 76.0023 244.882 74.5667 243.048C66.9517 233.385 59.0743 223.4 53.281 212.355C51.1769 208.357 49.5276 204.607 48.2454 200.902C45.0264 191.606 43.3347 181.339 42.9363 168.581C42.9363 168.547 42.9235 168.461 42.9235 168.354C42.8815 167.609 42.8594 167.051 42.8594 166.606L42.331 166.63C41.62 166.652 40.9086 166.674 40.1976 166.738C39.5852 166.802 38.9808 166.943 38.3547 167.08C37.8939 167.18 37.4518 167.286 36.9973 167.361C35.9087 167.534 34.8014 167.6 33.7014 167.6C32.3979 167.6 31.1263 167.513 29.9183 167.395C29.9183 168.128 29.9307 169.117 29.9642 170.518C30.188 179.979 32.0004 189.301 35.3175 198.231C36.2774 200.794 37.3532 203.315 38.5276 205.709C42.3765 213.564 47.5136 221.569 53.8297 229.528C55.9631 232.22 58.1705 234.872 60.4334 237.456C62.2126 239.492 64.0207 241.51 65.8636 243.49Z" fill="#FFCC00"/>
<path d="M29.8347 137.495C31.2448 137.766 32.753 137.668 34.1847 137.582C34.5959 137.559 35.0164 137.527 35.4364 137.505C35.9028 137.474 36.3746 137.442 36.8499 137.39C37.6684 137.324 38.5212 137.333 39.3265 137.193C39.5622 137.153 39.8107 137.085 40.0044 136.936C40.3293 136.677 40.3166 136.095 40.3076 135.482V135.276C40.2524 129.62 41.2671 124.039 42.0227 118.446C42.3225 116.216 42.8615 114.042 43.4103 111.865C43.7326 110.559 44.0661 109.264 44.4351 107.974C45.6732 103.633 47.2341 99.3096 49.2511 94.7446C52.5135 87.3199 56.63 79.8846 61.4783 72.623C62.0393 71.7931 62.6004 70.9411 63.1699 70.0785C66.9628 64.3149 71.2517 57.797 76.8233 53.7468C77.1321 53.5077 77.6727 53.1131 78.1225 53.1131C78.6326 53.1131 78.9325 53.5642 79.1928 53.9311C79.322 54.1019 79.4383 54.2837 79.601 54.4234C79.7505 54.5436 80.0338 54.66 80.0338 54.8995C80.0338 55.072 79.8919 123.445 79.8707 133.249L83.9116 133.11C83.9116 123.015 83.8997 57.5379 83.8997 54.0042C83.9422 53.9953 83.997 53.9728 84.053 53.9609C84.375 53.8534 84.6323 53.8003 84.7296 53.4431C84.8375 53.077 84.708 52.7007 84.7169 52.3231C84.7169 52.1745 84.708 52.0241 84.699 51.8606C84.6655 51.8814 84.6442 51.9052 84.6226 51.926C83.7272 52.42 82.6518 52.5385 81.6359 52.4527C80.9032 52.3885 79.6983 52.2815 79.3436 51.5051C79.2565 51.331 79.2565 51.1271 79.3436 50.944C79.5356 50.5129 79.9892 50.4815 80.3978 50.5129C80.9032 50.5575 81.4121 50.6437 81.9073 50.6854C82.2836 50.7164 82.6735 50.7385 83.0468 50.7164C83.4482 50.6854 83.8475 50.5885 84.2025 50.4042C85.3769 49.7688 85.3433 47.7641 84.7649 46.7231C84.6442 46.506 84.5045 46.3336 84.3754 46.1832C84.1269 45.8919 83.9545 45.6774 84.0297 45.2446C84.1477 44.5637 84.5139 43.8778 84.8812 43.2191C85.0953 42.841 85.3136 42.4456 85.4733 42.0557C85.6258 41.7002 85.6793 41.3239 85.7337 40.9459C85.743 40.8389 85.7643 40.7182 85.777 40.6125C85.9367 39.6802 86.2701 38.7819 86.595 37.9159C86.7666 37.4444 86.9509 36.9568 87.0881 36.4625C87.6288 34.7283 88.0051 33.2961 88.2536 31.965C88.2854 31.7123 88.3496 31.4668 88.395 31.1992C88.6524 29.9883 88.9315 28.6215 88.511 27.4077C88.0705 26.0999 86.8307 25.016 85.529 24.7854C84.9152 24.6648 84.4735 24.4239 83.9345 24.0969C83.3085 23.6994 82.5541 23.4912 81.8215 23.4912C80.8837 23.4912 80.0559 23.8353 79.5475 24.4299C79.076 24.9893 78.9036 25.7415 79.0404 26.6147C79.2374 27.7317 79.8843 28.6211 80.5078 29.499C81.1109 30.326 81.6941 31.1321 81.8308 32.1022C82.0186 33.1891 82.0067 34.1426 81.7671 34.9772C81.3802 36.4094 80.6696 37.6037 79.44 38.8456C78.6649 39.6309 78.3417 40.8117 78.7528 41.862C79.2043 43.025 81.0374 43.067 81.274 44.2851C81.3466 44.6865 81.0778 45.1282 80.6998 45.2221C80.2275 45.3431 79.7522 45.0942 79.3547 44.8683C79.2379 44.8029 78.3209 43.9938 78.4079 43.9207C78.365 43.964 78.2996 44.0056 78.2572 44.0396C76.7366 45.3741 75.3057 46.8301 73.8481 48.2313C72.3309 49.6847 70.8227 51.1496 69.3353 52.6251C67.7935 54.1541 66.2632 55.6963 64.7461 57.2593C63.2027 58.8538 61.6868 60.4575 60.1875 62.0859C58.6814 63.7233 57.1919 65.3937 55.7504 67.0744C55.5788 67.2795 55.4038 67.4715 55.233 67.6766C53.0763 70.1978 51.1786 72.6103 49.4138 75.0584C42.5821 84.4751 37.4985 94.2129 34.3079 103.986C32.0777 110.806 30.3855 117.734 29.5034 124.844C29.319 126.212 29.1687 127.582 29.0498 128.95C28.9963 129.597 28.9423 130.252 28.899 130.899C28.8047 132.094 28.7147 133.29 28.6845 134.498C28.6637 135.156 28.5443 135.996 28.8047 136.569C28.9818 136.936 29.2868 137.39 29.8347 137.495Z" fill="#FFCC00"/>
<path d="M198.302 94.8182C198.958 95.0887 199.703 95.251 200.102 95.3788C200.499 95.5083 200.919 95.6714 201.341 95.6714C201.803 95.6714 202 95.3028 202.235 94.9813C202.59 94.4847 202.969 94.0099 203.333 93.5253C204.085 92.5212 204.82 91.5099 205.583 90.5208C206.028 89.9584 206.47 89.3973 206.919 88.8397C207.343 88.3432 207.781 87.8687 208.247 87.3956C209.183 86.4676 210.572 86.3159 211.835 86.3159C213.676 86.3159 215.477 86.6846 217.263 87.0405C221.767 87.9329 226.349 88.4714 230.893 89.0334C232.209 89.1952 233.515 89.3455 234.817 89.4827C236.183 89.6462 237.563 89.7669 238.941 89.7669C239.33 89.7758 239.642 90.1088 239.634 90.4987C239.687 92.6329 239.911 95.7016 240.148 97.8044C240.462 100.518 240.786 102.693 241.185 104.645C241.622 106.8 242.646 109.707 245.083 111.347C246.376 112.217 247.951 112.757 249.663 112.921C252.871 113.22 256.179 112.907 259.35 112.4C260.015 112.294 260.674 112.165 261.322 111.994C261.87 111.852 262.531 111.713 262.895 111.249C263.131 110.957 263.204 110.472 263.143 110.108C263.143 110.108 262.281 105.335 262.259 105.226C260.084 92.8139 257.075 80.3901 252.472 68.6264C251.173 65.2965 249.73 62.0091 248.115 58.8079C246.443 55.4781 244.495 52.3024 242.27 49.3157C241.754 48.6391 241.249 47.9829 240.702 47.3152C240.418 46.9584 240.093 46.4836 239.587 46.4704C239.116 46.4526 238.726 46.8616 238.405 47.1636C238.036 47.5203 237.658 47.8538 237.294 48.1986C228.599 56.2795 220.453 64.9181 212.567 73.7652C210.284 76.331 208.03 78.9155 205.78 81.5127C202.652 85.108 199.639 88.8486 197.191 92.9655C196.643 93.8927 197.388 94.4503 198.302 94.8182Z" fill="#FFCC00"/>
<path d="M353.116 105.066C352.988 103.986 352.847 102.911 352.71 101.831C352.289 98.5676 351.976 95.1957 351.166 91.9962C350.489 89.2355 349.542 86.6179 348.787 84.6591C348.174 83.0735 347.267 82.0283 345.913 80.7588C344.09 79.0335 342.505 77.0955 340.976 75.2097L340.891 75.1116C339.317 73.1735 337.689 71.1688 335.816 69.4121C332.477 66.2976 329.394 64.3387 326.089 63.2294C324.16 62.5914 322.12 62.7966 320.937 63.7883C320.062 64.5099 319.276 65.5433 318.898 66.0402C318.23 66.9445 317.715 68.002 317.251 68.9275C316.909 69.6398 316.421 70.5869 315.885 71.4169C314.771 73.0856 313.039 74.3054 311.37 75.4896L311.248 75.5741C309.505 76.8338 307.511 78.2558 305.852 79.9055C304.354 81.3946 302.391 83.6461 302.737 85.9948C302.814 86.5228 303.084 87.2784 303.448 87.6967C303.783 88.0416 304.182 88.2128 304.675 88.2246C305.108 88.2246 305.57 88.1057 306.016 87.89C306.016 87.89 306.188 87.8169 306.197 87.805C308.361 86.7937 306.851 83.9825 306.165 82.5265C305.284 80.6921 307.006 80.0486 308.546 79.962C310.668 79.8639 312.209 80.5405 313.331 82.4386C313.426 82.5902 313.558 82.8599 313.76 82.8599C313.931 82.8599 314.064 82.7095 314.178 82.6229C315.85 81.4583 318.358 80.1641 320.452 80.1641C320.667 80.1641 320.892 80.1867 321.088 80.2279C321.77 80.3557 322.49 80.8229 322.973 81.446C323.111 81.6307 323.834 82.5898 323.564 83.3101C323.534 83.4078 323.467 83.5153 323.37 83.6134C322.294 84.6472 320.312 85.1649 318.945 85.6703C318.103 85.9825 317.251 86.2951 316.409 86.5882C315.439 86.9212 313.803 87.8169 313.155 86.5228C312.953 86.1006 312.993 85.5412 312.792 85.0991C312.381 84.2263 311.831 83.1079 311.055 82.5023C310.581 82.1362 309.353 81.6515 308.383 81.5997C308.18 81.5997 307.932 81.6307 307.781 81.8032C307.64 81.9756 307.619 82.4381 307.736 82.6318C307.838 82.7745 308.05 83.1806 308.113 83.3012C308.827 84.7453 309.106 85.898 309.128 87.4066V87.9775C309.128 88.7853 309.119 89.5396 309.496 90.2298C309.904 90.9837 310.529 91.4551 311.24 91.5753C311.725 91.662 312.251 91.7036 312.813 91.7478C314.321 91.8667 315.886 91.9962 316.991 92.8024C319.06 94.3242 321.68 94.207 323.945 93.1609C325.584 92.4053 326.917 90.5505 328.758 90.2604C333.044 89.5613 334.491 96.2605 334.252 99.1729C333.577 107.574 330.829 115.604 329.351 123.866C328.573 128.133 328.219 132.42 328.286 136.751C328.327 138.701 328.286 139.898 328.176 140.373C328.158 140.544 327.996 140.694 327.778 140.749C327.734 140.749 327.693 140.761 327.647 140.749C318.963 139.444 310.172 140.48 301.446 140.513C299.774 140.523 298.095 140.513 296.425 140.468C295.552 140.449 293.117 140.835 292.762 139.705C292.719 139.541 292.728 139.403 292.728 139.296C292.697 139.263 292.394 139.155 291.413 139.091L291.261 139.07C291.211 139.07 291.156 139.056 291.112 139.056C289.067 138.863 286.921 138.732 284.85 138.616C276.836 138.131 268.799 137.895 260.771 137.655C258.035 137.579 255.299 137.505 252.56 137.462L249.651 137.42C249.479 137.42 249.33 137.342 249.212 137.213C248.663 136.602 248.825 135.256 248.814 134.502C248.793 132.183 248.955 129.846 249.112 127.529C249.158 126.904 249.219 126.205 249.383 125.515C248.156 125.301 247.38 124.319 247.067 123.239C246.873 123.394 246.637 123.531 246.367 123.681C244.23 124.911 241.346 124.014 239.829 122.216C239.367 121.657 238.995 120.955 238.758 120.278C237.854 120.967 236.594 121.344 235.184 121.344C234.146 121.344 233.145 121.127 232.37 120.719C231.733 120.364 230.946 119.717 230.616 119.039C230.216 118.221 230.528 117.196 230.745 116.451L230.788 116.293C231.057 115.398 231.237 114.708 231.4 114.05C231.412 114.018 231.412 113.986 231.425 113.953C231.392 113.986 231.359 114.018 231.338 114.038L231.228 114.134C230.969 114.373 230.701 114.619 230.423 114.835C228.448 116.279 226.082 117.097 223.559 117.228H223.245C222.427 117.228 221.362 117.047 220.962 116.236C220.314 114.944 221.222 113.477 221.845 112.379C222.632 110.978 223.45 109.598 224.161 108.155C224.767 106.959 225.332 105.732 225.811 104.473C226.326 103.06 226.715 101.453 226.965 99.6979C227.188 97.9637 227.343 96.0868 226.986 94.2991C226.863 93.6743 226.588 92.889 226.995 92.3165C227.352 91.8106 228.266 91.8867 228.58 92.4044C229.215 93.431 229.14 94.7634 229.159 95.9165C229.181 97.4128 229.065 98.9032 228.815 100.377C228.662 101.209 228.494 102.036 228.286 102.867C228.104 103.557 227.911 104.244 227.664 104.924C226.662 107.662 225.195 110.147 223.708 112.638C223.438 113.091 222.461 114.396 222.988 114.901C223.696 115.582 225.758 114.881 226.469 114.599C227.394 114.232 228.332 113.705 229.259 113.027C231.897 111.064 233.362 107.683 234.128 105.184C234.439 104.16 234.731 103.124 234.945 102.078C235.052 101.585 235.132 101.1 235.205 100.613C235.283 100.183 235.819 99.8707 236.216 99.892C236.487 99.9026 236.722 100.001 236.907 100.204C237.133 100.441 237.155 100.646 237.133 100.972C237.088 101.466 236.992 101.951 236.865 102.425C236.722 102.943 236.627 103.459 236.487 103.976C235.582 107.238 234.214 110.353 233.318 113.628C233.104 114.438 232.908 115.246 232.769 116.075C232.639 116.734 232.512 117.489 233.006 118.036C234.075 119.221 236.615 119.027 237.814 118.175C239.264 117.141 239.439 115.029 240.039 113.478C240.214 113.027 240.496 112.295 241.098 112.295C241.273 112.295 241.389 112.359 241.496 112.423C242.133 112.874 241.747 113.781 241.583 114.373C241.065 116.267 239.946 119.49 241.65 121.096C242.357 121.786 243.781 122.078 244.653 121.676C246.907 120.656 247.907 118.155 248.51 116.075C248.532 116.009 248.567 115.916 248.597 115.786C248.695 115.398 248.768 115.075 248.833 114.836C247.036 114.578 245.378 113.953 244.007 113.015C241.043 111.01 239.804 107.607 239.289 105.108C238.865 102.983 238.522 100.755 238.232 98.092C238.05 96.3905 237.984 94.6771 237.888 92.9757C237.865 92.7493 237.897 92.5131 237.876 92.2736C237.854 92.0166 237.876 91.7682 237.781 91.5222C237.651 91.1757 237.004 91.185 236.713 91.1553C232.554 90.7552 228.375 90.4099 224.213 89.8955C223.008 89.7405 221.8 89.5817 220.596 89.3986C217.977 88.9879 215.378 88.4166 212.74 88.2119L212.424 88.1941C212.007 88.1588 211.576 88.1282 211.143 88.1465C210.984 88.1588 209.871 88.1941 210.131 88.5156C210.259 88.688 210.704 88.7088 210.895 88.7432C211.198 88.773 211.503 88.7938 211.79 88.8159C212.061 88.8397 212.342 88.849 212.611 88.8919C212.796 88.9144 213.212 88.9484 213.29 89.1595C213.572 89.9257 210.166 89.7545 209.768 89.7409C209.312 89.732 208.713 89.6594 208.312 89.8841C207.87 90.1321 208.083 90.8643 208.128 91.2525C208.184 91.7389 208.238 92.2222 208.193 92.7162C208.159 93.2127 208.022 93.6977 207.923 94.1815C207.729 95.1405 207.525 96.1017 207.32 97.0607C207.114 98.0291 206.9 98.9975 206.682 99.9654C206.566 100.507 206.446 101.047 206.33 101.585L206.295 101.723C205.994 103.092 205.683 104.484 205.382 105.861C205.241 106.56 205.112 107.303 205.382 107.628C205.606 107.908 206.116 107.856 206.437 107.868C206.749 107.877 207.054 107.877 207.363 107.877C207.989 107.877 208.61 107.877 209.227 107.868C209.767 107.868 210.38 107.92 210.886 107.715C211.446 107.499 211.254 106.69 211.661 106.337C211.801 106.218 211.995 106.151 212.188 106.227C212.424 106.325 212.513 106.595 212.547 106.831C212.631 107.533 212.373 108.298 211.909 108.815C211.596 109.171 211.266 109.415 210.799 109.535C210.38 109.642 209.952 109.654 209.526 109.678C209.218 109.687 208.858 109.699 208.633 109.947C208.528 110.052 208.514 110.289 208.494 110.525C208.461 110.872 208.408 111.279 208.537 111.626C208.679 111.99 209.089 112.132 209.377 112.337C209.776 112.605 210.079 112.985 210.371 113.362C210.65 113.726 211.394 114.608 210.734 114.986C210.35 115.214 209.96 114.599 209.753 114.363C209.551 114.114 209.162 114.018 208.858 114.006C208.621 113.997 208.259 113.987 208.095 114.168C208.009 114.266 207.975 114.438 207.997 114.556C208.031 114.717 208.193 114.87 208.268 115.008C208.366 115.171 208.443 115.355 208.503 115.538C208.679 116.044 208.731 116.594 208.666 117.133C208.515 118.307 207.923 119.339 207.54 120.45C207.257 121.281 207.054 122.272 207.188 123.155C207.236 123.394 207.321 123.629 207.448 123.835C208.054 124.793 209.131 125.276 210.187 125.588C210.508 125.687 210.855 125.773 211.189 125.858C211.939 126.042 212.706 126.192 213.471 126.313C214.096 126.418 214.712 126.472 215.337 126.548C215.834 126.603 216.34 126.691 216.77 126.96C217.576 127.443 217.621 128.425 217.6 129.264C217.567 130.709 217.502 132.14 217.448 133.573C217.414 134.575 217.386 135.719 216.521 136.473C215.615 137.291 214.442 137.387 213.524 137.387C213.173 137.387 212.813 137.378 212.492 137.357L212.364 137.344C209.844 137.214 207.182 137.099 204.971 137.032C198.864 136.816 192.754 136.743 186.634 136.688C184.89 136.679 183.132 136.667 181.385 136.645C177.248 136.615 173.101 136.679 168.961 136.688C167.757 136.688 166.539 136.679 165.323 136.633C164.299 136.603 163.231 136.398 162.199 136.473C161.797 136.515 161.603 136.667 161.192 137C160.601 137.506 160.086 137.904 159.396 138.132C158.492 138.433 157.489 138.562 156.239 138.562C152.973 138.562 149.708 138.12 146.455 137.884C144.711 137.766 142.974 137.702 141.23 137.82C139.517 137.927 137.686 138.089 136.08 137.378C135.628 137.184 135.252 136.882 134.884 136.603L134.721 136.473C134.442 136.246 134.152 136.02 133.839 135.847C132.257 134.93 130.196 135.102 128.452 135.114C124.981 135.124 121.522 135.114 118.065 135.029L114.443 134.93C109.499 134.79 104.663 134.66 99.8139 134.631C99.221 134.618 98.6166 134.618 98.0351 134.618C95.0387 134.618 92.2716 134.672 89.5877 134.769C87.6807 134.832 85.7316 134.888 83.8364 134.929L83.0048 134.962C79.1483 135.059 75.1715 135.179 71.2815 135.405C68.6638 135.598 65.9587 135.685 63.0409 135.685C62.0508 135.685 61.0561 135.676 60.0661 135.74C59.7539 135.762 59.4324 135.803 59.1066 135.847C58.1378 136.008 57.4383 135.903 56.9082 135.307C56.286 134.575 55.5958 133.821 54.6363 133.195C53.4496 132.431 52.1134 131.86 50.9425 131.364C50.2081 131.06 49.4759 130.749 48.7649 130.404C47.3637 129.726 45.889 129.089 44.3124 129.015C43.7951 128.994 43.2893 129.015 42.7834 129.039C42.4836 129.059 42.2903 129.089 42.202 129.401C42.0728 129.855 42.1701 130.352 42.202 130.816C42.2657 131.784 42.2903 132.764 42.3111 133.743C42.3328 134.372 42.3417 135.007 42.3328 135.632C42.3328 135.684 42.3328 136.288 42.2992 136.297C42.8051 136.181 43.3228 136.103 43.8287 135.984C44.5524 135.812 45.3717 135.542 46.1014 135.782C46.3065 135.846 46.504 135.941 46.665 136.072C47.0184 136.374 47.0422 136.707 47.0086 136.892C46.9101 137.495 46.1902 137.903 45.596 138.16C43.5594 138.926 41.4379 139.09 39.3694 139.231L38.0018 139.338C36.1797 139.477 34.282 139.616 32.4213 139.625L31.7613 139.639C29.8882 139.639 27.9689 139.468 27.0221 137.408C26.4615 136.203 26.6577 134.75 26.7524 133.454C26.7949 133.044 26.828 132.636 26.8726 132.226C26.8599 132.258 26.2466 132.367 26.1825 132.376C25.9467 132.44 25.7191 132.516 25.4923 132.625C25.0599 132.83 24.6942 133.164 24.3485 133.498C24.0274 133.821 23.7262 134.176 23.465 134.566C23.0679 135.147 22.8093 135.826 22.5909 136.502C22.3688 137.247 22.1968 138.002 22.142 138.778C22.0851 139.532 22.142 140.295 22.3246 141.04C22.5086 141.751 22.8318 142.386 23.2289 143.004C23.2714 143.067 23.316 143.149 23.3703 143.218C24.3396 144.411 25.7407 144.94 27.9047 144.94C28.7674 144.94 29.6482 144.855 30.5232 144.768L30.9012 144.735C31.6249 144.671 32.302 144.605 32.9475 144.584H33.2283C34.1436 144.584 35.3061 144.692 36.2014 145.563L36.5038 145.879C36.9888 146.35 37.3235 146.685 37.9802 146.847C38.1169 146.89 38.5281 146.999 38.7345 147.075C38.9396 147.127 39.0891 147.332 39.0891 147.558C39.0891 147.592 39.0764 147.622 39.0675 147.665C39.0037 147.87 38.8288 148.022 38.6257 148.034C38.5497 148.043 38.2796 148.086 37.8812 148.116L37.0109 148.181H36.9001C36.2863 148.181 35.91 147.829 35.5889 147.537C35.4806 147.428 35.3829 147.344 35.2751 147.256C35.0181 147.075 34.7144 146.999 34.2816 146.999C34.079 146.999 33.8645 147.011 33.6679 147.028C32.4413 147.148 31.385 147.203 30.4586 147.203C29.1424 147.203 27.8283 147.075 26.5367 146.847C26.0525 146.75 25.5772 146.633 25.1019 146.534C24.3914 146.35 23.6918 146.136 23.0017 145.888C22.8432 145.824 22.6806 145.758 22.5179 145.685C22.4202 146.706 22.5905 147.739 22.7872 148.721C22.9804 149.616 23.2289 150.122 24.0393 150.403C24.6849 150.628 25.4264 150.759 26.3617 150.8C27.3776 150.888 28.465 150.812 29.5327 150.759L29.7812 150.747C30.3945 150.704 31.049 150.669 31.6967 150.651H32.0658C32.9263 150.619 33.6585 150.651 34.2298 150.812C35.0049 151.06 35.371 151.523 35.7376 151.965C35.8671 152.139 35.9979 152.309 36.1585 152.47C36.2222 152.534 36.3305 152.61 36.6546 152.61C36.7939 152.61 36.9336 152.598 37.0632 152.589C37.397 152.555 37.7228 152.546 37.9708 152.589C38.2796 152.696 38.4104 152.958 38.3348 153.215C38.2375 153.536 38.0103 153.494 37.7432 153.614C37.4603 153.742 37.2152 153.904 36.9332 153.999C36.1916 154.259 35.6616 154.238 35.1557 153.947C34.9191 153.796 34.7136 153.614 34.5513 153.462C34.2298 153.172 33.9389 152.933 33.4874 152.894C32.9773 152.837 32.4506 152.988 31.9452 153.009C30.2012 153.117 28.4429 152.975 26.7087 152.894C26.2147 152.867 25.7063 152.837 25.2094 152.803C24.6173 152.76 24.0261 152.709 23.4332 152.631C23.2068 152.61 23.0136 152.58 22.8517 152.555C22.616 154.526 23.1554 157.105 24.9083 158.524C25.3194 158.86 25.7734 159.009 26.3426 159.009C27.2145 159.009 28.2594 158.612 29.0995 158.289C30.1019 157.913 31.1148 157.535 32.0743 157.535H32.2021C33.3549 157.586 34.5084 158.053 35.4581 158.838C35.6611 159.043 35.6828 159.314 35.5435 159.519C35.4675 159.613 35.2742 159.723 35.134 159.723C35.0376 159.723 34.9493 159.69 34.8631 159.635C34.4986 159.411 33.8943 159.463 33.2818 159.604L33.1399 159.635C31.9448 159.916 30.6727 160.251 29.3055 160.681C28.1519 161.057 26.7393 161.435 25.6622 161.358C25.6528 161.511 25.6622 161.684 25.6847 161.898C25.7611 162.824 26.1387 163.719 26.696 164.29C27.9162 165.518 31.221 165.682 32.31 165.737C33.969 165.83 35.5524 165.573 37.3227 165.283C38.4758 165.108 39.5631 164.949 40.6823 164.862C43.9569 164.636 46.6089 163.989 48.8719 161.597C49.142 161.318 49.399 161.016 49.6683 160.681L49.7672 160.574C49.969 160.338 50.1652 160.122 50.3585 159.896C51.2207 158.946 52.1899 158.076 53.0287 157.342L53.1069 157.265C53.8603 156.589 54.799 155.759 55.9177 155.705C56.1012 155.693 56.2855 155.683 56.5005 155.683C57.1898 155.683 57.88 155.748 58.6339 155.822L59.4315 155.898C60.2495 155.964 61.0676 156.028 61.8865 156.113C64.5559 156.361 67.3502 156.555 69.7078 156.718L69.9134 156.73C72.1628 156.876 74.5026 157.04 76.7872 157.244C78.047 157.351 79.4176 157.492 80.7767 157.665C82.9496 157.964 85.3009 158.42 88.1988 159.099C90.1492 159.55 92.1416 160.035 94.0699 160.511C103.185 162.717 112.558 164.98 121.954 165.507C122.687 165.552 123.356 165.561 123.991 165.561C126.715 165.561 128.902 165.197 130.864 164.409C131.491 164.152 132.115 163.86 132.716 163.57C133.439 163.225 134.075 162.987 134.811 162.987C135.013 162.987 135.217 163.008 135.41 163.042L135.757 163.106C139.979 163.827 144.323 163.741 148.588 163.625C150.084 163.591 151.584 163.527 153.079 163.482C154.287 163.461 155.655 163.428 156.714 164.097C156.914 164.226 157.035 164.4 157.098 164.614C157.261 165.173 156.786 165.865 156.538 166.324C154.784 169.701 155.473 173.794 155.882 177.394C156.011 178.439 156.293 179.396 156.714 180.15C157.077 180.767 157.583 180.84 158.445 180.916C162.326 181.239 166.227 181.14 170.116 181.239C172.818 181.294 175.534 181.23 178.239 181.207C178.388 181.207 178.615 181.337 178.681 181.478C178.885 181.884 178.929 182.339 178.971 182.802C179.198 185.034 179.253 187.283 179.317 189.527C179.523 195.419 179.683 201.324 179.683 207.229C179.683 212.032 179.587 216.839 179.426 221.642C179.383 222.998 179.263 224.358 179.263 225.713C178.885 234.506 178.282 242.52 177.441 250.213C177.193 252.432 176.935 254.656 176.795 256.896C176.611 259.695 173.143 259.103 171.269 258.788C162.55 257.344 153.631 257.099 144.795 256.991C142.211 256.957 139.635 256.939 137.047 256.905C130.431 256.841 123.818 256.755 117.189 256.755C115.672 256.808 114.442 256.939 113.324 257.185C110.165 257.875 109.844 260.189 108.776 262.747C108.336 263.8 107.289 263.727 106.351 264.028C105.167 264.427 104.045 265.214 103.227 266.158C101.753 267.842 101.505 270.235 101.384 272.355C100.922 280.75 101.59 289.152 101.71 297.557C101.826 305.605 101.848 313.656 101.753 321.715C101.698 326.833 101.688 331.96 101.569 337.078C101.449 341.784 101.535 346.614 100.652 351.257C100.198 353.713 99.4558 356.117 98.2275 358.281C97.3649 359.811 96.2551 361.328 94.7384 363.067C91.6238 366.643 88.122 370.37 84.0382 374.484C82.586 375.961 80.9908 377.406 79.0502 378.225C74.9774 379.927 70.0553 379.196 65.7651 380.221C61.6596 381.198 59.0115 382.913 57.9012 385.338C57.2535 386.694 56.9409 389.097 57.502 390.509C58.6003 393.298 63.0736 392.912 65.4219 393.028C70.0438 393.276 74.6742 393.276 79.2986 393.094C83.6177 392.921 88.1126 392.835 92.3561 391.909C93.4128 391.682 94.532 391.392 95.4914 391.146C97.5488 390.593 99.6835 390.035 101.915 389.873C108.228 389.248 114.314 391.875 120.673 390.919C123.085 390.553 125.4 390.122 127.008 388.776C129.548 386.672 129.496 383.192 129.009 380.65C128.322 377.052 127.286 373.344 125.939 369.628C125.605 368.678 125.219 367.718 124.829 366.774L124.723 366.503C123.385 363.195 121.997 359.782 122.04 356.091C122.049 353.563 122.632 351.098 123.193 348.692L123.442 347.606C124.649 342.336 125.724 337.206 126.954 331.12L127.901 326.347C128.892 321.488 129.711 316.799 130.691 311.177L130.876 310.154C130.863 310.002 131.026 309.809 131.25 309.754C131.424 309.702 131.683 309.821 131.78 310.002C134.107 314.203 136.735 318.147 139.289 321.963C140.162 323.274 140.969 324.504 141.705 325.657C142.392 326.724 143.493 328.222 145.052 328.803C145.592 328.985 146.154 329.085 146.778 329.085C148.061 329.085 149.329 328.707 150.636 328.295C155.183 326.861 159.75 325.494 164.35 324.268C168.249 323.222 172.28 322.482 176.13 321.226C176.923 320.969 177.788 320.604 178.636 320.659C180.488 320.768 179.747 323.386 179.683 324.57C179.189 333.867 178.821 343.167 178.315 352.465C178.139 355.608 177.946 358.775 177.668 361.935C177.419 364.854 177.064 368.001 178.076 370.835C178.369 371.622 178.863 372.396 179.413 372.967C181.018 374.594 183.153 375.435 185.049 376.061C187.774 376.965 190.606 377.539 193.472 377.762C195.573 377.925 197.922 377.18 199.97 377.612C201.598 377.956 201.263 379.236 201.371 380.543C201.468 381.88 201.759 383.213 202.209 384.474C203.483 388.039 206.242 390.25 209.538 391.875C211.101 392.641 212.901 393.189 214.892 393.506C217.491 393.923 220.227 394.119 223.255 394.119C226.713 394.119 230.152 393.848 232.767 393.622C242.942 392.704 253.045 391.188 263.196 390.095C266.135 389.786 269.078 389.508 272.019 389.268C279.107 388.697 286.22 388.353 293.317 387.998C295.991 387.87 298.675 387.554 301.272 386.92C302.358 386.651 303.503 386.415 304.524 386.996C305.688 387.662 306.196 389.032 307.155 389.905C308.804 391.412 310.72 392.611 312.648 393.73C318.52 397.156 326.632 400.184 329.876 406.616C331.204 409.243 331.243 412.297 331.147 415.181C331.084 417.123 330.771 419.03 330.609 420.959C330.487 422.228 330.017 424.618 330.999 425.656C331.58 426.277 332.604 426.408 333.347 426.408C333.938 426.408 334.607 426.323 335.22 426.162C335.877 425.977 336.461 425.689 337.019 425.279C338.111 424.469 338.905 423.286 339.666 422.141C340.574 420.804 341.318 419.218 341.901 417.929C342.052 417.617 342.193 417.336 342.332 417.043C343.742 414.064 345.349 410.678 345.478 407.296C345.799 399.331 336.607 394.518 336.76 386.554C336.891 380.465 339.607 374.23 338.008 368.15C337.43 365.974 336.21 363.916 334.476 362.214C332.666 360.427 330.569 359.314 328.393 358.983C323.693 358.29 319.652 361.04 315.46 362.656C314.426 363.055 313.231 363.303 311.886 363.419C311.488 363.452 311.109 363.466 310.784 363.474C308.813 363.54 307.005 364.207 305.051 364.37C300.109 364.812 295.109 363.916 290.177 363.573C285.09 363.217 279.994 363.034 274.895 362.859C271.986 362.75 269.078 362.656 266.169 362.527C264.014 362.441 261.738 362.677 259.629 362.183C259.166 362.086 257.797 361.828 257.809 361.201C257.809 360.492 259.498 360.221 259.952 359.984C261.89 358.971 263.993 357.677 264.909 355.586C264.356 355.383 263.034 354.781 262.806 354.63C258.615 351.7 256.601 346.745 255.718 341.907C254.617 335.907 254.535 329.754 254.556 323.664C254.579 319.905 254.65 316.152 254.698 312.403C254.738 309.496 254.726 306.573 254.76 303.668C254.865 295.136 254.608 286.591 254.468 278.044C254.325 269.943 254.123 261.862 253.584 253.77C253.476 252.209 253.358 250.526 253.284 248.837C252.958 243.253 252.649 236.671 252.669 230.273C252.689 225.593 253.079 220.678 253.897 214.748C254.09 213.38 254.308 211.871 254.567 210.278L254.831 208.596C255.123 206.755 255.428 204.924 255.708 203.09C256.893 195.496 258.679 187.984 259.554 180.348C259.554 180.108 259.769 179.906 260.037 179.906C268.01 179.906 276.125 179.613 284.118 178.838C286.447 178.612 288.785 178.375 291.111 178.181L291.424 167.535C291.456 167.3 291.599 167.128 291.79 167.064C292.189 167.008 293.137 166.923 295.679 166.867H295.831C297.599 166.791 300.226 166.704 302.822 166.704C311.44 166.704 320.061 166.622 328.663 166.026C332.773 165.756 337.431 165.456 341.717 164.315C343.032 163.969 344.151 163.563 345.147 163.075C346.834 162.267 348.315 160.878 349.208 159.273C352.611 153.098 353.68 145.621 354.444 138.716C355.023 133.509 354.94 128.263 354.807 124.265C354.605 117.841 353.927 111.442 353.116 105.066ZM216.124 98.7074C215.895 98.8692 215.595 98.9244 215.369 98.7278C215.163 98.5553 214.948 98.2223 214.797 98.0083C214.601 97.7509 214.433 97.3954 214.623 97.0815C214.842 96.7366 215.27 96.6483 215.615 96.8241C216.037 97.0607 216.422 97.5959 216.457 98.0839C216.469 98.3205 216.328 98.5553 216.124 98.7074ZM217.977 93.5045C217.914 93.6102 217.814 93.6981 217.683 93.7618C217.276 93.967 216.779 93.9462 216.34 93.9462C216.221 93.9462 215.304 94.0192 215.26 93.936C215.369 94.1517 215.457 94.4091 215.457 94.7124C215.457 96.8127 212.149 96.8335 212.149 94.7124C212.149 94.537 212.189 94.3543 212.258 94.1815C212.308 94.0192 212.472 93.8718 212.504 93.7096C212.588 93.3855 211.845 93.7096 211.683 93.7304C211.273 93.7941 210.142 93.9241 210.057 93.3197C209.994 92.878 210.339 92.4809 210.693 92.2961C211.103 92.0808 211.576 92.1237 212.029 92.1024C212.986 92.0595 213.936 92.0714 214.893 91.9644C215.163 91.93 215.445 91.8867 215.714 91.8455C216.294 91.7682 216.987 91.3812 217.502 91.8455C217.87 92.2014 218.256 93.0194 217.977 93.5045Z" fill="#FFCC00"/>
<path d="M250.526 114.999C250.222 116.798 249.558 118.47 249.058 120.214C248.996 120.45 248.941 120.676 248.9 120.913C248.738 121.71 248.683 122.767 249.458 123.287C249.974 123.63 250.989 123.565 251.537 123.36C252.164 123.132 252.711 122.714 253.253 122.336C254.288 121.615 255.115 120.71 255.706 119.587C256.127 118.792 256.337 117.929 256.492 117.056C256.525 116.862 256.752 114.785 256.809 114.771C255.717 114.944 254.234 115.063 252.595 115.063C251.863 115.062 251.173 115.042 250.526 114.999Z" fill="#FFCC00"/>
</g>
<defs>
<clipPath id="clip0">
<rect y="0.543579" width="400" height="508.94" fill="white"/>
</clipPath>
</defs>
</svg>
