<svg width="400" height="523" viewBox="0 0 400 523" fill="none" xmlns="http://www.w3.org/2000/svg">
<g clip-path="url(#clip0)">
<path d="M36.6483 303.976C68.561 394.165 121.89 465.466 200 521.921L200.002 522.13L200.295 521.921C278.109 465.466 331.437 394.165 363.35 303.976C392.29 222.195 403.896 123.106 398.86 1.0252L398.839 0.543579H1.16528L1.14434 1.0252C-3.90222 123.106 7.70906 222.194 36.6483 303.976Z" fill="#C9CAC8"/>
<path fill-rule="evenodd" clip-rule="evenodd" d="M199.436 521.512C199.624 521.649 199.812 521.785 200 521.921L200.002 522.13L200.295 521.921C200.483 521.785 200.67 521.649 200.857 521.512H199.772H199.436ZM368.339 289.169C393.614 210.303 403.596 115.831 398.86 1.0252L398.839 0.543579H1.16528L1.14434 1.0252C-3.57289 115.139 6.26452 209.163 31.2039 287.742V124.436L55.285 101.402L79.3661 124.436V279.392L103.447 302.427L127.528 279.392V124.436L151.609 101.402L175.691 124.436V279.392L199.772 302.427L223.853 279.392V124.436L247.934 101.402L272.015 124.436V279.392L296.096 302.427L320.177 279.392V124.436L344.258 101.402L368.339 124.436V289.169Z" fill="#0085CA"/>
</g>
<defs>
<clipPath id="clip0">
<rect y="0.543579" width="400" height="521.59" fill="white"/>
</clipPath>
</defs>
</svg>
