<svg width="400" height="507" viewBox="0 0 400 507" fill="none" xmlns="http://www.w3.org/2000/svg">
<g clip-path="url(#clip0)">
<path d="M400 0.543579H0V306.388C0 306.418 0 306.449 0 306.479C0 416.941 89.5436 506.474 199.995 506.474C310.446 506.474 400 416.93 400 306.479C400 306.449 400 306.418 400 306.388V0.543579Z" fill="#FFE000"/>
<path fill-rule="evenodd" clip-rule="evenodd" d="M68.2601 133.904C71.1758 134.371 74.0102 134.422 77.1088 133.904L58.4259 276.895C56.516 291.535 64.43 303.878 72.8012 311.731L174.434 408.61L231.275 415.681C231.438 422.599 225.678 434.983 221.106 440.276H190.141C187.519 436.67 177.635 433.266 169.558 437.94C159.297 443.883 160.618 453.636 163.828 458.37C165.687 453.768 170.127 448.018 177.655 448.089C185.01 448.15 189.023 454.113 189.704 458.37H261.916C261.682 453.555 267.29 447.581 273.639 447.53C280.243 447.479 284.144 451.766 285.251 458.37C288.116 455.343 289.549 442.613 281.117 437.442C273.274 432.626 262.992 435.461 258.228 440.276H250.304C251.36 422.498 259.853 404.384 273.304 388.251L327.047 395.769C323.216 376.232 313.423 356.696 300.947 337.16C296.62 330.384 301.567 317.583 310.233 315.927L358.896 306.631C361.466 245.219 358.205 181.51 348.726 122.383C344.012 92.9724 309.735 56.5007 277.51 47.4082C255.383 41.1602 232.261 42.1965 212.044 51.6141L195.667 219.059L148.122 213.004C132.71 158.703 130.841 99.0781 98.0774 52.9043C95.9745 49.948 90.773 49.6127 86.8921 51.0147C79.6892 40.6015 74 32.8601 66.1368 33.0532C56.9325 33.2868 50.8471 38.4274 46.8952 42.4911C57.5014 42.8771 63.983 45.9046 67.1121 53.7882C60.5898 53.4123 52.4421 51.4211 49.5975 50.6591C51.2027 59.3758 58.0094 65.8167 61.7277 72.0443C55.3578 74.5029 50.6236 78.6174 46.7834 81.6347C50.136 83.9103 51.6091 84.6418 55.2156 86.1352C51.1519 89.9754 48.4902 93.0943 45.7065 97.7472C49.0185 99.5556 51.1722 100.165 54.8905 100.958C51.5379 104.158 49.8718 107.642 48.2565 111.127C52.4218 111.848 57.1357 112.305 61.3111 111.848C58.8831 116.034 57.5827 120.219 56.7801 124.405C60.4273 124.679 64.7958 125.035 68.4429 124.568C68.0569 127.687 67.7927 130.795 68.2804 133.914L68.2601 133.904Z" fill="black"/>
</g>
<defs>
<clipPath id="clip0">
<rect y="0.543579" width="400" height="505.93" fill="white"/>
</clipPath>
</defs>
</svg>
