<svg width="400" height="461" viewBox="0 0 400 461" fill="none" xmlns="http://www.w3.org/2000/svg">
<g clip-path="url(#clip0)">
<path d="M195.501 460.257L190.593 456.985C14.724 326.106 8.17997 178.867 3.272 61.0753C2.454 43.0794 1.63598 25.9015 0.817983 9.54154L0 0.543579H400L399.182 9.54154C397.546 26.7194 396.728 43.8973 395.092 62.7113C387.73 180.503 378.732 326.924 200.409 456.985L195.501 460.257Z" fill="white"/>
<path d="M195.501 460.257L190.593 456.985C14.724 326.106 8.17997 178.867 3.272 61.0753C2.454 43.0794 1.63598 25.9015 0.817983 9.54154L0 0.543579H400L399.182 9.54154C397.546 26.7194 396.728 43.8973 395.092 62.7113C387.73 180.503 378.732 326.924 200.409 456.985L195.501 460.257ZM17.1779 16.0855C17.9959 29.9914 18.8139 44.7154 19.6319 59.4393C24.5399 173.141 30.2659 313.836 195.501 438.989C363.19 314.654 371.37 173.959 378.732 61.0753C379.55 45.5334 380.368 30.8094 382.004 16.0855H17.1779Z" fill="#2D333C"/>
<path d="M234.444 273.345L206.632 301.157H245.896L273.707 273.345H234.444Z" fill="#2D333C"/>
<path d="M245.896 305.247H206.632L234.444 333.059H273.707L245.896 305.247Z" fill="#2D333C"/>
<path d="M231.991 335.513L204.179 307.701V346.965L231.991 374.777V335.513Z" fill="#2D333C"/>
<path d="M200.088 346.965V307.701L172.276 335.513V374.777L200.088 346.965Z" fill="#2D333C"/>
<path d="M169.824 333.059L197.635 305.247H158.372L130.56 333.059H169.824Z" fill="#2D333C"/>
<path d="M158.372 301.157H197.635L169.824 273.345H130.56L158.372 301.157Z" fill="#2D333C"/>
<path d="M172.276 270.891L200.088 298.703V259.439L172.276 231.627V270.891Z" fill="#2D333C"/>
<path d="M204.179 259.439V298.703L231.991 270.891V231.627L204.179 259.439Z" fill="#2D333C"/>
<path d="M151.656 94.8665L123.844 122.678H163.108L190.919 94.8665H151.656Z" fill="#2D333C"/>
<path d="M163.108 126.768H123.844L151.656 154.58H190.919L163.108 126.768Z" fill="#2D333C"/>
<path d="M149.201 157.034L121.389 129.222V168.486L149.201 196.298V157.034Z" fill="#2D333C"/>
<path d="M117.3 168.486V129.222L89.4883 157.034V196.298L117.3 168.486Z" fill="#2D333C"/>
<path d="M87.0336 154.58L114.845 126.768H75.5816L47.7698 154.58H87.0336Z" fill="#2D333C"/>
<path d="M75.5816 122.678H114.845L87.0336 94.8665H47.7698L75.5816 122.678Z" fill="#2D333C"/>
<path d="M89.4883 92.4125L117.3 120.224V80.9605L89.4883 53.1487V92.4125Z" fill="#2D333C"/>
<path d="M121.389 80.9605V120.224L149.201 92.4125V53.1487L121.389 80.9605Z" fill="#2D333C"/>
<path d="M317.226 94.8665L289.414 122.678H328.678L356.49 94.8665H317.226Z" fill="#2D333C"/>
<path d="M328.678 126.768H289.414L317.226 154.58H356.49L328.678 126.768Z" fill="#2D333C"/>
<path d="M314.771 157.034L286.959 129.222V168.486L314.771 196.298V157.034Z" fill="#2D333C"/>
<path d="M282.87 168.486V129.222L255.059 157.034V196.298L282.87 168.486Z" fill="#2D333C"/>
<path d="M252.604 154.58L280.415 126.768H241.152L213.34 154.58H252.604Z" fill="#2D333C"/>
<path d="M241.152 122.678H280.415L252.604 94.8665H213.34L241.152 122.678Z" fill="#2D333C"/>
<path d="M255.059 92.4125L282.87 120.224V80.9605L255.059 53.1487V92.4125Z" fill="#2D333C"/>
<path d="M286.959 80.9605V120.224L314.771 92.4125V53.1487L286.959 80.9605Z" fill="#2D333C"/>
</g>
<defs>
<clipPath id="clip0">
<rect y="0.543579" width="400" height="459.71" fill="white"/>
</clipPath>
</defs>
</svg>
