<svg width="400" height="489" viewBox="0 0 400 489" fill="none" xmlns="http://www.w3.org/2000/svg">
<g clip-path="url(#clip0)">
<path d="M395.559 0.543579H200H4.44109C4.44109 0.543579 -46.3266 336.051 195.432 487.721L199.45 488.271H200H200.55L204.568 487.721C446.327 336.051 395.559 0.543579 395.559 0.543579Z" fill="#ED1E25"/>
<path fill-rule="evenodd" clip-rule="evenodd" d="M119.019 143.464C119.019 163.881 119.019 184.27 119.019 204.66C119.019 207.412 118.331 208.1 115.497 208.292C107.022 208.87 98.5193 208.485 90.0443 208.843C87.0725 208.98 86.0819 208.292 86.0819 205.045C86.0819 173.649 86.2745 142.253 86.0819 110.857C86.0819 101.143 85.6692 91.4027 85.7517 81.6619C85.7517 79.323 84.8987 78.9102 82.78 78.9102C70.5352 78.9102 58.2904 78.9102 46.0456 78.9102C43.1288 78.9102 42.5235 78.0572 42.5785 75.3056C42.7436 66.1426 42.5785 56.9521 42.5785 47.7892C42.5785 45.5329 43.0463 44.7074 45.5228 44.6799C81.4317 44.102 117.368 44.3221 153.277 44.2121C156.029 44.2121 156.469 45.01 156.414 47.459C156.285 57.1264 156.285 66.7663 156.414 76.3787C156.414 78.58 155.698 79.1304 153.662 79.1304C143.233 79.1304 132.805 79.1303 122.376 78.9377C119.624 78.9377 118.771 79.5156 118.799 82.4323C118.799 102.822 118.799 123.239 118.799 143.629L119.019 143.464Z" fill="#FFF200"/>
<path fill-rule="evenodd" clip-rule="evenodd" d="M174.024 215.832C174.024 195.305 174.024 174.805 174.024 154.278C174.024 151.526 173.309 150.893 170.64 150.921C159.633 150.921 148.407 150.921 137.29 150.921C135.116 150.921 134.401 150.37 134.538 148.169C134.667 138.758 134.667 129.348 134.538 119.937C134.538 117.763 135.034 116.993 137.29 117.02C171.997 117.02 206.686 117.02 241.357 117.02C244.109 117.02 244.741 118.011 244.741 120.35C244.741 130.091 244.741 139.859 244.741 149.6C244.741 151.031 244.741 151.856 242.733 151.719C231.506 150.893 220.334 152.682 209.135 152.131C206.576 152.131 207.127 153.7 207.127 155.048C207.127 166.495 207.319 177.969 207.127 189.416C206.439 218.886 206.796 248.356 206.741 277.799C206.741 280.55 205.998 280.963 203.522 280.963C195.019 280.963 186.517 280.963 178.042 281.431C174.767 281.431 174.107 280.385 174.134 277.358C174.134 256.859 174.134 236.331 174.134 215.804L174.024 215.832Z" fill="#FFF200"/>
<path fill-rule="evenodd" clip-rule="evenodd" d="M293.115 286.989C293.115 307.379 293.115 327.796 293.115 348.186C293.115 351.598 292.125 352.285 288.933 352.203C280.678 351.983 272.423 352.01 264.168 352.203C261.554 352.203 260.646 351.377 261.059 348.901C261.073 348.791 261.073 348.68 261.059 348.571C260.912 307.553 260.784 266.526 260.674 225.49C260.674 222.353 259.793 221.583 256.739 221.638C245.98 221.83 235.193 221.638 224.434 221.638C222.233 221.638 221.683 221.06 221.683 218.886C221.793 209.585 221.793 200.285 221.683 190.984C221.683 188.646 222.481 188.233 224.6 188.233C259.289 188.343 293.978 188.407 328.667 188.425C331.033 188.425 332.106 188.893 332.051 191.59C331.886 200.67 331.886 209.723 332.051 218.803C332.051 221.335 331.171 221.72 328.942 221.555C318.155 221.555 307.396 221.555 296.61 221.39C293.473 221.39 292.95 222.326 292.95 225.215C292.95 245.715 292.95 266.242 292.95 286.769L293.115 286.989Z" fill="#FFF200"/>
</g>
<defs>
<clipPath id="clip0">
<rect y="0.543579" width="400" height="487.73" fill="white"/>
</clipPath>
</defs>
</svg>
