<svg width="400" height="464" viewBox="0 0 400 464" fill="none" xmlns="http://www.w3.org/2000/svg">
<g clip-path="url(#clip0)">
<path d="M0 0.806732H400C387.152 130.999 407.709 307.445 195.289 463.334C-13.7045 308.301 10.2784 130.143 0 0.806732Z" fill="#D9000D"/>
<path d="M141.473 219.839C114.921 219.839 93.5074 241.252 93.5074 267.805C93.5074 294.357 114.921 315.771 141.473 315.771C168.026 315.771 189.439 294.357 189.439 267.805C189.439 241.252 168.026 219.839 141.473 219.839ZM141.473 230.974C150.038 230.974 158.604 234.4 164.6 239.539L142.33 261.809L119.203 238.683C125.199 233.544 133.764 230.974 141.473 230.974ZM104.642 267.805C104.642 260.096 107.212 252.387 111.495 246.392L134.621 269.518L112.351 290.931C108.068 284.935 104.642 276.37 104.642 267.805ZM141.473 304.636C133.764 304.636 126.912 302.066 120.916 298.64L142.33 277.227L162.886 297.783C156.891 302.066 149.182 304.636 141.473 304.636ZM170.595 290.075L150.038 269.518L172.308 247.248C180.874 260.096 180.017 278.083 170.595 290.075Z" fill="#E8E8E8"/>
<path d="M335.049 187.291C324.771 187.291 315.349 195 313.636 205.278H307.64L343.614 80.2243H55.8197L83.2287 205.278H69.5242C70.3808 206.991 71.2373 208.704 71.2373 210.417C71.2373 217.269 65.2416 223.265 58.3893 223.265C51.5371 223.265 45.5414 217.269 45.5414 210.417C45.5414 203.565 51.5371 197.569 58.3893 197.569L54.9632 187.291C42.9718 189.86 35.263 200.995 37.8326 212.987C40.4022 224.978 51.5371 232.687 63.5285 230.117C71.2373 228.404 78.0895 222.409 80.6591 214.7H86.6549L90.9375 234.4H100.359C118.347 211.274 151.751 206.991 174.878 224.978C178.304 227.548 181.73 230.974 184.299 234.4H208.282C226.269 211.274 259.674 206.991 282.801 224.978C286.227 227.548 289.653 230.974 292.222 234.4H300.788L305.927 214.7H315.349C318.775 225.835 330.766 232.687 342.758 229.261C354.749 225.835 360.745 213.843 357.319 201.852C353.893 194.143 345.327 187.291 335.049 187.291ZM335.049 222.409C328.197 222.409 322.201 216.413 322.201 209.561C322.201 202.708 328.197 196.713 335.049 196.713C341.901 196.713 347.897 202.708 347.897 209.561C347.897 216.413 341.901 222.409 335.049 222.409Z" fill="#E8E8E8"/>
<path d="M249.396 219.839C222.843 219.839 201.43 241.252 201.43 267.805C201.43 294.357 222.843 315.771 249.396 315.771C275.948 315.771 297.362 294.357 297.362 267.805C297.362 241.252 275.948 219.839 249.396 219.839ZM250.252 230.974C258.818 230.974 266.527 233.544 273.379 239.539L251.109 261.809L227.983 238.683C233.978 233.544 241.687 230.974 250.252 230.974ZM213.422 267.805C213.422 260.096 215.991 252.387 220.274 246.392L243.4 269.518L221.987 290.931C215.991 284.079 213.422 276.37 213.422 267.805ZM250.252 304.636C242.544 304.636 235.691 302.066 229.696 297.783L251.109 276.37L271.666 296.927C264.813 302.066 257.961 304.636 250.252 304.636ZM278.518 290.075L257.105 268.661L279.374 246.392C289.653 260.096 288.796 278.083 278.518 290.075Z" fill="#E8E8E8"/>
</g>
<defs>
<clipPath id="clip0">
<rect y="0.806732" width="400" height="462.53" fill="white"/>
</clipPath>
</defs>
</svg>
