<svg width="400" height="489" viewBox="0 0 400 489" fill="none" xmlns="http://www.w3.org/2000/svg">
<g clip-path="url(#clip0)">
<path d="M396.706 0.806732C416.056 194.789 349.858 364.459 206.26 488.547C121.731 422.198 66.7356 331.032 30.0723 238.852C5.63008 166.932 -0.48047 83.363 0.0287432 0.806732H396.706Z" fill="#E73137"/>
<path d="M341.206 47.4029C339.17 85.3889 275.518 103.116 296.905 146.673C331.022 181.62 366.158 225.177 345.28 274.306C319.31 315.331 262.278 295.578 220.523 301.149C214.412 299.63 217.468 290.007 211.357 287.981C204.737 301.149 232.235 304.188 218.995 316.85C200.154 309.253 179.277 316.344 160.945 318.37C149.742 324.954 171.639 336.097 156.362 340.655L152.798 345.72C136.503 339.135 162.473 318.876 143.632 322.928C144.141 330.525 141.595 338.629 137.012 343.694C133.448 343.694 132.429 337.109 130.902 332.551C131.411 326.473 142.104 321.409 134.466 316.344C118.68 320.902 132.429 337.616 115.625 341.668C110.533 330.019 120.208 321.409 125.3 312.798C133.448 306.214 141.595 314.318 151.27 312.798C165.528 310.773 181.314 309.76 194.553 305.201C193.026 298.617 184.878 295.578 181.314 290.513C180.804 295.072 183.35 298.111 185.897 301.149C161.454 304.695 135.994 299.63 116.644 284.942C89.6553 259.112 71.3236 230.242 71.8328 192.763C66.7407 157.816 108.496 148.699 117.153 119.83L115.625 118.31C109.005 134.011 85.0724 120.336 72.8513 129.453C65.2131 129.959 61.6486 121.855 58.0841 116.791C50.9551 115.778 40.7709 114.258 37.7156 105.648L43.8261 107.674L46.8814 101.596C48.9183 105.142 51.4643 109.7 56.0472 111.726C60.6302 107.168 65.2131 98.5574 65.7223 91.4667V88.4278C74.8881 96.025 87.1092 89.9472 97.8027 90.4537C102.895 76.2723 113.588 95.012 120.208 83.8695C115.116 65.1297 134.975 57.026 138.031 42.3381C144.141 58.039 132.938 70.701 128.865 84.8824C130.902 86.9084 132.429 88.4278 135.484 87.9213C140.577 82.8565 135.484 73.7399 140.067 68.6751C148.215 62.0908 152.798 52.9742 161.454 47.4029C151.27 61.5844 159.927 83.8695 143.632 95.5185C168.074 140.595 79.471 154.27 108.496 200.866C113.588 214.035 123.263 226.19 132.938 237.839C142.613 230.242 153.307 226.19 164.51 224.671C166.037 201.879 195.062 173.516 166.546 154.777C155.853 102.103 214.412 68.6751 251.076 46.39C249.548 74.7528 215.94 78.8047 200.154 101.09C214.412 94.5056 226.124 78.8047 241.91 73.7399C251.585 63.6103 262.788 58.039 276.027 56.5196C267.88 70.701 265.334 87.9213 245.984 89.4408C231.726 99.0639 218.995 108.181 207.283 120.843C217.977 115.778 229.18 105.142 239.364 98.0509C250.057 93.4926 261.769 84.8824 273.481 91.9732L271.444 97.038C251.076 108.687 227.652 126.92 215.431 147.686C228.161 138.063 239.364 122.362 257.186 127.427C257.696 146.167 231.726 148.192 221.541 164.4C229.689 162.374 238.855 151.738 250.567 153.257C253.622 165.919 239.364 173.516 231.216 181.62L242.419 181.114C243.947 188.711 240.892 198.334 233.253 201.373C240.892 201.879 237.836 210.489 235.29 214.541C232.235 216.567 229.18 219.1 226.124 222.139C234.272 226.697 244.965 227.203 253.113 231.762C272.463 241.385 287.23 269.748 312.691 257.592C322.366 251.008 324.402 238.346 322.366 226.19C316.255 183.14 254.64 153.257 283.665 106.155C295.377 83.8695 320.838 74.7528 333.059 53.4807C335.096 49.9353 332.55 44.364 333.059 40.8187C338.151 40.8187 339.17 44.364 341.206 47.4029ZM110.533 93.4926C110.024 95.5185 109.005 101.596 112.061 102.609C114.098 99.5704 114.098 94.5056 118.171 93.4926H110.533ZM106.459 97.5444C105.95 94.5056 101.876 96.025 99.8396 96.025C100.349 99.0639 102.895 102.609 105.95 103.622C104.932 101.09 106.969 99.5704 106.459 97.5444ZM71.8328 97.5444C69.796 97.038 68.2683 99.0639 68.2683 100.583H70.3052C71.8328 99.5704 71.8328 98.0509 71.8328 97.5444ZM176.221 150.218C169.602 126.414 190.479 116.284 199.136 102.609L176.221 125.401L174.694 152.244C200.154 170.984 174.694 196.815 172.657 218.087C169.602 223.151 167.565 222.645 171.129 227.203C175.203 201.879 204.228 173.01 176.221 150.218ZM84.054 109.7C82.5263 108.181 77.4342 107.674 77.4342 111.219C78.9618 115.778 80.9987 110.713 84.054 111.726V109.7ZM71.8328 110.713C70.3052 109.193 68.2683 110.206 65.7223 110.206V113.752H68.7776C69.796 112.739 72.8513 112.739 71.8328 110.713ZM94.2382 110.713C93.729 110.206 92.2014 110.206 91.1829 110.206V112.232H92.7106C93.729 112.232 94.2382 111.219 94.2382 110.713ZM100.349 112.232H103.404V110.206H100.349V112.232ZM104.932 115.778C102.895 112.232 98.8211 115.271 96.7843 116.284L98.8211 118.31C100.858 118.817 103.913 118.31 104.932 115.778ZM78.4526 118.31C73.8697 117.804 70.3052 115.271 65.7223 116.791C65.7223 118.817 66.2315 120.336 67.7591 121.349C71.8328 121.855 77.9434 121.855 78.4526 118.31ZM85.5816 115.778C84.054 120.843 90.1645 117.297 90.6737 116.284L85.5816 115.778ZM130.902 296.085C120.208 287.981 106.459 299.123 94.2382 293.046C78.4526 291.526 83.0355 308.747 76.4158 315.331C78.4526 318.876 80.9987 324.954 84.054 326.98V323.941C95.2566 317.357 82.0171 307.734 91.6921 301.149C93.2198 301.149 95.2566 300.136 96.2751 301.656C89.6553 308.24 94.7474 317.863 99.3303 323.941C99.8396 319.383 99.8396 314.318 105.441 312.292L110.533 323.941C115.116 317.863 122.245 312.292 117.153 303.175C120.208 299.123 129.374 299.123 130.902 296.085ZM109.005 303.682C109.005 300.643 104.422 303.175 102.895 302.162L104.422 309.76C106.459 307.227 110.533 307.227 109.005 303.682Z" fill="#DEBB4D"/>
</g>
<defs>
<clipPath id="clip0">
<rect y="0.806732" width="400" height="487.74" fill="white"/>
</clipPath>
</defs>
</svg>
