<svg width="400" height="464" viewBox="0 0 400 464" fill="none" xmlns="http://www.w3.org/2000/svg">
<g clip-path="url(#clip0)">
<path d="M0 0.806732H400C387.152 130.999 407.709 307.445 195.289 463.334C-13.7045 308.301 10.2784 130.143 0 0.806732Z" fill="#66BC46"/>
<path fill-rule="evenodd" clip-rule="evenodd" d="M193.917 139.865C202.482 107.316 221.326 79.0508 220.47 52.4983C221.326 36.2242 210.191 20.8067 193.917 16.524C177.643 20.8067 166.508 35.3677 167.365 52.4983C166.508 79.0508 185.352 107.316 193.917 139.865Z" fill="#FFE500"/>
<path fill-rule="evenodd" clip-rule="evenodd" d="M199.913 148.43C206.765 131.299 217.044 109.029 238.457 98.751C256.444 91.0422 277.001 93.6118 291.562 106.46C305.266 119.308 310.406 139.864 305.266 157.852C301.84 172.413 277.001 198.965 250.449 186.974C259.014 180.121 264.153 170.7 265.01 160.421C262.44 148.43 253.875 139.008 241.883 136.438C234.174 133.869 226.466 136.438 221.326 142.434C212.761 150.999 208.478 162.134 207.622 174.126C213.618 178.408 216.187 185.261 216.187 192.113C216.187 198.965 212.761 205.817 207.622 210.1V381.406C213.618 385.689 217.044 392.541 216.187 399.393C216.187 412.241 205.909 421.663 193.917 421.663C181.069 421.663 171.648 411.385 171.648 399.393C171.648 392.541 175.074 385.689 180.213 381.406V210.1C175.074 205.817 171.648 198.965 171.648 192.113C171.648 185.261 175.074 178.408 180.213 174.126C179.356 162.134 174.217 150.999 166.509 142.434C161.369 136.438 152.804 134.725 145.952 136.438C133.96 139.008 125.395 148.43 122.825 160.421C123.682 170.7 129.678 180.978 137.386 186.974C110.834 198.965 86.851 172.413 82.5684 157.852C77.4292 139.008 82.5684 119.308 96.2729 106.46C110.834 93.6118 131.391 91.0422 149.378 98.751C170.791 109.029 181.07 131.299 187.922 148.43H199.913Z" fill="#FFE500"/>
</g>
<defs>
<clipPath id="clip0">
<rect y="0.806732" width="400" height="462.53" fill="white"/>
</clipPath>
</defs>
</svg>
