<svg width="400" height="523" viewBox="0 0 400 523" fill="none" xmlns="http://www.w3.org/2000/svg">
<g clip-path="url(#clip0)">
<path fill-rule="evenodd" clip-rule="evenodd" d="M394.047 6.6553V413.757C394.047 423.47 387.258 434.645 374.413 440.389L202.82 516.734C201.149 517.465 198.538 517.465 196.867 516.734L25.3786 440.389C12.5327 434.645 5.74414 423.47 5.74414 413.757V6.6553H394.047Z" fill="#DA291C" stroke="#FCE300" stroke-width="10.9616"/>
<path fill-rule="evenodd" clip-rule="evenodd" d="M101.201 34.7493C73.4203 34.7493 43.5508 42.8955 30.496 65.9765C27.6761 70.9895 30.0782 83 39.1644 79.9712C39.1644 110.572 37.5978 135.428 34.5691 160.911C46.1618 173.444 66.0051 167.178 77.4934 158.509C76.3445 131.877 96.1879 130.415 96.1879 102.426C96.1879 92.1906 90.3393 82.8955 81.5665 82.8955C70.7049 82.8955 72.2714 86.342 68.4072 90.2062C59.9477 90.2062 65.6918 77.9869 81.5665 77.9869C93.9947 77.9869 102.872 88.013 102.872 107.439C102.872 144.305 46.7884 194.123 46.7884 223.366C46.7884 255.741 55.5613 283.209 55.5613 313.287C55.5613 350.258 28.7205 387.334 19.321 420.128H57.3367L100.574 292.191C109.243 310.467 129.191 351.721 129.191 373.339C129.191 386.499 119.582 406.551 113.42 420.023H156.658C160 413.131 165.744 409.684 165.431 387.856C164.804 350.258 154.882 314.436 146.736 279.762C165.64 267.543 198.12 278.509 207.519 261.694C207.728 266.081 203.446 274.645 203.446 288.013C203.446 303.47 214.517 319.345 214.517 341.172C214.517 351.721 197.076 393.705 185.901 420.023H223.29L263.29 319.867C238.016 286.238 243.133 268.587 248.564 266.29C254.83 279.762 240.209 278.405 271.227 313.705C283.029 327.178 297.65 340.755 296.919 362.164C295.979 390.363 285.64 401.747 279.373 419.919H324.909L328.668 324.775C320.627 313.705 315.196 305.559 314.987 297.308C314.36 279.971 328.564 279.136 327.833 237.778C327.52 217.099 321.149 198.3 312.063 182.321C323.238 167.491 336.501 199.031 336.919 210.937C339.008 282.269 335.352 350.467 334.308 420.023H353.003C362.193 386.603 362.924 357.778 365.848 327.178C370.235 280.389 380.365 230.572 368.146 181.172C365.117 168.849 348.512 146.394 324.073 145.872C298.486 145.245 293.264 158.822 293.159 172.713H223.394C209.295 121.225 203.655 34.7493 101.201 34.7493ZM185.274 106.29C190.496 126.238 197.389 140.023 198.956 172.922H185.274C188.407 154.436 186.632 129.997 185.274 106.29Z" fill="#FCE300"/>
</g>
<defs>
<clipPath id="clip0">
<rect y="0.806732" width="400" height="522.193" fill="white"/>
</clipPath>
</defs>
</svg>
