<svg width="400" height="523" viewBox="0 0 400 523" fill="none" xmlns="http://www.w3.org/2000/svg">
<g clip-path="url(#clip0)">
<path d="M199.709 522.184C121.895 465.729 68.561 394.428 36.6483 304.239C7.70906 222.468 -3.90223 123.369 1.14434 1.28835L1.16528 0.806732H398.839L398.86 1.28835C403.896 123.369 392.284 222.458 363.356 304.239C331.443 394.428 278.109 465.729 200.295 522.184L200.002 522.393L199.709 522.184Z" fill="#E00E00"/>
<path d="M132.439 88.8703C149.4 117.768 172.016 158.287 176.727 199.958C137.464 196.502 109.824 180.483 86.8941 159.334C72.969 180.902 57.6827 201.842 39.3601 221.316C61.2425 240.163 76.9476 260.789 90.8728 281.833C116.42 262.568 141.862 242.989 175.994 241.21C173.481 289.372 159.87 332.718 130.764 369.258C154.74 386.115 177.984 405.38 199.761 430.194C221.539 405.38 244.782 386.115 268.759 369.258C239.652 332.613 226.041 289.267 223.528 241.21C257.661 242.885 283.103 262.568 308.65 281.833C322.68 260.789 338.28 240.163 360.162 221.316C341.84 201.947 326.554 181.007 312.628 159.334C289.699 180.483 262.058 196.502 222.795 199.958C227.507 158.182 250.018 117.768 267.084 88.8703C239.338 70.6524 214.315 45.0008 199.761 28.144C185.208 45.0008 160.184 70.6524 132.439 88.8703Z" fill="#FFE000"/>
</g>
<defs>
<clipPath id="clip0">
<rect y="0.806732" width="400" height="521.59" fill="white"/>
</clipPath>
</defs>
</svg>
