<svg width="400" height="522" viewBox="0 0 400 522" fill="none" xmlns="http://www.w3.org/2000/svg">
<g clip-path="url(#clip0)">
<path d="M200.291 521.377C278.105 464.923 331.439 393.622 363.352 303.433C392.291 221.661 403.902 122.562 398.856 0.481621L398.835 0H1.16126L1.14031 0.481621C-3.89578 122.562 7.71551 221.651 36.6443 303.433C68.557 393.622 121.891 464.923 199.705 521.377L199.998 521.587L200.291 521.377Z" fill="#0085CA"/>
<path d="M199.433 26.4055C194.658 25.7668 185.937 34.8234 188.125 42.0164C190.879 51.0939 188.774 54.7479 182.743 62.2026C175.132 71.6257 184.534 83.5301 186.513 92.7542C172.242 92.2726 153.783 86.1162 143.376 102.512C137 112.553 123.012 109.936 115.243 116.375C105.506 124.447 122.038 122.981 127.294 121.086C138.989 116.867 146.8 110.71 160.945 113.276C170.546 115.014 177.477 104.826 183.822 100.889C183.058 107.329 174.943 114.061 170.158 119.662C156.202 135.996 147.993 157.805 164.369 172.421C180.639 186.943 207.003 187.236 220.635 170.871C230.236 159.333 230.131 142.026 222.519 128.813C216.865 118.992 200.783 103.538 201.925 101.957C204.427 98.5023 211.484 113.611 226.152 111.653C237.073 110.187 241.983 108.103 252.128 118.05C254.547 120.427 275.267 125.128 273.938 118.793C271.917 109.213 260.787 114.521 254.149 108.899C244.171 100.46 235.052 85.9906 219.629 89.9168C211.494 91.9899 198.229 97.1726 208.657 87.226C225.273 71.3849 250.024 68.9453 268.619 86.6921C288.512 105.674 284.889 138.979 266.2 157.491C250.37 173.164 234.183 185.173 221.65 204.135C201.338 234.833 192.47 264.631 192.983 308.113C193.234 329.472 192.962 347.47 194.25 368.577C194.543 373.414 192.324 375.236 189.371 368.253C187.287 363.353 185.445 355.343 183.497 350.914C174.315 330.047 183.759 313.034 173.205 282.534C164.232 256.621 148.381 232.467 127.975 215.233C112.531 202.187 91.476 197.005 73.5408 196.879C66.2327 196.827 66.84 196.512 62.9661 196.659C63.3639 201.193 64.9344 211.286 65.1229 215.097C66.4631 242.162 65.6569 267.164 83.7701 294.24C97.8313 315.264 111.819 339.575 135.66 350.234C146.088 354.893 162.62 351.647 167.091 364.766C168.221 374.702 161.489 390.072 174.964 394.375C187.089 398.249 189.486 421.849 190.711 436.235H209.693C209.892 415.703 211.808 411.065 228.403 406.762C250.432 401.045 265.206 378.482 264.001 356.086C244.213 348.988 222.938 364.913 214.803 382.534C212.656 387.182 206.688 408.824 207.065 396.867C207.798 373.687 223.849 346.129 246.642 340.266C261.112 336.549 268.273 336.047 276.859 327.88C287.318 317.934 299.484 306.176 307.484 292.816C323.712 265.699 334.392 234.686 333.125 202.774C332.957 198.648 334.988 194.628 336.957 192.01C334.078 192.22 333.031 192.534 327 192.419C309.18 192.084 291.852 193.822 277.937 205.946C258.746 222.677 240.664 241.481 229.618 264.432C218.143 288.282 216.206 314.855 213.326 340.685C212.478 348.286 201.935 371.949 202.919 358.317C205.034 328.571 200.815 300.449 205.055 273.321C208.165 253.396 215.4 232.676 227.398 214.364C235.607 201.842 244.234 189.236 255.667 179.101C272.87 163.846 290.595 148.507 289.381 120.28C288.648 103.182 285.182 90.8906 266.629 76.934C246.035 61.4383 212.049 65.1761 200.071 89.519C198.093 93.529 197.548 92.5239 198.323 89.0478C199.098 85.5718 201.15 79.6457 202.563 75.8556C204.228 71.4058 204.772 65.8881 203.642 61.6372C202.584 57.6377 199.653 54.9469 199.129 51.1567C198.396 45.7856 202.354 41.964 202.626 39.6292C203.338 33.4309 201.757 26.6987 199.464 26.395L199.433 26.4055ZM188.261 110.061C188.261 114.05 187.821 117.882 187.706 122.008C187.685 122.897 190.271 123.746 191.622 123.997C193.015 124.259 194.606 123.557 195.862 122.992C196.784 122.573 198.312 121.913 198.218 120.772C197.977 117.914 197.579 115.076 197.14 112.229C196.951 110.983 197.663 109.077 198.386 110.648C200.04 114.239 201.642 117.39 202.993 121.118C203.987 123.85 204.343 126.855 203.736 129.661C203.244 131.902 201.987 134.352 200.27 135.985C197.506 138.624 191.413 139.513 189.601 139.011C185.361 137.828 183.696 135.074 181.529 132.143C180.911 131.315 180.911 128.876 180.995 127.232C181.288 121.39 183.204 115.872 186.513 110.742C187.549 109.14 188.261 109.203 188.261 110.072V110.061Z" fill="#FFE000"/>
</g>
<defs>
<clipPath id="clip0">
<rect width="400" height="521.59" fill="white"/>
</clipPath>
</defs>
</svg>
