<svg width="400" height="522" viewBox="0 0 400 522" fill="none" xmlns="http://www.w3.org/2000/svg">
<g clip-path="url(#clip0)">
<path d="M199.709 521.377C121.895 464.923 68.561 393.622 36.6483 303.433C7.70906 221.661 -3.90222 122.562 1.14434 0.481625L1.16528 0H398.839L398.86 0.481625C403.896 122.562 392.284 221.651 363.356 303.433C331.443 393.622 278.109 464.923 200.295 521.377L200.002 521.587L199.709 521.377Z" fill="#0085CA"/>
<path fill-rule="evenodd" clip-rule="evenodd" d="M243.987 218.539C244.759 212.671 253.596 208.596 261.208 201.608C263.888 199.148 261.632 190.874 260.632 189.478C256.036 183.068 245.871 178.997 240.594 175.407C225.031 164.819 220.401 157.223 216.686 144.552L204.086 101.582C201.143 91.5462 191.056 86.8093 184.216 83.0043C193.407 75.4257 202.8 70.5713 212.486 70.727C229.035 70.9931 231.902 85.3317 237.525 95.6046C250.8 119.857 275.2 116.612 284.534 118.221C318.424 124.062 337.304 153.383 376.775 170.237C372.987 176.695 365.016 178.419 356.097 177.83C342.906 176.958 331.78 175.417 324.273 181.545C314.609 189.435 313.505 201.784 311.511 214.823C307.285 225.944 300.632 233.798 293.419 233.4C293.326 230.683 293.262 228.623 295.318 225.477C290.956 227.782 288.422 228.61 284.061 228.011C283.971 223.811 284.345 221.21 287.804 217.352C285.381 218.221 282.272 218.069 279.849 217.246C283.859 211.228 288.592 209.956 294.873 204.969C296.999 203.28 296.926 196.905 295.497 195.607C293.193 193.513 284.509 193.487 281.508 196.427C276.23 201.598 276.424 208.958 273.183 217.451C270.701 223.955 265.526 229.219 259.664 230.529C259.29 227.689 259.652 225.748 260.492 223.212C257.722 225.514 253.246 227.466 248.18 227.213C248.112 223.778 249.712 218.788 251.512 216.589C249.543 217.688 247.724 218.912 243.987 218.539Z" fill="white"/>
<path d="M204.971 80.5774C206.194 80.5774 207.185 79.8486 207.185 78.9496C207.185 78.0507 206.194 77.3219 204.971 77.3219C203.749 77.3219 202.758 78.0507 202.758 78.9496C202.758 79.8486 203.749 80.5774 204.971 80.5774Z" fill="#0085CA"/>
<path fill-rule="evenodd" clip-rule="evenodd" d="M81.1743 217.625C81.947 211.757 90.7836 207.682 98.3959 200.694C101.075 198.234 98.8199 189.96 97.8193 188.564C93.2239 182.154 83.0587 178.083 77.7819 174.493C62.2187 163.905 57.5892 156.309 53.8736 143.638L41.2733 100.668C38.3306 90.6324 28.2438 85.8955 21.4036 82.0904C30.5945 74.5119 39.9881 69.6575 49.6735 69.8132C66.2228 70.0792 69.0893 84.4179 74.7126 94.6908C87.9881 118.943 112.388 115.698 121.722 117.307C155.612 123.148 174.492 152.469 213.962 169.323C210.175 175.782 202.204 177.506 193.285 176.916C180.094 176.044 168.968 174.503 161.461 180.631C151.797 188.521 150.693 200.87 148.699 213.909C144.473 225.03 137.82 232.885 130.606 232.487C130.514 229.77 130.45 227.71 132.506 224.563C128.144 226.868 125.61 227.697 121.248 227.097C121.159 222.897 121.533 220.296 124.992 216.438C122.568 217.307 119.46 217.155 117.037 216.332C121.047 210.314 125.78 209.043 132.06 204.055C134.187 202.366 134.114 195.991 132.685 194.693C130.38 192.6 121.697 192.574 118.696 195.513C113.417 200.684 113.611 208.044 110.371 216.537C107.889 223.042 102.714 228.306 96.8521 229.615C96.478 226.775 96.8396 224.834 97.6794 222.298C94.91 224.6 90.4339 226.552 85.368 226.299C85.3001 222.864 86.8997 217.874 88.6999 215.675C86.7311 216.774 84.9113 217.998 81.1743 217.625Z" fill="white"/>
<path d="M42.1592 79.6636C43.3815 79.6636 44.3724 78.9348 44.3724 78.0358C44.3724 77.1368 43.3815 76.4081 42.1592 76.4081C40.9369 76.4081 39.946 77.1368 39.946 78.0358C39.946 78.9348 40.9369 79.6636 42.1592 79.6636Z" fill="#0085CA"/>
<path fill-rule="evenodd" clip-rule="evenodd" d="M160.944 402.75C161.716 396.882 170.553 392.807 178.165 385.819C180.845 383.359 178.589 375.085 177.589 373.689C172.993 367.279 162.828 363.208 157.551 359.618C141.988 349.03 137.358 341.434 133.643 328.763L121.043 285.793C118.1 275.757 108.013 271.02 101.173 267.215C110.364 259.637 119.757 254.782 129.443 254.938C145.992 255.204 148.859 269.543 154.482 279.816C167.757 304.068 192.157 300.823 201.491 302.432C235.381 308.273 254.261 337.594 293.732 354.448C289.944 360.906 281.973 362.631 273.054 362.041C259.863 361.169 248.737 359.628 241.23 365.756C231.566 373.646 230.462 385.995 228.468 399.034C224.242 410.155 217.589 418.01 210.376 417.611C210.283 414.894 210.219 412.834 212.275 409.688C207.913 411.993 205.379 412.822 201.018 412.222C200.928 408.022 201.302 405.421 204.761 401.563C202.338 402.432 199.229 402.28 196.806 401.457C200.817 395.439 205.549 394.167 211.83 389.18C213.956 387.491 213.883 381.116 212.454 379.818C210.15 377.724 201.466 377.699 198.465 380.638C193.187 385.809 193.381 393.169 190.14 401.662C187.658 408.167 182.483 413.431 176.621 414.74C176.247 411.9 176.609 409.959 177.449 407.423C174.679 409.725 170.203 411.677 165.137 411.424C165.069 407.989 166.669 402.999 168.469 400.8C166.5 401.899 164.681 403.123 160.944 402.75Z" fill="white"/>
<path d="M121.928 264.789C123.151 264.789 124.141 264.06 124.141 263.161C124.141 262.262 123.151 261.533 121.928 261.533C120.706 261.533 119.715 262.262 119.715 263.161C119.715 264.06 120.706 264.789 121.928 264.789Z" fill="#0085CA"/>
</g>
<defs>
<clipPath id="clip0">
<rect width="400" height="521.59" fill="white"/>
</clipPath>
</defs>
</svg>
