<svg width="400" height="522" viewBox="0 0 400 522" fill="none" xmlns="http://www.w3.org/2000/svg">
<g clip-path="url(#clip0)">
<path d="M200.291 521.377C278.105 464.923 331.439 393.622 363.352 303.433C392.291 221.661 403.902 122.562 398.856 0.481621L398.835 0H1.16126L1.14031 0.481621C-3.89578 122.562 7.71551 221.651 36.6443 303.433C68.557 393.622 121.891 464.923 199.705 521.377L199.998 521.587L200.291 521.377Z" fill="#0085CA"/>
<path d="M214.467 40.739V95.5078H269.236V123.861H214.467V206.375H273.225V151.606H301.578V206.375H356.452V234.728H301.578V289.497H273.225V234.728H214.467V324.708H269.236V353.061H214.467V407.829H186.114V353.061H131.346V324.708H186.114V234.728H127.357V289.497H99.0037V234.728H44.1301V206.375H99.0037V151.606H127.357V206.375H186.114V123.861H131.346V95.5078H186.114V40.739H214.467Z" fill="white"/>
</g>
<defs>
<clipPath id="clip0">
<rect width="400" height="521.59" fill="white"/>
</clipPath>
</defs>
</svg>
