<svg width="400" height="522" viewBox="0 0 400 522" fill="none" xmlns="http://www.w3.org/2000/svg">
<g clip-path="url(#clip0)">
<path d="M389.46 1.78381C398.53 230.71 353.21 404.399 200.01 520.349C115.54 456.412 63.8599 374.919 36.0199 276.276C33.9299 268.88 31.9799 261.39 30.1499 253.806C18.6999 206.143 12.3799 154.683 10.2699 99.4776C9.06989 68.1196 9.21989 35.5515 10.5599 1.78381H200.01H389.46ZM390.38 0.792786H389.46H200.01H10.5599H9.63988L9.59988 1.75251C4.77988 123.45 15.8799 222.239 43.5299 303.774C74.0399 393.738 125.04 464.851 199.44 521.162L200 521.59L200.56 521.162C274.96 464.851 325.96 393.738 356.47 303.774C384.12 222.239 395.22 123.45 390.4 1.75251L390.36 0.792786H390.38Z" fill="black"/>
<path d="M199.709 521.377C121.895 464.923 68.561 393.622 36.6483 303.433C7.70906 221.661 -3.90223 122.562 1.14434 0.481621L1.16528 0H398.839L398.86 0.481621C403.896 122.562 392.284 221.651 363.356 303.433C331.443 393.622 278.109 464.923 200.295 521.377L200.002 521.587L199.709 521.377Z" fill="black"/>
<path d="M204.776 335.118C206.211 327.621 206.116 321.947 211.309 316.094C217.937 308.608 220.23 316.963 223.915 318.387C228.03 319.978 226.773 313.089 227.579 309.676C228.888 304.148 235.013 297.961 240.415 308.535C242.886 313.362 240.436 339.505 239.19 355.523C237.159 381.478 238.95 401.705 259.439 420.383C262.266 422.959 266.904 423.304 264.255 416.949C259.91 406.521 259.47 398.533 264.14 388.074C272.599 369.092 294.125 371.699 303.621 361.177C309.872 354.246 304.05 352.655 299.381 356.277C286.409 360.957 278.682 346.75 286.566 341.546C299.611 332.94 320.991 332.657 326.885 316.858C329.963 308.619 324.268 310.367 320.006 313.676C311.61 320.198 296.91 324.25 287.969 324.617C256.884 325.883 262.894 296.599 288.116 268.886C311.097 243.633 345.553 250.218 362.692 223.395C364.89 219.95 363.592 213.438 360.284 217.783C356.315 223.008 346.83 227.551 345.846 213.082C344.903 199.241 365.864 176.438 364.409 169.874C362.943 163.257 358.629 170.732 355.467 171.936C346.432 175.391 345.061 165.644 348.934 161.048C357.415 151.007 367.822 140.307 377.695 129.994C381.893 125.618 387.662 116.059 378.616 117.389C373.643 118.122 361.697 116.761 360.964 105.589C359.98 90.4919 371.224 77.2582 380.563 62.2759C382.532 59.1245 390.007 50.1834 382.971 51.3874C374.899 52.7694 371.455 65.9927 356.724 63.302C347.845 61.6791 352.442 51.6177 355.467 46.5713C357.823 42.6451 355.258 40.97 351.342 42.2159C338.13 46.4143 325.158 59.7737 311.924 49.775C296.449 38.1013 308.165 21.0146 299.088 24.3335C284.66 29.5998 271.919 45.7233 257.261 60.2029C249.514 67.8563 244.289 59.826 245.682 53.3243C247.681 44.0272 254.623 36.0492 264.82 28.689C270.39 24.6686 264.737 22.0825 261.501 23.6425C249.828 29.2648 219.57 45.5871 215.319 103.516C213.456 128.926 214.618 153.761 229.527 188.897C236.5 205.314 258.58 235.079 263.103 247.8C266.904 258.49 260.884 268.76 253.366 270.488C235.065 274.707 230.469 266.834 230.103 256.05C229.914 250.585 227.119 247.8 220.481 247.8C206.671 247.8 192.851 247.8 179.042 247.8C172.404 247.8 169.598 250.585 169.42 256.05C169.053 266.834 164.457 274.707 146.156 270.488C138.639 268.75 132.619 258.49 136.419 247.8C140.942 235.079 163.023 205.314 169.996 188.897C184.905 153.771 186.067 128.937 184.203 103.516C179.953 45.5767 149.695 29.2648 138.021 23.6425C134.786 22.0825 129.132 24.6581 134.702 28.689C144.9 36.0597 151.841 44.0272 153.841 53.3243C155.233 59.826 150.019 67.8563 142.261 60.2029C127.593 45.7128 114.862 29.5894 100.424 24.3231C91.347 21.0042 103.063 38.0803 87.5883 49.7646C74.3546 59.7527 61.3825 46.4038 48.1697 42.1949C44.254 40.949 41.6889 42.6242 44.0446 46.5504C47.0704 51.6073 51.6666 61.6687 42.7883 63.281C28.0573 65.9718 24.6128 52.7485 16.5406 51.3664C9.50492 50.1624 16.9803 59.1036 18.9486 62.255C28.2877 77.2477 39.5322 90.471 38.548 105.568C37.8151 116.74 25.8796 118.101 20.896 117.368C11.8397 116.038 17.619 125.597 21.8173 129.973C31.6903 140.297 42.1077 150.997 50.5778 161.027C54.4516 165.612 53.08 175.36 44.0446 171.915C40.8828 170.711 36.5692 163.236 35.1035 169.853C33.6586 176.417 54.6086 199.21 53.6663 213.061C52.6822 227.531 43.1966 222.987 39.2285 217.762C35.9306 213.417 34.6219 219.929 36.8205 223.374C53.9595 250.208 88.4155 243.623 111.397 268.865C136.618 296.568 142.628 325.862 111.543 324.596C102.602 324.229 87.9024 320.177 79.5057 313.655C75.2445 310.346 69.549 308.587 72.6271 316.837C78.5215 332.636 99.9008 332.919 112.946 341.525C120.84 346.729 112.454 361.261 100.131 356.256C95.4616 352.634 89.6404 354.225 95.8908 361.156C105.397 371.678 126.913 369.082 135.372 388.053C140.042 398.512 139.602 406.511 135.257 416.928C132.608 423.283 137.246 422.948 140.073 420.362C160.573 401.674 162.363 381.457 160.322 355.502C159.065 339.484 156.626 313.341 159.097 308.514C164.499 297.94 170.624 304.138 171.933 309.655C172.739 313.058 171.482 319.958 175.597 318.366C179.282 316.942 181.575 308.598 188.203 316.073C193.396 321.926 193.301 327.6 194.736 335.097C195.228 337.662 197.008 337.39 199.751 337.39C202.504 337.39 204.284 337.662 204.766 335.097L204.776 335.118Z" fill="#FCE300"/>
</g>
<defs>
<clipPath id="clip0">
<rect width="400" height="521.59" fill="white"/>
</clipPath>
</defs>
</svg>
