<svg width="400" height="522" viewBox="0 0 400 522" fill="none" xmlns="http://www.w3.org/2000/svg">
<g clip-path="url(#clip0)">
<path d="M199.709 521.377C121.895 464.923 68.561 393.622 36.6483 303.433C7.70906 221.661 -3.90223 122.562 1.14434 0.481621L1.16528 0H398.839L398.86 0.481621C403.896 122.562 392.284 221.651 363.356 303.433C331.443 393.622 278.109 464.923 200.295 521.377L200.002 521.587L199.709 521.377Z" fill="#32AC60"/>
<path fill-rule="evenodd" clip-rule="evenodd" d="M244.089 342.522C239.065 352.839 232.012 374.765 232.171 382.724C232.261 387.281 239.873 398.658 239.873 398.658C235.821 398.902 231.77 398.996 227.719 395.619C229.355 415.103 230.336 429.609 229.395 442.756C228.808 450.945 219.942 440.008 215.459 439.847C201.796 439.353 196.525 444.957 194.396 449.96C193.788 451.39 189.331 451.745 189.688 449.993C190.523 445.893 190.243 440.634 188.663 437.506C187.233 434.674 183.137 431.566 182.368 430.441C178.43 424.679 165.374 429.508 160.57 431.868C160.372 428.305 161.617 421.008 176.872 414.324C207.309 400.987 211.953 396.431 214.548 391.232C221.602 377.1 223.19 357.759 225.003 339.238" fill="black"/>
<path fill-rule="evenodd" clip-rule="evenodd" d="M190.704 323.231C180.873 335.314 169.765 347.511 149.017 347.956C123.989 348.494 118.009 341.044 104.884 341.044C98.6672 341.044 94.2561 343.058 96.9611 348.329C101.369 347.976 105.05 349 107.649 351.519C110.172 353.964 113.097 360.147 112.966 361.994C112.703 365.692 106.246 369.136 105.256 371.512C104.324 373.748 103.562 379.711 107.861 377.254C110.601 375.689 113.355 375.174 117.964 375.872C122.369 376.539 133.142 382.947 132.959 395.28C132.893 399.706 131.299 403.119 132.374 408.945C143.412 397.23 155.483 384.358 164.437 365.769C166.433 368.25 168.783 372.731 172.572 372.894C177.55 346.724 192.609 335.526 202.402 330.09C198.335 327.964 194.444 325.654 190.704 323.231Z" fill="black"/>
<path fill-rule="evenodd" clip-rule="evenodd" d="M273.645 114.128C256.239 149.925 236.522 205.477 195.406 206.8C185.682 207.113 174.87 193.095 175.352 179.758C176.72 141.981 252.832 125.188 252.832 71.8944C252.832 56.2465 236.506 21.7605 210.294 21.7605C201.59 21.7605 192.442 25.9411 182.341 28.3668L183.054 57.8325C185.668 61.6201 189.11 65.7992 200.875 65.2099C210.619 64.7218 226.851 63.5913 227.005 80.8577C227.126 94.328 190.969 111.451 174.289 127.497C156.061 145.032 134.957 169.326 133.638 185.873C133.16 191.867 132.216 196.104 129.472 196.621C122.614 191.05 120.601 184.456 120.357 169.428C120.126 155.176 128.464 129.067 124.611 123.699C102.181 92.453 84.7745 60.3909 75.9961 19.1779C61.7079 24.9407 61.9838 42.9401 63.8424 62.4753C58.0309 59.3552 39.0609 34.8404 34.066 25.7105C23.7779 42.6351 41.4479 68.2892 48.6504 75.2366C36.7351 72.6031 26.7467 65.2901 17.6585 55.7908C16.8559 71.4623 18.8262 88.1379 64.1463 120.509C49.6625 121.41 34.9782 119.304 20.0893 114.128C20.7156 125.158 23.4073 150.797 65.0578 163.958C58.2851 168.533 46.8094 170.522 31.9391 170.643C37.0779 181.685 41.758 192.898 80.8576 191.304C72.3031 201.209 57.6993 205.701 41.5101 208.775C48.0482 213.626 48.4445 220.152 71.5904 220.473C65.973 224.738 60.3475 229 52.7522 232.475C66.4364 243.155 80.4818 240.424 93.7708 238.855C88.1568 248.878 79.9859 258.657 69.9193 265.441C87.693 275.824 102.255 266.02 117.319 259.365C111.494 274.045 104.59 283.692 97.5689 292.787C112.198 294.178 119.879 286.016 128.257 278.811C129.808 289.455 126.49 297.023 120.357 302.814C127.503 304.386 134.853 301.237 144.664 286.558C176.659 312.375 203.693 344.204 263.618 344.744C273.696 344.835 284.857 344.703 295.218 336.692C289.406 333.442 285.204 329.963 285.039 325.906C301.116 327.26 305.853 322.944 311.777 319.221C304.664 317.646 298.336 318.818 289.749 312.081C300.156 305.428 312.496 315.225 323.627 289.749C309.649 287.538 294.884 293.582 281.697 283.064C283.233 279.401 287.375 274.044 288.078 270.303C282.392 257.525 269.665 243.943 275.924 234.298C284.489 241.947 292.842 265.242 308.283 259.365C304.695 250.288 304.184 246.196 304.181 241.134C310.06 247.605 315.695 254.424 331.831 246.299C326.161 239.31 315.535 234.799 316.335 224.575C327.42 227.531 336.53 229.845 343.984 225.942C334.272 219.781 328.429 213.164 325.602 206.192C352.654 207.032 355.476 204.568 359.632 195.71C340.039 188.819 320.511 181.861 306.46 169.428C332.081 169.273 362.204 172.671 370.115 146.336C341.738 149.792 342.368 145.164 337.452 142.082C368.315 134.691 373.457 123.291 373.457 111.09C360.985 116.384 342.212 126.565 333.654 120.813C345.36 111.167 379.722 100.527 379.534 65.2099C369.423 68.3916 362.278 76.1042 350.669 75.5405C350.669 75.5405 370.115 55.1831 372.546 41.8141C374.976 28.445 369.507 28.445 369.507 28.445C359.344 52.8676 308.75 82.6808 273.645 114.128Z" fill="white"/>
<path fill-rule="evenodd" clip-rule="evenodd" d="M175.886 27.9225C170.146 28.2455 169.868 29.671 161.044 32.2876C152.488 34.825 136.252 38.4566 132.908 43.4747C130.713 46.7695 131.991 55.0107 134.182 50.1717C136.747 44.5054 158.998 43.3581 173.894 45.7109C168.145 50.3897 147.587 58.1094 142.619 59.1245C136.914 60.29 138.287 62.2256 143.829 62.6257C149.166 63.011 169.104 56.8926 183.104 58.1339L183.025 38.086C182.779 35.6252 185.613 36.0575 188.479 36.0142C189.832 35.9938 191.786 39.9293 194.958 39.9293C198.858 39.9293 199.428 37.7147 200.438 35.8269C201.864 33.1634 206.565 33.9265 206.815 32.2193L198.521 32.4616C196.641 32.5165 193.162 32.9004 191.974 32.9004C191.043 32.9004 185.585 33.6281 182.462 33.6017L182.527 27.8197C180.786 27.7048 178.326 27.7836 175.886 27.9225L175.886 27.9225Z" fill="black"/>
</g>
<defs>
<clipPath id="clip0">
<rect width="400" height="521.59" fill="white"/>
</clipPath>
</defs>
</svg>
