<svg width="400" height="522" viewBox="0 0 400 522" fill="none" xmlns="http://www.w3.org/2000/svg">
<g clip-path="url(#clip0)">
<path d="M199.709 521.377C121.895 464.923 68.561 393.622 36.6483 303.433C7.70906 221.661 -3.90222 122.562 1.14434 0.481625L1.16528 0H398.839L398.86 0.481625C403.896 122.562 392.284 221.651 363.356 303.433C331.443 393.622 278.109 464.923 200.295 521.377L200.002 521.587L199.709 521.377Z" fill="#FFE000"/>
<path fill-rule="evenodd" clip-rule="evenodd" d="M154.75 319.682C162.498 321.421 172.239 323.87 189.302 323.87C189.302 306.808 186.852 297.066 185.114 289.319H199.772H214.43C212.691 297.066 210.242 306.808 210.242 323.87C227.304 323.87 237.045 321.421 244.793 319.682V334.34V348.998C237.045 347.259 227.304 344.81 210.242 344.81C210.242 361.872 212.691 371.614 214.43 379.361H199.772H185.114C186.852 371.614 189.302 361.872 189.302 344.81C172.239 344.81 162.498 347.259 154.75 348.998V334.34V319.682Z" fill="#E00E00"/>
<path fill-rule="evenodd" clip-rule="evenodd" d="M208.148 78.1094C215.895 79.848 225.637 82.2974 242.699 82.2974C242.699 65.2352 240.25 55.4937 238.511 47.7462H253.169H267.827C266.088 55.4937 263.639 65.2352 263.639 82.2974C280.701 82.2974 290.443 79.848 298.19 78.1094V92.7674V107.426C290.443 105.687 280.701 103.237 263.639 103.237C263.639 120.3 266.088 130.041 267.827 137.789H253.169H238.511C240.25 130.041 242.699 120.3 242.699 103.237C225.637 103.237 215.895 105.687 208.148 107.426V92.7674V78.1094Z" fill="#E00E00"/>
<path fill-rule="evenodd" clip-rule="evenodd" d="M280.391 164.656C288.139 166.395 297.88 168.844 314.942 168.844C314.942 151.782 312.493 142.041 310.754 134.293H325.412H340.07C338.332 142.041 335.882 151.782 335.882 168.844C352.945 168.844 362.686 166.395 370.434 164.656V179.314V193.972C362.686 192.234 352.945 189.784 335.882 189.784C335.882 206.846 338.332 216.588 340.07 224.335H325.412H310.754C312.493 216.588 314.942 206.846 314.942 189.784C297.88 189.784 288.139 192.234 280.391 193.972V179.314V164.656Z" fill="#E00E00"/>
<path fill-rule="evenodd" clip-rule="evenodd" d="M250.707 271.84C258.455 273.579 268.196 276.028 285.258 276.028C285.258 258.966 282.809 249.224 281.07 241.477H295.728H310.386C308.648 249.224 306.198 258.966 306.198 276.028C323.261 276.028 333.002 273.579 340.749 271.84V286.498V301.156C333.002 299.417 323.261 296.968 306.198 296.968C306.198 314.03 308.648 323.772 310.386 331.519H295.728H281.07C282.809 323.772 285.258 314.03 285.258 296.968C268.196 296.968 258.455 299.417 250.707 301.156V286.498V271.84Z" fill="#E00E00"/>
<path fill-rule="evenodd" clip-rule="evenodd" d="M191.396 78.1094C183.648 79.848 173.907 82.2974 156.845 82.2974C156.845 65.2352 159.294 55.4937 161.033 47.7462H146.374H131.716C133.455 55.4937 135.904 65.2352 135.904 82.2974C118.842 82.2974 109.101 79.848 101.353 78.1094V92.7674V107.426C109.101 105.687 118.842 103.237 135.904 103.237C135.904 120.3 133.455 130.041 131.716 137.789H146.374H161.033C159.294 130.041 156.845 120.3 156.845 103.237C173.907 103.237 183.648 105.687 191.396 107.426V92.7674V78.1094Z" fill="#E00E00"/>
<path fill-rule="evenodd" clip-rule="evenodd" d="M119.152 164.656C111.405 166.395 101.663 168.844 84.6011 168.844C84.6011 151.782 87.0505 142.041 88.7892 134.293H74.1311H59.473C61.2117 142.041 63.661 151.782 63.661 168.844C46.5988 168.844 36.8574 166.395 29.1099 164.656V179.314V193.972C36.8574 192.234 46.5988 189.784 63.661 189.784C63.661 206.846 61.2117 216.588 59.473 224.335H74.1311H88.7892C87.0505 216.588 84.6011 206.846 84.6011 189.784C101.663 189.784 111.405 192.234 119.152 193.972V179.314V164.656Z" fill="#E00E00"/>
<path fill-rule="evenodd" clip-rule="evenodd" d="M148.836 271.84C141.089 273.579 131.347 276.028 114.285 276.028C114.285 258.966 116.735 249.224 118.473 241.477H103.815H89.1571C90.8958 249.224 93.3451 258.966 93.3451 276.028C76.2829 276.028 66.5415 273.579 58.7939 271.84V286.498V301.156C66.5415 299.417 76.2829 296.968 93.3451 296.968C93.3451 314.03 90.8958 323.772 89.1571 331.519H103.815H118.473C116.735 323.772 114.285 314.03 114.285 296.968C131.347 296.968 141.089 299.417 148.836 301.156V286.498V271.84Z" fill="#E00E00"/>
</g>
<defs>
<clipPath id="clip0">
<rect width="400" height="521.59" fill="white"/>
</clipPath>
</defs>
</svg>
