<svg width="400" height="522" viewBox="0 0 400 522" fill="none" xmlns="http://www.w3.org/2000/svg">
<g clip-path="url(#clip0)">
<path d="M199.709 521.377C121.895 464.923 68.561 393.622 36.6483 303.433C7.70906 221.661 -3.90223 122.562 1.14434 0.481621L1.16528 0H398.839L398.86 0.481621C403.896 122.562 392.284 221.651 363.356 303.433C331.443 393.622 278.109 464.923 200.295 521.377L200.002 521.587L199.709 521.377Z" fill="white"/>
<path fill-rule="evenodd" clip-rule="evenodd" d="M96.556 419.053C124.428 457.688 158.663 491.598 199.709 521.377L200.002 521.587L200.295 521.377C241.318 491.615 275.537 457.726 303.401 419.119C269.053 406.093 222.911 378.123 199.761 352.15C176.651 378.079 130.88 406 96.556 419.053ZM34.5349 297.339C100.682 270.925 160.24 222.301 199.761 163.689C239.283 222.302 299.316 270.931 365.466 297.346C369.911 284.261 373.922 270.739 377.503 256.758C304.713 223.33 240.172 173.549 199.761 96.6804C159.306 173.634 95.4118 223.439 22.5239 256.868C26.0977 270.809 30.1005 284.292 34.5349 297.339ZM347.189 343.526C341.765 355.417 335.908 366.947 329.609 378.126C279.355 358.267 234.06 330.192 199.761 287.235C165.426 330.238 120.748 358.328 70.4313 378.19C64.1481 367.044 58.3045 355.549 52.892 343.694C119.524 315.828 161.332 284.236 199.761 231.744C238.114 284.13 280.784 315.7 347.189 343.526ZM22.2703 255.875C20.1033 247.011 17.9363 237.609 15.7693 227.502C17.7484 237.166 19.9152 246.621 22.2703 255.875ZM1.14434 0.481621C-2.07471 78.3532 1.48394 146.874 11.9942 207.512C96.8806 163.535 158.508 96.5699 199.761 0.355957C241.025 96.5949 303.075 163.57 387.996 207.546C398.509 146.899 402.073 78.3699 398.86 0.481621L398.839 0H1.16528L1.14434 0.481621Z" fill="#32AC60"/>
</g>
<defs>
<clipPath id="clip0">
<rect width="400" height="521.59" fill="white"/>
</clipPath>
</defs>
</svg>
