<svg width="400" height="522" viewBox="0 0 400 522" fill="none" xmlns="http://www.w3.org/2000/svg">
<g clip-path="url(#clip0)">
<path d="M199.709 521.377C121.895 464.923 68.561 393.622 36.6483 303.433C7.70906 221.661 -3.90223 122.562 1.14434 0.481621L1.16528 0H398.839L398.86 0.481621C403.896 122.562 392.284 221.651 363.356 303.433C331.443 393.622 278.109 464.923 200.295 521.377L200.002 521.587L199.709 521.377Z" fill="#E00E00"/>
<path d="M127.487 35.0641C155.389 55.2713 179.387 89.299 172.257 120.165C156.855 93.6021 120.472 50.4446 89.941 40.0374C73.4192 34.4045 59.6511 35.6504 55.0443 49.1777C87.3025 54.0568 129.884 92.2201 135.789 117.568C101.657 86.3674 71.1263 77.3945 50.5422 75.7717C28.3666 74.0232 14.6404 92.0002 15.0278 100.115C40.6899 96.3662 65.3259 98.7953 84.8211 108.082C102.536 116.521 109.384 123.086 116.818 138.812C86.0775 134.121 61.6404 126.028 42.8781 139.095C32.942 146.015 25.9585 157.857 28.4085 167.29C43.7471 156.391 63.4832 150.413 87.3758 156.789C119.299 166.474 128.01 200.522 132.449 213.725C140.522 237.733 143.956 255.124 158.488 247.784C173.272 240.329 190.527 230.027 205.991 240.204C215.885 246.716 218.429 264.756 211.456 283.1C210.242 286.314 228.648 287.11 227.277 299.119C225.989 310.311 213.331 320.446 206.295 322.739C186.234 329.273 165.388 318.049 133.339 326.467C116.231 330.958 117.98 341.46 121.089 345.323C113.31 356.359 115.907 374.388 120.451 384.303C122.555 376.807 124.995 364.64 128.973 362.107C132.345 364.4 136.428 361.971 138.606 359.657C145.087 353.249 162.153 342.884 179.753 349.228C164.247 359.939 150.28 380.691 143.631 394.417C140.689 400.49 139.998 408.635 143.485 414.991C147.893 423.032 152.615 428.466 161.619 431.596C169.901 442.129 180.842 447.26 194.495 446.055C188.401 442.391 181.994 435.742 179.659 429.576C184.496 426.079 182.643 423.157 179.764 418.593C164.268 393.904 183.219 363.489 198.714 358.735C191.804 379.372 192.286 418.059 206.221 428.12C209.3 430.35 213.048 427.817 215.079 425.44C230.261 430.256 242.856 424.236 245.798 413.337C238.909 415.106 231.674 415.221 226.627 412.551C228.805 409.536 228.282 405.484 225.622 403.474C209.697 391.444 205.572 376.796 210.828 361.321C216.629 344.213 232.554 341.051 243.453 348.213C252.206 353.95 253.096 359.374 257.137 366.263C258.247 368.148 260.76 368.389 263.639 367.499C266.696 376.199 262.676 384.418 258.373 391.831C263.377 390.104 284.045 380.324 275.742 347.773C275.209 345.711 281.93 342.381 274.392 334.319C264.068 323.263 261.21 326.184 254.321 324.341C249.421 323.032 245.254 318.289 247.965 312.751C254.645 299.129 262.885 299.946 272.591 296.093C311.383 280.702 291.919 241.094 280.213 233.66C305.341 226.938 321.392 241.785 326.962 271.206C341.117 257.49 335.788 234.958 325.706 221.682C315.811 208.658 303.478 202.951 288.746 198.229C313.162 185.885 335.359 193.329 356.236 212.584C358.299 193.832 347.379 178.242 331.516 173.845C317.424 169.95 306.996 170.18 292.798 172.452C314.618 149.994 332.239 146.643 363.523 154.695C360.843 139.43 340.207 114.343 285.417 142.738C319.382 117.579 334.668 89.7178 334.155 69.6572C333.747 53.6066 325.077 39.8594 315.885 33.9019C318.356 76.002 299.394 106.878 261.419 124.028C281.731 87.4667 286.181 76.6511 284.705 52.1094C284.035 40.9483 272.444 29.7139 258.488 26.9917C273.575 77.6667 240.71 114.616 231.601 119.097C236.574 85.3727 244.783 49.5128 224.439 32.5199C218.021 27.1592 203.51 27.4524 205.729 31.3891C225.612 61.323 212.922 106.103 198.107 116.73C195.081 61.3963 166.456 28.269 127.528 35.0536L127.487 35.0641Z" fill="#FFE000"/>
</g>
<defs>
<clipPath id="clip0">
<rect width="400" height="521.59" fill="white"/>
</clipPath>
</defs>
</svg>
