<svg width="400" height="522" viewBox="0 0 400 522" fill="none" xmlns="http://www.w3.org/2000/svg">
<g clip-path="url(#clip0)">
<path d="M199.709 521.377C121.895 464.923 68.561 393.622 36.6483 303.433C7.70906 221.661 -3.90222 122.562 1.14434 0.481625L1.16528 0H398.839L398.86 0.481625C403.896 122.562 392.284 221.651 363.356 303.433C331.443 393.622 278.109 464.923 200.295 521.377L200.002 521.587L199.709 521.377Z" fill="#E00E00"/>
<path fill-rule="evenodd" clip-rule="evenodd" d="M216.651 422.472C218.252 414.089 216.718 403.702 213.478 395.723C210.189 387.623 210.212 384.402 209.496 377.106C230.469 370.918 234.512 365.98 240.703 358.984C254.543 343.345 253.75 322.626 250.723 304.913C247.976 288.84 236.859 268.772 219.584 264.974C216.232 257.651 210.328 249.389 205.369 242.41C204.424 241.081 201.938 241.688 199.772 241.959C198.332 242.226 196.759 241.325 195.451 243.208C190.566 250.239 181.955 257.651 179.959 264.974C162.685 268.772 151.568 288.84 148.821 304.913C145.794 322.626 145 343.345 158.84 358.984C165.031 365.98 169.074 370.918 190.047 377.106C189.332 384.402 189.354 387.623 186.065 395.723C182.826 403.702 181.292 414.089 182.893 422.472H199.772H216.651Z" fill="#FFE000" stroke="#E00E00" stroke-width="3"/>
<path d="M210.857 422.029C210.805 414.69 210.658 406.111 206.788 400.011" stroke="#E00E00" stroke-width="3" stroke-linecap="round"/>
<path d="M209.496 377.107C208.783 370.847 212.914 367.828 217.318 361.479C224.4 351.273 230.878 346.303 234.071 330.606C236.607 318.145 234.886 304.273 230.801 290.079C229.099 284.169 225.332 274.568 219.584 264.974" stroke="#E00E00" stroke-width="3"/>
<path d="M188.687 422.029C188.738 414.69 188.885 406.111 192.755 400.011" stroke="#E00E00" stroke-width="3" stroke-linecap="round"/>
<path d="M190.047 377.107C190.76 370.847 186.63 367.828 182.225 361.479C175.144 351.273 168.665 346.303 165.472 330.606C162.937 318.145 164.657 304.273 168.743 290.079C170.444 284.169 174.211 274.568 179.959 264.974" stroke="#E00E00" stroke-width="3"/>
<path d="M219.584 264.974C216.954 268.962 209.676 275.787 199.772 273.965V422.508" stroke="#E00E00" stroke-width="3"/>
<path d="M199.054 263.033C200.33 263.033 201.365 261.998 201.365 260.722C201.365 259.445 200.33 258.411 199.054 258.411C197.777 258.411 196.743 259.445 196.743 260.722C196.743 261.998 197.777 263.033 199.054 263.033Z" fill="#E00E00"/>
<path d="M207.899 260.959C209.176 260.959 210.21 259.924 210.21 258.648C210.21 257.371 209.176 256.336 207.899 256.336C206.623 256.336 205.588 257.371 205.588 258.648C205.588 259.924 206.623 260.959 207.899 260.959Z" fill="#E00E00"/>
<path d="M199.772 241.959C203.923 241.249 204.406 246.593 206.708 251.468" stroke="#E00E00" stroke-width="3" stroke-linecap="round"/>
<path fill-rule="evenodd" clip-rule="evenodd" d="M216.651 213.217C218.252 204.835 216.718 194.448 213.478 186.468C210.189 178.368 210.212 175.148 209.496 167.852C230.469 161.663 234.512 156.725 240.703 149.73C254.543 134.091 253.75 113.371 250.723 95.658C247.976 79.5849 236.859 59.5178 219.584 55.7195C216.232 48.3961 210.328 40.1342 205.369 33.1553C204.424 31.8263 201.938 32.4336 199.772 32.704C198.332 32.9711 196.759 32.0704 195.451 33.9531C190.566 40.9842 181.955 48.3961 179.959 55.7195C162.685 59.5178 151.568 79.5849 148.821 95.658C145.794 113.371 145 134.091 158.84 149.73C165.031 156.725 169.074 161.663 190.047 167.852C189.332 175.148 189.354 178.368 186.065 186.468C182.826 194.448 181.292 204.835 182.893 213.217H199.772H216.651Z" fill="#FFE000" stroke="#E00E00" stroke-width="3"/>
<path d="M210.857 212.775C210.805 205.435 210.658 196.856 206.788 190.756" stroke="#E00E00" stroke-width="3" stroke-linecap="round"/>
<path d="M209.496 167.852C208.783 161.593 212.914 158.573 217.318 152.224C224.4 142.019 230.878 137.048 234.071 121.351C236.607 108.891 234.886 95.0184 230.801 80.8246C229.099 74.914 225.332 65.3137 219.584 55.7194" stroke="#E00E00" stroke-width="3"/>
<path d="M188.687 212.775C188.738 205.435 188.885 196.856 192.755 190.756" stroke="#E00E00" stroke-width="3" stroke-linecap="round"/>
<path d="M190.047 167.852C190.76 161.593 186.63 158.573 182.225 152.224C175.144 142.019 168.665 137.048 165.472 121.351C162.937 108.891 164.657 95.0184 168.743 80.8246C170.444 74.914 174.211 65.3137 179.959 55.7194" stroke="#E00E00" stroke-width="3"/>
<path d="M219.584 55.7194C216.954 59.7077 209.676 66.5322 199.772 64.7098V213.253" stroke="#E00E00" stroke-width="3"/>
<path d="M199.054 53.7781C200.33 53.7781 201.365 52.7433 201.365 51.4669C201.365 50.1905 200.33 49.1558 199.054 49.1558C197.777 49.1558 196.743 50.1905 196.743 51.4669C196.743 52.7433 197.777 53.7781 199.054 53.7781Z" fill="#E00E00"/>
<path d="M207.899 51.704C209.176 51.704 210.21 50.6692 210.21 49.3928C210.21 48.1164 209.176 47.0817 207.899 47.0817C206.623 47.0817 205.588 48.1164 205.588 49.3928C205.588 50.6692 206.623 51.704 207.899 51.704Z" fill="#E00E00"/>
<path d="M199.772 32.7039C203.923 31.9937 204.406 37.3384 206.708 42.2129" stroke="#E00E00" stroke-width="3" stroke-linecap="round"/>
<path fill-rule="evenodd" clip-rule="evenodd" d="M116.977 299.404C118.559 291.125 117.044 280.866 113.844 272.985C110.595 264.984 110.618 261.804 109.911 254.598C130.626 248.486 134.619 243.608 140.734 236.699C154.403 221.252 153.619 200.788 150.63 183.293C147.917 167.418 136.937 147.598 119.875 143.846C116.564 136.613 110.733 128.453 105.834 121.56C104.901 120.247 102.446 120.847 100.306 121.114C98.8839 121.378 97.3311 120.488 96.0391 122.348C91.2141 129.292 82.7094 136.613 80.7381 143.846C63.6759 147.598 52.6959 167.418 49.983 183.293C46.9933 200.788 46.2094 221.252 59.879 236.699C65.9937 243.608 69.9868 248.486 90.7016 254.598C89.9948 261.804 90.0174 264.984 86.7689 272.985C83.5689 280.866 82.0539 291.125 83.6353 299.404H100.306H116.977Z" fill="#FFE000" stroke="#E00E00" stroke-width="3"/>
<path d="M111.255 298.967C111.204 291.718 111.059 283.245 107.236 277.22" stroke="#E00E00" stroke-width="3" stroke-linecap="round"/>
<path d="M109.911 254.598C109.207 248.416 113.286 245.433 117.637 239.163C124.631 229.083 131.029 224.173 134.184 208.67C136.687 196.363 134.988 182.661 130.953 168.642C129.273 162.804 125.552 153.322 119.874 143.846" stroke="#E00E00" stroke-width="3"/>
<path d="M89.3577 298.967C89.4088 291.718 89.5535 283.245 93.3761 277.22" stroke="#E00E00" stroke-width="3" stroke-linecap="round"/>
<path d="M90.7015 254.598C91.4057 248.416 87.3261 245.433 82.9756 239.163C75.9817 229.083 69.5831 224.173 66.4289 208.67C63.925 196.363 65.6241 182.661 69.6594 168.642C71.3398 162.804 75.0608 153.322 80.738 143.846" stroke="#E00E00" stroke-width="3"/>
<path d="M119.874 143.846C117.277 147.785 110.088 154.526 100.306 152.726V299.44" stroke="#E00E00" stroke-width="3"/>
<path d="M99.5971 141.929C100.858 141.929 101.88 140.907 101.88 139.646C101.88 138.386 100.858 137.364 99.5971 137.364C98.3364 137.364 97.3145 138.386 97.3145 139.646C97.3145 140.907 98.3364 141.929 99.5971 141.929Z" fill="#E00E00"/>
<path d="M108.334 139.88C109.595 139.88 110.617 138.858 110.617 137.598C110.617 136.337 109.595 135.315 108.334 135.315C107.073 135.315 106.051 136.337 106.051 137.598C106.051 138.858 107.073 139.88 108.334 139.88Z" fill="#E00E00"/>
<path d="M100.306 121.114C104.406 120.413 104.883 125.692 107.157 130.506" stroke="#E00E00" stroke-width="3" stroke-linecap="round"/>
<path fill-rule="evenodd" clip-rule="evenodd" d="M315.908 299.404C317.49 291.125 315.975 280.866 312.775 272.985C309.526 264.984 309.549 261.804 308.842 254.598C329.557 248.486 333.55 243.608 339.665 236.699C353.334 221.252 352.55 200.788 349.561 183.293C346.848 167.418 335.868 147.598 318.806 143.846C315.495 136.613 309.664 128.453 304.765 121.56C303.832 120.247 301.377 120.847 299.237 121.114C297.815 121.378 296.262 120.488 294.97 122.348C290.145 129.292 281.64 136.613 279.669 143.846C262.607 147.598 251.627 167.418 248.914 183.293C245.924 200.788 245.14 221.252 258.81 236.699C264.925 243.608 268.918 248.486 289.633 254.598C288.926 261.804 288.948 264.984 285.7 272.985C282.5 280.866 280.985 291.125 282.566 299.404H299.237H315.908Z" fill="#FFE000" stroke="#E00E00" stroke-width="3"/>
<path d="M310.186 298.967C310.135 291.718 309.99 283.245 306.167 277.22" stroke="#E00E00" stroke-width="3" stroke-linecap="round"/>
<path d="M308.842 254.598C308.138 248.416 312.217 245.433 316.568 239.163C323.562 229.083 329.96 224.173 333.115 208.67C335.618 196.363 333.919 182.661 329.884 168.642C328.204 162.804 324.483 153.322 318.805 143.846" stroke="#E00E00" stroke-width="3"/>
<path d="M288.289 298.967C288.34 291.718 288.484 283.245 292.307 277.22" stroke="#E00E00" stroke-width="3" stroke-linecap="round"/>
<path d="M289.632 254.598C290.337 248.416 286.257 245.433 281.906 239.163C274.913 229.083 268.514 224.173 265.36 208.67C262.856 196.363 264.555 182.661 268.59 168.642C270.271 162.804 273.992 153.322 279.669 143.846" stroke="#E00E00" stroke-width="3"/>
<path d="M318.806 143.846C316.208 147.785 309.019 154.526 299.237 152.726V299.44" stroke="#E00E00" stroke-width="3"/>
<path d="M298.528 141.929C299.789 141.929 300.811 140.907 300.811 139.646C300.811 138.386 299.789 137.364 298.528 137.364C297.267 137.364 296.245 138.386 296.245 139.646C296.245 140.907 297.267 141.929 298.528 141.929Z" fill="#E00E00"/>
<path d="M307.265 139.88C308.526 139.88 309.548 138.858 309.548 137.598C309.548 136.337 308.526 135.315 307.265 135.315C306.004 135.315 304.982 136.337 304.982 137.598C304.982 138.858 306.004 139.88 307.265 139.88Z" fill="#E00E00"/>
<path d="M299.237 121.114C303.337 120.413 303.814 125.692 306.088 130.506" stroke="#E00E00" stroke-width="3" stroke-linecap="round"/>
</g>
<defs>
<clipPath id="clip0">
<rect width="400" height="521.59" fill="white"/>
</clipPath>
</defs>
</svg>
