<svg width="400" height="471" viewBox="0 0 400 471" fill="none" xmlns="http://www.w3.org/2000/svg">
<g clip-path="url(#clip0)">
<path d="M199.997 469.281C83.5599 414.234 34.3512 301.864 14.3448 200.606C-3.493 110.324 1.94087 29.1935 3.49971 5.91899C3.62324 4.07458 3.72244 2.5935 3.78379 1.5H396.209C396.27 2.59338 396.369 4.07426 396.493 5.91839C398.051 29.1921 403.485 110.324 385.646 200.606C365.64 301.864 316.431 414.234 199.997 469.281Z" fill="#EBEBEB" stroke="#006EAE" stroke-width="3"/>
<path fill-rule="evenodd" clip-rule="evenodd" d="M197.891 470.94C198.59 471.275 199.292 471.609 199.997 471.94C200.701 471.609 201.403 471.275 202.102 470.94H197.891ZM51.4124 320.567C-10.4712 192.697 -0.224262 40.0079 2.00359 6.811C2.19449 3.96629 2.32652 1.99902 2.34922 1H397.643C397.666 1.99896 397.798 3.96603 397.989 6.81045C400.216 40.0054 410.462 192.688 348.583 320.557C334.032 315.852 212.164 272.743 207.087 147.014C207.087 147.014 207.503 146.598 207.918 146.598H208.749C209.164 146.598 209.579 146.598 210.41 147.014V149.09C210.41 161.964 220.792 172.346 233.666 172.346C246.54 172.346 256.922 161.964 256.922 149.09C256.922 136.216 246.54 125.834 233.666 125.834C227.437 125.834 222.038 128.325 217.885 132.063C217.054 131.232 216.639 130.402 215.809 128.741C220.792 124.588 224.114 117.943 224.114 110.883C224.114 98.0092 213.732 87.627 200.858 87.627C187.984 87.627 177.602 98.0092 177.602 110.883C177.602 117.943 180.924 124.588 185.908 128.741C185.492 129.987 184.662 131.232 183.831 132.063C179.678 127.91 174.279 125.834 168.05 125.834C155.176 125.834 144.794 136.216 144.794 149.09C144.794 161.964 155.176 172.346 168.05 172.346C180.924 172.346 191.306 161.964 191.306 149.09V147.014C191.722 146.598 192.552 146.598 192.968 146.598H193.798C194.213 146.598 194.629 147.014 194.629 147.014C189.16 273.185 66.0217 315.934 51.4124 320.567Z" fill="#006EAE"/>
</g>
<defs>
<clipPath id="clip0">
<rect width="400" height="470.94" fill="white"/>
</clipPath>
</defs>
</svg>
