<svg width="400" height="456" viewBox="0 0 400 456" fill="none" xmlns="http://www.w3.org/2000/svg">
<path d="M400 0H0C0 0 0 297.951 199.74 453.695V454.082C199.808 454.018 199.936 453.95 200 453.886C200.064 453.95 200.192 454.018 200.26 454.082V453.695C400 298.015 400 0 400 0Z" fill="#0071BB"/>
<path d="M200.26 305.428C200.26 274.936 203.228 260.435 205.232 250.827C208.204 236.709 217.96 239.092 217.96 239.092C213.696 219.693 200.26 214.535 200.26 214.535C200.26 214.535 186.82 219.693 182.56 239.096C182.56 239.096 192.312 236.776 195.284 250.831C197.284 260.435 200.26 274.94 200.26 305.428ZM200.26 62.4004C200.26 92.8921 203.228 107.397 205.232 117.001C208.204 131.119 217.96 128.736 217.96 128.736C213.696 148.136 200.26 153.293 200.26 153.293C200.26 153.293 186.82 148.136 182.56 128.732C182.56 128.732 192.312 131.056 195.284 117.001C197.284 107.397 200.26 92.8921 200.26 62.4004ZM322.028 183.916C291.472 183.916 276.936 180.95 267.312 178.951C253.164 175.985 255.552 166.253 255.552 166.253C236.112 170.504 230.944 183.916 230.944 183.916C230.944 183.916 236.112 197.324 255.556 201.579C255.556 201.579 253.228 191.843 267.316 188.878C276.94 186.882 291.476 183.916 322.028 183.916ZM78.4882 183.916C109.044 183.916 123.58 180.95 133.204 178.951C147.352 175.985 144.964 166.253 144.964 166.253C164.404 170.504 169.572 183.916 169.572 183.916C169.572 183.916 164.404 197.324 144.96 201.579C144.96 201.579 147.288 191.843 133.204 188.878C123.58 186.882 109.044 183.916 78.4882 183.916ZM286.368 269.843C264.792 248.312 256.588 235.938 251.228 227.752C243.348 215.697 251.872 210.472 251.872 210.472C235.076 199.775 221.964 205.574 221.964 205.574C221.964 205.574 216.152 218.723 226.872 235.419C226.872 235.419 232.104 226.909 244.184 234.777C252.392 240.125 264.792 248.312 286.368 269.843ZM114.148 97.9853C135.724 119.516 148.128 127.703 156.332 133.051C168.412 140.915 173.644 132.409 173.644 132.409C184.364 149.169 178.552 162.254 178.552 162.254C178.552 162.254 165.376 168.057 148.644 157.356C148.644 157.356 157.172 152.135 149.288 140.081C143.992 131.894 135.788 119.58 114.148 97.9853ZM286.368 97.9853C264.792 119.516 252.392 127.703 244.188 133.051C232.108 140.915 226.872 132.409 226.872 132.409C216.152 149.169 221.964 162.254 221.964 162.254C221.964 162.254 235.14 168.057 251.872 157.356C251.872 157.356 243.348 152.135 251.228 140.081C256.588 131.894 264.792 119.58 286.368 97.9853ZM114.148 269.843C135.724 248.312 143.928 235.938 149.288 227.752C157.168 215.697 148.644 210.472 148.644 210.472C165.44 199.775 178.552 205.574 178.552 205.574C178.552 205.574 184.368 218.723 173.644 235.419C173.644 235.419 168.412 226.909 156.332 234.777C148.128 240.125 135.788 248.312 114.148 269.843ZM258.784 42.0952C247.092 70.2638 244.252 84.7692 242.444 94.4408C239.792 108.619 249.676 110.168 249.676 110.168C238.308 126.477 223.9 126.094 223.9 126.094C223.9 126.094 213.5 116.227 216.988 96.6322C216.988 96.6322 225.128 102.5 233.268 90.6368C238.76 82.514 247.092 70.2638 258.788 42.0952H258.784ZM58.0122 125.511C86.2402 137.179 100.772 140.017 110.464 141.821C124.676 144.463 126.224 134.596 126.224 134.596C142.572 145.944 142.184 160.322 142.184 160.322C142.184 160.322 132.3 170.7 112.664 167.219C112.664 167.219 118.54 159.096 106.652 150.974C98.5802 145.429 86.2402 137.179 58.0122 125.507V125.511ZM141.152 42.0952C152.844 70.2638 161.176 82.5139 166.732 90.6328C174.872 102.56 183.012 96.6322 183.012 96.6322C186.5 116.163 176.1 126.09 176.1 126.09C176.1 126.09 161.692 126.477 150.324 110.168C150.324 110.168 160.204 108.619 157.56 94.4408C155.684 84.7692 152.84 70.2638 141.152 42.0952ZM341.86 125.511C313.632 137.179 299.096 140.017 289.404 141.821C275.196 144.463 273.644 134.596 273.644 134.596C257.3 145.944 257.684 160.322 257.684 160.322C257.684 160.322 267.636 170.7 287.208 167.219C287.208 167.219 281.328 159.16 293.216 150.974C301.356 145.493 313.632 137.179 341.86 125.507V125.511ZM258.784 325.865C247.092 297.692 244.252 283.187 242.444 273.519C239.792 259.337 249.676 257.792 249.676 257.792C238.308 241.479 223.9 241.866 223.9 241.866C223.9 241.866 213.5 251.729 216.988 271.324C216.988 271.324 225.128 265.46 233.268 277.323C238.76 285.446 247.092 297.692 258.788 325.861L258.784 325.865ZM58.0122 242.385C86.2402 230.713 100.772 227.879 110.464 226.075C124.676 223.429 126.224 233.292 126.224 233.292C142.572 221.948 142.184 207.574 142.184 207.574C142.184 207.574 132.3 197.196 112.664 200.677C112.664 200.677 118.54 208.796 106.652 216.922C98.5802 222.463 86.2402 230.777 58.0122 242.385ZM141.152 325.865C152.844 297.692 161.176 285.446 166.732 277.323C174.872 265.396 183.012 271.328 183.012 271.328C186.5 251.793 176.1 241.87 176.1 241.87C176.1 241.87 161.692 241.479 150.324 257.788C150.324 257.788 160.204 259.337 157.56 273.515C155.684 283.187 152.84 297.692 141.152 325.865ZM341.86 242.385C313.632 230.713 299.096 227.879 289.404 226.075C275.196 223.429 273.644 233.292 273.644 233.292C257.3 221.948 257.684 207.574 257.684 207.574C257.684 207.574 267.636 197.196 287.208 200.677C287.208 200.677 281.328 208.732 293.216 216.922C301.356 222.463 313.632 230.713 341.86 242.385Z" fill="white"/>
</svg>
