<svg width="400" height="499" viewBox="0 0 400 499" fill="none" xmlns="http://www.w3.org/2000/svg">
<g clip-path="url(#clip0)">
<path fill-rule="evenodd" clip-rule="evenodd" d="M399.621 0C401.712 102.522 396.238 187.603 355.664 296.769C327.597 372.295 281.409 441.627 200 498.481C118.591 441.627 72.403 372.295 44.336 296.769C3.76154 187.603 -1.71177 102.522 0.379493 0C133.46 0.290175 266.54 0 399.621 0Z" fill="#0085CA"/>
<path d="M127.967 49.3098C115.369 67.1106 97.9786 81.9495 76.1254 93.2764C61.2864 100.981 38.8329 95.878 58.1445 67.0305C64.9186 56.9044 80.6981 39.2438 111.637 31.7793C113.118 31.419 112.087 30.1082 111.527 29.9882C77.166 22.8238 47.0478 55.0533 30.1076 73.9147C22.1228 64.1988 14.4281 52.4017 15.5788 25.8957C15.6188 25.0552 13.1974 24.5149 12.8171 25.9858C1.58036 69.3419 21.0021 90.0745 24.3141 97.8792C24.7243 122.884 40.0136 156.745 72.0829 173.045C111.116 192.877 152.882 208.086 211.637 216.471C214.019 216.811 213.478 225.126 211.187 224.846C181.909 221.234 152.421 215.89 123.014 217.251C108.315 217.932 93.8461 217.661 80.548 211.098C65.509 203.673 63.0074 214.81 59.6254 216.701C54.3922 219.633 53.2816 231.47 57.9644 234.071C59.2852 234.802 61.5566 237.764 59.6254 239.204C55.643 242.176 53.4817 253.323 61.6766 257.205C72.163 262.178 74.7045 263.509 80.6981 268.332C93.746 278.828 105.563 300.542 120.322 322.725C135.571 345.639 166.37 360.958 173.224 378.248C178.057 390.446 178.067 403.774 180.478 419.443C180.478 419.443 189.454 411.368 192.986 402.253L193.766 440.436C193.766 440.436 202.942 432.151 207.275 423.806L207.495 456.856C247.479 419.493 297.499 368.473 326.907 301.422C312.588 301.392 286.923 291.796 284.911 277.658C298.97 276.047 323.555 281.39 341.125 264.27C335.802 263.809 329.668 260.657 327.017 258.276C317.871 250.051 302.322 239.905 283.15 246.359C275.376 248.98 270.663 250.591 258.175 245.848C254.123 244.308 238.493 229.879 265.099 219.833C285.992 211.948 312.458 213.289 338.224 189.805C357.735 172.024 373.505 148.079 366.361 119.022C360.057 93.3764 359.807 89.7943 367.251 79.2779C378.038 64.0387 383.441 40.7847 374.395 25.9157C373.745 24.8451 371.954 26.7462 372.004 27.7868C372.714 43.6164 364.67 64.6791 352.602 69.0918C348.45 70.6127 342.676 65.2695 337.783 60.0763C311.728 32.4597 278.377 23.2341 259.696 28.3172C257.575 28.8975 259.306 30.3084 260.577 30.3384C275.756 30.7286 297.789 40.2143 311.207 54.9432C318.732 63.1982 327.657 81.4893 291.555 77.2667C265.22 74.1949 243.486 62.4678 227.997 50.6306C227.327 50.1203 225.255 51.5212 225.916 52.5918C253.362 97.3488 310.217 80.3186 340.015 109.196C352.452 121.253 343.607 167.221 299.82 146.709C290.495 142.336 276.066 132.66 267.151 112.958C266.941 112.508 265.009 113.188 265.159 114.389C268.341 139.995 280.799 153.803 316.901 170.373C328.448 175.676 302.292 194.728 282.07 185.442C262.048 176.246 250.21 160.017 242.536 137.323C242.306 136.633 240.234 137.983 240.044 139.184C237.823 153.553 243.156 170.633 259.846 189.124C264.179 193.927 257.015 196.879 251.071 197.699C227.337 200.991 200.23 200.401 179.768 192.456C167.531 187.703 170.042 186.583 183.71 167.461C193.066 154.373 196.468 133.451 187.603 120.383C187.252 119.862 186.022 120.183 186.002 120.983C185.201 159.346 167.12 167.121 149.039 175.676C132.95 183.291 105.203 170.473 116.94 158.536C124.294 151.061 153.752 132.65 153.332 100.481C153.322 99.9704 152.391 98.9098 151.261 100.951C138.403 124.185 121.923 147.999 90.1638 149.5C73.2236 150.301 39.4932 124.585 76.7357 107.405C103.072 92.3658 127.216 74.425 130.668 48.7095C130.818 47.5688 129.368 47.2686 127.917 49.3098H127.967Z" fill="white"/>
<path d="M69.4413 224.306C70.8622 222.134 76.5656 222.695 75.4149 226.757C74.6945 229.309 77.9665 230.849 79.3273 228.468C81.0383 225.466 79.5875 220.393 75.6951 218.232C73.3437 216.921 68.3907 218.112 66.5796 221.504C64.1481 226.057 67.4802 227.317 69.4513 224.306H69.4413Z" fill="#0085CA"/>
<path d="M187.803 247.169C189.684 249.761 191.135 252.753 195.858 254.264C199 255.264 202.442 255.895 206.824 253.473C208.265 252.673 211.077 251.942 213.028 252.583C213.759 252.823 214.719 251.522 213.719 250.701C212.218 249.461 210.316 248.04 209.686 245.888C208.355 241.386 205.173 239.785 201.851 238.834C197.529 237.593 192.646 239.084 189.224 241.856C187.353 243.367 182.44 242.176 182.35 243.847C182.21 246.459 186.142 244.878 187.813 247.169H187.803Z" fill="#0085CA" stroke="#0085CA" stroke-width="0.88" stroke-linejoin="round"/>
<path fill-rule="evenodd" clip-rule="evenodd" d="M190.895 241.036C189.774 241.376 187.152 242.987 185.071 242.847C182.47 242.657 180.769 243.767 183.23 245.548C185.832 245.708 188.823 247.87 189.784 249.211C185.922 243.637 187.443 244.228 190.895 241.046V241.036Z" fill="#0085CA"/>
<path fill-rule="evenodd" clip-rule="evenodd" d="M209.026 245.328C209.736 246.139 211.097 248.77 212.668 249.531C214.639 250.471 215.519 252.293 213.138 252.953C211.177 251.982 207.315 252.473 206.164 253.353C210.737 250.301 210.657 250.391 209.016 245.318L209.026 245.328Z" fill="#0085CA"/>
</g>
<defs>
<clipPath id="clip0">
<rect width="400" height="498.48" fill="white"/>
</clipPath>
</defs>
</svg>
