<svg width="400" height="491" viewBox="0 0 400 491" fill="none" xmlns="http://www.w3.org/2000/svg">
<g clip-path="url(#clip0)">
<path d="M200.277 490.603C200.277 490.603 179.07 470.188 170.129 460.692C159.578 449.403 149.027 437.903 138.477 426.192C129.456 415.984 120.593 405.697 112.285 395.015C101.761 381.642 91.3947 368.032 81.7409 353.947C73.6957 342.309 66.2991 330.237 59.5846 317.784C51.393 302.997 43.997 287.782 37.4283 272.206C31.2463 257.02 25.9619 241.484 21.6024 225.678C17.1711 209.852 13.6894 193.314 10.8408 176.934C7.91296 163.323 6.56775 149.555 4.98516 135.707C3.71909 123.838 2.92779 111.968 2.1365 99.9407C1.50346 90.0495 1.10781 80.2374 0.791296 70.4253C0.474777 60.6133 0 52.542 0 43.6004C0 29.9901 0 16.3007 0 2.69041C0 1.74085 0 0.870425 0 0H400C400 0.870425 400 1.74085 400 2.69041C400 16.3007 400 29.9901 400 43.6004C400 52.542 400 61.4837 399.367 70.4253C398.734 79.367 398.576 90.0495 397.943 99.9407C397.151 111.889 396.36 123.68 395.094 135.707C393.511 149.555 391.929 163.323 389.397 176.934C386.39 193.314 383.066 209.693 378.635 225.678C374.311 241.494 369.026 257.033 362.809 272.206C356.236 287.767 348.867 302.98 340.732 317.784C333.961 330.221 326.539 342.292 318.497 353.947C308.843 368.032 298.477 381.642 287.953 395.015C280.04 405.697 270.781 415.984 261.761 426.192C251.21 437.903 240.659 449.403 230.109 460.692C221.563 470.188 200.277 490.603 200.277 490.603Z" fill="#007DC5"/>
<path fill-rule="evenodd" clip-rule="evenodd" d="M166.288 227.597C158.909 215.678 140.55 196.392 143.995 192.302C146.326 189.533 167.169 201.88 184.697 210.604C164.539 193.269 134.523 179.241 132.163 162.766C128.954 140.35 137.734 122.874 155.597 114.028C175.619 104.111 193.832 106.004 212.584 99.4481C219.776 96.9336 132.666 93.0175 126.212 100.266L112.367 115.815L106.603 89.6359C104.659 80.8039 147.087 52.4757 174.58 36.6729C130.602 39.7002 77.8412 73.1115 70.9728 84.3197C79.013 92.11 85.682 102.6 81.4089 122.247C62.022 123.419 55.0054 125.017 50.8687 140.381L53.1059 147.556C61.5308 144.307 72.1268 145.512 77.065 149.433C105.09 171.689 134.542 194.497 166.288 227.597Z" fill="white" stroke="black" stroke-linecap="round" stroke-linejoin="round"/>
<path fill-rule="evenodd" clip-rule="evenodd" d="M40.9941 153.342L53.1059 147.556L50.8687 140.381L40.9941 153.342Z" fill="black" stroke="black" stroke-linecap="round"/>
<path fill-rule="evenodd" clip-rule="evenodd" d="M312.288 223.597C304.909 211.678 286.55 192.392 289.995 188.302C292.327 185.533 313.169 197.88 330.697 206.604C310.539 189.269 280.523 175.241 278.163 158.766C274.954 136.35 283.734 118.874 301.597 110.028C321.619 100.111 339.832 102.004 358.584 95.4481C365.776 92.9336 278.666 89.0175 272.212 96.266L258.367 111.815L252.603 85.6359C250.659 76.8039 293.087 48.4757 320.58 32.6729C276.602 35.7002 223.841 69.1115 216.973 80.3197C225.013 88.11 231.682 98.6 227.409 118.247C208.022 119.419 201.005 121.017 196.869 136.381L199.106 143.556C207.531 140.307 218.127 141.512 223.065 145.433C251.09 167.689 280.541 190.497 312.288 223.597Z" fill="white" stroke="black" stroke-linecap="round" stroke-linejoin="round"/>
<path fill-rule="evenodd" clip-rule="evenodd" d="M186.994 149.342L199.106 143.556L196.869 136.381L186.994 149.342Z" fill="black" stroke="black" stroke-linecap="round"/>
<path fill-rule="evenodd" clip-rule="evenodd" d="M236.355 403.393C228.976 391.474 210.617 372.188 214.062 368.098C216.393 365.329 237.236 377.677 254.763 386.4C234.606 369.066 204.59 355.037 202.23 338.562C199.021 316.146 207.801 298.67 225.664 289.824C245.686 279.908 263.899 281.8 282.651 275.244C289.843 272.73 202.733 268.814 196.279 276.062L182.434 291.611L176.67 265.432C174.726 256.6 217.154 228.272 244.647 212.469C200.669 215.496 147.908 248.908 141.04 260.116C149.08 267.906 155.749 278.396 151.476 298.043C132.089 299.215 125.072 300.813 120.936 316.177L123.173 323.352C131.598 320.103 142.194 321.308 147.132 325.23C175.157 347.485 204.608 370.293 236.355 403.393Z" fill="white" stroke="black" stroke-linecap="round" stroke-linejoin="round"/>
<path fill-rule="evenodd" clip-rule="evenodd" d="M111.061 329.138L123.173 323.352L120.936 316.177L111.061 329.138Z" fill="black" stroke="black" stroke-linecap="round"/>
</g>
<defs>
<clipPath id="clip0">
<rect width="400" height="490.6" fill="white"/>
</clipPath>
</defs>
</svg>
