<svg width="400" height="485" viewBox="0 0 400 485" fill="none" xmlns="http://www.w3.org/2000/svg">
<g clip-path="url(#clip0)">
<path d="M2.82719 0C0.32475 12 -0.946139 52.5185 0.825437 82.75C3.74435 132.555 13.8412 182.665 26.5343 225.661C48.8721 301.327 81.3494 360.867 138.046 422.48L200 483.559L261.954 422.48C318.651 360.867 351.128 301.327 373.466 225.661C386.159 182.665 396.256 132.555 399.175 82.75C400.946 52.5185 399.675 12 397.173 0H2.82719Z" fill="#C4C4C4"/>
<path d="M2.82719 0C0.32475 12 -0.946139 52.5185 0.825437 82.75C3.74435 132.555 13.8412 182.665 26.5343 225.661C48.8721 301.327 81.3494 360.867 138.046 422.48L200 483.559L261.954 422.48C318.651 360.867 351.128 301.327 373.466 225.661C386.159 182.665 396.256 132.555 399.175 82.75C400.946 52.5185 399.675 12 397.173 0H2.82719Z" stroke="black"/>
<path d="M208.864 473.961C219.633 464.218 245.098 438.76 254.773 428.063C316.75 363.75 353.538 297.068 374 218.513C377.998 203.164 379.509 194.412 379.058 193.961C378.864 193.767 375.563 196.252 371.722 199.482C339.781 226.463 312.715 229.99 282.109 221.56C282.109 221.56 282.791 218.913 283.868 215.368C284.798 212.304 285.818 206.703 285.818 206.703C290.107 206.709 293.786 206.87 298.302 205.992C299.592 204.702 300.385 189.189 299.581 180.956C299.141 176.451 298.554 172.561 298.277 172.312C298 172.063 295.216 171.491 292.091 171.04C288.965 170.59 286.206 169.99 285.96 169.707C285.714 169.424 284.646 166.361 283.588 162.902C282.53 159.442 280.079 153.518 278.142 149.738C276.206 145.958 274.621 142.557 274.621 142.182C274.621 141.806 276.008 139.715 277.702 137.536C282.137 131.833 282.087 132.025 279.892 129.09C274.663 122.098 259.833 108.284 257.556 108.284C257.059 108.284 254.732 109.726 252.387 111.49C250.041 113.253 247.605 114.695 246.972 114.695C246.339 114.695 243.245 113.354 240.097 111.715C236.948 110.076 231.223 107.713 227.375 106.464C223.527 105.214 220.087 103.901 219.732 103.546C219.376 103.19 218.73 100.344 218.297 97.2211C217.863 94.0981 217.371 91.4048 217.203 91.2359C215.436 89.4554 184.921 89.4554 183.153 91.2359C182.985 91.4047 182.493 94.0981 182.059 97.2211C181.626 100.344 180.995 103.175 180.658 103.511C180.322 103.848 176.757 105.227 172.737 106.576C168.717 107.924 162.977 110.303 159.982 111.862C156.986 113.42 154.017 114.695 153.384 114.695C152.751 114.695 150.315 113.253 147.969 111.49C145.624 109.726 143.297 108.284 142.8 108.284C140.294 108.284 122.953 124.844 119.878 130.175L118.651 132.3L122.186 136.855C124.131 139.36 125.725 141.694 125.728 142.041C125.731 142.389 123.99 146.235 121.858 150.59C119.726 154.944 117.247 161.027 116.349 164.108C114.502 170.442 114.361 170.552 107.046 171.335C103.664 171.697 102.192 172.171 101.874 173.001C101.629 173.639 101.133 177.529 100.771 181.645C100.093 189.364 100.974 204.912 102.156 206.095C102.491 206.43 105.117 206.999 107.991 207.36C110.865 207.721 113.589 208.417 114.044 208.907C114.826 209.749 118.604 221.353 118.604 221.353C82.3179 230.512 53.2513 225.794 25.7946 195.198C23.1339 192.746 20.7462 190.951 20.4886 191.209C19.922 191.775 21.5114 202.772 25.7946 217.795C50.5424 297.631 75.75 358 156.858 440.445C170.361 454.627 198.576 481.545 199.959 481.563C200.23 481.566 204.237 478.146 208.864 473.961ZM186.643 288.026C183.491 287.511 182.934 286.755 182.395 282.261C181.516 274.927 181.903 275.362 174.045 272.871C170.119 271.626 163.821 269.027 160.049 267.095C156.278 265.163 152.982 263.582 152.726 263.582C152.47 263.582 150.228 265.161 147.745 267.091C143.232 270.598 143.227 270.6 141.159 269.407C135.877 266.361 119.323 249.008 119.323 246.517C119.323 246.019 120.766 243.693 122.529 241.348C124.292 239.002 125.735 236.819 125.735 236.497C125.735 236.175 124.292 233.153 122.529 229.783C120.766 226.412 118.604 221.353 118.604 221.353L123.767 218.513L133.167 213.607L139.591 210.407C139.591 210.407 141.215 214.223 142.831 217.456C151.75 235.304 167.844 247.799 187.141 251.858C193.669 253.231 207.01 253.188 213.921 251.771C233.046 247.85 250.216 235.441 258.369 217.795C259.743 214.821 261.32 210.561 261.32 210.561L266.922 213.424L276.123 218.508L282.109 221.56C282.109 221.56 279.503 226.726 277.771 230.003C276.039 233.279 274.621 236.207 274.621 236.508C274.621 236.81 276.198 239.085 278.124 241.564C281.519 245.933 281.595 246.134 280.589 248.079C278.101 252.89 260.077 269.994 257.495 269.994C256.996 269.994 254.955 268.759 252.96 267.249C250.965 265.74 248.922 264.272 248.42 263.988C247.896 263.691 244.567 264.975 240.584 267.012C234.875 269.93 229.578 271.965 220.648 274.671C219.399 275.049 218.608 277.425 218.012 282.587C217.657 285.653 217.145 287.147 216.321 287.513C214.961 288.117 189.856 288.552 186.643 288.026ZM186.846 124.595C215.536 118.674 245.191 131.297 258.5 157.885C266.958 175.568 265.533 191.692 261.32 210.561C261.32 210.561 257.313 208.474 253.24 205.847C233.82 193.318 218.051 188.07 199.822 188.07C181.384 188.07 167.227 192.657 148.784 204.604C144.923 207.106 141.378 209.387 140.908 209.673C140.696 209.802 139.591 210.407 139.591 210.407C126.614 170.466 151.781 132.171 186.846 124.595Z" fill="#108648"/>
<path d="M2.32287 82.6622C1.44012 67.5983 1.3148 49.9545 1.72303 34.578C2.1066 20.1305 2.95868 7.80874 4.06766 1.5H395.932C397.041 7.80874 397.893 20.1305 398.277 34.578C398.685 49.9545 398.56 67.5983 397.677 82.6622C394.766 132.333 384.694 182.329 372.027 225.236C349.755 300.678 317.396 360.008 260.875 421.438L200 481.453L139.125 421.438C82.6043 360.008 50.2447 300.678 27.9729 225.236C15.3059 182.329 5.2339 132.333 2.32287 82.6622Z" stroke="#108648" stroke-width="3"/>
</g>
<defs>
<clipPath id="clip0">
<rect width="400" height="484.405" fill="white"/>
</clipPath>
</defs>
</svg>
