<svg width="400" height="469" viewBox="0 0 400 469" fill="none" xmlns="http://www.w3.org/2000/svg">
<g clip-path="url(#clip0)">
<path d="M399.995 45.774C400.037 22.7618 399.79 0 399.79 0H0.210271C0.210271 0 -0.0369325 22.7618 0.00473139 45.774C0.0683574 80.7003 1.08051 90.9694 3.11382 110.935C14.2191 219.983 58.6994 314.962 127.934 398.008C127.934 398.008 194.994 468.254 200 468.254C205.006 468.254 249.663 424.879 272.065 398.008C341.3 314.962 385.781 219.983 396.886 110.935C398.919 90.9694 399.932 80.7003 399.995 45.774Z" fill="white"/>
<path d="M233.75 241.5C289.15 203.9 319.125 201.5 374.875 212.75L386.625 166.25L394.75 119.75C296 101.5 249.5 113 180.5 161.5C108.423 212.163 75.375 208 19.375 194.75L38.25 247.375L61.25 298.375C108.25 301.875 164.5 288.5 233.75 241.5Z" fill="#2A3368"/>
<path d="M24.875 212.928L4.5 119.803C103.25 101.553 153 112.803 222 161.303C294.077 211.966 323.625 208.428 379.625 195.178L361.375 248.178L338.625 298.303C291.625 301.803 238 288.303 168.75 241.303C113.35 203.703 80.625 201.678 24.875 212.928Z" fill="#76B568"/>
<path d="M129.068 397.023L129.054 397.008C60.003 314.17 15.6755 219.478 4.6061 110.783C2.57723 90.8611 1.56825 80.6421 1.50473 45.7713C1.48391 34.2709 1.53527 22.8319 1.59184 14.2673C1.62013 9.98523 1.64972 6.4221 1.67224 3.92964C1.68112 2.94567 1.68891 2.12857 1.69508 1.5H398.305C398.311 2.12857 398.319 2.94567 398.328 3.92964C398.35 6.4221 398.38 9.98523 398.408 14.2673C398.465 22.8319 398.516 34.2709 398.495 45.7713C398.432 80.642 397.423 90.8611 395.394 110.783C384.323 219.495 339.983 314.2 270.913 397.047C259.757 410.428 243.032 427.95 228.463 442.132C221.18 449.222 214.453 455.46 209.246 459.917C206.64 462.148 204.437 463.914 202.747 465.114C201.899 465.716 201.21 466.155 200.682 466.437C200.356 466.611 200.155 466.689 200.054 466.725C200.04 466.718 200.025 466.711 200.008 466.703C199.822 466.612 199.556 466.457 199.202 466.219C198.498 465.747 197.566 465.029 196.424 464.081C194.148 462.191 191.145 459.472 187.656 456.186C180.685 449.619 171.848 440.853 163.156 432.075C154.466 423.3 145.932 414.524 139.569 407.941C136.388 404.65 133.75 401.907 131.908 399.988C130.987 399.028 130.264 398.274 129.772 397.76C129.527 397.503 129.338 397.306 129.211 397.173L129.068 397.023Z" stroke="#2A3368" stroke-width="3"/>
</g>
<defs>
<clipPath id="clip0">
<rect width="400" height="468.254" fill="white"/>
</clipPath>
</defs>
</svg>
