<svg width="400" height="522" viewBox="0 0 400 522" fill="none" xmlns="http://www.w3.org/2000/svg">
<g clip-path="url(#clip0)">
<path d="M199.917 522.273C121.99 465.783 68.6717 394.401 36.8858 304.017C7.66328 221.85 -3.61559 122.737 0.998493 0.513542V0H398.835V0.513542C403.962 122.737 392.17 221.85 363.46 304.017C331.674 394.401 278.356 465.783 200.429 522.273H199.917Z" fill="#009276"/>
<path d="M216.323 453.971C220.424 427.781 225.038 391.833 225.551 357.939C226.576 303.504 218.373 254.203 216.323 194.632C216.323 193.092 219.911 192.065 220.937 190.524C222.987 188.47 224.013 182.821 224.013 175.631C224.013 169.982 223.5 165.361 221.449 163.306C219.399 161.252 216.835 160.739 216.323 158.684L216.835 144.819C244.52 143.278 270.154 141.224 297.325 136.602C301.427 136.089 307.066 129.926 307.579 124.791C309.117 107.33 309.117 89.3563 307.579 71.3823C307.066 67.2739 304.503 60.5979 297.325 59.0573C270.666 54.4354 243.494 51.8677 216.835 48.7864C216.835 40.5697 216.835 37.4885 213.247 35.4343C209.658 33.3801 204.531 33.3801 199.404 33.3801C194.278 33.3801 189.151 33.3801 185.562 35.4343C181.973 37.4885 181.973 40.5697 181.973 48.7864C155.314 51.8677 128.142 54.4354 101.483 59.0573C94.3058 60.5979 91.7424 67.2739 91.2297 71.3823C90.2044 89.3563 89.6917 107.33 91.2297 124.791C91.7424 130.44 96.8692 136.089 101.483 136.602C128.655 141.738 154.289 143.278 181.973 144.819L182.486 158.684C181.973 160.739 179.41 161.252 177.359 163.306C175.309 165.361 175.309 169.982 174.796 175.631C174.796 182.307 175.821 187.956 177.872 190.524C178.897 191.551 182.486 193.092 182.486 194.632C180.435 254.717 172.232 303.504 173.258 357.939C173.771 391.319 178.385 427.781 182.486 453.971C182.999 457.566 191.714 457.566 198.892 457.566C206.069 457.566 215.81 457.566 216.323 453.971Z" fill="#FCEB01"/>
</g>
<defs>
<clipPath id="clip0">
<rect width="400" height="521.39" fill="white"/>
</clipPath>
</defs>
</svg>
