<svg width="401" height="426" viewBox="0 0 401 426" fill="none" xmlns="http://www.w3.org/2000/svg">
<g clip-path="url(#clip0)">
<path fill-rule="evenodd" clip-rule="evenodd" d="M47.5208 0L0.839844 43.6831C17.1242 58.6748 31.557 73.2401 37.4284 87.3662C41.1915 96.4198 42.3816 107.369 42.3816 114.852V287.19C42.3816 341.582 93.1315 425.696 200.84 425.696C308.548 425.696 359.298 341.582 359.298 287.19V114.852C359.298 107.369 360.488 96.4198 364.251 87.3662C370.123 73.2401 384.556 58.6748 400.84 43.6831L354.159 0C251.946 0 149.733 0 47.5208 0Z" fill="#0085CA"/>
<mask id="mask0" mask-type="alpha" maskUnits="userSpaceOnUse" x="0" y="84" width="401" height="243">
<path d="M110.903 157.174C128.034 157.174 138.741 172.163 155.871 172.163C173.002 172.163 183.709 157.174 200.839 157.174C217.97 157.174 228.676 172.163 245.807 172.163C262.938 172.163 273.644 157.174 290.775 157.174C307.906 157.174 318.612 172.163 335.743 172.163C344.764 172.163 352.003 168.006 359.338 164.071H400.84V89.0466H363.601C354.727 93.4449 346.502 99.3577 335.743 99.3577C318.612 99.3577 307.906 84.3684 290.775 84.3684C273.644 84.3684 262.938 99.3577 245.807 99.3577C228.676 99.3577 217.97 84.3684 200.839 84.3684C183.709 84.3684 173.002 99.3577 155.871 99.3577C138.741 99.3577 128.034 84.3684 110.903 84.3684C93.7729 84.3684 83.0663 99.3577 65.9357 99.3577C55.1765 99.3577 46.9513 93.4449 38.0772 89.0466H0.839844L0.838867 164.071H42.3409C49.6752 168.006 56.9147 172.163 65.9357 172.163C83.0663 172.163 93.7729 157.174 110.903 157.174Z" fill="white"/>
<path fill-rule="evenodd" clip-rule="evenodd" d="M155.871 326.338C138.741 326.338 128.034 311.349 110.904 311.349C93.7729 311.349 83.0663 326.338 65.9357 326.338C59.2581 326.338 53.7543 324.226 48.268 321.446H0.838882L0.838867 245.398H42.2598C49.6218 249.346 56.8815 253.533 65.9357 253.533C83.0663 253.533 93.7729 238.544 110.904 238.544C128.034 238.544 138.741 253.533 155.871 253.533C173.002 253.533 183.709 238.544 200.839 238.544C217.97 238.544 228.677 253.533 245.807 253.533C262.938 253.533 273.644 238.544 290.775 238.544C307.906 238.544 318.612 253.533 335.743 253.533C344.797 253.533 352.057 249.346 359.419 245.398H400.839V321.446H353.411C347.924 324.226 342.42 326.338 335.743 326.338C318.612 326.338 307.906 311.349 290.775 311.349C273.644 311.349 262.938 326.338 245.807 326.338C228.677 326.338 217.97 311.349 200.839 311.349C183.709 311.349 173.002 326.338 155.871 326.338Z" fill="white"/>
</mask>
<g mask="url(#mask0)">
<path d="M398.636 43.6753C382.871 58.2521 368.738 72.6629 362.866 86.7904C359 96.092 357.798 107.258 357.798 114.852V287.19C357.798 340.842 307.633 424.196 200.84 424.196C94.0463 424.196 43.8816 340.842 43.8816 287.19V114.852C43.8816 107.258 42.6797 96.092 38.8135 86.7904C32.9415 72.6629 18.8085 58.2521 3.0435 43.6753L48.1132 1.5H48.1197H48.7186H49.3175H49.9164H50.5153H51.1142H51.7131H52.312H52.9109H53.5098H54.1087H54.7076H55.3065H55.9054H56.5043H57.1032H57.7021H58.301H58.8999H59.4988H60.0977H60.6966H61.2955H61.8944H62.4933H63.0923H63.6912H64.2901H64.889H65.4879H66.0868H66.6857H67.2846H67.8835H68.4824H69.0813H69.6802H70.2791H70.878H71.4769H72.0758H72.6747H73.2736H73.8725H74.4714H75.0703H75.6692H76.2681H76.867H77.4659H78.0648H78.6637H79.2626H79.8615H80.4604H81.0593H81.6582H82.2571H82.856H83.4549H84.0538H84.6527H85.2516H85.8505H86.4494H87.0484H87.6473H88.2462H88.8451H89.444H90.0429H90.6418H91.2407H91.8396H92.4385H93.0374H93.6363H94.2352H94.8341H95.433H96.0319H96.6308H97.2297H97.8286H98.4275H99.0264H99.6253H100.224H100.823H101.422H102.021H102.62H103.219H103.818H104.417H105.015H105.614H106.213H106.812H107.411H108.01H108.609H109.208H109.807H110.406H111.004H111.603H112.202H112.801H113.4H113.999H114.598H115.197H115.796H116.395H116.993H117.592H118.191H118.79H119.389H119.988H120.587H121.186H121.785H122.384H122.983H123.581H124.18H124.779H125.378H125.977H126.576H127.175H127.774H128.373H128.972H129.57H130.169H130.768H131.367H131.966H132.565H133.164H133.763H134.362H134.961H135.559H136.158H136.757H137.356H137.955H138.554H139.153H139.752H140.351H140.95H141.548H142.147H142.746H143.345H143.944H144.543H145.142H145.741H146.34H146.939H147.538H148.136H148.735H149.334H149.933H150.532H151.131H151.73H152.329H152.928H153.527H154.125H154.724H155.323H155.922H156.521H157.12H157.719H158.318H158.917H159.516H160.114H160.713H161.312H161.911H162.51H163.109H163.708H164.307H164.906H165.505H166.103H166.702H167.301H167.9H168.499H169.098H169.697H170.296H170.895H171.494H172.093H172.691H173.29H173.889H174.488H175.087H175.686H176.285H176.884H177.483H178.082H178.68H179.279H179.878H180.477H181.076H181.675H182.274H182.873H183.472H184.071H184.669H185.268H185.867H186.466H187.065H187.664H188.263H188.862H189.461H190.06H190.658H191.257H191.856H192.455H193.054H193.653H194.252H194.851H195.45H196.049H196.648H197.246H197.845H198.444H199.043H199.642H200.241H200.84H201.439H202.038H202.637H203.235H203.834H204.433H205.032H205.631H206.23H206.829H207.428H208.027H208.626H209.224H209.823H210.422H211.021H211.62H212.219H212.818H213.417H214.016H214.615H215.214H215.812H216.411H217.01H217.609H218.208H218.807H219.406H220.005H220.604H221.203H221.801H222.4H222.999H223.598H224.197H224.796H225.395H225.994H226.593H227.192H227.79H228.389H228.988H229.587H230.186H230.785H231.384H231.983H232.582H233.181H233.779H234.378H234.977H235.576H236.175H236.774H237.373H237.972H238.571H239.17H239.769H240.367H240.966H241.565H242.164H242.763H243.362H243.961H244.56H245.159H245.758H246.356H246.955H247.554H248.153H248.752H249.351H249.95H250.549H251.148H251.747H252.345H252.944H253.543H254.142H254.741H255.34H255.939H256.538H257.137H257.736H258.334H258.933H259.532H260.131H260.73H261.329H261.928H262.527H263.126H263.725H264.324H264.922H265.521H266.12H266.719H267.318H267.917H268.516H269.115H269.714H270.313H270.911H271.51H272.109H272.708H273.307H273.906H274.505H275.104H275.703H276.302H276.9H277.499H278.098H278.697H279.296H279.895H280.494H281.093H281.692H282.291H282.889H283.488H284.087H284.686H285.285H285.884H286.483H287.082H287.681H288.28H288.879H289.477H290.076H290.675H291.274H291.873H292.472H293.071H293.67H294.269H294.868H295.466H296.065H296.664H297.263H297.862H298.461H299.06H299.659H300.258H300.857H301.455H302.054H302.653H303.252H303.851H304.45H305.049H305.648H306.247H306.846H307.444H308.043H308.642H309.241H309.84H310.439H311.038H311.637H312.236H312.835H313.434H314.032H314.631H315.23H315.829H316.428H317.027H317.626H318.225H318.824H319.423H320.021H320.62H321.219H321.818H322.417H323.016H323.615H324.214H324.813H325.412H326.01H326.609H327.208H327.807H328.406H329.005H329.604H330.203H330.802H331.401H332H332.598H333.197H333.796H334.395H334.994H335.593H336.192H336.791H337.39H337.989H338.587H339.186H339.785H340.384H340.983H341.582H342.181H342.78H343.379H343.978H344.576H345.175H345.774H346.373H346.972H347.571H348.17H348.769H349.368H349.967H350.565H351.164H351.763H352.362H352.961H353.56H353.566L398.636 43.6753Z" fill="white" stroke="#0085CA" stroke-width="3"/>
</g>
</g>
<defs>
<clipPath id="clip0">
<rect x="0.839844" width="400" height="425.7" fill="white"/>
</clipPath>
</defs>
</svg>
