<svg width="401" height="572" viewBox="0 0 401 572" fill="none" xmlns="http://www.w3.org/2000/svg">
<g clip-path="url(#clip0)">
<path d="M219.741 0.487305V11.2674H207.274V0.487305H193.817V11.2674H181.314V0.487305H167.894L169.617 23.4775H231.437L233.197 0.487305H219.741Z" fill="#FFDD00" stroke="black" stroke-width="3" stroke-linecap="round"/>
<path d="M74.9805 41.8842L85.2839 99.8913C85.2839 99.8913 79.7472 101.431 80.8472 105.721C81.8005 109.351 86.3472 108.801 86.3472 108.801L88.1072 118.408C88.1072 118.408 81.8005 121.231 83.7439 126.915C85.4672 131.902 91.0039 129.518 91.0039 129.518C165.071 103.521 236.022 103.448 310.126 129.372L317.386 127.098C319.549 120.315 312.362 118.371 312.362 118.371L313.682 108.545C313.682 108.545 318.046 110.305 319.549 105.685C321.089 101.101 316.029 99.6713 316.029 99.6713L326.076 42.1775L291.279 32.5341L288.492 40.3075C229.678 27.1074 171.341 27.144 112.527 40.4175L109.924 32.7541L74.9805 41.8842Z" fill="#FFDD00" stroke="black" stroke-width="3" stroke-linecap="round"/>
<path d="M285.377 48.9245C231.183 36.7877 169.582 36.7144 115.205 49.0712" stroke="black" stroke-width="3" stroke-linecap="round"/>
<path d="M278.739 67.8446C228.432 57.5779 172.295 57.5412 121.805 67.9546" stroke="black" stroke-width="3" stroke-linecap="round"/>
<path d="M172.991 81.1548L178.161 23.5876L222.895 23.661L228.102 80.7148" fill="#FFDD00"/>
<path d="M172.991 81.1548L178.161 23.5876L222.895 23.661L228.102 80.7148" stroke="black" stroke-width="3" stroke-linecap="round"/>
<path d="M132.437 45.9177L135.48 65.4979" stroke="black" stroke-width="3" stroke-linecap="round"/>
<path d="M158.361 42.0676L160.121 61.4278" stroke="black" stroke-width="3" stroke-linecap="round"/>
<path d="M147.69 63.7378L150.22 84.3446" stroke="black" stroke-width="3" stroke-linecap="round"/>
<path d="M268.544 45.9177L265.501 65.4979" stroke="black" stroke-width="3" stroke-linecap="round"/>
<path d="M242.658 42.0676L240.861 61.4278" stroke="black" stroke-width="3" stroke-linecap="round"/>
<path d="M253.328 63.7378L250.762 84.3446" stroke="black" stroke-width="3" stroke-linecap="round"/>
<path d="M187.878 79.9445L188.575 49.6576C188.465 44.3042 193.561 39.8675 199.941 39.7209C206.321 39.6109 211.565 43.8276 211.675 49.2176L213.251 80.0912" stroke="black" stroke-width="3" stroke-linecap="round"/>
<path d="M102.262 10.7541L105.012 21.1309L94.2315 23.9909L91.4815 13.5775L79.8581 16.6942L82.6081 27.0709L71.8647 29.931L69.1146 19.5175L57.4912 22.6342L64.8613 44.4511L118.248 30.261L113.885 7.63745L102.262 10.7541Z" fill="#FFDD00" stroke="black" stroke-width="3" stroke-linecap="round"/>
<path d="M298.393 10.7541L295.642 21.1309L306.423 23.9909L309.173 13.5775L320.796 16.6942L318.046 27.0709L328.826 29.931L331.576 19.5175L343.163 22.6342L335.793 44.4511L282.442 30.261L286.806 7.63745L298.393 10.7541Z" fill="#FFDD00" stroke="black" stroke-width="3" stroke-linecap="round"/>
<path d="M112.563 40.6377L128.88 87.7914" stroke="black" stroke-width="3" stroke-linecap="round"/>
<path d="M315.993 99.8182C238.149 74.0413 163.385 73.858 85.5781 99.7448" stroke="black" stroke-width="3" stroke-linecap="round"/>
<path d="M315.113 108.985C237.416 83.2079 164.045 83.0979 86.3477 108.985" stroke="black" stroke-width="3" stroke-linecap="round"/>
<path d="M312.326 118.482C239.138 93.9882 162.394 93.5115 88.0703 118.482" stroke="black" stroke-width="3" stroke-linecap="round"/>
<path d="M288.529 40.3809L272.029 87.2779" stroke="black" stroke-width="3" stroke-linecap="round"/>
<path d="M96.7237 95.8214L89.5736 64.8378C88.107 59.4111 91.3336 53.8377 96.7604 52.371C102.187 50.9043 107.76 54.131 109.227 59.5577L118.467 90.6513" stroke="black" stroke-width="3" stroke-linecap="round"/>
<path d="M304.37 95.8214L311.52 64.8378C312.987 59.4111 309.76 53.8377 304.333 52.371C298.907 50.9043 293.333 54.131 291.903 59.5577L282.663 90.6513" stroke="black" stroke-width="3" stroke-linecap="round"/>
<path d="M2.44941 127.388H399.34L399.303 505.391C399.303 529.173 380.205 548.405 356.436 548.405H236.022C233.364 548.405 227.466 549.479 220.709 552.759C214.349 555.846 207.157 560.921 201.131 568.995C194.928 560.96 187.456 555.889 180.956 552.795C174.061 549.514 168.145 548.405 165.878 548.405H45.7569C21.9641 548.405 2.33984 529.149 2.33984 505.392L2.44941 127.388Z" fill="#E84427" stroke="black" stroke-width="3" stroke-linecap="round"/>
<path d="M38.5345 251.326C38.5345 251.326 28.0478 255.872 23.6477 255.359C19.2477 254.846 15.911 252.389 15.1043 251.656C14.261 250.886 10.3009 251.399 12.7576 254.772C15.1777 258.146 19.321 259.356 20.1277 259.356C20.971 259.356 40.6245 257.082 40.6245 257.082L38.5345 251.326Z" fill="white" stroke="#E84427" stroke-width="3" stroke-linecap="round"/>
<path d="M23.2441 245.459C23.2441 245.459 25.2242 252.609 27.3875 253.783C27.3875 253.783 28.6709 246.999 28.4142 246.303" fill="white"/>
<path d="M23.2441 245.459C23.2441 245.459 25.2242 252.609 27.3875 253.783C27.3875 253.783 28.6709 246.999 28.4142 246.303" stroke="#E84427" stroke-width="3" stroke-linecap="round"/>
<path d="M171.525 254.882C173.725 254.442 180.692 251.839 182.012 251.399C183.332 250.959 210.832 259.246 212.995 259.246C215.195 259.246 276.502 247.182 286.659 247.182C296.816 247.182 307.009 245.899 309.943 246.816C312.913 247.732 336.563 262.326 348.186 272.519C359.81 282.676 374.806 300.79 375.357 302.11C375.907 303.393 379.243 329.28 378.877 330.38C378.51 331.48 372.606 342.187 371.14 342.407C369.673 342.59 366.336 342.223 366.336 342.223C366.336 342.223 366.52 361.803 369.49 366.607C372.46 371.41 386.503 393.96 386.87 394.694C387.237 395.427 382.8 396.93 382.25 397.664C381.7 398.397 385.587 406.537 385.953 412.44C386.32 418.344 387.237 425.201 386.687 425.934C386.137 426.667 380.783 425.934 380.783 425.934C380.783 425.934 380.527 447.787 379.647 449.217C378.73 450.684 374.66 452.004 371.91 452.554C369.123 453.104 349.543 452.187 348.993 452.371C348.443 452.554 337.736 464.214 337.15 463.811C336.6 463.444 337.516 453.837 337.15 452.921C336.783 452.004 324.939 464.178 324.023 463.811C323.106 463.444 324.756 453.654 324.023 452.921C323.289 452.187 313.683 462.528 312.949 462.161C312.216 461.794 313.316 452.921 312.033 452.004C310.749 451.087 307.413 450.867 307.413 449.804C307.413 448.704 309.759 436.641 320.869 427.767C320.869 427.767 328.423 432.021 335.28 430.187C342.1 428.317 347.71 423.734 347.526 422.414C347.343 421.131 337.553 402.467 333.299 397.114C329.046 391.76 321.273 386.59 321.273 386.59C321.273 386.59 315.736 395.83 315.553 398.03C315.369 400.267 316.653 411.707 316.286 412.44C315.919 413.174 309.466 412.44 309.099 412.99C308.733 413.54 308.549 426.301 305.763 430.004C305.763 430.004 301.693 429.454 299.859 427.987C297.989 426.521 289.299 450.354 287.466 451.821C285.596 453.287 275.842 454.057 273.239 453.837C270.636 453.654 261.212 451.417 260.479 452.187C259.746 452.921 247.902 463.628 247.902 462.894C247.902 462.161 248.195 451.784 248.195 451.784C248.195 451.784 236.462 463.994 235.912 463.261C235.362 462.491 236.279 453.654 235.545 453.287C234.812 452.921 226.489 463.444 226.122 462.344C225.755 461.244 226.855 452.371 226.122 451.637C225.389 450.867 221.685 451.271 221.502 449.951C221.319 448.667 229.275 428.684 233.712 426.851C238.149 425.017 251.275 433.341 259.416 429.454C267.556 425.567 268.472 403.384 268.472 403.384H262.386L262.569 380.467C262.569 380.467 235.912 371.263 232.795 371.777C231.695 371.96 234.995 393.777 234.995 393.777C234.995 393.777 227.955 390.11 226.122 393.044C224.289 395.977 225.939 398.397 227.039 400.634C228.139 402.834 233.895 411.89 233.712 412.844C233.529 413.76 227.405 415.044 226.489 414.677C225.572 414.31 225.499 430.811 223.152 433.524C222.052 434.807 217.065 432.607 216.112 432.974C215.195 433.341 211.675 451.087 208.888 452.187C208.888 452.187 194.845 454.974 184.322 452.187C184.322 452.187 170.095 463.444 169.545 463.078C168.995 462.711 170.645 452.187 169.728 451.821C168.811 451.454 158.471 463.078 157.701 462.344C156.968 461.611 158.435 452.737 157.518 452.371C156.601 452.004 147.728 461.978 147.178 461.061C146.628 460.144 147.178 451.087 146.628 450.721C146.078 450.354 142.558 449.987 142.558 449.034C142.558 448.117 150.881 428.904 155.868 427.034C160.855 425.201 179.702 434.624 183.405 428.134C187.108 421.644 182.488 415.374 182.488 415.374L170.095 387.287C170.095 387.287 157.885 405.767 156.968 405.95C156.051 406.134 152.715 402.614 151.981 402.614C151.248 402.614 141.055 429.234 140.321 429.234C139.588 429.234 133.868 424.981 132.915 424.797C131.998 424.614 120.961 445.441 113.701 452.701C111.501 454.937 91.1508 451.234 90.2341 451.601C89.3175 451.967 78.3907 462.124 77.8407 461.574C77.2907 461.024 77.8407 451.784 76.924 451.417C76.0074 451.051 65.4473 463.628 64.9339 462.858C64.3839 462.124 64.3839 452.701 64.3839 452.701L54.9605 461.391L55.1438 450.281C55.1438 450.281 50.7071 451.197 50.1571 450.281C49.6071 449.364 56.7939 431.617 63.1006 426.447C66.0339 424.027 79.4907 431.214 86.4575 427.951C94.3042 424.284 102.261 405.4 103.544 402.797C104.828 400.23 114.801 371.74 114.801 371.74L104.534 371.227C104.534 371.227 115.424 349.63 110.658 346.367C105.854 343.103 98.8876 350.73 98.8876 350.73L98.6675 334.303C98.6675 334.303 93.6442 337.786 92.5442 337.346C91.4442 336.906 87.5208 323.376 88.6208 320.553C88.6208 320.553 79.2341 322.276 78.5741 321.213C77.914 320.113 82.2774 312.266 80.9574 307.023C79.6374 301.816 64.3839 282.163 64.3839 282.163C64.3839 282.163 56.0972 287.846 54.5572 286.746V278.679C54.5572 278.679 44.5104 279.119 41.6871 276.479C41.6871 276.479 47.3704 271.896 47.1504 271.016C47.1504 271.016 28.817 269.476 23.7936 266.213C19.2836 263.279 19.8702 259.246 19.8702 259.246C19.8702 259.246 39.0837 257.926 39.9271 256.642C40.8071 255.322 38.387 248.796 36.0037 247.256C33.5837 245.716 19.8702 245.936 18.3302 243.112C16.7902 240.289 16.3869 235.266 16.3869 235.266C16.3869 235.266 13.5635 233.286 13.7468 230.462C13.9668 227.639 22.6936 225.659 25.9936 225.219C29.257 224.779 41.2104 224.412 43.4471 223.459C48.6905 221.296 53.2738 217.115 55.6939 217.115C58.9572 217.115 85.1374 223.239 87.5575 224.742C89.9408 226.282 90.8208 231.709 95.8442 233.469C100.868 235.229 114.178 237.612 122.024 239.812C129.871 242.012 171.525 254.882 171.525 254.882Z" fill="white" stroke="#E84427" stroke-width="3" stroke-linecap="round"/>
<path d="M114.802 371.74L125.289 371.41" stroke="#E84427" stroke-width="3" stroke-linecap="round"/>
<path d="M156.051 366.167C156.051 366.167 167.674 381.714 170.058 387.25L156.051 366.167Z" fill="white"/>
<path d="M156.051 366.167C156.051 366.167 167.674 381.714 170.058 387.25" stroke="#E84427" stroke-width="3" stroke-linecap="round"/>
<path d="M228.945 345.45C228.945 345.45 232.429 369.65 232.429 372.51L228.945 345.45Z" fill="white"/>
<path d="M228.945 345.45C228.945 345.45 232.429 369.65 232.429 372.51" stroke="#E84427" stroke-width="3" stroke-linecap="round"/>
<path d="M262.46 380.43C262.46 380.43 278.703 386.48 281.527 388.423C281.527 388.423 283.91 381.017 283.25 379.917C282.59 378.817 296.56 388.863 297.66 390.843C298.76 392.823 304.004 381.677 304.004 381.677" fill="white"/>
<path d="M262.46 380.43C262.46 380.43 278.703 386.48 281.527 388.423C281.527 388.423 283.91 381.017 283.25 379.917C282.59 378.817 296.56 388.863 297.66 390.843C298.76 392.823 304.004 381.677 304.004 381.677" stroke="#E84427" stroke-width="3" stroke-linecap="round"/>
<path d="M321.201 386.517C321.201 386.517 295.901 368.11 292.857 366.167L321.201 386.517Z" fill="white"/>
<path d="M321.201 386.517C321.201 386.517 295.901 368.11 292.857 366.167" stroke="#E84427" stroke-width="3" stroke-linecap="round"/>
<path d="M366.299 342.48C366.299 342.48 366.042 333.717 367.692 325.356L366.299 342.48Z" fill="white"/>
<path d="M366.299 342.48C366.299 342.48 366.042 333.717 367.692 325.356" stroke="#E84427" stroke-width="3" stroke-linecap="round"/>
<path d="M83.817 233.872C83.817 233.872 93.0571 235.412 91.6271 242.086C90.2337 248.796 82.5703 248.906 82.5703 248.906" fill="white"/>
<path d="M83.817 233.872C83.817 233.872 93.0571 235.412 91.6271 242.086C90.2337 248.796 82.5703 248.906 82.5703 248.906" stroke="#E84427" stroke-width="3" stroke-linecap="round"/>
<path d="M52.4295 227.566C52.4295 227.566 50.8162 230.316 51.9162 233.872L52.4295 227.566Z" fill="white"/>
<path d="M52.4295 227.566C52.4295 227.566 50.8162 230.316 51.9162 233.872" stroke="#E84427" stroke-width="3" stroke-linecap="round"/>
<path d="M51.0024 231.049C51.0024 231.049 48.3624 230.132 45.9424 231.049H51.0024Z" fill="white"/>
<path d="M51.0024 231.049C51.0024 231.049 48.3624 230.132 45.9424 231.049" stroke="#E84427" stroke-width="3" stroke-linecap="round"/>
<path d="M21.5943 258.439C21.5943 258.439 21.081 251.142 21.521 250.262C21.961 249.382 27.791 258.329 27.791 258.329" fill="white"/>
<path d="M21.5943 258.439C21.5943 258.439 21.081 251.142 21.521 250.262C21.961 249.382 27.791 258.329 27.791 258.329" stroke="#E84427" stroke-width="3" stroke-linecap="round"/>
<path d="M16.3877 235.119C16.3877 235.119 19.7244 234.312 21.1177 233.799" stroke="#E84427" stroke-width="3" stroke-linecap="round"/>
</g>
<defs>
<clipPath id="clip0">
<rect x="0.839844" y="0.487305" width="400" height="571.05" fill="white"/>
</clipPath>
</defs>
</svg>
