<svg width="401" height="523" viewBox="0 0 401 523" fill="none" xmlns="http://www.w3.org/2000/svg">
<g clip-path="url(#clip0)">
<path d="M38.9022 303.419L37.4881 303.92L38.9022 303.419C10.1226 222.099 -1.49793 123.51 3.44369 1.9873H398.24C403.171 123.51 391.551 222.089 362.781 303.42C331.051 393.093 278.091 464.014 200.842 520.223C123.592 464.014 70.6327 393.093 38.9022 303.419Z" fill="white" stroke="#1D1D1B" stroke-width="3"/>
<path fill-rule="evenodd" clip-rule="evenodd" d="M265.516 388.235C231.672 305.624 221.346 213.158 227.776 134.499C271.156 132.26 325.34 149.533 355.558 168.364V40.6296C323.585 59.8152 265.516 75.1808 200.601 75.1808C135.687 75.1808 77.6173 59.8152 45.6445 40.6296V168.364C75.8626 149.533 130.046 132.26 173.427 134.499C179.857 213.158 169.53 305.624 135.687 388.235C178.963 388.235 222.239 388.235 265.516 388.235Z" fill="#0085CA"/>
</g>
<defs>
<clipPath id="clip0">
<rect x="0.839844" y="0.487305" width="400" height="521.59" fill="white"/>
</clipPath>
</defs>
</svg>
