<svg width="401" height="523" viewBox="0 0 401 523" fill="none" xmlns="http://www.w3.org/2000/svg">
<g clip-path="url(#clip0)">
<path d="M201.131 521.864C278.944 465.41 332.279 394.109 364.192 303.92C393.131 222.149 404.742 123.05 399.695 0.968926L399.675 0.487305H2.0011L1.98016 0.968926C-3.05594 123.05 8.55535 222.138 37.4841 303.92C69.3968 394.109 122.731 465.41 200.545 521.864L200.838 522.074L201.131 521.864Z" fill="#0085CA"/>
<path fill-rule="evenodd" clip-rule="evenodd" d="M381.519 244.094C369.112 297.805 354.517 331.812 340.278 359.935C292.252 341.717 231.86 290.874 201.079 255.266C170.297 290.874 109.905 341.717 61.8792 359.935C47.64 331.812 33.0447 297.805 20.6377 244.094C101.131 207.574 162.727 142.943 201.079 45.8645C239.43 142.943 301.026 207.574 381.519 244.094Z" fill="white"/>
<path d="M362.777 303.419L364.192 303.92L362.777 303.419C331.047 393.093 278.087 464.014 200.838 520.223C123.588 464.014 70.6287 393.093 38.8982 303.42C10.129 222.089 -1.49148 123.51 3.43975 1.9873H398.236C403.178 123.51 391.557 222.099 362.777 303.419Z" stroke="#0085CA" stroke-width="3"/>
</g>
<defs>
<clipPath id="clip0">
<rect x="0.839844" y="0.487305" width="400" height="521.59" fill="white"/>
</clipPath>
</defs>
</svg>
