<svg width="401" height="523" viewBox="0 0 401 523" fill="none" xmlns="http://www.w3.org/2000/svg">
<g clip-path="url(#clip0)">
<path d="M200.549 522.032C122.735 465.578 69.4008 394.276 37.4881 304.087C8.5489 222.316 -3.06238 123.217 1.98418 1.13653L2.00512 0.654907H399.679L399.7 1.13653C404.736 123.217 393.124 222.306 364.196 304.087C332.283 394.276 278.948 465.578 201.135 522.032L200.842 522.241L200.549 522.032Z" fill="#E00E00"/>
<path d="M187.283 194.322C179.307 189.93 177.824 187.861 171.469 191.771C164.446 196.092 161.726 197.385 156.316 201.532C144.084 210.907 134.905 216.127 122.514 220.89C117.469 222.83 108.686 226.16 103.281 224.52L106.265 219.649C98.3747 221.662 83.0945 219.402 75.4455 212.408L79.6593 208.473C73.4107 205.727 63.5167 196.492 61.5227 189.816L66.9687 186.952C60.1247 182.001 53.0347 172.425 51.9636 166.679L56.805 164.48C50.1356 160.168 44.1673 149.951 42.2668 144.809L47.7005 143.469C43.0349 139.752 36.9013 132.072 34.3709 124.918L38.7934 124.443C34.2768 121.074 29.4186 112.488 28.6948 108.448L32.8197 108.007C29.197 105.082 23.4759 95.5191 22.1006 90.0635C27.4637 88.3627 38.6063 88.1966 42.9999 89.7383L41.2048 85.9985C45.0205 84.4888 54.8786 84.1027 60.1196 86.1714L58.1968 82.1603C65.6118 80.5485 75.3703 81.7238 80.986 83.7357L79.2668 78.4099C84.6388 77.3212 96.4675 77.0212 103.644 80.4239L102.967 75.1499C108.417 73.0375 120.29 74.0289 128.101 77.2443L127.671 71.1063C134.398 69.2894 147.457 72.8444 153.08 76.7138L154.21 71.0599C164.182 73.8848 174.143 85.6905 176.582 93.4598L179.155 88.3596C183.393 92.0927 185.182 101.313 186.187 106.625C188.655 119.668 187.77 131.587 186.234 146.922C185.554 153.705 181.891 166.252 181.912 174.497C181.93 181.959 182.632 183.466 190.598 187.876C196.913 191.373 196.334 182.464 200.601 182.464C204.867 182.464 204.289 191.373 210.604 187.876C218.569 183.466 219.271 181.959 219.29 174.497C219.31 166.252 215.648 153.705 214.968 146.922C213.431 131.587 212.546 119.668 215.015 106.625C216.02 101.313 217.808 92.0927 222.047 88.3596L224.62 93.4598C227.059 85.6905 237.02 73.8848 246.992 71.0599L248.121 76.7138C253.744 72.8444 266.803 69.2894 273.53 71.1063L273.1 77.2443C280.911 74.0289 292.785 73.0375 298.235 75.1499L297.557 80.4239C304.734 77.0212 316.563 77.3212 321.935 78.4099L320.215 83.7357C325.831 81.7238 335.59 80.5485 343.005 82.1603L341.082 86.1714C346.323 84.1027 356.181 84.4888 359.997 85.9985L358.202 89.7383C362.595 88.1966 373.738 88.3627 379.101 90.0635C377.725 95.5191 372.004 105.082 368.382 108.007L372.507 108.448C371.783 112.488 366.925 121.074 362.408 124.443L366.831 124.918C364.3 132.072 358.166 139.752 353.501 143.469L358.935 144.809C357.034 149.951 351.066 160.168 344.396 164.48L349.238 166.679C348.167 172.425 341.077 182.001 334.233 186.952L339.679 189.816C337.685 196.492 327.791 205.727 321.542 208.473L325.756 212.408C318.107 219.402 302.827 221.662 294.936 219.649L297.92 224.52C292.515 226.16 283.733 222.83 278.687 220.89C266.297 216.127 257.118 210.907 244.886 201.532C239.475 197.385 236.756 196.092 229.733 191.771C223.378 187.861 221.894 189.93 213.918 194.322C206.356 198.485 217.874 204.579 214.684 209.29C212.076 213.143 203.929 207.901 203.907 215.772C203.881 225.7 203.364 231.51 210.461 235.489C218.305 239.885 226.739 242.292 233.56 245.245C248.983 251.921 260.806 257.404 271.92 266.679C276.446 270.455 284.28 277.053 285.586 283.072L279.362 282.815C285.468 289.263 291.426 305.017 288.824 316.015L282.839 314.09C283.54 321.5 279.995 335.826 274.694 341.269L269.075 337.602C267.992 346.749 262.634 358.585 257.729 362.655L253.065 359.211C252.497 367.853 245.933 378.961 242.044 383.5L237.884 379.036C236.819 385.453 232.759 395.372 227.288 401.579L224.488 397.619C223.677 403.709 218.076 412.894 214.613 415.728L212.003 412.033C211.14 417.036 205.067 427.562 200.601 431.767C196.134 427.562 190.061 417.036 189.198 412.033L186.588 415.728C183.125 412.894 177.525 403.709 176.713 397.619L173.913 401.579C168.442 395.372 164.382 385.453 163.318 379.036L159.157 383.5C155.269 378.961 148.704 367.853 148.137 359.211L143.472 362.655C138.567 358.585 133.209 346.749 132.126 337.602L126.508 341.269C121.206 335.826 117.661 321.5 118.362 314.09L112.377 316.015C109.775 305.017 115.733 289.263 121.839 282.815L115.616 283.072C116.922 277.053 124.755 270.455 129.281 266.679C140.395 257.404 152.218 251.921 167.641 245.245C174.463 242.292 182.896 239.885 190.74 235.489C197.838 231.51 197.321 225.7 197.294 215.772C197.273 207.901 189.126 213.143 186.517 209.29C183.327 204.579 194.846 198.485 187.283 194.322Z" fill="#FFE000"/>
</g>
<defs>
<clipPath id="clip0">
<rect x="0.839844" y="0.654907" width="400" height="521.59" fill="white"/>
</clipPath>
</defs>
</svg>
