<svg width="401" height="523" viewBox="0 0 401 523" fill="none" xmlns="http://www.w3.org/2000/svg">
<g clip-path="url(#clip0)">
<path d="M200.566 522.048C124.738 468.255 67.6975 392.027 37.4798 304.104C8.53796 222.34 -3.07177 123.245 1.99029 1.15011V0.654907H399.693V1.15011C404.755 123.245 393.09 222.34 364.203 304.104C334 392.02 276.979 468.246 201.172 522.048H200.896H200.566Z" fill="#0085CA"/>
<path d="M215.754 393.735C210.252 407.49 199.248 412.387 185.437 436.102L190.939 436.982V442.98L196.442 444.025L196.992 450.683L203.87 451.178L204.75 457.451L211.793 457.066L213.719 462.568C215.697 461.357 217.409 459.757 218.752 457.866C220.095 455.974 221.04 453.83 221.532 451.563C226.104 438.182 232.196 425.37 239.689 413.378C255.206 387.572 276.994 356.154 288.714 333.375C298.893 313.567 300.654 289.907 300.104 265.698C298.783 198.845 261.588 153.617 209.592 107.288C189.454 88.4152 181.695 68.1119 167.39 46.1029C157.541 30.8067 143.18 23.1035 116.439 32.7325C106.26 36.3089 96.9059 40.2155 85.021 38.2347C77.3179 36.9692 76.3825 52.2104 78.9135 59.0882C79.3957 60.4012 80.0232 61.6562 80.7843 62.8297C81.6799 64.0674 82.8468 65.0837 84.1957 65.801C82.7651 79.9967 106.205 85.1138 112.422 98.8144C118.64 112.515 104.004 128.582 106.59 149.655C107.566 158.2 110.689 166.358 115.669 173.37C109.616 173.04 99.1618 167.317 94.705 171.334C83.5658 180.915 76.3232 194.245 74.3467 208.804L82.6551 204.347L86.2315 208.859L94.0447 204.182L97.6762 209.3L103.949 205.008L108.13 210.51L114.733 205.998L118.475 211.5L124.527 209.079L125.518 215.187H131.625C122.381 224.651 113.027 230.813 105.544 241.818C96.6374 259.565 91.5574 278.985 90.6333 298.821L95.6954 294.859L101.198 298.216L107.8 290.788L111.707 293.814L118.64 282.039L122.106 284.735L128.324 273.236L132.01 276.317C132.01 276.317 133.826 271.42 135.807 263.552C137.237 258.325 143.18 257.169 148.682 257.609C152.236 257.886 155.649 259.122 158.556 261.186C161.463 263.25 163.756 266.065 165.189 269.329C183.181 299.701 205.85 304.213 224.833 326.387C244.861 349.827 226.594 372.496 207.556 376.843C191.049 380.694 174.543 376.458 162.108 381.74L166.014 385.371L161.227 390.874L164.639 394.285L160.457 399.017L164.033 402.814L159.356 407.766C163.763 410.423 168.954 411.472 174.047 410.737C206.731 401.493 215.864 393.295 215.864 393.295L215.754 393.735Z" fill="white" stroke="black" stroke-linecap="round" stroke-linejoin="round"/>
<path d="M115.295 41.3952C117.275 40.8268 119.359 40.7219 121.386 41.0885C122.2 41.3244 122.919 42.2856 123.172 43.8056C123.421 45.3003 123.182 47.1926 122.219 48.9929C122.136 49.1288 121.921 49.2873 121.457 49.3883C121.001 49.4879 120.392 49.5109 119.672 49.4561C118.237 49.3468 116.46 48.9361 114.796 48.342C113.125 47.7455 111.62 46.9828 110.699 46.1972C110.236 45.8023 109.965 45.4386 109.861 45.1289C109.772 44.8649 109.794 44.6175 109.986 44.3496C111.507 42.9721 113.323 41.9613 115.295 41.3952Z" fill="black" stroke="black"/>
<path d="M78.7383 56.801C78.7224 56.7591 78.7065 56.7162 78.6906 56.6722C78.4191 55.9207 78.1834 54.9497 78.0083 53.84C77.6581 51.6206 77.5586 48.8994 77.8722 46.3709C78.1878 43.8258 78.9118 41.5577 80.14 40.1665C80.7454 39.4808 81.468 39.0135 82.3295 38.8176C82.9173 38.684 83.5893 38.6723 84.3571 38.822C84.2913 38.8687 84.2265 38.9178 84.1638 38.9692C83.8962 39.1884 83.5659 39.5311 83.51 39.9832C83.4454 40.5054 83.76 40.928 84.2474 41.2388C85.4994 42.0875 87.0028 42.4848 88.5104 42.3658C88.5837 42.3647 88.6142 42.3843 88.6322 42.3996C88.6588 42.4221 88.7036 42.4778 88.7382 42.6009C88.8101 42.8565 88.8008 43.2785 88.65 43.7969C88.352 44.8215 87.5688 45.993 86.3542 46.5815C84.0122 47.5438 82.0213 49.2009 80.6499 51.3297C79.5846 52.9833 78.933 54.8597 78.7383 56.801Z" fill="black" stroke="black"/>
<path d="M84.1953 65.7462L104.664 76.0354" stroke="black" stroke-linecap="round"/>
<path d="M98.1719 67.1768C102.103 72.0808 105.777 77.1864 109.176 82.473" stroke="black" stroke-linecap="round"/>
<path d="M102.46 60.2439C111.446 63.6253 119.38 69.3195 125.459 76.7506" stroke="black" stroke-linecap="round"/>
<path d="M103.287 54.7418C113.237 55.6639 122.747 59.2779 130.798 65.1961" stroke="black" stroke-linecap="round"/>
<path d="M109.009 45.3329C110.513 43.5347 112.465 42.1655 114.668 41.3636C116.87 40.5617 119.246 40.3555 121.554 40.766C125.936 41.5134 129.975 43.6101 133.109 46.7634" stroke="black" stroke-linecap="round"/>
<path d="M133.109 46.7087C129.539 48.5674 125.578 49.5483 121.554 49.5699C117.045 49.431 112.679 47.9564 109.009 45.3331" stroke="black" stroke-linecap="round"/>
</g>
<defs>
<clipPath id="clip0">
<rect x="0.839844" y="0.654907" width="400" height="521.39" fill="white"/>
</clipPath>
</defs>
</svg>
