<svg width="401" height="523" viewBox="0 0 401 523" fill="none" xmlns="http://www.w3.org/2000/svg">
<g clip-path="url(#clip0)">
<path d="M200.549 522.032C122.735 465.578 69.4008 394.276 37.4881 304.087C8.5489 222.316 -3.06238 123.217 1.98418 1.13653L2.00512 0.654907H399.679L399.7 1.13653C404.736 123.217 393.124 222.306 364.196 304.087C332.283 394.276 278.948 465.578 201.135 522.032L200.842 522.241L200.549 522.032Z" fill="#E00E00"/>
<path d="M37.9528 172.139C39.7866 169.627 36.2974 167.192 34.1228 168.714C29.4258 172.001 27.3486 176.937 27.501 181.695C27.7661 189.978 34.8676 198.411 43.7243 198.202C51.1424 198.026 58.0317 194.242 60.1565 184.739C71.631 183.415 88.1312 182.813 105.992 182.378C124.315 181.932 141.144 181.851 159.888 189.227C153.551 219.309 141.581 252.9 131.149 279.147C143.425 273.875 150.977 262.85 156.735 249.284C164.032 232.089 169.134 213.337 175.933 191.988L211.511 200.33C213.287 238.989 185.235 277.844 148.818 293.432C165.782 305.737 194.188 309.426 217.732 309.053C222.326 308.981 226.916 301.337 231.508 297.364C309.335 290.762 335.155 274.634 335.531 255.288C335.775 242.726 323.545 239.353 311.277 237.116L310.115 202.019L327.741 200.265L327.848 184.034L311.592 183.287L335.895 69.1312C345.759 62.8279 358.302 59.2331 382.93 59.5793C390.522 59.686 390.593 50.0953 383.72 47.8826C375.482 45.2308 365.001 44.6174 357.242 45.1219C339.399 46.282 326.47 53.487 313.445 63.8809C289.963 82.6181 192.413 171.664 192.413 171.664L181.327 168.675L184.894 156.376C185.922 152.834 175.419 149.209 174.405 151.827L168.749 166.427C140.41 165.931 81.2427 169.035 54.3895 175.821C55.2075 184.867 49.025 190.311 43.3691 190.095C38.8113 189.921 34.5027 186.403 34.5429 181.012C34.5621 178.431 35.5582 175.421 37.9528 172.139Z" fill="#FFE000"/>
<path d="M237.901 219.52C230.561 217.771 231.798 208.196 241.554 207.517L292.766 203.951L294.034 232.899L237.901 219.52Z" fill="#E00E00"/>
<path d="M221.591 179.273L212.361 178.959C210.861 178.908 209.282 176.204 211.128 174.562L314.588 82.2445L293.261 182.349L238.957 180.159L237.919 171.889C237.702 170.161 225.219 169.121 224.239 171.864L221.591 179.273Z" fill="#E00E00"/>
</g>
<defs>
<clipPath id="clip0">
<rect x="0.839844" y="0.654907" width="400" height="521.59" fill="white"/>
</clipPath>
</defs>
</svg>
