<svg width="401" height="523" viewBox="0 0 401 523" fill="none" xmlns="http://www.w3.org/2000/svg">
<g clip-path="url(#clip0)">
<path d="M201.131 522.032C278.944 465.578 332.279 394.276 364.192 304.087C393.131 222.316 404.742 123.217 399.695 1.13653L399.675 0.654907H2.0011L1.98016 1.13653C-3.05594 123.217 8.55535 222.306 37.4841 304.087C69.3968 394.276 122.731 465.578 200.545 522.032L200.838 522.241L201.131 522.032Z" fill="#0085CA"/>
<path d="M121.883 253.611C125.495 240.89 135.253 228.242 143.891 216.149C150.759 206.475 156.465 195.188 156.109 180.823C155.733 165.663 154.979 155.947 144.76 146.995C136.028 139.341 123.213 134.033 104.953 128.997C79.1337 121.877 47.0011 117.302 48.4041 104.245C43.3366 104.088 35.9552 111.355 30.6155 129.949C22.6373 69.9351 35.1281 45.8226 73.2809 36.6613C90.567 32.5152 110.355 32.3581 141.399 31.4891C149.335 21.2599 211.59 17.3545 256.203 28.5366C271.898 32.4733 291.309 41.3938 308.805 53.2668C331.116 68.417 343.869 82.9389 349.868 103.492C345.9 100.696 340.634 97.4295 336.477 96.0579C351.774 132.797 337.911 176.646 346.633 224.4C341.147 220.955 336.55 210.81 334.111 203.889C333.462 226.578 336.09 266.112 346.068 304.119C339.995 305.124 324.709 296.591 320.563 290.382C322.678 321.007 319.338 357.087 308.941 383.136C301.57 401.605 288.953 418.263 275.908 432.722C267.616 441.915 258.538 450.176 249.084 457.358C257.261 445.894 271.563 419.614 278.745 400.841C286.43 380.76 285.373 361.296 276.431 347.088C268.38 365.379 249.722 381.932 230.51 394.266C198.335 414.913 177.133 443.13 207.989 491.836C169.982 472.477 139.431 413.196 165.941 343.12C144.718 366.96 107.78 390.57 129.652 440.219C101.131 414.347 91.5512 379.388 95.3727 353.255C97.9798 335.361 107.078 316.369 112.25 303.114C102.754 308.537 92.6401 321.52 83.8557 332.336C84.2954 327.854 87.4888 317.112 94.6398 305.773C108.429 283.932 132.363 256.26 148.676 242.293C140.991 244.513 132.227 246.921 121.893 253.622L121.883 253.611Z" fill="white" stroke="#0085CA" stroke-width="3" stroke-linecap="round" stroke-linejoin="round"/>
<path d="M48.3936 104.162C84.1488 108.172 121.139 117.103 157.502 123.573" stroke="#0085CA" stroke-width="3" stroke-linejoin="round"/>
<path d="M174.914 68.8672C181.073 68.8672 186.065 63.875 186.065 57.7166C186.065 51.5583 181.073 46.566 174.914 46.566C168.756 46.566 163.764 51.5583 163.764 57.7166C163.764 63.875 168.756 68.8672 174.914 68.8672Z" fill="#0085CA" stroke="#0085CA" stroke-width="3" stroke-linecap="round" stroke-linejoin="round"/>
<path fill-rule="evenodd" clip-rule="evenodd" d="M155.293 45.54C164.098 51.0054 198.838 45.205 211.632 43.7183L155.293 45.54Z" fill="white"/>
<path d="M155.293 45.54C164.098 51.0054 198.838 45.205 211.632 43.7183" stroke="#0085CA" stroke-width="3" stroke-linecap="round"/>
</g>
<defs>
<clipPath id="clip0">
<rect x="0.839844" y="0.654907" width="400" height="521.59" fill="white"/>
</clipPath>
</defs>
</svg>
