<svg width="401" height="523" viewBox="0 0 401 523" fill="none" xmlns="http://www.w3.org/2000/svg">
<g clip-path="url(#clip0)">
<path d="M38.9022 303.587L37.4881 304.087L38.9022 303.587C10.1226 222.267 -1.49793 123.678 3.44369 2.15491H398.24C403.171 123.678 391.551 222.257 362.781 303.587C331.051 393.261 278.091 464.182 200.842 520.391C123.592 464.182 70.6327 393.261 38.9022 303.587Z" fill="white" stroke="#1D1D1B" stroke-width="3"/>
<path d="M221.695 103.483C226.829 102.386 236.762 102.978 243.52 101.263C247.107 100.353 252.838 97.994 254.206 98.0546C284.947 99.4145 290.31 94.9544 296.656 91.7367C299.485 90.3023 299.627 88.2054 298.353 88.1977C293.915 88.1711 285.382 89.222 285.802 85.371C286.382 80.0568 308.79 85.7691 306.455 67.177C305.719 61.3135 301.416 63.2968 285.627 61.267C275.743 59.9964 257.853 54.0837 257.81 51.3587C257.705 44.6944 278.998 51.9047 281.834 39.9822C276.016 42.3249 264.523 42.4692 257.486 40.3192C252.866 38.9076 265.391 35.4644 265.292 28.3014C259.554 31.9942 254.616 31.6268 245.893 32.73C238.841 33.622 240.297 38.9255 231.065 39.4982C230.098 35.2822 230.98 24.7667 236.952 18.4529C224.428 17.589 216.299 30.9498 212.667 38.722C202.85 36.333 201.317 30.1814 190.09 30.067C177.77 29.9416 176.413 36.3915 165.229 37.5976C160.128 38.1478 153.052 37.5192 142.751 33.7145C146.731 41.3202 157.848 48.042 167.435 46.3075C177.614 44.466 183.322 44.9531 186.319 46.5111C190.13 48.4924 189.237 54.8076 186.607 56.1703C183.397 57.8329 174.75 60.6453 166.275 59.5602C159.264 58.6626 149.727 52.9385 139.97 52.2012C135.428 51.858 127.213 54.2815 121.841 60.1897C118.01 64.4028 116.116 65.6181 113.609 68.7889C121.388 67.9804 130.156 61.3688 135.704 62.1192C139.665 62.655 145.676 65.3753 149.982 67.432C158.339 71.4239 168.571 69.4394 168.714 75.1058C168.768 77.2489 168.98 78.8428 167.014 79.5438C150.28 85.5103 149.014 76.4888 133.147 76.8215C126.38 76.9634 110.597 91.6242 112.617 104.689C116.301 98.9597 123.365 85.0569 130.173 87.3358C149.233 94.4464 157.829 88.0338 160.646 93.5858C162.395 97.0323 152.583 102.956 134.091 104.874C122.172 106.11 124.974 127.105 130.869 134.639C130.359 121.013 133.097 116.101 138.679 114.115C145.704 111.616 153.175 110.08 155.184 112.538C158.532 116.636 144.169 149.529 135.23 150.394C131.169 150.787 116.268 131.197 100.248 124.504C91.1335 120.696 97.8795 109.205 82.9921 106.581C77.0221 105.529 70.7373 109.689 63.5019 124.509C55.8515 140.179 30.85 157.773 26.6034 181.802C25.3932 188.65 28.5466 194.465 27.8452 200.566C27.498 203.587 25.5677 207.202 25.2208 210.112C24.4238 216.798 25.734 222.855 28.652 227.1C30.6605 230.021 51.0614 204.757 49.3869 202.746C46.4743 199.246 42.1847 198.203 39.5344 195.299C37.3581 192.914 43.7551 189.958 44.1611 188.135C45.3872 182.629 39.0634 185.202 38.1047 175.283C36.8674 162.482 60.0764 157.272 69.4882 149.596C77.5122 143.052 80.6822 134.634 85.7424 134.7C88.5009 134.736 95.0147 170.32 114.492 181.471C119.062 184.088 117.27 188.043 113.15 187.662C104.861 186.895 101.635 192.891 90.3581 194.253C84.9632 194.905 76.3046 193.478 70.7618 195.226C62.8082 197.734 65.9429 214.687 66.4156 226.183C67.3009 247.717 64.5451 263.647 68.2503 277.876C73.552 298.237 95.9267 308.986 101.276 307.518C104.953 306.508 95.733 275.388 93.1523 277.903C91.0011 279.999 89.5545 283.142 87.7153 283.832C87.2551 284.004 84.4883 283.287 84.0483 281.788C83.5591 280.122 84.3907 278.267 83.0994 275.555C81.2807 271.736 78.0588 279.536 75.5169 267.015C74.2456 260.753 75.6943 251.907 79.0279 243.684C82.3352 235.525 85.7729 227.514 85.1297 217.225C97.6107 220.909 104.574 220.639 117.357 224.409C125.582 226.834 135.32 227.899 136.57 230.31C145.306 247.151 153.681 251.054 166.755 255.658C179.949 260.305 191.771 262.392 192.725 266.596C194.534 274.568 134.524 285.396 135.651 303.597C136.488 317.109 147.157 330.914 181.847 352.455C183.064 353.211 184.08 355.638 181.825 358.252C171.252 370.51 160.933 377.839 151.688 386.413C148.624 389.254 145.622 393.773 142.313 396.311C133.594 402.999 132.266 399.005 125.256 404.397C123.443 405.791 122.472 408.673 120.896 412.547C119.744 415.379 116.675 417.549 117.412 421.365H147.836C147.836 421.365 147.665 419.085 147.356 417.993C146.912 416.42 145.404 413.496 145.404 413.496C143.493 409.093 149.441 406.071 153.809 407.218C155.033 407.539 158.266 405.969 156.937 402.405C155.664 398.99 168.433 388.054 174.067 383.9C187.959 373.656 204.443 372.88 213.179 368.473C216.673 366.71 217.748 362.118 216.177 358.263C213.776 352.373 191.887 347.879 185.486 317.289C183.367 307.159 232.076 303.592 229.272 311.666C225.683 322.001 219.272 336.869 220.889 342.564C222.958 349.847 241.674 360.709 264.538 377.534C262.908 382.999 259.194 393.506 253.247 404.107C248.634 412.331 242.372 420.305 236.647 427.978C230.708 435.94 226.433 436.112 219.407 439.855C216.225 441.55 214.186 445.443 211.842 449.668C209.622 453.667 206.55 456.613 206.814 459.396H239.174C238.025 451.359 234.254 454.781 235.539 448.193C236.181 444.904 248.313 447.708 247.823 444.077C246.445 433.885 259.398 420.526 264.788 413.503C283.231 389.472 298.025 397.17 303.6 381.495C304.808 378.097 295.385 373.652 287.57 366.08C278.497 357.29 271.084 344.245 272.494 337.656C276.457 319.14 307.251 326.891 319.82 285.997C321.07 281.931 327.58 277.285 330.748 276.554C340.013 274.417 350.321 262.966 352.416 249.444C353.747 240.844 349.504 240.135 347.002 222.324C344.412 203.892 348.738 187.21 369.544 183.261C364.815 178.74 352.874 181.522 348.659 183.929C344.352 186.389 340.291 185.039 340.768 181.267C342.796 165.231 371.287 174.583 362.044 136.867C360.345 148.034 356.918 152.839 353.876 155.317C349.257 159.078 344.156 158.359 338.05 162.621C335.558 164.361 329.781 168.931 328.877 165.939C326.122 156.822 335.847 152.038 343.049 145.266C349.659 139.051 352.744 131.937 348.086 117.544C347.07 133.942 335.033 135.322 325.834 141.159C321.423 143.959 320.324 145.261 318.726 148.284C316.714 152.09 311.885 153.046 311.11 149.759C310.451 146.968 310.472 142.774 312.529 139.055C321.193 123.384 343.055 126.766 334.12 93.662C331.788 117.419 320.346 117.969 311.583 121.628C303.747 124.9 294.173 133.318 288.342 147.429C286.345 157.542 279.461 175.526 281.872 184.188C286.966 200.55 290.116 214.513 299.67 220.02C306.5 223.957 328.969 224.266 333.587 253.05C334.339 257.734 328.129 270.881 321.055 268.646C313.007 266.104 311.807 255.031 303.76 249.695C283.147 236.024 260.448 235.406 247.352 214.628C236.532 197.463 233.954 167.577 215.379 143.217C211.299 137.868 209.951 131.586 213.21 125.226C217.287 117.27 219.684 103.913 221.695 103.483L221.695 103.483Z" fill="black"/>
<path d="M241.108 63.7402C241.15 58.7354 254.406 56.0712 256.692 62.0246C259.492 69.3135 245.294 68.4492 241.108 63.7402Z" fill="white"/>
<path d="M289.981 72.0546C290.201 67.7024 297.392 67.8673 299.049 71.4482C300.431 74.4339 289.859 74.4482 289.981 72.0546Z" fill="white"/>
</g>
<defs>
<clipPath id="clip0">
<rect x="0.839844" y="0.654907" width="400" height="521.59" fill="white"/>
</clipPath>
</defs>
</svg>
