<svg width="401" height="523" viewBox="0 0 401 523" fill="none" xmlns="http://www.w3.org/2000/svg">
<g clip-path="url(#clip0)">
<path d="M38.9022 303.587L37.4881 304.087L38.9022 303.587C10.1226 222.267 -1.49793 123.678 3.44369 2.15491H398.24C403.171 123.678 391.551 222.257 362.781 303.587C331.051 393.261 278.091 464.182 200.842 520.391C123.592 464.182 70.6327 393.261 38.9022 303.587Z" fill="white" stroke="#1D1D1B" stroke-width="3"/>
<path d="M164.144 443.967C152.92 432.66 150.324 403.574 154.491 380.969C151.978 380.969 142.43 389.125 139.1 396.203C131.373 412.589 138.063 422.368 145.968 435.665C122.714 420.902 120.306 406.547 119.259 382.414C117.668 345.863 136.996 314.359 159.737 290.455C155.004 288.121 147.654 288.508 140.733 291.314C142.827 283.168 153.643 272.311 167.149 269.662C164.605 267.809 158.061 266.521 153.444 266.887C156.009 260.993 164.71 257.255 180.708 256.26C179.378 254.334 174.97 251.769 174.499 247.748L186.561 248.512C211.176 250.072 217.353 241.498 225.52 234.221C234.723 226.023 237.142 209.302 233.969 197.638C229.498 181.211 223.782 177.442 196.214 170.05C179.713 165.621 164.05 156.407 152.617 148.178C119.448 124.034 97.9318 114.129 75.7039 109.345C68.8774 107.879 54.9522 106.989 39.823 110.255C39.7916 103.89 49.4973 95.2309 55.9678 94.4247C79.1799 91.535 105.512 97.5553 119.908 101.618C146.942 109.25 168.594 116.988 168.594 116.988C166.95 108.706 155.507 99.042 147.413 95.2519C124.013 84.2793 105.125 77.725 76.5729 82.604C59.5486 85.5147 51.8112 81.913 50.1151 76.7932C48.7016 72.5214 50.9003 67.234 58.4073 66.1975C56.8264 74.2385 63.9355 75.296 69.7464 74.5212C101.565 70.3331 132.902 78.238 167.013 94.8226C164.071 86.0906 129.216 69.9981 113.469 64.6584C96.9685 59.0674 76.0913 53.8952 64.3753 52.4294C49.2879 50.5448 39.4042 58.167 35.8758 66.8257C29.7927 45.2783 46.9008 30.3585 62.721 30.5993C80.2165 30.8715 91.4194 37.9598 121.531 49.8851C128.892 52.8063 136.629 54.8898 144.503 56.7326L152.931 52.4922C189.252 34.2324 249.748 44.8386 299.784 67.0351C318.557 75.3588 338.617 92.1632 352.783 116.265C361.683 131.405 366.133 140.346 366.248 151.528C366.248 151.528 363.013 148.398 357.202 146.576C364.772 158.135 365.096 167.715 363.651 173.495C361.589 170.542 359.966 164.229 353.705 162.386C356.416 168.385 358.615 184.603 355.359 189.147C354.375 185.409 350.124 177.819 346.47 176.793C346.449 192.571 348.051 208.077 343.988 219.594C337.581 237.728 332.608 246.23 310.034 277.745C288.078 308.38 277.504 321.311 273.902 338.377C264.919 380.875 281.231 387.178 277.012 404.914C274.195 416.735 263.715 420.462 251.653 418.085C263.809 408.076 261.076 389.303 245.078 383.629C240.9 394.444 238.021 404.788 231.394 413.332C221.855 425.624 210.254 436.01 196.256 436.062C205.051 426.472 209.919 417.457 209.961 408.778C209.982 403.197 205.208 386.696 199.439 385.377C196.068 384.613 182.53 399.156 177.515 408.641C170.458 421.991 166.49 435.34 188.184 454.804C177.033 453.621 169.39 449.213 164.165 443.946L164.144 443.967ZM231.582 167.474C236.922 164.344 244.052 153.957 245.193 146.911C248.732 125.112 246.586 98.6965 227.331 88.7709C216.139 83.0019 207.25 83.9756 197.847 90.9277C187.671 98.3301 187.084 98.1521 193.712 110.632C199.083 120.746 198.549 124.798 196.246 131.185C192.183 142.44 178.614 144.995 169.641 151.11C171.149 154.282 179.619 158.418 186.686 161.046C210.129 169.746 221.876 173.149 231.572 167.464L231.582 167.474Z" fill="black"/>
<path d="M185.325 86.1219C189.974 86.1219 193.743 82.3531 193.743 77.704C193.743 73.0549 189.974 69.2861 185.325 69.2861C180.676 69.2861 176.907 73.0549 176.907 77.704C176.907 82.3531 180.676 86.1219 185.325 86.1219Z" fill="white"/>
<path d="M185.325 83.2113C188.366 83.2113 190.832 80.7456 190.832 77.704C190.832 74.6625 188.366 72.1968 185.325 72.1968C182.283 72.1968 179.817 74.6625 179.817 77.704C179.817 80.7456 182.283 83.2113 185.325 83.2113Z" fill="black"/>
</g>
<defs>
<clipPath id="clip0">
<rect x="0.839844" y="0.654907" width="400" height="521.59" fill="white"/>
</clipPath>
</defs>
</svg>
