<svg width="401" height="523" viewBox="0 0 401 523" fill="none" xmlns="http://www.w3.org/2000/svg">
<g clip-path="url(#clip0)">
<path d="M200.549 522.032C122.735 465.578 69.4008 394.276 37.4881 304.087C8.5489 222.316 -3.06238 123.217 1.98418 1.13653L2.00512 0.654907H399.679L399.7 1.13653C404.736 123.217 393.124 222.306 364.196 304.087C332.283 394.276 278.948 465.578 201.135 522.032L200.842 522.241L200.549 522.032Z" fill="#32AC60"/>
<path d="M160.259 211.009C162.5 213.155 168.52 218.128 168.74 217.94C181.827 205.156 188.727 152.533 184.592 149.455C176.907 143.728 161.987 133.876 152.449 131.52C148.91 121.228 146.177 111.795 138.932 102.78C95.0831 48.1785 56.2183 30.1176 34.5453 19.9407C28.9019 17.2918 26.253 25.0187 28.0957 27.7933C33.76 36.3054 42.2512 47.9795 47.905 66.5953C46.6382 66.9094 35.8121 56.4603 29.5929 53.7381C27.8025 52.9528 24.9442 54.0417 25.1746 51.0891C26.0122 39.949 20.5782 40.9227 18.369 44.8176C16.1494 48.7229 13.9716 53.047 15.3013 55.675C19.1124 63.2239 38.0213 73.8929 52.114 108.046C66.2067 142.2 70.2481 169.851 74.2896 207.564C67.4317 212.537 53.8625 229.394 50.4597 240.513C53.1087 245.12 64.7513 258.187 66.8454 257.59C68.9184 247.947 71.4208 242.22 77.2107 235.446C76.3731 262.333 78.8859 283.933 88.2043 310.935C85.1575 315.573 80.7182 328.682 78.8336 336.042C81.0009 340.366 98.6953 364.74 104.569 364.468C105.04 360.364 103.679 356.291 106.474 351.663C111.846 357.129 117.143 362.678 123.09 367.567C123.09 367.567 120.86 382.801 124.127 399.522C126.682 412.62 137.612 427.906 148.135 438.188C145.182 420.148 165.536 415.279 156.992 392.905C176.205 394.612 177.838 374.645 189.02 370.907C173.703 357.956 155.61 353.569 138.984 350.512C136.126 349.988 136.304 341.497 135.33 333.016C139.403 335.173 143.518 340.439 146.198 343.455C148.292 341.466 150.532 333.927 150.522 330.629C144.104 324.923 137.738 318.892 130.912 316.432C127.498 264.605 147.768 247.528 160.27 210.988L160.259 211.009Z" fill="white" stroke="#32AC60" stroke-width="3" stroke-linecap="round" stroke-linejoin="round"/>
<path d="M67.453 67.6109C70.7143 67.6109 73.3581 64.9671 73.3581 61.7058C73.3581 58.4445 70.7143 55.8007 67.453 55.8007C64.1917 55.8007 61.5479 58.4445 61.5479 61.7058C61.5479 64.9671 64.1917 67.6109 67.453 67.6109Z" stroke="#32AC60" stroke-width="3" stroke-linecap="round" stroke-linejoin="round"/>
<path d="M67.4537 64.3128C68.8935 64.3128 70.0608 63.1456 70.0608 61.7058C70.0608 60.266 68.8935 59.0988 67.4537 59.0988C66.0139 59.0988 64.8467 60.266 64.8467 61.7058C64.8467 63.1456 66.0139 64.3128 67.4537 64.3128Z" fill="white"/>
<path d="M47.9062 66.5848L52.0733 85.5461C52.5759 87.8495 55.675 87.4831 56.4498 85.3053C58.0203 80.9288 58.3344 76.3639 58.4391 71.778" stroke="#32AC60" stroke-width="3" stroke-linecap="round"/>
<path d="M50.9414 105.125C59.0033 107.963 69.1174 109.585 75.8706 107.512C84.0163 105.01 86.906 95.3984 95.125 87.1376" stroke="#32AC60" stroke-width="3" stroke-linecap="round"/>
<path d="M75.6299 117.543C78.5406 126.432 78.3835 137.132 77.0643 143.163C82.938 147.592 89.4922 153.539 96.6433 156.847C99.3445 149.539 96.3292 131.939 93.1463 122.149" stroke="#32AC60" stroke-width="3" stroke-linecap="round"/>
<path d="M240.963 211.009C238.723 213.155 232.703 218.128 232.483 217.94C219.395 205.156 212.495 152.533 216.631 149.455C224.316 143.728 239.236 133.876 248.774 131.52C252.313 121.228 255.046 111.795 262.291 102.78C306.139 48.1785 345.004 30.1176 366.677 19.9407C372.321 17.2918 374.97 25.0187 373.127 27.7933C367.463 36.3054 358.971 47.9795 353.318 66.5953C354.584 66.9094 365.41 56.4603 371.63 53.7381C373.42 52.9528 376.278 54.0417 376.048 51.0891C375.21 39.949 380.644 40.9227 382.854 44.8176C385.073 48.7229 387.251 53.047 385.921 55.675C382.11 63.2239 363.201 73.8929 349.109 108.046C335.016 142.2 330.974 169.851 326.933 207.564C333.791 212.537 347.36 229.394 350.763 240.513C348.114 245.12 336.471 258.187 334.377 257.59C332.304 247.947 329.802 242.22 324.012 235.446C324.849 262.333 322.337 283.933 313.018 310.935C316.065 315.573 320.504 328.682 322.389 336.042C320.222 340.366 302.527 364.74 296.654 364.468C296.182 360.364 297.544 356.291 294.748 351.663C289.377 357.129 284.079 362.678 278.132 367.567C278.132 367.567 280.362 382.801 277.096 399.522C274.541 412.62 263.61 427.906 253.088 438.188C256.04 420.148 235.686 415.279 244.23 392.905C225.017 394.612 223.384 374.645 212.202 370.907C227.52 357.956 245.612 353.569 262.239 350.512C265.107 349.988 264.919 341.497 265.893 333.016C261.82 335.173 257.705 340.439 255.025 343.455C252.931 341.466 250.69 333.927 250.701 330.629C257.119 324.923 263.484 318.892 270.311 316.432C273.724 264.605 253.454 247.528 240.953 210.988L240.963 211.009Z" fill="white" stroke="#32AC60" stroke-width="3" stroke-linecap="round" stroke-linejoin="round"/>
<path d="M333.77 67.6109C330.508 67.6109 327.865 64.9671 327.865 61.7058C327.865 58.4445 330.508 55.8007 333.77 55.8007C337.031 55.8007 339.675 58.4445 339.675 61.7058C339.675 64.9671 337.031 67.6109 333.77 67.6109Z" stroke="#32AC60" stroke-width="3" stroke-linecap="round" stroke-linejoin="round"/>
<path d="M353.317 66.5848L349.15 85.5461C348.647 87.8495 345.548 87.4831 344.773 85.3053C343.203 80.9288 342.889 76.3639 342.784 71.778" stroke="#32AC60" stroke-width="3" stroke-linecap="round"/>
<path d="M350.28 105.125C342.218 107.963 332.104 109.585 325.351 107.512C317.205 105.01 314.316 95.3984 306.097 87.1376" stroke="#32AC60" stroke-width="3" stroke-linecap="round"/>
<path d="M325.592 117.543C322.681 126.432 322.838 137.132 324.157 143.163C318.284 147.592 311.729 153.539 304.578 156.847C301.877 149.539 304.892 131.939 308.075 122.149" stroke="#32AC60" stroke-width="3" stroke-linecap="round"/>
<path d="M333.77 64.3128C335.21 64.3128 336.377 63.1456 336.377 61.7058C336.377 60.266 335.21 59.0988 333.77 59.0988C332.33 59.0988 331.163 60.266 331.163 61.7058C331.163 63.1456 332.33 64.3128 333.77 64.3128Z" fill="white"/>
</g>
<defs>
<clipPath id="clip0">
<rect x="0.839844" y="0.654907" width="400" height="521.59" fill="white"/>
</clipPath>
</defs>
</svg>
