<svg width="401" height="523" viewBox="0 0 401 523" fill="none" xmlns="http://www.w3.org/2000/svg">
<g clip-path="url(#clip0)">
<path d="M200.632 522.031C122.814 465.512 69.4772 394.268 37.6777 304.075C8.64455 222.3 -3.07577 123.213 1.98122 1.13087V0.654907H399.699V1.24984C404.726 123.213 393.184 222.419 364.181 304.194C332.381 394.268 278.837 465.571 201.227 522.031L200.959 522.239L200.632 522.031Z" fill="#C8C8CA"/>
<path d="M123.708 56.0736C130.279 50.6816 138.445 47.6051 146.941 47.3202C155.437 47.0352 163.79 49.5575 170.708 54.4971C175.735 41.7356 187.039 27.5463 197.48 18.176C208.464 28.8109 217.194 41.5476 223.152 55.6275C238.025 45.097 252.096 40.754 272.443 52.861C242.339 61.0712 239.721 86.9511 235.497 113.039C231.749 135.647 227.406 158.344 209.111 170.57C214.287 174.259 222.379 176.698 228.03 175.092C236.717 172.682 241.684 162.062 248.377 163.936C241.506 171.7 237.163 189.638 216.875 184.938C215.953 184.73 213.335 185.205 215.12 186.931C222.825 194.249 221.07 199.454 220.237 205.106C219.691 210.952 220.718 216.836 223.211 222.151C208.933 218.314 216.072 186.812 200.693 191.601C192.007 238.72 189.419 284.561 205.423 335.16C205.579 335.636 205.882 336.051 206.288 336.345C206.694 336.639 207.182 336.797 207.683 336.797C208.185 336.797 208.673 336.639 209.079 336.345C209.485 336.051 209.788 335.636 209.944 335.16C213.127 312.047 229.488 279.325 250.281 258.71C236.3 260.555 229.458 258.978 224.758 254.605C218.985 249.345 215.01 242.405 213.395 234.764C224.937 240.892 235.11 252.612 243.826 245.324C238.323 235.24 232.463 226.048 230.053 209.628C245.998 221.259 244.927 240.178 253.464 237.322C248.675 228.982 246.654 219.338 247.693 209.777C250.965 177.055 276.459 138.8 256.855 107.477C277.529 109.113 284.163 119.554 293.444 130.858C303.592 121.601 315.674 114.721 328.813 110.719C334.346 124.849 333.722 137.759 334.376 151.621C353.712 148.289 363.26 149.45 377.955 164.859C355.615 165.305 343.092 180.952 331.401 198.264C316.528 220.545 303.142 246.068 276.191 250.708C274.257 251.036 274.763 253.683 277.113 253.981C288.268 255.26 294.009 251.958 298.59 253.802C309.21 258.026 308.496 268.676 311.62 272.186C306.354 271.918 299.721 263.5 292.254 262.429C285.978 261.477 281.694 266.117 274.406 264.362C272.948 279.771 274.406 287.952 288.03 299.137C279.671 298.869 270.658 295.388 266.434 289.112C262.21 282.835 265.422 274.952 261.972 265.314C261.845 264.986 261.641 264.693 261.376 264.46C261.111 264.228 260.793 264.064 260.451 263.982C260.108 263.9 259.751 263.903 259.409 263.99C259.068 264.077 258.753 264.246 258.491 264.481C246.593 279.355 214.436 314.278 214.376 365.056C222.557 355.596 232.552 348.725 239.483 339.206C245.61 330.918 248.68 320.764 248.169 310.47C248.169 307.852 254.119 308.804 254.505 311.006C255.993 317.966 253.018 336.648 247.455 347.714C242.725 357.203 236.836 355.775 228.715 363.479C223.687 368.239 216.816 378.353 214.734 395.309C211.967 416.905 209.855 438.948 201.704 453.315C200.217 455.933 186.831 447.366 188.526 443.38C199.503 416.608 226.96 369.578 166.573 350.153C161.1 348.398 153.812 328.437 148.933 316.866C147.684 313.891 153.098 311.66 154.882 314.694C158.601 321.209 169.161 337.808 173.802 340.277C183.869 345.479 193.243 351.925 201.704 359.464C199.533 337.362 159.136 293.723 140.574 264.273C139.712 262.905 135.101 263.916 134.803 265.998C132.156 285.899 128.289 300.207 111.273 299.583C121.298 289.618 125.135 275.785 121.744 264.63C105.473 261.417 97.9467 263.381 86.5238 274.417C88.4277 257.521 106.068 253.118 117.282 253.594C120.257 253.594 120.465 251.303 117.877 251.095C98.6011 249.519 85.1555 232.503 76.2314 217.035C60.4654 190.262 46.4843 164.888 20.1582 166.792C37.6792 148.289 48.0014 152.9 61.804 153.079C62.4585 140.168 62.8154 123.956 68.9136 111.076C84.6497 116.311 94.0796 124.67 103.212 131.006C109.399 114.765 125.284 108.071 139.682 108.726C111.422 136.748 158.839 201.388 140.931 239.196C157.738 242.379 153.96 206.326 169.28 207.813C160.356 221.08 168.477 233.068 156.489 244.759C163.836 252.731 171.987 241.963 173.683 236.727C174.753 233.485 180.346 233.931 180.049 237.174C179.662 241.16 176.449 245.86 173.117 249.994C168.09 255.944 164.58 258.919 153.395 256.36C151.372 255.914 147.059 258.026 147.713 259.335C153.663 270.401 174.099 293.425 188.199 311.779C189.032 312.88 192.542 317.728 192.215 315.2C191.055 303.896 183.856 285.899 184.481 255.438C185.016 230.242 192.037 204.601 190.995 193.267C182.071 194.933 181.417 220.039 170.172 221.527C172.241 216.45 173.496 211.079 173.891 205.612C174.278 198.056 175.646 191.214 183.261 188.24C183.6 188.113 183.894 187.889 184.107 187.596C184.319 187.304 184.441 186.955 184.457 186.593C184.473 186.232 184.382 185.874 184.196 185.563C184.01 185.253 183.736 185.005 183.41 184.849C162.587 188.478 156.905 178.899 148.189 166.495C159.047 165.543 172.552 186.038 187.307 170.124C181.903 167.007 177.213 162.791 173.539 157.749C169.865 152.708 167.29 146.952 165.978 140.853C156.816 105.632 159.166 59.911 123.856 56.4306V56.2224L123.708 56.0736Z" fill="#0085CA"/>
</g>
<defs>
<clipPath id="clip0">
<rect x="0.839844" y="0.654907" width="400" height="521.58" fill="white"/>
</clipPath>
</defs>
</svg>
