<svg width="401" height="482" viewBox="0 0 401 482" fill="none" xmlns="http://www.w3.org/2000/svg">
<g clip-path="url(#clip0)">
<path d="M199.974 481.407C121.937 424.791 70.4557 345.262 38.4514 254.815C9.42914 172.809 0.839652 113.842 0.839844 0.654907H400.84C400.84 0.654907 396.095 164.367 364.09 254.815C332.086 345.262 278.599 424.791 200.562 481.407L200.268 481.617L199.974 481.407Z" fill="#5590CC"/>
<path d="M192.219 39.7799C192.219 39.7799 190.469 37.1549 190.406 37.1549C190.344 37.1549 188.781 34.5924 188.594 34.1549C186.844 30.7174 184.031 26.9049 182.344 23.4049C180.656 19.9049 180.344 18.7174 178.781 15.7174C178.344 14.9049 177.781 14.0299 176.656 14.0299C173.906 14.0299 174.156 14.0299 171.344 14.0299C169.719 14.0299 170.531 15.2799 171.344 16.8424C173.094 20.4674 173.969 21.5924 175.781 25.0924C182.281 38.1549 188.531 50.6549 195.156 63.1549C196.031 64.9049 197.406 64.5299 194.594 69.4049C191.344 75.9674 188.031 81.9049 185.094 88.1549C174.219 109.155 78.3438 289.467 76.7188 292.905C87.5578 293.988 98.4546 294.385 109.344 294.092C126.406 294.092 142.656 293.655 159.719 293.655C204.094 293.655 247.219 293.655 291.656 293.655C294.844 293.655 297.906 293.967 301.031 293.967L315.531 293.467C319.406 293.467 320.969 293.842 324.844 293.467V292.342C324.844 292.342 322.969 289.155 322.719 288.717C319.656 282.467 319.531 282.092 316.469 276.217C306.656 257.467 297.719 239.655 287.906 220.967C280.906 207.717 273.281 193.842 266.219 180.655C256.344 161.905 247.469 146.717 237.531 128.155C231.906 117.592 225.031 102.842 219.344 92.2799C215.031 84.3424 211.031 75.1549 206.844 67.2799C206.308 66.3517 206.308 65.2081 206.844 64.2799C207.656 62.8424 208.906 59.2799 209.656 58.0299C212.094 53.2174 214.031 51.7799 216.469 47.1549C216.469 46.5924 218.344 42.5924 219.156 40.9049C220.656 37.9049 221.969 34.6549 223.531 31.7799C226.156 26.5299 227.906 22.9674 230.656 17.7174C230.656 17.3424 232.094 15.5299 232.281 15.0924C232.469 14.6549 232.281 13.6549 231.969 13.6549C228.719 13.6549 227.969 14.5299 224.719 14.5299C223.906 14.5299 222.469 17.4049 222.094 18.0924C219.094 24.3424 213.219 35.2799 210.219 41.2174C210.219 41.2174 211.219 35.5924 211.031 35.8424C211.086 34.5001 211.339 33.1733 211.781 31.9049C211.781 29.7174 212.219 26.6549 212.594 24.4674C213.094 21.0299 212.594 18.2174 213.406 14.9674C213.406 13.5924 213.094 14.4674 211.969 14.4674C209.594 14.4674 210.844 15.0299 208.406 14.9674C207.406 14.9674 206.781 14.9674 206.594 16.2174C205.531 22.4674 203.594 29.4674 202.406 35.9674C202.406 36.3424 201.031 37.0299 200.969 37.4049C200.543 36.1507 200.27 34.8496 200.156 33.5299C199.781 31.7174 199.719 30.1549 199.344 28.2799C198.406 23.5299 197.469 19.8424 196.531 15.1549C196.373 14.3392 195.604 13.79 194.781 13.9049C192.344 13.9049 192.594 13.9049 190.094 13.9049C189.156 13.9049 188.969 15.4049 189.156 16.2799C189.906 20.6549 190.156 24.5299 190.906 28.7799C191.344 31.9049 191.781 37.2174 192.219 39.7799Z" fill="#5590CC"/>
<path d="M207.746 14.0139H206.496L206.271 15.244L207.746 15.5139C206.271 15.244 206.271 15.2441 206.27 15.2444L206.27 15.2456L206.269 15.2505L206.266 15.27L206.252 15.3468L206.197 15.6466L205.989 16.7841C205.809 17.7639 205.553 19.1629 205.245 20.84C204.63 24.1942 203.81 28.6605 202.99 33.1091C202.388 36.3725 201.786 39.6257 201.266 42.423C200.946 40.6186 200.589 38.6142 200.215 36.516C199.584 32.9817 198.903 29.1821 198.265 25.6191C197.55 21.6322 196.889 17.9416 196.41 15.2512L196.19 14.0139H194.934H190.684H188.938L189.201 15.7396L193.139 41.6173L178.881 14.9933L178.457 14.2014H177.559H172.621H170.202L171.278 16.3683L196.561 67.3055L78.1695 291.626L77.0083 293.826H79.4961H160.121H190.128H221.574H243.371H322.621H324.121V292.326C324.112 292.164 324.071 291.941 324.053 291.877C324.042 291.842 324.022 291.788 324.013 291.764C323.996 291.72 323.979 291.681 323.968 291.656C323.944 291.603 323.915 291.542 323.884 291.479C323.822 291.35 323.732 291.171 323.619 290.947C323.391 290.498 323.055 289.844 322.62 289.003C321.748 287.32 320.471 284.872 318.848 281.77C315.6 275.565 310.96 266.735 305.394 256.159C294.261 235.006 279.416 206.861 264.573 178.736C249.729 150.61 234.885 122.505 223.752 101.43C218.186 90.8933 213.547 82.114 210.3 75.9689L206.531 68.8366L205.567 67.0119L232.261 16.2117L233.416 14.0139H230.934H225.246H224.355L223.929 14.7966L225.246 15.5139C223.929 14.7966 223.929 14.7968 223.928 14.797L223.928 14.7982L223.925 14.8029L223.915 14.8216L223.875 14.8954L223.718 15.1832L223.123 16.2756C222.611 17.2167 221.878 18.5608 220.999 20.1729C219.242 23.3973 216.898 27.6937 214.555 31.9821C212.733 35.3156 210.912 38.6434 209.366 41.4591C209.609 39.9981 209.87 38.4217 210.141 36.7915L210.484 34.7283C211.787 26.8753 213.196 18.3789 213.603 15.7433L213.871 14.0139H212.121H207.746Z" fill="url(#paint0_linear)" stroke="black" stroke-width="3"/>
<path d="M179.54 186.383H178.272L178.061 187.634L160.451 292.077L160.156 293.826H161.93H240.185H241.959L241.664 292.077L224.037 187.633L223.826 186.383H222.558H179.54Z" fill="url(#paint1_linear)" stroke="black" stroke-width="3"/>
<path d="M173.615 121.235L173.231 121.968L174.058 121.967L190.37 121.965L190.811 121.965L190.866 121.528C194.793 90.6488 195.374 85.5573 195.67 82.9647C195.755 82.215 195.817 81.6743 195.929 80.7794L194.99 80.4851L173.615 121.235Z" fill="#5590CC" stroke="black"/>
<path d="M228.498 121.235L228.883 121.968L228.056 121.967L211.743 121.965L211.303 121.965L211.247 121.528C207.321 90.6488 206.74 85.5573 206.444 82.9647C206.358 82.215 206.296 81.6743 206.185 80.7794L207.123 80.4851L228.498 121.235Z" fill="#5590CC" stroke="black"/>
<path d="M207.527 121.965H208.099L208.023 121.399L202.011 76.4337L201.021 76.4239L194.096 121.389L194.007 121.965H194.59H207.527Z" fill="#5590CC" stroke="black"/>
</g>
<defs>
<linearGradient id="paint0_linear" x1="117.771" y1="121.108" x2="311.056" y2="231.028" gradientUnits="userSpaceOnUse">
<stop offset="0.17" stop-color="#D19A28"/>
<stop offset="0.2" stop-color="#E1B860"/>
<stop offset="0.23" stop-color="#EED18A"/>
<stop offset="0.25" stop-color="#F7E4AB"/>
<stop offset="0.27" stop-color="#FEF3C2"/>
<stop offset="0.28" stop-color="#FFFBCC"/>
<stop offset="0.29" stop-color="#FAEFBF"/>
<stop offset="0.4" stop-color="#CDAF68"/>
<stop offset="0.48" stop-color="#B68E37"/>
<stop offset="0.51" stop-color="#AE8327"/>
<stop offset="0.59" stop-color="#AF852A"/>
<stop offset="0.66" stop-color="#B58C32"/>
<stop offset="0.72" stop-color="#BE9941"/>
<stop offset="0.79" stop-color="#CDAC59"/>
<stop offset="0.86" stop-color="#E0C677"/>
<stop offset="0.89" stop-color="#EED688"/>
<stop offset="0.9" stop-color="#F1DB93"/>
<stop offset="0.92" stop-color="#F7E7A9"/>
<stop offset="0.94" stop-color="#FCF0BB"/>
<stop offset="0.97" stop-color="#FFF8C7"/>
<stop offset="1" stop-color="#FFFBCC"/>
</linearGradient>
<linearGradient id="paint1_linear" x1="177.068" y1="223.759" x2="240.768" y2="260.971" gradientUnits="userSpaceOnUse">
<stop stop-color="#FFFBCC"/>
<stop offset="0.06" stop-color="#F1E1A9"/>
<stop offset="0.16" stop-color="#DFC27B"/>
<stop offset="0.25" stop-color="#D2AC58"/>
<stop offset="0.34" stop-color="#C99D40"/>
<stop offset="0.41" stop-color="#C49532"/>
<stop offset="0.46" stop-color="#C3922E"/>
<stop offset="0.52" stop-color="#C49531"/>
<stop offset="0.61" stop-color="#CA9E3D"/>
<stop offset="0.71" stop-color="#D4AF54"/>
<stop offset="0.81" stop-color="#E2C675"/>
<stop offset="0.87" stop-color="#EED688"/>
<stop offset="1" stop-color="#FFFBCC"/>
</linearGradient>
<clipPath id="clip0">
<rect x="0.839844" y="0.654907" width="400" height="480.96" fill="white"/>
</clipPath>
</defs>
</svg>
