<svg width="401" height="523" viewBox="0 0 401 523" fill="none" xmlns="http://www.w3.org/2000/svg">
<g clip-path="url(#clip0)">
<path d="M200.549 522.032C122.735 465.578 69.4008 394.276 37.4881 304.087C8.54891 222.316 -3.06238 123.217 1.98418 1.13653L2.00512 0.654907H399.679L399.7 1.13653C404.736 123.217 393.124 222.306 364.196 304.087C332.283 394.276 278.948 465.578 201.135 522.032L200.842 522.241L200.549 522.032Z" fill="#DC9755"/>
<path d="M180.18 57.6176C179.168 51.0096 147.673 49.1329 135.775 48.742C133.68 48.6718 131.134 46.7674 130.713 44.9432L120.76 45.5245C134.282 33.637 155.275 41.2645 173.307 36.724C182.969 26.791 190.409 26.8218 197.896 27.0418C220.779 27.7139 221.493 40.934 229.843 50.6264C227.798 51.3381 225.974 50.867 224.18 50.2656C224.901 55.6681 225.091 61.907 224.641 66.6235C222.79 66.4013 220.764 65.5807 218.978 64.248C218.797 69.6773 218.255 77.5159 217.228 81.0055C215.324 79.3517 213.354 76.5926 212.412 74.9428C211.569 80.1457 210.395 85.7292 208.938 89.2633C206.661 87.9594 205.078 86.0254 203.664 84.1511C189.922 101.912 181.441 119.626 181.511 135.994C181.621 160.782 208.453 156.542 227.858 178.312C229.221 179.836 231.627 179.706 232.609 178.864C274.717 142.57 330.041 92.9271 354.607 89.2861C371.497 86.7829 379.405 113.065 377.895 129.073C372.021 191.33 340.777 269.351 323.587 337.479C316.892 311.328 334.691 256.364 330.792 253.107C327.223 250.12 320.633 282.484 314.048 300.526C307.924 280.74 320.679 236.646 318.825 234.902C313.813 230.191 308.953 261.559 303.56 279.431C295.051 259.745 308.229 226.046 302.175 220.212C300.401 218.498 282.154 270.075 263.591 295.404C259.752 294.522 257.216 292.116 254.821 289.55C244.126 320.562 274.038 351.934 305.791 373.694C305.791 373.694 291.37 370.59 284.915 368.405C289.797 373.126 294.279 378.624 298.304 384.056L276.696 375.531C281.451 382.007 287.823 388.909 290.665 395.432L228.69 358.66C218.827 365.135 215.449 374.226 216.622 381.694C198.42 366.559 207.361 401.861 216.442 406.742C195.243 408.646 209.506 427.761 217.905 434.897C208.994 434.576 201.507 442.715 201.086 449.16C199.122 441.723 191.945 431.76 180.248 442.214C175.537 427.951 170.415 427.941 163.248 429.966C215.58 397.009 197.468 342.343 194.691 338.554C187.685 348.417 173.813 344.067 172.209 357.387C163.96 339.336 149.487 368.834 156.854 382.977C139.844 381.974 134.722 395.686 137.479 414.239C134.913 409.999 127.295 406.782 120.66 409.488C123.216 397.691 116.199 390.935 108.05 391.386C111.378 384.921 109.143 377.815 101.465 374.748C139.383 376.652 159.349 346.993 170.936 318.988C164.452 307.827 154.469 292.052 149.277 283.603L143.883 296.136C128.618 279.537 113.601 244.365 101.934 219.257C101.714 245.407 102.407 286.223 95.8021 297.779C91.4039 284.724 89.6857 270.191 87.5485 264.207C86.3796 260.935 84.2655 260.04 84.3071 265.623C84.3534 271.825 90.7205 298.053 85.1975 316.242C77.6354 301.158 75.0145 278.494 72.0739 269.974C70.9334 266.669 68.4451 267.529 68.556 270.606C68.8742 279.432 77.2868 314.652 70.9444 339.827C42.3089 253.433 37.2168 187.783 28.9681 115.53C22.6691 87.6954 46.5387 84.8039 64.0096 100.906C84.2795 119.588 114.241 152.994 136.894 164.272C136.708 111.389 186.381 98.0781 180.18 57.6176Z" fill="black"/>
<path d="M199.19 40.3957C198.59 44.2807 187.212 43.083 187.561 39.1715C187.921 35.1288 199.811 36.3803 199.19 40.3957Z" fill="#DC9755"/>
</g>
<defs>
<clipPath id="clip0">
<rect x="0.839844" y="0.654907" width="400" height="521.59" fill="white"/>
</clipPath>
</defs>
</svg>
