<svg width="401" height="500" viewBox="0 0 401 500" fill="none" xmlns="http://www.w3.org/2000/svg">
<g clip-path="url(#clip0)">
<path fill-rule="evenodd" clip-rule="evenodd" d="M400.46 0.654907C402.552 103.177 397.078 188.258 356.504 297.424C328.437 372.95 282.249 442.282 200.84 499.136C119.431 442.282 73.2428 372.95 45.1759 297.424C4.60138 188.258 -0.871926 103.177 1.21934 0.654907C134.3 0.945082 267.38 0.654907 400.46 0.654907Z" fill="#E00E00"/>
<path d="M180.057 297.164C199.519 301.977 222.533 295.723 238.522 293.602C246.227 292.541 252.201 294.472 256.153 298.225C261.066 296.874 270.021 295.523 269.831 299.385C269.441 304.488 264.338 305.169 259.905 305.549C263.277 311.232 262.987 316.626 263.377 322.119C267.33 322.019 270.412 321.058 276.665 328.673C282.829 336.278 303.922 357.47 303.922 357.47C306.043 359.682 302.761 365.565 300.94 363.924L265.779 333.286C258.074 335.597 244.976 337.138 240.253 333.096C238.132 331.264 233.99 333.386 238.422 336.848C245.647 342.431 264.908 338.199 267.42 340.51L297.568 366.806C298.729 367.867 295.837 374.801 293.616 372.97L264.338 348.605C249.599 348.415 204.712 357.27 199.509 335.407H164.157C168.49 347.444 151.25 344.072 133.339 340.42L149.228 361.423C150.579 363.254 145.956 372.399 143.735 369.518L111.566 329.644C109.925 327.622 110.215 323.48 117.439 325.311C116.959 320.588 106.653 314.234 101.74 312.113L108.964 341.781C109.634 344.482 102.7 352.187 101.84 348.905L88.5517 301.607C87.5911 298.235 94.3352 293.232 97.6072 295.253L119.09 308.351C122.942 293.322 134.6 281.675 147.697 269.047C142.494 266.445 139.032 262.783 136.621 259.701C133.149 257.39 126.505 258.16 126.415 250.646C126.415 248.334 127.665 245.833 132.288 244.292C137.201 242.651 149.428 247.664 159.254 244.772L137.771 228.302C132.568 224.35 116.969 228.202 116.969 224.64C116.969 221.458 124.003 221.268 130.167 214.334C136.721 206.819 132.868 196.513 137.872 196.223C143.365 195.833 138.452 204.408 143.845 214.044C150.489 225.701 163.877 239.859 176.115 247.464C186.811 254.108 197.688 261.142 205.202 260.472C234.48 257.68 217.049 202.587 162.917 204.798C159.254 204.988 160.605 188.708 162.817 189.199C170.711 190.93 183.909 197.574 189.783 200.566C189.683 197.384 189.783 194.692 192.575 194.882C197.007 195.172 195.366 200.085 196.527 202.777C244.206 227.342 230.527 268.567 207.023 268.567C194.986 268.567 188.532 264.324 182.458 260.192L190.063 272.039C191.414 274.16 184.96 277.332 182.068 275.511C177.926 272.909 176.195 268.186 174.263 263.664C164.628 271.658 178.306 286.588 180.527 297.474L180.057 297.164Z" fill="white"/>
<path d="M281.579 119.757C297.278 123.609 315.769 118.596 328.677 116.865C334.841 115.994 339.754 117.535 342.836 120.527C346.788 119.467 354.012 118.316 353.812 121.488C353.522 125.63 349.379 126.111 345.817 126.401C348.519 131.024 348.229 135.356 348.609 139.789C351.791 139.689 354.292 138.918 359.305 145.082C364.318 151.246 381.269 168.296 381.269 168.296C383 170.127 380.398 174.85 378.857 173.499L350.54 148.934C344.376 150.866 333.78 152.016 330.028 148.834C328.297 147.393 325.015 149.125 328.487 151.816C334.27 156.339 349.77 152.977 351.801 154.708L376.076 175.901C377.036 176.771 374.725 182.355 372.894 180.814L349.299 161.162C337.452 161.062 301.33 168.196 297.098 150.565H268.681C272.153 160.291 258.274 157.5 243.826 154.608L256.633 171.558C257.694 172.999 254.032 180.323 252.201 178.112L226.295 146.033C225.044 144.392 225.235 141.12 231.018 142.561C230.628 138.808 222.353 133.695 218.3 131.864L224.084 155.749C224.564 157.96 219.071 164.124 218.3 161.532L207.604 123.489C206.833 120.787 212.227 116.745 214.928 118.386L232.269 128.982C235.351 116.845 244.786 107.499 255.293 97.2932C251.05 95.1719 248.358 92.2802 246.337 89.7787C243.546 87.8475 238.152 88.5279 238.152 82.4543C238.152 80.6231 239.213 78.6019 242.875 77.3512C246.828 76.0004 256.653 80.0528 264.648 77.7414L247.388 64.1832C243.245 61.0013 230.628 64.0832 230.628 61.2014C230.628 58.5998 236.311 58.4998 241.224 52.9164C246.517 46.8528 243.345 38.5678 247.488 38.3676C251.921 38.0775 247.968 44.9216 252.301 52.7163C257.594 62.152 268.391 73.5189 278.307 79.6826C286.882 85.0758 295.737 90.7593 301.711 90.1789C325.215 87.8675 311.246 43.5608 267.61 45.2918C264.628 45.3919 265.679 32.284 267.51 32.6742C273.864 34.025 284.46 39.4183 289.183 41.8297C289.083 39.2282 289.183 37.1069 291.394 37.2069C294.957 37.3971 293.606 41.3494 294.576 43.5608C332.91 63.3027 321.933 96.5328 302.951 96.5328C293.316 96.5328 288.022 93.0607 283.109 89.7887L289.273 99.3244C290.334 100.965 285.131 103.567 282.819 102.116C279.447 99.9949 278.096 96.2426 276.556 92.5804C268.751 99.0343 279.827 110.981 281.569 119.747L281.579 119.757Z" fill="white"/>
<path d="M94.9062 119.757C110.606 123.609 129.097 118.596 142.005 116.865C148.168 115.994 153.081 117.535 156.163 120.527C160.116 119.467 167.34 118.316 167.14 121.488C166.85 125.63 162.707 126.111 159.145 126.401C161.847 131.024 161.556 135.356 161.937 139.789C165.119 139.689 167.62 138.918 172.633 145.082C177.646 151.246 194.596 168.296 194.596 168.296C196.327 170.127 193.726 174.85 192.185 173.499L163.868 148.934C157.704 150.866 147.108 152.016 143.355 148.834C141.624 147.393 138.342 149.125 141.815 151.816C147.598 156.339 163.097 152.977 165.129 154.708L189.403 175.901C190.364 176.771 188.052 182.355 186.221 180.814L162.627 161.162C150.78 161.062 114.658 168.196 110.426 150.565H82.0084C85.4805 160.291 71.6021 157.5 57.1534 154.608L69.9611 171.558C71.0218 172.999 67.3596 180.323 65.5285 178.112L39.6228 146.053C38.3721 144.412 38.5622 141.14 44.3457 142.581C43.9554 138.828 35.6804 133.715 31.628 131.884L37.4115 155.769C37.8918 157.98 32.3984 164.144 31.628 161.552L21.0316 123.329C20.2611 120.627 25.6544 116.585 28.356 118.226L45.6965 128.822C48.7783 116.685 58.214 107.339 68.7204 97.1331C64.4778 95.0118 61.7862 92.1201 59.765 89.6186C56.9733 87.6874 51.58 88.3678 51.58 82.2942C51.58 80.4631 52.6407 78.4418 56.3029 77.1911C60.2553 75.8403 70.0812 79.8927 78.076 77.5813L60.6155 64.1832C56.473 61.0013 43.8554 64.0832 43.8554 61.2014C43.8554 58.5998 49.5388 58.4998 54.4518 52.9164C59.745 46.8528 56.573 38.5678 60.7155 38.3676C65.1482 38.0775 61.1958 44.9216 65.5285 52.7163C70.8216 62.152 81.6182 73.5189 91.5341 79.6826C100.109 85.0758 108.965 90.7593 114.938 90.1789C138.442 87.8675 124.474 43.5608 80.8377 45.2918C77.8559 45.3919 78.9065 32.284 80.7376 32.6742C87.0915 34.025 97.6879 39.4183 102.411 41.8297C102.311 39.2282 102.411 37.1069 104.622 37.2069C108.184 37.3971 106.833 41.3494 107.804 43.5608C146.137 63.3027 135.16 96.5328 116.179 96.5328C106.543 96.5328 101.25 93.0607 96.3371 89.7887L102.501 99.3244C103.561 100.965 98.3583 103.567 96.0469 102.116C92.6748 99.9949 91.324 96.2426 89.7831 92.5804C81.9784 99.0343 93.0551 110.981 94.7961 119.747L94.9062 119.757Z" fill="white"/>
</g>
<defs>
<clipPath id="clip0">
<rect x="0.839844" y="0.654907" width="400" height="498.48" fill="white"/>
</clipPath>
</defs>
</svg>
