<svg width="401" height="523" viewBox="0 0 401 523" fill="none" xmlns="http://www.w3.org/2000/svg">
<g clip-path="url(#clip0)">
<path d="M200.549 522.032C122.735 465.578 69.4008 394.276 37.4881 304.087C8.5489 222.316 -3.06238 123.217 1.98418 1.13653L2.00512 0.654907H399.679L399.7 1.13653C404.736 123.217 393.124 222.306 364.196 304.087C332.283 394.276 278.948 465.578 201.135 522.032L200.842 522.241L200.549 522.032Z" fill="#E53D42"/>
<path fill-rule="evenodd" clip-rule="evenodd" d="M103.638 198.665L271.996 371.064C275.786 374.949 266.897 383.628 263.086 379.765L247.036 363.474C233.445 349.674 225.603 345.643 217.908 353.15C210.212 360.668 214.065 368.593 227.53 382.508L243.434 398.936C247.214 402.841 238.324 411.521 234.524 407.636L66.1863 235.236C49.5599 218.212 43.5187 198.015 44.44 175.505C66.9716 175.128 87.0113 181.63 103.638 198.665Z" fill="#FFD400"/>
<path fill-rule="evenodd" clip-rule="evenodd" d="M107.292 71.7989L329.341 297.125C333.152 300.999 324.305 309.72 320.473 305.867L304.349 289.649C290.696 275.913 282.843 271.913 275.179 279.462C267.515 287.011 271.41 294.926 284.937 308.778L300.915 325.143C304.715 329.027 295.858 337.749 292.047 333.885L70.0082 108.538C53.298 91.5873 47.1835 71.422 47.9896 48.9114C70.5107 48.4298 90.5923 54.8479 107.292 71.7989Z" fill="#FFD400"/>
<path fill-rule="evenodd" clip-rule="evenodd" d="M85.5041 243.037L142.44 301.344C146.105 305.093 151.35 299.973 147.686 296.224L114.705 262.448C105.984 253.517 91.828 237.55 96.0893 228.399C105.345 224.358 120.966 238.88 129.688 247.821L162.668 281.598C166.333 285.346 171.578 280.226 167.914 276.478L110.978 218.17C96.4872 203.334 80.9287 190.435 55.7168 187.064C58.4914 212.338 71.0135 228.211 85.5041 243.047V243.037Z" fill="#E53D42"/>
<path fill-rule="evenodd" clip-rule="evenodd" d="M213.208 53.9265L356.449 201.198C360.239 205.093 351.35 213.762 347.539 209.899L331.488 193.607C317.898 179.808 310.056 175.777 302.36 183.284C294.665 190.802 298.518 198.727 311.982 212.642L327.886 229.07C331.666 232.975 322.766 241.665 318.976 237.77L175.756 90.5089C159.161 73.4532 153.099 53.2879 154.01 30.7773C176.542 30.4003 196.613 36.8708 213.208 53.937V53.9265Z" fill="#FFD400"/>
<path fill-rule="evenodd" clip-rule="evenodd" d="M114.714 91.2627L171.923 149.309C175.608 153.046 170.384 158.187 166.698 154.449L133.561 120.82C124.797 111.92 109.102 97.4714 99.8679 101.555C95.6485 110.727 109.877 126.631 118.641 135.52L151.778 169.149C155.464 172.887 150.239 178.028 146.554 174.29L89.356 116.244C74.8026 101.481 62.2071 85.6717 59.3174 60.4075C84.5397 63.6637 100.161 76.4895 114.714 91.2627Z" fill="#E53D42"/>
<path fill-rule="evenodd" clip-rule="evenodd" d="M195.072 98.2986L252.009 156.606C255.673 160.355 260.919 155.235 257.254 151.486L224.273 117.71C215.552 108.779 201.396 92.8123 205.658 83.6615C214.913 79.6201 230.535 94.142 239.256 103.083L272.237 136.86C275.901 140.608 281.147 135.488 277.482 131.74L220.546 73.4323C206.056 58.5962 190.497 45.6971 165.285 42.3257C168.06 67.6004 180.582 83.473 195.072 98.3091V98.2986Z" fill="#E53D42"/>
</g>
<defs>
<clipPath id="clip0">
<rect x="0.839844" y="0.654907" width="400" height="521.59" fill="white"/>
</clipPath>
</defs>
</svg>
