<svg width="401" height="523" viewBox="0 0 401 523" fill="none" xmlns="http://www.w3.org/2000/svg">
<g clip-path="url(#clip0)">
<path d="M200.549 522.032C122.735 465.578 69.4008 394.276 37.4881 304.087C8.5489 222.316 -3.06238 123.217 1.98418 1.13653L2.00512 0.654907H399.679L399.7 1.13653C404.736 123.217 393.124 222.306 364.196 304.087C332.283 394.276 278.948 465.578 201.135 522.032L200.842 522.241L200.549 522.032Z" fill="#E00E00"/>
<path d="M89.7124 153.109C68.2069 153.109 36.6921 138.462 22.7146 112.779C15.3122 99.178 13.1659 81.6616 14.2129 66.7418H29.3735C29.6143 86.5302 31.3524 103.701 51.4653 114.15C68.8875 123.207 71.5574 125.898 104.308 125.898C168.5 125.898 232.691 125.898 296.883 125.898C329.634 125.898 332.293 123.207 349.726 114.15C369.849 103.691 371.577 86.5197 371.817 66.7418H386.978C388.036 81.6616 385.889 99.178 378.476 112.779C364.509 138.441 332.984 153.109 311.479 153.109C237.55 153.109 163.621 153.109 89.6915 153.109H89.7124Z" fill="#FFE000"/>
<path d="M101.492 257.402C82.279 257.402 54.1041 244.303 41.6133 221.364C35.0067 209.208 33.0802 193.555 34.0225 180.216H47.5708C47.7802 197.9 49.3402 213.249 67.3173 222.589C82.8967 230.682 85.2734 233.09 114.537 233.09C171.913 233.09 229.268 233.09 286.644 233.09C315.918 233.09 318.295 230.682 333.864 222.589C351.841 213.239 353.391 197.9 353.61 180.216H367.159C368.101 193.555 366.185 209.208 359.568 221.364C347.088 244.303 318.913 257.402 299.69 257.402C233.624 257.402 167.547 257.402 101.481 257.402H101.492Z" fill="#FFE000"/>
<path d="M122.589 349.705C107.459 349.705 85.2838 339.392 75.4628 321.332C70.2592 311.772 68.7515 299.449 69.4844 288.937H80.143C80.3105 302.862 81.5355 314.945 95.6805 322.295C107.941 328.671 109.815 330.556 132.86 330.556C178.017 330.556 223.174 330.556 268.332 330.556C291.376 330.556 293.25 328.671 305.511 322.295C319.666 314.934 320.881 302.852 321.048 288.937H331.707C332.45 299.439 330.932 311.762 325.728 321.332C315.908 339.392 293.732 349.705 278.603 349.705C226.598 349.705 174.593 349.705 122.578 349.705H122.589Z" fill="#FFE000"/>
</g>
<defs>
<clipPath id="clip0">
<rect x="0.839844" y="0.654907" width="400" height="521.59" fill="white"/>
</clipPath>
</defs>
</svg>
