<svg width="401" height="581" viewBox="0 0 401 581" fill="none" xmlns="http://www.w3.org/2000/svg">
<g clip-path="url(#clip0)">
<path d="M315.093 77.7354H76.293V113.796H315.093V77.7354Z" fill="#008DF0"/>
<path d="M0.839844 111.341L400.779 111.348C400.779 111.348 400.821 387.403 400.84 525.43C400.844 555.023 375.14 580.353 350.669 580.353C251.049 580.352 151.429 580.352 51.8096 580.351C33.1555 580.35 0.894311 557.735 0.895084 527.632C0.898651 388.863 0.854354 111.326 0.854354 111.326L0.839844 111.341V111.341Z" fill="#008DF0"/>
<path d="M109.833 338.638H94.6602C92.3952 338.638 93.3221 363.298 94.6602 363.294L105.492 363.293C107.714 363.194 107.765 368.621 105.653 368.629L94.7796 368.63C93.2545 368.631 92.9944 393.872 94.6998 393.892L105.447 394.012C107.483 394.013 107.501 398.881 105.407 398.817C101.841 398.697 96.9423 398.674 94.7025 398.696C92.4627 398.697 93.0439 424.157 94.6627 424.152L134.128 423.95L136.487 418.574C136.823 417.865 138.841 418.474 138.574 419.193C132.585 434.646 125.879 444.936 118.864 459.797C119.665 460.302 120.992 461.021 122.152 461.709C122.542 461.946 122.912 462.166 123.237 462.383C114.46 477.283 106.33 493.155 94.5555 507.003C85.2616 517.935 64.8358 523.422 61.8954 541.625C63.5435 541.626 98.0176 541.805 100.572 541.745C101.011 538.216 101.174 535.072 99.833 531.051C98.2265 526.233 96.713 523.516 95.8734 521.236C95.1749 519.34 100.364 516.607 100.985 518.342L107.223 535.791C110.688 536.43 114.064 535.161 115.736 533.01C113.235 526.323 107.811 513.971 108.234 512.949C119.499 485.705 144.85 450.618 163.704 419.725L171.933 419.665C173.171 419.665 173.303 421.867 171.954 421.872L164.878 421.873L159.358 430.881L168.245 458.897L173.555 464.292L183.411 505.64C186.184 511.708 161.397 523.227 155.49 542.012C157.697 542.156 190.244 542.111 192.397 542.013C193.047 538.647 192.478 534.756 191.404 531.709C189.604 526.64 186.208 520.775 185.819 520.005C185.128 518.636 189.64 516.542 190.203 517.688L197.326 532.185C199.512 532.328 200.957 531.22 201.877 529.909L180.256 424.841L267.118 424.84L284.313 452.656C269.9 473.364 250.566 509.234 235.593 515.621C231.192 517.499 217.614 526.801 211.435 542.076C213.482 542.076 247.743 542.076 249.941 542.076C250.558 539.835 251.017 535.085 250.181 531.684C249.376 528.408 248.262 527.464 245.613 521.524C244.984 520.116 249.01 517.835 249.495 518.901L256.587 534.475C259.605 534.535 260.97 533.613 262.566 532.259C260.47 527.202 258.098 522.297 257.677 516.328L310.191 450.412L289.529 420.46H283.671C283.009 420.46 283.05 418.17 283.673 418.171L294.982 418.172L325.124 442.457C328.352 465.105 333.917 487.753 334.78 510.403C335.019 516.693 309.223 526.648 306.913 542.012L343.976 541.891C345.131 535.107 342.625 528.988 339.942 523.052C339.499 521.982 343.713 519.323 344.227 520.604L350.276 535.684C352.264 535.922 356.397 535.213 358.144 534.134C349.736 512.801 342.871 463.777 345.866 432.57C345.987 431.173 333.707 418.425 327.627 411.352C323.99 394.827 337.234 361.149 334.679 360.139C331.729 358.975 329.514 358.278 324.826 356.875C322.871 356.288 323.894 352.724 325.124 353.06C348.111 359.356 346.863 345.591 347.296 340.663C335.196 340.841 322.464 339.035 322.487 344.868L318.019 344.778H173.376C169.497 325.88 168.219 305.953 158.54 288.978C157.494 287.143 158.397 284.905 159.72 286.616C167.033 296.049 173.897 299.373 182.058 293.951C185.319 291.784 186.061 287.798 182.394 286.955L170.678 284.511C170.14 283.399 254.06 287.197 292.395 282.235C311.025 279.822 317.187 210.191 338.081 193.223L353.616 179.017C355.463 177.499 348.203 169.224 346.636 170.586C340.372 175.118 335.798 183.463 327.997 185.543C320.949 185.855 315.496 178.941 312.048 173.598C310.28 170.448 310.137 167.429 312.477 164.836C317.269 159.531 322.272 153.714 326.316 149.495C328.494 147.223 320.4 139.87 318.705 141.675C313.964 146.72 309.401 151.765 304.364 156.81C301.238 160.136 296.989 160.428 294.25 157.822L279.23 142.753C278.096 141.161 269.852 150.235 271.236 151.545C286.189 165.698 305.245 182.813 312.121 196.934C313.351 199.456 299.891 260.819 283.969 269.929C277.778 273.472 165.088 278.454 160.734 279.033C159.684 279.177 157.928 275.93 159.217 275.83L254.635 268.471C275.025 266.898 275.375 218.64 280.092 213.793L300.49 193.562C301.806 192.209 294.568 184.119 293.127 185.646C286.509 192.658 278.453 202.231 272.288 202.329C264.052 202.45 256.715 191.672 250.421 183.616C247.872 180.354 249.185 176.139 250.084 175.187L265.983 158.377C266.894 156.867 258.606 149.277 257.161 151.238L240.48 167.067C238.761 169.084 233.497 169.337 230.792 166.426L207.68 145.445C205.52 143.223 196.01 152.021 197.59 153.706L221.797 175.268L211.527 183.384C207.949 186.482 217.023 195.233 219.169 193.685C228.88 186.684 234.039 184.903 242.164 193.744C242.164 193.744 257.547 210.026 262.78 216.156C265.05 218.815 263.822 233.277 261.343 242.97C258.701 253.3 250.078 259.04 240.647 259.827L149.78 267.414C140.892 246.833 80.1304 221.699 77.1451 191.552C75.997 179.96 76.129 170.005 76.1167 159.336C76.1156 156.803 63.2623 156.429 63.18 159.356L63.4667 181.777C63.3859 185.789 62.332 186.434 59.0307 186.607L45.99 186.902C44.0744 186.643 43.9151 200.045 46.56 199.984C51.3927 199.864 59.053 199.136 60.0946 200.995C75.7165 228.9 103.842 236.718 130.562 264.551L85.3691 251.766C55.7857 243.397 55.1058 217.215 51.6676 211.11C50.415 208.885 40.9414 211.58 41.9148 213.542C56.7146 238.437 39.9415 247.511 42.1311 265.418C44.6639 273.713 48.6322 273.65 50.8731 282.011C51.2314 288.983 46.1684 293.989 46.6104 296.076C47.2097 298.907 57.9405 294.864 60.7714 290.68C76.2392 267.821 83.3486 265.507 91.2601 266.573L130.059 271.799C132.198 272.094 133.132 275.586 131.912 275.593C114.809 275.674 113.223 283.377 85.5524 284.611C80.1221 284.853 78.1598 291.386 78.6412 295.907C79.5908 304.823 85.363 303.157 85.0907 315.113C88.5151 315.213 98.0157 315.153 124.446 315.576C118.877 321.634 114.05 329.891 109.829 338.642V338.642L109.828 338.643L109.828 338.643L109.833 338.638Z" fill="white"/>
<path d="M34.3408 0.249068L98.9227 0.250092L98.9565 39.7746L120.987 39.6816L121.02 0.0561869L185.828 0.0646564L185.801 39.7072L214.362 39.6433L214.288 0L278.295 0.00102468L278.294 40.3488H294.757L294.722 0.0224746L358.871 0.277337L322.183 96.4939L64.2439 97.1189L34.3489 0.196755L34.3408 0.249068Z" fill="#008DF0"/>
<path d="M90.4659 8.77504L90.4639 48.2584L129.552 48.2543L129.55 8.12161L177.317 8.11748L177.319 48.285H222.848V8.10494L269.781 8.10701L269.783 48.9269L303.227 48.929L303.257 8.08398L346.838 8.08605L316.305 87.9941L70.5271 88.6718L45.8984 8.76162L90.4682 8.76471L90.4659 8.77504Z" fill="white"/>
<path d="M306.735 96.4297H84.5605V111.35H306.735V96.4297Z" fill="white"/>
<path d="M388.545 515.899C388.356 545.62 369.528 567.717 341.216 567.716C341.216 567.716 153.262 567.713 59.2849 567.715C38.9905 567.716 12.8539 548.995 12.8541 517.895C12.8551 386.972 12.3926 125.201 12.3926 125.201L388.485 125.223L388.545 515.899V515.899Z" stroke="white" stroke-width="7.99478"/>
<path d="M91.3716 294.137C91.3646 292.928 91.4011 292.396 91.3581 291.132L86.2268 291.131C86.202 294.259 87.8208 294.137 91.3716 294.137H91.3716Z" fill="#008DF0"/>
<path d="M87.624 305.991C87.1511 305.981 87.068 307.771 87.6727 307.794L103.807 307.793C104.209 307.792 104.178 305.98 103.808 305.98C98.4075 305.933 91.6076 306.079 87.624 305.991V305.991Z" fill="#008DF0"/>
<path d="M132.415 285.033C131.417 282.222 121.724 281.624 119.823 284.247C119.801 290.113 133.278 288.222 132.415 285.033Z" fill="#008DF0"/>
</g>
<defs>
<clipPath id="clip0">
<rect x="0.839844" width="400" height="580.35" fill="white"/>
</clipPath>
</defs>
</svg>
