<svg width="401" height="523" viewBox="0 0 401 523" fill="none" xmlns="http://www.w3.org/2000/svg">
<g clip-path="url(#clip0)">
<path d="M3.83185 0.487305C3.58268 0.487305 3.29791 0.522901 3.08433 0.594093C2.58599 0.807669 1.98086 1.37721 1.87407 1.83995C1.6249 3.37058 1.5537 4.9724 1.51811 6.53863C1.26894 14.8681 0.806188 23.2332 0.841784 31.5626C0.912976 52.4931 1.12655 73.388 1.48251 94.2828C1.66049 103.68 2.26563 113.042 2.87076 122.404C3.44029 131.338 4.15221 140.309 4.97092 149.208C5.89642 159.068 6.85751 168.892 8.21016 178.681C9.81198 190.321 11.7342 201.89 13.7275 213.458C16.8244 231.399 20.8823 249.054 25.6878 266.568C36.2954 305.332 50.8542 342.494 70.5032 377.627C86.4858 406.246 105.423 432.73 127.386 457.042C149.135 481.14 173.305 502.569 199.503 521.756C200.037 522.147 200.429 522.325 200.856 522.325C201.283 522.325 201.675 522.147 202.209 521.756C218.191 509.973 233.533 497.372 248.056 483.775C267.919 465.158 285.966 444.904 302.091 422.977C321.954 395.924 338.399 366.877 351.747 336.122C363.209 309.746 372.18 282.515 379.156 254.643C383.214 238.411 386.738 222.037 389.372 205.485C391.081 194.735 392.79 184.02 394.178 173.235C395.388 164.015 396.207 154.725 397.061 145.47C397.844 137.105 398.521 128.775 399.09 120.41C399.553 113.789 399.873 107.133 400.158 100.512C400.478 92.1827 400.834 83.8176 400.834 75.4881C400.87 58.6512 400.728 41.8499 400.55 25.013C400.478 17.431 400.051 9.84906 399.873 2.26711C399.838 1.05684 399.446 0.558497 398.449 0.558497C398.343 0.558497 398.236 0.558497 398.129 0.558497C397.915 0.594093 397.702 0.594093 397.488 0.594093C397.132 0.594093 396.741 0.558497 396.385 0.558497H200.963C135.644 0.558497 70.3252 0.558497 5.04212 0.558497C4.61496 0.558497 4.22341 0.487305 3.83185 0.487305Z" fill="#00A14B"/>
<path d="M149.527 268.455C147.996 260.41 143.653 254.536 135.502 252.009C135.11 251.902 134.719 251.76 134.042 251.546C138.171 249.553 142.123 249.197 146.216 250.123C146.821 250.265 147.462 250.158 148.103 250.158C148.032 249.482 148.138 248.734 147.889 248.129C146.536 244.926 143.867 243.11 140.806 241.758C139.56 241.224 138.278 240.796 136.854 240.262C140.77 237.628 144.97 237.7 149.527 237.984C149.206 237.059 149.064 236.418 148.743 235.884C147.533 233.82 145.825 232.253 143.618 231.363C137.744 229.014 132.262 230.367 127.065 233.357C123.008 235.671 119.946 239.017 117.348 243.039C118.024 237.842 121.299 231.897 125.535 227.946C133.651 220.4 144.045 220.044 152.303 227.056C156.966 231.008 160.241 236.062 162.982 241.473C170.065 255.604 173.554 270.804 176.188 286.253C177.291 292.767 178.11 299.316 178.929 305.866C179.605 311.312 180.032 316.794 180.531 322.276C180.851 326.013 181.1 329.751 181.314 333.488C181.634 338.721 181.883 343.989 182.133 349.4C179.356 346.766 176.829 344.203 174.123 341.747C166.826 335.161 159.102 329.039 153.869 320.496C153.229 319.464 152.552 319.57 152.089 320.638C148.672 328.541 146.999 336.656 148.886 345.235C150.416 352.105 153.798 358.085 158.034 363.567C160.241 366.415 162.626 369.156 165.082 372.11C163.801 372.003 162.733 371.861 161.629 371.79C154.439 371.291 147.64 372.893 141.019 375.527C135.324 377.77 129.7 380.226 123.292 378.802C122.474 378.624 122.046 379.123 122.402 380.012C122.58 380.475 122.83 380.902 123.079 381.33C130.732 394.642 142.692 400.694 157.571 401.406C161.38 401.584 165.189 400.872 168.998 400.551C168.891 400.694 168.713 400.979 168.499 401.263C165.687 404.787 163.445 408.632 162.021 412.903C160.383 417.78 159.6 422.728 161.131 427.818C161.878 430.274 162.234 430.381 164.05 428.601C169.781 422.906 176.33 418.563 184.161 416.32C185.336 416 186.511 415.751 188.006 415.359C187.543 416.534 187.223 417.282 186.938 418.029C186.618 418.848 186.333 419.702 186.048 420.521C182.88 429.811 183.343 438.746 189.323 446.755C192.527 451.062 196.442 454.871 200.037 458.893C200.678 459.605 201.248 459.498 201.817 458.822C205.341 454.871 209.114 451.133 212.354 446.969C216.091 442.128 217.835 436.503 217.622 430.274C217.444 425.682 216.198 421.411 214.561 417.175C214.347 416.641 214.205 416.142 213.991 415.609C214.098 415.466 214.24 415.324 214.347 415.181C217.479 416.32 220.683 417.282 223.744 418.634C229.262 421.055 233.96 424.721 238.161 429.028C239.407 430.31 239.905 430.203 240.403 428.53C240.902 426.786 241.364 425.006 241.4 423.19C241.578 414.79 238.303 407.671 233.213 401.228C232.999 400.979 232.857 400.658 232.75 400.445C235.847 400.801 238.801 401.335 241.827 401.477C248.056 401.726 254.108 400.587 259.874 398.131C268.311 394.571 274.825 388.876 279.061 380.689C279.31 380.226 279.239 379.585 279.345 379.016C278.811 378.98 278.313 378.945 277.779 378.945C276.391 378.98 275.038 379.158 273.65 379.123C269.485 379.087 265.748 377.378 261.939 375.919C255.745 373.57 249.48 371.469 242.717 371.754C240.795 371.825 238.837 371.754 237.093 371.754C239.834 368.301 242.859 364.706 245.6 360.933C250.726 353.849 253.859 346.018 253.681 337.119C253.538 331.566 252.114 326.262 249.943 321.137C249.729 320.638 249.231 320.247 248.911 319.784C248.484 320.176 247.95 320.46 247.629 320.923C244.426 325.871 240.51 330.178 236.167 334.129C231.041 338.828 225.951 343.562 220.861 348.296C220.541 348.617 220.185 348.937 219.58 349.507C220.149 340.323 220.612 331.531 221.288 322.738C221.893 315.192 222.534 307.61 223.638 300.099C225.061 290.417 226.663 280.771 228.657 271.195C230.828 260.837 234.032 250.763 238.873 241.259C241.898 235.35 245.529 229.94 250.868 225.846C257.561 220.756 265.498 220.542 271.443 225.419C275.287 228.587 277.494 232.823 278.989 237.45C279.737 239.8 280.2 242.256 280.876 244.854C280.449 244.712 280.378 244.676 280.342 244.641C280.093 244.285 279.879 243.893 279.594 243.537C274.718 236.632 268.595 231.577 259.874 230.723C255.496 230.296 251.687 231.648 249.16 235.528C248.804 236.062 248.519 236.881 248.662 237.45C248.768 237.771 249.765 237.878 250.406 238.02C250.726 238.091 251.082 238.02 251.402 238.056C253.894 238.447 256.386 238.874 259.198 239.337C256.777 240.903 254.713 242.078 252.826 243.502C249.943 245.709 247.416 248.236 246.027 251.689C245.814 252.187 245.921 252.828 245.885 253.397C246.455 253.397 247.06 253.504 247.594 253.397C250.299 252.863 252.969 252.152 255.674 251.76C257.027 251.582 258.45 252.009 259.839 252.152C259.839 252.294 259.803 252.472 259.803 252.614C259.198 252.899 258.593 253.148 258.023 253.433C252.043 256.281 247.665 260.695 245.351 266.959C242.859 273.723 243.109 280.557 245.102 287.392C246.704 292.838 249.409 297.608 253.182 301.844C256.849 305.973 258.878 311.099 261.191 316.046C263.256 320.532 265.392 325.017 267.777 329.359C269.628 332.705 272.618 334.77 276.533 335.553C280.84 336.407 285.147 336.585 289.49 336.479C294.153 336.372 298.069 334.699 301.201 331.246C304.298 327.829 306.22 323.735 308.036 319.606C311.061 312.843 314.336 306.258 318.465 300.064C320.281 297.323 321.74 294.297 323.057 291.272C324.979 286.893 326.083 282.23 325.513 277.425C324.481 268.348 320.103 261.015 313.268 255.07C312.165 254.109 310.99 253.219 309.851 252.294C309.851 252.116 309.887 251.938 309.887 251.76C312.77 251.511 315.618 251.012 318.465 251.084C321.527 251.155 324.588 251.76 327.614 252.187C328.753 252.365 329.144 251.796 328.859 250.906C328.503 249.838 328.041 248.734 327.4 247.809C324.659 244.036 320.708 242.149 316.294 241.188C314.158 240.69 311.916 240.547 309.21 240.156C310.99 238.625 312.414 237.237 313.98 236.098C315.867 234.745 317.896 233.642 319.854 232.396C320.85 231.791 320.957 231.114 319.782 230.652C312.272 227.661 304.512 227.733 298.638 234.887C296.645 237.344 295.079 240.156 293.406 242.719C293.37 242.612 293.228 242.327 293.157 242.007C291.946 235.208 289.277 229.05 285.29 223.461C275.715 210.041 261.44 206.838 247.7 213.067C239.94 216.591 234.601 222.82 230.223 229.975C223.78 240.476 219.936 252.009 217.052 263.863C215.023 272.228 213.457 280.664 211.784 288.602C211.891 286.573 212.033 284.046 212.211 281.518C212.745 273.83 213.137 266.105 213.955 258.452C214.703 251.297 215.628 244.142 217.052 237.094C220.185 222.037 224.955 207.443 230.863 193.24C236.025 180.888 242.183 169.07 251.189 158.961C254.214 155.58 257.525 152.554 261.44 149.955C261.405 150.596 261.405 151.023 261.369 151.45C260.657 156.825 261.903 161.951 263.327 167.041C263.647 168.216 264.181 168.501 265.214 167.86C265.427 167.753 265.676 167.718 265.961 167.647C265.712 169.533 265.32 171.242 265.249 172.986C265.142 175.407 265.285 177.827 265.356 180.248C265.392 181.387 265.997 181.565 266.887 180.888C267.527 180.426 268.168 179.963 269.058 179.322C269.058 182.419 268.844 185.124 269.129 187.758C269.414 190.464 270.126 193.133 270.838 195.803C271.229 197.227 271.87 197.262 272.938 196.195C273.436 195.661 273.935 195.127 274.647 194.344C274.682 194.984 274.682 195.234 274.718 195.518C275.038 199.398 276.142 203.065 277.779 206.589C278.349 207.763 279.025 207.87 279.879 206.838C280.342 206.268 280.912 205.734 281.588 204.987C282.371 205.877 282.976 206.624 283.688 207.336C286.358 209.935 289.205 212.284 292.765 213.53C295.364 214.455 295.363 214.42 296.004 211.857C296.04 211.786 296.182 211.714 296.325 211.608C296.787 211.928 297.286 212.248 297.784 212.569C300.489 214.171 303.123 215.915 305.9 217.303C308.641 218.656 308.819 218.442 308.676 215.345C313.09 217.445 317.753 218.335 322.523 219.012C325.442 219.439 326.047 218.94 325.3 216.2C326.581 216.378 327.827 216.662 329.037 216.662C332.383 216.662 335.729 216.627 339.075 216.378C340.321 216.306 341.745 215.772 340.428 213.779C341.71 213.886 342.671 214.028 343.667 213.993C347.405 213.815 351.107 213.601 354.844 213.352C356.126 213.281 356.66 212.462 356.517 211.216C356.34 209.401 356.34 207.55 355.877 205.841C354.951 202.424 353.777 199.042 352.709 195.661C352.78 195.661 352.958 195.625 353.1 195.625C355.414 196.088 355.521 195.945 355.165 193.56C354.56 189.538 352.388 186.299 350.181 183.06C349.185 181.636 348.117 180.283 347.013 178.788C347.583 178.61 347.939 178.503 348.295 178.361C349.185 178.076 350.11 177.756 351 177.471C350.502 176.652 350.146 175.691 349.505 175.015C346.017 171.42 342.457 167.896 338.969 164.372C339.645 164.265 340.606 164.158 341.532 163.945C343.489 163.482 343.881 162.663 342.493 161.275C339.752 158.498 336.94 155.758 333.878 153.373C331.565 151.557 328.824 150.347 326.118 148.781C326.937 148.033 327.827 147.321 328.646 146.538C329.002 146.182 329.215 145.648 329.465 145.221C328.931 145.008 328.432 144.687 327.898 144.652C324.481 144.367 321.099 144.189 317.682 143.94C316.294 143.833 314.906 143.548 313.553 143.37C313.589 142.979 313.553 142.872 313.589 142.765C313.838 141.911 314.123 141.092 314.372 140.238C314.977 138.244 314.835 137.995 312.806 137.995C309.495 137.995 306.185 137.959 302.874 137.995C301.913 137.995 301.45 137.782 301.486 136.714C301.486 135.681 301.771 135.219 302.874 135.254C305.864 135.325 308.854 135.254 311.809 135.254C314.55 135.254 314.55 135.254 314.443 132.513C314.443 132.371 314.55 132.229 314.657 132.015C314.941 132.015 315.191 131.944 315.44 131.979C319.569 132.051 323.698 132.193 327.827 132.193C329.393 132.193 329.607 131.695 329.109 130.164C328.859 129.381 328.61 128.633 328.29 127.601C330.319 127.601 332.134 127.672 333.95 127.601C338.506 127.352 342.849 126.248 347.085 124.647C348.366 124.184 348.366 123.685 347.263 122.867C346.586 122.368 345.874 121.941 345.234 121.55C349.185 119.165 353.029 116.958 356.767 114.537C358.155 113.612 359.401 112.33 360.433 111.013C361.608 109.554 361.145 108.771 359.294 108.486C358.796 108.415 358.262 108.272 357.55 108.13C357.941 107.632 358.226 107.383 358.44 107.062C360.896 103.289 363.459 99.5514 365.772 95.707C366.805 93.9984 366.52 93.678 364.527 93.5356C363.85 93.5001 363.21 93.2865 362.391 93.1441C365.559 89.1929 367.837 85.0638 368.869 80.3651C369.546 77.3395 369.047 76.8767 366.057 77.6242C365.986 77.6598 365.879 77.553 365.772 77.5174C366.698 74.7053 367.695 71.9289 368.478 69.0812C369.154 66.6607 369.617 64.1689 369.973 61.6416C370.222 59.755 369.902 59.577 368.122 60.111C367.445 60.3246 366.734 60.4669 365.772 60.7517C368.976 54.6292 370.4 48.3999 370.4 41.8502C370.4 39.7145 370.258 39.6433 368.157 39.7857C362.925 40.1772 358.084 41.957 353.171 43.63C352.566 43.8436 351.961 44.0216 351.32 44.2708C351.214 43.8436 351.142 43.63 351.142 43.4164C351.178 41.9214 351.142 40.4264 351.249 38.9313C351.356 37.3295 351.036 36.938 349.541 37.3651C346.942 38.077 344.344 38.789 341.852 39.7501C339.147 40.8179 336.548 42.2062 333.772 43.5232C334.056 42.1706 334.377 40.9247 334.59 39.7145C334.768 38.7178 334.519 38.0414 333.238 38.5398C331.6 39.1805 329.892 39.6433 328.29 40.3908C323.983 42.4198 319.747 44.5911 315.618 46.6557C315.689 45.9794 315.724 45.0183 315.867 44.0216C316.08 42.7757 315.689 42.2774 314.443 42.8469C313.233 43.3808 312.022 43.9148 310.883 44.5555C305.793 47.51 301.415 51.39 297.642 56.1954C297.357 54.8428 297.108 53.7037 296.859 52.529C296.538 51.034 296.075 50.7848 294.901 51.7103C293.904 52.4934 292.872 53.3477 292.231 54.38C290.451 57.1565 288.778 60.0042 287.176 62.8875C286.429 64.2401 285.895 65.7351 285.183 67.3726C284.827 66.5895 284.614 66.1267 284.4 65.5928C283.617 63.7774 283.261 63.7062 281.944 65.13C281.659 65.4504 281.374 65.8063 281.125 66.1623C278.74 69.4727 277.388 73.2815 276.462 77.1971C276.035 78.9769 275.786 80.8279 275.394 82.7501C275.074 82.5009 274.896 82.3941 274.718 82.2873C273.864 81.7534 273.009 81.255 272.155 80.7211C271.941 81.7534 271.443 82.8568 271.55 83.8535C271.906 87.164 272.44 90.4388 272.902 93.6068C270.802 93.0729 270.802 93.0729 270.802 95.707C270.802 98.8395 270.802 102.008 270.802 105.14C270.802 105.959 270.98 106.813 269.628 106.813C268.417 106.813 267.99 106.35 267.99 105.14C268.026 101.652 267.99 98.1631 267.883 94.7103C267.883 94.1408 267.527 93.6068 267.349 93.0729C266.851 93.3577 266.317 93.6068 265.926 93.9628C265.605 94.2832 265.427 94.7815 265.214 95.1731C265.071 95.0307 264.893 94.9239 264.751 94.7815C264.751 94.0696 264.751 93.3577 264.751 92.6457C264.68 89.5845 264.787 86.452 264.431 83.4264C264.075 80.4007 263.612 80.3295 261.085 82.1093C261.085 81.3974 261.12 80.7923 261.085 80.2227C260.835 76.7343 260.337 73.3171 258.664 70.1847C257.418 67.8709 257.062 67.8353 255.496 69.9355C255.46 70.0067 255.318 69.9711 255.14 70.0067C254.926 69.1524 254.748 68.2981 254.428 67.4794C252.933 63.7062 251.474 59.933 249.872 56.1954C249.587 55.5547 248.662 55.1987 248.056 54.7004C247.736 55.3411 247.451 56.0174 247.131 56.6582C247.095 56.7294 246.953 56.765 246.846 56.8361C245.066 54.914 243.358 52.885 241.471 51.0696C240.296 49.9305 238.908 49.005 237.52 48.1507C236.488 47.51 235.811 47.9015 235.954 49.2186C235.989 49.539 235.989 49.8593 236.025 50.4289C235.455 49.8593 235.099 49.4678 234.672 49.1474C231.718 46.976 228.87 44.5911 225.702 42.7401C223.032 41.2095 222.498 41.7078 222.071 44.7691C222.071 44.8759 221.929 44.9115 221.751 45.1607C221.075 44.9115 220.291 44.6267 219.544 44.3775C217.195 43.5944 214.845 42.7757 212.46 42.135C210.004 41.4587 209.577 41.779 209.221 44.3063C208.972 46.1929 208.758 48.1151 208.545 50.0373C208.331 51.8527 208.118 53.7037 207.904 55.7327C207.406 55.3411 207.192 55.1275 206.943 54.914C205.555 53.8105 204.985 53.9885 204.736 55.7683C204.629 56.6226 204.7 57.5481 204.807 58.4024C205.128 61.0009 205.519 63.5994 205.875 66.3759C205.199 66.1267 204.629 65.9843 204.095 65.7352C202.956 65.2012 202.529 65.664 202.636 66.803C202.743 67.9065 202.885 69.01 203.134 70.0423C203.775 72.6764 204.522 75.2749 205.234 77.909C205.021 77.8378 204.807 77.731 204.594 77.6954C203.882 77.5174 203.17 77.3751 202.422 77.1971C202.351 77.9802 202.173 78.7633 202.28 79.5464C202.743 83.2484 204.665 86.3453 206.445 89.5133C206.801 90.154 207.192 90.7592 207.584 91.5067C205.199 91.6491 204.95 92.0406 205.804 94.0696C206.338 95.3154 206.979 96.5613 207.69 97.736C208.936 99.8717 210.253 101.936 211.606 104.072C211.357 104.143 211.179 104.179 211.037 104.214C210.325 104.392 209.648 104.57 208.936 104.748C209.292 105.389 209.541 106.137 210.075 106.671C213.101 109.696 216.162 112.686 219.224 115.676C219.33 115.57 219.224 115.712 219.081 115.783C218.583 116.032 218.049 116.246 217.551 116.495C217.871 117.029 218.085 117.705 218.547 118.097C219.936 119.343 221.359 120.589 222.926 121.621C225.026 123.009 227.233 124.184 229.475 125.465C229.262 125.608 229.048 125.679 228.87 125.821C228.514 126.106 228.158 126.462 227.838 126.747C228.229 127.103 228.55 127.53 228.977 127.743C229.831 128.135 230.721 128.455 231.611 128.633C235.028 129.31 238.445 129.915 241.863 130.556C241.08 131.089 240.261 131.659 239.086 132.478C243.642 135.361 248.27 136.714 253.467 137.034C253.04 137.532 252.755 137.853 252.435 138.244C247.914 143.655 243.109 148.887 238.908 154.547C226.414 171.491 217.942 190.464 211.926 210.575C209.079 220.115 206.516 229.726 205.27 239.657C204.451 246.136 203.811 252.65 203.277 259.2C202.707 265.785 202.387 272.406 201.924 278.991C201.71 282.159 201.426 285.291 201.176 288.46C200.785 286.573 200.642 284.686 200.464 282.8C199.824 276.179 199.219 269.558 198.542 262.937C197.866 256.316 197.332 249.66 196.478 243.075C195.089 232.467 192.776 222.073 189.608 211.857C181.456 185.658 168.214 162.343 149.883 141.946C148.032 139.882 146.109 137.853 144.187 135.788C149.242 135.219 154.225 134.969 159.137 132.584C157.892 131.73 157.037 131.125 156.503 130.769C160.49 129.879 164.619 128.989 168.713 127.993C169.318 127.85 169.816 127.245 170.35 126.818C169.887 126.426 169.389 126.035 168.926 125.608C168.855 125.536 168.855 125.43 168.962 125.75C172.522 123.258 175.974 120.838 179.392 118.346C179.961 117.919 180.246 117.136 180.637 116.531C180.032 116.246 179.427 115.961 178.858 115.641C178.786 115.605 178.786 115.463 178.893 115.748C181.99 112.722 185.016 109.803 187.935 106.849C188.504 106.279 188.789 105.425 189.181 104.677C188.397 104.499 187.65 104.357 186.867 104.179C186.796 104.143 186.724 104.036 186.582 103.93C186.831 103.538 187.116 103.147 187.365 102.719C189.003 99.9073 190.711 97.1665 192.206 94.2832C193.31 92.1474 193.025 91.7558 190.569 91.4355C190.996 90.7236 191.423 90.1184 191.743 89.4421C193.132 86.452 194.556 83.462 195.73 80.4007C196.086 79.4752 195.766 78.3005 195.766 77.2327C194.84 77.4462 193.915 77.6598 192.989 77.8734C192.954 77.8734 192.883 77.8378 192.74 77.8378C194.2 73.8866 195.445 69.8999 195.481 65.3792C194.235 65.7708 193.31 66.0555 192.313 66.3403C192.705 63.0299 193.167 59.8974 193.416 56.7294C193.488 55.9462 192.954 55.1275 192.705 54.3088L190.747 55.3055C190.604 55.3767 190.462 55.4479 190.177 55.5903C190.07 54.5936 189.964 53.6681 189.857 52.7782C189.501 49.6813 189.145 46.5489 188.789 43.4164C188.647 42.1706 187.899 41.6722 186.724 41.957C185.158 42.313 183.628 42.6689 182.097 43.1673C180.139 43.808 178.181 44.5199 176.152 45.2674C176.046 44.7691 175.974 44.4487 175.939 44.164C175.654 42.0994 175.227 41.6722 173.412 42.4198C171.418 43.2741 169.46 44.3419 167.681 45.6234C165.758 46.9761 164.014 48.6847 162.377 50.0729C162.163 49.3966 162.092 48.2575 161.665 48.1151C161.095 47.9015 160.099 48.2575 159.6 48.7203C157.678 50.3577 155.827 52.1019 154.012 53.8461C153.015 54.8072 152.161 55.9462 151.164 57.0497C150.986 56.765 150.879 56.6226 150.808 56.4802C150.559 55.9107 150.274 55.3767 150.025 54.8072C149.491 55.1631 148.921 55.4479 148.459 55.8751C148.138 56.1598 147.854 56.5514 147.676 56.9429C146.501 59.7194 145.326 62.4959 144.258 65.3436C143.689 66.9098 143.333 68.5472 142.799 70.3626C142.514 69.9711 142.372 69.8287 142.229 69.6507C141.126 68.1201 140.592 68.0845 139.702 69.7219C138.99 71.0746 138.278 72.4984 137.958 73.9934C137.353 76.6275 137.068 79.3684 136.605 82.0737C136.463 81.9669 136.285 81.8602 136.142 81.7178C134.79 80.4719 134.185 80.6143 133.758 82.3941C133.473 83.6044 133.295 84.8858 133.295 86.1317C133.224 89.0505 133.259 91.9338 133.259 95.1375C132.868 94.7815 132.69 94.5679 132.476 94.4256C131.907 93.9984 131.301 93.5357 130.732 93.1085C130.554 93.8204 130.198 94.5323 130.162 95.2443C130.056 98.6615 130.02 102.079 130.02 105.532C130.02 106.671 129.486 106.884 128.489 106.92C127.421 106.955 127.172 106.493 127.208 105.532C127.243 102.257 127.243 99.0174 127.243 95.7426C127.243 93.1797 127.243 93.1797 124.752 93.7848C125.072 92.7169 125.535 91.6847 125.677 90.6168C126.033 87.8403 126.282 85.0638 126.496 82.2873C126.532 81.8246 126.14 81.2906 125.926 80.7923C125.464 81.0058 124.93 81.1482 124.503 81.433C123.897 81.8246 123.328 82.3229 122.652 82.8924C122.509 82.1449 122.331 81.6822 122.296 81.1838C121.762 76.6631 120.445 72.356 118.273 68.3337C117.561 67.0522 116.6 65.8775 115.675 64.7385C114.998 63.9198 114.358 64.0621 113.931 65.0588C113.61 65.8063 113.29 66.5183 112.969 67.3014C111.439 64.2045 110.193 61.1433 108.449 58.3312C107.025 56.0174 105.174 53.9173 103.287 51.9239C102.113 50.678 101.472 51.034 101.152 52.707C100.938 53.8461 100.689 54.9496 100.44 56.1242C98.7666 54.3444 97.3072 52.6002 95.6698 51.034C92.2526 47.7592 88.4794 45.0183 84.1367 43.0961C82.3925 42.313 82.1077 42.5265 82.2501 44.3775C82.3213 45.2674 82.3569 46.1573 82.4637 47.2252C77.0531 43.3097 71.1797 40.8535 65.164 38.6822C63.6334 38.1482 63.2062 38.5398 63.5266 40.106C63.7757 41.2451 63.9893 42.4198 64.3097 43.808C63.7045 43.452 63.313 43.2385 62.9214 43.0249C58.4363 40.5332 53.7377 38.4686 48.683 37.4719C46.9032 37.116 46.7608 37.2227 46.7964 38.9669C46.832 40.7467 46.7964 42.5265 46.7964 44.3419C40.5671 42.3486 34.5514 39.5365 27.6458 39.928C27.361 47.2964 28.7848 54.1308 32.2377 60.8585C30.9918 60.4669 30.1019 60.2178 29.212 59.933C28.3933 59.6838 27.9305 59.933 27.9305 60.8585C27.9305 61.3568 27.8593 61.8908 28.0017 62.3535C29.3188 67.1234 30.6714 71.8577 31.9885 76.6275C32.0953 76.9479 32.1309 77.3039 32.2732 77.7666C31.8461 77.6598 31.6681 77.5886 31.4545 77.553C29.1408 77.0191 28.678 77.4463 28.9984 79.7956C29.034 79.9736 29.0696 80.1159 29.1052 80.2939C30.0663 84.7434 32.0953 88.659 34.8718 92.2542C35.0853 92.539 35.2633 92.8593 35.4413 93.1797C35.1921 93.3221 35.0497 93.4289 34.9074 93.4645C34.2666 93.5357 33.5903 93.6068 32.9496 93.6424C31.8461 93.7136 31.4189 94.1764 31.9529 95.2799C32.1665 95.707 32.3088 96.2054 32.5936 96.6325C35.0141 100.548 37.4703 104.428 39.962 108.379C40.0332 108.344 39.7484 108.486 39.4636 108.593C38.6805 108.878 37.8974 109.162 37.1143 109.483C37.4703 110.301 37.755 111.191 38.2178 111.974C38.5737 112.58 39.1433 113.078 39.7128 113.469C41.9198 115 44.1267 116.566 46.4405 117.99C48.5406 119.272 50.7476 120.339 53.0613 121.585C52.3138 122.048 51.7087 122.404 51.1391 122.831C50.712 123.152 50.3916 123.579 50.0357 123.97C50.4984 124.326 50.89 124.825 51.3883 124.967C55.8378 126.462 60.3229 127.708 65.0572 127.743C66.5522 127.779 68.0829 127.921 69.6847 128.028C69.3643 128.954 69.0795 129.772 68.7948 130.591C68.4744 131.588 68.688 132.3 69.8271 132.3C73.9562 132.3 78.0853 132.3 82.2501 132.157C83.3892 132.122 83.8875 132.229 83.5315 133.403C83.0688 134.898 83.7095 135.397 85.1689 135.397C88.4438 135.361 91.683 135.397 94.9579 135.361C95.9545 135.361 96.6309 135.397 96.6309 136.714C96.6309 138.031 95.9901 138.102 94.9579 138.102C91.6474 138.066 88.337 138.066 85.0266 138.102C83.2824 138.102 83.14 138.351 83.6383 140.095C83.9587 141.163 84.279 142.267 84.5994 143.37C84.1723 143.548 83.9231 143.69 83.6383 143.726C79.1532 144.082 74.6325 144.402 70.1474 144.758C69.6491 144.794 69.1507 145.079 68.6524 145.221C68.9016 145.719 69.0795 146.289 69.4355 146.681C70.2186 147.499 71.1085 148.211 71.9272 148.923C71.8204 149.137 71.8204 149.208 71.7848 149.243C71.2509 149.528 70.717 149.777 70.1474 150.027C64.3453 152.732 59.3974 156.541 55.4107 161.56C54.3072 162.948 54.592 163.695 56.3362 164.087C57.3329 164.301 58.3295 164.443 59.5398 164.621C58.8279 165.19 58.2939 165.546 57.8312 166.009C54.4496 169.355 51.0324 172.63 47.7575 176.047C46.4049 177.471 46.7252 178.112 48.7186 178.432C49.4661 178.539 50.1781 178.681 51.1036 178.859C50.2848 179.927 49.5729 180.782 48.9322 181.671C46.2981 185.302 43.664 188.897 42.8809 193.454C42.4181 196.052 42.5249 196.159 45.0522 195.732C45.1234 195.732 45.2302 195.839 45.4438 195.91C44.981 197.12 44.3759 198.295 44.0555 199.576C43.13 203.243 42.2401 206.909 41.4926 210.611C41.2079 211.999 41.5994 213.352 43.3436 213.459C47.2236 213.708 51.1391 213.85 55.0191 213.993C55.8022 214.028 56.6209 213.921 57.7244 213.85C56.4074 215.523 57.3329 216.057 58.5787 216.306C59.7178 216.556 60.8569 216.84 61.9959 216.805C65.5911 216.769 69.1863 216.591 72.7459 216.484C71.8916 218.798 72.3544 219.403 74.9173 219.118C76.6615 218.905 78.4057 218.691 80.1143 218.264C83.14 217.517 86.13 216.627 89.1913 215.808C89.2269 215.915 89.2625 216.128 89.2981 216.342C89.4049 218.371 89.5117 218.549 91.3627 217.659C94.068 216.342 96.7021 214.776 99.3006 213.281C100.155 212.818 100.902 212.177 101.792 211.536C101.97 211.964 102.184 212.177 102.148 212.426C102.113 214.206 103.181 214.455 104.426 213.815C106.811 212.604 109.232 211.394 111.439 209.863C113.325 208.546 114.892 206.802 116.636 205.2C117.063 205.628 117.455 206.019 117.811 206.446C119.27 208.119 119.59 208.119 120.48 206.126C122.118 202.495 123.114 198.722 123.435 194.45C124.04 195.127 124.467 195.589 124.894 196.052C126.211 197.512 126.674 197.44 127.279 195.554C128.845 190.855 129.522 186.05 128.988 181.102C128.952 180.639 128.988 180.176 128.988 179.464C129.664 179.927 130.056 180.212 130.447 180.497C132.262 181.814 132.583 181.743 132.761 179.5C132.939 177.364 132.832 175.193 132.725 173.057C132.618 171.313 132.262 169.569 132.049 167.718C134.327 168.572 134.541 168.43 134.612 166.009C134.683 164.087 134.932 162.165 134.897 160.243C134.79 155.722 134.576 151.201 134.363 146.218C139.311 151.842 144.365 157.075 148.85 162.806C163.551 181.493 173.518 202.637 180.068 225.419C183.094 235.849 184.802 246.563 186.012 257.313C186.511 261.727 186.796 266.212 187.08 270.626C187.508 276.677 187.828 282.764 188.219 288.815C187.65 286.822 187.294 284.829 186.974 282.835C185.087 271.302 182.631 259.947 178.929 248.841C175.761 239.266 171.845 230.011 165.296 222.215C156.931 212.248 146.323 207.763 133.508 211.038C118.344 214.918 109.196 225.205 104.854 240.049C104.747 240.369 104.64 240.69 104.498 241.046C103.323 239.017 102.362 237.059 101.116 235.243C95.385 226.772 87.7319 225.063 78.5837 228.587C78.1209 228.765 77.765 229.228 77.3734 229.548C77.7294 229.94 78.0141 230.402 78.4057 230.723C80.755 232.538 83.1756 234.282 85.4537 236.205C86.5216 237.13 87.3047 238.411 88.0878 239.408C85.0978 240.049 82.2857 240.369 79.6516 241.259C75.3444 242.719 72.034 245.459 70.6458 250.016C70.2186 251.475 70.539 251.689 72.0696 251.546C75.736 251.226 79.4024 250.87 83.0688 250.799C84.635 250.763 86.2012 251.333 88.1234 251.689C87.3403 252.258 86.9843 252.508 86.6284 252.757C81.1822 256.672 76.6971 261.407 74.3122 267.743C71.0373 276.464 71.7848 285.149 74.8105 293.728C76.4123 298.32 79.2244 302.235 82.0721 306.115C86.5928 312.309 91.0779 318.503 95.9189 324.447C99.0514 328.291 103.074 331.353 108.342 331.531C112.436 331.637 116.6 331.317 120.694 330.89C125.286 330.427 128.952 328.113 131.444 324.234C133.01 321.777 134.398 319.179 135.715 316.58C138.741 310.565 141.482 305.866 144.65 298.498C151.2 282.942 149.527 268.455 149.527 268.455Z" fill="#FFD400"/>
</g>
<defs>
<clipPath id="clip0">
<rect x="0.839844" y="0.487305" width="400" height="521.84" fill="white"/>
</clipPath>
</defs>
</svg>
