<svg width="401" height="523" viewBox="0 0 401 523" fill="none" xmlns="http://www.w3.org/2000/svg">
<g clip-path="url(#clip0)">
<path d="M200.549 521.864C122.735 465.41 69.4008 394.109 37.4881 303.92C8.5489 222.149 -3.06238 123.05 1.98418 0.968926L2.00512 0.487305H399.679L399.7 0.968926C404.736 123.05 393.124 222.138 364.196 303.92C332.283 394.109 278.948 465.41 201.135 521.864L200.842 522.074L200.549 521.864Z" fill="#0085CA"/>
<path d="M200.6 361.379C113.083 361.379 42.136 290.433 42.136 202.915C42.136 115.398 113.083 44.4509 200.6 44.4509C288.118 44.4509 359.064 115.398 359.064 202.915C359.064 290.433 288.118 361.379 200.6 361.379Z" fill="white"/>
<path fill-rule="evenodd" clip-rule="evenodd" d="M285.073 169.39C302.537 158.198 317.677 142.346 327.11 126.358C319.76 113.082 299.291 88.8651 277.158 76.4058C261.17 85.8393 245.318 100.979 234.126 118.443C217.709 144.074 208.359 174.227 207.406 196.11C229.289 195.157 259.442 185.807 285.073 169.39Z" fill="#0085CA"/>
<path fill-rule="evenodd" clip-rule="evenodd" d="M285.073 236.441C302.537 247.633 317.677 263.485 327.11 279.472C319.76 292.748 299.291 316.966 277.158 329.425C261.17 319.992 245.318 304.852 234.126 287.388C217.709 261.757 208.359 231.603 207.406 209.721C229.289 210.674 259.442 220.023 285.073 236.441Z" fill="#0085CA"/>
<path fill-rule="evenodd" clip-rule="evenodd" d="M116.129 169.39C98.665 158.198 83.5253 142.346 74.0918 126.358C81.4418 113.082 101.911 88.8651 124.044 76.4058C140.032 85.8393 155.884 100.979 167.076 118.443C183.493 144.074 192.843 174.227 193.796 196.11C171.913 195.157 141.76 185.807 116.129 169.39Z" fill="#0085CA"/>
<path fill-rule="evenodd" clip-rule="evenodd" d="M124.044 329.436C140.032 320.002 155.884 304.862 167.076 287.398C183.493 261.757 192.843 231.603 193.796 209.721C171.913 210.674 141.76 220.023 116.129 236.441C98.665 247.633 83.5253 263.485 74.0918 279.472C81.4418 292.748 101.911 316.966 124.044 329.425" fill="#0085CA"/>
<path d="M200.601 350.952C118.843 350.952 52.5646 284.673 52.5646 202.915C52.5646 121.157 118.843 54.8794 200.601 54.8794C282.359 54.8794 348.637 121.157 348.637 202.915C348.637 284.673 282.359 350.952 200.601 350.952Z" stroke="#0085CA" stroke-width="3" stroke-linecap="round" stroke-linejoin="round"/>
</g>
<defs>
<clipPath id="clip0">
<rect x="0.839844" y="0.487305" width="400" height="521.59" fill="white"/>
</clipPath>
</defs>
</svg>
