<svg width="401" height="500" viewBox="0 0 401 500" fill="none" xmlns="http://www.w3.org/2000/svg">
<g clip-path="url(#clip0)">
<path fill-rule="evenodd" clip-rule="evenodd" d="M400.46 0.654907C402.552 103.177 397.078 188.258 356.504 297.424C328.437 372.95 282.249 442.282 200.84 499.136C119.431 442.282 73.2428 372.95 45.1759 297.424C4.60138 188.258 -0.871926 103.177 1.21934 0.654907C134.3 0.945082 267.38 0.654907 400.46 0.654907Z" fill="#FFE000"/>
<path d="M16.7301 83.5622C14.492 81.7874 13.6054 66.9758 16.0497 66.3549C25.665 63.9126 35.9292 70.3498 41.7059 70.0055C46.1871 69.7384 51.5441 65.0164 60.8308 64.7034C72.6352 64.3056 79.9946 71.0471 85.7349 73.8053C90.7329 76.2068 90.1575 70.7413 98.4973 70.3001C104.202 69.9982 110.875 72.895 114.254 76.0008C116.533 78.095 108.163 83.8688 109.29 84.9633C111.471 87.0805 118.424 88.5877 122.441 88.699C122.441 88.699 121.234 92.7413 120.45 94.3402C130.687 95.9586 134.357 93.0245 134.357 93.0245C135.282 96.0216 132.877 101.598 132.877 101.598C133.378 101.588 134.587 101.526 135.083 101.487C165.118 99.1668 186.987 91.7326 211.006 82.3688C223.86 77.358 237.615 72.1821 254.075 69.1293C258.72 68.2679 264.623 67.3716 269.926 67.2156C269.926 67.2156 268.04 71.3681 267.614 73.2642C267.214 75.0449 276.264 70.857 286.153 73.9255C286.153 73.9255 282.04 77.0414 282.208 79.0577C287.918 78.4416 295.354 78.4681 299.595 80.2591C299.595 80.2591 294.664 84.0335 295.058 86.7867C300.501 86.8462 308.503 86.4116 313.016 90.1821C310.623 91.9681 308.209 93.5103 307.35 96.6854C313.5 97.7804 320.602 98.6329 324.202 102.014C318.103 106.581 319.267 108.732 324.868 110.337C333.268 112.745 350.076 113.364 354.354 114.616C368.976 118.896 372.926 128.6 373.454 138.223C373.85 145.422 373.448 151.298 380.064 159.044C378.404 159.484 372.147 160.111 369.974 159.034C373.659 167.938 377.37 178.239 377.692 190.255C375.711 190.24 372.984 189.898 370.004 187.759C370.034 197.198 367.263 198.68 365.105 204.615C363.238 209.75 362.333 218.703 362.968 224.479C357.897 223.033 353.793 217.229 353.101 212.687C351.986 214.782 351.09 216.387 349.353 217.249C348.408 206.322 344.891 201.709 342.002 198.145C340.286 200.362 341.049 202.488 341.187 204.297C334.598 203.216 328.43 196.826 326.61 189.733C324.638 182.047 326.975 177.742 322.807 171.416C312.512 179.769 314.143 191.394 318.28 200.353C323.304 211.231 331.997 217.14 339.447 221.537C340.874 222.38 338.771 225.437 334.915 227.331C340.826 230.575 350.291 234.747 350.8 235.64C351.268 236.462 347.163 239.157 344.476 239.041C343.834 239.83 349.223 243.658 352.325 246.993C354.188 248.997 354.829 251.279 353.044 252.55C340.121 261.75 334.607 266.425 330.44 272.975C328.506 276.013 326.734 279.883 326.16 283.951C325.645 287.601 326.404 291.208 327.018 295.139C323.975 294.552 322.994 294.031 321.504 293.066C320.644 292.508 318.456 290.218 318.289 290.687C317.608 292.601 318.205 296.916 319.896 299.572C317.755 300.42 315.477 299.517 313.555 298.727C310.75 297.575 308.988 294.242 308.608 295.204C307.881 297.046 308.659 300.558 310.102 303.578C307.196 303.764 304.012 302.838 302.046 301.095C299.119 298.501 298.765 296.664 297.977 297.012C297.014 297.438 296.543 302.106 297.735 305.637C287.684 305.617 283.54 296.157 282.583 286.703C282.036 281.298 282.318 280.169 286.508 277.732C290.423 275.453 297.125 269.373 299.967 263.867C302.337 259.274 301.253 243.474 293.002 234.418C283.739 224.251 281.883 233.506 280.447 243.41C279.357 250.919 280.869 258.254 281.331 259.804C278.354 259.81 275.288 259.003 273.262 257.623C271.424 256.372 270.527 254.524 269.753 254.743C267.298 255.437 268.032 267.393 269.11 270.509C266.36 270.747 261.814 269.416 259.643 267.044C258.883 271.656 261.085 281.512 258.788 281.83C243.537 283.941 232.936 290.843 227.139 303.458C223.24 300.623 222.274 296.409 221.885 293.438C219.404 296.063 218.046 299.137 217.364 302.481C214.096 300.758 212.371 297.052 211.62 292.094C208.886 294.678 207.494 297.396 206.366 300.159C203.033 297.605 201.774 293.934 200.745 290.139C198.268 291.201 196.336 293.137 194.758 295.638C191.236 292.575 192.433 275.647 194.901 271.458C197.152 267.638 202.002 267.927 207.538 266.516C214.79 264.667 223.539 260.621 232.394 247.86C236.767 241.556 238 234.548 236.444 228.849C234.433 221.485 228.349 216.2 224.451 216.333C222.431 216.403 213.922 220.759 210.007 226.457C206.465 231.612 203.962 237.929 203.319 243.405C200.741 243.09 198.145 242.194 196.641 239.907C196.713 248.311 194.889 254.728 194.166 257.818L188.728 256.147C188.728 256.147 187.75 259.547 187.918 261.267C188.082 262.948 189.665 266.025 189.665 266.025C185.85 268.18 181.346 264.25 179.32 267.164C176.814 270.769 177.11 277.162 176.352 280.687C175.792 283.295 174.056 286.159 167.048 287.182C161.601 287.978 153.571 288.175 144.29 293.064C139.429 295.625 130.942 304.671 131.298 312.916C126.581 310.927 125.253 306.223 125.776 302.481C122.564 302.896 120.327 306.711 119.525 311.37C115.253 309.687 113.871 304.11 114.138 301.032C111.363 301.955 109.295 305.761 108.659 307.27C105.137 305.842 104.481 299.403 104.943 296.342C101.875 297.084 100.34 298.913 98.6866 300.754C96.6986 295.639 96.2423 288.488 97.6094 282.637C98.9605 276.854 100.581 273.795 107.287 272.313C109.714 271.777 113.24 271.377 117.084 269.789C130.259 264.344 148.184 250.692 145.952 239.521C143.374 226.619 139.606 223.487 134.747 223.242C128.442 222.925 123.001 229.774 118.892 237.122C116.797 235.502 116.773 232.97 117.038 230.346C117.226 228.486 114.57 229.025 113.871 230.015C110.443 234.874 110.946 242.789 108.367 246.875C106.15 244.679 105.14 240.48 104.4 240.808C99.9799 242.771 101.085 247.043 97.2992 249.945C90.6281 247.005 80.229 244.801 72.3974 245.324C64.2577 245.867 58.397 249.986 52.9495 253.41C51.9695 250.624 52.8875 246.334 53.3577 242.757C50.543 243.257 49.007 246.047 46.8176 247.351C45.8697 241.965 47.4251 237.335 50.5972 233.96C46.0908 232.901 43.9104 236.181 41.8354 237.504C41.287 233.48 43.5803 228.135 46.6093 224.14C43.5383 223.342 39.2396 227.264 38.1404 228.138C38.5403 221.649 42.4753 213.812 47.678 209.999C50.1038 208.222 59.4702 206.72 63.8873 206.436C71.9652 205.916 76.9741 208.132 80.3024 207.9C85.5112 207.538 86.5448 205.015 88.4484 199.593C89.8469 195.609 91.585 191.105 91.6607 186.234C91.8036 177.036 89.4057 166.808 83.7772 157.637C81.4281 153.809 77.9365 159.327 75.7056 161.416C73.7358 158.238 72.3513 154.578 72.5367 147.088C72.5828 145.222 70.4626 143.716 69.7031 144.721C68.9608 145.702 66.7665 147.36 65.4119 147.753C63.2637 141.987 62.0333 136.068 58.0126 134.387C57.3883 136.013 55.7411 138.99 53.9257 140.459C51.4373 132.877 44.3864 125.462 34.257 118.205C31.5762 116.284 27.242 114.561 23.3456 113.216C20.2201 112.138 18.765 105.982 19.7915 100.928L22.6357 102.86L25.9958 101.251L28.796 104.189L32.1316 102.463L34.7227 105.107L38.0051 103.943L40.6248 106.401L43.9552 104.857L46.1849 107.254C48.4007 109.637 49.5896 93.6656 45.9858 92.978L42.507 94.7139L39.8893 91.3843L36.2559 92.6716L33.9832 89.6026L30.1103 91.2006L27.8407 88.2751L23.8019 89.6925L21.5122 85.5634C19.397 84.5412 18.5405 84.9978 16.7301 83.5622Z" fill="black" stroke="black" stroke-width="0.953" stroke-linecap="round" stroke-linejoin="round"/>
<path d="M53.0277 80.7248C50.8887 79.7267 53.5599 75.4849 59.146 76.2397C62.2939 76.6651 66.003 79.1353 65.8942 82.0515C65.8295 83.7866 58.4689 83.2637 53.0277 80.7248Z" fill="#FFE000"/>
</g>
<defs>
<clipPath id="clip0">
<rect x="0.839844" y="0.654907" width="400" height="498.48" fill="white"/>
</clipPath>
</defs>
</svg>
