<svg width="401" height="523" viewBox="0 0 401 523" fill="none" xmlns="http://www.w3.org/2000/svg">
<g clip-path="url(#clip0)">
<path d="M200.549 522.032C122.735 465.578 69.4008 394.276 37.4881 304.087C8.5489 222.316 -3.06238 123.217 1.98418 1.13653L2.00512 0.654907H399.679L399.7 1.13653C404.736 123.217 393.124 222.306 364.196 304.087C332.283 394.276 278.948 465.578 201.135 522.032L200.842 522.241L200.549 522.032Z" fill="#32AC60"/>
<path d="M356.299 32.0571C348.387 41.1779 340.177 53.8801 334.169 62.0896C311.219 93.451 294.22 83.2499 264.529 100.441C245.463 112.911 244.274 128.815 219.606 150.176C190.219 175.623 179.329 160.707 147.582 182.183C117.296 202.669 91.2794 256.951 29.1855 278.164C42.3779 321.63 62.1555 368.633 86.1241 403.122C136.066 378.074 155.415 331.055 175.518 289.917C182.588 275.448 193.093 259.181 203.733 249.026C222.442 231.17 234.46 234.686 255.767 198.72C274.524 167.059 284.963 133.224 305.188 120.541C329.965 105.004 333.007 105.275 343.519 89.7029C364.51 58.6077 354.476 43.3241 387.75 11.4602C391.124 8.23 399.018 0.662964 399.018 0.662964C399.018 0.662964 393.986 3.11179 388.311 6.41162C376.472 13.3466 364.576 22.516 356.299 32.0571Z" fill="white"/>
<path d="M38.9022 303.587L37.4881 304.087L38.9022 303.587C10.1226 222.267 -1.49793 123.678 3.44369 2.15491H398.24C403.171 123.678 391.551 222.257 362.781 303.587C331.051 393.261 278.091 464.182 200.842 520.391C123.592 464.182 70.6327 393.261 38.9022 303.587Z" stroke="#32AC60" stroke-width="3"/>
</g>
<defs>
<clipPath id="clip0">
<rect x="0.839844" y="0.654907" width="400" height="521.59" fill="white"/>
</clipPath>
</defs>
</svg>
