<svg width="401" height="523" viewBox="0 0 401 523" fill="none" xmlns="http://www.w3.org/2000/svg">
<g clip-path="url(#clip0)">
<path d="M200.549 522.032C122.735 465.578 69.4008 394.276 37.4881 304.087C8.5489 222.316 -3.06238 123.217 1.98418 1.13653L2.00512 0.654907H399.679L399.7 1.13653C404.736 123.217 393.124 222.306 364.196 304.087C332.283 394.276 278.948 465.578 201.135 522.032L200.842 522.241L200.549 522.032Z" fill="#E00E00"/>
<path fill-rule="evenodd" clip-rule="evenodd" d="M200.601 412.484L218.4 372.174L261.328 377.409L235.152 342.335L261.328 307.26L218.4 312.495L200.601 272.185L182.802 312.495L139.875 307.26L166.05 342.335L139.875 377.409L182.802 372.174L200.601 412.484Z" fill="#FFE000"/>
<path fill-rule="evenodd" clip-rule="evenodd" d="M92.7595 192.613L110.559 152.303L153.486 157.538L127.311 122.463L153.486 87.3888L110.559 92.6238L92.7595 52.3141L74.9604 92.6238L32.0332 87.3888L58.2083 122.463L32.0332 157.538L74.9604 152.303L92.7595 192.613Z" fill="#FFE000"/>
<path fill-rule="evenodd" clip-rule="evenodd" d="M308.442 192.613L326.241 152.303L369.168 157.538L342.993 122.463L369.168 87.3888L326.241 92.6238L308.442 52.3141L290.643 92.6238L247.716 87.3888L273.891 122.463L247.716 157.538L290.643 152.303L308.442 192.613Z" fill="#FFE000"/>
</g>
<defs>
<clipPath id="clip0">
<rect x="0.839844" y="0.654907" width="400" height="521.59" fill="white"/>
</clipPath>
</defs>
</svg>
