<svg width="401" height="523" viewBox="0 0 401 523" fill="none" xmlns="http://www.w3.org/2000/svg">
<g clip-path="url(#clip0)">
<path d="M201.131 522.032C278.944 465.578 332.279 394.276 364.192 304.087C393.131 222.316 404.742 123.217 399.695 1.13653L399.675 0.654907H2.0011L1.98016 1.13653C-3.05594 123.217 8.55535 222.306 37.4841 304.087C69.3968 394.276 122.731 465.578 200.545 522.032L200.838 522.241L201.131 522.032Z" fill="#0085CA"/>
<path d="M36.6783 125.783C34.8042 124.474 35.7465 122.704 36.8772 122.317C50.6872 117.532 52.7812 105.345 63.0838 103.094C64.581 100.288 65.7955 96.2674 65.4186 92.9484C68.6015 93.8384 73.0722 97.7123 74.5589 100.811C77.0089 98.508 77.6162 93.7442 77.1555 89.6399C86.4006 93.3777 87.1858 98.4452 88.0758 104.445C93.8448 104.287 102.483 104.643 106.493 107.387C103.571 109.669 102.619 113.574 102.619 113.574C105.362 113.208 109.696 112.328 112.021 113.229C109.78 115.428 108.461 118.286 108.461 118.286C109.393 117.919 112.324 117.794 113.35 118.433C112.199 120.034 111.351 121.71 113.225 122.987C164.099 157.758 192.211 138.504 239.148 152.46C247.577 154.963 255.994 158.009 263.114 163.36C278.683 175.065 293.729 191.733 310.502 204.79C320.961 212.935 327.568 221.07 337.378 227.824C345.482 233.404 350.811 258.815 348.508 262.375C346.519 265.453 328.332 268.133 326.238 264.092C325.704 263.066 323.673 264.909 321.704 264.657C319.024 264.301 316.208 261.935 315.046 260.553C310.041 254.575 307.717 260.249 303.979 258.354C277.144 244.796 266.224 224.683 251.377 203.428C249.943 208.014 248.676 210.045 246.362 209.407C244.289 208.831 241.996 211.176 242.164 213.166C242.991 223.196 259.575 226.4 260.842 236.064C261.491 240.995 261.544 247.287 259.261 249.748C254.403 254.972 254.277 263.223 248.634 265.087C247.838 265.348 247.65 265.725 246.194 267.201C244.676 264.28 240.467 265.16 238.865 267.296C237.127 264.835 234.29 265.484 232.583 265.348C231.798 261.893 232.688 258.03 238.782 256.909C243.567 256.03 245.755 250.983 245.849 246.586C246.058 236.482 235.777 237.09 224.427 234.608C224.898 240.838 220.93 247.591 218.009 251.643C215.402 255.255 213.476 252.47 208.659 258.312C206.408 261.045 205.529 267.201 202.063 267.369C199.09 267.516 199.184 267.746 197.435 270.081C196.315 268.992 196.21 267.201 193.719 267.296C191.614 267.379 190.892 268.981 190.232 269.934C189.091 267.851 188.285 266.929 185.322 266.961C182.097 267.003 182.547 260.982 189.876 260.071C198.346 259.014 201.55 242.628 205.456 234.598C188.421 232.326 186.84 224.588 180.641 219.73C177.469 217.238 176.359 216.872 174.129 217.741C171.344 213.689 167.952 213.71 167.826 216.841C165.02 214.872 160.958 206.863 159.293 212.391C157.482 211.763 154.791 210.422 153.618 208.81C152.749 215.909 159.565 224.368 157.649 230.315C151.786 225.227 154.048 233.027 154.623 238.786C148.53 236.849 158.717 261.516 140.646 270.468C139.264 268.008 136.824 267.934 133.223 270.206C131.767 268.762 130.605 266.667 126.878 267.495C127.276 260.281 133.484 260.574 137.955 257.758C141.484 233.959 131.485 229.206 125.349 229.289C126.941 232.912 126.03 236.053 125.108 239.477C119.465 235.54 121.863 242.754 120.899 245.686C115.821 242.157 116.743 252.826 113.403 251.025C110.545 249.497 109.278 250.784 109.592 255.894C105.194 260.605 101.792 266.207 97.0696 268.364C95.698 268.992 92.2638 268.447 91.311 270.28C89.6463 268.081 86.4739 268.657 84.7672 270.039C83.6888 268.144 81.197 268.835 78.9354 268.552C78.5376 261.569 82.4743 260.731 86.7775 259.998C90.8503 259.307 102.629 244.01 102.776 239.655C103.153 228.358 103.414 203.502 95.4048 197.733C86.411 198.319 88.3794 187.87 81.4273 188.655C83.6365 184.341 80.7363 176.29 73.9307 173.987C74.7788 168.396 71.9728 164.616 68.8423 164.92C69.3239 160.26 67.366 154.523 61.6389 153.026C62.0996 138.755 54.0167 137.781 49.4308 137.31C45.693 136.933 43.5362 135.645 41.7772 133.415C40.0078 131.164 51.0327 131.122 50.258 128.264C49.6926 126.159 41.861 129.374 36.6678 125.772L36.6783 125.783Z" fill="white"/>
</g>
<defs>
<clipPath id="clip0">
<rect x="0.839844" y="0.654907" width="400" height="521.59" fill="white"/>
</clipPath>
</defs>
</svg>
