<svg width="401" height="456" viewBox="0 0 401 456" fill="none" xmlns="http://www.w3.org/2000/svg">
<g clip-path="url(#clip0)">
<path d="M0.839844 58.1293V0.654938H400.84V58.1293C400.84 253.705 271.08 405.615 200.849 455.388C130.598 405.619 0.839844 253.703 0.839844 58.1293Z" fill="#004976"/>
<path d="M322.635 181.633L320.395 178.058L310.549 213.851L302.512 207.131L295.336 210.267L289.082 192.814L272.973 235.326L258.638 196.846L254.311 201.335L250.593 196.846L230.461 244.277L220.615 242.037L153.446 356.753L295.927 356.887C306.302 342.866 316.534 327.751 326.273 311.562C342.39 284.791 355.901 257.214 366.85 229.189L328.011 172.682L322.635 181.633Z" fill="white"/>
<path d="M215.46 216.653C215.46 216.653 188.833 213.597 158.864 200.266C126.969 186.092 108.011 161.373 113.162 142.129C116.845 162.852 143.391 189.757 188.618 190.196C188.618 190.196 147.925 176.058 145.255 157.27C142.558 138.446 169.248 125.751 185.464 120.151C201.681 114.525 267.559 97.2062 278.92 65.5976C289.608 35.8345 261.592 12.5222 261.592 12.5222C287.87 56.8263 243.862 83.0683 214.072 88.3185C214.072 88.3185 248.816 74.3688 251.701 44.4266C253.932 21.186 235.064 5.34579 230.503 1.87852H167.107C172.545 4.7276 192.784 15.7118 201.484 25.9971C211.572 37.9221 213.104 52.2123 190.975 65.9291C168.8 79.6638 131.843 86.8044 103.872 100.691C75.9003 114.561 73.3648 133.716 78.4358 151.169C83.4979 168.639 102.617 192.946 162.752 210.981C191.234 218.462 215.46 216.653 215.46 216.653Z" fill="#84BD00"/>
<path d="M121.248 75.8313C164.083 61.2813 186.912 57.0973 174.584 23.5086C178.956 46.8567 143.62 55.6637 112.522 66.8092C83.9326 77.0498 41.2591 92.003 60.6741 139.497C61.2116 112.475 74.794 91.5819 121.248 75.8313Z" fill="#84BD00"/>
<path d="M292.813 73.7626C278.504 104.431 232.417 122.994 190.936 135.564C258.301 130.054 312.416 106.859 327.629 64.6599C339.975 30.4082 319.511 6.1104 315.605 1.88158H275.664C280.359 6.80923 309.038 38.9823 292.813 73.7626Z" fill="#84BD00"/>
<path d="M399.34 2.15494H2.33984V58.1293C2.33984 155.582 34.6694 242.19 75.7864 310.663C116.573 378.587 165.956 428.582 200.849 453.546C235.732 428.58 285.11 378.585 325.895 310.662C367.01 242.189 399.34 155.583 399.34 58.1293V2.15494Z" stroke="#004976" stroke-width="3"/>
</g>
<defs>
<clipPath id="clip0">
<rect x="0.839844" y="0.654907" width="400" height="455.23" fill="white"/>
</clipPath>
</defs>
</svg>
