<svg width="401" height="523" viewBox="0 0 401 523" fill="none" xmlns="http://www.w3.org/2000/svg">
<g clip-path="url(#clip0)">
<path d="M200.552 522.078C122.741 465.623 69.4021 394.319 37.4839 304.112C8.53138 222.333 -3.05388 123.228 1.98134 1.14563V0.654907H399.7V1.14563C404.735 123.228 393.128 222.333 364.197 304.112C332.194 394.319 278.854 465.623 201.128 522.078L200.83 522.291L200.552 522.078Z" fill="#E00E00"/>
<path d="M168.977 209.851C162.171 214.332 158.053 220.946 152.164 224.786C147.897 227.581 143.758 228.648 142.392 227.283C141.027 225.917 141.475 220.007 142.627 217.233C144.505 212.689 149.028 209.105 156.367 207.312C161.275 206.118 160.016 200.912 155.813 199.653C152.463 198.671 146.489 199.952 142.136 201.786C130.722 206.822 136.312 214.588 132.066 223.421C128.61 230.654 119.969 231.955 118.923 231.038C117.878 230.12 116.598 220.69 117.75 217.468C120.054 210.961 123.105 208.102 126.284 204.133C131.554 197.349 123.852 197.114 119.883 199.269C115.232 201.786 109.898 201.168 104.82 198.693C98.569 195.663 94.4299 190.543 95.2833 188.857C96.1367 187.171 101.001 186.083 103.818 185.763C111.968 184.846 119.926 189.177 127.287 192.932C133.538 196.111 136.248 189.326 134.605 183.523C133.133 178.381 127.906 175.885 125.729 171.17C123.169 165.644 125.345 161.355 126.796 160.907C127.842 160.587 133.346 165.174 135.33 168.759C138.616 174.349 139.939 181.731 148.388 187.065C154.099 190.679 160.631 192.792 167.377 193.209C169.51 193.38 169.51 190.18 167.206 188.75C152.932 180.216 144.313 163.83 136.056 146.655C130.525 134.53 121.91 124.069 111.072 116.316C108.405 114.374 103.626 121.159 104.842 124.061C106.741 128.541 109.706 132.808 108.191 136.329C103.412 147.359 94.9633 149.642 86.8557 149.13C75.9532 148.575 65.0506 140.596 64.7946 132.36C64.6666 128.605 70.8753 124.445 74.3957 118.385C77.468 113.094 69.8298 107.717 65.4987 110.214C61.1676 112.71 59.3327 118.535 55.983 118.471C49.0489 118.343 37.933 106.779 36.7809 96.7722C35.6287 86.7658 44.1203 71.7882 49.817 70.7C54.4681 69.8253 61.8289 79.3837 65.52 82.0506C73.3075 87.6619 77.276 78.8503 75.6971 74.9885C73.5636 69.7613 60.1648 62.7418 61.1889 58.176C63.5998 47.3161 72.1981 38.2271 83.506 38.5898C93.1924 38.9099 103.668 44.9905 104.842 54.5276C105.524 59.6268 100.361 62.6778 98.2703 66.5182C95.07 72.3856 108.17 80.8985 112.181 76.4607C116.192 72.0228 113.824 63.3179 118.987 62.9979C130.487 62.2724 138.317 76.9087 139.171 88.2593C139.768 96.3242 138.531 104.986 131.746 109.19C127.692 111.686 125.089 107.056 120.246 105.456C115.403 103.856 113.845 106.971 115.168 108.059C128.972 119.964 137.741 129.736 142.905 141.662C148.708 155.348 156.974 167.851 167.291 178.552C170.641 181.944 177.959 187.236 180.093 184.782C181.799 182.776 180.605 174.114 177.959 169.122C172.092 158.454 163.024 151.498 154.148 140.916C150.927 137.075 148.537 128.413 150.159 127.24C151.78 126.066 155.535 127.048 157.455 128.925C160.3 132.189 162.475 135.98 163.856 140.084C166.8 148.511 171.622 141.598 171.302 135.176C170.918 127.432 168.998 124.189 170.065 115.782C170.62 111.387 175.484 104.965 177.938 105.114C179.837 105.242 182.205 113.414 181.586 120.049C180.327 134.984 174.588 139.252 175.762 150.666C176.53 158.198 184.296 160.161 185.213 151.093C185.96 143.049 186.728 137.203 189.886 134.024C191.571 132.36 194.153 130.867 195.028 131.379C195.902 131.891 198.228 136.691 196.308 142.729C194.174 149.557 190.59 158.56 190.099 168.93C189.608 179.299 191.507 189.817 192.979 198.799C193.619 202.725 178.364 203.451 169.041 209.595L168.977 209.851Z" fill="#FFE000"/>
<path d="M232.217 209.851C239.023 214.332 243.141 220.946 249.03 224.786C253.297 227.581 257.436 228.648 258.801 227.283C260.167 225.917 259.719 220.007 258.567 217.233C256.689 212.689 252.166 209.105 244.826 207.312C239.919 206.118 241.178 200.912 245.381 199.653C248.731 198.671 254.705 199.952 259.057 201.786C270.472 206.822 264.882 214.588 269.128 223.421C272.584 230.654 281.225 231.955 282.271 231.038C283.316 230.12 284.596 220.69 283.444 217.468C281.14 210.961 278.089 208.102 274.91 204.133C269.64 197.349 277.342 197.114 281.31 199.269C285.962 201.786 291.296 201.168 296.373 198.693C302.625 195.663 306.764 190.543 305.91 188.857C305.057 187.171 300.193 186.083 297.376 185.763C289.226 184.846 281.268 189.177 273.907 192.932C267.656 196.111 264.946 189.326 266.589 183.523C268.061 178.381 273.288 175.885 275.464 171.17C278.025 165.644 275.848 161.355 274.398 160.907C273.352 160.587 267.848 165.174 265.863 168.759C262.578 174.349 261.255 181.731 252.806 187.065C247.094 190.679 240.563 192.792 233.817 193.209C231.684 193.38 231.684 190.18 233.988 188.75C248.261 180.216 256.881 163.83 265.138 146.655C270.669 134.53 279.283 124.069 290.122 116.316C292.789 114.374 297.568 121.159 296.352 124.061C294.453 128.541 291.488 132.808 293.002 136.329C297.782 147.359 306.23 149.642 314.338 149.13C325.241 148.575 336.143 140.596 336.399 132.36C336.527 128.605 330.318 124.445 326.798 118.385C323.726 113.094 331.364 107.717 335.695 110.214C340.026 112.71 341.861 118.535 345.211 118.471C352.145 118.343 363.261 106.779 364.413 96.7722C365.565 86.7658 357.073 71.7882 351.377 70.7C346.726 69.8253 339.365 79.3837 335.674 82.0506C327.886 87.6619 323.918 78.8503 325.497 74.9885C327.63 69.7613 341.029 62.7418 340.005 58.176C337.594 47.3161 328.996 38.2271 317.688 38.5898C308.001 38.9099 297.526 44.9905 296.352 54.5276C295.669 59.6268 300.833 62.6778 302.924 66.5182C306.124 72.3856 293.024 80.8985 289.013 76.4607C285.001 72.0228 287.37 63.3179 282.207 62.9979C270.707 62.2724 262.876 76.9087 262.023 88.2593C261.426 96.3242 262.663 104.986 269.448 109.19C273.502 111.686 276.105 107.056 280.948 105.456C285.791 103.856 287.348 106.971 286.026 108.059C272.221 119.964 263.452 129.736 258.289 141.662C252.486 155.348 244.22 167.851 233.903 178.552C230.553 181.944 223.235 187.236 221.101 184.782C219.394 182.776 220.589 174.114 223.235 169.122C229.102 158.454 238.17 151.498 247.045 140.916C250.267 137.075 252.657 128.413 251.035 127.24C249.414 126.066 245.658 127.048 243.738 128.925C240.894 132.189 238.719 135.98 237.338 140.084C234.393 148.511 229.571 141.598 229.891 135.176C230.275 127.432 232.196 124.189 231.129 115.782C230.702 111.601 225.816 105.2 223.405 105.2C221.506 105.328 219.138 113.499 219.757 120.135C221.016 135.07 226.755 139.337 225.582 150.751C224.814 158.283 217.047 160.246 216.13 151.178C215.383 143.135 214.615 137.289 211.457 134.11C209.772 132.445 207.19 130.952 206.315 131.464C205.441 131.976 203.115 136.777 205.035 142.815C207.169 149.642 210.753 158.646 211.244 169.015C211.735 179.384 209.836 189.902 208.364 198.885C207.724 202.811 222.979 203.536 232.302 209.681L232.217 209.851Z" fill="#FFE000"/>
<path d="M200.618 217.297C203.008 214.865 210.475 217.297 218.007 222.013C227.011 227.581 238.51 230.141 245.402 233.726C249.093 235.646 252.912 239.999 252.379 241.279C251.845 242.559 244.1 247.039 233.966 239.401C233.141 238.632 232.099 238.134 230.983 237.974C229.866 237.814 228.727 237.999 227.718 238.506C226.71 239.012 225.881 239.815 225.343 240.807C224.804 241.798 224.582 242.931 224.706 244.052C225.181 246.944 226.421 249.655 228.297 251.906C230.172 254.157 232.616 255.865 235.374 256.854C247.728 260.033 250.032 255.744 259.675 255.979C264.755 256.042 269.62 258.033 273.288 261.548C275.848 263.894 265.756 269.164 258.907 268.204C250.01 266.945 247.472 265.281 243.972 268.204C241.391 270.338 244.271 276.525 249.797 278.381C262.47 282.649 263.217 299.056 260.102 298.714C244.335 297.05 236.953 288.623 236.633 276.312C236.313 265.644 221.826 265.473 226.179 279.939C228.803 288.644 232.942 297.007 224.685 305.968C222.338 308.486 218.284 299.29 216.833 294.362C213.27 282.393 218.839 272.749 219.436 258.795C219.355 252.321 217.637 245.972 214.444 240.34C212.673 236.905 207.787 236.499 208.662 240.511C210.747 248.881 211.175 257.579 209.921 266.113C206.955 281.582 200.106 296.602 199.253 317.319C198.687 325.05 199.111 332.822 200.512 340.447C201.173 343.669 204.779 343.37 205.483 340.298C206.699 334.921 208.598 328.392 213.356 326.728C219.756 324.488 229.934 326.728 236.42 332.83C244.954 340.746 247.087 354.976 241.028 362.807C238.724 365.772 230.211 361.057 223.96 365.175C222.039 366.412 221.826 369.058 222.317 371.832C222.807 374.605 223.682 377.187 225.112 377.806C229.678 379.79 236.057 375.544 238.105 378.19C245.082 387.151 241.412 402.171 234.009 409.702C230.705 412.883 226.687 415.225 222.292 416.532C217.896 417.838 213.252 418.072 208.747 417.213C202.709 415.911 208.15 401.616 205.654 396.24C203.947 392.57 201.514 391.332 199.253 391.332C197.642 391.478 196.142 392.211 195.037 393.391C193.931 394.571 193.298 396.117 193.258 397.733C192.575 403.622 197.141 413.564 192.041 417.789C182.056 426.067 169.575 422.888 162.62 412.092C158.118 405.115 155.067 399.547 156.902 391.588C158.736 383.63 167.271 388.473 172.775 382.115C177.17 377.059 173.927 367.33 168.017 368.183C163.046 368.909 157.627 374.925 153.979 371.256C147.962 365.196 149.413 352.053 155.28 342.474C160.059 334.729 170.364 328.798 175.869 330.59C180.392 332.062 181.395 336.35 183.016 341.471C184.638 346.592 188.734 344.607 188.521 342.943C183.55 303.045 199.765 275.096 198.634 248.426C198.378 242.239 194.836 237.758 189.225 238.91C187.092 239.358 184.958 244.607 183.379 248.191C181.8 251.776 182.184 256.896 182.291 262.38C182.483 271.383 184.254 281.88 183.635 289.817C183.144 297.221 178.877 302.021 176.53 301.488C174.802 301.061 173.01 297.413 172.733 294.234C172.646 290.011 173.252 285.802 174.525 281.774C175.442 278.168 175.08 272.237 173.053 271.106C171.026 269.975 167.697 270.274 164.284 280.366C161.147 289.625 158.16 292.335 150.885 295.301C148.09 296.431 139.236 295.919 138.766 294.042C138.105 291.417 141.199 284.249 144.292 281.816C148.559 278.467 153.979 277.016 155.813 272.429C157.35 268.61 156.091 268.162 153.68 267.33C149.669 265.9 144.954 268.311 139.556 267.522C135.118 266.881 128.888 261.868 129.25 260.203C130.019 256.598 136.59 254.379 141.753 254.677C147.621 255.019 150.842 258.155 158.694 258.048C163.029 258.19 167.317 257.111 171.068 254.933C179.304 248.874 180.136 239.614 178.344 235.731C177.384 233.598 173.885 234.387 171.346 236.606C166.631 240.724 164.646 245.14 156.133 245.29C153.595 245.29 147.77 244.778 148.453 242.815C153.317 228.968 166.353 230.931 176.53 228.648C185.939 226.514 192.852 225.17 200.618 217.255V217.297Z" fill="#FFE000"/>
<path d="M90.1403 107.419C97.446 107.419 103.368 101.496 103.368 94.1904C103.368 86.8847 97.446 80.9623 90.1403 80.9623C82.8346 80.9623 76.9121 86.8847 76.9121 94.1904C76.9121 101.496 82.8346 107.419 90.1403 107.419Z" fill="#E00E00"/>
<path d="M311.092 107.419C318.398 107.419 324.321 101.496 324.321 94.1904C324.321 86.8847 318.398 80.9623 311.092 80.9623C303.787 80.9623 297.864 86.8847 297.864 94.1904C297.864 101.496 303.787 107.419 311.092 107.419Z" fill="#E00E00"/>
<path d="M198.486 383.95C205.792 383.95 211.714 378.028 211.714 370.722C211.714 363.417 205.792 357.494 198.486 357.494C191.18 357.494 185.258 363.417 185.258 370.722C185.258 378.028 191.18 383.95 198.486 383.95Z" fill="#E00E00"/>
<path d="M90.141 98.2017C92.3562 98.2017 94.1521 96.4058 94.1521 94.1906C94.1521 91.9753 92.3562 90.1794 90.141 90.1794C87.9257 90.1794 86.1299 91.9753 86.1299 94.1906C86.1299 96.4058 87.9257 98.2017 90.141 98.2017Z" fill="#FFE000"/>
<path d="M311.093 98.2017C313.308 98.2017 315.104 96.4058 315.104 94.1906C315.104 91.9753 313.308 90.1794 311.093 90.1794C308.878 90.1794 307.082 91.9753 307.082 94.1906C307.082 96.4058 308.878 98.2017 311.093 98.2017Z" fill="#FFE000"/>
<path d="M198.483 374.733C200.698 374.733 202.494 372.937 202.494 370.722C202.494 368.507 200.698 366.711 198.483 366.711C196.268 366.711 194.472 368.507 194.472 370.722C194.472 372.937 196.268 374.733 198.483 374.733Z" fill="#FFE000"/>
</g>
<defs>
<clipPath id="clip0">
<rect x="0.839844" y="0.654907" width="400" height="521.64" fill="white"/>
</clipPath>
</defs>
</svg>
