<svg width="401" height="523" viewBox="0 0 401 523" fill="none" xmlns="http://www.w3.org/2000/svg">
<g clip-path="url(#clip0)">
<path d="M200.558 522.044C122.755 465.596 69.4114 394.284 37.495 304.085C8.542 222.306 -3.0533 123.217 1.97996 1.1253V0.654907H399.701V1.1253C404.734 123.217 393.116 222.212 364.186 304.085C332.27 394.284 278.927 465.572 201.123 522.044L200.841 522.255L200.558 522.044Z" fill="#E00E00"/>
<path d="M316.488 352.489H263.263L275.281 385.181C271.122 386.472 266.669 386.472 262.51 385.181L242.048 352.489H134.185L125.248 385.181C120.26 386.217 115.112 386.217 110.125 385.181L114.687 352.489H93.9899C91.9437 350.137 92.0143 339.576 93.9899 336.824H117.039L133.268 229.809L86.2284 201.256C86.0789 199.133 85.4666 197.069 84.4346 195.208C83.4026 193.347 81.9758 191.735 80.2543 190.484C78.0926 188.945 75.5962 187.943 72.9709 187.558C70.3457 187.174 67.6666 187.419 65.1546 188.273L37.7539 169.034C38.1067 162.613 44.8099 152.146 50.4076 149.371L81.1481 168.681C82.4417 176.325 87.1457 183.004 102.41 181.217L124.777 196.552L114.052 148.971C90.1562 147.207 76.5852 114.491 100.999 96.3337C99.7994 84.5738 99.0938 74.7895 92.4376 72.0847L87.5455 46.9655C91.1911 40.2858 103.68 37.5575 111.065 40.9444L117.933 65.8519C112.759 73.7781 115.252 81.7514 117.816 91.7238C148.391 94.311 154.765 130.367 132.374 144.996L148.603 208.547L186.094 233.408L192.468 224.635C179.104 214.468 168.259 201.363 160.771 186.334C153.283 171.305 149.353 154.755 149.285 137.964C148.486 77.3061 198.018 27.9144 260.628 28.0555C305.316 28.2201 344.994 57.5259 360.517 96.6395C367.742 114.819 369.992 134.596 367.037 153.934C364.081 173.272 356.026 191.474 343.701 206.665C330.732 222.436 313.69 234.353 294.426 241.122L316.488 352.489Z" fill="#E6E6E6"/>
<path d="M161.543 245.402L176.714 254.81L156.957 293.971C158.18 297.64 165.989 301.921 168.999 301.027L195.483 266.947L234.008 336.824H137.436L161.543 245.402Z" fill="#E00E00"/>
<path d="M239.625 297.452L268.555 315.609C276.763 314.504 282.22 307.283 281.585 297.287L211.143 248.601L217.07 238.723C236.826 248.342 263.662 248.836 276.104 245.779L294.92 336.918H256.113L239.625 297.452Z" fill="#E00E00"/>
<path d="M268.816 115.596C272.391 105.977 274.155 97.204 279.235 89.0661C285.233 79.4229 290.125 77.8941 298.357 67.4748C282.293 58.0669 260.066 55.5973 248.354 58.0669C252.422 70.7911 256.444 73.9428 258.679 85.0677C260.56 94.4756 259.173 103.202 259.149 113.456C262.495 113.516 265.792 114.261 268.839 115.644L268.816 115.596Z" fill="#E00E00"/>
<path d="M280.926 128.086C290.146 123.593 297.39 118.442 306.798 116.043C317.782 113.197 322.368 115.455 335.54 113.691C330.459 95.7222 315.995 78.6702 305.834 72.3904C300.001 84.4091 300.754 89.4659 294.686 99.062C289.558 107.176 282.549 112.539 275.446 119.948C277.831 122.295 279.712 125.104 280.973 128.203L280.926 128.086Z" fill="#E00E00"/>
<path d="M281.373 146.737C291.204 149.7 300.071 150.9 308.515 155.439C318.511 160.801 320.275 165.576 331.282 173.126C339.726 156.474 340.69 134.153 337.491 122.629C325.049 127.497 322.157 131.731 311.196 134.647C301.929 137.117 293.133 136.294 282.972 136.999C283.129 140.34 282.601 143.678 281.42 146.807L281.373 146.737Z" fill="#E00E00"/>
<path d="M268.98 158.802C273.566 167.975 278.764 175.266 281.281 184.533C284.244 195.493 282.01 200.103 284.033 213.251C301.955 207.982 318.842 193.377 325.051 183.145C312.962 177.43 307.929 178.23 298.262 172.256C290.101 167.199 284.668 160.237 277.094 153.228C274.77 155.636 271.976 157.541 268.886 158.826L268.98 158.802Z" fill="#E00E00"/>
<path d="M250 160.025C246.989 169.833 245.743 178.7 241.156 187.12C235.747 197.093 230.949 198.88 223.328 209.793C239.933 218.331 262.254 219.413 273.802 216.285C269.098 203.819 264.794 200.903 261.924 189.943C259.572 180.652 260.372 171.856 259.807 161.719C256.471 161.862 253.14 161.318 250.023 160.119L250 160.025Z" fill="#E00E00"/>
<path d="M236.569 147.184C227.608 152.193 220.575 157.72 211.45 160.637C200.654 164.094 195.926 162.095 182.896 164.706C188.965 182.346 204.347 198.575 214.86 204.313C220.011 191.989 218.976 186.979 224.503 177.054C229.207 168.657 235.863 162.942 242.543 155.133C240.031 152.927 237.998 150.23 236.569 147.207V147.184Z" fill="#E00E00"/>
<path d="M236.241 128.532C226.409 125.592 217.425 124.393 209.075 119.877C199.056 114.538 197.315 109.764 186.261 102.214C177.841 118.866 176.853 141.186 180.122 152.711C192.588 147.866 195.34 143.609 206.417 140.669C215.684 138.176 224.481 138.975 234.641 138.317C234.474 134.977 234.994 131.639 236.17 128.509L236.241 128.532Z" fill="#E00E00"/>
<path d="M249.694 115.15C245.131 105.977 239.957 98.6857 237.487 89.2777C234.571 78.3174 236.805 73.7075 234.83 60.5599C216.907 65.8754 200.044 80.4342 193.717 90.6654C205.782 96.4277 210.839 95.6281 220.459 101.626C228.597 106.706 234.006 113.668 241.462 120.724C243.797 118.323 246.598 116.426 249.694 115.15Z" fill="#E00E00"/>
</g>
<defs>
<clipPath id="clip0">
<rect x="0.839844" y="0.654907" width="400" height="521.6" fill="white"/>
</clipPath>
</defs>
</svg>
