<svg width="401" height="500" viewBox="0 0 401 500" fill="none" xmlns="http://www.w3.org/2000/svg">
<g clip-path="url(#clip0)">
<path fill-rule="evenodd" clip-rule="evenodd" d="M400.46 0.654907C402.552 103.177 397.078 188.258 356.504 297.424C328.437 372.95 282.249 442.282 200.84 499.136C119.431 442.282 73.2428 372.95 45.1759 297.424C4.60138 188.258 -0.871926 103.177 1.21934 0.654907C134.3 0.945082 267.38 0.654907 400.46 0.654907Z" fill="#FFEA00"/>
<mask id="mask0" mask-type="alpha" maskUnits="userSpaceOnUse" x="0" y="36" width="401" height="464">
<path fill-rule="evenodd" clip-rule="evenodd" d="M85.0403 242.971C43.195 131.234 150.44 127.371 122.903 36.1364C107.814 62.2821 83.8095 72.1881 66.419 75.9604C45.6965 80.4531 22.4125 81.0235 3.1108 106.539H0.839844V499.136H400.84V400.606H302.081C278.767 319.928 383.721 259.201 325.976 174.77C312.808 272.979 193.846 260.092 194.106 337.819C131.018 249.575 275.946 226.461 219.441 98.0938C206.344 192.891 96.9375 159.121 85.0403 242.971Z" fill="#EC1C24"/>
</mask>
<g mask="url(#mask0)">
<path fill-rule="evenodd" clip-rule="evenodd" d="M400.46 0.654907C402.552 103.177 397.078 188.258 356.504 297.424C328.437 372.95 282.249 442.282 200.84 499.136C119.431 442.282 73.2428 372.95 45.1759 297.424C4.60138 188.258 -0.871926 103.177 1.21934 0.654907C134.3 0.945082 267.38 0.654907 400.46 0.654907Z" fill="#EC1C24"/>
</g>
</g>
<defs>
<clipPath id="clip0">
<rect x="0.839844" y="0.654907" width="400" height="498.48" fill="white"/>
</clipPath>
</defs>
</svg>
