<svg width="401" height="493" viewBox="0 0 401 493" fill="none" xmlns="http://www.w3.org/2000/svg">
<g clip-path="url(#clip0)">
<path d="M0.839844 0H400.84V298.824C400.84 298.824 393.781 492.941 200.84 492.941C7.89867 494.118 0.839844 298.824 0.839844 298.824V0Z" fill="#E30613"/>
<path d="M145.544 24.7053C149.074 34.1171 138.486 37.6465 139.662 47.0583C142.015 57.6465 146.721 68.2347 150.25 77.6465C152.603 83.5288 159.662 85.8818 166.721 87.0583C169.074 87.0583 170.25 85.8818 171.427 83.5288C173.78 72.9406 164.368 64.7053 165.544 52.9406C165.544 44.7053 165.544 36.47 171.427 30.5877C174.956 27.0583 177.309 21.1759 182.015 19.9994C184.368 24.7053 184.368 29.4112 184.368 34.1171C184.368 47.0583 185.544 59.9994 191.427 71.7641C194.956 75.2935 196.133 81.1759 200.839 83.5288C214.956 90.5877 231.427 90.5877 247.897 90.5877C256.133 91.7641 258.486 82.3524 262.015 76.47C267.897 64.7053 272.603 51.7641 284.368 41.1759C292.603 35.2935 303.191 30.5877 312.603 35.2935C312.603 35.2935 319.662 39.9994 318.486 44.7053C318.486 44.7053 318.486 45.8818 316.133 47.0583C314.956 48.2347 312.603 48.2347 311.427 49.4112C307.897 50.5877 304.368 51.7641 300.839 52.9406C297.309 56.47 294.956 58.823 292.603 62.3524C292.603 62.3524 283.191 81.1759 282.015 91.7641C283.191 102.352 293.78 107.058 302.015 112.941C304.368 114.117 307.897 114.117 311.427 112.941C311.427 112.941 334.956 94.1171 340.839 79.9994C347.897 67.0583 362.015 58.823 376.133 58.823C376.133 63.5288 370.25 65.8818 367.897 68.2347C362.015 70.5877 356.133 76.47 356.133 82.3524C359.662 85.8818 364.368 83.5288 367.897 84.7053C372.603 85.8818 378.486 87.0583 380.839 92.9406C380.839 94.1171 380.839 95.2935 380.839 95.2935C380.839 98.823 380.839 101.176 378.486 103.529C376.133 104.705 373.78 104.705 371.427 103.529C369.074 102.352 366.721 102.352 366.721 102.352C354.956 98.823 344.368 107.058 336.133 115.294C330.25 122.352 325.544 129.411 326.721 138.823C326.721 142.352 338.486 172.941 338.486 172.941C340.839 178.823 344.368 192.941 344.368 191.764L345.544 201.176C345.544 201.176 347.897 211.764 351.427 211.764C353.78 211.764 358.486 210.588 363.191 207.058C366.721 204.705 371.427 201.176 373.78 197.646C374.956 196.47 377.309 194.117 377.309 194.117C377.309 194.117 377.309 194.117 378.486 194.117H379.662C380.839 194.117 380.839 195.294 380.839 195.294C380.839 196.47 382.015 198.823 382.015 198.823C383.192 202.352 382.015 205.882 380.839 209.411C377.309 215.294 374.956 218.823 370.25 222.352C369.074 223.529 345.544 235.294 345.544 235.294C340.839 245.882 333.78 255.294 325.544 264.705C307.897 281.176 289.074 292.941 270.25 307.058C269.074 308.235 270.25 309.411 270.25 310.588L271.427 311.764C283.191 309.411 296.133 310.588 306.721 314.117C309.074 316.47 311.427 317.646 310.25 321.176C310.25 325.882 307.897 329.411 305.544 332.941C300.839 337.646 294.956 338.823 290.25 339.999L289.074 341.176C300.839 363.529 329.074 401.176 329.074 405.882C329.074 411.764 311.427 408.235 296.133 415.294C277.309 424.705 260.839 441.176 249.074 451.764C234.956 462.352 219.662 471.764 200.839 469.411C198.486 465.882 192.603 456.47 189.074 445.882C185.544 436.47 183.192 427.058 184.368 422.352C184.368 418.823 191.427 407.058 192.603 402.352C192.603 394.117 187.897 387.058 185.544 383.529C184.368 382.352 182.015 381.176 179.662 381.176C172.603 379.999 162.015 382.352 153.78 381.176C140.839 379.999 132.603 375.294 126.721 372.941C124.368 371.764 120.839 371.764 117.309 371.764C111.427 375.294 103.192 378.823 94.9562 376.47C90.2503 375.294 87.8974 371.764 85.5445 367.058C83.1915 368.235 82.015 364.705 85.5445 362.352C92.6033 357.646 103.192 359.999 111.427 361.176C113.78 359.999 116.133 358.823 117.309 355.294C114.956 351.764 110.25 355.294 106.721 354.117C99.6621 355.294 92.6033 355.294 85.5445 352.941C83.1915 352.941 82.0151 350.588 80.8386 349.411C80.8386 348.235 79.6621 344.705 82.0151 344.705C86.7209 344.705 92.6033 344.705 94.9562 339.999C94.9562 338.823 96.1327 336.47 94.9562 335.294C94.9562 334.117 92.6033 332.941 91.4268 334.117C90.2503 336.47 87.8974 337.646 85.5445 338.823C83.1915 338.823 80.8386 338.823 79.6621 337.647C76.1327 334.117 76.1327 328.235 77.3092 324.705C78.4856 322.352 80.8386 321.176 82.0151 321.176C119.662 314.117 157.309 308.235 193.78 299.999C194.956 298.823 193.78 297.647 193.78 296.47C177.309 282.352 157.309 279.999 136.133 276.47C111.427 276.47 85.5445 279.999 67.8974 298.823C66.7209 298.823 65.5445 299.999 65.5445 298.823C62.015 292.941 67.8974 289.411 69.0739 284.705C74.9562 276.47 83.1915 270.588 85.5445 262.352C83.1915 249.411 63.1915 244.705 71.4268 229.411C76.1327 223.529 83.1915 216.47 80.8386 208.235C79.6621 199.999 76.1327 192.941 72.6033 185.882C71.4268 183.529 70.2503 179.999 72.6033 176.47C73.7798 175.294 77.3092 174.117 79.6621 175.294C91.4268 185.882 99.6621 199.999 111.427 210.588C114.956 214.117 139.662 236.47 165.544 251.764C187.897 265.882 212.603 272.941 225.544 275.294C252.603 282.352 274.956 267.058 294.956 251.764C310.25 242.352 316.133 225.882 312.603 209.411C307.897 184.705 299.662 161.176 283.191 141.176C258.486 117.646 224.368 109.411 189.074 114.117C162.015 112.941 137.309 121.176 111.427 123.529H106.721C91.4268 123.529 78.4856 121.176 64.368 118.823C49.0739 117.646 36.1327 122.352 23.1915 127.058C20.8386 127.058 19.6621 125.882 19.6621 123.529C19.6621 115.294 26.7209 107.058 34.9562 103.529C45.5445 97.6465 57.3092 102.352 69.0739 98.823C74.9562 91.7641 66.7209 84.7053 63.1915 77.6465C57.3092 69.4112 56.1327 58.823 54.9562 49.4112C54.9562 43.5288 64.368 34.1171 66.7209 34.1171C71.4268 34.1171 71.4268 42.3524 71.4268 42.3524C71.4268 57.6465 78.4856 69.4112 84.368 82.3524C92.6033 94.1171 105.544 98.823 118.486 97.6465C122.015 95.2935 127.897 94.1171 129.074 89.4112C130.25 82.3524 126.721 76.47 123.192 69.4112C118.486 56.47 114.956 38.823 123.192 25.8818C126.721 21.1759 132.603 17.6465 138.486 19.9994C142.015 21.1759 144.368 22.3524 145.544 24.7053Z" fill="white"/>
<path d="M203.191 318.824C203.191 318.824 202.014 310.588 186.72 311.765C180.838 312.941 176.132 317.647 173.779 322.353C172.603 323.53 169.073 323.53 169.073 324.706C169.073 325.883 169.073 327.059 170.25 328.236C176.132 328.236 180.838 332.941 186.72 334.118C192.603 335.294 199.661 330.588 200.838 329.412C200.838 328.236 204.367 323.53 203.191 318.824Z" fill="#E30613"/>
<path d="M187.897 329.413C186.721 329.413 194.956 322.354 187.897 315.295C194.956 315.295 198.486 317.648 198.486 321.177C197.309 324.707 192.603 329.413 187.897 329.413Z" fill="white"/>
</g>
<defs>
<clipPath id="clip0">
<rect x="0.839844" width="400" height="492.95" fill="white"/>
</clipPath>
</defs>
</svg>
