<svg width="401" height="522" viewBox="0 0 401 522" fill="none" xmlns="http://www.w3.org/2000/svg">
<g clip-path="url(#clip0)">
<path d="M200.817 521.768C122.69 465.388 69.5315 393.705 38.1198 303.497C9.12427 222.148 -2.95718 123.08 1.8754 1.46034V0.654907H399.758V1.46034C404.59 123.886 393.314 222.954 364.319 304.302C332.102 394.51 278.943 465.388 200.817 521.768Z" fill="#DA0E00"/>
<path d="M196.785 448.474C184.704 425.922 153.292 418.673 128.324 395.316C113.826 382.429 100.134 370.348 100.939 337.325C101.745 316.384 112.215 301.886 105.772 270.474C117.853 276.112 119.464 292.221 119.464 303.497C119.464 312.357 118.659 322.022 123.491 330.076C128.324 338.13 135.573 345.379 143.627 351.823C142.016 339.741 134.767 324.438 132.351 309.135C129.935 293.026 139.6 278.529 142.822 261.614C144.432 253.56 142.821 245.506 140.405 237.452C149.265 242.284 154.098 249.533 154.098 258.393C154.098 268.863 148.46 278.529 150.876 288.999C154.903 302.691 162.957 312.357 171.817 319.605C173.428 306.719 162.957 288.999 166.984 271.28C172.622 245.506 197.591 244.7 200.812 205.234C208.061 214.9 212.894 230.203 212.088 239.868C210.478 256.782 198.396 266.447 198.396 280.139C198.396 297.859 223.365 311.551 216.116 334.103C227.392 327.66 230.613 313.162 230.613 307.524C230.613 295.443 223.365 285.777 224.17 275.307C225.781 265.642 239.473 250.338 255.582 247.117C247.527 260.004 242.695 268.863 243.5 281.75C244.306 291.415 256.387 302.691 256.387 315.578C257.193 329.271 244.306 340.547 248.333 349.406C260.414 342.963 266.052 336.519 266.858 327.66C267.663 313.162 268.469 298.664 284.577 287.388C279.745 309.94 285.383 328.465 289.41 351.017C292.631 367.126 286.188 384.04 264.441 392.094C245.111 400.148 225.781 409.008 209.672 423.506C203.229 429.949 199.202 438.809 196.785 448.474Z" fill="#FFDA00"/>
<path d="M105.777 232.619C96.1122 212.483 70.3384 206.845 49.3972 187.515C37.3158 176.239 28.4561 167.379 28.4561 139.995C28.4561 118.248 40.5375 109.388 31.6778 86.0307C42.1484 90.8633 44.5647 99.723 42.9538 111.804C41.3429 119.859 41.3429 127.108 45.3701 134.357C49.3972 141.605 55.0352 148.049 63.0895 151.271C55.8407 139.189 53.4244 129.524 51.8135 115.832C51.0081 102.139 58.257 93.2796 60.6733 78.7818C61.4787 71.533 59.8678 63.4787 58.257 57.0352C63.895 59.4515 70.3384 67.5058 70.3384 74.7547C70.3384 83.6144 66.3113 91.6687 68.7276 100.528C71.9493 111.804 76.7819 118.248 84.0307 124.691C85.6416 113.415 76.7819 104.556 81.6144 88.447C87.2525 67.5058 104.972 68.3113 108.194 32.0669C114.637 40.9266 119.47 51.3972 118.664 61.8678C117.859 76.3655 104.972 82.0036 106.583 95.6959C108.194 112.61 127.524 117.442 121.081 136.773C130.746 131.135 133.967 119.053 133.162 114.221C131.551 103.75 125.913 98.9176 126.719 90.0579C127.524 82.0036 137.995 73.1438 150.881 67.5058C146.049 77.171 141.216 82.809 142.827 94.085C143.633 102.139 153.298 110.194 154.103 120.664C154.103 132.746 145.243 141.605 148.465 148.854C156.519 144.022 161.352 138.384 162.157 130.329C163.768 115.026 165.379 106.972 179.071 97.3067C171.823 127.108 176.655 129.524 180.682 151.271C183.099 164.963 179.877 177.044 158.936 185.099C142.022 191.542 129.94 199.596 116.248 211.678C110.61 217.316 107.388 224.565 105.777 232.619Z" fill="#FFDA00"/>
<path d="M283.774 232.619C274.109 212.483 248.335 206.845 227.394 187.515C215.313 176.239 206.453 167.379 206.453 139.994C206.453 118.248 218.535 109.388 209.675 86.0304C220.145 90.863 222.562 99.7227 220.951 111.804C220.145 119.053 220.145 126.302 224.173 133.551C228.2 140.8 233.838 147.243 241.892 150.465C234.643 138.383 232.227 128.718 230.616 115.026C229.811 101.334 237.059 92.4739 239.476 77.9761C240.281 70.7273 238.67 62.6729 237.059 56.2295C242.697 58.6458 249.141 66.7001 249.141 73.949C249.141 82.8087 245.114 90.863 247.53 99.7227C250.752 110.999 255.584 117.442 262.833 123.886C264.444 112.61 255.584 103.75 260.417 87.6413C266.055 66.7001 283.774 67.5055 286.996 31.2612C293.44 40.1209 298.272 50.5915 297.467 61.0621C296.661 75.5598 283.774 81.1978 285.385 94.8902C286.996 111.804 306.326 116.637 299.883 135.967C309.548 130.329 312.77 118.248 311.964 113.415C310.354 102.944 304.716 98.1119 305.521 89.2521C306.326 81.1978 316.797 72.3381 329.684 66.7001C324.851 76.3653 320.019 82.0033 321.63 93.2793C322.435 101.334 332.1 109.388 332.906 119.858C332.906 131.94 324.046 140.8 327.268 148.049C335.322 143.216 340.155 137.578 340.96 129.524C342.571 114.22 344.182 106.166 357.874 96.501C350.625 126.302 355.458 128.718 359.485 150.465C361.901 164.157 358.679 176.239 337.738 184.293C320.824 190.736 308.743 198.791 295.05 210.872C288.607 217.316 285.385 224.564 283.774 232.619Z" fill="#FFDA00"/>
</g>
<defs>
<clipPath id="clip0">
<rect x="0.839844" y="0.654907" width="400" height="521.11" fill="white"/>
</clipPath>
</defs>
</svg>
