<svg width="401" height="523" viewBox="0 0 401 523" fill="none" xmlns="http://www.w3.org/2000/svg">
<g clip-path="url(#clip0)">
<path d="M200.549 522.032C122.735 465.578 69.4008 394.276 37.4881 304.087C8.5489 222.316 -3.06238 123.217 1.98418 1.13653L2.00512 0.654907H399.679L399.7 1.13653C404.736 123.217 393.124 222.306 364.196 304.087C332.283 394.276 278.948 465.578 201.135 522.032L200.842 522.241L200.549 522.032Z" fill="#0085CA"/>
<path fill-rule="evenodd" clip-rule="evenodd" d="M187.66 412.384C190.906 401.516 205.847 387.068 206.077 383.487L207.03 368.641C207.208 365.814 202.821 363.416 202.905 359.113C203.02 352.747 207.899 352.433 208.38 349.271C208.967 345.428 207.218 344.497 205.606 342.287C203.993 346.664 202.067 350.925 198.779 354.673L193.377 344.193L190.833 350.705C194.968 356.412 190.979 362.976 188.77 364.358C185.482 367.635 182.844 371.457 180.834 375.792C183.022 383.037 180.342 390.617 177.18 394.931C177.64 390.272 176.269 385.916 174.405 382.304C173.369 391.183 171.002 400.941 168.05 407.233C163.181 407.401 159.391 407.956 157.653 416.447C154.554 413.515 152.941 407.861 156.543 403.422C153.947 401.422 151.277 396.993 148.764 398.019C145.56 399.318 144.576 401.831 142.89 405.003C140.451 397.873 143.058 393.873 146.544 389.602C145.539 388.418 145.194 387.351 143.204 386.586C140.336 385.476 137.645 386.649 134.87 388.021C137.017 382.859 136.566 377.205 149.958 379.446C158.742 380.911 158.344 375.101 169.254 374.598C175.148 374.326 178.729 366.128 181.001 362.128C178.96 360.181 177.064 355.04 183.064 351.648C185.598 350.213 186.289 344.183 186.404 341.167L177.347 348.946C157.328 333.932 129.635 331.21 109.941 311.149C99.2092 300.229 90.4353 272.505 90.1735 253.187C89.9955 240.309 90.4667 232.896 85.2526 224.604C81.7032 218.971 75.9657 216.081 71.118 216.5C62.6582 217.244 55.8527 219.599 47.0578 222.458C44.1891 223.39 41.1109 220.803 40.8282 218.605C38.4829 219.547 37.2369 220.803 35.9491 222.531C33.206 216.375 37.216 211.904 41.6658 209.506C49.9057 205.067 53.8006 204.742 61.1191 200.376C65.8935 197.528 68.5843 194.23 72.7514 190.535C76.4159 187.289 79.0648 183.017 86.2158 180.368C117.364 168.82 128.096 198.502 129.886 206.805C133.582 223.976 140.828 230.038 145.445 232.446C148.073 202.69 126.693 179.939 114.956 169.636C104.821 160.747 90.7284 152.392 84.5511 142.959C82.2163 139.399 82.4571 135.65 82.2477 131.996C70.7935 126.123 63.1084 116.689 57.4756 105.162C54.1042 98.262 51.6123 90.6921 49.5393 83.8866C33.1536 69.2704 25.4895 51.7121 25.0498 31.819C30.1487 35.3579 35.635 40.373 40.1371 46.4247C40.4303 40.7709 40.7025 36.8551 43.3096 30.6254C48.2619 35.4731 52.7012 40.6767 56.1773 46.5818C57.6535 42.3728 60.0826 38.3628 63.4854 34.3528C66.0715 36.4572 68.8774 39.2423 71.2646 43.2418C72.8456 40.0694 74.5103 36.897 78.0911 34.0282C81.0018 37.9963 83.8915 43.3989 85.3154 48.0057C87.3047 44.6553 90.2887 41.5143 95.241 38.7921C97.2931 43.2732 98.8113 47.6811 99.5337 51.9739C101.649 48.5816 104.832 46.5085 107.952 44.3517C109.082 48.9061 109.941 53.4606 110.014 58.0046C112.841 56.2352 116.024 54.9055 119.699 54.1935C120.181 59.9102 120.474 65.6268 119.699 71.3435C123.039 69.4379 126.368 68.3385 129.708 67.6894C130.043 73.8877 130.043 80.6304 127.646 86.8287C130.085 85.0802 133.258 83.8656 137.174 83.1746L134.472 100.408L142.576 98.9739L140.985 110.721C143.403 109.601 146.314 108.962 149.8 108.9C149.706 112.25 149.13 115.422 147.979 118.344C150.345 117.883 152.784 117.715 155.36 118.103C155.297 121.286 154.973 124.416 153.852 127.39C156.449 126.269 159.035 125.756 161.632 126.123C162.27 129.62 162.574 132.949 161.946 135.808C165.045 134.153 168.374 132.907 172.112 132.311C172.164 135.64 172.437 139.022 171.473 142.152C174.918 140.54 178.625 139.325 182.907 138.98C183.053 141.87 183.462 145.189 182.352 147.869C185.87 146.529 189.388 146.204 192.916 146.121C192.298 149.094 191.89 152.214 190.058 154.381C193.848 153.91 196.141 153.073 202.287 153.586C200.811 157.041 199.711 161.271 196.727 163.428C201.198 163.061 205.669 162.799 210.15 164.297C209.888 167.082 209.113 169.741 208.003 172.317C211.186 172.16 214.244 172.003 217.217 171.835C225.059 156.852 224.599 140.1 231.038 123.243C234.796 113.412 241.864 106.104 247.392 106.408C259.003 85.2267 277.692 69.6054 299.156 60.8315L313.929 54.8008C338.167 31.3688 363.756 30.9081 386.821 31.2955C381.251 36.5724 374.98 41.1583 367.923 44.9485C372.938 45.8698 377.932 47.901 382.529 51.6179C377.482 56.5283 371.588 60.3604 365.065 63.3653C370.425 64.0982 375.524 66.4539 380.466 70.9875C375.022 74.118 369.127 76.5471 362.677 78.1385C367.389 80.8398 372.069 83.562 375.545 87.5092C368.415 89.844 361.285 92.137 353.946 93.2259C356.898 95.9481 359.568 98.7122 361.254 101.644C355.066 103.759 348.752 105.078 342.355 105.936C345.936 108.355 347.486 111.339 349.182 114.197C343.779 114.909 338.387 114.689 332.984 114.354C335.194 116.553 336.806 118.846 338.062 121.181C333.937 122.134 329.802 122.291 325.676 121.977C328.503 124.154 330.001 127.348 330.597 130.08C325.875 131.138 321.017 130.489 316.149 129.442C318.075 132.038 319.248 134.624 320.117 137.221C316.62 138.76 313.133 138.792 309.636 138.331C311.291 140.927 313.029 143.514 313.447 146.11C309.375 146.969 305.291 146.728 301.218 146.11C304.035 148.434 305.605 151.219 306.726 153.544C303.103 154.915 300.328 155.052 296.612 155.481C298.842 158.035 300.988 160.611 302.171 163.585C299.26 164.778 296.35 164.914 293.439 164.851C296.015 167.5 298.423 170.202 299.951 173.269C297.376 175.112 294.643 176.023 291.848 176.609C294.036 179.3 295.889 181.583 297.878 184.87C295.366 186.315 292.465 187.634 289.617 188.367C292.256 190.713 295.219 192.995 297.083 195.989C294.172 197.989 290.685 199.308 288.508 200.198C290.706 201.717 293.24 204.271 294.706 206.47C293.334 207.873 290.455 210.501 288.476 211.213C290.863 212.595 293.261 216.134 294.423 217.746C292.465 219.568 289.68 220.667 287.021 221.515C289.188 223.358 292.12 226.478 293.732 229.462C291.785 231.891 288.874 232.896 286.382 233.818C288.246 235.912 290.528 239 291.534 241.733C288.968 243.199 286.56 243.722 284.068 244.12C285.587 247.513 287.126 250.894 287.408 254.287C284.822 254.915 282.11 254.664 279.305 253.805C280.477 256.946 281.597 262.37 281.241 265.867C278.98 266.128 275.828 265.668 273.912 265.238C274.457 269.175 275.043 273.143 274.551 276.672C272.583 276.682 270.332 276.881 268.122 275.824C268.437 279.53 269.065 282.336 268.039 286.042C265.589 285.979 262.573 285.121 260.427 283.268C260.542 287.875 259.903 292.251 258.668 294.774C261.401 297.34 264.427 299.465 265.892 302.711L280.268 303.192L327.111 326.698C319.363 329.053 311.081 330.791 301.857 331.461C306.935 334.801 316.379 341.031 318.85 345.91C306.265 345.554 293.931 343.649 281.932 340.036C285.471 343.69 286.801 346.549 289.314 350.203C270.949 344.832 252.574 337.754 234.21 330.509C228.085 335.901 223.52 342.162 219.28 348.611L215.469 342.099C214.139 343.743 212.464 345.837 212.369 348.685C212.307 350.684 216.966 353.03 216.893 358.129C216.809 364.473 212.401 365.751 212.443 369.876L212.6 384.806C212.663 390.261 223.049 389.56 220.306 403.548C218.976 400.941 216.913 399.422 214.746 398.072L218.474 419.745C225.897 419.703 220.044 432.885 217.207 434.832C217.029 431.283 216.641 427.733 214.987 424.195C212.757 419.441 207.721 417.651 205.616 421.975C204.119 425.053 203.418 428.33 200.371 431.032C197.596 427.911 195.858 421.902 196.403 416.258C191.398 418.007 186.802 420.436 184.927 427.409C180.76 424.153 178.666 415.211 187.671 412.363L187.66 412.384Z" fill="white" stroke="#0085CA" stroke-linecap="round" stroke-linejoin="round"/>
<path d="M157.328 388.649C159.663 386.167 165.516 382.178 168.761 381.739L157.328 388.649Z" stroke="#0085CA" stroke-linecap="round"/>
<path d="M205.836 398.407C203.313 402.155 202.287 409.013 202.266 413.651" stroke="#0085CA" stroke-linecap="round"/>
<path d="M234.179 330.53C255.674 331.336 277.608 331.933 301.826 331.482" stroke="#0085CA" stroke-linecap="round"/>
<path d="M281.901 340.057C275.912 337.817 271.703 334.686 267.525 331.639" stroke="#0085CA"/>
<path d="M258.636 294.795C255.683 294.952 252.731 295.047 249.977 294.157C249.778 298.156 249.328 302.124 247.035 305.904C243.381 305.611 241.12 303.82 239.256 302.292C238.157 306.03 237.591 309.809 234.335 313.369C231.006 312.039 229.77 309.914 227.906 307.652C227.645 311.872 227.1 316.196 223.697 320.122C219.206 318.06 217.573 314.762 215.761 310.951C215.552 315.317 214.641 319.557 211.311 323.619C205.155 315.379 199.773 306.532 195.114 297.099V286.859" stroke="#0085CA" stroke-linecap="round" stroke-linejoin="round"/>
<path d="M195.115 297.099C190.445 295.79 185.922 293.979 181.462 291.937L195.115 297.099Z" stroke="#0085CA" stroke-linecap="round"/>
<path d="M309.615 138.383C307.458 138.132 305.301 137.001 304.076 136.164" stroke="#0085CA" stroke-linecap="round"/>
<path d="M316.128 129.484C314.128 129.285 311.364 128.384 310.139 127.505" stroke="#0085CA" stroke-linecap="round"/>
<path d="M325.655 122.019C321.823 121.715 318.451 121.034 315.646 119.872" stroke="#0085CA" stroke-linecap="round"/>
<path d="M332.953 114.396C327.383 114.04 321.29 113.779 318.348 112.25" stroke="#0085CA" stroke-linecap="round"/>
<path d="M342.323 105.978C335.56 106.418 327.079 105.612 322.378 103.455" stroke="#0085CA" stroke-linecap="round"/>
<path d="M353.914 93.2782C346.93 94.3462 334.712 94.9639 328.325 93.1526" stroke="#0085CA" stroke-linecap="round"/>
<path d="M362.657 78.1909C349.769 81.803 341.539 83.1641 331.812 84.609" stroke="#0085CA" stroke-linecap="round"/>
<path d="M365.033 63.4281C353.851 68.5689 342.596 71.867 331.477 73.8353" stroke="#0085CA" stroke-linecap="round"/>
<path d="M367.891 45.0008C355.474 52.6439 341.559 59.0411 330.011 61.8157" stroke="#0085CA" stroke-linecap="round"/>
<path d="M153.831 127.421L151.926 130.091" stroke="#0085CA" stroke-linecap="round"/>
<path d="M147.958 118.364C146.963 119.987 144.241 122.532 142.388 124.364" stroke="#0085CA" stroke-linecap="round"/>
<path d="M140.963 110.742C139.843 113.297 138.293 115.527 136.314 117.401" stroke="#0085CA" stroke-linecap="round"/>
<path d="M134.461 100.429C132.441 104.638 130.148 107.329 127.792 109.664" stroke="#0085CA" stroke-linecap="round"/>
<path d="M127.625 86.8496C126.19 91.4145 124.002 95.6654 121.72 99.8848" stroke="#0085CA" stroke-linecap="round"/>
<path d="M119.689 71.3644C118.128 77.9815 116.171 84.431 112.852 90.3466" stroke="#0085CA" stroke-linecap="round"/>
<path d="M110.004 58.0256C109.878 66.6738 108.014 74.9137 105.669 83.049" stroke="#0085CA" stroke-linecap="round"/>
<path d="M99.5227 51.9948C99.8158 61.1875 99.4075 70.3279 97.125 79.3426" stroke="#0085CA" stroke-linecap="round"/>
<path d="M85.3047 48.0162C87.5767 57.9313 88.163 67.8465 88.0269 77.7616" stroke="#0085CA" stroke-linecap="round"/>
<path d="M71.2539 43.2523C75.6199 54.3506 77.0648 64.8206 77.0229 74.5054" stroke="#0085CA" stroke-linecap="round"/>
<path d="M56.166 46.5923C61.3173 54.9578 65.3168 63.5537 67.0339 72.5999" stroke="#0085CA" stroke-linecap="round"/>
<path d="M40.127 46.4352C47.5712 55.3348 54.5547 64.3181 58.9521 73.7306" stroke="#0085CA" stroke-linecap="round"/>
<path d="M40.8066 218.615C53.4021 213.673 68.5627 210.344 75.2322 210.606" stroke="#0085CA" stroke-linecap="round"/>
<path d="M73.482 216.564L65.7705 211.558L75.259 210.61L64.1734 208.843L67.9688 204.409L59.5273 201.219" stroke="#0085CA" stroke-linejoin="round"/>
<path d="M85.1895 194.429L90.9061 194.073C91.8065 192.21 94.0052 191.404 96.4029 191.236C99.1251 191.048 101.722 192.388 102.926 194.115C103.345 194.115 105.952 194.471 106.381 194.471" stroke="#0085CA" stroke-linecap="round" stroke-linejoin="round"/>
<path d="M145.413 232.467C152.826 235.566 161.087 236.467 164.72 241.147" stroke="#0085CA"/>
<path d="M157.768 249.114C167.452 240.843 168.018 234.948 171.358 228.342C181.608 229.096 210.568 201.224 217.196 171.877" stroke="#0085CA"/>
<path d="M234.179 330.53L218.735 330.373" stroke="#0085CA" stroke-linecap="round"/>
<path d="M97.1042 197.958C98.4168 197.958 99.4809 196.894 99.4809 195.581C99.4809 194.268 98.4168 193.204 97.1042 193.204C95.7916 193.204 94.7275 194.268 94.7275 195.581C94.7275 196.894 95.7916 197.958 97.1042 197.958Z" fill="#0085CA"/>
<path fill-rule="evenodd" clip-rule="evenodd" d="M91.4355 194.206C91.7504 193.324 93.2772 191.74 96.8867 191.74C99.8971 191.74 101.683 193.266 102.507 194.375C102.804 195.453 102.619 197.085 101.763 198.456C100.913 199.818 99.4047 200.916 97.034 200.916C95.7363 200.916 94.0963 200.157 92.8842 198.906C91.7088 197.693 91.0113 196.099 91.3595 194.418L91.4355 194.206ZM90.3177 194.579L85.2373 194.896C84.9617 194.914 84.7243 194.704 84.707 194.429C84.6898 194.153 84.8993 193.916 85.1749 193.898L90.6277 193.558C91.2996 192.22 93.2917 190.74 96.8867 190.74C100.164 190.74 102.198 192.358 103.207 193.644L106.524 193.982C106.799 194.01 106.999 194.255 106.971 194.53C106.943 194.805 106.697 195.005 106.423 194.977L103.589 194.688C103.769 195.99 103.468 197.613 102.612 198.985C101.589 200.625 99.7678 201.916 97.034 201.916C95.4032 201.916 93.5181 200.997 92.1661 199.602C90.913 198.309 90.0501 196.533 90.3177 194.579Z" fill="#0085CA"/>
</g>
<defs>
<clipPath id="clip0">
<rect x="0.839844" y="0.654907" width="400" height="521.59" fill="white"/>
</clipPath>
</defs>
</svg>
