<svg width="401" height="523" viewBox="0 0 401 523" fill="none" xmlns="http://www.w3.org/2000/svg">
<g clip-path="url(#clip0)">
<path d="M200.549 522.032C122.735 465.578 69.4008 394.276 37.4881 304.087C8.5489 222.316 -3.06238 123.217 1.98418 1.13653L2.00512 0.654907H399.679L399.7 1.13653C404.736 123.217 393.124 222.306 364.196 304.087C332.283 394.276 278.948 465.578 201.135 522.032L200.842 522.241L200.549 522.032Z" fill="#E00E00"/>
<path d="M24.6942 141.331C23.5006 125.646 22.8934 114.391 28.076 102.916C35.8134 85.766 46.608 79.7561 59.6642 79.7247L60.6484 68.4485C61.0358 63.9568 75.1808 54.5338 89.3886 44.8909C104.319 34.7663 115.543 23.5843 126.17 26.9033C142.796 32.1069 154.847 49.3511 181.242 108.842C185.368 118.129 170.888 120.799 187.221 148.209L264.04 277.106C268.353 284.341 273.18 284.896 283.304 292.843C356.375 350.229 263.212 427.048 233.122 364.615C222.306 342.177 234.189 318.337 225.342 306.59C205.46 280.205 170.563 221.353 140.462 182.028C125.615 162.878 115.417 168.259 111.826 163.914L63.3706 105.219C57.6853 97.9845 47.0582 101.136 42.6818 107.732C29.8559 127.049 27.8038 137.645 24.6942 141.331Z" fill="#FFE000"/>
</g>
<defs>
<clipPath id="clip0">
<rect x="0.839844" y="0.654907" width="400" height="521.59" fill="white"/>
</clipPath>
</defs>
</svg>
