<svg width="401" height="500" viewBox="0 0 401 500" fill="none" xmlns="http://www.w3.org/2000/svg">
<g clip-path="url(#clip0)">
<path fill-rule="evenodd" clip-rule="evenodd" d="M400.46 0.654907C402.552 103.177 397.078 188.258 356.504 297.424C328.437 372.95 282.249 442.282 200.84 499.136C119.431 442.282 73.2428 372.95 45.1759 297.424C4.60138 188.258 -0.871926 103.177 1.21934 0.654907C134.3 0.945082 267.38 0.654907 400.46 0.654907Z" fill="#FFE000"/>
<mask id="mask0" mask-type="alpha" maskUnits="userSpaceOnUse" x="0" y="94" width="401" height="406">
<path fill-rule="evenodd" clip-rule="evenodd" d="M400.84 244.602H360.436V194.572H331.419V144.542H302.401V94.5115H273.384V144.542H244.366V194.572H215.349V244.602C205.673 244.602 196.007 244.602 186.331 244.602V194.572H157.314V144.542H128.296V94.5115H99.2786V144.542H70.2611V194.572H41.2436V244.602H0.839844V499.046H400.84V244.602Z" fill="black"/>
</mask>
<g mask="url(#mask0)">
<path fill-rule="evenodd" clip-rule="evenodd" d="M400.46 0.654907C402.552 103.177 397.078 188.258 356.504 297.424C328.437 372.95 282.249 442.282 200.84 499.136C119.431 442.282 73.2428 372.95 45.1759 297.424C4.60138 188.258 -0.871926 103.177 1.21934 0.654907C134.3 0.945082 267.38 0.654907 400.46 0.654907Z" fill="black"/>
</g>
</g>
<defs>
<clipPath id="clip0">
<rect x="0.839844" y="0.654907" width="400" height="498.48" fill="white"/>
</clipPath>
</defs>
</svg>
