<svg width="401" height="523" viewBox="0 0 401 523" fill="none" xmlns="http://www.w3.org/2000/svg">
<g clip-path="url(#clip0)">
<path d="M200.549 522.032C122.735 465.578 69.4008 394.276 37.4881 304.087C8.5489 222.316 -3.06238 123.217 1.98418 1.13653L2.00512 0.654907H399.679L399.7 1.13653C404.736 123.217 393.124 222.306 364.196 304.087C332.283 394.276 278.948 465.578 201.135 522.032L200.842 522.241L200.549 522.032Z" fill="#FFE000"/>
<mask id="mask0" mask-type="alpha" maskUnits="userSpaceOnUse" x="0" y="140" width="401" height="383">
<path fill-rule="evenodd" clip-rule="evenodd" d="M376.111 230.965C369.672 215.123 369.483 205.156 372.101 193.691C377.147 171.463 363.505 148.073 336.712 140.263C346.868 156.177 344.994 175.379 336.377 188.184C327.477 201.397 317.876 209.878 317.479 227.017C317.269 236.252 322.525 250.209 326.231 255.444C313.374 251.601 303.888 243.927 298.622 230.975C292.183 215.134 296.182 205.166 298.8 193.702C303.857 171.463 290.214 148.073 263.422 140.263C273.578 156.177 271.703 175.379 263.087 188.184C254.187 201.397 244.586 209.878 244.188 227.017C243.979 236.252 249.235 250.209 252.941 255.444C240.084 251.601 230.598 243.927 225.332 230.975C218.893 215.134 222.892 205.166 225.51 193.702C230.567 171.463 216.924 148.073 190.131 140.263C200.287 156.177 198.413 175.379 189.796 188.184C180.897 201.397 171.296 209.878 170.898 227.017C170.688 236.252 175.944 250.209 179.651 255.444C166.794 251.601 157.308 243.927 152.041 230.975C145.602 215.134 149.602 205.166 152.219 193.702C157.276 171.463 143.634 148.073 116.841 140.263C126.997 156.177 125.123 175.379 116.506 188.184C107.606 201.397 98.0053 209.878 97.6075 227.017C97.3981 236.252 102.654 250.209 106.36 255.444C93.5032 251.601 84.0173 243.927 78.7509 230.975C72.3118 215.134 76.3114 205.166 78.9289 193.702C83.9859 171.484 70.3434 148.084 43.6239 140.273C53.8636 156.188 51.9894 175.39 43.3726 188.194C34.473 201.408 23.0293 211.773 20.1291 228.881C19.2496 234.043 18.8203 239.246 18.8203 239.246H0.839844V522.245H400.84V241.089H381.943C380.236 238.597 377.357 234.022 376.111 230.965Z" fill="#0085CA"/>
</mask>
<g mask="url(#mask0)">
<path d="M200.549 522.032C122.735 465.578 69.4008 394.276 37.4881 304.087C8.5489 222.316 -3.06238 123.217 1.98418 1.13653L2.00512 0.654907H399.679L399.7 1.13653C404.736 123.217 393.124 222.306 364.196 304.087C332.283 394.276 278.948 465.578 201.135 522.032L200.842 522.241L200.549 522.032Z" fill="#0085CA"/>
</g>
</g>
<defs>
<clipPath id="clip0">
<rect x="0.839844" y="0.654907" width="400" height="521.59" fill="white"/>
</clipPath>
</defs>
</svg>
