<svg width="401" height="523" viewBox="0 0 401 523" fill="none" xmlns="http://www.w3.org/2000/svg">
<g clip-path="url(#clip0)">
<path d="M201.131 522.032C278.944 465.578 332.279 394.276 364.192 304.087C393.131 222.316 404.742 123.217 399.696 1.13653L399.675 0.654907H2.0011L1.98016 1.13653C-3.05594 123.217 8.55535 222.306 37.4841 304.087C69.3968 394.276 122.731 465.578 200.545 522.032L200.838 522.241L201.131 522.032Z" fill="#0085CA"/>
<path d="M57.4713 173.442C85.3007 208.81 134.154 251.57 161.47 268.929L123.464 293.46C127.265 310.485 165.114 341.235 197.079 338.586C286.483 331.194 283.279 211.899 254.444 87.3573L181.73 58.3344L181.07 18.7576L356.862 42.9434L355.941 89.0325C340.728 92.9065 328.07 89.6608 327.389 127.814C324.688 280.781 369.699 330.639 171.145 435.727C100.084 363.672 54.2152 281.891 57.4713 173.442Z" fill="white" stroke="#0085CA"/>
</g>
<defs>
<clipPath id="clip0">
<rect x="0.839844" y="0.654907" width="400" height="521.59" fill="white"/>
</clipPath>
</defs>
</svg>
