<svg width="401" height="523" viewBox="0 0 401 523" fill="none" xmlns="http://www.w3.org/2000/svg">
<g clip-path="url(#clip0)">
<path d="M200.549 522.032C122.735 465.578 69.4008 394.276 37.4881 304.087C8.5489 222.316 -3.06238 123.217 1.98418 1.13653L2.00512 0.654907H399.679L399.7 1.13653C404.736 123.217 393.124 222.306 364.196 304.087C332.283 394.276 278.948 465.578 201.135 522.032L200.842 522.241L200.549 522.032Z" fill="#E00E00"/>
<path d="M121.562 103.073C136.126 85.211 154.354 114.203 168.07 104.015C154.501 105.785 146.753 86.3209 159.987 79.62C150.25 76.2487 150.92 55.6227 164.437 54.1359C159.82 42.9748 170.991 29.8454 186.141 34.4522C187.293 23.6262 212.484 21.5741 214.725 36.8708C225.226 31.018 238.795 42.3257 234.272 54.3977C247.13 57.3921 249.412 72.6888 242.355 81.358C251.297 93.3358 235.895 107.125 226.231 102.33C237.874 112.58 257.034 92.0899 274.572 104.403C252.961 104.78 245.747 124.599 222.535 115.323C221.3 121.992 239.769 118.914 241.811 131.091C223.08 124.379 218.096 138.221 204.736 126.777C207.406 141.006 209.521 157.768 207.992 172.856C202.852 223.531 185.147 275.138 207.835 312.819C207.762 273.431 236.01 243.728 258.584 230.996C252.333 232.64 245.255 233.038 239.643 232.012C238.869 229.855 238.952 227.614 239.968 225.29C235.77 227.468 225.488 228.253 222.923 223.52C224.556 221.971 226.263 221.029 227.456 220.107C221.918 218.401 217.594 214.024 215.102 209.627C216.096 208.758 218.829 207.857 220.892 207.554C216.672 204.088 212.987 198.602 212.013 192.979C214.138 192.351 217.353 192.697 219.478 193.053C216.232 187.859 213.751 182.153 213.898 174.646C215.709 175.096 217.52 175.557 219.499 176.541C216.232 172.029 215.018 167.066 214.976 161.841C217.143 161.286 219.269 161.496 221.216 161.737C219.489 157.863 219.468 153.088 220.368 149.026C223.907 149.256 227.582 150.555 230.074 152.586C230.158 150.576 231.068 147.853 232.765 146.199C236.356 147.267 241.706 150.774 244.763 154.46C244.795 153.12 244.104 151.392 244.899 149.309C251.757 151.235 254.783 158.585 258.783 164.543C256.343 156.973 255.893 150.23 256.416 144.587C257.861 145.1 259.432 145.738 261.4 146.785C258.657 142.671 260.406 133.195 261.924 127.908C264.311 128.17 265.096 129.405 267.127 130.211C268.687 123.793 271.085 121.06 273.985 117.626C276.791 120.401 279.283 123.448 280.487 127.657C281.388 126.191 282.832 123.877 283.89 123.092C288.455 127.856 289.816 137.478 290.832 142.597C291.648 140.828 293.658 138.964 296.224 138.127C298.496 142.838 297.983 151.654 297.302 157.946C298.841 150.596 301.836 141.781 305.929 139.079C307.5 140.451 308.83 141.98 309.866 143.707C312.033 139.058 317.038 133.436 320.964 131.332C321.875 133.342 322.566 135.624 322.776 136.493C327.194 130.703 331.832 128.903 335.183 128.704C335.507 130.253 335.067 132.222 334.701 133.74C343.213 128.568 349.192 128.285 351.087 128.159C351.317 130.096 351.526 132.054 351.401 134.347C355.222 133.29 359.536 133.07 364.436 133.823C363.839 138.189 362.824 142.503 360.97 146.681C363.473 146.66 365.452 146.922 368.886 147.832C368.383 153.036 366.603 158.083 363.096 161.517C365.221 161.81 367.242 162.47 369.011 164.009C367.713 168.636 365.263 174.144 362.53 177.337C365.127 177.934 366.017 179.379 366.855 180.865C363.379 184.572 359.578 186.687 356.28 188.498C357.285 189.168 358.416 190.435 359.17 191.775C353.086 196.036 345.873 198.602 339.088 199.67C339.235 198.759 356.311 201.177 356.479 202.161C356.667 203.261 350.689 207.124 350.27 206.611C355.118 208.077 360.834 208.433 364.562 211.333C363.776 212.956 362.489 214.998 359.986 216.861C364.363 217.867 368.237 219.856 371.713 222.662C369.032 225.981 366.09 228.462 361.19 230.211C362.74 231.603 364.426 233.006 364.426 234.388C361.368 236.608 357.955 237.435 354.186 236.953C354.458 238.754 354.5 240.639 353.976 242.618C350.102 243.979 346.658 243.246 343.119 242.88C343.768 244.586 344.522 246.188 344.135 248.942C339.339 250.334 335.612 249.999 331.665 250.02C334.701 252.051 338.816 253.569 340.156 257.234C339.36 258.229 337.476 259.548 335.978 260.532C339.967 264.385 344.302 269.85 344.344 276.174C342.815 276.258 341.203 276.279 339.486 276.174C340.543 280.676 344.574 285.744 343.464 293.22C340.25 292.738 338.941 292.057 337.465 291.398C338.407 298.685 339.161 307.05 336.722 311.479C332.293 310.254 329.382 306.862 326.147 303.93C326.367 306.705 326.21 309.427 325.006 312.013C320.734 312.579 316.954 311.144 313.206 309.595C312.327 311.061 311.667 312.516 310.107 313.982C303.322 311.657 298.799 307.815 296.36 303.124C296.255 304.6 295.564 305.784 294.747 306.893C289.261 304.841 286.56 300.433 283.293 296.507C282.717 297.858 281.974 298.968 280.875 299.606C276.027 295.921 273.786 290.927 272.509 285.451C271.964 286.571 270.897 287.649 269.808 288.623C267.211 283.367 266.353 276.08 266.038 269.945C264.813 270.719 263.39 270.908 261.987 271.159C261.955 264.406 263.913 257.873 267.106 251.475C265.766 253.015 264.227 254.072 262.531 254.711C261.641 249.643 262.342 244.052 263.609 238.262C233.236 261.275 214.861 290.476 216.85 332.817C225.666 321.436 235.78 319.196 248.239 321.845C235.571 327.917 224.451 343.444 220.085 360.668C215.677 378.037 218.075 397.135 217.112 409.406C216.222 420.776 209.144 439.444 202.621 455.17C200.873 459.369 198.685 450.365 192.518 444.271C187.754 439.559 185 436.523 186.309 433.068C214.337 359.244 209.867 313.49 148.47 305.941C153.119 294.329 164.877 293.387 180.687 298.528C165.002 266.437 141.508 250.931 131.216 243.79C133.425 248.471 137.539 253.046 136.074 259.831C134.587 259.977 133.184 260.239 131.09 259.16C133.184 264.008 134.974 268.908 134.189 274.258C132.954 274.614 131.938 274.541 130.954 274.394C131.687 278.656 131.331 284.121 130.545 290.037C127.76 290.665 125.855 289.974 124.075 289.094C124.557 293.188 123.572 298.224 122.18 302.171C120.055 302.203 118.055 301.177 116.118 299.072C112.286 303.669 109.49 309.197 104.255 312.558C102.8 311.144 102.224 309.281 102.098 307.166C98.392 310.286 94.3191 312.568 89.8379 313.908C88.0057 311.93 87.4612 309.951 86.8645 307.972C85.4405 309.762 83.514 312.977 80.7499 314.934C78.1848 313.929 74.0177 310.82 71.6305 308.516C69.3481 310.275 67.0342 311.511 64.6156 311.752C62.4483 308.087 61.8515 303.899 62.8671 299.208C61.3175 299.502 59.0874 299.899 57.0667 299.428C54.7842 296.35 57.653 282.383 59.2759 279.996C57.2866 279.043 54.7319 277.902 52.8891 275.892C53.2137 270.458 58.5744 265.798 62.4588 262.814C60.3543 262.427 58.7 261.234 57.3389 260.249C60.3647 256.03 64.7203 252.376 70.6882 251.214C65.2229 250.774 60.0402 250.826 54.9517 248.156C55.1088 246.219 55.915 244.722 56.9306 243.12C52.2295 243.832 47.4133 244.984 43.3195 243.644C43.3404 241.822 43.864 239.791 45.4659 238.398C40.7125 237.309 36.1266 236.032 33.7394 232.19C34.7864 230.682 36.2313 229.687 37.7913 228.818C34.2106 226.965 31.4674 223.615 29.3001 220.055C32.4097 216.84 35.9695 215.134 39.7073 214.087C38.786 212.726 38.5975 210.579 38.7336 208.873C42.4505 207.648 46.4501 208.129 50.4182 208.496C48.3033 207.595 46.5966 206.004 45.6857 204.444C49.5282 202.141 55.5485 201.586 59.9041 201.313C53.3184 199.921 47.1097 197.879 41.9793 193.901C42.6704 192.571 43.665 191.325 45.246 190.247C38.9012 187.231 32.4935 183.462 29.7503 177.452C31.3522 177.337 33.1845 177.012 34.6712 177.662C31.5302 173.139 28.2531 165.495 27.7715 160.344C30.4623 159.758 32.1898 159.58 33.6242 160.187C31.3836 157.255 28.3997 152.827 28.7661 146.304C30.567 145.77 32.3678 145.979 34.1582 146.712C32.2213 141.781 32.3469 136.724 32.5249 131.677C37.7599 130.777 42.9845 130.976 50.481 132.452C49.9156 130.588 49.8842 128.609 50.4706 126.494C55.381 126.924 60.3648 128.693 65.3904 131.028C65.0344 130.107 64.8878 129.112 65.537 127.814C69.8611 129.457 73.3895 132.002 75.672 135.938C77.1901 133.499 78.5826 132.148 79.9856 130.682C85.2521 133.74 88.7072 139.435 91.2305 144.126C91.6807 142.88 92.0995 141.697 93.1255 140.891C95.3033 141.32 98.7375 149.246 101.564 157.926C100.423 152.46 100.256 144.712 102.779 140.001C104.486 140.975 105.208 141.603 106.286 142.419C106.559 137.174 109.323 130.138 112.349 124.756C114.254 125.793 115.511 127.573 116.181 127.992C117.311 124.39 122.211 118.391 125.227 116.537C127.802 118.506 133.32 126.453 133.571 129.698C135.278 128.327 136.608 127.74 137.969 127.06C139.979 130.955 139.592 140.734 139.403 144.817C140.942 144.639 143.183 145.026 144.575 145.801C145.067 148.105 142.953 159.067 140.628 162.648C140.701 161.936 149.643 152.219 154.271 151.392C155.339 152.177 156.71 153.905 157.098 155.235C159.495 150.387 165.924 147.414 169.641 146.607C171.012 147.864 172.384 149.665 172.876 151.256C175.818 149.256 179.566 148.869 183.409 148.628C183.671 153.067 182.393 160.093 179.744 163.674C181.304 163.611 185.178 163.15 187.052 164.94C187.754 165.809 180.477 178.07 179.912 176.531C179.462 175.337 187.827 177.787 187.733 178.143C185.503 184.111 183.336 190.142 178.844 194.183C180.687 193.984 182.519 194.288 184.372 194.99C182.676 203.062 178.205 207.198 176.708 208.758C178.373 209.511 179.64 211.459 180.467 213.061C177.566 217.385 172.876 219.448 167.787 220.337C169.358 221.133 170.782 222.285 171.965 223.981C166.688 227.143 161.108 229.488 154.574 229.237C156.501 229.97 158.584 231.949 159.694 233.687C152.826 237.477 146.23 236.315 139.613 235.708C153.506 243.811 179.734 269.557 183.555 283.566C177.399 232.912 206.631 177.735 189.356 125.971C176.143 136.336 169.232 121.689 152.417 135.143C151.548 129.782 156.815 122.097 166.29 117.218C138.691 117.679 146.355 102.361 121.541 103.062L121.562 103.073Z" fill="#FFE000"/>
</g>
<defs>
<clipPath id="clip0">
<rect x="0.839844" y="0.654907" width="400" height="521.59" fill="white"/>
</clipPath>
</defs>
</svg>
