<svg width="400" height="480" viewBox="0 0 400 480" fill="none" xmlns="http://www.w3.org/2000/svg">
<g clip-path="url(#clip0)">
<path d="M399.222 0H0.777844C0.777844 0 -12.8187 224.637 73.679 345.675C142.961 442.611 199.912 479.259 200.018 479.33C200.088 479.294 257.074 442.646 326.321 345.675C412.819 224.637 399.222 0 399.222 0Z" fill="#0069B4"/>
<path d="M333.584 129.969L238.759 148.506L260.155 36.3644H139.825L161.256 148.506L66.3965 129.969L68.4342 244.202L160.202 223.113L140.352 344.505L183.179 344.009L194.913 437.613L200.008 444.312L205.102 437.613L216.801 344.009L259.664 344.505L239.778 223.113L331.581 244.202L333.584 129.969Z" fill="white"/>
</g>
<defs>
<clipPath id="clip0">
<rect width="400" height="479.33" fill="white"/>
</clipPath>
</defs>
</svg>
