<svg width="400" height="512" viewBox="0 0 400 512" fill="none" xmlns="http://www.w3.org/2000/svg">
<g clip-path="url(#clip0)">
<path fill-rule="evenodd" clip-rule="evenodd" d="M200.633 511.986C409.79 353.273 403.448 189.436 398.342 0H1.65524C-3.45096 189.436 -9.82689 353.273 200.633 511.986Z" fill="#007FBB"/>
<path fill-rule="evenodd" clip-rule="evenodd" d="M205.735 240.635V163.837H256.757V151.041H205.735V112.638H192.984V149.76H141.963V162.563H192.984V239.368C192.952 258.491 186.708 277.082 175.198 292.324C163.689 307.566 147.542 318.627 129.204 323.831V323.831C129.204 342.502 136.595 360.408 149.752 373.611C162.909 386.814 180.753 394.231 199.36 394.231C217.966 394.231 235.81 386.814 248.967 373.611C262.124 360.408 269.515 342.502 269.515 323.831V323.831C251.258 318.912 235.121 308.1 223.594 293.065C212.067 278.029 205.792 259.605 205.735 240.635Z" fill="#EEEE92"/>
<path fill-rule="evenodd" clip-rule="evenodd" d="M112.622 156.157V79.3595H163.643V66.5632H112.622V28.1609H99.8705V65.2823H48.8494V78.0785H99.8705V154.89C99.8384 174.013 93.5945 192.605 82.0852 207.847C70.5758 223.088 54.4285 234.149 36.0907 239.353V239.353C36.2529 257.974 43.6963 275.786 56.8181 288.954C69.9398 302.121 87.6901 309.59 106.246 309.753C124.803 309.59 142.553 302.121 155.675 288.954C168.796 275.786 176.24 257.974 176.402 239.353C158.049 234.606 141.804 223.841 130.248 208.767C118.692 193.693 112.488 175.175 112.622 156.157V156.157Z" fill="#EEEE92"/>
<path fill-rule="evenodd" clip-rule="evenodd" d="M287.374 156.157V79.3595H236.352V66.5632H287.374V28.1609H300.132V65.2823H351.153V78.0785H300.125V154.89C300.157 174.013 306.401 192.605 317.911 207.847C329.42 223.088 345.567 234.149 363.905 239.353V239.353C363.905 248.598 362.091 257.753 358.565 266.294C355.039 274.835 349.872 282.596 343.357 289.133C336.842 295.671 329.109 300.856 320.597 304.394C312.085 307.932 302.962 309.753 293.749 309.753C284.536 309.753 275.414 307.932 266.902 304.394C258.39 300.856 250.656 295.671 244.142 289.133C237.627 282.596 232.46 274.835 228.934 266.294C225.408 257.753 223.594 248.598 223.594 239.353V239.353C241.946 234.606 258.192 223.841 269.748 208.767C281.304 193.693 287.508 175.175 287.374 156.157V156.157Z" fill="#EEEE92"/>
</g>
<defs>
<clipPath id="clip0">
<rect width="400" height="511.99" fill="white"/>
</clipPath>
</defs>
</svg>
