<svg width="401" height="496" viewBox="0 0 401 496" fill="none" xmlns="http://www.w3.org/2000/svg">
<g clip-path="url(#clip0)">
<path d="M0.5 0V180.362C0.5 361.06 200.482 495.507 200.482 495.507C200.482 495.507 400.5 361.06 400.5 180.362V0H0.5Z" fill="#FFD90F"/>
<path d="M330.12 209.884C332.479 206.014 329.429 205.256 328.724 205.224C326.085 205.105 323.148 205.501 322.943 208.812L319.156 275.395L315.169 276.193L317.76 204.028C317.947 198.836 306.669 195.918 307.394 198.645C314.398 224.995 314.35 255.265 300.018 279.183L247.788 289.549C247.127 289.68 245.44 291.547 244.599 293.137C244.296 293.71 242.351 297.27 246.194 296.925C246.638 294.756 248.138 293.319 249.981 292.938L296.23 283.369C284.901 295.158 275.733 297.138 270.714 297.324L243.801 298.32C169.507 221.133 255 124.154 319.156 71.0614H325.136C328.857 71.0614 329.972 65.3513 327.13 65.2803L199.346 62.0907L197.951 25.6096L194.562 24.8123V28.7993C192.493 28.7993 191.28 29.2076 189.977 30.0951C183.555 34.4689 178.89 29.6578 171.637 28.5999C167.048 27.9308 161.674 32.1844 160.872 32.7863C160.074 33.3844 156.633 36.1037 148.911 29.7961C146.676 27.9708 142.155 26.8058 137.149 26.8058C128.426 26.8058 121.633 41.5729 115.619 32.9856C114.822 34.4488 113.872 38.5464 121.6 39.3648C126.443 39.8745 132.513 36.0968 136.352 36.1752C145.378 36.3595 144.942 39.1889 147.316 41.3583C148.415 42.3991 156.556 47.5543 164.061 43.7506C170.083 40.6569 170.24 40.8039 172.235 40.9596C174.171 41.2222 174.565 44.8734 183.398 45.3453C184.276 45.4188 185.876 50.6422 194.163 51.5252L193.964 61.8914L77.3441 58.9011C74.1292 58.8187 74.9798 64.8816 76.5467 64.8816H84.72C77.0021 207.253 151.407 278.889 175.624 298.32C133.411 296.837 117.413 294.234 108.243 293.137C79.1088 289.654 68.6556 245.486 68.174 243.499L84.3213 226.355C86.5095 224.032 87.0564 221.845 84.122 221.969L69.9681 222.567C67.1954 222.685 68.3235 226.654 68.772 227.751C68.772 227.751 68.258 228.374 66.1805 228.349C64.8888 205.535 69.2205 184.093 70.1675 181.302C71.914 176.154 71.4281 175.18 69.9681 174.125L62.7915 168.942C59.4839 166.014 58.2752 166.945 58.2065 167.746C57.758 172.975 58.4265 200.304 59.4026 228.947C57.7335 228.955 57.0104 227.95 57.0104 227.95C56.8036 224.516 55.6489 222.966 54.4188 222.966H43.8533C39.9871 222.966 42.8566 225.956 42.8566 225.956C46.4786 230.365 57.8569 241.773 59.8013 243.699L62.3928 307.291C63.3107 329.816 82.9272 333.624 88.9064 333.623L296.43 333.605C311.327 333.604 312.178 317.657 312.178 317.657L315.169 279.382L318.956 278.585L315.966 324.037C315.64 328.992 318.268 330.951 322.545 331.213C326.845 331.476 330.293 328.576 330.718 325.233L333.708 301.709C334.433 291.602 331.316 286.758 330.319 285.363C324.895 277.769 325.433 271.552 325.535 269.415L327.528 227.352C328.128 214.689 329.631 210.686 330.12 209.884ZM194.362 31.9889L194.163 48.3355C194.163 48.3355 185.591 46.2993 185.591 39.5641C185.591 32.8291 194.362 31.9889 194.362 31.9889ZM189.379 269.215L188.98 298.52L179.411 298.32C167.438 282.931 168.948 269.215 189.379 269.215ZM197.552 270.81C217.708 277.93 232.059 293.175 236.824 298.719H196.954L197.552 270.81Z" fill="black"/>
</g>
<defs>
<clipPath id="clip0">
<rect x="0.5" width="400" height="495.51" fill="white"/>
</clipPath>
</defs>
</svg>
