<svg width="400" height="478" viewBox="0 0 400 478" fill="none" xmlns="http://www.w3.org/2000/svg">
<path d="M227.43 1.62029L227.768 2.62738C226.078 14.1139 224.726 25.9314 224.219 37.925L225.571 38.9391C230.465 38.9391 235.029 40.4603 239.586 39.9532C242.628 28.2977 244.311 16.3112 246.678 4.48663C263.059 7.36002 279.271 10.3954 294.131 17.3183C290.074 28.7977 284.841 40.1152 282.475 52.1018L295.652 57.3415L297.173 55.8203L312.202 24.4102C326.048 29.9809 339.225 37.4109 351.887 45.855C344.457 57.5105 337.189 69.1569 329.09 80.4743C326.724 80.8124 324.872 76.0798 322.674 79.2912L312.878 94.9962C313.892 96.8555 315.921 97.3625 317.442 98.5387C315.921 101.75 313.047 104.447 311.864 107.828L312.54 109.011C380.086 157.647 412.679 235.834 395.453 318.585C383.635 370.595 349.183 420.752 301.223 447.944C260.523 471.417 207.668 481.044 159.201 470.234C116.136 460.783 75.9434 440.007 47.2377 402.688C8.22653 354.221 -10.6899 289.71 6.19826 225.538C18.3609 176.226 51.2851 129.956 96.879 101.581C95.8648 98.3696 93.6675 95.1582 92.3224 91.7848L96.0409 89.2494C93.8436 82.6646 89.6251 76.9249 85.9066 71.0161C84.0473 71.0161 82.8642 73.0444 80.6739 73.0444L60.2412 38.256C67.5021 32.5162 76.4554 29.3119 84.5614 24.7482C90.8082 22.5509 96.724 19.0085 102.971 17.6563L116.148 51.2637L117.331 51.7708C120.711 50.4256 124.423 49.5735 127.465 47.7212C124.761 35.5587 119.866 24.5863 116.993 12.5927C131.522 8.03611 146.72 4.31761 162.594 2.45836C164.453 14.4519 165.636 26.6075 168.333 38.256L169.009 38.9321L181.172 37.7489C181.51 25.4243 179.989 12.7547 179.482 0.599112C195.511 -0.577005 211.723 0.0920434 227.428 1.62029H227.43Z" fill="black"/>
<path d="M223.543 4.48664C223.543 15.7971 221.683 26.1004 221.007 37.2489C209.19 37.5869 198.041 35.7277 186.055 37.2489L185.21 37.0799C184.364 26.2694 183.019 15.29 183.181 4.14859C196.02 2.62738 210.711 3.1415 223.543 4.48664Z" fill="#C2A940"/>
<path d="M159.377 6.51491C162.082 16.9873 162.758 28.1287 164.61 38.9391C153.461 41.1364 142.151 43.1647 131.51 46.7071L130.495 46.3691C127.115 36.2347 123.573 25.9314 121.206 15.29C133.369 10.7405 146.201 8.20514 159.377 6.51491Z" fill="#C2A940"/>
<path d="M288.898 18.5085L289.236 19.8607L278.933 50.0876C271.165 48.2283 263.228 45.693 255.46 43.6717L243.297 40.9674C243.804 30.664 246.677 20.3677 248.53 10.2334L249.544 8.37416C263.573 9.55732 276.066 14.1139 288.898 18.5085Z" fill="#C2A940"/>
<path d="M100.945 22.0509C105.339 32.1852 109.558 42.3196 112.938 52.7849C102.635 57.1795 92.1625 62.2431 82.2043 67.6448L79.6689 65.1165C74.7743 56.5034 69.1945 48.2283 65.145 39.2772C75.9504 31.8472 88.275 26.1075 100.945 22.0509Z" fill="#C2A940"/>
<path d="M346.993 46.7071C346.993 49.0734 345.133 51.4327 343.781 53.292L328.921 74.7346C319.463 69.1569 309.843 63.9263 300.046 59.3697L300.215 57.0034L313.892 28.7977C325.379 33.8684 336.52 39.1081 346.993 46.7071Z" fill="#C2A940"/>
<path d="M214.929 41.9815C215.098 48.9044 214.598 55.8273 213.584 62.5812H193.992L193.147 61.229L192.809 41.8125C199.738 41.1364 208.007 41.1364 214.929 41.9815Z" fill="#C2A940"/>
<path d="M188.928 41.8125C189.942 48.5664 189.604 55.1512 189.942 62.2431C182.343 63.4263 174.237 63.7643 166.638 65.1165C164.948 58.5246 163.258 51.1017 163.427 44.1718C171.533 42.4815 180.315 41.6435 188.928 41.8125Z" fill="#C2A940"/>
<path d="M246.008 46.3691C245.67 53.1229 243.811 59.8768 242.29 66.2997L240.431 66.6377C232.832 65.1165 225.064 64.1024 217.296 63.2643C216.958 56.6724 217.634 49.4185 218.648 42.8266L219.324 42.1505C228.782 42.4815 237.395 44.6788 246.008 46.3691Z" fill="#C2A940"/>
<path d="M158.863 45.0169C160.384 51.6017 161.737 58.3626 162.582 65.2785C156.673 66.9687 150.257 68.4878 144.003 69.5019L138.433 50.9256L138.602 49.4044C145.186 47.5522 151.94 46.031 158.863 45.0169Z" fill="#C2A940"/>
<path d="M270.665 52.9539C269.651 59.5388 266.946 65.9546 264.587 72.1993C258.171 71.1851 251.755 69.3259 245.67 67.3068C246.516 60.3839 247.699 53.63 250.058 47.3762C257.15 48.7354 264.08 50.4256 270.665 52.9539Z" fill="#C2A940"/>
<path d="M135.052 50.9327C137.249 57.3485 138.771 63.9334 140.285 70.5161L120.354 77.608C117.143 71.8683 114.783 65.2855 112.755 58.8627C119.354 54.8132 127.453 52.7849 135.052 50.9327Z" fill="#C2A940"/>
<path d="M298.694 64.1024C297.173 70.5161 293.455 76.6009 289.912 82.5097L268.636 74.2346L268.129 72.5444C270.489 66.4687 271.672 60.0529 274.714 54.3131C282.989 56.8414 290.926 60.3839 298.694 64.1024Z" fill="#C2A940"/>
<path d="M108.882 60.2219C111.586 66.4687 114.79 72.7134 116.312 79.2982L99.4235 87.4043C95.1979 81.9955 92.1625 75.5868 89.4582 69.3329C95.712 65.6236 102.128 62.5812 108.882 60.2219Z" fill="#C2A940"/>
<path d="M312.202 99.7289C312.033 101.919 310.174 104.285 308.322 105.638C261.375 75.4107 195.344 63.9263 139.447 82.6716C125.939 86.8972 112.931 92.6369 100.607 99.5598C98.7474 98.0386 98.0713 95.6793 96.8881 93.6511C146.031 63.0882 220 57.6866 274.883 80.3124C287.553 86.0521 300.723 90.9467 312.202 99.7289Z" fill="#C2A940"/>
<path d="M319.977 75.4177L319.808 77.277C316.604 82.5097 313.392 88.0874 309.343 92.813L294.145 84.707C296.673 78.4531 299.546 72.0373 303.603 66.4687C309.336 68.9949 314.737 71.8683 319.977 75.4177Z" fill="#C2A940"/>
<path d="M371.311 178.768C400.023 226.897 405.087 299.345 381.107 351.192C355.268 416.034 288.898 464.677 219.493 470.417C167.476 474.804 120.699 459.945 80.8451 431.408C48.5878 405.907 25.6218 370.609 13.2902 333.628C-10.3519 260.336 11.5999 180.965 66.3211 129.456C119.685 77.108 210.033 62.4121 277.916 93.8201C316.087 109.694 351.047 141.949 371.309 178.768H371.311Z" fill="#C2A940"/>
<path d="M374.522 190.924C395.122 232.13 400.361 289.717 384.318 334.635C368.951 381.75 332.309 428.027 285.863 448.965C238.579 473.114 173.561 475.481 124.756 453.191C98.4093 442.887 72.577 424.816 54.1676 401.85C16.5016 356.587 -2.23879 297.993 9.57872 237.194C20.3891 172.176 73.4151 110.701 136.571 89.9326C164.601 80.1363 198.884 76.7558 229.787 82.5026C289.91 90.4396 348.343 134.519 374.52 190.924H374.522Z" fill="black"/>
<path d="M193.823 84.5309C192.132 86.3901 186.731 83.1857 187.745 87.2352C188.252 89.9396 187.407 93.144 188.59 95.6793C190.28 95.8484 193.154 95.1723 193.999 96.3554C193.83 96.5245 193.661 96.8625 193.83 97.3696C191.97 98.3837 189.604 96.6935 188.252 98.7218L188.928 109.025C190.618 110.546 195.344 107.673 194.837 111.56C192.14 112.575 188.928 111.898 186.055 112.575L185.548 111.56C184.872 102.609 183.688 93.3201 183.857 83.6999C186.9 82.8547 190.78 82.6857 193.823 83.1928V84.5309Z" fill="#C2A940"/>
<path d="M207.837 83.1857C208.007 84.876 206.823 88.9255 210.204 87.9113C213.415 87.4043 213.746 90.1016 213.415 92.6369L211.218 112.053C207.168 112.56 202.774 111.884 198.386 111.884C198.048 110.363 198.724 107.659 196.865 106.821C195.344 107.159 193.485 107.159 191.97 106.821C191.294 104.962 191.463 102.764 191.294 100.743C192.816 99.0528 197.541 101.919 196.872 98.0386L196.365 92.975C194.675 92.2989 191.463 93.9891 190.956 91.6228V87.9113C192.985 87.0662 196.703 88.4184 197.717 85.8831C197.379 85.038 197.21 83.5238 197.886 82.6716L207.837 83.1857Z" fill="#D0CEBC"/>
<path d="M226.585 84.876C227.092 86.2211 225.909 86.7352 225.064 86.7352C223.712 86.5662 222.535 86.2282 221.183 86.3972L220.338 88.9325L217.979 112.744L214.429 112.575L216.289 85.8901C214.605 85.5521 212.07 86.0591 211.394 84.5379L211.563 83.3548C216.789 83.5238 222.028 83.5238 226.585 84.876Z" fill="#C2A940"/>
<path d="M180.146 83.8548C181.667 92.975 181.498 103.278 182.005 112.222C170.019 114.758 157.687 116.786 146.377 120.836C144.855 113.913 139.961 122.019 136.58 118.645C138.778 114.758 140.123 109.863 138.609 105.138C137.933 100.912 133.545 97.2006 129.319 96.5245C129.15 96.5245 128.981 96.3554 128.981 96.3554C144.179 89.6016 160.898 86.0521 177.956 83.6928L180.146 83.8548Z" fill="#D0CEBC"/>
<path d="M275.39 98.7147C268.798 101.081 261.544 107.328 261.037 115.096C260.53 118.807 262.044 121.688 262.897 124.723C249.382 120.167 235.705 115.265 221.014 113.244C220.845 105.307 222.704 97.5386 223.212 89.6016C224.902 88.9255 227.092 89.9396 228.789 89.6016C229.465 88.2494 229.127 85.8831 230.649 85.376C246.347 87.9113 261.544 91.9608 275.39 98.7147Z" fill="#D0CEBC"/>
<path d="M167.983 96.0174C170.688 98.5457 170.181 102.771 168.997 105.814C167.476 108.011 165.286 109.356 162.751 109.694C160.215 110.201 158.356 108.849 156.504 107.666C154.138 105.638 153.8 102.602 154.138 99.7288C154.814 96.6864 157.687 94.1511 160.729 93.6511C163.765 93.144 165.962 94.3272 167.983 96.0174Z" fill="black"/>
<path d="M250.903 100.912C251.748 103.616 251.241 106.652 249.889 108.849C248.03 111.046 245.494 112.222 242.797 111.891C240.262 111.553 237.557 110.37 236.55 107.835C235.536 105.976 235.029 102.94 236.212 100.912C237.226 98.0386 240.1 96.6864 242.804 96.0174C246.347 95.8484 249.382 98.0457 250.903 100.912Z" fill="black"/>
<path d="M166.3 98.0457C167.314 99.9049 167.652 102.602 166.638 104.461C165.293 106.828 162.251 107.335 159.884 106.49C157.687 105.476 156.673 102.778 157.18 100.75C157.18 98.8908 158.87 97.0315 160.553 96.6935C162.582 96.0174 164.61 96.8625 166.3 98.0457Z" fill="#C2A940"/>
<path d="M135.221 102.771C136.911 105.476 137.925 109.187 136.573 112.568C136.404 115.272 132.686 117.124 133.362 119.828C136.235 121.519 139.947 122.533 143.158 120.674L143.496 121.012C142.482 122.026 140.792 123.209 138.94 123.04C136.066 123.04 133.7 121.519 131.341 121.181C130.834 122.871 132.348 124.554 132.517 126.244C131.172 126.413 130.326 127.766 128.974 127.427C124.58 118.983 120.361 110.201 117.326 101.419C122.22 97.5386 131.679 96.3554 135.221 102.771Z" fill="#C2A940"/>
<path d="M247.699 100.412C249.051 101.926 249.558 104.292 248.706 106.152C247.185 109.356 243.135 110.37 240.431 108.68C238.24 106.99 237.726 103.954 238.571 101.419C239.248 100.074 240.6 98.8908 241.945 98.5457C244.318 98.2147 246.516 98.7147 247.699 100.412Z" fill="#C2A940"/>
<path d="M131.848 101.757C134.207 103.785 134.89 106.483 135.059 109.525C135.059 113.244 132.355 116.786 128.981 118.138C126.277 113.075 123.749 107.497 121.72 101.926C124.418 99.7289 128.974 99.0598 131.848 101.757Z" fill="black"/>
<path d="M288.222 104.461L291.602 109.87C289.405 110.208 288.56 106.659 287.046 105.645C283.665 103.285 278.433 102.94 274.883 105.138C271.172 108.011 268.467 111.722 267.96 115.948C267.96 118.99 267.791 122.364 269.651 124.892C272.355 128.611 276.911 128.78 281.475 128.442C282.151 129.118 282.996 130.47 281.475 130.801C275.897 131.308 271.172 129.618 267.284 126.244C263.404 123.371 264.249 118.307 264.587 114.082C265.263 108.173 270.158 103.616 275.735 101.757C280.123 100.743 284.849 101.595 288.222 104.461Z" fill="#C2A940"/>
<path d="M131.848 104.631C133.538 106.828 133.707 110.039 132.355 112.568L130.164 114.596C127.805 111.222 126.277 107.166 124.756 103.447C124.587 102.433 125.77 102.602 126.277 102.095C128.805 101.081 130.157 103.785 131.848 104.631Z" fill="#D0CEBC"/>
<path d="M113.776 103.447C118.333 111.891 122.558 120.329 126.108 129.28C123.58 129.787 120.706 134.343 118.678 131.477C117.833 130.632 117.664 129.111 116.312 128.942L110.903 132.315C109.727 130.625 106.515 128.435 108.206 126.237C109.382 125.392 110.734 124.885 111.748 123.878C110.396 122.019 109.213 119.99 107.699 118.138C105.332 118.645 101.614 122.695 100.607 117.8C99.7615 113.406 110.403 113.575 104.487 108.511C107.022 105.983 110.396 104.461 113.776 103.447Z" fill="#D0CEBC"/>
<path d="M288.222 109.863C288.898 111.046 289.236 113.237 290.926 113.237L294.976 111.884L293.969 108.004C301.737 111.715 308.998 117.286 316.259 122.357C308.66 121.681 300.723 123.364 297.011 130.801C294.138 134.343 295.321 139.583 295.997 143.64C290.588 140.09 284.679 136.379 280.123 132.998L285.187 132.322C285.356 130.294 285.017 127.766 284.172 125.906C280.961 126.244 276.742 126.92 274.038 125.23C271.848 123.033 270.996 120.328 270.827 117.124C270.996 112.229 274.369 107.835 279.102 106.152C282.989 105.307 285.694 107.497 288.222 109.863Z" fill="#D0CEBC"/>
<path d="M101.959 111.722C100.776 114.082 96.0501 114.427 96.8881 117.293L101.614 124.047C103.642 124.723 106.339 120.329 107.191 123.709C106.008 124.554 104.663 125.054 103.649 126.406C105.339 129.78 107.36 133.167 109.896 136.034C112.093 135.865 113.776 131.977 115.805 134.174V135.019L107.868 140.083C102.128 132.653 96.3811 124.716 91.6555 116.61C94.3598 114.075 97.5642 111.377 101.114 110.532L101.959 111.722Z" fill="#C2A940"/>
<path d="M345.978 211.354C364.895 251.208 363.543 308.289 342.267 346.622C313.723 403.195 254.96 437.641 191.118 434.098C132.862 431.232 77.9717 392.554 54.8367 339.023C28.8262 285.485 39.6366 213.721 79.1548 169.81C120.192 121.174 187.238 102.595 248.706 122.357C290.25 135.703 329.09 170.493 345.978 211.354Z" fill="#C2A940"/>
<path d="M345.64 216.932C368.099 271.139 355.606 338.523 315.582 380.743C276.566 422.626 218.648 441.873 160.722 426.844C108.368 414.52 61.0835 366.052 48.0828 314.374C31.6996 250.877 55.1726 185.184 108.03 146.344C151.771 112.229 224.388 107.504 272.686 135.195C305.279 152.591 332.471 183.156 345.64 216.932Z" fill="black"/>
<path d="M88.9511 119.152C94.3598 126.92 100.269 134.519 104.656 142.625L94.8599 150.055L79.6619 132.322C79.9999 129.963 84.5565 129.111 83.3804 126.413C82.3663 125.568 80.845 124.216 81.8592 123.202L87.937 118.807L88.9511 119.152Z" fill="#D0CEBC"/>
<path d="M193.823 120.333C182.843 122.53 172.716 130.636 167.983 141.108C162.582 153.271 164.61 168.469 172.547 178.934C175.589 182.146 178.287 185.526 181.836 187.716L180.146 188.561L162.582 192.104C158.356 195.315 157.856 201.224 156.504 206.119L153.8 226.218L149.074 234.324L120.361 235.845C130.326 226.218 136.235 212.203 131.848 197.851C128.636 185.526 117.241 176.702 105.417 173.659C96.8036 172.307 84.9861 173.786 75.6546 182.61C80.345 176.11 88.9511 167.286 94.0218 162.215C108.037 148.538 124.418 138.235 141.644 131.481L133.031 148.369C127.453 150.397 121.206 148.707 115.298 149.714C114.114 150.897 115.805 151.236 116.143 152.25L128.129 163.229C126.784 169.307 123.573 175.392 122.22 181.469L122.897 181.977L141.137 173.363C147.046 176.406 152.616 180.624 158.532 183.998L158.87 182.822L152.623 163.743C156.68 158.673 160.729 153.947 165.462 149.214L164.448 148.2C159.215 148.538 153.807 148.2 149.081 148.538C146.722 143.129 144.524 137.559 143.172 131.819C142.834 131.65 142.665 131.143 142.158 131.312C158.025 124.382 175.413 120.671 193.823 120.333Z" fill="#004899"/>
<path d="M332.809 197.34C346.823 221.151 354.084 248.173 353.915 277.386C350.704 272.991 348.683 266.237 345.302 261.174C343.274 261.681 343.612 264.216 342.767 265.737C334.999 259.315 327.738 253.068 320.308 245.469C321.153 239.898 316.597 235.334 312.709 232.468L309.329 215.411C310.505 209.671 314.223 204.938 314.73 199.03C315.068 192.783 314.223 185.86 309.329 181.465C307.3 179.268 302.406 180.958 302.237 177.585C303.082 174.712 306.962 173.021 306.124 169.479C303.42 167.958 301.399 171.338 298.694 171.338C295.652 172.014 292.785 170.662 290.081 170.662C289.067 171.507 289.067 173.366 290.081 174.035C292.278 175.219 293.293 178.092 295.99 178.43C298.018 181.811 291.595 182.825 291.933 186.198C289.236 183.325 283.658 189.071 284.841 182.818C285.687 180.62 287.715 178.423 286.363 175.895C283.658 173.359 282.82 178.423 280.285 179.106C278.088 181.803 269.981 178.599 272.348 184.17C273.869 187.543 280.623 185.015 278.764 189.571C277.242 190.755 276.566 192.276 276.059 193.797C272.179 192.276 269.305 198.354 266.601 194.804C265.756 191.769 267.615 186.874 263.559 186.191C262.037 188.895 260.685 192.1 257.65 193.283C256.129 194.466 253.093 193.283 252.755 195.98C254.446 201.051 261.03 197.671 263.566 202.065C261.537 207.974 264.073 212.699 267.622 217.094C273.531 224.017 281.806 226.383 290.926 226.552C294.138 230.102 297.849 232.461 301.061 236.349C300.723 238.715 297.68 239.222 295.997 240.405C280.63 238.546 263.235 239.56 248.375 239.56L247.53 237.363C245.839 224.7 246.008 211.354 243.304 199.199L242.29 197.17C233.846 194.635 225.909 191.593 217.296 189.741C229.12 183.156 235.536 170.993 237.226 158.499C240.607 160.19 241.952 163.908 244.656 166.437L236.212 182.987L236.55 183.663L256.474 179.106C261.544 182.818 265.594 187.381 271.003 190.248C271.341 185.184 269.82 179.606 269.143 174.374C266.946 169.817 272.01 169.648 273.362 166.775C276.573 163.732 280.454 160.866 283.327 157.316L282.989 156.471L266.101 155.795C263.566 150.724 262.044 144.985 260.523 139.414L259.171 139.583L251.065 154.781C246.67 156.133 241.776 154.95 237.219 155.119C235.867 144.309 231.649 134.343 222.359 127.251C217.796 123.195 212.225 122.012 206.823 120.328C258.671 122.019 306.969 152.76 332.809 197.34Z" fill="#004899"/>
<path d="M230.472 142.118C235.029 150.731 234.184 163.394 229.627 171.838C226.254 179.606 218.648 184.839 211.049 187.036C210.711 182.642 210.035 178.761 210.88 174.366C212.739 173.183 215.944 173.521 216.62 170.824C216.282 162.042 215.775 153.26 213.415 145.323C210.204 140.597 205.14 136.879 198.886 137.386C193.485 138.4 187.576 141.78 185.717 147.351C183.519 154.781 183.181 163.056 182.843 171.331C184.533 172.176 186.386 172.514 188.245 172.845C189.09 177.409 188.414 181.458 188.076 186.022C176.082 181.296 168.828 168.627 168.659 156.133C168.828 144.14 175.413 132.829 185.886 127.251C195.175 122.357 209.021 122.357 217.972 128.097C223.043 131.984 227.43 136.21 230.472 142.118Z" fill="#C2A940"/>
<path d="M136.573 124.385C136.573 124.892 135.728 125.23 135.052 125.061V124.047C135.559 124.385 136.073 124.216 136.573 124.385Z" fill="#D0CEBC"/>
<path d="M326.562 132.153C328.921 137.893 328.59 145.33 324.365 150.055C320.984 152.929 316.935 154.95 312.202 154.443C306.124 153.767 300.723 149.21 298.356 143.64C296.835 137.731 298.694 131.139 303.589 127.427C307.476 124.385 312.878 123.202 317.604 124.723C321.491 126.244 324.365 128.611 326.562 132.153Z" fill="#C2A940"/>
<path d="M79.3238 127.089C79.3238 128.104 78.6478 128.611 77.6336 128.78L75.2743 131.991L92.3245 152.422L89.6272 154.788C83.0353 148.71 77.4646 141.611 71.5558 135.364C69.6945 136.379 68.0113 138.069 66.4901 139.59L65.476 138.576C69.0184 133.85 73.9222 129.625 78.6548 126.413L79.3238 127.089Z" fill="#C2A940"/>
<path d="M324.534 134.857C325.21 139.921 322.336 143.64 319.294 147.182C315.582 149.879 311.019 153.26 306.462 150.393C303.082 148.027 301.054 144.985 300.715 141.104C301.054 134.519 307.3 128.942 312.878 127.089C315.413 126.92 318.111 126.244 319.97 128.104C322.167 129.625 324.196 131.984 324.534 134.857Z" fill="black"/>
<path d="M319.632 130.47C321.322 132.329 323.012 134.526 322.843 137.224C321.998 142.625 316.935 147.696 311.695 149.217C308.653 149.386 305.955 148.203 304.434 145.675C302.575 142.294 304.265 138.245 306.124 135.203C309.336 131.315 314.568 126.582 319.632 130.47Z" fill="#D0CEBC"/>
<path d="M343.788 149.041V149.717L322.343 167.789L320.822 167.282L311.533 156.809C316.935 157.823 321.667 155.795 325.379 152.253C329.935 147.696 331.626 141.442 330.104 135.026C334.837 138.914 339.563 143.978 343.788 149.041Z" fill="#D0CEBC"/>
<path d="M147.384 151.408H159.546C157.011 155.119 153.13 158.838 150.088 162.725C150.764 167.451 152.447 172.352 153.468 177.078C149.074 175.557 145.362 171.507 140.975 169.648L127.298 176.402C127.805 171.676 130.341 167.113 131.355 162.387C128.143 159.176 124.432 156.14 121.389 152.591C125.784 151.577 130.341 152.084 135.066 151.408C138.447 147.351 138.785 142.118 141.989 138.062C144.341 141.949 145.355 147.02 147.384 151.408Z" fill="#C2A940"/>
<path d="M86.9228 156.809C85.0636 160.19 81.3451 163.056 78.8168 165.76C71.2178 161.535 64.2858 153.767 57.3699 148.196C57.708 145.492 60.2433 142.956 62.6026 141.273C64.2928 141.104 65.476 145.499 67.3282 142.456C68.6803 141.273 70.3727 138.738 72.2319 140.259L86.9228 156.809Z" fill="#D0CEBC"/>
<path d="M211.049 147.189C213.415 154.281 213.246 161.88 213.415 169.648C212.401 169.479 211.218 171.169 210.542 169.648L211.218 154.281C207.337 149.886 201.253 154.112 196.189 152.253C194.161 151.915 190.28 150.9 189.604 153.774C188.421 158.838 189.266 164.584 188.759 169.817C187.914 170.155 186.731 169.979 186.562 168.972C187.914 158.838 184.533 144.823 196.696 140.942C202.098 139.59 207.675 142.794 211.049 147.189Z" fill="#D0CEBC"/>
<path d="M259.854 147.52C261.375 151.408 262.383 155.795 264.58 159.345C268.46 159.007 272.179 159.007 275.89 159.852L265.756 169.648L267.953 184.177C264.073 182.149 260.185 178.599 256.636 175.733L242.283 179.62L241.776 178.944L248.023 167.296L241.438 159.19L242.283 158.345L252.417 158.852L259.002 147.372L259.854 147.52Z" fill="#C2A940"/>
<path d="M75.6124 167.789C76.6265 168.803 75.7814 169.979 74.7673 170.662L74.2602 171.338C66.8281 165.422 59.5672 159.514 52.4753 153.098C52.9824 151.577 54.6655 149.041 56.1867 151.239L75.6124 167.789Z" fill="#C2A940"/>
<path d="M345.309 152.76C345.478 165.26 343.957 178.43 342.774 190.762L343.281 191.1C350.542 187.05 357.634 182.487 365.233 179.113L365.402 179.789C357.634 185.198 349.19 189.924 340.746 194.318C336.858 190.093 339.563 183.677 339.225 178.106C339.901 171.521 340.577 164.76 341.084 158.345L339.908 158.514L324.71 170.838L323.865 169.993C331.118 163.739 337.872 158.33 345.309 152.76Z" fill="#C2A940"/>
<path d="M196.358 155.126C196.527 156.14 195.259 155.718 194.583 155.718C193.738 155.887 193.316 155.802 192.809 155.295C192.64 153.436 196.189 153.605 196.358 155.126Z" fill="#FFEDBC"/>
<path d="M208.345 155.626C207.373 155.95 205.549 155.922 204.964 155.457C204.964 154.281 206.316 154.281 207.161 154.105C207.838 154.281 208.69 154.612 208.345 155.626Z" fill="#FFEDBC"/>
<path d="M363.036 175.726C357.972 179.613 352.056 182.818 346.147 185.522C346.316 175.219 347.162 165.084 348.683 155.295C354.422 161.542 359.324 168.465 363.036 175.726Z" fill="#D0CEBC"/>
<path d="M71.7249 174.036L66.152 182.48C57.877 177.923 49.9399 172.352 42.341 166.782C44.2002 162.725 47.2356 158.845 50.278 155.633C57.5389 161.542 64.9689 167.113 71.7249 174.036Z" fill="#D0CEBC"/>
<path d="M201.929 155.802C201.422 159.852 200.577 164.584 200.239 168.634L199.731 168.465C199.393 164.239 199.393 159.345 199.731 155.626L201.929 155.802Z" fill="#FFEDBC"/>
<path d="M196.696 160.866C198.555 164.077 195.006 170.155 199.9 171.507C204.626 170.493 202.098 164.415 203.443 161.204L208.007 161.542C207.837 166.437 210.542 174.374 204.964 177.416C202.26 179.444 198.548 178.599 195.675 177.923C187.879 175.676 192.949 166.106 192.132 160.704C193.654 160.021 194.837 161.373 196.696 160.866Z" fill="#FFEDBC"/>
<path d="M337.703 164.577C337.872 172.007 336.689 179.437 336.182 186.874C333.14 183.156 329.766 178.261 326.724 173.866V172.683C330.273 169.817 333.823 166.606 337.703 164.577Z" fill="#D0CEBC"/>
<path d="M63.6167 185.015C63.7857 186.367 62.7716 187.719 61.9265 188.733C57.2009 186.705 53.3134 182.318 48.4117 181.134L48.0737 181.811L54.3205 199.882L52.1232 201.741C45.8764 204.276 39.4605 206.136 33.2067 208.833C37.6013 211.699 43.341 213.559 48.2356 215.925C48.4047 216.432 48.2356 217.446 47.3905 217.277L24.7626 207.819L26.6218 206.298L50.2639 198.023L50.771 197.009C47.7356 188.226 43.6791 179.951 41.6578 170.831C49.2639 174.712 56.3558 180.113 63.6167 185.015Z" fill="#C2A940"/>
<path d="M47.0666 195.987C38.9605 198.861 31.1925 202.572 22.7484 204.431C26.4599 193.114 32.0306 182.311 38.6225 172.345C42.0029 179.951 44.8763 187.881 47.0666 195.987Z" fill="#D0CEBC"/>
<path d="M203.281 173.697C201.422 175.05 197.879 174.712 195.851 173.866C197.541 172.176 200.577 173.021 203.112 173.021L203.281 173.697Z" fill="black"/>
<path d="M302.582 173.528C301.575 175.388 298.701 175.388 299.208 177.916L300.054 182.649C299.039 179.606 298.701 175.895 294.983 174.881C296.842 174.205 299.708 174.035 301.744 173.021C302.075 173.021 302.751 173.021 302.582 173.528Z" fill="#D0CEBC"/>
<path d="M124.925 191.262C131.179 200.889 131.01 215.242 124.756 224.7C118.678 233.651 108.375 239.391 97.0572 238.546C93.6767 235.841 96.043 228.581 89.7962 229.088C87.2609 229.595 85.2396 226.214 82.5353 227.566C81.1831 229.088 81.0141 230.94 81.1831 233.137C71.7249 225.538 66.3211 214.052 68.6874 201.727C70.5488 190.417 81.3521 179.268 92.5006 177.071C105.501 175.219 118.171 180.113 124.925 191.262Z" fill="#D0CEBC"/>
<path d="M207.507 179.444C209.366 183.663 206.154 191.262 211.894 192.614C212.739 192.276 213.415 193.121 214.26 193.121C209.633 196.473 201.436 196.304 195.682 195.994C194.506 193.628 192.14 192.783 189.773 192.621C187.576 193.466 185.724 192.959 184.033 191.269C184.879 189.241 188.252 191.1 189.773 189.748C192.14 187.381 190.956 182.825 191.632 179.782C196.189 181.465 203.112 182.818 207.507 179.444Z" fill="#FFEDBC"/>
<path d="M282.144 183.156C290.926 200.382 299.539 217.439 308.322 234.496C308.152 234.834 308.152 235.341 307.645 235.341C303.589 229.764 301.061 222.679 297.342 216.594L281.13 185.184C280.285 183.832 278.602 184.677 277.75 183.663C279.271 183.156 280.792 182.318 282.475 181.98L282.144 183.156Z" fill="#D0CEBC"/>
<path d="M311.695 194.98C311.695 199.875 310.512 204.269 308.491 208.319L307.814 208.15C306.469 199.706 304.103 191.262 303.596 182.649C309.674 183.494 310.688 190.248 311.695 194.98Z" fill="#D0CEBC"/>
<path d="M367.599 183.156C369.966 187.55 372.325 191.769 374.015 196.332C370.642 195.994 366.416 195.825 364.219 199.199C360.331 203.755 361.007 210.685 356.451 214.566C355.437 214.566 353.746 214.228 353.746 212.876L354.422 207.474C352.563 206.629 350.366 205.784 348.176 205.953L347.669 207.474C345.302 204.769 344.119 200.882 342.26 197.678C349.521 191.262 358.472 188.219 366.409 182.987L367.599 183.156Z" fill="#D0CEBC"/>
<path d="M308.829 228.757C304.948 214.404 302.751 199.199 300.385 184.001L308.829 225.552V228.757Z" fill="#D0CEBC"/>
<path d="M302.413 209.333C298.87 209.164 297.849 204.938 295.997 202.41C293.293 197.17 292.955 188.902 297.011 184.17L298.025 185.184L302.413 209.333Z" fill="#D0CEBC"/>
<path d="M60.0743 191.769C59.3982 193.797 58.215 195.48 57.0319 197.17C55.5107 194.466 54.1585 191.262 53.4824 187.881C55.8487 188.895 58.215 189.91 60.0743 191.769Z" fill="#D0CEBC"/>
<path d="M291.095 191.093C290.757 192.107 290.757 193.121 290.25 193.966C288.729 192.614 287.553 190.424 287.891 188.733C289.243 188.895 291.771 188.895 291.095 191.093Z" fill="#D0CEBC"/>
<path d="M185.21 195.149C185.21 197.854 182.681 199.544 180.146 199.706C174.068 200.551 167.814 201.734 161.737 200.044C161.398 198.523 162.075 196.832 162.92 195.649C167.645 192.945 173.223 192.438 178.456 191.255L185.21 195.149Z" fill="#D0CEBC"/>
<path d="M293.969 214.566C286.708 212.537 279.609 205.284 278.94 197.17C278.771 194.973 279.616 193.114 280.968 191.593L281.813 191.769L293.969 214.566Z" fill="#D0CEBC"/>
<path d="M264.249 196.332C276.911 209.333 290.25 220.313 302.413 233.313C288.898 222.003 275.397 208.488 262.559 196.67L259.516 196.332L263.235 192.952L264.249 196.332Z" fill="#D0CEBC"/>
<path d="M239.248 198.861L240.938 200.889C241.614 214.066 245.839 226.728 244.311 239.736C230.634 242.44 216.282 239.398 205.302 232.137C198.041 225.376 191.287 217.277 189.597 207.819C189.09 205.46 191.963 205.291 192.132 203.262L195.344 198.706C204.126 199.213 212.908 197.354 220.507 193.98C227.261 194.473 233.17 196.501 239.248 198.861Z" fill="#D0CEBC"/>
<path d="M276.742 199.368L278.095 204.938C275.566 203.417 273.369 201.227 271.341 198.861C271.679 197.509 273.2 197.509 274.045 197.001C275.897 196.156 276.573 198.185 276.742 199.368Z" fill="#D0CEBC"/>
<path d="M106.515 202.241C108.206 204.938 108.206 208.657 107.191 211.523C105.67 214.397 103.135 216.249 100.1 216.932C97.5642 216.932 93.8457 216.256 92.5006 213.89C90.3033 211.354 89.4582 207.981 90.4723 204.769C91.6555 201.727 94.6979 199.192 97.7332 198.692C101.114 198.861 104.487 199.537 106.515 202.241Z" fill="black"/>
<path d="M378.572 204.938L378.403 209.833C375.029 210.509 377.219 205.953 375.705 204.431C374.522 202.241 371.818 201.896 369.451 202.403C363.374 207.298 366.585 218.953 356.789 219.967C353.915 219.798 351.049 218.277 350.035 215.404L349.866 209.495H351.387C351.387 212.199 351.556 216.249 355.099 216.925C357.803 217.263 360.169 215.235 361.007 213.037L366.071 200.706C367.085 199.185 368.775 199.016 370.297 198.678C374.015 198.861 377.565 201.227 378.572 204.938Z" fill="#C2A940"/>
<path d="M80.507 237.532C82.6973 241.419 86.2467 247.497 91.6555 247.666C101.959 248.849 113.438 249.356 123.911 250.37L150.426 254.082C151.44 260.498 150.257 265.906 150.595 271.984L149.074 271.308L139.278 262.864C139.616 260.329 140.63 257.286 137.587 255.603C136.066 253.575 133.362 254.42 131.341 253.413C128.636 253.582 126.439 255.779 124.418 257.631C118.509 258.814 112.769 261.174 108.544 265.568L108.713 268.273C103.311 271.646 97.0572 275.196 94.0218 281.28C94.1908 284.485 97.5642 286.682 99.0854 288.879C102.628 287.696 103.649 292.26 106.684 292.429C107.868 290.57 107.022 288.203 106.684 286.182C109.382 282.802 113.607 281.957 117.664 281.287L119.854 282.464L125.432 300.366C124.756 303.07 121.544 303.239 119.354 304.246C116.988 304.922 115.974 302.387 114.959 301.035C115.298 300.19 114.621 299.514 113.945 299.176C112.931 298.838 112.086 300.021 111.917 300.697C112.255 304.408 110.903 308.803 112.931 311.507C119.178 315.564 127.453 312.69 134.207 311.676V312.69C120.868 321.98 106.346 328.565 92.6696 336.84L91.4864 336.671C82.0282 329.241 73.9222 311.507 59.9053 319.613L55.0036 325.022C39.6366 286.858 44.658 233.405 65.0957 198.959C62.6026 214.523 68.8564 229.426 80.507 237.532Z" fill="#004899"/>
<path d="M104.487 205.284C105.67 207.143 104.825 209.671 103.811 211.361C102.29 213.39 99.9235 213.39 97.7332 213.897C95.705 213.052 93.5077 211.699 93.0076 209.34C92.5006 206.636 93.6837 203.6 96.5501 202.417C99.5925 200.72 102.797 202.917 104.487 205.284Z" fill="#004899"/>
<path d="M181.998 201.903C182.843 205.784 177.78 205.784 175.413 207.312C170.012 209.171 164.603 210.685 158.863 211.868C159.032 208.826 159.37 204.946 160.891 202.748C168.321 203.931 174.737 202.072 181.998 201.903Z" fill="#D0CEBC"/>
<path d="M236.55 217.946C236.888 218.284 236.719 218.791 236.719 219.291C224.395 218.446 213.077 212.368 202.436 205.784L203.112 204.269C213.922 209.671 224.557 215.411 236.55 217.946Z" fill="black"/>
<path d="M373.677 207.812C373.339 208.995 372.494 210.854 374.522 211.192C376.381 211.699 378.741 213.383 380.262 212.037C381.269 214.404 382.452 217.101 382.452 219.974L379.41 220.982C378.734 223.348 380.762 225.038 380.424 227.573C372.825 230.109 364.888 231.623 356.951 233.313C355.261 229.94 354.415 225.883 353.063 222.172C355.261 221.834 358.465 223.186 361 221.496C366.578 217.439 366.233 210.516 369.951 205.453C371.311 202.748 374.691 205.284 373.677 207.812Z" fill="#D0CEBC"/>
<path d="M49.4329 213.213C46.2214 212.368 43.3551 211.023 40.3127 209.333C44.0241 207.142 48.5878 205.959 52.8063 204.438L53.1443 204.945L49.4329 213.213Z" fill="#D0CEBC"/>
<path d="M236.212 209.333C230.641 208.995 225.916 206.967 220.507 206.291L220.338 204.769L236.381 208.143L236.212 209.333Z" fill="black"/>
<path d="M286.877 222.672C278.94 224.024 271.341 218.446 267.115 211.354C266.101 209.495 265.594 206.629 266.777 204.769C274.207 210.347 280.123 216.763 286.877 222.672Z" fill="#D0CEBC"/>
<path d="M176.765 210.171C171.188 216.08 164.603 223.01 157.342 226.214L158.187 215.066C163.927 212.361 170.512 211.178 176.765 209.157V210.171Z" fill="#D0CEBC"/>
<path d="M46.7285 220.143C46.0524 223.186 44.8693 226.728 43.8551 229.602C34.7349 227.911 25.7908 225.038 16.6706 222.679C17.0087 218.115 18.8679 213.39 20.7201 209.333C29.5093 212.706 38.4605 215.749 46.7285 220.143Z" fill="#D0CEBC"/>
<path d="M228.106 230.44C227.937 230.778 227.599 231.116 227.261 231.285C217.127 226.221 207.337 219.122 198.893 211.192L199.908 209.502C208.859 216.932 218.648 223.855 228.106 230.44Z" fill="black"/>
<path d="M304.434 220.305C302.744 219.122 301.568 216.763 301.223 214.566C301.899 214.059 302.575 214.228 303.251 214.904C303.596 216.594 304.948 218.284 304.434 220.305Z" fill="#004899"/>
<path d="M290.926 216.594C290.081 216.932 289.067 215.58 288.898 214.904C289.574 215.411 291.264 215.242 290.926 216.594Z" fill="#004899"/>
<path d="M301.061 226.559V226.728C298.363 225.883 296.497 223.355 294.645 221.158C294.307 220.144 293.8 218.791 294.307 217.946C298.018 219.291 298.525 223.686 301.061 226.559Z" fill="#004899"/>
<path d="M383.811 223.348C385.671 228.75 387.023 234.489 387.692 240.405C387.185 240.912 386.002 240.405 386.171 239.56C385.495 237.87 385.833 235.503 384.311 234.32C375.529 235.841 366.916 238.377 358.303 239.56C357.965 238.546 357.458 237.363 357.965 236.349L383.297 230.271C383.973 228.073 382.121 225.714 382.452 223.348H383.811Z" fill="#C2A940"/>
<path d="M42.848 233.313C43.0171 234.327 42.679 236.018 41.6649 235.849L15.4875 229.264C14.8114 228.25 14.8114 226.728 15.4875 225.721C24.7767 227.742 34.0659 229.933 42.848 233.313Z" fill="#C2A940"/>
<path d="M84.2255 230.609C85.0706 233.651 84.7326 237.194 86.7608 239.729L87.606 239.56C87.606 236.856 85.7467 233.482 86.7608 230.778C88.6201 233.482 87.2679 238.039 90.4723 239.898C90.9794 237.708 88.7821 235.172 89.7962 232.468C91.1413 234.496 91.3174 237.877 92.8386 239.56C93.3457 237.532 91.9935 235.003 92.5006 232.637C94.5288 235.172 92.8386 240.067 97.3952 241.25C114.452 239.222 132.686 237.532 150.419 237.877C151.433 239.391 153.461 238.553 154.814 239.391C158.356 242.771 161.398 247.159 163.596 251.554C144.94 251.892 127.2 247.152 108.882 245.476C101.114 244.462 91.9935 247.166 86.2538 241.595C84.3945 238.046 81.1831 233.996 83.3804 229.771L84.2255 230.609Z" fill="#FFEDBC"/>
<path d="M41.3268 239.222L39.9817 247.666C30.8615 247.497 21.0652 245.976 11.945 244.286C11.945 240.405 12.6211 235.841 13.9733 232.299C23.4245 233.989 32.5447 236.349 41.3268 239.222Z" fill="#D0CEBC"/>
<path d="M312.878 236.349C311.357 238.208 309.16 239.898 306.631 240.574C307.307 238.208 310.512 237.025 312.709 236.18L312.878 236.349Z" fill="#FFEDBC"/>
<path d="M305.11 237.194C303.251 238.546 303.42 240.567 304.096 242.595C305.955 243.94 306.124 246.138 307.138 247.828C286.644 252.568 265.186 255.096 244.318 258.124C241.452 257.962 238.409 258.8 236.381 256.779L235.705 255.089L246.685 242.588C259.692 241.067 275.059 240.898 288.229 242.757C294.476 244.786 300.392 241.574 304.272 237.18H305.11V237.194Z" fill="#FFEDBC"/>
<path d="M388.368 243.948C390.058 250.87 390.896 258.131 390.727 265.561L388.868 265.223C379.072 259.991 369.444 254.082 359.993 247.828L358.979 242.764C366.747 240.736 374.853 238.708 382.79 237.525C384.142 239.553 383.466 242.426 385.156 244.448C386.171 244.286 387.185 243.779 388.368 243.948Z" fill="#D0CEBC"/>
<path d="M314.737 238.377C314.061 241.074 310.512 242.433 307.645 242.94L313.385 238.377H314.737Z" fill="#FFEDBC"/>
<path d="M316.935 240.743C315.244 243.786 312.04 244.462 309.336 245.983L309.167 245.814C311.195 243.617 314.061 241.757 316.935 240.743Z" fill="#FFEDBC"/>
<path d="M318.287 242.94C318.794 246.145 314.744 246.652 312.885 248.004H311.533C313.047 246.145 315.751 244.286 318.287 242.94Z" fill="#FFEDBC"/>
<path d="M73.0771 243.617C74.9363 248.856 77.8027 253.744 80.676 258.645L81.8592 258.984C88.106 258.476 94.1908 256.786 100.438 256.617C97.0572 263.202 92.1625 269.625 88.6131 276.379C88.9511 284.316 89.2892 292.422 90.6413 299.683C85.7467 295.971 80.169 291.07 75.2743 287.02C68.0113 287.865 61.5955 292.429 54.3275 293.267C56.5178 287.865 58.8841 282.457 61.0814 277.055L60.4053 275.196C56.8558 270.639 52.2992 266.583 49.0878 261.857L65.976 259.829L71.3868 243.955C71.7249 243.617 72.408 243.109 73.0771 243.617Z" fill="black"/>
<path d="M39.2986 251.716C33.0518 262.188 22.9174 269.449 15.9945 279.076C23.2555 280.428 30.3474 278.907 37.6083 279.752C38.1154 279.921 37.9464 280.428 37.9464 280.935C28.4881 280.935 18.3609 281.611 9.57872 281.104V279.076L33.7278 252.561L32.0376 251.377L11.607 248.504C11.2689 248.335 10.5929 247.328 11.438 246.983C20.8962 248.173 30.3474 249.356 39.2986 251.716Z" fill="#C2A940"/>
<path d="M341.929 269.118C343.788 269.794 344.288 267.935 345.14 266.921C347 269.456 349.19 273.167 349.359 276.717C346.147 275.872 342.943 274.358 340.07 272.667C340.746 271.822 342.436 270.132 340.915 268.956L318.625 248.518C326.562 254.758 334.499 262.526 341.929 269.118Z" fill="#D0CEBC"/>
<path d="M79.8309 262.019L95.0289 260.16C93.0006 265.392 88.444 269.956 85.7397 275.02C86.4158 281.104 86.9228 287.351 87.5989 293.429C83.0424 291.57 79.1548 286.844 75.2743 283.295L59.2292 289.541L58.8911 289.034L64.2928 275.182L54.8346 264.547C58.8911 263.026 64.1238 263.364 68.5113 262.519C70.2037 258.293 70.8727 253.737 72.57 249.511H73.2461L79.8309 262.019Z" fill="#C2A940"/>
<path d="M316.935 250.032C322.343 259.829 327.914 269.963 333.147 279.752C334.161 279.414 334.837 278.745 335.851 278.745C336.865 281.788 337.879 284.823 338.048 288.203C334.837 287.02 332.309 283.64 329.604 281.111L331.802 279.421C326.569 269.794 320.491 260.343 316.435 250.039H316.935V250.032Z" fill="#D0CEBC"/>
<path d="M28.4952 254.758C22.5864 261.343 16.1636 267.935 9.74774 274.181C8.56458 268.949 9.4097 262.188 9.74774 256.448C10.0858 254.589 9.74774 252.23 10.9309 250.877L28.8262 253.413L28.4952 254.758Z" fill="#D0CEBC"/>
<path d="M313.554 251.716C316.259 262.019 318.111 272.822 319.801 283.464C321.153 283.464 322.843 283.633 322.505 285.492L321.491 292.922C319.977 290.563 317.78 287.858 316.928 284.985C317.942 284.985 319.125 285.154 319.294 283.971C316.082 273.674 314.899 262.526 312.878 251.716H313.554Z" fill="#D0CEBC"/>
<path d="M311.864 258.645L315.92 280.766C314.906 282.119 313.892 279.752 312.878 281.104L312.54 282.788C315.413 288.196 318.111 293.767 321.998 298.493C323.689 298.831 323.519 296.971 324.027 296.126C324.872 292.246 323.858 287.175 326.562 283.802V282.45C331.795 285.154 335.344 291.739 340.915 293.429L341.76 292.415L338.21 275.358L353.746 280.421C353.408 306.261 345.64 329.565 333.816 350.84C332.802 347.129 329.597 350.84 327.569 350.84C326.555 351.855 325.203 352.362 323.85 353.038C323.512 351.516 324.02 349.15 322.329 348.643C317.766 348.812 313.885 351.009 310.167 353.038C293.617 340.875 275.714 329.565 259.678 316.557V315.712C265.756 318.585 272.341 321.79 279.771 320.775C284.841 317.402 283.658 310.81 282.475 306.085C279.602 304.225 279.433 309.627 276.735 310.134C274.545 310.134 272.348 308.444 271.165 306.592C271.503 300.176 274.038 294.267 279.102 290.38C282.644 289.534 285.856 292.408 288.898 294.267C289.574 296.971 285.187 299.838 288.56 301.359C292.109 300.852 293.969 296.626 298.187 297.978C300.554 296.626 302.413 294.436 303.089 291.563C299.708 285.823 294.307 280.921 289.412 276.703C291.609 270.287 283.672 268.766 280.292 266.068C277.25 263.702 271.341 266.068 270.327 260.829L267.629 258.631C281.475 255.589 295.997 253.054 310.35 252.047L311.864 258.645Z" fill="#004899"/>
<path d="M390.734 269.787C381.783 276.71 371.825 282.619 362.028 288.534C362.028 286.844 361.014 283.809 362.874 282.795C364.733 280.935 368.113 280.597 368.613 278.069C365.74 269.456 373.846 255.603 361.014 253.582L360.845 252.061C370.804 257.969 380.938 263.371 390.734 269.787Z" fill="#C2A940"/>
<path d="M137.249 259.484C137.587 261.681 136.073 263.033 135.221 264.723L135.052 305.084C134.883 307.275 132.862 308.627 130.826 308.796C125.932 309.979 119.009 312.169 114.952 308.458L115.121 307.613C119.847 306.43 126.101 307.275 128.298 301.704C127.284 294.781 124.242 288.358 122.22 281.773C120.868 279.069 117.326 279.069 114.621 279.407C109.558 280.252 105.839 284.133 101.445 286.33C99.0854 286.668 97.9023 283.964 96.8881 282.442C97.3952 278.9 101.114 276.534 103.811 274.674C106.17 271.463 113.269 271.463 111.579 266.23C115.121 262.519 120.192 260.991 125.087 260.653L127.791 263.188C130.488 261.667 126.27 256.941 130.826 255.927C133.369 255.941 135.904 257.124 137.249 259.484Z" fill="#C2A940"/>
<path d="M365.402 259.822L365.571 278.062C364.388 278.4 363.712 280.09 362.19 279.914L361.345 257.455C362.698 258.138 364.557 258.3 365.402 259.822Z" fill="#D0CEBC"/>
<path d="M337.196 270.125C335.175 271.477 336.351 274.351 333.992 275.189C329.942 270.125 326.731 264.047 324.365 257.8C328.583 261.85 333.654 265.737 337.196 270.125Z" fill="#004899"/>
<path d="M327.4 277.724C326.048 279.076 323.519 278.738 321.829 280.259L320.815 278.907C319.463 272.322 317.773 265.561 317.604 258.645C321.153 264.723 324.027 271.308 327.4 277.724Z" fill="#004899"/>
<path d="M37.7844 276.71C32.8898 278.062 26.6359 277.555 21.5723 277.048C26.6359 270.294 32.5517 264.04 38.2915 258.976L37.7844 276.71Z" fill="#D0CEBC"/>
<path d="M262.052 259.153C259.692 261.688 258.171 265.23 259.516 268.78C254.453 271.822 249.551 274.858 244.825 278.407C244.656 272.667 244.318 266.921 244.994 261.519C250.903 261.343 256.136 259.322 262.052 259.153Z" fill="#004899"/>
<path d="M384.825 267.935C380.769 271.477 375.705 274.52 370.973 277.224L370.466 259.66C375.529 262.019 380.093 265.399 384.825 267.935Z" fill="black"/>
<path d="M272.186 266.752L272.862 267.597L273.2 267.09C277.926 268.78 283.165 269.963 286.877 274.012C284.848 280.597 293.124 280.935 295.49 285.492C296.835 288.196 300.892 290.218 299.37 293.429L296.497 295.964C290.419 292.253 284.679 286.506 277.25 287.351C272.693 293.429 266.777 300.183 268.974 308.289C272.186 311.5 276.235 312.683 280.123 314.367C280.799 315.719 279.109 316.557 278.433 317.578C271.848 316.733 265.763 314.705 260.023 311.5L259.516 308.627L261.883 271.977C262.559 271.132 265.094 271.808 264.249 269.949C262.728 268.428 262.221 265.73 263.066 263.702C264.08 261.512 266.439 261.674 268.129 262.695C270.158 263.709 269.482 266.752 272.186 266.752Z" fill="#C2A940"/>
<path d="M126.439 265.906V266.752C124.58 266.921 122.22 265.568 120.192 266.244C121.375 267.428 124.08 266.413 124.418 268.604C125.432 271.308 122.22 271.477 120.875 272.322C119.016 273.167 116.65 272.153 116.312 270.125C115.974 268.773 116.988 268.097 117.326 267.083C115.805 266.744 114.452 269.28 112.769 267.759C111.755 265.392 114.967 264.885 116.312 264.209C119.685 263.54 124.249 263.54 126.439 265.906Z" fill="black"/>
<path d="M380.262 268.104C378.741 270.301 375.867 271.984 373.17 272.829C372.832 269.787 372.156 267.09 373.001 264.047C375.529 265.061 378.234 266.075 380.262 268.104Z" fill="#D0CEBC"/>
<path d="M143.158 269.956C141.13 288.872 145.017 310.655 138.263 327.881L137.587 328.388L136.911 327.374C135.897 306.268 137.587 286.844 138.433 266.075C140.292 266.921 142.151 268.104 143.158 269.956Z" fill="#C2A940"/>
<path d="M120.868 269.618C121.037 270.294 120.192 269.956 120.023 270.632C119.685 270.632 119.516 270.294 119.178 270.125C118.847 269.118 120.537 268.773 120.868 269.618Z" fill="#C2A940"/>
<path d="M285.187 274.181C284.341 275.365 282.989 274.012 281.975 273.843C281.975 275.365 284.172 277.224 282.482 278.907C280.792 280.597 277.588 279.752 275.728 279.076C274.714 278.4 273.193 277.9 273.193 276.372C273.362 274.851 275.39 274.181 276.735 273.329C274.545 271.808 272.517 274.682 270.151 274.851C269.143 273.16 271.503 272.66 272.348 271.808C276.228 269.949 281.468 270.456 284.841 272.991C285.187 273.336 285.694 273.843 285.187 274.181Z" fill="black"/>
<path d="M150.757 277.724L150.25 292.253C148.391 297.485 146.532 302.718 144.672 307.789C144.165 296.133 144.841 284.316 145.686 272.66C147.891 273.674 149.574 275.872 150.757 277.724Z" fill="#C2A940"/>
<path d="M258.84 273.336C257.995 293.936 257.488 314.205 255.798 334.642C254.446 333.797 254.277 330.931 253.6 329.072C251.572 319.613 252.924 309.655 253.093 299.69L254.107 275.71C255.636 274.689 257.15 273.167 258.84 273.336Z" fill="#C2A940"/>
<path d="M390.903 274.012C391.748 284.654 390.565 294.95 388.875 304.746C379.417 304.07 370.128 301.704 361.014 299.676C357.803 289.879 370.304 288.365 375.198 283.295C380.431 280.09 385.495 276.71 390.903 274.012Z" fill="#D0CEBC"/>
<path d="M281.13 276.71V277.724C279.44 278.062 277.588 278.062 276.235 276.879C276.404 275.027 280.123 275.189 281.13 276.71Z" fill="#C2A940"/>
<path d="M250.734 278.4C251.748 289.548 250.565 301.197 250.058 311.669C247.361 304.577 245.67 296.133 244.487 288.027C243.98 284.985 244.825 282.45 247.016 280.766C248.368 280.09 249.213 278.569 250.734 278.4Z" fill="#C2A940"/>
<path d="M38.2915 288.196C30.3474 296.471 22.7555 306.268 13.4662 313.529C10.4309 304.408 10.2548 294.619 9.58576 284.823C12.4591 283.471 16.1706 284.654 19.044 283.809L37.9605 283.978L38.2915 288.196Z" fill="#D0CEBC"/>
<path d="M105.501 289.887C104.487 290.225 103.473 288.703 103.135 288.027C103.304 287.182 104.318 287.182 104.825 287.013C105.501 287.689 104.994 288.872 105.501 289.887Z" fill="#C2A940"/>
<path d="M39.6366 298.5L33.8969 304.577L38.2915 323.832C41.3268 325.184 44.8763 326.029 47.2356 327.888V328.734C36.4252 324.677 24.9457 321.98 14.6424 317.254L38.2844 293.274C39.6366 294.274 39.1295 296.809 39.6366 298.5Z" fill="#C2A940"/>
<path d="M292.278 296.471C291.94 297.147 291.264 297.655 290.588 297.655L291.433 295.626C291.94 295.795 292.109 295.964 292.278 296.471Z" fill="#C2A940"/>
<path d="M327.4 300.528L327.569 315.557C333.647 317.247 339.725 318.768 345.802 320.451L344.788 321.466C339.048 323.494 333.64 326.698 328.407 329.572C327.562 335.649 327.224 343.079 328.576 348.988C326.386 349.833 325.203 346.622 323.343 345.615L314.561 336.664C307.3 336.833 300.208 339.199 293.109 340.037C291.757 338.854 293.617 337.671 294.293 336.826L303.075 326.529L297.666 309.303C303.244 309.303 308.138 312.169 313.709 312.514C318.78 308.627 322.153 302.549 326.886 298.669L327.4 300.528Z" fill="black"/>
<path d="M116.143 305.084C115.974 305.592 115.298 305.761 114.621 305.592C113.776 304.915 113.607 303.563 113.945 302.549L116.143 305.084Z" fill="#C2A940"/>
<path d="M45.7144 322.987C44.0241 323.325 42.5029 322.649 40.9888 322.311C39.1295 316.733 37.9464 310.831 37.2773 305.084L40.1507 302.718L45.7144 322.987Z" fill="#D0CEBC"/>
<path d="M387.861 310.662L358.31 332.952V333.628L378.741 341.734V342.241C369.451 340.551 360.676 336.502 351.887 332.783V331.938C361.345 323.494 371.987 316.74 381.776 308.803L381.607 308.296C374.515 306.437 367.085 305.254 359.824 303.739L360.331 302.725L388.192 308.134L387.861 310.662Z" fill="#C2A940"/>
<path d="M325.548 317.747C329.773 319.606 334.668 319.944 339.056 321.466C335.337 326.698 322.505 324.839 325.71 334.973L325.541 344.094L314.392 333.79C308.991 334.973 303.582 336.326 298.011 336.833C300.039 332.783 303.751 329.91 306.286 326.367C304.934 321.642 302.23 317.416 301.561 312.521C306.455 312.86 310.85 314.881 315.575 315.564L324.696 305.092C325.379 308.965 325.21 313.698 325.548 317.747Z" fill="#C2A940"/>
<path d="M33.0518 308.127L36.0942 322.818L21.5723 317.923C23.9316 314.212 28.6642 309.986 31.6996 306.782C32.5447 306.437 33.0518 307.451 33.0518 308.127Z" fill="black"/>
<path d="M376.212 309.81C369.289 316.057 361.683 321.29 354.261 326.698L353.922 326.022L359.331 306.768C365.233 307.282 370.804 308.296 376.212 309.81Z" fill="#D0CEBC"/>
<path d="M281.306 311.5H279.954C279.447 310.824 280.292 310.148 280.799 309.641H281.306V311.5Z" fill="#C2A940"/>
<path d="M32.8827 319.268C30.3474 318.761 27.6501 318.254 25.9598 316.564C27.305 314.705 29.1713 312.514 31.1925 311.669L32.8827 319.268Z" fill="#D0CEBC"/>
<path d="M386.685 315.726C385.671 323.832 382.459 331.093 380.269 338.692C374.529 338.016 369.289 335.311 364.057 333.114V332.1C371.48 326.529 378.741 320.113 386.685 315.726Z" fill="#D0CEBC"/>
<path d="M134.207 316.564C134.883 320.79 134.883 325.008 134.207 329.403C129.65 331.6 124.918 333.283 119.347 333.452C116.305 332.776 113.607 331.262 110.565 330.579C117.833 325.015 125.939 320.79 134.207 316.564Z" fill="#D0CEBC"/>
<path d="M308.491 355.242C304.265 367.405 290.588 369.426 281.306 375.504C274.214 380.398 267.115 385.131 260.699 391.716L257.657 391.547C230.472 379.384 195.175 373.813 165.286 383.603C153.8 378.539 142.489 373.468 131.172 368.405C128.129 364.862 126.439 359.622 121.713 357.256L111.917 354.721C109.382 352.524 106.008 350.664 104.487 348.129C113.1 347.967 122.727 346.277 131.848 345.77C130.326 348.129 133.031 350.164 135.059 351.002C146.539 354.89 159.039 356.742 171.364 358.77V359.277C163.765 364.686 155.49 368.736 148.567 374.644L149.243 375.49C163.089 373.461 177.111 370.088 191.125 367.552C193.83 366.031 192.14 362.996 192.647 360.799L201.429 360.461C202.274 362.32 200.584 364.341 201.429 366.369L244.663 381.06C245.677 380.215 244.494 379.37 243.987 378.694C237.226 373.123 231.149 366.2 224.564 360.115L225.747 359.27C237.395 358.763 248.544 356.735 259.178 354.038C267.791 355.221 276.742 356.735 286.032 356.735C287.891 356.228 290.081 355.045 290.426 353.024C291.102 349.981 291.102 346.101 289.581 343.227C284.003 337.657 275.397 342.213 268.305 340.185C265.094 338.84 261.382 338.671 258.678 336.135C258.847 330.734 258.002 324.818 259.523 319.754C276.066 330.924 292.278 343.079 308.491 355.242Z" fill="#D0CEBC"/>
<path d="M49.0948 332.783C49.9399 333.966 50.109 335.311 50.44 336.664C41.9959 340.889 33.2137 344.601 24.4316 347.805C20.5511 339.192 17.1707 330.241 15.4804 320.952C26.974 324.332 38.2915 327.881 49.0948 332.783Z" fill="#D0CEBC"/>
<path d="M74.5983 329.572C72.408 330.579 71.3868 333.452 73.077 335.48L76.7885 340.72L76.6195 341.565C73.7461 339.875 72.739 336.157 69.6945 334.642C68.1733 335.318 66.8211 336.502 65.1379 336.671C64.1238 333.628 64.1238 329.579 65.983 326.874C69.0606 325.501 71.9714 327.508 74.5983 329.572Z" fill="#FFEDBC"/>
<path d="M74.2602 333.621C73.5841 332.269 75.2743 332.1 76.1195 331.424H76.4575L74.2602 333.621Z" fill="#FFEDBC"/>
<path d="M136.404 332.438C136.404 335.48 135.221 338.347 133.531 341.051C125.594 344.939 115.967 344.77 106.677 345.108C105.494 344.77 104.649 344.263 104.142 343.079C104.649 340.037 104.48 336.157 107.515 334.635C114.438 332.438 119.678 338.178 126.263 334.973C129.819 334.297 132.693 331.769 136.404 332.438Z" fill="#C2A940"/>
<path d="M85.5777 341.22C86.0848 343.925 85.9157 346.96 84.2255 348.988C81.5282 352.531 76.6265 348.819 74.0982 351.862C71.3939 348.988 69.7015 345.615 67.6732 342.234C68.6874 340.882 71.0558 340.713 72.07 339.192C74.6053 339.361 76.2955 347.298 79.1619 341.896C78.3168 340.206 77.1336 338.685 76.2885 336.995C79.8309 329.917 83.1621 338.621 85.5777 341.22Z" fill="#FFEDBC"/>
<path d="M102.797 334.804C102.628 338.523 101.445 341.896 101.614 345.615C99.4164 344.601 96.3811 341.565 95.0289 339.03C97.3952 336.833 100.269 336.157 102.797 334.804Z" fill="#D0CEBC"/>
<path d="M377.219 345.784C375.867 349.333 375.191 353.728 372.156 355.918C367.43 350.847 368.268 360.982 364.219 358.96C357.803 355.073 350.704 352.538 344.795 347.981L350.373 335.649C359.662 338.354 368.444 341.903 377.219 345.784Z" fill="#D0CEBC"/>
<path d="M70.2037 336.495C69.3353 337.22 66.9619 338.755 66.152 338.523C67.1662 338.016 68.5184 335.818 70.2037 336.495Z" fill="#FFEDBC"/>
<path d="M46.7285 376.518L47.0666 377.025L65.983 365.207L66.6591 366.052C58.8911 371.454 50.9541 377.201 42.679 381.588L40.9888 379.229C42.51 367.574 43.5241 355.749 45.7144 344.27C39.1295 345.96 32.8827 349.847 26.1289 351.7L25.7908 351.023L28.8262 348.995C36.5942 345.953 44.1932 342.241 51.9682 339.706L46.7285 376.518Z" fill="#C2A940"/>
<path d="M259.854 340.206C266.946 344.094 275.897 343.755 284.172 343.079C287.215 342.91 288.06 345.953 288.56 348.143C288.56 350.171 289.067 352.707 286.87 353.383C276.735 354.397 267.108 353.383 259.009 348.826C257.657 346.129 256.812 343.079 256.643 339.875C257.995 339.537 258.671 341.565 259.854 340.206Z" fill="#C2A940"/>
<path d="M81.6902 343.586C80.8451 345.446 78.8168 346.629 77.1266 347.129C76.6195 344.939 79.6549 344.256 80.838 342.903C81.5211 342.741 81.5211 343.079 81.6902 343.586Z" fill="black"/>
<path d="M97.3952 353.214C105.67 357.777 117.15 355.411 124.249 362.334C125.939 367.059 130.157 372.13 135.397 372.975C146.208 377.701 157.687 380.743 167.483 387.835C168.328 388.173 169.005 387.497 168.835 386.652L168.497 385.3C184.033 380.067 202.781 379.722 219.5 382.426C235.543 384.793 249.896 391.209 264.587 396.779L268.129 396.272C279.271 386.307 291.433 378.37 305.279 374.997C316.428 370.44 319.294 356.756 330.442 352.707C332.302 354.059 330.273 356.587 329.766 358.277C313.047 383.779 290.25 403.533 263.228 415.696C241.445 415.865 219.317 414.351 198.21 410.632C196.02 410.294 193.985 409.787 192.132 408.604C191.625 406.407 191.794 403.702 189.766 402.357L188.921 403.371C190.611 408.097 189.597 413.844 186.724 417.731C186.386 418.238 187.062 418.407 187.231 418.745C190.273 418.069 190.442 414.527 192.125 412.837C213.908 414.696 234.177 418.238 256.636 418.238C230.458 429.218 196.013 432.929 166.962 425.161C150.489 412.59 134.975 397.54 122.044 381.588C115.967 376.694 119.847 366.898 112.755 363.01C103.804 358.615 94.5148 355.749 85.3946 352.031C85.5636 349.84 88.0989 347.643 88.268 344.939C91.6555 347.305 92.8386 351.862 97.3952 353.214Z" fill="#FFEDBC"/>
<path d="M64.1238 361.996L63.6167 363.341L50.44 371.954L50.1019 370.095C51.4541 361.82 52.1302 353.376 54.1585 345.27C57.7079 350.509 60.5813 356.594 64.1238 361.996Z" fill="#D0CEBC"/>
<path d="M42.341 348.657C42.0029 357.439 40.1437 366.221 38.6295 374.666C33.9039 368.757 30.5235 362.003 27.6501 354.904C31.8686 351.862 37.4463 350.002 42.341 348.657Z" fill="#D0CEBC"/>
<path d="M366.078 363.179C368.613 362.841 368.613 355.242 371.311 359.299C368.782 363.855 366.754 368.757 363.543 372.975C363.036 372.806 362.36 372.637 362.36 371.961C362.19 369.426 367.085 366.559 363.205 365.038L341.929 353.728L342.943 351.023C351.049 354.228 358.31 359.122 366.078 363.179Z" fill="#C2A940"/>
<path d="M320.484 353.045C319.132 361.489 312.04 367.398 305.117 371.961C290.933 376.187 278.433 384.455 266.784 394.251C265.601 394.082 264.087 394.589 263.242 393.575C273.813 382.124 285.884 374.743 300.061 369.426C309.012 365.545 309.35 353.383 319.815 351.862L320.484 353.045Z" fill="#FFEDBC"/>
<path d="M113.1 366.045C116.312 368.75 114.621 373.475 116.143 376.687C126.953 394.589 144.679 409.111 160.215 423.295C126.439 414.513 95.1979 393.068 74.2602 362.503C73.7531 360.137 73.0771 357.27 74.7673 355.073C78.4858 352.707 83.3804 355.073 87.4299 355.411C96.043 358.953 104.994 361.32 113.1 366.045ZM75.7814 323.494C85.0706 333.628 96.043 343.593 105.839 353.383L96.8881 350.847C87.775 341.565 80.8451 326.36 66.9972 323.994C64.6308 324.163 62.4406 326.022 62.1025 328.388C60.2433 338.523 68.0113 345.953 72.239 354.228L71.2248 357.777C65.645 349.671 60.9194 340.889 57.3769 331.769C57.884 327.55 58.5601 322.649 62.9547 320.79C67.3352 318.93 72.408 320.451 75.7814 323.494ZM237.902 261.174L241.614 261.85C241.445 266.244 241.952 270.463 241.276 274.343C239.755 269.949 234.353 267.252 229.789 266.575C229.113 266.913 228.268 267.421 227.43 266.913L224.557 263.54C225.571 257.969 226.416 252.223 228.606 247.497C232.663 251.547 230.98 260.167 237.902 261.174ZM173.73 253.913C174.744 256.786 175.42 260.836 173.899 263.709C169.674 266.075 164.441 263.202 160.222 266.075C156.342 269.118 154.652 273.336 154.145 277.9H153.638L153.807 254.934C158.701 253.582 165.969 258.476 168.666 251.554C171.878 246.321 171.709 239.567 172.716 233.489C174.237 239.56 173.054 247.328 173.73 253.913ZM192.809 197.001C192.809 199.706 190.449 201.896 188.245 203.079C187.569 203.079 186.9 203.755 186.217 203.248C185.71 200.206 187.569 197.001 190.104 195.311C191.118 195.487 192.301 195.987 192.809 197.001Z" fill="#BF8746"/>
<path d="M361.86 367.567C361.521 369.933 358.648 371.623 359.493 373.982C360.338 374.658 362.198 374.827 362.029 376.349L357.134 383.779L355.782 383.61L333.654 367.398C335.006 363.686 338.048 359.968 340.07 356.249C347.838 358.784 354.592 363.855 361.86 367.567Z" fill="#D0CEBC"/>
<path d="M234.691 374.327C224.395 371.961 215.105 367.405 204.971 364.531C204.126 363.686 204.802 362.003 205.14 360.989L205.985 360.313L218.648 359.806C224.726 364.193 229.627 368.581 234.691 374.327ZM189.604 365.038C179.308 366.728 169.674 369.602 159.377 371.116C164.272 366.559 171.195 363.51 176.942 359.461L189.104 360.475L189.604 365.038ZM222.704 267.766C214.26 270.463 210.373 283.302 199.908 283.302C190.111 283.978 183.188 274.858 177.618 267.766C184.71 274.012 192.816 277.393 202.443 277.224C210.204 275.872 216.458 271.477 222.704 267.766ZM180.822 275.703C186.224 281.111 192.132 287.696 201.084 286.344C214.422 285.161 218.31 266.075 232.832 269.794C235.367 270.808 237.057 273.005 237.902 275.196C243.473 300.528 250.565 325.353 255.129 350.854C236.719 356.432 215.951 356.763 195.682 357.277C175.42 356.432 155.49 354.066 137.08 348.326C134.552 345.96 137.249 342.248 137.925 339.544C145.693 316.409 152.785 292.598 161.568 270.139C168.152 263.54 176.089 270.801 180.822 275.703ZM204.295 273.674C210.035 271.646 215.775 269.449 220.676 265.906C213.922 271.815 204.633 276.886 194.33 274.351C188.421 272.829 183.35 269.118 178.456 265.061C185.548 270.463 194.499 276.034 204.295 273.674ZM241.952 243.617C240.262 246.321 237.902 248.68 235.198 250.539L232.67 243.948C235.198 242.94 239.248 243.448 241.952 243.617ZM171.871 219.467C172.547 229.426 169.843 238.884 166.462 247.666H165.786C163.251 244.124 160.546 240.067 157.173 237.194C158.863 235.165 156.166 232.968 158.187 231.116C162.751 227.235 166.969 223.01 171.871 219.467ZM196.02 227.404C203.781 235.849 214.253 241.25 225.402 243.448C225.402 249.863 223.374 256.11 221.521 262.026C214.091 267.935 205.478 272.16 195.344 271.146C188.759 269.794 182.512 265.744 178.118 260.505C176.427 248.68 178.456 235.172 175.751 224.031L175.92 216.094L185.717 207.988C188.252 214.397 190.618 221.996 196.02 227.404Z" fill="#D51317"/>
<path d="M75.4434 378.039C71.3868 376.687 67.4972 378.377 64.6308 381.25L51.2921 391.892L49.7709 391.723L44.7073 384.631C51.9682 378.722 60.4123 373.651 68.5184 368.588C70.8798 371.792 73.5841 374.497 75.4434 378.039Z" fill="#D0CEBC"/>
<path d="M354.422 386.652C353.07 390.702 349.352 394.42 345.978 397.462C346.316 394.42 349.19 391.885 350.88 389.356L342.943 383.279C340.246 384.462 339.232 390.371 336.189 387.673L340.07 381.764C338.21 378.553 334.33 377.708 331.795 374.673H330.949L325.541 381.088C325.034 380.75 324.189 380.919 323.85 380.243C325.372 376.363 328.914 373.32 331.111 369.947C339.394 374.997 346.654 380.743 354.422 386.652Z" fill="#C2A940"/>
<path d="M336.189 382.595L332.647 387.835L337.71 392.223C339.908 391.04 340.753 388.673 342.774 386.821C344.464 387.328 345.978 388.511 347.331 389.694C346.147 392.561 343.45 395.265 341.929 397.632L344.119 399.998C341.929 403.878 339.225 406.076 336.013 409.456C328.245 402.871 322.167 396.455 315.913 388.856C317.097 386.659 319.456 384.462 321.484 382.441L325.372 384.638L331.111 378.053C332.978 379.053 336.351 380.229 336.189 382.595Z" fill="#D0CEBC"/>
<path d="M84.2255 388.511C89.1201 399.491 73.5841 405.569 68.6874 413.675C67.5042 412.998 66.3211 411.646 65.476 410.632L81.1831 393.744C82.0282 391.385 81.3521 388.68 80.169 386.652C78.6548 384.455 76.4575 382.596 73.7531 382.426L68.6874 383.272C63.2857 386.821 58.7221 391.209 53.4894 395.434C52.8133 395.772 52.6443 394.927 52.1372 394.589L52.3063 393.744C60.9194 389.863 66.8281 376.011 77.6407 381.419C80.338 382.765 83.0423 385.638 84.2255 388.511Z" fill="#C2A940"/>
<path d="M78.6548 389.518L78.3168 393.406C74.7743 398.132 69.1945 403.54 64.4689 407.935C61.2574 405.061 57.715 401.512 55.1867 397.801C59.5742 392.906 65.152 388.849 70.5558 384.624C74.0912 383.272 77.6407 386.314 78.6548 389.518Z" fill="#D0CEBC"/>
<path d="M136.404 423.802C136.066 425.154 133.193 423.633 132.179 424.985C125.932 428.704 121.368 435.119 122.382 442.887C123.058 445.592 124.411 447.951 125.763 450.486C106.17 442.549 87.0919 432.077 71.5558 416.541C75.6053 407.083 89.4582 402.526 87.4299 391.209C102.466 404.385 118.678 416.203 136.404 423.802Z" fill="#D0CEBC"/>
<path d="M333.654 411.639C330.442 415.358 326.731 420.759 320.653 419.745C317.28 419.407 313.73 417.386 312.378 414.006C310.688 410.632 311.026 406.069 312.209 402.526C309.005 400.329 305.624 402.357 302.413 402.357C301.737 402.019 301.906 401.174 302.244 400.836C305.286 398.639 310.012 398.301 313.554 399.653C314.061 399.653 314.568 399.315 314.737 398.808C313.892 396.617 309.843 394.758 311.695 392.392C312.878 389.863 314.399 392.054 315.582 392.899L333.654 411.639Z" fill="#C2A940"/>
<path d="M309.336 396.448V396.955L307.307 397.293C306.8 396.617 307.645 396.448 308.152 395.772C308.66 395.603 308.998 396.11 309.336 396.448Z" fill="#D0CEBC"/>
<path d="M328.921 414.006C328.076 415.865 325.71 416.879 323.858 417.893C321.153 417.555 317.611 417.555 315.413 415.189C313.554 412.484 312.202 408.942 313.385 405.561C313.892 403.702 315.413 402.188 316.928 401.005C320.984 404.716 325.21 409.618 328.921 414.006Z" fill="black"/>
<path d="M302.751 405.9C304.441 404.547 306.638 403.702 308.829 404.378C309.167 409.273 308.829 414.682 312.378 418.224C314.575 420.583 317.78 421.767 320.991 422.281L320.822 423.295C302.244 438.155 282.151 449.472 260.199 456.395C263.742 451.669 264.418 443.894 261.721 438.324C259.861 434.098 255.474 430.556 251.079 429.373C255.636 427.013 261.382 425.492 266.277 422.957C277.595 417.555 288.736 411.308 299.039 403.364C300.554 403.54 301.568 405.23 302.751 405.9Z" fill="#D0CEBC"/>
<path d="M325.717 414.52C323.689 415.527 320.315 415.703 318.287 414.52C315.928 412.998 314.913 410.463 315.244 407.759C314.906 406.576 315.582 405.23 316.597 404.547C319.977 406.921 323.689 410.632 325.717 414.52Z" fill="#D0CEBC"/>
<path d="M107.53 412.153C109.896 414.858 111.248 417.893 110.91 421.781C110.741 425.161 108.551 428.373 105.677 430.056C102.804 431.408 98.5854 431.915 95.7191 430.394C92.6767 428.535 89.2962 425.83 88.9582 422.119C88.7891 418.576 88.9582 415.196 91.4935 412.66C95.0289 407.59 103.311 408.097 107.53 412.153Z" fill="black"/>
<path d="M106.515 413.506C108.875 415.865 110.396 419.245 109.044 422.795C108.537 425.499 106.339 427.52 103.98 429.042C100.262 430.394 96.043 429.38 93.3386 426.337C91.3104 424.147 90.6343 421.443 90.6343 418.569C90.8033 415.527 93.3387 412.998 95.705 411.646C99.0854 409.449 103.811 410.97 106.515 413.506Z" fill="#C2A940"/>
<path d="M106.515 417.217C107.522 419.414 107.022 422.288 106.008 424.14C104.663 426.499 102.128 428.027 99.0854 427.682C96.5501 427.344 94.3598 425.154 93.0076 422.957C92.1625 420.083 92.8386 416.541 95.0359 414.682C98.5784 411.477 104.663 413.337 106.515 417.217Z" fill="black"/>
<path d="M104.825 418.231C105.501 421.274 103.98 423.971 101.445 425.154C98.7474 425.999 96.043 424.816 94.8599 422.281C94.0147 420.252 94.5218 417.886 95.874 416.203C98.2403 413.837 103.48 414.52 104.825 418.231Z" fill="#D0CEBC"/>
<path d="M296.666 419.921C299.201 422.795 300.385 425.999 300.046 430.049C299.201 433.767 296.328 437.486 292.617 439C288.222 440.859 283.327 439.338 279.954 436.302C277.757 434.105 276.742 431.408 276.742 428.196C276.742 424.985 277.926 422.288 280.123 419.921C284.51 415.865 292.447 415.189 296.666 419.921Z" fill="black"/>
<path d="M295.321 420.759C297.518 422.957 298.701 425.999 298.363 429.035C298.025 431.739 296.842 433.929 294.983 435.957C291.44 439.162 286.201 437.641 282.32 436.295C279.785 434.267 278.94 431.563 278.44 428.696C278.44 425.485 279.961 421.943 282.32 420.083C285.863 417.048 291.94 418.062 295.321 420.759Z" fill="#C2A940"/>
<path d="M295.321 425.323C296.166 427.682 295.828 430.387 294.307 432.246C292.278 434.95 287.891 435.964 284.848 434.274C282.313 433.091 281.475 430.563 281.13 428.196C280.961 424.823 282.989 422.795 285.525 421.274C289.243 419.921 293.8 421.605 295.321 425.323Z" fill="black"/>
<path d="M293.631 426.168C294.307 428.534 293.462 430.725 292.117 432.246C290.088 433.598 287.391 434.105 285.194 432.753C283.503 431.063 282.32 428.527 283.334 426.161C284.01 423.964 286.039 422.95 288.229 422.619C290.588 422.457 292.786 424.14 293.631 426.168Z" fill="#D0CEBC"/>
<path d="M152.109 431.408C154.814 434.619 156.666 438.162 156.666 442.387C156.328 446.606 154.131 450.155 151.264 453.022C147.046 455.726 140.799 457.078 135.897 455.05C130.488 453.191 126.439 447.451 125.763 442.211C125.087 436.471 127.453 430.901 132.855 428.027C138.771 424.647 147.384 425.999 152.109 431.408Z" fill="#C2A940"/>
<path d="M150.757 434.274C153.123 439.852 152.109 446.937 147.715 451.5C144.672 454.536 139.44 454.712 135.552 453.015C132.51 450.986 131.165 448.289 130.488 445.078C130.15 441.028 130.657 436.803 133.362 433.767C137.587 428.704 148.06 425.83 150.757 434.274Z" fill="black"/>
<path d="M149.074 434.95C151.102 439 149.75 444.063 147.722 447.613C145.186 450.655 141.644 453.015 137.587 451.669C135.221 451.331 134.207 448.627 133.362 446.599C132.855 440.69 134.376 434.436 139.947 431.401C143.327 429.887 147.553 431.239 149.074 434.95Z" fill="#D0CEBC"/>
<path d="M171.533 434.443C169.843 437.148 167.821 440.021 168.666 443.056C169.512 449.303 174.913 453.022 177.449 458.592C177.449 459.437 176.604 460.283 175.758 460.283C173.73 460.621 172.554 458.761 171.033 458.092C169.512 459.445 166.976 460.459 166.976 462.649C160.56 461.973 154.145 460.452 148.06 458.423V457.747C154.138 455.219 160.391 449.979 159.884 442.549C159.546 438.324 157.856 434.781 156.173 431.063L171.533 434.443Z" fill="#D0CEBC"/>
<path d="M258.671 439.169C260.361 445.078 261.037 452.677 255.629 457.071C251.748 461.459 245.156 461.966 239.755 460.445C235.529 459.43 231.987 455.043 230.127 451.331C228.606 447.782 228.606 443.725 230.127 440.183C232.663 434.612 238.571 431.908 244.487 431.401C250.396 431.57 255.805 433.767 258.671 439.169Z" fill="#C2A940"/>
<path d="M231.149 434.274C227.437 439.514 224.395 447.451 228.275 453.698C229.965 457.409 233.515 460.452 236.719 462.311C230.98 464.17 224.05 464.677 217.634 464.846C217.465 463.832 217.465 462.649 217.127 461.635C214.598 461.128 211.049 461.804 208.345 461.128C207.837 453.36 206.823 444.747 207.837 437.317C214.422 435.795 222.359 436.641 228.782 434.105C229.627 434.105 230.472 433.936 231.149 434.274Z" fill="#D0CEBC"/>
<path d="M250.396 436.472C254.784 441.028 255.467 448.803 252.931 454.374C251.579 457.416 248.375 457.923 245.67 459.099C242.459 458.93 239.593 457.24 237.395 455.05C234.522 451.839 233.684 447.451 234.184 443.225C234.353 440.014 235.874 437.148 238.579 435.288C242.29 433.26 247.016 434.612 250.396 436.472Z" fill="black"/>
<path d="M183.019 438.831C183.188 439.507 182.85 440.014 182.174 440.183C180.484 439.507 178.801 437.486 176.604 438.493C171.364 446.768 185.724 450.486 185.048 458.592C184.71 460.79 184.541 463.318 182.005 464.332C179.139 465.853 175.42 464.839 172.547 463.825C171.871 462.98 170.519 462.473 170.688 461.29C173.054 460.783 175.751 463.825 178.456 461.797C183.688 455.888 174.061 452 172.378 446.937C170.519 443.725 170.688 439.676 172.716 436.81C174.575 434.781 177.787 435.288 179.977 436.133C181.329 436.641 181.836 437.824 183.019 438.831Z" fill="#C2A940"/>
<path d="M250.058 439.845C252.762 443.725 253.438 449.979 250.734 454.198C249.382 456.057 247.523 457.071 245.325 457.24C241.445 456.902 239.248 453.015 237.557 450.148C236.036 446.937 235.867 442.549 237.557 439.338C238.571 437.148 240.938 436.472 242.966 435.964C245.839 436.302 248.368 437.31 250.058 439.845Z" fill="#D0CEBC"/>
<path d="M197.71 437.148C198.724 446.437 198.048 456.057 198.217 465.522L185.21 465.184C187.914 462.994 188.083 458.937 187.238 455.726C185.21 450.493 178.625 447.113 177.949 441.373C179.977 439.683 181.16 442.725 182.843 442.894C184.026 441.711 185.548 440.866 186.724 439.852L184.526 436.471L197.71 437.148Z" fill="#D0CEBC"/>
<path d="M203.957 437.148C205.14 445.423 204.971 455.388 205.14 463.832C207.676 464.846 211.732 463.832 214.429 464.677L214.26 465.353L202.098 465.691L201.253 464.508C201.253 455.388 200.408 445.93 201.253 437.148C202.267 437.486 203.112 436.472 203.957 437.148Z" fill="#C2A940"/>
</svg>
