<svg width="401" height="491" viewBox="0 0 401 491" fill="none" xmlns="http://www.w3.org/2000/svg">
<g clip-path="url(#clip0)">
<path d="M0.744452 205.335L0.5 0H400.5L400.256 205.335C400.144 302.313 323.202 421.714 200.494 490.892C77.7979 421.725 0.85556 302.324 0.744452 205.335Z" fill="white"/>
<path d="M0.5 0L0.744452 205.335C0.85556 302.324 77.7979 421.725 200.494 490.892C323.202 421.714 400.144 302.313 400.256 205.335L400.5 0H0.5ZM200.494 400.003C163.296 400.003 133.141 392.892 133.141 390.358C133.141 387.825 163.296 380.714 200.494 380.714C237.693 380.714 267.859 387.825 267.859 390.358C267.859 392.892 237.705 399.992 200.494 399.992V400.003ZM200.494 348.314C143.341 348.314 97.0084 337.925 97.0084 333.491C97.0084 329.058 143.341 318.669 200.494 318.669C257.648 318.669 304.003 329.069 304.003 333.514C304.003 337.958 257.66 348.314 200.494 348.314ZM200.494 288.313C130.33 288.313 73.4535 275.435 73.4535 270.113C73.4535 264.791 130.33 251.924 200.494 251.924C270.659 251.924 327.558 264.724 327.558 270.046C327.558 275.369 270.67 288.258 200.494 288.258V288.313ZM332.446 210.735C288.701 216.411 244.616 219.058 200.506 218.657C156.399 218.926 112.322 216.28 68.5648 210.735C67.587 210.546 66.7537 209.957 67.1315 209.024C93.3578 140.112 139.061 80.3159 198.672 36.9225C199.207 36.5462 199.846 36.3442 200.5 36.3442C201.154 36.3442 201.793 36.5462 202.328 36.9225C261.95 80.3263 307.658 140.139 333.88 209.068C334.235 209.957 333.424 210.524 332.446 210.735Z" fill="#007CBA"/>
</g>
<defs>
<clipPath id="clip0">
<rect x="0.5" width="400" height="490.886" fill="white"/>
</clipPath>
</defs>
</svg>
