<svg xmlns="http://www.w3.org/2000/svg" fill="none" viewBox="0 0 400 485">
  <path fill="#F00" d="M399.829 0v75.61c0 72.831 5.773 149.725-49.716 258.061C295.8 439.548 204.28 483.931 200.217 485h-.214c-4.062-1.176-95.582-45.559-149.895-151.329C-5.702 225.228.178 148.441.178 75.611V0H399.83Z"/>
  <path fill="#B4965A" d="M115.754 3.209C148.577 44.597 308.202 243.41 312.158 251.75c0 0-23.736-19.785-37.848-25.453-11.013-3.85-23.629-6.203-33.251-26.415-12.616-26.63-31.861-42.244-63.294-53.58-26.408-11.764-23.308-46.843-51.534-59.89C101.855 73.9 93.195 81.279 73.95 47.805 66.466 34.865 53.1 24.598 53.1 24.598c-11.226-7.807-26.622-4.385-39.559-10.694C8.838 11.55 4.348 3.85 4.348 3.85 6.7 16.898 9.158 18.18 25.41 24.812c25.553 10.48 29.616 27.806 39.88 51.441 9.301 21.39 38.917 23.956 51.426 45.131 12.937 25.56 20.955 49.623 54.955 64.382 30.577 13.368 34.213 49.943 53.244 63.633 18.282 15.828 34.64 13.368 46.615 34.971 5.345 9.625 18.175 29.517 16.892 29.945C267.253 301.16 1.995 96.252 1.995 96.252l304.817 302.336c15.396-18.395 30.364-39.998 43.194-65.023 15.075-29.303 25.446-56.254 32.823-81.493L115.754 3.209Z"/>
</svg>