<svg xmlns="http://www.w3.org/2000/svg" fill="none" viewBox="0 0 400 486">
  <path fill="#fff" d="M399.641 0H.184v93.863c-.323 54.897-.753 111.193 24.53 181.698 0 .216 0 .323.214.539 6.563 18.191 14.847 37.459 25.282 57.695 53.254 103.874 142.979 148.437 149.864 151.559 4.303-1.937 95.749-46.178 149.864-151.559 10.435-20.344 18.612-39.504 25.174-57.695 0-.216.216-.323.216-.539 25.389-70.505 25.067-126.909 24.529-181.698V0h-.216Z"/>
  <path fill="#0082BE" d="M227.723 109.363h37.87v55.436h36.685v55.435h36.578v55.435h36.452c-.053.15-.196.254-.196.431-6.562 18.191-14.739 37.351-25.174 57.695-54.115 105.381-145.56 149.622-149.864 151.559-6.885-3.121-96.61-47.685-149.864-151.559-10.435-20.236-18.72-39.504-25.282-57.695-.176-.177-.206-.281-.212-.431H61.29v-55.435h36.687v-55.435h36.578v-55.436h37.761V53.929h55.406v55.434Z"/>
  <path stroke="#000" stroke-width="3" d="M398.357 1.5v92.378c.537 54.771.851 110.941-24.441 181.175l-.029.08a1.918 1.918 0 0 0-.231.581c-6.33 17.529-14.162 35.963-24.083 55.498l-.97 1.898C296.348 434.869 209.12 479.378 200.074 483.697c-10.269-4.872-95.378-48.89-147.279-148.173l-1.25-2.413-.002-.004-.968-1.888c-9.952-19.49-17.9-38.065-24.236-55.628l-.113-.316-.034-.034-.067-.186C2.515 209.21 1.408 155.821 1.628 104.18l.056-10.308V1.5h396.673Z"/>
</svg>