<svg xmlns="http://www.w3.org/2000/svg" fill="none" viewBox="0 0 400 487">
  <path fill="#fff" stroke="#000" stroke-width="3" d="M398.498 1.5v107.113c-.07 64.357-2.112 132.559-49.171 223.805l-1.196 2.306-.006.011c-51.815 101.539-138.753 145.92-148.124 150.586-10.309-5.152-95.65-48.758-146.887-148.158l-1.236-2.422-.006-.012-1.196-2.331c-47.062-92.233-49.104-160.5-49.174-224.86V1.5h396.996Z"/>
  <path fill="#0046AA" d="M307.526 327.892h4.301c-4.301-17.201-9.677-26.877-9.677-26.877l4.301-1.075s-4.301-11.825-17.204-30.101l9.677-2.15c-6.452-11.826-17.204-26.877-45.161-60.203l-9.677-29.027c3.225-7.525 8.602-22.576 8.602-22.576h3.226c7.526-18.276 13.978-44.077 13.978-44.077h2.15c1.076-16.126-4.301-29.027-4.301-29.027l3.226-1.075c-2.15-9.675-8.602-17.2-9.677-18.276 4.301-1.075 8.602-5.375 8.602-10.75 0-6.45-5.376-10.75-10.753-10.75-3.225 0-5.376 1.074-7.526 3.224-3.226-5.375-10.753-8.6-21.506-7.525-13.978 1.075-17.204 3.225-26.881 5.375-6.452 2.15-5.376 6.45-5.376 6.45l-17.205 6.45c-3.225-1.074-7.526 0-8.602 1.076 0 1.075 0 2.15 2.151 7.525 0 0 1.075-3.225 2.15-2.15 1.076 1.075-1.075 2.15-1.075 3.225 0 1.075-1.075 6.45 2.151 7.526h1.075c0 2.15 0 3.225 1.075 5.375h-9.677c-3.226 0-5.377-1.075-6.452-3.225l-1.075-2.15-2.151 2.15c-1.075 1.075-3.225 2.15-2.15 5.375 0 4.3 6.451 7.525 11.828 7.525h9.677c0 1.076-1.075 2.15-1.075 3.226 0 3.225 3.226 4.3 4.301 4.3 3.226 0 5.376-1.075 5.376-1.075s13.979-1.075 19.355 4.3l-3.226 6.45c-3.226-1.075-9.677-2.15-17.204-1.075v3.225s-10.753 0-17.204 4.301l1.075 2.15s-9.677 4.3-12.903 9.675l2.15 2.15s-6.451 6.451-12.903 18.276l4.301-15.05s-8.602-11.826-30.107-26.877c-1.075-1.075-1.075-6.45 1.075-13.975 2.151-6.45 2.151-17.201 1.076-20.427v-2.15c-1.076-2.15-2.151-5.375-2.151-5.375l-3.226-3.225c-2.15-2.15-5.376-2.15-5.376-2.15h-1.075v1.075s2.15 6.45 2.15 7.525c1.076 2.15 0 3.225-1.075 4.3l-1.075 3.226v-4.301c0-2.15 0-4.3-1.075-5.375-1.076-2.15-4.302-4.3-4.302-4.3-5.376-1.075-9.677 0-10.752 0h-1.075l1.075 1.075 5.376 5.375c1.075 1.075 1.075 3.225 1.075 4.3v3.226-1.075c-1.075 0-2.15-2.15-4.3-4.3 0 0-1.076 0-1.076-1.076-2.15 0-3.226-1.075-4.3-1.075-4.302-1.075-8.603 1.075-8.603 1.075l-1.075 1.075 1.075 1.075s5.376 3.225 6.452 4.3c1.075 1.076 2.15 2.15 2.15 4.3l1.075 4.301c1.076 12.9 6.452 27.951 6.452 27.951l-3.226 1.076s4.301 10.75 9.677 17.2l-3.225 3.226s6.451 7.525 12.903 12.9l-2.151 3.225s9.678 10.751 20.43 18.276c-4.301 6.451-9.677 15.051-15.053 21.501-9.678 13.976-8.602 11.826-8.602 11.826-2.151 2.15-5.377 2.15-5.377 0l-4.301-15.051c0-1.075 0-2.15-1.075-3.225v-1.075c0-2.15-1.075-4.3-2.15-5.375-2.151-2.15-4.302-3.225-5.377-3.225-1.075-1.075-2.15-1.075-4.3-1.075-3.227 0-5.377 1.075-6.453 1.075h-1.075l1.076 3.225s5.376 4.3 6.451 5.375c1.075 1.075 1.075 3.225 1.075 4.3v3.225c-1.075-1.075-1.075-2.15-1.075-2.15l-1.075-1.075c-1.076-1.075-2.15-3.225-4.301-4.3-2.15-1.075-5.376-1.075-5.376-1.075-4.302 0-8.603 4.3-8.603 4.3l-1.075 1.075h1.075s6.452 2.15 7.527 2.15c2.15 0 2.15 2.15 3.226 3.226l1.075 3.225-1.075-1.075c-1.075-1.075-3.226-2.15-5.376-3.226H68.819c-3.226 3.226-6.452 7.526-6.452 7.526l-1.075 1.075h9.677c2.15 0 3.226 1.075 3.226 2.15l2.15 2.15c2.15 2.15 12.903 19.351 13.979 21.501 2.15 3.225 5.376 3.225 9.677 1.075 5.376-1.075 18.279-9.675 18.279-9.675l1.076 4.3s8.602-3.225 17.204-10.751l2.15 3.226s6.452-4.301 15.054-11.826l2.15 3.225s11.828-8.6 32.258-22.576l-12.903 16.126 9.677 22.576c-6.451 0-15.053 0-18.279 1.075-2.151 0-4.301 2.15-6.452 4.3-12.903 15.051-20.429 33.327-20.429 33.327l3.225 2.15s-7.527 12.901-9.677 23.651l4.301 1.075s-2.151 10.751-2.151 21.502l3.226 1.075 1.076 9.675c0 2.15 0 3.225-3.226 3.225l-31.183-2.15H100.001c-2.15 1.075-5.376 3.225-5.376 3.225-4.301 3.225-3.226 9.676-3.226 9.676v1.075h1.075s6.452-3.225 7.527-3.225h2.15c1.076 0 2.151 0 3.226 1.075h-1.075c-2.151 0-4.301 1.075-5.376 2.15-1.076 3.225-3.226 6.45-3.226 6.45-2.15 4.3 0 8.601 0 8.601v1.075l1.075-1.075 5.376-5.376c1.076-1.075 3.226-1.075 4.301-1.075h1.076c-1.076 1.075-3.226 1.075-4.301 3.225-1.076 2.151-2.151 5.376-2.151 5.376 0 4.3 3.226 8.6 3.226 8.6l1.075 1.075v-1.075s3.226-5.375 3.226-6.45c1.075-1.075 2.151-2.15 4.301-2.15l4.301-2.15c8.602-1.075 35.484-1.075 40.86-1.075 4.301 0 7.527-1.076 7.527-5.376v-6.45l5.376 3.225c2.151-7.525 7.527-20.426 7.527-20.426l3.226 2.15c4.301-9.675 7.526-19.351 7.526-19.351l4.302 1.075s4.301-6.45 9.677-20.426l-2.151-18.276c5.377 12.901 12.903 26.877 22.581 38.702l2.15-3.225s6.452 8.6 15.054 15.051l2.15-3.225s6.452 7.525 16.129 13.975l3.226-3.225 10.753 9.676c2.15 1.075 2.15 5.375-1.076 5.375 0 0-22.58-2.15-32.257-3.225h-4.301c-2.151 1.075-5.377 3.225-5.377 3.225-4.301 3.225-3.225 9.675-3.225 9.675v1.076h1.075s6.451-3.226 7.527-3.226h2.15c1.075 0 2.151 0 3.226 1.075-2.151 0-4.301 1.075-5.376 2.151-1.076 2.15-3.226 4.3-3.226 4.3-2.151 4.3 0 8.6 0 9.675v1.075l1.075-1.075 5.376-5.375c1.076-1.075 3.226-1.075 4.301-1.075h1.076c-1.076 1.075-3.226 2.15-4.301 3.225-1.076 2.15-2.151 5.375-2.151 5.375-1.075 4.301 2.151 8.601 2.151 8.601l1.075 1.075v-1.075s3.226-5.375 3.226-6.451c1.075-1.075 2.15-2.15 4.301-2.15l6.451-2.15c8.602-2.15 27.957-2.15 46.236-2.15 5.377 0 5.377-3.225 4.302-5.375l-1.076-6.45 8.602 2.15c-3.225-8.601-4.301-17.201-5.376-17.201Z"/>
  <path fill="#fff" d="M194.624 79.554s2.15-2.15 3.225-5.375h-6.451c0 1.075 1.075 3.225 3.226 5.375ZM197.849 74.179c0 1.075 1.076 3.225 3.226 5.375 0 0 2.151-2.15 3.226-5.375h-6.452ZM202.15 84.93c2.151 0 4.302 0 6.452-1.076-1.075-2.15-3.226-4.3-3.226-4.3-2.15 3.225-3.226 4.3-3.226 5.375ZM194.624 84.93H201.075c-2.15-2.15-3.226-4.3-3.226-4.3-1.075 2.15-2.15 4.3-3.225 4.3ZM210.753 75.254c-1.076-1.075-2.151-1.075-2.151-1.075s-1.075 0-4.301-1.075c0 1.075 1.075 3.225 3.226 5.375 1.075 1.075 2.15-1.075 3.226-3.225ZM216.129 60.203s-5.376 0-8.602-2.15-5.377 1.075-5.377 2.15 0 3.225 4.301 3.225c4.302 0 7.527-2.15 9.678-3.225ZM180.645 81.704h-10.752c-3.226 0-6.452-1.075-8.602-4.3 0 0-2.151 1.075-1.076 3.225 0 3.225 4.301 5.375 9.678 5.375h13.978c-2.15-2.15-2.15-3.225-3.226-4.3ZM186.022 83.854c0-4.3 1.075-7.525 2.15-9.675h-6.451c0 4.3 2.15 7.525 4.301 9.675ZM189.247 77.404c-1.075 2.15-1.075 5.375-1.075 8.6h6.452c-1.076-2.15-3.226-4.3-5.377-8.6ZM239.785 333.267h-1.076c-1.075 0-3.226-1.075-5.376 0-2.151 1.075-4.301 2.15-5.376 3.225-1.076 1.075-1.076 2.15-2.151 3.225v2.151c2.151-1.076 4.301-2.151 5.376-2.151 2.151-1.075 5.377 0 6.452 0 2.151 1.075 3.226 1.076 6.452-1.075 0 0 0-4.3-4.301-5.375ZM238.709 342.943h-1.075c-1.075 0-3.226 0-4.301 2.15-1.075 1.075-3.226 3.225-3.226 4.3 0 1.075-1.075 2.15-1.075 3.225v2.15l3.226-3.225c2.15-2.15 4.301-2.15 5.376-2.15 2.151 0 3.226-1.075 5.376-3.225 1.076-1.075 0-3.225-4.301-3.225ZM239.785 360.143c1.075-2.15 3.225-3.225 5.376-3.225 2.15-1.075 3.226-2.15 4.301-4.3 0 0-2.151-2.15-5.376-1.075 0 0-1.076 0-1.076 1.075-1.075 1.075-3.225 1.075-3.225 2.15-1.076 2.15-2.151 4.3-2.151 5.375v3.226s0 1.075 1.075 2.15c-1.075-2.15 0-4.3 1.076-5.376ZM107.528 320.366h-1.076c-1.075 0-3.225-1.075-5.376 0-2.15 0-4.301 2.151-5.376 2.151-1.076 1.075-1.076 2.15-2.15 3.225v2.15l4.3-2.15c2.151-1.075 5.377 0 6.452 0 2.15 1.075 3.226 1.075 6.451-1.075 1.076 0 1.076-3.226-3.225-4.301ZM106.452 330.042h-1.075c-1.075 0-3.226 0-4.301 1.075-1.075 1.075-3.226 4.3-3.226 4.3 0 1.075-1.075 2.15-1.075 3.225v2.151l3.226-3.226c2.15-2.15 4.301-2.15 5.376-2.15 2.151 0 3.226-1.075 5.376-3.225 1.076 0 0-2.15-4.301-2.15ZM110.753 338.642s-1.075 0-1.075 1.075c-1.075 1.075-3.226 1.075-3.226 2.151-1.075 2.15-2.15 4.3-2.15 5.375v3.225s0 1.075 1.075 2.15c1.075-2.15 2.151-3.225 2.151-4.3 1.075-2.15 3.225-3.225 5.376-3.225 2.15-1.075 3.226-1.075 4.301-4.301-1.075-1.075-3.226-3.225-6.452-2.15ZM119.355 72.029s0-1.075 1.076-1.075c1.075-2.15 1.075-3.225 1.075-5.376-1.075-2.15-2.151-4.3-2.151-5.375-1.075-1.075-2.15-2.15-3.225-2.15-1.076 0-1.076-1.075-2.151-1.075 1.075 2.15 1.075 4.3 2.151 5.375 1.075 2.15 0 5.375-1.076 6.45-1.075 2.15-1.075 3.226 0 6.45 0 0 3.226 0 4.301-3.224ZM108.603 68.803v-1.075c0-2.15 0-3.225-1.075-4.3-1.076-2.15-3.226-3.225-3.226-4.3-1.075 0-2.151-1.075-3.226-1.075h-2.15l3.225 3.225c2.151 3.225 2.151 5.375 1.076 6.45 0 2.15 0 3.226 2.15 5.376 1.075 1.075 3.226 0 3.226-4.3ZM98.925 73.104v-1.075c-1.075-2.15-1.075-4.3-2.15-4.3-2.15-1.076-4.301-2.15-4.301-3.226h-5.376c1.075 1.075 3.225 2.15 4.3 2.15 2.151 1.075 2.151 4.3 3.227 5.376 0 3.225 1.075 5.375 3.225 6.45 0 0 3.226-2.15 1.076-5.375ZM97.85 181.684v-1.075c0-2.15-1.075-3.225-2.15-4.3-2.15-2.15-4.301-4.3-5.377-4.3h-5.375c1.074 1.075 3.225 3.225 4.3 3.225 2.15 2.15 2.15 4.3 2.15 6.45 0 2.15 1.076 3.225 3.227 5.376 0 0 3.225-1.075 3.225-5.376ZM86.022 184.91l-1.075-1.076c-1.075-1.075-2.15-3.225-3.226-3.225-2.15-1.075-4.3-1.075-5.376-1.075-1.075 0-2.15 0-3.226 1.075-1.075 0-1.075 0-1.075 1.075 2.15 1.075 4.301 1.075 4.301 1.075 2.15 1.075 3.226 3.226 4.301 4.301 1.075 2.15 2.15 3.225 4.301 3.225 1.075 0 3.226-2.15 1.075-5.375ZM79.57 192.435c-2.15-2.15-3.225-3.225-5.375-3.225h-5.377c-1.075 0-2.15 1.075-3.225 2.15l-1.076 1.075h5.377c2.15 0 4.3 2.15 5.376 3.225 1.075 1.075 2.15 2.15 5.376 2.15 1.075 0 2.15-3.225-1.075-5.375Z"/>
</svg>
