<svg width="400" height="504" viewBox="0 0 400 504" fill="none" xmlns="http://www.w3.org/2000/svg">
<g clip-path="url(#clip0)">
<path d="M0 0.93457C0 0.93457 0 136.516 0 255.549C0 423.515 200 503.147 200 503.147C200.207 503.058 400 423.427 400 255.549C400 136.516 400 0.93457 400 0.93457H0Z" fill="#009D4F"/>
<path d="M263.841 157.179L283.195 137.819L200 54.6943L116.775 137.819L136.159 157.179L200 93.4149L263.841 157.179Z" fill="white"/>
<path d="M66.4493 126.273L27.4155 165.26V203.981L66.4493 164.994L161.203 259.634L180.587 240.274L66.4493 126.273Z" fill="white"/>
<path d="M372.584 165.29L333.521 126.273L153.883 305.696C141.138 317.863 133.195 335.003 133.195 353.979C133.195 390.775 163.159 420.704 200 420.704C236.841 420.704 266.805 390.775 266.805 353.979C266.805 335.24 259.01 318.278 246.503 306.14L246.532 306.111L238.767 298.355L219.383 317.715L227.83 326.211C234.973 333.316 239.389 343.144 239.389 353.979C239.389 375.678 221.725 393.321 200 393.321C178.275 393.321 160.611 375.678 160.611 353.979C160.611 343.055 165.116 333.138 172.347 326.004L333.551 164.994L372.614 204.011V165.29H372.584Z" fill="white"/>
</g>
<defs>
<clipPath id="clip0">
<rect y="0.93457" width="400" height="502.21" fill="white"/>
</clipPath>
</defs>
</svg>
