<svg width="400" height="458" viewBox="0 0 400 458" fill="none" xmlns="http://www.w3.org/2000/svg">
<g clip-path="url(#clip0)">
<path fill-rule="evenodd" clip-rule="evenodd" d="M0 0.542969V254.265C0 260.958 0.330564 271.328 0.976707 277.856C10.9544 378.741 96.2603 457.555 199.996 457.555C303.74 457.555 389.038 378.741 399.023 277.856C399.669 271.328 400 260.958 400 254.265V0.542969H0Z" fill="#E62C33"/>
<path fill-rule="evenodd" clip-rule="evenodd" d="M205.334 332.356C205.319 332.236 205.386 332.153 205.484 332.13C205.597 332.1 205.694 332.176 205.717 332.258C212.043 352.127 223.741 370.424 238.294 386.315C244.29 383.871 250.729 381.592 257.266 379.11C232.532 357.459 211.464 328.754 205.334 295.461C205.319 295.341 205.386 295.258 205.484 295.236C205.597 295.206 205.694 295.281 205.717 295.356C215.837 327.144 239.684 354.91 267.025 375.215C274.539 372.018 281.962 368.311 288.784 363.528C252.344 341.749 213.981 303.914 205.334 256.965C205.319 256.844 205.386 256.761 205.484 256.731C205.597 256.709 205.694 256.784 205.717 256.859C219.549 300.319 259.046 336.252 298.055 355.895C303.66 350.465 308.566 343.907 312.375 335.8C270.797 318.316 215.897 274.562 205.334 217.204C205.319 217.084 205.386 217.001 205.484 216.979C205.597 216.949 205.694 217.024 205.717 217.099C221.765 267.538 272.382 307.832 316.688 324.294C319.355 315.134 320.865 304.388 320.865 291.648C267.416 275.284 205.334 212.376 205.334 148.965V109.438H194.672V149.002C194.65 211.098 128.315 276.593 79.1404 291.648C79.1404 304.388 80.6506 315.134 83.3178 324.294C127.624 307.832 178.241 267.538 194.282 217.099C194.312 217.024 194.409 216.949 194.522 216.979C194.62 217.001 194.687 217.084 194.672 217.204C184.109 274.562 129.209 318.316 87.6304 335.793C91.4397 343.907 96.3383 350.465 101.943 355.895C140.952 336.252 180.457 300.319 194.282 256.859C194.312 256.784 194.409 256.709 194.522 256.731C194.62 256.761 194.687 256.844 194.672 256.965C186.024 303.914 147.662 341.749 111.222 363.528C118.044 368.311 125.467 372.018 132.973 375.207C160.322 354.91 184.169 327.144 194.282 295.356C194.312 295.281 194.409 295.206 194.522 295.236C194.62 295.258 194.687 295.341 194.672 295.461C188.541 328.754 167.474 357.459 142.74 379.11C149.277 381.592 155.716 383.871 161.711 386.307C176.265 370.424 187.963 352.127 194.282 332.258C194.312 332.176 194.409 332.1 194.522 332.13C194.62 332.153 194.687 332.236 194.672 332.356C190.818 353.293 181.051 372.417 168.18 389.112C183.53 396.249 194.665 405.649 194.672 424.917V424.939H203.884H205.334V424.924C205.334 405.657 216.468 396.257 231.825 389.112C218.955 372.417 209.188 353.293 205.334 332.356Z" fill="#FFD600"/>
<path fill-rule="evenodd" clip-rule="evenodd" d="M337.046 120.941C337.159 114.518 331.96 109.209 325.438 109.096C318.909 108.983 313.529 114.105 313.417 120.527C313.304 126.957 318.503 132.259 325.032 132.372C331.554 132.485 336.933 127.371 337.046 120.941Z" fill="#FFD600"/>
<path fill-rule="evenodd" clip-rule="evenodd" d="M362.666 181.665C344.348 225.568 265.061 226.569 251.063 175.709C258.284 188.132 271.89 198.059 292.364 198.412C332.996 199.127 366.52 165.842 367.249 124.074C367.279 122.096 367.241 120.126 367.129 118.178C367.046 116.433 366.881 114.688 366.64 112.944C365.972 107.664 364.777 102.558 363.101 97.6774C358.646 82.7795 352.418 67.6335 354.611 51.367C355.603 51.7506 356.678 51.9837 357.805 52.0063C362.929 52.0965 367.159 48.0054 367.249 42.8765C367.339 37.7477 363.252 33.5212 358.128 33.431C353.289 33.3483 349.029 35.9879 346.212 41.8312C342.132 50.2916 345.024 62.8807 348.233 72.0781C335.032 57.09 322.597 47.1707 295.001 47.1707C272.311 47.1707 229.726 54.0292 220.627 30.0243C218.072 34.1755 216.63 39.0412 216.472 44.2603C215.879 64.5051 239.373 67.3854 240.59 67.1372C213.362 93.3757 246.067 129.534 272.581 108.394C274.903 106.536 277.69 103.423 278.479 100.61C276.601 101.28 274.58 101.648 272.476 101.648C264.67 101.648 258.036 96.6546 255.571 89.6832C254.91 87.8107 254.549 85.7952 254.549 83.7045C254.549 82.6592 254.64 81.6364 254.812 80.6438C257.915 65.8061 273.34 55.3378 299.652 55.5333C270.267 61.5496 272.949 88.5025 279.719 90.2397C279.719 90.2397 279.554 88.7357 279.561 87.9611C279.764 76.5903 291.958 65.6783 309.577 65.6783C330.614 65.6783 343.852 81.9598 348.638 90.7361C343.492 86.833 337.105 84.4716 330.156 84.3513C312.732 84.043 298.352 97.9406 298.051 115.388C297.939 121.675 301.027 132.903 312.267 134.317C299.269 116.824 311.207 100.979 325.482 100.753C340.486 100.513 351.771 113.402 351.771 128.421C351.771 152.486 327.008 169.166 301.154 169.166C290.298 169.166 279.095 165.812 271.95 159.773C279.11 157.652 284.392 151.087 284.527 143.213C284.7 133.512 276.977 125.33 267.277 125.33C245.736 125.33 240.695 148.071 240.695 159.209C240.695 242.301 354.904 252.318 348.007 287.596C353.342 284.498 354.822 277.038 354.416 271.736C353.041 253.71 320.982 236.187 314.107 231.54C322.62 234.548 373.898 221.447 362.666 181.665Z" fill="#FFD600"/>
<path fill-rule="evenodd" clip-rule="evenodd" d="M40.8504 33.4567C56.0047 32.1632 60.9409 56.1681 39.9713 73.3296C37.8526 75.0668 35.809 75.2698 35.4333 75.2097C38.649 72.7881 45.3508 60.1539 43.7731 51.2574C37.6798 52.0996 33.9532 48.9035 32.8562 44.4439C31.5339 39.1045 35.5836 33.9079 40.8504 33.4567Z" fill="#FFD600"/>
<path fill-rule="evenodd" clip-rule="evenodd" d="M183.607 44.2633C183.457 39.0367 182.006 34.171 179.452 30.0273C170.353 54.0247 127.768 47.1662 105.078 47.1662C62.2371 47.1662 32.1013 82.3088 32.8301 124.077C33.5589 165.845 67.0907 199.122 107.715 198.416C127.272 198.07 140.556 189.008 148.001 177.366C148.001 177.374 148.001 177.374 148.001 177.374C135.334 223.985 58.1348 226.399 38.45 181.668C30.4258 188.955 33.4161 203.056 41.1323 206.673C37.0601 224.759 66.7902 236.1 82.7559 230.332C71.4634 235.98 33.9721 265.354 52.0716 287.599C45.0617 251.757 159.557 242.259 159.557 160.957C159.557 153.263 157.032 125.333 132.809 125.333C123.11 125.333 115.379 133.507 115.551 143.216C115.687 151.082 120.968 157.655 128.129 159.768C120.983 166.101 109.789 169.161 98.9245 169.161C80.4118 169.161 46.6094 159.046 46.6094 125.784C46.6094 111.367 57.8268 99.4853 72.2298 99.2296C80.1638 99.0942 87.324 102.516 92.2001 108.021C90.0212 106.464 87.3465 105.562 84.4614 105.614C77.3313 105.735 71.6587 111.623 71.779 118.752C71.9067 125.889 77.7821 131.575 84.9122 131.447C96.6029 131.244 97.9177 118.677 98.068 119.309C98.4211 117.354 98.5939 115.338 98.5563 113.278C98.2633 96.5298 84.4689 83.1962 67.7444 83.4895C62.5452 83.5797 57.6841 84.971 53.4541 87.3474C66.4821 67.253 83.6425 65.8016 90.5021 65.6813C108.121 65.3729 120.315 76.5858 120.518 87.9641C120.533 88.9944 120.435 90.0021 120.225 90.9948C128.309 86.3622 127.287 60.575 100.472 55.7318C124.244 55.1453 142.073 65.403 145.266 80.6468C145.439 81.6395 145.529 82.6547 145.529 83.7C145.529 85.7982 145.169 87.8137 144.508 89.6862C142.043 96.6501 135.409 101.644 127.603 101.644C125.499 101.644 123.478 101.283 121.6 100.613C122.389 103.426 125.176 106.539 127.505 108.389C154.012 129.529 186.717 93.3787 159.489 67.1402C160.706 67.3809 184.2 64.5081 183.607 44.2633Z" fill="#FFD600"/>
</g>
<defs>
<clipPath id="clip0">
<rect y="0.542969" width="400" height="457.01" fill="white"/>
</clipPath>
</defs>
</svg>
