<svg xmlns="http://www.w3.org/2000/svg" fill="none" viewBox="0 0 400 456">
  <path fill="#E40017" d="M0 0v253.159c0 6.684.335 17.029.97 23.529C10.956 377.357 96.258 456 199.992 456s189.036-78.643 199.021-179.312c.652-6.517.987-16.861.987-23.529V0H0Z"/>
  <path fill="#FFCD00" d="M296.065 356.05s4.901-144.669 64.746-255.281c-22.496 13.569-39.138 18.817-49.743 25.618-6.088 4.178-9.299 9.392-9.299 16.745 0 11.196 9.4 17.614 10.905 20.822.703 1.487-.535 5.983-2.977 12.935-1.84-15.692-17.629-22.728-29.12-18.182-2.96 1.17-14.083 5.782-15.639 6.417-1.555.635-2.475 1.487-3.077 2.891-.552 1.42-.519 2.674.134 4.228.652 1.537 5.251 12.667 6.523 15.575 4.934 11.414 21.426 17.664 33.87 7.587-1.606 4.244-3.279 8.706-5.135 14.455-8.43 26.203-12.996 45.689-17.128 53.342-4.131 7.654-13.046 9.893-19.502 9.893h-15.237c-8.547 0-20.673-5.548-23.918-30.982-2.81-22.059-8.029-64.556-9.367-75.502 12.344 12.517 28.869 9.175 38.453-.418 2.609-2.606 12.294-12.65 13.648-14.037 1.355-1.387 1.941-2.741 1.941-4.495 0-1.755-.586-3.109-1.941-4.496-1.354-1.387-11.055-11.43-13.648-14.037-10.186-10.211-28.25-13.319-40.778 2.156-.485-8.941 1.405-11.13 8.33-15.024 7.075-3.977 18.733-15.307 12.26-33.205-5.804-16.06-16.291-20.572-30.241-56.718-13.949 36.146-24.436 40.659-30.24 56.718-6.49 17.898 5.168 29.228 12.26 33.205 6.925 3.894 8.831 6.1 8.33 15.024-12.528-15.475-30.592-12.383-40.778-2.156-2.609 2.607-12.294 12.65-13.648 14.037-1.355 1.387-1.941 2.741-1.941 4.496 0 1.754.586 3.108 1.941 4.495 1.354 1.387 11.055 11.431 13.648 14.037 9.567 9.609 26.092 12.935 38.453.418-1.338 10.946-6.557 53.443-9.367 75.502-3.245 25.451-15.371 30.982-23.918 30.982h-15.237c-6.456 0-15.371-2.239-19.503-9.893-4.131-7.653-8.697-27.139-17.127-53.342-1.84-5.732-3.529-10.211-5.135-14.455 12.444 10.077 28.936 3.827 33.87-7.587 1.271-2.925 5.871-14.038 6.523-15.575.653-1.537.686-2.808.134-4.228-.602-1.404-1.539-2.256-3.077-2.891-1.556-.635-12.679-5.247-15.639-6.417-11.491-4.546-27.28 2.49-29.12 18.182-2.442-6.969-3.68-11.448-2.977-12.935 1.505-3.208 10.905-9.626 10.905-20.822 0-7.353-3.195-12.567-9.3-16.745-10.604-6.801-27.246-12.049-49.742-25.618 59.845 110.612 64.746 255.281 64.746 255.281h191.879Z"/>
</svg>