<svg xmlns="http://www.w3.org/2000/svg" fill="none" viewBox="0 0 400 458">
  <path fill="#FFCD00" d="M1.86 1.862v252.272c0 6.516 0 16.756.93 23.273 4.651 48.406 27.907 94.02 64.186 127.532 36.279 33.512 84.651 52.13 133.954 52.13 49.302 0 97.674-18.618 133.953-52.13 36.279-33.512 59.535-78.195 64.186-127.532.931-6.517.931-16.757.931-23.273V1.862H1.86Z"/>
  <path fill="#000" d="M0 0v254.134c0 6.516 0 16.756.93 23.272 4.651 49.338 27.907 94.952 64.186 128.464C102.326 439.382 149.767 458 200 458c50.233 0 98.605-18.618 134.884-52.13 37.209-33.512 59.535-79.126 64.186-128.464.93-6.516.93-16.756.93-23.272V0H0Zm395.349 254.134c0 6.516 0 16.756-.93 23.272-4.652 47.476-26.977 92.159-62.326 124.74-29.767 26.996-66.977 43.752-106.047 49.338-2.79-4.655-6.511-8.378-6.511-8.378l-34.419-34.443c-5.581-6.517-8.372-13.964-10.232-18.618 0-.931-.931-.931-.931 0v61.439c-39.069-5.586-75.348-22.342-104.186-48.407-35.348-32.581-57.674-76.333-62.325-124.74-.93-6.516-.93-16.756-.93-23.272V6.516h388.837v247.618Z"/>
  <path fill="#000" d="M227.907 405.87c0-8.378-8.373-16.756-8.373-16.756l-32.558-32.582c-6.511-6.516-9.302-14.894-11.162-19.548 0-.931-.931-.931-.931 0-.93 4.654-.93 9.309-.93 13.963v24.203c0 8.378 8.372 16.756 8.372 16.756l32.558 33.513c4.651 5.585 8.372 11.17 10.233 15.825.93 2.793 2.791 1.862 2.791.931V405.87ZM238.139 306.264c-6.511 2.793-13.023 6.517-15.813 2.793-1.861-1.862-.931-3.724-.931-6.516.93-2.793 1.861-6.517 2.791-10.24 1.86-8.378 0-17.687-8.372-25.134h-1.861l-1.86 1.862-9.302 9.308c-13.024 13.033-21.396 27.927-26.047 45.614v3.724c.93 7.447 8.372 13.963 8.372 13.963l31.628 31.651c4.651 4.654 7.442 10.24 8.372 13.963.93 2.793 2.791 1.862 2.791.931v-37.236c0-13.032 4.651-24.203 13.953-33.512l11.163-11.171v-.931c-2.791-2.792-8.372-.93-14.884.931Z"/>
  <path fill="#000" d="M57.674 298.817c40-52.13 121.861-62.37 157.209-38.166.931.931 4.652 2.792 8.373 6.516l.93.931c10.232 10.24 7.442 26.065 6.511 34.443 0 .931 0 .931.931.931 4.651-.931 21.395-6.516 26.046-1.862l5.582 5.585 2.79 2.793h.93l43.721-43.752v-.931l-2.79-2.793-5.582-5.585c-4.651-4.654 0-21.411 1.861-26.065 0-.931 0-.931-.93-.931-8.373.931-24.186 3.724-34.419-6.516l-.93-.931c-1.861-1.862-1.861-1.862-3.721-4.655-45.582-53.991-19.535-121.947 35.349-161.975 37.209-26.065 37.209-26.065 0 0 1.86-.931 2.79-3.724-.931-3.724h-1.86C162.79 53.992 54.884 162.907 52.093 296.025v1.861c.93 2.793 2.79 3.724 5.581.931Z"/>
  <path fill="#000" d="M275.349 222.483c5.581 2.793 11.163 2.793 16.744 1.862 3.721-.931 7.442-1.862 10.233-2.792 2.79-.931 5.581-.931 6.511.93 3.721 3.724-.93 9.309-2.79 15.826-2.791 5.585-3.721 11.17-2.791 14.894h.93l44.651-44.683v-7.447c-7.441 4.654-15.814 7.447-24.186 7.447-9.302 0-15.814-2.793-23.255-7.447l-26.047 19.549c-.93.931-.93 1.861 0 1.861Z"/>
</svg>