<svg width="400" height="500" viewBox="0 0 400 500" fill="none" xmlns="http://www.w3.org/2000/svg">
<g clip-path="url(#clip0)">
<path d="M400 0.842285H0.00612567V263.534C0.00612567 264.468 -1.89323 342.88 61.1985 414.538C97.9194 456.27 186.363 494.159 199.989 499.787C213.753 494.131 302.059 456.27 338.753 414.538C401.844 342.825 400 264.413 399.972 263.534L400 0.842285Z" fill="#E01F1D"/>
<path d="M364.958 229.9C362.206 222.954 351.388 230.477 349.02 224.848C347.424 221.06 356.26 220.044 353.535 214.113C350.231 207.003 336.055 216.008 333.275 211.642C331.018 208.073 340.019 207.524 337.294 201.264C335.752 197.75 330.274 199.233 327.935 199.754L313.758 202.5C311.556 200.084 307.152 197.009 298.839 193.357C296.692 192.698 304.344 186.521 306.381 185.121C307.51 184.242 311.474 181.14 313.923 179.163L328.127 181.908C330.467 182.43 335.945 183.913 337.486 180.398C340.239 174.139 331.21 173.589 333.468 170.02C336.22 165.655 350.424 174.66 353.7 167.549C356.453 161.619 347.616 160.603 349.213 156.814C351.58 151.186 362.398 158.736 365.151 151.763C367.904 144.789 355.985 143.526 359.646 139.49C363.307 135.454 369.115 129.304 364.243 124.445C359.37 119.585 353.232 125.46 349.185 129.03C345.139 132.599 343.873 120.793 336.881 123.539C329.889 126.284 337.431 137.074 331.816 139.408C327.99 141 326.971 132.214 321.053 134.932C313.896 138.227 322.952 152.367 318.575 155.112C314.997 157.391 314.446 148.413 308.17 151.131C304.619 152.641 306.106 158.132 306.629 160.466L309.794 175.896C304.289 181.057 294.517 190.255 288.241 189.953C287.498 189.816 265.834 186.384 250.722 193.906C223.387 207.634 217.139 220.346 214.111 226.523C212.817 229.269 212.184 230.367 211.11 230.422C211.11 230.422 211.11 230.422 210.78 230.257C208.027 227.512 208.027 211.45 207.862 192.314C207.532 178.394 219.176 171.036 227.902 167.604L244.06 175.566C246.207 176.664 251.134 179.465 253.502 176.445C257.713 171.091 249.153 168.208 252.263 165.463C256.062 161.948 267.485 174.221 272.468 168.208C276.624 163.184 268.339 159.972 270.844 156.677C274.56 151.845 283.121 161.866 287.553 155.826C291.984 149.786 280.753 145.613 285.295 142.538C289.837 139.463 297.022 135.097 293.553 129.167C290.085 123.236 282.543 127.355 277.808 129.798C273.073 132.242 274.753 120.436 267.32 121.342C259.888 122.248 264.265 134.521 258.319 135.372C254.217 135.948 255.566 127.135 249.042 128.316C241.307 129.688 246.455 145.64 241.528 147.205C237.481 148.495 239.215 139.682 232.471 140.726C228.672 141.302 228.7 146.985 228.617 149.374L227.929 162.086C221.109 164.115 214.878 167.75 209.761 172.683C209.679 172.768 209.573 172.825 209.457 172.847C209.341 172.87 209.221 172.856 209.113 172.808C209.005 172.76 208.914 172.68 208.853 172.58C208.792 172.479 208.763 172.362 208.771 172.244C209.486 155.442 209.541 144.789 215.184 134.85C220.69 125.488 231.7 109.454 248.217 102.755C249.731 102.123 250.969 101.547 252.098 101.025L268.944 105.5C271.257 106.159 276.652 107.944 278.386 104.512C281.442 98.4169 272.523 97.3462 275 93.9143C278.001 89.7411 291.517 99.4053 295.343 92.6239C298.398 86.8857 289.672 85.3757 291.489 81.6418C294.242 76.1507 304.509 84.3873 307.675 77.5235C310.84 70.6596 299.031 68.8476 302.858 64.949C306.684 61.0503 312.905 55.3396 308.363 50.2055C303.821 45.0713 297.352 50.5624 293.058 53.8845C288.764 57.2066 288.241 45.3184 281.111 47.6521C273.982 49.9858 280.864 61.215 275.11 63.2193C271.202 64.592 270.706 55.7514 264.623 58.1126C257.328 60.9954 265.504 75.629 260.989 78.1275C257.273 80.1866 257.245 71.2088 250.832 73.5424C247.226 74.8603 248.354 80.4063 248.767 82.7674L250.584 95.287C234.54 102.151 220.654 113.212 210.395 127.3C209.927 127.959 209.514 128.618 209.128 129.222C207.587 131.583 206.678 132.901 205.33 133.12C205.33 131.775 204.063 119.036 203.761 110.442L216.093 102.206C218.102 100.943 223.029 98.1149 221.598 94.5457C219.066 88.2036 212.322 94.1339 211.413 90.0156C210.285 84.9913 226.691 81.3672 223.965 74.0092C221.708 67.8867 214.744 73.4052 213.175 69.5889C210.863 64.0978 223.855 61.6543 220.855 54.763C217.854 47.8718 208.605 55.4494 208.248 50.0133C207.89 44.5771 207.724 36.2856 200.815 36.2856H199.989H199.136C192.254 36.2856 192.089 44.7419 191.731 50.0133C191.374 55.2847 182.097 47.8992 179.096 54.763C176.096 61.6269 189.089 63.9606 186.776 69.5889C185.207 73.4052 178.243 67.8867 175.986 74.0092C173.233 81.3672 189.749 84.9913 188.566 90.0156C187.63 94.1339 180.886 88.2036 178.381 94.5457C176.949 98.1149 181.877 100.943 183.886 102.206L196.218 110.442C195.915 119.036 194.759 131.775 194.622 133.12C193.3 132.901 192.392 131.583 190.85 129.222L189.584 127.3C179.315 113.228 165.431 102.178 149.395 95.3145L151.212 82.7949C151.597 80.4337 152.753 74.8878 149.147 73.5699C142.706 71.2362 142.678 80.2141 138.99 78.1549C134.448 75.6565 142.651 61.0228 135.329 58.14C129.383 55.9162 128.75 64.6195 124.841 63.2467C119.088 61.2425 125.997 50.0133 118.868 47.6796C111.738 45.3459 111.215 57.2615 106.893 53.9119C102.572 50.5624 96.1578 45.0988 91.5884 50.2329C87.0189 55.3671 93.24 61.215 97.0937 64.9764C100.948 68.7378 89.1385 70.742 92.2765 77.5509C95.4146 84.3598 105.792 76.1782 108.49 81.6692C110.307 85.3757 101.553 86.8857 104.636 92.6513C108.325 99.57 121.951 89.9058 124.979 93.9417C127.456 97.3736 118.51 98.4444 121.593 104.539C123.327 107.971 128.695 106.187 131.007 105.528L147.853 101.053C148.954 101.565 150.248 102.142 151.735 102.782C168.251 109.481 179.454 125.515 184.767 134.878C190.438 144.707 190.465 155.469 191.208 172.272C191.216 172.389 191.187 172.506 191.126 172.607C191.065 172.708 190.974 172.788 190.866 172.835C190.758 172.883 190.638 172.897 190.522 172.875C190.406 172.852 190.3 172.795 190.217 172.711C185.095 167.771 178.853 164.135 172.022 162.113L171.389 149.264C171.389 146.875 171.389 141.192 167.535 140.616C160.791 139.572 162.525 148.386 158.506 147.095C153.551 145.53 158.699 129.579 150.964 128.206C144.55 127.3 145.899 135.948 141.715 135.372C135.659 134.521 140.228 122.166 132.769 121.287C125.309 120.409 127.263 132.269 122.281 129.743C117.299 127.218 110.114 123.182 106.535 129.112C102.957 135.042 110.279 139.463 114.794 142.483C119.308 145.503 108.105 149.703 112.536 155.771C116.968 161.839 125.529 151.79 129.218 156.622C131.75 159.917 123.465 163.129 127.594 168.153C132.603 174.193 144.11 161.921 147.798 165.408C150.909 168.153 142.293 171.091 146.56 176.39C148.954 179.41 153.882 176.61 156.001 175.511L172.187 167.549C180.886 171.091 192.557 178.531 192.199 192.259C192.199 211.478 191.924 227.594 189.281 230.202C189.089 230.367 189.006 230.367 188.979 230.367C187.878 230.367 187.272 229.131 185.951 226.468C182.95 220.291 176.674 207.442 149.34 193.851C134.228 186.329 112.564 189.761 111.821 189.898C105.545 190.2 95.8826 181.002 90.2671 175.841L93.4327 160.411C93.9557 158.077 95.4421 152.586 91.9187 151.076C85.6425 148.331 85.092 157.336 81.5135 155.057C77.1367 152.312 86.1655 138.172 79.0361 134.878C73.0903 132.132 72.0718 140.945 68.273 139.353C62.63 137.019 70.1724 126.229 63.2081 123.484C56.2438 120.738 54.95 132.599 50.9035 128.975C46.8571 125.351 40.6911 119.75 35.7913 124.554C30.8915 129.359 36.8098 135.536 40.3883 139.6C43.9668 143.663 32.1302 144.899 34.8829 151.872C37.6356 158.846 48.4812 151.296 50.821 156.924C52.4175 160.713 43.6089 161.729 46.3341 167.659C49.6373 174.77 63.8137 165.765 66.5664 170.13C68.8511 173.699 59.8498 174.248 62.575 180.508C64.0889 184.022 69.5943 182.54 71.9341 182.018L86.1105 179.273C88.5879 181.249 92.5243 184.352 93.6804 185.23C95.6899 186.741 103.342 192.918 101.223 193.467C95.6969 195.527 90.6217 198.631 86.2757 202.61L72.0993 199.864C69.7595 199.343 64.2816 197.86 62.7401 201.374C59.9874 207.634 69.0163 208.183 66.7591 211.752C64.0064 216.118 49.8025 207.112 46.5268 214.223C43.7741 220.154 52.6102 221.169 51.0137 224.958C48.6463 230.449 37.8282 223.064 35.0756 230.01C32.3229 236.956 44.242 238.247 40.5809 242.283C36.9199 246.318 31.1117 252.468 35.9839 257.328C40.8562 262.188 46.9947 256.312 51.0687 252.743C55.1427 249.174 56.3539 260.98 63.3457 258.234C70.3376 255.489 62.7952 244.671 68.4382 242.337C72.2369 240.745 73.2554 249.531 79.1737 246.813C86.3307 243.518 77.3019 229.379 81.6511 226.633C85.2296 224.354 85.7802 233.332 92.0563 230.614C95.6073 229.104 94.1208 223.613 93.5978 221.279L90.4047 205.712C97.1808 200.344 105.265 196.866 113.83 195.636C147.798 191.133 170.095 213.702 178.931 233.826C185.923 249.915 185.345 291.784 182.62 301.943C182.62 301.943 181.767 302.492 162.718 290.082C158.743 287.453 155.405 283.973 152.946 279.896L159.167 267.651C160.296 265.537 163.158 260.65 160.158 258.234C154.818 253.979 151.9 262.462 149.147 259.36C145.651 255.543 158.121 244.287 152.093 239.235C147.11 235.034 143.834 243.271 140.531 240.718C135.742 236.984 145.871 228.555 139.843 224.052C133.815 219.55 129.383 230.724 126.382 226.139C123.382 221.554 119.033 214.388 113.059 217.902C107.086 221.417 111.132 228.72 113.5 233.607C115.867 238.494 104.086 236.517 104.911 243.957C105.737 251.398 118.152 247.005 118.95 253.045C119.473 257.136 110.692 255.791 111.766 262.215C113.059 269.93 129.108 264.961 130.649 269.93C131.888 273.966 123.079 272.126 124.015 278.88C124.566 282.669 130.264 282.697 132.659 282.807L147.798 283.795C149.375 286.532 151.372 289.005 153.717 291.125C144.121 291.475 134.699 293.773 126.025 297.879L110.94 291.675C108.738 290.714 103.618 288.243 101.471 291.4C97.6168 296.891 106.343 299.28 103.425 302.382C99.9015 306.144 87.6795 294.612 83.0825 301.009C79.2838 306.281 87.7621 308.944 85.4774 312.376C82.0916 317.455 72.8976 308.01 68.9612 314.353C65.0249 320.695 76.3935 324.072 72.0718 327.449C67.75 330.826 60.8683 335.685 64.7221 341.341C68.5758 346.997 75.7328 342.412 80.4124 339.666C85.092 336.921 84.046 348.809 91.4232 347.436C98.8004 346.063 93.4327 334.011 99.406 332.775C103.452 331.924 102.792 340.765 109.123 339.2C116.776 337.305 110.582 321.738 115.399 319.981C119.336 318.443 118.152 327.339 124.841 325.856C128.612 325.033 128.199 319.377 128.117 316.988L127.951 303.645C130.286 302.165 132.779 300.949 135.384 300.021C145.321 297.275 173.921 289.561 179.619 326.213C183.281 342.906 181.794 359.16 176.592 368.934C169.847 381.728 155.726 368.714 141.99 363.772C115.95 354.355 99.4611 371.295 89.9643 374.59C86.299 376.032 82.2375 376.119 78.5131 374.837C78.2838 374.755 78.0344 374.747 77.8005 374.815C77.5666 374.883 77.3601 375.022 77.2106 375.214C77.0611 375.406 76.9761 375.64 76.9678 375.883C76.9594 376.126 77.0282 376.365 77.1642 376.566C81.6787 383.156 92.4142 394.989 106.563 385.599C127.759 371.487 148.046 377.61 157.736 386.835C157.914 387.015 158.028 387.25 158.06 387.501C158.091 387.753 158.039 388.008 157.91 388.227C157.781 388.446 157.584 388.617 157.349 388.712C157.113 388.808 156.852 388.823 156.607 388.756C139.072 383.869 131.42 396.801 119.803 402.676C116.71 404.205 113.299 404.986 109.847 404.957C106.394 404.929 102.997 404.091 99.929 402.512C99.7218 402.408 99.4874 402.37 99.258 402.404C99.0285 402.437 98.815 402.541 98.6465 402.7C98.4781 402.859 98.3628 403.066 98.3165 403.292C98.2701 403.519 98.2949 403.755 98.3875 403.967C100.159 408.776 103.731 412.712 108.352 414.949C122.474 420.687 136.567 411.654 143.779 405.641C152.753 398.146 170.949 403.445 169.435 412.642C168.278 419.726 155.148 424.091 149.753 425.601C149.542 425.662 149.354 425.782 149.209 425.945C149.064 426.109 148.968 426.311 148.934 426.527C148.899 426.742 148.927 426.964 149.013 427.164C149.1 427.365 149.242 427.537 149.422 427.661C152.98 430.137 157.224 431.442 161.562 431.394C180.335 430.379 179.647 414.482 186.501 416.651C192.007 417.42 197.099 447.675 200.1 447.73C203.1 447.785 208.055 417.53 213.67 416.651C220.552 414.482 219.836 430.379 238.637 431.394C242.966 431.442 247.202 430.136 250.749 427.661C250.93 427.537 251.072 427.365 251.158 427.164C251.245 426.964 251.273 426.742 251.238 426.527C251.203 426.311 251.108 426.109 250.963 425.945C250.818 425.782 250.629 425.662 250.419 425.601C244.913 424.091 231.921 419.726 230.737 412.642C229.251 403.445 247.446 398.146 256.392 405.641C263.604 411.654 277.698 420.687 291.819 414.949C296.448 412.722 300.023 408.782 301.784 403.967C301.877 403.755 301.901 403.519 301.855 403.292C301.809 403.066 301.693 402.859 301.525 402.7C301.357 402.541 301.143 402.437 300.914 402.404C300.684 402.37 300.45 402.408 300.243 402.512C297.178 404.086 293.786 404.922 290.339 404.95C286.892 404.979 283.486 404.2 280.396 402.676C268.752 396.801 261.127 383.869 243.565 388.756C243.319 388.823 243.059 388.808 242.823 388.712C242.587 388.617 242.39 388.446 242.262 388.227C242.133 388.008 242.08 387.753 242.112 387.501C242.143 387.25 242.257 387.015 242.436 386.835C252.153 377.61 272.413 371.487 293.636 385.599C307.757 394.989 318.41 383.156 323.035 376.566C323.177 376.363 323.249 376.119 323.241 375.872C323.233 375.624 323.145 375.385 322.991 375.191C322.837 374.997 322.624 374.858 322.384 374.794C322.144 374.73 321.889 374.745 321.658 374.837C317.934 376.119 313.873 376.032 310.207 374.59C300.711 371.295 284.249 354.355 258.181 363.772C244.418 368.714 230.324 381.728 223.58 368.934C218.405 359.05 216.918 342.906 220.58 326.213C226.333 289.561 254.878 297.138 264.788 300.021C267.395 300.943 269.889 302.159 272.22 303.645V316.988C272.22 319.377 271.725 325.033 275.468 325.856C282.157 327.339 280.974 318.443 284.938 319.981C289.755 321.875 283.561 337.443 291.186 339.2C297.517 340.765 296.857 331.924 300.903 332.775C306.877 334.011 301.509 346.036 308.886 347.436C316.263 348.836 315.19 336.921 319.897 339.666C324.604 342.412 331.706 347.024 335.56 341.341C339.413 335.658 332.504 330.771 328.21 327.449C323.916 324.127 335.367 320.667 331.348 314.353C327.329 308.038 318.108 317.455 314.832 312.376C312.547 308.944 321.025 306.281 317.227 301.009C312.657 294.612 300.435 306.144 296.884 302.382C294.132 299.307 302.692 297.056 298.866 291.4C296.692 288.243 291.572 290.714 289.397 291.675L274.285 297.879C265.663 293.789 256.298 291.492 246.758 291.125C248.931 288.96 250.776 286.491 252.236 283.795L267.375 282.807C269.77 282.807 275.441 282.807 275.991 278.88C276.955 272.126 268.146 273.966 269.385 269.93C270.899 264.988 286.947 269.93 288.241 262.215C289.314 255.791 280.533 257.136 281.084 253.045C281.855 247.005 294.297 251.425 295.095 243.957C295.893 236.489 284.084 238.466 286.507 233.607C288.929 228.747 292.948 221.307 286.947 217.902C280.946 214.498 276.624 221.746 273.624 226.276C270.624 230.806 266.329 219.687 260.301 224.162C254.273 228.637 264.43 237.094 259.613 240.827C256.365 243.381 253.061 235.144 248.051 239.345C242.051 244.397 254.493 255.653 250.997 259.47C248.244 262.572 245.244 253.979 239.986 258.344C236.986 260.76 239.848 265.647 241.005 267.761L247.198 280.006C244.748 284.089 241.408 287.57 237.426 290.192C218.377 302.602 217.524 302.053 217.524 302.053C214.771 291.894 214.248 249.888 221.24 233.936C229.911 213.702 252.208 191.133 286.286 195.581C294.848 196.823 302.93 200.299 309.712 205.657L306.519 221.224C305.968 223.558 304.509 229.049 308.033 230.559C314.309 233.305 314.859 224.299 318.438 226.578C322.815 229.324 313.786 243.463 320.915 246.758C326.834 249.503 327.852 240.69 331.678 242.283C337.184 244.616 329.751 255.406 336.743 258.179C343.735 260.952 345.001 249.037 349.048 252.688C353.094 256.34 359.26 262.133 364.105 257.273C368.95 252.414 363.114 246.291 359.536 242.228C355.957 238.164 367.711 236.874 364.958 229.9Z" fill="#EBD6A3"/>
</g>
<defs>
<clipPath id="clip0">
<rect y="0.842285" width="400" height="498.94" fill="white"/>
</clipPath>
</defs>
</svg>
