<svg width="400" height="489" viewBox="0 0 400 489" fill="none" xmlns="http://www.w3.org/2000/svg">
<g clip-path="url(#clip0)">
<path d="M399.897 0.867188H0.104614L200.027 244.731L399.897 0.867188Z" fill="#007096"/>
<path d="M200.001 488.661C232.53 462.798 275.219 429.507 312.169 381.631H87.8331C124.756 429.507 167.472 462.798 200.001 488.661V488.661Z" fill="#007096"/>
<path d="M21.7726 244.764C25.4955 261.027 30.4247 276.99 36.5194 292.522C49.4533 324.429 66.7197 354.406 87.8328 381.612L200.001 244.745L21.7726 244.764Z" fill="#007096"/>
<path d="M399.897 0.867188L199.974 244.764L87.8065 381.631H312.142C333.255 354.425 350.522 324.448 363.456 292.542C369.55 277.01 374.48 261.046 378.202 244.784C402.767 141.682 399.897 0.867188 399.897 0.867188Z" fill="#D0D0CE"/>
<path d="M199.999 244.764L0.10316 0.867188C0.10316 0.867188 -2.76702 141.682 21.7713 244.764H199.999Z" fill="#D0D0CE"/>
</g>
<defs>
<clipPath id="clip0">
<rect y="0.867188" width="400" height="487.79" fill="white"/>
</clipPath>
</defs>
</svg>
