<svg width="400" height="490" viewBox="0 0 400 490" fill="none" xmlns="http://www.w3.org/2000/svg">
<g clip-path="url(#clip0)">
<path d="M395.807 5.13184C395.807 5.13184 395.807 26.4058 395.807 88.142C395.807 230.803 367.296 360.532 200 484.422C33.1236 360.532 4.61206 230.803 4.61206 88.142C4.61206 26.4058 4.61206 5.13184 4.61206 5.13184H395.807V5.13184Z" fill="white"/>
<path d="M379.035 220.792C343.396 209.947 320.754 207.861 293.081 207.861C265.827 207.861 216.771 207.861 216.771 207.861C216.771 207.861 216.771 323.825 216.771 383.476C216.771 443.126 231.446 458.56 231.446 458.56L200.419 483.588L169.391 458.56C169.391 458.56 184.066 443.126 184.066 383.476C184.066 323.825 184.066 207.861 184.066 207.861C184.066 207.861 135.01 207.861 107.756 207.861C80.5026 207.861 57.4418 209.947 21.8023 220.792L18.448 221.627C18.448 221.627 13.8359 204.941 11.7395 190.759C9.64302 176.159 10.0623 160.308 10.0623 160.308C40.251 170.736 67.9239 174.49 97.274 174.49C121.173 174.49 184.486 175.325 184.486 175.325C184.486 175.325 184.486 151.965 184.486 122.765C184.486 83.9717 184.486 51.8522 165.618 5.55005H236.477C217.19 51.8522 217.609 83.9717 217.609 122.765C217.609 152.382 217.609 175.325 217.609 175.325C217.609 175.325 280.922 174.49 304.821 174.49C334.171 174.49 361.844 170.736 392.033 160.308L393.291 159.891C393.291 159.891 390.775 187.004 389.098 197.85C387.002 208.696 383.228 222.044 383.228 222.044L379.035 220.792Z" fill="#FFDC00"/>
<path d="M0 0.543457V88.1421C0 240.397 33.543 366.789 197.484 487.759L200 489.845L202.516 487.759C366.457 366.789 400 240.397 400 88.1421V0.543457H0ZM221.384 212.449H293.082C319.916 212.449 342.558 214.534 377.358 224.963C377.358 224.963 377.358 224.963 377.778 224.963C357.652 313.396 311.53 385.56 233.124 451.885C229.35 443.542 221.384 420.6 221.384 377.218V212.449ZM107.338 212.449H179.036V377.635C179.036 421.017 171.069 443.959 167.296 452.302C88.8889 385.978 42.7673 313.813 22.6415 225.797C57.0231 214.952 80.9224 212.449 107.338 212.449ZM96.4361 170.735C65.8281 170.735 38.5744 166.564 11.74 156.97C10.0629 135.696 9.22432 113.17 9.22432 88.1421V9.72046H161.845C179.455 53.5198 179.455 83.5536 179.455 121.513V170.735H96.4361ZM225.996 458.559C217.61 465.233 209.224 472.325 200.419 478.582C191.614 471.908 183.229 465.233 174.843 458.559C179.036 450.217 188.679 426.023 188.679 377.635V203.689H107.338C80.9224 203.689 55.7652 205.775 20.5451 217.037C17.1908 200.769 14.6751 184.083 12.9979 166.981C39.8323 175.741 66.6667 179.912 96.8553 179.912H188.26V121.513C188.26 84.805 188.26 53.5198 171.488 9.72046H228.931C212.159 53.1026 212.159 84.805 212.159 121.513V122.764C212.159 152.381 212.159 175.324 212.159 175.324V179.912H303.564C333.753 179.912 360.587 175.741 387.421 166.981C385.744 184.083 383.228 200.769 379.874 216.62C343.815 205.775 320.755 203.689 293.082 203.689H212.159V377.635C212.159 426.023 221.384 449.799 225.996 458.559ZM391.195 9.72046V88.1421C391.195 113.17 390.356 135.696 388.26 156.97C361.006 166.147 334.172 170.735 303.564 170.735H221.384V121.513C221.384 83.5536 221.384 53.5198 238.994 9.72046H391.195V9.72046Z" fill="black"/>
</g>
<defs>
<clipPath id="clip0">
<rect y="0.543457" width="400" height="489.3" fill="white"/>
</clipPath>
</defs>
</svg>
