<svg width="861" height="500" viewBox="0 0 861 500" fill="none" xmlns="http://www.w3.org/2000/svg">
<g clip-path="url(#clip0)">
<path d="M0.839844 0V181.452C0.839844 406.452 200.84 500 200.84 500C200.84 500 400.84 406.452 400.84 181.452V0H0.839844Z" fill="#E42313"/>
<path d="M354.065 125.806C339.549 168.548 285.517 167.742 252.452 163.709C245.194 164.516 229.065 166.935 223.42 166.935C222.614 169.354 221.001 177.419 220.194 186.29C223.42 187.903 226.646 188.709 229.872 190.322C231.485 187.096 234.71 184.677 237.13 185.483C239.549 186.29 240.356 190.322 239.549 193.548C246.807 195.967 253.259 197.58 258.904 198.387C259.71 194.354 262.936 191.935 265.356 191.935C267.775 191.935 270.194 195.967 269.388 200C276.646 200.806 283.097 200.806 289.549 200.806C289.549 196.774 291.162 193.548 294.388 193.548C296.807 193.548 299.226 195.967 300.033 200C305.678 199.193 311.323 197.58 316.968 195.967C317.775 195.967 318.581 195.161 319.388 195.161C317.775 191.129 318.581 187.903 321.001 186.29C323.42 184.677 326.646 187.096 329.065 190.322C335.517 187.096 340.356 182.258 345.194 177.419C341.968 175 340.355 170.967 341.968 168.548C343.581 166.129 347.614 166.129 351.646 168.548C354.872 163.709 358.097 158.064 359.71 152.419C354.872 151.612 351.646 148.387 352.452 145.967C353.259 142.742 357.291 141.129 362.13 141.935C362.13 134.677 359.71 128.225 354.065 125.806ZM290.356 241.935C277.452 254.032 250.839 271.774 231.485 253.225C221.001 243.548 202.452 219.354 214.549 168.548C214.549 168.548 214.549 167.742 214.549 166.935C214.549 162.096 211.323 158.871 208.097 158.871C204.872 159.677 203.259 163.709 203.259 168.548C198.42 168.548 193.581 168.548 187.936 169.354C187.936 165.322 185.517 161.29 182.291 161.29C179.872 161.29 177.452 164.516 177.452 168.548C169.388 168.548 161.323 167.742 154.872 166.935C160.517 166.935 166.968 166.129 173.42 166.129C174.227 160.483 177.452 156.451 181.485 155.645C185.517 155.645 189.549 156.451 191.968 164.516C194.388 164.516 196.807 164.516 198.42 163.709C199.227 158.064 203.259 154.838 207.291 154.032C212.13 154.032 216.968 157.258 217.775 162.096C224.227 161.29 229.872 160.483 236.323 159.677C235.517 154.838 237.936 150.806 240.356 150.806C243.581 150.806 246.001 154.032 246.807 158.064C254.065 157.258 260.517 155.645 267.775 154.032C266.968 149.193 268.581 145.161 271.001 144.354C274.227 143.548 277.452 146.774 278.259 151.612C285.517 150 292.775 147.58 299.226 145.161C297.614 141.129 297.614 136.29 300.839 135.483C303.259 133.871 307.291 137.096 308.904 141.129C316.162 137.903 321.807 133.871 327.452 129.838C324.226 126.612 324.226 121.774 325.839 120.161C328.259 118.548 332.291 119.354 335.517 123.387C341.162 118.548 345.194 112.903 349.227 106.451C345.194 104.032 342.775 100.806 343.581 97.5802C345.194 95.1609 349.227 94.3544 353.259 96.7738C355.678 88.7093 354.872 81.4512 352.452 74.9996C348.42 77.4189 343.581 77.4189 341.968 74.9996C340.355 72.5802 341.968 68.548 346.001 66.1286C340.355 60.4834 333.904 56.4512 328.259 55.6447C333.097 90.3222 296.001 105.645 250.033 116.129C211.323 125 177.452 120.161 143.581 154.032C166.162 122.58 192.775 119.354 233.904 113.709C242.775 94.3544 246.001 78.2254 244.388 66.9351C249.227 70.1609 256.485 73.3867 265.356 71.7738C278.259 69.3544 286.323 62.9028 289.549 53.2254C276.646 62.9028 254.065 62.9028 243.581 62.9028C242.775 59.677 240.356 54.8383 237.13 52.4189C240.356 51.6125 244.388 54.0318 246.807 54.8383C251.646 55.6447 277.452 41.9351 277.452 41.9351C277.452 41.9351 241.162 41.9351 234.71 42.7415C234.71 42.7415 233.904 42.7415 232.291 43.548C231.485 44.3544 229.872 45.1609 228.259 46.7738C214.549 40.3222 187.936 41.9351 175.033 48.3867C161.323 54.8383 162.936 70.1609 162.936 70.1609C162.936 70.1609 171.001 64.5157 175.839 64.5157C178.259 64.5157 193.581 64.5157 199.227 66.9351C200.839 67.7415 201.646 67.7415 201.646 70.1609C192.775 69.3544 183.904 68.548 183.904 68.548C183.904 68.548 202.452 72.5802 201.646 78.2254C199.227 94.3544 197.614 97.5802 180.678 104.032C158.904 111.29 151.646 112.096 137.936 136.29C132.291 145.967 128.259 156.451 128.259 156.451C128.259 156.451 106.485 136.29 96.8071 115.322C96.8071 114.516 96.8071 112.096 97.6136 110.483C100.839 100.806 112.13 92.7415 120.194 85.4835C130.678 76.6125 132.291 71.7738 132.291 64.5157C135.517 54.0318 129.065 49.9996 125.839 49.9996C130.678 53.2254 128.259 59.677 124.226 62.0964C116.968 66.9351 119.388 71.7738 116.968 77.4189C112.13 85.4835 105.678 92.7415 100.839 95.1609C104.065 81.4512 112.936 71.7738 110.517 56.4512C112.936 49.9996 108.097 44.3544 100.839 45.9673C104.065 48.3867 106.485 52.4189 102.452 56.4512C100.839 58.0641 96.0007 62.0963 96.8071 67.7415C99.2265 79.0318 96.8071 89.5157 92.7749 94.3544C87.9362 74.9996 91.9684 67.7415 84.7104 60.4834C83.9039 56.4512 78.2588 49.9996 71.0007 56.4512C82.291 56.4512 75.0329 64.5157 76.6459 69.3544C78.2588 74.1931 81.4846 76.6125 84.7104 84.677C87.1297 90.3222 89.5491 98.3867 80.6781 109.677C70.1942 123.387 62.1297 117.742 60.5168 125C58.9039 129.838 54.8717 130.645 50.0329 129.838C50.8394 133.871 56.4846 136.29 60.5168 133.871C71.0007 137.096 74.2265 122.58 82.291 117.742C85.5168 116.129 87.1297 117.742 87.9362 120.161C94.3878 131.451 106.485 162.903 116.968 183.064C121.807 181.451 129.065 181.451 133.904 182.258C133.904 184.677 133.097 189.516 133.097 193.548C120.194 196.774 103.259 201.612 77.4523 204.032C79.0652 187.903 95.1942 171.774 87.1297 160.483C87.1297 153.225 83.0975 150 77.4523 150.806C81.4846 152.419 81.4846 158.064 80.6781 159.677C79.8717 161.29 77.4523 164.516 77.4523 166.129C76.6459 171.774 82.291 172.58 73.42 197.58C69.3878 184.677 74.2265 170.161 66.9684 162.903C65.3555 157.258 60.5168 153.225 52.4523 158.064C55.6781 157.258 62.1297 159.677 59.7104 166.129C55.6781 174.193 62.1297 176.612 64.5491 185.483C66.162 190.322 66.162 195.161 66.162 200C54.0652 187.903 55.6781 179.838 46.8071 177.419C42.7749 170.967 34.7104 172.58 32.291 177.419C34.7104 175.806 41.9684 178.225 41.9684 185.483C42.7749 194.354 46.0007 192.742 51.6459 195.967C61.3233 202.419 66.162 212.903 65.3555 218.548C64.5491 224.193 58.0975 229.838 56.4846 233.064C54.8717 237.096 56.4846 238.709 57.291 240.322C58.0975 242.742 56.4846 246.774 52.4523 248.387C54.8717 248.387 58.9039 248.387 62.9362 242.742C70.1942 241.935 71.0007 226.612 71.8071 220.161C71.8071 217.742 75.033 217.742 75.8394 217.742C93.5813 216.935 126.646 215.322 144.388 214.516C154.872 200 166.968 184.677 190.356 184.677C169.388 192.742 158.904 205.645 153.259 214.516C156.485 229.032 188.743 248.387 183.097 283.871C180.678 270.161 173.42 262.096 168.581 258.064C162.936 256.451 148.42 254.032 141.968 257.258C125.033 264.516 143.581 297.58 142.775 318.548C128.259 317.742 104.872 313.709 104.872 298.387C109.71 286.29 121.001 272.58 114.549 263.709C115.356 258.064 114.549 252.419 109.71 250.806C110.517 253.225 109.71 259.677 105.678 262.096C96.0007 266.129 104.872 288.709 96.8071 287.903C90.3555 287.096 96.8071 267.742 86.3233 265.322C86.3233 262.096 81.4846 254.032 73.42 258.064C77.4523 258.871 79.8717 265.322 79.0652 269.354C68.5813 280.645 90.3555 287.096 86.3233 293.548C83.0975 298.387 74.2265 285.483 64.5491 294.354C62.1297 293.548 50.8394 295.161 50.0329 302.419C54.0652 299.193 59.7104 299.193 62.9362 301.613C66.162 314.516 80.6781 304.838 85.5168 307.258C90.3555 309.677 91.9684 316.935 89.5491 323.387C114.549 348.387 157.291 348.387 170.194 345.967C170.194 335.483 170.194 298.387 186.323 297.58C206.485 330.645 218.581 329.838 237.936 337.096C247.614 352.419 240.356 384.677 225.033 387.903C216.968 383.871 226.646 370.161 214.549 365.322C214.549 361.29 210.517 355.645 203.259 357.258C206.485 358.871 208.904 364.516 208.097 367.742C200.033 377.419 218.581 386.29 214.549 391.935C209.71 398.387 201.646 377.419 190.356 383.871C181.485 382.258 176.646 387.096 175.839 389.516C179.872 388.709 182.291 388.709 186.323 391.129C184.71 403.225 208.097 397.58 208.904 403.225C209.71 412.096 190.356 405.645 187.936 417.742C179.065 420.967 179.065 431.451 181.485 433.064C181.485 429.032 186.323 425.806 189.549 425C193.581 429.838 198.42 429.838 207.291 423.387C215.356 417.742 240.356 400 249.227 409.677C269.388 387.096 270.194 357.258 272.614 342.742C270.194 325.806 237.13 304.838 237.936 273.387C271.807 279.032 288.743 260.483 298.42 250.806C308.904 240.322 329.065 222.58 344.388 235.483C359.71 248.387 341.162 283.871 324.226 297.58C293.581 304.032 291.162 345.967 312.13 363.709C306.485 334.677 333.904 335.483 329.872 301.613C346.001 288.709 371.001 245.161 352.452 227.419C333.097 208.064 305.678 227.419 290.356 241.935ZM199.227 53.2254H192.775C192.775 49.9996 195.194 48.3867 197.614 48.3867C197.614 48.3867 213.743 48.3867 218.581 49.1931C223.42 49.1931 223.42 55.6447 221.807 55.6447C221.807 54.8383 221.807 54.0318 214.549 54.0318C212.936 54.0318 212.936 58.8705 207.291 58.8705C202.452 58.8705 203.259 53.2254 199.227 53.2254Z" fill="#FFDF43"/>
<path d="M460.84 0V181.452C460.84 406.452 660.84 500 660.84 500C660.84 500 860.84 406.452 860.84 181.452V0H460.84Z" fill="black"/>
<path d="M748.743 202.419V237.903H715.679V106.451H747.131V16.9353H711.647V70.9676H678.582V16.9353H643.098V70.9676H610.034V16.9353H574.55V106.451H606.002V237.903H572.937V202.419H537.453V253.226H547.131V387.097H774.55V254.032H784.227V203.226H748.743V202.419ZM653.582 142.742V127.419L662.453 112.903L671.324 127.419V142.742V164.516H662.453H653.582V142.742ZM672.131 343.548V371.774H660.84H649.55V343.548V315.322L660.84 296.774L672.131 315.322V343.548Z" fill="#AD8A30"/>
</g>
<defs>
<clipPath id="clip0">
<rect x="0.839844" width="860" height="500" fill="white"/>
</clipPath>
</defs>
</svg>
