<svg xmlns="http://www.w3.org/2000/svg" fill="none" viewBox="0 0 400 490">
  <path fill="#E11E00" d="M0 .807v174.519c0 223.555 200 314.37 200 314.37s200-90.815 200-314.37V.807H0Z"/>
  <path fill="#FFCD00" d="M351.852 120.066c-14.519 42.075-68 42.075-101.037 37.778-7.556 1.037-22.963 2.963-29.185 3.408-.445 2.074-2.223 10.37-3.111 19.111 3.111 1.333 6.222 2.666 9.333 3.703 1.63-3.703 4.741-5.777 7.259-5.037 2.519.889 3.556 4.445 2.667 8.445 6.815 2.074 13.333 3.704 19.555 4.889 1.037-3.852 3.556-6.519 6.074-6.222 2.667.296 4.445 3.703 4.297 7.703 7.111.741 13.778.889 20 .445 0-4 1.926-7.26 4.592-7.408 2.667-.296 5.037 2.519 5.926 6.371 5.926-.889 11.556-2.074 16.741-3.704l2.667-.889c-1.334-3.852-.741-7.555 1.629-8.741 2.371-1.185 5.926.741 8 4.297 6.074-3.408 11.408-7.704 15.704-12.593-3.259-2.815-4.593-6.518-2.815-8.741 1.63-2.222 5.778-2.074 9.482.297 3.407-5.186 6.074-10.519 7.703-15.704-4.444-.889-7.703-3.704-7.259-6.519.445-2.963 4.593-4.74 9.185-4 .593-8.148-1.926-14.518-7.703-17.037m-62.815 115.556c-12.741 12.296-39.259 29.63-58.815 11.407-10.222-9.481-28.593-33.333-16.889-84.444 0 0 .148-.593.148-1.333.297-4.445-3.555-8.149-6.37-7.852-2.963.444-5.185 4.592-4.445 9.185-4.888.296-9.926.444-14.814.444-.297-4.296-2.815-7.703-5.63-7.703-2.667 0-4.889 3.407-5.037 7.555-8.296-.148-15.852-.741-22.074-1.926 5.778-.444 12-.741 18.37-1.037.889-5.481 3.852-9.778 7.704-10.074 4-.296 8.296.889 10.518 8.889l6.667-.444c1.037-5.482 4.741-9.186 8.741-9.482 4.889-.296 9.185 2.815 10.667 7.704 5.925-.593 12-1.334 18.222-2.074-.593-4.593 1.333-8.741 4.296-9.037 2.963-.297 5.63 2.963 6.37 7.555 6.963-1.037 13.926-2.222 21.037-3.703-1.037-4.593.445-8.741 3.408-9.482 2.815-.741 6.074 2.519 7.111 6.963 7.259-1.926 14.222-4.148 20.593-6.667-1.778-4.296-1.186-8.74 1.481-9.926 2.667-1.185 6.37 1.334 8.296 5.482 6.815-3.408 13.037-7.111 18.519-11.111-2.963-3.556-3.556-8-1.333-9.926 2.222-1.926 6.518-.593 9.481 2.963 5.481-5.185 10.074-10.815 13.63-16.741-4.149-2.074-6.519-5.926-5.334-8.444 1.334-2.667 5.778-3.26 9.926-1.186 2.667-7.851 1.63-15.11-1.185-21.333-3.852 2.519-8.444 2.667-10.074.148-1.63-2.518.148-6.518 4.148-9.185-5.333-5.926-12.148-9.778-17.333-10.518 4.741 34.666-32.148 49.925-77.334 60-38.222 8.444-72.148 4-105.629 37.481 22.074-30.963 49.037-34.667 89.481-39.704 8.593-19.11 12.297-35.11 10.667-46.37 5.037 3.26 11.704 6.074 20.444 4.74 13.186-2.073 21.186-8.74 24-18.518-12.888 9.333-34.814 9.926-45.481 9.482-.889-3.26-2.963-7.704-6.222-10.815 3.407-.593 7.555 1.778 9.777 2.37 5.038.89 30.075-12.74 30.075-12.74s-35.852 0-42.223.444c-.148 0-1.037 0-2.222.74-1.037.741-2.222 1.778-4 3.26-13.926-6.37-39.852-5.185-53.185 1.333-13.333 6.37-12.445 21.63-12.445 21.63s8-5.778 12.741-5.778c2.519 0 17.334-.148 23.408 2.074 1.333.445 2.074 1.185 2.222 3.408-8.593-1.037-18.074-1.334-18.074-1.334s17.333 5.482 16.444 10.963c-2.815 15.852-3.703 19.408-21.037 25.482-21.926 7.555-28.889 8.296-42.37 32.148-5.482 9.629-9.926 20.444-9.926 20.444s-21.333-20-31.407-40.444c-.445-1.037-.297-2.815.444-4.741 3.555-9.778 14.074-17.333 22.815-24.74 10.074-8.445 12.148-13.334 11.852-20.741 3.111-10.37-2.963-14.815-6.667-14.223 4.741 2.963 2.222 9.186-1.926 11.704-7.259 4.445-4.593 9.63-7.407 15.111-4.297 8.148-11.556 15.111-16 17.334 3.259-13.482 11.851-22.815 10.074-38.075 2.37-5.925-2.667-12.296-9.482-10.074 3.556 1.186 5.926 4.741 2.519 8.89-1.482 1.925-6.37 5.629-5.334 10.962 2.074 10.815-.296 21.778-4.148 26.519-4.444-19.111-.592-25.926-8.444-33.926-1.037-4.148-6.37-10.074-14.074-4.148 11.703.444 4.444 8.296 5.926 13.481 1.63 5.185 4.592 7.408 7.703 15.556 2.222 5.63 4.741 13.481-3.555 24.444-10.222 13.482-18.074 8-20.148 15.556-1.334 5.037-5.63 5.778-10.815 5.185.74 4.444 6.37 6.222 10.518 3.555 10.223 3.26 13.926-11.555 21.482-15.555 3.26-1.778 4.444 0 5.778 2.222 6.518 10.963 18.222 42.667 28.888 62.667 4.593-1.334 12.297-1.778 17.038-.889-.297 2.518-.741 7.555-.593 11.407-12.593 2.963-29.926 8.297-55.26 10.223 1.778-15.852 17.482-32.297 9.778-43.556-.296-7.407-4.148-10.37-9.333-9.63 3.852 1.63 3.704 7.408 3.26 8.889-.593 1.482-3.112 4.889-3.408 6.667-.889 5.481 4.889 6.667-4 30.963-4-13.037.74-27.408-5.926-34.667-1.333-5.629-6.37-9.629-14.074-4.444 3.407-1.037 9.778 1.926 6.963 8-4.148 8 2.222 10.222 5.185 19.111 1.63 5.037 1.482 9.778 1.926 14.518-11.704-12.148-10.37-20-19.111-22.222-4-6.074-12-4.741-14.222-.444 2.666-1.482 9.333.592 9.63 7.703.444 8.593 3.703 6.963 9.184 10.519 10.075 6.37 14.815 16.444 13.926 22.667-.74 5.629-7.259 10.963-9.037 14.814-1.777 3.852 0 5.926.593 7.556.593 2.222-.889 6.667-4.593 8.296 2.519.593 6.815-.148 10.37-5.629 7.112-1.037 8.297-16.148 9.038-22.519.296-2.37 3.555-2.667 4.296-2.815 17.482-.889 50.519-2.222 67.704-2.963 10.518-14.074 22.666-29.481 45.333-29.926-20.889 8.149-30.963 20.889-36.444 29.63 2.963 14.074 34.815 33.333 29.629 69.185-2.666-13.185-9.185-21.333-14.074-25.778-5.926-1.481-19.852-3.851-26.666-.888-16.445 7.407 1.926 39.703 1.037 60.592-14.074-.592-37.334-4.889-37.482-20.148 4.445-11.556 16.296-25.481 9.333-34.37 1.038-5.926.149-10.963-5.185-12.445 1.037 2.074-.444 8.445-4.148 11.408-10.074 3.703-.592 26.222-8.74 25.481-6.371-.444.148-19.555-10.667-22.222-.148-2.815-5.037-10.963-13.185-7.556 4.296.593 6.37 7.408 5.777 10.815-10.518 11.259 11.408 17.333 6.963 24.445-3.11 4.74-12-8.297-21.778 1.037-2.666-.889-13.63.889-14.222 7.851 3.704-2.814 9.778-3.111 12.593-.444 3.555 12.593 17.63 3.111 22.37 5.185 4.89 2.074 6.667 9.63 3.704 16.148 24.444 24.445 67.555 25.037 80.296 22.667-1.185-12-.592-48.593 15.26-49.037 20.296 32.889 32.296 31.704 51.407 38.815 9.63 14.963 2.37 46.963-12.741 50.074-7.852-3.704 1.778-17.333-10.37-22.074 0-4.297-3.852-9.63-10.963-7.852 3.259 1.481 5.778 6.815 4.444 10.37-7.703 9.334 10.519 18.667 6.223 24.148-4.889 6.075-12.741-14.074-23.704-8-8.889-1.777-13.334 3.112-14.371 5.63 4-1.185 6.223-1.037 10.667 1.63-1.778 12.444 21.926 6.074 22.667 11.555 1.185 8.889-18.815 2.519-21.037 14.074-8.741 3.408-8.741 13.63-6.519 15.111 0-4 4.445-7.111 8.148-8 4.149 4.889 8.889 4.741 17.778-1.777 7.556-5.63 33.185-23.408 41.482-13.778 19.703-22.519 20.444-51.852 23.259-66.519-2.37-16.592-35.556-37.777-34.667-68.888 33.482 5.629 50.222-13.186 59.852-22.667 10.37-10.371 30.37-27.852 45.482-15.556 14.963 12.297-3.112 47.852-19.704 61.926-30.519 6.519-32.889 48.296-12 65.926-5.63-28.741 21.926-27.852 17.926-61.63 15.703-13.037 41.185-55.999 22.222-73.925-19.111-18.074-46.963 1.037-62.074 15.555M198.519 47.77h-5.926c0-3.407 2.666-4.592 5.037-4.592 0 0 16.148.148 20.592.444 4.445.296 4.445 6.222 2.963 6.222 0-1.185 0-1.481-7.407-1.481-1.778 0-1.482 5.185-6.963 5.185-5.482 0-4.593-5.63-8.296-5.778Z"/>
</svg>