<svg xmlns="http://www.w3.org/2000/svg" fill="none" viewBox="0 0 400 501">
  <path fill="#231F20" d="M0 .807v181.296c0 225.121 200 318.672 200 318.672s200-93.519 200-318.64V.839H.032L0 .807Z"/>
  <path fill="#A78231" d="M287.712 203.149v35.643h-32.948V107.256h31.088V17.907h-35.387v53.962h-32.788V17.907h-35.386v53.962h-32.692V17.907h-35.483v89.349h31.088v131.536h-32.852v-35.643H76.965v51.139h9.24V387.75h227.654V254.288h9.304v-51.139h-35.451Zm-96.663-59.64v-15.143l8.919-14.309 8.951 14.309v36.862h-17.87v-21.719Zm20.436 228.938h-22.938v-55.823l11.421-18.383 11.517 18.383v55.823Z"/>
</svg>